<?xml version="1.0" standalone="no"?>
<!DOCTYPE svg PUBLIC "-//W3C//DTD SVG 1.1//EN" "http://www.w3.org/Graphics/SVG/1.1/DTD/svg11.dtd" >
<svg xmlns="http://www.w3.org/2000/svg">
<metadata>
Created by FontPrep 20130207 at Tue Apr  4 15:34:29 2017
 By Tina Muller
Copyright 2016 by Paulo Goode. All rights reserved.
</metadata>
<defs>
<font id="711f4c1abe10ae9c933264c6d319e9d2" horiz-adv-x='1024' >
  <font-face 
    font-family="WoodfordBournePRO-BoldItalic"
    font-weight="700"
    font-style="italic"
    font-stretch="normal"
    units-per-em="2048"
    panose-1="0 0 8 0 0 0 0 0 0 0"
    ascent="1638"
    descent="-410"
    x-height="866"
    cap-height="1434"
    bbox="-1372.88 -588 5297.56 1978"
    underline-thickness="102"
    underline-position="-102"
    slope="-9"
    unicode-range="U+0020-FB02"
  />
<missing-glyph horiz-adv-x="2017" 
d="M1186 618l192 -233q23 -27 -2 -49l-102 -88q-27 -23 -49 6l-195 229l-272 -235q-29 -25 -51 6l-89 104q-25 25 7 52l270 233l-197 234q-25 25 4 49l103 88q27 23 49 -6l197 -232l270 236q29 25 51 -4l88 -105q23 -27 -2 -49zM1343 -70h185l231 1461h-178q-12 0 -20 9
t-7 21l33 219q6 29 31 29h457q12 0 21 -9t7 -22l-309 -1955q-4 -31 -33 -31h-454q-33 0 -29 31l35 217q3 30 30 30zM829 1391h-184l-231 -1461h178q12 0 20 -9t6 -21l-32 -219q-8 -29 -31 -29h-457q-12 0 -21 9t-7 22l309 1955q4 31 33 31h454q33 0 29 -31l-35 -217
q-4 -30 -31 -30z" />
    <glyph glyph-name="fi" unicode="fi" horiz-adv-x="1183" 
d="M727 1450q227 0 367 -119q33 -23 6 -49l-101 -113q-25 -29 -47 -8q-76 59 -167 59t-149 -58q-58 -60 -75 -165l-20 -131h569q12 0 20 -9t7 -21l-129 -816q-2 -20 -25 -20h-233q-12 0 -23 12q-10 12 -8 25l92 598h-307l-123 -768q-4 -31 -29 -31h-237q-10 0 -20 10
q-9 10 -7 21l121 768h-76q-12 0 -21 9t-8 22l29 172q4 29 29 28h86l24 158q66 426 455 426z" />
    <glyph glyph-name="fl" unicode="fl" horiz-adv-x="1181" 
d="M1200 1450q12 0 22 -9t7 -22l-219 -1390q-4 -29 -31 -29h-236q-12 0 -21 9t-7 22l157 991q12 88 -13 132q-26 44 -101 44q-168 0 -203 -229l-14 -103h129q12 0 21 -9t7 -21l-24 -170q-8 -31 -33 -31h-137l-123 -768q-4 -31 -29 -31h-237q-10 0 -20 10q-9 10 -7 21
l121 768h-76q-12 0 -21 9t-8 22l29 172q4 29 29 28h86l16 121q70 430 453 430q125 0 207 -71l12 75q4 29 29 29h235z" />
    <glyph glyph-name="f_f" unicode="ff" horiz-adv-x="1482" 
d="M756 1171q-168 0 -201 -210l-14 -95h309l10 70q16 125 -7 180q-24 55 -97 55zM1317 866q12 0 21 -9t8 -21l-27 -170q-4 -29 -31 -29h-182l-123 -770q-4 -31 -29 -31h-235q-12 0 -21 10q-8 10 -6 21l119 770h-307l-123 -770q-4 -31 -29 -31h-235q-12 0 -21 10q-8 10 -6 21
l119 770h-76q-12 0 -21 9t-8 22l29 170q4 29 31 28h84l18 125q33 213 158 307t295 94t274 -75q111 133 320 133q172 0 254 -66q20 -18 6 -45l-105 -125q-16 -22 -49 -8t-67 15q-154 0 -189 -224l-20 -131h174z" />
    <glyph glyph-name="f_f_i" unicode="ffi" horiz-adv-x="1785" 
d="M756 1171q-168 0 -201 -210l-14 -95h309l10 70q16 125 -7 180q-24 55 -97 55zM1712 866q12 0 20 -9t7 -21l-129 -816q-2 -20 -25 -20h-233q-12 0 -23 12q-10 12 -8 25l92 598h-307l-123 -768q-4 -31 -29 -31h-237q-10 0 -20 10q-9 10 -7 21l121 768h-76q-8 0 -10 2h-221
l-123 -770q-4 -31 -29 -31h-235q-12 0 -21 10q-8 10 -6 21l119 770h-76q-12 0 -21 9t-8 22l29 170q4 29 31 28h84l18 125q33 213 158 307t294 94t277 -75q115 133 338 133t363 -119q33 -23 6 -49l-100 -113q-25 -29 -48 -8q-76 59 -167 59t-149 -58q-58 -60 -75 -165
l-20 -131h569z" />
    <glyph glyph-name="f_f_l" unicode="ffl" horiz-adv-x="1783" 
d="M756 1171q-168 0 -201 -210l-14 -95h309l16 121q8 96 -17 140q-26 44 -93 44zM1802 1450q12 0 22 -9t7 -22l-219 -1390q-4 -29 -31 -29h-235q-12 0 -22 9q-9 9 -7 22l158 991q12 88 -14 132t-101 44q-168 0 -203 -229l-14 -103h129q12 0 21 -9t7 -21l-24 -170
q-8 -31 -33 -31h-137l-123 -768q-4 -31 -29 -31h-237q-10 0 -20 10q-9 10 -7 21l121 768h-76q-8 0 -10 2h-221l-123 -770q-4 -31 -29 -31h-235q-12 0 -21 10q-8 10 -6 21l119 770h-76q-12 0 -21 9t-8 22l29 170q4 29 31 28h84l18 125q33 213 158 307t298 94t286 -85
q113 111 311 110q125 0 207 -71l12 75q4 29 29 29h235z" />
    <glyph glyph-name=".notdef" horiz-adv-x="2017" 
d="M1186 618l192 -233q23 -27 -2 -49l-102 -88q-27 -23 -49 6l-195 229l-272 -235q-29 -25 -51 6l-89 104q-25 25 7 52l270 233l-197 234q-25 25 4 49l103 88q27 23 49 -6l197 -232l270 236q29 25 51 -4l88 -105q23 -27 -2 -49zM1343 -70h185l231 1461h-178q-12 0 -20 9
t-7 21l33 219q6 29 31 29h457q12 0 21 -9t7 -22l-309 -1955q-4 -31 -33 -31h-454q-33 0 -29 31l35 217q3 30 30 30zM829 1391h-184l-231 -1461h178q12 0 20 -9t6 -21l-32 -219q-8 -29 -31 -29h-457q-12 0 -21 9t-7 22l309 1955q4 31 33 31h454q33 0 29 -31l-35 -217
q-4 -30 -31 -30z" />
    <glyph glyph-name=".null" 
 />
    <glyph glyph-name="nonmarkingreturn" horiz-adv-x="681" 
 />
    <glyph glyph-name="space" unicode=" " horiz-adv-x="428" 
 />
    <glyph glyph-name="exclam" unicode="!" horiz-adv-x="647" 
d="M293 293q65 0 105 -54q40 -55 29 -117t-57 -100t-110 -38t-106 51t-32 115q11 64 59 103q48 40 112 40zM248 422q-31 0 -27 31l90 966q4 31 31 31h281q33 0 26 -31l-217 -966q-6 -31 -31 -31h-153z" />
    <glyph glyph-name="quotedbl" unicode="&#x22;" horiz-adv-x="800" 
d="M621 926q-31 0 -31 30l26 508q0 31 31 31h197q12 0 19 -9t5 -22l-135 -508q-8 -31 -31 -30h-81zM264 926q-31 0 -31 30l27 508q0 31 31 31h196q11 0 19 -9t6 -22l-135 -508q-8 -31 -31 -30h-82z" />
    <glyph glyph-name="numbersign" unicode="#" horiz-adv-x="1490" 
d="M885 602l63 303h-237l-68 -303h242zM1401 1139q10 -1 21 -9t12 -22v-172q0 -14 -12 -22t-21 -9h-182l-66 -303h129q10 0 20 -8t11 -23v-172q0 -14 -11 -22t-22 -8h-182l-72 -338q-6 -31 -43 -31h-192q-39 0 -31 45l69 324h-239l-74 -338q-6 -31 -41 -31h-194
q-37 0 -29 45l67 324h-126q-33 0 -33 30v172q0 31 33 31h182l63 303h-127q-35 0 -35 31v172q0 31 35 31h183l59 280q6 31 41 31h207q31 0 22 -37l-61 -274h239l62 280q6 31 39 31h209q29 0 20 -37l-59 -274h129z" />
    <glyph glyph-name="dollar" unicode="$" horiz-adv-x="1337" 
d="M705 -156h-261q-12 0 -20 8.5t-6 20.5l18 121q-229 35 -354 184q-16 18 6 41l193 170q20 16 41 0q111 -104 323 -104q88 0 171 36.5t92 98t-41 91.5t-199 58q-281 55 -385.5 173t-79.5 282q23 135 142.5 253t318.5 157l20 120q6 35 35 35h260q33 0 27 -35l-21 -118
q221 -35 350 -168q20 -20 -4 -43l-194 -172q-20 -20 -39 -4q-119 100 -310 100q-115 0 -182 -33t-76.5 -91t48 -93t196.5 -62q279 -53 381.5 -166.5t71.5 -297.5q-25 -139 -141.5 -254t-325.5 -154l-21 -125q-4 -29 -34 -29z" />
    <glyph glyph-name="percent" unicode="%" horiz-adv-x="2041" 
d="M1572 201q72 -1 112 69t63 199q23 98 8 166q-14 68 -84 67q-139 0 -186 -268q-20 -115 -2 -174t89 -59zM1552 -16q-176 0 -246 114t-31 363q40 250 136 354q96 105 271 105t246 -115t32 -364q-40 -249 -136 -353t-272 -104zM472 733q71 0 112 70t63 198q23 98 8 166
q-14 68 -84 68q-139 0 -186 -268q-20 -115 -2 -175t89 -59zM584 0q-14 0 -22 10q-7 10 1 23l793 1378q10 15 15 19t24 4h153q12 0 18 -10t1 -23l-787 -1370q-16 -31 -47 -31h-149zM582 1452q176 0 246 -115t32 -363q-39 -248 -135 -354q-96 -104 -272 -104t-247 114t-31 364
t136 354q95 104 271 104z" />
    <glyph glyph-name="ampersand" unicode="&#x26;" horiz-adv-x="1372" 
d="M488 240q66 0 117 32q50 32 112 105q-123 143 -193 246q-137 -102 -157 -230q-9 -69 23 -111t98 -42zM699 1231q-37 0 -69 -31q-81 -80 9 -256q125 104 135 184q8 45 -14 74q-23 29 -61 29zM446 -16q-184 0 -285 122t-71 289q20 109 97 203t229 197q-94 169 -76 313
t131 243t267 99t231 -90q78 -90 53 -234q-31 -188 -270 -354q61 -86 157 -197q125 106 232 173q27 16 43 -5l96 -147q14 -23 -10 -41q-74 -47 -197 -158q72 -79 195 -198q20 -23 -2 -41l-164 -146q-26 -25 -50 0q-24 24 -86 90t-89 95q-213 -213 -431 -213z" />
    <glyph glyph-name="quotesingle" unicode="'" horiz-adv-x="444" 
d="M264 926q-31 0 -31 30l27 508q0 31 31 31h196q11 0 19 -9t6 -22l-135 -508q-8 -31 -31 -30h-82z" />
    <glyph glyph-name="parenleft" unicode="(" horiz-adv-x="796" 
d="M424 -209q-23 -12 -39 8q-109 125 -167 397q-110 514 140 1013q117 232 273 401q18 23 41 4l164 -96q25 -18 8 -41q-117 -135 -213 -357t-125 -430q-70 -426 76 -768q14 -29 -9 -41z" />
    <glyph glyph-name="parenright" unicode=")" horiz-adv-x="798" 
d="M459 1612q23 12 39 -8q109 -124 167 -396t17 -527t-158 -487t-272 -401q-18 -23 -41 -4l-164 96q-25 18 -8 41q117 134 213 356t125 431q70 426 -76 768q-14 29 8 41z" />
    <glyph glyph-name="asterisk" unicode="*" horiz-adv-x="792" 
d="M432 1423q0 27 31 27h104q29 0 23 -25l-55 -180l2 -2l172 80q10 4 20 -1t12 -17l15 -99q4 -27 -21 -32l-186 -27v-4l104 -133q14 -18 -12 -37l-94 -60q-9 -6 -21 -4t-14 13l-55 155h-4l-99 -157q-16 -23 -41 -7l-75 60q-23 16 -2 37l149 131l-2 4l-176 29q-23 6 -10 34
l45 99q12 25 37 16l151 -80l2 2v178z" />
    <glyph glyph-name="plus" unicode="+" horiz-adv-x="1105" 
d="M1018 803q35 0 29 -31l-25 -145q-6 -31 -37 -31h-289l-49 -303q-6 -33 -37 -33h-172q-31 0 -24 33l49 303h-291q-35 0 -29 31l25 147q6 29 37 29h289l49 307q6 31 35 31h172q33 0 26 -33l-49 -305h291z" />
    <glyph glyph-name="comma" unicode="," horiz-adv-x="538" 
d="M135 285h219q33 0 27 -31l-39 -250q-18 -125 -120 -225t-242 -154q-23 -8 -31 21t18 39q121 51 180 121t76 171l-131 48q-27 12 -24 41l28 188q6 31 39 31z" />
    <glyph glyph-name="hyphen" unicode="-" horiz-adv-x="817" 
d="M131 346q-12 0 -20 9t-7 22l23 145q4 31 31 31h532q12 0 22 -9t7 -22l-25 -147q-4 -29 -28 -29h-535z" />
    <glyph glyph-name="period" unicode="." horiz-adv-x="544" 
d="M94 0q-35 0 -28 31l36 221q6 33 37 33h217q35 0 29 -33l-35 -221q-6 -31 -37 -31h-219z" />
    <glyph glyph-name="slash" unicode="/" horiz-adv-x="702" 
d="M188 0h-159q-14 0 -22 9q-7 9 -1 22l572 1372q12 31 32 31h160q14 0 22 -10t3 -21l-574 -1372q-13 -31 -33 -31z" />
    <glyph glyph-name="zero" unicode="0" horiz-adv-x="1302" 
d="M618 258q146 0 214 110t108 367q27 150 26 247t-44 144t-140 48q-154 0 -222 -112t-109 -364q-45 -216 -13 -328q34 -112 180 -112zM804 1450q276 0 384 -178t48 -568q-62 -390 -218 -556q-156 -164 -430 -164t-382 178q-110 178 -48 565t216 555t430 168z" />
    <glyph glyph-name="one" unicode="1" horiz-adv-x="1103" 
d="M834 1434q12 0 21 -10t7 -21l-182 -1147h256q12 0 21 -9t8 -22l-31 -194q-4 -31 -31 -31h-829q-12 0 -22 9q-9 9 -7 22l33 194q4 31 31 31h260l135 850l-234 -74q-12 -4 -22 4t-8 21l32 207q2 14 29 28l246 127q23 14 49 15h238z" />
    <glyph glyph-name="two" unicode="2" horiz-adv-x="1239" 
d="M778 1450h8q246 0 344 -130t64 -310q-23 -138 -111 -234q-35 -39 -44 -47t-48 -45l-432 -405h510q11 1 21 -9t8 -22l-35 -217q-4 -31 -31 -31h-940q-12 0 -21 9t-8 22l29 182q4 20 17 33l483 444q268 244 289 361q12 67 -27 95q-38 28 -106 28t-111 -14
q-92 -31 -127 -144q-12 -27 -35 -27h-239q-25 0 -24 40q2 92 81 201q43 60 103 107t160 80t222 33z" />
    <glyph glyph-name="three" unicode="3" horiz-adv-x="1241" 
d="M778 1450q250 0 349 -120t71 -310q-35 -225 -227 -301q70 -25 121 -107t28 -225q-29 -182 -166 -293q-137 -110 -366 -110t-341 82q-111 82 -129 168q-9 44 -16 84q-6 40 4 67q8 29 31 29h234q25 0 28 -29q8 -125 174 -125q233 0 261 184q10 78 -39 107t-197 29h-61
q-12 0 -22 9q-9 9 -7 21l37 215q4 31 30 31h54q137 0 199 36t72 120t-23 123t-129 39t-157 -34q-62 -34 -81 -91q-10 -29 -33 -29h-237q-29 0 -27 37q17 141 144 258q65 59 175 97t246 38z" />
    <glyph glyph-name="four" unicode="4" horiz-adv-x="1314" 
d="M465 557h315l84 512zM848 1434h348q12 0 22 -10t7 -21l-133 -846h102q12 0 20 -9t7 -20l-33 -217q-4 -31 -31 -30h-110l-39 -252q-4 -29 -31 -29h-252q-12 0 -22 9q-9 9 -7 22l39 250h-637q-12 0 -21 9t-7 21l30 183q2 8 19 36l694 885q15 19 35 19z" />
    <glyph glyph-name="five" unicode="5" horiz-adv-x="1243" 
d="M139 414h242q25 0 19 -41t39 -77q43 -36 143 -36t173 59t85 155t-27 140q-64 74 -239 35q-67 -14 -123 -41q-20 -6 -84 10l-189 44q-27 6 -18 30l227 717q10 25 31 25h760q12 0 21 -10t7 -21l-35 -217q-4 -29 -30 -29l-553 -2l-90 -254q222 86 402 20q179 -66 227 -250
q26 -99 6 -222q-35 -219 -185 -343t-380 -122q-230 0 -357 100t-102 299q4 31 30 31z" />
    <glyph glyph-name="six" unicode="6" horiz-adv-x="1234" 
d="M609 260q91 0 157 62t79 162t-30 162t-132 62t-155 -56q-66 -58 -78 -157t28 -167t131 -68zM735 956q211 0 319 -136t76 -352t-182 -350q-152 -134 -368 -134q-256 0 -369 191t-59 529t225 542q172 204 424 204q109 0 189 -40q134 -66 175 -217q16 -58 9 -103
q-8 -29 -29 -29h-207q-18 0 -31 24q-31 88 -141 89q-229 0 -303 -332q104 114 272 114z" />
    <glyph glyph-name="seven" unicode="7" horiz-adv-x="1097" 
d="M254 1155q-12 0 -22 9q-9 9 -7 22l35 219q4 29 29 29h870q15 0 23 -16t0 -32l-772 -1357q-23 -29 -45 -29h-281q-14 0 -18 12t4 25l643 1118h-459z" />
    <glyph glyph-name="eight" unicode="8" horiz-adv-x="1236" 
d="M580 258q86 0 160 39t85 115q10 76 -35 130q-46 54 -128 79q-111 -29 -180 -83t-79 -127q-9 -73 41 -113t136 -40zM740 1174q-81 0 -137 -41t-64 -107t27 -113q36 -47 108 -67q186 53 207 174q10 62 -25 108t-116 46zM772 1450q228 0 332 -126t74 -308t-211 -305
q84 -43 127 -131t24 -203q-27 -174 -172 -284q-145 -109 -392 -109t-363 122t-85 306q37 217 256 319q-68 53 -99 141q-32 88 -15 191q25 163 160 275q136 112 364 112z" />
    <glyph glyph-name="nine" unicode="9" horiz-adv-x="1232" 
d="M659 739q82 -1 153 59t84 160t-31 166q-44 64 -134 64t-159 -62t-83 -166q-14 -103 37 -162t133 -59zM537 -16q-174 0 -272 73t-122 163q-25 91 -12 124q6 31 29 31h233q16 0 33 -31q25 -84 130 -84t183 80t115 227q-98 -88 -250 -88q-223 1 -334 143q-110 142 -74 361
t195 343q160 124 377 124q262 0 361 -192t42 -527q-69 -399 -227 -573t-407 -174z" />
    <glyph glyph-name="colon" unicode=":" horiz-adv-x="626" 
d="M135 0q-35 0 -29 31l37 221q6 33 37 33h217q35 0 29 -33l-35 -221q-6 -31 -37 -31h-219zM219 530q-35 0 -29 31l37 221q6 33 37 33h217q35 0 29 -33l-35 -221q-6 -31 -37 -31h-219z" />
    <glyph glyph-name="semicolon" unicode=";" horiz-adv-x="622" 
d="M176 285h219q33 0 27 -31l-39 -250q-19 -125 -121 -225t-242 -154q-22 -8 -30 21t18 39q121 51 180 121t76 171l-131 48q-27 12 -24 41l28 188q6 31 39 31zM217 530q-35 0 -29 31l37 221q6 33 37 33h217q35 0 29 -33l-35 -221q-6 -31 -37 -31h-219z" />
    <glyph glyph-name="less" unicode="&#x3c;" horiz-adv-x="1181" 
d="M506 700l545 -229q27 -10 14 -39l-74 -129q-14 -29 -45 -16l-782 331q-18 10 -17 33q9 55 15 93t28 47l885 335q31 12 39 -14l35 -135q6 -29 -25 -41z" />
    <glyph glyph-name="equal" unicode="=" horiz-adv-x="1163" 
d="M143 418q-12 0 -20 9t-6 22l22 145q4 31 31 31h879q10 1 19 -9t7 -22l-24 -148q-4 -29 -29 -28h-879zM201 780q-13 0 -21 10t-6 21l23 145q4 31 30 31h879q10 0 19 -9t8 -22l-25 -147q-4 -29 -29 -29h-878z" />
    <glyph glyph-name="greater" unicode="&#x3e;" horiz-adv-x="1181" 
d="M762 707l-545 229q-27 10 -14 39l73 129q14 29 46 16l782 -332q18 -10 16 -32q-10 -55 -16 -107q-4 -25 -27 -33l-884 -335q-31 -12 -39 14l-35 135q-6 29 24 41z" />
    <glyph glyph-name="question" unicode="?" horiz-adv-x="1126" 
d="M444 279q60 1 100 -49t30 -111t-54 -98q-46 -37 -108 -37t-102 49t-28 109t56 98q46 38 106 39zM721 1450q129 0 219 -38t133 -100q83 -119 62 -263q-19 -144 -93 -220q-74 -75 -196 -151t-168 -125q-45 -49 -70 -129q-6 -31 -28 -31h-211q-25 0 -25 49q8 227 234 371
q27 18 85 53t91 57q32 21 64 59t40 87t-31 85t-126 36q-126 0 -182 -64q-25 -29 -34 -46q-10 -17 -21 -35t-11 -27q-12 -27 -31 -25l-209 2q-27 4 -23 33q10 180 154 301t377 121z" />
    <glyph glyph-name="at" unicode="@" horiz-adv-x="2093" 
d="M995 203q168 0 209 243q35 211 -112 211q-92 0 -153 -68q-60 -69 -77 -175q-29 -211 133 -211zM1634 1300q238 0 341 -120t71 -326l-92 -584q-49 -301 -408 -301q-240 0 -311 150q-121 -135 -315 -135t-277 134q-84 134 -51 331q32 197 150 315t290 119q172 0 246 -88
l27 43q23 27 47 26h166q12 0 20 -9t6 -24l-84 -538q-14 -98 70 -98q47 -1 89 35t54 118l82 522q12 82 -21 144q-34 61 -110 61h-580q-242 0 -427 -180t-234 -483q-35 -201 37 -383q10 -29 -17 -29h-227q-20 0 -39 18q-18 18 -22 43q-57 162 -21 388q62 365 330 609t627 242
h583z" />
    <glyph glyph-name="A" unicode="A" horiz-adv-x="1415" 
d="M549 485h344l-105 420zM915 1450q23 0 31 -27l371 -1390q6 -33 -27 -33h-237q-10 0 -20.5 9t-12.5 20l-51 180h-584l-98 -180q-18 -29 -37 -29h-246q-20 0 -30.5 17.5t-0.5 33.5l805 1383q8 16 25 16h112z" />
    <glyph glyph-name="B" unicode="B" horiz-adv-x="1257" 
d="M672 276q70 0 122 45.5t64 129.5q23 137 -115 137h-262l-47 -312h238zM776 1157h-203l-49 -311h205q66 0 115 44t61 128q23 139 -129 139zM733 0h-622q-10 0 -19.5 9t-7.5 22l217 1374q4 29 31 29h569q158 0 250 -120t62 -302t-179 -293q70 -47 105.5 -135t19.5 -199
q-27 -164 -147.5 -274.5t-278.5 -110.5z" />
    <glyph glyph-name="C" unicode="C" horiz-adv-x="1466" 
d="M752 -16q-307 0 -486.5 220t-130.5 524t288 513t533 209q164 0 297 -69.5t209 -192.5q16 -31 -10 -51l-154 -133q-10 -10 -31.5 -8.5t-29.5 16.5q-43 68 -121 112.5t-176 44.5q-182 0 -324 -137q-142 -138 -172.5 -328t60 -315t264.5 -125q223 0 379 178q27 27 51 0
l137 -157q29 -29 4 -52q-117 -119 -272 -184t-315 -65z" />
    <glyph glyph-name="D" unicode="D" horiz-adv-x="1404" 
d="M657 279q158 0 257.5 117.5t134.5 333.5t-22.5 320.5t-213.5 104.5h-240l-141 -876h225zM641 0h-530q-10 0 -19.5 9t-7.5 22l217 1374q4 29 31 29h528q274 0 414.5 -189t84.5 -538t-250 -528t-468 -179z" />
    <glyph glyph-name="E" unicode="E" horiz-adv-x="1198" 
d="M1036 279q10 0 19.5 -9.5t7.5 -21.5l-35 -219q-4 -29 -29 -29h-888q-10 0 -19.5 9t-7.5 22l217 1374q4 29 31 29h887q12 0 21 -9.5t7 -21.5l-35 -219q-4 -29 -30 -29h-609l-47 -299h406q12 0 21.5 -9t7.5 -22l-37 -217q-4 -29 -31 -28h-412l-49 -301h604z" />
    <glyph glyph-name="F" unicode="F" horiz-adv-x="1173" 
d="M1214 1434q12 0 20.5 -9.5t6.5 -21.5l-33 -217q-4 -31 -30 -31h-605l-55 -344h422q12 0 20.5 -9t6.5 -22l-35 -217q-4 -29 -29 -28h-430l-78 -506q-4 -29 -30 -29h-254q-12 0 -20.5 9t-6.5 22l217 1374q4 29 31 29h882z" />
    <glyph glyph-name="G" unicode="G" horiz-adv-x="1480" 
d="M1374 793q12 0 21.5 -8.5t7.5 -20.5l-98 -617q-2 -27 -21 -34q-80 -49 -231.5 -89t-290.5 -40q-297 0 -486.5 213t-139.5 531t296 520t531 202q160 0 293 -71.5t204 -192.5q16 -25 -4 -45l-168 -144q-14 -12 -30.5 -8t-24.5 19q-45 72 -121 119t-174 47q-178 0 -322 -140
t-173.5 -328t63 -317t262.5 -129q135 0 250 70l37 196h-166q-14 0 -22.5 9.5t-6.5 21.5l33 207q4 29 31 29h450z" />
    <glyph glyph-name="H" unicode="H" horiz-adv-x="1474" 
d="M1454 1434q12 0 20.5 -9.5t6.5 -21.5l-217 -1374q-4 -29 -31 -29h-254q-12 0 -20.5 9t-6.5 22l86 538h-559l-84 -540q-4 -29 -30 -29h-254q-12 0 -20.5 9t-6.5 22l217 1374q4 29 29 29h256q10 0 19 -9.5t7 -21.5l-88 -557h559l86 559q4 29 31 29h254z" />
    <glyph glyph-name="I" unicode="I" horiz-adv-x="606" 
d="M111 0q-12 0 -20.5 9t-6.5 22l217 1374q4 29 29 29h256q12 0 20 -9.5t6 -21.5l-217 -1374q-4 -29 -28 -29h-256z" />
    <glyph glyph-name="J" unicode="J" horiz-adv-x="1052" 
d="M1030 1434q12 0 21.5 -8.5t7.5 -22.5l-152 -961q-33 -213 -156.5 -335.5t-334.5 -122.5q-143 0 -244.5 73.5t-130.5 212.5q-6 33 12 41l170 84q37 12 56 -28q35 -92 137 -93q61 0 114.5 47.5t69.5 147.5l148 934q4 31 30 31h252z" />
    <glyph glyph-name="K" unicode="K" horiz-adv-x="1380" 
d="M365 0h-254q-12 0 -20.5 9t-6.5 22l217 1374q4 29 29 29h256q10 0 19 -9.5t7 -21.5l-98 -596l588 604q20 23 57 23h277q18 0 25 -19.5t-7 -34.5l-663 -663l436 -674q10 -10 3 -26.5t-28 -16.5h-268q-27 0 -45 31l-397 581l-97 -583q-4 -29 -30 -29z" />
    <glyph glyph-name="L" unicode="L" horiz-adv-x="1153" 
d="M1014 279q10 0 18 -9.5t6 -21.5l-34 -219q-4 -29 -29 -29h-864q-10 0 -19.5 9t-7.5 22l217 1372q4 31 29 31h256q12 0 20 -9.5t6 -21.5l-180 -1124h582z" />
    <glyph glyph-name="M" unicode="M" horiz-adv-x="1792" 
d="M1526 1434h246q12 0 21 -9.5t7 -21.5l-219 -1374q-4 -29 -29 -29h-252q-12 0 -21 9t-7 22l117 741l-494 -749q-14 -23 -35 -23h-47q-29 0 -47 39l-254 737l-117 -747q-4 -29 -30 -29h-252q-14 0 -22.5 9t-6.5 22l217 1374q4 29 31 29h231q35 0 47 -39l289 -895l582 911
q14 23 45 23z" />
    <glyph glyph-name="N" unicode="N" horiz-adv-x="1517" 
d="M1495 1434q12 0 21.5 -9.5t7.5 -21.5l-217 -1374q-4 -29 -31 -29h-207q-29 0 -47 37l-487 852l-140 -860q-4 -29 -30 -29h-252q-12 0 -20.5 9t-6.5 22l215 1374q4 29 29 29h219q25 0 47 -37l481 -832l135 840q4 29 29 29h254z" />
    <glyph glyph-name="O" unicode="O" horiz-adv-x="1617" 
d="M776 262q182 0 318.5 136.5t167.5 326.5t-59.5 317t-271.5 127t-318.5 -137t-168.5 -327.5t59.5 -316.5t272.5 -126zM751 -16q-304 0 -484.5 219t-131.5 524t283.5 514t538.5 209t482.5 -220t130.5 -526.5t-281.5 -513t-537.5 -206.5z" />
    <glyph glyph-name="P" unicode="P" horiz-adv-x="1230" 
d="M705 715q82 0 136 64.5t71 163.5t-10.5 156.5t-102.5 57.5h-226l-71 -442h203zM764 438h-305l-64 -409q-4 -29 -30 -29h-252q-31 0 -27 31l215 1374q4 29 31 29h592q168 0 254 -139t44 -371.5t-168 -359t-290 -126.5z" />
    <glyph glyph-name="Q" unicode="Q" horiz-adv-x="1622" 
d="M776 262q182 0 318.5 136.5t167.5 326.5t-59.5 317t-271.5 127t-318.5 -137t-168.5 -327.5t59.5 -316.5t272.5 -126zM957 1450q304 0 482.5 -220t129.5 -534q-41 -266 -236 -463l111 -131q23 -23 0 -45l-166 -145q-27 -18 -43 2l-129 154q-172 -84 -354 -84
q-305 0 -485.5 219t-131.5 524t283.5 514t538.5 209z" />
    <glyph glyph-name="R" unicode="R" horiz-adv-x="1341" 
d="M795 743q76 0 130 58.5t72 167.5q31 186 -118 186h-306l-65 -412h287zM1145 0h-244q-29 0 -39 31l-166 434h-233l-68 -436q-4 -29 -30 -29h-252q-31 0 -27 31l215 1374q4 29 29 29h678q156 0 242.5 -139.5t56 -335t-112.5 -310t-193 -149.5l162 -469q10 -31 -18 -31z" />
    <glyph glyph-name="S" unicode="S" horiz-adv-x="1300" 
d="M604 -16q-334 0 -510 206q-20 25 -2 43l164 140q20 16 43 0q37 -39 121 -77t183 -38t183 43t96 111t-42 107q-73 54 -228 93q-266 80 -340 160q-36 39 -59 103.5t-10.5 142.5t52.5 149.5t107.5 137t180 105.5t252.5 40q309 0 493 -197q23 -29 -4 -51l-156 -131
q-27 -20 -53 -2q-145 104 -301 105q-106 0 -178 -39t-80 -102.5t48.5 -103.5t170.5 -75q94 -25 146.5 -41t129 -54t114.5 -80t59.5 -111.5t7.5 -157.5q-33 -172 -178.5 -299t-409.5 -127z" />
    <glyph glyph-name="T" unicode="T" horiz-adv-x="1271" 
d="M1313 1434q12 0 21 -9.5t7 -21.5l-34 -217q-4 -31 -31 -31h-369l-178 -1126q-4 -29 -31 -29h-252q-12 0 -21 9t-7 22l178 1124h-363q-12 0 -21 9.5t-7 21.5l35 219q4 29 30 29h1043z" />
    <glyph glyph-name="U" unicode="U" horiz-adv-x="1417" 
d="M1430 1434q31 0 26 -31l-129 -780q-41 -255 -185 -433q-77 -96 -202 -151t-271.5 -55t-248 38.5t-157.5 103t-92 149.5t-36 177.5t10 186.5l127 764q6 31 31 31h254q31 0 27 -31l-125 -752q-29 -178 22 -283.5t193.5 -105.5t231.5 113.5t118 292.5l121 735q4 31 31 31
h254z" />
    <glyph glyph-name="V" unicode="V" horiz-adv-x="1488" 
d="M1540 1434q18 0 28.5 -14.5t2.5 -26.5l-803 -1364q-18 -29 -39 -29h-108q-23 0 -31 31l-365 1372q-6 31 23 31h246q29 0 34 -29l224 -875l503 873q16 31 50 31h235z" />
    <glyph glyph-name="W" unicode="W" horiz-adv-x="2017" 
d="M2075 1434q16 0 24 -11.5t2 -27.5l-639 -1366q-16 -29 -37 -29h-122q-23 0 -33 29l-185 835l-432 -837q-12 -27 -35 -27h-126q-23 0 -29 29l-240 1366q-6 39 25 39h235q25 0 31 -29l135 -827l420 833q12 23 31 23h110q18 0 27 -31l190 -825l388 833q12 23 28 23h232z" />
    <glyph glyph-name="X" unicode="X" horiz-adv-x="1449" 
d="M1274 0h-258q-33 0 -53 37l-218 446l-362 -454q-29 -29 -55 -29h-267q-20 0 -30.5 17.5t4.5 35.5l573 705l-313 633q-20 43 16 43h258q33 0 49 -37l191 -391l328 405q16 23 49 23h264q18 0 28.5 -18.5t-1.5 -35.5l-529 -651l342 -694q8 -10 4 -22.5t-20 -12.5z" />
    <glyph glyph-name="Y" unicode="Y" horiz-adv-x="1339" 
d="M1389 1434q20 0 30.5 -16.5t-2.5 -37.5l-571 -772l-94 -579q-4 -29 -29 -29h-254q-12 0 -21.5 8t-7.5 23l95 577l-308 791q-12 35 23 35h248q33 0 49 -37l184 -484l359 494q16 27 49 27h250z" />
    <glyph glyph-name="Z" unicode="Z" horiz-adv-x="1271" 
d="M289 1155q-12 0 -21.5 9.5t-7.5 21.5l35 219q4 29 29 29h981q20 0 27 -18.5t-5 -35.5l-786 -1101h561q12 0 20 -9.5t6 -21.5l-34 -219q-4 -29 -29 -29h-1002q-25 0 -34 17.5t4 33.5l786 1104h-530z" />
    <glyph glyph-name="bracketleft" unicode="[" horiz-adv-x="782" 
d="M795 1391h-185l-231 -1461h178q13 0 21 -9t6 -21l-33 -219q-6 -29 -31 -29h-457q-12 0 -21 9t-7 22l309 1955q4 31 33 31h454q33 0 29 -31l-35 -217q-3 -30 -30 -30z" />
    <glyph glyph-name="backslash" unicode="\" horiz-adv-x="1136" 
d="M823 0q-20 0 -32 31l-574 1372q-4 12 3 21t22 10h159q20 0 33 -31l572 -1372q6 -11 -1 -21t-22 -10h-160z" />
    <glyph glyph-name="bracketright" unicode="]" horiz-adv-x="782" 
d="M59 -70h185l231 1461h-178q-12 0 -21 9q-8 9 -6 21l33 219q8 29 31 29h457q12 0 21 -9t7 -22l-309 -1955q-4 -31 -33 -31h-454q-33 0 -29 31l35 217q3 30 30 30z" />
    <glyph glyph-name="asciicircum" unicode="^" horiz-adv-x="856" 
d="M852 1145h-92q-18 0 -33 31l-133 256l-213 -263q-16 -25 -37 -24h-108q-14 0 -21 10q-6 10 2 23l309 436q2 4 8 9q5 5 6 7q4 8 21 8h115q18 0 31 -30l167 -430q4 -12 -2 -22t-20 -11z" />
    <glyph glyph-name="underscore" unicode="_" horiz-adv-x="1251" 
d="M35 -264q-12 0 -21 8q-8 8 -6 20l12 86q4 29 29 29h969q12 0 21 -8t8 -21l-15 -86q-4 -29 -31 -28h-966z" />
    <glyph glyph-name="grave" unicode="`" horiz-adv-x="696" 
d="M653 1272l-354 219q-20 14 -8 39l69 125q4 12 18 15t25 -7l314 -293q20 -20 4 -41l-27 -49q-12 -26 -41 -8z" />
    <glyph glyph-name="a" unicode="a" horiz-adv-x="1079" 
d="M479 203q82 0 138.5 64.5t72.5 183.5q29 213 -119 213q-90 0 -151.5 -72t-76.5 -173t19.5 -158.5t116.5 -57.5zM1006 864q12 0 21 -9t7 -21l-127 -803q-4 -31 -30 -31h-156q-25 0 -53 47l-11 31q-104 -94 -243 -94q-207 -2 -290 135t-52 329t150.5 313.5t307.5 121.5
q141 0 230 -88l28 43q18 27 46 26h172z" />
    <glyph glyph-name="b" unicode="b" horiz-adv-x="1071" 
d="M506 203q86 0 146.5 67.5t75.5 171.5q32 222 -130 222q-86 0 -141.5 -63.5t-71.5 -178.5q-33 -219 121 -219zM654 883q105 0 183 -40q78 -39 115 -105q84 -149 47 -324q-31 -188 -149.5 -309t-291.5 -121t-255 102l-29 -53q-14 -33 -47 -33h-153q-12 0 -21.5 9t-7.5 22
l221 1388q4 31 29 31h237q31 0 27 -31l-94 -594q84 58 189 58z" />
    <glyph glyph-name="c" unicode="c" horiz-adv-x="976" 
d="M457 -16q-205 0 -311.5 135t-74.5 326.5t171 314.5t327 123q229 0 336 -162q14 -23 -6 -39l-121 -102q-23 -14 -41 8q-63 76 -156 76t-158 -67t-79 -166t25 -163.5t131 -64.5q49 0 71.5 11t36 17.5t26.5 17.5t23 19t31 29t45 -6l103 -115q16 -23 2 -41
q-41 -51 -147.5 -101t-233.5 -50z" />
    <glyph glyph-name="d" unicode="d" horiz-adv-x="1071" 
d="M477 203q84 0 137.5 63.5t71.5 171.5q35 225 -115 226q-92 0 -152.5 -72t-75.5 -169t17.5 -158.5t116.5 -61.5zM1092 1450q12 0 20 -9t6 -22l-219 -1388q-4 -31 -31 -31h-129q-23 0 -39 27l-30 45q-104 -88 -254 -88q-205 0 -291 135t-54 329t152.5 314.5t306.5 120.5
q125 0 201 -62l94 598q4 31 29 31h238z" />
    <glyph glyph-name="e" unicode="e" horiz-adv-x="1017" 
d="M562 696q-71 0 -124 -50t-69 -118h315q10 72 -20.5 120t-101.5 48zM591 883q206 0 295 -136.5t52 -379.5q-4 -31 -31 -31h-571q16 -150 180 -150q102 0 207 62q10 6 24.5 3t18.5 -15l53 -130q16 -27 -19.5 -51.5t-131 -47.5t-187.5 -23q-211 0 -325.5 131t-85.5 327.5
t172 318.5t349 122z" />
    <glyph glyph-name="f" unicode="f" horiz-adv-x="880" 
d="M711 1450q172 0 254 -66q20 -18 6 -45l-105 -125q-16 -22 -49 -8t-67 15q-154 0 -189 -224l-20 -131h174q12 0 21 -9t7 -21l-26 -170q-4 -29 -31 -29h-182l-123 -770q-4 -31 -29 -31h-235q-12 0 -20.5 10.5t-6.5 20.5l119 770h-76q-12 0 -21.5 9t-7.5 22l29 170
q4 29 29 28h86l24 158q68 426 439 426z" />
    <glyph glyph-name="g" unicode="g" horiz-adv-x="1089" 
d="M489 203q177 0 215 230t-129 231q-94 0 -153.5 -69t-77.5 -171q-37 -221 145 -221zM1016 864q12 0 21.5 -9t6.5 -21l-135 -854q-33 -203 -172 -317t-348 -114q-279 0 -375 189q-12 20 6 37l136 108q25 19 41 -9t32.5 -47.5t55.5 -38.5t90 -19q100 0 171.5 58t90.5 159
l12 73q-94 -76 -239 -75q-203 0 -287 134t-51 330t151.5 315.5t284.5 119.5t252 -90l28 45q20 27 46 26h182z" />
    <glyph glyph-name="h" unicode="h" horiz-adv-x="1105" 
d="M686 883q168 0 257 -112t56 -320l-67 -422q-4 -29 -31 -29h-233q-12 0 -20.5 9t-6.5 22l72 471q27 162 -107 162q-72 0 -127 -50.5t-65 -111.5l-74 -473q-4 -29 -31 -29h-235q-12 0 -21.5 9t-7.5 22l221 1390q4 29 29 29h235q12 0 20.5 -9t6.5 -22l-100 -610
q104 74 229 74z" />
    <glyph glyph-name="i" unicode="i" horiz-adv-x="548" 
d="M94 0q-12 0 -21 9t-7 22l124 807q4 29 31 28h236q12 0 21 -9t7 -21l-129 -807q-4 -29 -28 -29h-234zM376 1030q-68 0 -112 54q-43 54 -31 123q13 69 63 110t118 41t112 -55t32 -123q-13 -68 -63 -109q-51 -41 -119 -41z" />
    <glyph glyph-name="j" unicode="j" horiz-adv-x="591" 
d="M-51 -451q-168 0 -250 72t-94 168q-6 27 12 33l188 72q29 6 35 -21q33 -104 107 -104q119 0 145 170l141 897q8 31 31 30h234q14 0 22 -9t6 -21l-141 -895q-63 -392 -436 -392zM420 1030q-68 0 -112 53t-33 121t61 112t120 44t114 -55t31 -123t-62 -111q-51 -41 -119 -41
z" />
    <glyph glyph-name="k" unicode="k" horiz-adv-x="1101" 
d="M948 0h-248q-29 0 -49 31l-248 375l-63 -377q-4 -29 -31 -29h-235q-12 0 -21.5 8t-7.5 23l221 1390q4 29 29 29h235q12 0 21.5 -8t7.5 -23l-147 -913l327 336q25 25 49 24h261q16 0 21 -15t-7 -28l-371 -362l275 -430q6 -12 0 -21.5t-19 -9.5z" />
    <glyph glyph-name="l" unicode="l" horiz-adv-x="512" 
d="M74 0q-12 0 -21.5 9t-7.5 22l221 1390q4 29 29 29h235q12 0 21.5 -9t7.5 -22l-219 -1390q-4 -29 -31 -29h-235z" />
    <glyph glyph-name="m" unicode="m" horiz-adv-x="1669" 
d="M1261 883q177 0 256.5 -106.5t45.5 -315.5l-68 -432q-4 -29 -31 -29h-235q-10 0 -19.5 9t-7.5 22l74 469q26 164 -104 164q-66 0 -117 -50.5t-64 -117.5l-71 -467q-4 -29 -31 -29h-236q-12 0 -21 9t-7 22l75 465q25 168 -96 168q-70 0 -124 -49.5t-66 -112.5l-74 -473
q-4 -29 -31 -29h-235q-12 0 -21.5 9t-7.5 22l129 803q4 31 31 30h198q12 0 21.5 -10t11.5 -23l15 -55q119 106 274.5 106.5t228.5 -122.5q130 123 307 123z" />
    <glyph glyph-name="n" unicode="n" horiz-adv-x="1130" 
d="M731 883q174 0 251 -107.5t50 -269.5l-76 -477q-4 -29 -28 -29h-236q-12 0 -21 9t-7 22l75 471q21 162 -119 162q-72 0 -135 -53.5t-71 -114.5l-74 -467q-4 -29 -31 -29h-235q-12 0 -21.5 9t-7.5 22l127 803q4 31 31 30h207q23 0 28 -33l17 -59q102 111 276 111z" />
    <glyph glyph-name="o" unicode="o" horiz-adv-x="1034" 
d="M480 203q77 0 138.5 65.5t78.5 173t-24.5 165t-119.5 57.5t-140.5 -70t-78.5 -175t26.5 -160.5t119.5 -55.5zM455 -16q-199 0 -310.5 135t-82 324.5t174 314.5t344 125t311.5 -136.5t79 -325.5t-175 -313t-341 -124z" />
    <glyph glyph-name="p" unicode="p" horiz-adv-x="1069" 
d="M593 664q-79 0 -135.5 -71t-72.5 -179q-34 -211 120 -211q79 0 141.5 69.5t78.5 171.5t-18.5 161t-113.5 59zM655 883q201 0 287 -138.5t55 -329.5t-150.5 -311t-301.5 -120q-129 0 -203 69l-72 -463q-4 -31 -30 -30h-236q-12 0 -20.5 9t-6.5 21l195 1244q4 31 31 30h141
q29 0 43 -30l23 -41q95 90 245 90z" />
    <glyph glyph-name="q" unicode="q" horiz-adv-x="1067" 
d="M472 203q81 0 135.5 66.5t72.5 179.5q37 215 -113 215q-88 0 -148.5 -72t-74.5 -170t16.5 -158.5t111.5 -60.5zM993 866q10 0 19.5 -9t7.5 -21l-197 -1246q-4 -31 -30 -30h-236q-10 0 -19.5 9t-7.5 21l78 453q-78 -59 -194 -59q-209 0 -292 134t-51 328.5t144.5 315.5
t306.5 121q152 0 232 -99l34 50q25 33 54 32h151z" />
    <glyph glyph-name="r" unicode="r" horiz-adv-x="782" 
d="M309 0h-235q-12 0 -21.5 9t-7.5 22l127 803q4 31 31 30h135q25 0 43 -33l29 -55q111 106 225 106.5t151 -40.5q14 -18 5 -39l-89 -146q-10 -14 -52.5 -3t-69.5 12q-63 0 -110.5 -54.5t-59.5 -136.5l-70 -446q-4 -29 -31 -29z" />
    <glyph glyph-name="s" unicode="s" horiz-adv-x="864" 
d="M360 -16q-225 0 -331 118q-20 23 -4 41l75 107q18 20 47 -3.5t93.5 -43t126.5 -19.5q119 0 122 78q2 31 -19 44t-64.5 26.5t-60.5 18.5t-46 14.5t-45 17.5t-40 19.5t-36 22.5t-28 27q-21 21 -33.5 65.5t0.5 105.5q25 117 122 188.5t277.5 71.5t286.5 -95q20 -20 8 -38
l-82 -113q-16 -16 -41 -4q-106 49 -170 49q-113 0 -125 -70q-6 -29 16.5 -46t68.5 -30.5t67.5 -20.5t54.5 -18.5t50.5 -20.5t42 -22.5t35.5 -27.5t24.5 -33.5t17.5 -41t4 -49.5t-6 -58q-58 -260 -408 -260z" />
    <glyph glyph-name="t" unicode="t" horiz-adv-x="806" 
d="M403.5 -16q-161.5 0 -216 88t-37.5 229l53 336h-74q-12 0 -21.5 9t-7.5 20l29 172q4 29 31 28h82l32 217q4 29 31 29h236q10 0 19 -9t7 -22l-32 -215h176q10 0 19 -9t7 -21l-24 -170q-4 -29 -31 -29h-184l-54 -328q-8 -55 4.5 -75.5t57.5 -20.5t106 31q23 6 33 -17
l51 -143q10 -25 -16 -39q-115 -61 -276.5 -61z" />
    <glyph glyph-name="u" unicode="u" horiz-adv-x="1105" 
d="M1032 866q12 0 21.5 -9t7.5 -21l-127 -807q-4 -29 -29 -29h-174q-25 0 -43 31l-35 65q-37 -49 -107.5 -80.5t-135.5 -31.5q-182 0 -261 102t-51 279l76 473q4 29 29 28h235q12 0 21.5 -9t7.5 -21l-74 -474q-25 -159 112 -159q69 0 123 49t64 115l76 471q4 29 29 28h235z
" />
    <glyph glyph-name="v" unicode="v" horiz-adv-x="1046" 
d="M1044 866q14 0 19.5 -12t-2.5 -25l-522 -798q-16 -31 -35 -31h-92q-16 0 -29 31l-270 803q-4 14 3 23t21 9h223q23 0 31 -30l125 -418l260 418q18 31 41 30h227z" />
    <glyph glyph-name="w" unicode="w" horiz-adv-x="1427" 
d="M1403 866q14 0 21.5 -10t0.5 -22l-419 -805q-14 -29 -31 -29h-150q-25 0 -28 29l-78 454l-217 -454q-14 -29 -33 -29h-147q-25 0 -29 29l-160 807q-8 31 25 30h225q27 0 31 -28l55 -420l205 420q14 29 31 28h122q25 0 29 -28l78 -420l186 420q10 29 31 28h252z" />
    <glyph glyph-name="x" unicode="x" horiz-adv-x="985" 
d="M268 0h-243q-14 0 -19.5 14.5t4.5 28.5l336 401l-199 383q-17 39 19 39h215q16 0 33 -30l98 -189l158 189q23 31 45 30h241q14 0 20.5 -15t-3.5 -30l-340 -409l194 -379q6 -12 2 -22.5t-18 -10.5h-215q-23 0 -37 31l-94 180l-150 -180q-23 -31 -47 -31z" />
    <glyph glyph-name="y" unicode="y" horiz-adv-x="1132" 
d="M1122 866q14 0 20.5 -11t-1.5 -26l-787 -1183q-18 -29 -37 -29h-243q-14 0 -20.5 13.5t1.5 25.5l312 455l-246 723q-12 33 24 32h220q20 0 28 -30l154 -449l297 451q18 29 35 28h243z" />
    <glyph glyph-name="z" unicode="z" horiz-adv-x="876" 
d="M174 647q-12 0 -21.5 8.5t-7.5 20.5l25 160q4 31 31 30h635q16 0 24 -17.5t-2 -29.5l-416 -600h265q12 0 21 -9t7 -22l-26 -157q0 -12 -9.5 -21.5t-21.5 -9.5h-641q-14 0 -20.5 14.5t1.5 28.5l420 604h-264z" />
    <glyph glyph-name="braceleft" unicode="{" horiz-adv-x="942" 
d="M717 -72q12 0 20 -8t6 -20l-32 -219q-4 -29 -31 -29h-137q-143 0 -216 91t-40 290l67 418q4 27 -18 48t-57 21h-76q-12 0 -21 9q-8 9 -6 22l31 219q4 29 31 29h86q32 0 62 24t36 60l67 422q33 205 123 285t236 79h145q9 0 19 -8t8 -21l-35 -221q-4 -29 -29 -28h-59
q-35 0 -67 -30t-39 -73l-70 -438q-14 -86 -57 -132t-168 -59q112 -14 144 -69t17 -141l-67 -435q-6 -37 17 -61t59 -25h51z" />
    <glyph glyph-name="bar" unicode="|" horiz-adv-x="475" 
d="M72 -238q-12 0 -20 8t-7 21l293 1843q6 35 37 35h119q31 0 24 -35l-293 -1843q-4 -29 -35 -29h-118z" />
    <glyph glyph-name="braceright" unicode="}" horiz-adv-x="940" 
d="M348 1393h-51q-12 0 -21 8q-8 8 -6 20l33 219q4 29 31 29h137q143 0 216 -91t40 -290l-68 -418q-4 -27 19 -48t57 -21h76q12 0 20 -9t7 -22l-31 -219q-4 -29 -31 -29h-86q-32 0 -62 -24t-36 -60l-68 -422q-33 -204 -123 -284t-235 -80h-146q-12 0 -20 8t-6 21l35 221
q4 29 28 28h60q36 0 67 30t39 73l70 438q14 86 57 132t168 59q-112 14 -144 69t-18 141l68 435q6 37 -17 61t-59 25z" />
    <glyph glyph-name="asciitilde" unicode="~" horiz-adv-x="1118" 
d="M750 573q-88 0 -169 38t-138 38t-131 -40t-90 -40t-27 21l-35 61q-10 18 -6 37q10 38 104 102t196 64t184 -38q81 -38 133 -38t119 40t86 43t36 -19l39 -68q12 -23 -2 -43q-44 -71 -128 -114q-83 -44 -171 -44z" />
    <glyph glyph-name="exclamdown" unicode="&#xa1;" horiz-adv-x="647" 
d="M401 444q29 0 27 -30l-90 -967q-2 -31 -31 -31h-280q-33 0 -27 31l217 967q6 31 31 30h153zM390 883q64 1 106 -51q44 -52 32 -115t-60 -103t-112 -41q-64 1 -104 55t-30 116q12 62 58 101q46 38 110 38z" />
    <glyph glyph-name="cent" unicode="&#xa2;" horiz-adv-x="1007" 
d="M535 -156h-244q-12 0 -20.5 8.5t-6.5 20.5l23 141q-121 47 -188.5 162t-45 258t126 257t240.5 161l20 135q6 35 37 35h244q31 0 24 -35l-20 -125q117 -29 186 -129q10 -20 -8 -39l-135 -123q-27 -18 -41 4q-57 74 -151.5 74t-156 -61.5t-77.5 -156.5t27 -157.5t131 -62.5
q119 0 194 92q6 8 19.5 10t23.5 -8l101 -112q16 -16 0 -41q-94 -104 -248 -148l-21 -131q-4 -29 -34 -29z" />
    <glyph glyph-name="sterling" unicode="&#xa3;" horiz-adv-x="1204" 
d="M1051 276q12 0 21 -9t7 -21l-32 -215q-4 -31 -31 -31h-936q-12 0 -22 9q-9 9 -7 22l29 172q4 31 26 30h3q41 0 84 65t55 136l22 146h-104q-12 0 -22 9q-9 9 -7 21l35 215q4 31 31 31h110l21 121q60 353 283 439q91 36 204 36q215 0 295 -95q66 -78 86 -200q0 -27 -18 -31
l-211 -53q-29 -6 -35 19q-18 84 -119 84q-143 0 -176 -218l-18 -102h254q12 0 21 -9t7 -22l-35 -215q0 -12 -9 -21t-21 -9h-260l-27 -166q-12 -84 -49 -138h545z" />
    <glyph glyph-name="currency" unicode="&#xa4;" horiz-adv-x="1089" 
d="M562 541q70 0 129 51q61 51 71 122t-33 121t-113 50t-129 -51t-69 -121t32 -121t112 -51zM530 334q-96 0 -165 43l-76 -76q-23 -18 -41 0l-123 113q-18 18 4 41l94 98q-52 160 51 319l-63 95q-18 20 4 43l158 112q29 16 41 -4l51 -69q86 43 183 43t167 -43l74 73
q23 18 43 2l121 -112q18 -23 -4 -43l-95 -97q57 -159 -49 -319l62 -96q16 -23 -4 -43l-160 -113q-29 -16 -39 4l-53 72q-85 -43 -181 -43z" />
    <glyph glyph-name="yen" unicode="&#xa5;" horiz-adv-x="1347" 
d="M1393 1434q20 0 30.5 -16.5t-2.5 -37.5l-448 -606h55q12 0 20.5 -8t6.5 -21l-17 -112q-4 -29 -30 -29h-158l-23 -137h150q12 0 20.5 -9t6.5 -22l-17 -110q-4 -31 -31 -31h-157l-43 -266q-4 -29 -29 -29h-254q-12 0 -21.5 8t-7.5 23l43 264h-155q-12 0 -20.5 9t-6.5 22
l17 110q4 31 30 31h164l23 137h-156q-12 0 -20.5 9.5t-6.5 21.5l17 110q4 29 30 29h72l-244 625q-12 35 23 35h248q33 0 49 -37l184 -484l359 494q16 27 49 27h250z" />
    <glyph glyph-name="brokenbar" unicode="&#xa6;" horiz-adv-x="475" 
d="M72 -238q-12 0 -20 8t-7 21l113 709q6 35 37 35h118q31 0 25 -35l-113 -709q-4 -29 -35 -29h-118zM252 897q-12 0 -21 8q-8 8 -6 21l113 708q6 35 37 35h119q31 0 24 -35l-112 -708q-4 -29 -35 -29h-119z" />
    <glyph glyph-name="section" unicode="&#xa7;" horiz-adv-x="1120" 
d="M500 750q-88 -41 -103 -140q-12 -75 68 -106q80 -30 209 -47q88 45 104 143q10 66 -41 92q-62 31 -199 50q-14 2 -38 8zM732 1450q240 0 407 -150q18 -18 -2 -38l-160 -144q-16 -16 -35 -2q-100 82 -252 82q-98 0 -145 -31t-54 -77t33 -71q40 -26 158 -50
q227 -43 318 -131t69 -236q-29 -160 -170 -254q99 -92 75 -233t-160 -254t-372 -113q-287 0 -417 162q-16 10 2 33l159 143q10 16 35 2q76 -88 262 -88q76 0 134 26q59 26 69 80t-27 78t-155 49q-238 47 -329 137t-71 220q23 160 183 264q-109 90 -87 234t157 252
q135 110 375 110z" />
    <glyph glyph-name="dieresis" unicode="&#xa8;" horiz-adv-x="696" 
d="M651 1362q-43 0 -71 33t-20 71q7 38 33 58q25 20 65 20t66 -34t17 -76q-14 -72 -90 -72zM367 1362q-43 0 -71 33t-21 71t33 58t66 20t66 -34t17 -76q-14 -72 -90 -72z" />
    <glyph glyph-name="copyright" unicode="&#xa9;" horiz-adv-x="1667" 
d="M879 319q-158 -1 -248 105t-90 292t90 295q90 108 248 107q252 0 313 -235q8 -35 -27 -45l-123 -21q-31 -6 -41 29q-10 43 -42 74t-82 30q-137 0 -137 -234t139 -235q49 0 82 31t41 69t40 33l129 -24q31 -8 23 -41q-65 -230 -315 -230zM879 152q235 0 389 164t153 399
q1 235 -153 401t-390 166t-389 -166t-153 -402t153 -399q154 -163 390 -163zM879 -16q-303 0 -519 214q-215 214 -215 518t215 519q214 215 518 215t518 -215t214 -519t-214 -518t-517 -214z" />
    <glyph glyph-name="ordfeminine" unicode="&#xaa;" horiz-adv-x="882" 
d="M645 481q11 0 21 -9t8 -19l-27 -160q-4 -31 -29 -31h-366q-12 0 -22 9q-9 9 -7 22l27 160q4 29 31 28h364zM508 811q55 0 94 31t47 81t-18 81q-27 30 -88 30t-101 -33t-45 -81q-6 -48 25 -79q31 -30 86 -30zM797 682h-103q-16 0 -32 35l-13 37q-68 -88 -212 -88t-209 78
q-64 78 -46 180t98 163t204 61q125 0 184 -40l8 49q16 98 -92 98q-85 0 -144 -16t-68 -17t-18 6q-8 7 -8 17l-4 119q0 20 20 29q76 41 251 41t236 -82t34 -244l-62 -399q-4 -27 -24 -27z" />
    <glyph glyph-name="guillemotleft" unicode="&#xab;" horiz-adv-x="1185" 
d="M1001 -16h-135q-23 0 -41 28l-229 357q-29 43 -27 55l2 16q2 16 31 45l359 373q23 25 51 25h127q14 1 19 -9t-3 -24l-338 -416l203 -418q8 -14 2 -23t-21 -9zM545 -16h-135q-23 0 -41 28l-230 357q-29 43 -26 55l2 16q2 16 30 45l359 373q20 25 51 25h127q14 1 19 -9
t-3 -24l-338 -416l203 -418q8 -14 2 -23t-20 -9z" />
    <glyph glyph-name="logicalnot" unicode="&#xac;" horiz-adv-x="1171" 
d="M174 608q-31 0 -29 31l25 145q6 31 37 31h878q35 0 29 -31l-70 -442q-6 -33 -36 -33h-179q-33 0 -26 33l43 266h-672z" />
    <glyph glyph-name="uni00AD" unicode="&#xad;" horiz-adv-x="770" 
d="M106 346q-12 0 -20 9t-6 22l22 145q4 31 31 31h533q12 0 21 -9t7 -22l-24 -147q-4 -29 -29 -29h-535z" />
    <glyph glyph-name="registered" unicode="&#xae;" horiz-adv-x="1667" 
d="M764 944v-188h166q84 0 84 94t-86 94h-164zM764 596v-248q0 -14 -16 -14h-164q-14 0 -15 14v742q0 16 15 16h401q101 0 163 -67t62 -173q0 -162 -112 -225q55 -59 83 -143t27 -150q0 -14 -16 -14h-164q-16 0 -16 14q0 141 -101 248h-147zM879 152q235 0 389 164t153 399
q1 235 -153 401t-390 166t-389 -166t-153 -402t153 -399q154 -163 390 -163zM879 1450q303 0 517 -215t214 -519t-214 -518t-517 -214t-519 214q-215 214 -215 518t215 519q216 215 519 215z" />
    <glyph glyph-name="macron" unicode="&#xaf;" horiz-adv-x="688" 
d="M293 1362q-12 0 -21 9q-8 9 -6 22l17 100q4 31 32 31h400q12 0 21 -10t7 -23l-16 -98q-4 -31 -31 -31h-403z" />
    <glyph glyph-name="degree" unicode="&#xb0;" horiz-adv-x="684" 
d="M451 1124q59 0 100 41t50 97t-17 95q-27 38 -87 38q-59 0 -103 -42q-44 -43 -51 -99t21 -93t87 -37zM441 981q-117 0 -191 88t-58 200q16 111 107 191q90 80 206 80q117 0 191 -90t56 -202t-106 -190t-205 -77z" />
    <glyph glyph-name="plusminus" unicode="&#xb1;" horiz-adv-x="1105" 
d="M915 160q15 0 23 -9t6 -22l-16 -113q-4 -31 -31 -30h-819q-12 0 -22 9q-9 9 -7 23l19 111q4 31 30 31h817zM1018 803q35 0 29 -31l-25 -145q-6 -31 -37 -31h-289l-45 -277q-6 -33 -35 -32h-172q-33 0 -26 32l45 277h-289q-35 0 -29 31l23 145q6 31 37 31h291l43 278
q6 33 34 33h172q33 0 27 -33l-43 -278h289z" />
    <glyph glyph-name="uni00B2" unicode="&#xb2;" horiz-adv-x="847" 
d="M608 1602q158 0 227 -73t49 -199t-155 -247l-233 -206h295q27 0 22 -25l-22 -143q-4 -25 -25 -25h-586q-27 0 -22 25l18 127q2 20 21 34l284 250q245 214 169 275q-19 16 -62 16q-104 0 -135 -80q-10 -25 -27 -24h-154q-27 0 -22 30q0 75 75 162q37 45 111 74t172 29z
" />
    <glyph glyph-name="uni00B3" unicode="&#xb3;" horiz-adv-x="860" 
d="M600 1604q154 0 227 -71q75 -71 51 -212t-135 -184q37 -15 70 -69t17 -153t-99 -173t-249 -72q-166 0 -237 87t-55 179q2 25 25 25h150q20 0 26 -25q23 -74 101 -74q121 0 139 86q10 43 -15 72t-110 29h-33q-29 0 -24 24l20 129q2 25 25 25h24q135 0 154 106q6 33 -14 56
t-68 22q-94 0 -129 -76q-10 -23 -27 -22h-162q-23 0 -22 26q6 89 101 177t249 88z" />
    <glyph glyph-name="acute" unicode="&#xb4;" horiz-adv-x="645" 
d="M334 1272q-29 -18 -41 8l-27 49q-16 20 4 41l314 293q10 10 24 7t19 -15l69 -125q12 -25 -8 -39z" />
    <glyph glyph-name="uni00B5" unicode="&#xb5;" horiz-adv-x="1124" 
d="M969 0h-224q-29 0 -43 31l-36 61q-115 -109 -250 -108q-45 0 -70 20l-72 -414q-4 -31 -28 -30h-238q-12 0 -21 9t-7 21l196 1248q4 29 31 28h235q12 0 22 -9t7 -21l-76 -474q-23 -160 115 -159q78 0 130 46t62 116l74 473q4 29 31 28h235q12 0 22 -9t7 -21l-102 -654
q-18 -109 12 -151q8 -7 5 -19t-17 -12z" />
    <glyph glyph-name="paragraph" unicode="&#xb6;" horiz-adv-x="1234" 
d="M1249 1434q29 0 25 -31l-256 -1610q-4 -31 -33 -31h-172q-29 0 -25 31l226 1434h-162l-225 -1434q-3 -12 -13 -21t-20 -10h-174q-27 0 -23 31l127 803q-162 0 -262 129t-74 304t162 290q135 115 305 115h594z" />
    <glyph glyph-name="periodcentered" unicode="&#xb7;" horiz-adv-x="544" 
d="M178 530q-35 0 -28 31l36 221q6 33 37 33h217q35 0 29 -33l-35 -221q-6 -31 -37 -31h-219z" />
    <glyph glyph-name="cedilla" unicode="&#xb8;" horiz-adv-x="587" 
d="M169 -418q-79 0 -121 30t-52 58q-8 14 4 21l47 41q16 12 36 -10t54 -23q82 0 90 80q6 41 -19 48q-26 7 -44 -11t-37 -13h-8l-70 25q-20 6 -10 25l100 163h146l-70 -102q84 2 124 -47t27 -124q-14 -75 -66 -118t-131 -43z" />
    <glyph glyph-name="uni00B9" unicode="&#xb9;" horiz-adv-x="739" 
d="M698 868q27 0 23 -24l-21 -142q-4 -25 -26 -24h-527q-27 0 -22 24l20 142q4 25 27 24h160l76 486l-140 -47q-12 -4 -20 2t-6 16l20 139q2 16 31 33l149 76q12 6 31 6h156q27 0 22 -27l-106 -684h153z" />
    <glyph glyph-name="ordmasculine" unicode="&#xba;" horiz-adv-x="880" 
d="M631 481q12 0 21 -9t7 -19l-26 -160q-4 -31 -31 -31h-364q-12 0 -22 9q-9 9 -7 22l27 160q4 29 30 28h365zM507 870q62 0 99 52t51 131q29 176 -86 176q-61 0 -103 -50t-53 -127q-11 -78 9 -130t83 -52zM488 666q-144 0 -229 104t-54 290t135 279q104 95 248 95t228 -102
q85 -102 55 -292q-30 -188 -134 -281q-105 -93 -249 -93z" />
    <glyph glyph-name="guillemotright" unicode="&#xbb;" horiz-adv-x="1185" 
d="M776 883q23 0 41 -29l230 -356q29 -43 26 -56l-2 -16q-2 -16 -31 -45l-358 -373q-23 -25 -51 -24h-127q-14 0 -20 9q-5 9 3 23l338 416l-202 418q-8 14 -2 23t20 10h135zM319 883q23 0 41 -29l230 -356q29 -43 26 -56l-2 -16q-2 -16 -30 -45l-359 -373q-20 -25 -51 -24
h-127q-14 0 -19 9t3 23l338 416l-203 418q-8 14 -2 23t20 10h135z" />
    <glyph glyph-name="onequarter" unicode="&#xbc;" horiz-adv-x="1904" 
d="M1321 369h180l45 286zM1782 369q29 0 24 -25l-22 -141q-4 -25 -27 -25h-76l-22 -153q-4 -25 -27 -25h-162q-29 0 -24 27l24 151h-370q-29 0 -25 27l17 106q2 16 18 37l422 535q18 18 37 18h200q29 0 25 -24l-82 -508h70zM561 0q-14 0 -21 10t1 23l792 1378q11 15 17 19
t22 4h154q12 0 18 -10t0 -23l-786 -1370q-16 -31 -47 -31h-150zM676 723q27 0 22 -25l-20 -141q-4 -25 -27 -25h-526q-27 0 -23 25l21 141q4 25 27 25h159l76 485l-139 -47q-12 -4 -21 2q-8 6 -6 17l21 139q2 16 30 33l150 75q12 6 31 7h155q27 0 23 -27l-107 -684h154z" />
    <glyph glyph-name="onehalf" unicode="&#xbd;" horiz-adv-x="2021" 
d="M1673 918q158 0 227 -73q70 -73 50 -199t-156 -247l-233 -206h294q27 0 23 -25l-23 -143q-4 -25 -24 -25h-586q-27 0 -22 25l18 127q2 20 21 34l284 250q245 214 169 275q-19 16 -62 16q-104 0 -135 -80q-10 -25 -27 -24h-154q-27 0 -22 30q0 75 75 162q38 45 112 74
t171 29zM561 0q-14 0 -21 10t1 23l792 1378q11 15 17 19t22 4h154q12 0 18 -10t0 -23l-786 -1370q-16 -31 -47 -31h-150zM676 723q27 0 22 -25l-20 -141q-4 -25 -27 -25h-526q-27 0 -23 25l21 141q4 25 27 25h159l76 485l-139 -47q-12 -4 -21 2q-8 6 -6 17l21 139
q2 16 30 33l150 75q12 6 31 7h155q27 0 23 -27l-107 -684h154z" />
    <glyph glyph-name="threequarters" unicode="&#xbe;" horiz-adv-x="1974" 
d="M1389 369h180l45 286zM1849 369q29 0 25 -25l-23 -141q-4 -25 -26 -25h-76l-23 -153q-4 -25 -26 -25h-162q-29 0 -25 27l25 151h-371q-29 0 -24 27l16 106q2 16 19 37l421 535q18 18 37 18h201q29 0 25 -24l-82 -508h69zM610 0q-14 0 -21 10t1 23l792 1378q10 15 16 19
t23 4h154q12 0 18 -10t0 -23l-786 -1370q-16 -31 -47 -31h-150zM576 1450q154 0 227 -71q74 -71 50 -212t-134 -184q37 -15 69 -69t17 -153q-16 -99 -98 -172t-249 -73t-238 87t-54 179q2 25 24 25h150q20 0 27 -25q23 -74 100 -73q121 0 139 86q10 43 -14 71t-111 29h-32
q-29 0 -25 25l20 129q2 25 25 24h25q135 0 153 107q6 34 -14 56t-68 21q-94 0 -129 -75q-10 -23 -26 -23h-162q-23 0 -23 27q5 90 101 177t250 87z" />
    <glyph glyph-name="questiondown" unicode="&#xbf;" horiz-adv-x="1036" 
d="M434 -588q-129 0 -219 38q-157 66 -190 232q-14 69 -2 144q18 131 91 207q73 75 196 151q124 76 168 125t69 129q6 31 28 31h211q25 0 25 -49q-8 -227 -233 -371q-27 -18 -85 -53q-57 -34 -91 -56t-66 -60t-39 -87q-8 -49 31 -85t124 -36t127 24t62 47t29 39q10 17 21 35
t11 27q12 27 31 25l209 -2q27 -4 23 -33q-10 -180 -154 -301t-377 -121zM742 879q62 1 103 -49t29 -110t-57 -98t-105 -38t-101 49t-31 111t55 98q45 37 107 37z" />
    <glyph glyph-name="Agrave" unicode="&#xc0;" horiz-adv-x="1415" 
d="M549 485h344l-105 420zM915 1450q23 0 31 -27l371 -1390q6 -33 -27 -33h-237q-10 0 -20.5 9t-12.5 20l-51 180h-584l-98 -180q-18 -29 -37 -29h-246q-20 0 -30.5 17.5t-0.5 33.5l805 1383q8 16 25 16h112zM1092 1577l-383 111q-31 8 -21 41l37 116q10 33 47 15l358 -177
q20 -14 15 -32l-12 -58q-6 -26 -41 -16z" />
    <glyph glyph-name="Aacute" unicode="&#xc1;" horiz-adv-x="1415" 
d="M549 485h344l-105 420zM915 1450q23 0 31 -27l371 -1390q6 -33 -27 -33h-237q-10 0 -20.5 9t-12.5 20l-51 180h-584l-98 -180q-18 -29 -37 -29h-246q-20 0 -30.5 17.5t-0.5 33.5l805 1383q8 16 25 16h112zM717 1575q-35 -10 -41 16l-12 58q-6 18 14 32l358 177
q37 18 47 -15l37 -117q10 -33 -20 -40z" />
    <glyph glyph-name="Acircumflex" unicode="&#xc2;" horiz-adv-x="1415" 
d="M549 485h344l-105 420zM915 1450q23 0 31 -27l371 -1390q6 -33 -27 -33h-237q-10 0 -20.5 9t-12.5 20l-51 180h-584l-98 -180q-18 -29 -37 -29h-246q-20 0 -30.5 17.5t-0.5 33.5l805 1383q8 16 25 16h112zM915 1890h17q18 0 47 -32l156 -156q14 -16 10 -41l-10 -68
q-6 -35 -39 -8l-189 144l-239 -152q-12 -8 -21.5 -1t-7.5 19l12 70q6 27 27 43l194 164q20 18 43 18z" />
    <glyph glyph-name="Atilde" unicode="&#xc3;" horiz-adv-x="1415" 
d="M549 485h344l-105 420zM915 1450q23 0 31 -27l371 -1390q6 -33 -27 -33h-237q-10 0 -20.5 9t-12.5 20l-51 180h-584l-98 -180q-18 -29 -37 -29h-246q-20 0 -30.5 17.5t-0.5 33.5l805 1383q8 16 25 16h112zM774.5 1677q-61.5 0 -108.5 -51q-14 -16 -39 -4l-37 16
q-27 12 -12 39q68 129 204 129q78 0 144.5 -37.5t93.5 -37.5q63 0 113 55q10 12 28 6l45 -20q25 -10 13 -39q-71 -131 -201 -131q-64 0 -123 37.5t-120.5 37.5z" />
    <glyph glyph-name="Adieresis" unicode="&#xc4;" horiz-adv-x="1415" 
d="M549 485h344l-105 420zM915 1450q23 0 31 -27l371 -1390q6 -33 -27 -33h-237q-10 0 -20.5 9t-12.5 20l-51 180h-584l-98 -180q-18 -29 -37 -29h-246q-20 0 -30.5 17.5t-0.5 33.5l805 1383q8 16 25 16h112zM1051 1620q-43 0 -71 33t-20.5 71t33 58t65.5 20t65.5 -33.5
t17.5 -76.5q-14 -72 -90 -72zM766 1620q-43 0 -70.5 33t-20.5 71t32.5 58t65.5 20t65.5 -33.5t17.5 -76.5q-14 -72 -90 -72z" />
    <glyph glyph-name="Aring" unicode="&#xc5;" horiz-adv-x="1415" 
d="M549 485h344l-105 420zM915 1450q23 0 31 -27l371 -1390q6 -33 -27 -33h-237q-10 0 -20.5 9t-12.5 20l-51 180h-584l-98 -180q-18 -29 -37 -29h-246q-20 0 -30.5 17.5t-0.5 33.5l805 1383q8 16 25 16h112zM889 1692q35 0 55.5 22.5t24.5 55t-11.5 55t-48.5 22.5
q-68 0 -82 -73q-6 -35 10.5 -58.5t51.5 -23.5zM875 1561q-86 0 -142.5 62.5t-40.5 157.5t79 146t149.5 51t143 -63.5t40.5 -157.5t-79.5 -145t-149.5 -51z" />
    <glyph glyph-name="AE" unicode="&#xc6;" horiz-adv-x="2082" 
d="M645 461h391l99 620zM2103 1434q12 0 21.5 -9.5t7.5 -21.5l-35 -219q-4 -29 -31 -29h-608l-47 -299h406q12 0 21 -9t7 -22l-37 -217q-4 -29 -30 -28h-412l-49 -301h604q10 0 19.5 -9.5t7.5 -21.5l-35 -219q-4 -29 -29 -29h-889q-10 0 -19 9t-7 22l24 153h-563l-121 -157
q-23 -27 -45 -27h-246q-20 0 -29 16.5t5 34.5l1038 1362q14 20 39 21h1032z" />
    <glyph glyph-name="Ccedilla" unicode="&#xc7;" horiz-adv-x="1466" 
d="M940 1169q-182 0 -323.5 -137t-172.5 -327.5t59.5 -315.5t264.5 -125q223 0 379 178q27 27 51 0l137 -157q29 -29 4 -52q-111 -113 -257 -178t-300 -71l-43 -62q84 2 124 -47t27 -124t-65.5 -118t-131.5 -43t-121 30t-52 58q-8 14 4 21l47 41q16 12 36 -10.5t55 -22.5
q82 0 90 80q6 41 -19.5 48t-44.5 -11t-37 -12h-8l-70 24q-20 6 -10 25l80 131q-262 41 -406.5 252t-98.5 499.5t285 497.5t533 209q164 0 297 -69.5t209 -192.5q16 -31 -10 -51l-154 -133q-10 -10 -31.5 -8.5t-29.5 16.5q-43 68 -121 112.5t-176 44.5z" />
    <glyph glyph-name="Egrave" unicode="&#xc8;" horiz-adv-x="1198" 
d="M1036 279q10 0 19.5 -9.5t7.5 -21.5l-35 -219q-4 -29 -29 -29h-888q-10 0 -19.5 9t-7.5 22l217 1374q4 29 31 29h887q12 0 21 -9.5t7 -21.5l-35 -219q-4 -29 -30 -29h-609l-47 -299h406q12 0 21.5 -9t7.5 -22l-37 -217q-4 -29 -31 -28h-412l-49 -301h604zM1004 1577
l-383 111q-31 8 -21 41l37 116q10 33 47 15l358 -177q20 -14 15 -32l-13 -58q-5 -26 -40 -16z" />
    <glyph glyph-name="Eacute" unicode="&#xc9;" horiz-adv-x="1198" 
d="M1036 279q10 0 19.5 -9.5t7.5 -21.5l-35 -219q-4 -29 -29 -29h-888q-10 0 -19.5 9t-7.5 22l217 1374q4 29 31 29h887q12 0 21 -9.5t7 -21.5l-35 -219q-4 -29 -30 -29h-609l-47 -299h406q12 0 21.5 -9t7.5 -22l-37 -217q-4 -29 -31 -28h-412l-49 -301h604zM629 1575
q-35 -10 -41 16l-13 58q-6 18 15 32l358 177q37 18 47 -15l37 -117q10 -33 -20 -40z" />
    <glyph glyph-name="Ecircumflex" unicode="&#xca;" horiz-adv-x="1198" 
d="M1036 279q10 0 19.5 -9.5t7.5 -21.5l-35 -219q-4 -29 -29 -29h-888q-10 0 -19.5 9t-7.5 22l217 1374q4 29 31 29h887q12 0 21 -9.5t7 -21.5l-35 -219q-4 -29 -30 -29h-609l-47 -299h406q12 0 21.5 -9t7.5 -22l-37 -217q-4 -29 -31 -28h-412l-49 -301h604zM827 1890h17
q18 0 47 -32l156 -156q14 -16 10 -41l-10 -68q-6 -35 -39 -8l-189 144l-239 -152q-12 -8 -21.5 -1t-7.5 19l12 70q6 27 27 43l194 164q20 18 43 18z" />
    <glyph glyph-name="Edieresis" unicode="&#xcb;" horiz-adv-x="1198" 
d="M1036 279q10 0 19.5 -9.5t7.5 -21.5l-35 -219q-4 -29 -29 -29h-888q-10 0 -19.5 9t-7.5 22l217 1374q4 29 31 29h887q12 0 21 -9.5t7 -21.5l-35 -219q-4 -29 -30 -29h-609l-47 -299h406q12 0 21.5 -9t7.5 -22l-37 -217q-4 -29 -31 -28h-412l-49 -301h604zM963 1620
q-43 0 -71 33t-21 71t33 58t66 20t65.5 -33.5t17.5 -76.5q-14 -72 -90 -72zM678 1620q-43 0 -70.5 33t-20.5 71t32.5 58t65.5 20t65.5 -33.5t17.5 -76.5q-14 -72 -90 -72z" />
    <glyph glyph-name="Igrave" unicode="&#xcc;" horiz-adv-x="606" 
d="M111 0q-12 0 -20.5 9t-6.5 22l217 1374q4 29 29 29h256q12 0 20 -9.5t6 -21.5l-217 -1374q-4 -29 -28 -29h-256zM692 1577l-383 111q-31 8 -20 41l37 116q10 33 47 15l358 -177q20 -14 14 -32l-12 -58q-6 -26 -41 -16z" />
    <glyph glyph-name="Iacute" unicode="&#xcd;" horiz-adv-x="606" 
d="M111 0q-12 0 -20.5 9t-6.5 22l217 1374q4 29 29 29h256q12 0 20 -9.5t6 -21.5l-217 -1374q-4 -29 -28 -29h-256zM317 1575q-35 -10 -41 16l-12 58q-6 18 15 32l358 177q37 18 47 -15l37 -117q10 -33 -21 -40z" />
    <glyph glyph-name="Icircumflex" unicode="&#xce;" horiz-adv-x="606" 
d="M111 0q-12 0 -20.5 9t-6.5 22l217 1374q4 29 29 29h256q12 0 20 -9.5t6 -21.5l-217 -1374q-4 -29 -28 -29h-256zM516 1890h16q18 0 48 -32l155 -156q14 -16 10 -41l-10 -68q-6 -35 -39 -8l-188 144l-240 -152q-12 -8 -21 -1t-7 19l12 70q6 27 27 43l194 164q23 18 43 18z
" />
    <glyph glyph-name="Idieresis" unicode="&#xcf;" horiz-adv-x="606" 
d="M111 0q-12 0 -20.5 9t-6.5 22l217 1374q4 29 29 29h256q12 0 20 -9.5t6 -21.5l-217 -1374q-4 -29 -28 -29h-256zM651 1620q-43 0 -70.5 33t-20.5 71t32.5 58t65.5 20t66 -33.5t17 -76.5q-14 -72 -90 -72zM367 1620q-43 0 -71 33t-21 71t33 58t66 20t65.5 -33.5
t17.5 -76.5q-14 -72 -90 -72z" />
    <glyph glyph-name="Eth" unicode="&#xd0;" horiz-adv-x="1404" 
d="M813 1155h-240l-51 -324h201q33 0 27 -30l-27 -172q-6 -31 -31 -31h-209l-51 -319h225q158 0 257.5 117.5t134.5 333.5t-22.5 320.5t-213.5 104.5zM860 1434q274 0 414.5 -188.5t84.5 -538t-250 -528.5t-468 -179h-530q-10 0 -19.5 9t-7.5 22l90 567h-41q-33 0 -29 33
l27 170q4 31 31 30h49l90 574q4 29 31 29h528z" />
    <glyph glyph-name="Ntilde" unicode="&#xd1;" horiz-adv-x="1517" 
d="M1495 1434q12 0 21.5 -9.5t7.5 -21.5l-217 -1374q-4 -29 -31 -29h-207q-29 0 -47 37l-487 852l-140 -860q-4 -29 -30 -29h-252q-12 0 -20.5 9t-6.5 22l215 1374q4 29 29 29h219q25 0 47 -37l481 -832l135 840q4 29 29 29h254zM1054 1602q-64 0 -124 37.5t-105 37.5
q-80 0 -125 -51q-14 -16 -38 -4l-37 16q-27 12 -13 39q68 129 205 129q78 0 144.5 -37.5t93.5 -37.5q63 0 112 55q10 12 29 6l45 -20q25 -10 12 -39q-70 -131 -199 -131z" />
    <glyph glyph-name="Ograve" unicode="&#xd2;" horiz-adv-x="1617" 
d="M776 262q182 0 318.5 136.5t167.5 326.5t-59.5 317t-271.5 127t-318.5 -137t-168.5 -327.5t59.5 -316.5t272.5 -126zM751 -16q-304 0 -484.5 219t-131.5 524t283.5 514t538.5 209t482.5 -220t130.5 -526.5t-281.5 -513t-537.5 -206.5zM1180 1577l-383 111q-31 8 -21 41
l37 116q10 33 47 15l359 -177q20 -14 14 -32l-12 -58q-6 -26 -41 -16z" />
    <glyph glyph-name="Oacute" unicode="&#xd3;" horiz-adv-x="1617" 
d="M776 262q182 0 318.5 136.5t167.5 326.5t-59.5 317t-271.5 127t-318.5 -137t-168.5 -327.5t59.5 -316.5t272.5 -126zM751 -16q-304 0 -484.5 219t-131.5 524t283.5 514t538.5 209t482.5 -220t130.5 -526.5t-281.5 -513t-537.5 -206.5zM805 1575q-35 -10 -41 16l-12 58
q-6 18 14 32l358 177q37 18 47 -15l37 -117q10 -33 -20 -40z" />
    <glyph glyph-name="Ocircumflex" unicode="&#xd4;" horiz-adv-x="1617" 
d="M776 262q182 0 318.5 136.5t167.5 326.5t-59.5 317t-271.5 127t-318.5 -137t-168.5 -327.5t59.5 -316.5t272.5 -126zM751 -16q-304 0 -484.5 219t-131.5 524t283.5 514t538.5 209t482.5 -220t130.5 -526.5t-281.5 -513t-537.5 -206.5zM1004 1890h16q18 0 47 -32l156 -156
q14 -16 10 -41l-10 -68q-6 -35 -39 -8l-189 144l-239 -152q-12 -8 -21.5 -1t-7.5 19l12 70q6 27 27 43l195 164q23 18 43 18z" />
    <glyph glyph-name="Otilde" unicode="&#xd5;" horiz-adv-x="1617" 
d="M776 262q182 0 318.5 136.5t167.5 326.5t-59.5 317t-271.5 127t-318.5 -137t-168.5 -327.5t59.5 -316.5t272.5 -126zM751 -16q-304 0 -484.5 219t-131.5 524t283.5 514t538.5 209t482.5 -220t130.5 -526.5t-281.5 -513t-537.5 -206.5zM1106 1602q-64 0 -123 37.5
t-104 37.5q-80 0 -125 -51q-14 -16 -39 -4l-37 16q-27 12 -12 39q68 129 204 129q78 0 144.5 -37.5t93.5 -37.5q63 0 113 55q10 12 28 6l45 -20q25 -10 13 -39q-71 -131 -201 -131z" />
    <glyph glyph-name="Odieresis" unicode="&#xd6;" horiz-adv-x="1617" 
d="M776 262q182 0 318.5 136.5t167.5 326.5t-59.5 317t-271.5 127t-318.5 -137t-168.5 -327.5t59.5 -316.5t272.5 -126zM751 -16q-304 0 -484.5 219t-131.5 524t283.5 514t538.5 209t482.5 -220t130.5 -526.5t-281.5 -513t-537.5 -206.5zM1139 1620q-43 0 -71 33t-20.5 71
t33 58t65.5 20t65.5 -33.5t17.5 -76.5q-14 -72 -90 -72zM854 1620q-43 0 -70.5 33t-20.5 71t32.5 58t65.5 20t65.5 -33.5t17.5 -76.5q-14 -72 -90 -72z" />
    <glyph glyph-name="multiply" unicode="&#xd7;" horiz-adv-x="1011" 
d="M684 618l193 -233q23 -27 -3 -49l-102 -88q-27 -23 -49 6l-195 229l-272 -235q-29 -25 -51 6l-88 104q-25 25 6 52l270 233l-196 234q-25 25 4 49l102 88q27 23 49 -6l197 -232l270 236q29 25 51 -4l88 -105q23 -27 -2 -49z" />
    <glyph glyph-name="Oslash" unicode="&#xd8;" horiz-adv-x="1617" 
d="M768 262q190 0 326.5 136t167.5 330.5t-66 322.5l-522 -777q43 -12 94 -12zM940 1169q-190 0 -327.5 -137t-169.5 -335t71 -322l524 782q-43 12 -98 12zM752 -16q-127 0 -244 45l-14 -23q-16 -23 -43 -22h-138q-20 0 -28.5 18t2.5 35l59 86q-127 104 -183.5 264
t-27.5 346q49 299 283.5 508t537.5 209q135 0 248 -47l15 20q18 27 43 27h147q20 0 27.5 -14.5t-2.5 -30.5l-68 -100q123 -104 177 -264t26 -345q-47 -299 -280.5 -505.5t-536.5 -206.5z" />
    <glyph glyph-name="Ugrave" unicode="&#xd9;" horiz-adv-x="1417" 
d="M1430 1434q31 0 26 -31l-129 -780q-41 -255 -185 -433q-77 -96 -202 -151t-271.5 -55t-248 38.5t-157.5 103t-92 149.5t-36 177.5t10 186.5l127 764q6 31 31 31h254q31 0 27 -31l-125 -752q-29 -178 22 -283.5t193.5 -105.5t231.5 113.5t118 292.5l121 735q4 31 31 31
h254zM1106 1577l-383 111q-31 8 -21 41l37 116q10 33 47 15l359 -177q20 -14 14 -32l-12 -58q-6 -26 -41 -16z" />
    <glyph glyph-name="Uacute" unicode="&#xda;" horiz-adv-x="1417" 
d="M1430 1434q31 0 26 -31l-129 -780q-41 -255 -185 -433q-77 -96 -202 -151t-271.5 -55t-248 38.5t-157.5 103t-92 149.5t-36 177.5t10 186.5l127 764q6 31 31 31h254q31 0 27 -31l-125 -752q-29 -178 22 -283.5t193.5 -105.5t231.5 113.5t118 292.5l121 735q4 31 31 31
h254zM731 1575q-35 -10 -41 16l-12 58q-6 18 14 32l359 177q37 18 47 -15l37 -117q10 -33 -21 -40z" />
    <glyph glyph-name="Ucircumflex" unicode="&#xdb;" horiz-adv-x="1417" 
d="M1430 1434q31 0 26 -31l-129 -780q-41 -255 -185 -433q-77 -96 -202 -151t-271.5 -55t-248 38.5t-157.5 103t-92 149.5t-36 177.5t10 186.5l127 764q6 31 31 31h254q31 0 27 -31l-125 -752q-29 -178 22 -283.5t193.5 -105.5t231.5 113.5t118 292.5l121 735q4 31 31 31
h254zM930 1890h16q18 0 47 -32l156 -156q14 -16 10 -41l-10 -68q-6 -35 -39 -8l-188 144l-240 -152q-12 -8 -21.5 -1t-7.5 19l13 70q6 27 26 43l195 164q23 18 43 18z" />
    <glyph glyph-name="Udieresis" unicode="&#xdc;" horiz-adv-x="1417" 
d="M1430 1434q31 0 26 -31l-129 -780q-41 -255 -185 -433q-77 -96 -202 -151t-271.5 -55t-248 38.5t-157.5 103t-92 149.5t-36 177.5t10 186.5l127 764q6 31 31 31h254q31 0 27 -31l-125 -752q-29 -178 22 -283.5t193.5 -105.5t231.5 113.5t118 292.5l121 735q4 31 31 31
h254zM1065 1620q-43 0 -70.5 33t-20.5 71t32.5 58t65.5 20t65.5 -33.5t17.5 -76.5q-14 -72 -90 -72zM780 1620q-43 0 -70.5 33t-20.5 71t33 58t65.5 20t65.5 -33.5t17 -76.5q-14 -72 -90 -72z" />
    <glyph glyph-name="Yacute" unicode="&#xdd;" horiz-adv-x="1339" 
d="M1389 1434q20 0 30.5 -16.5t-2.5 -37.5l-571 -772l-94 -579q-4 -29 -29 -29h-254q-12 0 -21.5 8t-7.5 23l95 577l-308 791q-12 35 23 35h248q33 0 49 -37l184 -484l359 494q16 27 49 27h250zM670 1575q-35 -10 -41 16l-13 58q-6 18 15 32l358 177q37 18 47 -15l37 -117
q10 -33 -20 -40z" />
    <glyph glyph-name="Thorn" unicode="&#xde;" horiz-adv-x="1314" 
d="M784 575q74 0 121 42t58.5 113t-15 120t-102.5 49h-314l-51 -324h303zM365 0h-252q-31 0 -27 31l215 1374q4 29 29 29h254q12 0 21 -9.5t7 -21.5l-37 -225h390q160 -2 250 -127t58 -326t-159 -313.5t-289 -114.5h-389l-41 -268q-4 -29 -30 -29z" />
    <glyph glyph-name="germandbls" unicode="&#xdf;" horiz-adv-x="1118" 
d="M602 203q115 0 137 139q11 72 -13 140t-57 110q-92 116 -75 193q16 78 131 183t121 167q8 86 -106 86t-172 -71q-60 -71 -83 -220l-143 -901q-4 -29 -29 -29h-235q-12 0 -22 9q-9 9 -7 22l148 925q45 281 163 387q119 107 376 107t350 -77t69 -218t-104 -233
q-35 -39 -90 -94t-57 -82q-3 -28 22 -70q26 -42 54 -86q28 -45 44 -124t1 -170t-58 -158q-43 -66 -101 -98q-101 -56 -216 -56q-116 0 -214 65q-26 13 -26 23t10 22l57 127q10 23 37 10q56 -28 88 -28z" />
    <glyph glyph-name="agrave" unicode="&#xe0;" horiz-adv-x="1079" 
d="M479 203q82 0 138.5 64.5t72.5 183.5q29 213 -119 213q-90 0 -151.5 -72t-76.5 -173t19.5 -158.5t116.5 -57.5zM1006 864q12 0 21 -9t7 -21l-127 -803q-4 -31 -30 -31h-156q-25 0 -53 47l-11 31q-104 -94 -243 -94q-207 -2 -290 135t-52 329t150.5 313.5t307.5 121.5
q141 0 230 -88l28 43q18 27 46 26h172zM821 963l-354 219q-20 14 -8 39l69 125q4 12 18.5 15t24.5 -7l314 -293q20 -20 4 -41l-27 -49q-12 -26 -41 -8z" />
    <glyph glyph-name="aacute" unicode="&#xe1;" horiz-adv-x="1079" 
d="M479 203q82 0 138.5 64.5t72.5 183.5q29 213 -119 213q-90 0 -151.5 -72t-76.5 -173t19.5 -158.5t116.5 -57.5zM1006 864q12 0 21 -9t7 -21l-127 -803q-4 -31 -30 -31h-156q-25 0 -53 47l-11 31q-104 -94 -243 -94q-207 -2 -290 135t-52 329t150.5 313.5t307.5 121.5
q141 0 230 -88l28 43q18 27 46 26h172zM545 963q-29 -18 -41 8l-27 49q-14 20 4 41l314 293q10 10 24.5 7t18.5 -15l69 -125q12 -25 -8 -39z" />
    <glyph glyph-name="acircumflex" unicode="&#xe2;" horiz-adv-x="1079" 
d="M479 203q82 0 138.5 64.5t72.5 183.5q29 213 -119 213q-90 0 -151.5 -72t-76.5 -173t19.5 -158.5t116.5 -57.5zM1006 864q12 0 21 -9t7 -21l-127 -803q-4 -31 -30 -31h-156q-25 0 -53 47l-11 31q-104 -94 -243 -94q-207 -2 -290 135t-52 328.5t150.5 313.5t307.5 122
q141 0 230 -88l28 43q18 27 46 26h172zM682 1323h16q18 0 47 -33l156 -155q14 -16 10 -41l-10 -68q-6 -35 -39 -8l-188 143l-240 -151q-12 -8 -21.5 -1t-6.5 19l12 70q6 27 26 43l195 164q20 18 43 18z" />
    <glyph glyph-name="atilde" unicode="&#xe3;" horiz-adv-x="1079" 
d="M479 203q82 0 138.5 64.5t72.5 183.5q29 213 -119 213q-90 0 -151.5 -72t-76.5 -173t19.5 -158.5t116.5 -57.5zM1006 864q12 0 21 -9t7 -21l-127 -803q-4 -31 -30 -31h-156q-25 0 -53 47l-11 31q-104 -94 -243 -94q-207 -2 -290 135t-52 328.5t150.5 313.5t307.5 122
q141 0 230 -88l28 43q18 27 46 26h172zM786 1034q-64 0 -124 38t-121.5 38t-108.5 -51q-14 -16 -39 -4l-37 16q-27 12 -12 39q68 129 205 129q78 0 144.5 -38t92.5 -38q63 0 113 56q10 12 29 6l45 -21q25 -10 12 -39q-70 -131 -199 -131z" />
    <glyph glyph-name="adieresis" unicode="&#xe4;" horiz-adv-x="1079" 
d="M479 203q82 0 138.5 64.5t72.5 183.5q29 213 -119 213q-90 0 -151.5 -72t-76.5 -173t19.5 -158.5t116.5 -57.5zM1006 864q12 0 21 -9t7 -21l-127 -803q-4 -31 -30 -31h-156q-25 0 -53 47l-11 31q-104 -94 -243 -94q-207 -2 -290 135t-52 329t150.5 313.5t307.5 121.5
q141 0 230 -88l28 43q18 27 46 26h172zM817 1053q-43 0 -70.5 32.5t-20.5 70.5t32.5 58.5t65.5 20.5t65.5 -34t17.5 -77q-14 -71 -90 -71zM532 1053q-43 0 -70.5 32.5t-20.5 70.5t33 58.5t66 20.5t65.5 -34t17.5 -77q-15 -71 -91 -71z" />
    <glyph glyph-name="aring" unicode="&#xe5;" horiz-adv-x="1079" 
d="M479 203q82 0 138.5 64.5t72.5 183.5q29 213 -119 213q-90 0 -151.5 -72t-76.5 -173t19.5 -158.5t116.5 -57.5zM1006 864q12 0 21 -9t7 -21l-127 -803q-4 -31 -30 -31h-156q-25 0 -53 47l-11 31q-104 -94 -243 -94q-207 -2 -290 135t-52 328.5t150.5 313.5t307.5 122
q141 0 230 -88l28 43q18 27 46 26h172zM655.5 1124q34.5 0 55 22.5t24.5 55.5t-11 55.5t-48 22.5q-68 0 -82 -74q-6 -35 10.5 -58.5t51 -23.5zM641 993q-86 0 -142.5 62.5t-40 158t79 146.5t149.5 51t143.5 -63.5t40 -157.5t-80 -145.5t-149.5 -51.5z" />
    <glyph glyph-name="ae" unicode="&#xe6;" horiz-adv-x="1550" 
d="M421 154q61 0 104 40t53 97q14 109 -107 108q-66 0 -106.5 -41t-48 -90t18 -81.5t86.5 -32.5zM1094.5 696q-70.5 0 -123.5 -50t-70 -118h316q10 72 -21 120t-101.5 48zM1135.5 883q193.5 0 282.5 -136.5t52 -379.5q-4 -31 -30 -31h-572q16 -150 181 -150q102 0 206 62
q10 6 24.5 3t18.5 -15l54 -130q16 -27 -13 -45q-43 -31 -138 -54t-187 -23q-197 0 -312 114q-125 -115 -350 -114q-184 0 -255.5 88t-51.5 214q41 259 365 259q113 0 198 -45l8 59q10 61 -17.5 89t-115.5 28t-207 -37q-18 -6 -30.5 5t-12.5 26l-4 125q0 31 23 39
q102 49 299 49t254 -97q137 97 330.5 97z" />
    <glyph glyph-name="ccedilla" unicode="&#xe7;" horiz-adv-x="976" 
d="M581 664q-93 0 -158 -67t-79 -166t25 -163.5t131 -64.5q49 0 71.5 11t36 17.5t26.5 17.5t23 19t31 29t45 -6l103 -115q16 -23 2 -41q-39 -47 -134.5 -95t-209.5 -54l-43 -64q84 2 123.5 -47t26.5 -124t-65.5 -118t-131.5 -43t-120.5 30t-51 51t3.5 28l47 41
q16 12 35.5 -10.5t54.5 -22.5q82 0 90 80q6 41 -19.5 48t-43.5 -10.5t-40 -12.5h-6l-69 24q-20 6 -11 25l82 133q-158 33 -235.5 160t-47.5 305t169 301t327 123q230 0 336 -162q14 -23 -6 -39l-121 -102q-23 -14 -41 8q-63 76 -156 76z" />
    <glyph glyph-name="egrave" unicode="&#xe8;" horiz-adv-x="1017" 
d="M562 696q-71 0 -124 -50t-69 -118h315q10 72 -20.5 120t-101.5 48zM591 883q206 0 295 -136.5t52 -379.5q-4 -31 -31 -31h-571q16 -150 180 -150q102 0 207 62q10 6 24.5 3t18.5 -15l53 -130q16 -27 -19.5 -51.5t-131 -47.5t-187.5 -23q-211 0 -325.5 131t-85.5 327.5
t172 318.5t349 122zM774 963l-354 219q-20 14 -8 39l69 125q4 12 18.5 15t24.5 -7l314 -293q18 -20 4 -41l-27 -49q-12 -26 -41 -8z" />
    <glyph glyph-name="eacute" unicode="&#xe9;" horiz-adv-x="1017" 
d="M562 696q-71 0 -124 -50t-69 -118h315q10 72 -20.5 120t-101.5 48zM591 883q206 0 295 -136.5t52 -379.5q-4 -31 -31 -31h-571q16 -150 180 -150q102 0 207 62q10 6 24.5 3t18.5 -15l53 -130q16 -27 -19.5 -51.5t-131 -47.5t-187.5 -23q-211 0 -325.5 131t-85.5 327.5
t172 318.5t349 122zM498 963q-29 -18 -41 8l-27 49q-16 20 4 41l314 293q10 10 24 7t19 -15l69 -125q12 -25 -8 -39z" />
    <glyph glyph-name="ecircumflex" unicode="&#xea;" horiz-adv-x="1017" 
d="M562 696q-71 0 -124 -50t-69 -118h315q10 72 -20.5 120t-101.5 48zM591 883q206 0 295 -136.5t52 -379.5q-4 -31 -31 -31h-571q16 -150 180 -150q102 0 207 62q10 6 24.5 3t18.5 -15l53 -130q16 -27 -19.5 -51.5t-131 -47.5t-187.5 -23q-211 0 -325.5 131t-85.5 327.5
t172 318.5t349 122zM635 1323h16q18 0 47 -33l156 -155q14 -16 10 -41l-10 -68q-6 -35 -39 -8l-188 143l-240 -151q-12 -8 -21.5 -1t-7.5 19l13 70q6 27 26 43l195 164q20 18 43 18z" />
    <glyph glyph-name="edieresis" unicode="&#xeb;" horiz-adv-x="1017" 
d="M562 696q-71 0 -124 -50t-69 -118h315q10 72 -20.5 120t-101.5 48zM591 883q206 0 295 -136.5t52 -379.5q-4 -31 -31 -31h-571q16 -150 180 -150q102 0 207 62q10 6 24.5 3t18.5 -15l53 -130q16 -27 -19.5 -51.5t-131 -47.5t-187.5 -23q-211 0 -325.5 131t-85.5 327.5
t172 318.5t349 122zM770 1053q-43 0 -70.5 32.5t-20.5 70.5t32.5 58.5t65.5 20.5t65.5 -34t17.5 -77q-14 -71 -90 -71zM485 1053q-43 0 -70.5 32.5t-20.5 70.5t33 58.5t65.5 20.5t65.5 -34t17 -77q-14 -71 -90 -71z" />
    <glyph glyph-name="igrave" unicode="&#xec;" horiz-adv-x="512" 
d="M76 0q-12 0 -21.5 9t-7.5 22l127 807q4 29 29 28h235q12 0 21.5 -9t7.5 -21l-127 -807q-4 -29 -31 -29h-233zM524 965l-354 219q-20 14 -8 39l69 125q4 12 18.5 15t24.5 -7l314 -293q18 -18 4 -41l-27 -49q-12 -26 -41 -8z" />
    <glyph glyph-name="iacute" unicode="&#xed;" horiz-adv-x="512" 
d="M76 0q-12 0 -21.5 9t-7.5 22l127 807q4 29 29 28h235q12 0 21.5 -9t7.5 -21l-127 -807q-4 -29 -31 -29h-233zM248 965q-29 -18 -41 8l-27 49q-14 23 4 41l314 293q10 10 24.5 7t18.5 -15l69 -125q12 -25 -8 -39z" />
    <glyph glyph-name="icircumflex" unicode="&#xee;" horiz-adv-x="512" 
d="M76 0q-12 0 -21.5 9t-7.5 22l127 807q4 29 29 28h235q12 0 21.5 -9t7.5 -21l-127 -807q-4 -29 -31 -29h-233zM385 1325h16q18 0 48 -33l155 -155q14 -16 10 -41l-10 -68q-6 -35 -39 -8l-188 143l-240 -151q-12 -8 -21.5 -1t-6.5 19l12 70q6 27 26 43l195 164q20 18 43 18
z" />
    <glyph glyph-name="idieresis" unicode="&#xef;" horiz-adv-x="512" 
d="M76 0q-12 0 -21.5 9t-7.5 22l127 807q4 29 29 28h235q12 0 21.5 -9t7.5 -21l-127 -807q-4 -29 -31 -29h-233zM520 1055q-43 0 -70.5 32.5t-20.5 70.5t32.5 58.5t65.5 20.5t65.5 -34t17.5 -77q-14 -71 -90 -71zM236 1055q-43 0 -71 32.5t-21 70.5t33 58.5t66 20.5
t65.5 -34t17.5 -77q-14 -71 -90 -71z" />
    <glyph glyph-name="eth" unicode="&#xf0;" horiz-adv-x="1099" 
d="M611 657q-79 0 -146.5 -66.5t-84.5 -171.5t22.5 -160.5t118.5 -55.5t145 65.5t83 173t-21 161.5t-117 54zM516 -16q-207 0 -323.5 137t-86 323.5t180 312.5t338.5 126q78 0 127 -39q-6 137 -119 260l-115 -109q-23 -20 -43 0l-65 64q-23 23 2 45l106 100q-12 10 -67 45
q-31 16 -13 41l94 146q29 42 168 -62l64 60q25 25 47 -2l59 -60q20 -27 0 -47l-53 -51q301 -313 225 -768q-39 -250 -179 -386t-347 -136z" />
    <glyph glyph-name="ntilde" unicode="&#xf1;" horiz-adv-x="1130" 
d="M731 883q174 0 251 -107.5t50 -269.5l-76 -477q-4 -29 -28 -29h-236q-12 0 -21 9t-7 22l75 471q21 162 -119 162q-72 0 -135 -53.5t-71 -114.5l-74 -467q-4 -29 -31 -29h-235q-12 0 -21.5 9t-7.5 22l127 803q4 31 31 30h207q23 0 28 -33l17 -59q102 111 276 111z
M569 1110q-80 0 -125 -51q-14 -16 -38 -4l-37 16q-27 12 -13 39q68 129 205 129q78 0 144.5 -38t93.5 -38q63 0 112 56q10 12 29 6l45 -21q25 -10 12 -39q-71 -131 -199 -131q-64 0 -124 38t-105 38z" />
    <glyph glyph-name="ograve" unicode="&#xf2;" horiz-adv-x="1034" 
d="M480 203q77 0 138.5 65.5t78.5 173t-24.5 165t-119.5 57.5t-140.5 -70t-78.5 -175t26.5 -160.5t119.5 -55.5zM455 -16q-199 0 -310.5 135t-82 324.5t174 314.5t344 125t311.5 -136.5t79 -325.5t-175 -313t-341 -124zM768 963l-354 219q-20 14 -8 39l69 125q4 12 18.5 15
t24.5 -7l313 -293q20 -20 5 -41l-27 -49q-12 -26 -41 -8z" />
    <glyph glyph-name="oacute" unicode="&#xf3;" horiz-adv-x="1034" 
d="M480 203q77 0 138.5 65.5t78.5 173t-24.5 165t-119.5 57.5t-140.5 -70t-78.5 -175t26.5 -160.5t119.5 -55.5zM455 -16q-199 0 -310.5 135t-82 324.5t174 314.5t344 125t311.5 -136.5t79 -325.5t-175 -313t-341 -124zM492 963q-29 -18 -41 8l-27 49q-14 20 4 41l313 293
q10 10 24.5 7t18.5 -15l70 -125q12 -25 -8 -39z" />
    <glyph glyph-name="ocircumflex" unicode="&#xf4;" horiz-adv-x="1034" 
d="M480 203q77 0 138.5 65.5t78.5 173t-24.5 165t-119.5 57.5t-140.5 -70t-78.5 -175t26.5 -160.5t119.5 -55.5zM455 -16q-199 0 -310.5 135t-82 324.5t174 314.5t344 125t311.5 -136.5t79 -325.5t-175 -313t-341 -124zM629 1323h16q18 0 47 -33l156 -155q14 -16 10 -41
l-10 -68q-6 -35 -39 -8l-188 143l-240 -151q-12 -8 -21.5 -1t-7.5 19l13 70q6 27 26 43l195 164q20 18 43 18z" />
    <glyph glyph-name="otilde" unicode="&#xf5;" horiz-adv-x="1034" 
d="M480 203q77 0 138.5 65.5t78.5 173t-24.5 165t-119.5 57.5t-140.5 -70t-78.5 -175t26.5 -160.5t119.5 -55.5zM455 -16q-199 0 -310.5 135t-82 324.5t174 314.5t344 125t311.5 -136.5t79 -325.5t-175 -313t-341 -124zM732 1034q-65 0 -124 38t-120.5 38t-108.5 -51
q-14 -16 -39 -4l-37 16q-27 12 -12 39q68 129 205 129q78 0 144.5 -38t92.5 -38q63 0 113 56q10 12 28 6l46 -21q25 -10 12 -39q-71 -131 -200 -131z" />
    <glyph glyph-name="odieresis" unicode="&#xf6;" horiz-adv-x="1034" 
d="M480 203q77 0 138.5 65.5t78.5 173t-24.5 165t-119.5 57.5t-140.5 -70t-78.5 -175t26.5 -160.5t119.5 -55.5zM455 -16q-199 0 -310.5 135t-82 324.5t174 314.5t344 125t311.5 -136.5t79 -325.5t-175 -313t-341 -124zM764 1053q-43 0 -70.5 32.5t-20.5 70.5t32.5 58.5
t65.5 20.5t65.5 -34t17.5 -77q-14 -71 -90 -71zM479 1053q-43 0 -70.5 32.5t-20.5 70.5t32.5 58.5t65.5 20.5t66 -34t17 -77q-14 -71 -90 -71z" />
    <glyph glyph-name="divide" unicode="&#xf7;" horiz-adv-x="1163" 
d="M566 446q62 0 101 -47t29 -109t-55 -102t-107 -38q-62 0 -102 48q-41 48 -31 110q11 62 57 100t108 38zM172 598q-12 0 -20 9t-7 22l23 145q4 31 31 31h878q9 0 19 -9t8 -22l-25 -147q-4 -29 -28 -29h-879zM662 956q-62 0 -103 48t-31 111q10 62 56 100t110 38
q62 0 100 -47t28 -109q-10 -61 -54 -101t-106 -40z" />
    <glyph glyph-name="oslash" unicode="&#xf8;" horiz-adv-x="1034" 
d="M477 203q80 0 141.5 65.5t77.5 166t-16 159.5l-256 -383q23 -8 53 -8zM412.5 594.5q-62.5 -69.5 -77.5 -173t23 -159.5l260 389q-29 12 -61 13q-82 0 -144.5 -69.5zM211 -16q-14 0 -20.5 10t2.5 22l24 37q-92 61 -133 167t-21 229q29 184 173.5 309t338.5 125
q94 0 177 -33l8 10q16 23 41 23h39q12 0 17 -10.5t-3 -22.5l-29 -43q88 -61 126 -165.5t18 -227.5q-31 -182 -173.5 -306t-334.5 -124q-96 0 -170 30q-23 -31 -49 -30h-31z" />
    <glyph glyph-name="ugrave" unicode="&#xf9;" horiz-adv-x="1105" 
d="M1032 866q12 0 21.5 -9t7.5 -21l-127 -807q-4 -29 -29 -29h-174q-25 0 -43 31l-35 65q-37 -49 -107.5 -80.5t-135.5 -31.5q-182 0 -261 102t-51 279l76 473q4 29 29 28h235q12 0 21.5 -9t7.5 -21l-74 -474q-25 -159 112 -159q69 0 123 49t64 115l76 471q4 29 29 28h235z
M811 963l-354 219q-20 14 -8 39l69 125q4 12 18.5 15t24.5 -7l313 -293q18 -20 5 -41l-27 -49q-12 -26 -41 -8z" />
    <glyph glyph-name="uacute" unicode="&#xfa;" horiz-adv-x="1105" 
d="M1032 866q12 0 21.5 -9t7.5 -21l-127 -807q-4 -29 -29 -29h-174q-25 0 -43 31l-35 65q-37 -49 -107.5 -80.5t-135.5 -31.5q-182 0 -261 102t-51 279l76 473q4 29 29 28h235q12 0 21.5 -9t7.5 -21l-74 -474q-25 -159 112 -159q69 0 123 49t64 115l76 471q4 29 29 28h235z
M535 963q-29 -18 -41 8l-27 49q-14 20 4 41l313 293q10 10 24.5 7t18.5 -15l70 -125q12 -25 -8 -39z" />
    <glyph glyph-name="ucircumflex" unicode="&#xfb;" horiz-adv-x="1105" 
d="M1032 866q12 0 21.5 -9t7.5 -21l-127 -807q-4 -29 -29 -29h-174q-25 0 -43 31l-35 65q-37 -49 -107.5 -80.5t-135.5 -31.5q-182 0 -261 102t-51 279l76 473q4 29 29 28h235q12 0 21.5 -9t7.5 -21l-74 -474q-25 -159 112 -159q69 0 123 49t64 115l76 471q4 29 29 28h235z
M672 1323h16q18 0 47 -33l156 -155q14 -16 10 -41l-10 -68q-6 -35 -39 -8l-188 143l-240 -151q-12 -8 -21.5 -1t-7.5 19l13 70q6 27 26 43l195 164q23 18 43 18z" />
    <glyph glyph-name="udieresis" unicode="&#xfc;" horiz-adv-x="1105" 
d="M1032 866q12 0 21.5 -9t7.5 -21l-127 -807q-4 -29 -29 -29h-174q-25 0 -43 31l-35 65q-37 -49 -107.5 -80.5t-135.5 -31.5q-182 0 -261 102t-51 279l76 473q4 29 29 28h235q12 0 21.5 -9t7.5 -21l-74 -474q-25 -159 112 -159q69 0 123 49t64 115l76 471q4 29 29 28h235z
M807 1053q-43 0 -70.5 32.5t-20.5 70.5t32.5 58.5t65.5 20.5t65.5 -34t17.5 -77q-14 -71 -90 -71zM522 1053q-43 0 -70.5 32.5t-20.5 70.5t32.5 58.5t65.5 20.5t66 -34t17 -77q-14 -71 -90 -71z" />
    <glyph glyph-name="yacute" unicode="&#xfd;" horiz-adv-x="1132" 
d="M1122 866q14 0 20.5 -11t-1.5 -26l-787 -1183q-18 -29 -37 -29h-243q-14 0 -20.5 13.5t1.5 25.5l312 455l-246 723q-12 33 24 32h220q20 0 28 -30l154 -449l297 451q18 29 35 28h243zM539 963q-29 -18 -41 8l-27 49q-16 20 4 41l313 293q10 10 24.5 7t18.5 -15l70 -125
q12 -25 -8 -39z" />
    <glyph glyph-name="thorn" unicode="&#xfe;" horiz-adv-x="1067" 
d="M500 203q84 -1 145 69t77 168t-15 158q-33 59 -113 59q-80 -1 -134 -69t-73 -174q-30 -211 113 -211zM657 883q199 1 284 -139t54 -330t-149 -311q-119 -120 -301 -119q-123 0 -193 69l-71 -411q-4 -31 -31 -31h-236q-12 0 -20 9t-6 22l248 1583q4 31 30 30h238
q12 0 20 -10t6 -20l-69 -402q79 60 196 60z" />
    <glyph glyph-name="ydieresis" unicode="&#xff;" horiz-adv-x="1132" 
d="M1122 866q14 0 20.5 -11t-1.5 -26l-787 -1183q-18 -29 -37 -29h-243q-14 0 -20.5 13.5t1.5 25.5l312 455l-246 723q-12 33 24 32h220q20 0 28 -30l154 -449l297 451q18 29 35 28h243zM811 1053q-43 0 -70.5 32.5t-20.5 70.5t32.5 58.5t65.5 20.5t65.5 -34t17.5 -77
q-14 -71 -90 -71zM526 1053q-43 0 -70.5 32.5t-20.5 70.5t33 58.5t66 20.5t65.5 -34t16.5 -77q-14 -71 -90 -71z" />
    <glyph glyph-name="Amacron" unicode="&#x100;" horiz-adv-x="1415" 
d="M549 485h344l-105 420zM915 1450q23 0 31 -27l371 -1390q6 -33 -27 -33h-237q-10 0 -20.5 9t-12.5 20l-51 180h-584l-98 -180q-18 -29 -37 -29h-246q-20 0 -30.5 17.5t-0.5 33.5l805 1383q8 16 25 16h112zM698 1620q-12 0 -20 9t-6 22l16 100q4 31 33 31h399
q12 0 21.5 -9.5t7.5 -23.5l-16 -98q-4 -31 -31 -31h-404z" />
    <glyph glyph-name="amacron" unicode="&#x101;" horiz-adv-x="1079" 
d="M479 203q82 0 138.5 64.5t72.5 183.5q29 213 -119 213q-90 0 -151.5 -72t-76.5 -173t19.5 -158.5t116.5 -57.5zM1006 864q12 0 21 -9t7 -21l-127 -803q-4 -31 -30 -31h-156q-25 0 -53 47l-11 31q-104 -94 -243 -94q-207 -2 -290 135t-52 329t150.5 313.5t307.5 121.5
q141 0 230 -88l28 43q18 27 46 26h172zM465 1053q-12 0 -20.5 9t-6.5 21l17 101q4 31 32 30h400q12 0 21.5 -9t6.5 -23l-16 -99q-4 -31 -31 -30h-403z" />
    <glyph glyph-name="Abreve" unicode="&#x102;" horiz-adv-x="1415" 
d="M549 485h344l-105 420zM915 1450q23 0 31 -27l371 -1390q6 -33 -27 -33h-237q-10 0 -20.5 9t-12.5 20l-51 180h-584l-98 -180q-18 -29 -37 -29h-246q-20 0 -30.5 17.5t-0.5 33.5l805 1383q8 16 25 16h112zM895.5 1581q-112.5 0 -179.5 62.5t-89 150.5q-4 23 14 29l88 35
q23 8 33 -15q53 -104 145 -104q121 0 191 110q12 18 30 6l84 -51q16 -10 9 -30q-41 -78 -127 -135.5t-198.5 -57.5z" />
    <glyph glyph-name="abreve" unicode="&#x103;" horiz-adv-x="1079" 
d="M479 203q82 0 138.5 64.5t72.5 183.5q29 213 -119 213q-90 0 -151.5 -72t-76.5 -173t19.5 -158.5t116.5 -57.5zM1006 864q12 0 21 -9t7 -21l-127 -803q-4 -31 -30 -31h-156q-25 0 -53 47l-11 31q-104 -94 -243 -94q-207 -2 -290 135t-52 328.5t150.5 313.5t307.5 122
q141 0 230 -88l28 43q18 27 46 26h172zM661.5 1014q-112.5 0 -179 62.5t-89.5 150.5q-4 23 15 28l88 35q23 8 32 -14q53 -104 146 -105q121 0 190 111q12 18 31 6l84 -51q16 -10 8 -31q-41 -78 -127 -135t-198.5 -57z" />
    <glyph glyph-name="Aogonek" unicode="&#x104;" horiz-adv-x="1415" 
d="M549 485h344l-105 420zM1053 0q-10 0 -20.5 9t-12.5 20l-51 180h-584l-98 -180q-18 -29 -37 -29h-246q-20 0 -30.5 17.5t-0.5 33.5l805 1383q8 16 25 16h112q23 0 31 -27l371 -1390q6 -33 -27 -33h-57q-139 -121 -154 -229q-8 -63 47 -64q59 0 101 41q18 18 35 0l26 -31
q14 -14 2 -34q-68 -102 -194 -103q-86 0 -139.5 49t-38.5 144q23 131 180 227h-45z" />
    <glyph glyph-name="aogonek" unicode="&#x105;" horiz-adv-x="1079" 
d="M571 664q-90 0 -151.5 -72t-76.5 -173t19.5 -158.5t116.5 -57.5t138.5 64.5t72.5 183.5q29 213 -119 213zM721 0q-25 0 -53 47l-11 31q-104 -94 -243 -94q-207 -2 -290 135t-52 328.5t150.5 313.5t307.5 122q141 0 230 -88l28 43q18 27 46 26h172q12 0 21 -9t7 -21
l-127 -803q0 -4 -6 -15.5t-14 -13.5q-141 -123 -156 -231q-8 -63 47 -64q59 0 101 41q18 18 34 0l27 -31q14 -14 2 -34q-68 -102 -194 -103q-86 0 -139.5 49t-39.5 144q23 131 181 227h-29z" />
    <glyph glyph-name="Cacute" unicode="&#x106;" horiz-adv-x="1466" 
d="M752 -16q-307 0 -486.5 220t-130.5 524t288 513t533 209q164 0 297 -69.5t209 -192.5q16 -31 -10 -51l-154 -133q-10 -10 -31.5 -8.5t-29.5 16.5q-43 68 -121 112.5t-176 44.5q-182 0 -324 -137q-142 -138 -172.5 -328t60 -315t264.5 -125q223 0 379 178q27 27 51 0
l137 -157q29 -29 4 -52q-117 -119 -272 -184t-315 -65zM809 1575q-35 -10 -41 16l-12 58q-6 18 14 32l358 177q37 18 48 -15l36 -117q10 -33 -20 -40z" />
    <glyph glyph-name="cacute" unicode="&#x107;" horiz-adv-x="976" 
d="M457 -16q-205 0 -311.5 135t-74.5 326.5t171 314.5t327 123q229 0 336 -162q14 -23 -6 -39l-121 -102q-23 -14 -41 8q-63 76 -156 76t-158 -67t-79 -166t25 -163.5t131 -64.5q49 0 71.5 11t36 17.5t26.5 17.5t23 19t31 29t45 -6l103 -115q16 -23 2 -41
q-41 -51 -147.5 -101t-233.5 -50zM489 963q-29 -18 -40 8l-27 49q-16 20 4 41l313 293q10 10 24.5 7t18.5 -15l70 -125q12 -25 -8 -39z" />
    <glyph glyph-name="Cdotaccent" unicode="&#x10a;" horiz-adv-x="1466" 
d="M752 -16q-307 0 -486.5 220t-130.5 524t288 513t533 209q164 0 297 -69.5t209 -192.5q16 -31 -10 -51l-154 -133q-10 -10 -31.5 -8.5t-29.5 16.5q-43 68 -121 112.5t-176 44.5q-182 0 -323.5 -137t-172.5 -327.5t59.5 -315.5t264.5 -125q223 0 379 178q27 27 51 0
l137 -157q29 -29 4 -52q-117 -119 -272 -184t-315 -65zM987 1595q-47 0 -80 40t-23.5 86t43.5 74t79.5 28t78.5 -40t24 -88t-42 -74t-80 -26z" />
    <glyph glyph-name="cdotaccent" unicode="&#x10b;" horiz-adv-x="976" 
d="M457 -16q-205 0 -311.5 135t-74.5 326.5t171 314.5t327 123q229 0 336 -162q14 -23 -6 -39l-121 -102q-23 -14 -41 8q-63 76 -156 76t-158 -67t-79 -166t25 -163.5t131 -64.5q49 0 71.5 11t36 17.5t26.5 17.5t23 19t31 29t45 -6l103 -115q16 -23 2 -41
q-41 -51 -147.5 -101t-233.5 -50zM606 1028q-47 0 -79.5 40t-23.5 86t43 73.5t80 27.5t78.5 -39.5t23.5 -88t-42 -74t-80 -25.5z" />
    <glyph glyph-name="Ccaron" unicode="&#x10c;" horiz-adv-x="1466" 
d="M752 -16q-307 0 -486.5 220t-130.5 524t288 513t533 209q164 0 297 -69.5t209 -192.5q16 -31 -10 -51l-154 -133q-10 -10 -31.5 -8.5t-29.5 16.5q-43 68 -121 112.5t-176 44.5q-182 0 -323.5 -137t-172.5 -327.5t59.5 -315.5t264.5 -125q223 0 379 178q27 27 51 0
l137 -157q29 -29 4 -52q-117 -119 -272 -184t-315 -65zM989 1573h-18q-23 0 -45 33l-140 168q-23 27 -20 51l8 47q6 37 47 4l172 -152l232 158q20 12 30.5 3t8.5 -27l-9 -39q-6 -33 -22 -45l-203 -183q-18 -18 -41 -18z" />
    <glyph glyph-name="ccaron" unicode="&#x10d;" horiz-adv-x="976" 
d="M457 -16q-205 0 -311.5 135t-74.5 326.5t171 314.5t327 123q229 0 336 -162q14 -23 -6 -39l-121 -102q-23 -14 -41 8q-63 76 -156 76t-158 -67t-79 -166t25 -163.5t131 -64.5q49 0 71.5 11t36 17.5t26.5 17.5t23 19t31 29t45 -6l103 -115q16 -23 2 -41
q-41 -51 -147.5 -101t-233.5 -50zM608 1006h-18q-23 0 -45 32l-139 168q-23 27 -21 51l8 48q6 37 47 4l172 -152l232 158q20 12 30.5 3t8.5 -28l-9 -39q-6 -33 -22 -45l-203 -182q-18 -18 -41 -18z" />
    <glyph glyph-name="Dcaron" unicode="&#x10e;" horiz-adv-x="1404" 
d="M657 279q158 0 257.5 117.5t134.5 333.5t-22.5 320.5t-213.5 104.5h-240l-141 -876h225zM641 0h-530q-10 0 -19.5 9t-7.5 22l217 1374q4 29 31 29h528q274 0 414.5 -189t84.5 -538t-250 -528t-468 -179zM844 1573h-19q-23 0 -45 33l-139 168q-23 27 -20 51l8 47
q6 37 47 4l172 -152l231 158q20 12 30.5 3t8.5 -27l-8 -39q-6 -33 -23 -45l-202 -183q-18 -18 -41 -18z" />
    <glyph glyph-name="dcaron" unicode="&#x10f;" horiz-adv-x="1396" 
d="M477 203q84 0 137.5 63.5t71.5 171.5q35 225 -115 226q-92 0 -152.5 -72t-75.5 -169t17.5 -158.5t116.5 -61.5zM1300 1434h216q34 0 28 -30t-12 -67t-12.5 -80t-10.5 -63q-16 -109 -102 -199t-211 -151q-20 -12 -28.5 10t10.5 33q188 109 213 274l-127 47q-31 10 -27 33
l27 162q2 31 36 31zM1092 1450q12 0 20 -9t6 -22l-219 -1388q-4 -31 -31 -31h-129q-23 0 -39 27l-30 45q-104 -88 -254 -88q-205 0 -291 135t-54 329t152.5 314.5t306.5 120.5q125 0 201 -62l94 598q4 31 29 31h238z" />
    <glyph glyph-name="Dcroat" unicode="&#x110;" horiz-adv-x="1404" 
d="M813 1155h-240l-51 -324h201q33 0 27 -30l-27 -172q-6 -31 -31 -31h-209l-51 -319h225q158 0 257.5 117.5t134.5 333.5t-22.5 320.5t-213.5 104.5zM860 1434q274 0 414.5 -188.5t84.5 -538t-250 -528.5t-468 -179h-530q-10 0 -19.5 9t-7.5 22l90 567h-41q-33 0 -29 33
l27 170q4 31 31 30h49l90 574q4 29 31 29h528z" />
    <glyph glyph-name="dcroat" unicode="&#x111;" horiz-adv-x="1150" 
d="M477 203q84 0 137.5 63t71.5 172q35 225 -115 226q-92 0 -152.5 -72t-75.5 -169t17.5 -158.5t116.5 -61.5zM1204 1260q12 0 21.5 -8.5t7.5 -22.5l-19 -115q-6 -31 -32 -31h-117l-166 -1052q-4 -31 -31 -31h-129q-23 0 -39 27l-30 45q-104 -88 -254 -88q-205 0 -291 135
t-54 329t152.5 314.5t306.5 120.5q125 0 201 -62l41 262h-119q-12 0 -21 9.5t-7 21.5l18 117q4 29 31 29h127l24 159q4 31 29 31h238q12 0 20 -9t6 -22l-24 -159h110z" />
    <glyph glyph-name="Emacron" unicode="&#x112;" horiz-adv-x="1198" 
d="M1036 279q10 0 19.5 -9.5t7.5 -21.5l-35 -219q-4 -29 -29 -29h-888q-10 0 -19.5 9t-7.5 22l217 1374q4 29 31 29h887q12 0 21 -9.5t7 -21.5l-35 -219q-4 -29 -30 -29h-609l-47 -299h406q12 0 21.5 -9t7.5 -22l-37 -217q-4 -29 -31 -28h-412l-49 -301h604zM610 1620
q-12 0 -20 9t-6 22l16 100q4 31 33 31h399q12 0 21.5 -9.5t7.5 -23.5l-17 -98q-4 -31 -30 -31h-404z" />
    <glyph glyph-name="emacron" unicode="&#x113;" horiz-adv-x="1017" 
d="M562 696q-71 0 -124 -50t-69 -118h315q10 72 -20.5 120t-101.5 48zM591 883q206 0 295 -136.5t52 -379.5q-4 -31 -31 -31h-571q16 -150 180 -150q102 0 207 62q10 6 24.5 3t18.5 -15l53 -130q16 -27 -19.5 -51.5t-131 -47.5t-187.5 -23q-211 0 -325.5 131t-85.5 327.5
t172 318.5t349 122zM418 1053q-12 0 -20.5 9t-6.5 21l17 101q4 31 32 30h400q12 0 21 -9t7 -23l-16 -99q-4 -31 -31 -30h-403z" />
    <glyph glyph-name="Edotaccent" unicode="&#x116;" horiz-adv-x="1198" 
d="M1036 279q10 0 19.5 -9.5t7.5 -21.5l-35 -219q-4 -29 -29 -29h-888q-10 0 -19.5 9t-7.5 22l217 1374q4 29 31 29h887q12 0 21 -9.5t7 -21.5l-35 -219q-4 -29 -30 -29h-609l-47 -299h406q12 0 21.5 -9t7.5 -22l-37 -217q-4 -29 -31 -28h-412l-49 -301h604zM807 1595
q-47 0 -80 40t-23.5 86t43 74t79.5 28t79 -40t24 -88t-42 -74t-80 -26z" />
    <glyph glyph-name="edotaccent" unicode="&#x117;" horiz-adv-x="1017" 
d="M562 696q-71 0 -124 -50t-69 -118h315q10 72 -20.5 120t-101.5 48zM591 883q206 0 295 -136.5t52 -379.5q-4 -31 -31 -31h-571q16 -150 180 -150q102 0 207 62q10 6 24.5 3t18.5 -15l53 -130q16 -27 -19.5 -51.5t-131 -47.5t-187.5 -23q-211 0 -325.5 131t-85.5 327.5
t172 318.5t349 122zM615 1028q-47 0 -80 40t-24 86t43 73.5t80 27.5t78.5 -39.5t23.5 -88t-41.5 -74t-79.5 -25.5z" />
    <glyph glyph-name="Eogonek" unicode="&#x118;" horiz-adv-x="1198" 
d="M1219 1434q12 0 21 -9.5t7 -21.5l-35 -219q-4 -29 -30 -29h-609l-47 -299h406q12 0 21.5 -9t7.5 -22l-37 -217q-4 -29 -31 -28h-412l-49 -301h604q10 0 19.5 -9.5t7.5 -21.5l-35 -219q-4 -29 -29 -29h-73q-139 -121 -154 -229q-8 -63 47 -64q59 0 101 41q18 18 34 0
l27 -31q14 -14 2 -34q-68 -102 -195 -103q-86 0 -139 49t-39 144q23 131 181 227h-680q-10 0 -19.5 9t-7.5 22l217 1374q4 29 31 29h887z" />
    <glyph glyph-name="eogonek" unicode="&#x119;" horiz-adv-x="1017" 
d="M562 696q-71 0 -124 -50t-69 -118h315q10 72 -20.5 120t-101.5 48zM591 883q206 0 295 -136.5t52 -379.5q-4 -31 -31 -31h-571q16 -150 180 -150q102 0 207 62q10 6 24.5 3t18.5 -15l53 -130q16 -27 -15.5 -48.5t-115.5 -45.5q-152 -129 -168 -241q-8 -63 47 -64
q59 0 101 41q16 18 34 0l27 -31q14 -14 2 -34q-68 -102 -194 -103q-86 0 -139.5 49t-36.5 157t155 198h-35q-211 0 -325.5 131t-85.5 327.5t172 318.5t349 122z" />
    <glyph glyph-name="Ecaron" unicode="&#x11a;" horiz-adv-x="1198" 
d="M1036 279q10 0 19.5 -9.5t7.5 -21.5l-35 -219q-4 -29 -29 -29h-888q-10 0 -19.5 9t-7.5 22l217 1374q4 29 31 29h887q12 0 21 -9.5t7 -21.5l-35 -219q-4 -29 -30 -29h-609l-47 -299h406q12 0 21.5 -9t7.5 -22l-37 -217q-4 -29 -31 -28h-412l-49 -301h604zM809 1573h-18
q-23 0 -46 33l-139 168q-23 27 -20 51l8 47q6 37 47 4l172 -152l231 158q20 12 30.5 3t8.5 -27l-8 -39q-6 -33 -22 -45l-203 -183q-18 -18 -41 -18z" />
    <glyph glyph-name="ecaron" unicode="&#x11b;" horiz-adv-x="1017" 
d="M562 696q-71 0 -124 -50t-69 -118h315q10 72 -20.5 120t-101.5 48zM591 883q206 0 295 -136.5t52 -379.5q-4 -31 -31 -31h-571q16 -150 180 -150q102 0 207 62q10 6 24.5 3t18.5 -15l53 -130q16 -27 -19.5 -51.5t-131 -47.5t-187.5 -23q-211 0 -325.5 131t-85.5 327.5
t172 318.5t349 122zM616 1006h-18q-23 0 -45 32l-139 168q-23 27 -21 51l8 48q6 37 48 4l172 -152l231 158q20 12 30.5 3t8.5 -28l-8 -39q-6 -33 -23 -45l-203 -182q-18 -18 -41 -18z" />
    <glyph glyph-name="Gbreve" unicode="&#x11e;" horiz-adv-x="1480" 
d="M1374 793q12 0 21.5 -8.5t7.5 -20.5l-98 -617q-2 -27 -21 -34q-80 -49 -231.5 -89t-290.5 -40q-297 0 -486.5 213t-139.5 531t296 520t531 202q160 0 293 -71.5t204 -192.5q16 -25 -4 -45l-168 -144q-14 -12 -30.5 -8t-24.5 19q-45 72 -121 119t-174 47
q-178 0 -321.5 -140.5t-173.5 -328t62.5 -316.5t262.5 -129q135 0 250 70l37 196h-166q-14 0 -22.5 9.5t-6.5 21.5l33 207q4 29 31 29h450zM991.5 1581q-112.5 0 -179.5 62.5t-89 150.5q-4 23 14 29l88 35q23 8 33 -15q51 -104 146 -104q121 0 190 110q12 18 31 6l84 -51
q16 -10 8 -30q-41 -78 -127 -135.5t-198.5 -57.5z" />
    <glyph glyph-name="gbreve" unicode="&#x11f;" horiz-adv-x="1089" 
d="M489 203q176 0 214.5 230t-128.5 231q-94 0 -153.5 -69t-77.5 -171q-37 -221 145 -221zM1016 864q12 0 21.5 -9t6.5 -21l-135 -854q-33 -203 -172 -317t-348 -114q-279 0 -375 189q-12 20 6 37l136 108q25 18 41 -9.5t32.5 -47t55.5 -38.5t90 -19q100 0 171.5 58
t90.5 159l12 73q-94 -76 -239 -75q-203 0 -287 134t-51 330t151.5 315.5t284.5 119.5t252 -90l28 45q20 27 46 26h182zM641.5 1028q-112.5 0 -179.5 62.5t-89 150.5q-4 23 14 29l88 35q23 8 33 -15q53 -104 145 -104q121 0 191 110q12 18 30 7l84 -52q16 -10 9 -30
q-41 -78 -127 -135.5t-198.5 -57.5z" />
    <glyph glyph-name="Gdotaccent" unicode="&#x120;" horiz-adv-x="1480" 
d="M1374 793q12 0 21.5 -8.5t7.5 -20.5l-98 -617q-2 -27 -21 -34q-80 -49 -231.5 -89t-290.5 -40q-297 0 -486.5 213t-139.5 531t296 520t531 202q160 0 293 -71.5t204 -192.5q16 -25 -4 -45l-168 -144q-14 -12 -30.5 -8t-24.5 19q-45 72 -121 119t-174 47
q-178 0 -321.5 -140.5t-173.5 -328t62.5 -316.5t262.5 -129q135 0 250 70l37 196h-166q-14 0 -22.5 9.5t-6.5 21.5l33 207q4 29 31 29h450zM991 1595q-47 0 -79.5 40t-23.5 86t43 74t80 28t78.5 -40t23.5 -88t-42 -74t-80 -26z" />
    <glyph glyph-name="gdotaccent" unicode="&#x121;" horiz-adv-x="1089" 
d="M489 203q176 0 214.5 230t-128.5 231q-94 0 -153.5 -69t-77.5 -171q-37 -221 145 -221zM1016 864q12 0 21.5 -9t6.5 -21l-135 -854q-33 -203 -172 -317t-348 -114q-279 0 -375 189q-12 20 6 37l136 108q25 18 41 -9.5t32.5 -47t55.5 -38.5t90 -19q100 0 171.5 58
t90.5 159l12 73q-94 -76 -239 -75q-203 0 -287 134t-51 330t151.5 315.5t284.5 119.5t252 -90l28 45q20 27 46 26h182zM641 1042q-47 0 -80 40t-23.5 86.5t43 74t79.5 27.5t79 -40t24 -88t-42 -74t-80 -26z" />
    <glyph glyph-name="Gcommaaccent" unicode="&#x122;" horiz-adv-x="1480" 
d="M696 -78h131q33 0 29 -31l-22 -137q-10 -66 -63.5 -120t-125.5 -76q-20 -6 -22 12t18 29q104 43 117 135l-86 35q-31 12 -27 36l14 86q6 31 37 31zM1374 793q12 0 21.5 -8.5t7.5 -20.5l-98 -617q-2 -27 -21 -34q-80 -49 -231.5 -89t-290.5 -40q-297 0 -486.5 213
t-139.5 531t296 520t531 202q160 0 293 -71.5t204 -192.5q16 -25 -4 -45l-168 -144q-14 -12 -30.5 -8t-24.5 19q-45 72 -121 119t-174 47q-178 0 -321.5 -140.5t-173.5 -328t62.5 -316.5t262.5 -129q135 0 250 70l37 196h-166q-14 0 -22.5 9.5t-6.5 21.5l33 207q4 29 31 29
h450z" />
    <glyph glyph-name="gcommaaccent" unicode="&#x123;" horiz-adv-x="1089" 
d="M489 203q177 0 215 230t-129 231q-94 0 -153.5 -69t-77.5 -171q-37 -221 145 -221zM1016 864q12 0 21.5 -9t6.5 -21l-135 -854q-33 -203 -172 -317t-348 -114q-279 0 -375 189q-12 20 6 37l136 108q25 19 41 -9t32.5 -47.5t55.5 -38.5t90 -19q100 0 171.5 58t90.5 159
l12 73q-94 -76 -239 -75q-203 0 -287 134t-51 330t151.5 315.5t284.5 119.5t252 -90l28 45q20 27 46 26h182zM530 1042l23 138q10 66 63.5 120t124.5 76q21 6 23 -12t-19 -29q-104 -43 -116 -135l86 -35q31 -12 26 -37l-14 -86q-6 -31 -37 -30h-131q-31 -1 -29 30z" />
    <glyph glyph-name="Hbar" unicode="&#x126;" horiz-adv-x="1474" 
d="M489 633h560l28 182h-557zM1454 1434q12 0 20.5 -9.5t6.5 -21.5l-217 -1374q-4 -29 -29 -29h-256q-12 0 -20.5 9t-6.5 22l56 360h-557l-56 -362q-4 -29 -30 -29h-254q-12 0 -20.5 9t-6.5 22l217 1374q4 29 29 29h256q10 0 19 -9.5t7 -21.5l-55 -344h557l55 346
q4 29 31 29h254z" />
    <glyph glyph-name="hbar" unicode="&#x127;" horiz-adv-x="1193" 
d="M774 883q168 0 257 -112t56 -320l-67 -422q-4 -29 -31 -29h-233q-12 0 -20.5 9t-6.5 22l72 471q27 162 -107 162q-72 0 -127 -50.5t-65 -111.5l-74 -473q-4 -29 -31 -29h-235q-12 0 -21.5 9t-7.5 22l168 1052h-119q-33 0 -28 29l18 119q4 29 31 29h125l26 161q4 29 29 29
h235q12 0 20.5 -9t6.5 -22l-27 -159h115q12 0 21.5 -8.5t7.5 -20.5l-19 -119q-4 -29 -32 -29h-121l-45 -274q104 74 229 74z" />
    <glyph glyph-name="Imacron" unicode="&#x12a;" horiz-adv-x="606" 
d="M111 0q-12 0 -20.5 9t-6.5 22l217 1374q4 29 29 29h256q12 0 20 -9.5t6 -21.5l-217 -1374q-4 -29 -28 -29h-256zM299 1620q-12 0 -20.5 9t-6.5 22l17 100q4 31 33 31h399q12 0 21.5 -9.5t7.5 -23.5l-17 -98q-4 -31 -31 -31h-403z" />
    <glyph glyph-name="imacron" unicode="&#x12b;" horiz-adv-x="512" 
d="M76 0q-12 0 -21.5 9t-7.5 22l127 807q4 29 29 28h235q12 0 21.5 -9t7.5 -21l-127 -807q-4 -29 -31 -29h-233zM168 1055q-12 0 -20.5 9t-6.5 21l17 101q4 31 32 31h400q12 0 21.5 -9.5t6.5 -23.5l-16 -99q-4 -31 -31 -30h-403z" />
    <glyph glyph-name="Iogonek" unicode="&#x12e;" horiz-adv-x="606" 
d="M586 1434q12 0 20 -9.5t6 -21.5l-217 -1374q-4 -29 -28 -29h-62q-139 -121 -153 -229q-8 -63 47 -64q59 0 100 41q16 18 35 0l26 -31q14 -14 2 -34q-68 -102 -194 -103q-86 0 -139.5 49t-38.5 144q23 131 180 227h-59q-12 0 -20.5 9t-6.5 22l217 1374q4 29 29 29h256z
" />
    <glyph glyph-name="iogonek" unicode="&#x12f;" horiz-adv-x="512" 
d="M438 866q12 0 21.5 -9t7.5 -21l-127 -807q-4 -29 -31 -29h-59q-139 -121 -154 -229q-8 -63 47 -64q59 0 101 41q18 18 35 0l26 -31q14 -14 2 -34q-68 -102 -194 -103q-86 0 -139.5 49t-39.5 144q23 131 181 227h-39q-12 0 -21.5 9t-7.5 22l127 807q4 29 29 28h235z
M394 1321q54 0 91 -47t27 -102.5t-48 -85t-92 -29.5t-92 46t-29 100t49 86t94 32z" />
    <glyph glyph-name="Idotaccent" unicode="&#x130;" horiz-adv-x="606" 
d="M111 0q-12 0 -20.5 9t-6.5 22l217 1374q4 29 29 29h256q12 0 20 -9.5t6 -21.5l-217 -1374q-4 -29 -28 -29h-256zM496 1595q-47 0 -80 40t-24 86t43 74t80 28t79 -40t23.5 -88t-42 -74t-79.5 -26z" />
    <glyph glyph-name="dotlessi" unicode="&#x131;" horiz-adv-x="512" 
d="M76 0q-12 0 -21.5 9t-7.5 22l127 807q4 29 29 28h235q12 0 21.5 -9t7.5 -21l-127 -807q-4 -29 -31 -29h-233z" />
    <glyph glyph-name="Kcommaaccent" unicode="&#x136;" horiz-adv-x="1380" 
d="M559 -78h131q31 0 29 -31l-23 -137q-10 -66 -63 -120t-125 -76q-20 -6 -22.5 12t18.5 29q104 43 117 135l-86 35q-31 12 -27 36l14 86q6 31 37 31zM365 0h-254q-12 0 -20.5 9t-6.5 22l217 1374q4 29 29 29h256q10 0 19 -9.5t7 -21.5l-98 -596l588 604q20 23 57 23h277
q18 0 25 -19.5t-7 -34.5l-663 -663l436 -674q10 -10 3 -26.5t-28 -16.5h-268q-27 0 -45 31l-397 581l-97 -583q-4 -29 -30 -29z" />
    <glyph glyph-name="kcommaaccent" unicode="&#x137;" horiz-adv-x="1101" 
d="M422 -78h131q33 0 29 -31l-23 -137q-10 -66 -63.5 -120t-124.5 -76q-20 -6 -22.5 12t18.5 29q104 43 116 135l-86 35q-31 12 -26 36l14 86q6 31 37 31zM948 0h-248q-29 0 -49 31l-248 375l-63 -377q-4 -29 -31 -29h-235q-12 0 -21.5 8t-7.5 23l221 1390q4 29 29 29h235
q12 0 21.5 -8t7.5 -23l-147 -913l327 336q25 25 49 24h261q16 0 21 -15t-7 -28l-371 -362l275 -430q6 -12 0 -21.5t-19 -9.5z" />
    <glyph glyph-name="Lacute" unicode="&#x139;" horiz-adv-x="1153" 
d="M1014 279q10 0 18 -9.5t6 -21.5l-34 -219q-4 -29 -29 -29h-864q-10 0 -19.5 9t-7.5 22l217 1372q4 31 29 31h256q12 0 20 -9.5t6 -21.5l-180 -1124h582zM623 1575q-35 -10 -41 16l-13 58q-6 18 15 32l358 177q37 18 47 -15l37 -117q10 -33 -20 -40z" />
    <glyph glyph-name="lacute" unicode="&#x13a;" horiz-adv-x="512" 
d="M74 0q-12 0 -21.5 9t-7.5 22l221 1390q4 29 29 29h235q12 0 21.5 -9t7.5 -22l-219 -1390q-4 -29 -31 -29h-235zM270 1575q-35 -10 -41 16l-12 58q-6 18 14 32l359 177q37 18 47 -15l37 -117q10 -33 -21 -40z" />
    <glyph glyph-name="Lcommaaccent" unicode="&#x13b;" horiz-adv-x="1153" 
d="M479 -78h131q33 0 29 -31l-23 -137q-10 -66 -63 -120t-125 -76q-20 -6 -22 12t18 29q104 43 117 135l-86 35q-31 12 -27 36l14 86q6 31 37 31zM1014 279q10 0 18 -9.5t6 -21.5l-34 -219q-4 -29 -29 -29h-864q-10 0 -19.5 9t-7.5 22l217 1372q4 31 29 31h256q12 0 20 -9.5
t6 -21.5l-180 -1124h582z" />
    <glyph glyph-name="lcommaaccent" unicode="&#x13c;" horiz-adv-x="512" 
d="M113 -78h131q30 0 28 -31l-22 -137q-10 -66 -63.5 -120t-125.5 -76q-20 -6 -22 12t18 29q104 43 117 135l-86 35q-31 12 -27 36l15 86q6 31 37 31zM74 0q-12 0 -21.5 9t-7.5 22l221 1390q4 29 29 29h235q12 0 21.5 -9t7.5 -22l-219 -1390q-4 -29 -31 -29h-235z" />
    <glyph glyph-name="Lcaron" unicode="&#x13d;" horiz-adv-x="1153" 
d="M1014 279q10 0 18 -9.5t6 -21.5l-34 -219q-4 -29 -29 -29h-864q-10 0 -19.5 9t-7.5 22l217 1372q4 31 29 31h256q12 0 20 -9.5t6 -21.5l-180 -1124h582zM803 1573h-19q-23 0 -45 33l-139 168q-23 27 -20 51l8 47q6 37 47 4l172 -152l231 158q20 12 30.5 3t8.5 -27l-8 -39
q-6 -33 -22 -45l-203 -183q-18 -18 -41 -18z" />
    <glyph glyph-name="lcaron" unicode="&#x13e;" horiz-adv-x="512" 
d="M74 0q-12 0 -21.5 9t-7.5 22l221 1390q4 29 29 29h235q12 0 21.5 -9t7.5 -22l-219 -1390q-4 -29 -31 -29h-235zM451 1573h-19q-23 0 -45 33l-139 168q-23 27 -21 51l9 47q6 37 47 4l172 -152l231 158q20 12 30.5 3t8.5 -27l-8 -39q-6 -33 -23 -45l-202 -183
q-18 -18 -41 -18z" />
    <glyph glyph-name="Ldot" unicode="&#x13f;" horiz-adv-x="1181" 
d="M735 530q-35 0 -28 31l36 221q6 33 37 33h217q35 0 29 -33l-35 -221q-6 -31 -37 -31h-219zM1014 279q10 0 18 -9.5t6 -21.5l-34 -219q-4 -29 -29 -29h-864q-10 0 -19.5 9t-7.5 22l217 1372q4 31 29 31h256q12 0 20 -9.5t6 -21.5l-180 -1124h582z" />
    <glyph glyph-name="ldot" unicode="&#x140;" horiz-adv-x="806" 
d="M590 530q-35 0 -29 31l37 221q6 33 37 33h217q35 0 29 -33l-35 -221q-6 -31 -37 -31h-219zM74 0q-12 0 -21.5 9t-7.5 22l221 1390q4 29 29 29h235q12 0 21.5 -9t7.5 -22l-219 -1390q-4 -29 -31 -29h-235z" />
    <glyph glyph-name="Lslash" unicode="&#x141;" horiz-adv-x="1290" 
d="M1151 279q10 0 18.5 -9.5t6.5 -21.5l-35 -219q-4 -29 -29 -29h-864q-10 0 -19.5 9t-7.5 22l80 497l-119 -67q-10 -8 -26.5 -5t-24.5 15l-68 125q-23 27 9 43l270 160l96 604q4 31 29 31h256q12 0 20.5 -9.5t6.5 -21.5l-66 -404l135 78q31 16 45 -8l72 -129q18 -27 -4 -43
l-291 -170l-72 -448h582z" />
    <glyph glyph-name="lslash" unicode="&#x142;" horiz-adv-x="796" 
d="M453 0h-236q-12 0 -21.5 9t-7.5 22l70 440l-104 -78q-31 -23 -45 2l-76 109q-16 27 6 45l262 192l109 680q4 29 28 29h236q12 0 21.5 -9t6.5 -22l-67 -434l104 78q27 20 43 -6l76 -111q12 -25 -10 -41l-256 -188l-109 -688q-4 -29 -30 -29z" />
    <glyph glyph-name="Nacute" unicode="&#x143;" horiz-adv-x="1517" 
d="M1495 1434q12 0 21.5 -9.5t7.5 -21.5l-217 -1374q-4 -29 -31 -29h-207q-29 0 -47 37l-487 852l-140 -860q-4 -29 -30 -29h-252q-12 0 -20.5 9t-6.5 22l215 1374q4 29 29 29h219q25 0 47 -37l481 -832l135 840q4 29 29 29h254zM752 1575q-35 -10 -41 16l-13 58
q-6 18 15 32l358 177q37 18 47 -15l37 -117q10 -33 -20 -40z" />
    <glyph glyph-name="nacute" unicode="&#x144;" horiz-adv-x="1130" 
d="M731 883q174 0 251 -107.5t50 -269.5l-76 -477q-4 -29 -28 -29h-236q-12 0 -21 9t-7 22l75 471q21 162 -119 162q-72 0 -135 -53.5t-71 -114.5l-74 -467q-4 -29 -31 -29h-235q-12 0 -21.5 9t-7.5 22l127 803q4 31 31 30h207q23 0 28 -33l17 -59q102 111 276 111zM557 963
q-29 -18 -41 8l-27 49q-16 20 5 41l313 293q10 10 24.5 7t18.5 -15l70 -125q12 -25 -9 -39z" />
    <glyph glyph-name="Ncommaaccent" unicode="&#x145;" horiz-adv-x="1517" 
d="M625 -78h131q30 0 28 -31l-22 -137q-10 -66 -63.5 -120t-125.5 -76q-20 -6 -22 12t18 29q104 43 117 135l-86 35q-31 12 -27 36l15 86q6 31 37 31zM1495 1434q12 0 21.5 -9.5t7.5 -21.5l-217 -1374q-4 -29 -31 -29h-207q-29 0 -47 37l-487 852l-140 -860q-4 -29 -30 -29
h-252q-12 0 -20.5 9t-6.5 22l215 1374q4 29 29 29h219q25 0 47 -37l481 -832l135 840q4 29 29 29h254z" />
    <glyph glyph-name="ncommaaccent" unicode="&#x146;" horiz-adv-x="1130" 
d="M426 -78h131q33 0 29 -31l-23 -137q-10 -66 -63.5 -120t-124.5 -76q-20 -6 -22.5 12t18.5 29q104 43 116 135l-86 35q-31 12 -26 36l14 86q6 31 37 31zM731 883q174 0 251 -107.5t50 -269.5l-76 -477q-4 -29 -28 -29h-236q-12 0 -21 9t-7 22l75 471q21 162 -119 162
q-72 0 -135 -53.5t-71 -114.5l-74 -467q-4 -29 -31 -29h-235q-12 0 -21.5 9t-7.5 22l127 803q4 31 31 30h207q23 0 28 -33l17 -59q102 111 276 111z" />
    <glyph glyph-name="Ncaron" unicode="&#x147;" horiz-adv-x="1517" 
d="M1495 1434q12 0 21.5 -9.5t7.5 -21.5l-217 -1374q-4 -29 -31 -29h-207q-29 0 -47 37l-487 852l-140 -860q-4 -29 -30 -29h-252q-12 0 -20.5 9t-6.5 22l215 1374q4 29 29 29h219q25 0 47 -37l481 -832l135 840q4 29 29 29h254zM932 1573h-19q-23 0 -45 33l-139 168
q-23 27 -20 51l8 47q6 37 47 4l172 -152l231 158q20 12 30.5 3t8.5 -27l-8 -39q-6 -33 -22 -45l-203 -183q-18 -18 -41 -18z" />
    <glyph glyph-name="ncaron" unicode="&#x148;" horiz-adv-x="1130" 
d="M731 883q174 0 251 -107.5t50 -269.5l-76 -477q-4 -29 -28 -29h-236q-12 0 -21 9t-7 22l75 471q21 162 -119 162q-72 0 -135 -53.5t-71 -114.5l-74 -467q-4 -29 -31 -29h-235q-12 0 -21.5 9t-7.5 22l127 803q4 31 31 30h207q23 0 28 -33l17 -59q102 111 276 111z
M676 1006h-19q-23 0 -45 32l-139 168q-23 27 -20 51l8 48q6 37 47 4l172 -152l231 158q20 12 30.5 3t8.5 -28l-8 -39q-6 -33 -22 -45l-203 -182q-18 -18 -41 -18z" />
    <glyph glyph-name="Eng" unicode="&#x14a;" horiz-adv-x="1517" 
d="M1454 1434q12 0 22 -14t9 -25l-234 -1469q-27 -168 -239 -325q-25 -6 -35 18l-103 123q-12 25 0 45q119 92 130 162q6 35 -29 106l-479 824l-140 -859q-2 -20 -22 -20h-254q-12 0 -24 12q-11 12 -9 25l219 1376q2 20 25 21h225q12 0 26 -14t17 -25l481 -822l138 840
q2 20 22 21h254z" />
    <glyph glyph-name="eng" unicode="&#x14b;" horiz-adv-x="1136" 
d="M731 883q176 0 255 -106.5t52 -270.5l-84 -531q-14 -102 -67 -171.5t-144 -145.5q-27 -23 -49 6l-102 119q-16 29 -1.5 44.5t18 21.5t10 13t9.5 12t8 14.5t7 17.5t6 20.5t8.5 25.5t6.5 30l81 520q12 76 -19.5 119t-102 43t-135 -52.5t-74.5 -115.5l-74 -467
q-4 -29 -31 -29h-235q-12 0 -21.5 9t-7.5 22l127 803q4 31 31 30h205q20 0 30 -33l15 -59q102 111 278 111z" />
    <glyph glyph-name="Omacron" unicode="&#x14c;" horiz-adv-x="1617" 
d="M776 262q182 0 318.5 136.5t167.5 326.5t-59.5 317t-271.5 127t-318.5 -137t-168.5 -327.5t59.5 -316.5t272.5 -126zM751 -16q-304 0 -484.5 219t-131.5 524t283.5 514t538.5 209t482.5 -220t130.5 -526.5t-281.5 -513t-537.5 -206.5zM786 1620q-12 0 -20 9t-6 22l16 100
q4 31 33 31h399q12 0 21.5 -9.5t7.5 -23.5l-16 -98q-4 -31 -31 -31h-404z" />
    <glyph glyph-name="omacron" unicode="&#x14d;" horiz-adv-x="1034" 
d="M480 203q77 0 138.5 65.5t78.5 173t-24.5 165t-119.5 57.5t-140.5 -70t-78.5 -175t26.5 -160.5t119.5 -55.5zM455 -16q-199 0 -310.5 135t-82 324.5t174 314.5t344 125t311.5 -136.5t79 -325.5t-175 -313t-341 -124zM412 1053q-12 0 -20.5 9t-6.5 21l16 101q4 31 33 30
h400q12 0 21 -9t7 -23l-16 -99q-4 -31 -31 -30h-403z" />
    <glyph glyph-name="Ohungarumlaut" unicode="&#x150;" horiz-adv-x="1617" 
d="M776 262q182 0 318.5 136.5t167.5 326.5t-59.5 317t-271.5 127t-318.5 -137t-168.5 -327.5t59.5 -316.5t272.5 -126zM751 -16q-304 0 -484.5 219t-131.5 524t283.5 514t538.5 209t482.5 -220t130.5 -526.5t-281.5 -513t-537.5 -206.5zM1098 1579q-27 -10 -41 8l-31 35
q-16 20 10 41l230 180q27 14 39 -8l77 -96q12 -20 -8 -33zM811 1581q-23 -12 -39 8l-31 35q-16 20 11 41l229 180q23 14 39 -8l78 -98q12 -18 -11 -31z" />
    <glyph glyph-name="ohungarumlaut" unicode="&#x151;" horiz-adv-x="1034" 
d="M480 203q77 0 138.5 65.5t78.5 173t-24.5 165t-119.5 57.5t-140.5 -70t-78.5 -175t26.5 -160.5t119.5 -55.5zM455 -16q-199 0 -310.5 135t-82 324.5t174 314.5t344 125t311.5 -136.5t79 -325.5t-175 -313t-341 -124zM692 1020l-41 22q-20 14 -4 39l182 234q14 18 43 2
l95 -62q29 -25 4 -45l-242 -188q-14 -14 -37 -2zM350 1020l-39 22q-20 14 -4 39l182 234q16 18 41 2l95 -62q31 -23 6 -45l-242 -188q-19 -18 -39 -2z" />
    <glyph glyph-name="OE" unicode="&#x152;" horiz-adv-x="1976" 
d="M768 262q70 0 131 21l139 874q-43 12 -100 12q-178 -2 -320.5 -135t-173.5 -331t61.5 -319.5t262.5 -121.5zM1995 1434q12 0 21 -9.5t7 -21.5l-34 -219q-4 -29 -31 -29h-608l-47 -299h405q12 0 21.5 -9t7.5 -22l-37 -217q-4 -29 -31 -28h-412l-49 -301h604
q10 0 19.5 -9.5t7.5 -21.5l-35 -219q-4 -29 -28 -29h-858q-86 -16 -191.5 -16t-227.5 52t-213 145t-133 238.5t-16 315.5q51 322 298 518.5t519 196.5q82 0 152 -16h889z" />
    <glyph glyph-name="oe" unicode="&#x153;" horiz-adv-x="1646" 
d="M480 203q77 0 138.5 65.5t78.5 173t-24.5 165t-119.5 57.5t-140.5 -70t-78.5 -175t26.5 -160.5t119.5 -55.5zM1191 696q-71 0 -124 -50t-70 -118h316q10 72 -20.5 120t-101.5 48zM1222 883q204 0 293 -136.5t52 -379.5q-4 -31 -31 -31h-571q16 -150 180 -150
q102 0 207 62q10 6 24.5 3t18.5 -15l53 -130q16 -27 -19.5 -51.5t-131 -47.5t-187.5 -23q-201 0 -317 120q-141 -121 -339 -120.5t-309.5 135.5t-82 324.5t174 314.5t334.5 125t303 -117q144 117 348 117z" />
    <glyph glyph-name="Racute" unicode="&#x154;" horiz-adv-x="1341" 
d="M795 743q76 0 130 58.5t72 167.5q31 186 -118 186h-306l-65 -412h287zM1145 0h-244q-29 0 -39 31l-166 434h-233l-68 -436q-4 -29 -30 -29h-252q-31 0 -27 31l215 1374q4 29 29 29h678q156 0 242.5 -139.5t56 -335t-112.5 -310t-193 -149.5l162 -469q10 -31 -18 -31z
M664 1575q-35 -10 -41 16l-13 58q-6 18 15 32l358 177q37 18 47 -15l37 -117q10 -33 -20 -40z" />
    <glyph glyph-name="racute" unicode="&#x155;" horiz-adv-x="782" 
d="M309 0h-235q-12 0 -21.5 9t-7.5 22l127 803q4 31 31 30h135q25 0 43 -33l29 -55q111 106 225 106.5t151 -40.5q14 -18 5 -39l-89 -146q-10 -14 -52.5 -3t-69.5 12q-63 0 -110.5 -54.5t-59.5 -136.5l-70 -446q-4 -29 -31 -29zM414 963q-29 -18 -41 8l-27 49q-14 20 4 41
l314 293q10 10 24 7t19 -15l69 -125q12 -25 -8 -39z" />
    <glyph glyph-name="Rcommaaccent" unicode="&#x156;" horiz-adv-x="1341" 
d="M557 -78h131q33 0 29 -31l-23 -137q-10 -66 -63 -120t-125 -76q-20 -6 -22.5 12t18.5 29q104 43 116 135l-86 35q-31 12 -26 36l14 86q6 31 37 31zM795 743q76 0 130 58.5t72 167.5q31 186 -118 186h-306l-65 -412h287zM1145 0h-244q-29 0 -39 31l-166 434h-233l-68 -436
q-4 -29 -30 -29h-252q-31 0 -27 31l215 1374q4 29 29 29h678q156 0 242.5 -139.5t56 -335t-112.5 -310t-193 -149.5l162 -469q10 -31 -18 -31z" />
    <glyph glyph-name="rcommaaccent" unicode="&#x157;" horiz-adv-x="782" 
d="M283 -78h131q32 0 28 -31l-22 -137q-10 -66 -63.5 -120t-125.5 -76q-20 -6 -22 12t18 29q104 43 117 135l-86 35q-31 12 -27 36l15 86q6 31 37 31zM309 0h-235q-12 0 -21.5 9t-7.5 22l127 803q4 31 31 30h135q25 0 43 -33l29 -55q111 106 225 106.5t151 -40.5
q14 -18 5 -39l-89 -146q-10 -14 -52.5 -3t-69.5 12q-63 0 -110.5 -54.5t-59.5 -136.5l-70 -446q-4 -29 -31 -29z" />
    <glyph glyph-name="Rcaron" unicode="&#x158;" horiz-adv-x="1341" 
d="M795 743q76 0 130 58.5t72 167.5q31 186 -118 186h-306l-65 -412h287zM1145 0h-244q-29 0 -39 31l-166 434h-233l-68 -436q-4 -29 -30 -29h-252q-31 0 -27 31l215 1374q4 29 29 29h678q156 0 242.5 -139.5t56 -335t-112.5 -310t-193 -149.5l162 -469q10 -31 -18 -31z
M844 1573h-19q-23 0 -45 33l-139 168q-23 27 -20 51l8 47q6 37 47 4l172 -152l231 158q20 12 30.5 3t8.5 -27l-8 -39q-6 -33 -23 -45l-202 -183q-18 -18 -41 -18z" />
    <glyph glyph-name="rcaron" unicode="&#x159;" horiz-adv-x="782" 
d="M309 0h-235q-12 0 -21.5 9t-7.5 22l127 803q4 31 31 30h135q25 0 43 -33l29 -55q111 106 225 106.5t151 -40.5q14 -18 5 -39l-89 -146q-10 -14 -52.5 -3t-69.5 12q-63 0 -110.5 -54.5t-59.5 -136.5l-70 -446q-4 -29 -31 -29zM532 1006h-18q-23 0 -45 32l-139 168
q-23 27 -21 51l8 48q6 37 48 4l172 -152l231 158q20 12 30.5 3t8.5 -28l-8 -39q-6 -33 -23 -45l-203 -182q-18 -18 -41 -18z" />
    <glyph glyph-name="Sacute" unicode="&#x15a;" horiz-adv-x="1300" 
d="M604 -16q-334 0 -510 206q-20 25 -2 43l164 140q20 16 43 0q37 -39 121 -77t183 -38t183 43t96 111t-42 107q-73 54 -228 93q-266 80 -340 160q-36 39 -59 103.5t-10.5 142.5t52.5 149.5t107.5 137t180 105.5t252.5 40q309 0 493 -197q23 -29 -4 -51l-156 -131
q-27 -20 -53 -2q-145 104 -301 105q-106 0 -178 -39t-80 -102.5t48.5 -103.5t170.5 -75q94 -25 146.5 -41t129 -54t114.5 -80t59.5 -111.5t7.5 -157.5q-33 -172 -178.5 -299t-409.5 -127zM653 1575q-35 -10 -41 16l-12 58q-6 18 14 32l359 177q37 18 47 -15l37 -117
q10 -33 -21 -40z" />
    <glyph glyph-name="sacute" unicode="&#x15b;" horiz-adv-x="864" 
d="M360 -16q-225 0 -331 118q-20 23 -4 41l75 107q18 20 47 -3.5t93.5 -43t126.5 -19.5q119 0 122 78q2 31 -19 44t-64.5 26.5t-60.5 18.5t-46 14.5t-45 17.5t-40 19.5t-36 22.5t-28 27q-21 21 -33.5 65.5t0.5 105.5q25 117 122 188.5t277.5 71.5t286.5 -95q20 -20 8 -38
l-82 -113q-16 -16 -41 -4q-106 49 -170 49q-113 0 -125 -70q-6 -29 16.5 -46t68.5 -30.5t67.5 -20.5t54.5 -18.5t50.5 -20.5t42 -22.5t35.5 -27.5t24.5 -33.5t17.5 -41t4 -49.5t-6 -58q-58 -260 -408 -260zM416 963q-29 -18 -41 8l-27 49q-16 20 4 41l314 293q10 10 24.5 7
t18.5 -15l69 -125q12 -25 -8 -39z" />
    <glyph glyph-name="Scedilla" unicode="&#x15e;" horiz-adv-x="1300" 
d="M548 -410q-79 0 -121 30t-52 58q-8 14 4 21l47 41q16 12 36 -10.5t54 -22.5q82 0 90 80q6 41 -19.5 48t-43 -10.5t-39.5 -12.5h-6l-70 24q-20 6 -10 25l78 129q-252 23 -402 200q-20 25 -2 43l164 140q20 16 43 0q37 -39 121 -77t183 -38t183 43t96 111t-42 107
q-73 54 -228 93q-266 80 -340 160q-36 39 -59 103.5t-10.5 142.5t52.5 149.5t107.5 137t180 105.5t252.5 40q309 0 493 -197q23 -29 -4 -51l-156 -131q-27 -20 -53 -2q-145 104 -301 105q-106 0 -178 -39t-80 -102.5t48.5 -103.5t170.5 -75q94 -25 146.5 -41t129 -54
t114.5 -80t59.5 -111.5t7.5 -157.5q-31 -166 -169 -292t-386 -134l-43 -62q84 2 124 -47t26.5 -124t-65.5 -118t-131 -43z" />
    <glyph glyph-name="scedilla" unicode="&#x15f;" horiz-adv-x="864" 
d="M518 682q-113 0 -125 -70q-6 -29 16.5 -46t68.5 -30.5t67.5 -20.5t54.5 -18.5t50.5 -20.5t42 -22.5t35.5 -27.5t24.5 -33.5t17.5 -41t4 -49.5t-6 -58q-55 -246 -373 -260l-43 -62q84 2 124 -47t27 -124t-65.5 -118t-131.5 -43t-121 30t-52 58q-8 14 4 21l47 41
q16 12 36 -10.5t54 -22.5q82 0 91 80q6 41 -20 48t-43.5 -10.5t-39.5 -12.5h-6l-70 24q-20 6 -10 25l80 131q-147 20 -227 110q-20 23 -4 41l75 107q18 20 47 -3.5t93.5 -43t126.5 -19.5q119 0 122 78q2 31 -19 44t-64.5 26.5t-60.5 18.5t-46 14.5t-45 17.5t-40 19.5
t-36 22.5t-28 27q-21 21 -33.5 65.5t0.5 105.5q25 117 122 188.5t277.5 71.5t286.5 -95q20 -20 8 -38l-82 -113q-16 -16 -41 -4q-107 49 -170 49z" />
    <glyph glyph-name="Scaron" unicode="&#x160;" horiz-adv-x="1300" 
d="M604 -16q-334 0 -510 206q-20 25 -2 43l164 140q20 16 43 0q37 -39 121 -77t183 -38t183 43t96 111t-42 107q-73 54 -228 93q-266 80 -340 160q-36 39 -59 103.5t-10.5 142.5t52.5 149.5t107.5 137t180 105.5t252.5 40q309 0 493 -197q23 -29 -4 -51l-156 -131
q-27 -20 -53 -2q-145 104 -301 105q-106 0 -178 -39t-80 -102.5t48.5 -103.5t170.5 -75q94 -25 146.5 -41t129 -54t114.5 -80t59.5 -111.5t7.5 -157.5q-33 -172 -178.5 -299t-409.5 -127zM834 1573h-19q-23 0 -45 33l-139 168q-23 27 -21 51l8 47q6 37 48 4l172 -152
l231 158q20 12 30.5 3t8.5 -27l-8 -39q-6 -33 -23 -45l-203 -183q-18 -18 -40 -18z" />
    <glyph glyph-name="scaron" unicode="&#x161;" horiz-adv-x="864" 
d="M360 -16q-225 0 -331 118q-20 23 -4 41l75 107q18 20 47 -3.5t93.5 -43t126.5 -19.5q119 0 122 78q2 31 -19 44t-64.5 26.5t-60.5 18.5t-46 14.5t-45 17.5t-40 19.5t-36 22.5t-28 27q-21 21 -33.5 65.5t0.5 105.5q25 117 122 188.5t277.5 71.5t286.5 -95q20 -20 8 -38
l-82 -113q-16 -16 -41 -4q-106 49 -170 49q-113 0 -125 -70q-6 -29 16.5 -46t68.5 -30.5t67.5 -20.5t54.5 -18.5t50.5 -20.5t42 -22.5t35.5 -27.5t24.5 -33.5t17.5 -41t4 -49.5t-6 -58q-58 -260 -408 -260zM535 1006h-19q-23 0 -45 32l-139 168q-23 27 -21 51l8 48
q6 37 48 4l172 -152l231 158q20 12 30.5 3t8.5 -28l-8 -39q-6 -33 -23 -45l-203 -182q-18 -18 -40 -18z" />
    <glyph glyph-name="uni0162" unicode="&#x162;" horiz-adv-x="1271" 
d="M1313 1434q12 0 21 -9.5t7 -21.5l-34 -217q-4 -31 -31 -31h-369l-178 -1126q-4 -29 -31 -29h-69l-49 -72q84 2 123.5 -47t26.5 -124t-65.5 -117.5t-131.5 -42.5t-120.5 29.5t-52.5 58.5q-8 14 5 20l47 41q16 12 35.5 -10.5t54.5 -22.5q82 0 90 80q6 41 -19.5 48t-42.5 -9
t-38 -16l-78 26q-20 6 -11 25l82 133h-39q-12 0 -21 9t-7 22l178 1124h-363q-12 0 -21 9.5t-7 21.5l35 219q4 29 30 29h1043z" />
    <glyph glyph-name="uni0163" unicode="&#x163;" horiz-adv-x="806" 
d="M711 866q10 0 19 -9t7 -21l-24 -170q-4 -29 -31 -29h-184l-54 -328q-8 -55 4.5 -75.5t57.5 -20.5t106 31q23 6 33 -17l51 -143q10 -25 -16 -39q-102 -53 -250 -61l-43 -62q84 2 124 -47t27 -124t-65.5 -118t-131.5 -43t-121 30t-52 58q-8 14 4 21l47 41q16 12 36 -10.5
t54 -22.5q82 0 90 80q6 41 -19.5 48t-43.5 -11t-37 -12h-8l-70 24q-20 6 -10 25l82 135q-172 53 -143 305l53 336h-74q-12 0 -21.5 9t-7.5 20l29 172q4 29 31 28h82l32 217q4 29 31 29h236q10 0 19 -9t7 -22l-32 -215h176z" />
    <glyph glyph-name="Tcaron" unicode="&#x164;" horiz-adv-x="1271" 
d="M1313 1434q12 0 21 -9.5t7 -21.5l-34 -217q-4 -31 -31 -31h-369l-178 -1126q-4 -29 -31 -29h-252q-12 0 -21 9t-7 22l178 1124h-363q-12 0 -21 9.5t-7 21.5l35 219q4 29 30 29h1043zM819 1573h-18q-23 0 -45 33l-140 168q-23 27 -20 51l8 47q6 37 47 4l172 -152l232 158
q20 12 30.5 3t8.5 -27l-9 -39q-6 -33 -22 -45l-203 -183q-18 -18 -41 -18z" />
    <glyph glyph-name="tcaron" unicode="&#x165;" horiz-adv-x="913" 
d="M403.5 -16q-161.5 0 -216 88t-37.5 229l53 336h-74q-12 0 -21.5 9t-7.5 20l29 172q4 29 31 28h82l32 217q4 29 31 29h236q10 0 19 -9t7 -22l-32 -215h176q10 0 19 -9t7 -21l-24 -170q-4 -29 -31 -29h-184l-54 -328q-8 -55 4.5 -75.5t57.5 -20.5t106 31q23 6 33 -17
l51 -143q10 -25 -16 -39q-115 -61 -276.5 -61zM823 1538h215q35 0 29 -30t-12 -66.5t-12.5 -79.5t-10.5 -64q-16 -109 -102 -198.5t-211 -151.5q-20 -12 -28.5 10.5t9.5 32.5q188 109 213 275l-127 47q-31 10 -26 33l26 161q4 31 37 31z" />
    <glyph glyph-name="Tbar" unicode="&#x166;" horiz-adv-x="1271" 
d="M1313 1434q12 0 21 -9.5t7 -21.5l-34 -217q-4 -31 -31 -31h-369l-51 -324h125q33 0 27 -30l-27 -172q-6 -31 -31 -31h-131l-90 -569q-4 -29 -31 -29h-252q-12 0 -21 9t-7 22l90 567h-117q-33 0 -29 33l27 170q4 31 31 30h125l51 324h-363q-12 0 -21 9.5t-7 21.5l35 219
q4 29 30 29h1043z" />
    <glyph glyph-name="tbar" unicode="&#x167;" horiz-adv-x="829" 
d="M389 -16q-147 0 -201 89q-53 89 -34 230l51 334h-76q-12 0 -20 9t-7 22l29 170q4 29 31 28h80l16 105h-74q-12 0 -20 9t-6 21l24 170q4 31 31 31h82l29 180q4 31 30 31h236q12 0 20 -9t6 -22l-26 -180h174q12 0 21 -9t8 -22l-27 -170q-4 -31 -29 -30h-186l-14 -105h176
q12 0 20 -9t6 -21l-24 -170q-4 -29 -31 -29h-186l-52 -326q-8 -57 4 -79t53 -22q42 0 107 32q27 8 35 -11l53 -145q10 -29 -16 -43q-106 -59 -293 -59z" />
    <glyph glyph-name="Umacron" unicode="&#x16a;" horiz-adv-x="1417" 
d="M1430 1434q31 0 26 -31l-129 -780q-41 -255 -185 -433q-77 -96 -202 -151t-271.5 -55t-248 38.5t-157.5 103t-92 149.5t-36 177.5t10 186.5l127 764q6 31 31 31h254q31 0 27 -31l-125 -752q-29 -178 22 -283.5t193.5 -105.5t231.5 113.5t118 292.5l121 735q4 31 31 31
h254zM713 1620q-12 0 -20.5 9t-6.5 22l16 100q4 31 33 31h400q12 0 21 -9.5t7 -23.5l-16 -98q-4 -31 -31 -31h-403z" />
    <glyph glyph-name="umacron" unicode="&#x16b;" horiz-adv-x="1105" 
d="M1032 866q12 0 21.5 -9t7.5 -21l-127 -807q-4 -29 -29 -29h-174q-25 0 -43 31l-35 65q-37 -49 -107.5 -80.5t-135.5 -31.5q-182 0 -261 102t-51 279l76 473q4 29 29 28h235q12 0 21.5 -9t7.5 -21l-74 -474q-25 -159 112 -159q69 0 123 49t64 115l76 471q4 29 29 28h235z
M455 1053q-12 0 -20.5 9t-6.5 21l16 101q4 31 33 30h400q12 0 21 -9t7 -23l-16 -99q-4 -31 -31 -30h-403z" />
    <glyph glyph-name="ubreve" unicode="&#x16d;" horiz-adv-x="1105" 
d="M1032 866q12 0 21.5 -9t7.5 -21l-127 -807q-4 -29 -29 -29h-174q-25 0 -43 31l-35 65q-37 -49 -107.5 -80.5t-135.5 -31.5q-182 0 -261 102t-51 279l76 473q4 29 29 28h235q12 0 21.5 -9t7.5 -21l-74 -474q-25 -159 112 -159q69 0 123 49t64 115l76 471q4 29 29 28h235z
M651.5 1014q-112.5 0 -179 62.5t-89.5 150.5q-4 23 14 28l88 35q23 8 33 -14q51 -104 146 -105q121 0 190 111q12 18 31 6l84 -51q16 -10 8 -31q-41 -78 -127 -135t-198.5 -57z" />
    <glyph glyph-name="Uring" unicode="&#x16e;" horiz-adv-x="1417" 
d="M1430 1434q31 0 26 -31l-129 -780q-41 -255 -185 -433q-77 -96 -202 -151t-271.5 -55t-248 38.5t-157.5 103t-92 149.5t-36 177.5t10 186.5l127 764q6 31 31 31h254q31 0 27 -31l-125 -752q-29 -178 22 -283.5t193.5 -105.5t231.5 113.5t118 292.5l121 735q4 31 31 31
h254zM903 1692q35 0 55.5 22.5t24.5 55t-11.5 55t-47.5 22.5q-68 0 -82 -73q-6 -35 10 -58.5t51 -23.5zM889 1561q-86 0 -142.5 62.5t-40 157.5t79 146t149.5 51t143.5 -63.5t40 -157.5t-80 -145t-149.5 -51z" />
    <glyph glyph-name="uring" unicode="&#x16f;" horiz-adv-x="1105" 
d="M1032 866q12 0 21.5 -9t7.5 -21l-127 -807q-4 -29 -29 -29h-174q-25 0 -43 31l-35 65q-37 -49 -107.5 -80.5t-135.5 -31.5q-182 0 -261 102t-51 279l76 473q4 29 29 28h235q12 0 21.5 -9t7.5 -21l-74 -474q-25 -159 112 -159q69 0 123 49t64 115l76 471q4 29 29 28h235z
M645 1124q35 0 55.5 22.5t24.5 55.5t-11.5 55.5t-47.5 22.5q-68 0 -82 -74q-6 -35 10 -58.5t51 -23.5zM631 993q-86 0 -142.5 62.5t-40 158t79 146.5t149.5 51t143.5 -63.5t40 -157.5t-80 -145.5t-149.5 -51.5z" />
    <glyph glyph-name="Uhungarumlaut" unicode="&#x170;" horiz-adv-x="1417" 
d="M1430 1434q31 0 26 -31l-129 -780q-41 -255 -185 -433q-77 -96 -202 -151t-271.5 -55t-248 38.5t-157.5 103t-92 149.5t-36 177.5t10 186.5l127 764q6 31 31 31h254q31 0 27 -31l-125 -752q-29 -178 22 -283.5t193.5 -105.5t231.5 113.5t118 292.5l121 735q4 31 31 31
h254zM1024 1579q-27 -10 -41 8l-31 35q-16 20 11 41l229 180q27 14 39 -8l78 -96q12 -20 -9 -33zM737 1581q-23 -12 -39 8l-30 35q-16 20 10 41l229 180q23 14 39 -8l78 -98q12 -18 -10 -31z" />
    <glyph glyph-name="uhungarumlaut" unicode="&#x171;" horiz-adv-x="1105" 
d="M1032 866q12 0 21.5 -9t7.5 -21l-127 -807q-4 -29 -29 -29h-174q-25 0 -43 31l-35 65q-37 -49 -107.5 -80.5t-135.5 -31.5q-182 0 -261 102t-51 279l76 473q4 29 29 28h235q12 0 21.5 -9t7.5 -21l-74 -474q-25 -159 112 -159q69 0 123 49t64 115l76 471q4 29 29 28h235z
M735 1020l-41 22q-20 14 -4 39l182 234q14 18 43 2l95 -62q29 -25 4 -45l-242 -188q-14 -14 -37 -2zM393 1020l-39 22q-20 14 -4 39l182 234q16 18 41 2l95 -62q31 -23 6 -45l-242 -188q-19 -18 -39 -2z" />
    <glyph glyph-name="Uogonek" unicode="&#x172;" horiz-adv-x="1417" 
d="M1430 1434q31 0 26 -31l-129 -780q-23 -139 -72 -255t-150 -216.5t-243 -141.5q-150 -127 -166 -239q-8 -63 47 -64q59 0 101 41q16 18 35 0l26 -31q14 -14 2 -34q-68 -102 -194 -103q-86 0 -139.5 49t-38.5 144q18 119 155 211h-35q-133 0 -234.5 38.5t-157.5 103
t-92 149.5t-36 177.5t10 186.5l127 764q6 31 31 31h254q31 0 27 -31l-125 -752q-29 -178 22 -283.5t193 -105.5t231.5 113.5t118.5 292.5l121 735q4 31 31 31h254z" />
    <glyph glyph-name="uogonek" unicode="&#x173;" horiz-adv-x="1105" 
d="M1032 866q12 0 21.5 -9t7.5 -21l-127 -807q-4 -29 -29 -29h-59q-139 -121 -154 -229q-8 -63 47 -64q59 0 101 41q16 18 34 0l27 -31q14 -14 2 -34q-68 -102 -194 -103q-86 0 -139.5 49t-39.5 144q23 135 187 231q-14 6 -29 27l-35 65q-37 -49 -107.5 -80.5t-135.5 -31.5
q-182 0 -261 102t-51 279l76 473q4 29 29 28h235q12 0 21.5 -9t7.5 -21l-74 -474q-25 -159 112 -159q69 0 123 49t64 115l76 471q4 29 29 28h235z" />
    <glyph glyph-name="Wcircumflex" unicode="&#x174;" horiz-adv-x="2017" 
d="M2075 1434q16 0 24 -11.5t2 -27.5l-639 -1366q-16 -29 -37 -29h-122q-23 0 -33 29l-185 835l-432 -837q-12 -27 -35 -27h-126q-23 0 -29 29l-240 1366q-6 39 25 39h235q25 0 31 -29l135 -827l420 833q12 23 31 23h110q18 0 27 -31l190 -825l388 833q12 23 28 23h232z
M1212 1890h17q18 0 47 -32l156 -156q14 -16 10 -41l-10 -68q-6 -35 -39 -8l-189 144l-239 -152q-12 -8 -21.5 -1t-7.5 19l12 70q6 27 27 43l194 164q23 18 43 18z" />
    <glyph glyph-name="wcircumflex" unicode="&#x175;" horiz-adv-x="1427" 
d="M1403 866q14 0 21.5 -10t0.5 -22l-419 -805q-14 -29 -31 -29h-150q-25 0 -28 29l-78 454l-217 -454q-14 -29 -33 -29h-147q-25 0 -29 29l-160 807q-8 31 25 30h225q27 0 31 -28l55 -420l205 420q14 29 31 28h122q25 0 29 -28l78 -420l186 420q10 29 31 28h252zM825 1323
h17q18 0 47 -33l155 -155q14 -16 11 -41l-11 -68q-6 -35 -38 -8l-189 143l-239 -151q-12 -8 -21.5 -1t-7.5 19l12 70q6 27 27 43l194 164q20 18 43 18z" />
    <glyph glyph-name="Ycircumflex" unicode="&#x176;" horiz-adv-x="1339" 
d="M1389 1434q20 0 30.5 -16.5t-2.5 -37.5l-571 -772l-94 -579q-4 -29 -29 -29h-254q-12 0 -21.5 8t-7.5 23l95 577l-308 791q-12 35 23 35h248q33 0 49 -37l184 -484l359 494q16 27 49 27h250zM868 1890h17q18 0 47 -32l155 -156q14 -16 11 -41l-11 -68q-6 -35 -38 -8
l-189 144l-239 -152q-12 -8 -21.5 -1t-7.5 19l12 70q6 27 27 43l194 164q20 18 43 18z" />
    <glyph glyph-name="ycircumflex" unicode="&#x177;" horiz-adv-x="1132" 
d="M1122 866q14 0 20.5 -11t-1.5 -26l-787 -1183q-18 -29 -37 -29h-243q-14 0 -20.5 13.5t1.5 25.5l312 455l-246 723q-12 33 24 32h220q20 0 28 -30l154 -449l297 451q18 29 35 28h243zM676 1323h16q18 0 47 -33l156 -155q14 -16 10 -41l-10 -68q-6 -35 -39 -8l-188 143
l-240 -151q-12 -8 -21.5 -1t-7.5 19l13 70q6 27 26 43l195 164q23 18 43 18z" />
    <glyph glyph-name="Ydieresis" unicode="&#x178;" horiz-adv-x="1339" 
d="M1389 1434q20 0 30.5 -16.5t-2.5 -37.5l-571 -772l-94 -579q-4 -29 -29 -29h-254q-12 0 -21.5 8t-7.5 23l95 577l-308 791q-12 35 23 35h248q33 0 49 -37l184 -484l359 494q16 27 49 27h250zM1004 1620q-43 0 -71 33t-21 71t33 58t66 20t65.5 -33.5t17.5 -76.5
q-14 -72 -90 -72zM719 1620q-43 0 -70.5 33t-20.5 71t32.5 58t65.5 20t65.5 -33.5t17.5 -76.5q-14 -72 -90 -72z" />
    <glyph glyph-name="Zacute" unicode="&#x179;" horiz-adv-x="1271" 
d="M289 1155q-12 0 -21.5 9.5t-7.5 21.5l35 219q4 29 29 29h981q20 0 27 -18.5t-5 -35.5l-786 -1101h561q12 0 20 -9.5t6 -21.5l-34 -219q-4 -29 -29 -29h-1002q-25 0 -34 17.5t4 33.5l786 1104h-530zM635 1575q-35 -10 -41 16l-12 58q-6 18 14 32l358 177q37 18 47 -15
l37 -117q10 -33 -20 -40z" />
    <glyph glyph-name="zacute" unicode="&#x17a;" horiz-adv-x="876" 
d="M174 647q-12 0 -21.5 8.5t-7.5 20.5l25 160q4 31 31 30h635q16 0 24 -17.5t-2 -29.5l-416 -600h265q12 0 21 -9t7 -22l-26 -157q0 -12 -9.5 -21.5t-21.5 -9.5h-641q-14 0 -20.5 14.5t1.5 28.5l420 604h-264zM438 963q-29 -18 -41 8l-26 49q-14 20 4 41l313 293
q10 10 24.5 7t18.5 -15l70 -125q12 -25 -8 -39z" />
    <glyph glyph-name="Zdotaccent" unicode="&#x17b;" horiz-adv-x="1271" 
d="M289 1155q-12 0 -21.5 9.5t-7.5 21.5l35 219q4 29 29 29h981q20 0 27 -18.5t-5 -35.5l-786 -1101h561q12 0 20 -9.5t6 -21.5l-34 -219q-4 -29 -29 -29h-1002q-25 0 -34 17.5t4 33.5l786 1104h-530zM813 1595q-47 0 -80 40t-23.5 86t43 74t79.5 28t79 -40t24 -88t-42 -74
t-80 -26z" />
    <glyph glyph-name="zdotaccent" unicode="&#x17c;" horiz-adv-x="876" 
d="M174 647q-12 0 -21.5 8.5t-7.5 20.5l25 160q4 31 31 30h635q16 0 24 -17.5t-2 -29.5l-416 -600h265q12 0 21 -9t7 -22l-26 -157q0 -12 -9.5 -21.5t-21.5 -9.5h-641q-14 0 -20.5 14.5t1.5 28.5l420 604h-264zM555 1028q-47 0 -80 40t-23.5 86t43 73.5t79.5 27.5t79 -39.5
t24 -88t-42 -74t-80 -25.5z" />
    <glyph glyph-name="Zcaron" unicode="&#x17d;" horiz-adv-x="1271" 
d="M289 1155q-12 0 -21.5 9.5t-7.5 21.5l35 219q4 29 29 29h981q20 0 27 -18.5t-5 -35.5l-786 -1101h561q12 0 20 -9.5t6 -21.5l-34 -219q-4 -29 -29 -29h-1002q-25 0 -34 17.5t4 33.5l786 1104h-530zM815 1573h-18q-23 0 -45 33l-140 168q-23 27 -20 51l8 47q6 37 47 4
l172 -152l232 158q20 12 30.5 3t8.5 -27l-9 -39q-6 -33 -22 -45l-203 -183q-18 -18 -41 -18z" />
    <glyph glyph-name="zcaron" unicode="&#x17e;" horiz-adv-x="876" 
d="M174 647q-12 0 -21.5 8.5t-7.5 20.5l25 160q4 31 31 30h635q16 0 24 -17.5t-2 -29.5l-416 -600h265q12 0 21 -9t7 -22l-26 -157q0 -12 -9.5 -21.5t-21.5 -9.5h-641q-14 0 -20.5 14.5t1.5 28.5l420 604h-264zM557 1006h-18q-23 0 -45 32l-140 168q-23 27 -20 51l8 48
q6 37 47 4l172 -152l232 158q20 12 30.5 3t7.5 -28l-8 -39q-6 -33 -22 -45l-203 -182q-18 -18 -41 -18z" />
    <glyph glyph-name="florin" unicode="&#x192;" horiz-adv-x="917" 
d="M750 856q12 0 20 -9t6 -22l-33 -217q-4 -29 -30 -28h-191l-104 -660q-16 -106 -86 -195.5t-160 -121.5q-31 -10 -49 8l-121 133q-18 23 2 43q100 82 111 147l102 646h-76q-12 0 -21 9t-7 21l37 224q2 23 24 22h86l27 160q70 434 458 434q143 0 254 -70q27 -14 7 -41
l-105 -127q-18 -20 -41 -12q-39 18 -88 19q-145 0 -184 -228l-23 -135h185z" />
    <glyph glyph-name="Scommaaccent" unicode="&#x218;" horiz-adv-x="1300" 
d="M522 -78h131q31 0 29 -31l-23 -137q-10 -66 -63 -120t-125 -76q-20 -6 -22 12t18 29q104 43 117 135l-86 35q-31 12 -27 36l14 86q6 31 37 31zM604 -16q-334 0 -510 206q-20 25 -2 43l164 140q20 16 43 0q37 -39 121 -77t183 -38t183 43t96 111t-42 107q-73 54 -228 93
q-266 80 -340 160q-36 39 -59 103.5t-10.5 142.5t52.5 149.5t107.5 137t180 105.5t252.5 40q309 0 493 -197q23 -29 -4 -51l-156 -131q-27 -20 -53 -2q-145 104 -301 105q-106 0 -178 -39t-80 -102.5t48.5 -103.5t170.5 -75q94 -25 146.5 -41t129 -54t114.5 -80t59.5 -111.5
t7.5 -157.5q-33 -172 -178.5 -299t-409.5 -127z" />
    <glyph glyph-name="scommaaccent" unicode="&#x219;" horiz-adv-x="864" 
d="M281 -78h131q30 0 28 -31l-22 -137q-10 -66 -63.5 -120t-125.5 -76q-20 -6 -22 12t18 29q104 43 117 135l-86 35q-31 12 -27 36l15 86q6 31 37 31zM360 -16q-225 0 -331 118q-20 23 -4 41l75 107q18 20 47 -3.5t93.5 -43t126.5 -19.5q119 0 122 78q2 31 -19 44
t-64.5 26.5t-60.5 18.5t-46 14.5t-45 17.5t-40 19.5t-36 22.5t-28 27q-21 21 -33.5 65.5t0.5 105.5q25 117 122 188.5t277.5 71.5t286.5 -95q20 -20 8 -38l-82 -113q-16 -16 -41 -4q-106 49 -170 49q-113 0 -125 -70q-6 -29 16.5 -46t68.5 -30.5t67.5 -20.5t54.5 -18.5
t50.5 -20.5t42 -22.5t35.5 -27.5t24.5 -33.5t17.5 -41t4 -49.5t-6 -58q-58 -260 -408 -260z" />
    <glyph glyph-name="uni021A" unicode="&#x21a;" horiz-adv-x="1271" 
d="M668 -102l-23 -138q-10 -66 -63.5 -120t-124.5 -76q-21 -6 -23 12t19 29q104 43 116 135l-86 35q-31 12 -26 37l14 86q6 31 37 30h131q33 1 29 -30zM1313 1434q12 0 21 -9.5t7 -21.5l-34 -217q-4 -31 -31 -31h-369l-178 -1126q-4 -29 -31 -29h-252q-12 0 -21 9t-7 22
l178 1124h-363q-12 0 -21 9.5t-7 21.5l35 219q4 29 30 29h1043z" />
    <glyph glyph-name="uni021B" unicode="&#x21b;" horiz-adv-x="806" 
d="M315 -78h131q33 0 29 -31l-22 -137q-10 -66 -63.5 -120t-125.5 -76q-20 -6 -22 12t18 29q104 43 117 135l-86 35q-31 12 -27 36l15 86q6 31 36 31zM403.5 -16q-161.5 0 -216 88t-37.5 229l53 336h-74q-12 0 -21.5 9t-7.5 20l29 172q4 29 31 28h82l32 217q4 29 31 29h236
q10 0 19 -9t7 -22l-32 -215h176q10 0 19 -9t7 -21l-24 -170q-4 -29 -31 -29h-184l-54 -328q-8 -55 4.5 -75.5t57.5 -20.5t106 31q23 6 33 -17l51 -143q10 -25 -16 -39q-115 -61 -276.5 -61z" />
    <glyph glyph-name="circumflex" unicode="&#x2c6;" horiz-adv-x="722" 
d="M532 1634h17q18 0 47 -32l156 -156q14 -16 10 -41l-10 -68q-6 -35 -39 -8l-189 144l-239 -152q-12 -8 -22 -1q-9 7 -7 19l12 70q6 27 27 43l194 164q23 18 43 18z" />
    <glyph glyph-name="caron" unicode="&#x2c7;" horiz-adv-x="716" 
d="M516 1315h-18q-23 0 -45 33l-140 168q-23 27 -20 51l8 47q6 37 47 4l172 -152l232 158q20 12 30 3t9 -28l-9 -38q-6 -33 -22 -45l-203 -183q-18 -18 -41 -18z" />
    <glyph glyph-name="breve" unicode="&#x2d8;" horiz-adv-x="827" 
d="M558 1323q-112 0 -180 62q-67 62 -89 151q-4 23 14 29l88 34q23 8 33 -14q51 -104 145 -104q121 0 191 110q12 18 31 6l83 -51q16 -10 9 -30q-41 -78 -127 -136t-198 -57z" />
    <glyph glyph-name="dotaccent" unicode="&#x2d9;" horiz-adv-x="454" 
d="M379 1337q-47 0 -80 40t-24 86t43 74t80 28t79 -40t24 -88t-42 -74t-80 -26z" />
    <glyph glyph-name="ring" unicode="&#x2da;" horiz-adv-x="641" 
d="M483 1442q35 0 56 22q20 23 24 56q4 34 -11 56t-48 21q-68 0 -82 -73q-6 -34 10 -58t51 -24zM469 1311q-86 0 -142 62q-56 61 -40 157q17 96 79 147t149 51t143 -62q56 -64 40 -158t-80 -146q-64 -51 -149 -51z" />
    <glyph glyph-name="ogonek" unicode="&#x2db;" horiz-adv-x="614" 
d="M182 -440q-86 0 -139 49t-40 134t75 149t133 102h125q-47 -39 -74 -67q-28 -28 -58 -77t-38 -106t49 -57t98 41q18 18 35 0l27 -31q14 -14 2 -35q-68 -102 -195 -102z" />
    <glyph glyph-name="tilde" unicode="&#x2dc;" horiz-adv-x="864" 
d="M714 1343q-64 0 -124 38q-59 38 -105 38q-80 0 -125 -51q-14 -16 -38 -4l-37 16q-27 12 -13 39q68 129 205 129q78 0 145 -38t93 -37q63 0 112 55q10 12 29 6l45 -21q25 -10 12 -38q-71 -132 -199 -132z" />
    <glyph glyph-name="hungarumlaut" unicode="&#x2dd;" horiz-adv-x="882" 
d="M655 1329l-41 23q-20 14 -4 39l183 233q14 18 43 2l94 -61q29 -25 4 -45l-242 -189q-14 -14 -37 -2zM313 1329l-39 23q-20 14 -4 39l183 233q16 18 41 2l94 -61q31 -23 6 -45l-242 -189q-16 -16 -39 -2z" />
    <glyph glyph-name="gravecomb" unicode="&#x300;" 
d="M-43 1272l-354 219q-20 14 -9 39l70 125q4 12 18.5 15t24.5 -7l313 -293q18 -20 5 -41l-27 -49q-12 -26 -41 -8z" />
    <glyph glyph-name="acutecomb" unicode="&#x301;" 
d="M-311 1272q-29 -18 -41 8l-27 49q-14 20 4 41l314 293q10 10 24 7t19 -15l69 -125q12 -25 -8 -39z" />
    <glyph glyph-name="uni0302" unicode="&#x302;" 
d="M-190 1632h16q18 0 47 -33l156 -155q14 -16 10 -41l-10 -68q-6 -35 -39 -8l-189 143l-239 -151q-12 -8 -21.5 -1t-7.5 19l12 70q6 27 27 43l195 164q23 18 43 18z" />
    <glyph glyph-name="tildecomb" unicode="&#x303;" 
d="M-150 1343q-64 0 -124 38t-105 38q-80 0 -125 -51q-14 -16 -39 -4l-37 16q-27 12 -12 39q68 129 205 129q78 0 144.5 -37.5t92.5 -37.5q63 0 113 55q10 12 29 6l45 -21q25 -10 12 -38q-71 -132 -199 -132z" />
    <glyph glyph-name="uni0304" unicode="&#x304;" 
d="M-395 1362q-12 0 -20.5 9t-6.5 22l16 100q4 31 33 31h400q12 0 21 -9.5t7 -23.5l-16 -98q-4 -31 -31 -31h-403z" />
    <glyph glyph-name="uni0306" unicode="&#x306;" 
d="M-270.5 1323q-112.5 0 -179 62.5t-89.5 150.5q-4 23 15 29l88 34q23 8 33 -14q51 -104 145 -104q121 0 190 110q12 18 31 6l84 -51q16 -10 8 -30q-41 -78 -127 -135.5t-198.5 -57.5z" />
    <glyph glyph-name="uni0307" unicode="&#x307;" 
d="M-76 1337q-47 0 -79.5 40t-23.5 86t43 74t80 28t78.5 -40t23.5 -88t-42 -74t-80 -26z" />
    <glyph glyph-name="uni0308" unicode="&#x308;" 
d="M-45 1362q-43 0 -70.5 32.5t-20.5 70.5t32.5 58.5t65.5 20.5t65.5 -33.5t17.5 -76.5q-14 -72 -90 -72zM-330 1362q-43 0 -70.5 32.5t-20.5 70.5t33 58.5t66 20.5t65.5 -33.5t16.5 -76.5q-14 -72 -90 -72z" />
    <glyph glyph-name="uni030A" unicode="&#x30a;" 
d="M-162 1434q35 0 55.5 22.5t24.5 55t-11.5 55t-47.5 22.5q-68 0 -82 -73q-6 -35 10 -58.5t51 -23.5zM-176 1303q-86 0 -142.5 62t-40 157.5t79 146.5t149.5 51t143.5 -63.5t40 -157.5t-80 -145t-149.5 -51z" />
    <glyph glyph-name="uni030B" unicode="&#x30b;" 
d="M-227 1329l-41 23q-20 14 -4 39l182 233q14 18 43 2l94 -61q29 -25 4 -45l-241 -189q-14 -14 -37 -2zM-569 1329l-39 23q-20 14 -4 39l182 233q16 18 41 2l94 -61q31 -23 6 -45l-241 -189q-16 -16 -39 -2z" />
    <glyph glyph-name="uni030C" unicode="&#x30c;" 
d="M-201 1315h-18q-23 0 -45 33l-139 168q-23 27 -21 51l8 47q6 37 47 4l172 -152l232 158q20 12 30.5 3t8.5 -28l-8 -38q-6 -33 -23 -45l-203 -183q-18 -18 -41 -18z" />
    <glyph glyph-name="uni0312" unicode="&#x312;" 
d="M-166 1337l23 138q10 66 63 120t125 76q21 6 23 -12t-19 -29q-104 -43 -117 -135l86 -35q31 -12 27 -37l-14 -86q-6 -31 -37 -30h-131q-31 -1 -29 30z" />
    <glyph glyph-name="uni0326" unicode="&#x326;" 
d="M-358 -80h131q30 0 28 -31l-22 -137q-10 -66 -63.5 -120t-125.5 -76q-20 -6 -22 12t18 29q104 43 117 135l-86 35q-31 12 -27 36l15 86q6 31 37 31z" />
    <glyph glyph-name="uni0327" unicode="&#x327;" 
d="M-419 -418q-79 0 -121 30t-52 58q-8 14 4 21l47 41q16 12 36 -10.5t54 -22.5q82 0 91 80q6 41 -20 48t-44 -11t-39 -13h-6l-70 25q-20 6 -10 25l100 163h146l-70 -102q84 2 124 -47t27 -124t-65.5 -118t-131.5 -43z" />
    <glyph glyph-name="uni0328" unicode="&#x328;" 
d="M-432 -440q-86 0 -139.5 49t-40 134t75 149.5t133.5 101.5h124q-47 -39 -73.5 -66.5t-57 -77t-39 -106.5t49 -57t98.5 41q18 18 35 0l26 -31q14 -14 2 -35q-68 -102 -194 -102z" />
    <glyph glyph-name="uni0335" unicode="&#x335;" 
d="M-717 311q-33 0 -28 33l26 170q2 31 31 31h561q33 0 27 -31l-27 -172q-6 -31 -31 -31h-559z" />
    <glyph glyph-name="uni0336" unicode="&#x336;" 
d="M-1343 311q-35 0 -29 33l26 170q6 31 31 31h1188q33 0 27 -31l-27 -172q-6 -31 -31 -31h-1185z" />
    <glyph glyph-name="uni0337" unicode="&#x337;" 
d="M-489 0h-160q-14 0 -22 9q-7 9 -3 22l451 1077q12 31 33 31h159q11 1 19 -9t4 -22l-449 -1077q-12 -31 -32 -31z" />
    <glyph glyph-name="uni0338" unicode="&#x338;" 
d="M-565 0h-160q-14 0 -21 9t-2 22l572 1372q12 31 33 31h159q14 0 22 -10t3 -21l-573 -1372q-13 -31 -33 -31z" />
    <glyph glyph-name="uni0394" unicode="&#x394;" horiz-adv-x="1568" 
d="M895 1071l-412 -795h566zM1370 0h-1304q-12 0 -22 10q-9 10 -3 23l723 1372q14 29 33 29h284q20 0 27 -29l291 -1372q2 -13 -7 -23t-22 -10z" />
    <glyph glyph-name="Pi" unicode="&#x3a0;" horiz-adv-x="1316" 
d="M1294 1434q12 0 22 -10t7 -21l-217 -1372q-4 -31 -31 -31h-235q-12 0 -22 9q-9 9 -7 22l180 1143h-432l-182 -1143q-4 -31 -29 -31h-237q-10 0 -20 9q-9 9 -7 22l217 1372q4 31 33 31h960z" />
    <glyph glyph-name="uni03A9" unicode="&#x3a9;" horiz-adv-x="1581" 
d="M1419 276q11 0 21 -9t8 -21l-35 -215q-4 -31 -31 -31h-565q-33 0 -20 37q4 31 64 109t132 168t141 228t89 271q53 356 -299 356q-180 0 -300 -98t-153 -295q-21 -125 1 -255t60 -215t77 -163q38 -78 40 -102q10 -41 -22 -41h-557q-12 0 -22 9q-9 9 -7 22l35 215
q4 31 30 30h166q-20 53 -46 121t-38 118q-12 49 -22 107t-6 94t6 97q37 279 256 458t525 179t472 -194t111 -480q-23 -122 -86 -236t-170 -264h145z" />
    <glyph glyph-name="uni03BC" unicode="&#x3bc;" horiz-adv-x="1124" 
d="M969 0h-224q-29 0 -43 31l-36 61q-115 -109 -250 -108q-45 0 -70 20l-72 -414q-4 -31 -28 -30h-238q-12 0 -21 9t-7 21l196 1248q4 29 31 28h235q12 0 22 -9t7 -21l-76 -474q-23 -160 115 -159q78 0 130 46t62 116l74 473q4 29 31 28h235q12 0 22 -9t7 -21l-102 -654
q-18 -109 12 -151q8 -7 5 -19t-17 -12z" />
    <glyph glyph-name="pi" unicode="&#x3c0;" horiz-adv-x="1443" 
d="M1374 866q12 0 22 -9t7 -21l-31 -197q-4 -31 -33 -31h-139l-59 -385q-9 -67 -2 -95q6 -28 11 -50t21 -47q12 -31 -18 -31h-217q-23 0 -39 31q-61 100 -45 213l55 364h-260l-90 -577q-4 -31 -31 -31h-235q-12 0 -22 9q-9 9 -7 22l98 575q-96 0 -200 -74q-14 -10 -31 -2
q-16 8 -12 25l33 217q8 31 32 45q88 40 130 45q43 4 81 4h981z" />
    <glyph glyph-name="Wgrave" unicode="&#x1e80;" horiz-adv-x="2017" 
d="M2075 1434q16 0 24 -11.5t2 -27.5l-639 -1366q-16 -29 -37 -29h-122q-23 0 -33 29l-185 835l-432 -837q-12 -27 -35 -27h-126q-23 0 -29 29l-240 1366q-6 39 25 39h235q25 0 31 -29l135 -827l420 833q12 23 31 23h110q18 0 27 -31l190 -825l388 833q12 23 28 23h232z
M1389 1577l-383 111q-31 8 -21 41l37 116q10 33 47 15l358 -177q20 -14 15 -32l-12 -58q-6 -26 -41 -16z" />
    <glyph glyph-name="wgrave" unicode="&#x1e81;" horiz-adv-x="1427" 
d="M1403 866q14 0 21.5 -10t0.5 -22l-419 -805q-14 -29 -31 -29h-150q-25 0 -28 29l-78 454l-217 -454q-14 -29 -33 -29h-147q-25 0 -29 29l-160 807q-8 31 25 30h225q27 0 31 -28l55 -420l205 420q14 29 31 28h122q25 0 29 -28l78 -420l186 420q10 29 31 28h252zM965 963
l-355 219q-20 14 -8 39l70 125q4 12 18.5 15t24.5 -7l313 -293q20 -20 4 -41l-26 -49q-12 -26 -41 -8z" />
    <glyph glyph-name="Wacute" unicode="&#x1e82;" horiz-adv-x="2017" 
d="M2075 1434q16 0 24 -11.5t2 -27.5l-639 -1366q-16 -29 -37 -29h-122q-23 0 -33 29l-185 835l-432 -837q-12 -27 -35 -27h-126q-23 0 -29 29l-240 1366q-6 39 25 39h235q25 0 31 -29l135 -827l420 833q12 23 31 23h110q18 0 27 -31l190 -825l388 833q12 23 28 23h232z
M1014 1575q-35 -10 -41 16l-12 58q-6 18 14 32l358 177q37 18 47 -15l37 -117q10 -33 -20 -40z" />
    <glyph glyph-name="wacute" unicode="&#x1e83;" horiz-adv-x="1427" 
d="M1403 866q14 0 21.5 -10t0.5 -22l-419 -805q-14 -29 -31 -29h-150q-25 0 -28 29l-78 454l-217 -454q-14 -29 -33 -29h-147q-25 0 -29 29l-160 807q-8 31 25 30h225q27 0 31 -28l55 -420l205 420q14 29 31 28h122q25 0 29 -28l78 -420l186 420q10 29 31 28h252zM688 963
q-29 -18 -41 8l-26 49q-14 20 4 41l313 293q10 10 24.5 7t18.5 -15l70 -125q12 -25 -9 -39z" />
    <glyph glyph-name="Wdieresis" unicode="&#x1e84;" horiz-adv-x="2017" 
d="M2075 1434q16 0 24 -11.5t2 -27.5l-639 -1366q-16 -29 -37 -29h-122q-23 0 -33 29l-185 835l-432 -837q-12 -27 -35 -27h-126q-23 0 -29 29l-240 1366q-6 39 25 39h235q25 0 31 -29l135 -827l420 833q12 23 31 23h110q18 0 27 -31l190 -825l388 833q12 23 28 23h232z
M1348 1620q-43 0 -71 33t-21 71t33 58t66 20t65.5 -33.5t17.5 -76.5q-14 -72 -90 -72zM1063 1620q-43 0 -70.5 33t-20.5 71t32.5 58t65.5 20t65.5 -33.5t17.5 -76.5q-14 -72 -90 -72z" />
    <glyph glyph-name="wdieresis" unicode="&#x1e85;" horiz-adv-x="1427" 
d="M1403 866q14 0 21.5 -10t0.5 -22l-419 -805q-14 -29 -31 -29h-150q-25 0 -28 29l-78 454l-217 -454q-14 -29 -33 -29h-147q-25 0 -29 29l-160 807q-8 31 25 30h225q27 0 31 -28l55 -420l205 420q14 29 31 28h122q25 0 29 -28l78 -420l186 420q10 29 31 28h252zM961 1053
q-43 0 -71 32.5t-21 70.5t33 58.5t66 20.5t65.5 -34t17.5 -77q-14 -71 -90 -71zM676 1053q-43 0 -70.5 32.5t-20.5 70.5t32.5 58.5t65.5 20.5t65.5 -34t17.5 -77q-14 -71 -90 -71z" />
    <glyph glyph-name="Ygrave" unicode="&#x1ef2;" horiz-adv-x="1339" 
d="M1389 1434q20 0 30.5 -16.5t-2.5 -37.5l-571 -772l-94 -579q-4 -29 -29 -29h-254q-12 0 -21.5 8t-7.5 23l95 577l-308 791q-12 35 23 35h248q33 0 49 -37l184 -484l359 494q16 27 49 27h250zM1044 1577l-382 111q-31 8 -21 41l37 116q10 33 47 15l358 -177q20 -14 15 -32
l-13 -58q-6 -26 -41 -16z" />
    <glyph glyph-name="ygrave" unicode="&#x1ef3;" horiz-adv-x="1132" 
d="M1122 866q14 0 20.5 -11t-1.5 -26l-787 -1183q-18 -29 -37 -29h-243q-14 0 -20.5 13.5t1.5 25.5l312 455l-246 723q-12 33 24 32h220q20 0 28 -30l154 -449l297 451q18 29 35 28h243zM815 963l-354 219q-20 14 -8 39l69 125q4 12 18.5 15t24.5 -7l314 -293q20 -20 4 -41
l-27 -49q-12 -26 -41 -8z" />
    <glyph glyph-name="endash" unicode="&#x2013;" horiz-adv-x="1161" 
d="M131 346q-12 0 -20 9t-7 22l23 145q4 31 31 31h878q10 0 20 -9t7 -22l-25 -147q-4 -29 -28 -29h-879z" />
    <glyph glyph-name="emdash" unicode="&#x2014;" horiz-adv-x="1722" 
d="M131 346q-12 0 -20 9t-7 22l23 145q4 31 31 31h1439q9 0 19 -9t8 -22l-22 -147q-4 -29 -31 -29h-1440z" />
    <glyph glyph-name="quoteleft" unicode="&#x2018;" horiz-adv-x="489" 
d="M426 911h-215q-35 0 -29 31l35 209q16 109 102 199t211 151q20 12 28 -10t-9 -33q-188 -109 -213 -274l127 -47q31 -10 26 -33l-26 -162q-4 -31 -37 -31z" />
    <glyph glyph-name="quoteright" unicode="&#x2019;" horiz-adv-x="489" 
d="M297 1434h215q35 0 29 -31l-35 -209q-16 -109 -102 -199t-211 -151q-21 -12 -29 10t10 33q188 109 213 274l-127 47q-31 10 -27 33l27 162q2 31 37 31z" />
    <glyph glyph-name="quotesinglbase" unicode="&#x201a;" horiz-adv-x="489" 
d="M109 238h215q34 0 28 -30t-12 -67t-12 -80t-11 -63q-16 -109 -102 -199t-211 -151q-20 -12 -28 10t10 33q188 109 213 274l-127 47q-31 10 -27 33l27 162q2 31 37 31z" />
    <glyph glyph-name="quotedblleft" unicode="&#x201c;" horiz-adv-x="993" 
d="M930 911h-215q-35 0 -29 31l35 209q16 109 102 199t211 151q20 12 28 -10t-9 -33q-188 -109 -213 -274l127 -47q31 -10 26 -33l-26 -162q-4 -31 -37 -31zM426 911h-215q-35 0 -29 31l35 209q16 109 102 199t211 151q20 12 28 -10t-9 -33q-188 -109 -213 -274l127 -47
q31 -10 26 -33l-26 -162q-4 -31 -37 -31z" />
    <glyph glyph-name="quotedblright" unicode="&#x201d;" horiz-adv-x="991" 
d="M801 1434h215q34 0 28 -30t-12 -67t-12 -80t-10 -63q-16 -109 -102 -199t-212 -151q-20 -12 -28 10t10 33q188 109 213 274l-127 47q-31 10 -27 33l27 162q2 31 37 31zM297 1434h215q35 0 29 -31l-35 -209q-16 -109 -102 -199t-211 -151q-21 -12 -29 10t10 33
q188 109 213 274l-127 47q-31 10 -27 33l27 162q2 31 37 31z" />
    <glyph glyph-name="quotedblbase" unicode="&#x201e;" horiz-adv-x="993" 
d="M612 238h215q35 0 29 -30t-12 -67t-12 -80t-11 -63q-16 -109 -102 -199t-211 -151q-20 -12 -28 10t9 33q188 109 213 274l-127 47q-31 10 -26 33l26 162q2 31 37 31zM109 238h215q34 0 28 -30t-12 -67t-12 -80t-11 -63q-16 -109 -102 -199t-211 -151q-20 -12 -28 10
t10 33q188 109 213 274l-127 47q-31 10 -27 33l27 162q2 31 37 31z" />
    <glyph glyph-name="dagger" unicode="&#x2020;" horiz-adv-x="1001" 
d="M961 1085q33 0 26 -30l-22 -146q-6 -31 -37 -30h-242l-133 -848q-4 -31 -33 -31h-172q-12 0 -20 9t-6 22l135 848h-240q-35 0 -29 30l23 148q6 29 39 28h239l50 318q4 31 34 31h170q13 0 21 -10t6 -21l-51 -318h242z" />
    <glyph glyph-name="daggerdbl" unicode="&#x2021;" horiz-adv-x="1001" 
d="M928 879h-242l-51 -324h239q35 0 29 -31l-22 -147q-6 -29 -37 -29h-242l-49 -317q-4 -31 -33 -31h-172q-12 0 -20 9t-6 22l49 317h-238q-35 0 -29 31l23 145q6 31 37 31h239l54 324h-240q-35 0 -29 30l23 148q6 29 39 28h239l50 318q4 31 34 31h170q13 0 21 -10t6 -21
l-51 -318h242q33 0 26 -30l-22 -146q-6 -30 -37 -30z" />
    <glyph glyph-name="bullet" unicode="&#x2022;" horiz-adv-x="743" 
d="M388 416q-108 0 -174 83t-50 191t95 176t187 68t178 -84q71 -84 50 -203q-14 -96 -95 -164q-83 -67 -191 -67z" />
    <glyph glyph-name="ellipsis" unicode="&#x2026;" horiz-adv-x="1632" 
d="M1182 0q-35 0 -29 31l37 221q6 33 37 33h217q35 0 29 -33l-35 -221q-6 -31 -37 -31h-219zM639 0q-35 0 -29 31l37 221q6 33 37 33h217q35 0 29 -33l-35 -221q-6 -31 -37 -31h-219zM94 0q-35 0 -28 31l36 221q6 33 37 33h217q35 0 29 -33l-35 -221q-6 -31 -37 -31h-219z
" />
    <glyph glyph-name="perthousand" unicode="&#x2030;" horiz-adv-x="2828" 
d="M2356 201q71 -1 112 69t63 199q23 98 9 166t-84 67q-139 0 -187 -268q-20 -115 -2 -174t89 -59zM1572 201q72 -1 112 69t63 199q23 98 8 166q-14 68 -84 67q-139 0 -186 -268q-20 -115 -2 -174t89 -59zM2337 -16q-176 0 -247 114t-31 363q40 250 136 354q95 105 271 105
t247 -115t31 -364t-135 -353q-96 -104 -272 -104zM1552 -16q-176 0 -246 114t-31 363q40 250 136 354q96 105 271 105t246 -115t32 -364q-40 -249 -136 -353t-272 -104zM472 733q71 0 112 70t63 198q23 98 8 166q-14 68 -84 68q-139 0 -186 -268q-20 -115 -2 -175t89 -59z
M584 0q-14 0 -22 10q-7 10 1 23l793 1378q10 15 15 19t24 4h153q12 0 18 -10t1 -23l-787 -1370q-16 -31 -47 -31h-149zM582 1452q176 0 246 -115t32 -363q-39 -248 -135 -354q-96 -104 -272 -104t-247 114t-31 364t136 354q95 104 271 104z" />
    <glyph glyph-name="guilsinglleft" unicode="&#x2039;" horiz-adv-x="729" 
d="M545 -16h-135q-23 0 -41 28l-230 357q-29 43 -26 55l2 16q2 16 30 45l359 373q20 25 51 25h127q14 1 19 -9t-3 -24l-338 -416l203 -418q8 -14 2 -23t-20 -9z" />
    <glyph glyph-name="guilsinglright" unicode="&#x203a;" horiz-adv-x="729" 
d="M319 883q23 0 41 -29l230 -356q29 -43 26 -56l-2 -16q-2 -16 -30 -45l-359 -373q-20 -25 -51 -24h-127q-14 0 -19 9t3 23l338 416l-203 418q-8 14 -2 23t20 10h135z" />
    <glyph glyph-name="fraction" unicode="&#x2044;" horiz-adv-x="421" 
d="M-225 0q-14 0 -22 10q-7 10 1 23l793 1378q10 15 16 19t23 4h153q13 0 19 -10t0 -23l-787 -1370q-16 -31 -47 -31h-149z" />
    <glyph glyph-name="uni2070" unicode="&#x2070;" horiz-adv-x="858" 
d="M492 887q76 -1 116 69t64 199q23 98 8 166q-14 68 -84 68q-139 0 -186 -269q-25 -161 14 -207q23 -26 68 -26zM477 670q-176 0 -247 114q-70 114 -30 363q40 250 136 354q96 105 271 105t246 -115t32 -364t-135 -353t-273 -104z" />
    <glyph glyph-name="uni2074" unicode="&#x2074;" horiz-adv-x="878" 
d="M401 1044h181l45 287zM862 1044q29 0 25 -24l-23 -141q-4 -25 -26 -25h-76l-23 -154q-4 -25 -26 -24h-162q-29 0 -25 26l25 152h-371q-29 0 -24 27l16 106q2 16 18 37l422 535q18 18 37 18h201q29 0 24 -25l-81 -508h69z" />
    <glyph glyph-name="uni2075" unicode="&#x2075;" horiz-adv-x="831" 
d="M480 670q-164 0 -238 87t-54 177q6 25 25 24h162q23 0 19 -28t19 -48q21 -20 71 -20t93 40q42 40 46 95q6 55 -24 81t-76 17t-85 -44q-10 -10 -39 -4l-163 36q-27 6 -21 29l145 451q10 25 27 24h453q27 0 22 -24l-20 -144q-4 -25 -25 -24h-317l-49 -135q171 57 291 -29
t89 -270q-20 -121 -104 -206t-247 -85z" />
    <glyph glyph-name="uni2076" unicode="&#x2076;" horiz-adv-x="811" 
d="M525 1098q-41 0 -73 -35t-37 -83t17 -77t64 -29t72 33t37 84t-15 79q-23 28 -65 28zM573 1286q123 0 192 -92t47 -227t-116 -217t-231 -82q-90 0 -153 41q-62 41 -89 107q-61 151 -24 329q33 201 138 329t273 128q126 0 182 -71t54 -155q0 -24 -5 -30t-20 -7h-145
q-18 0 -23 27q-8 55 -63 55q-102 0 -148 -180q59 45 131 45z" />
    <glyph glyph-name="uni2077" unicode="&#x2077;" horiz-adv-x="800" 
d="M260 1389q-27 0 -22 24l22 141q4 25 25 25h594q12 0 18 -9t0 -22l-481 -850q-12 -20 -31 -20h-190q-31 0 -17 29l389 682h-307z" />
    <glyph glyph-name="uni2078" unicode="&#x2078;" horiz-adv-x="817" 
d="M516 1065q-137 -45 -143 -125q-4 -76 107 -78q54 0 89 27t37 63q6 72 -90 113zM558 1411q-42 1 -70 -23t-31 -61q-11 -69 69 -94q115 33 117 108q5 34 -19 52t-66 18zM586 1604q146 0 214 -81t46 -200q-21 -119 -107 -203q90 -63 68 -207q-15 -106 -105 -175
q-90 -68 -246 -68t-234 79q-77 79 -55 199t132 199q-67 81 -47 199t104 188t230 70z" />
    <glyph glyph-name="uni2079" unicode="&#x2079;" horiz-adv-x="813" 
d="M521 1182q42 0 75 28t40 80q7 53 -15 85q-23 32 -68 32t-79 -29t-39 -79q-5 -49 19 -83t67 -34zM442 670q-143 0 -202 70t-58 153q0 35 25 35h145q14 0 25 -25q16 -45 70 -45t90 41q35 41 65 129q-43 -43 -121 -43q-143 0 -212 94q-69 93 -44 235t124 216t229 74
q342 0 258 -492q-78 -442 -394 -442z" />
    <glyph glyph-name="Euro" unicode="&#x20ac;" horiz-adv-x="1253" 
d="M174 791q-29 0 -24 30l16 109q4 29 35 28l75 3q160 489 656 489q193 0 350 -111q25 -16 4 -43l-151 -176q-20 -25 -45 -8q-94 61 -201 62q-217 0 -303 -216h248q12 0 20 -8t6 -20l-16 -111q-4 -29 -37 -28h-272q-3 -8 -7 -35t-10 -60t-6 -53h272q29 0 25 -31l-16 -108
q-4 -29 -35 -29l-258 -2q8 -109 60 -162t175 -53t252 94q27 20 41 -6l105 -194q12 -25 -17 -43q-72 -53 -184 -89t-232 -36q-229 0 -357 126t-144 365h-74q-12 0 -21 8q-8 8 -6 21l17 110q4 29 37 29h55q10 50 10 76q8 39 12 72h-55z" />
    <glyph glyph-name="uni2117" unicode="&#x2117;" horiz-adv-x="1667" 
d="M956 729q82 -1 82 107t-86 108h-145v-215h149zM1233 833q0 -125 -77 -195t-173 -71h-176v-215q0 -18 -19 -18h-157q-18 0 -19 18v733q0 20 21 21h366q102 0 168 -74t66 -199zM879 152q235 0 389 164t153 399q1 235 -153 401t-390 166t-389 -166t-153 -402t153 -399
q154 -163 390 -163zM879 -16q-303 0 -519 214q-215 214 -215 518t215 519q214 215 518 215t518 -215t214 -519t-214 -518t-517 -214z" />
    <glyph glyph-name="trademark" unicode="&#x2122;" horiz-adv-x="1325" 
d="M1368 1434q12 0 10 -13l-82 -526q-2 -12 -14 -12h-139q-16 0 -13 12l37 231l-153 -231q-10 -12 -21 -12h-16q-10 0 -14 12l-86 233l-37 -233q-4 -12 -17 -12h-137q-14 0 -10 12l82 526q4 12 12 13h148q12 0 16 -13l90 -276l174 276q10 12 19 13h151zM684 1434q12 0 8 -13
l-18 -116q0 -10 -12 -11h-123l-62 -399q-2 -12 -14 -12h-139q-16 0 -13 12l64 399h-125q-10 0 -10 13l18 114q4 12 14 13h412z" />
    <glyph glyph-name="uni2153" unicode="&#x2153;" horiz-adv-x="2025" 
d="M1662 918q154 0 228 -71t50 -212t-134 -184q37 -15 70 -69q32 -54 16 -153t-98 -173t-249 -72q-167 0 -237 87t-55 179q4 25 25 24h149q20 0 27 -24q23 -74 100 -74q121 0 140 86q10 43 -15 72t-110 28h-33q-29 0 -25 25l21 129q4 25 24 25h25q135 0 154 106q5 33 -15 55
t-67 23q-94 0 -129 -76q-10 -23 -27 -22h-162q-23 0 -22 26q6 89 101 177q94 88 248 88zM561 0q-14 0 -21 10t1 23l792 1378q11 15 17 19t22 4h154q12 0 18 -10t0 -23l-786 -1370q-16 -31 -47 -31h-150zM676 723q27 0 22 -25l-20 -141q-4 -25 -27 -25h-526q-27 0 -23 25
l21 141q4 25 27 25h159l76 485l-139 -47q-12 -4 -21 2q-8 6 -6 17l21 139q2 16 30 33l150 75q12 6 31 7h155q27 0 23 -27l-107 -684h154z" />
    <glyph glyph-name="uni2154" unicode="&#x2154;" horiz-adv-x="2127" 
d="M1764 918q154 0 227 -71q74 -71 50 -212t-134 -184q37 -15 69 -69t17 -153q-17 -99 -99 -173t-248 -72q-166 0 -238 87q-71 87 -54 179q2 25 24 24h150q20 0 26 -24q23 -74 101 -74q121 0 139 86q10 43 -14 72q-25 29 -111 28h-33q-29 0 -24 25l20 129q2 25 25 25h24
q135 0 154 106q6 33 -14 55t-68 23q-94 0 -129 -76q-10 -23 -27 -22h-161q-23 0 -23 26q5 89 101 177t250 88zM662 0q-14 0 -22 10q-7 10 1 23l793 1378q10 15 15 19t24 4h153q12 0 18 -10t1 -23l-787 -1370q-16 -31 -47 -31h-149zM584 1450q158 0 226 -73t50 -199
q-20 -126 -155 -246l-234 -207h295q27 0 22 -25l-22 -143q-4 -25 -25 -25h-585q-27 0 -23 25l19 127q2 20 20 35l285 250q242 212 169 274q-19 16 -63 17q-104 0 -135 -80q-10 -25 -27 -25h-153q-27 0 -23 31q0 73 75 162q38 46 112 74t172 28z" />
    <glyph glyph-name="oneeighth" unicode="&#x215b;" horiz-adv-x="2033" 
d="M1626 379q-137 -45 -143 -125q-4 -76 107 -78q54 0 89 27t37 63q6 72 -90 113zM1668 725q-42 0 -70 -24t-31 -60q-11 -69 69 -94q115 33 117 108q5 34 -19 52t-66 18zM1696 918q146 0 214 -81t46 -200q-21 -119 -107 -203q90 -63 68 -207q-15 -106 -105 -175
q-90 -68 -246 -68t-234 78q-77 78 -56 200q23 121 133 199q-67 81 -47 199t104 188t230 70zM578 0q-14 0 -22 10q-7 10 1 23l793 1378q10 15 16 19t23 4h153q12 0 18 -10t1 -23l-787 -1370q-16 -31 -47 -31h-149zM676 723q27 0 22 -25l-20 -141q-4 -25 -27 -25h-526
q-27 0 -23 25l21 141q4 25 27 25h159l76 485l-139 -47q-12 -4 -21 2q-8 6 -6 17l21 139q2 16 30 33l150 75q12 6 31 7h155q27 0 23 -27l-107 -684h154z" />
    <glyph glyph-name="threeeighths" unicode="&#x215c;" horiz-adv-x="2072" 
d="M1663 379q-137 -45 -143 -125q-4 -76 107 -78q54 0 89 27t37 63q6 72 -90 113zM1705 725q-42 0 -70 -24t-31 -60q-11 -69 69 -94q115 33 117 108q5 34 -19 52t-66 18zM1732 918q146 0 214 -81t47 -200t-107 -203q90 -63 68 -207q-16 -106 -106 -175q-90 -68 -246 -68
t-233 78t-56 200q23 121 133 199q-66 81 -46 199t103 188t229 70zM612 0q-14 0 -21 10t1 23l792 1378q10 15 16 19t23 4h154q12 0 18 -10t0 -23l-786 -1370q-16 -31 -47 -31h-150zM576 1450q154 0 227 -71q74 -71 50 -212t-134 -184q37 -15 69 -69t17 -153q-16 -99 -98 -172
t-249 -73t-238 87t-54 179q2 25 24 25h150q20 0 27 -25q23 -74 100 -73q121 0 139 86q10 43 -14 71t-111 29h-32q-29 0 -25 25l20 129q2 25 25 24h25q135 0 153 107q6 34 -14 56t-68 21q-94 0 -129 -75q-10 -23 -26 -23h-162q-23 0 -23 27q5 90 101 177t250 87z" />
    <glyph glyph-name="fiveeighths" unicode="&#x215d;" horiz-adv-x="2066" 
d="M1657 379q-137 -45 -144 -125q-4 -76 108 -78q54 0 89 27t37 63q6 72 -90 113zM1699 725q-42 0 -70 -24t-32 -60q-10 -69 70 -94q115 33 117 108q5 34 -19 52t-66 18zM1726 918q146 0 214 -81t46 -200q-20 -119 -106 -203q90 -63 68 -207q-16 -106 -106 -175
q-90 -68 -246 -68t-233 78t-56 200q23 121 133 199q-66 81 -46 199t103 188t229 70zM606 0q-14 0 -21 10t1 23l792 1378q10 15 16 19t23 4h154q12 0 18 -10t0 -23l-786 -1370q-16 -31 -47 -31h-150zM456 516q-162 0 -238 87q-75 87 -54 177q6 25 24 25h162q23 0 20 -29
q-4 -29 18 -48t72 -19t92 40t46 95q6 55 -24 81q-30 27 -76 17t-84 -45q-10 -10 -39 -4l-164 37q-27 6 -21 28l146 451q10 25 26 25h453q27 0 23 -25l-21 -143q-4 -25 -24 -25h-318l-49 -135q170 57 291 -29t90 -270q-21 -121 -105 -206t-246 -85z" />
    <glyph glyph-name="seveneighths" unicode="&#x215e;" horiz-adv-x="1851" 
d="M1444 379q-137 -45 -144 -125q-4 -76 108 -78q54 0 89 27t37 63q6 72 -90 113zM1486 725q-42 0 -70 -24t-32 -60q-10 -69 70 -94q115 33 117 108q5 34 -19 52t-66 18zM1514 918q146 0 212 -81q68 -81 48 -200t-107 -203q90 -63 68 -207q-15 -106 -105 -175
q-90 -68 -246 -68t-234 78q-77 78 -56 200q23 121 133 199q-67 81 -47 199t104 188t230 70zM387 0q-14 0 -21 10t1 23l792 1378q9 15 15 19t24 4h154q12 0 18 -10t0 -23l-786 -1370q-16 -31 -47 -31h-150zM238 1243q-27 0 -23 25l23 141q4 25 24 25h594q12 0 18 -10t0 -21
l-481 -850q-12 -20 -31 -21h-190q-31 0 -16 29l389 682h-307z" />
    <glyph glyph-name="arrowleft" unicode="&#x2190;" horiz-adv-x="1638" 
d="M127 652q0 15 8 24l561 522q25 23 45 2l105 -104q23 -23 -2 -45l-230 -250h918q29 0 29 -31v-233q0 -31 -29 -31h-920l232 -250q25 -23 2 -45l-105 -105q-20 -20 -45 3l-561 522q-8 6 -8 21z" />
    <glyph glyph-name="arrowup" unicode="&#x2191;" horiz-adv-x="1298" 
d="M862 29q0 -29 -31 -29h-233q-31 0 -31 29v917l-250 -229q-23 -25 -45 -2l-104 104q-20 20 2 45l522 561q8 9 24 9t21 -9l523 -561q23 -25 2 -45l-105 -104q-23 -23 -45 2l-250 231v-919z" />
    <glyph glyph-name="arrowright" unicode="&#x2192;" horiz-adv-x="1638" 
d="M176 506q-29 0 -29 31v233q0 31 29 31h918l-230 250q-25 23 -2 45l105 104q20 20 45 -2l561 -522q8 -8 8 -24t-8 -21l-561 -522q-25 -23 -45 -3l-105 105q-23 23 2 45l232 250h-920z" />
    <glyph glyph-name="arrowdown" unicode="&#x2193;" horiz-adv-x="1298" 
d="M526 1405q0 29 31 29h234q31 0 30 -29v-918l250 230q23 25 45 2l105 -105q20 -20 -2 -45l-523 -561q-8 -8 -23 -8t-22 8l-522 561q-23 25 -2 45l104 105q23 23 45 -2l250 -232v920z" />
    <glyph glyph-name="arrowboth" unicode="&#x2194;" horiz-adv-x="2095" 
d="M2038 658q0 -16 -8 -21l-562 -522q-23 -25 -45 -2l-104 104q-20 20 2 45l231 250h-938l232 -250q23 -25 2 -45l-105 -104q-23 -23 -45 2l-561 522q-8 6 -8 21t8 24l561 522q23 25 45 2l105 -104q20 -20 -2 -45l-230 -250h934l-229 250q-23 25 -2 45l104 104q23 23 45 -2
l562 -522q8 -8 8 -24z" />
    <glyph glyph-name="arrowupdn" unicode="&#x2195;" horiz-adv-x="1415" 
d="M754 1671q16 0 22 -8l522 -561q25 -25 2 -45l-104 -105q-20 -23 -45 2l-250 232v-938l250 231q25 25 45 2l104 -104q23 -20 -2 -45l-522 -561q-6 -9 -21 -9t-24 9l-522 561q-25 25 -2 45l104 104q20 23 45 -2l250 -229v934l-250 -230q-25 -25 -45 -2l-104 105
q-23 20 2 45l522 561q7 8 23 8z" />
    <glyph glyph-name="uni2196" unicode="&#x2196;" horiz-adv-x="1443" 
d="M1028 1069v-147q0 -31 -33 -31l-338 -14l648 -650q20 -20 0 -41l-166 -166q-20 -20 -43 -2l-650 652l-12 -340q0 -35 -31 -35h-147q-31 0 -31 35l-28 766q0 10 10 20t22 10l766 -26q33 0 33 -31z" />
    <glyph glyph-name="uni2197" unicode="&#x2197;" horiz-adv-x="1255" 
d="M1116 295h-147q-31 0 -31 35l-12 340l-650 -652q-23 -18 -43 2l-165 166q-20 20 0 41l647 650l-338 14q-33 0 -33 31v147q0 31 33 31l766 26q12 0 22 -10t11 -20l-29 -766q0 -35 -31 -35z" />
    <glyph glyph-name="uni2198" unicode="&#x2198;" horiz-adv-x="1443" 
d="M469 150v147q0 31 35 31l340 12l-651 649q-18 23 2 43l165 166q20 20 41 0l650 -647l14 338q0 33 31 33h147q31 0 31 -33l26 -766q0 -13 -10 -23t-20 -10l-766 29q-35 0 -35 31z" />
    <glyph glyph-name="uni2199" unicode="&#x2199;" horiz-adv-x="1255" 
d="M197 922h147q31 0 31 -33l14 -338l649 647q20 20 41 0l166 -166q20 -20 2 -43l-651 -649l340 -12q35 0 35 -31v-147q0 -31 -35 -31l-766 -29q-10 0 -20 10t-11 23l27 766q0 33 31 33z" />
    <glyph glyph-name="partialdiff" unicode="&#x2202;" horiz-adv-x="1099" 
d="M503 203q79 0 144.5 65.5t82.5 173t-20.5 161.5t-116.5 54t-146.5 -66.5t-85 -171.5t22.5 -160.5t119 -55.5zM498 -16q-207 0 -324 137t-86 323.5t180.5 312.5t337.5 126q78 0 127 -39q-4 119 -89 224.5t-212 180.5q-31 16 -12 41l94 146q28 40 178 -69q66 -48 140 -130
q74 -83 121 -187q124 -269 71 -544q-39 -250 -179 -386t-347 -136z" />
    <glyph glyph-name="emptyset" unicode="&#x2205;" horiz-adv-x="1665" 
d="M791 262q190 0 326 136t167 335q16 90 0 168l-680 -586q76 -53 187 -53zM963 1169q-190 0 -327.5 -137t-170.5 -336q-14 -94 4 -176l686 592q-80 57 -192 57zM774 -16q-231 0 -399 135l-127 -111q-25 -20 -47 6l-113 131q-20 27 4 50l129 110q-100 190 -63 428
q49 299 283.5 508t537.5 209q236 0 405 -141l125 108q23 23 45 -2l117 -137q23 -23 0 -43l-137 -119q94 -188 57 -420q-47 -299 -280.5 -505.5t-536.5 -206.5z" />
    <glyph glyph-name="product" unicode="&#x220f;" horiz-adv-x="1415" 
d="M1425 1434q37 0 31 -31l-31 -199q-6 -31 -39 -30h-69l-180 -1141q-6 -33 -35 -33h-234q-33 0 -26 33l180 1141h-395l-181 -1141q-6 -33 -34 -33h-234q-33 0 -26 33l180 1141h-68q-35 0 -28 30l30 199q6 31 37 31h1122z" />
    <glyph glyph-name="summation" unicode="&#x2211;" horiz-adv-x="1222" 
d="M1040 207q35 0 29 -31l-22 -145q-6 -31 -37 -31h-932q-35 0 -29 31l23 145q2 12 18 29l516 512l-354 510q-12 14 -8 30l22 146q6 31 37 31h932q35 0 29 -31l-23 -146q-6 -31 -39 -30h-610l295 -432q12 -16 10 -31l-14 -96q-1 -9 -9 -18t-10 -13l-432 -430h608z" />
    <glyph glyph-name="minus" unicode="&#x2212;" horiz-adv-x="1163" 
d="M172 596q-12 0 -20 9t-7 22l23 145q4 31 31 31h878q9 0 19 -9t8 -22l-25 -147q-4 -29 -28 -29h-879z" />
    <glyph glyph-name="radical" unicode="&#x221a;" horiz-adv-x="1404" 
d="M1266 1434h186q18 0 24 -14t-3 -31l-781 -1360q-16 -29 -37 -29h-69q-20 0 -31 29l-215 614l-121 -57q-33 -16 -39 10l-49 129q-10 29 27 47t143 69q106 50 154 74q35 14 47 -16l168 -457l547 961q16 31 49 31z" />
    <glyph glyph-name="infinity" unicode="&#x221e;" horiz-adv-x="1755" 
d="M1248 510q64 0 120 45q54 45 66 118t-19 109t-97 37q-66 0 -142 -46q-78 -46 -136 -126q24 -63 84 -100t124 -37zM512 510q64 0 144 46t132 124q-29 68 -87 104t-125 35q-68 0 -118 -40t-63 -115q-8 -70 23 -112q30 -42 94 -42zM1343 1044q164 0 265 -109
q100 -110 70 -277t-152 -270t-258 -103t-232 61t-139 148q-77 -90 -189 -150t-225 -59q-160 1 -258 117t-72 282t147 263q122 97 260 97t237 -56q100 -56 139 -136q70 88 182 140t225 52z" />
    <glyph glyph-name="integral" unicode="&#x222b;" horiz-adv-x="1138" 
d="M950 1669q128 0 190 -54t46 -165l-12 -78q-6 -33 -35 -33h-170q-31 0 -25 35l4 33q10 55 -33 55h-22q-16 0 -32 -16q-17 -16 -21 -41l-246 -1540q-33 -217 -307 -217h-27q-267 0 -235 219l12 78q6 33 35 32h170q31 0 24 -32l-6 -35q-10 -55 35 -55h22q17 0 33 16t21 41
l245 1540q31 217 308 217h26z" />
    <glyph glyph-name="approxequal" unicode="&#x2248;" horiz-adv-x="1120" 
d="M720 387q-88 0 -168 38q-81 38 -138 38t-131 -40q-73 -40 -89 -40t-28 20l-35 62q-10 18 -6 37q10 39 104 102q95 64 197 64t183 -38t133 -38t120 40q66 40 85 42t36 -19l39 -67q12 -23 -2 -43q-46 -74 -129 -116t-171 -42zM780 764q-88 0 -168 38q-82 38 -139 38
t-131 -40t-90 -40t-27 20l-35 62q-10 18 -6 37q10 39 104 102t197 63q101 0 183 -38t134 -37q52 0 119 40t87 42t34 -19l39 -67q12 -23 -2 -43q-46 -73 -128 -116q-83 -42 -171 -42z" />
    <glyph glyph-name="notequal" unicode="&#x2260;" horiz-adv-x="1163" 
d="M1108 1001q10 0 19 -9t8 -21l-25 -148q-4 -29 -29 -28h-266l-113 -156h349q10 0 19 -9t7 -22l-24 -147q-4 -29 -29 -29h-471l-145 -201q-18 -25 -46 -8l-118 72q-29 18 -15 43l68 94h-152q-12 0 -20 9t-6 22l22 145q4 31 31 31h274l113 156h-356q-12 0 -21 9q-8 9 -6 21
l23 146q4 31 30 30h480l147 203q18 25 45 10l123 -73q27 -16 8 -45l-67 -95h143z" />
    <glyph glyph-name="lessequal" unicode="&#x2264;" horiz-adv-x="1171" 
d="M72 -14q-12 0 -22 9q-9 9 -7 23l25 146q4 29 30 29h895q11 -1 21 -9t8 -22l-25 -146q-4 -31 -30 -30h-895zM500 700l544 -229q27 -10 15 -39l-74 -129q-14 -29 -45 -16l-782 331q-18 10 -17 33q9 55 15 93t28 47l885 335q31 12 39 -14l35 -135q6 -29 -25 -41z" />
    <glyph glyph-name="greaterequal" unicode="&#x2265;" horiz-adv-x="1169" 
d="M70 -14q-12 0 -22 9q-9 9 -7 23l25 146q4 29 30 29h895q11 -1 21 -9t8 -22l-25 -146q-4 -31 -30 -30h-895zM756 707l-545 229q-27 10 -14 39l73 129q14 29 45 16l783 -332q18 -10 16 -32q-10 -55 -16 -107q-4 -25 -27 -33l-885 -335q-31 -12 -39 14l-34 135q-6 29 24 41z
" />
    <glyph glyph-name="lozenge" unicode="&#x25ca;" horiz-adv-x="1208" 
d="M586 311q8 12 8 15l268 391l-143 391q0 10 -4 14l-277 -405l144 -391q0 -11 4 -15zM602 0h-131q-37 0 -49 31l-256 626q-12 36 -9 59t27 58l455 627q25 33 57 33h131q37 0 50 -33l253 -627q13 -35 10 -59t-28 -58l-453 -626q-20 -31 -57 -31z" />
    <glyph glyph-name="heart" unicode="&#x2665;" horiz-adv-x="1935" 
d="M592 1179q-133 -90 -137 -263q-2 -98 44 -198t173 -236t254 -218q150 80 330 220t258 234t106 192q29 97 12 177q-31 131 -184 131t-255 -104q-63 -65 -120 -145q-8 -13 -20 -13q-13 0 -17 8t-20 46q-31 71 -91 139t-166 69t-167 -39zM739 1450q276 0 357 -211
q150 211 422 211q225 0 322 -138t51 -355q-62 -287 -400 -578q-195 -168 -559 -387q-20 -8 -36 -8t-30 10q-305 231 -443 392t-185 327q-41 129 -27 245q26 219 168 356q141 136 360 136z" />
    <glyph glyph-name="AE.ss01" horiz-adv-x="2213" 
d="M645 461h391l99 620zM2238 1434q12 0 20.5 -9.5t6.5 -21.5l-35 -217q-4 -31 -28 -31h-744l-47 -299h373q12 0 21.5 -9t6.5 -22l-36 -217q-4 -29 -31 -28h-379l-49 -301h737q12 0 21.5 -9.5t7.5 -21.5l-35 -219q-4 -29 -31 -29h-1022q-10 0 -19 9t-7 22l24 153h-563
l-121 -157q-23 -27 -45 -27h-246q-20 0 -29 16.5t5 34.5l1038 1362q14 20 39 21h1167z" />
    <glyph glyph-name="B.ss01" horiz-adv-x="1376" 
d="M795 276q156 0 182 164q10 74 -21.5 111t-91.5 37h-383l-49 -312h363zM883 1157h-310l-49 -311h312q147 0 176 162q21 149 -129 149zM856 0h-743q-12 0 -21.5 9t-7.5 22l217 1372q4 31 31 31h674q160 0 250 -119t62 -307.5t-165 -288.5q72 -47 107.5 -135t19.5 -199
q-27 -168 -141.5 -276.5t-282.5 -108.5z" />
    <glyph glyph-name="C.ss01" horiz-adv-x="1335" 
d="M635 -16q-264 0 -404.5 199.5t-86.5 546.5t244 533.5t454 186.5q203 0 326.5 -110.5t150.5 -321.5q6 -27 -21 -33l-221 -39q-37 -8 -43 39q-12 82 -65.5 135.5t-143.5 53.5q-145 0 -243 -124q-96 -124 -130 -344t19 -334t180 -114q193 0 289 207q10 27 39 20l227 -41
q16 -4 23.5 -19t-0.5 -34q-186 -407 -594 -407z" />
    <glyph glyph-name="Cacute.ss01" horiz-adv-x="1335" 
d="M635 -16q-264 0 -404.5 199.5t-86.5 546.5t244 533.5t454 186.5q203 0 326.5 -110.5t150.5 -321.5q6 -27 -21 -33l-221 -39q-37 -8 -43 39q-12 82 -65.5 135.5t-143.5 53.5q-145 0 -243 -124q-96 -124 -130 -344t19 -334t180 -114q193 0 289 207q10 27 39 20l227 -41
q16 -4 23.5 -19t-0.5 -34q-186 -407 -594 -407zM690 1575q-35 -10 -41 16l-12 58q-6 18 14 32l359 177q37 18 47 -15l37 -117q10 -33 -21 -40z" />
    <glyph glyph-name="Ccaron.ss01" horiz-adv-x="1335" 
d="M635 -16q-264 0 -404.5 199.5t-86.5 546.5t244 533.5t454 186.5q203 0 326.5 -110.5t150.5 -321.5q6 -27 -21 -33l-221 -39q-37 -8 -43 39q-12 82 -65.5 135.5t-143.5 53.5q-145 0 -242.5 -124t-131 -344.5t19.5 -334t180 -113.5q193 0 289 207q10 27 39 20l227 -41
q16 -4 23.5 -19t-0.5 -34q-186 -407 -594 -407zM870 1573h-18q-23 0 -45 33l-139 168q-23 27 -21 51l8 47q6 37 47 4l172 -152l232 158q20 12 30.5 3t8.5 -27l-8 -39q-6 -33 -23 -45l-203 -183q-18 -18 -41 -18z" />
    <glyph glyph-name="Ccedilla.ss01" horiz-adv-x="1335" 
d="M825 1174q-145 0 -242.5 -124t-131 -344.5t19.5 -334t180 -113.5q193 0 289 207q10 27 39 20l227 -41q16 -4 23.5 -19t-0.5 -34q-180 -393 -561 -407l-43 -62q84 2 123.5 -47t26.5 -124t-65.5 -118t-131.5 -43t-120.5 30t-51.5 58q-8 14 4 21l47 41q16 12 35.5 -10.5
t54.5 -22.5q82 0 90 80q6 41 -19.5 48t-44.5 -11t-36 -12h-9l-69 24q-20 6 -10 25l79 131q-217 39 -324.5 233.5t-56.5 523t241 515t454 186.5q203 0 326.5 -110.5t150.5 -321.5q6 -27 -21 -33l-221 -39q-37 -8 -43 39q-12 82 -65.5 135.5t-143.5 53.5z" />
    <glyph glyph-name="Cdotaccent.ss01" horiz-adv-x="1335" 
d="M635 -16q-264 0 -404.5 199.5t-86.5 546.5t244 533.5t454 186.5q203 0 326.5 -110.5t150.5 -321.5q6 -27 -21 -33l-221 -39q-37 -8 -43 39q-12 82 -65.5 135.5t-143.5 53.5q-145 0 -242.5 -124t-131 -344.5t19.5 -334t180 -113.5q193 0 289 207q10 27 39 20l227 -41
q16 -4 23.5 -19t-0.5 -34q-186 -407 -594 -407zM868 1595q-47 0 -79.5 40t-23.5 86t43 74t80 28t78.5 -40t23.5 -88t-42 -74t-80 -26z" />
    <glyph glyph-name="D.ss01" horiz-adv-x="1433" 
d="M913 1155h-340l-141 -876h326q102 0 167.5 59t82.5 160l71 458q16 102 -24.5 150.5t-141.5 48.5zM983 1434q217 0 330.5 -120t77.5 -351l-80 -506q-37 -231 -179.5 -344t-359.5 -113h-661q-10 0 -19.5 9t-7.5 22l217 1374q4 29 31 29h651z" />
    <glyph glyph-name="Eth.ss01" horiz-adv-x="1433" 
d="M913 1155h-340l-51 -324h164q33 0 27 -30l-27 -172q-6 -31 -31 -31h-172l-51 -319h326q102 0 167.5 59t82.5 160l71 458q16 102 -24.5 150.5t-141.5 48.5zM983 1434q217 0 330.5 -120t77.5 -351l-80 -506q-37 -231 -179.5 -344t-359.5 -113h-661q-10 0 -19.5 9t-7.5 22
l90 567h-78q-33 0 -28 33l26 170q4 31 31 30h86l90 574q4 29 31 29h651z" />
    <glyph glyph-name="Dcaron.ss01" horiz-adv-x="1433" 
d="M913 1155h-340l-141 -876h326q102 0 167.5 59t82.5 160l71 458q16 102 -24.5 150.5t-141.5 48.5zM983 1434q217 0 330.5 -120t77.5 -351l-80 -506q-37 -231 -179.5 -344t-359.5 -113h-661q-10 0 -19.5 9t-7.5 22l217 1374q4 29 31 29h651zM885 1573h-19q-23 0 -45 33
l-139 168q-23 27 -20 51l8 47q6 37 47 4l172 -152l231 158q20 12 30.5 3t8.5 -27l-8 -39q-6 -33 -23 -45l-202 -183q-18 -18 -41 -18z" />
    <glyph glyph-name="Dcroat.ss01" horiz-adv-x="1433" 
d="M913 1155h-340l-51 -324h164q33 0 27 -30l-27 -172q-6 -31 -31 -31h-172l-51 -319h326q102 0 167.5 59t82.5 160l71 458q16 102 -24.5 150.5t-141.5 48.5zM983 1434q217 0 330.5 -120t77.5 -351l-80 -506q-37 -231 -179.5 -344t-359.5 -113h-661q-10 0 -19.5 9t-7.5 22
l90 567h-78q-33 0 -28 33l26 170q4 31 31 30h86l90 574q4 29 31 29h651z" />
    <glyph glyph-name="E.ss01" horiz-adv-x="1329" 
d="M1169 279q12 0 21.5 -9.5t7.5 -21.5l-35 -219q-4 -29 -30 -29h-1022q-10 0 -19.5 9t-7.5 22l217 1372q4 31 31 31h1022q12 0 20 -9.5t6 -21.5l-34 -217q-4 -31 -29 -31h-744l-47 -299h373q12 0 21.5 -9t7.5 -22l-37 -217q-4 -29 -31 -28h-379l-49 -301h737z" />
    <glyph glyph-name="Eacute.ss01" horiz-adv-x="1329" 
d="M1169 279q12 0 21.5 -9.5t7.5 -21.5l-35 -219q-4 -29 -30 -29h-1022q-10 0 -19.5 9t-7.5 22l217 1372q4 31 31 31h1022q12 0 20 -9.5t6 -21.5l-34 -217q-4 -31 -29 -31h-744l-47 -299h373q12 0 21.5 -9t7.5 -22l-37 -217q-4 -29 -31 -28h-379l-49 -301h737zM698 1575
q-35 -10 -41 16l-12 58q-6 18 14 32l359 177q37 18 47 -15l37 -117q10 -33 -21 -40z" />
    <glyph glyph-name="Ecaron.ss01" horiz-adv-x="1329" 
d="M1169 279q12 0 21.5 -9.5t7.5 -21.5l-35 -219q-4 -29 -30 -29h-1022q-10 0 -19.5 9t-7.5 22l217 1372q4 31 31 31h1022q12 0 20 -9.5t6 -21.5l-34 -217q-4 -31 -29 -31h-744l-47 -299h373q12 0 21.5 -9t7.5 -22l-37 -217q-4 -29 -31 -28h-379l-49 -301h737zM879 1573h-19
q-23 0 -45 33l-139 168q-23 27 -21 51l9 47q6 37 47 4l172 -152l231 158q20 12 30.5 3t8.5 -27l-8 -39q-6 -33 -23 -45l-202 -183q-18 -18 -41 -18z" />
    <glyph glyph-name="Ecircumflex.ss01" horiz-adv-x="1329" 
d="M1169 279q12 0 21.5 -9.5t7.5 -21.5l-35 -219q-4 -29 -30 -29h-1022q-10 0 -19.5 9t-7.5 22l217 1372q4 31 31 31h1022q12 0 20 -9.5t6 -21.5l-34 -217q-4 -31 -29 -31h-744l-47 -299h373q12 0 21.5 -9t7.5 -22l-37 -217q-4 -29 -31 -28h-379l-49 -301h737zM897 1890h16
q18 0 48 -32l155 -156q14 -16 10 -41l-10 -68q-6 -35 -39 -8l-188 144l-240 -152q-12 -8 -21.5 -1t-6.5 19l12 70q6 27 26 43l195 164q20 18 43 18z" />
    <glyph glyph-name="Edieresis.ss01" horiz-adv-x="1329" 
d="M1169 279q12 0 21.5 -9.5t7.5 -21.5l-35 -219q-4 -29 -30 -29h-1022q-10 0 -19.5 9t-7.5 22l217 1372q4 31 31 31h1022q12 0 20 -9.5t6 -21.5l-34 -217q-4 -31 -29 -31h-744l-47 -299h373q12 0 21.5 -9t7.5 -22l-37 -217q-4 -29 -31 -28h-379l-49 -301h737zM1032 1620
q-43 0 -70.5 33t-20.5 71t32.5 58t65.5 20t65.5 -33.5t17.5 -76.5q-14 -72 -90 -72zM748 1620q-43 0 -71 33t-21 71t33 58t66 20t65.5 -33.5t17.5 -76.5q-14 -72 -90 -72z" />
    <glyph glyph-name="Edotaccent.ss01" horiz-adv-x="1329" 
d="M1169 279q12 0 21.5 -9.5t7.5 -21.5l-35 -219q-4 -29 -30 -29h-1022q-10 0 -19.5 9t-7.5 22l217 1372q4 31 31 31h1022q12 0 20 -9.5t6 -21.5l-34 -217q-4 -31 -29 -31h-744l-47 -299h373q12 0 21.5 -9t7.5 -22l-37 -217q-4 -29 -31 -28h-379l-49 -301h737zM877 1595
q-47 0 -80 40t-24 86t43 74t80 28t79 -40t23.5 -88t-42 -74t-79.5 -26z" />
    <glyph glyph-name="Egrave.ss01" horiz-adv-x="1329" 
d="M1169 279q12 0 21.5 -9.5t7.5 -21.5l-35 -219q-4 -29 -30 -29h-1022q-10 0 -19.5 9t-7.5 22l217 1372q4 31 31 31h1022q12 0 20 -9.5t6 -21.5l-34 -217q-4 -31 -29 -31h-744l-47 -299h373q12 0 21.5 -9t7.5 -22l-37 -217q-4 -29 -31 -28h-379l-49 -301h737zM1073 1577
l-383 111q-31 8 -20 41l37 116q10 33 47 15l358 -177q20 -14 14 -32l-12 -58q-6 -26 -41 -16z" />
    <glyph glyph-name="Emacron.ss01" horiz-adv-x="1329" 
d="M1169 279q12 0 21.5 -9.5t7.5 -21.5l-35 -219q-4 -29 -30 -29h-1022q-10 0 -19.5 9t-7.5 22l217 1372q4 31 31 31h1022q12 0 20 -9.5t6 -21.5l-34 -217q-4 -31 -29 -31h-744l-47 -299h373q12 0 21.5 -9t7.5 -22l-37 -217q-4 -29 -31 -28h-379l-49 -301h737zM680 1620
q-12 0 -20.5 9t-6.5 22l17 100q4 31 32 31h400q12 0 21.5 -9.5t6.5 -23.5l-16 -98q-4 -31 -31 -31h-403z" />
    <glyph glyph-name="Eogonek.ss01" horiz-adv-x="1329" 
d="M1354 1434q12 0 20 -9.5t6 -21.5l-34 -217q-4 -31 -29 -31h-744l-47 -299h373q12 0 21.5 -9t7.5 -22l-37 -217q-4 -29 -31 -28h-379l-49 -301h737q12 0 21.5 -9.5t7.5 -21.5l-35 -219q-4 -29 -30 -29h-74q-139 -121 -154 -229q-8 -63 47 -64q59 0 101 41q16 18 34 0
l27 -31q14 -14 2 -34q-68 -102 -194 -103q-86 0 -139.5 49t-39.5 144q23 131 181 227h-813q-10 0 -19.5 9t-7.5 22l217 1372q4 31 31 31h1022z" />
    <glyph glyph-name="F.ss01" horiz-adv-x="1312" 
d="M1352 1434q12 0 21 -9.5t7 -21.5l-34 -217q-4 -31 -31 -31h-742l-55 -344h391q12 0 21.5 -9t7.5 -22l-35 -217q-4 -29 -31 -28h-399l-78 -506q-4 -29 -28 -29h-256q-12 0 -20.5 9t-6.5 22l217 1374q4 29 31 29h1020z" />
    <glyph glyph-name="G.ss01" horiz-adv-x="1347" 
d="M1237 737q12 0 20.5 -9t6.5 -21l-107 -678q-4 -29 -29 -29h-118q-29 0 -33 31l-2 112q-131 -160 -348 -159q-258 0 -397.5 199.5t-85.5 545.5t250 533.5t460 187.5q221 0 336 -129t115 -322q0 -23 -29 -28l-221 -39q-14 -4 -26.5 6t-12.5 25q-2 84 -45 147.5t-129 63.5
q-162 0 -260 -132t-130 -337.5t17 -326t199 -120.5q102 0 182 58.5t111 154.5h-164q-14 0 -22.5 9t-6.5 22l31 205q4 31 30 30h408z" />
    <glyph glyph-name="Gbreve.ss01" horiz-adv-x="1347" 
d="M1237 737q12 0 20.5 -9t6.5 -21l-107 -678q-4 -29 -29 -29h-118q-29 0 -33 31l-2 112q-131 -160 -348 -159q-258 0 -397.5 199.5t-85.5 545.5t250 533.5t460 187.5q221 0 336 -129t115 -322q0 -23 -29 -28l-221 -39q-14 -4 -26.5 6t-12.5 25q-2 84 -45 147.5t-129 63.5
q-162 0 -260.5 -132.5t-130 -337.5t17.5 -325.5t199 -120.5q102 0 182 58.5t111 154.5h-164q-14 0 -22.5 9t-6.5 22l31 205q4 31 30 30h408zM878.5 1581q-112.5 0 -179 62.5t-89.5 150.5q-4 23 15 29l88 35q23 8 32 -15q53 -104 146 -104q121 0 190 110q12 18 31 6l84 -51
q16 -10 8 -30q-41 -78 -127 -135.5t-198.5 -57.5z" />
    <glyph glyph-name="Gcommaaccent.ss01" horiz-adv-x="1347" 
d="M541 -78h131q32 0 28 -31l-22 -137q-10 -66 -63.5 -120t-125.5 -76q-20 -6 -22 12t18 29q104 43 117 135l-86 35q-31 12 -27 36l15 86q6 31 37 31zM1237 737q12 0 20.5 -9t6.5 -21l-107 -678q-4 -29 -29 -29h-118q-29 0 -33 31l-2 112q-131 -160 -348 -159
q-258 0 -397.5 199.5t-85.5 545.5t250 533.5t460 187.5q221 0 336 -129t115 -322q0 -23 -29 -28l-221 -39q-14 -4 -26.5 6t-12.5 25q-2 84 -45 147.5t-129 63.5q-162 0 -260.5 -132.5t-130 -337.5t17.5 -325.5t199 -120.5q102 0 182 58.5t111 154.5h-164q-14 0 -22.5 9
t-6.5 22l31 205q4 31 30 30h408z" />
    <glyph glyph-name="Gdotaccent.ss01" horiz-adv-x="1347" 
d="M1237 737q12 0 20.5 -9t6.5 -21l-107 -678q-4 -29 -29 -29h-118q-29 0 -33 31l-2 112q-131 -160 -348 -159q-258 0 -397.5 199.5t-85.5 545.5t250 533.5t460 187.5q221 0 336 -129t115 -322q0 -23 -29 -28l-221 -39q-14 -4 -26.5 6t-12.5 25q-2 84 -45 147.5t-129 63.5
q-162 0 -260.5 -132.5t-130 -337.5t17.5 -325.5t199 -120.5q102 0 182 58.5t111 154.5h-164q-14 0 -22.5 9t-6.5 22l31 205q4 31 30 30h408zM879 1595q-47 0 -80 40t-24 86t43 74t80 28t79 -40t23.5 -88t-42 -74t-79.5 -26z" />
    <glyph glyph-name="I.ss01" horiz-adv-x="802" 
d="M782 1155h-110l-140 -876h107q10 0 18.5 -9.5t6.5 -21.5l-33 -217q-4 -31 -31 -31h-526q-12 0 -21.5 9t-7.5 22l35 217q4 31 31 31h110l139 876h-104q-12 0 -20.5 9.5t-6.5 21.5l33 217q4 31 31 31h526q12 0 21.5 -9.5t7.5 -21.5l-35 -217q-4 -31 -31 -31z" />
    <glyph glyph-name="Iacute.ss01" horiz-adv-x="802" 
d="M782 1155h-110l-140 -876h107q10 0 18.5 -9.5t6.5 -21.5l-33 -217q-4 -31 -31 -31h-526q-12 0 -21.5 9t-7.5 22l35 217q4 31 31 31h110l139 876h-104q-12 0 -20.5 9.5t-6.5 21.5l33 217q4 31 31 31h526q12 0 21.5 -9.5t7.5 -21.5l-35 -217q-4 -31 -31 -31zM420 1575
q-35 -10 -41 16l-12 58q-6 18 14 32l358 177q37 18 47 -15l37 -117q10 -33 -20 -40z" />
    <glyph glyph-name="Icircumflex.ss01" horiz-adv-x="802" 
d="M782 1155h-110l-140 -876h107q10 0 18.5 -9.5t6.5 -21.5l-33 -217q-4 -31 -31 -31h-526q-12 0 -21.5 9t-7.5 22l35 217q4 31 31 31h110l139 876h-104q-12 0 -20.5 9.5t-6.5 21.5l33 217q4 31 31 31h526q12 0 21.5 -9.5t7.5 -21.5l-35 -217q-4 -31 -31 -31zM618 1890h17
q18 0 47 -32l156 -156q14 -16 10 -41l-10 -68q-6 -35 -39 -8l-189 144l-239 -152q-12 -8 -21.5 -1t-7.5 19l12 70q6 27 27 43l194 164q23 18 43 18z" />
    <glyph glyph-name="Idieresis.ss01" horiz-adv-x="802" 
d="M782 1155h-110l-140 -876h107q10 0 18.5 -9.5t6.5 -21.5l-33 -217q-4 -31 -31 -31h-526q-12 0 -21.5 9t-7.5 22l35 217q4 31 31 31h110l139 876h-104q-12 0 -20.5 9.5t-6.5 21.5l33 217q4 31 31 31h526q12 0 21.5 -9.5t7.5 -21.5l-35 -217q-4 -31 -31 -31zM754 1620
q-43 0 -71 33q-29 33 -21 71t33.5 58t65.5 20t65.5 -33.5t17.5 -76.5q-14 -72 -90 -72zM469 1620q-43 0 -70.5 33t-20.5 71t32.5 58t65.5 20t65.5 -33.5t17.5 -76.5q-14 -72 -90 -72z" />
    <glyph glyph-name="Idotaccent.ss01" horiz-adv-x="802" 
d="M782 1155h-110l-140 -876h107q10 0 18.5 -9.5t6.5 -21.5l-33 -217q-4 -31 -31 -31h-526q-12 0 -21.5 9t-7.5 22l35 217q4 31 31 31h110l139 876h-104q-12 0 -20.5 9.5t-6.5 21.5l33 217q4 31 31 31h526q12 0 21.5 -9.5t7.5 -21.5l-35 -217q-4 -31 -31 -31zM598 1595
q-47 0 -80 40t-23.5 86t43 74t79.5 28t79 -40t24 -88t-42 -74t-80 -26z" />
    <glyph glyph-name="Igrave.ss01" horiz-adv-x="802" 
d="M782 1155h-110l-140 -876h107q10 0 18.5 -9.5t6.5 -21.5l-33 -217q-4 -31 -31 -31h-526q-12 0 -21.5 9t-7.5 22l35 217q4 31 31 31h110l139 876h-104q-12 0 -20.5 9.5t-6.5 21.5l33 217q4 31 31 31h526q12 0 21.5 -9.5t7.5 -21.5l-35 -217q-4 -31 -31 -31zM795 1577
l-383 111q-31 8 -21 41l37 116q10 33 47 15l359 -177q20 -14 14 -32l-12 -58q-6 -26 -41 -16z" />
    <glyph glyph-name="Imacron.ss01" horiz-adv-x="802" 
d="M782 1155h-110l-140 -876h107q10 0 18.5 -9.5t6.5 -21.5l-33 -217q-4 -31 -31 -31h-526q-12 0 -21.5 9t-7.5 22l35 217q4 31 31 31h110l139 876h-104q-12 0 -20.5 9.5t-6.5 21.5l33 217q4 31 31 31h526q12 0 21.5 -9.5t7.5 -21.5l-35 -217q-4 -31 -31 -31zM401 1620
q-12 0 -20 9t-6 22l16 100q4 31 33 31h399q12 0 21.5 -9.5t7.5 -23.5l-16 -98q-4 -31 -31 -31h-404z" />
    <glyph glyph-name="Iogonek.ss01" horiz-adv-x="802" 
d="M819 1434q12 0 21.5 -9.5t7.5 -21.5l-35 -217q-4 -31 -31 -31h-110l-140 -876h107q10 0 18.5 -9.5t6.5 -21.5l-33 -217q-4 -31 -31 -31h-76q-139 -121 -153 -229q-8 -63 47 -64q59 0 100 41q18 18 35 0l27 -31q14 -14 2 -34q-68 -102 -195 -103q-86 0 -139 49t-39 144
q23 131 180 227h-315q-12 0 -21.5 9t-7.5 22l35 217q4 31 31 31h110l139 876h-104q-12 0 -20.5 9.5t-6.5 21.5l33 217q4 31 31 31h526z" />
    <glyph glyph-name="M.ss01" horiz-adv-x="1677" 
d="M1409 1434h248q12 0 21.5 -9.5t7.5 -21.5l-220 -1374q-4 -29 -28 -29h-254q-12 0 -20.5 9t-6.5 22l137 856l-407 -545q-14 -23 -35 -23h-31q-31 0 -41 23l-245 551l-140 -864q-4 -29 -30 -29h-252q-12 0 -20.5 9t-6.5 22l215 1374q4 29 29 29h231q29 0 45 -29l287 -637
l473 641q18 25 43 25z" />
    <glyph glyph-name="N.ss01" horiz-adv-x="1456" 
d="M1436 1434q12 0 21 -9.5t7 -21.5l-219 -1374q-4 -29 -28 -29h-211q-23 0 -39 31l-435 846l-137 -848q-4 -29 -30 -29h-254q-12 0 -20.5 9t-6.5 22l217 1374q4 29 29 29h223q25 0 39 -31l426 -830l135 832q4 29 29 29h254z" />
    <glyph glyph-name="Nacute.ss01" horiz-adv-x="1456" 
d="M1436 1434q12 0 21 -9.5t7 -21.5l-219 -1374q-4 -29 -28 -29h-211q-23 0 -39 31l-435 846l-137 -848q-4 -29 -30 -29h-254q-12 0 -20.5 9t-6.5 22l217 1374q4 29 29 29h223q25 0 39 -31l426 -830l135 832q4 29 29 29h254zM727 1575q-35 -10 -41 16l-12 58q-6 18 14 32
l359 177q37 18 47 -15l36 -117q10 -33 -20 -40z" />
    <glyph glyph-name="Ncaron.ss01" horiz-adv-x="1456" 
d="M1436 1434q12 0 21 -9.5t7 -21.5l-219 -1374q-4 -29 -28 -29h-211q-23 0 -39 31l-435 846l-137 -848q-4 -29 -30 -29h-254q-12 0 -20.5 9t-6.5 22l217 1374q4 29 29 29h223q25 0 39 -31l426 -830l135 832q4 29 29 29h254zM907 1573h-18q-23 0 -45 33l-139 168
q-23 27 -21 51l8 47q6 37 47 4l172 -152l232 158q20 12 30.5 3t8.5 -27l-8 -39q-6 -33 -23 -45l-203 -183q-18 -18 -41 -18z" />
    <glyph glyph-name="Ncommaaccent.ss01" horiz-adv-x="1456" 
d="M602 -78h131q33 0 29 -31l-23 -137q-10 -66 -63 -120t-125 -76q-20 -6 -22.5 12t18.5 29q104 43 117 135l-86 35q-31 12 -27 36l14 86q6 31 37 31zM1436 1434q12 0 21 -9.5t7 -21.5l-219 -1374q-4 -29 -28 -29h-211q-23 0 -39 31l-435 846l-137 -848q-4 -29 -30 -29h-254
q-12 0 -20.5 9t-6.5 22l217 1374q4 29 29 29h223q25 0 39 -31l426 -830l135 832q4 29 29 29h254z" />
    <glyph glyph-name="Eng.ss01" horiz-adv-x="1458" 
d="M1436 1434q12 0 21 -10t7 -21l-233 -1477q-15 -98 -73 -166t-159 -143q-27 -18 -49 10l-96 117q-25 29 -2 45q115 86 129 160q6 39 -29 106l-420 822l-137 -848q-4 -29 -30 -29h-254q-12 0 -21 9q-8 9 -6 22l217 1374q4 29 29 29h221q27 0 39 -29l428 -832l135 832
q4 29 29 29h254z" />
    <glyph glyph-name="Ntilde.ss01" horiz-adv-x="1456" 
d="M1436 1434q12 0 21 -9.5t7 -21.5l-219 -1374q-4 -29 -28 -29h-211q-23 0 -39 31l-435 846l-137 -848q-4 -29 -30 -29h-254q-12 0 -20.5 9t-6.5 22l217 1374q4 29 29 29h223q25 0 39 -31l426 -830l135 832q4 29 29 29h254zM801 1677q-80 0 -125 -51q-14 -16 -39 -4l-37 16
q-27 12 -12 39q68 129 205 129q78 0 144.5 -37.5t92.5 -37.5q63 0 113 55q10 12 28 6l46 -20q25 -10 12 -39q-71 -131 -200 -131q-65 0 -124 37.5t-104 37.5z" />
    <glyph glyph-name="O.ss01" horiz-adv-x="1417" 
d="M668 258q160 0 257 129t132 348q68 438 -215 439q-160 0 -259.5 -130.5t-131.5 -345.5q-68 -440 217 -440zM646.5 -16q-280.5 0 -419.5 196.5t-83 546.5t247 536.5t471.5 186.5t418.5 -196.5t82 -547t-246 -536.5t-470.5 -186z" />
    <glyph glyph-name="Oacute.ss01" horiz-adv-x="1417" 
d="M668 258q160 0 257 129t132 348q68 438 -215 439q-160 0 -259.5 -130.5t-131.5 -345.5q-68 -440 217 -440zM646.5 -16q-280.5 0 -419.5 196.5t-83 546.5t247 536.5t471.5 186.5t418.5 -196.5t82 -547t-246 -536.5t-470.5 -186zM713 1575q-35 -10 -41 16l-13 58
q-6 18 15 32l358 177q37 18 47 -15l37 -117q10 -33 -20 -40z" />
    <glyph glyph-name="Ocircumflex.ss01" horiz-adv-x="1417" 
d="M668 258q160 0 257 129t132 348q68 438 -215 439q-160 0 -259.5 -130.5t-131.5 -345.5q-68 -440 217 -440zM646.5 -16q-280.5 0 -419.5 196.5t-83 546.5t247 536.5t471.5 186.5t418.5 -196.5t82 -547t-246 -536.5t-470.5 -186zM911 1890h17q18 0 47 -32l155 -156
q14 -16 11 -41l-11 -68q-6 -35 -38 -8l-189 144l-239 -152q-12 -8 -21.5 -1t-7.5 19l12 70q6 27 27 43l194 164q20 18 43 18z" />
    <glyph glyph-name="Odieresis.ss01" horiz-adv-x="1417" 
d="M668 258q160 0 257 129t132 348q68 438 -215 439q-160 0 -259.5 -130.5t-131.5 -345.5q-68 -440 217 -440zM646.5 -16q-280.5 0 -419.5 196.5t-83 546.5t247 536.5t471.5 186.5t418.5 -196.5t82 -547t-246 -536.5t-470.5 -186zM1047 1620q-43 0 -71 33t-21 71t33 58
t66 20t65.5 -33.5t17.5 -76.5q-14 -72 -90 -72zM762 1620q-43 0 -70.5 33t-20.5 71t32.5 58t65.5 20t65.5 -33.5t17.5 -76.5q-14 -72 -90 -72z" />
    <glyph glyph-name="Ograve.ss01" horiz-adv-x="1417" 
d="M668 258q160 0 257 129t132 348q68 438 -215 439q-160 0 -259.5 -130.5t-131.5 -345.5q-68 -440 217 -440zM646.5 -16q-280.5 0 -419.5 196.5t-83 546.5t247 536.5t471.5 186.5t418.5 -196.5t82 -547t-246 -536.5t-470.5 -186zM1087 1577l-382 111q-31 8 -21 41l37 116
q10 33 47 15l358 -177q20 -14 15 -32l-13 -58q-6 -26 -41 -16z" />
    <glyph glyph-name="Ohungarumlaut.ss01" horiz-adv-x="1417" 
d="M668 258q160 0 257 129t132 348q68 438 -215 439q-160 0 -259.5 -130.5t-131.5 -345.5q-68 -440 217 -440zM646.5 -16q-280.5 0 -419.5 196.5t-83 546.5t247 536.5t471.5 186.5t418.5 -196.5t82 -547t-246 -536.5t-470.5 -186zM1006 1579q-27 -10 -41 8l-31 35
q-16 20 10 41l230 180q27 14 38 -8l78 -96q12 -20 -8 -33zM719 1581q-23 -12 -39 8l-31 35q-16 20 10 41l230 180q23 14 39 -8l78 -98q12 -18 -11 -31z" />
    <glyph glyph-name="Omacron.ss01" horiz-adv-x="1417" 
d="M668 258q160 0 257 129t132 348q68 438 -215 439q-160 0 -259.5 -130.5t-131.5 -345.5q-68 -440 217 -440zM646.5 -16q-280.5 0 -419.5 196.5t-83 546.5t247 536.5t471.5 186.5t418.5 -196.5t82 -547t-246 -536.5t-470.5 -186zM694 1620q-12 0 -20 9t-6 22l16 100
q4 31 33 31h399q12 0 21.5 -9.5t7.5 -23.5l-17 -98q-4 -31 -30 -31h-404z" />
    <glyph glyph-name="Oslash.ss01" horiz-adv-x="1417" 
d="M668 258q160 0 257 129t132 348q27 160 2 264l-488 -725q43 -16 97 -16zM451 698q-25 -154 0 -262l485 721q-43 16 -94 17q-160 0 -259 -130.5t-132 -345.5zM653 -16q-135 0 -245 47l-19 -27q-16 -23 -43 -22h-133q-20 0 -31.5 19t-1.5 34l74 110q-172 201 -109 590
q55 342 246 528.5t467 186.5q133 0 244 -47l14 22q16 23 41 23h146q16 0 25 -15.5t1 -29.5l-76 -113q172 -201 109 -592q-55 -342 -244.5 -528t-464.5 -186z" />
    <glyph glyph-name="Otilde.ss01" horiz-adv-x="1417" 
d="M668 258q160 0 257 129t132 348q68 438 -215 439q-160 0 -259.5 -130.5t-131.5 -345.5q-68 -440 217 -440zM646.5 -16q-280.5 0 -419.5 196.5t-83 546.5t247 536.5t471.5 186.5t418.5 -196.5t82 -547t-246 -536.5t-470.5 -186zM1014 1602q-64 0 -123.5 37.5t-121 37.5
t-107.5 -51q-14 -16 -39 -4l-37 16q-27 12 -13 39q68 129 205 129q78 0 144.5 -37.5t93.5 -37.5q63 0 112 55q10 12 29 6l45 -20q25 -10 12 -39q-71 -131 -200 -131z" />
    <glyph glyph-name="OE.ss01" horiz-adv-x="1998" 
d="M664 258q66 0 131 27l137 872q-39 16 -96 17q-156 -2 -252 -131.5t-133 -342.5q-31 -207 20 -324.5t193 -117.5zM2023 1434q12 0 20.5 -9.5t6.5 -21.5l-35 -217q-4 -31 -28 -31h-744l-47 -299h373q12 0 21 -9t7 -22l-36 -217q-4 -29 -31 -28h-379l-49 -301h737
q12 0 21.5 -9.5t7.5 -21.5l-35 -219q-4 -29 -31 -29h-997q-78 -16 -156 -16q-289 0 -425 199.5t-80 544.5t245 533.5t461 188.5q84 0 156 -16h1017z" />
    <glyph glyph-name="P.ss01" horiz-adv-x="1320" 
d="M813 780q164 0 197 205q31 172 -127 172h-310l-59 -377h299zM860 504h-391l-74 -475q-4 -29 -30 -29h-254q-31 0 -27 31l217 1374q4 29 31 29h674q168 0 256 -134.5t53 -354.5t-161 -330.5t-294 -110.5z" />
    <glyph glyph-name="Q.ss01" horiz-adv-x="1437" 
d="M656 258q138 0 236.5 136t131.5 341q36 269 -56 377q-52 62 -143 62q-143 0 -243 -136.5t-130 -333t18 -321.5t186 -125zM846 1450q258 0 397 -199.5t86 -552.5q-41 -262 -172 -438l123 -151q20 -27 0 -48l-164 -141q-25 -20 -45 0l-135 141q-129 -78 -301 -77
q-264 0 -405.5 199.5t-86.5 544.5t250 533.5t453 188.5z" />
    <glyph glyph-name="R.ss01" horiz-adv-x="1404" 
d="M905 786q51 0 101.5 48.5t66.5 136.5q31 184 -117 184h-383l-59 -369h391zM365 0h-254q-12 0 -20.5 9t-6.5 22l217 1374q4 29 31 29h741q160 0 250 -135.5t57 -346.5q-45 -285 -266 -405q131 -242 115 -518q0 -29 -31 -29h-250q-33 0 -26 39q10 102 -21 233t-115 242
h-313l-78 -485q-4 -29 -30 -29z" />
    <glyph glyph-name="Racute.ss01" horiz-adv-x="1404" 
d="M905 786q51 0 101.5 48.5t66.5 136.5q31 184 -117 184h-383l-59 -369h391zM365 0h-254q-12 0 -20.5 9t-6.5 22l217 1374q4 29 31 29h741q160 0 250 -135.5t57 -346.5q-45 -285 -266 -405q131 -242 115 -518q0 -29 -31 -29h-250q-33 0 -26 39q10 102 -21 233t-115 242
h-313l-78 -485q-4 -29 -30 -29zM688 1575q-35 -10 -41 16l-12 58q-6 18 14 32l359 177q37 18 47 -15l37 -117q10 -33 -21 -40z" />
    <glyph glyph-name="Rcaron.ss01" horiz-adv-x="1404" 
d="M905 786q51 0 101.5 48.5t66.5 136.5q31 184 -117 184h-383l-59 -369h391zM365 0h-254q-12 0 -20.5 9t-6.5 22l217 1374q4 29 31 29h741q160 0 250 -135.5t57 -346.5q-45 -285 -266 -405q131 -242 115 -518q0 -29 -31 -29h-250q-33 0 -26 39q10 102 -21 233t-115 242
h-313l-78 -485q-4 -29 -30 -29zM868 1573h-18q-23 0 -45 33l-139 168q-23 27 -21 51l8 47q6 37 47 4l172 -152l232 158q20 12 30.5 3t8.5 -27l-8 -39q-6 -33 -23 -45l-203 -183q-18 -18 -41 -18z" />
    <glyph glyph-name="Rcommaaccent.ss01" horiz-adv-x="1404" 
d="M573 -78h132q32 0 28 -31l-22 -137q-10 -66 -63.5 -120t-125.5 -76q-20 -6 -22 12t18 29q104 43 117 135l-86 35q-31 12 -27 36l15 86q6 31 36 31zM905 786q51 0 101.5 48.5t66.5 136.5q31 184 -117 184h-383l-59 -369h391zM365 0h-254q-12 0 -20.5 9t-6.5 22l217 1374
q4 29 31 29h741q160 0 250 -135.5t57 -346.5q-45 -285 -266 -405q131 -242 115 -518q0 -29 -31 -29h-250q-33 0 -26 39q10 102 -21 233t-115 242h-313l-78 -485q-4 -29 -30 -29z" />
    <glyph glyph-name="U.ss01" horiz-adv-x="1390" 
d="M1368 1434q12 0 21.5 -8.5t7.5 -22.5l-150 -938q-72 -465 -506 -465h-213q-227 0 -317 131t-55 350l145 922q4 31 29 31h254q12 0 21 -8.5t7 -22.5l-143 -901q-37 -223 143 -223h101q92 0 153.5 63.5t79.5 175.5l139 885q4 31 31 31h252z" />
    <glyph glyph-name="Uacute.ss01" horiz-adv-x="1390" 
d="M1368 1434q12 0 21.5 -8.5t7.5 -22.5l-150 -938q-72 -465 -506 -465h-213q-227 0 -317 131t-55 350l145 922q4 31 29 31h254q12 0 21 -8.5t7 -22.5l-143 -901q-37 -223 143 -223h101q92 0 153.5 63.5t79.5 175.5l139 885q4 31 31 31h252zM705 1575q-35 -10 -41 16l-13 58
q-6 18 15 32l358 177q37 18 47 -15l37 -117q10 -33 -21 -40z" />
    <glyph glyph-name="Ucircumflex.ss01" horiz-adv-x="1390" 
d="M1368 1434q12 0 21.5 -8.5t7.5 -22.5l-150 -938q-72 -465 -506 -465h-213q-227 0 -317 131t-55 350l145 922q4 31 29 31h254q12 0 21 -8.5t7 -22.5l-143 -901q-37 -223 143 -223h101q92 0 153.5 63.5t79.5 175.5l139 885q4 31 31 31h252zM903 1890h17q18 0 47 -32
l155 -156q14 -16 11 -41l-11 -68q-6 -35 -39 -8l-188 144l-240 -152q-12 -8 -21 -1t-7 19l12 70q6 27 27 43l194 164q20 18 43 18z" />
    <glyph glyph-name="Udieresis.ss01" horiz-adv-x="1390" 
d="M1368 1434q12 0 21.5 -8.5t7.5 -22.5l-150 -938q-72 -465 -506 -465h-213q-227 0 -317 131t-55 350l145 922q4 31 29 31h254q12 0 21 -8.5t7 -22.5l-143 -901q-37 -223 143 -223h101q92 0 153.5 63.5t79.5 175.5l139 885q4 31 31 31h252zM1038 1620q-43 0 -70.5 33
t-20.5 71t33 58t66 20t65.5 -33.5t16.5 -76.5q-14 -72 -90 -72zM754 1620q-43 0 -71 33q-29 33 -21 71t33.5 58t65.5 20t65.5 -33.5t17.5 -76.5q-14 -72 -90 -72z" />
    <glyph glyph-name="Ugrave.ss01" horiz-adv-x="1390" 
d="M1368 1434q12 0 21.5 -8.5t7.5 -22.5l-150 -938q-72 -465 -506 -465h-213q-227 0 -317 131t-55 350l145 922q4 31 29 31h254q12 0 21 -8.5t7 -22.5l-143 -901q-37 -223 143 -223h101q92 0 153.5 63.5t79.5 175.5l139 885q4 31 31 31h252zM1079 1577l-383 111
q-31 8 -20 41l37 116q10 33 47 15l358 -177q20 -14 15 -32l-13 -58q-6 -26 -41 -16z" />
    <glyph glyph-name="Uhungarumlaut.ss01" horiz-adv-x="1390" 
d="M1368 1434q12 0 21.5 -8.5t7.5 -22.5l-150 -938q-72 -465 -506 -465h-213q-227 0 -317 131t-55 350l145 922q4 31 29 31h254q12 0 21 -8.5t7 -22.5l-143 -901q-37 -223 143 -223h101q92 0 153.5 63.5t79.5 175.5l139 885q4 31 31 31h252zM997 1579q-27 -10 -41 8l-30 35
q-16 20 10 41l229 180q27 14 39 -8l78 -96q12 -20 -8 -33zM711 1581q-23 -12 -39 8l-31 35q-16 20 10 41l230 180q23 14 39 -8l77 -98q12 -18 -10 -31z" />
    <glyph glyph-name="Umacron.ss01" horiz-adv-x="1390" 
d="M1368 1434q12 0 21.5 -8.5t7.5 -22.5l-150 -938q-72 -465 -506 -465h-213q-227 0 -317 131t-55 350l145 922q4 31 29 31h254q12 0 21 -8.5t7 -22.5l-143 -901q-37 -223 143 -223h101q92 0 153.5 63.5t79.5 175.5l139 885q4 31 31 31h252zM686 1620q-12 0 -20.5 9t-6.5 22
l17 100q4 31 33 31h399q12 0 21.5 -9.5t7.5 -23.5l-17 -98q-4 -31 -30 -31h-404z" />
    <glyph glyph-name="Uogonek.ss01" horiz-adv-x="1390" 
d="M1368 1434q12 0 21.5 -8.5t7.5 -22.5l-150 -938q-61 -389 -370 -453q-47 -39 -74 -65.5t-56.5 -75.5t-37.5 -106t47 -58q59 0 100 41q16 18 35 0l27 -31q14 -14 2 -34q-68 -102 -195 -103q-86 0 -139.5 49t-38.5 144q23 131 180 227h-199q-227 0 -317 131t-55 350
l145 922q4 31 29 31h254q12 0 21 -8.5t7 -22.5l-143 -901q-37 -223 143 -223h101q92 0 153.5 63.5t79.5 175.5l139 885q4 31 31 31h252z" />
    <glyph glyph-name="Uring.ss01" horiz-adv-x="1390" 
d="M1368 1434q12 0 21.5 -8.5t7.5 -22.5l-150 -938q-72 -465 -506 -465h-213q-227 0 -317 131t-55 350l145 922q4 31 29 31h254q12 0 21 -8.5t7 -22.5l-143 -901q-37 -223 143 -223h101q92 0 153.5 63.5t79.5 175.5l139 885q4 31 31 31h252zM876.5 1692q34.5 0 55 22.5
t25 55t-11 55t-48.5 22.5q-68 0 -82 -73q-6 -35 10.5 -58.5t51 -23.5zM862 1561q-86 0 -142 62.5t-40 157.5t78.5 146t149.5 51t143.5 -63.5t40.5 -157.5t-80 -145t-150 -51z" />
    <glyph glyph-name="W.ss01" horiz-adv-x="2023" 
d="M2081 1434q14 0 23.5 -14.5t2.5 -28.5l-696 -1366q-14 -25 -33 -25h-100q-25 0 -33 27l-174 778l-373 -782q-12 -23 -32 -23h-103q-27 0 -33 29l-307 1372q-6 33 25 33h237q27 0 33 -29l168 -803l373 809q8 23 28 23h140q23 0 28 -23l127 -809l422 813q10 18 31 19h246z
" />
    <glyph glyph-name="Wacute.ss01" horiz-adv-x="2023" 
d="M2081 1434q14 0 23.5 -14.5t2.5 -28.5l-696 -1366q-14 -25 -33 -25h-100q-25 0 -33 27l-174 778l-373 -782q-12 -23 -32 -23h-103q-27 0 -33 29l-307 1372q-6 33 25 33h237q27 0 33 -29l168 -803l373 809q8 23 28 23h140q23 0 28 -23l127 -809l422 813q10 18 31 19h246z
M1014 1575q-35 -10 -41 16l-12 58q-6 18 14 32l358 177q37 18 47 -15l37 -117q10 -33 -20 -40z" />
    <glyph glyph-name="Wcircumflex.ss01" horiz-adv-x="2023" 
d="M2081 1434q14 0 23.5 -14.5t2.5 -28.5l-696 -1366q-14 -25 -33 -25h-100q-25 0 -33 27l-174 778l-373 -782q-12 -23 -32 -23h-103q-27 0 -33 29l-307 1372q-6 33 25 33h237q27 0 33 -29l168 -803l373 809q8 23 28 23h140q23 0 28 -23l127 -809l422 813q10 18 31 19h246z
M1212 1890h17q18 0 47 -32l156 -156q14 -16 10 -41l-10 -68q-6 -35 -39 -8l-189 144l-239 -152q-12 -8 -21.5 -1t-7.5 19l12 70q6 27 27 43l194 164q23 18 43 18z" />
    <glyph glyph-name="Wdieresis.ss01" horiz-adv-x="2023" 
d="M2081 1434q14 0 23.5 -14.5t2.5 -28.5l-696 -1366q-14 -25 -33 -25h-100q-25 0 -33 27l-174 778l-373 -782q-12 -23 -32 -23h-103q-27 0 -33 29l-307 1372q-6 33 25 33h237q27 0 33 -29l168 -803l373 809q8 23 28 23h140q23 0 28 -23l127 -809l422 813q10 18 31 19h246z
M1348 1620q-43 0 -71 33t-21 71t33 58t66 20t65.5 -33.5t17.5 -76.5q-14 -72 -90 -72zM1063 1620q-43 0 -70.5 33t-20.5 71t32.5 58t65.5 20t65.5 -33.5t17.5 -76.5q-14 -72 -90 -72z" />
    <glyph glyph-name="Wgrave.ss01" horiz-adv-x="2023" 
d="M2081 1434q14 0 23.5 -14.5t2.5 -28.5l-696 -1366q-14 -25 -33 -25h-100q-25 0 -33 27l-174 778l-373 -782q-12 -23 -32 -23h-103q-27 0 -33 29l-307 1372q-6 33 25 33h237q27 0 33 -29l168 -803l373 809q8 23 28 23h140q23 0 28 -23l127 -809l422 813q10 18 31 19h246z
M1389 1577l-383 111q-31 8 -21 41l37 116q10 33 47 15l358 -177q20 -14 15 -32l-12 -58q-6 -26 -41 -16z" />
    <glyph glyph-name="A.ss04" horiz-adv-x="1255" 
d="M80 221h1022q12 0 20 -9t6 -22l-22 -161q-4 -29 -31 -29h-1026q-12 0 -20.5 9t-5.5 22l26 159q4 31 31 31zM551 692h252l-66 279l-8 30zM862 1434q18 0 27 -27l270 -1020q4 -12 -4 -22.5t-20 -10.5h-246q-20 0 -29 29l-31 111h-376l-60 -111q-20 -29 -35 -29h-260
q-12 0 -18 10.5t2 22.5l596 1022q18 25 31 25h153z" />
    <glyph glyph-name="B.ss04" horiz-adv-x="1138" 
d="M141 221h822q12 0 21 -9t7 -22l-24 -161q-4 -29 -31 -29h-825q-12 0 -20.5 9t-6.5 22l27 159q4 31 30 31zM639 563q119 0 139 123q14 106 -84 107h-182l-35 -230h162zM721 1227h-139l-37 -228h127q115 0 135 123q14 105 -86 105zM711 358h-543q-12 0 -20.5 9.5t-6.5 19.5
l162 1018q4 29 29 29h512q137 0 208.5 -78t47.5 -228q-29 -178 -170 -231q166 -59 131 -262q-18 -125 -105.5 -201t-244.5 -76z" />
    <glyph glyph-name="C.ss04" horiz-adv-x="1239" 
d="M152 221h874q12 0 21.5 -9t7.5 -22l-25 -161q-4 -29 -29 -29h-878q-12 0 -21.5 9t-7.5 22l29 159q4 31 29 31zM651 342q-238 0 -376 156.5t-97 409.5t219 397.5t412 144.5q162 0 279.5 -65.5t162.5 -149.5q10 -23 -2 -33l-166 -133q-23 -20 -43 6q-90 125 -224 125
t-230.5 -89t-116.5 -228t40 -216t183 -77q154 0 279 143q25 23 49 0l125 -141q25 -25 0 -51q-72 -84 -199 -141.5t-295 -57.5z" />
    <glyph glyph-name="D.ss04" horiz-adv-x="1228" 
d="M141 221h873q12 0 20 -9t6 -22l-22 -161q-4 -29 -31 -29h-876q-12 0 -20.5 9t-6.5 22l27 159q4 31 30 31zM598 606q191 0 260 148q29 62 45 157q25 170 -25.5 221.5t-172.5 51.5h-144l-92 -578h129zM584 358h-412q-10 0 -20.5 13.5t-8.5 25.5l162 1016q2 20 25 21h418
q180 0 296 -64q68 -38 103 -100q91 -162 45 -393q-50 -319 -226 -427q-87 -54 -176.5 -73t-205.5 -19z" />
    <glyph glyph-name="E.ss04" horiz-adv-x="1024" 
d="M141 221h713q12 0 20.5 -9t6.5 -22l-23 -161q-4 -29 -31 -29h-716q-10 0 -19.5 9t-7.5 22l27 159q4 31 30 31zM915 606q12 0 21.5 -9t7.5 -22l-29 -188q-4 -29 -30 -29h-717q-12 0 -20.5 9.5t-6.5 19.5l162 1018q4 29 29 29h717q10 0 19 -9.5t7 -21.5l-28 -189
q-4 -31 -31 -30h-455l-29 -176h267q12 0 21 -9.5t7 -21.5l-26 -162q-4 -29 -29 -29h-272l-29 -180h444z" />
    <glyph glyph-name="F.ss04" horiz-adv-x="1017" 
d="M143 221h705q12 0 20.5 -9t5.5 -22l-22 -161q-4 -29 -31 -29h-708q-12 0 -20.5 9t-6.5 22l27 159q4 31 30 31zM1040 1434q12 0 21.5 -9.5t7.5 -19.5l-29 -191q-4 -31 -30 -30h-449l-33 -213h289q10 0 19.5 -8.5t7.5 -20.5l-31 -190q-4 -29 -29 -29h-297l-51 -336
q-4 -29 -28 -29h-240q-12 0 -20.5 9.5t-6.5 19.5l162 1018q4 29 29 29h708z" />
    <glyph glyph-name="G.ss04" horiz-adv-x="1273" 
d="M135 221h944q10 0 19.5 -9t7.5 -22l-25 -161q-4 -29 -28 -29h-947q-12 0 -21 9t-7 22l28 159q4 31 29 31zM1198 956q10 0 19.5 -8t7.5 -20l-72 -443q-4 -27 -29 -39q-182 -104 -425.5 -104t-398.5 132q-168 142 -118 452q26 160 126 287q189 237 488.5 237t442.5 -176
q20 -25 -2 -43l-141 -125q-27 -25 -56 4q-82 90 -220 90t-232 -81t-118 -231t42 -224t186.5 -74t204.5 53l15 96h-117q-14 0 -22.5 9.5t-6.5 19.5l29 160q4 29 28 28h369z" />
    <glyph glyph-name="H.ss04" horiz-adv-x="1284" 
d="M143 221h926q12 0 20.5 -9t6.5 -22l-23 -161q-4 -29 -31 -29h-929q-12 0 -20.5 9t-6.5 22l27 159q4 31 30 31zM1264 1434q10 0 18 -9.5t6 -21.5l-160 -1016q-4 -29 -28 -29h-240q-12 0 -20.5 9.5t-5.5 19.5l61 385h-399l-60 -385q-4 -29 -28 -29h-240q-12 0 -20.5 9.5
t-6.5 19.5l162 1018q4 29 29 29h237q12 0 20.5 -9.5t6.5 -21.5l-61 -381h399l61 383q4 29 29 29h240z" />
    <glyph glyph-name="I.ss04" horiz-adv-x="589" 
d="M143 221h232q12 0 21.5 -9t6.5 -22l-24 -161q-4 -29 -31 -29h-235q-12 0 -20.5 9t-6.5 22l27 159q4 31 30 31zM168 358q-12 0 -20.5 9.5t-6.5 19.5l162 1018q4 29 29 29h237q12 0 20.5 -9.5t6.5 -21.5l-160 -1016q-4 -29 -28 -29h-240z" />
    <glyph glyph-name="J.ss04" horiz-adv-x="999" 
d="M92 221h694q12 0 20.5 -9t6.5 -22l-22 -161q-4 -29 -31 -29h-699q-12 0 -21 9t-7 22l28 159q4 31 31 31zM979 1434q12 0 21.5 -8.5t7.5 -22.5l-105 -653q-33 -207 -135 -307.5t-311 -100.5q-264 0 -346 248q-6 20 12 31l182 84q27 12 33 -13q33 -86 113 -86
q135 0 163 176l99 621q4 31 30 31h236z" />
    <glyph glyph-name="K.ss04" horiz-adv-x="1222" 
d="M141 221h928q12 0 21.5 -9t7.5 -22l-25 -161q-4 -29 -31 -29h-931q-12 0 -20.5 9t-6.5 22l27 159q4 31 30 31zM406 358h-236q-12 0 -21.5 13.5t-7.5 25.5l160 1008q4 29 29 29h237q12 0 20.5 -9.5t6.5 -21.5l-70 -420l424 428q18 23 56 23h258q16 0 24 -16.5t-4 -26.5
l-530 -498l356 -506q8 -10 5 -19.5t-15 -9.5h-258q-31 0 -52 27l-288 403l-66 -401q-4 -29 -28 -29z" />
    <glyph glyph-name="L.ss04" horiz-adv-x="1015" 
d="M143 221h723q12 0 21.5 -9t7.5 -22l-25 -161q-4 -29 -30 -29h-727q-12 0 -20.5 9t-6.5 22l27 159q4 31 30 31zM930 606q12 0 20 -9t6 -22l-28 -188q-4 -29 -31 -29h-729q-10 0 -19.5 9.5t-7.5 21.5l162 1016q4 29 29 29h237q31 0 27 -31l-127 -797h461z" />
    <glyph glyph-name="M.ss04" horiz-adv-x="1488" 
d="M143 221h1131q12 0 21.5 -9t7.5 -22l-25 -161q-4 -29 -31 -29h-1134q-12 0 -20.5 9t-6.5 22l27 159q4 31 30 31zM1468 1434q12 0 20.5 -9.5t6.5 -21.5l-160 -1016q-4 -29 -28 -29h-240q-12 0 -20.5 8.5t-6.5 20.5l86 535l-329 -541q-14 -23 -37 -23h-35q-23 0 -33 29
l-170 535l-86 -535q-4 -29 -28 -29h-240q-12 0 -20.5 8.5t-6.5 20.5l162 1018q4 29 29 29h225q31 0 43 -39l207 -611l389 629q12 20 39 21h233z" />
    <glyph glyph-name="N.ss04" horiz-adv-x="1273" 
d="M141 221h918q12 0 21.5 -9t6.5 -22l-24 -161q-4 -29 -31 -29h-921q-12 0 -20.5 9t-6.5 22l27 159q4 31 30 31zM1253 1434q10 0 19.5 -9.5t7.5 -21.5l-160 -1016q-4 -29 -30 -29h-195q-20 0 -37 25l-330 573l-92 -569q-4 -29 -28 -29h-240q-12 0 -20.5 8.5t-6.5 20.5
l162 1018q4 29 29 29h205q25 0 36 -29l320 -574l92 574q4 29 31 29h237z" />
    <glyph glyph-name="O.ss04" horiz-adv-x="1376" 
d="M137 221h1030q10 0 19.5 -9t7.5 -22l-25 -161q-4 -29 -28 -29h-1035q-12 0 -20 9t-6 22l26 159q4 31 31 31zM704 590q129 0 228.5 85t122 230t-42 220t-193.5 75t-228 -86t-122 -230t41.5 -219t193.5 -75zM684 342q-242 0 -395.5 149.5t-110.5 419.5q30 176 134 302
q197 237 524 237q158 0 281.5 -61.5t190 -194.5t38.5 -317q-41 -258 -230.5 -396.5t-431.5 -138.5z" />
    <glyph glyph-name="P.ss04" horiz-adv-x="1069" 
d="M143 221h734q10 0 19 -9t7 -22l-24 -161q-4 -29 -29 -29h-737q-12 0 -20.5 9t-6.5 22l27 159q4 31 30 31zM631 909q129 0 155 160q18 123 -98 123h-125l-45 -283h113zM680 666h-201l-43 -279q-4 -29 -28 -29h-240q-31 0 -27 29l162 1018q4 29 29 29h467
q154 0 231.5 -96.5t45.5 -297.5t-140.5 -287.5t-255.5 -86.5z" />
    <glyph glyph-name="Q.ss04" horiz-adv-x="1376" 
d="M1167 221q10 0 19.5 -9t7.5 -22l-25 -161q-4 -29 -28 -29h-1035q-12 0 -20 9t-6 22l26 159q4 31 31 31h1030zM704 590q129 0 228.5 85t122 230t-42 220t-193.5 75t-228 -85.5t-122 -230t41.5 -219.5t193.5 -75zM839 1450q155 0 278.5 -61.5t190 -194.5t38 -315
t-141.5 -316l62 -69q16 -18 0 -35l-140 -123q-23 -16 -41 2l-69 80q-150 -76 -328 -76q-246 0 -399.5 149.5t-110.5 419.5q29 176 133.5 302t238.5 181.5t289 55.5z" />
    <glyph glyph-name="R.ss04" horiz-adv-x="1155" 
d="M143 221h854q12 0 21.5 -9t7.5 -22l-25 -161q-4 -29 -28 -29h-860q-12 0 -20.5 9t-6.5 22l27 159q4 31 30 31zM688 934q135 0 158 147q8 66 -16.5 88.5t-90.5 22.5h-176l-41 -258h166zM1036 358h-233q-20 0 -33 23l-166 311h-121l-47 -305q-4 -29 -30 -29h-238
q-31 0 -27 29l162 1018q4 29 29 29h497q158 0 246 -104.5t62.5 -267.5t-86 -232.5t-154.5 -118.5l154 -320q8 -14 3 -23.5t-18 -9.5z" />
    <glyph glyph-name="S.ss04" horiz-adv-x="1116" 
d="M121 221h805q12 0 20 -9t6 -22l-24 -161q-4 -29 -29 -29h-809q-12 0 -20.5 9t-6.5 22l27 159q4 31 31 31zM578 340q-305 0 -433 192q-12 23 5 35l149 125q16 12 31 -2q113 -111 241 -110q72 0 125.5 28.5t59.5 69.5t-15.5 60.5t-46 27.5t-84.5 22q-203 41 -309 122
t-80.5 232.5t148.5 229.5t289 78t278.5 -50t155.5 -118q16 -29 -2 -41l-152 -121q-20 -12 -37 4q-86 86 -237.5 86t-153.5 -88q-2 -41 34 -61.5t122 -41.5t137 -37q139 -44 195 -108q71 -81 46.5 -221.5t-145 -226.5t-321.5 -86z" />
    <glyph glyph-name="T.ss04" horiz-adv-x="1081" 
d="M82 221h846q12 0 21 -9t7 -22l-24 -161q-4 -29 -29 -29h-852q-12 0 -20 9t-6 22l26 159q4 31 31 31zM1120 1434q12 0 21.5 -9.5t7.5 -21.5l-31 -189q-4 -31 -28 -30h-283l-125 -797q-4 -29 -31 -29h-237q-12 0 -20.5 9.5t-6.5 19.5l125 797h-274q-12 0 -20.5 9t-6.5 21
l31 191q4 29 28 29h850z" />
    <glyph glyph-name="U.ss04" horiz-adv-x="1253" 
d="M147 221h885q12 0 21.5 -9t7.5 -22l-25 -161q-4 -29 -28 -29h-889q-12 0 -21.5 9t-7.5 22l29 159q4 31 28 31zM1249 1434q12 0 20.5 -9.5t6.5 -21.5l-92 -557q-37 -248 -166 -376t-389 -128q-518 0 -432 522l88 539q4 31 28 31h238q31 0 27 -31l-86 -526
q-23 -152 11 -219.5t141.5 -67.5t170 74.5t84.5 230.5l84 508q4 31 29 31h237z" />
    <glyph glyph-name="V.ss04" horiz-adv-x="1255" 
d="M72 221h1038q12 0 21.5 -9t7.5 -22l-25 -161q-4 -29 -31 -29h-1042q-12 0 -20.5 9t-6.5 22l27 159q4 31 31 31zM1307 1434q12 0 20 -13.5t0 -25.5l-588 -1008q-14 -29 -34 -29h-168q-20 0 -29 29l-275 1016q-8 31 23 31h213q31 0 39 -31l164 -653l375 661q12 23 38 23
h222z" />
    <glyph glyph-name="W.ss04" horiz-adv-x="1656" 
d="M72 221h1441q10 0 19.5 -9t7.5 -22l-24 -161q-4 -29 -29 -29h-1446q-12 0 -20.5 9t-6.5 22l27 159q4 31 31 31zM1710 1434q14 0 20.5 -10.5t0.5 -22.5l-490 -1022q-12 -20 -29 -21h-168q-20 0 -26 23l-111 547l-282 -551q-8 -18 -27 -19h-166q-23 0 -29 29l-172 1014
q-2 33 29 33h221q23 0 27 -29l84 -604l309 610q8 23 33 23h86q20 0 29 -29l131 -606l278 612q10 23 33 23h219z" />
    <glyph glyph-name="X.ss04" horiz-adv-x="1216" 
d="M92 221h959q12 0 21 -9t7 -22l-24 -161q-4 -29 -29 -29h-965q-12 0 -20 9t-6 22l26 159q4 31 31 31zM1079 358h-243q-25 0 -39 27l-144 285l-223 -291q-18 -20 -49 -21h-270q-12 0 -18.5 14.5t3.5 26.5l422 504l-233 494q-8 16 -3 26.5t19 10.5h248q29 0 39 -25l129 -283
l221 285q14 23 41 23h268q14 0 19.5 -15.5t-2.5 -27.5l-412 -488l250 -508q6 -12 -1 -24.5t-22 -12.5z" />
    <glyph glyph-name="Y.ss04" horiz-adv-x="1136" 
d="M72 221h919q12 0 20.5 -9t6.5 -22l-23 -161q-4 -29 -30 -29h-924q-12 0 -20.5 9t-6.5 22l27 159q4 31 31 31zM1186 1434q16 0 23.5 -14.5t-3.5 -33.5l-434 -616l-63 -383q-4 -29 -29 -29h-240q-10 0 -19 8.5t-7 20.5l63 389l-241 623q-6 14 0 24.5t20 10.5h238
q31 0 41 -33l129 -336l237 342q16 27 47 27h238z" />
    <glyph glyph-name="Z.ss04" horiz-adv-x="1087" 
d="M84 221h848q10 0 19.5 -9t6.5 -22l-24 -161q-4 -29 -29 -29h-852q-12 0 -20 9t-6 22l26 159q4 31 31 31zM297 1184q-10 0 -19.5 9t-7.5 21l31 191q4 29 29 29h796q16 0 22.5 -18.5t-3.5 -31.5l-598 -778h450q27 0 23 -31l-29 -188q-4 -29 -28 -29h-859q-16 0 -21 13.5
t5 25.5l600 787h-391z" />
    <glyph glyph-name="B.ss05" horiz-adv-x="1198" 
d="M141 221h863q10 0 19 -9t7 -22l-24 -161q-4 -29 -29 -29h-866q-12 0 -20.5 9t-6.5 22l27 159q4 31 30 31zM698 563q117 0 138 123q14 106 -82 107h-242l-35 -230h221zM780 1227h-198l-37 -228h188q113 0 133 123q14 105 -86 105zM770 358h-602q-12 0 -20.5 9.5t-6.5 19.5
l162 1018q4 29 29 29h571q137 0 209 -78t47 -232t-151 -227q70 -31 101 -89t12 -178t-106 -196t-245 -76z" />
    <glyph glyph-name="C.ss05" horiz-adv-x="1122" 
d="M133 221h791q12 0 21 -9t7 -22l-24 -161q-4 -29 -29 -29h-795q-12 0 -21 9t-7 22l28 159q4 31 29 31zM584 342q-227 0 -341 141.5t-68 426t194.5 412.5t337 128t292 -90t113.5 -262q4 -31 -20 -35l-197 -33q-33 -4 -35 23q-18 147 -143 147q-207 0 -252 -323
q-41 -287 145 -287q137 0 201 162q6 16 35 12l194 -41q25 -8 15 -37q-53 -170 -176 -257t-295 -87z" />
    <glyph glyph-name="D.ss05" horiz-adv-x="1226" 
d="M143 221h875q12 0 21.5 -9t7.5 -22l-25 -161q-4 -29 -31 -29h-878q-12 0 -20.5 9t-6.5 22l27 159q4 31 30 31zM811 1184h-250l-92 -578h236q145 0 182 221l24 158q18 106 -3 152.5t-97 46.5zM872 1434q406 0 330 -471l-24 -150q-39 -240 -149.5 -347.5t-313.5 -107.5
h-547q-12 0 -20.5 9.5t-6.5 19.5l162 1018q4 29 29 29h540z" />
    <glyph glyph-name="E.ss05" horiz-adv-x="1114" 
d="M143 221h801q12 0 21.5 -9t7.5 -22l-25 -161q-4 -29 -30 -29h-805q-12 0 -20.5 9t-6.5 22l27 159q4 31 30 31zM1008 606q10 0 19 -9t7 -22l-28 -188q-4 -29 -31 -29h-807q-12 0 -20.5 9.5t-6.5 19.5l162 1018q4 29 29 29h807q12 0 20 -9.5t6 -21.5l-28 -189
q-4 -31 -31 -30h-545l-26 -176h278q12 0 21.5 -9.5t7.5 -21.5l-27 -162q-4 -29 -29 -29h-286l-31 -180h539z" />
    <glyph glyph-name="F.ss05" horiz-adv-x="1146" 
d="M143 221h834q12 0 21.5 -9t7.5 -22l-25 -161q-4 -29 -31 -29h-837q-12 0 -20.5 9t-6.5 22l27 159q4 31 30 31zM1169 1434q12 0 21.5 -9.5t7.5 -21.5l-31 -189q-4 -31 -28 -30h-578l-33 -213h299q12 0 21.5 -8.5t7.5 -20.5l-31 -190q-4 -29 -30 -29h-308l-51 -336
q-4 -29 -28 -29h-240q-12 0 -20.5 9.5t-6.5 19.5l162 1018q4 29 29 29h837z" />
    <glyph glyph-name="G.ss05" horiz-adv-x="1179" 
d="M133 221h848q10 0 19.5 -9t7.5 -22l-25 -161q-4 -29 -29 -29h-850q-12 0 -21 9t-7 22l28 159q4 31 29 31zM1098 952q12 0 21 -9t7 -21l-86 -535q-4 -29 -28 -29h-125q-23 0 -27 25v80q-98 -121 -299 -121t-316.5 136t-69.5 428t195.5 418t354.5 126t307.5 -96.5
t102.5 -237.5q0 -29 -19 -33l-203 -32q-29 -4 -32 22q-10 127 -133 127q-231 0 -283 -321q-47 -289 147 -289q92 0 147.5 43t71.5 115h-106q-14 0 -22.5 9t-6.5 21l25 146q4 29 31 28h346z" />
    <glyph glyph-name="I.ss05" horiz-adv-x="747" 
d="M121 221h436q12 0 20.5 -9t6.5 -22l-25 -161q-6 -29 -31 -29h-436q-12 0 -20.5 9t-5.5 22l24 159q4 31 31 31zM715 1184h-74l-92 -578h67q12 0 21.5 -9t7.5 -22l-31 -188q-4 -29 -30 -29h-437q-12 0 -20 8.5t-6 20.5l31 193q4 27 28 26h76l90 578h-67q-12 0 -20.5 9
t-6.5 21l31 191q4 29 30 29h435q12 0 21 -9.5t7 -21.5l-31 -189q-3 -30 -30 -30z" />
    <glyph glyph-name="M.ss05" horiz-adv-x="1413" 
d="M143 221h1055q12 0 21.5 -9t7.5 -22l-25 -161q-4 -29 -28 -29h-1061q-12 0 -20.5 9t-6.5 22l27 159q4 31 30 31zM1171 1434h222q12 0 20 -9.5t6 -21.5l-159 -1016q-4 -29 -29 -29h-240q-12 0 -20 8.5t-6 20.5l92 571l-269 -387q-16 -20 -34 -20h-35q-23 0 -35 29
l-156 378l-92 -571q-4 -29 -28 -29h-242q-10 0 -18.5 8.5t-6.5 20.5l164 1026q2 20 14 21h228q31 0 47 -35l199 -453l337 465q16 23 41 23z" />
    <glyph glyph-name="N.ss05" horiz-adv-x="1265" 
d="M143 221h908q12 0 21 -9t7 -22l-24 -161q-4 -29 -31 -29h-911q-12 0 -20.5 9t-6.5 22l27 159q4 31 30 31zM1245 1434q12 0 20.5 -9.5t6.5 -21.5l-160 -1016q-4 -29 -29 -29h-194q-27 0 -41 27l-320 571l-92 -569q-4 -29 -28 -29h-240q-12 0 -20.5 8.5t-6.5 20.5l162 1018
q4 29 29 29h203q27 0 38 -29l314 -561l92 561q4 29 29 29h237z" />
    <glyph glyph-name="O.ss05" horiz-adv-x="1218" 
d="M141 221h869q12 0 20 -9t6 -22l-22 -161q-4 -29 -31 -29h-872q-12 0 -20.5 9t-6.5 22l27 159q4 31 30 31zM625 590q102 0 175.5 85t100.5 236q45 289 -158 289q-106 0 -180 -84t-97.5 -231t17 -221t142.5 -74zM601.5 342q-233.5 0 -354 139.5t-70.5 433.5t207 414.5
t384.5 120.5t348 -139.5t73.5 -428t-201 -414.5t-387.5 -126z" />
    <glyph glyph-name="P.ss05" horiz-adv-x="1144" 
d="M143 221h803q12 0 21.5 -9t7.5 -22l-25 -161q-4 -29 -30 -29h-807q-12 0 -20.5 9t-6.5 22l27 159q4 31 30 31zM705 909q131 0 155 152q20 131 -100 131h-197l-45 -283h187zM752 666h-273l-43 -279q-4 -29 -28 -29h-240q-31 0 -27 29l162 1018q4 29 29 29h540
q154 0 232 -95.5t46 -297.5t-141.5 -288.5t-256.5 -86.5z" />
    <glyph glyph-name="Q.ss05" horiz-adv-x="1218" 
d="M1010 221q12 0 20 -9t6 -22l-22 -161q-4 -29 -31 -29h-872q-12 0 -20.5 9t-6.5 22l27 159q4 31 30 31h869zM624.5 590q102.5 0 176 85t100.5 236q45 289 -158 289q-106 0 -179.5 -83.5t-97.5 -231t16 -221.5t142.5 -74zM612 342q-244 0 -364.5 139.5t-70.5 433.5
t207 414.5t384.5 120.5t348 -139.5t73.5 -433.5q-35 -213 -137 -345l57 -65q18 -23 -4 -45l-131 -115q-27 -23 -47 6l-66 76q-109 -47 -250 -47z" />
    <glyph glyph-name="R.ss05" horiz-adv-x="1179" 
d="M141 221h860q12 0 21.5 -9t7.5 -22l-24 -161q-4 -29 -31 -29h-864q-12 0 -20.5 9t-6.5 22l27 159q4 31 30 31zM735 936q121 0 142 139q10 63 -12.5 90t-84.5 27h-217l-41 -256h213zM408 358h-240q-31 0 -27 29l162 1018q4 29 33 29h524q367 0 307 -381
q-35 -213 -213 -299q102 -121 103 -363q0 -33 -29 -33h-229q-27 0 -27 29q0 199 -92 309h-195l-49 -309q-4 -29 -28 -29z" />
    <glyph glyph-name="U.ss05" horiz-adv-x="1214" 
d="M180 221h783q12 0 21 -9t7 -22l-24 -161q-4 -29 -31 -29h-786q-12 0 -20.5 9t-6.5 22l27 159q4 31 30 31zM1194 1434q12 0 20.5 -9.5t6.5 -21.5l-107 -678q-33 -203 -140.5 -292t-324.5 -89h-98q-215 0 -300 100.5t-54 298.5l104 660q4 31 29 31h237q31 0 27 -31
l-100 -639q-16 -96 6 -133t75 -37h99q53 0 95 46t58 142l99 621q4 31 30 31h238z" />
    <glyph glyph-name="W.ss05" horiz-adv-x="1705" 
d="M80 221h1468q12 0 20.5 -9t6.5 -22l-23 -161q-4 -29 -30 -29h-1473q-12 0 -20.5 9t-5.5 22l26 159q4 31 31 31zM1749 1434q14 0 21.5 -13.5t-1.5 -29.5l-528 -1004q-14 -29 -37 -29h-151q-20 0 -29 29l-96 504l-252 -508q-14 -25 -35 -25h-152q-18 0 -26 29l-221 1014
q-2 33 28 33h222q18 0 26 -29l117 -590l276 592q12 27 31 27h125q23 0 27 -29l90 -590l303 590q18 29 37 29h225z" />
    <glyph glyph-name="i.loclTRK" horiz-adv-x="512" 
d="M76 0q-12 0 -21.5 9t-7.5 22l127 807q4 29 29 28h235q12 0 21.5 -9t7.5 -21l-127 -807q-4 -29 -31 -29h-233zM372 1057q-54 0 -92 46t-29 100t49 86t94 32t91 -47t27 -102.5t-48 -85t-92 -29.5z" />
    <glyph glyph-name="ae.ss01" horiz-adv-x="1490" 
d="M417.5 154q57.5 0 100.5 41t51 96q19 108 -103 108q-62 0 -102 -40t-47.5 -90t18 -82.5t83 -32.5zM1057 696q-70 0 -117 -48t-59 -124l276 2q23 170 -100 170zM1106.5 883q180.5 0 261 -136.5t43.5 -386.5q-4 -25 -35 -24h-514q14 -143 150 -143q82 0 166 57
q29 18 49 -10l71 -125q14 -27 -6 -45q-43 -39 -125 -62.5t-172 -23.5q-190 0 -303 112q-123 -113 -324.5 -112.5t-272 88.5t-50.5 214t111.5 192.5t227 66.5t216.5 -45l10 59q10 63 -16.5 90t-116.5 27t-201 -37q-16 -6 -28 5t-15 24l-4 127q-4 29 23 39q109 49 300 49
t247 -92q127 92 307.5 92z" />
    <glyph glyph-name="b.ss01" horiz-adv-x="1032" 
d="M477 203q80 0 137.5 68.5t73.5 170.5q35 222 -117 222q-76 0 -118.5 -56.5t-65.5 -177.5q-37 -227 90 -227zM633 883q195 0 277.5 -135.5t51 -326.5t-143 -314t-298.5 -123q-137 0 -217 102l-29 -53q-14 -33 -41 -33h-157q-12 0 -21.5 9t-7.5 22l219 1388q4 31 29 31h237
q10 0 19.5 -9t7.5 -22l-94 -594q82 58 168 58z" />
    <glyph glyph-name="c.ss01" horiz-adv-x="964" 
d="M423.5 -16q-180.5 0 -283.5 133t-69 331t167 316.5t299 118.5t255 -87t97 -216q0 -27 -19 -29l-172 -27q-29 -4 -30 19q-8 87 -54 109q-24 12 -61 12q-168 0 -211 -252q-33 -209 119 -209q117 0 166 114q12 23 30 21l174 -31q25 -6 19 -39q-23 -96 -134.5 -190t-292 -94z
" />
    <glyph glyph-name="cacute.ss01" horiz-adv-x="964" 
d="M423.5 -16q-180.5 0 -283.5 133t-69 331t167 316.5t299 118.5t255 -87t97 -216q0 -27 -19 -29l-172 -27q-29 -4 -30 19q-8 87 -54 109q-24 12 -61 12q-168 0 -211 -252q-33 -209 119 -209q117 0 166 114q12 23 30 21l174 -31q25 -6 19 -39q-23 -96 -134.5 -190t-292 -94z
M463 963q-29 -18 -41 8l-27 49q-14 20 4 41l314 293q10 10 24.5 7t18.5 -15l69 -125q12 -25 -8 -39z" />
    <glyph glyph-name="ccaron.ss01" horiz-adv-x="964" 
d="M423.5 -16q-180.5 0 -283.5 133t-69 331t167 316.5t299 118.5t255 -87t97 -216q0 -27 -19 -29l-172 -27q-29 -4 -30 19q-8 87 -54 109q-24 12 -61 12q-168 0 -211 -252q-33 -209 119 -209q117 0 166 114q12 23 30 21l174 -31q25 -6 19 -39q-23 -96 -134.5 -190t-292 -94z
M582 1006h-19q-23 0 -45 32l-139 168q-23 27 -21 51l9 48q6 37 47 4l172 -152l231 158q20 12 30.5 3t8.5 -28l-8 -39q-6 -33 -23 -45l-202 -182q-18 -18 -41 -18z" />
    <glyph glyph-name="ccedilla.ss01" horiz-adv-x="964" 
d="M537 883q166 0 255 -87t97 -216q0 -27 -19 -29l-172 -27q-29 -4 -30 19q-8 87 -54 109q-24 12 -61 12q-168 0 -211 -252q-33 -209 119 -209q117 0 166 114q12 23 30 21l174 -31q25 -6 19 -39q-20 -88 -120.5 -179t-250.5 -103l-43 -64q84 2 124 -47t27 -124t-65.5 -118
t-131.5 -43t-121 30t-52 58q-8 14 4 21l47 41q16 12 36 -10.5t54 -22.5q82 0 91 80q6 41 -20 48t-44 -11t-37 -12h-8l-70 24q-20 6 -10 25l82 133q-152 33 -225.5 159t-42.5 309.5t164 302t299 118.5z" />
    <glyph glyph-name="cdotaccent.ss01" horiz-adv-x="964" 
d="M423.5 -16q-180.5 0 -283.5 133t-69 331t167 316.5t299 118.5t255 -87t97 -216q0 -27 -19 -29l-172 -27q-29 -4 -30 19q-8 87 -54 109q-24 12 -61 12q-168 0 -211 -252q-33 -209 119 -209q117 0 166 114q12 23 30 21l174 -31q25 -6 19 -39q-23 -96 -134.5 -190t-292 -94z
M580 1028q-47 0 -80 40t-24 86t43 73.5t80 27.5t79 -39.5t23.5 -88t-42 -74t-79.5 -25.5z" />
    </font>
</defs>
</svg>
