<?xml version="1.0" standalone="no"?>
<!DOCTYPE svg PUBLIC "-//W3C//DTD SVG 1.1//EN" "http://www.w3.org/Graphics/SVG/1.1/DTD/svg11.dtd" >
<svg xmlns="http://www.w3.org/2000/svg">
<metadata>
Created by FontPrep 20130207 at Tue Apr  4 15:34:44 2017
 By Tina Muller
Copyright 2016 by Paulo Goode. All rights reserved.
</metadata>
<defs>
<font id="0d92725ca45714ffba5c9d4851f6686d" horiz-adv-x='1024' >
  <font-face 
    font-family="WoodfordBournePRO-SemiBoldItalic"
    font-weight="600"
    font-style="italic"
    font-stretch="normal"
    units-per-em="2048"
    panose-1="0 0 7 0 0 0 0 0 0 0"
    ascent="1638"
    descent="-410"
    x-height="866"
    cap-height="1434"
    bbox="-1395.88 -588 5122 1958"
    underline-thickness="102"
    underline-position="-102"
    slope="-9"
    unicode-range="U+0020-FB02"
  />
<missing-glyph horiz-adv-x="1921" 
d="M1122 635l193 -234q23 -27 -2 -51l-82 -69q-27 -23 -49 4l-197 231l-272 -235q-25 -23 -51 4l-72 86q-20 25 6 51l272 233l-196 234q-25 25 4 49l82 72q29 23 49 -6l199 -232l270 236q29 25 49 -4l74 -84q23 -29 -4 -52zM1286 -111h178l244 1543h-172q-31 0 -27 28
l29 180q4 29 29 29h407q12 0 22 -9t7 -22l-309 -1955q-4 -31 -33 -31h-406q-33 0 -28 29l28 182q6 26 31 26zM788 1432h-178l-243 -1543h172q31 0 26 -28l-28 -180q-4 -29 -29 -29h-408q-12 0 -21 9t-7 22l309 1955q4 31 33 31h405q33 0 29 -29l-29 -182q-6 -26 -31 -26z
" />
    <glyph glyph-name="fi" unicode="fi" horiz-adv-x="1132" 
d="M719 1450q209 0 338 -111q29 -20 6 -47l-86 -94q-20 -27 -43 -6q-72 59 -167 59t-155 -60t-77 -169l-25 -156h545q12 0 20 -9t6 -21l-129 -816q-2 -20 -26 -20h-193q-12 0 -21 12t-7 25l98 629h-326l-127 -807q-4 -31 -28 -31h-197q-10 0 -20 10q-9 10 -7 21l129 807h-84
q-12 0 -20 9t-6 21l22 142q4 29 31 28h90l27 181q63 403 432 403z" />
    <glyph glyph-name="fl" unicode="fl" horiz-adv-x="1132" 
d="M1145 1450q12 0 20 -9t6 -22l-219 -1390q-4 -29 -28 -29h-195q-12 0 -20 9t-7 22l154 977q18 113 -6 166q-25 53 -113 53q-172 0 -209 -242l-18 -119h154q12 0 20 -9t6 -21l-20 -140q-4 -31 -31 -30h-162l-127 -807q-4 -31 -28 -31h-197q-10 0 -20 10q-9 10 -7 21
l129 807h-84q-12 0 -20 9t-6 21l22 142q4 29 31 28h90l21 142q66 410 426 409q123 0 202 -76l13 80q4 29 30 29h193z" />
    <glyph glyph-name="f_f" unicode="ff" horiz-adv-x="1431" 
d="M726 1202q-162 0 -200 -227l-16 -109h326l20 142q10 102 -18 148q-29 46 -112 46zM1303 1251q-84 0 -129 -56t-64 -173l-25 -156h185q10 0 19 -9t7 -21l-22 -140q-4 -29 -29 -28h-192l-127 -809q-4 -31 -29 -31h-195q-12 0 -20 10t-6 21l127 809h-326l-127 -809
q-4 -31 -28 -31h-195q-12 0 -21 10q-8 10 -6 21l127 809h-84q-12 0 -20 9t-6 21l24 140q4 29 29 28h90l21 140q59 387 440 387q152 0 240 -84q104 141 309 141q157 -1 237 -64q23 -20 9 -43l-86 -104q-18 -23 -52 -5t-75 17z" />
    <glyph glyph-name="f_f_i" unicode="ffi" horiz-adv-x="1710" 
d="M726 1202q-162 0 -200 -227l-16 -109h326l20 138q10 104 -18 151q-29 47 -112 47zM1630 866q12 0 20 -9t7 -21l-129 -816q-2 -20 -27 -20h-192q-12 0 -22 12q-9 12 -7 25l98 629h-325l-127 -807q-4 -31 -29 -31h-197q-10 0 -19 10t-7 21l129 807h-84q-8 0 -10 2h-232
l-127 -809q-4 -31 -28 -31h-195q-12 0 -21 10q-8 10 -6 21l127 809h-84q-12 0 -20 9t-6 21l24 140q4 29 29 28h90l21 140q59 387 440 387q152 0 242 -86q109 143 325 143t344 -111q29 -20 6 -47l-86 -94q-20 -27 -43 -6q-72 59 -167 59t-155 -60t-77 -169l-25 -156h545z" />
    <glyph glyph-name="f_f_l" unicode="ffl" horiz-adv-x="1708" 
d="M726 1202q-162 0 -200 -227l-16 -109h326l20 142v2q8 102 -19 147q-28 45 -111 45zM1720 1450q12 0 20 -9t7 -22l-219 -1390q-4 -29 -29 -29h-194q-12 0 -21 9q-8 9 -6 22l154 977q18 113 -7 166t-112 53q-172 0 -209 -242l-19 -119h154q13 0 21 -9t6 -21l-21 -140
q-4 -31 -31 -30h-161l-127 -807q-4 -31 -29 -31h-197q-10 0 -19 10t-7 21l129 807h-84q-8 0 -10 2h-232l-127 -809q-4 -31 -28 -31h-195q-12 0 -21 10q-8 10 -6 21l127 809h-84q-12 0 -20 9t-6 21l24 140q4 29 29 28h90l21 140q59 387 440 387q158 0 254 -97
q106 121 307 121q123 0 203 -76l12 80q4 29 31 29h192z" />
    <glyph glyph-name=".notdef" horiz-adv-x="1921" 
d="M1122 635l193 -234q23 -27 -2 -51l-82 -69q-27 -23 -49 4l-197 231l-272 -235q-25 -23 -51 4l-72 86q-20 25 6 51l272 233l-196 234q-25 25 4 49l82 72q29 23 49 -6l199 -232l270 236q29 25 49 -4l74 -84q23 -29 -4 -52zM1286 -111h178l244 1543h-172q-31 0 -27 28
l29 180q4 29 29 29h407q12 0 22 -9t7 -22l-309 -1955q-4 -31 -33 -31h-406q-33 0 -28 29l28 182q6 26 31 26zM788 1432h-178l-243 -1543h172q31 0 26 -28l-28 -180q-4 -29 -29 -29h-408q-12 0 -21 9t-7 22l309 1955q4 31 33 31h405q33 0 29 -29l-29 -182q-6 -26 -31 -26z
" />
    <glyph glyph-name=".null" 
 />
    <glyph glyph-name="nonmarkingreturn" horiz-adv-x="681" 
 />
    <glyph glyph-name="space" unicode=" " horiz-adv-x="436" 
 />
    <glyph glyph-name="exclam" unicode="!" horiz-adv-x="624" 
d="M277 256q57 0 93 -47t26 -103t-50 -88q-41 -34 -97 -34t-94 44t-29 101t52 92t99 35zM248 397q-31 0 -27 31l103 991q4 31 30 31h234q33 0 26 -31l-211 -991q-6 -31 -30 -31h-125z" />
    <glyph glyph-name="quotedbl" unicode="&#x22;" horiz-adv-x="786" 
d="M610 926q-33 0 -28 30l28 508q4 31 31 31h174q11 0 19 -9t6 -22l-131 -510q-8 -29 -31 -28h-68zM272 926q-33 0 -28 30l28 508q4 31 31 31h174q11 0 19 -9t6 -22l-131 -510q-6 -29 -31 -28h-68z" />
    <glyph glyph-name="numbersign" unicode="#" horiz-adv-x="1474" 
d="M891 588l65 336h-268l-67 -336h270zM1374 1124q33 0 33 -30v-140q0 -31 -33 -30h-182l-68 -336h136q10 0 21 -8t11 -23v-139q0 -31 -35 -31h-180l-71 -356q-6 -31 -41 -31h-160q-37 0 -29 45l68 342h-271l-71 -356q-6 -31 -41 -31h-160q-37 0 -29 45l70 342h-139
q-33 0 -33 31v139q0 31 35 31h184l66 336h-138q-33 0 -32 30v140q0 31 32 30h183l59 295q6 31 39 31h172q31 0 23 -37l-60 -289h271l59 295q6 31 39 31h172q29 0 20 -37l-59 -289h139z" />
    <glyph glyph-name="dollar" unicode="$" horiz-adv-x="1325" 
d="M680 -156h-225q-12 0 -20.5 8.5t-6.5 20.5l18 119q-229 33 -362 188q-18 18 4 37l166 152q18 14 41 0q127 -119 336 -119q100 0 191 45t103.5 119t-45 107.5t-216.5 68.5q-266 55 -373 168.5t-82 264t146.5 264.5t318.5 151l20 116q6 35 35 35h225q33 0 27 -35l-20 -114
q221 -33 352 -164q20 -20 -2 -43l-166 -152q-20 -16 -39 -2q-123 104 -320 105q-125 0 -199.5 -41t-84.5 -110t55.5 -108.5t206.5 -70.5q266 -53 372.5 -162t73.5 -291q-25 -141 -145.5 -256.5t-329.5 -148.5l-20 -123q-4 -29 -35 -29z" />
    <glyph glyph-name="percent" unicode="%" horiz-adv-x="1968" 
d="M1499 172q150 0 197 295q26 109 8 187t-94 77q-150 0 -201 -295q-47 -264 90 -264zM1487 -16q-168 0 -236 112q-67 112 -27 363q40 250 134 355q94 106 262 106t234 -115t27 -364q-40 -249 -133 -353t-261 -104zM453 705q150 0 196 294q25 109 7 187q-17 78 -93 78
q-150 0 -201 -295q-46 -264 91 -264zM561 0q-14 0 -20 11t2 26l790 1374q16 23 39 23h129q15 0 21 -10t-2 -23l-789 -1370q-16 -31 -45 -31h-125zM440 516q-168 0 -236 113t-27 363q40 250 134 354q94 106 262 106t235 -115t27 -363q-39 -248 -133 -354q-94 -104 -262 -104z
" />
    <glyph glyph-name="ampersand" unicode="&#x26;" horiz-adv-x="1374" 
d="M486 205q72 0 128 38t129 119q-131 152 -219 283q-160 -117 -182 -256q-14 -86 29 -135t115 -49zM701 1260q-46 0 -84 -36t-48 -104t54 -196q154 115 168 215q8 55 -18 88t-72 33zM449 -16q-178 0 -278 117q-99 118 -69 290q20 113 98 207t230 197q-96 180 -77 323
q19 144 127 238t254 94t220 -87t53 -214t-95 -212t-191 -165q80 -121 188 -237q111 104 242 190q25 16 43 -6l78 -123q14 -25 -8 -41q-88 -55 -213 -176q122 -131 202 -207q18 -23 -2 -39l-135 -121q-27 -23 -45 -2q-135 135 -190 197q-213 -223 -432 -223z" />
    <glyph glyph-name="quotesingle" unicode="'" horiz-adv-x="448" 
d="M272 926q-33 0 -28 30l28 508q4 31 31 31h174q11 0 19 -9t6 -22l-131 -510q-6 -29 -31 -28h-68z" />
    <glyph glyph-name="parenleft" unicode="(" horiz-adv-x="780" 
d="M424 -209q-20 -16 -39 8q-109 135 -162 401t-12 521q41 256 157 488t271 401q18 18 41 4l133 -84q20 -20 6 -41q-125 -143 -222 -365t-124 -430q-72 -438 82 -782q12 -31 -6 -41z" />
    <glyph glyph-name="parenright" unicode=")" horiz-adv-x="780" 
d="M442 1612q20 16 39 -8q109 -134 162 -400q102 -513 -144 -1010q-116 -232 -272 -401q-18 -18 -41 -4l-133 84q-20 20 -6 41q125 144 222 366t124 429q72 438 -82 782q-12 31 6 41z" />
    <glyph glyph-name="asterisk" unicode="*" horiz-adv-x="792" 
d="M477 1450h92q29 0 23 -25l-57 -186l4 -4l180 82q24 10 31 -17l14 -88q4 -27 -21 -32l-194 -31v-4l108 -139q14 -23 -12 -35l-84 -56q-25 -12 -35 11l-59 161h-4l-107 -165q-17 -23 -37 -7l-69 56q-23 18 -2 35l155 139l-2 4l-184 31q-23 6 -10 32l43 88q6 25 33 17
l159 -82l2 4l2 186q0 25 31 25z" />
    <glyph glyph-name="plus" unicode="+" horiz-adv-x="1107" 
d="M1008 791q35 0 28 -31l-20 -121q-6 -29 -37 -29h-295l-49 -309q-6 -33 -37 -33h-141q-31 0 -25 33l47 309h-295q-35 0 -28 31l20 121q6 29 37 29h295l49 311q6 31 35 31h143q31 0 25 -33l-47 -309h295z" />
    <glyph glyph-name="comma" unicode="," horiz-adv-x="520" 
d="M139 252h185q32 0 26 -31l-33 -219q-18 -117 -109 -205t-216 -135q-23 -8 -29 19t19 36q106 47 159 109t68 151l-113 43q-27 12 -20 39l24 162q6 31 39 31z" />
    <glyph glyph-name="hyphen" unicode="-" horiz-adv-x="827" 
d="M143 362q-12 0 -20 10t-6 19l18 123q4 29 31 29h524q12 0 20 -9t7 -22l-19 -121q-4 -29 -30 -29h-525z" />
    <glyph glyph-name="period" unicode="." horiz-adv-x="524" 
d="M102 0q-35 0 -28 31l28 188q6 33 37 33h187q35 0 28 -33l-30 -188q-6 -31 -37 -31h-185z" />
    <glyph glyph-name="slash" unicode="/" horiz-adv-x="675" 
d="M160 0h-131q-14 0 -22 10q-7 10 -3 23l574 1370q12 31 34 31h131q13 0 21 -10t2 -23l-571 -1370q-15 -31 -35 -31z" />
    <glyph glyph-name="zero" unicode="0" horiz-adv-x="1275" 
d="M598 219q154 0 230 121t120 393q47 242 10 361q-38 118 -190 118t-230 -122t-122 -388q-48 -236 -10 -360t192 -123zM792 1450q262 0 366 -179t44 -565q-62 -386 -214 -554t-414 -168t-367 178q-104 178 -43 562t213 555q153 171 415 171z" />
    <glyph glyph-name="one" unicode="1" horiz-adv-x="1071" 
d="M797 1434q12 0 21 -10t7 -21l-188 -1182h258q12 0 21 -10t8 -23l-25 -159q-6 -29 -33 -29h-784q-12 0 -22 9q-9 9 -7 22l25 159q4 31 31 31h262l147 928l-235 -96q-12 -4 -24 2q-11 6 -9 20l26 172q2 18 29 31l248 141q23 14 47 15h197z" />
    <glyph glyph-name="two" unicode="2" horiz-adv-x="1226" 
d="M772 1450h8q123 0 211 -38t127 -98q91 -140 56 -292q-14 -78 -54 -148t-64 -96t-79 -80l-488 -460h549q12 0 22 -10t7 -21l-27 -178q-4 -29 -32 -29h-918q-12 0 -21 8t-8 21l25 149q0 16 14 31l533 496q250 229 270 348q14 86 -32 123q-47 36 -151 36t-158 -50t-79 -126
q-12 -27 -32 -26h-201q-25 0 -22 39q7 93 80 192q92 125 254 178q95 31 210 31z" />
    <glyph glyph-name="three" unicode="3" horiz-adv-x="1234" 
d="M767 1450q245 0 343 -116t70 -304q-33 -223 -236 -307q74 -25 128 -106t28 -245t-161 -277q-136 -111 -354 -111t-326 74t-129 159q-29 113 -15 156q6 27 28 26h195q25 0 27 -28q4 -150 200 -150q258 0 291 215q14 92 -45 129t-215 37h-68q-12 0 -21 9t-7 22l28 178
q4 29 31 29h64q141 0 216 44t86 140t-31 142t-148 46t-178 -41q-71 -41 -89 -110q-12 -27 -30 -27h-199q-27 0 -25 35q17 147 157 264t385 117z" />
    <glyph glyph-name="four" unicode="4" horiz-adv-x="1288" 
d="M418 528h362l97 584zM870 1434h287q11 0 21 -10t8 -21l-139 -875h108q11 0 21 -9t8 -21l-29 -179q-4 -29 -31 -28h-114l-41 -262q-4 -29 -31 -29h-209q-10 0 -19 9t-8 22l41 260h-637q-12 0 -21 9t-7 22l26 149q0 14 15 33l717 911q16 19 34 19z" />
    <glyph glyph-name="five" unicode="5" horiz-adv-x="1234" 
d="M566 -16q-226 0 -351 99t-100 286q4 31 30 30h203q25 0 21 -28q-8 -61 43 -105q50 -44 164 -45q114 0 193 69t94 177t-28 164q-73 91 -270 48q-78 -17 -137 -54q-20 -6 -76 8l-157 35q-29 6 -19 32l223 709q10 25 33 25h731q13 0 21 -10t6 -19l-27 -180q-4 -29 -30 -29
h-558l-108 -317q212 94 403 36q190 -57 239 -241q27 -101 7 -228q-37 -214 -181 -338q-143 -124 -369 -124z" />
    <glyph glyph-name="six" unicode="6" horiz-adv-x="1220" 
d="M598 221q104 0 177 71q73 72 89 190t-36 185t-149 67t-175 -64q-78 -62 -93 -180t34 -194t153 -75zM730 948q198 0 304 -133t76 -348t-177 -349q-146 -134 -362 -134q-251 0 -359 191t-54 533t223 542q168 200 412 200q104 0 182 -38q131 -64 169 -210q15 -57 10 -96
t-30 -39h-172q-18 0 -30 27q-20 119 -162 118q-254 0 -340 -409q112 145 310 145z" />
    <glyph glyph-name="seven" unicode="7" horiz-adv-x="1071" 
d="M262 1196q-12 0 -20 8t-6 21l28 180q4 29 29 29h835q16 0 24 -16t1 -34l-776 -1359q-20 -25 -43 -25h-232q-14 0 -18 12t4 27l668 1157h-494z" />
    <glyph glyph-name="eight" unicode="8" horiz-adv-x="1224" 
d="M569 219q98 0 182 49q83 48 96 138t-41 149t-149 84q-264 -61 -290 -236q-12 -88 46 -136t156 -48zM739 1212q-93 0 -157 -48t-74 -127t32 -131t126 -72q213 53 237 200q12 78 -30 128t-134 50zM764 1450q221 0 322 -121t75 -289q-32 -204 -231 -323q92 -41 140 -131
t30 -211q-27 -172 -170 -282q-143 -109 -382 -109q-240 0 -352 120t-83 302q37 231 274 327q-74 51 -111 140t-18 196q25 161 155 271t351 110z" />
    <glyph glyph-name="nine" unicode="9" horiz-adv-x="1218" 
d="M645 713q94 0 175 62q82 61 98 181t-33 194t-153 75q-104 0 -183 -72q-78 -71 -94 -189t40 -184t150 -67zM528 -16q-120 0 -206 42t-123 101q-76 121 -58 209q6 31 29 31h195q16 0 30 -29q6 -43 42 -80t110 -37q246 0 330 373q-102 -106 -279 -107q-218 -1 -324 139
t-71 357t188 342q154 125 371 125q252 0 349 -182t44 -494q-73 -428 -225 -609t-402 -181z" />
    <glyph glyph-name="colon" unicode=":" horiz-adv-x="606" 
d="M143 0q-35 0 -28 31l28 188q6 33 37 33h187q35 0 28 -33l-30 -188q-6 -31 -37 -31h-185zM231 547q-35 0 -28 31l28 188q6 33 37 33h187q35 0 28 -33l-30 -188q-6 -31 -37 -31h-185z" />
    <glyph glyph-name="semicolon" unicode=";" horiz-adv-x="604" 
d="M180 252h185q32 0 26 -31l-33 -219q-18 -117 -109 -205t-216 -135q-23 -8 -29 19t19 36q106 47 159 109t68 151l-113 43q-27 12 -20 39l24 162q6 31 39 31zM227 547q-35 0 -28 31l28 188q6 33 37 33h187q35 0 28 -33l-30 -188q-6 -31 -37 -31h-185z" />
    <glyph glyph-name="less" unicode="&#x3c;" horiz-adv-x="1191" 
d="M475 702l576 -235q27 -12 14 -39l-61 -109q-14 -27 -46 -14l-782 324q-18 10 -16 30l14 91q4 23 27 30l880 336q29 12 37 -14l31 -113q6 -27 -25 -39z" />
    <glyph glyph-name="equal" unicode="=" horiz-adv-x="1155" 
d="M156 434q-12 0 -21 9q-8 9 -6 20l18 123q4 29 31 28h850q12 0 20 -9t7 -21l-19 -121q-4 -29 -30 -29h-850zM213 791q-12 0 -20 9t-7 19l19 123q4 29 31 29h849q13 0 21 -9t6 -22l-18 -121q-4 -29 -31 -28h-850z" />
    <glyph glyph-name="greater" unicode="&#x3e;" horiz-adv-x="1191" 
d="M803 705l-576 235q-27 12 -14 39l61 108q14 27 45 15l783 -324q18 -10 16 -30l-14 -91q-4 -23 -27 -30l-880 -336q-29 -12 -37 14l-31 113q-6 27 25 39z" />
    <glyph glyph-name="question" unicode="?" horiz-adv-x="1101" 
d="M404 -16q-55 0 -91 44q-35 44 -25 97t49 86q40 33 93 33t90 -44t28 -98t-49 -86t-95 -32zM373 371q-16 0 -20 10q-3 10 -3 37q12 225 232 375q27 20 88 60t93 65q33 24 65 66t41 100t-35 100q-45 43 -127 43q-147 0 -209 -66q-34 -36 -72 -102q-12 -23 -31 -21l-172 6
q-27 4 -18 33q21 161 157 267t341 106t303 -90t102 -200q2 -56 -2 -111q-19 -134 -106 -218q-86 -84 -198 -157q-112 -74 -156 -131t-68 -144q-8 -29 -27 -28h-178z" />
    <glyph glyph-name="at" unicode="@" horiz-adv-x="1996" 
d="M1049 688q-102 0 -169 -76t-84 -190q-37 -248 152 -248q188 0 232 272q43 242 -131 242zM1479 -27q-225 0 -283 148q-116 -137 -310 -137t-276 133t-49 331t150 316t290 119q173 0 246 -95l25 43q20 29 45 29h137q12 0 20 -9t7 -22l-88 -555q-8 -50 11 -78t63 -28t85 36
t54 118l86 542q14 80 -21 146t-112 65l-555 2q-240 0 -422 -179t-232 -482q-33 -203 39 -385q12 -31 -16 -31h-189q-20 0 -38 17q-17 17 -21 40q-57 170 -21 387q56 360 310 594t596 234l559 -2q215 0 308 -115t65 -301l-95 -598q-47 -283 -368 -283z" />
    <glyph glyph-name="A" unicode="A" horiz-adv-x="1372" 
d="M502 473h391l-111 471l-6 31zM885 1450q18 0 26 -23l355 -1392q6 -35 -27 -35h-197q-27 0 -30 29l-56 209h-596l-110 -211q-16 -27 -35 -27h-203q-20 0 -29.5 16.5t1.5 34.5l786 1385q12 14 23 14h92z" />
    <glyph glyph-name="B" unicode="B" horiz-adv-x="1232" 
d="M649 238q82 0 143.5 50t77.5 150q27 168 -133 168h-293l-59 -368h264zM758 1196h-219l-60 -367h238q168 0 198 197q16 96 -24.5 133t-132.5 37zM702 0h-587q-12 0 -21.5 9t-7.5 22l219 1374q4 29 31 29h534q160 0 250 -113t59.5 -306.5t-182.5 -293.5q76 -43 112.5 -132
t18.5 -204q-27 -168 -145.5 -276.5t-280.5 -108.5z" />
    <glyph glyph-name="C" unicode="C" horiz-adv-x="1454" 
d="M756.5 -16q-314.5 0 -488.5 219t-126 523t282.5 514t529.5 210q158 0 288 -66.5t206 -189.5q16 -29 -8 -49l-129 -111q-10 -10 -29.5 -8t-28.5 16q-43 70 -126 119t-187 49q-197 0 -348.5 -148.5t-184 -354.5t64.5 -345t286 -139q233 0 397 189q27 27 49 0l115 -129
q25 -31 4 -52q-252 -247 -566.5 -247z" />
    <glyph glyph-name="D" unicode="D" horiz-adv-x="1370" 
d="M623 238q176 0 284.5 127t145.5 362t-26.5 352t-238.5 117h-249l-154 -958h238zM610 0h-495q-12 0 -21.5 9t-7.5 22l219 1374q4 29 29 29h497q274 0 407.5 -188t78.5 -537t-243.5 -529t-463.5 -180z" />
    <glyph glyph-name="E" unicode="E" horiz-adv-x="1157" 
d="M985 238q12 0 21.5 -8.5t7.5 -20.5l-29 -180q-4 -29 -31 -29h-839q-12 0 -21.5 9t-7.5 22l219 1374q4 29 29 29h842q12 0 20 -9.5t6 -21.5l-28 -180q-4 -27 -29 -27h-606l-58 -360h412q10 0 19.5 -9.5t7.5 -19.5l-31 -180q-4 -29 -29 -29h-418l-57 -360h600z" />
    <glyph glyph-name="F" unicode="F" horiz-adv-x="1128" 
d="M1167 1434q10 0 19.5 -9.5t7.5 -21.5l-29 -178q-4 -29 -28 -29h-598l-66 -405h422q12 0 21.5 -9.5t7.5 -21.5l-29 -178q-4 -29 -31 -29h-430l-82 -524q-4 -29 -26 -29h-213q-10 0 -19.5 9t-7.5 22l219 1374q4 29 29 29h833z" />
    <glyph glyph-name="G" unicode="G" horiz-adv-x="1470" 
d="M1356 768q10 0 19 -9t7 -20l-92 -583q-6 -27 -20 -33q-78 -55 -225.5 -97t-290.5 -42q-291 0 -476.5 212t-135.5 530t293 521t526 203q160 0 287.5 -72.5t195.5 -183.5q16 -29 -4 -45l-140 -119q-31 -27 -53 8q-41 68 -122 121t-187 53q-193 0 -346.5 -151.5
t-185.5 -354.5t68 -344q98 -141 274 -141t294 86l43 232h-190q-14 0 -22.5 9t-6.5 21l29 170q4 29 29 29h432z" />
    <glyph glyph-name="H" unicode="H" horiz-adv-x="1435" 
d="M1415 1434q10 0 18.5 -9.5t6.5 -21.5l-217 -1374q-4 -29 -29 -29h-211q-31 0 -27 31l88 561h-602l-90 -563q-4 -29 -26 -29h-213q-12 0 -20.5 9t-6.5 22l219 1374q4 29 27 29h213q29 0 24 -31l-90 -574h604l91 576q4 29 28 29h213z" />
    <glyph glyph-name="I" unicode="I" horiz-adv-x="567" 
d="M113 0q-12 0 -20.5 9t-6.5 22l219 1374q4 29 27 29h213q12 0 20 -9.5t6 -21.5l-219 -1374q-4 -29 -26 -29h-213z" />
    <glyph glyph-name="J" unicode="J" horiz-adv-x="1005" 
d="M981 1434q12 0 21.5 -9.5t7.5 -23.5l-154 -973q-35 -209 -149.5 -326.5t-313.5 -117.5q-137 0 -231 70.5t-123 201.5q-8 33 12 41l142 68q35 14 51 -27q37 -106 151 -107q70 0 125 54.5t74 169.5l149 948q4 31 31 31h207z" />
    <glyph glyph-name="K" unicode="K" horiz-adv-x="1318" 
d="M326 0h-213q-12 0 -20.5 9t-6.5 22l219 1374q4 29 27 29h213q29 0 24 -31l-98 -606l612 614q20 23 56 23h231q16 0 23.5 -18.5t-7.5 -31.5l-677 -667l452 -678q8 -10 3 -24.5t-23 -14.5h-226q-29 0 -47 31l-417 596l-99 -598q-4 -29 -26 -29z" />
    <glyph glyph-name="L" unicode="L" horiz-adv-x="1112" 
d="M963 238q12 0 20 -9.5t6 -19.5l-28 -180q-4 -29 -29 -29h-817q-12 0 -21.5 9t-7.5 22l217 1374q8 29 29 29h213q29 0 24 -31l-184 -1165h578z" />
    <glyph glyph-name="M" unicode="M" horiz-adv-x="1730" 
d="M1505 1434h205q10 0 18.5 -9.5t6.5 -21.5l-217 -1374q-4 -29 -29 -29h-211q-10 0 -19.5 9t-7.5 20l129 825l-520 -831q-14 -23 -33 -23h-41q-27 0 -41 37l-264 819l-129 -827q-4 -29 -28 -29h-211q-12 0 -20.5 9t-6.5 20l219 1376q4 29 29 29h190q31 0 43 -39l293 -963
l604 979q14 23 41 23z" />
    <glyph glyph-name="N" unicode="N" horiz-adv-x="1472" 
d="M1450 1434q12 0 20.5 -9.5t6.5 -21.5l-220 -1374q-4 -29 -26 -29h-172q-27 0 -45 35l-510 928l-152 -934q-4 -29 -26 -29h-211q-12 0 -20.5 9t-6.5 20l217 1376q4 29 29 29h178q27 0 45 -37l506 -910l147 918q4 29 27 29h213z" />
    <glyph glyph-name="O" unicode="O" horiz-adv-x="1607" 
d="M764.5 221q196.5 0 344.5 148.5t180 353.5t-64.5 346t-293 141t-345 -149.5t-180 -354.5t65 -345t293 -140zM743 -16q-301 0 -475 218t-126 524t279.5 515t531.5 209t474.5 -220t126 -525.5t-279 -513t-531.5 -207.5z" />
    <glyph glyph-name="P" unicode="P" horiz-adv-x="1189" 
d="M672 696q102 0 164 71q60 71 80 187q41 242 -142 242h-235l-82 -500h215zM723 459h-301l-70 -430q-4 -29 -26 -29h-211q-31 0 -27 29l217 1376q4 29 29 29h545q168 0 255 -133t47 -364.5t-168 -354.5t-290 -123z" />
    <glyph glyph-name="Q" unicode="Q" horiz-adv-x="1615" 
d="M764 221q197 0 345 148.5t180 353.5t-64.5 346t-293 141t-344.5 -149.5t-180 -354.5t64 -345t293 -140zM953 1450q300 0 474.5 -220t124.5 -530q-43 -276 -239 -473l121 -145q23 -23 0 -45l-140 -119q-10 -8 -22 -8t-19 10l-135 160q-176 -96 -373 -96q-303 0 -477 218
t-126 524t279.5 515t531.5 209z" />
    <glyph glyph-name="R" unicode="R" horiz-adv-x="1292" 
d="M754 723q90 0 151.5 63.5t81.5 188.5q37 221 -139 221h-309l-76 -473h291zM1090 0h-203q-27 0 -37 29l-166 456h-260l-72 -456q-4 -29 -28 -29h-209q-12 0 -20.5 9t-6.5 20l217 1376q4 29 29 29h629q152 0 236.5 -134.5t49.5 -353.5q-27 -172 -108.5 -283.5
t-194.5 -146.5l162 -485q10 -31 -18 -31z" />
    <glyph glyph-name="S" unicode="S" horiz-adv-x="1255" 
d="M584 -16q-324 0 -490 202q-20 27 -2 41l137 117q20 16 41 0q39 -45 125 -85t188.5 -40t190.5 49t100 128t-49 130t-189 95.5t-168 59.5t-103.5 51t-94 73t-51 97.5t-8.5 133.5q27 166 169 290t392 124q295 0 465 -190q20 -27 -4 -46l-133 -110q-23 -18 -47 0
q-131 109 -297 108q-115 0 -191 -45t-86 -118.5t47.5 -119.5t178.5 -87t181 -65.5t139 -76.5q150 -98 114 -309q-31 -168 -169 -287.5t-386 -119.5z" />
    <glyph glyph-name="T" unicode="T" horiz-adv-x="1239" 
d="M1278 1434q10 0 19.5 -9.5t7.5 -21.5l-29 -178q-4 -29 -29 -29h-373l-184 -1167q-4 -29 -28 -29h-211q-12 0 -20.5 9t-6.5 22l184 1165h-366q-12 0 -20.5 9t-6.5 20l29 180q4 29 28 29h1006z" />
    <glyph glyph-name="U" unicode="U" horiz-adv-x="1396" 
d="M1401 1434q31 0 26 -31l-131 -795q-41 -255 -186 -429q-76 -91 -195.5 -143t-258 -52t-234.5 36.5t-151.5 98t-90.5 143.5t-36 174t10 189l129 780q8 29 30 29h209q31 0 27 -31l-127 -770q-31 -184 28.5 -298t210 -114t249 120t126.5 306l125 758q4 29 29 29h211z" />
    <glyph glyph-name="V" unicode="V" horiz-adv-x="1439" 
d="M1485 1434q16 0 26.5 -13.5t4.5 -25.5l-789 -1368q-14 -27 -37 -27h-88q-23 0 -31 31l-340 1374q-6 29 23 29h205q25 0 33 -29l223 -946l528 946q18 29 47 29h195z" />
    <glyph glyph-name="W" unicode="W" horiz-adv-x="1941" 
d="M1995 1434q14 0 22 -12.5t2 -28.5l-620 -1366q-14 -27 -33 -27h-100q-25 0 -31 29l-178 905l-451 -909q-12 -25 -33 -25h-104q-20 0 -27 29l-213 1366q-4 39 25 39h197q20 0 28 -29l125 -899l443 905q8 23 26 23h90q18 0 25 -29l184 -897l402 905q12 20 30 21h191z" />
    <glyph glyph-name="X" unicode="X" horiz-adv-x="1398" 
d="M1217 0h-216q-29 0 -49 35l-229 483l-385 -489q-27 -29 -53 -29h-219q-20 0 -29.5 16.5t4.5 34.5l563 701l-307 641q-10 16 -5 28.5t19 12.5h217q29 0 45 -35l205 -434l355 446q16 23 47 23h217q18 0 27.5 -17.5t-3.5 -34.5l-524 -653l336 -694q16 -35 -16 -35z" />
    <glyph glyph-name="Y" unicode="Y" horiz-adv-x="1300" 
d="M1346 1434q18 0 28 -15.5t-2 -36.5l-569 -770l-96 -583q-4 -29 -29 -29h-209q-12 0 -20.5 8t-6.5 21l93 583l-302 787q-12 35 21 35h207q31 0 45 -35l199 -525l387 535q18 25 47 25h207z" />
    <glyph glyph-name="Z" unicode="Z" horiz-adv-x="1239" 
d="M293 1196q-12 0 -20.5 8t-6.5 21l29 180q4 29 29 29h944q18 0 25 -18.5t-5 -35.5l-817 -1142h590q12 0 20.5 -8.5t5.5 -20.5l-28 -180q-4 -29 -29 -29h-962q-23 0 -32 17.5t3 33.5l819 1145h-565z" />
    <glyph glyph-name="bracketleft" unicode="[" horiz-adv-x="753" 
d="M762 1432h-178l-244 -1543h172q31 0 27 -28l-29 -180q-4 -29 -29 -29h-407q-12 0 -22 9q-9 9 -7 22l309 1955q4 31 33 31h406q33 0 28 -29l-28 -182q-6 -26 -31 -26z" />
    <glyph glyph-name="backslash" unicode="\" horiz-adv-x="1110" 
d="M825 0q-18 0 -34 31l-572 1370q-6 14 1 23t22 10h131q23 0 35 -31l573 -1370q4 -13 -3 -23t-22 -10h-131z" />
    <glyph glyph-name="bracketright" unicode="]" horiz-adv-x="753" 
d="M63 -111h179l243 1543h-172q-31 0 -26 28l28 180q4 29 29 29h408q12 0 21 -9t7 -22l-309 -1955q-4 -31 -33 -31h-405q-33 0 -29 29l29 182q5 26 30 26z" />
    <glyph glyph-name="asciicircum" unicode="^" horiz-adv-x="858" 
d="M840 1145h-74q-16 0 -35 31l-135 276l-221 -283q-18 -25 -39 -24h-88q-14 0 -21 11q-6 11 4 26l304 430q18 27 32 26h103q16 0 30 -30l162 -428q4 -14 -2 -24t-20 -11z" />
    <glyph glyph-name="underscore" unicode="_" horiz-adv-x="1269" 
d="M45 -256q-12 0 -20 8t-7 21l11 71q4 29 28 29h971q12 0 20 -8t7 -21l-13 -71q-4 -29 -28 -29h-969z" />
    <glyph glyph-name="grave" unicode="`" horiz-adv-x="698" 
d="M651 1282l-342 219q-23 16 -6 41l57 105q18 31 46 8l303 -285q18 -18 6 -41l-25 -41q-12 -22 -39 -6z" />
    <glyph glyph-name="a" unicode="a" horiz-adv-x="1060" 
d="M468 174q93 0 156.5 67.5t82.5 207.5q35 244 -138 243q-104 0 -171.5 -80t-85 -192.5t22.5 -179t133 -66.5zM981 860q12 0 20.5 -9t6.5 -22l-127 -800q-4 -29 -29 -29h-129q-27 0 -47 43l-6 47q-104 -104 -252 -106q-106 0 -182 38q-76 40 -112 104q-83 149 -46 318
q29 190 148.5 314.5t310.5 124.5q147 0 233 -95l27 46q14 27 43 26h141z" />
    <glyph glyph-name="b" unicode="b" horiz-adv-x="1052" 
d="M591 692q-93 0 -156.5 -68.5t-84.5 -201.5q-37 -248 143 -248q90 0 159 75t87 190.5t-18.5 184t-129.5 68.5zM639 883q201 0 283 -136.5t51 -328.5t-149.5 -313t-292 -121t-255.5 108l-26 -59q-14 -33 -45 -33h-125q-12 0 -20.5 9t-6.5 22l219 1390q4 29 29 29h197
q29 0 24 -31l-96 -614q90 78 213 78z" />
    <glyph glyph-name="c" unicode="c" horiz-adv-x="966" 
d="M453 -16q-199 0 -303.5 135t-72.5 325.5t170 314.5t324 124q225 0 324 -160q14 -20 -4 -35l-105 -88q-23 -12 -38 10q-63 82 -168 82t-178.5 -75.5t-89 -185t29.5 -183.5q44 -74 146 -74t179 77q12 12 29 27.5t39 -6.5l88 -98q16 -18 0 -41q-45 -55 -147 -102t-223 -47z
" />
    <glyph glyph-name="d" unicode="d" horiz-adv-x="1052" 
d="M468 174q95 0 153.5 71.5t78.5 192.5q39 254 -131 254q-102 0 -170.5 -80t-86 -188t21.5 -179t134 -71zM1065 1450q12 0 20.5 -9t6.5 -22l-220 -1390q-4 -29 -28 -29h-107q-25 0 -37 29l-24 49q-106 -94 -258 -94q-201 0 -286 133t-54 326t152.5 316.5t306.5 123.5
q135 0 206 -76l99 614q4 29 28 29h195z" />
    <glyph glyph-name="e" unicode="e" horiz-adv-x="1005" 
d="M558 719q-83 0 -143.5 -58.5t-80.5 -142.5l368 2q12 88 -24.5 143.5t-119.5 55.5zM585 883q200 0 286.5 -133.5t50.5 -368.5q-4 -31 -31 -31h-586q6 -190 197 -190q96 0 215 71q31 16 43 -8l47 -108q16 -27 -12 -45q-45 -35 -137.5 -60.5t-184.5 -25.5q-207 0 -316.5 130
t-80.5 327.5t169 319.5t340 122z" />
    <glyph glyph-name="f" unicode="f" horiz-adv-x="854" 
d="M694 1450q158 0 238 -64q23 -20 8 -43l-86 -104q-18 -23 -52 -5t-75 17q-84 0 -129 -56t-63 -173l-25 -156h184q10 0 19.5 -9t7.5 -21l-23 -140q-4 -29 -28 -28h-193l-127 -809q-4 -31 -28 -31h-195q-12 0 -20.5 10t-6.5 21l127 809h-84q-10 0 -19 9t-7 21l22 140
q4 29 31 28h90l27 183q65 401 407 401z" />
    <glyph glyph-name="g" unicode="g" horiz-adv-x="1069" 
d="M481 174q193 0 235 259t-143 259q-106 0 -173.5 -76.5t-87.5 -189.5t20 -182.5t149 -69.5zM989 860q12 0 20.5 -9t6.5 -22l-137 -860q-31 -195 -164 -304t-330 -109q-137 0 -227 54t-131 138q-10 20 6 35l114 92q25 17 40 -13t33 -51.5t58.5 -43t96.5 -21.5
q102 0 177 63.5t93 170.5l17 92q-96 -88 -248 -88q-201 0 -285 132t-52 328t152.5 317.5t290.5 121.5t248 -101l29 52q16 27 43 26h149z" />
    <glyph glyph-name="h" unicode="h" horiz-adv-x="1073" 
d="M674.5 883q149.5 0 235 -105.5t53.5 -308.5l-70 -440q-4 -29 -31 -29h-192q-10 0 -19.5 9t-7.5 22l74 473q31 188 -121 188q-82 0 -143.5 -54t-71.5 -116l-78 -493q-4 -29 -29 -29h-194q-12 0 -20.5 9t-6.5 22l219 1390q4 29 31 29h193q12 0 20 -9t6 -22l-102 -622
q105 86 254.5 86z" />
    <glyph glyph-name="i" unicode="i" horiz-adv-x="518" 
d="M98 0q-12 0 -20 9t-6 22l125 807q4 29 30 28h195q10 0 19 -9t8 -21l-130 -807q-4 -29 -28 -29h-193zM394 1331q58 0 98 -48t28 -106q-10 -58 -54 -94t-104 -36t-97 47t-27 105t54 95t102 37z" />
    <glyph glyph-name="j" unicode="j" horiz-adv-x="563" 
d="M-53 -442q-152 0 -228 66t-90 157q-6 27 11 33l159 61q25 8 33 -18q31 -109 115 -109q123 0 151 176l144 912q8 31 30 30h193q31 0 27 -30l-144 -912q-59 -366 -401 -366zM410 1047q-59 0 -98 46q-38 46 -28 105t52 96q44 37 104 37t98 -47t28 -106t-54 -95
q-43 -36 -102 -36z" />
    <glyph glyph-name="k" unicode="k" horiz-adv-x="1042" 
d="M887 0h-205q-29 0 -49 31l-264 387l-66 -389q-4 -29 -29 -29h-194q-31 0 -27 31l219 1390q4 29 31 29h193q12 0 20 -9t6 -22l-145 -909l342 332q27 25 49 24h215q16 0 21.5 -15t-9.5 -28l-379 -356l287 -436q8 -12 2 -21.5t-18 -9.5z" />
    <glyph glyph-name="l" unicode="l" horiz-adv-x="483" 
d="M80 0q-12 0 -20.5 9t-6.5 22l219 1390q4 29 31 29h193q12 0 20 -9t6 -22l-219 -1390q-4 -29 -29 -29h-194z" />
    <glyph glyph-name="m" unicode="m" horiz-adv-x="1624" 
d="M1220 883q177 0 252.5 -100.5t45.5 -295.5l-74 -458q-4 -29 -29 -29h-194q-10 0 -19.5 9t-7.5 22l76 477q27 184 -113 184q-80 0 -137 -54t-68 -124l-78 -485q-4 -29 -28 -29h-195q-10 0 -19 9t-7 22l73 467q33 195 -106 194q-80 0 -139.5 -53t-71.5 -121l-78 -489
q-4 -29 -29 -29h-194q-12 0 -20.5 9t-6.5 22l127 800q4 29 31 29h162q27 0 30 -33l11 -55q117 111 279.5 111t226.5 -129q123 129 300 129z" />
    <glyph glyph-name="n" unicode="n" horiz-adv-x="1093" 
d="M695 883q173 0 247 -101.5t49 -259.5l-78 -493q-4 -29 -30 -29h-193q-12 0 -21.5 9t-6.5 22l75 477q29 184 -128 184q-79 0 -148.5 -55t-79.5 -121l-78 -487q-4 -29 -29 -29h-194q-12 0 -20.5 9t-6.5 22l125 800q4 29 31 29h170q20 0 27 -33l12 -61q104 117 277 117z" />
    <glyph glyph-name="o" unicode="o" horiz-adv-x="1028" 
d="M474 174q91 0 161 75t88 190.5t-28 184t-139 68.5t-163.5 -78.5t-88 -193.5t30.5 -180.5t139 -65.5zM451.5 -16q-195.5 0 -303 134t-77.5 324t171 315.5t336.5 125.5t304 -135.5t75.5 -325.5t-172 -314t-334.5 -124z" />
    <glyph glyph-name="p" unicode="p" horiz-adv-x="1046" 
d="M488 174q89 0 159 76t88 192.5t-23.5 183t-128.5 66.5t-150.5 -77.5t-82 -193.5t15 -181.5t122.5 -65.5zM637 883q195 0 278.5 -137.5t53 -328.5t-149.5 -312t-280.5 -121t-229.5 88l-76 -482q-4 -29 -28 -28h-195q-12 0 -20 9t-6 21l194 1239q4 29 31 29h115
q25 0 41 -31l18 -49q98 103 254 103z" />
    <glyph glyph-name="q" unicode="q" horiz-adv-x="1040" 
d="M458 174q91 0 150.5 72.5t79.5 199.5q43 246 -129 246q-98 0 -164.5 -81t-83 -190t19.5 -178t127 -69zM963 866q10 0 19 -9t7 -21l-196 -1246q-4 -29 -31 -28h-195q-10 0 -19 9t-7 21l80 471q-80 -80 -213 -79q-201 0 -282 132t-49 327.5t144.5 317.5t286.5 122t246 -107
l34 58q25 33 50 32h125z" />
    <glyph glyph-name="r" unicode="r" horiz-adv-x="759" 
d="M563 694q-74 0 -124 -59.5t-62 -145.5l-74 -460q-4 -29 -29 -29h-194q-12 0 -20.5 9t-6.5 22l125 800q4 29 31 29h113q23 0 36 -33l23 -59q111 115 223.5 115t153.5 -41q14 -18 4 -35l-76 -123q-10 -16 -47 -3t-76 13z" />
    <glyph glyph-name="s" unicode="s" horiz-adv-x="839" 
d="M337.5 -16q-198.5 0 -306.5 118q-20 23 -4 41l67 90q16 18 41 -2q82 -72 223 -71q66 0 103 25.5t40 66.5t-21.5 59.5t-96.5 40.5q-122 36 -203 90.5t-57.5 179t116.5 193t262.5 68.5t270.5 -92q23 -18 8 -37l-69 -97q-16 -16 -37 -4q-96 53 -170 54q-129 0 -144 -84
q-8 -37 17.5 -59.5t98.5 -44.5t115 -38t90 -49t60.5 -79t-0.5 -113q-23 -106 -114 -181t-289.5 -75z" />
    <glyph glyph-name="t" unicode="t" horiz-adv-x="786" 
d="M137 668q-12 0 -21.5 9t-6.5 19l24 142q4 29 29 28h86l33 217q4 29 30 29h195q10 0 19.5 -9t6.5 -22l-32 -215h182q12 0 21.5 -9t7.5 -21l-23 -140q-4 -29 -31 -28h-190l-59 -375q-10 -61 3 -86t65 -25t112 41q20 10 30 -12l48 -121q10 -23 -15 -37q-109 -68 -278 -67
q-258 0 -217 301l59 381h-78z" />
    <glyph glyph-name="u" unicode="u" horiz-adv-x="1075" 
d="M995 866q12 0 20.5 -9t6.5 -21l-127 -809q-4 -27 -27 -27h-143q-25 0 -39 31l-27 69q-39 -51 -110.5 -83.5t-138.5 -32.5q-182 0 -257 100t-49 274l76 480q4 29 31 28h192q12 0 20.5 -9t6.5 -21l-74 -480q-29 -184 129 -184q80 0 139.5 54.5t69.5 123.5l78 488
q4 29 31 28h192z" />
    <glyph glyph-name="v" unicode="v" horiz-adv-x="1011" 
d="M1006 866q14 0 20 -13t-2 -26l-512 -798q-18 -29 -35 -29h-74q-16 0 -28 31l-260 800q-4 14 3 24.5t21 10.5h187q20 0 28 -30l138 -474l286 474q18 31 39 30h189z" />
    <glyph glyph-name="w" unicode="w" horiz-adv-x="1386" 
d="M1360 866q14 0 20 -11t0 -24l-411 -804q-14 -27 -31 -27h-121q-23 0 -26 29l-84 499l-238 -501q-14 -27 -31 -27h-121q-23 0 -26 27l-156 809q-8 31 25 30h186q27 0 31 -28l63 -471l228 473q14 27 30 26h103q23 0 26 -28l82 -471l211 471q12 29 33 28h207z" />
    <glyph glyph-name="x" unicode="x" horiz-adv-x="954" 
d="M231 0h-200q-14 0 -19.5 14.5t4.5 28.5l334 397l-198 387q-17 39 18 39h178q16 0 33 -30l113 -218l182 218q27 31 45 30h201q12 0 19 -15t-5 -30l-338 -405l197 -381q16 -35 -17 -35h-178q-23 0 -37 31l-110 209l-174 -211q-23 -29 -48 -29z" />
    <glyph glyph-name="y" unicode="y" horiz-adv-x="1095" 
d="M1083 866q14 0 20.5 -11t-1.5 -28l-785 -1175q-18 -29 -34 -29h-203q-14 0 -19.5 13.5t2.5 27.5l304 445l-246 722q-8 35 24 35h183q20 0 28 -30l164 -490l330 494q14 27 33 26h200z" />
    <glyph glyph-name="z" unicode="z" horiz-adv-x="851" 
d="M184 676q-12 0 -21 8t-7 21l20 131q4 31 33 30h598q18 0 24.5 -17.5t-4.5 -31.5l-442 -627h289q12 0 21.5 -9t6.5 -21l-20 -131q-4 -29 -31 -29h-610q-12 0 -19.5 14.5t3.5 30.5l446 631h-287z" />
    <glyph glyph-name="braceleft" unicode="{" horiz-adv-x="897" 
d="M657 -111q13 0 21 -8t6 -20l-29 -185q-4 -27 -28 -26h-127q-125 0 -188 81q-62 81 -36 253l78 475q6 41 -22 61q-29 20 -51 21h-68q-10 0 -18 9t-7 21l27 179q4 29 29 28h71q39 0 68 28t35 62l78 484q30 178 108 248t203 69h133q10 0 18 -8t7 -21l-29 -182
q-4 -27 -29 -26h-57q-34 0 -62 -29t-34 -68l-80 -497q-14 -82 -53 -124t-146 -55q96 -14 124 -65t13 -135l-75 -490q-6 -35 14 -58t53 -22h53z" />
    <glyph glyph-name="bar" unicode="|" horiz-adv-x="460" 
d="M76 -238q-12 0 -20 8t-7 21l291 1843q6 35 37 35h98q31 0 25 -35l-293 -1843q-4 -29 -33 -29h-98z" />
    <glyph glyph-name="braceright" unicode="}" horiz-adv-x="894" 
d="M311 1430q-12 0 -20 8t-6 20l28 184q4 27 29 27h127q125 0 187 -81t36 -253l-78 -475q-6 -41 23 -61t51 -21h68q10 0 18 -9t6 -21l-26 -179q-4 -29 -29 -28h-72q-38 0 -67 -28t-35 -62l-78 -484q-29 -178 -107 -248t-204 -69h-133q-10 0 -19 8q-8 8 -6 20l29 183
q4 27 28 26h58q34 0 62 29t34 68l80 497q14 82 53 124t146 54q-96 13 -124 65t-14 136l76 490q6 35 -13 56t-54 24h-54z" />
    <glyph glyph-name="asciitilde" unicode="~" horiz-adv-x="1118" 
d="M442 664q-58 0 -132 -41q-73 -41 -85 -42t-24 17l-31 51q-34 50 95 134q89 59 189 59t182 -40q83 -40 135 -40t119 41t84 45t34 -17l32 -57q20 -30 -48 -95q-30 -30 -93 -63q-63 -32 -149 -32t-168 40t-140 40z" />
    <glyph glyph-name="exclamdown" unicode="&#xa1;" horiz-adv-x="626" 
d="M379 469q31 0 27 -31l-103 -991q-4 -31 -31 -31h-233q-33 0 -27 31l211 991q6 31 31 31h125zM378 883q56 0 94 -44q38 -43 29 -101t-52 -93t-99 -35t-93 47q-36 47 -27 103q8 56 50 89q42 34 98 34z" />
    <glyph glyph-name="cent" unicode="&#xa2;" horiz-adv-x="1013" 
d="M532 -156h-213q-29 0 -24 29l20 137q-125 43 -198.5 159t-49.5 266.5t134 266t248 154.5l22 131q6 35 35 35h213q31 0 24 -35l-20 -123q127 -27 199 -133q10 -18 -9 -37l-120 -110q-27 -18 -41 4q-61 84 -164.5 84t-174.5 -68.5t-87.5 -171t33 -173.5t145.5 -71
q127 0 211 101q18 27 43 2l88 -101q18 -18 0 -38q-100 -115 -258 -150l-21 -129q-4 -29 -35 -29z" />
    <glyph glyph-name="sterling" unicode="&#xa3;" horiz-adv-x="1189" 
d="M991 0h-903q-12 0 -21 9t-8 22l23 141q4 31 27 31h4q41 -1 83 67t54 144l31 186h-105q-12 0 -21 9t-8 22l29 176q4 29 31 29h110l23 147q37 219 146 344q110 125 339 125q172 0 247 -72t106 -196q4 -25 -15 -33l-174 -45q-29 -10 -35 16q-35 92 -143 92q-166 0 -205 -249
l-22 -129h274q29 0 29 -31l-29 -176q0 -29 -31 -29h-280l-33 -203q-14 -102 -59 -161l565 2q12 0 21 -10t8 -23l-27 -174q-4 -31 -31 -31z" />
    <glyph glyph-name="currency" unicode="&#xa4;" horiz-adv-x="1089" 
d="M557 514q80 0 149 59q70 59 82 141t-37 139q-50 58 -130 58t-149 -59t-81 -140q-12 -82 37 -140t129 -58zM534 334q-100 0 -178 49l-75 -74q-16 -20 -39 -2l-103 96q-18 16 4 39l88 93q-74 183 56 356l-62 86q-14 23 6 43l131 94q27 14 41 -4l50 -68q92 50 193 50
t177 -50l72 72q23 18 43 2l100 -94q18 -23 -4 -43l-88 -90q36 -82 20 -178t-75 -176l59 -91q14 -23 -4 -41l-133 -96q-29 -16 -39 6l-51 70q-89 -49 -189 -49z" />
    <glyph glyph-name="yen" unicode="&#xa5;" horiz-adv-x="1314" 
d="M1352 1434q18 0 28.5 -15.5t-2.5 -36.5l-465 -628h78q12 0 20.5 -9.5t6.5 -21.5l-14 -92q-4 -29 -29 -29h-168l-25 -149h160q12 0 20.5 -9.5t6.5 -21.5l-15 -92q-4 -29 -30 -29h-166l-45 -272q-4 -29 -29 -29h-209q-12 0 -20.5 8t-5.5 21l43 272h-162q-12 0 -21.5 9
t-7.5 22l14 92q4 29 31 29h170l23 149h-160q-12 0 -20.5 9.5t-6.5 21.5l15 92q4 29 30 29h90l-247 645q-12 35 20 35h207q31 0 45 -35l199 -525l387 535q18 25 47 25h207z" />
    <glyph glyph-name="brokenbar" unicode="&#xa6;" horiz-adv-x="460" 
d="M76 -238q-12 0 -20 8t-7 21l111 709q6 35 37 35h98q31 0 24 -35l-112 -709q-4 -29 -33 -29h-98zM256 897q-12 0 -22 8q-9 8 -7 21l113 708q6 35 37 35h98q31 0 25 -35l-113 -708q-4 -29 -33 -29h-98z" />
    <glyph glyph-name="section" unicode="&#xa7;" horiz-adv-x="1120" 
d="M510 774q-117 -45 -137 -164q-16 -92 107 -135q66 -21 186 -41q113 45 135 166q8 53 -28 87t-79 46t-102 24t-68 14q-8 1 -14 3zM724 1450q228 0 392 -141q16 -20 -2 -39l-133 -121q-16 -16 -33 0q-104 84 -234 84t-182 -36q-53 -36 -61 -91t37 -88t168 -60
q209 -42 304 -126q96 -84 70 -242t-182 -252q109 -90 86 -240q-24 -136 -154 -244t-358 -108q-272 0 -405 162q-14 12 2 33l133 120q16 16 35 0q80 -96 268 -96q88 0 154 33t77 97t-32 94t-170 57q-223 45 -313 133q-89 88 -70 215q27 174 198 270q-123 94 -101 236t150 246
t356 104z" />
    <glyph glyph-name="dieresis" unicode="&#xa8;" horiz-adv-x="684" 
d="M639 1370q-39 0 -64 30t-19 64t31 52q23 20 59 20t59 -30t16 -68q-14 -68 -82 -68zM367 1370q-39 0 -64 30t-19 64t30 53t60 19t60 -30t15 -68q-14 -68 -82 -68z" />
    <glyph glyph-name="copyright" unicode="&#xa9;" horiz-adv-x="1687" 
d="M889 299q-166 0 -258 111q-92 110 -92 306t93 308t257 113q254 0 317 -242q8 -33 -24 -43l-105 -16q-31 -6 -41 28q-12 49 -48 86t-101 37q-172 0 -172 -270q0 -129 45 -201q46 -72 118 -72t112 38t52 89q6 27 37 27l109 -23q29 -6 20 -40q-65 -236 -319 -236zM889 133
q243 0 403 171t160 412q0 240 -161 412t-403 172t-402 -172t-160 -412t160 -412q160 -171 403 -171zM889 -16q-303 0 -518 214t-215 518t215 519t518 215t517 -215t214 -519t-214 -518t-517 -214z" />
    <glyph glyph-name="ordfeminine" unicode="&#xaa;" horiz-adv-x="868" 
d="M631 477q12 0 21 -9t7 -22l-22 -131q-4 -29 -29 -28h-354q-12 0 -21 9q-8 9 -6 21l21 132q4 29 31 28h352zM496 797q64 1 108 35q43 34 51 90t-20 92q-29 35 -99 35t-112 -37q-43 -37 -51 -92t25 -90q34 -33 98 -33zM778 684h-84q-18 0 -30 33l-11 41q-72 -92 -215 -92
t-207 78q-63 78 -45 182t98 166t206 63q125 0 186 -49l8 51q21 121 -125 121q-78 0 -188 -41q-25 -2 -29 23l-4 100q-4 23 16 29q86 45 253 45t225 -80t34 -242l-63 -403q-4 -25 -25 -25z" />
    <glyph glyph-name="guillemotleft" unicode="&#xab;" horiz-adv-x="1146" 
d="M842 -16q-20 0 -39 28l-225 359q-27 41 -25 55l2 14q2 14 31 47l350 371q25 25 51 25h105q14 -1 18 -11t-6 -24l-332 -414l199 -418q14 -33 -19 -32h-110zM412 -16q-20 0 -39 28l-226 359q-27 41 -24 55l2 14q2 14 31 47l350 371q25 25 51 25h105q14 -1 18 -11t-6 -24
l-332 -414l199 -418q14 -33 -19 -32h-110z" />
    <glyph glyph-name="logicalnot" unicode="&#xac;" horiz-adv-x="1155" 
d="M186 623q-31 0 -28 30l20 119q2 31 37 31h842q35 0 28 -31l-63 -410q-6 -31 -37 -30h-147q-33 0 -27 33l41 258h-666z" />
    <glyph glyph-name="uni00AD" unicode="&#xad;" horiz-adv-x="772" 
d="M117 362q-13 0 -21 10t-6 19l19 123q4 29 30 29h525q12 0 20 -9t6 -22l-18 -121q-4 -29 -31 -29h-524z" />
    <glyph glyph-name="registered" unicode="&#xae;" horiz-adv-x="1687" 
d="M750 979v-236h196q49 0 78 33t29 86t-29 85t-80 32h-194zM750 600v-270q0 -14 -17 -15h-141q-14 0 -14 15v776q0 16 14 16h403q106 0 168 -69q61 -70 62 -179q0 -170 -119 -233q117 -123 117 -311q0 -14 -17 -15h-141q-16 0 -16 15q0 162 -111 270h-188zM889 133
q243 0 403 171t160 412q0 240 -161 412t-403 172t-402 -172t-160 -412t160 -412q160 -171 403 -171zM889 1450q303 0 517 -215t214 -519t-214 -518t-517 -214t-518 214t-215 518t215 519t518 215z" />
    <glyph glyph-name="macron" unicode="&#xaf;" horiz-adv-x="702" 
d="M305 1368q-33 0 -29 33l15 82q4 31 33 30h393q12 0 21 -9t7 -23l-12 -82q-6 -31 -33 -31h-395z" />
    <glyph glyph-name="degree" unicode="&#xb0;" horiz-adv-x="661" 
d="M436 1120q61 0 105 41q43 41 52 101t-20 98q-29 39 -89 39t-104 -43q-44 -42 -52 -100t20 -97t88 -39zM428 991q-112 0 -182 85q-70 86 -54 192t103 183q86 77 198 77q113 0 183 -86t52 -192t-103 -183q-86 -76 -197 -76z" />
    <glyph glyph-name="plusminus" unicode="&#xb1;" horiz-adv-x="1107" 
d="M905 143q15 0 23 -9t6 -23l-14 -93q-4 -29 -31 -28h-801q-12 0 -21 8t-8 22l17 93q4 31 30 30h799zM1008 791q35 0 28 -31l-20 -121q-6 -29 -35 -29h-297l-45 -288q-6 -31 -35 -31h-143q-33 0 -27 33l47 286h-295q-35 0 -28 31l18 119q4 31 37 31h297l45 288q6 33 35 33
h141q33 0 27 -35l-45 -286h295z" />
    <glyph glyph-name="uni00B2" unicode="&#xb2;" horiz-adv-x="833" 
d="M590 1602q164 0 230 -71t46 -195q-18 -124 -153 -244l-262 -240h321q27 0 23 -25l-19 -120q-4 -23 -24 -23h-574q-27 0 -22 25l16 106q0 18 16 31l310 278q170 147 178 230q6 36 -16 58t-76 22q-125 0 -154 -95q-10 -23 -24 -22h-134q-20 0 -20 29q6 90 90 173t248 83z
" />
    <glyph glyph-name="uni00B3" unicode="&#xb3;" horiz-adv-x="847" 
d="M594 1604q148 0 221 -69q72 -69 47 -209t-135 -187q39 -13 72 -67t17 -154t-98 -174q-81 -74 -247 -74t-229 85t-52 173q2 25 27 24h125q20 0 27 -24q12 -90 112 -90q135 0 160 106q8 53 -18 85q-27 32 -117 32h-41q-25 0 -21 24l17 111q4 23 22 23h33q147 0 166 120
q8 41 -14 69q-23 28 -82 28q-111 0 -148 -95q-8 -20 -24 -20h-138q-25 0 -20 29q8 90 99 172t239 82z" />
    <glyph glyph-name="acute" unicode="&#xb4;" horiz-adv-x="643" 
d="M338 1282q-27 -16 -39 6l-25 41q-12 23 7 41l303 285q27 23 45 -8l57 -105q16 -25 -6 -41z" />
    <glyph glyph-name="uni00B5" unicode="&#xb5;" horiz-adv-x="1105" 
d="M940 0h-184q-27 0 -41 31l-35 61q-113 -109 -256 -108q-74 0 -109 41l-73 -435q-4 -29 -29 -28h-197q-12 0 -20 9t-6 21l196 1246q4 29 31 28h195q10 0 19 -9t7 -21l-76 -476q-29 -188 138 -188q88 0 145 48t70 128l76 490q4 29 30 28h195q10 0 19 -9t7 -21l-102 -654
q-17 -102 14 -151q6 -7 3 -19t-17 -12z" />
    <glyph glyph-name="paragraph" unicode="&#xb6;" horiz-adv-x="1177" 
d="M1182 1434q29 0 24 -31l-254 -1612q-4 -29 -32 -29h-146q-27 0 -22 31l229 1460h-164l-229 -1462q-4 -29 -33 -29h-145q-27 0 -23 31l129 815q-152 0 -246 126t-67 299t154 287q128 114 288 114h537z" />
    <glyph glyph-name="periodcentered" unicode="&#xb7;" horiz-adv-x="524" 
d="M188 547q-35 0 -28 31l28 188q6 33 37 33h187q35 0 28 -33l-30 -188q-6 -31 -37 -31h-185z" />
    <glyph glyph-name="cedilla" unicode="&#xb8;" horiz-adv-x="589" 
d="M168 -412q-74 0 -114 29t-48 57q-6 12 4 21l45 33q14 12 34 -12t52 -23q82 0 92 80q8 43 -18 53q-27 10 -55 -14q-18 -12 -37 -2l-64 20q-20 6 -10 25l98 161h129l-71 -108q82 8 124 -39q43 -47 29 -122t-65 -117t-125 -42z" />
    <glyph glyph-name="uni00B9" unicode="&#xb9;" horiz-adv-x="714" 
d="M670 846q27 0 22 -27l-18 -119q-4 -23 -23 -22h-504q-27 0 -22 24l18 119q0 25 25 25h162l84 528l-142 -59q-12 -4 -21 2t-7 16l18 121q2 16 29 31l153 88q10 6 29 6h131q27 0 23 -25l-111 -708h154z" />
    <glyph glyph-name="ordmasculine" unicode="&#xba;" horiz-adv-x="878" 
d="M625 477q10 0 19 -9t7 -22l-20 -131q-8 -29 -31 -28h-354q-10 0 -20 9q-9 9 -7 21l21 132q4 29 30 28h355zM502 844q74 0 118 60t58 148q33 203 -103 203q-73 0 -121 -58t-62 -145t11 -148q25 -60 99 -60zM486 666q-144 0 -226 103t-52 289t133 281t247 95t225 -102
q82 -102 52 -290q-31 -188 -133 -282t-246 -94z" />
    <glyph glyph-name="guillemotright" unicode="&#xbb;" horiz-adv-x="1146" 
d="M625 883h110q20 0 39 -29l225 -358q27 -41 25 -56l-2 -14q-2 -14 -31 -47l-350 -371q-25 -25 -51 -24h-105q-14 0 -18 10t6 24l332 414l-199 418q-14 33 19 33zM195 883h110q20 0 39 -29l225 -358q27 -41 25 -56l-2 -14q-2 -14 -31 -47l-350 -371q-25 -25 -51 -24h-105
q-14 0 -18 10t6 24l332 414l-199 418q-14 33 19 33z" />
    <glyph glyph-name="onequarter" unicode="&#xbc;" horiz-adv-x="1849" 
d="M1251 354h209l53 330zM1720 354q27 0 23 -24l-19 -121q-4 -23 -24 -23h-80l-27 -161q-4 -25 -24 -25h-137q-25 0 -25 25l27 161h-379q-27 0 -23 25l15 92q2 8 16 33l436 547q16 18 35 18h172q27 0 23 -24l-82 -523h73zM543 0q-14 0 -21 11q-6 11 2 26l791 1374
q16 23 39 23h129q14 0 20 -10t-2 -23l-788 -1370q-16 -31 -45 -31h-125zM647 700q27 0 23 -26l-19 -119q-4 -23 -22 -23h-504q-27 0 -23 25l19 119q0 25 24 24h162l84 529l-141 -60q-12 -4 -22 2q-9 6 -7 17l19 121q2 16 28 30l154 88q10 6 29 7h131q27 0 22 -25l-110 -709
h153z" />
    <glyph glyph-name="onehalf" unicode="&#xbd;" horiz-adv-x="1968" 
d="M1626 918q154 0 220 -71t46 -195q-18 -124 -153 -244l-262 -240h321q27 0 23 -25l-19 -120q-4 -23 -24 -23h-574q-27 0 -22 25l16 106q0 18 16 31l310 278q170 147 178 230q6 36 -16 58t-76 22q-125 0 -154 -95q-10 -23 -24 -22h-134q-20 0 -19 33q2 73 75 155
q36 43 108 70t164 27zM543 0q-14 0 -21 11q-6 11 2 26l791 1374q16 23 39 23h129q14 0 20 -10t-2 -23l-788 -1370q-16 -31 -45 -31h-125zM647 700q27 0 23 -26l-19 -119q-4 -23 -22 -23h-504q-27 0 -23 25l19 119q0 25 24 24h162l84 529l-141 -60q-12 -4 -22 2q-9 6 -7 17
l19 121q2 16 28 30l154 88q10 6 29 7h131q27 0 22 -25l-110 -709h153z" />
    <glyph glyph-name="threequarters" unicode="&#xbe;" horiz-adv-x="1914" 
d="M1317 354h209l53 330zM1786 354q27 0 22 -24l-18 -121q-4 -23 -25 -23h-79l-27 -161q-4 -25 -25 -25h-137q-25 0 -24 25l26 161h-379q-27 0 -22 25l14 92q2 8 16 33l437 547q16 18 34 18h173q27 0 22 -24l-82 -523h74zM594 0q-14 0 -21 11q-6 11 2 26l791 1374
q16 23 39 23h129q14 0 20 -10t-2 -23l-788 -1370q-16 -31 -45 -31h-125zM570 1450q148 0 221 -69q72 -69 47 -209t-136 -187q39 -14 72 -67q33 -54 17 -154q-15 -100 -97 -174t-237 -74q-89 0 -153 27t-94 67q-57 77 -44 164q2 25 27 25h124q20 0 27 -25q12 -90 113 -90
q135 0 159 107q8 53 -18 85q-27 32 -117 31h-41q-25 0 -20 25l16 110q4 23 23 23h33q147 0 165 121q7 40 -15 68t-81 28q-111 0 -147 -94q-8 -20 -25 -21h-137q-25 0 -21 29q7 90 99 172t240 82z" />
    <glyph glyph-name="questiondown" unicode="&#xbf;" horiz-adv-x="1007" 
d="M578 492h178q16 0 19 -10t3 -38q-12 -225 -231 -374q-27 -20 -88 -60t-93 -66q-32 -24 -65 -66t-42 -100t36 -100q45 -43 127 -43q148 0 209 66q37 39 71 102q12 23 31 21l172 -6q27 -4 19 -33q-20 -161 -156 -267t-342 -106q-205 0 -304 91t-102 199q-2 56 6 119
q15 128 104 214q90 86 196 151q112 76 156 133t69 144q6 29 27 29zM725 879q55 0 90 -44q35 -43 26 -97t-49 -87t-94 -33t-90 44q-38 44 -28 98q10 53 50 86t95 33z" />
    <glyph glyph-name="Agrave" unicode="&#xc0;" horiz-adv-x="1372" 
d="M502 473h391l-111 471l-6 31zM885 1450q18 0 26 -23l355 -1392q6 -35 -27 -35h-197q-27 0 -30 29l-56 209h-596l-110 -211q-16 -27 -35 -27h-203q-20 0 -29.5 16.5t1.5 34.5l786 1385q12 14 23 14h92zM1071 1581l-371 115q-31 12 -22 41l33 100q10 31 45 12l350 -172
q20 -14 14 -32l-12 -48q-6 -24 -37 -16z" />
    <glyph glyph-name="Aacute" unicode="&#xc1;" horiz-adv-x="1372" 
d="M502 473h391l-111 471l-6 31zM885 1450q18 0 26 -23l355 -1392q6 -35 -27 -35h-197q-27 0 -30 29l-56 209h-596l-110 -211q-16 -27 -35 -27h-203q-20 0 -29.5 16.5t1.5 34.5l786 1385q12 14 23 14h92zM702 1579q-31 -8 -36 16l-13 47q-6 18 15 33l350 172q35 18 45 -12
l33 -100q8 -29 -23 -41z" />
    <glyph glyph-name="Acircumflex" unicode="&#xc2;" horiz-adv-x="1372" 
d="M502 473h391l-111 471l-6 31zM885 1450q18 0 26 -23l355 -1392q6 -35 -27 -35h-197q-27 0 -30 29l-56 209h-596l-110 -211q-16 -27 -35 -27h-203q-20 0 -29.5 16.5t1.5 34.5l786 1385q12 14 23 14h92zM899 1886h14q20 0 45 -31l148 -159q16 -16 12 -39l-10 -58
q-6 -35 -37 -6l-180 150l-232 -158q-14 -8 -23 -2t-7 19l10 59q6 25 27 43l188 164q18 18 45 18z" />
    <glyph glyph-name="Atilde" unicode="&#xc3;" horiz-adv-x="1372" 
d="M502 473h391l-111 471l-6 31zM885 1450q18 0 26 -23l355 -1392q6 -35 -27 -35h-197q-27 0 -30 29l-56 209h-596l-110 -211q-16 -27 -35 -27h-203q-20 0 -29.5 16.5t1.5 34.5l786 1385q12 14 23 14h92zM1002 1608q-62 0 -124.5 40t-105.5 40q-78 0 -125 -58
q-10 -14 -37 -6l-32 16q-25 10 -13 37q63 127 203 127q74 0 141.5 -40t96.5 -40q66 0 114 64q10 10 29 4l39 -18q25 -14 10 -37q-66 -129 -196 -129z" />
    <glyph glyph-name="Adieresis" unicode="&#xc4;" horiz-adv-x="1372" 
d="M502 473h391l-111 471l-6 31zM885 1450q18 0 26 -23l355 -1392q6 -35 -27 -35h-197q-27 0 -30 29l-56 209h-596l-110 -211q-16 -27 -35 -27h-203q-20 0 -29.5 16.5t1.5 34.5l786 1385q12 14 23 14h92zM1028 1630q-39 0 -63.5 30t-18.5 63.5t29.5 53t59.5 19.5t58.5 -29.5
t16.5 -68.5q-14 -68 -82 -68zM756 1630q-39 0 -63.5 30t-18.5 63.5t29.5 53t59.5 19.5t59.5 -29.5t15.5 -68.5q-14 -68 -82 -68z" />
    <glyph glyph-name="Aring" unicode="&#xc5;" horiz-adv-x="1372" 
d="M502 473h391l-111 471l-6 31zM885 1450q18 0 26 -23l355 -1392q6 -35 -27 -35h-197q-27 0 -30 29l-56 209h-596l-110 -211q-16 -27 -35 -27h-203q-20 0 -29.5 16.5t1.5 34.5l786 1385q12 14 23 14h92zM872.5 1690q32.5 0 54 21.5t25.5 55t-12 54t-47 20.5q-68 0 -78 -74
q-6 -33 9.5 -55t48 -22zM860 1573q-80 0 -130 56.5t-36 145.5t71.5 136t138.5 47t132 -57.5t36 -145.5t-73.5 -135t-138.5 -47z" />
    <glyph glyph-name="AE" unicode="&#xc6;" horiz-adv-x="2031" 
d="M606 453h422l107 665zM2050 1434q12 0 20.5 -9.5t6.5 -21.5l-29 -180q-4 -27 -29 -27h-606l-57 -360h411q10 0 19.5 -9.5t7.5 -19.5l-31 -180q-4 -29 -28 -29h-418l-57 -360h600q12 0 21 -8.5t7 -20.5l-28 -180q-4 -29 -31 -29h-840q-12 0 -21.5 9t-6.5 22l30 186h-571
l-152 -192q-18 -25 -43 -25h-202q-18 0 -27.5 16.5t4.5 34.5l1055 1362q14 20 37 21h958z" />
    <glyph glyph-name="Ccedilla" unicode="&#xc7;" horiz-adv-x="1454" 
d="M940 1210q-197 0 -348.5 -148.5t-184 -354.5t64.5 -345t286 -139q233 0 397 189q27 27 49 0l115 -129q25 -31 4 -52q-238 -236 -551 -247l-45 -68q82 8 124 -39t29 -122t-64.5 -116.5t-125.5 -41.5t-113.5 28.5t-48.5 57.5q-6 12 4 20l46 33q14 12 24 -4q29 -31 62 -31
q82 0 92 80q8 43 -18.5 53t-55.5 -14q-14 -10 -37 -2l-63 20q-20 6 -11 25l78 127q-264 37 -407.5 248t-97.5 501.5t280.5 500.5t529.5 210q158 0 288 -66.5t206 -189.5q16 -29 -8 -49l-129 -111q-10 -10 -29.5 -8t-28.5 16q-43 70 -126 119t-187 49z" />
    <glyph glyph-name="Egrave" unicode="&#xc8;" horiz-adv-x="1157" 
d="M985 238q12 0 21.5 -8.5t7.5 -20.5l-29 -180q-4 -29 -31 -29h-839q-12 0 -21.5 9t-7.5 22l219 1374q4 29 29 29h842q12 0 20 -9.5t6 -21.5l-28 -180q-4 -27 -29 -27h-606l-58 -360h412q10 0 19.5 -9.5t7.5 -19.5l-31 -180q-4 -29 -29 -29h-418l-57 -360h600zM979 1581
l-371 115q-31 12 -22 41l32 100q10 31 46 12l350 -172q20 -14 14 -32l-12 -48q-6 -24 -37 -16z" />
    <glyph glyph-name="Eacute" unicode="&#xc9;" horiz-adv-x="1157" 
d="M985 238q12 0 21.5 -8.5t7.5 -20.5l-29 -180q-4 -29 -31 -29h-839q-12 0 -21.5 9t-7.5 22l219 1374q4 29 29 29h842q12 0 20 -9.5t6 -21.5l-28 -180q-4 -27 -29 -27h-606l-58 -360h412q10 0 19.5 -9.5t7.5 -19.5l-31 -180q-4 -29 -29 -29h-418l-57 -360h600zM610 1579
q-31 -8 -37 16l-12 47q-6 18 14 33l351 172q35 18 45 -12l33 -100q8 -29 -23 -41z" />
    <glyph glyph-name="Ecircumflex" unicode="&#xca;" horiz-adv-x="1157" 
d="M985 238q12 0 21.5 -8.5t7.5 -20.5l-29 -180q-4 -29 -31 -29h-839q-12 0 -21.5 9t-7.5 22l219 1374q4 29 29 29h842q12 0 20 -9.5t6 -21.5l-28 -180q-4 -27 -29 -27h-606l-58 -360h412q10 0 19.5 -9.5t7.5 -19.5l-31 -180q-4 -29 -29 -29h-418l-57 -360h600zM807 1886h14
q20 0 45 -31l148 -159q16 -16 12 -39l-10 -58q-8 -35 -37 -6l-180 150l-232 -158q-14 -8 -23 -2t-7 19l10 59q6 25 26 43l189 164q18 18 45 18z" />
    <glyph glyph-name="Edieresis" unicode="&#xcb;" horiz-adv-x="1157" 
d="M985 238q12 0 21.5 -8.5t7.5 -20.5l-29 -180q-4 -29 -31 -29h-839q-12 0 -21.5 9t-7.5 22l219 1374q4 29 29 29h842q12 0 20 -9.5t6 -21.5l-28 -180q-4 -27 -29 -27h-606l-58 -360h412q10 0 19.5 -9.5t7.5 -19.5l-31 -180q-4 -29 -29 -29h-418l-57 -360h600zM936 1630
q-39 0 -63.5 30t-18.5 64t29.5 53t59.5 19t58.5 -29.5t16.5 -68.5q-14 -68 -82 -68zM664 1630q-39 0 -64 30q-24 30 -18 64t29.5 53t59.5 19t59.5 -29.5t14.5 -68.5q-13 -68 -81 -68z" />
    <glyph glyph-name="Igrave" unicode="&#xcc;" horiz-adv-x="567" 
d="M113 0q-12 0 -20.5 9t-6.5 22l219 1374q4 29 27 29h213q12 0 20 -9.5t6 -21.5l-219 -1374q-4 -29 -26 -29h-213zM672 1581l-371 115q-31 12 -22 41l32 100q10 31 45 12l351 -172q20 -14 14 -32l-12 -48q-6 -24 -37 -16z" />
    <glyph glyph-name="Iacute" unicode="&#xcd;" horiz-adv-x="567" 
d="M113 0q-12 0 -20.5 9t-6.5 22l219 1374q4 29 27 29h213q12 0 20 -9.5t6 -21.5l-219 -1374q-4 -29 -26 -29h-213zM303 1579q-31 -8 -37 16l-12 47q-6 18 14 33l350 172q35 18 46 -12l32 -100q8 -29 -22 -41z" />
    <glyph glyph-name="Icircumflex" unicode="&#xce;" horiz-adv-x="567" 
d="M113 0q-12 0 -20.5 9t-6.5 22l219 1374q4 29 27 29h213q12 0 20 -9.5t6 -21.5l-219 -1374q-4 -29 -26 -29h-213zM500 1886h14q20 0 45 -31l148 -159q16 -16 12 -39l-10 -58q-8 -35 -37 -6l-180 150l-232 -158q-14 -8 -23.5 -2t-7.5 19l11 59q6 25 26 43l189 164
q18 18 45 18z" />
    <glyph glyph-name="Idieresis" unicode="&#xcf;" horiz-adv-x="567" 
d="M113 0q-12 0 -20.5 9t-6.5 22l219 1374q4 29 27 29h213q12 0 20 -9.5t6 -21.5l-219 -1374q-4 -29 -26 -29h-213zM629 1630q-39 0 -63.5 30t-18.5 64t29.5 53t59.5 19t58.5 -29.5t16.5 -68.5q-14 -68 -82 -68zM356 1630q-39 0 -63.5 30t-18.5 64t30 53t60 19t59 -29.5
t15 -68.5q-14 -68 -82 -68z" />
    <glyph glyph-name="Eth" unicode="&#xd0;" horiz-adv-x="1370" 
d="M788 1196h-249l-62 -381h232q33 0 26 -31l-22 -139q-6 -31 -33 -31h-236l-59 -376h238q176 0 284.5 126.5t145.5 362t-26.5 352.5t-238.5 117zM831 1434q274 0 407.5 -187.5t78.5 -537t-243.5 -529.5t-463.5 -180h-495q-12 0 -21.5 9t-7.5 22l92 583h-41q-31 0 -28 31
l20 141q6 29 33 29h49l94 590q4 29 29 29h497z" />
    <glyph glyph-name="Ntilde" unicode="&#xd1;" horiz-adv-x="1472" 
d="M1450 1434q12 0 20.5 -9.5t6.5 -21.5l-220 -1374q-4 -29 -26 -29h-172q-27 0 -45 35l-510 928l-152 -934q-4 -29 -26 -29h-211q-12 0 -20.5 9t-6.5 20l217 1376q4 29 29 29h178q27 0 45 -37l506 -910l147 918q4 29 27 29h213zM1040.5 1608q-61.5 0 -125 40t-106.5 40
q-78 0 -125 -58q-10 -14 -37 -6l-33 16q-25 10 -12 37q63 127 203 127q74 0 141.5 -40t95.5 -40q66 0 115 64q10 10 29 4l39 -18q25 -14 10 -37q-31 -61 -82 -95t-112.5 -34z" />
    <glyph glyph-name="Ograve" unicode="&#xd2;" horiz-adv-x="1607" 
d="M764.5 221q196.5 0 344.5 148.5t180 353.5t-64.5 346t-293 141t-345 -149.5t-180 -354.5t65 -345t293 -140zM743 -16q-301 0 -475 218t-126 524t279.5 515t531.5 209t474.5 -220t126 -525.5t-279 -513t-531.5 -207.5zM1176 1581l-371 115q-31 12 -23 41l33 100
q10 31 45 12l350 -172q20 -14 15 -32l-13 -48q-5 -24 -36 -16z" />
    <glyph glyph-name="Oacute" unicode="&#xd3;" horiz-adv-x="1607" 
d="M764.5 221q196.5 0 344.5 148.5t180 353.5t-64.5 346t-293 141t-345 -149.5t-180 -354.5t65 -345t293 -140zM743 -16q-301 0 -475 218t-126 524t279.5 515t531.5 209t474.5 -220t126 -525.5t-279 -513t-531.5 -207.5zM807 1579q-31 -8 -37 16l-12 47q-6 18 14 33l350 172
q35 18 45 -12l33 -100q8 -29 -22 -41z" />
    <glyph glyph-name="Ocircumflex" unicode="&#xd4;" horiz-adv-x="1607" 
d="M764.5 221q196.5 0 344.5 148.5t180 353.5t-64.5 346t-293 141t-345 -149.5t-180 -354.5t65 -345t293 -140zM743 -16q-301 0 -475 218t-126 524t279.5 515t531.5 209t474.5 -220t126 -525.5t-279 -513t-531.5 -207.5zM1004 1886h14q20 0 45 -31l147 -159q16 -16 13 -39
l-11 -58q-8 -35 -36 -6l-181 150l-231 -158q-14 -8 -23.5 -2t-7.5 19l10 59q6 25 27 43l188 164q18 18 46 18z" />
    <glyph glyph-name="Otilde" unicode="&#xd5;" horiz-adv-x="1607" 
d="M764.5 221q196.5 0 344.5 148.5t180 353.5t-64.5 346t-293 141t-345 -149.5t-180 -354.5t65 -345t293 -140zM743 -16q-301 0 -475 218t-126 524t279.5 515t531.5 209t474.5 -220t126 -525.5t-279 -513t-531.5 -207.5zM1114 1608q-70 0 -132 40t-105 40q-78 0 -125 -58
q-10 -14 -37 -6l-33 16q-25 10 -12 37q63 127 202 127q74 0 141.5 -40t96.5 -40q66 0 115 64q10 10 28 4l39 -18q25 -14 11 -37q-66 -129 -189 -129z" />
    <glyph glyph-name="Odieresis" unicode="&#xd6;" horiz-adv-x="1607" 
d="M764.5 221q196.5 0 344.5 148.5t180 353.5t-64.5 346t-293 141t-345 -149.5t-180 -354.5t65 -345t293 -140zM743 -16q-301 0 -475 218t-126 524t279.5 515t531.5 209t474.5 -220t126 -525.5t-279 -513t-531.5 -207.5zM1133 1630q-39 0 -64 30t-18.5 63.5t30 53t59.5 19.5
t58.5 -29.5t15.5 -68.5q-13 -68 -81 -68zM860 1630q-39 0 -63.5 30t-18.5 63.5t29.5 53t59.5 19.5t59.5 -29.5t15.5 -68.5q-14 -68 -82 -68z" />
    <glyph glyph-name="multiply" unicode="&#xd7;" horiz-adv-x="995" 
d="M659 635l193 -234q23 -27 -2 -51l-82 -69q-27 -23 -49 4l-197 231l-272 -235q-25 -23 -51 4l-72 86q-20 25 6 51l273 233l-197 234q-25 25 4 49l82 72q29 23 49 -6l199 -232l270 236q29 25 49 -4l74 -84q23 -29 -4 -52z" />
    <glyph glyph-name="Oslash" unicode="&#xd8;" horiz-adv-x="1607" 
d="M1109 369.5q148 148.5 182 365.5t-85 359l-573 -852q53 -20 125 -21q203 0 351 148.5zM940 1210q-205 0 -353 -149.5t-182 -368.5t87 -358l575 856q-55 20 -127 20zM745 -16q-141 0 -251 49l-19 -27q-16 -23 -43 -22h-117q-20 0 -27 17t5 36l55 84q-123 102 -179 263
t-28 345q49 303 280.5 512t532.5 209q133 0 252 -51l17 24q18 27 45 27h127q18 0 24 -14.5t-4 -30.5l-63 -94q121 -104 175 -265t25 -346q-47 -301 -277.5 -508.5t-529.5 -207.5z" />
    <glyph glyph-name="Ugrave" unicode="&#xd9;" horiz-adv-x="1396" 
d="M1401 1434q31 0 26 -31l-131 -795q-41 -255 -186 -429q-76 -91 -195.5 -143t-258 -52t-234.5 36.5t-151.5 98t-90.5 143.5t-36 174t10 189l129 780q8 29 30 29h209q31 0 27 -31l-127 -770q-31 -184 28.5 -298t210 -114t249 120t126.5 306l125 758q4 29 29 29h211z
M1094 1581l-371 115q-31 12 -23 41l33 100q10 31 45 12l350 -172q20 -14 15 -32l-13 -48q-5 -24 -36 -16z" />
    <glyph glyph-name="Uacute" unicode="&#xda;" horiz-adv-x="1396" 
d="M1401 1434q31 0 26 -31l-131 -795q-41 -255 -186 -429q-76 -91 -195.5 -143t-258 -52t-234.5 36.5t-151.5 98t-90.5 143.5t-36 174t10 189l129 780q8 29 30 29h209q31 0 27 -31l-127 -770q-31 -184 28.5 -298t210 -114t249 120t126.5 306l125 758q4 29 29 29h211z
M725 1579q-31 -8 -37 16l-12 47q-6 18 14 33l350 172q35 18 45 -12l33 -100q8 -29 -22 -41z" />
    <glyph glyph-name="Ucircumflex" unicode="&#xdb;" horiz-adv-x="1396" 
d="M1401 1434q31 0 26 -31l-131 -795q-41 -255 -186 -429q-76 -91 -195.5 -143t-258 -52t-234.5 36.5t-151.5 98t-90.5 143.5t-36 174t10 189l129 780q8 29 30 29h209q31 0 27 -31l-127 -770q-31 -184 28.5 -298t210 -114t249 120t126.5 306l125 758q4 29 29 29h211z
M922 1886h14q20 0 45 -31l147 -159q16 -16 13 -39l-11 -58q-8 -35 -36 -6l-181 150l-231 -158q-14 -8 -23.5 -2t-7.5 19l11 59q6 25 26 43l189 164q18 18 45 18z" />
    <glyph glyph-name="Udieresis" unicode="&#xdc;" horiz-adv-x="1396" 
d="M1401 1434q31 0 26 -31l-131 -795q-41 -255 -186 -429q-76 -91 -195.5 -143t-258 -52t-234.5 36.5t-151.5 98t-90.5 143.5t-36 174t10 189l129 780q8 29 30 29h209q31 0 27 -31l-127 -770q-31 -184 28.5 -298t210 -114t249 120t126.5 306l125 758q4 29 29 29h211z
M1051 1630q-39 0 -63.5 30t-18.5 63.5t29.5 53t59.5 19.5t58.5 -29.5t16.5 -68.5q-14 -68 -82 -68zM778 1630q-39 0 -63.5 30t-18.5 63.5t30 53t59.5 19.5t59 -29.5t15.5 -68.5q-14 -68 -82 -68z" />
    <glyph glyph-name="Yacute" unicode="&#xdd;" horiz-adv-x="1300" 
d="M1346 1434q18 0 28 -15.5t-2 -36.5l-569 -770l-96 -583q-4 -29 -29 -29h-209q-12 0 -20.5 8t-6.5 21l93 583l-302 787q-12 35 21 35h207q31 0 45 -35l199 -525l387 535q18 25 47 25h207zM657 1579q-31 -8 -36 16l-13 47q-6 18 15 33l350 172q35 18 45 -12l33 -100
q8 -29 -23 -41z" />
    <glyph glyph-name="Thorn" unicode="&#xde;" horiz-adv-x="1267" 
d="M743 541q86 0 142.5 51t69.5 140t-18.5 146.5t-121.5 57.5h-319l-62 -395h309zM324 0h-209q-12 0 -20.5 9t-6.5 20l217 1376q4 29 29 29h209q12 0 20 -9.5t6 -19.5l-34 -231h378q160 0 249.5 -123t57.5 -324t-158 -312.5t-288 -113.5h-379l-43 -272q-4 -29 -28 -29z" />
    <glyph glyph-name="germandbls" unicode="&#xdf;" horiz-adv-x="1073" 
d="M586 174q48 0 92 40q43 40 54 116q10 76 -16 144t-63 112q-98 114 -80 209q11 63 73 123t123 118t67 108t-22 79t-99 28q-113 1 -173 -73t-85 -226l-148 -923q-4 -29 -28 -29h-195q-10 0 -19 9t-8 22l150 944q43 263 157 369t350 106t321 -76t63 -213q-12 -81 -56 -151
t-89 -108q-116 -100 -120 -145t85 -170q33 -46 53 -125q20 -80 4 -182t-83 -176q-66 -74 -134 -98q-178 -62 -352 41q-23 15 -24 25t7 20l49 107q12 23 37 10q61 -35 109 -35z" />
    <glyph glyph-name="agrave" unicode="&#xe0;" horiz-adv-x="1060" 
d="M468 174q93 0 156.5 67.5t82.5 207.5q35 244 -138 243q-104 0 -171.5 -80t-85 -192.5t22.5 -179t133 -66.5zM981 860q12 0 20.5 -9t6.5 -22l-127 -800q-4 -29 -29 -29h-129q-27 0 -47 43l-6 47q-104 -104 -252 -106q-106 0 -182 38q-76 40 -112 104q-83 149 -46 318
q29 190 148.5 314.5t310.5 124.5q147 0 233 -95l27 46q14 27 43 26h141zM807 975l-342 219q-23 16 -6 41l57 104q6 12 19.5 15.5t25.5 -6.5l303 -285q18 -18 6 -41l-24 -41q-12 -22 -39 -6z" />
    <glyph glyph-name="aacute" unicode="&#xe1;" horiz-adv-x="1060" 
d="M468 174q93 0 156.5 67.5t82.5 207.5q35 244 -138 243q-104 0 -171.5 -80t-85 -192.5t22.5 -179t133 -66.5zM981 860q12 0 20.5 -9t6.5 -22l-127 -800q-4 -29 -29 -29h-129q-27 0 -47 43l-6 47q-104 -104 -252 -106q-106 0 -182 38q-76 40 -112 104q-83 149 -46 318
q29 190 148.5 314.5t310.5 124.5q147 0 233 -95l27 46q14 27 43 26h141zM537 975q-27 -16 -39 6l-25 41q-12 23 6 41l303 285q12 10 25.5 7t19.5 -16l58 -104q16 -25 -6 -41z" />
    <glyph glyph-name="acircumflex" unicode="&#xe2;" horiz-adv-x="1060" 
d="M468 174q93 0 156.5 67.5t82.5 207.5q35 244 -138 243q-104 0 -171.5 -80t-85 -192.5t22.5 -179t133 -66.5zM981 860q12 0 20.5 -9t6.5 -22l-127 -800q-4 -29 -29 -29h-129q-27 0 -47 43l-6 47q-104 -104 -252 -106q-106 0 -182 38q-76 40 -112 104q-83 149 -46 318
q29 190 148.5 314.5t310.5 124.5q147 0 233 -95l27 46q14 27 43 26h141zM686 1319q20 0 45 -31l148 -160q16 -16 12 -38l-10 -58q-8 -37 -37 -6l-180 150l-232 -158q-14 -8 -23.5 -2t-7.5 18l11 60q6 25 26 43l189 163q18 18 45 19h14z" />
    <glyph glyph-name="atilde" unicode="&#xe3;" horiz-adv-x="1060" 
d="M468 174q93 0 156.5 67.5t82.5 207.5q35 244 -138 243q-104 0 -171.5 -80t-85 -192.5t22.5 -179t133 -66.5zM981 860q12 0 20.5 -9t6.5 -22l-127 -800q-4 -29 -29 -29h-129q-27 0 -47 43l-6 47q-104 -104 -252 -106q-106 0 -182 38q-76 40 -112 104q-83 149 -46 318
q29 190 148.5 314.5t310.5 124.5q147 0 233 -95l27 46q14 27 43 26h141zM782 1040q-70 0 -131 40t-106 40q-78 0 -125 -57q-10 -14 -37 -6l-33 16q-25 10 -12 37q63 127 203 127q74 0 141.5 -40t95.5 -40q66 0 115 64q10 10 29 4l39 -19q25 -14 10 -37q-66 -129 -189 -129z
" />
    <glyph glyph-name="adieresis" unicode="&#xe4;" horiz-adv-x="1060" 
d="M468 174q93 0 156.5 67.5t82.5 207.5q35 244 -138 243q-104 0 -171.5 -80t-85 -192.5t22.5 -179t133 -66.5zM981 860q12 0 20.5 -9t6.5 -22l-127 -800q-4 -29 -29 -29h-129q-27 0 -47 43l-6 47q-104 -104 -252 -106q-106 0 -182 38q-76 40 -112 104q-83 149 -46 318
q29 190 148.5 314.5t310.5 124.5q147 0 233 -95l27 46q14 27 43 26h141zM801 1063q-39 0 -63.5 29.5t-18.5 63.5t29.5 53.5t59.5 19.5t58.5 -30t16.5 -69q-14 -67 -82 -67zM528 1063q-39 0 -63.5 29.5t-18 63.5t30 53.5t59 19.5t59 -30t15.5 -69q-14 -67 -82 -67z" />
    <glyph glyph-name="aring" unicode="&#xe5;" horiz-adv-x="1060" 
d="M468 174q93 0 156.5 67.5t82.5 207.5q35 244 -138 243q-104 0 -171.5 -80t-85 -192.5t22.5 -179t133 -66.5zM981 860q12 0 20.5 -9t6.5 -22l-127 -800q-4 -29 -29 -29h-129q-27 0 -47 43l-6 47q-104 -104 -252 -106q-106 0 -182 38q-76 40 -112 104q-83 149 -46 318
q29 190 148.5 314.5t310.5 124.5q147 0 233 -95l27 46q14 27 43 26h141zM645 1122q33 0 54.5 21.5t25.5 55.5t-12.5 54.5t-46.5 20.5q-68 0 -78 -74q-6 -33 9 -55.5t48 -22.5zM633 1006q-80 0 -130 56t-36 145t71.5 136.5t138.5 47.5t132 -57.5t36 -145.5t-73.5 -135
t-138.5 -47z" />
    <glyph glyph-name="ae" unicode="&#xe6;" horiz-adv-x="1544" 
d="M460.5 418q-71.5 0 -118.5 -44t-56 -103.5t20.5 -98.5t102 -39t122 48.5t58.5 108.5t-24 94t-104.5 34zM1097 719q-83 0 -143.5 -58.5t-81.5 -142.5l369 2q12 88 -24.5 143.5t-119.5 55.5zM1129.5 883q193.5 0 280.5 -133.5t50 -368.5q-4 -31 -30 -31h-586
q6 -190 196 -190q98 0 215 71q31 16 43 -8l48 -108q16 -27 -13 -45q-45 -35 -137 -60.5t-184 -25.5q-203 0 -314 127q-121 -127 -350 -127q-176 0 -246.5 89t-50.5 214t111.5 193.5t231 68.5t224.5 -55l11 65q12 72 -18.5 107.5t-125 35.5t-213.5 -45q-16 -4 -27.5 5.5
t-13.5 23.5l-4 107q0 29 21 34q106 55 278 56q221 0 273 -111q137 111 330.5 111z" />
    <glyph glyph-name="ccedilla" unicode="&#xe7;" horiz-adv-x="966" 
d="M580 692q-105 0 -178.5 -75.5t-89 -185t29.5 -183.5t146.5 -74t178.5 77q12 12 29 27.5t39 -6.5l88 -98q16 -18 0 -41q-41 -51 -134 -96t-204 -51l-45 -70q82 8 124 -39t29 -122t-64.5 -116.5t-125.5 -41.5t-113.5 28.5t-47.5 57.5q-6 12 4 20l45 33q14 12 24 -4
q29 -31 62 -31q82 0 92 80q8 43 -18.5 53t-55.5 -14q-13 -9 -37 -2l-63 20q-20 6 -10 25l77 129q-158 31 -235.5 159t-47.5 306t168 302t324 124q226 0 324 -160q14 -20 -4 -35l-105 -88q-23 -12 -38 10q-63 82 -168 82z" />
    <glyph glyph-name="egrave" unicode="&#xe8;" horiz-adv-x="1005" 
d="M558 719q-83 0 -143.5 -58.5t-80.5 -142.5l368 2q12 88 -24.5 143.5t-119.5 55.5zM585 883q200 0 286.5 -133.5t50.5 -368.5q-4 -31 -31 -31h-586q6 -190 197 -190q96 0 215 71q31 16 43 -8l47 -108q16 -27 -12 -45q-45 -35 -137.5 -60.5t-184.5 -25.5q-207 0 -316.5 130
t-80.5 327.5t169 319.5t340 122zM770 975l-342 219q-23 16 -6 41l57 104q6 12 19.5 15.5t25.5 -6.5l303 -285q18 -18 7 -41l-25 -41q-12 -22 -39 -6z" />
    <glyph glyph-name="eacute" unicode="&#xe9;" horiz-adv-x="1005" 
d="M558 719q-83 0 -143.5 -58.5t-80.5 -142.5l368 2q12 88 -24.5 143.5t-119.5 55.5zM585 883q200 0 286.5 -133.5t50.5 -368.5q-4 -31 -31 -31h-586q6 -190 197 -190q96 0 215 71q31 16 43 -8l47 -108q16 -27 -12 -45q-45 -35 -137.5 -60.5t-184.5 -25.5q-207 0 -316.5 130
t-80.5 327.5t169 319.5t340 122zM500 975q-27 -16 -39 6l-25 41q-12 23 6 41l303 285q12 10 25.5 7t20.5 -16l57 -104q16 -25 -6 -41z" />
    <glyph glyph-name="ecircumflex" unicode="&#xea;" horiz-adv-x="1005" 
d="M558 719q-83 0 -143.5 -58.5t-80.5 -142.5l368 2q12 88 -24.5 143.5t-119.5 55.5zM585 883q200 0 286.5 -133.5t50.5 -368.5q-4 -31 -31 -31h-586q6 -190 197 -190q96 0 215 71q31 16 43 -8l47 -108q16 -27 -12 -45q-45 -35 -137.5 -60.5t-184.5 -25.5q-207 0 -316.5 130
t-80.5 327.5t169 319.5t340 122zM649 1319q20 0 45 -31l148 -160q16 -16 12 -38l-10 -58q-8 -37 -37 -6l-180 150l-232 -158q-14 -8 -23.5 -2t-6.5 18l10 60q6 25 26 43l189 163q18 18 45 19h14z" />
    <glyph glyph-name="edieresis" unicode="&#xeb;" horiz-adv-x="1005" 
d="M558 719q-83 0 -143.5 -58.5t-80.5 -142.5l368 2q12 88 -24.5 143.5t-119.5 55.5zM585 883q200 0 286.5 -133.5t50.5 -368.5q-4 -31 -31 -31h-586q6 -190 197 -190q96 0 215 71q31 16 43 -8l47 -108q16 -27 -12 -45q-45 -35 -137.5 -60.5t-184.5 -25.5q-207 0 -316.5 130
t-80.5 327.5t169 319.5t340 122zM764 1063q-39 0 -63.5 29.5t-18.5 63.5t29.5 53.5t59.5 19.5t58.5 -30t16.5 -69q-14 -67 -82 -67zM492 1063q-39 0 -64 29.5t-18.5 63.5t30 53.5t59.5 19.5t59.5 -30t14.5 -69q-13 -67 -81 -67z" />
    <glyph glyph-name="igrave" unicode="&#xec;" horiz-adv-x="483" 
d="M82 0q-12 0 -21.5 9t-7.5 22l127 807q4 29 31 28h192q12 0 20.5 -9t6.5 -21l-127 -807q-4 -29 -29 -29h-192zM508 979l-342 219q-23 16 -6 41l57 104q6 12 19.5 15.5t25.5 -6.5l303 -285q18 -18 6 -41l-24 -41q-12 -22 -39 -6z" />
    <glyph glyph-name="iacute" unicode="&#xed;" horiz-adv-x="483" 
d="M82 0q-12 0 -21.5 9t-7.5 22l127 807q4 29 31 28h192q12 0 20.5 -9t6.5 -21l-127 -807q-4 -29 -29 -29h-192zM238 979q-27 -16 -39 6l-25 41q-12 23 6 41l303 285q12 10 25.5 7t19.5 -16l58 -104q16 -25 -6 -41z" />
    <glyph glyph-name="icircumflex" unicode="&#xee;" horiz-adv-x="483" 
d="M82 0q-12 0 -21.5 9t-7.5 22l127 807q4 29 31 28h192q12 0 20.5 -9t6.5 -21l-127 -807q-4 -29 -29 -29h-192zM373 1323h14q20 0 45 -31l148 -159q16 -16 12 -39l-10 -58q-8 -35 -37 -6l-180 150l-232 -158q-14 -8 -23.5 -2t-7.5 18l11 60q6 25 26 43l189 164q18 18 45 18
z" />
    <glyph glyph-name="idieresis" unicode="&#xef;" horiz-adv-x="483" 
d="M82 0q-12 0 -21.5 9t-7.5 22l127 807q4 29 31 28h192q12 0 20.5 -9t6.5 -21l-127 -807q-4 -29 -29 -29h-192zM502 1067q-39 0 -63.5 29.5t-18.5 63.5t29.5 53.5t59.5 19.5t58.5 -29.5t16.5 -68.5q-14 -68 -82 -68zM229 1067q-39 -1 -63 29t-18 64t30 54q22 20 58 19.5
t59.5 -30t15.5 -68.5q-14 -68 -82 -68z" />
    <glyph glyph-name="eth" unicode="&#xf0;" horiz-adv-x="1095" 
d="M608 688q-94 0 -171 -76.5t-95 -190.5t29 -180.5t141 -66.5t168 74.5t92 190.5t-26 182.5t-138 66.5zM507 -16q-204 0 -317.5 136t-82.5 322t178 313.5t336 127.5q104 0 161 -68q-2 174 -135 313l-115 -108q-23 -18 -40 0l-56 55q-23 20 0 43l109 103q-33 25 -82 53
q-29 18 -14 43l79 117q18 25 54 8q61 -31 118 -74l70 66q23 23 45 -2l49 -50q25 -23 2 -45l-63 -61q133 -137 199.5 -336t25.5 -444t-179 -378.5t-342 -133.5z" />
    <glyph glyph-name="ntilde" unicode="&#xf1;" horiz-adv-x="1093" 
d="M695 883q173 0 247 -101.5t49 -259.5l-78 -493q-4 -29 -30 -29h-193q-12 0 -21.5 9t-6.5 22l75 477q29 184 -128 184q-79 0 -148.5 -55t-79.5 -121l-78 -487q-4 -29 -29 -29h-194q-12 0 -20.5 9t-6.5 22l125 800q4 29 31 29h170q20 0 27 -33l12 -61q104 117 277 117z
M782 1040q-62 0 -125 40t-106 40q-78 0 -125 -57q-10 -14 -37 -6l-33 16q-25 10 -12 37q63 127 203 127q74 0 141.5 -40t95.5 -40q66 0 115 64q10 10 29 4l39 -19q25 -14 10 -37q-31 -61 -82 -95t-113 -34z" />
    <glyph glyph-name="ograve" unicode="&#xf2;" horiz-adv-x="1028" 
d="M474 174q91 0 161 75t88 190.5t-28 184t-139 68.5t-163.5 -78.5t-88 -193.5t30.5 -180.5t139 -65.5zM451.5 -16q-195.5 0 -303 134t-77.5 324t171 315.5t336.5 125.5t304 -135.5t75.5 -325.5t-172 -314t-334.5 -124zM766 975l-342 219q-23 16 -6 41l57 104
q6 12 19.5 15.5t25.5 -6.5l303 -285q18 -18 6 -41l-24 -41q-12 -22 -39 -6z" />
    <glyph glyph-name="oacute" unicode="&#xf3;" horiz-adv-x="1028" 
d="M474 174q91 0 161 75t88 190.5t-28 184t-139 68.5t-163.5 -78.5t-88 -193.5t30.5 -180.5t139 -65.5zM451.5 -16q-195.5 0 -303 134t-77.5 324t171 315.5t336.5 125.5t304 -135.5t75.5 -325.5t-172 -314t-334.5 -124zM496 975q-27 -16 -39 6l-25 41q-12 23 6 41l303 285
q12 10 25.5 7t19.5 -16l58 -104q16 -25 -6 -41z" />
    <glyph glyph-name="ocircumflex" unicode="&#xf4;" horiz-adv-x="1028" 
d="M474 174q91 0 161 75t88 190.5t-28 184t-139 68.5t-163.5 -78.5t-88 -193.5t30.5 -180.5t139 -65.5zM451.5 -16q-195.5 0 -303 134t-77.5 324t171 315.5t336.5 125.5t304 -135.5t75.5 -325.5t-172 -314t-334.5 -124zM645 1319q20 0 45 -31l148 -160q16 -16 12 -38
l-10 -58q-8 -37 -37 -6l-180 150l-232 -158q-14 -8 -23.5 -2t-7.5 18l11 60q6 25 26 43l189 163q18 18 45 19h14z" />
    <glyph glyph-name="otilde" unicode="&#xf5;" horiz-adv-x="1028" 
d="M474 174q91 0 161 75t88 190.5t-28 184t-139 68.5t-163.5 -78.5t-88 -193.5t30.5 -180.5t139 -65.5zM451.5 -16q-195.5 0 -303 134t-77.5 324t171 315.5t336.5 125.5t304 -135.5t75.5 -325.5t-172 -314t-334.5 -124zM741 1040q-70 0 -131 40t-106 40q-78 0 -125 -57
q-10 -14 -37 -6l-33 16q-25 10 -12 37q63 127 203 127q74 0 141.5 -40t95.5 -40q66 0 115 64q10 10 29 4l39 -19q25 -14 10 -37q-66 -129 -189 -129z" />
    <glyph glyph-name="odieresis" unicode="&#xf6;" horiz-adv-x="1028" 
d="M474 174q91 0 161 75t88 190.5t-28 184t-139 68.5t-163.5 -78.5t-88 -193.5t30.5 -180.5t139 -65.5zM451.5 -16q-195.5 0 -303 134t-77.5 324t171 315.5t336.5 125.5t304 -135.5t75.5 -325.5t-172 -314t-334.5 -124zM760 1063q-39 0 -63.5 29.5t-18.5 63.5t29.5 53.5
t59.5 19.5t58.5 -30t16.5 -69q-14 -67 -82 -67zM487 1063q-39 0 -63.5 29.5t-18 63.5t30 53.5t59 19.5t59.5 -30t15 -69q-14 -67 -82 -67z" />
    <glyph glyph-name="divide" unicode="&#xf7;" horiz-adv-x="1155" 
d="M568 467q58 0 94 -44q36 -45 28 -103q-10 -58 -53 -95t-100 -37t-96 45q-37 45 -27 103t53 95q43 36 101 36zM184 612q-12 0 -20 10t-6 19l18 123q4 29 31 29h850q12 1 20 -9t6 -22l-18 -121q-4 -29 -31 -29h-850zM685 1212q58 0 94 -44t27 -102t-52 -95
q-42 -37 -100 -37t-96 45t-28 103t54 94t101 36z" />
    <glyph glyph-name="oslash" unicode="&#xf8;" horiz-adv-x="1028" 
d="M471 174q94 0 164 74.5t88 190.5t-29 186l-293 -437q29 -14 70 -14zM561 692q-98 0 -169 -78.5t-88 -195.5t34 -180l297 440q-39 14 -74 14zM797 883h37q14 0 18 -10.5t-6 -22.5l-27 -41q86 -61 122 -165.5t15 -227.5q-31 -184 -170 -308t-329 -124q-90 0 -172 32
q-20 -33 -49 -32h-27q-14 0 -20.5 11t1.5 25l25 35q-86 61 -125 165t-18 226q29 186 170 311.5t333 125.5q94 0 175 -35q23 35 47 35z" />
    <glyph glyph-name="ugrave" unicode="&#xf9;" horiz-adv-x="1075" 
d="M995 866q12 0 20.5 -9t6.5 -21l-127 -809q-4 -27 -27 -27h-143q-25 0 -39 31l-27 69q-39 -51 -110.5 -83.5t-138.5 -32.5q-182 0 -257 100t-49 274l76 480q4 29 31 28h192q12 0 20.5 -9t6.5 -21l-74 -480q-29 -184 129 -184q80 0 139.5 54.5t69.5 123.5l78 488
q4 29 31 28h192zM795 975l-342 219q-23 16 -7 41l58 104q6 12 19.5 15.5t25.5 -6.5l303 -285q18 -18 6 -41l-24 -41q-12 -22 -39 -6z" />
    <glyph glyph-name="uacute" unicode="&#xfa;" horiz-adv-x="1075" 
d="M995 866q12 0 20.5 -9t6.5 -21l-127 -809q-4 -27 -27 -27h-143q-25 0 -39 31l-27 69q-39 -51 -110.5 -83.5t-138.5 -32.5q-182 0 -257 100t-49 274l76 480q4 29 31 28h192q12 0 20.5 -9t6.5 -21l-74 -480q-29 -184 129 -184q80 0 139.5 54.5t69.5 123.5l78 488
q4 29 31 28h192zM524 975q-27 -16 -39 6l-24 41q-12 23 6 41l303 285q12 10 25.5 7t19.5 -16l57 -104q16 -25 -6 -41z" />
    <glyph glyph-name="ucircumflex" unicode="&#xfb;" horiz-adv-x="1075" 
d="M995 866q12 0 20.5 -9t6.5 -21l-127 -809q-4 -27 -27 -27h-143q-25 0 -39 31l-27 69q-39 -51 -110.5 -83.5t-138.5 -32.5q-182 0 -257 100t-49 274l76 480q4 29 31 28h192q12 0 20.5 -9t6.5 -21l-74 -480q-29 -184 129 -184q80 0 139.5 54.5t69.5 123.5l78 488
q4 29 31 28h192zM674 1319q20 0 45 -31l147 -160q16 -16 13 -38l-11 -58q-8 -37 -37 -6l-180 150l-231 -158q-14 -8 -23.5 -2t-7.5 18l10 60q6 25 27 43l188 163q18 18 45 19h15z" />
    <glyph glyph-name="udieresis" unicode="&#xfc;" horiz-adv-x="1075" 
d="M995 866q12 0 20.5 -9t6.5 -21l-127 -809q-4 -27 -27 -27h-143q-25 0 -39 31l-27 69q-39 -51 -110.5 -83.5t-138.5 -32.5q-182 0 -257 100t-49 274l76 480q4 29 31 28h192q12 0 20.5 -9t6.5 -21l-74 -480q-29 -184 129 -184q80 0 139.5 54.5t69.5 123.5l78 488
q4 29 31 28h192zM788 1063q-39 0 -63.5 29.5t-18.5 63.5t30 53.5t60 19.5t58.5 -30t15.5 -69q-14 -67 -82 -67zM516 1063q-39 0 -63.5 29.5t-18.5 63.5t29.5 53.5t59.5 19.5t59.5 -30t15.5 -69q-14 -67 -82 -67z" />
    <glyph glyph-name="yacute" unicode="&#xfd;" horiz-adv-x="1095" 
d="M1083 866q14 0 20.5 -11t-1.5 -28l-785 -1175q-18 -29 -34 -29h-203q-14 0 -19.5 13.5t2.5 27.5l304 445l-246 722q-8 35 24 35h183q20 0 28 -30l164 -490l330 494q14 27 33 26h200zM526 975q-27 -16 -39 6l-24 41q-12 23 6 41l303 285q12 10 25.5 7t19.5 -16l57 -104
q16 -25 -6 -41z" />
    <glyph glyph-name="thorn" unicode="&#xfe;" horiz-adv-x="1042" 
d="M485 174q92 0 160 77t85 188t-19 181q-37 68 -126 68t-149 -77t-82 -195q-37 -242 131 -242zM639 883q193 -1 273 -137t50 -328t-147 -314t-293 -120q-141 0 -205 88l-71 -424q-4 -29 -31 -29h-195q-10 0 -19 9t-7 20l248 1571q4 29 28 28h197q12 0 20 -9t7 -21l-72 -414
q86 80 217 80z" />
    <glyph glyph-name="ydieresis" unicode="&#xff;" horiz-adv-x="1095" 
d="M1083 866q14 0 20.5 -11t-1.5 -28l-785 -1175q-18 -29 -34 -29h-203q-14 0 -19.5 13.5t2.5 27.5l304 445l-246 722q-8 35 24 35h183q20 0 28 -30l164 -490l330 494q14 27 33 26h200zM791 1063q-39 0 -64 29.5t-19 63.5t30 53.5t60 19.5t58.5 -30t15.5 -69
q-13 -67 -81 -67zM518 1063q-39 0 -63.5 29.5t-18.5 63.5t29.5 53.5t59.5 19.5t59.5 -30t15.5 -69q-14 -67 -82 -67z" />
    <glyph glyph-name="Amacron" unicode="&#x100;" horiz-adv-x="1372" 
d="M502 473h391l-111 471l-6 31zM885 1450q18 0 26 -23l355 -1392q6 -35 -27 -35h-197q-27 0 -30 29l-56 209h-596l-110 -211q-16 -27 -35 -27h-203q-20 0 -29.5 16.5t1.5 34.5l786 1385q12 14 23 14h92zM686 1628q-33 0 -29 33l15 82q4 31 33 31h393q12 0 21 -9.5t7 -23.5
l-12 -82q-6 -31 -33 -31h-395z" />
    <glyph glyph-name="amacron" unicode="&#x101;" horiz-adv-x="1060" 
d="M468 174q93 0 156.5 67.5t82.5 207.5q35 244 -138 243q-104 0 -171.5 -80t-85 -192.5t22.5 -179t133 -66.5zM981 860q12 0 20.5 -9t6.5 -22l-127 -800q-4 -29 -29 -29h-129q-27 0 -47 43l-6 47q-104 -104 -252 -106q-106 0 -182 38q-76 40 -112 104q-83 149 -46 318
q29 190 148.5 314.5t310.5 124.5q147 0 233 -95l27 46q14 27 43 26h141zM459 1061q-33 0 -29 33l14 82q4 31 33 30h393q12 0 21.5 -9t7.5 -23l-12 -82q-6 -31 -33 -31h-395z" />
    <glyph glyph-name="Abreve" unicode="&#x102;" horiz-adv-x="1372" 
d="M502 473h391l-111 471l-6 31zM885 1450q18 0 26 -23l355 -1392q6 -35 -27 -35h-197q-27 0 -30 29l-56 209h-596l-110 -211q-16 -27 -35 -27h-203q-20 0 -29.5 16.5t1.5 34.5l786 1385q12 14 23 14h92zM875.5 1587q-113.5 0 -177 61.5t-84.5 147.5q-4 23 15 29l78 30
q20 8 30 -14q49 -115 150 -115q59 0 112.5 33t85.5 88q10 16 29 6l76 -45q16 -10 6 -28q-41 -78 -124 -135.5t-196.5 -57.5z" />
    <glyph glyph-name="abreve" unicode="&#x103;" horiz-adv-x="1060" 
d="M468 174q93 0 156.5 67.5t82.5 207.5q35 244 -138 243q-104 0 -171.5 -80t-85 -192.5t22.5 -179t133 -66.5zM981 860q12 0 20.5 -9t6.5 -22l-127 -800q-4 -29 -29 -29h-129q-27 0 -47 43l-6 47q-104 -104 -252 -106q-106 0 -182 38q-76 40 -112 104q-83 149 -46 318
q29 190 148.5 314.5t310.5 124.5q147 0 233 -95l27 46q14 27 43 26h141zM648.5 1020q-113.5 0 -177 61.5t-84.5 147.5q-4 23 14 28l78 31q20 8 31 -14q49 -115 149 -115q59 0 112.5 33t86.5 88q10 16 29 6l76 -45q16 -10 6 -29q-41 -78 -124 -135t-196.5 -57z" />
    <glyph glyph-name="Aogonek" unicode="&#x104;" horiz-adv-x="1372" 
d="M502 473h391l-111 471l-6 31zM1087 -301q59 0 103 45q14 14 33 -2l22 -25q12 -12 4 -32q-63 -100 -190 -101q-82 0 -134.5 48.5t-38.5 128.5q24 144 187 239h-31q-27 0 -30 29l-56 209h-596l-110 -211q-16 -27 -35 -27h-203q-20 0 -29.5 16.5t1.5 34.5l786 1385
q12 14 23 14h92q18 0 26 -23l355 -1392q6 -35 -27 -35h-49q-139 -113 -156 -227q-6 -35 10.5 -54.5t42.5 -19.5z" />
    <glyph glyph-name="aogonek" unicode="&#x105;" horiz-adv-x="1060" 
d="M468 174q93 0 157 68t82 207q35 244 -138 243q-104 0 -171.5 -80t-85 -192.5t22.5 -179t133 -66.5zM754 -301q59 0 102 45q16 14 33 -2l22 -25q12 -12 4 -32q-63 -100 -190 -101q-82 0 -134 48.5t-39 128.5t66.5 140t120.5 99h-16q-27 0 -47 43l-6 47
q-104 -104 -252 -106q-106 0 -182 38q-76 40 -112 104q-83 149 -46 318q29 190 148.5 314.5t310.5 124.5q147 0 233 -95l27 46q14 27 43 26h141q12 0 20.5 -9t6.5 -22l-127 -800q-3 -21 -23 -29q-141 -111 -158 -227q-6 -35 10.5 -54.5t43.5 -19.5z" />
    <glyph glyph-name="Cacute" unicode="&#x106;" horiz-adv-x="1454" 
d="M756.5 -16q-314.5 0 -488.5 219t-126 523t282.5 514t529.5 210q158 0 288 -66.5t206 -189.5q16 -29 -8 -49l-129 -111q-10 -10 -29.5 -8t-28.5 16q-43 70 -126 119t-187 49q-197 0 -348.5 -148.5t-184 -354.5t64.5 -345t286 -139q233 0 397 189q27 27 49 0l115 -129
q25 -31 4 -52q-252 -247 -566.5 -247zM811 1579q-31 -8 -37 16l-12 47q-6 18 14 33l350 172q35 18 45 -12l33 -100q8 -29 -22 -41z" />
    <glyph glyph-name="cacute" unicode="&#x107;" horiz-adv-x="966" 
d="M453 -16q-199 0 -303.5 135t-72.5 325.5t170 314.5t324 124q225 0 324 -160q14 -20 -4 -35l-105 -88q-23 -12 -38 10q-63 82 -168 82t-178.5 -75.5t-89 -185t29.5 -183.5q44 -74 146 -74t179 77q12 12 29 27.5t39 -6.5l88 -98q16 -18 0 -41q-45 -55 -147 -102t-223 -47z
M496 975q-27 -16 -39 6l-25 41q-12 23 6 41l303 285q12 10 25.5 7t19.5 -16l58 -104q16 -25 -6 -41z" />
    <glyph glyph-name="Cdotaccent" unicode="&#x10a;" horiz-adv-x="1454" 
d="M756.5 -16q-314.5 0 -488.5 219t-126 523t282.5 514t529.5 210q158 0 288 -66.5t206 -189.5q16 -29 -8 -49l-129 -111q-10 -10 -29.5 -8t-28.5 16q-43 70 -126 119t-187 49q-197 0 -348.5 -148.5t-184 -354.5t64.5 -345t286 -139q233 0 397 189q27 27 49 0l115 -129
q25 -31 4 -52q-252 -247 -566.5 -247zM988 1610q-42 0 -71.5 35.5t-21.5 76.5t38 65.5t71.5 24.5t70.5 -34.5t21 -77.5t-37 -66.5t-71 -23.5z" />
    <glyph glyph-name="cdotaccent" unicode="&#x10b;" horiz-adv-x="966" 
d="M453 -16q-199 0 -303.5 135t-72.5 325.5t170 314.5t324 124q225 0 324 -160q14 -20 -4 -35l-105 -88q-23 -12 -38 10q-63 82 -168 82t-178.5 -75.5t-89 -185t29.5 -183.5t146.5 -74t178.5 77q12 12 29 27.5t39 -6.5l88 -98q16 -18 0 -41q-45 -55 -147 -102t-223 -47z
M611 1042q-42 0 -71.5 36t-21.5 77t38 65.5t72 24.5t70.5 -34.5t20.5 -78t-37 -67t-71 -23.5z" />
    <glyph glyph-name="Ccaron" unicode="&#x10c;" horiz-adv-x="1454" 
d="M756.5 -16q-314.5 0 -488.5 219t-126 523t282.5 514t529.5 210q158 0 288 -66.5t206 -189.5q16 -29 -8 -49l-129 -111q-10 -10 -29.5 -8t-28.5 16q-43 70 -126 119t-187 49q-197 0 -348.5 -148.5t-184 -354.5t64.5 -345t286 -139q233 0 397 189q27 27 49 0l115 -129
q25 -31 4 -52q-252 -247 -566.5 -247zM987 1579h-16q-18 0 -45 31l-133 170q-20 29 -19 49l6 39q2 16 17.5 16t27.5 -12l168 -158l221 164q20 12 31.5 4t7.5 -27l-6 -32q-2 -29 -22 -45l-195 -181q-18 -18 -43 -18z" />
    <glyph glyph-name="ccaron" unicode="&#x10d;" horiz-adv-x="966" 
d="M453 -16q-199 0 -303.5 135t-72.5 325.5t170 314.5t324 124q225 0 324 -160q14 -20 -4 -35l-105 -88q-23 -12 -38 10q-63 82 -168 82t-178.5 -75.5t-89 -185t29.5 -183.5q44 -74 146 -74t179 77q12 12 29 27.5t39 -6.5l88 -98q16 -18 0 -41q-45 -55 -147 -102t-223 -47z
M610 1012h-16q-18 0 -45 30l-133 170q-20 29 -19 50l6 38q2 16 17.5 16.5t28.5 -11.5l167 -158l222 164q20 12 31.5 4t7.5 -27l-7 -33q-2 -29 -22 -45l-195 -180q-18 -18 -43 -18z" />
    <glyph glyph-name="Dcaron" unicode="&#x10e;" horiz-adv-x="1370" 
d="M623 238q176 0 284.5 127t145.5 362t-26.5 352t-238.5 117h-249l-154 -958h238zM610 0h-495q-12 0 -21.5 9t-7.5 22l219 1374q4 29 29 29h497q274 0 407.5 -188t78.5 -537t-243.5 -529t-463.5 -180zM838 1579h-17q-18 0 -45 31l-133 170q-20 29 -18 49l6 39q2 16 17.5 16
t27.5 -12l168 -158l221 164q20 12 31.5 4t7.5 -27l-6 -32q-2 -29 -23 -45l-194 -181q-18 -18 -43 -18z" />
    <glyph glyph-name="dcaron" unicode="&#x10f;" horiz-adv-x="1347" 
d="M468 174q95 0 153.5 71.5t78.5 192.5q39 254 -131 254q-102 0 -170.5 -80t-86 -188t21.5 -179t134 -71zM1272 1434h190q35 0 29 -31l-29 -191q-16 -98 -96 -181t-192 -140q-18 -10 -26.5 11t7.5 32q176 100 197 250l-117 41q-27 14 -25 32l25 146q2 31 37 31zM1065 1450
q12 0 20.5 -9t6.5 -22l-220 -1390q-4 -29 -28 -29h-107q-25 0 -37 29l-24 49q-106 -94 -258 -94q-201 0 -286 133t-54 326t152.5 316.5t306.5 123.5q135 0 206 -76l99 614q4 29 28 29h195z" />
    <glyph glyph-name="Dcroat" unicode="&#x110;" horiz-adv-x="1370" 
d="M788 1196h-249l-62 -381h232q33 0 26 -31l-22 -139q-6 -31 -33 -31h-236l-59 -376h238q176 0 284.5 126.5t145.5 362t-26.5 352.5t-238.5 117zM831 1434q274 0 407.5 -187.5t78.5 -537t-243.5 -529.5t-463.5 -180h-495q-12 0 -21.5 9t-7.5 22l92 583h-41q-31 0 -28 31
l20 141q6 29 33 29h49l94 590q4 29 29 29h497z" />
    <glyph glyph-name="dcroat" unicode="&#x111;" horiz-adv-x="1130" 
d="M569 692q-102 0 -170.5 -80t-86 -188t21.5 -179t134 -71t153.5 71.5t78.5 192.5q39 254 -131 254zM1178 1249q12 0 21 -8t7 -22l-16 -95q-4 -31 -31 -30h-119l-168 -1065q-4 -29 -28 -29h-107q-25 0 -37 29l-24 49q-106 -94 -258 -94q-201 0 -286 133t-54 326
t152.5 316.5t306.5 123.5q135 0 206 -76l45 287h-116q-14 0 -22.5 9t-6.5 21l14 97q4 29 33 28h125l27 172q4 29 28 29h195q12 0 20.5 -9t6.5 -22l-27 -170h113z" />
    <glyph glyph-name="Emacron" unicode="&#x112;" horiz-adv-x="1157" 
d="M985 238q12 0 21.5 -8.5t7.5 -20.5l-29 -180q-4 -29 -31 -29h-839q-12 0 -21.5 9t-7.5 22l219 1374q4 29 29 29h842q12 0 20 -9.5t6 -21.5l-28 -180q-4 -27 -29 -27h-606l-58 -360h412q10 0 19.5 -9.5t7.5 -19.5l-31 -180q-4 -29 -29 -29h-418l-57 -360h600zM594 1628
q-33 0 -29 33l15 82q4 31 32 31h394q12 0 21 -9.5t7 -23.5l-12 -82q-6 -31 -33 -31h-395z" />
    <glyph glyph-name="emacron" unicode="&#x113;" horiz-adv-x="1005" 
d="M558 719q-83 0 -143.5 -58.5t-80.5 -142.5l368 2q12 88 -24.5 143.5t-119.5 55.5zM585 883q200 0 286.5 -133.5t50.5 -368.5q-4 -31 -31 -31h-586q6 -190 197 -190q96 0 215 71q31 16 43 -8l47 -108q16 -27 -12 -45q-45 -35 -137.5 -60.5t-184.5 -25.5q-207 0 -316.5 130
t-80.5 327.5t169 319.5t340 122zM422 1061q-33 0 -29 33l15 82q4 31 32 30h394q12 0 21 -9t7 -23l-12 -82q-6 -31 -33 -31h-395z" />
    <glyph glyph-name="Edotaccent" unicode="&#x116;" horiz-adv-x="1157" 
d="M985 238q12 0 21.5 -8.5t7.5 -20.5l-29 -180q-4 -29 -31 -29h-839q-12 0 -21.5 9t-7.5 22l219 1374q4 29 29 29h842q12 0 20 -9.5t6 -21.5l-28 -180q-4 -27 -29 -27h-606l-58 -360h412q10 0 19.5 -9.5t7.5 -19.5l-31 -180q-4 -29 -29 -29h-418l-57 -360h600zM788 1610
q-42 0 -72 35.5t-22 76.5t38 65.5t72 24.5t70.5 -34.5t20.5 -77.5t-36.5 -66.5t-70.5 -23.5z" />
    <glyph glyph-name="edotaccent" unicode="&#x117;" horiz-adv-x="1005" 
d="M558 719q-83 0 -143.5 -58.5t-80.5 -142.5l368 2q12 88 -24.5 143.5t-119.5 55.5zM585 883q200 0 286.5 -133.5t50.5 -368.5q-4 -31 -31 -31h-586q6 -190 197 -190q96 0 215 71q31 16 43 -8l47 -108q16 -27 -12 -45q-45 -35 -137.5 -60.5t-184.5 -25.5q-207 0 -316.5 130
t-80.5 327.5t169 319.5t340 122zM616 1042q-42 0 -72 36t-22 77t38 65.5t72 24.5t70.5 -34.5t20.5 -78t-36.5 -67t-70.5 -23.5z" />
    <glyph glyph-name="Eogonek" unicode="&#x118;" horiz-adv-x="1157" 
d="M1176 1434q12 0 20 -9.5t6 -21.5l-28 -180q-4 -27 -29 -27h-606l-58 -360h412q10 0 19.5 -9.5t7.5 -19.5l-31 -180q-4 -29 -29 -29h-418l-57 -360h600q12 0 21.5 -8.5t7.5 -20.5l-29 -180q-4 -29 -31 -29h-75q-139 -113 -156 -227q-6 -35 10.5 -54.5t42.5 -19.5
q59 0 103 45q14 14 32 -2l23 -25q12 -12 4 -32q-63 -100 -190 -101q-82 0 -134.5 48.5t-39.5 128.5q24 145 188 239h-647q-12 0 -21.5 9t-7.5 22l219 1374q4 29 29 29h842z" />
    <glyph glyph-name="eogonek" unicode="&#x119;" horiz-adv-x="1005" 
d="M558 719q-83 0 -143.5 -58.5t-80.5 -142.5l368 2q12 88 -24.5 143.5t-119.5 55.5zM585 883q200 0 286.5 -133.5t50.5 -368.5q-4 -31 -31 -31h-586q6 -190 197 -190q96 0 215 71q31 16 43 -8l47 -108q16 -27 -12 -45q-37 -29 -121 -56q-156 -125 -174 -241
q-6 -35 10 -54.5t43 -19.5q59 0 102 45q16 14 33 -2l23 -25q12 -12 4 -32q-63 -100 -191 -101q-82 0 -134 48.5t-38 138.5q18 117 162 215q-14 -2 -41 -2q-207 0 -316.5 130t-80.5 327.5t169 319.5t340 122z" />
    <glyph glyph-name="Ecaron" unicode="&#x11a;" horiz-adv-x="1157" 
d="M985 238q12 0 21.5 -8.5t7.5 -20.5l-29 -180q-4 -29 -31 -29h-839q-12 0 -21.5 9t-7.5 22l219 1374q4 29 29 29h842q12 0 20 -9.5t6 -21.5l-28 -180q-4 -27 -29 -27h-606l-58 -360h412q10 0 19.5 -9.5t7.5 -19.5l-31 -180q-4 -29 -29 -29h-418l-57 -360h600zM786 1579
h-16q-18 0 -45 31l-133 170q-20 29 -19 49l7 39q2 16 17 16t28 -12l168 -158l221 164q20 12 31.5 4t7.5 -27l-6 -32q-2 -29 -23 -45l-195 -181q-18 -18 -43 -18z" />
    <glyph glyph-name="ecaron" unicode="&#x11b;" horiz-adv-x="1005" 
d="M558 719q-83 0 -143.5 -58.5t-80.5 -142.5l368 2q12 88 -24.5 143.5t-119.5 55.5zM585 883q200 0 286.5 -133.5t50.5 -368.5q-4 -31 -31 -31h-586q6 -190 197 -190q96 0 215 71q31 16 43 -8l47 -108q16 -27 -12 -45q-45 -35 -137.5 -60.5t-184.5 -25.5q-207 0 -316.5 130
t-80.5 327.5t169 319.5t340 122zM614 1012h-16q-18 0 -45 30l-133 170q-20 29 -19 50l7 38q2 16 17 16.5t28 -11.5l168 -158l221 164q20 12 31.5 4t7.5 -27l-7 -33q-2 -29 -22 -45l-195 -180q-18 -18 -43 -18z" />
    <glyph glyph-name="Gbreve" unicode="&#x11e;" horiz-adv-x="1470" 
d="M1356 768q10 0 19 -9t7 -20l-92 -583q-6 -27 -20 -33q-78 -55 -225.5 -97t-290.5 -42q-291 0 -476.5 212t-135.5 530t293 521t526 203q160 0 287.5 -72.5t195.5 -183.5q16 -29 -4 -45l-140 -119q-31 -27 -53 8q-41 68 -122 121t-187 53q-193 0 -346.5 -151.5t-185 -354.5
t67.5 -344t274.5 -141t293.5 86l43 232h-190q-14 0 -22.5 9t-6.5 21l29 170q4 29 29 29h432zM986.5 1587q-113.5 0 -177.5 61.5t-84 147.5q-4 23 14 29l78 30q20 8 31 -14q49 -115 149 -115q59 0 112.5 33t86.5 88q10 16 29 6l75 -45q16 -10 7 -28q-41 -78 -124 -135.5
t-196.5 -57.5z" />
    <glyph glyph-name="gbreve" unicode="&#x11f;" horiz-adv-x="1069" 
d="M481 174q193 0 235 259t-143 259q-106 0 -173.5 -76.5t-87 -189.5t20 -182.5t148.5 -69.5zM989 860q12 0 20.5 -9t6.5 -22l-137 -860q-31 -195 -164 -304t-330 -109q-137 0 -227 54t-131 138q-10 20 6 35l114 92q25 16 40 -13.5t33 -51t58.5 -43t96.5 -21.5
q102 0 177 63.5t93 170.5l17 92q-96 -88 -248 -88q-201 0 -285 132t-52 327.5t152.5 317.5t290.5 122t248 -101l29 52q16 27 43 26h149zM636.5 1030q-113.5 0 -177.5 61.5t-84 147.5q-4 23 14 29l78 30q20 8 31 -14q49 -115 149 -115q59 0 112.5 33t86.5 88q10 16 28 6
l76 -45q16 -10 6 -28q-41 -78 -123.5 -135.5t-196 -57.5z" />
    <glyph glyph-name="Gdotaccent" unicode="&#x120;" horiz-adv-x="1470" 
d="M1356 768q10 0 19 -9t7 -20l-92 -583q-6 -27 -20 -33q-78 -55 -225.5 -97t-290.5 -42q-291 0 -476.5 212t-135.5 530t293 521t526 203q160 0 287.5 -72.5t195.5 -183.5q16 -29 -4 -45l-140 -119q-31 -27 -53 8q-41 68 -122 121t-187 53q-193 0 -346.5 -151.5t-185 -354.5
t67.5 -344t274.5 -141t293.5 86l43 232h-190q-14 0 -22.5 9t-6.5 21l29 170q4 29 29 29h432zM990 1610q-42 0 -71.5 35.5t-21.5 76.5t38 65.5t72 24.5t70.5 -34.5t20.5 -77.5t-37 -66.5t-71 -23.5z" />
    <glyph glyph-name="gdotaccent" unicode="&#x121;" horiz-adv-x="1069" 
d="M481 174q193 0 235 259t-143 259q-106 0 -173.5 -76.5t-87 -189.5t20 -182.5t148.5 -69.5zM989 860q12 0 20.5 -9t6.5 -22l-137 -860q-31 -195 -164 -304t-330 -109q-137 0 -227 54t-131 138q-10 20 6 35l114 92q25 16 40 -13.5t33 -51t58.5 -43t96.5 -21.5
q102 0 177 63.5t93 170.5l17 92q-96 -88 -248 -88q-201 0 -285 132t-52 327.5t152.5 317.5t290.5 122t248 -101l29 52q16 27 43 26h149zM640 1053q-42 0 -71.5 35.5t-21.5 76.5t37.5 65.5t71.5 24.5t71 -34.5t21 -77.5t-37 -66.5t-71 -23.5z" />
    <glyph glyph-name="Gcommaaccent" unicode="&#x122;" horiz-adv-x="1470" 
d="M688 -90h117q31 0 29 -31l-23 -127q-8 -61 -58.5 -112.5t-119.5 -73.5q-20 -6 -22.5 13t18.5 26q98 43 110 131l-75 28q-29 14 -25 37l12 78q6 31 37 31zM1356 768q10 0 19 -9t7 -20l-92 -583q-6 -27 -20 -33q-78 -55 -225.5 -97t-290.5 -42q-291 0 -476.5 212
t-135.5 530t293 521t526 203q160 0 287.5 -72.5t195.5 -183.5q16 -29 -4 -45l-140 -119q-31 -27 -53 8q-41 68 -122 121t-187 53q-193 0 -346.5 -151.5t-185 -354.5t67.5 -344t274.5 -141t293.5 86l43 232h-190q-14 0 -22.5 9t-6.5 21l29 170q4 29 29 29h432z" />
    <glyph glyph-name="gcommaaccent" unicode="&#x123;" horiz-adv-x="1069" 
d="M481 174q193 0 235 259t-143 259q-106 0 -173.5 -76.5t-87 -189.5t20 -182.5t148.5 -69.5zM989 860q12 0 20.5 -9t6.5 -22l-137 -860q-31 -195 -164 -304t-330 -109q-137 0 -227 54t-131 138q-10 20 6 35l114 92q25 16 40 -13.5t33 -51t58.5 -43t96.5 -21.5
q102 0 177 63.5t93 170.5l17 92q-96 -88 -248 -88q-201 0 -285 132t-52 327.5t152.5 317.5t290.5 122t248 -101l29 52q16 27 43 26h149zM682 1030h-117q-32 0 -28 31l22 127q8 61 58.5 112.5t119.5 73.5q20 6 22.5 -13t-18.5 -26q-98 -43 -110 -131l76 -28q29 -14 24 -37
l-12 -78q-6 -31 -37 -31z" />
    <glyph glyph-name="Hbar" unicode="&#x126;" horiz-adv-x="1435" 
d="M449 639h604l30 186h-604zM1415 1434q10 0 18.5 -9.5t6.5 -21.5l-217 -1374q-4 -29 -29 -29h-211q-31 0 -27 31l62 399h-602l-64 -401q-4 -29 -26 -29h-213q-12 0 -20.5 9t-6.5 22l219 1374q4 29 27 29h213q29 0 24 -31l-57 -367h602l60 369q4 29 28 29h213z" />
    <glyph glyph-name="hbar" unicode="&#x127;" horiz-adv-x="1157" 
d="M757.5 883q149.5 0 235.5 -105.5t54 -308.5l-70 -440q-4 -29 -31 -29h-192q-10 0 -19.5 9t-7.5 22l74 473q31 188 -121 188q-82 0 -143.5 -54t-71.5 -116l-78 -493q-4 -29 -29 -29h-194q-12 0 -20.5 9t-6.5 22l168 1063h-119q-12 0 -21 7t-7 19l16 101q4 29 31 28h125
l26 172q4 29 31 29h193q12 0 20 -9t6 -22l-28 -170h114q33 0 29 -28l-14 -101q-4 -27 -33 -26h-121l-49 -297q104 86 253.5 86z" />
    <glyph glyph-name="Imacron" unicode="&#x12a;" horiz-adv-x="567" 
d="M113 0q-12 0 -20.5 9t-6.5 22l219 1374q4 29 27 29h213q12 0 20 -9.5t6 -21.5l-219 -1374q-4 -29 -26 -29h-213zM287 1628q-33 0 -29 33l14 82q4 31 33 31h393q12 0 21.5 -9.5t7.5 -23.5l-12 -82q-6 -31 -33 -31h-395z" />
    <glyph glyph-name="imacron" unicode="&#x12b;" horiz-adv-x="483" 
d="M82 0q-12 0 -21.5 9t-7.5 22l127 807q4 29 31 28h192q12 0 20.5 -9t6.5 -21l-127 -807q-4 -29 -29 -29h-192zM160 1065q-33 0 -29 33l14 82q4 31 33 30h393q12 0 21.5 -9t7.5 -23l-12 -82q-6 -31 -33 -31h-395z" />
    <glyph glyph-name="Iogonek" unicode="&#x12e;" horiz-adv-x="567" 
d="M545 1434q12 0 20 -9.5t6 -21.5l-219 -1374q-4 -29 -26 -29h-52q-139 -113 -155 -227q-6 -35 10 -54.5t43 -19.5q59 0 102 45q16 14 33 -2l23 -25q12 -12 4 -32q-63 -100 -191 -101q-82 0 -134 48.5t-39 128.5q24 145 188 239h-45q-12 0 -20.5 9t-6.5 22l219 1374
q4 29 27 29h213z" />
    <glyph glyph-name="iogonek" unicode="&#x12f;" horiz-adv-x="483" 
d="M403 866q12 0 20.5 -9t6.5 -21l-127 -807q-4 -29 -29 -29h-51q-139 -113 -155 -227q-6 -35 10 -54.5t43 -19.5q59 0 102 45q14 14 33 -2l23 -25q12 -12 4 -32q-63 -100 -191 -101q-82 0 -134 48.5t-39 128.5t66.5 140t120.5 99h-24q-12 0 -21.5 9t-7.5 22l127 807
q4 29 31 28h192zM377 1300q47 0 79.5 -39.5t24.5 -88t-41.5 -75t-80.5 -26.5t-80 40t-25 86t42 74.5t81 28.5z" />
    <glyph glyph-name="Idotaccent" unicode="&#x130;" horiz-adv-x="567" 
d="M113 0q-12 0 -20.5 9t-6.5 22l219 1374q4 29 27 29h213q12 0 20 -9.5t6 -21.5l-219 -1374q-4 -29 -26 -29h-213zM480 1610q-42 0 -71.5 35.5t-21.5 76.5t38 65.5t72 24.5t70.5 -34.5t20.5 -77.5t-37 -66.5t-71 -23.5z" />
    <glyph glyph-name="dotlessi" unicode="&#x131;" horiz-adv-x="483" 
d="M82 0q-12 0 -21.5 9t-7.5 22l127 807q4 29 31 28h192q12 0 20.5 -9t6.5 -21l-127 -807q-4 -29 -29 -29h-192z" />
    <glyph glyph-name="Kcommaaccent" unicode="&#x136;" horiz-adv-x="1318" 
d="M530 -90h117q33 0 29 -31l-23 -127q-8 -61 -58 -112.5t-120 -73.5q-20 -6 -22 13t18 26q98 43 111 131l-76 28q-29 14 -25 37l13 78q6 31 36 31zM326 0h-213q-12 0 -20.5 9t-6.5 22l219 1374q4 29 27 29h213q29 0 24 -31l-98 -606l612 614q20 23 56 23h231
q16 0 23.5 -18.5t-7.5 -31.5l-677 -667l452 -678q8 -10 3 -24.5t-23 -14.5h-226q-29 0 -47 31l-417 596l-99 -598q-4 -29 -26 -29z" />
    <glyph glyph-name="kcommaaccent" unicode="&#x137;" horiz-adv-x="1042" 
d="M395 -90h117q33 0 29 -31l-23 -127q-8 -61 -58 -112.5t-120 -73.5q-20 -6 -22.5 13t18.5 26q98 43 110 131l-75 28q-29 14 -25 37l12 78q6 31 37 31zM887 0h-205q-29 0 -49 31l-264 387l-66 -389q-4 -29 -29 -29h-194q-31 0 -27 31l219 1390q4 29 31 29h193q12 0 20 -9
t6 -22l-145 -909l342 332q27 25 49 24h215q16 0 21.5 -15t-9.5 -28l-379 -356l287 -436q8 -12 2 -21.5t-18 -9.5z" />
    <glyph glyph-name="Lacute" unicode="&#x139;" horiz-adv-x="1112" 
d="M963 238q12 0 20 -9.5t6 -19.5l-28 -180q-4 -29 -29 -29h-817q-12 0 -21.5 9t-7.5 22l217 1374q8 29 29 29h213q29 0 24 -31l-184 -1165h578zM602 1579q-31 -8 -37 16l-12 47q-6 18 14 33l351 172q35 18 45 -12l32 -100q8 -29 -22 -41z" />
    <glyph glyph-name="lacute" unicode="&#x13a;" horiz-adv-x="483" 
d="M80 0q-12 0 -20.5 9t-6.5 22l219 1390q4 29 31 29h193q12 0 20 -9t6 -22l-219 -1390q-4 -29 -29 -29h-194zM260 1579q-31 -8 -37 16l-12 47q-6 18 14 33l350 172q35 18 46 -12l32 -100q8 -29 -22 -41z" />
    <glyph glyph-name="Lcommaaccent" unicode="&#x13b;" horiz-adv-x="1112" 
d="M463 -90h117q30 0 28 -31l-22 -127q-8 -61 -58.5 -112.5t-119.5 -73.5q-20 -6 -22.5 13t17.5 26q98 43 111 131l-76 28q-29 14 -24 37l12 78q6 31 37 31zM963 238q12 0 20 -9.5t6 -19.5l-28 -180q-4 -29 -29 -29h-817q-12 0 -21.5 9t-7.5 22l217 1374q8 29 29 29h213
q29 0 24 -31l-184 -1165h578z" />
    <glyph glyph-name="lcommaaccent" unicode="&#x13c;" horiz-adv-x="483" 
d="M102 -90h117q31 0 29 -31l-23 -127q-8 -61 -58 -112.5t-120 -73.5q-20 -6 -22 13t18 26q98 43 111 131l-76 28q-29 14 -25 37l13 78q6 31 36 31zM80 0q-12 0 -20.5 9t-6.5 22l219 1390q4 29 31 29h193q12 0 20 -9t6 -22l-219 -1390q-4 -29 -29 -29h-194z" />
    <glyph glyph-name="Lcaron" unicode="&#x13d;" horiz-adv-x="1112" 
d="M963 238q12 0 20 -9.5t6 -19.5l-28 -180q-4 -29 -29 -29h-817q-12 0 -21.5 9t-7.5 22l217 1374q8 29 29 29h213q29 0 24 -31l-184 -1165h578zM778 1579h-16q-18 0 -45 31l-133 170q-20 29 -19 49l6 39q2 16 17.5 16t27.5 -12l168 -158l222 164q20 12 31.5 4t6.5 -27
l-6 -32q-2 -29 -22 -45l-195 -181q-18 -18 -43 -18z" />
    <glyph glyph-name="lcaron" unicode="&#x13e;" horiz-adv-x="483" 
d="M80 0q-12 0 -20.5 9t-6.5 22l219 1390q4 29 31 29h193q12 0 20 -9t6 -22l-219 -1390q-4 -29 -29 -29h-194zM436 1579h-16q-18 0 -45 31l-133 170q-20 29 -19 49l6 39q2 16 17.5 16t27.5 -12l168 -158l222 164q20 12 31.5 4t6.5 -27l-6 -32q-2 -29 -22 -45l-195 -181
q-18 -18 -43 -18z" />
    <glyph glyph-name="Ldot" unicode="&#x13f;" horiz-adv-x="1146" 
d="M692 547q-35 0 -28 31l28 188q6 33 37 33h186q35 0 29 -33l-31 -188q-6 -31 -36 -31h-185zM963 238q12 0 20 -9.5t6 -19.5l-28 -180q-4 -29 -29 -29h-817q-12 0 -21.5 9t-7.5 22l217 1374q8 29 29 29h213q29 0 24 -31l-184 -1165h578z" />
    <glyph glyph-name="ldot" unicode="&#x140;" horiz-adv-x="749" 
d="M551 547q-35 0 -29 31l29 188q6 33 37 33h186q35 0 29 -33l-31 -188q-6 -31 -37 -31h-184zM80 0q-12 0 -20.5 9t-6.5 22l219 1390q4 29 31 29h193q12 0 20 -9t6 -22l-219 -1390q-4 -29 -29 -29h-194z" />
    <glyph glyph-name="Lslash" unicode="&#x141;" horiz-adv-x="1232" 
d="M1083 238q12 0 20.5 -9.5t6.5 -19.5l-29 -180q-4 -29 -28 -29h-817q-12 0 -21.5 9t-7.5 22l82 518l-115 -70q-29 -20 -49 10l-55 101q-20 29 6 45l250 149l98 621q6 29 29 29h213q29 0 24 -31l-69 -440l131 77q31 16 45 -8l57 -104q16 -29 -4 -43l-266 -160l-78 -487h577
z" />
    <glyph glyph-name="lslash" unicode="&#x142;" horiz-adv-x="743" 
d="M406 0h-195q-12 0 -20.5 9t-6.5 22l74 473l-108 -80q-29 -20 -44 4l-63 90q-14 27 8 43l246 180l106 680q4 29 31 29h193q12 0 20 -9t6 -22l-73 -469l108 80q29 18 43 -6l62 -92q14 -25 -9 -41l-241 -178l-109 -684q-4 -29 -28 -29z" />
    <glyph glyph-name="Nacute" unicode="&#x143;" horiz-adv-x="1472" 
d="M1450 1434q12 0 20.5 -9.5t6.5 -21.5l-220 -1374q-4 -29 -26 -29h-172q-27 0 -45 35l-510 928l-152 -934q-4 -29 -26 -29h-211q-12 0 -20.5 9t-6.5 20l217 1376q4 29 29 29h178q27 0 45 -37l506 -910l147 918q4 29 27 29h213zM739 1579q-31 -8 -37 16l-12 47q-6 18 15 33
l350 172q35 18 45 -12l33 -100q8 -29 -23 -41z" />
    <glyph glyph-name="nacute" unicode="&#x144;" horiz-adv-x="1093" 
d="M695 883q173 0 247 -101.5t49 -259.5l-78 -493q-4 -29 -30 -29h-193q-12 0 -21.5 9t-6.5 22l75 477q29 184 -128 184q-79 0 -148.5 -55t-79.5 -121l-78 -487q-4 -29 -29 -29h-194q-12 0 -20.5 9t-6.5 22l125 800q4 29 31 29h170q20 0 27 -33l12 -61q104 117 277 117z
M543 975q-27 -16 -39 6l-25 41q-12 23 6 41l303 285q12 10 25.5 7t20.5 -16l57 -104q16 -25 -6 -41z" />
    <glyph glyph-name="Ncommaaccent" unicode="&#x145;" horiz-adv-x="1472" 
d="M606 -90h117q31 0 29 -31l-23 -127q-8 -61 -58 -112.5t-120 -73.5q-20 -6 -22.5 13t18.5 26q98 43 110 131l-75 28q-29 14 -25 37l12 78q6 31 37 31zM1450 1434q12 0 20.5 -9.5t6.5 -21.5l-220 -1374q-4 -29 -26 -29h-172q-27 0 -45 35l-510 928l-152 -934
q-4 -29 -26 -29h-211q-12 0 -20.5 9t-6.5 20l217 1376q4 29 29 29h178q27 0 45 -37l506 -910l147 918q4 29 27 29h213z" />
    <glyph glyph-name="ncommaaccent" unicode="&#x146;" horiz-adv-x="1093" 
d="M412 -90h116q33 0 29 -31l-22 -127q-8 -61 -58.5 -112.5t-120.5 -73.5q-20 -6 -22 13t18 26q98 43 111 131l-76 28q-29 14 -25 37l13 78q6 31 37 31zM695 883q173 0 247 -101.5t49 -259.5l-78 -493q-4 -29 -30 -29h-193q-12 0 -21.5 9t-6.5 22l75 477q29 184 -128 184
q-79 0 -148.5 -55t-79.5 -121l-78 -487q-4 -29 -29 -29h-194q-12 0 -20.5 9t-6.5 22l125 800q4 29 31 29h170q20 0 27 -33l12 -61q104 117 277 117z" />
    <glyph glyph-name="Ncaron" unicode="&#x147;" horiz-adv-x="1472" 
d="M1450 1434q12 0 20.5 -9.5t6.5 -21.5l-220 -1374q-4 -29 -26 -29h-172q-27 0 -45 35l-510 928l-152 -934q-4 -29 -26 -29h-211q-12 0 -20.5 9t-6.5 20l217 1376q4 29 29 29h178q27 0 45 -37l506 -910l147 918q4 29 27 29h213zM915 1579h-16q-18 0 -45 31l-133 170
q-20 29 -19 49l7 39q2 16 17 16t28 -12l168 -158l221 164q20 12 31.5 4t7.5 -27l-6 -32q-2 -29 -23 -45l-195 -181q-18 -18 -43 -18z" />
    <glyph glyph-name="ncaron" unicode="&#x148;" horiz-adv-x="1093" 
d="M695 883q173 0 247 -101.5t49 -259.5l-78 -493q-4 -29 -30 -29h-193q-12 0 -21.5 9t-6.5 22l75 477q29 184 -128 184q-79 0 -148.5 -55t-79.5 -121l-78 -487q-4 -29 -29 -29h-194q-12 0 -20.5 9t-6.5 22l125 800q4 29 31 29h170q20 0 27 -33l12 -61q104 117 277 117z
M657 1012h-16q-18 0 -45 30l-133 170q-20 29 -19 50l7 38q2 16 17 16.5t28 -11.5l168 -158l221 164q20 12 31.5 4t7.5 -27l-6 -33q-2 -29 -23 -45l-195 -180q-18 -18 -43 -18z" />
    <glyph glyph-name="Eng" unicode="&#x14a;" horiz-adv-x="1472" 
d="M1415 1434q11 0 21 -12t8 -25l-232 -1473q-27 -154 -225 -299q-25 -6 -37 17l-84 102q-12 25 0 43q117 84 131 164q6 43 -26 108l-500 895l-149 -934q-2 -20 -23 -20h-211q-12 0 -22 11t-9 24l219 1376q2 23 25 23h186q13 0 25 -12t16 -27l506 -901l148 917q2 23 22 23
h211z" />
    <glyph glyph-name="eng" unicode="&#x14b;" horiz-adv-x="1105" 
d="M695 883q179 0 257 -100.5t52 -260.5l-86 -542q-14 -98 -64.5 -164t-134.5 -135q-25 -23 -47 4l-84 100q-18 23 0 45q24 24 25 26.5t10.5 13.5t12.5 16t9 17.5t9 23t7.5 25.5t6.5 32l84 524q29 184 -131 184q-86 0 -158 -54t-82 -122l-78 -487q-4 -29 -29 -29h-194
q-12 0 -20.5 9t-6.5 22l125 800q6 29 31 29h166q23 0 28 -33l13 -61q100 117 279 117z" />
    <glyph glyph-name="Omacron" unicode="&#x14c;" horiz-adv-x="1607" 
d="M764.5 221q196.5 0 344.5 148.5t180 353.5t-64.5 346t-293 141t-345 -149.5t-180 -354.5t65 -345t293 -140zM743 -16q-301 0 -475 218t-126 524t279.5 515t531.5 209t474.5 -220t126 -525.5t-279 -513t-531.5 -207.5zM791 1628q-33 0 -29 33l14 82q4 31 33 31h393
q12 0 21.5 -9.5t7.5 -23.5l-12 -82q-6 -31 -33 -31h-395z" />
    <glyph glyph-name="omacron" unicode="&#x14d;" horiz-adv-x="1028" 
d="M474 174q91 0 161 75t88 190.5t-28 184t-139 68.5t-163.5 -78.5t-88 -193.5t30.5 -180.5t139 -65.5zM451.5 -16q-195.5 0 -303 134t-77.5 324t171 315.5t336.5 125.5t304 -135.5t75.5 -325.5t-172 -314t-334.5 -124zM418 1061q-33 0 -29 33l14 82q4 31 33 30h393
q12 0 21.5 -9t7.5 -23l-12 -82q-6 -31 -33 -31h-395z" />
    <glyph glyph-name="Ohungarumlaut" unicode="&#x150;" horiz-adv-x="1607" 
d="M931.5 1210q-196.5 0 -345 -149.5t-180 -354.5t64.5 -345t293 -140t345 148.5t180 353.5t-64.5 346t-293 141zM953 1450q300 0 474.5 -220t126 -525.5t-279 -513t-531.5 -207.5t-475 218t-126 524t279.5 515t531.5 209zM817 1591l-24 29q-12 18 12 41l227 180
q27 18 39 -8l47 -61l88 69q25 16 39 -8l66 -84q12 -23 -11 -35l-270 -133q-25 -8 -37 6l-26 31q-6 8 -6 16l-105 -51q-25 -12 -39 8z" />
    <glyph glyph-name="ohungarumlaut" unicode="&#x151;" horiz-adv-x="1028" 
d="M474 174q91 0 161 75t88 190.5t-28 184t-139 68.5t-163.5 -78.5t-88 -193.5t30.5 -180.5t139 -65.5zM451.5 -16q-195.5 0 -303 134t-77.5 324t171 315.5t336.5 125.5t304 -135.5t75.5 -325.5t-172 -314t-334.5 -124zM360 1024l-32 18q-18 16 -2 41l182 234q16 20 41 0
l80 -51q27 -27 2 -45l-232 -195q-16 -14 -39 -2zM688 1024l-33 20q-23 12 -4 39l183 234q14 20 40 2l80 -53q31 -23 4 -45l-233 -195q-17 -14 -37 -2z" />
    <glyph glyph-name="OE" unicode="&#x152;" horiz-adv-x="1927" 
d="M758 221q72 0 133 23l151 954q-45 12 -106 12q-195 -2 -345 -148.5t-184 -357.5t65 -347t286 -136zM1946 1434q12 0 20 -9.5t6 -21.5l-28 -180q-4 -27 -29 -27h-606l-58 -360h412q10 0 19.5 -9.5t7.5 -19.5l-31 -180q-4 -29 -29 -29h-418l-57 -360h600q12 0 21.5 -8.5
t7.5 -20.5l-29 -180q-4 -29 -31 -29h-823q-82 -16 -186.5 -16t-225 53t-207.5 147.5t-126 237.5t-8.5 333.5t159.5 358.5t298 252t345 84q82 0 152 -16h844z" />
    <glyph glyph-name="oe" unicode="&#x153;" horiz-adv-x="1652" 
d="M474 174q91 0 161 75t88 190.5t-28 184t-139 68.5t-163.5 -78.5t-88 -193.5t30.5 -180.5t139 -65.5zM1205 719q-83 0 -143.5 -58.5t-80.5 -142.5l369 2q12 88 -25 143.5t-120 55.5zM1228 883q204 0 291 -133.5t50 -368.5q-4 -31 -31 -31h-586q6 -190 197 -190
q96 0 215 71q31 16 43 -8l47 -108q16 -27 -12 -45q-45 -35 -137.5 -60.5t-184.5 -25.5q-209 0 -321 135q-141 -135 -342 -135t-308.5 134t-77.5 324t171 315.5t334.5 125.5t304.5 -133q143 133 347 133z" />
    <glyph glyph-name="Racute" unicode="&#x154;" horiz-adv-x="1292" 
d="M754 723q90 0 151.5 63.5t81.5 188.5q37 221 -139 221h-309l-76 -473h291zM1090 0h-203q-27 0 -37 29l-166 456h-260l-72 -456q-4 -29 -28 -29h-209q-12 0 -20.5 9t-6.5 20l217 1376q4 29 29 29h629q152 0 236.5 -134.5t49.5 -353.5q-27 -172 -108.5 -283.5
t-194.5 -146.5l162 -485q10 -31 -18 -31zM649 1579q-31 -8 -37 16l-12 47q-6 18 14 33l351 172q35 18 45 -12l32 -100q8 -29 -22 -41z" />
    <glyph glyph-name="racute" unicode="&#x155;" horiz-adv-x="759" 
d="M563 694q-74 0 -124 -59.5t-62 -145.5l-74 -460q-4 -29 -29 -29h-194q-12 0 -20.5 9t-6.5 22l125 800q4 29 31 29h113q23 0 36 -33l23 -59q111 115 223.5 115t153.5 -41q14 -18 4 -35l-76 -123q-10 -16 -47 -3t-76 13zM406 975q-27 -16 -39 6l-25 41q-12 23 6 41l303 285
q12 10 25.5 7t19.5 -16l58 -104q16 -25 -6 -41z" />
    <glyph glyph-name="Rcommaaccent" unicode="&#x156;" horiz-adv-x="1292" 
d="M532 -90h117q31 0 29 -31l-23 -127q-8 -61 -58 -112.5t-120 -73.5q-20 -6 -22 13t18 26q98 43 111 131l-76 28q-29 14 -25 37l13 78q6 31 36 31zM754 723q90 0 151.5 63.5t81.5 188.5q37 221 -139 221h-309l-76 -473h291zM1090 0h-203q-27 0 -37 29l-166 456h-260
l-72 -456q-4 -29 -28 -29h-209q-12 0 -20.5 9t-6.5 20l217 1376q4 29 29 29h629q152 0 236.5 -134.5t49.5 -353.5q-27 -172 -108.5 -283.5t-194.5 -146.5l162 -485q10 -31 -18 -31z" />
    <glyph glyph-name="rcommaaccent" unicode="&#x157;" horiz-adv-x="759" 
d="M274 -90h117q31 0 29 -31l-23 -127q-8 -61 -58 -112.5t-120 -73.5q-20 -6 -22 13t18 26q98 43 111 131l-76 28q-29 14 -25 37l13 78q6 31 36 31zM563 694q-74 0 -124 -59.5t-62 -145.5l-74 -460q-4 -29 -29 -29h-194q-12 0 -20.5 9t-6.5 22l125 800q4 29 31 29h113
q23 0 36 -33l23 -59q111 115 223.5 115t153.5 -41q14 -18 4 -35l-76 -123q-10 -16 -47 -3t-76 13z" />
    <glyph glyph-name="Rcaron" unicode="&#x158;" horiz-adv-x="1292" 
d="M754 723q90 0 151.5 63.5t81.5 188.5q37 221 -139 221h-309l-76 -473h291zM1090 0h-203q-27 0 -37 29l-166 456h-260l-72 -456q-4 -29 -28 -29h-209q-12 0 -20.5 9t-6.5 20l217 1376q4 29 29 29h629q152 0 236.5 -134.5t49.5 -353.5q-27 -172 -108.5 -283.5
t-194.5 -146.5l162 -485q10 -31 -18 -31zM825 1579h-16q-18 0 -45 31l-133 170q-20 29 -19 49l6 39q2 16 17.5 16t28.5 -12l167 -158l222 164q20 12 31.5 4t7.5 -27l-7 -32q-2 -29 -22 -45l-195 -181q-18 -18 -43 -18z" />
    <glyph glyph-name="rcaron" unicode="&#x159;" horiz-adv-x="759" 
d="M563 694q-74 0 -124 -59.5t-62 -145.5l-74 -460q-4 -29 -29 -29h-194q-12 0 -20.5 9t-6.5 22l125 800q4 29 31 29h113q23 0 36 -33l23 -59q111 115 223.5 115t153.5 -41q14 -18 4 -35l-76 -123q-10 -16 -47 -3t-76 13zM520 1012h-16q-18 0 -45 30l-133 170q-20 29 -19 50
l6 38q2 16 17.5 16.5t27.5 -11.5l168 -158l222 164q20 12 31.5 4t6.5 -27l-6 -33q-2 -29 -22 -45l-195 -180q-18 -18 -43 -18z" />
    <glyph glyph-name="Sacute" unicode="&#x15a;" horiz-adv-x="1255" 
d="M584 -16q-324 0 -490 202q-20 27 -2 41l137 117q20 16 41 0q39 -45 125 -85t188.5 -40t190.5 49t100 128t-49 130t-189 95.5t-168 59.5t-103.5 51t-94 73t-51 97.5t-8.5 133.5q27 166 169 290t392 124q295 0 465 -190q20 -27 -4 -46l-133 -110q-23 -18 -47 0
q-131 109 -297 108q-115 0 -191 -45t-86 -118.5t47.5 -119.5t178.5 -87t181 -65.5t139 -76.5q150 -98 114 -309q-31 -168 -169 -287.5t-386 -119.5zM639 1579q-31 -8 -37 16l-12 47q-6 18 14 33l350 172q35 18 45 -12l33 -100q8 -29 -22 -41z" />
    <glyph glyph-name="sacute" unicode="&#x15b;" horiz-adv-x="839" 
d="M337.5 -16q-198.5 0 -306.5 118q-20 23 -4 41l67 90q16 18 41 -2q82 -72 223 -71q66 0 103 25.5t40 66.5t-21.5 59.5t-96.5 40.5q-122 36 -203 90.5t-57.5 179t116.5 193t262.5 68.5t270.5 -92q23 -18 8 -37l-69 -97q-16 -16 -37 -4q-96 53 -170 54q-129 0 -144 -84
q-8 -37 17.5 -59.5t98.5 -44.5t115 -38t90 -49t60.5 -79t-0.5 -113q-23 -106 -114 -181t-289.5 -75zM408 975q-27 -16 -39 6l-25 41q-12 23 6 41l303 285q12 10 25.5 7t19.5 -16l58 -104q16 -25 -6 -41z" />
    <glyph glyph-name="Scedilla" unicode="&#x15e;" horiz-adv-x="1255" 
d="M524 -403q-74 0 -113.5 28.5t-48.5 57.5q-6 12 5 20l45 33q14 12 24 -4q29 -31 62 -31q82 0 92 80q8 43 -18.5 53t-55.5 -14q-14 -10 -37 -2l-63 20q-20 6 -10 25l75 127q-248 27 -387 196q-20 27 -2 41l137 117q20 16 41 0q39 -45 125 -85t188.5 -40t190.5 49t100 128
t-49 130t-189 95.5t-168 59.5t-103.5 51t-94 73t-51 97.5t-8.5 133.5q27 166 169 290t392 124q295 0 465 -190q20 -27 -4 -46l-133 -110q-23 -18 -47 0q-131 109 -297 108q-115 0 -191 -45t-86 -118.5t47.5 -119.5t178.5 -87t181 -65.5t139 -76.5q150 -98 114 -309
q-29 -164 -163 -282.5t-370 -124.5l-45 -68q82 8 124 -39t29 -122t-64.5 -116.5t-125.5 -41.5z" />
    <glyph glyph-name="scedilla" unicode="&#x15f;" horiz-adv-x="839" 
d="M504 707q-129 0 -144 -84q-8 -37 17.5 -59.5t98.5 -44.5t115 -38t90 -49t60.5 -79t-5.5 -131.5t-102.5 -158.5t-254.5 -79l-45 -68q82 8 124 -39t28.5 -122t-64.5 -116.5t-125 -41.5t-114 28.5t-48 57.5q-6 12 4 20l45 33q14 12 34 -11.5t52 -23.5q82 0 92 80
q8 43 -18.5 53t-54.5 -14q-14 -10 -37 -2l-64 20q-20 6 -10 25l78 127q-147 25 -225 112q-20 23 -4 41l67 90q16 18 41 -2q82 -72 223 -71q66 0 103 25.5t40 66.5t-21.5 59.5t-96.5 40.5q-122 36 -203 90.5t-57.5 179t116.5 193t262.5 68.5t270.5 -92q23 -18 8 -37l-69 -97
q-16 -16 -37 -4q-96 54 -170 54z" />
    <glyph glyph-name="Scaron" unicode="&#x160;" horiz-adv-x="1255" 
d="M584 -16q-324 0 -490 202q-20 27 -2 41l137 117q20 16 41 0q39 -45 125 -85t188.5 -40t190.5 49t100 128t-49 130t-189 95.5t-168 59.5t-103.5 51t-94 73t-51 97.5t-8.5 133.5q27 166 169 290t392 124q295 0 465 -190q20 -27 -4 -46l-133 -110q-23 -18 -47 0
q-131 109 -297 108q-115 0 -191 -45t-86 -118.5t47.5 -119.5t178.5 -87t181 -65.5t139 -76.5q150 -98 114 -309q-31 -168 -169 -287.5t-386 -119.5zM815 1579h-16q-18 0 -45 31l-133 170q-20 29 -19 49l6 39q2 16 17.5 16t27.5 -12l168 -158l221 164q20 12 31.5 4t7.5 -27
l-6 -32q-2 -29 -22 -45l-195 -181q-18 -18 -43 -18z" />
    <glyph glyph-name="scaron" unicode="&#x161;" horiz-adv-x="839" 
d="M337.5 -16q-198.5 0 -306.5 118q-20 23 -4 41l67 90q16 18 41 -2q82 -72 223 -71q66 0 103 25.5t40 66.5t-21.5 59.5t-96.5 40.5q-122 36 -203 90.5t-57.5 179t116.5 193t262.5 68.5t270.5 -92q23 -18 8 -37l-69 -97q-16 -16 -37 -4q-96 53 -170 54q-129 0 -144 -84
q-8 -37 17.5 -59.5t98.5 -44.5t115 -38t90 -49t60.5 -79t-0.5 -113q-23 -106 -114 -181t-289.5 -75zM522 1012h-16q-18 0 -45 30l-133 170q-20 29 -19 50l6 38q2 16 17.5 16.5t27.5 -11.5l168 -158l222 164q20 12 31.5 4t6.5 -27l-6 -33q-2 -29 -22 -45l-195 -180
q-18 -18 -43 -18z" />
    <glyph glyph-name="uni0162" unicode="&#x162;" horiz-adv-x="1239" 
d="M1278 1434q10 0 19.5 -9.5t7.5 -21.5l-29 -178q-4 -29 -29 -29h-373l-184 -1167q-4 -29 -28 -29h-58l-49 -74q82 8 124 -39t29 -122t-64.5 -116.5t-125.5 -41.5t-113.5 28.5t-48.5 57.5q-6 12 4 20l46 33q14 12 24 -4q29 -31 62 -31q82 0 92 80q8 43 -18.5 53.5
t-55.5 -14.5q-14 -10 -37 -2l-63 20q-20 6 -11 25l78 127h-26q-12 0 -20.5 9t-6.5 22l184 1165h-366q-12 0 -20.5 9t-6.5 20l29 180q4 29 28 29h1006z" />
    <glyph glyph-name="uni0163" unicode="&#x163;" horiz-adv-x="786" 
d="M682 866q12 0 21.5 -9t7.5 -21l-23 -140q-4 -29 -31 -28h-190l-59 -375q-10 -61 3 -86t65 -25t112 41q20 10 30 -12l48 -121q10 -23 -15 -37q-96 -59 -239 -67l-47 -70q82 8 123.5 -39t28.5 -122t-64.5 -116.5t-125 -41.5t-113.5 28.5t-48 57.5q-6 12 4 20l45 33
q14 12 34 -11.5t52 -23.5q82 0 92 80q8 43 -18.5 53t-55.5 -14q-14 -9 -36 -2l-64 20q-20 6 -10 25l82 133q-168 47 -135 291l59 381h-78q-12 0 -21.5 9t-6.5 19l24 142q4 29 29 28h86l33 217q4 29 30 29h195q10 0 19.5 -9t6.5 -22l-32 -215h182z" />
    <glyph glyph-name="Tcaron" unicode="&#x164;" horiz-adv-x="1239" 
d="M1278 1434q10 0 19.5 -9.5t7.5 -21.5l-29 -178q-4 -29 -29 -29h-373l-184 -1167q-4 -29 -28 -29h-211q-12 0 -20.5 9t-6.5 22l184 1165h-366q-12 0 -20.5 9t-6.5 20l29 180q4 29 28 29h1006zM805 1579h-17q-18 0 -45 31l-133 170q-20 29 -18 49l6 39q2 16 17.5 16
t27.5 -12l168 -158l221 164q20 12 31.5 4t7.5 -27l-6 -32q-2 -29 -23 -45l-194 -181q-18 -18 -43 -18z" />
    <glyph glyph-name="tcaron" unicode="&#x165;" horiz-adv-x="872" 
d="M137 668q-12 0 -21.5 9t-6.5 19l24 142q4 29 29 28h86l33 217q4 29 30 29h195q10 0 19.5 -9t6.5 -22l-32 -215h182q12 0 21.5 -9t7.5 -21l-23 -140q-4 -29 -31 -28h-190l-59 -375q-10 -61 3 -86t65 -25t112 41q20 10 30 -12l48 -121q10 -23 -15 -37q-109 -68 -278 -67
q-258 0 -217 301l59 381h-78zM774 1522h191q34 0 28 -31l-28 -191q-16 -98 -96.5 -181t-192.5 -140q-18 -10 -26.5 11t7.5 32q176 100 197 250l-117 41q-27 14 -24 33l24 145q4 31 37 31z" />
    <glyph glyph-name="Tbar" unicode="&#x166;" horiz-adv-x="1239" 
d="M1278 1434q10 0 19.5 -9.5t7.5 -21.5l-29 -178q-4 -29 -29 -29h-373l-59 -381h141q33 0 27 -31l-22 -139q-6 -31 -33 -31h-146l-92 -585q-4 -29 -28 -29h-211q-12 0 -20.5 9t-6.5 22l92 583h-131q-33 0 -29 31l21 141q6 29 33 29h139l59 381h-366q-12 0 -20.5 9t-6.5 20
l29 180q4 29 28 29h1006z" />
    <glyph glyph-name="tbar" unicode="&#x167;" horiz-adv-x="806" 
d="M137 668q-12 0 -20 9t-6 21l22 140q4 29 31 28h86l14 109h-76q-12 0 -20 9t-6 22l20 139q4 29 31 29h84l31 192q4 29 28 29h195q12 1 20 -9t7 -22l-29 -190h184q13 0 21 -10t6 -19l-21 -141q-4 -29 -30 -29h-193l-16 -109h186q10 0 20 -9t7 -21l-23 -140q-4 -29 -28 -28
h-195l-57 -373q-10 -61 1 -88t61 -27t114 41q23 12 32 -8l48 -123q12 -23 -13 -39q-102 -68 -276 -67q-262 0 -219 309l59 375h-80z" />
    <glyph glyph-name="Umacron" unicode="&#x16a;" horiz-adv-x="1396" 
d="M1401 1434q31 0 26 -31l-131 -795q-41 -255 -186 -429q-76 -91 -195.5 -143t-258 -52t-234.5 36.5t-151.5 98t-90.5 143.5t-36 174t10 189l129 780q8 29 30 29h209q31 0 27 -31l-127 -770q-31 -184 28.5 -298t210 -114t249 120t126.5 306l125 758q4 29 29 29h211z
M709 1628q-33 0 -29 33l14 82q4 31 33 31h393q12 0 21.5 -9.5t7.5 -23.5l-12 -82q-6 -31 -33 -31h-395z" />
    <glyph glyph-name="umacron" unicode="&#x16b;" horiz-adv-x="1075" 
d="M995 866q12 0 20.5 -9t6.5 -21l-127 -809q-4 -27 -27 -27h-143q-25 0 -39 31l-27 69q-39 -51 -110.5 -83.5t-138.5 -32.5q-182 0 -257 100t-49 274l76 480q4 29 31 28h192q12 0 20.5 -9t6.5 -21l-74 -480q-29 -184 129 -184q80 0 139.5 54.5t69.5 123.5l78 488
q4 29 31 28h192zM446 1061q-33 0 -28 33l14 82q4 31 33 30h393q12 0 21.5 -9t7.5 -23l-13 -82q-6 -31 -32 -31h-396z" />
    <glyph glyph-name="ubreve" unicode="&#x16d;" horiz-adv-x="1075" 
d="M995 866q12 0 20.5 -9t6.5 -21l-127 -809q-4 -27 -27 -27h-143q-25 0 -39 31l-27 69q-39 -51 -110.5 -83.5t-138.5 -32.5q-182 0 -257 100t-49 274l76 480q4 29 31 28h192q12 0 20.5 -9t6.5 -21l-74 -480q-29 -184 129 -184q80 0 139.5 54.5t69.5 123.5l78 488
q4 29 31 28h192zM636.5 1020q-113.5 0 -177.5 61.5t-84 147.5q-4 23 14 28l78 31q20 8 31 -14q49 -115 149 -115q59 0 112.5 33t86.5 88q10 16 28 6l76 -45q16 -10 6 -29q-41 -78 -123.5 -135t-196 -57z" />
    <glyph glyph-name="Uring" unicode="&#x16e;" horiz-adv-x="1396" 
d="M1401 1434q31 0 26 -31l-131 -795q-41 -255 -186 -429q-76 -91 -195.5 -143t-258 -52t-234.5 36.5t-151.5 98t-90.5 143.5t-36 174t10 189l129 780q8 29 30 29h209q31 0 27 -31l-127 -770q-31 -184 28.5 -298t210 -114t249 120t126.5 306l125 758q4 29 29 29h211z
M895 1690q33 0 54.5 21.5t25.5 55t-12.5 54t-47.5 20.5q-68 0 -77 -74q-6 -33 9 -55t48 -22zM883 1573q-80 0 -130.5 56.5t-36 145.5t72 136t138.5 47t132 -57.5t36 -145.5t-73.5 -135t-138.5 -47z" />
    <glyph glyph-name="uring" unicode="&#x16f;" horiz-adv-x="1075" 
d="M995 866q12 0 20.5 -9t6.5 -21l-127 -809q-4 -27 -27 -27h-143q-25 0 -39 31l-27 69q-39 -51 -110.5 -83.5t-138.5 -32.5q-182 0 -257 100t-49 274l76 480q4 29 31 28h192q12 0 20.5 -9t6.5 -21l-74 -480q-29 -184 129 -184q80 0 139.5 54.5t69.5 123.5l78 488
q4 29 31 28h192zM633 1122q33 0 54.5 21.5t25.5 55.5t-12.5 54.5t-47.5 20.5q-68 0 -78 -74q-6 -33 9.5 -55.5t48.5 -22.5zM621 1006q-80 0 -130.5 56t-36 145t72 136.5t138 47.5t132 -57.5t36 -145.5t-73.5 -135t-138 -47z" />
    <glyph glyph-name="Uhungarumlaut" unicode="&#x170;" horiz-adv-x="1396" 
d="M1401 1434q31 0 26 -31l-131 -795q-41 -255 -186 -429q-76 -91 -195.5 -143t-258 -52t-234.5 36.5t-151.5 98t-90.5 143.5t-36 174t10 189l129 780q8 29 30 29h209q31 0 27 -31l-127 -770q-31 -184 28.5 -298t210 -114t249 120t126.5 306l125 758q4 29 29 29h211z
M735 1591l-24 29q-12 18 12 41l227 180q27 18 39 -8l47 -61l88 69q25 16 39 -8l66 -84q12 -23 -10 -35l-271 -133q-25 -8 -37 6l-26 31q-6 8 -6 16l-105 -51q-25 -12 -39 8z" />
    <glyph glyph-name="uhungarumlaut" unicode="&#x171;" horiz-adv-x="1075" 
d="M995 866q12 0 20.5 -9t6.5 -21l-127 -809q-4 -27 -27 -27h-143q-25 0 -39 31l-27 69q-39 -51 -110.5 -83.5t-138.5 -32.5q-182 0 -257 100t-49 274l76 480q4 29 31 28h192q12 0 20.5 -9t6.5 -21l-74 -480q-29 -184 129 -184q80 0 139.5 54.5t69.5 123.5l78 488
q4 29 31 28h192zM389 1024l-33 18q-18 16 -2 41l183 234q16 20 41 0l79 -51q27 -27 2 -45l-231 -195q-16 -14 -39 -2zM717 1024l-33 20q-23 12 -4 39l182 234q14 20 41 2l80 -53q31 -23 4 -45l-233 -195q-17 -14 -37 -2z" />
    <glyph glyph-name="Uogonek" unicode="&#x172;" horiz-adv-x="1396" 
d="M1401 1434q31 0 26 -31l-131 -795q-35 -215 -146.5 -376.5t-305.5 -221.5q-152 -121 -170 -237q-6 -35 10 -54.5t43 -19.5q59 0 102 45q14 14 33 -2l23 -25q12 -12 4 -32q-63 -100 -191 -101q-82 0 -134 48.5t-38 138.5q18 117 162 215q-14 -2 -45 -2q-125 0 -221 36.5
t-151.5 98t-90.5 143.5t-36 174t10 189l129 780q8 29 30 29h209q31 0 27 -31l-127 -770q-31 -184 28.5 -298t209.5 -114t249 120t127 306l125 758q4 29 29 29h211z" />
    <glyph glyph-name="uogonek" unicode="&#x173;" horiz-adv-x="1075" 
d="M995 866q12 0 20.5 -9t6.5 -21l-127 -809q-4 -27 -27 -27h-51q-139 -113 -155 -227q-6 -35 10 -54.5t43 -19.5q59 0 102 45q14 14 33 -2l22 -25q12 -12 5 -32q-63 -100 -191 -101q-82 0 -134 48.5t-39 129.5t69.5 143t126.5 99q-10 6 -23 27l-27 69q-39 -51 -110.5 -83.5
t-138.5 -32.5q-182 0 -257 100t-49 274l76 480q4 29 31 28h192q12 0 20.5 -9t6.5 -21l-74 -480q-29 -184 129 -184q80 0 139.5 54.5t69.5 123.5l78 488q4 29 31 28h192z" />
    <glyph glyph-name="Wcircumflex" unicode="&#x174;" horiz-adv-x="1941" 
d="M1995 1434q14 0 22 -12.5t2 -28.5l-620 -1366q-14 -27 -33 -27h-100q-25 0 -31 29l-178 905l-451 -909q-12 -25 -33 -25h-104q-20 0 -27 29l-213 1366q-4 39 25 39h197q20 0 28 -29l125 -899l443 905q8 23 26 23h90q18 0 25 -29l184 -897l402 905q12 20 30 21h191z
M1180 1886h14q20 0 45 -31l147 -159q16 -16 13 -39l-10 -58q-8 -35 -37 -6l-181 150l-231 -158q-14 -8 -23.5 -2t-7.5 19l11 59q6 25 26 43l189 164q18 18 45 18z" />
    <glyph glyph-name="wcircumflex" unicode="&#x175;" horiz-adv-x="1386" 
d="M1360 866q14 0 20 -11t0 -24l-411 -804q-14 -27 -31 -27h-121q-23 0 -26 29l-84 499l-238 -501q-14 -27 -31 -27h-121q-23 0 -26 27l-156 809q-8 31 25 30h186q27 0 31 -28l63 -471l228 473q14 27 30 26h103q23 0 26 -28l82 -471l211 471q12 29 33 28h207zM825 1319
q20 0 45 -31l148 -160q16 -16 12 -38l-10 -58q-8 -37 -37 -6l-180 150l-232 -158q-14 -8 -23 -2t-7 18l10 60q6 25 27 43l188 163q18 18 45 19h14z" />
    <glyph glyph-name="Ycircumflex" unicode="&#x176;" horiz-adv-x="1300" 
d="M1346 1434q18 0 28 -15.5t-2 -36.5l-569 -770l-96 -583q-4 -29 -29 -29h-209q-12 0 -20.5 8t-6.5 21l93 583l-302 787q-12 35 21 35h207q31 0 45 -35l199 -525l387 535q18 25 47 25h207zM854 1886h14q20 0 45 -31l148 -159q16 -16 12 -39l-10 -58q-6 -35 -37 -6l-180 150
l-232 -158q-14 -8 -23 -2t-7 19l10 59q6 25 27 43l188 164q18 18 45 18z" />
    <glyph glyph-name="ycircumflex" unicode="&#x177;" horiz-adv-x="1095" 
d="M1083 866q14 0 20.5 -11t-1.5 -28l-785 -1175q-18 -29 -34 -29h-203q-14 0 -19.5 13.5t2.5 27.5l304 445l-246 722q-8 35 24 35h183q20 0 28 -30l164 -490l330 494q14 27 33 26h200zM676 1319q20 0 45 -31l147 -160q16 -16 13 -38l-11 -58q-6 -37 -36 -6l-181 150
l-231 -158q-14 -8 -23.5 -2t-7.5 18l10 60q6 25 27 43l188 163q18 18 46 19h14z" />
    <glyph glyph-name="Ydieresis" unicode="&#x178;" horiz-adv-x="1300" 
d="M1346 1434q18 0 28 -15.5t-2 -36.5l-569 -770l-96 -583q-4 -29 -29 -29h-209q-12 0 -20.5 8t-6.5 21l93 583l-302 787q-12 35 21 35h207q31 0 45 -35l199 -525l387 535q18 25 47 25h207zM983 1630q-39 0 -63.5 30t-18.5 64t29.5 53t59.5 19t58.5 -29.5t16.5 -68.5
q-14 -68 -82 -68zM711 1630q-39 0 -63.5 30t-18.5 64t29.5 53t59.5 19t59.5 -29.5t15.5 -68.5q-14 -68 -82 -68z" />
    <glyph glyph-name="Zacute" unicode="&#x179;" horiz-adv-x="1239" 
d="M293 1196q-12 0 -20.5 8t-6.5 21l29 180q4 29 29 29h944q18 0 25 -18.5t-5 -35.5l-817 -1142h590q12 0 20.5 -8.5t5.5 -20.5l-28 -180q-4 -29 -29 -29h-962q-23 0 -32 17.5t3 33.5l819 1145h-565zM625 1579q-31 -8 -37 16l-13 47q-6 18 15 33l350 172q35 18 45 -12
l33 -100q8 -29 -23 -41z" />
    <glyph glyph-name="zacute" unicode="&#x17a;" horiz-adv-x="851" 
d="M184 676q-12 0 -21 8t-7 21l20 131q4 31 33 30h598q18 0 24.5 -17.5t-4.5 -31.5l-442 -627h289q12 0 21.5 -9t6.5 -21l-20 -131q-4 -29 -31 -29h-610q-12 0 -19.5 14.5t3.5 30.5l446 631h-287zM428 975q-27 -16 -39 6l-24 41q-12 23 6 41l303 285q12 10 25.5 7t19.5 -16
l57 -104q16 -25 -6 -41z" />
    <glyph glyph-name="Zdotaccent" unicode="&#x17b;" horiz-adv-x="1239" 
d="M293 1196q-12 0 -20.5 8t-6.5 21l29 180q4 29 29 29h944q18 0 25 -18.5t-5 -35.5l-817 -1142h590q12 0 20.5 -8.5t5.5 -20.5l-28 -180q-4 -29 -29 -29h-962q-23 0 -32 17.5t3 33.5l819 1145h-565zM802 1610q-42 0 -72 35.5t-19 78.5q6 39 35.5 63.5t71.5 24.5t71 -34.5
t20.5 -77.5t-37 -66.5t-70.5 -23.5z" />
    <glyph glyph-name="zdotaccent" unicode="&#x17c;" horiz-adv-x="851" 
d="M184 676q-12 0 -21 8t-7 21l20 131q4 31 33 30h598q18 0 24.5 -17.5t-4.5 -31.5l-442 -627h289q12 0 21.5 -9t6.5 -21l-20 -131q-4 -29 -31 -29h-610q-12 0 -19.5 14.5t3.5 30.5l446 631h-287zM544 1042q-42 0 -72 36t-19 79q6 39 35.5 63.5t71.5 24.5t70.5 -34.5
t20.5 -78t-36.5 -67t-70.5 -23.5z" />
    <glyph glyph-name="Zcaron" unicode="&#x17d;" horiz-adv-x="1239" 
d="M293 1196q-12 0 -20.5 8t-6.5 21l29 180q4 29 29 29h944q18 0 25 -18.5t-5 -35.5l-817 -1142h590q12 0 20.5 -8.5t5.5 -20.5l-28 -180q-4 -29 -29 -29h-962q-23 0 -32 17.5t3 33.5l819 1145h-565zM801 1579h-17q-18 0 -45 31l-133 170q-20 29 -18 49l6 39q2 16 17.5 16
t27.5 -12l168 -158l221 164q20 12 31.5 4t7.5 -27l-6 -32q-2 -29 -23 -45l-194 -181q-18 -18 -43 -18z" />
    <glyph glyph-name="zcaron" unicode="&#x17e;" horiz-adv-x="851" 
d="M184 676q-12 0 -21 8t-7 21l20 131q4 31 33 30h598q18 0 24.5 -17.5t-4.5 -31.5l-442 -627h289q12 0 21.5 -9t6.5 -21l-20 -131q-4 -29 -31 -29h-610q-12 0 -19.5 14.5t3.5 30.5l446 631h-287zM543 1012h-17q-18 0 -45 30l-133 170q-20 29 -18 50l6 38q2 16 17.5 16.5
t27.5 -11.5l168 -158l221 164q20 12 31.5 4t7.5 -27l-6 -33q-2 -29 -23 -45l-194 -180q-18 -18 -43 -18z" />
    <glyph glyph-name="florin" unicode="&#x192;" horiz-adv-x="899" 
d="M725 836q14 0 22.5 -9.5t6.5 -19.5l-29 -178q-4 -29 -31 -29h-202l-109 -686q-16 -90 -75.5 -168t-151.5 -125q-27 -14 -50 8l-98 111q-18 23 0 43q104 86 115 151l106 666h-82q-12 0 -20 8t-6 21l29 186q2 20 24 21h92l31 196q37 227 147.5 322.5t264 95.5t262.5 -66
q25 -18 6 -43l-86 -106q-16 -20 -39 -10q-42 25 -114 25q-146 -1 -181 -240l-29 -174h197z" />
    <glyph glyph-name="Scommaaccent" unicode="&#x218;" horiz-adv-x="1255" 
d="M502 -90h116q33 0 29 -31l-22 -127q-8 -61 -58.5 -112.5t-120.5 -73.5q-20 -6 -22 13t18 26q98 43 111 131l-76 28q-29 14 -24 37l12 78q6 31 37 31zM584 -16q-324 0 -490 202q-20 27 -2 41l137 117q20 16 41 0q39 -45 125 -85t188.5 -40t190.5 49t100 128t-49 130
t-189 95.5t-168 59.5t-103.5 51t-94 73t-51 97.5t-8.5 133.5q27 166 169 290t392 124q295 0 465 -190q20 -27 -4 -46l-133 -110q-23 -18 -47 0q-131 109 -297 108q-115 0 -191 -45t-86 -118.5t47.5 -119.5t178.5 -87t181 -65.5t139 -76.5q150 -98 114 -309
q-31 -168 -169 -287.5t-386 -119.5z" />
    <glyph glyph-name="scommaaccent" unicode="&#x219;" horiz-adv-x="839" 
d="M274 -90h117q31 0 29 -31l-23 -127q-8 -61 -58 -112.5t-120 -73.5q-20 -6 -22 13t18 26q98 43 111 131l-76 28q-29 14 -25 37l13 78q6 31 36 31zM337.5 -16q-198.5 0 -306.5 118q-20 23 -4 41l67 90q16 18 41 -2q82 -72 223 -71q66 0 103 25.5t40 66.5t-21.5 59.5
t-96.5 40.5q-122 36 -203 90.5t-57.5 179t116.5 193t262.5 68.5t270.5 -92q23 -18 8 -37l-69 -97q-16 -16 -37 -4q-96 53 -170 54q-129 0 -144 -84q-8 -37 17.5 -59.5t98.5 -44.5t115 -38t90 -49t60.5 -79t-0.5 -113q-23 -106 -114 -181t-289.5 -75z" />
    <glyph glyph-name="uni021A" unicode="&#x21a;" horiz-adv-x="1239" 
d="M496 -80h116q31 0 29 -31l-23 -127q-8 -61 -58 -112t-120 -74q-20 -6 -22 13t18 26q98 43 111 131l-76 29q-29 14 -25 37l13 77q6 31 37 31zM1278 1434q10 0 19.5 -9.5t7.5 -21.5l-29 -178q-4 -29 -29 -29h-373l-184 -1167q-4 -29 -28 -29h-211q-12 0 -20.5 9t-6.5 22
l184 1165h-366q-12 0 -20.5 9t-6.5 20l29 180q4 29 28 29h1006z" />
    <glyph glyph-name="uni021B" unicode="&#x21b;" horiz-adv-x="786" 
d="M305 -90h117q33 0 29 -31l-23 -127q-8 -61 -58.5 -112.5t-119.5 -73.5q-20 -6 -22.5 13t18.5 26q98 43 110 131l-75 28q-29 14 -25 37l12 78q6 31 37 31zM137 668q-12 0 -21.5 9t-6.5 19l24 142q4 29 29 28h86l33 217q4 29 30 29h195q10 0 19.5 -9t6.5 -22l-32 -215h182
q12 0 21.5 -9t7.5 -21l-23 -140q-4 -29 -31 -28h-190l-59 -375q-10 -61 3 -86t65 -25t112 41q20 10 30 -12l48 -121q10 -23 -15 -37q-109 -68 -278 -67q-258 0 -217 301l59 381h-78z" />
    <glyph glyph-name="circumflex" unicode="&#x2c6;" horiz-adv-x="724" 
d="M537 1630h14q20 0 45 -31l147 -159q16 -16 13 -39l-11 -58q-8 -35 -36 -6l-181 150l-231 -158q-14 -8 -24 -2q-9 6 -7 19l10 59q6 25 27 43l189 164q18 18 45 18z" />
    <glyph glyph-name="caron" unicode="&#x2c7;" horiz-adv-x="720" 
d="M516 1319h-16q-18 0 -45 31l-133 170q-20 29 -19 49l6 39q1 16 17 16t28 -12l168 -158l221 164q19 12 31 4t8 -27l-6 -32q-2 -29 -22 -45l-195 -181q-18 -18 -43 -18z" />
    <glyph glyph-name="breve" unicode="&#x2d8;" horiz-adv-x="835" 
d="M560 1327q-114 -1 -176 61q-64 62 -85 148q-4 23 14 29l78 30q20 8 31 -14q49 -115 149 -115q59 0 113 33q53 33 86 88q10 16 29 6l75 -45q16 -10 7 -28q-41 -78 -124 -136t-197 -57z" />
    <glyph glyph-name="dotaccent" unicode="&#x2d9;" horiz-adv-x="448" 
d="M378 1350q-42 0 -72 36t-19 78q6 39 36 64q29 24 71 24t71 -34t21 -78q-18 -90 -108 -90z" />
    <glyph glyph-name="ring" unicode="&#x2da;" horiz-adv-x="626" 
d="M475 1444q33 0 55 22t25 55q4 34 -12 54t-47 20q-68 0 -78 -73q-6 -34 9 -56t48 -22zM463 1327q-80 0 -130 56q-50 55 -36 145q13 90 71 137t139 47t132 -57t36 -145t-73 -136q-58 -47 -139 -47z" />
    <glyph glyph-name="ogonek" unicode="&#x2db;" horiz-adv-x="622" 
d="M186 -436q-82 0 -134 48t-39 132t77 148t137 102h109q-156 -125 -174 -242q-12 -74 69 -74q43 0 86 46q14 14 33 -3l23 -24q12 -12 4 -33q-63 -100 -191 -100z" />
    <glyph glyph-name="tilde" unicode="&#x2dc;" horiz-adv-x="874" 
d="M725 1348q-70 0 -131 40t-107 39q-78 0 -125 -57q-10 -14 -36 -6l-33 16q-25 10 -12 37q63 127 202 127q74 0 142 -40t96 -40q66 0 115 64q10 10 28 4l39 -19q25 -14 10 -36q-66 -129 -188 -129z" />
    <glyph glyph-name="hungarumlaut" unicode="&#x2dd;" horiz-adv-x="870" 
d="M315 1331l-32 19q-18 16 -2 41l182 233q16 20 41 0l80 -51q27 -27 2 -45l-232 -195q-16 -14 -39 -2zM643 1331l-33 21q-23 12 -4 39l182 233q14 20 41 2l80 -53q31 -23 4 -45l-233 -195q-17 -14 -37 -2z" />
    <glyph glyph-name="gravecomb" unicode="&#x300;" 
d="M-47 1282l-342 219q-23 16 -6 41l57 105q18 31 45 8l303 -285q18 -18 6 -41l-24 -41q-12 -22 -39 -6z" />
    <glyph glyph-name="acutecomb" unicode="&#x301;" 
d="M-305 1282q-27 -16 -39 6l-25 41q-12 23 7 41l303 285q27 23 45 -8l57 -105q16 -25 -6 -41z" />
    <glyph glyph-name="uni0302" unicode="&#x302;" 
d="M-190 1626h14q20 0 45 -31l147 -159q16 -16 13 -39l-11 -58q-6 -37 -36 -6l-181 150l-231 -158q-14 -8 -23.5 -2t-7.5 18l10 60q6 25 27 43l188 164q18 18 46 18z" />
    <glyph glyph-name="tildecomb" unicode="&#x303;" 
d="M-156 1348q-62 0 -125 39.5t-106 39.5q-78 0 -125 -57q-10 -14 -37 -6l-33 16q-25 10 -12 37q63 127 203 127q74 0 141.5 -40t95.5 -40q66 0 115 64q10 10 29 4l39 -19q25 -14 10 -36q-31 -61 -82 -95t-113 -34z" />
    <glyph glyph-name="uni0304" unicode="&#x304;" 
d="M-395 1368q-33 0 -29 33l14 82q4 31 33 30h393q12 0 21.5 -9t7.5 -23l-12 -82q-6 -31 -33 -31h-395z" />
    <glyph glyph-name="uni0306" unicode="&#x306;" 
d="M-275.5 1327q-113.5 0 -177 61.5t-84.5 147.5q-4 23 15 29l78 30q20 8 30 -14q49 -115 150 -115q59 0 112.5 33t85.5 88q10 16 29 6l76 -45q16 -10 6 -28q-41 -78 -124 -135.5t-196.5 -57.5z" />
    <glyph glyph-name="uni0307" unicode="&#x307;" 
d="M-71 1350q-42 0 -71.5 35.5t-21.5 76.5t38 65.5t72 24.5t70.5 -34.5t20.5 -77.5t-37 -66.5t-71 -23.5z" />
    <glyph glyph-name="uni0308" unicode="&#x308;" 
d="M-45 1370q-39 0 -63.5 30t-18.5 64t29.5 53t59.5 19t58.5 -29.5t16.5 -68.5q-14 -68 -82 -68zM-317 1370q-39 0 -64 30t-19 64t30 53t60 19t59.5 -29.5t14.5 -68.5q-13 -68 -81 -68z" />
    <glyph glyph-name="uni030A" unicode="&#x30a;" 
d="M-155.5 1430q32.5 0 54 21.5t25.5 55t-12 54t-47 20.5q-68 0 -78 -74q-6 -33 9.5 -55t48 -22zM-168 1313q-80 0 -130 56t-36 145.5t71.5 136.5t138.5 47t132 -57.5t36 -145.5t-73.5 -135t-138.5 -47z" />
    <glyph glyph-name="uni030B" unicode="&#x30b;" 
d="M-555 1331l-33 19q-18 16 -2 41l182 233q16 20 41 0l80 -51q27 -27 2 -45l-231 -195q-16 -14 -39 -2zM-227 1331l-33 21q-23 12 -4 39l182 233q14 20 41 2l80 -53q31 -23 4 -45l-233 -195q-17 -14 -37 -2z" />
    <glyph glyph-name="uni030C" unicode="&#x30c;" 
d="M-205 1319h-16q-18 0 -45 31l-133 170q-20 29 -19 49l6 39q2 16 17.5 16t27.5 -12l168 -158l222 164q20 12 31.5 4t6.5 -27l-6 -32q-2 -29 -22 -45l-195 -181q-18 -18 -43 -18z" />
    <glyph glyph-name="uni0312" unicode="&#x312;" 
d="M-14 1327h-117q-33 0 -29 31l23 127q8 61 58 112.5t120 73.5q20 6 22 -13t-18 -26q-98 -43 -111 -131l76 -28q29 -14 25 -37l-12 -78q-6 -31 -37 -31z" />
    <glyph glyph-name="uni0326" unicode="&#x326;" 
d="M-356 -92h116q31 0 29 -31l-22 -127q-8 -61 -58.5 -112.5t-120.5 -73.5q-20 -6 -22 13t18 26q98 43 111 131l-76 28q-29 14 -25 37l13 78q6 31 37 31z" />
    <glyph glyph-name="uni0327" unicode="&#x327;" 
d="M-422 -412q-74 0 -113.5 29t-47 49t2.5 29l45 33q14 12 34 -11.5t52 -23.5q82 0 93 80q8 43 -18.5 53t-55.5 -14q-18 -12 -37 -2l-63 20q-20 6 -11 25l99 161h129l-72 -108q82 8 124 -39t29 -122t-64.5 -117t-125.5 -42z" />
    <glyph glyph-name="uni0328" unicode="&#x328;" 
d="M-436 -436q-82 0 -134.5 48t-39 132t77 148.5t137.5 101.5h108q-156 -125 -174 -242q-6 -35 10.5 -54.5t42.5 -19.5q59 0 103 46q14 14 33 -3l22 -24q12 -12 4 -33q-63 -100 -190 -100z" />
    <glyph glyph-name="uni0335" unicode="&#x335;" 
d="M-711 328q-31 0 -28 30l20 142q6 29 33 28h547q33 0 26 -30l-22 -140q-6 -31 -33 -30h-543z" />
    <glyph glyph-name="uni0336" unicode="&#x336;" 
d="M-1366 328q-35 0 -29 30l21 142q6 29 33 28h1202q33 0 26 -30l-22 -140q-6 -31 -33 -30h-1198z" />
    <glyph glyph-name="uni0337" unicode="&#x337;" 
d="M-502 0h-131q-14 0 -21 10t-3 23l450 1075q12 31 35 31h131q13 1 21 -9t2 -24l-449 -1075q-12 -31 -35 -31z" />
    <glyph glyph-name="uni0338" unicode="&#x338;" 
d="M-578 0h-131q-14 0 -21 10t-3 23l573 1370q12 31 35 31h131q14 0 22 -10t1 -23l-572 -1370q-15 -31 -35 -31z" />
    <glyph glyph-name="uni0394" unicode="&#x394;" horiz-adv-x="1533" 
d="M881 1102l-451 -864h623zM1323 0h-1245q-12 0 -22 11q-9 11 -3 24l725 1372q12 27 29 27h229q18 0 25 -27l291 -1374q4 -13 -5 -23t-24 -10z" />
    <glyph glyph-name="Pi" unicode="&#x3a0;" horiz-adv-x="1288" 
d="M1262 1434q14 0 22 -10t6 -21l-217 -1374q-4 -29 -29 -29h-196q-10 0 -20 9q-9 9 -7 22l187 1179h-482l-186 -1181q-4 -29 -31 -29h-194q-12 0 -22 9q-9 9 -7 22l217 1372q6 31 35 31h924z" />
    <glyph glyph-name="uni03A9" unicode="&#x3a9;" horiz-adv-x="1593" 
d="M1413 238q11 0 21 -10t8 -21l-29 -178q-4 -29 -31 -29h-548q-37 0 -17 43q6 25 72 101t140 161q75 86 147 225t92 279q28 211 -68 306t-273 95t-315 -106t-174 -324q-23 -133 2 -266t67 -215t87 -158t49 -96q8 -17 2 -31t-22 -14h-541q-12 0 -22 9q-9 9 -7 22l27 176
q4 31 33 31h196q-2 4 -21 45q-18 41 -34 71t-26 63t-33 98q-22 65 -26 152q-3 86 7 142q39 281 256 461t519 180t467 -190t112 -480q-16 -102 -72 -212t-100 -171q-45 -61 -125 -159h180z" />
    <glyph glyph-name="uni03BC" unicode="&#x3bc;" horiz-adv-x="1105" 
d="M940 0h-184q-27 0 -41 31l-35 61q-113 -109 -256 -108q-74 0 -109 41l-73 -435q-4 -29 -29 -28h-197q-12 0 -20 9t-6 21l196 1246q4 29 31 28h195q10 0 19 -9t7 -21l-76 -476q-29 -188 138 -188q88 0 145 48t70 128l76 490q4 29 30 28h195q10 0 19 -9t7 -21l-102 -654
q-17 -102 14 -151q6 -7 3 -19t-17 -12z" />
    <glyph glyph-name="pi" unicode="&#x3c0;" horiz-adv-x="1400" 
d="M1128 16q0 -16 -20 -16h-178q-20 0 -41 31q-59 109 -43 213l63 401h-301l-96 -614q-4 -31 -31 -31h-192q-12 0 -21 9q-8 9 -6 22l103 612q-96 -2 -195 -74q-14 -10 -31 -2q-16 8 -12 25l29 176q4 33 38 49q34 17 73 33q38 16 132 16h920q33 0 29 -32l-25 -158
q-4 -31 -33 -31h-131l-65 -422q-4 -25 -4 -58t7 -57t8 -29t11 -26l10 -22q2 -8 2 -15z" />
    <glyph glyph-name="Wgrave" unicode="&#x1e80;" horiz-adv-x="1941" 
d="M1995 1434q14 0 22 -12.5t2 -28.5l-620 -1366q-14 -27 -33 -27h-100q-25 0 -31 29l-178 905l-451 -909q-12 -25 -33 -25h-104q-20 0 -27 29l-213 1366q-4 39 25 39h197q20 0 28 -29l125 -899l443 905q8 23 26 23h90q18 0 25 -29l184 -897l402 905q12 20 30 21h191z
M1352 1581l-371 115q-31 12 -23 41l33 100q10 31 45 12l350 -172q20 -14 15 -32l-12 -48q-6 -24 -37 -16z" />
    <glyph glyph-name="wgrave" unicode="&#x1e81;" horiz-adv-x="1386" 
d="M1360 866q14 0 20 -11t0 -24l-411 -804q-14 -27 -31 -27h-121q-23 0 -26 29l-84 499l-238 -501q-14 -27 -31 -27h-121q-23 0 -26 27l-156 809q-8 31 25 30h186q27 0 31 -28l63 -471l228 473q14 27 30 26h103q23 0 26 -28l82 -471l211 471q12 29 33 28h207zM946 975
l-342 219q-23 16 -6 41l57 104q6 12 19.5 15.5t25.5 -6.5l304 -285q18 -18 6 -41l-25 -41q-12 -22 -39 -6z" />
    <glyph glyph-name="Wacute" unicode="&#x1e82;" horiz-adv-x="1941" 
d="M1995 1434q14 0 22 -12.5t2 -28.5l-620 -1366q-14 -27 -33 -27h-100q-25 0 -31 29l-178 905l-451 -909q-12 -25 -33 -25h-104q-20 0 -27 29l-213 1366q-4 39 25 39h197q20 0 28 -29l125 -899l443 905q8 23 26 23h90q18 0 25 -29l184 -897l402 905q12 20 30 21h191z
M983 1579q-31 -8 -37 16l-12 47q-6 18 14 33l350 172q35 18 45 -12l33 -100q8 -29 -22 -41z" />
    <glyph glyph-name="wacute" unicode="&#x1e83;" horiz-adv-x="1386" 
d="M1360 866q14 0 20 -11t0 -24l-411 -804q-14 -27 -31 -27h-121q-23 0 -26 29l-84 499l-238 -501q-14 -27 -31 -27h-121q-23 0 -26 27l-156 809q-8 31 25 30h186q27 0 31 -28l63 -471l228 473q14 27 30 26h103q23 0 26 -28l82 -471l211 471q12 29 33 28h207zM676 975
q-27 -16 -39 6l-25 41q-12 23 6 41l304 285q12 10 25.5 7t19.5 -16l57 -104q16 -25 -6 -41z" />
    <glyph glyph-name="Wdieresis" unicode="&#x1e84;" horiz-adv-x="1941" 
d="M1995 1434q14 0 22 -12.5t2 -28.5l-620 -1366q-14 -27 -33 -27h-100q-25 0 -31 29l-178 905l-451 -909q-12 -25 -33 -25h-104q-20 0 -27 29l-213 1366q-4 39 25 39h197q20 0 28 -29l125 -899l443 905q8 23 26 23h90q18 0 25 -29l184 -897l402 905q12 20 30 21h191z
M1309 1630q-39 0 -63.5 30t-18.5 64t29.5 53t59.5 19t58.5 -29.5t16.5 -68.5q-14 -68 -82 -68zM1036 1630q-39 0 -63.5 30t-18.5 64t30 53t60 19t59 -29.5t15 -68.5q-14 -68 -82 -68z" />
    <glyph glyph-name="wdieresis" unicode="&#x1e85;" horiz-adv-x="1386" 
d="M1360 866q14 0 20 -11t0 -24l-411 -804q-14 -27 -31 -27h-121q-23 0 -26 29l-84 499l-238 -501q-14 -27 -31 -27h-121q-23 0 -26 27l-156 809q-8 31 25 30h186q27 0 31 -28l63 -471l228 473q14 27 30 26h103q23 0 26 -28l82 -471l211 471q12 29 33 28h207zM940 1063
q-39 0 -63.5 29.5t-18.5 63.5t29.5 53.5t59.5 19.5t58.5 -30t16.5 -69q-14 -67 -82 -67zM668 1063q-39 0 -63.5 29.5t-18.5 63.5t29.5 53.5t59.5 19.5t59.5 -30t15.5 -69q-14 -67 -82 -67z" />
    <glyph glyph-name="Ygrave" unicode="&#x1ef2;" horiz-adv-x="1300" 
d="M1346 1434q18 0 28 -15.5t-2 -36.5l-569 -770l-96 -583q-4 -29 -29 -29h-209q-12 0 -20.5 8t-6.5 21l93 583l-302 787q-12 35 21 35h207q31 0 45 -35l199 -525l387 535q18 25 47 25h207zM1026 1581l-371 115q-31 12 -22 41l33 100q10 31 45 12l350 -172q20 -14 14 -32
l-12 -48q-6 -24 -37 -16z" />
    <glyph glyph-name="ygrave" unicode="&#x1ef3;" horiz-adv-x="1095" 
d="M1083 866q14 0 20.5 -11t-1.5 -28l-785 -1175q-18 -29 -34 -29h-203q-14 0 -19.5 13.5t2.5 27.5l304 445l-246 722q-8 35 24 35h183q20 0 28 -30l164 -490l330 494q14 27 33 26h200zM797 975l-342 219q-23 16 -6 41l57 104q6 12 19.5 15.5t25.5 -6.5l303 -285
q18 -18 6 -41l-24 -41q-12 -22 -39 -6z" />
    <glyph glyph-name="endash" unicode="&#x2013;" horiz-adv-x="1153" 
d="M143 362q-12 0 -20 10t-6 19l18 123q4 29 31 29h850q12 0 20 -9t6 -22l-18 -121q-4 -29 -31 -29h-850z" />
    <glyph glyph-name="emdash" unicode="&#x2014;" horiz-adv-x="1710" 
d="M143 362q-12 0 -20 10t-6 19l18 123q4 29 31 29h1407q12 0 21 -9t8 -22l-21 -121q-4 -29 -31 -29h-1407z" />
    <glyph glyph-name="quoteleft" unicode="&#x2018;" horiz-adv-x="466" 
d="M410 954h-191q-35 0 -29 31l29 191q16 98 96 181t193 140q18 10 26 -11t-8 -32q-176 -100 -196 -250l116 -41q27 -14 25 -33l-25 -145q-4 -31 -36 -31z" />
    <glyph glyph-name="quoteright" unicode="&#x2019;" horiz-adv-x="464" 
d="M297 1434h190q35 0 29 -31l-29 -191q-16 -98 -96 -181t-192 -140q-19 -10 -27 11t8 32q176 100 197 250l-117 41q-27 14 -24 32l24 146q2 31 37 31z" />
    <glyph glyph-name="quotesinglbase" unicode="&#x201a;" horiz-adv-x="466" 
d="M104 215h191q35 0 29 -31l-29 -190q-16 -98 -96 -181t-193 -141q-18 -10 -26 12t8 31q176 100 196 250l-116 41q-27 14 -25 33l25 145q2 31 36 31z" />
    <glyph glyph-name="quotedblleft" unicode="&#x201c;" horiz-adv-x="937" 
d="M881 954h-191q-34 0 -28 31l28 191q16 98 96 181t193 140q19 10 27 -11t-9 -32q-176 -100 -196 -250l117 -41q27 -14 24 -33l-24 -145q-4 -31 -37 -31zM410 954h-191q-35 0 -29 31l29 191q16 98 96 181t193 140q18 10 26 -11t-8 -32q-176 -100 -196 -250l116 -41
q27 -14 25 -33l-25 -145q-4 -31 -36 -31z" />
    <glyph glyph-name="quotedblright" unicode="&#x201d;" horiz-adv-x="935" 
d="M768 1434h190q35 0 29 -31l-29 -191q-16 -98 -96 -181t-192 -140q-18 -10 -26 11t7 32q176 100 197 250l-117 41q-27 14 -24 32l24 146q2 31 37 31zM297 1434h190q35 0 29 -31l-29 -191q-16 -98 -96 -181t-192 -140q-19 -10 -27 11t8 32q176 100 197 250l-117 41
q-27 14 -24 32l24 146q2 31 37 31z" />
    <glyph glyph-name="quotedblbase" unicode="&#x201e;" horiz-adv-x="937" 
d="M575 215h191q35 0 29 -31l-29 -190q-16 -98 -96 -181t-193 -141q-18 -10 -26 12t8 31q176 100 196 250l-116 41q-27 14 -25 33l25 145q2 31 36 31zM104 215h191q35 0 29 -31l-29 -190q-16 -98 -96 -181t-193 -141q-18 -10 -26 12t8 31q176 100 196 250l-116 41
q-27 14 -25 33l25 145q2 31 36 31z" />
    <glyph glyph-name="dagger" unicode="&#x2020;" horiz-adv-x="983" 
d="M928 1071q33 0 26 -31l-18 -118q-6 -31 -35 -31h-237l-138 -860q-4 -31 -30 -31h-142q-12 0 -21 9t-7 22l137 860h-234q-35 0 -28 31l18 120q6 29 37 29h236l51 332q4 31 35 31h141q29 0 24 -31l-51 -332h236z" />
    <glyph glyph-name="daggerdbl" unicode="&#x2021;" horiz-adv-x="983" 
d="M901 891h-237l-56 -348h236q35 0 28 -31l-18 -121q-6 -29 -39 -29h-235l-54 -331q-4 -31 -30 -31h-142q-12 0 -21 9t-7 22l53 331h-234q-35 0 -28 31l18 119q6 31 37 31h236l55 348h-234q-35 0 -28 31l18 120q6 29 37 29h236l51 332q4 31 35 31h141q29 0 24 -31l-51 -332
h236q33 0 26 -31l-18 -118q-2 -31 -35 -31z" />
    <glyph glyph-name="bullet" unicode="&#x2022;" horiz-adv-x="716" 
d="M376 438q-97 0 -159 75q-61 75 -47 173t87 160t171 63q98 0 161 -75q62 -76 47 -174t-89 -160t-171 -62z" />
    <glyph glyph-name="ellipsis" unicode="&#x2026;" horiz-adv-x="1572" 
d="M1151 0q-35 0 -29 31l29 188q6 33 37 33h186q35 0 29 -33l-31 -188q-6 -31 -37 -31h-184zM627 0q-35 0 -29 31l29 188q6 33 37 33h186q35 0 29 -33l-31 -188q-6 -31 -37 -31h-184zM102 0q-35 0 -28 31l28 188q6 33 37 33h187q35 0 28 -33l-30 -188q-6 -31 -37 -31h-185z
" />
    <glyph glyph-name="perthousand" unicode="&#x2030;" horiz-adv-x="2729" 
d="M2263 172q150 0 197 295q26 109 8 187t-94 77q-150 0 -201 -295q-47 -264 90 -264zM1499 172q150 0 197 295q26 109 8 187t-94 77q-150 0 -201 -295q-47 -264 90 -264zM2251 -16q-168 0 -236 112q-67 112 -27 363q40 250 134 355q94 106 262 106t234 -115t27 -364
q-40 -249 -133 -353t-261 -104zM1487 -16q-168 0 -236 112q-67 112 -27 363q40 250 134 355q94 106 262 106t234 -115t27 -364q-40 -249 -133 -353t-261 -104zM453 705q150 0 196 294q25 109 7 187q-17 78 -93 78q-150 0 -201 -295q-46 -264 91 -264zM561 0q-14 0 -20 11
t2 26l790 1374q16 23 39 23h129q15 0 21 -10t-2 -23l-789 -1370q-16 -31 -45 -31h-125zM440 516q-168 0 -236 113t-27 363q40 250 134 354q94 106 262 106t235 -115t27 -363q-39 -248 -133 -354q-94 -104 -262 -104z" />
    <glyph glyph-name="guilsinglleft" unicode="&#x2039;" horiz-adv-x="716" 
d="M412 -16q-20 0 -39 28l-226 359q-27 41 -24 55l2 14q2 14 31 47l350 371q25 25 51 25h105q14 -1 18 -11t-6 -24l-332 -414l199 -418q14 -33 -19 -32h-110z" />
    <glyph glyph-name="guilsinglright" unicode="&#x203a;" horiz-adv-x="716" 
d="M195 883h110q20 0 39 -29l225 -358q27 -41 25 -56l-2 -14q-2 -14 -31 -47l-350 -371q-25 -25 -51 -24h-105q-14 0 -18 10t6 24l332 414l-199 418q-14 33 19 33z" />
    <glyph glyph-name="fraction" unicode="&#x2044;" horiz-adv-x="397" 
d="M-225 0q-14 0 -21 11q-6 11 2 26l791 1374q16 23 39 23h129q14 0 20 -10t-2 -23l-788 -1370q-16 -31 -45 -31h-125z" />
    <glyph glyph-name="uni2070" unicode="&#x2070;" horiz-adv-x="837" 
d="M477 858q150 0 197 295q26 109 8 187t-94 77q-150 0 -201 -295q-47 -264 90 -264zM465 670q-168 0 -236 112q-67 112 -27 363q40 250 134 355q94 106 262 106t235 -115t27 -364t-134 -353q-93 -104 -261 -104z" />
    <glyph glyph-name="uni2074" unicode="&#x2074;" horiz-adv-x="868" 
d="M379 1030h209l53 330zM848 1030q27 0 22 -24l-18 -121q-4 -23 -25 -23h-79l-27 -162q-4 -25 -25 -24h-137q-25 0 -24 24l26 162h-379q-27 0 -22 25l14 92q2 8 16 33l437 547q16 18 35 18h172q27 0 22 -25l-82 -522h74z" />
    <glyph glyph-name="uni2075" unicode="&#x2075;" horiz-adv-x="815" 
d="M468 670q-158 0 -228 84t-50 174q4 23 23 22h139q23 0 19 -30q-3 -30 21 -57q24 -25 82 -25t104 46q45 46 53 109q12 95 -67 113t-146 -45q-10 -8 -35 -4l-143 33q-27 8 -21 26l146 449q10 23 24 22h432q11 0 19 -7t6 -17l-19 -121q-4 -23 -24 -23h-314l-63 -174
q166 63 290 -17t95 -267q-20 -121 -103 -206t-240 -85z" />
    <glyph glyph-name="uni2076" unicode="&#x2076;" horiz-adv-x="796" 
d="M481 848q51 0 86 39t44 99t-16 94q-26 34 -75 34t-88 -40t-45 -95q-5 -55 19 -93t75 -38zM559 1278q121 0 187 -87t46 -224q-22 -137 -113 -218t-215 -81t-191 68t-76 172q-10 105 6 233q33 207 134 334t263 127q123 0 176 -70t53 -156q-2 -33 -24 -33h-125q-18 0 -23 25
q0 76 -73 76q-121 0 -170 -221q59 55 145 55z" />
    <glyph glyph-name="uni2077" unicode="&#x2077;" horiz-adv-x="776" 
d="M262 1411q-25 0 -20 25l18 118q4 25 25 25h573q10 0 16 -9t0 -22l-483 -850q-10 -20 -31 -20h-157q-29 0 -19 29l406 704h-328z" />
    <glyph glyph-name="uni2078" unicode="&#x2078;" horiz-adv-x="802" 
d="M510 1077q-150 -45 -162 -141q-4 -43 27 -71q31 -27 95 -27t102 32t42 76q9 88 -104 131zM520 1225q125 35 133 125q5 43 -21 64t-69 22q-117 0 -129 -101q-10 -81 86 -110zM579 1604q141 0 206 -77t45 -198t-117 -201q100 -64 75 -232q-12 -89 -100 -158
q-88 -68 -240 -68t-226 78q-73 78 -51 200t142 201q-78 78 -55 215q16 104 98 172t223 68z" />
    <glyph glyph-name="uni2079" unicode="&#x2079;" horiz-adv-x="796" 
d="M508 1163q51 0 90 34t47 97t-17 101q-26 37 -78 37t-91 -35t-46 -95t19 -100q26 -39 76 -39zM434 670q-137 0 -193 70t-55 153q0 31 23 31h125q14 0 24 -23q8 -67 76 -67t108 49t70 161q-49 -51 -135 -51q-143 0 -208 90q-65 91 -41 231t120 215t223 75q326 -1 246 -488
q-76 -446 -383 -446z" />
    <glyph glyph-name="Euro" unicode="&#x20ac;" horiz-adv-x="1251" 
d="M729 219q135 0 266 94q25 23 39 -6l86 -162q12 -25 -14 -41q-174 -120 -404 -120t-356 131q-127 131 -137 374h-76q-12 1 -21 9t-8 20l15 92q4 29 37 29h61q4 47 10 80l15 78l-62 -2q-29 0 -24 30l14 90q4 29 33 29l80 2q78 246 242 375q165 129 405 129q184 0 340 -104
q23 -14 4 -43l-125 -146q-20 -23 -43 -8q-98 63 -217 63t-208 -72t-132 -196h262q12 0 20 -8t7 -21l-15 -92q-4 -29 -35 -28h-286l-13 -76q0 -22 -10 -82l283 2q12 0 20 -9t6 -22l-14 -90q-4 -29 -35 -29l-270 -2q5 -131 65 -199t195 -69z" />
    <glyph glyph-name="uni2117" unicode="&#x2117;" horiz-adv-x="1687" 
d="M956 717q109 0 109 131t-109 131h-157v-262h157zM997 1122q109 0 175 -70t67 -205q0 -134 -79 -204t-175 -70h-186v-239q0 -18 -17 -19h-137q-18 0 -18 19v768q0 20 20 20h350zM889 133q243 0 403 171t160 412q0 240 -161 412t-403 172t-402 -172t-160 -412t160 -412
q160 -171 403 -171zM889 -16q-303 0 -518 214t-215 518t215 519t518 215t517 -215t214 -519t-214 -518t-517 -214z" />
    <glyph glyph-name="trademark" unicode="&#x2122;" horiz-adv-x="1306" 
d="M1350 1434q14 0 10 -13l-82 -526q-4 -12 -14 -12h-121q-16 0 -13 12l41 262l-167 -262q-8 -12 -21 -12h-16q-10 0 -15 12l-90 264l-41 -264q-2 -12 -16 -12h-119q-14 0 -12 12l84 526q4 12 10 13h131q10 0 16 -13l95 -305l188 305q10 12 21 13h131zM678 1434q14 0 10 -13
l-16 -102q0 -10 -13 -10h-129l-63 -414q-4 -12 -14 -12h-121q-16 0 -13 12l66 414h-131q-12 0 -12 12l16 100q4 12 14 13h406z" />
    <glyph glyph-name="uni2153" unicode="&#x2153;" horiz-adv-x="1970" 
d="M1616 918q148 0 221 -69q72 -69 47 -209t-135 -187q39 -13 72 -67t17 -154t-98 -174q-81 -74 -247 -74t-229 85t-52 173q4 25 27 24h125q20 0 27 -24q12 -90 112 -90q135 0 160 106q8 53 -18 85q-27 32 -117 32h-41q-25 0 -21 24l17 111q4 23 22 22h33q147 0 166 121
q8 41 -14 69q-23 28 -82 28q-111 0 -148 -95q-8 -20 -24 -20h-138q-25 0 -20 29q8 90 99 172t239 82zM543 0q-14 0 -21 11q-6 11 2 26l791 1374q16 23 39 23h129q14 0 20 -10t-2 -23l-788 -1370q-16 -31 -45 -31h-125zM647 700q27 0 23 -26l-19 -119q-4 -23 -22 -23h-504
q-27 0 -23 25l19 119q0 25 24 24h162l84 529l-141 -60q-12 -4 -22 2q-9 6 -7 17l19 121q2 16 28 30l154 88q10 6 29 7h131q27 0 22 -25l-110 -709h153z" />
    <glyph glyph-name="uni2154" unicode="&#x2154;" horiz-adv-x="2074" 
d="M1720 918q148 0 220 -69t46 -209q-24 -140 -135 -187q39 -13 72 -67t17 -154t-98 -174q-81 -74 -236 -74q-90 0 -154 26t-93 68q-57 78 -44 164q4 25 26 24h125q20 0 27 -24q12 -90 113 -90q135 0 159 106q8 53 -18 85q-27 32 -117 32h-41q-25 0 -20 24l16 111
q4 23 23 22h32q147 0 166 121q8 41 -14 69q-23 28 -82 28q-111 0 -147 -95q-8 -20 -25 -20h-137q-25 0 -21 29q8 90 100 172t240 82zM645 0q-14 0 -20 11t2 26l790 1374q16 23 39 23h129q15 0 21 -10t-2 -23l-789 -1370q-16 -31 -45 -31h-125zM565 1450q164 0 230 -71
q65 -71 47 -195t-154 -244l-262 -240h322q27 0 22 -24l-18 -121q-4 -23 -25 -23h-573q-27 0 -23 25l16 107q0 18 17 30l309 279q170 147 178 229q6 37 -15 59q-22 22 -77 21q-125 0 -153 -94q-10 -23 -25 -23h-133q-20 0 -21 29q6 90 90 173t248 83z" />
    <glyph glyph-name="oneeighth" unicode="&#x215b;" horiz-adv-x="1974" 
d="M1571 391q-150 -45 -162 -141q-4 -43 27 -71q30 -27 94 -27t102 32t43 76q9 88 -104 131zM1581 539q125 35 133 125q5 43 -21 64t-69 22q-117 0 -129 -101q-10 -81 86 -110zM1640 918q141 0 206 -77q64 -77 44 -198t-116 -201q44 -29 66 -86t11 -129q-16 -106 -103 -175
q-87 -68 -240 -68q-154 0 -226 78t-50 200q22 123 142 201q-78 78 -55 215q16 104 98 172t223 68zM555 0q-14 0 -20 11t2 26l790 1374q16 23 39 23h129q15 0 21 -10t-3 -23l-788 -1370q-16 -31 -45 -31h-125zM647 700q27 0 23 -26l-19 -119q-4 -23 -22 -23h-504
q-27 0 -23 25l19 119q0 25 24 24h162l84 529l-141 -60q-12 -4 -22 2q-9 6 -7 17l19 121q2 16 28 30l154 88q10 6 29 7h131q27 0 22 -25l-110 -709h153z" />
    <glyph glyph-name="threeeighths" unicode="&#x215c;" horiz-adv-x="2021" 
d="M1620 391q-150 -45 -162 -141q-4 -43 27 -71q31 -27 95 -27t102 32t42 76q9 88 -104 131zM1630 539q125 35 133 125q5 43 -21 64t-69 22q-117 0 -129 -101q-10 -81 86 -110zM1690 918q142 0 206 -77t44 -198t-117 -201q100 -64 75 -232q-12 -89 -100 -158
q-88 -68 -240 -68t-226 78q-73 78 -51 200q22 123 142 201q-78 78 -55 215q16 104 98 172t224 68zM600 0q-14 0 -20 11t2 26l790 1374q16 23 39 23h129q14 0 20 -10t-1 -23l-789 -1370q-16 -31 -45 -31h-125zM570 1450q148 0 221 -69q72 -69 47 -209t-136 -187
q39 -14 72 -67q33 -54 17 -154q-15 -100 -97 -174t-237 -74q-89 0 -153 27t-94 67q-57 77 -44 164q2 25 27 25h124q20 0 27 -25q12 -90 113 -90q135 0 159 107q8 53 -18 85q-27 32 -117 31h-41q-25 0 -20 25l16 110q4 23 23 23h33q147 0 165 121q7 40 -15 68t-81 28
q-111 0 -147 -94q-8 -20 -25 -21h-137q-25 0 -21 29q7 90 99 172t240 82z" />
    <glyph glyph-name="fiveeighths" unicode="&#x215d;" horiz-adv-x="2007" 
d="M1606 391q-150 -45 -162 -141q-4 -43 26 -71q30 -27 95 -27t103 32t42 76q9 88 -104 131zM1616 539q125 35 133 125q5 43 -22 64q-26 21 -68 22q-117 0 -129 -101q-10 -81 86 -110zM1675 918q141 0 206 -77t44 -198t-117 -201q45 -29 67 -86t11 -129q-16 -106 -103 -175
q-87 -68 -240 -68t-225 78t-51 200q22 123 142 201q-78 78 -55 215q16 104 98 172t223 68zM590 0q-14 0 -21 11q-6 11 2 26l791 1374q16 23 39 23h129q14 0 20 -10t-2 -23l-788 -1370q-16 -31 -45 -31h-125zM443 516q-157 0 -227 84t-50 174q4 23 22 23h140q22 0 18 -31
q-4 -30 21 -56t83 -26t103 46t53 110q12 94 -66 112q-79 18 -147 -45q-10 -8 -35 -4l-143 33q-27 8 -20 27l145 448q10 23 25 23h432q10 0 18 -8t6 -17l-18 -121q-4 -23 -25 -22h-313l-64 -174q166 63 290 -18t95 -267q-20 -121 -103 -206t-240 -85z" />
    <glyph glyph-name="seveneighths" unicode="&#x215e;" horiz-adv-x="1794" 
d="M1393 391q-150 -45 -162 -141q-3 -43 27 -71q30 -27 94 -27t102 32t43 76q9 88 -104 131zM1403 539q125 35 133 125q5 43 -22 64q-26 21 -68 22q-117 0 -129 -101q-10 -81 86 -110zM1462 918q141 0 206 -77t44 -198t-117 -201q45 -29 67 -86t11 -129q-16 -106 -103 -175
q-87 -68 -240 -68q-154 0 -226 78t-50 200q22 123 142 201q-78 78 -55 215q16 104 98 172t223 68zM371 0q-14 0 -21 11q-6 11 2 26l791 1374q16 23 39 23h129q14 0 20 -10t-2 -23l-788 -1370q-16 -31 -45 -31h-125zM240 1266q-25 0 -21 24l19 119q4 25 24 25h574
q10 0 16 -10t0 -21l-483 -850q-10 -20 -31 -21h-158q-29 0 -18 29l405 705h-327z" />
    <glyph glyph-name="arrowleft" unicode="&#x2190;" horiz-adv-x="1654" 
d="M139 664q0 16 8 24l533 496q25 25 45 2l86 -84q20 -20 -2 -45l-240 -264h975q29 0 29 -31v-193q0 -31 -29 -30h-977l242 -263q23 -25 2 -45l-86 -86q-20 -23 -45 2l-533 496q-8 5 -8 21z" />
    <glyph glyph-name="arrowup" unicode="&#x2191;" horiz-adv-x="1265" 
d="M829 29q0 -29 -30 -29h-193q-31 0 -31 29v975l-264 -240q-25 -23 -45 -2l-84 86q-23 20 2 45l496 532q8 9 24 9t21 -9l496 -532q25 -25 2 -45l-86 -86q-20 -20 -45 2l-263 242v-977z" />
    <glyph glyph-name="arrowright" unicode="&#x2192;" horiz-adv-x="1654" 
d="M184 539q-29 0 -28 30v193q0 31 28 31h975l-239 264q-23 25 -2 45l86 84q20 23 45 -2l532 -496q8 -8 8 -23t-8 -22l-532 -496q-25 -25 -45 -2l-86 86q-20 20 2 45l241 263h-977z" />
    <glyph glyph-name="arrowdown" unicode="&#x2193;" horiz-adv-x="1265" 
d="M526 1405q0 29 31 29h193q31 0 30 -29v-975l264 240q25 23 46 2l84 -86q23 -20 -3 -45l-495 -533q-8 -8 -24 -8t-21 8l-496 533q-25 25 -2 45l86 86q20 20 45 -2l262 -242v977z" />
    <glyph glyph-name="arrowboth" unicode="&#x2194;" horiz-adv-x="2115" 
d="M2050 671q0 -15 -8 -22l-533 -495q-23 -23 -45 -2l-86 86q-20 20 2 45l242 262h-1053l242 -262q23 -25 2 -45l-86 -86q-23 -20 -45 2l-532 495q-8 5 -8 21t8 24l532 496q23 23 45 2l86 -84q20 -20 -2 -45l-240 -264h1049l-240 264q-23 25 -2 45l86 84q23 20 45 -2
l533 -496q8 -8 8 -23z" />
    <glyph glyph-name="arrowupdn" unicode="&#x2195;" horiz-adv-x="1390" 
d="M742 1671q15 0 22 -8l496 -533q23 -25 2 -45l-86 -86q-20 -20 -46 2l-262 242v-1053l262 242q26 22 46 2l86 -86q20 -20 -2 -45l-496 -532q-6 -9 -22 -9t-23 9l-496 532q-23 25 -2 45l84 86q20 20 45 -2l264 -239v1048l-264 -240q-25 -23 -45 -2l-84 86q-20 20 2 45
l496 533q8 8 23 8z" />
    <glyph glyph-name="uni2196" unicode="&#x2196;" horiz-adv-x="1449" 
d="M389 344h-123q-30 0 -30 33l-25 727q-2 10 8 20t23 11l727 -25q33 0 32 -31l3 -121q0 -27 -33 -30l-357 -17l689 -690q23 -18 0 -41l-138 -137q-23 -23 -41 0l-690 690l-16 -356q0 -33 -29 -33z" />
    <glyph glyph-name="uni2197" unicode="&#x2197;" horiz-adv-x="1253" 
d="M1112 344h-123q-29 0 -28 33l-17 356l-690 -690q-18 -23 -41 0l-137 137q-23 23 0 41l688 690l-356 17q-33 4 -33 30l2 121q0 31 33 31l727 25q12 -1 23 -11t7 -20l-24 -727q0 -33 -31 -33z" />
    <glyph glyph-name="uni2198" unicode="&#x2198;" horiz-adv-x="1449" 
d="M508 156v123q0 29 33 28l356 17l-690 690q-23 18 0 41l137 137q23 23 41 0l690 -688l17 356q4 33 30 33l121 -2q31 0 31 -33l24 -727q0 -12 -10 -22t-20 -9l-727 25q-33 0 -33 31z" />
    <glyph glyph-name="uni2199" unicode="&#x2199;" horiz-adv-x="1253" 
d="M936 279v-123q0 -31 -33 -31l-727 -25q-8 -2 -19 8t-12 23l25 727q0 33 31 33l121 2q27 0 30 -33l17 -356l690 688q18 23 41 0l137 -137q23 -23 0 -41l-690 -690l356 -17q33 0 33 -28z" />
    <glyph glyph-name="partialdiff" unicode="&#x2202;" horiz-adv-x="1095" 
d="M498 174q94 0 167.5 75t92 190.5t-25.5 182t-138 66.5t-171 -76.5t-95 -190.5t29 -180.5t141 -66.5zM492.5 -16q-203.5 0 -317.5 136t-83 322t178.5 313.5t335.5 127.5q104 0 162 -68q-2 145 -92 262t-227 197q-29 18 -15 43l80 117q18 25 53 8q143 -70 277 -232
q134 -160 177 -426q22 -136 -9 -295q-39 -238 -177.5 -371.5t-342 -133.5z" />
    <glyph glyph-name="emptyset" unicode="&#x2205;" horiz-adv-x="1660" 
d="M784 221q203 0 351.5 148.5t181.5 359.5q18 111 -8 215l-752 -647q96 -76 227 -76zM967 1210q-205 0 -353.5 -149.5t-181.5 -360.5q-18 -119 10 -223l756 651q-92 82 -231 82zM772 -16q-240 0 -407 145l-142 -121q-23 -23 -47 6l-92 109q-18 25 4 47l145 125
q-102 193 -65 434q49 303 280.5 512t532.5 209q246 0 412 -154l133 115q27 20 47 -2l96 -113q23 -25 -2 -43l-147 -127q96 -188 59 -426q-47 -301 -277.5 -508.5t-529.5 -207.5z" />
    <glyph glyph-name="product" unicode="&#x220f;" horiz-adv-x="1363" 
d="M1366 1434q35 0 29 -31l-25 -162q-6 -31 -39 -31h-69l-187 -1177q-6 -33 -35 -33h-192q-33 0 -27 33l187 1177h-406l-186 -1177q-6 -33 -35 -33h-193q-33 0 -26 33l186 1177h-69q-33 0 -27 31l24 162q6 31 37 31h1053z" />
    <glyph glyph-name="summation" unicode="&#x2211;" horiz-adv-x="1220" 
d="M1194 1253h-637l289 -462q10 -25 8 -35l-12 -80q0 -6 -19 -35l-434 -461h635q33 0 27 -30l-19 -119q-6 -31 -35 -31h-909q-35 0 -29 31l19 121q4 18 18 26l508 539l-338 536q-12 14 -8 31l18 119q6 31 37 31h908q35 0 28 -31l-18 -121q-6 -29 -37 -29z" />
    <glyph glyph-name="minus" unicode="&#x2212;" horiz-adv-x="1155" 
d="M184 610q-12 0 -20 10t-6 19l18 123q4 29 31 29h850q12 1 20 -9t6 -22l-18 -121q-4 -29 -31 -29h-850z" />
    <glyph glyph-name="radical" unicode="&#x221a;" horiz-adv-x="1402" 
d="M1280 1434h154q16 0 23 -14t-3 -31l-768 -1360q-16 -29 -35 -29h-61q-20 0 -31 29l-217 622l-115 -55q-33 -16 -41 10l-41 107q-10 27 22 43t133 64t137 64t46 -14l179 -489l571 1022q16 31 47 31z" />
    <glyph glyph-name="infinity" unicode="&#x221e;" horiz-adv-x="1761" 
d="M1255 496q78 0 138 53q59 53 71 133t-22 126q-35 46 -112 46t-161 -53t-141 -142q25 -75 87 -119t140 -44zM580 854q-78 0 -134 -48t-69 -129t21 -131t111 -50t162 53t140 139q-27 76 -90 121t-141 45zM1352 1051q164 1 259 -105t66 -274t-148 -271q-120 -102 -256 -102
t-235 63q-98 63 -137 152q-71 -92 -185 -154t-233 -61q-160 0 -253 113q-93 114 -67 280t144 262q119 96 257 96t240 -58q101 -58 136 -140q68 88 182 144t230 55z" />
    <glyph glyph-name="integral" unicode="&#x222b;" horiz-adv-x="1075" 
d="M909 1669q117 0 170 -46t39 -148l-12 -72q-6 -33 -35 -33h-139q-33 0 -27 35l6 33q6 51 -32 51h-29q-17 1 -32 -17t-19 -42l-252 -1582q-16 -102 -83 -151t-194 -49h-32q-117 0 -169 46t-38 148l10 72q6 33 37 33h139q31 0 25 -33l-4 -33q-8 -51 32 -51h27q16 0 32 16
q17 16 21 41l252 1583q33 199 275 199h32z" />
    <glyph glyph-name="approxequal" unicode="&#x2248;" horiz-adv-x="1120" 
d="M415 492q-58 0 -131 -41t-85 -42t-25 17l-31 51q-34 50 96 134q89 59 188 59t182 -40t135 -40t120 41q66 41 83 45t34 -17l33 -57q20 -30 -48 -95q-30 -30 -94 -63q-64 -32 -149 -32q-86 0 -168 40t-140 40zM779 760q-87 0 -169 40t-140 40t-131 -41t-85 -42t-25 17
l-30 51q-34 50 95 134q89 59 188 59q98 0 182 -40t136 -40t119 41t83 45t34 -16l33 -58q12 -18 0 -39q-46 -70 -125 -110q-79 -41 -165 -41z" />
    <glyph glyph-name="notequal" unicode="&#x2260;" horiz-adv-x="1155" 
d="M1087 981q13 0 21 -9t6 -22l-18 -121q-4 -29 -31 -28h-266l-129 -176h360q12 1 20 -9t7 -22l-19 -121q-4 -29 -30 -29h-469l-138 -190q-20 -25 -47 -8l-94 57q-29 16 -14 43l71 98h-159q-12 0 -20 10t-7 19l19 123q4 29 30 29h269l126 176h-360q-12 0 -20 9t-7 19l19 123
q4 29 31 29h469l147 205q18 25 43 8l102 -61q27 -16 9 -43l-78 -109h157z" />
    <glyph glyph-name="lessequal" unicode="&#x2264;" horiz-adv-x="1167" 
d="M78 -10q-12 0 -22 8q-9 8 -7 22l21 119q4 31 30 31h883q15 0 23 -9t6 -22l-19 -121q-6 -29 -32 -28h-883zM463 702l575 -235q27 -12 15 -39l-62 -109q-14 -27 -45 -14l-782 324q-18 10 -17 30l15 91q4 23 26 30l881 336q29 12 37 -14l31 -113q6 -27 -25 -39z" />
    <glyph glyph-name="greaterequal" unicode="&#x2265;" horiz-adv-x="1165" 
d="M74 -10q-33 0 -29 30l18 119q4 31 33 31h883q12 0 21 -9t8 -22l-21 -121q-4 -29 -31 -28h-882zM791 705l-576 235q-27 12 -14 39l61 108q14 27 45 15l783 -324q18 -10 16 -30l-14 -91q-4 -23 -27 -30l-881 -336q-29 -12 -37 14l-30 113q-6 27 24 39z" />
    <glyph glyph-name="lozenge" unicode="&#x25ca;" horiz-adv-x="1206" 
d="M578 268l12 21l297 428l-162 428q0 18 -6 18l-309 -446l161 -428q1 -15 7 -21zM592 0h-113q-35 0 -47 31l-256 626q-12 36 -9 59t28 58l454 627q25 33 56 33h110q35 0 47 -33l254 -627q14 -36 11 -59q-3 -24 -27 -58l-453 -626q-20 -31 -55 -31z" />
    <glyph glyph-name="heart" unicode="&#x2665;" horiz-adv-x="1943" 
d="M1464 1249q-90 0 -171 -46t-119 -88q-38 -41 -60 -73q-24 -32 -32 -40t-21 -8q-14 0 -23 16l-12 26q-12 29 -21 43t-28 44q-18 30 -61 65q-74 61 -175 61q-168 0 -258 -137q-49 -76 -55 -184t41 -214q47 -108 179 -250t278 -237q174 93 360 239t266 250t110 210t5 188
q-39 135 -203 135zM741 1450q131 0 225 -54t134 -157q72 99 182 155t242 56q221 0 319 -143q99 -138 51 -350q-26 -120 -114 -264t-283 -312t-563 -389q-14 -10 -30 -10t-34 12q-307 236 -443 392t-185 327q-41 129 -27 247q26 220 167 355q140 135 359 135z" />
    <glyph glyph-name="AE.ss01" horiz-adv-x="2144" 
d="M606 453h422l105 663zM2169 1434q12 0 20.5 -9.5t5.5 -21.5l-28 -178q-4 -29 -29 -29h-725l-57 -360h379q10 0 19 -8.5t7 -20.5l-30 -180q-4 -29 -29 -29h-385l-57 -360h718q12 0 21.5 -9.5t7.5 -19.5l-29 -180q-4 -29 -30 -29h-959q-12 0 -21.5 9t-6.5 22l28 186h-569
l-152 -192q-18 -25 -43 -25h-202q-18 0 -27.5 16.5t4.5 34.5l1055 1362q14 20 37 21h1077z" />
    <glyph glyph-name="B.ss01" horiz-adv-x="1339" 
d="M762 238q184 0 213 192q14 92 -24 134t-107 42h-402l-57 -368h377zM852 1196h-313l-60 -367h334q170 0 199 189q14 96 -27 137t-133 41zM815 0h-700q-12 0 -21.5 9t-7.5 22l217 1372q4 31 33 31h629q164 0 252 -112t58 -309.5t-171 -291.5q76 -43 112.5 -132t18.5 -204
q-27 -172 -138.5 -278.5t-281.5 -106.5z" />
    <glyph glyph-name="C.ss01" horiz-adv-x="1314" 
d="M625 -16q-260 0 -395.5 198.5t-81.5 544.5t240.5 534.5t449.5 188.5q195 0 314.5 -105.5t147.5 -304.5q2 -27 -20 -32l-184 -33q-33 -6 -43 35q-16 88 -72.5 145t-157.5 57q-158 0 -265 -134t-144 -370t23.5 -362.5t203.5 -126.5q209 0 313 221q10 23 39 19l189 -37
q33 -10 18 -49q-178 -389 -575 -389z" />
    <glyph glyph-name="Cacute.ss01" horiz-adv-x="1314" 
d="M625 -16q-260 0 -395.5 198.5t-81.5 544.5t240.5 534.5t449.5 188.5q195 0 314.5 -105.5t147.5 -304.5q2 -27 -20 -32l-184 -33q-33 -6 -43 35q-16 88 -72.5 145t-157.5 57q-158 0 -265 -134t-144 -370t23.5 -362.5t203.5 -126.5q209 0 313 221q10 23 39 19l189 -37
q33 -10 18 -49q-178 -389 -575 -389zM690 1579q-31 -8 -37 16l-12 47q-6 18 14 33l351 172q35 18 45 -12l32 -100q8 -29 -22 -41z" />
    <glyph glyph-name="Ccaron.ss01" horiz-adv-x="1314" 
d="M625 -16q-260 0 -395.5 198.5t-81 544.5t240.5 534.5t449 188.5q195 0 314.5 -105.5t147.5 -304.5q2 -27 -20 -32l-184 -33q-33 -6 -43 35q-16 88 -72.5 145t-157.5 57q-158 0 -265 -134t-144 -370.5t23.5 -362.5t203.5 -126q209 0 313 221q10 23 39 19l189 -37
q33 -10 18 -49q-178 -389 -575 -389zM866 1579h-16q-18 0 -45 31l-133 170q-20 29 -19 49l6 39q2 16 17.5 16t28.5 -12l167 -158l222 164q20 12 31.5 4t7.5 -27l-7 -32q-2 -29 -22 -45l-195 -181q-18 -18 -43 -18z" />
    <glyph glyph-name="Ccedilla.ss01" horiz-adv-x="1314" 
d="M823 1212q-158 0 -265 -134t-144 -370.5t23.5 -362.5t203.5 -126q209 0 313 221q10 23 39 19l189 -37q33 -10 18 -49q-174 -381 -555 -389l-45 -68q82 8 124 -39t29 -122t-64.5 -116.5t-125.5 -41.5t-113.5 28.5t-48.5 57.5q-6 12 5 20l45 33q14 12 24 -4q29 -31 62 -31
q82 0 92 80q8 43 -18.5 53t-55.5 -14q-14 -10 -37 -2l-63 20q-20 6 -11 25l78 129q-213 39 -317.5 232.5t-53 521t237.5 516t449 188.5q195 0 314 -105.5t148 -304.5q2 -27 -20 -32l-184 -33q-33 -6 -43 35q-16 88 -72.5 145t-157.5 57z" />
    <glyph glyph-name="Cdotaccent.ss01" horiz-adv-x="1314" 
d="M625 -16q-260 0 -395.5 198.5t-81 544.5t240.5 534.5t449 188.5q195 0 314.5 -105.5t147.5 -304.5q2 -27 -20 -32l-184 -33q-33 -6 -43 35q-16 88 -72.5 145t-157.5 57q-158 0 -265 -134t-144 -370.5t23.5 -362.5t203.5 -126q209 0 313 221q10 23 39 19l189 -37
q33 -10 18 -49q-178 -389 -575 -389zM867 1610q-42 0 -71.5 35.5t-21.5 76.5t38 65.5t72 24.5t70.5 -34.5t20.5 -77.5t-37 -66.5t-71 -23.5z" />
    <glyph glyph-name="D.ss01" horiz-adv-x="1388" 
d="M895 1196h-356l-154 -958h346q113 0 182.5 66.5t87.5 174.5l78 496q33 221 -184 221zM952 1434q213 0 320.5 -116t70.5 -345l-81 -522q-37 -231 -174.5 -341t-348.5 -110h-624q-12 0 -21.5 9t-7.5 22l219 1374q4 29 29 29h618z" />
    <glyph glyph-name="Eth.ss01" horiz-adv-x="1388" 
d="M895 1196h-356l-62 -381h201q33 0 27 -31l-23 -139q-6 -31 -33 -31h-205l-59 -376h346q113 0 182.5 66.5t87.5 174.5l78 496q33 221 -184 221zM952 1434q213 0 320.5 -116t70.5 -345l-81 -522q-37 -231 -174.5 -341t-348.5 -110h-624q-12 0 -21.5 9t-7.5 22l92 583h-72
q-33 0 -28 31l20 141q6 29 33 29h80l94 590q4 29 29 29h618z" />
    <glyph glyph-name="Dcaron.ss01" horiz-adv-x="1388" 
d="M895 1196h-356l-154 -958h346q113 0 182.5 66.5t87.5 174.5l78 496q33 221 -184 221zM952 1434q213 0 320.5 -116t70.5 -345l-81 -522q-37 -231 -174.5 -341t-348.5 -110h-624q-12 0 -21.5 9t-7.5 22l219 1374q4 29 29 29h618zM866 1579h-16q-18 0 -45 31l-133 170
q-20 29 -19 49l6 39q2 16 17.5 16t28.5 -12l167 -158l222 164q20 12 31.5 4t7.5 -27l-7 -32q-2 -29 -22 -45l-195 -181q-18 -18 -43 -18z" />
    <glyph glyph-name="Dcroat.ss01" horiz-adv-x="1388" 
d="M895 1196h-356l-62 -381h201q33 0 27 -31l-23 -139q-6 -31 -33 -31h-205l-59 -376h346q113 0 182.5 66.5t87.5 174.5l78 496q33 221 -184 221zM952 1434q213 0 320.5 -116t70.5 -345l-81 -522q-37 -231 -174.5 -341t-348.5 -110h-624q-12 0 -21.5 9t-7.5 22l92 583h-72
q-33 0 -28 31l20 141q6 29 33 29h80l94 590q4 29 29 29h618z" />
    <glyph glyph-name="E.ss01" horiz-adv-x="1269" 
d="M1104 238q12 0 21.5 -9.5t7.5 -19.5l-29 -180q-4 -29 -31 -29h-958q-12 0 -21.5 9t-7.5 22l217 1372q4 31 33 31h958q12 0 20.5 -9.5t6.5 -21.5l-29 -178q-4 -29 -28 -29h-725l-58 -360h379q12 0 20.5 -8.5t6.5 -20.5l-31 -180q-4 -29 -29 -29h-385l-57 -360h719z" />
    <glyph glyph-name="Eacute.ss01" horiz-adv-x="1269" 
d="M1104 238q12 0 21.5 -9.5t7.5 -19.5l-29 -180q-4 -29 -31 -29h-958q-12 0 -21.5 9t-7.5 22l217 1372q4 31 33 31h958q12 0 20.5 -9.5t6.5 -21.5l-29 -178q-4 -29 -28 -29h-725l-58 -360h379q12 0 20.5 -8.5t6.5 -20.5l-31 -180q-4 -29 -29 -29h-385l-57 -360h719z
M670 1579q-31 -8 -37 16l-12 47q-6 18 14 33l350 172q35 18 45 -12l33 -100q8 -29 -23 -41z" />
    <glyph glyph-name="Ecaron.ss01" horiz-adv-x="1269" 
d="M1104 238q12 0 21.5 -9.5t7.5 -19.5l-29 -180q-4 -29 -31 -29h-958q-12 0 -21.5 9t-7.5 22l217 1372q4 31 33 31h958q12 0 20.5 -9.5t6.5 -21.5l-29 -178q-4 -29 -28 -29h-725l-58 -360h379q12 0 20.5 -8.5t6.5 -20.5l-31 -180q-4 -29 -29 -29h-385l-57 -360h719z
M846 1579h-17q-18 0 -45 31l-133 170q-20 29 -18 49l6 39q2 16 17.5 16t27.5 -12l168 -158l221 164q20 12 31.5 4t7.5 -27l-6 -32q-2 -29 -23 -45l-194 -181q-18 -18 -43 -18z" />
    <glyph glyph-name="Ecircumflex.ss01" horiz-adv-x="1269" 
d="M1104 238q12 0 21.5 -9.5t7.5 -19.5l-29 -180q-4 -29 -31 -29h-958q-12 0 -21.5 9t-7.5 22l217 1372q4 31 33 31h958q12 0 20.5 -9.5t6.5 -21.5l-29 -178q-4 -29 -28 -29h-725l-58 -360h379q12 0 20.5 -8.5t6.5 -20.5l-31 -180q-4 -29 -29 -29h-385l-57 -360h719z
M866 1886h15q20 0 45 -31l147 -159q16 -16 12 -39l-10 -58q-6 -35 -37 -6l-180 150l-231 -158q-14 -8 -23.5 -2t-7.5 19l10 59q6 25 27 43l188 164q18 18 45 18z" />
    <glyph glyph-name="Edieresis.ss01" horiz-adv-x="1269" 
d="M1104 238q12 0 21.5 -9.5t7.5 -19.5l-29 -180q-4 -29 -31 -29h-958q-12 0 -21.5 9t-7.5 22l217 1372q4 31 33 31h958q12 0 20.5 -9.5t6.5 -21.5l-29 -178q-4 -29 -28 -29h-725l-58 -360h379q12 0 20.5 -8.5t6.5 -20.5l-31 -180q-4 -29 -29 -29h-385l-57 -360h719z
M995 1630q-39 0 -63.5 30t-18.5 64t30 53q23 19 59 19t58.5 -29.5t16.5 -68.5q-14 -68 -82 -68zM723 1630q-39 0 -63.5 30t-18.5 64t29.5 53t59.5 19t59.5 -29.5t15.5 -68.5q-14 -68 -82 -68z" />
    <glyph glyph-name="Edotaccent.ss01" horiz-adv-x="1269" 
d="M1104 238q12 0 21.5 -9.5t7.5 -19.5l-29 -180q-4 -29 -31 -29h-958q-12 0 -21.5 9t-7.5 22l217 1372q4 31 33 31h958q12 0 20.5 -9.5t6.5 -21.5l-29 -178q-4 -29 -28 -29h-725l-58 -360h379q12 0 20.5 -8.5t6.5 -20.5l-31 -180q-4 -29 -29 -29h-385l-57 -360h719z
M847 1610q-42 0 -72 35.5t-19 78.5q6 39 35.5 63.5t71.5 24.5t71 -34.5t20.5 -77.5t-37 -66.5t-70.5 -23.5z" />
    <glyph glyph-name="Egrave.ss01" horiz-adv-x="1269" 
d="M1104 238q12 0 21.5 -9.5t7.5 -19.5l-29 -180q-4 -29 -31 -29h-958q-12 0 -21.5 9t-7.5 22l217 1372q4 31 33 31h958q12 0 20.5 -9.5t6.5 -21.5l-29 -178q-4 -29 -28 -29h-725l-58 -360h379q12 0 20.5 -8.5t6.5 -20.5l-31 -180q-4 -29 -29 -29h-385l-57 -360h719z
M1038 1581l-370 115q-31 12 -23 41l33 100q10 31 45 12l350 -172q20 -14 14 -32l-12 -48q-6 -24 -37 -16z" />
    <glyph glyph-name="Emacron.ss01" horiz-adv-x="1269" 
d="M1104 238q12 0 21.5 -9.5t7.5 -19.5l-29 -180q-4 -29 -31 -29h-958q-12 0 -21.5 9t-7.5 22l217 1372q4 31 33 31h958q12 0 20.5 -9.5t6.5 -21.5l-29 -178q-4 -29 -28 -29h-725l-58 -360h379q12 0 20.5 -8.5t6.5 -20.5l-31 -180q-4 -29 -29 -29h-385l-57 -360h719z
M653 1628q-33 0 -28 33l14 82q4 31 33 31h393q12 0 21.5 -9.5t7.5 -23.5l-13 -82q-6 -31 -32 -31h-396z" />
    <glyph glyph-name="Eogonek.ss01" horiz-adv-x="1269" 
d="M1294 1434q12 0 20.5 -9.5t6.5 -21.5l-29 -178q-4 -29 -28 -29h-725l-58 -360h379q12 0 20.5 -8.5t6.5 -20.5l-31 -180q-4 -29 -29 -29h-385l-57 -360h719q12 0 21.5 -9.5t7.5 -19.5l-29 -180q-4 -29 -31 -29h-76q-139 -113 -155 -227q-6 -35 10 -54.5t43 -19.5
q59 0 102 45q14 14 33 -2l23 -25q12 -12 4 -32q-63 -100 -191 -101q-82 0 -134 48.5t-39 128.5q24 145 188 239h-766q-12 0 -21.5 9t-7.5 22l217 1372q4 31 33 31h958z" />
    <glyph glyph-name="F.ss01" horiz-adv-x="1255" 
d="M1292 1434q12 0 20.5 -9.5t6.5 -21.5l-27 -178q-4 -29 -30 -29h-723l-66 -405h397q10 0 19.5 -9.5t7.5 -21.5l-29 -178q-4 -29 -30 -29h-404l-82 -524q-4 -29 -26 -29h-213q-12 0 -20.5 9t-6.5 22l219 1374q4 29 29 29h958z" />
    <glyph glyph-name="G.ss01" horiz-adv-x="1333" 
d="M1217 717q12 0 21 -9.5t7 -21.5l-104 -657q-4 -29 -29 -29h-100q-10 0 -19.5 9t-9.5 20l2 131q-133 -176 -377 -176t-379 198.5t-79 545.5t246 534.5t450 187.5q217 0 328.5 -128t111.5 -314q0 -23 -24 -29l-185 -31q-16 -4 -27.5 5.5t-11.5 23.5q0 92 -49 163.5
t-151 71.5q-172 0 -280.5 -140t-143.5 -364t22.5 -356.5t220.5 -132.5q117 0 206 73t122 197h-190q-14 0 -22.5 9.5t-6.5 21.5l25 168q4 29 32 29h394z" />
    <glyph glyph-name="Gbreve.ss01" horiz-adv-x="1333" 
d="M1217 717q12 0 21 -9.5t7 -21.5l-104 -657q-4 -29 -29 -29h-100q-10 0 -19.5 9t-9.5 20l2 131q-133 -176 -377 -176t-379 198.5t-79.5 545.5t246 534.5t450.5 187.5q217 0 328.5 -128t111.5 -314q0 -23 -24 -29l-185 -31q-16 -4 -27.5 5.5t-11.5 23.5q0 92 -49 163.5
t-151 71.5q-172 0 -280.5 -140t-143.5 -364.5t22.5 -356.5t220.5 -132q117 0 206 73t122 197h-190q-14 0 -22.5 9.5t-6.5 21.5l25 168q4 29 32 29h394zM871.5 1587q-113.5 0 -177 61.5t-84.5 147.5q-4 23 15 29l77 30q20 8 31 -14q49 -115 150 -115q59 0 112.5 33t85.5 88
q10 16 29 6l76 -45q16 -10 6 -28q-41 -78 -124 -135.5t-196.5 -57.5z" />
    <glyph glyph-name="Gcommaaccent.ss01" horiz-adv-x="1333" 
d="M543 -90h116q33 0 29 -31l-22 -127q-8 -61 -58.5 -112.5t-120.5 -73.5q-20 -6 -22 13t18 26q98 43 111 131l-76 28q-29 14 -24 37l12 78q6 31 37 31zM1217 717q12 0 21 -9.5t7 -21.5l-104 -657q-4 -29 -29 -29h-100q-10 0 -19.5 9t-9.5 20l2 131q-133 -176 -377 -176
t-379 198.5t-79.5 545.5t246 534.5t450.5 187.5q217 0 328.5 -128t111.5 -314q0 -23 -24 -29l-185 -31q-16 -4 -27.5 5.5t-11.5 23.5q0 92 -49 163.5t-151 71.5q-172 0 -280.5 -140t-143.5 -364.5t22.5 -356.5t220.5 -132q117 0 206 73t122 197h-190q-14 0 -22.5 9.5
t-6.5 21.5l25 168q4 29 32 29h394z" />
    <glyph glyph-name="Gdotaccent.ss01" horiz-adv-x="1333" 
d="M1217 717q12 0 21 -9.5t7 -21.5l-104 -657q-4 -29 -29 -29h-100q-10 0 -19.5 9t-9.5 20l2 131q-133 -176 -377 -176t-379 198.5t-79.5 545.5t246 534.5t450.5 187.5q217 0 328.5 -128t111.5 -314q0 -23 -24 -29l-185 -31q-16 -4 -27.5 5.5t-11.5 23.5q0 92 -49 163.5
t-151 71.5q-172 0 -280.5 -140t-143.5 -364.5t22.5 -356.5t220.5 -132q117 0 206 73t122 197h-190q-14 0 -22.5 9.5t-6.5 21.5l25 168q4 29 32 29h394zM876 1610q-42 0 -72 35.5t-22 76.5t38 65.5t72 24.5t70.5 -34.5t20.5 -77.5t-36.5 -66.5t-70.5 -23.5z" />
    <glyph glyph-name="I.ss01" horiz-adv-x="757" 
d="M737 1196h-104l-152 -958h101q10 0 18 -8.5t6 -20.5l-28 -180q-4 -29 -31 -29h-467q-12 0 -20.5 9t-6.5 20l27 180q4 29 31 29h104l152 958h-99q-12 0 -20 8t-6 21l28 180q4 29 31 29h467q12 0 20.5 -9.5t6.5 -19.5l-27 -180q-4 -29 -31 -29z" />
    <glyph glyph-name="Iacute.ss01" horiz-adv-x="757" 
d="M737 1196h-104l-152 -958h101q10 0 18 -8.5t6 -20.5l-28 -180q-4 -29 -31 -29h-467q-12 0 -20.5 9t-6.5 20l27 180q4 29 31 29h104l152 958h-99q-12 0 -20 8t-6 21l28 180q4 29 31 29h467q12 0 20.5 -9.5t6.5 -19.5l-27 -180q-4 -29 -31 -29zM401 1579q-31 -8 -36 16
l-13 47q-6 18 15 33l350 172q35 18 45 -12l33 -100q8 -29 -23 -41z" />
    <glyph glyph-name="Icircumflex.ss01" horiz-adv-x="757" 
d="M737 1196h-104l-152 -958h101q10 0 18 -8.5t6 -20.5l-28 -180q-4 -29 -31 -29h-467q-12 0 -20.5 9t-6.5 20l27 180q4 29 31 29h104l152 958h-99q-12 0 -20 8t-6 21l28 180q4 29 31 29h467q12 0 20.5 -9.5t6.5 -19.5l-27 -180q-4 -29 -31 -29zM598 1886h14q20 0 45 -31
l148 -159q16 -16 12 -39l-10 -58q-8 -35 -37 -6l-180 150l-232 -158q-14 -8 -23 -2t-7 19l10 59q6 25 27 43l188 164q18 18 45 18z" />
    <glyph glyph-name="Idieresis.ss01" horiz-adv-x="757" 
d="M737 1196h-104l-152 -958h101q10 0 18 -8.5t6 -20.5l-28 -180q-4 -29 -31 -29h-467q-12 0 -20.5 9t-6.5 20l27 180q4 29 31 29h104l152 958h-99q-12 0 -20 8t-6 21l28 180q4 29 31 29h467q12 0 20.5 -9.5t6.5 -19.5l-27 -180q-4 -29 -31 -29zM727 1630q-39 0 -63.5 30
t-18.5 64t29.5 53t59.5 19t58.5 -29.5t16.5 -68.5q-14 -68 -82 -68zM455 1630q-39 0 -63.5 30t-18.5 64t29.5 53t59.5 19t59.5 -29.5t15.5 -68.5q-14 -68 -82 -68z" />
    <glyph glyph-name="Idotaccent.ss01" horiz-adv-x="757" 
d="M737 1196h-104l-152 -958h101q10 0 18 -8.5t6 -20.5l-28 -180q-4 -29 -31 -29h-467q-12 0 -20.5 9t-6.5 20l27 180q4 29 31 29h104l152 958h-99q-12 0 -20 8t-6 21l28 180q4 29 31 29h467q12 0 20.5 -9.5t6.5 -19.5l-27 -180q-4 -29 -31 -29zM579 1610q-42 0 -72 35.5
t-22 76.5t38 65.5t72 24.5t70.5 -34.5t20.5 -77.5t-36.5 -66.5t-70.5 -23.5z" />
    <glyph glyph-name="Igrave.ss01" horiz-adv-x="757" 
d="M737 1196h-104l-152 -958h101q10 0 18 -8.5t6 -20.5l-28 -180q-4 -29 -31 -29h-467q-12 0 -20.5 9t-6.5 20l27 180q4 29 31 29h104l152 958h-99q-12 0 -20 8t-6 21l28 180q4 29 31 29h467q12 0 20.5 -9.5t6.5 -19.5l-27 -180q-4 -29 -31 -29zM770 1581l-371 115
q-31 12 -22 41l33 100q10 31 45 12l350 -172q20 -14 14 -32l-12 -48q-6 -24 -37 -16z" />
    <glyph glyph-name="Imacron.ss01" horiz-adv-x="757" 
d="M737 1196h-104l-152 -958h101q10 0 18 -8.5t6 -20.5l-28 -180q-4 -29 -31 -29h-467q-12 0 -20.5 9t-6.5 20l27 180q4 29 31 29h104l152 958h-99q-12 0 -20 8t-6 21l28 180q4 29 31 29h467q12 0 20.5 -9.5t6.5 -19.5l-27 -180q-4 -29 -31 -29zM385 1628q-33 0 -29 33
l15 82q4 31 32 31h394q12 0 21 -9.5t7 -23.5l-12 -82q-6 -31 -33 -31h-395z" />
    <glyph glyph-name="Iogonek.ss01" horiz-adv-x="757" 
d="M768 1434q12 0 20.5 -9.5t6.5 -19.5l-27 -180q-4 -29 -31 -29h-104l-152 -958h101q10 0 18 -8.5t6 -20.5l-28 -180q-4 -29 -31 -29h-62q-139 -113 -155 -227q-6 -35 10 -54.5t43 -19.5q59 0 102 45q14 14 33 -2l23 -25q12 -12 4 -32q-63 -100 -191 -101q-82 0 -134 48.5
t-39 128.5q24 145 188 239h-289q-12 0 -20.5 9t-6.5 20l27 180q4 29 31 29h104l152 958h-99q-12 0 -20 8t-6 21l28 180q4 29 31 29h467z" />
    <glyph glyph-name="M.ss01" horiz-adv-x="1634" 
d="M1407 1434h203q12 0 20 -9.5t6 -21.5l-217 -1374q-4 -29 -26 -29h-213q-12 0 -20.5 9t-6.5 20l150 927l-441 -596q-16 -23 -33 -22h-28q-25 0 -35 22l-262 603l-152 -934q-4 -29 -28 -29h-211q-10 0 -18.5 9t-6.5 20l217 1376q4 29 29 29h188q29 0 41 -31l301 -682
l502 688q18 25 41 25z" />
    <glyph glyph-name="N.ss01" horiz-adv-x="1415" 
d="M1393 1434q10 0 18 -9.5t6 -21.5l-217 -1374q-4 -29 -29 -29h-174q-23 0 -39 29l-456 923l-150 -923q-4 -29 -26 -29h-213q-12 0 -20.5 9t-6.5 20l219 1376q4 29 29 29h182q20 0 37 -31l453 -909l147 911q4 29 27 29h213z" />
    <glyph glyph-name="Nacute.ss01" horiz-adv-x="1415" 
d="M1393 1434q10 0 18 -9.5t6 -21.5l-217 -1374q-4 -29 -29 -29h-174q-23 0 -39 29l-456 923l-150 -923q-4 -29 -26 -29h-213q-12 0 -20.5 9t-6.5 20l219 1376q4 29 29 29h182q20 0 37 -31l453 -909l147 911q4 29 27 29h213zM713 1579q-31 -8 -37 16l-12 47q-6 18 14 33
l350 172q35 18 45 -12l33 -100q8 -29 -23 -41z" />
    <glyph glyph-name="Ncaron.ss01" horiz-adv-x="1415" 
d="M1393 1434q10 0 18 -9.5t6 -21.5l-217 -1374q-4 -29 -29 -29h-174q-23 0 -39 29l-456 923l-150 -923q-4 -29 -26 -29h-213q-12 0 -20.5 9t-6.5 20l219 1376q4 29 29 29h182q20 0 37 -31l453 -909l147 911q4 29 27 29h213zM889 1579h-17q-18 0 -45 31l-133 170
q-20 29 -18 49l6 39q2 16 17.5 16t27.5 -12l168 -158l221 164q20 12 31.5 4t7.5 -27l-6 -32q-2 -29 -23 -45l-194 -181q-18 -18 -43 -18z" />
    <glyph glyph-name="Ncommaaccent.ss01" horiz-adv-x="1415" 
d="M584 -90h116q33 0 29 -31l-22 -127q-8 -61 -58.5 -112.5t-120.5 -73.5q-20 -6 -22 13t18 26q98 43 111 131l-76 28q-29 14 -24 37l12 78q6 31 37 31zM1393 1434q10 0 18 -9.5t6 -21.5l-217 -1374q-4 -29 -29 -29h-174q-23 0 -39 29l-456 923l-150 -923q-4 -29 -26 -29
h-213q-12 0 -20.5 9t-6.5 20l219 1376q4 29 29 29h182q20 0 37 -31l453 -909l147 911q4 29 27 29h213z" />
    <glyph glyph-name="Eng.ss01" horiz-adv-x="1415" 
d="M1391 1434q12 0 20 -10t6 -21l-233 -1479q-20 -145 -217 -280q-27 -16 -47 8l-80 96q-20 29 0 43q115 78 129 160q8 45 -25 108l-442 893l-150 -923q-4 -29 -28 -29h-211q-12 0 -21 9q-8 9 -6 22l219 1374q4 29 29 29h180q25 0 39 -29l453 -911l147 911q4 29 27 29h211z
" />
    <glyph glyph-name="Ntilde.ss01" horiz-adv-x="1415" 
d="M1393 1434q10 0 18 -9.5t6 -21.5l-217 -1374q-4 -29 -29 -29h-174q-23 0 -39 29l-456 923l-150 -923q-4 -29 -26 -29h-213q-12 0 -20.5 9t-6.5 20l219 1376q4 29 29 29h182q20 0 37 -31l453 -909l147 911q4 29 27 29h213zM1020 1608q-70 0 -131.5 40t-106.5 40
q-78 0 -125 -58q-10 -14 -36 -6l-33 16q-25 10 -13 37q63 127 203 127q74 0 141.5 -40t96.5 -40q66 0 114 64q10 10 29 4l39 -18q25 -14 10 -37q-66 -129 -188 -129z" />
    <glyph glyph-name="O.ss01" horiz-adv-x="1396" 
d="M658 219q167 0 274.5 140.5t142.5 366.5t-21.5 356t-223 130t-275.5 -140t-143.5 -365.5t22.5 -356.5t224 -131zM637 -16q-272 0 -407.5 196.5t-80 545.5t244 536.5t460.5 187.5t406.5 -196.5t79 -546t-243 -536.5t-459.5 -187z" />
    <glyph glyph-name="Oacute.ss01" horiz-adv-x="1396" 
d="M658 219q167 0 274.5 140.5t142.5 366.5t-21.5 356t-223 130t-275.5 -140t-143.5 -365.5t22.5 -356.5t224 -131zM637 -16q-272 0 -407.5 196.5t-80 545.5t244 536.5t460.5 187.5t406.5 -196.5t79 -546t-243 -536.5t-459.5 -187zM711 1579q-31 -8 -37 16l-12 47
q-6 18 14 33l350 172q35 18 45 -12l33 -100q8 -29 -23 -41z" />
    <glyph glyph-name="Ocircumflex.ss01" horiz-adv-x="1396" 
d="M658 219q167 0 274.5 140.5t142.5 366.5t-21.5 356t-223 130t-275.5 -140t-143.5 -365.5t22.5 -356.5t224 -131zM637 -16q-272 0 -407.5 196.5t-80 545.5t244 536.5t460.5 187.5t406.5 -196.5t79 -546t-243 -536.5t-459.5 -187zM907 1886h15q20 0 45 -31l147 -159
q16 -16 12 -39l-10 -58q-6 -35 -37 -6l-180 150l-231 -158q-14 -8 -23.5 -2t-7.5 19l10 59q6 25 27 43l188 164q18 18 45 18z" />
    <glyph glyph-name="Odieresis.ss01" horiz-adv-x="1396" 
d="M658 219q167 0 274.5 140.5t142.5 366.5t-21.5 356t-223 130t-275.5 -140t-143.5 -365.5t22.5 -356.5t224 -131zM637 -16q-272 0 -407.5 196.5t-80 545.5t244 536.5t460.5 187.5t406.5 -196.5t79 -546t-243 -536.5t-459.5 -187zM1036 1630q-39 0 -63.5 30t-18.5 63.5
t30 53t59.5 19.5t58 -29.5t16.5 -68.5q-14 -68 -82 -68zM764 1630q-39 0 -63.5 30t-18.5 63.5t29.5 53t59.5 19.5t59.5 -29.5t15.5 -68.5q-14 -68 -82 -68z" />
    <glyph glyph-name="Ograve.ss01" horiz-adv-x="1396" 
d="M658 219q167 0 274.5 140.5t142.5 366.5t-21.5 356t-223 130t-275.5 -140t-143.5 -365.5t22.5 -356.5t224 -131zM637 -16q-272 0 -407.5 196.5t-80 545.5t244 536.5t460.5 187.5t406.5 -196.5t79 -546t-243 -536.5t-459.5 -187zM1079 1581l-370 115q-31 12 -23 41l33 100
q10 31 45 12l350 -172q20 -14 14 -32l-12 -48q-6 -24 -37 -16z" />
    <glyph glyph-name="Ohungarumlaut.ss01" horiz-adv-x="1396" 
d="M830.5 1212q-166.5 0 -275.5 -140t-143.5 -365.5t23 -356.5t224 -131t274 140.5t142.5 366.5t-21.5 356t-223 130zM854 1450q272 0 406.5 -196.5t79 -546t-243 -536.5t-459.5 -187t-407.5 196.5t-80 545.5t244 536.5t460.5 187.5zM721 1591l-25 29q-12 18 13 41l227 180
q27 18 39 -8l47 -61l88 69q25 16 39 -8l65 -84q12 -23 -10 -35l-270 -133q-25 -8 -37 6l-27 31q-6 8 -6 16l-104 -51q-25 -12 -39 8z" />
    <glyph glyph-name="Omacron.ss01" horiz-adv-x="1396" 
d="M658 219q167 0 274.5 140.5t142.5 366.5t-21.5 356t-223 130t-275.5 -140t-143.5 -365.5t22.5 -356.5t224 -131zM637 -16q-272 0 -407.5 196.5t-80 545.5t244 536.5t460.5 187.5t406.5 -196.5t79 -546t-243 -536.5t-459.5 -187zM694 1628q-33 0 -28 33l14 82q4 31 33 31
h393q12 0 21.5 -9.5t7.5 -23.5l-13 -82q-6 -31 -32 -31h-396z" />
    <glyph glyph-name="Oslash.ss01" horiz-adv-x="1396" 
d="M653 219q172 0 279.5 140.5t139.5 354.5t-5 333l-537 -801q53 -27 123 -27zM555.5 1071.5q-108.5 -140.5 -140.5 -354.5t5 -332l538 801q-53 27 -122 26q-172 0 -280.5 -140.5zM641 -16q-145 0 -252 55l-20 -33q-16 -25 -43 -24h-113q-20 0 -29.5 19t0.5 34l72 108
q-166 199 -106 588q55 344 243.5 531.5t456.5 187.5q143 0 250 -53l20 28q16 23 41 23h125q16 0 23.5 -14.5t-0.5 -28.5l-76 -113q168 -201 104 -590q-53 -344 -240.5 -531t-455.5 -187z" />
    <glyph glyph-name="Otilde.ss01" horiz-adv-x="1396" 
d="M658 219q167 0 274.5 140.5t142.5 366.5t-21.5 356t-223 130t-275.5 -140t-143.5 -365.5t22.5 -356.5t224 -131zM637 -16q-272 0 -407.5 196.5t-80 545.5t244 536.5t460.5 187.5t406.5 -196.5t79 -546t-243 -536.5t-459.5 -187zM1011.5 1608q-61.5 0 -125 40t-106.5 40
q-78 0 -125 -58q-10 -14 -37 -6l-32 16q-25 10 -13 37q63 127 203 127q74 0 141.5 -40t96.5 -40q66 0 114 64q10 10 29 4l39 -18q25 -14 10 -37q-31 -61 -82 -95t-112.5 -34z" />
    <glyph glyph-name="OE.ss01" horiz-adv-x="1925" 
d="M649 219q70 0 125 25l152 954q-35 14 -97 14q-168 0 -274 -141.5t-142 -364.5t21.5 -355t214.5 -132zM1950 1434q12 0 20 -9.5t6 -21.5l-28 -178q-4 -29 -29 -29h-725l-57 -360h379q12 0 20 -8.5t6 -20.5l-31 -180q-4 -29 -28 -29h-385l-58 -360h719q12 0 21.5 -9.5
t7.5 -19.5l-29 -180q-4 -29 -30 -29h-938q-78 -16 -154 -16q-283 0 -413 201.5t-75.5 540.5t239.5 531.5t454 192.5q82 0 151 -16h957z" />
    <glyph glyph-name="P.ss01" horiz-adv-x="1277" 
d="M768 750q203 0 242 235q18 106 -20 158.5t-142 52.5h-309l-72 -446h301zM813 512h-383l-78 -483q-4 -29 -26 -29h-213q-12 0 -20.5 9t-6.5 20l219 1376q4 29 29 29h620q170 0 261.5 -129.5t55.5 -351.5t-163 -331.5t-295 -109.5z" />
    <glyph glyph-name="Q.ss01" horiz-adv-x="1415" 
d="M645.5 219q153.5 0 261 145.5t142.5 360.5t-21.5 351t-210.5 136t-262 -145.5t-142 -361.5t22.5 -351t210 -135zM840 1450q256 0 391 -198.5t80 -549.5q-43 -279 -183 -458l125 -152q20 -29 -2 -47l-133 -117q-25 -18 -45 2l-133 144q-141 -90 -313 -90
q-260 0 -396 198.5t-81 544.5t244.5 534.5t445.5 188.5z" />
    <glyph glyph-name="R.ss01" horiz-adv-x="1349" 
d="M858 762q63 0 122.5 54t78 158.5t-17 163t-123.5 58.5h-379l-72 -434h391zM324 0h-211q-12 0 -20.5 9t-6.5 20l219 1376q4 29 29 29h682q162 0 252 -130t57 -341q-49 -295 -278 -406q141 -240 122 -530q0 -27 -28 -27h-207q-33 0 -27 37q10 113 -23.5 249t-119.5 242
h-332l-80 -499q-4 -29 -28 -29z" />
    <glyph glyph-name="Racute.ss01" horiz-adv-x="1349" 
d="M858 762q63 0 122.5 54t78 158.5t-17 163t-123.5 58.5h-379l-72 -434h391zM324 0h-211q-12 0 -20.5 9t-6.5 20l219 1376q4 29 29 29h682q162 0 252 -130t57 -341q-49 -295 -278 -406q141 -240 122 -530q0 -27 -28 -27h-207q-33 0 -27 37q10 113 -23.5 249t-119.5 242
h-332l-80 -499q-4 -29 -28 -29zM672 1579q-31 -8 -37 16l-12 47q-6 18 14 33l350 172q35 18 45 -12l33 -100q8 -29 -23 -41z" />
    <glyph glyph-name="Rcaron.ss01" horiz-adv-x="1349" 
d="M858 762q63 0 122.5 54t78 158.5t-17 163t-123.5 58.5h-379l-72 -434h391zM324 0h-211q-12 0 -20.5 9t-6.5 20l219 1376q4 29 29 29h682q162 0 252 -130t57 -341q-49 -295 -278 -406q141 -240 122 -530q0 -27 -28 -27h-207q-33 0 -27 37q10 113 -23.5 249t-119.5 242
h-332l-80 -499q-4 -29 -28 -29zM848 1579h-17q-18 0 -45 31l-133 170q-20 29 -18 49l6 39q2 16 17.5 16t27.5 -12l168 -158l221 164q20 12 31.5 4t7.5 -27l-6 -32q-2 -29 -23 -45l-194 -181q-18 -18 -43 -18z" />
    <glyph glyph-name="Rcommaaccent.ss01" horiz-adv-x="1349" 
d="M547 -90h117q32 0 28 -31l-22 -127q-8 -61 -58.5 -112.5t-119.5 -73.5q-20 -6 -22.5 13t17.5 26q98 43 111 131l-76 28q-29 14 -24 37l12 78q6 31 37 31zM858 762q63 0 122.5 54t78 158.5t-17 163t-123.5 58.5h-379l-72 -434h391zM324 0h-211q-12 0 -20.5 9t-6.5 20
l219 1376q4 29 29 29h682q162 0 252 -130t57 -341q-49 -295 -278 -406q141 -240 122 -530q0 -27 -28 -27h-207q-33 0 -27 37q10 113 -23.5 249t-119.5 242h-332l-80 -499q-4 -29 -28 -29z" />
    <glyph glyph-name="U.ss01" horiz-adv-x="1351" 
d="M1329 1434q10 0 19.5 -9.5t7.5 -21.5l-150 -936q-35 -229 -153.5 -348t-343.5 -119h-189q-223 0 -310 129t-52 354l145 922q4 29 31 29h209q31 0 26 -31l-143 -914q-41 -252 158 -251h110q98 0 165 69.5t87 196.5l144 901q4 29 28 29h211z" />
    <glyph glyph-name="Uacute.ss01" horiz-adv-x="1351" 
d="M1329 1434q10 0 19.5 -9.5t7.5 -21.5l-150 -936q-35 -229 -153.5 -348t-343.5 -119h-189q-223 0 -310 129t-52 354l145 922q4 29 31 29h209q31 0 26 -31l-143 -914q-41 -252 158 -251h110q98 0 165 69.5t87 196.5l144 901q4 29 28 29h211zM690 1579q-31 -8 -37 16l-12 47
q-6 18 14 33l351 172q35 18 45 -12l32 -100q8 -29 -22 -41z" />
    <glyph glyph-name="Ucircumflex.ss01" horiz-adv-x="1351" 
d="M1329 1434q10 0 19.5 -9.5t7.5 -21.5l-150 -936q-35 -229 -153.5 -348t-343.5 -119h-189q-223 0 -310 129t-52 354l145 922q4 29 31 29h209q31 0 26 -31l-143 -914q-41 -252 158 -251h110q98 0 165 69.5t87 196.5l144 901q4 29 28 29h211zM887 1886h14q20 0 45 -31
l148 -159q16 -16 12 -39l-10 -58q-6 -35 -37 -6l-180 150l-232 -158q-14 -8 -23.5 -2t-7.5 19l11 59q6 25 26 43l189 164q18 18 45 18z" />
    <glyph glyph-name="Udieresis.ss01" horiz-adv-x="1351" 
d="M1329 1434q10 0 19.5 -9.5t7.5 -21.5l-150 -936q-35 -229 -153.5 -348t-343.5 -119h-189q-223 0 -310 129t-52 354l145 922q4 29 31 29h209q31 0 26 -31l-143 -914q-41 -252 158 -251h110q98 0 165 69.5t87 196.5l144 901q4 29 28 29h211zM1016 1630q-39 0 -63.5 30
t-18.5 64t29.5 53t59.5 19t58.5 -29.5t16.5 -68.5q-14 -68 -82 -68zM743 1630q-39 0 -63 30t-18 64t30 53q22 19 58 19t60 -29.5t15 -68.5q-14 -68 -82 -68z" />
    <glyph glyph-name="Ugrave.ss01" horiz-adv-x="1351" 
d="M1329 1434q10 0 19.5 -9.5t7.5 -21.5l-150 -936q-35 -229 -153.5 -348t-343.5 -119h-189q-223 0 -310 129t-52 354l145 922q4 29 31 29h209q31 0 26 -31l-143 -914q-41 -252 158 -251h110q98 0 165 69.5t87 196.5l144 901q4 29 28 29h211zM1059 1581l-371 115
q-31 12 -22 41l32 100q10 31 45 12l351 -172q20 -14 14 -32l-12 -48q-6 -24 -37 -16z" />
    <glyph glyph-name="Uhungarumlaut.ss01" horiz-adv-x="1351" 
d="M1329 1434q10 0 19.5 -9.5t7.5 -21.5l-150 -936q-35 -229 -153.5 -348t-343.5 -119h-189q-223 0 -310 129t-52 354l145 922q4 29 31 29h209q31 0 26 -31l-143 -914q-41 -252 158 -251h110q98 0 165 69.5t87 196.5l144 901q4 29 28 29h211zM700 1591l-24 29q-12 18 12 41
l227 180q27 18 39 -8l47 -61l89 69q25 16 38 -8l66 -84q12 -23 -10 -35l-271 -133q-25 -8 -36 6l-27 31q-6 8 -6 16l-105 -51q-25 -12 -39 8z" />
    <glyph glyph-name="Umacron.ss01" horiz-adv-x="1351" 
d="M1329 1434q10 0 19.5 -9.5t7.5 -21.5l-150 -936q-35 -229 -153.5 -348t-343.5 -119h-189q-223 0 -310 129t-52 354l145 922q4 29 31 29h209q31 0 26 -31l-143 -914q-41 -252 158 -251h110q98 0 165 69.5t87 196.5l144 901q4 29 28 29h211zM674 1628q-33 0 -29 33l14 82
q4 31 33 31h393q12 0 21.5 -9.5t7.5 -23.5l-12 -82q-6 -31 -33 -31h-395z" />
    <glyph glyph-name="Uogonek.ss01" horiz-adv-x="1351" 
d="M1329 1434q10 0 19.5 -9.5t7.5 -21.5l-150 -936q-57 -389 -362 -455q-154 -123 -172 -239q-6 -35 10 -54.5t43 -19.5q59 0 102 45q16 14 33 -2l23 -25q12 -12 4 -32q-63 -100 -191 -101q-82 0 -134 48.5t-39 128.5q24 145 188 239h-191q-223 0 -310 129t-52 354l145 922
q4 29 31 29h209q31 0 26 -31l-143 -914q-41 -252 158 -251h110q98 0 165 69.5t87 196.5l144 901q4 29 28 29h211z" />
    <glyph glyph-name="Uring.ss01" horiz-adv-x="1351" 
d="M1329 1434q10 0 19.5 -9.5t7.5 -21.5l-150 -936q-35 -229 -153.5 -348t-343.5 -119h-189q-223 0 -310 129t-52 354l145 922q4 29 31 29h209q31 0 26 -31l-143 -914q-41 -252 158 -251h110q98 0 165 69.5t87 196.5l144 901q4 29 28 29h211zM860 1690q33 0 54.5 21.5
t25.5 55t-12.5 54t-46.5 20.5q-68 0 -78 -74q-6 -33 9 -55t48 -22zM848 1573q-80 0 -130 56.5t-36 145.5t71.5 136t138.5 47t132 -57.5t36 -145.5t-73.5 -135t-138.5 -47z" />
    <glyph glyph-name="W.ss01" horiz-adv-x="1955" 
d="M2005 1434q14 0 23.5 -14.5t3.5 -28.5l-674 -1366q-10 -25 -31 -25h-82q-25 0 -28 27l-168 858l-392 -862q-10 -23 -30 -23h-84q-25 0 -31 29l-283 1372q-4 33 27 33h195q25 0 30 -29l166 -879l391 887q10 20 27 21h115q20 0 26 -23l131 -885l437 889q10 18 30 19h201z
" />
    <glyph glyph-name="Wacute.ss01" horiz-adv-x="1955" 
d="M2005 1434q14 0 23.5 -14.5t3.5 -28.5l-674 -1366q-10 -25 -31 -25h-82q-25 0 -28 27l-168 858l-392 -862q-10 -23 -30 -23h-84q-25 0 -31 29l-283 1372q-4 33 27 33h195q25 0 30 -29l166 -879l391 887q10 20 27 21h115q20 0 26 -23l131 -885l437 889q10 18 30 19h201z
M981 1579q-31 -8 -37 16l-12 47q-6 18 14 33l350 172q35 18 45 -12l33 -100q8 -29 -22 -41z" />
    <glyph glyph-name="Wcircumflex.ss01" horiz-adv-x="1955" 
d="M2005 1434q14 0 23.5 -14.5t3.5 -28.5l-674 -1366q-10 -25 -31 -25h-82q-25 0 -28 27l-168 858l-392 -862q-10 -23 -30 -23h-84q-25 0 -31 29l-283 1372q-4 33 27 33h195q25 0 30 -29l166 -879l391 887q10 20 27 21h115q20 0 26 -23l131 -885l437 889q10 18 30 19h201z
M1178 1886h14q20 0 45 -31l147 -159q16 -16 13 -39l-11 -58q-6 -35 -36 -6l-181 150l-231 -158q-14 -8 -23.5 -2t-7.5 19l11 59q6 25 26 43l189 164q18 18 45 18z" />
    <glyph glyph-name="Wdieresis.ss01" horiz-adv-x="1955" 
d="M2005 1434q14 0 23.5 -14.5t3.5 -28.5l-674 -1366q-10 -25 -31 -25h-82q-25 0 -28 27l-168 858l-392 -862q-10 -23 -30 -23h-84q-25 0 -31 29l-283 1372q-4 33 27 33h195q25 0 30 -29l166 -879l391 887q10 20 27 21h115q20 0 26 -23l131 -885l437 889q10 18 30 19h201z
M1307 1630q-39 0 -63.5 30t-18.5 64t29.5 53t59.5 19t58.5 -29.5t16.5 -68.5q-14 -68 -82 -68zM1034 1630q-39 0 -63.5 30t-18.5 64t30 53t60 19t59 -29.5t15 -68.5q-14 -68 -82 -68z" />
    <glyph glyph-name="Wgrave.ss01" horiz-adv-x="1955" 
d="M2005 1434q14 0 23.5 -14.5t3.5 -28.5l-674 -1366q-10 -25 -31 -25h-82q-25 0 -28 27l-168 858l-392 -862q-10 -23 -30 -23h-84q-25 0 -31 29l-283 1372q-4 33 27 33h195q25 0 30 -29l166 -879l391 887q10 20 27 21h115q20 0 26 -23l131 -885l437 889q10 18 30 19h201z
M1350 1581l-371 115q-31 12 -23 41l33 100q10 31 45 12l350 -172q20 -14 15 -32l-13 -48q-5 -24 -36 -16z" />
    <glyph glyph-name="A.ss04" horiz-adv-x="1210" 
d="M78 193h973q12 0 20 -9.5t6 -21.5l-20 -133q-4 -29 -29 -29h-977q-12 0 -20 9t-6 22l22 133q4 29 31 29zM506 680h289l-76 340l-8 33l-15 -33zM823 1434q18 0 25 -25l262 -1034q4 -14 -4 -24.5t-23 -10.5h-202q-20 0 -27 29l-35 137h-399l-74 -139q-14 -27 -33 -27h-215
q-12 0 -18 10t2 25l592 1036q12 23 26 23h123z" />
    <glyph glyph-name="B.ss04" horiz-adv-x="1107" 
d="M139 193h785q12 0 20 -9.5t6 -21.5l-18 -133q-4 -29 -31 -29h-788q-10 0 -18.5 9t-6.5 22l23 133q4 29 28 29zM623 526q137 0 157 144q18 129 -92 129h-215l-43 -273h193zM715 1253h-170l-45 -274h164q125 0 147 147q10 70 -13.5 98.5t-82.5 28.5zM684 346h-516
q-10 0 -19.5 9.5t-7.5 19.5l164 1030q4 29 29 29h487q131 0 198.5 -78t43.5 -228q-29 -182 -164 -235q160 -61 125 -266q-20 -129 -105 -205t-235 -76z" />
    <glyph glyph-name="C.ss04" horiz-adv-x="1218" 
d="M143 193h867q12 0 20 -9.5t6 -21.5l-20 -133q-4 -29 -29 -29h-868q-12 0 -20.5 9t-6.5 22l23 133q4 29 28 29zM647 330q-240 0 -376 159.5t-94 411.5t219 400.5t413 148.5q152 0 263.5 -62.5t158.5 -148.5q12 -25 -2 -35l-137 -108q-23 -18 -45.5 12.5t-44 53t-73.5 48
t-118 25.5q-147 0 -254.5 -100.5t-130.5 -255.5t45 -245.5t220.5 -90.5t281.5 153q23 25 47 0l106 -118q20 -25 -2 -48q-174 -200 -477 -200z" />
    <glyph glyph-name="D.ss04" horiz-adv-x="1193" 
d="M139 193h834q10 0 19 -9.5t7 -21.5l-20 -133q-4 -29 -29 -29h-837q-10 0 -19.5 9t-7.5 22l23 133q4 29 30 29zM569 559q133 0 218 73t116 267t-27.5 257t-191.5 63h-158l-102 -660h145zM557 346h-385q-10 0 -20.5 12.5t-8.5 24.5l164 1028q2 23 25 23h393q240 0 338 -103
t102 -256q2 -86 -12 -201q-54 -322 -223 -432q-84 -54 -171 -75t-202 -21z" />
    <glyph glyph-name="E.ss04" horiz-adv-x="989" 
d="M139 193h678q12 0 20.5 -9.5t6.5 -21.5l-21 -133q-4 -29 -28 -29h-680q-12 0 -20.5 9t-6.5 22l23 133q4 29 28 29zM877 559q10 0 19 -9t7 -20l-24 -155q-4 -29 -29 -29h-682q-10 0 -19.5 9.5t-7.5 19.5l164 1030q4 29 29 29h682q10 0 18 -9.5t6 -21.5l-22 -156
q-4 -29 -29 -28h-461l-36 -232h276q12 0 20.5 -9t6.5 -22l-21 -133q-4 -29 -31 -28h-282l-35 -236h451z" />
    <glyph glyph-name="F.ss04" horiz-adv-x="976" 
d="M139 193h664q12 0 20 -9.5t6 -21.5l-20 -133q-4 -29 -29 -29h-665q-12 0 -20.5 9t-6.5 22l23 133q4 29 28 29zM999 1434q12 0 20.5 -8.5t6.5 -20.5l-22 -158q-4 -29 -31 -28h-447l-41 -269h291q12 0 20.5 -8t6.5 -20l-25 -158q-4 -29 -28 -29h-299l-56 -360
q-4 -29 -28 -29h-201q-10 0 -18.5 9.5t-6.5 19.5l164 1030q4 29 29 29h665z" />
    <glyph glyph-name="G.ss04" horiz-adv-x="1255" 
d="M131 193h922q12 0 20 -9.5t6 -21.5l-18 -133q-4 -29 -29 -29h-928q-10 0 -19 9t-7 22l22 133q4 29 31 29zM1174 934q10 0 18 -9.5t6 -19.5l-68 -424q-2 -25 -24 -37q-176 -114 -418 -114t-394 136q-75 66 -106.5 180t-9.5 257q41 262 222.5 404.5t408.5 142.5
q270 0 414 -180q16 -23 -2 -41l-119 -105q-27 -23 -53.5 8t-47 47.5t-72.5 36t-120 19.5q-145 0 -249.5 -94t-131.5 -259t47 -252t211 -87t227 69l23 131h-143q-31 0 -27 31l22 131q4 29 29 29h357z" />
    <glyph glyph-name="H.ss04" horiz-adv-x="1249" 
d="M141 193h887q10 0 19.5 -9.5t7.5 -21.5l-21 -133q-4 -29 -28 -29h-891q-12 0 -20.5 9t-6.5 22l23 133q8 29 30 29zM1227 1434q10 0 18 -9.5t6 -21.5l-164 -1028q-4 -29 -26 -29h-201q-12 0 -19 9.5t-5 19.5l65 409h-442l-64 -409q-4 -29 -28 -29h-199q-12 0 -20.5 9.5
t-6.5 19.5l164 1030q4 29 29 29h198q29 0 25 -31l-65 -406h442l65 408q4 29 29 29h199z" />
    <glyph glyph-name="I.ss04" horiz-adv-x="552" 
d="M141 193h191q12 0 21 -9.5t7 -21.5l-20 -133q-4 -29 -31 -29h-194q-12 0 -20.5 9t-6.5 22l23 133q4 29 30 29zM168 346q-12 0 -20.5 9.5t-6.5 19.5l164 1030q4 29 29 29h198q10 0 18.5 -9.5t6.5 -21.5l-162 -1028q-4 -29 -28 -29h-199z" />
    <glyph glyph-name="J.ss04" horiz-adv-x="960" 
d="M86 193h653q12 0 20.5 -9.5t6.5 -21.5l-21 -133q-4 -29 -28 -29h-656q-12 0 -20 9t-6 22l22 133q4 29 29 29zM936 1434q12 0 20.5 -9.5t6.5 -23.5l-107 -676q-31 -199 -129 -297t-295 -98q-248 0 -326 233q-6 20 11 29l153 72q27 12 33 -15q37 -92 125 -92q147 0 180 197
l103 649q4 31 30 31h195z" />
    <glyph glyph-name="K.ss04" horiz-adv-x="1163" 
d="M139 193h865q12 0 20 -9.5t6 -21.5l-18 -133q-4 -29 -29 -29h-870q-12 0 -20.5 9t-6.5 22l23 133q4 29 30 29zM1053 362q0 -16 -17 -16h-219q-29 0 -47 27l-307 424l-70 -422q-4 -29 -28 -29h-195q-12 0 -21.5 12.5t-7.5 24.5l162 1022q4 29 29 29h198q29 0 25 -31
l-72 -434l447 442q20 23 55 23h217q16 0 22.5 -15.5t-3.5 -25.5l-543 -508l369 -510q6 -5 6 -13z" />
    <glyph glyph-name="L.ss04" horiz-adv-x="985" 
d="M141 193h690q12 0 20.5 -9.5t6.5 -21.5l-20 -133q-4 -29 -29 -29h-694q-12 0 -20.5 9t-6.5 22l23 133q4 29 30 29zM891 561q12 0 20.5 -9t6.5 -22l-25 -155q-4 -29 -29 -29h-694q-12 0 -21.5 9.5t-7.5 21.5l164 1028q4 29 29 29h198q29 0 25 -31l-133 -842h467z" />
    <glyph glyph-name="M.ss04" horiz-adv-x="1447" 
d="M139 193h1088q10 0 19 -9.5t7 -21.5l-20 -133q-4 -29 -29 -29h-1089q-12 0 -20.5 9t-6.5 22l23 133q4 29 28 29zM1425 1434q29 0 25 -31l-162 -1030q-4 -27 -28 -27h-199q-12 0 -20.5 8t-6.5 21l99 604l-365 -610q-14 -23 -33 -23h-30q-23 0 -33 29l-180 604l-97 -606
q-4 -27 -28 -27h-201q-10 0 -18.5 8t-6.5 21l164 1030q4 29 29 29h186q29 0 39 -37l215 -680l422 696q12 20 35 21h194z" />
    <glyph glyph-name="N.ss04" horiz-adv-x="1241" 
d="M139 193h881q12 0 20.5 -9.5t6.5 -21.5l-21 -133q-4 -29 -29 -29h-884q-12 0 -20.5 9t-6.5 22l23 133q4 29 30 29zM1219 1434q10 0 18 -9.5t6 -21.5l-162 -1030q-4 -27 -28 -27h-162q-23 0 -35 25l-358 649l-103 -647q-4 -27 -28 -27h-201q-10 0 -18.5 8t-6.5 21
l164 1030q4 29 29 29h170q20 0 35 -29l348 -649l106 649q4 29 27 29h199z" />
    <glyph glyph-name="O.ss04" horiz-adv-x="1353" 
d="M131 193h1010q12 0 20 -9.5t6 -21.5l-18 -133q-4 -29 -29 -29h-1014q-12 0 -20 9t-6 22l22 133q4 29 29 29zM687 543q142 0 252 99t134.5 256t-47.5 247t-214 90t-250.5 -99.5t-134.5 -256.5t46 -246.5t214 -89.5zM669.5 330q-237.5 0 -386 152.5t-107.5 414.5
t229.5 407.5t426 145.5t385 -153.5t106.5 -417t-228.5 -406.5t-425 -143z" />
    <glyph glyph-name="P.ss04" horiz-adv-x="1034" 
d="M139 193h692q12 0 20.5 -9.5t6.5 -21.5l-20 -133q-4 -29 -29 -29h-694q-12 0 -20.5 9t-6.5 22l23 133q4 29 28 29zM606 885q152 0 180 186q27 154 -116 154h-142l-53 -340h131zM647 676h-205l-47 -303q-4 -27 -28 -27h-201q-29 0 -25 29l164 1030q4 29 29 29h432
q147 0 224 -92.5t46 -294.5t-138 -286.5t-251 -84.5z" />
    <glyph glyph-name="Q.ss04" horiz-adv-x="1353" 
d="M1141 193q12 0 20 -9.5t6 -21.5l-18 -133q-4 -29 -29 -29h-1014q-12 0 -20 9t-6 22l22 133q4 29 29 29h1010zM687 543q142 0 252 99t134.5 256t-47.5 247t-214 90t-250.5 -99.5t-134.5 -256.5t46 -246.5t214 -89.5zM831.5 1450q237.5 0 385 -153.5t106.5 -422.5
q-33 -195 -154 -331l66 -76q16 -20 0 -37l-117 -100q-20 -18 -39 0l-73 84q-156 -84 -332 -84q-242 0 -390.5 152.5t-107.5 414.5t229.5 407.5t426 145.5z" />
    <glyph glyph-name="R.ss04" horiz-adv-x="1107" 
d="M139 193h803q12 0 20.5 -9.5t6.5 -21.5l-21 -133q-4 -29 -28 -29h-805q-12 0 -20.5 9t-6.5 22l23 133q8 29 28 29zM655 909q156 0 185 172q10 80 -18.5 112t-104.5 32h-189l-49 -316h176zM983 346h-197q-20 0 -30 23l-164 331h-146l-51 -327q-4 -27 -28 -27h-199
q-12 0 -20.5 8t-6.5 21l164 1030q4 29 29 29h461q154 0 236.5 -101.5t53.5 -285.5q-35 -240 -241 -330l153 -340q14 -31 -14 -31z" />
    <glyph glyph-name="S.ss04" horiz-adv-x="1073" 
d="M117 193h760q10 0 18 -9.5t6 -21.5l-18 -133q-4 -29 -29 -29h-762q-12 0 -20.5 9t-5.5 22l22 133q4 29 29 29zM547 328q-289 0 -404 182q-12 23 4 37l125 102q14 14 31 0q100 -115 240 -114q82 -1 140 35q57 36 65 84q12 77 -56 108q-37 17 -104 39q-195 49 -291 127
t-71.5 223t141 222t271 77t260.5 -46t149 -112q14 -27 -3 -39l-124 -102q-20 -14 -35 4q-92 88 -228 88q-174 0 -184 -110q-4 -51 35 -78t139 -60q96 -27 151.5 -48t115.5 -61q114 -76 85 -233.5t-144 -241t-308 -83.5z" />
    <glyph glyph-name="T.ss04" horiz-adv-x="1056" 
d="M78 193h819q12 0 20.5 -9.5t6.5 -21.5l-21 -133q-4 -29 -29 -29h-821q-12 0 -20 9t-6 22l22 133q4 29 29 29zM1094 1434q10 0 19 -9.5t7 -21.5l-24 -156q-4 -29 -29 -28h-289l-133 -844q-4 -29 -29 -29h-196q-12 0 -20.5 9.5t-6.5 19.5l133 844h-282q-10 0 -18.5 9
t-6.5 21l25 156q6 29 28 29h822z" />
    <glyph glyph-name="U.ss04" horiz-adv-x="1224" 
d="M154 193h837q12 0 20.5 -9.5t6.5 -21.5l-19 -133q-4 -29 -28 -29h-844q-10 0 -19.5 9t-7.5 22l23 133q4 29 31 29zM1217 1434q12 0 20 -9.5t6 -21.5l-94 -567q-39 -250 -164 -378t-373 -128q-496 0 -411 520l90 555q8 29 31 29h196q29 0 25 -31l-88 -541
q-27 -164 14 -241.5t158 -77.5t184.5 83t93.5 251l86 528q4 29 29 29h197z" />
    <glyph glyph-name="V.ss04" horiz-adv-x="1208" 
d="M70 193h987q10 0 19 -9.5t7 -21.5l-20 -133q-4 -29 -29 -29h-989q-12 0 -20.5 9t-6.5 22l23 133q4 29 29 29zM1255 1434q12 0 20.5 -12.5t0.5 -24.5l-580 -1024q-12 -27 -32 -27h-138q-23 0 -28 29l-258 1030q-8 29 20 29h178q31 0 35 -31l168 -713l393 721q14 23 39 23
h182z" />
    <glyph glyph-name="W.ss04" horiz-adv-x="1603" 
d="M72 193h1378q12 0 20.5 -9.5t6.5 -21.5l-21 -133q-4 -29 -29 -29h-1382q-12 0 -20.5 9t-6.5 22l23 133q4 29 31 29zM1651 1434q14 0 20 -10.5t0 -24.5l-477 -1032q-12 -20 -27 -21h-137q-18 0 -24 23l-115 618l-311 -622q-10 -18 -27 -19h-135q-18 0 -27 27l-153 1028
q-6 33 26 33h185q20 0 24 -29l82 -664l330 672q12 20 30 21h72q20 0 27 -27l129 -668l295 674q8 20 30 21h183z" />
    <glyph glyph-name="X.ss04" horiz-adv-x="1175" 
d="M92 193h909q12 0 20.5 -9.5t6.5 -21.5l-20 -133q-4 -29 -29 -29h-913q-12 0 -20.5 9t-6.5 22l22 133q4 29 31 29zM1034 346h-205q-23 0 -36 27l-156 323l-254 -329q-18 -20 -47 -21h-223q-12 0 -18.5 14.5t3.5 26.5l422 510l-233 500q-8 16 -2 26.5t20 10.5h205
q27 0 37 -25l143 -317l248 321q14 20 39 21h223q14 0 19.5 -15.5t-5.5 -27.5l-407 -494l246 -516q6 -10 0 -22.5t-19 -12.5z" />
    <glyph glyph-name="Y.ss04" horiz-adv-x="1099" 
d="M70 193h876q12 0 20.5 -9.5t6.5 -21.5l-21 -133q-4 -29 -28 -29h-879q-12 0 -20.5 9t-6.5 22l23 133q4 29 29 29zM1147 1434q14 0 21.5 -14.5t-3.5 -30.5l-434 -617l-63 -399q-4 -27 -29 -27h-199q-12 0 -20 8t-6 21l65 403l-239 621q-6 14 0 24.5t18 10.5h199
q29 0 39 -31l143 -377l264 383q18 25 45 25h199z" />
    <glyph glyph-name="Z.ss04" horiz-adv-x="1060" 
d="M84 193h811q10 0 19.5 -9.5t7.5 -21.5l-21 -133q-4 -29 -29 -29h-813q-12 0 -20 9t-6 22l22 133q4 29 29 29zM299 1219q-10 0 -18.5 9t-6.5 21l25 156q4 29 29 29h766q16 0 22 -17.5t-4 -32.5l-629 -825h473q10 0 18.5 -8t6.5 -21l-25 -157q-4 -27 -28 -27h-817
q-16 0 -22.5 13.5t3.5 27.5l631 832h-424z" />
    <glyph glyph-name="B.ss05" horiz-adv-x="1163" 
d="M139 193h822q12 0 20 -9.5t6 -21.5l-20 -133q-4 -29 -29 -29h-825q-12 0 -20.5 9t-6.5 22l23 133q4 29 30 29zM678 526q133 0 158 144q18 129 -93 129h-270l-45 -273h250zM770 1253h-227l-43 -274h221q121 0 145 147q12 70 -12.5 98.5t-83.5 28.5zM739 346h-571
q-12 0 -20.5 9.5t-6.5 19.5l164 1030q4 29 29 29h545q129 0 197.5 -78t42.5 -236t-150 -227q145 -63 110 -266q-20 -129 -104 -205t-236 -76z" />
    <glyph glyph-name="C.ss05" horiz-adv-x="1107" 
d="M135 193h764q12 0 20.5 -9.5t6.5 -21.5l-21 -133q-4 -29 -28 -29h-768q-12 0 -20.5 9t-6.5 22l22 133q4 29 31 29zM575 330q-221 0 -330.5 144t-63.5 428t192.5 416t330 132t282.5 -90t108 -256q4 -31 -21 -33l-164 -29q-29 -4 -35 23q-4 80 -45 125t-112 45
q-109 0 -185.5 -90t-101.5 -271q-51 -332 168 -331q156 0 225 184q6 16 33 10l162 -32q25 -6 14 -37q-49 -166 -170 -252t-287 -86z" />
    <glyph glyph-name="D.ss05" horiz-adv-x="1189" 
d="M139 193h836q12 0 20.5 -9.5t5.5 -21.5l-18 -133q-4 -29 -29 -29h-839q-12 0 -20.5 9t-6.5 22l23 133q4 29 28 29zM795 1219h-269l-102 -660h254q164 0 203 244l30 194q18 117 -7 169.5t-109 52.5zM844 1434q389 0 315 -461l-29 -176q-39 -238 -146 -344.5t-300 -106.5
h-516q-10 0 -19.5 9.5t-7.5 19.5l164 1030q4 29 29 29h510z" />
    <glyph glyph-name="E.ss05" horiz-adv-x="1069" 
d="M141 193h756q10 0 18.5 -9.5t6.5 -21.5l-19 -133q-4 -29 -29 -29h-759q-12 0 -20.5 9t-6.5 22l23 133q8 29 30 29zM956 559q10 0 18.5 -9t6.5 -20l-23 -155q-4 -29 -30 -29h-760q-10 0 -19.5 9.5t-7.5 19.5l164 1030q4 29 29 29h760q12 0 20 -9.5t6 -21.5l-24 -156
q-4 -29 -29 -28h-539l-36 -232h286q10 0 19.5 -9t7.5 -22l-21 -133q-4 -29 -28 -28h-295l-37 -236h532z" />
    <glyph glyph-name="F.ss05" horiz-adv-x="1095" 
d="M141 193h783q10 0 19 -9.5t7 -21.5l-20 -133q-4 -29 -29 -29h-786q-12 0 -20.5 9t-6.5 22l23 133q8 29 30 29zM1120 1434q10 0 19.5 -9.5t7.5 -21.5l-25 -156q-4 -29 -28 -28h-566l-41 -269h299q10 0 19.5 -9t7.5 -21l-25 -156q-4 -29 -28 -29h-309l-56 -360
q-4 -29 -28 -29h-199q-12 0 -20.5 9.5t-6.5 19.5l164 1030q4 29 29 29h786z" />
    <glyph glyph-name="G.ss05" horiz-adv-x="1163" 
d="M135 193h819q12 0 20.5 -9.5t6.5 -21.5l-18 -133q-4 -29 -31 -29h-823q-12 0 -20.5 9t-6.5 22l22 133q4 29 31 29zM1071 924q12 0 21.5 -9.5t7.5 -21.5l-84 -520q-4 -27 -27 -27h-104q-25 0 -25 25l2 92q-96 -133 -296 -133t-313 131t-73 442q45 285 193.5 416t346.5 131
t295 -96.5t97 -233.5q0 -31 -20 -33l-168 -28q-31 -4 -31 22q-10 154 -154 154q-125 0 -203.5 -95.5t-105.5 -259.5q-55 -337 168 -337q102 0 166.5 53t83.5 149h-131q-12 0 -20.5 9.5t-6.5 21.5l21 119q4 29 30 29h330z" />
    <glyph glyph-name="I.ss05" horiz-adv-x="708" 
d="M119 193h391q12 0 20.5 -9.5t6.5 -21.5l-23 -133q-4 -29 -31 -29h-389q-12 0 -20 8t-6 21l20 133q4 31 31 31zM676 1219h-72l-104 -660h67q12 0 20.5 -8t6.5 -21l-25 -155q-4 -29 -30 -29h-389q-12 0 -21.5 8t-7.5 21l26 157q4 27 29 27h72l104 660h-65q-12 0 -20.5 8
t-6.5 20l25 158q4 29 30 29h390q12 0 20 -8.5t6 -20.5l-24 -158q-4 -28 -31 -28z" />
    <glyph glyph-name="M.ss05" horiz-adv-x="1374" 
d="M139 193h1014q10 0 19.5 -9.5t7.5 -21.5l-21 -133q-4 -29 -29 -29h-1015q-12 0 -20.5 9t-6.5 22l23 133q4 29 28 29zM1169 1434h183q29 0 24 -31l-162 -1030q-4 -27 -26 -27h-201q-12 0 -20.5 8t-5.5 21l104 639l-301 -430q-16 -20 -33 -21h-29q-18 0 -32 27l-172 424
l-103 -641q-4 -27 -28 -27h-201q-10 0 -18.5 8t-6.5 21l166 1036q2 23 17 23h186q29 0 41 -33l213 -498l366 508q16 23 39 23z" />
    <glyph glyph-name="N.ss05" horiz-adv-x="1226" 
d="M139 193h867q10 0 19 -9.5t7 -21.5l-20 -133q-4 -29 -29 -29h-868q-12 0 -20.5 9t-6.5 22l23 133q4 29 28 29zM1204 1434q10 0 18.5 -9.5t6.5 -21.5l-162 -1030q-4 -27 -29 -27h-159q-25 0 -39 27l-342 645l-103 -645q-4 -27 -28 -27h-199q-12 0 -20.5 8t-6.5 21
l164 1030q4 29 29 29h168q23 0 37 -31l335 -637l103 639q4 29 29 29h198z" />
    <glyph glyph-name="O.ss05" horiz-adv-x="1200" 
d="M139 193h844q12 0 20.5 -9.5t6.5 -21.5l-21 -133q-4 -29 -28 -29h-846q-12 0 -20.5 9t-6.5 22l23 133q4 29 28 29zM610 543q117 0 198 96t106.5 259t-18.5 250t-161 87t-197.5 -96.5t-106.5 -259.5t18 -249.5t161 -86.5zM589.5 330q-227.5 0 -342 141t-67.5 429
t198.5 419t377 131t341 -141.5t68.5 -430.5t-197.5 -418.5t-378 -129.5z" />
    <glyph glyph-name="P.ss05" horiz-adv-x="1107" 
d="M139 193h760q12 0 20.5 -9.5t6.5 -21.5l-19 -133q-4 -29 -28 -29h-764q-12 0 -20.5 9t-6.5 22l23 133q4 29 28 29zM676 885q152 0 182 180q25 160 -119 160h-211l-53 -340h201zM717 676h-275l-47 -303q-4 -27 -28 -27h-201q-29 0 -25 29l164 1030q4 29 29 29h502
q147 0 224 -92.5t46 -294.5t-138.5 -286.5t-250.5 -84.5z" />
    <glyph glyph-name="Q.ss05" horiz-adv-x="1200" 
d="M983 193q12 0 20.5 -9.5t6.5 -21.5l-21 -133q-4 -29 -28 -29h-846q-12 0 -20.5 9t-6.5 22l23 133q4 29 28 29h844zM610.5 543q116.5 0 197.5 96t106.5 259t-18.5 250t-161 87t-197.5 -96.5t-106.5 -259.5t18.5 -249.5t161 -86.5zM756 1450q225 0 340.5 -141.5
t68.5 -434.5q-39 -231 -151 -366l65 -74q20 -23 -4 -43l-108 -96q-25 -20 -47 6l-70 80q-111 -51 -252 -51q-236 0 -350.5 141t-67.5 429t199 419t377 131z" />
    <glyph glyph-name="R.ss05" horiz-adv-x="1134" 
d="M139 193h809q12 0 20.5 -9.5t6.5 -21.5l-21 -133q-4 -29 -28 -29h-813q-10 0 -19.5 9t-7.5 22l25 133q4 29 28 29zM713 915q129 0 155 164q12 80 -14.5 113t-97.5 33h-228l-47 -310h232zM367 346h-199q-12 0 -20.5 8t-6.5 21l164 1030q4 29 33 29h487q186 0 253 -101.5
t38 -271.5q-33 -219 -213 -301q100 -127 101 -377q0 -37 -29 -37h-191q-25 0 -24 29q4 215 -94 336h-217l-54 -338q-4 -27 -28 -27z" />
    <glyph glyph-name="U.ss05" horiz-adv-x="1177" 
d="M176 193h748q12 0 20 -9.5t6 -21.5l-20 -133q-4 -29 -29 -29h-749q-12 0 -20.5 9t-6.5 22l22 133q4 29 29 29zM1155 1434q10 0 19.5 -9.5t7.5 -21.5l-111 -690q-31 -195 -133 -287t-311 -92h-97q-207 0 -285.5 100.5t-47.5 292.5l106 678q4 29 29 29h198q29 0 25 -31
l-104 -662q-16 -106 9 -149t87 -43h106q61 0 108.5 51t65.5 156l103 649q4 29 28 29h197z" />
    <glyph glyph-name="W.ss05" horiz-adv-x="1642" 
d="M78 193h1401q12 0 20 -9.5t6 -21.5l-20 -133q-4 -29 -29 -29h-1403q-12 0 -21 9t-7 22l24 133q4 29 29 29zM1681 1434q14 0 21.5 -13.5t-0.5 -29.5l-516 -1018q-14 -27 -35 -27h-125q-20 0 -25 27l-94 585l-276 -589q-12 -23 -35 -23h-123q-18 0 -24 27l-203 1028
q-6 33 26 33h185q20 0 24 -29l115 -655l297 659q10 25 31 25h100q8 0 16.5 -9.5t8.5 -19.5l90 -655l323 657q12 27 33 27h186z" />
    <glyph glyph-name="i.loclTRK" horiz-adv-x="483" 
d="M82 0q-12 0 -21.5 9t-7.5 22l127 807q4 29 31 28h192q12 0 20.5 -9t6.5 -21l-127 -807q-4 -29 -29 -29h-192zM359 1071q-47 0 -80 40t-25 86t42 74.5t81 28.5t79.5 -39.5t24.5 -88t-41.5 -75t-80.5 -26.5z" />
    <glyph glyph-name="ae.ss01" horiz-adv-x="1468" 
d="M461 418q-76 0 -120 -42t-54 -102.5t18.5 -100.5t99 -40t116.5 49.5t54 110.5q16 125 -114 125zM1051 719q-82 0 -134.5 -56.5t-68.5 -146.5l317 2q27 201 -114 201zM1087 883q176 0 254 -130t43 -376q-4 -27 -34 -27h-521q6 -184 160 -184q94 0 180 72q29 20 48 -9
l61 -104q16 -23 -4 -43q-102 -98 -294.5 -98t-301.5 120q-119 -121 -334 -120q-174 0 -243.5 89t-49.5 214t110.5 193.5t227 68.5t215.5 -55l12 65q12 74 -16.5 108.5t-124.5 34.5t-203 -45q-16 -4 -26 5.5t-13 21.5l-8 109q-4 27 21 34q106 55 276 56q213 0 262 -105
q127 105 303 105z" />
    <glyph glyph-name="b.ss01" horiz-adv-x="1007" 
d="M463 174q88 0 149.5 74t80.5 192q41 252 -130 252q-162 0 -207 -259t107 -259zM616 883q186 0 265.5 -135.5t47.5 -326.5t-141.5 -314t-289.5 -123q-139 0 -219 108l-29 -59q-14 -33 -39 -33h-131q-10 0 -19.5 9t-7.5 22l219 1390q4 29 29 29h197q10 0 18 -9t6 -22
l-96 -614q84 78 190 78z" />
    <glyph glyph-name="c.ss01" horiz-adv-x="944" 
d="M426 -16q-190 0 -285.5 132t-62.5 330t160 317.5t292 119.5t246.5 -83t87.5 -210q4 -27 -18 -29l-141 -22q-31 -2 -33 20q-8 97 -60 121q-26 12 -67 12q-190 0 -234 -276q-39 -242 135 -242q125 0 181 131q10 20 32 19l146 -25q27 -6 16 -39q-27 -100 -132 -188t-263 -88
z" />
    <glyph glyph-name="cacute.ss01" horiz-adv-x="944" 
d="M426 -16q-190 0 -285.5 132t-62.5 330t160 317.5t292 119.5t246.5 -83t87.5 -210q4 -27 -18 -29l-141 -22q-31 -2 -33 20q-8 97 -60 121q-26 12 -67 12q-190 0 -234 -276q-39 -242 135 -242q125 0 181 131q10 20 32 19l146 -25q27 -6 16 -39q-27 -100 -132 -188t-263 -88
zM459 975q-27 -16 -39 6l-25 41q-12 23 6 41l304 285q12 10 25 7t20 -16l57 -104q16 -25 -6 -41z" />
    <glyph glyph-name="ccaron.ss01" horiz-adv-x="944" 
d="M426 -16q-190 0 -285.5 132t-62.5 330t160 317.5t292 119.5t246.5 -83t87.5 -210q4 -27 -18 -29l-141 -22q-31 -2 -33 20q-8 97 -60 121q-26 12 -67 12q-190 0 -234 -276q-39 -242 135 -242q125 0 181 131q10 20 32 19l146 -25q27 -6 16 -39q-27 -100 -132 -188t-263 -88
zM573 1012h-16q-18 0 -45 30l-133 170q-20 29 -19 50l7 38q2 16 17 16.5t28 -11.5l168 -158l221 164q20 12 31.5 4t7.5 -27l-6 -33q-2 -29 -23 -45l-195 -180q-18 -18 -43 -18z" />
    <glyph glyph-name="ccedilla.ss01" horiz-adv-x="944" 
d="M545 692q-190 0 -234 -276q-39 -242 135 -242q125 0 181 131q10 20 32 19l146 -25q27 -6 16 -39q-25 -94 -122 -180t-242 -96l-45 -68q82 8 124 -39t28.5 -122t-64.5 -116.5t-125 -41.5t-114 28.5t-48 57.5q-6 12 4 20l45 33q14 12 34 -11.5t52 -23.5q82 0 92 80
q8 43 -18.5 53t-54.5 -14q-14 -10 -37 -2l-64 20q-20 6 -10 25l80 129q-147 33 -217 156.5t-39 309.5t158 305.5t292 119.5t246.5 -83t87.5 -210q4 -27 -18 -29l-141 -22q-31 -2 -33 20q-8 97 -60 121q-26 12 -67 12z" />
    <glyph glyph-name="cdotaccent.ss01" horiz-adv-x="944" 
d="M426 -16q-190 0 -285.5 132t-62.5 330t160 317.5t292 119.5t246.5 -83t87.5 -210q4 -27 -18 -29l-141 -22q-31 -2 -33 20q-8 97 -60 121q-26 12 -67 12q-190 0 -234 -276q-39 -242 135 -242q125 0 181 131q10 20 32 19l146 -25q27 -6 16 -39q-27 -100 -132 -188t-263 -88
zM575 1042q-42 0 -72 36t-22 77t38 65.5t72 24.5t70.5 -34.5t20.5 -78t-36.5 -67t-70.5 -23.5z" />
    <glyph glyph-name="d.ss01" horiz-adv-x="1007" 
d="M449 174q161 0 203 259t-107 259q-92 0 -153.5 -80t-79.5 -192t14.5 -179t122.5 -67zM1020 1450q12 0 20.5 -9t6.5 -22l-220 -1390q-4 -29 -28 -29h-119q-27 0 -37 35l-12 43q-106 -94 -240 -94q-188 0 -266 132t-46 328t144.5 317.5t286.5 121.5q117 0 188 -76l99 614
q4 29 28 29h195z" />
    </font>
</defs>
</svg>
