<?xml version="1.0" standalone="no"?>
<!DOCTYPE svg PUBLIC "-//W3C//DTD SVG 1.1//EN" "http://www.w3.org/Graphics/SVG/1.1/DTD/svg11.dtd" >
<svg xmlns="http://www.w3.org/2000/svg">
<metadata>
Created by FontPrep 20130207 at Tue Apr  4 15:34:31 2017
 By Tina Muller
Copyright 2016 by Paulo Goode. All rights reserved.
</metadata>
<defs>
<font id="b8a2de952566267567abb658d2358ba3" horiz-adv-x='1024' >
  <font-face 
    font-family="WoodfordBournePRO-ExtraLight"
    font-weight="200"
    font-stretch="normal"
    units-per-em="2048"
    panose-1="0 0 3 0 0 0 0 0 0 0"
    ascent="1638"
    descent="-410"
    x-height="866"
    cap-height="1434"
    bbox="-1466.03 -584 4571.44 1890.04"
    underline-thickness="102"
    underline-position="-102"
    unicode-range="U+0020-FB02"
  />
<missing-glyph horiz-adv-x="1585" 
d="M858 657l236 -235q25 -25 2 -47l-19 -17q-25 -23 -45 -2l-239 238l-236 -236q-25 -23 -45 -2l-18 19q-23 23 2 47l235 235l-235 236q-25 25 -2 47l16 18q23 23 45 3l240 -240l235 235q25 25 45 5l21 -21q20 -20 -2 -47zM1198 1569q-27 0 -27 24v52q0 25 27 24h236
q12 0 21 -9t9 -22v-1955q0 -11 -9 -21t-21 -10h-236q-27 0 -27 24v52q0 25 27 24h158v1817h-158zM469 1569h-158v-1817h158q27 0 27 -24v-52q0 -25 -27 -24h-236q-12 0 -21 9t-9 22v1955q0 12 9 22t21 9h236q27 0 27 -24v-52q0 -24 -27 -24z" />
    <glyph glyph-name="fi" unicode="fi" horiz-adv-x="962" 
d="M233 866v256q0 328 302 328q147 0 247 -78q18 -16 9 -39l-29 -39q-12 -20 -33 -4q-84 70 -182 70q-209 0 -209 -250v-244h455q12 0 21 -9t9 -21v-807q0 -29 -26 -29h-52q-27 0 -26 29v747h-381v-747q0 -29 -27 -29h-53q-25 0 -25 29v747h-108q-27 0 -27 27v37q0 27 27 26
h108z" />
    <glyph glyph-name="fl" unicode="fl" horiz-adv-x="962" 
d="M797 1450q27 0 26 -27v-1396q0 -27 -26 -27h-52q-27 0 -26 27v1028q0 139 -44 207t-155 68q-110 0 -146 -66t-36 -220v-178h233q11 0 21 -9t10 -21v-29q0 -11 -9 -21t-22 -10h-233v-747q0 -29 -27 -29h-53q-25 0 -25 29v747h-108q-27 0 -27 27v37q0 27 27 26h108v207
q-1 174 63 259t204 85t219 -80v86q0 27 26 27h52z" />
    <glyph glyph-name="f_f" unicode="ff" horiz-adv-x="1290" 
d="M719 866v150q0 156 -44 224t-155 67q-110 0 -146 -65t-36 -216v-160h381zM998 1360q-88 0 -132 -58t-43 -192v-244h250q27 0 27 -26v-37q0 -27 -27 -27h-250v-747q0 -29 -26 -29h-54q-25 0 -24 29v747h-381v-747q0 -29 -27 -29h-53q-25 0 -25 29v747h-108q-27 0 -27 27
v37q0 27 27 26h108v189q0 170 65 256t217 86t230 -101q55 154 254 154q125 0 197 -53q27 -23 12 -41l-20 -31q-16 -29 -39 -10q-63 45 -151 45z" />
    <glyph glyph-name="f_f_i" unicode="ffi" horiz-adv-x="1447" 
d="M719 866v150q0 156 -44 224t-155 67q-110 0 -146 -65t-36 -216v-160h381zM1278 866q12 0 21 -9t10 -21v-807q0 -29 -27 -29h-51q-27 0 -27 29v747h-381v-747q0 -29 -26 -29h-54q-25 0 -24 29v747h-381v-747q0 -29 -27 -29h-53q-25 0 -25 29v747h-108q-27 0 -27 27v37
q0 27 27 26h108v189q0 170 65 256q66 86 222 86t228 -105q63 158 272 158q147 0 248 -78q18 -16 8 -39l-29 -39q-12 -20 -33 -4q-84 70 -182 70q-209 0 -209 -250v-244h455z" />
    <glyph glyph-name="f_f_l" unicode="ffl" horiz-adv-x="1447" 
d="M719 866v150q0 156 -44 224t-155 67q-110 0 -146 -65t-36 -216v-160h381zM1282 1450q27 0 27 -27v-1396q0 -27 -27 -27h-51q-27 0 -27 27v1028q0 139 -44 207t-154 68t-147 -66q-36 -66 -36 -220v-178h234q12 0 21 -9t9 -21v-29q0 -11 -9 -21t-21 -10h-234v-747
q0 -29 -26 -29h-54q-25 0 -24 29v747h-381v-747q0 -29 -27 -29h-53q-25 0 -25 29v747h-108q-27 0 -27 27v37q0 27 27 26h108v189q0 170 65 256q66 86 224 86t232 -113q59 133 250 133q121 0 200 -80v86q0 27 27 27h51z" />
    <glyph glyph-name=".notdef" horiz-adv-x="1585" 
d="M858 657l236 -235q25 -25 2 -47l-19 -17q-25 -23 -45 -2l-239 238l-236 -236q-25 -23 -45 -2l-18 19q-23 23 2 47l235 235l-235 236q-25 25 -2 47l16 18q23 23 45 3l240 -240l235 235q25 25 45 5l21 -21q20 -20 -2 -47zM1198 1569q-27 0 -27 24v52q0 25 27 24h236
q12 0 21 -9t9 -22v-1955q0 -11 -9 -21t-21 -10h-236q-27 0 -27 24v52q0 25 27 24h158v1817h-158zM469 1569h-158v-1817h158q27 0 27 -24v-52q0 -25 -27 -24h-236q-12 0 -21 9t-9 22v1955q0 12 9 22t21 9h236q27 0 27 -24v-52q0 -24 -27 -24z" />
    <glyph glyph-name=".null" 
 />
    <glyph glyph-name="nonmarkingreturn" horiz-adv-x="681" 
 />
    <glyph glyph-name="space" unicode=" " horiz-adv-x="468" 
 />
    <glyph glyph-name="exclam" unicode="!" horiz-adv-x="548" 
d="M274 -16q-30 0 -52 20t-21 51q0 31 21 54q22 23 52 23t53 -24q21 -22 21 -53t-22 -51t-52 -20zM260 313q-27 0 -27 31l-24 1075q0 31 29 31h69q33 0 33 -31l-25 -1075q0 -31 -26 -31h-29z" />
    <glyph glyph-name="quotedbl" unicode="&#x22;" horiz-adv-x="735" 
d="M500 920q-25 0 -27 30l-41 514q0 31 27 31h96q31 0 27 -31l-39 -514q-2 -31 -29 -30h-14zM221 920q-25 0 -26 30l-41 514q0 31 26 31h96q31 0 27 -31l-39 -514q-2 -31 -28 -30h-15z" />
    <glyph glyph-name="numbersign" unicode="#" horiz-adv-x="1417" 
d="M862 543l70 444h-377l-70 -444h377zM1227 1079q33 0 33 -30v-31q0 -31 -33 -31h-189l-71 -444h163q33 0 33 -31v-31q0 -31 -33 -30h-180l-65 -420q-6 -31 -39 -31h-39q-33 0 -25 45l64 406h-377l-68 -420q-6 -31 -36 -31h-39q-35 0 -27 45l66 406h-175q-33 0 -32 30v31
q0 31 32 31h191l68 444h-166q-33 0 -33 31v31q0 31 33 30h182l55 340q6 31 37 31h51q27 0 19 -37l-56 -334h377l53 340q6 31 37 31h52q27 0 18 -37l-53 -334h172z" />
    <glyph glyph-name="dollar" unicode="$" horiz-adv-x="1224" 
d="M993 373.5q0 111.5 -66.5 168t-271.5 120.5v-576q150 10 244 93t94 194.5zM252 1078.5q0 -107.5 65.5 -167t235.5 -112.5v549q-139 -14 -220 -88t-81 -181.5zM1108 375.5q0 -156.5 -125 -268t-328 -121.5v-113q0 -29 -30 -29h-41q-31 0 -31 29v113q-131 10 -247 59
t-181 125q-14 14 0 33l43 45q14 18 33 0q55 -61 152.5 -105.5t199.5 -54.5v604q-225 66 -319.5 148t-94.5 213q0 168 111.5 274.5t302.5 120.5v106q0 35 31 35h41q31 0 30 -35v-106q240 -12 398 -148q16 -12 2 -30l-43 -51q-10 -18 -29 0q-154 117 -328 129v-580
q252 -68 352.5 -152t100.5 -240.5z" />
    <glyph glyph-name="percent" unicode="%" horiz-adv-x="1785" 
d="M1219 450q0 -378 186 -378t186 381q0 277 -91 347q-38 30 -93 29q-188 -1 -188 -379zM1686 450q0 -248 -69 -356q-69 -110 -212 -110t-212 108t-69 358q0 248 69 358t212 110t212 -110t69 -358zM383 1362q-188 0 -188 -379t186 -379t186 381q0 277 -91 347q-38 30 -93 30
zM526 0q-20 0 -24 14t4 31l694 1358q16 31 37 31h49q31 0 12 -37l-698 -1366q-14 -31 -39 -31h-35zM662 982q0 -248 -69 -356q-69 -110 -212 -110t-212 109t-69 357t69 358t212 110t212 -110t69 -358z" />
    <glyph glyph-name="ampersand" unicode="&#x26;" horiz-adv-x="1388" 
d="M529 82q95 0 165 57t154 170q-248 244 -371 408q-100 -70 -156 -146q-57 -77 -57 -205t84 -206t181 -78zM725 1166q0 96 -48 144t-118 48t-119 -52t-49 -147q0 -133 111 -305q115 78 169 148t54 164zM287 1140q0 148 78 229q79 81 199 81t193 -78t73 -207t-72 -215
q-70 -86 -197 -174q123 -170 350 -383q111 137 242 248q23 16 43 -4l29 -35q16 -23 -4 -41q-92 -70 -232 -237q62 -64 275 -238q23 -20 2 -41l-31 -33q-25 -25 -45 -4q-190 158 -268 234q-128 -187 -254 -235q-63 -24 -138 -23q-160 0 -268 105t-108 290q0 123 61 218
t205 200q-133 195 -133 343z" />
    <glyph glyph-name="quotesingle" unicode="'" horiz-adv-x="456" 
d="M221 920q-25 0 -26 30l-41 514q0 31 26 31h96q31 0 27 -31l-39 -514q-2 -31 -28 -30h-15z" />
    <glyph glyph-name="parenleft" unicode="(" horiz-adv-x="718" 
d="M522 -205q-18 -29 -37 -2q-131 178 -209 419t-78 495q0 255 82 495q81 240 199 402q23 31 41 6l33 -37q16 -18 0 -43q-125 -166 -184 -392t-56 -429q-4 -496 238 -832q14 -25 4 -43z" />
    <glyph glyph-name="parenright" unicode=")" horiz-adv-x="718" 
d="M520 706q0 -254 -78 -494q-78 -241 -209 -419q-18 -27 -36 2l-33 39q-10 18 4 43q242 336 238 832q4 203 -56 429q-59 226 -184 392q-16 25 0 43l33 37q18 25 41 -6q120 -162 200 -403t80 -495z" />
    <glyph glyph-name="asterisk" unicode="*" horiz-adv-x="792" 
d="M365 1450h57q26 0 22 -18l-28 -218l6 -4l196 86q23 8 29 -12l19 -55q6 -20 -13 -27l-217 -41v-6l150 -162q14 -16 -6 -28l-48 -35q-20 -10 -30 6l-109 190h-4l-102 -194q-11 -16 -31 -6l-49 35q-18 12 -6 30l147 164l-2 6l-215 41q-16 6 -12 27l18 55q4 18 25 14l200 -88
l5 4l-27 216q-4 20 25 20z" />
    <glyph glyph-name="plus" unicode="+" horiz-adv-x="1112" 
d="M924 748q33 0 32 -31v-31q0 -31 -32 -31h-318v-323q0 -33 -31 -33h-38q-31 0 -31 33v323h-316q-33 0 -32 31v31q0 31 32 31h316v323q0 33 31 33h38q31 0 31 -33v-323h318z" />
    <glyph glyph-name="comma" unicode="," horiz-adv-x="456" 
d="M299 109v-109q0 -137 -162 -209q-20 -8 -28 12q-6 20 12 31q55 27 83 61t27 89l-51 20q-20 8 -20 31v74q0 31 33 30h73q33 1 33 -30z" />
    <glyph glyph-name="hyphen" unicode="-" horiz-adv-x="862" 
d="M184 418q-27 0 -26 26v37q0 27 26 27h494q27 0 27 -27v-37q0 -27 -27 -26h-494z" />
    <glyph glyph-name="period" unicode="." horiz-adv-x="456" 
d="M193 0q-33 0 -33 33v73q0 33 33 33h71q33 0 33 -33v-73q0 -33 -33 -33h-71z" />
    <glyph glyph-name="slash" unicode="/" horiz-adv-x="802" 
d="M121 0h-31q-20 0 -27 12q-6 12 3 25l575 1366q12 31 41 31h35q16 0 22 -12t0 -25l-575 -1366q-16 -31 -43 -31z" />
    <glyph glyph-name="zero" unicode="0" horiz-adv-x="1183" 
d="M252 717q0 -633 340 -633t340 633t-340 633t-340 -633zM139 717q0 733 453 733t453 -733t-453 -733t-453 733z" />
    <glyph glyph-name="one" unicode="1" horiz-adv-x="958" 
d="M432 98v1200l-211 -165q-16 -12 -33 -6q-16 7 -16 26v33q0 16 29 41l225 188q20 18 37 19h51q29 0 29 -31v-1305h266q12 0 21 -9t10 -21v-39q0 -29 -31 -29h-639q-31 0 -31 29v39q0 12 9 21t22 9h262z" />
    <glyph glyph-name="two" unicode="2" horiz-adv-x="1179" 
d="M993 100q11 0 21 -9t10 -21v-41q0 -29 -31 -29h-839q-31 0 -31 25v30q0 10 8 21l600 676q80 86 115 154t35 149q0 159 -84 227t-215 68q-262 0 -299 -244q-2 -25 -25 -25h-65q-27 0 -21 31q49 338 418 338h2q303 0 383 -244q20 -63 20 -144q1 -81 -31 -161t-63 -115
l-33 -34l-573 -652h698z" />
    <glyph glyph-name="three" unicode="3" horiz-adv-x="1210" 
d="M585 1450q215 0 325 -100t110 -277q0 -244 -221 -332q254 -84 254 -342q0 -182 -124 -299q-124 -116 -325 -116q-202 0 -324 97t-122 245q0 25 24 24h58q25 0 24 -24q2 -96 96 -169t241 -73t243 88t96 236t-110 213q-110 66 -281 65h-94q-31 0 -31 29v43q0 29 31 28h94
q156 0 257 71t101 207t-85 211t-232 75q-148 0 -236 -69t-90 -171q0 -25 -24 -25h-60q-23 0 -22 25q0 143 106 242q107 98 321 98z" />
    <glyph glyph-name="four" unicode="4" horiz-adv-x="1193" 
d="M786 426v838l-532 -838h532zM795 1434h73q29 0 29 -31v-977h131q27 0 27 -27v-45q0 -29 -27 -28h-131v-299q0 -27 -27 -27h-57q-27 0 -27 27v299h-636q-31 0 -31 28v37q0 8 4 17l639 1007q10 19 33 19z" />
    <glyph glyph-name="five" unicode="5" horiz-adv-x="1210" 
d="M1053 430q0 -184 -115 -314q-115 -132 -321 -132q-207 0 -333 94t-126 233q0 39 26 39h64q20 0 20 -24q0 -92 91 -167t253 -75t245 104t83 256t-72 244t-174 110t-211 -12q-109 -31 -182 -102q-12 -12 -39 -6l-57 12q-25 6 -23 31l109 684q4 29 31 29h634q27 0 27 -25
v-51q0 -25 -27 -25h-567l-84 -532q98 74 226 93q128 18 245 -16t197 -149t80 -299z" />
    <glyph glyph-name="six" unicode="6" horiz-adv-x="1173" 
d="M600 84q143 0 233 99q89 99 89 281t-94 270q-94 89 -222 89q-127 0 -229 -89q-103 -90 -103 -254t92 -280t234 -116zM614 920q186 0 304 -122t116 -332q0 -210 -116 -346t-334 -136q-219 0 -332 185t-113 547t122 548t341 186q179 0 269 -105t102 -221q4 -33 -23 -32h-53
q-25 0 -31 24q-18 92 -83 163t-189 71q-160 0 -251 -152t-105 -528q41 104 137 177t239 73z" />
    <glyph glyph-name="seven" unicode="7" horiz-adv-x="1030" 
d="M145 1333q-25 0 -24 25v49q0 27 24 27h775q16 0 26 -16t2 -38l-622 -1362q-8 -18 -33 -18h-60q-16 0 -20 14t4 29l588 1290h-660z" />
    <glyph glyph-name="eight" unicode="8" horiz-adv-x="1183" 
d="M252 381q0 -139 102 -218t239 -79q136 0 238 79t103 220q0 94 -53 164q-53 71 -125 105t-164 53q-144 -29 -242 -107t-98 -217zM591 1350q-128 0 -209 -72t-81 -197q0 -236 291 -290q121 23 205 91t84 194q0 128 -81 201t-209 73zM139 379q0 133 82 231t205 131
q-100 39 -169 129t-69 233t104 245t300 102q197 0 298 -102t101 -244t-69 -233q-70 -91 -168 -130q123 -33 207 -131t83 -231q0 -166 -122 -281q-122 -114 -330 -114q-207 0 -330 114t-123 281z" />
    <glyph glyph-name="nine" unicode="9" horiz-adv-x="1163" 
d="M588 1352q-150 0 -244 -102t-94 -271q0 -167 89 -265t224 -98t242 70q106 70 105 259t-86 298q-86 109 -236 109zM1024 924q0 -690 -196 -857q-95 -83 -255 -83q-98 0 -175 36q-76 36 -116 94q-78 112 -83 195q-2 35 20 35h62q20 0 26 -25q16 -83 81 -159t187 -76
q172 0 250 152t86 450q-39 -76 -128 -122t-216 -46q-209 0 -319 125t-109 335q0 210 122 341t333 131q210 0 320 -145t110 -381z" />
    <glyph glyph-name="colon" unicode=":" horiz-adv-x="538" 
d="M233 0q-33 0 -32 33v73q0 33 32 33h72q33 0 33 -33v-73q0 -33 -33 -33h-72zM233 584q-33 0 -32 32v74q0 33 32 33h72q33 0 33 -33v-74q0 -33 -33 -32h-72z" />
    <glyph glyph-name="semicolon" unicode=";" horiz-adv-x="538" 
d="M340 109v-109q0 -137 -162 -209q-20 -8 -28 12q-6 20 12 31q55 27 83 61t27 89l-51 20q-20 8 -20 31v74q0 31 32 30h74q33 1 33 -30zM233 584q-33 0 -32 32v74q0 33 32 33h72q33 0 33 -33v-74q0 -33 -33 -32h-72z" />
    <glyph glyph-name="less" unicode="&#x3c;" horiz-adv-x="1224" 
d="M158 715q0 18 24 28l828 297q33 12 43 -16l12 -27q10 -31 -18 -41l-725 -254l708 -294q31 -12 19 -41l-11 -25q-8 -31 -43 -16l-813 336q-25 10 -24 26v27z" />
    <glyph glyph-name="equal" unicode="=" horiz-adv-x="1122" 
d="M184 489q-27 0 -26 27v37q0 27 26 27h754q29 0 29 -27v-37q0 -27 -29 -27h-754zM184 825q-27 0 -26 27v37q0 27 26 26h754q29 0 29 -26v-37q0 -27 -29 -27h-754z" />
    <glyph glyph-name="greater" unicode="&#x3e;" horiz-adv-x="1224" 
d="M1067 715v-27q0 -16 -25 -26l-813 -336q-35 -14 -43 16l-10 25q-12 29 19 41l708 294l-725 254q-29 10 -18 41l12 27q10 29 43 16l827 -297q25 -10 25 -28z" />
    <glyph glyph-name="question" unicode="?" horiz-adv-x="1030" 
d="M443 -16q-31 0 -53 20t-21 51q0 31 21 54q22 23 54 23t53 -24q21 -22 21 -53t-22 -51t-53 -20zM506 1450q215 0 310 -104t95 -248q0 -94 -25 -142q-26 -48 -36 -70t-45 -60t-43 -47t-52 -49q-141 -128 -175 -215t-37 -191q0 -29 -23 -29h-63q-23 0 -23 37q0 217 158 387
q14 16 84 85q71 68 93 96t50 86t27 116q0 112 -79 180t-220 68q-86 0 -148 -29t-86 -57q-25 -28 -49 -74q-14 -20 -35 -8l-51 14q-20 10 -8 39q100 215 381 215z" />
    <glyph glyph-name="at" unicode="@" horiz-adv-x="1671" 
d="M840 72q156 0 211 109q43 86 44 257q1 172 -51 263t-206 92q-281 -1 -281 -361t283 -360zM1513 203q0 -221 -206 -221q-158 0 -201 141q-84 -139 -279 -139t-285 126t-91 328q0 202 92 323q92 122 280 122t269 -111l8 41q6 39 30 39h41q23 0 23 -31v-606q0 -53 26 -98
t83 -45q106 0 106 149v623q0 80 -46 156t-130 75l-471 4q-236 0 -378 -174t-142 -473q0 -209 102 -389q8 -11 6 -27t-18 -16h-56q-37 0 -53 43q-86 184 -86 395q0 348 176 540t445 191l483 -4q133 -2 203 -99t69 -212v-651z" />
    <glyph glyph-name="A" unicode="A" horiz-adv-x="1355" 
d="M371 434h614l-297 750l-14 41zM684 1450q8 0 18 -25l555 -1398q10 -27 -20 -27h-66q-16 0 -26 27l-121 307h-694l-117 -307q-10 -27 -29 -27h-63q-31 0 -21 27l547 1398q8 25 17 25h20z" />
    <glyph glyph-name="B" unicode="B" horiz-adv-x="1220" 
d="M272 100h426q289 0 289 289q0 281 -242 281h-473v-570zM618 1333h-346v-567h428q111 0 169.5 60.5t58.5 229.5t-75 223t-235 54zM1102 365.5q0 -154.5 -97.5 -260t-269.5 -105.5h-547q-27 0 -26 27v1380q0 27 26 27h494q360 0 360 -381q0 -252 -143 -322
q92 -31 147.5 -121t55.5 -244.5z" />
    <glyph glyph-name="C" unicode="C" horiz-adv-x="1470" 
d="M833.5 -16q-313.5 0 -514 215t-200.5 518t200.5 518t519 215t492.5 -229q14 -20 0 -41l-39 -37q-23 -23 -41 2q-63 88 -171.5 146.5t-256.5 58.5q-258 0 -425 -186.5t-167 -446.5t167 -446.5t425 -186.5q143 0 260 64.5t179 158.5q14 20 38 6l43 -39q23 -16 0 -38
q-196 -252 -509.5 -252z" />
    <glyph glyph-name="D" unicode="D" horiz-adv-x="1323" 
d="M596 100q494 0 494 616.5t-494 616.5h-324v-1233h324zM1204 716q0 -347 -151.5 -531.5t-446.5 -184.5h-418q-27 0 -26 27v1380q0 27 26 27h426q291 0 440.5 -185.5t149.5 -532.5z" />
    <glyph glyph-name="E" unicode="E" horiz-adv-x="1093" 
d="M946 100q27 0 27 -26v-47q0 -27 -27 -27h-758q-27 0 -26 27v1380q0 27 26 27h760q25 0 25 -27v-47q0 -27 -25 -27h-676v-565h469q27 0 27 -25v-51q0 -25 -27 -24h-469v-568h674z" />
    <glyph glyph-name="F" unicode="F" horiz-adv-x="1046" 
d="M920 1434q27 0 26 -27v-47q0 -27 -26 -27h-648v-616h465q27 0 27 -25v-49q0 -27 -27 -27h-465v-589q0 -27 -22 -27h-66q-23 0 -22 27v1380q0 27 26 27h732z" />
    <glyph glyph-name="G" unicode="G" horiz-adv-x="1507" 
d="M1321 680q27 0 27 -25v-467q0 -12 -11 -22q-70 -74 -216 -128t-296 -54q-293 0 -499.5 204.5t-206.5 528t208 528.5t502 205q129 0 244 -46t169 -90t95 -93q16 -20 0 -37l-43 -43q-18 -18 -34 0q-44 53 -120 111q-127 98 -319 98q-256 0 -422 -186.5t-167 -447.5
t165 -446.5t432 -185.5q121 0 230.5 41t177.5 104v353h-295q-27 0 -27 24v49q0 25 27 25h379z" />
    <glyph glyph-name="H" unicode="H" horiz-adv-x="1378" 
d="M1196 1434q20 0 21 -27v-1380q0 -27 -21 -27h-68q-23 0 -22 27v639h-834v-639q0 -27 -22 -27h-66q-23 0 -22 27v1380q0 27 22 27h66q23 0 22 -27v-641h834v641q0 27 22 27h68z" />
    <glyph glyph-name="I" unicode="I" horiz-adv-x="434" 
d="M184 0q-23 0 -22 27v1380q0 27 22 27h66q23 0 22 -27v-1380q0 -27 -22 -27h-66z" />
    <glyph glyph-name="J" unicode="J" horiz-adv-x="933" 
d="M745 1434q29 0 29 -33v-1020q-4 -193 -94 -295t-260 -102q-233 0 -338 217q-12 23 6 35l51 28q25 12 33 -12q82 -166 244 -166q248 0 248 315v1000q0 33 26 33h55z" />
    <glyph glyph-name="K" unicode="K" horiz-adv-x="1179" 
d="M272 27q0 -27 -22 -27h-66q-23 0 -22 27v1380q0 27 22 27h66q23 0 22 -27v-645l658 645q27 27 51 27h86q10 0 14 -10.5t-4 -18.5l-702 -688l704 -688q10 -8 6 -18.5t-16 -10.5h-94q-23 0 -49 27l-654 643v-643z" />
    <glyph glyph-name="L" unicode="L" horiz-adv-x="1026" 
d="M901 100q25 0 25 -26v-47q0 -27 -25 -27h-713q-27 0 -26 27v1378q0 29 22 29h66q23 0 22 -29v-1305h629z" />
    <glyph glyph-name="M" unicode="M" horiz-adv-x="1630" 
d="M1401 1434h45q23 0 22 -27v-1382q0 -25 -22 -25h-66q-23 0 -22 25v1120l-512 -1120q-10 -25 -25 -25h-10q-16 0 -27 25l-512 1120v-1120q0 -25 -24 -25h-66q-20 0 -20 25v1382q0 27 26 27h48q18 0 32 -31l545 -1208l553 1208q14 31 35 31z" />
    <glyph glyph-name="N" unicode="N" horiz-adv-x="1392" 
d="M1208 1434q23 0 23 -27v-1382q0 -25 -23 -25h-49q-18 0 -37 25l-850 1189v-1189q0 -25 -22 -25h-66q-23 0 -22 25v1382q0 27 24 27h47q18 0 39 -31l848 -1186v1190q0 27 23 27h65z" />
    <glyph glyph-name="O" unicode="O" horiz-adv-x="1642" 
d="M820 84q261 0 426 188.5t165 442.5t-165 444.5t-425 190.5t-425 -189.5t-165 -445.5t164 -443.5t425 -187.5zM822 -16q-300 0 -501.5 213t-201.5 519t201.5 520t501.5 214t501 -214t201 -520t-201 -519t-501 -213z" />
    <glyph glyph-name="P" unicode="P" horiz-adv-x="1148" 
d="M592 631q324 0 323.5 351t-317.5 351h-326v-702h320zM1030 984.5q0 -232.5 -116.5 -343.5t-288.5 -111h-353v-505q0 -25 -22 -25h-66q-23 0 -22 25v1382q0 27 26 27h439q174 0 288.5 -108.5t114.5 -341z" />
    <glyph glyph-name="Q" unicode="Q" horiz-adv-x="1665" 
d="M820 84q261 0 426 188.5t165 442.5t-165 444.5t-425 190.5t-425 -189.5t-165 -445.5t164 -443.5t425 -187.5zM119 716q0 306 201.5 520t501.5 214t501 -214t201 -515t-185 -508l199 -197q20 -20 0 -41l-35 -36q-20 -20 -41 0l-200 200q-184 -156 -439 -155
q-301 0 -502.5 213t-201.5 519z" />
    <glyph glyph-name="R" unicode="R" horiz-adv-x="1196" 
d="M272 1333v-680h346q315 0 316 340q0 172 -79 256t-216 84h-367zM1040 0h-69q-20 0 -35 25l-285 528h-379v-528q0 -25 -24 -25h-62q-25 0 -24 25v1382q0 27 24 27h496q150 0 258.5 -114t108.5 -308.5t-81 -303t-206 -139.5l293 -542q14 -27 -15 -27z" />
    <glyph glyph-name="S" unicode="S" horiz-adv-x="1230" 
d="M612 -16q-145 0 -278 51t-207 135q-14 14 0 33l43 45q14 18 33 0q63 -72 179 -118t230 -46q168 0 275.5 84t107.5 205t-77.5 178t-326.5 129t-349.5 155t-100.5 218q0 180 127 288.5t340 108.5q270 0 447 -150q16 -12 2 -30l-43 -51q-10 -18 -29 0q-175 131 -357 131
t-278 -76t-96 -196t83 -182t325 -128t345 -149.5t103 -227.5q0 -180 -138.5 -293.5t-359.5 -113.5z" />
    <glyph glyph-name="T" unicode="T" horiz-adv-x="1198" 
d="M1071 1434q27 0 27 -27v-47q0 -27 -27 -27h-416v-1306q0 -27 -26 -27h-60q-25 0 -24 27v1306h-418q-27 0 -27 27v47q0 27 27 27h944z" />
    <glyph glyph-name="U" unicode="U" horiz-adv-x="1394" 
d="M1212 1434q25 0 25 -29v-858q0 -260 -141.5 -411.5t-398.5 -151.5t-398 151.5t-141 411.5v858q0 29 26 29h58q27 0 26 -29v-834q0 -236 114 -361.5t314.5 -125.5t315 126t114.5 361v834q0 29 25 29h61z" />
    <glyph glyph-name="V" unicode="V" horiz-adv-x="1335" 
d="M1214 1434q12 0 19.5 -8.5t3.5 -20.5l-532 -1382q-8 -23 -27 -23h-21q-20 0 -28 23l-531 1382q-4 12 2 20.5t17 8.5h67q18 0 29 -29l455 -1208l452 1208q10 29 29 29h65z" />
    <glyph glyph-name="W" unicode="W" horiz-adv-x="1755" 
d="M1634 1434q12 0 19.5 -8.5t5.5 -20.5l-359 -1385q-6 -20 -20 -20h-25q-18 0 -24 20l-354 1160l-357 -1160q-6 -20 -20 -20h-25q-16 0 -22 20l-355 1385q-2 12 5.5 20.5t19.5 8.5h55q23 0 29 -29l285 -1149l354 1155q6 23 20 23h23q12 0 20 -23l355 -1155l284 1149
q8 29 29 29h57z" />
    <glyph glyph-name="X" unicode="X" horiz-adv-x="1292" 
d="M1157 0h-67q-20 0 -41 29l-402 608l-403 -608q-23 -29 -39 -29h-66q-12 0 -18 8t0 21l463 702l-443 674q-8 12 -2 20.5t19 8.5h69q18 0 37 -29l383 -580l383 580q18 29 37 29h72q12 0 17 -8.5t-1 -20.5l-444 -674l460 -702q8 -12 3 -20.5t-17 -8.5z" />
    <glyph glyph-name="Y" unicode="Y" horiz-adv-x="1241" 
d="M1120 1434q12 0 20.5 -8.5t0.5 -20.5l-467 -784v-596q0 -25 -25 -25h-59q-27 0 -27 25v596l-463 784q-14 29 17 29h63q20 0 39 -29l399 -678l406 682q16 25 39 25h57z" />
    <glyph glyph-name="Z" unicode="Z" horiz-adv-x="1198" 
d="M164 1333q-25 0 -25 25v51q0 25 25 25h893q14 0 20 -14.5t-4 -30.5l-797 -1289h775q25 0 24 -24v-51q0 -25 -24 -25h-906q-16 0 -23 14.5t1 28.5l797 1290h-756z" />
    <glyph glyph-name="bracketleft" unicode="[" horiz-adv-x="649" 
d="M465 1569h-158v-1817h158q27 0 27 -24v-52q0 -25 -27 -24h-236q-12 0 -21 9t-9 22v1955q0 12 9 22t21 9h236q27 0 27 -24v-52q0 -24 -27 -24z" />
    <glyph glyph-name="backslash" unicode="\" horiz-adv-x="839" 
d="M700 0q-29 0 -43 31l-575 1366q-6 14 0 25t22 12h35q29 0 41 -31l576 -1366q8 -13 2 -25t-27 -12h-31z" />
    <glyph glyph-name="bracketright" unicode="]" horiz-adv-x="649" 
d="M184 1569q-27 0 -26 24v52q0 25 26 24h236q12 0 21 -9t10 -22v-1955q1 -11 -9 -21t-22 -10h-236q-27 0 -26 24v52q0 25 26 24h158v1817h-158z" />
    <glyph glyph-name="asciicircum" unicode="^" horiz-adv-x="862" 
d="M684 1145h-18q-20 0 -39 31l-195 346l-196 -346q-14 -31 -39 -31h-19q-37 0 -14 45l207 418q14 31 35 30h51q18 0 30 -24q2 -4 5 -6l206 -418q23 -45 -14 -45z" />
    <glyph glyph-name="underscore" unicode="_" horiz-adv-x="1337" 
d="M190 -229q-33 0 -32 30v17q0 31 32 30h959q33 0 33 -30v-17q0 -31 -33 -30h-959z" />
    <glyph glyph-name="grave" unicode="`" horiz-adv-x="638" 
d="M434 1323l-266 221q-25 18 -2 45l29 35q25 29 47 2l227 -256q18 -20 8 -37l-6 -10q-17 -18 -37 0z" />
    <glyph glyph-name="a" unicode="a" horiz-adv-x="1028" 
d="M520 72q127 0 200 82t73 285.5t-72 279.5t-189 76q-170 0 -249.5 -107.5t-79.5 -256t77.5 -254t239.5 -105.5zM864 852q25 0 25 -29v-794q0 -29 -25 -29h-35q-20 0 -26 31l-12 98q-23 -53 -88.5 -98t-186.5 -47q-201 -4 -309.5 124t-108.5 320.5t108.5 323.5t300.5 131
t271 -105l8 -10l13 51q8 33 28 33h37z" />
    <glyph glyph-name="b" unicode="b" horiz-adv-x="1017" 
d="M515 72q130 0 215 93t85 260t-76.5 268.5t-209 101.5t-214.5 -86t-82 -272.5t76 -275.5t206 -89zM535 883q188 0 286.5 -129t98.5 -326t-105.5 -320.5t-294 -123.5t-282.5 131l-13 -76q-10 -39 -30 -39h-31q-25 0 -25 29v1392q0 29 25 29h53q27 0 27 -29v-688
q103 150 291 150z" />
    <glyph glyph-name="c" unicode="c" horiz-adv-x="978" 
d="M536 -16q-189 0 -313.5 129t-124.5 320t124 320.5t317.5 129.5t310.5 -140q12 -18 -2 -38l-29 -29q-23 -20 -41 2q-100 117 -246.5 117t-237.5 -108.5t-91 -252t90 -253t240.5 -109.5t248.5 127q18 23 43 4l25 -27q20 -20 4 -39q-129 -153 -318 -153z" />
    <glyph glyph-name="d" unicode="d" horiz-adv-x="1019" 
d="M520.5 72q153.5 0 208.5 93t55 266t-55 268.5t-210 95.5t-235.5 -104.5t-80.5 -259.5t82 -257t235.5 -102zM856 1450q25 0 25 -29v-1392q0 -29 -25 -29h-29q-25 0 -32 39l-15 67q-88 -122 -274 -122t-297 124.5t-111 321.5t110 325t296 128t272 -123v661q0 29 25 29h55z
" />
    <glyph glyph-name="e" unicode="e" horiz-adv-x="999" 
d="M505 799q-130 0 -210 -87t-92 -223h592q-2 150 -81 230t-209 80zM515 883q183 0 284.5 -121t101.5 -328q0 -12 -9 -21.5t-22 -9.5h-665q10 -150 95 -241.5t237 -91.5q61 0 112 18t75 36.5t58 51.5q18 16 37 0l23 -29q18 -18 2 -34q-47 -55 -130 -92t-186 -37
q-193 0 -311.5 126t-118.5 324.5t117 323.5t300 125z" />
    <glyph glyph-name="f" unicode="f" horiz-adv-x="804" 
d="M508 1450q131 0 203 -53q27 -23 12 -41l-21 -31q-16 -29 -38 -10q-63 45 -151.5 45t-131.5 -58.5t-43 -191.5v-244h250q27 0 26 -26v-37q0 -27 -26 -27h-250v-747q0 -29 -27 -29h-53q-25 0 -25 29v747h-108q-27 0 -27 27v37q0 27 27 26h108v258q2 176 73 251t202 75z" />
    <glyph glyph-name="g" unicode="g" horiz-adv-x="1028" 
d="M523 72q159 0 215.5 89t56.5 266t-57.5 272.5t-216.5 95.5t-238.5 -104.5t-79.5 -259.5t80.5 -257t239.5 -102zM866 852q25 0 25 -29v-882q0 -170 -103.5 -265.5t-259 -95.5t-245.5 58.5t-127 142.5q-8 20 6 29l45 30q20 10 29 -10q76 -160 266 -160q139 0 214 76t72 209
l-2 158q-82 -129 -279.5 -129t-303 124.5t-105.5 319.5t107.5 325t307.5 130t275 -131l13 67q6 33 26 33h39z" />
    <glyph glyph-name="h" unicode="h" horiz-adv-x="995" 
d="M530 883q145 0 236.5 -85t91.5 -266v-505q0 -27 -29 -27h-49q-27 0 -26 27v485q0 283 -238 283q-123 0 -197.5 -66.5t-74.5 -134.5v-567q0 -27 -27 -27h-51q-27 0 -27 27v1396q0 27 27 27h51q27 0 27 -27v-671q29 51 108.5 91t177.5 40z" />
    <glyph glyph-name="i" unicode="i" horiz-adv-x="411" 
d="M180 0q-27 0 -26 27v813q0 27 26 26h51q27 0 27 -26v-813q0 -27 -27 -27h-51zM205 1106q-29 0 -47 18t-19 47t19 49t48 19q28 0 47 -19q19 -18 19 -48t-19 -48t-48 -18z" />
    <glyph glyph-name="j" unicode="j" horiz-adv-x="444" 
d="M25 -418q-180 0 -256 168q-14 29 4 37l47 18q25 8 33 -10q20 -39 31 -58t49 -42t102 -23q63 0 107 64t44 186v914q0 31 25 30h51q29 0 29 -30v-924q1 -168 -75 -249t-191 -81zM238 1104q-29 0 -49 19q-19 19 -19 48t19 49t49 19q30 0 48 -19q19 -18 19 -48t-19 -49
t-48 -19z" />
    <glyph glyph-name="k" unicode="k" horiz-adv-x="874" 
d="M776 0h-63q-27 0 -56 29l-413 432v-434q0 -27 -27 -27h-51q-27 0 -27 27v1396q0 27 27 27h51q27 0 27 -27v-901l372 314q33 31 50 30h65q18 0 21.5 -14t-11.5 -27l-391 -331l438 -459q10 -12 5 -23.5t-17 -11.5z" />
    <glyph glyph-name="l" unicode="l" horiz-adv-x="380" 
d="M166 0q-27 0 -27 27v1396q0 27 27 27h51q27 0 27 -27v-1396q0 -27 -27 -27h-51z" />
    <glyph glyph-name="m" unicode="m" horiz-adv-x="1509" 
d="M1061 883q311 0 311 -322v-534q0 -10 -9 -18.5t-20 -8.5h-49q-29 0 -28 27v503q0 264 -211 265q-115 0 -181.5 -65.5t-66.5 -145.5v-557q0 -27 -27 -27h-51q-27 0 -27 27v479q0 147 -48 218t-162 71t-181 -65.5t-67 -145.5v-557q0 -27 -27 -27h-51q-27 0 -27 27v796
q0 29 27 29h37q20 0 26 -35l13 -61q90 127 274 127t258 -148q90 148 287 148z" />
    <glyph glyph-name="n" unicode="n" horiz-adv-x="999" 
d="M547 883q313 0 313 -334v-522q0 -27 -26 -27h-52q-27 0 -26 27v497q0 143 -56 207t-172 64t-200 -61.5t-84 -147.5v-559q0 -27 -27 -27h-51q-27 0 -27 27v796q0 29 27 29h41q16 0 22 -35l15 -74q31 55 110.5 97.5t192.5 42.5z" />
    <glyph glyph-name="o" unicode="o" horiz-adv-x="1046" 
d="M525.5 72q149.5 0 235 107.5t85.5 251.5t-85 254t-236 110t-237.5 -110t-86.5 -254t87.5 -251.5t237 -107.5zM525.5 -16q-190.5 0 -310 129t-119.5 319.5t120 320.5t310 130t307 -130t117 -320.5t-117 -319.5t-307.5 -129z" />
    <glyph glyph-name="p" unicode="p" horiz-adv-x="1005" 
d="M513 72q138 0 215 95t77 265t-83 266.5t-215 96.5t-203 -99.5t-71 -263.5t71 -262t209 -98zM514.5 883q195.5 0 294 -129t98.5 -326t-99 -320.5t-292 -123.5t-272 149v-536q0 -29 -27 -29h-51q-27 0 -27 29v1226q0 29 27 29h27q25 0 32 -37l15 -84q79 152 274.5 152z" />
    <glyph glyph-name="q" unicode="q" horiz-adv-x="991" 
d="M483 72q273 0 273 361t-269 362q-143 0 -214.5 -110t-71.5 -255t70.5 -251.5t211.5 -106.5zM825 866q27 0 27 -26v-1243q0 -29 -27 -29h-51q-27 0 -26 29v538q-80 -151 -268 -151t-285 124.5t-97 323.5t97.5 325t281.5 126q92 0 163 -35t101 -96l21 84q10 31 35 30h28z
" />
    <glyph glyph-name="r" unicode="r" horiz-adv-x="679" 
d="M459 795q-100 0 -157.5 -80t-57.5 -174v-514q0 -27 -27 -27h-51q-27 0 -27 27v796q0 29 27 29h31q16 0 26 -35l13 -74q16 27 40.5 54.5t79 56.5t121.5 29t133 -37q16 -10 8 -29l-22 -43q-10 -18 -31 -8q-49 29 -106 29z" />
    <glyph glyph-name="s" unicode="s" horiz-adv-x="831" 
d="M424 -16q-205 0 -315 114q-16 23 -5 37l21 33q18 20 39 2q113 -100 252 -100q98 0 154.5 43t56.5 112t-46 105q-47 36 -189 74t-206 92t-63.5 156t81.5 166.5t219 64.5t239 -72q27 -14 16 -37l-25 -37q-12 -23 -32 -8q-101 68 -195 68t-146 -37q-52 -36 -51.5 -100
t41.5 -101q40 -37 182 -75t211.5 -94t69.5 -158t-87 -175t-222 -73z" />
    <glyph glyph-name="t" unicode="t" horiz-adv-x="727" 
d="M406 -12q-203 0 -203 250v538h-97q-27 0 -26 25v39q0 27 26 26h97v219q0 27 26 27h50q29 0 28 -27v-219h234q31 0 30 -26v-39q0 -25 -30 -25h-234v-543q0 -156 113 -155q92 0 147 74q18 18 33 2l27 -37q12 -18 -4 -35q-86 -94 -217 -94z" />
    <glyph glyph-name="u" unicode="u" horiz-adv-x="1003" 
d="M838 866q27 0 26 -26v-817q0 -23 -20 -23h-37q-23 0 -27 29l-16 88q-88 -133 -270 -133q-354 0 -355 346v510q0 27 27 26h51q27 0 27 -26v-496q0 -272 262 -272q121 0 187.5 68.5t66.5 152.5v547q0 27 26 26h52z" />
    <glyph glyph-name="v" unicode="v" horiz-adv-x="958" 
d="M858 866q16 0 22.5 -15t-1.5 -28l-363 -794q-12 -29 -24 -29h-23q-12 0 -25 29l-362 794q-8 12 -3 27.5t21 15.5h58q17 0 23 -17q1 -3 7 -13l291 -668l291 668q12 31 31 30h57z" />
    <glyph glyph-name="w" unicode="w" horiz-adv-x="1280" 
d="M1176 866q35 0 20 -43l-268 -803q-8 -20 -25 -20h-29q-16 0 -22 20l-213 674l-211 -676q-8 -18 -25 -18h-26q-20 0 -27 18l-268 805q-14 43 20 43h54q25 0 30 -20l207 -660l207 660q6 20 23 20h32q16 0 23 -20l209 -660l205 660q6 20 32 20h52z" />
    <glyph glyph-name="x" unicode="x" horiz-adv-x="868" 
d="M172 0h-49q-14 0 -20.5 14.5t6.5 32.5l270 383l-273 389q-12 18 -7 32.5t22 14.5h51q23 0 41 -30l221 -318l223 318q18 31 39 30h52q16 0 21 -15t-5 -32l-272 -389l270 -385q10 -12 7 -28.5t-24 -16.5h-49q-23 0 -41 29l-221 313l-221 -313q-20 -29 -41 -29z" />
    <glyph glyph-name="y" unicode="y" horiz-adv-x="1011" 
d="M911 866q14 0 20.5 -12t0.5 -31l-590 -1159q-8 -16 -25 -16h-55q-14 0 -18 12t4 31l205 409l-371 723q-8 12 -3 27.5t21 15.5h54q18 0 32 -30l320 -631l332 643q8 18 26 18h47z" />
    <glyph glyph-name="z" unicode="z" horiz-adv-x="804" 
d="M166 778q-31 0 -31 29v29q0 12 9.5 21t21.5 9h514q18 0 24.5 -15t-6.5 -34l-456 -729h415q12 0 21.5 -9t9.5 -22v-28q0 -29 -31 -29h-528q-16 0 -24.5 15.5t1.5 35.5l463 727h-403z" />
    <glyph glyph-name="braceleft" unicode="{" horiz-adv-x="741" 
d="M453 799q0 -119 -84 -140q84 -20 84 -161v-686q0 -32 18 -48t35 -16h55q23 0 23 -20v-58q0 -23 -23 -22h-86q-133 0 -133 164v671q0 53 -29 89t-63 36h-29q-23 0 -22 27v47q0 27 22 27h29q40 -1 66 25t26 79v692q0 164 133 164h86q23 0 23 -22v-58q0 -20 -23 -20h-57
q-51 0 -51 -64v-706z" />
    <glyph glyph-name="bar" unicode="|" horiz-adv-x="407" 
d="M193 -238q-31 0 -31 29v1843q0 35 31 35h22q31 0 31 -35v-1843q0 -29 -31 -29h-22z" />
    <glyph glyph-name="braceright" unicode="}" horiz-adv-x="741" 
d="M289 799v706q0 63 -51 64h-58q-23 0 -22 20v58q0 23 22 22h86q133 0 133 -164v-692q0 -53 27 -79t66 -25h28q23 0 23 -27v-47q0 -27 -23 -27h-28q-35 0 -64 -36t-29 -89v-671q0 -164 -133 -164h-86q-23 0 -22 22v58q0 20 22 20h56q16 0 34 15t19 49v686q0 141 84 161
q-84 21 -84 140z" />
    <glyph glyph-name="asciitilde" unicode="~" horiz-adv-x="1116" 
d="M729 618q-98 0 -189 48t-149 47q-58 0 -100 -24q-41 -24 -78 -62q-16 -14 -29 -4l-18 14q-10 10 -8 25q12 45 78 93t157 48h2q89 0 183 -47t136 -47t74 7t71 42q40 34 49 42t24 1l18 -17q14 -6 8 -24q-14 -47 -75 -93t-152 -49h-2z" />
    <glyph glyph-name="exclamdown" unicode="&#xa1;" horiz-adv-x="548" 
d="M260 555h29q27 0 26 -31l25 -1075q0 -31 -33 -31h-69q-29 0 -29 31l24 1075q0 31 27 31zM274 885q31 -1 53 -21q21 -20 21 -51t-22 -53t-52 -23q-30 0 -52 23q-22 24 -22 54t22 50q21 20 52 21z" />
    <glyph glyph-name="cent" unicode="&#xa2;" horiz-adv-x="962" 
d="M203 433q0 -126 71.5 -229.5t194.5 -125.5v710q-125 -27 -195.5 -128t-70.5 -227zM563 -127q0 -29 -31 -29h-32q-31 0 -31 29v115q-164 23 -267.5 147.5t-103.5 297.5t101.5 296t269.5 148v110q0 35 31 35h32q31 0 31 -35v-104q174 -6 287 -140q12 -18 -2 -38l-29 -29
q-23 -20 -41 2q-92 109 -215 117v-721q131 10 219 125q18 23 43 4l25 -27q20 -20 4 -39q-119 -141 -291 -153v-111z" />
    <glyph glyph-name="sterling" unicode="&#xa3;" horiz-adv-x="1138" 
d="M989 100q11 0 21 -9t10 -21v-39q0 -11 -9 -21t-22 -10h-794q-12 0 -22 9q-9 9 -9 22v32q0 11 9 21t22 10h2q41 2 69 77q29 75 29 169v330h-107q-12 0 -21 9t-9 21v39q0 11 9 21t21 10h107v225q0 207 71 321q80 134 304 134q188 0 315 -170q12 -18 -4 -39l-43 -20
q-27 -20 -41 4q-94 125 -233 125q-140 0 -198 -92t-58 -265v-223h346q12 0 21 -9t9 -22v-39q0 -12 -9 -21t-21 -9h-346v-332q0 -170 -62 -238h643z" />
    <glyph glyph-name="currency" unicode="&#xa4;" horiz-adv-x="1085" 
d="M256 713q0 -117 85 -203t202 -86t203 86t85 203q0 117 -86 203q-87 86 -203 85q-116 1 -201 -85t-85 -203zM546 334q-122 0 -216 67l-58 -67q-16 -20 -34 -4l-41 32q-16 14 0 37l59 70q-92 107 -92 241t86 240l-57 68q-16 20 2 39l32 28q18 16 37 -6l53 -63q99 76 223 76
t224 -72l51 63q7 11 19 13t22 -6l35 -31q20 -18 0 -43l-57 -64q88 -104 88 -240t-86 -235l61 -74q16 -18 0 -34l-41 -33q-18 -16 -37 6l-55 66q-96 -74 -218 -74z" />
    <glyph glyph-name="yen" unicode="&#xa5;" horiz-adv-x="1234" 
d="M1124 1434q12 0 20.5 -8.5t0.5 -20.5l-432 -727h157q29 0 29 -27v-28q0 -27 -29 -27h-192v-193h192q29 0 29 -26v-29q0 -27 -29 -26h-192v-297q0 -25 -25 -25h-59q-27 0 -27 25v297h-192q-27 0 -27 26v29q0 27 27 26h192v193h-192q-27 0 -27 27v28q0 27 27 27h157
l-428 727q-14 29 17 29h63q20 0 39 -29l400 -678l405 682q16 25 39 25h57z" />
    <glyph glyph-name="brokenbar" unicode="&#xa6;" horiz-adv-x="407" 
d="M193 -238q-31 0 -31 29v709q0 35 31 35h22q31 0 31 -35v-709q0 -29 -31 -29h-22zM193 897q-31 0 -31 29v708q0 35 31 35h22q31 0 31 -35v-708q0 -29 -31 -29h-22z" />
    <glyph glyph-name="section" unicode="&#xa7;" horiz-adv-x="1114" 
d="M852 598q0 103 -82 151t-231 85q-29 10 -66 20q-92 -20 -150 -82q-59 -62 -59 -158q0 -98 73 -147t175 -75t147 -40q77 18 135 80t58 166zM557 1450q90 0 164 -23q75 -23 101 -39t73 -53q18 -14 2 -37l-31 -36q-14 -18 -32 -5q-30 30 -101 63q-71 34 -192 34t-190 -54
t-68 -135q0 -164 301 -241q211 -53 294 -125q85 -78 85 -197q0 -84 -43 -170t-142 -125q164 -84 164 -241q0 -130 -96 -226t-313 -96t-371 156q-12 12 0 32l35 37q18 20 34 4q117 -131 316 -131q123 0 204 54t80 161q0 70 -45 116t-86 60q-40 13 -104 31t-76 23
q-188 47 -277 117t-89 178q0 110 50 196t154 121q-186 98 -186 260q0 115 91 203t294 88z" />
    <glyph glyph-name="dieresis" unicode="&#xa8;" horiz-adv-x="643" 
d="M487 1454q0 -22 -15 -36q-14 -14 -36 -15q-22 0 -38 14q-15 14 -15 36t15 36t37 14t37 -14q15 -13 15 -35zM209 1403q-23 0 -37 14t-14 36t14 36t37 14t37 -14q14 -13 14 -35t-14 -36t-37 -15z" />
    <glyph glyph-name="copyright" unicode="&#xa9;" horiz-adv-x="1777" 
d="M891 233q-187 1 -289 131t-102 352t102 353t289 131q139 0 221 -72t107 -190q6 -33 -17 -37l-39 -6q-29 -6 -37 29q-51 193 -237 192q-151 0 -221 -112t-70 -291q0 -180 78 -288t217 -108q109 1 169 63t79 136q6 23 28 19l43 -9q27 -6 15 -41q-72 -252 -336 -252zM890 70
q263 0 448 192t186 453q0 261 -186 455t-448 194q-264 0 -450 -195t-186 -455t186 -452q187 -192 450 -192zM890 -16q-304 0 -518 214t-214 518t215 519t518 215t517 -215t214 -519t-214 -518t-518 -214z" />
    <glyph glyph-name="ordfeminine" unicode="&#xaa;" horiz-adv-x="813" 
d="M240 434q0 10 9 18t19 9h312q27 0 26 -27v-35q0 -29 -26 -28h-312q-10 0 -19 8t-9 20v35zM411 1104q-97 0 -147 -50t-49 -129q-1 -79 51 -129t146 -51t140 49t46 130t-45 130t-142 50zM694 713q0 -27 -18 -27h-29q-12 0 -22 33l-11 55q-58 -106 -206 -106t-218 74
t-70 184t75 182q73 72 209 72t198 -82v53q0 199 -201 199q-94 0 -188 -56q-18 -8 -27 13l-12 43q-6 14 6 24q98 60 238 60t208 -72q66 -72 68 -227v-422z" />
    <glyph glyph-name="guillemotleft" unicode="&#xab;" horiz-adv-x="1036" 
d="M858 -16h-20q-27 0 -41 20l-267 371q-29 33 -28 51v14q0 18 28 52l267 370q14 20 41 21h20q37 0 12 -39l-247 -410l247 -411q25 -39 -12 -39zM514 -16h-20q-27 0 -41 20l-267 371q-29 33 -28 51v14q0 18 28 52l267 370q14 20 41 21h20q37 0 12 -39l-247 -410l247 -411
q25 -39 -12 -39z" />
    <glyph glyph-name="logicalnot" unicode="&#xac;" horiz-adv-x="1099" 
d="M838 668h-648q-33 0 -32 30v31q0 31 32 31h719q33 0 33 -31v-293q0 -33 -31 -33h-43q-31 0 -30 33v232z" />
    <glyph glyph-name="uni00AD" unicode="&#xad;" horiz-adv-x="784" 
d="M145 418q-27 0 -26 26v37q0 27 26 27h494q27 0 27 -27v-37q0 -27 -27 -26h-494z" />
    <glyph glyph-name="registered" unicode="&#xae;" horiz-adv-x="1777" 
d="M668 1100v-400h299q80 0 132 58t52 145q0 86 -52 141t-134 56h-297zM668 616v-346q0 -14 -17 -14h-63q-14 0 -15 14v899q0 16 15 17h407q119 0 186 -84t67 -182q-1 -210 -148 -277q80 -80 110 -167t29 -206q0 -14 -16 -14h-62q-16 0 -16 14q0 227 -154 346h-323zM890 70
q263 0 448 192t186 453q0 261 -186 455t-448 194q-264 0 -450 -195t-186 -455t186 -452q187 -192 450 -192zM891 1450q303 0 517 -215t214 -519t-214 -518t-518 -214t-518 214t-214 518t215 519t518 215z" />
    <glyph glyph-name="macron" unicode="&#xaf;" horiz-adv-x="747" 
d="M190 1393q-33 0 -32 30v25q0 31 32 31h369q33 0 33 -31v-25q0 -31 -33 -30h-369z" />
    <glyph glyph-name="degree" unicode="&#xb0;" horiz-adv-x="616" 
d="M308 1208q56 0 93 39t37 95t-37 96t-93 41q-56 0 -92 -39q-36 -38 -36 -96t36 -97t92 -39zM308 1552q86 0 148 -60t62 -148t-62 -148q-62 -61 -148 -61q-87 0 -147 61q-61 61 -61 148q0 88 60 148t148 60z" />
    <glyph glyph-name="plusminus" unicode="&#xb1;" horiz-adv-x="1116" 
d="M924 84q33 0 32 -31v-24q0 -31 -32 -31h-734q-33 0 -32 31v24q0 31 32 31h734zM924 748q33 0 32 -31v-31q0 -31 -32 -31h-318v-319q0 -33 -31 -33h-38q-31 0 -31 33v319h-316q-33 0 -32 31v31q0 31 32 31h316v319q0 33 31 33h38q31 0 31 -33v-319h318z" />
    <glyph glyph-name="uni00B2" unicode="&#xb2;" horiz-adv-x="784" 
d="M388 1602q270 0 269 -239q0 -112 -112 -247l-305 -346h422q20 0 20 -18v-50q0 -18 -20 -18h-539q-18 0 -19 18v33q0 11 8 21t169 192q160 182 168 191q117 131 116 229q0 150 -172 150q-106 0 -148 -48t-42 -104q0 -14 -15 -14h-61q-16 0 -16 20q0 94 66 162
q67 68 211 68z" />
    <glyph glyph-name="uni00B3" unicode="&#xb3;" horiz-adv-x="804" 
d="M401 1604q262 0 263 -236q0 -154 -105 -217q25 -7 49 -27t50 -71t26 -121q0 -113 -64 -188q-64 -74 -210 -74q-145 0 -217 68t-72 161q0 23 22 23h52q16 0 19 -22q14 -103 88 -130q38 -14 95 -14q195 0 195 174t-201 176h-57q-20 0 -21 18v47q0 18 21 19h53
q184 0 184 170q0 158 -176 158q-115 0 -147 -52t-35 -98q0 -14 -18 -14h-52q-23 0 -22 26q1 92 73 158t207 66z" />
    <glyph glyph-name="acute" unicode="&#xb4;" horiz-adv-x="638" 
d="M205 1323q-20 -18 -37 0l-6 10q-10 16 8 37l227 256q23 27 47 -2l29 -35q23 -27 -2 -45z" />
    <glyph glyph-name="uni00B5" unicode="&#xb5;" horiz-adv-x="1044" 
d="M911 0h-53q-23 0 -39 29l-45 69q-86 -114 -259 -114t-253 106v-493q0 -29 -26 -29h-54q-25 0 -24 29v1243q0 27 26 26h49q9 0 19 -8t10 -18v-486q0 -283 264 -282q119 0 184 58t64 173v537q0 27 27 26h51q27 0 27 -26v-650q2 -67 45 -153q18 -37 -13 -37z" />
    <glyph glyph-name="paragraph" unicode="&#xb6;" horiz-adv-x="978" 
d="M795 1434q29 0 28 -31v-1612q0 -29 -26 -29h-47q-27 0 -27 29v1552h-170v-1552q0 -29 -25 -29h-49q-10 0 -18 10t-8 19v858q-121 0 -210 111q-89 112 -89 282t89 281t210 111h342z" />
    <glyph glyph-name="periodcentered" unicode="&#xb7;" horiz-adv-x="456" 
d="M193 584q-33 0 -33 32v74q0 33 33 33h71q33 0 33 -33v-74q0 -33 -33 -32h-71z" />
    <glyph glyph-name="cedilla" unicode="&#xb8;" horiz-adv-x="595" 
d="M440 -240q0 -78 -42 -118t-101 -41t-93 25t-42 48t2 27l41 14q12 6 18 -6q18 -37 62 -37q78 0 77 82q0 49 -30 65q-31 15 -70 5l-29 -2l-47 18q-12 6 -10 21l66 155h73l-53 -125q66 19 122 -17t56 -114z" />
    <glyph glyph-name="uni00B9" unicode="&#xb9;" horiz-adv-x="628" 
d="M528 762q18 0 19 -19v-47q0 -18 -19 -18h-426q-20 0 -20 18v47q0 18 20 19h166v688l-135 -102q-10 -8 -20 -4t-11 16v57q0 14 19 25l158 131q8 6 22 6h41q18 0 18 -20v-797h168z" />
    <glyph glyph-name="ordmasculine" unicode="&#xba;" horiz-adv-x="866" 
d="M258 434q0 27 27 27h311q10 0 19 -8t10 -19v-35q1 -12 -9 -20t-20 -8h-311q-27 0 -27 28v35zM438 752q115 0 165 86t50 213t-50 212t-165 85t-170 -87t-55 -211t55 -211t170 -87zM437 666q-144 0 -230 99t-86 285t87 284q87 100 230 100q144 0 226 -98t82 -286
q0 -187 -82 -286q-83 -98 -227 -98z" />
    <glyph glyph-name="guillemotright" unicode="&#xbb;" horiz-adv-x="1017" 
d="M522 883h21q27 0 41 -21l266 -370q29 -33 29 -52v-14q0 -18 -29 -51l-266 -371q-14 -20 -41 -20h-21q-37 0 -12 39l248 411l-248 410q-25 39 12 39zM178 883h21q27 0 41 -21l266 -370q29 -33 29 -52v-14q0 -18 -29 -51l-266 -371q-14 -20 -41 -20h-21q-37 0 -12 39
l248 411l-248 410q-25 39 12 39z" />
    <glyph glyph-name="onequarter" unicode="&#xbc;" horiz-adv-x="1693" 
d="M1384 299v481l-317 -481h317zM1573 299q20 0 20 -18v-50q0 -18 -20 -18h-96v-193q0 -20 -19 -20h-53q-20 0 -21 20v193h-407q-18 0 -19 18v41q0 3 3 15l397 600q4 14 24 14h76q18 0 19 -18v-584h96zM483 0q-20 0 -24 14t4 31l694 1358q14 31 37 31h49q31 0 12 -37
l-698 -1366q-16 -31 -39 -31h-35zM528 616q18 0 19 -18v-47q0 -18 -19 -19h-426q-20 0 -20 19v47q0 18 20 18h166v689l-135 -103q-10 -8 -20 -4t-11 16v58q0 14 19 24l158 131q8 6 22 7h41q18 0 18 -21v-797h168z" />
    <glyph glyph-name="onehalf" unicode="&#xbd;" horiz-adv-x="1785" 
d="M1112 688q0 94 66 162t212 68q144 0 206 -64t62 -175q0 -112 -112 -247l-305 -346h422q20 0 20 -18v-50q0 -18 -20 -18h-539q-18 0 -18 18v33q0 11 8 21q72 86 336 383q117 131 117 229q0 150 -172 150q-107 0 -149 -48t-42 -104q0 -14 -14 -14h-62q-16 0 -16 20zM483 0
q-20 0 -24 14t4 31l694 1358q14 31 37 31h49q31 0 12 -37l-698 -1366q-16 -31 -39 -31h-35zM528 616q18 0 19 -18v-47q0 -18 -19 -19h-426q-20 0 -20 19v47q0 18 20 18h166v689l-135 -103q-10 -8 -20 -4t-11 16v58q0 14 19 24l158 131q8 6 22 7h41q18 0 18 -21v-797h168z
" />
    <glyph glyph-name="threequarters" unicode="&#xbe;" horiz-adv-x="1765" 
d="M1456 299v481l-317 -481h317zM1454 901h76q18 0 18 -18v-584h97q20 0 20 -18v-50q0 -18 -20 -18h-97v-193q0 -20 -18 -20h-53q-20 0 -21 20v193h-407q-18 0 -19 18v41l2 15l398 600q4 14 24 14zM563 0q-20 0 -24 14t4 31l694 1358q16 31 37 31h49q31 0 12 -37l-698 -1366
q-14 -31 -39 -31h-35zM401 1450q262 0 263 -236q0 -154 -105 -217q25 -8 49 -27q24 -18 50 -70t26 -122q0 -114 -64 -188t-210 -74q-145 0 -217 69t-72 160q0 23 22 23h52q16 0 19 -22q14 -103 88 -130q38 -14 95 -14q195 0 195 174t-201 176h-57q-20 0 -21 19v47
q0 18 21 18h53q184 0 184 170q0 158 -176 158q-116 0 -147 -51q-32 -51 -35 -99q0 -14 -18 -14h-52q-23 0 -22 27q1 91 73 157t207 66z" />
    <glyph glyph-name="questiondown" unicode="&#xbf;" horiz-adv-x="888" 
d="M543 -584q-215 0 -311 104t-95 249q-1 94 25 142t36 70q10 21 46 59q35 38 43 47t52 49q141 128 175 215q33 87 37 192q0 29 22 28h64q23 0 22 -36q0 -217 -157 -388q-14 -16 -84 -85q-70 -68 -92 -96t-51 -86q-28 -58 -27 -116q0 -112 79 -180t220 -67q86 1 147 29
t86 57t49 73q14 20 35 9l51 -15q20 -10 9 -39q-100 -215 -381 -215zM680 811q0 -31 -22 -53t-54 -23q-32 0 -52 23q-22 24 -22 54t22 50t53 21q31 -1 53 -21t22 -51z" />
    <glyph glyph-name="Agrave" unicode="&#xc0;" horiz-adv-x="1355" 
d="M371 434h614l-297 750l-14 41zM684 1450q8 0 18 -25l555 -1398q10 -27 -20 -27h-66q-16 0 -26 27l-121 307h-694l-117 -307q-10 -27 -29 -27h-63q-31 0 -21 27l547 1398q8 25 17 25h20zM831 1606l-315 125q-27 14 -16 43l14 30q16 31 43 15l297 -160q25 -14 12 -33
l-4 -12q-8 -16 -31 -8z" />
    <glyph glyph-name="Aacute" unicode="&#xc1;" horiz-adv-x="1355" 
d="M371 434h614l-297 750l-14 41zM684 1450q8 0 18 -25l555 -1398q10 -27 -20 -27h-66q-16 0 -26 27l-121 307h-694l-117 -307q-10 -27 -29 -27h-63q-31 0 -21 27l547 1398q8 25 17 25h20zM524 1604q-23 -8 -30 8l-5 12q-12 18 13 33l297 160q27 16 43 -15l14 -30
q10 -29 -16 -43z" />
    <glyph glyph-name="Acircumflex" unicode="&#xc2;" horiz-adv-x="1355" 
d="M371 434h614l-297 750l-14 41zM684 1450q8 0 18 -25l555 -1398q10 -27 -20 -27h-66q-16 0 -26 27l-121 307h-694l-117 -307q-10 -27 -29 -27h-63q-31 0 -21 27l547 1398q8 25 17 25h20zM465 1642v15q0 20 20 41l138 168q23 25 47 24h8q27 0 49 -24l139 -168
q20 -25 21 -41v-15q0 -14 -10.5 -19t-28.5 9l-174 176l-170 -176q-18 -14 -28.5 -9t-10.5 19z" />
    <glyph glyph-name="Atilde" unicode="&#xc3;" horiz-adv-x="1355" 
d="M371 434h614l-297 750l-14 41zM684 1450q8 0 18 -25l555 -1398q10 -27 -20 -27h-66q-16 0 -26 27l-121 307h-694l-117 -307q-10 -27 -29 -27h-63q-31 0 -21 27l547 1398q8 25 17 25h20zM549 1726q-78 0 -113 -81q-10 -16 -28 -5l-19 11q-16 6 -8 24q47 133 170 133
q74 0 149.5 -50t102.5 -50q72 0 110 84q10 16 29 4l19 -10q16 -6 8 -25q-49 -133 -168 -133q-63 2 -138 50t-114 48z" />
    <glyph glyph-name="Adieresis" unicode="&#xc4;" horiz-adv-x="1355" 
d="M371 434h614l-297 750l-14 41zM684 1450q8 0 18 -25l555 -1398q10 -27 -20 -27h-66q-16 0 -26 27l-121 307h-694l-117 -307q-10 -27 -29 -27h-63q-31 0 -21 27l547 1398q8 25 17 25h20zM783.5 1675q-21.5 0 -37 14.5t-15.5 36t15.5 36t37 14.5t37 -14.5t15.5 -36
t-15.5 -36t-37 -14.5zM557.5 1675q-22.5 0 -37 14.5t-14.5 36t14.5 36t37 14.5t36.5 -14.5t14 -36t-14 -36t-36.5 -14.5z" />
    <glyph glyph-name="Aring" unicode="&#xc5;" horiz-adv-x="1355" 
d="M371 434h614l-297 750l-14 41zM684 1450q8 0 18 -25l555 -1398q10 -27 -20 -27h-66q-16 0 -26 27l-121 307h-694l-117 -307q-10 -27 -29 -27h-63q-31 0 -21 27l547 1398q8 25 17 25h20zM675 1686q26 0 44 18t18 49t-18.5 49.5t-44 18.5t-43 -18.5t-17.5 -49.5t17.5 -49
t43.5 -18zM673.5 1620q-55.5 0 -93 36t-37.5 97.5t37.5 97t93 35.5t94.5 -35.5t39 -97t-39 -97.5t-94.5 -36z" />
    <glyph glyph-name="AE" unicode="&#xc6;" horiz-adv-x="2004" 
d="M1075 430v821l-577 -821h577zM1862 1333h-676v-565h469q27 0 26 -25v-51q0 -25 -26 -24h-469v-568h674q27 0 26 -26v-47q0 -27 -26 -27h-758q-27 0 -27 27v303h-643l-215 -303q-20 -27 -35 -27h-73q-12 0 -17.5 7t0.5 20l967 1386q12 20 31 21h772q25 0 24 -27v-47
q1 -27 -24 -27z" />
    <glyph glyph-name="Ccedilla" unicode="&#xc7;" horiz-adv-x="1470" 
d="M823 -16h-2l-35 -84q66 20 122.5 -17t56.5 -115t-42 -118.5t-101.5 -40.5t-93.5 25.5t-42 48t2 26.5l41 15q12 6 19 -7q18 -37 61 -36q78 0 78 81q0 49 -31 64.5t-70 5.5l-28 -2l-47 18q-12 6 -11 21l50 119q-276 27 -453.5 236.5t-177.5 502.5t200.5 508t519 215
t492.5 -229q14 -20 0 -41l-39 -37q-23 -23 -41 2q-63 88 -171.5 146.5t-256.5 58.5q-258 0 -425 -186.5t-167 -446.5t167 -446.5t425 -186.5q143 0 260 64.5t179 158.5q14 20 38 6l43 -39q23 -16 0 -38q-197 -252 -520 -252z" />
    <glyph glyph-name="Egrave" unicode="&#xc8;" horiz-adv-x="1093" 
d="M946 100q27 0 27 -26v-47q0 -27 -27 -27h-758q-27 0 -26 27v1380q0 27 26 27h760q25 0 25 -27v-47q0 -27 -25 -27h-676v-565h469q27 0 27 -25v-51q0 -25 -27 -24h-469v-568h674zM705 1606l-316 125q-27 14 -16 43l14 30q16 31 43 15l297 -160q25 -14 12 -33l-4 -12
q-7 -16 -30 -8z" />
    <glyph glyph-name="Eacute" unicode="&#xc9;" horiz-adv-x="1093" 
d="M946 100q27 0 27 -26v-47q0 -27 -27 -27h-758q-27 0 -26 27v1380q0 27 26 27h760q25 0 25 -27v-47q0 -27 -25 -27h-676v-565h469q27 0 27 -25v-51q0 -25 -27 -24h-469v-568h674zM397 1604q-23 -8 -30 8l-5 12q-12 18 13 33l297 160q27 16 43 -15l14 -30q10 -29 -16 -43z
" />
    <glyph glyph-name="Ecircumflex" unicode="&#xca;" horiz-adv-x="1093" 
d="M946 100q27 0 27 -26v-47q0 -27 -27 -27h-758q-27 0 -26 27v1380q0 27 26 27h760q25 0 25 -27v-47q0 -27 -25 -27h-676v-565h469q27 0 27 -25v-51q0 -25 -27 -24h-469v-568h674zM338 1642v15q0 20 20 41l138 168q23 25 47 24h8q27 0 49 -24l139 -168q20 -25 21 -41v-15
q0 -14 -10.5 -19t-28.5 9l-174 176l-170 -176q-18 -14 -28.5 -9t-10.5 19z" />
    <glyph glyph-name="Edieresis" unicode="&#xcb;" horiz-adv-x="1093" 
d="M946 100q27 0 27 -26v-47q0 -27 -27 -27h-758q-27 0 -26 27v1380q0 27 26 27h760q25 0 25 -27v-47q0 -27 -25 -27h-676v-565h469q27 0 27 -25v-51q0 -25 -27 -24h-469v-568h674zM656.5 1675q-21.5 0 -37 14.5t-15.5 36t15.5 36t37 14.5t37 -14.5t15.5 -36t-15.5 -36
t-37 -14.5zM430.5 1675q-22.5 0 -37 14.5t-14.5 36t14.5 36t37 14.5t36.5 -14.5t14 -36t-14 -36t-36.5 -14.5z" />
    <glyph glyph-name="Igrave" unicode="&#xcc;" horiz-adv-x="434" 
d="M184 0q-23 0 -22 27v1380q0 27 22 27h66q23 0 22 -27v-1380q0 -27 -22 -27h-66zM377 1606l-316 125q-27 14 -16 43l14 30q16 31 43 15l297 -160q25 -14 13 -33l-4 -12q-8 -16 -31 -8z" />
    <glyph glyph-name="Iacute" unicode="&#xcd;" horiz-adv-x="434" 
d="M184 0q-23 0 -22 27v1380q0 27 22 27h66q23 0 22 -27v-1380q0 -27 -22 -27h-66zM70 1604q-23 -8 -31 8l-4 12q-12 18 12 33l297 160q27 16 43 -15l14 -30q10 -29 -16 -43z" />
    <glyph glyph-name="Icircumflex" unicode="&#xce;" horiz-adv-x="434" 
d="M184 0q-23 0 -22 27v1380q0 27 22 27h66q23 0 22 -27v-1380q0 -27 -22 -27h-66zM10 1642v15q0 20 21 41l137 168q23 25 47 24h8q27 0 49 -24l140 -168q20 -25 20 -41v-15q0 -14 -10.5 -19t-28.5 9l-174 176l-170 -176q-18 -14 -28.5 -9t-10.5 19z" />
    <glyph glyph-name="Idieresis" unicode="&#xcf;" horiz-adv-x="434" 
d="M184 0q-23 0 -22 27v1380q0 27 22 27h66q23 0 22 -27v-1380q0 -27 -22 -27h-66zM329.5 1675q-21.5 0 -37.5 14.5t-16 36t15.5 36t37.5 14.5t37 -14.5t15 -36t-15 -36t-36.5 -14.5zM102.5 1675q-22.5 0 -37 14.5t-14.5 36t14.5 36t37 14.5t37 -14.5t14.5 -36t-14.5 -36
t-37 -14.5z" />
    <glyph glyph-name="Eth" unicode="&#xd0;" horiz-adv-x="1323" 
d="M596 100q494 0 494 616t-494 617h-324v-571h416q33 0 33 -31v-33q0 -31 -33 -30h-416v-568h324zM614 1434q291 0 440.5 -185.5t149.5 -532.5t-151.5 -531.5t-446.5 -184.5h-418q-27 0 -26 27v641h-37q-33 0 -33 30v33q0 31 33 31h37v645q0 27 26 27h426z" />
    <glyph glyph-name="Ntilde" unicode="&#xd1;" horiz-adv-x="1392" 
d="M1208 1434q23 0 23 -27v-1382q0 -25 -23 -25h-49q-18 0 -37 25l-850 1189v-1189q0 -25 -22 -25h-66q-23 0 -22 25v1382q0 27 24 27h47q18 0 39 -31l848 -1186v1190q0 27 23 27h65zM569 1726q-78 0 -112 -81q-10 -16 -29 -5l-18 11q-16 6 -9 24q47 133 170 133
q74 0 150 -50t102 -50q72 0 111 84q10 16 29 4l18 -10q16 -6 8 -25q-49 -133 -168 -133q-63 2 -138 50t-114 48z" />
    <glyph glyph-name="Ograve" unicode="&#xd2;" horiz-adv-x="1642" 
d="M820 84q261 0 426 188.5t165 442.5t-165 444.5t-425 190.5t-425 -189.5t-165 -445.5t164 -443.5t425 -187.5zM822 -16q-300 0 -501.5 213t-201.5 519t201.5 520t501.5 214t501 -214t201 -520t-201 -519t-501 -213zM981 1606l-315 125q-27 14 -17 43l15 30q16 31 43 15
l297 -160q25 -14 12 -33l-4 -12q-8 -16 -31 -8z" />
    <glyph glyph-name="Oacute" unicode="&#xd3;" horiz-adv-x="1642" 
d="M820 84q261 0 426 188.5t165 442.5t-165 444.5t-425 190.5t-425 -189.5t-165 -445.5t164 -443.5t425 -187.5zM822 -16q-300 0 -501.5 213t-201.5 519t201.5 520t501.5 214t501 -214t201 -520t-201 -519t-501 -213zM674 1604q-23 -8 -31 8l-4 12q-12 18 12 33l297 160
q27 16 43 -15l15 -30q10 -29 -17 -43z" />
    <glyph glyph-name="Ocircumflex" unicode="&#xd4;" horiz-adv-x="1642" 
d="M820 84q261 0 426 188.5t165 442.5t-165 444.5t-425 190.5t-425 -189.5t-165 -445.5t164 -443.5t425 -187.5zM822 -16q-300 0 -501.5 213t-201.5 519t201.5 520t501.5 214t501 -214t201 -520t-201 -519t-501 -213zM614 1642v15q0 20 21 41l137 168q23 25 47 24h8
q27 0 50 -24l139 -168q20 -25 20 -41v-15q0 -14 -10.5 -19t-28.5 9l-174 176l-170 -176q-18 -14 -28.5 -9t-10.5 19z" />
    <glyph glyph-name="Otilde" unicode="&#xd5;" horiz-adv-x="1642" 
d="M820 84q261 0 426 188.5t165 442.5t-165 444.5t-425 190.5t-425 -189.5t-165 -445.5t164 -443.5t425 -187.5zM822 -16q-300 0 -501.5 213t-201.5 519t201.5 520t501.5 214t501 -214t201 -520t-201 -519t-501 -213zM698 1726q-78 0 -112 -81q-10 -16 -29 -5l-18 11
q-16 6 -9 24q47 133 170 133q74 0 150 -50t102 -50q72 0 111 84q10 16 29 4l18 -10q16 -6 8 -25q-49 -133 -168 -133q-63 2 -138 50t-114 48z" />
    <glyph glyph-name="Odieresis" unicode="&#xd6;" horiz-adv-x="1642" 
d="M820 84q261 0 426 188.5t165 442.5t-165 444.5t-425 190.5t-425 -189.5t-165 -445.5t164 -443.5t425 -187.5zM822 -16q-300 0 -501.5 213t-201.5 519t201.5 520t501.5 214t501 -214t201 -520t-201 -519t-501 -213zM933.5 1675q-21.5 0 -37 14.5t-15.5 36t15 36t37 14.5
t37 -14.5t15 -36t-15 -36t-36.5 -14.5zM706.5 1675q-22.5 0 -37 14.5t-14.5 36t14.5 36t37 14.5t37 -14.5t14.5 -36t-14.5 -36t-37 -14.5z" />
    <glyph glyph-name="multiply" unicode="&#xd7;" horiz-adv-x="935" 
d="M532 692l236 -235q25 -25 2 -47l-18 -17q-23 -25 -45 -2l-240 238l-236 -236q-23 -25 -45 -2l-18 19q-23 23 2 47l236 235l-236 236q-25 25 -2 47l16 18q23 23 45 2l240 -239l236 235q25 25 45 4l20 -20q20 -20 -2 -47z" />
    <glyph glyph-name="Oslash" unicode="&#xd8;" horiz-adv-x="1642" 
d="M821 84q260 0 425 188.5t165 442.5q0 158 -69.5 301t-192.5 231l-569 -1112q112 -51 241 -51zM231 715q0 -162 70 -303.5t193 -227.5l569 1112q-111 53 -242 54q-260 0 -425 -189.5t-165 -445.5zM1524 715q0 -305 -201 -518t-500 -213q-154 0 -288 61l-17 -31
q-14 -31 -39 -30h-45q-20 0 -24 14t4 31l32 63q-152 98 -239.5 263t-87.5 360q0 307 201.5 521t502.5 214q152 0 287 -61l16 30q16 31 37 31h60q31 0 12 -37l-37 -72q152 -100 239 -265t87 -361z" />
    <glyph glyph-name="Ugrave" unicode="&#xd9;" horiz-adv-x="1394" 
d="M1212 1434q25 0 25 -29v-858q0 -260 -141.5 -411.5t-398.5 -151.5t-398 151.5t-141 411.5v858q0 29 26 29h58q27 0 26 -29v-834q0 -236 114 -361.5t314.5 -125.5t315 126t114.5 361v834q0 29 25 29h61zM854 1606l-315 125q-27 14 -17 43l15 30q16 31 43 15l297 -160
q25 -14 12 -33l-4 -12q-8 -16 -31 -8z" />
    <glyph glyph-name="Uacute" unicode="&#xda;" horiz-adv-x="1394" 
d="M1212 1434q25 0 25 -29v-858q0 -260 -141.5 -411.5t-398.5 -151.5t-398 151.5t-141 411.5v858q0 29 26 29h58q27 0 26 -29v-834q0 -236 114 -361.5t314.5 -125.5t315 126t114.5 361v834q0 29 25 29h61zM547 1604q-23 -8 -31 8l-4 12q-12 18 12 33l297 160q27 16 43 -15
l15 -30q10 -29 -17 -43z" />
    <glyph glyph-name="Ucircumflex" unicode="&#xdb;" horiz-adv-x="1394" 
d="M1212 1434q25 0 25 -29v-858q0 -260 -141.5 -411.5t-398.5 -151.5t-398 151.5t-141 411.5v858q0 29 26 29h58q27 0 26 -29v-834q0 -236 114 -361.5t314.5 -125.5t315 126t114.5 361v834q0 29 25 29h61zM487 1642v15q0 20 21 41l137 168q23 25 47 24h8q27 0 50 -24
l139 -168q20 -25 20 -41v-15q0 -14 -10.5 -19t-28.5 9l-174 176l-170 -176q-18 -14 -28.5 -9t-10.5 19z" />
    <glyph glyph-name="Udieresis" unicode="&#xdc;" horiz-adv-x="1394" 
d="M1212 1434q25 0 25 -29v-858q0 -260 -141.5 -411.5t-398.5 -151.5t-398 151.5t-141 411.5v858q0 29 26 29h58q27 0 26 -29v-834q0 -236 114 -361.5t314.5 -125.5t315 126t114.5 361v834q0 29 25 29h61zM806.5 1675q-21.5 0 -37 14.5t-15.5 36t15 36t37 14.5t37 -14.5
t15 -36t-15 -36t-36.5 -14.5zM579.5 1675q-22.5 0 -37 14.5t-14.5 36t14.5 36t37 14.5t37 -14.5t14.5 -36t-14.5 -36t-37 -14.5z" />
    <glyph glyph-name="Yacute" unicode="&#xdd;" horiz-adv-x="1241" 
d="M1120 1434q12 0 20.5 -8.5t0.5 -20.5l-467 -784v-596q0 -25 -25 -25h-59q-27 0 -27 25v596l-463 784q-14 29 17 29h63q20 0 39 -29l399 -678l406 682q16 25 39 25h57zM471 1604q-23 -8 -31 8l-4 12q-12 18 13 33l296 160q27 16 43 -15l15 -30q10 -29 -17 -43z" />
    <glyph glyph-name="Thorn" unicode="&#xde;" horiz-adv-x="1179" 
d="M678 418q124 0 196 86t72 233q0 324 -272 324h-402v-643h406zM698 1161q160 1 262 -111t101 -312t-107 -310t-268 -113h-414v-290q0 -25 -24 -25h-62q-25 0 -24 25v1384q0 25 24 25h62q25 0 24 -25v-248h426z" />
    <glyph glyph-name="germandbls" unicode="&#xdf;" horiz-adv-x="933" 
d="M158 1038q0 412 332 412q166 0 232 -67t66 -182t-88 -193q-37 -33 -72 -63q-87 -72 -87 -144q0 -71 106 -168q45 -41 89 -88q106 -113 106 -254t-80 -224t-205 -83t-190 57q-25 18 -15 41l15 33q14 25 34 12q76 -55 154 -55t129 60t51 140q0 133 -108 238q-45 43 -89 84
q-108 101 -108 202q0 102 88 183q37 33 74 63q88 73 88 148q0 168 -200 168q-218 0 -218 -328v-1003q0 -27 -29 -27h-49q-27 0 -26 27v1011z" />
    <glyph glyph-name="agrave" unicode="&#xe0;" horiz-adv-x="1028" 
d="M520 72q127 0 200 82t73 285.5t-72 279.5t-189 76q-170 0 -249.5 -107.5t-79.5 -256t77.5 -254t239.5 -105.5zM864 852q25 0 25 -29v-794q0 -29 -25 -29h-35q-20 0 -26 31l-12 98q-23 -53 -88.5 -98t-186.5 -47q-201 -4 -309.5 124t-108.5 320.5t108.5 323.5t300.5 131
t271 -105l8 -10l13 51q8 33 28 33h37zM621 1028l-267 221q-25 18 -2 45l29 35q25 29 47 2l227 -256q20 -22 2 -47q-16 -18 -36 0z" />
    <glyph glyph-name="aacute" unicode="&#xe1;" horiz-adv-x="1028" 
d="M520 72q127 0 200 82t73 285.5t-72 279.5t-189 76q-170 0 -249.5 -107.5t-79.5 -256t77.5 -254t239.5 -105.5zM864 852q25 0 25 -29v-794q0 -29 -25 -29h-35q-20 0 -26 31l-12 98q-23 -53 -88.5 -98t-186.5 -47q-201 -4 -309.5 124t-108.5 320.5t108.5 323.5t300.5 131
t271 -105l8 -10l13 51q8 33 28 33h37zM412 1028q-20 -18 -37 0l-6 10q-10 16 8 37l227 256q23 27 47 -2l29 -35q23 -27 -2 -45z" />
    <glyph glyph-name="acircumflex" unicode="&#xe2;" horiz-adv-x="1028" 
d="M520 72q127 0 200 82t73 285.5t-72 279.5t-189 76q-170 0 -249.5 -107.5t-79.5 -256t77.5 -254t239.5 -105.5zM864 852q25 0 25 -29v-794q0 -29 -25 -29h-35q-20 0 -26 31l-12 98q-23 -53 -88.5 -98t-186.5 -47q-201 -4 -309.5 124t-108.5 320.5t108.5 323.5t300.5 131
t271 -105l8 -10l13 51q8 33 28 33h37zM319 1075v15q0 20 21 40l137 168q23 25 47 25h8q27 0 50 -25l139 -168q20 -25 20 -40v-15q0 -14 -10.5 -19t-28.5 9l-174 176l-170 -176q-18 -14 -28.5 -9t-10.5 19z" />
    <glyph glyph-name="atilde" unicode="&#xe3;" horiz-adv-x="1028" 
d="M520 72q127 0 200 82t73 285.5t-72 279.5t-189 76q-170 0 -249.5 -107.5t-79.5 -256t77.5 -254t239.5 -105.5zM864 852q25 0 25 -29v-794q0 -29 -25 -29h-35q-20 0 -26 31l-12 98q-23 -53 -88.5 -98t-186.5 -47q-201 -4 -309.5 124t-108.5 320.5t108.5 323.5t300.5 131
t271 -105l8 -10l13 51q8 33 28 33h37zM403 1159q-78 0 -112 -82q-10 -16 -29 -4l-18 10q-16 6 -8 25q47 133 170 133q74 0 149.5 -50t101.5 -50q72 0 111 84q10 16 29 4l18 -10q16 -6 8 -25q-49 -133 -168 -133q-63 2 -138 50t-114 48z" />
    <glyph glyph-name="adieresis" unicode="&#xe4;" horiz-adv-x="1028" 
d="M520 72q127 0 200 82t73 285.5t-72 279.5t-189 76q-170 0 -249.5 -107.5t-79.5 -256t77.5 -254t239.5 -105.5zM864 852q25 0 25 -29v-794q0 -29 -25 -29h-35q-20 0 -26 31l-12 98q-23 -53 -88.5 -98t-186.5 -47q-201 -4 -309.5 124t-108.5 320.5t108.5 323.5t300.5 131
t271 -105l8 -10l13 51q8 33 28 33h37zM638.5 1108q-21.5 0 -37 14.5t-15.5 36t15 35.5t37 14t37 -14t15 -35.5t-15 -36t-36.5 -14.5zM411.5 1108q-22.5 0 -37 14.5t-14.5 36t14.5 35.5t37 14t37 -14t14.5 -35.5t-14.5 -36t-37 -14.5z" />
    <glyph glyph-name="aring" unicode="&#xe5;" horiz-adv-x="1028" 
d="M520 72q127 0 200 82t73 285.5t-72 279.5t-189 76q-170 0 -249.5 -107.5t-79.5 -256t77.5 -254t239.5 -105.5zM864 852q25 0 25 -29v-794q0 -29 -25 -29h-35q-20 0 -26 31l-12 98q-23 -53 -88.5 -98t-186.5 -47q-201 -4 -309.5 124t-108.5 320.5t108.5 323.5t300.5 131
t271 -105l8 -10l13 51q8 33 28 33h37zM529 1118q26 0 44.5 18.5t18.5 49.5t-18.5 49t-44.5 18t-43 -18t-17 -49t17 -49.5t43 -18.5zM528.5 1053q-55.5 0 -93.5 35.5t-38 97t38 97.5t93.5 36t94.5 -36t39 -97.5t-39 -97t-94.5 -35.5z" />
    <glyph glyph-name="ae" unicode="&#xe6;" horiz-adv-x="1558" 
d="M400 66q160 0 212 84q42 66 41.5 146.5t-62 133.5t-165.5 53t-163.5 -54t-59.5 -145t55.5 -154.5t141.5 -63.5zM1064 799q-130 0 -210 -87.5t-92 -222.5h592q-2 150 -81 230t-209 80zM653 551q-1 244 -219 244q-110 0 -225 -68q-20 -8 -31 10l-14 43q-6 16 10 27
q102 76 243.5 76t214.5 -44t101 -132q117 176 344 176q180 0 281.5 -121t101.5 -328q0 -12 -9 -21.5t-21 -9.5h-666q10 -150 95 -241.5t237 -91.5q61 0 112.5 18t75 36.5t57.5 51.5q18 16 37 0l23 -29q18 -18 2 -34q-47 -55 -130 -92t-186 -37q-244 0 -362 192
q-35 -92 -122 -142t-220.5 -50t-209 88t-75.5 212t82 201.5t239.5 77.5t233.5 -92v80z" />
    <glyph glyph-name="ccedilla" unicode="&#xe7;" horiz-adv-x="978" 
d="M672 -232q0 -78 -42 -118.5t-101.5 -40.5t-93.5 25.5t-42 48t2 26.5l41 15q14 6 19 -7q18 -37 61 -36q78 0 78 81q0 49 -31 64.5t-69 5.5l-29 -2l-47 18q-12 6 -10 21l51 121q-160 27 -260.5 150.5t-100.5 303.5t124 309.5t317.5 129.5t310.5 -140q12 -18 -2 -38l-29 -29
q-23 -20 -41 2q-100 117 -246.5 117t-237.5 -108.5t-91 -252t90 -253t240.5 -109.5t248.5 127q18 23 43 4l25 -27q20 -20 4 -39q-129 -154 -319 -153h-7l-34 -84q66 20 122 -17t56 -115z" />
    <glyph glyph-name="egrave" unicode="&#xe8;" horiz-adv-x="999" 
d="M505 799q-130 0 -210 -87t-92 -223h592q-2 150 -81 230t-209 80zM515 883q183 0 284.5 -121t101.5 -328q0 -12 -9 -21.5t-22 -9.5h-665q10 -150 95 -241.5t237 -91.5q61 0 112 18t75 36.5t58 51.5q18 16 37 0l23 -29q18 -18 2 -34q-47 -55 -130 -92t-186 -37
q-193 0 -311.5 126t-118.5 324.5t117 323.5t300 125zM608 1028l-266 221q-25 18 -2 45l29 35q25 29 47 2l227 -256q18 -20 8 -37l-6 -10q-17 -18 -37 0z" />
    <glyph glyph-name="eacute" unicode="&#xe9;" horiz-adv-x="999" 
d="M505 799q-130 0 -210 -87t-92 -223h592q-2 150 -81 230t-209 80zM515 883q183 0 284.5 -121t101.5 -328q0 -12 -9 -21.5t-22 -9.5h-665q10 -150 95 -241.5t237 -91.5q61 0 112 18t75 36.5t58 51.5q18 16 37 0l23 -29q18 -18 2 -34q-47 -55 -130 -92t-186 -37
q-193 0 -311.5 126t-118.5 324.5t117 323.5t300 125zM399 1028q-20 -18 -37 0l-6 10q-10 16 9 37l227 256q23 27 47 -2l29 -35q23 -27 -2 -45z" />
    <glyph glyph-name="ecircumflex" unicode="&#xea;" horiz-adv-x="999" 
d="M505 799q-130 0 -210 -87t-92 -223h592q-2 150 -81 230t-209 80zM515 883q183 0 284.5 -121t101.5 -328q0 -12 -9 -21.5t-22 -9.5h-665q10 -150 95 -241.5t237 -91.5q61 0 112 18t75 36.5t58 51.5q18 16 37 0l23 -29q18 -18 2 -34q-47 -55 -130 -92t-186 -37
q-193 0 -311.5 126t-118.5 324.5t117 323.5t300 125zM307 1075v15q0 20 21 40l137 168q23 25 47 25h8q27 0 49 -25l140 -168q20 -25 20 -40v-15q0 -14 -10.5 -19t-28.5 9l-174 176l-170 -176q-18 -14 -28.5 -9t-10.5 19z" />
    <glyph glyph-name="edieresis" unicode="&#xeb;" horiz-adv-x="999" 
d="M505 799q-130 0 -210 -87t-92 -223h592q-2 150 -81 230t-209 80zM515 883q183 0 284.5 -121t101.5 -328q0 -12 -9 -21.5t-22 -9.5h-665q10 -150 95 -241.5t237 -91.5q61 0 112 18t75 36.5t58 51.5q18 16 37 0l23 -29q18 -18 2 -34q-47 -55 -130 -92t-186 -37
q-193 0 -311.5 126t-118.5 324.5t117 323.5t300 125zM626.5 1108q-21.5 0 -37.5 14.5t-16 36t15.5 35.5t37.5 14t37 -14t15 -35.5t-15 -36t-36.5 -14.5zM399.5 1108q-22.5 0 -37 14.5t-14.5 36t14.5 35.5t37 14t37 -14t14.5 -35.5t-14.5 -36t-37 -14.5z" />
    <glyph glyph-name="igrave" unicode="&#xec;" horiz-adv-x="417" 
d="M184 0q-27 0 -26 27v813q0 27 26 26h49q29 0 29 -26v-813q0 -27 -29 -27h-49zM301 1040l-266 222q-25 18 -2 45l28 34q25 29 48 2l227 -256q18 -20 8 -36l-6 -11q-17 -18 -37 0z" />
    <glyph glyph-name="iacute" unicode="&#xed;" horiz-adv-x="417" 
d="M184 0q-27 0 -26 27v813q0 27 26 26h49q29 0 29 -26v-813q0 -27 -29 -27h-49zM92 1040q-20 -18 -37 0l-6 11q-10 16 8 36l228 256q23 27 47 -2l28 -34q23 -27 -2 -45z" />
    <glyph glyph-name="icircumflex" unicode="&#xee;" horiz-adv-x="417" 
d="M184 0q-27 0 -26 27v813q0 27 26 26h49q29 0 29 -26v-813q0 -27 -29 -27h-49zM0 1087v15q0 20 20 41l138 168q23 25 47 24h8q27 0 49 -24l139 -168q20 -25 21 -41v-15q0 -14 -10.5 -19t-28.5 9l-174 176l-170 -176q-18 -14 -28.5 -9t-10.5 19z" />
    <glyph glyph-name="idieresis" unicode="&#xef;" horiz-adv-x="417" 
d="M184 0q-27 0 -26 27v813q0 27 26 26h49q29 0 29 -26v-813q0 -27 -29 -27h-49zM318.5 1120q-21.5 0 -37 14.5t-15.5 36t15.5 36t37 14.5t37 -14.5t15.5 -36t-15.5 -36t-37 -14.5zM92.5 1120q-22.5 0 -37 14.5t-14.5 36t14.5 36t37 14.5t36.5 -14.5t14 -36t-14 -36
t-36.5 -14.5z" />
    <glyph glyph-name="eth" unicode="&#xf0;" horiz-adv-x="1075" 
d="M530.5 72q149.5 0 233.5 107.5t84 251.5t-85 253t-233.5 109t-236.5 -109t-88 -253t88 -251.5t237.5 -107.5zM531 -16q-192 0 -311.5 129t-119.5 319.5t120 320.5t316.5 130t301.5 -170q-37 291 -269 495l-80 -98q-18 -20 -36 -2l-21 16q-18 16 -2 37l78 94
q-76 57 -162 105q-29 18 -16 39l16 31q18 33 55 10q84 -45 168 -109l86 103q14 18 35 2l23 -17q20 -16 0 -37l-82 -100q350 -309 323 -840q-6 -205 -118.5 -331.5t-304.5 -126.5z" />
    <glyph glyph-name="ntilde" unicode="&#xf1;" horiz-adv-x="999" 
d="M547 883q313 0 313 -334v-522q0 -27 -26 -27h-52q-27 0 -26 27v497q0 143 -55.5 207t-172 64t-200.5 -61.5t-84 -147.5v-559q0 -27 -27 -27h-51q-27 0 -27 27v796q0 29 27 29h41q16 0 22 -35l15 -74q31 55 110.5 97.5t192.5 42.5zM375 1159q-78 0 -113 -82
q-10 -16 -29 -4l-18 10q-16 6 -8 25q47 133 170 133q74 0 149.5 -50t102.5 -50q72 0 110 84q10 16 29 4l18 -10q16 -6 9 -25q-49 -133 -168 -133q-63 2 -138 50t-114 48z" />
    <glyph glyph-name="ograve" unicode="&#xf2;" horiz-adv-x="1046" 
d="M525.5 72q149.5 0 235 107.5t85.5 251.5t-85 254t-236 110t-237.5 -110t-86.5 -254t87.5 -251.5t237 -107.5zM525.5 -16q-190.5 0 -310 129t-119.5 319.5t120 320.5t310 130t307 -130t117 -320.5t-117 -319.5t-307.5 -129zM621 1028l-267 221q-25 18 -2 45l29 35
q25 29 47 2l227 -256q20 -22 2 -47q-16 -18 -36 0z" />
    <glyph glyph-name="oacute" unicode="&#xf3;" horiz-adv-x="1046" 
d="M525.5 72q149.5 0 235 107.5t85.5 251.5t-85 254t-236 110t-237.5 -110t-86.5 -254t87.5 -251.5t237 -107.5zM525.5 -16q-190.5 0 -310 129t-119.5 319.5t120 320.5t310 130t307 -130t117 -320.5t-117 -319.5t-307.5 -129zM412 1028q-20 -18 -37 0l-6 10q-10 16 8 37
l227 256q23 27 47 -2l29 -35q23 -27 -2 -45z" />
    <glyph glyph-name="ocircumflex" unicode="&#xf4;" horiz-adv-x="1046" 
d="M525.5 72q149.5 0 235 107.5t85.5 251.5t-85 254t-236 110t-237.5 -110t-86.5 -254t87.5 -251.5t237 -107.5zM525.5 -16q-190.5 0 -310 129t-119.5 319.5t120 320.5t310 130t307 -130t117 -320.5t-117 -319.5t-307.5 -129zM319 1075v15q0 20 21 40l137 168q23 25 47 25h8
q27 0 50 -25l139 -168q20 -25 20 -40v-15q0 -14 -10.5 -19t-28.5 9l-174 176l-170 -176q-18 -14 -28.5 -9t-10.5 19z" />
    <glyph glyph-name="otilde" unicode="&#xf5;" horiz-adv-x="1046" 
d="M525.5 72q149.5 0 235 107.5t85.5 251.5t-85 254t-236 110t-237.5 -110t-86.5 -254t87.5 -251.5t237 -107.5zM525.5 -16q-190.5 0 -310 129t-119.5 319.5t120 320.5t310 130t307 -130t117 -320.5t-117 -319.5t-307.5 -129zM403 1159q-78 0 -112 -82q-10 -16 -29 -4
l-18 10q-16 6 -8 25q47 133 170 133q74 0 149.5 -50t101.5 -50q72 0 111 84q10 16 29 4l18 -10q16 -6 8 -25q-49 -133 -168 -133q-63 2 -138 50t-114 48z" />
    <glyph glyph-name="odieresis" unicode="&#xf6;" horiz-adv-x="1046" 
d="M525.5 72q149.5 0 235 107.5t85.5 251.5t-85 254t-236 110t-237.5 -110t-86.5 -254t87.5 -251.5t237 -107.5zM525.5 -16q-190.5 0 -310 129t-119.5 319.5t120 320.5t310 130t307 -130t117 -320.5t-117 -319.5t-307.5 -129zM638.5 1108q-21.5 0 -37 14.5t-15.5 36t15 35.5
t37 14t37 -14t15 -35.5t-15 -36t-36.5 -14.5zM411.5 1108q-22.5 0 -37 14.5t-14.5 36t14.5 35.5t37 14t37 -14t14.5 -35.5t-14.5 -36t-37 -14.5z" />
    <glyph glyph-name="divide" unicode="&#xf7;" horiz-adv-x="1122" 
d="M562 342q-42 0 -70 29t-29 69q1 40 29 68q28 29 70 29t70 -29t28 -70q0 -40 -28 -68t-70 -28zM184 657q-27 0 -26 27v37q0 27 26 27h754q29 0 29 -27v-37q0 -27 -29 -27h-754zM463 969q1 39 29 69t70 29q42 0 70 -29q28 -30 28 -70t-28 -68t-70 -28t-70 29t-29 68z" />
    <glyph glyph-name="oslash" unicode="&#xf8;" horiz-adv-x="1046" 
d="M528 72q147 0 232.5 107.5t85.5 250.5q0 193 -127 297l-322 -629q63 -26 131 -26zM528 795q-154 0 -240.5 -110t-84.5 -255q-2 -84 31.5 -163t97.5 -130l323 631q-59 27 -127 27zM950 430q0 -188 -116.5 -317t-305.5 -129q-90 0 -172 32l-2 -2q-14 -31 -39 -30h-20
q-41 0 -19 45l13 22q-90 59 -141.5 159.5t-51.5 219.5q0 193 120 323t312 130q90 0 168 -33l2 2q14 31 37 31h35q29 0 10 -37l-16 -33q88 -59 137 -160.5t49 -222.5z" />
    <glyph glyph-name="ugrave" unicode="&#xf9;" horiz-adv-x="1003" 
d="M838 866q27 0 26 -26v-817q0 -23 -20 -23h-37q-23 0 -27 29l-16 88q-88 -133 -270 -133q-354 0 -355 346v510q0 27 27 26h51q27 0 27 -26v-496q0 -272 262 -272q121 0 187.5 68.5t66.5 152.5v547q0 27 26 26h52zM598 1028l-266 221q-25 18 -2 45l28 35q25 29 48 2
l227 -256q18 -20 8 -37l-6 -10q-17 -18 -37 0z" />
    <glyph glyph-name="uacute" unicode="&#xfa;" horiz-adv-x="1003" 
d="M838 866q27 0 26 -26v-817q0 -23 -20 -23h-37q-23 0 -27 29l-16 88q-88 -133 -270 -133q-354 0 -355 346v510q0 27 27 26h51q27 0 27 -26v-496q0 -272 262 -272q121 0 187.5 68.5t66.5 152.5v547q0 27 26 26h52zM389 1028q-20 -18 -37 0l-6 10q-10 16 8 37l228 256
q23 27 47 -2l28 -35q23 -27 -2 -45z" />
    <glyph glyph-name="ucircumflex" unicode="&#xfb;" horiz-adv-x="1003" 
d="M838 866q27 0 26 -26v-817q0 -23 -20 -23h-37q-23 0 -27 29l-16 88q-88 -133 -270 -133q-354 0 -355 346v510q0 27 27 26h51q27 0 27 -26v-496q0 -272 262 -272q121 0 187.5 68.5t66.5 152.5v547q0 27 26 26h52zM297 1075v15q0 20 20 40l138 168q23 25 47 25h8
q27 0 49 -25l139 -168q20 -25 21 -40v-15q0 -14 -10.5 -19t-28.5 9l-174 176l-170 -176q-18 -14 -28.5 -9t-10.5 19z" />
    <glyph glyph-name="udieresis" unicode="&#xfc;" horiz-adv-x="1003" 
d="M838 866q27 0 26 -26v-817q0 -23 -20 -23h-37q-23 0 -27 29l-16 88q-88 -133 -270 -133q-354 0 -355 346v510q0 27 27 26h51q27 0 27 -26v-496q0 -272 262 -272q121 0 187.5 68.5t66.5 152.5v547q0 27 26 26h52zM615.5 1108q-21.5 0 -37 14.5t-15.5 36t15.5 35.5t37 14
t37 -14t15.5 -35.5t-15.5 -36t-37 -14.5zM389.5 1108q-22.5 0 -37 14.5t-14.5 36t14.5 35.5t37 14t36.5 -14t14 -35.5t-14 -36t-36.5 -14.5z" />
    <glyph glyph-name="yacute" unicode="&#xfd;" horiz-adv-x="1011" 
d="M911 866q14 0 20.5 -12t0.5 -31l-590 -1159q-8 -16 -25 -16h-55q-14 0 -18 12t4 31l205 409l-371 723q-8 12 -3 27.5t21 15.5h54q18 0 32 -30l320 -631l332 643q8 18 26 18h47zM391 1028q-20 -18 -37 0l-6 10q-10 16 8 37l228 256q23 27 47 -2l28 -35q23 -27 -2 -45z" />
    <glyph glyph-name="thorn" unicode="&#xfe;" horiz-adv-x="989" 
d="M508 72q137 0 209 99q71 99 71 255t-72 261q-73 105 -209 105t-201 -98q-64 -100 -64 -261t64 -261t202 -100zM528 883q172 0 268 -130t95 -326q0 -195 -95 -319t-268 -124q-205 0 -284 149v-465q0 -27 -27 -26h-51q-27 0 -27 26v1528q0 29 25 29h53q27 0 27 -29v-461
q77 148 284 148z" />
    <glyph glyph-name="ydieresis" unicode="&#xff;" horiz-adv-x="1011" 
d="M911 866q14 0 20.5 -12t0.5 -31l-590 -1159q-8 -16 -25 -16h-55q-14 0 -18 12t4 31l205 409l-371 723q-8 12 -3 27.5t21 15.5h54q18 0 32 -30l320 -631l332 643q8 18 26 18h47zM617.5 1108q-21.5 0 -37 14.5t-15.5 36t15.5 35.5t37 14t37 -14t15.5 -35.5t-15.5 -36
t-37 -14.5zM391.5 1108q-22.5 0 -37 14.5t-14.5 36t14.5 35.5t37 14t36.5 -14t14 -35.5t-14 -36t-36.5 -14.5z" />
    <glyph glyph-name="Amacron" unicode="&#x100;" horiz-adv-x="1355" 
d="M371 434h614l-297 750l-14 41zM684 1450q8 0 18 -25l555 -1398q10 -27 -20 -27h-66q-16 0 -26 27l-121 307h-694l-117 -307q-10 -27 -29 -27h-63q-31 0 -21 27l547 1398q8 25 17 25h20zM496 1665q-33 0 -33 31v24q0 31 33 31h368q33 0 33 -31v-24q0 -31 -33 -31h-368z
" />
    <glyph glyph-name="amacron" unicode="&#x101;" horiz-adv-x="1028" 
d="M520 72q127 0 200 82t73 285.5t-72 279.5t-189 76q-170 0 -249.5 -107.5t-79.5 -256t77.5 -254t239.5 -105.5zM864 852q25 0 25 -29v-794q0 -29 -25 -29h-35q-20 0 -26 31l-12 98q-23 -53 -88.5 -98t-186.5 -47q-201 -4 -309.5 124t-108.5 320.5t108.5 323.5t300.5 131
t271 -105l8 -10l13 51q8 33 28 33h37zM350 1098q-33 0 -33 30v25q0 31 33 31h369q33 0 33 -31v-25q0 -31 -33 -30h-369z" />
    <glyph glyph-name="Abreve" unicode="&#x102;" horiz-adv-x="1355" 
d="M371 434h614l-297 750l-14 41zM684 1450q8 0 18 -25l555 -1398q10 -27 -20 -27h-66q-16 0 -26 27l-121 307h-694l-117 -307q-10 -27 -29 -27h-63q-31 0 -21 27l547 1398q8 25 17 25h20zM942 1829q14 -6 8 -21q-80 -197 -278 -196q-84 0 -141.5 32.5t-82 69.5t-47.5 94
q-6 16 11 23l45 20q16 6 22 -8q61 -156 195.5 -155.5t195.5 155.5q8 14 23 8z" />
    <glyph glyph-name="abreve" unicode="&#x103;" horiz-adv-x="1028" 
d="M520 72q127 0 200 82t73 285.5t-72 279.5t-189 76q-170 0 -249.5 -107.5t-79.5 -256t77.5 -254t239.5 -105.5zM864 852q25 0 25 -29v-794q0 -29 -25 -29h-35q-20 0 -26 31l-12 98q-23 -53 -88.5 -98t-186.5 -47q-201 -4 -309.5 124t-108.5 320.5t108.5 323.5t300.5 131
t271 -105l8 -10l13 51q8 33 28 33h37zM526 1044q-84 0 -141 33t-81.5 70t-47.5 94q-6 16 10 23l45 20q16 6 23 -8q61 -156 195 -156t196 156q8 14 23 8l49 -22q14 -6 8 -21q-80 -197 -279 -197z" />
    <glyph glyph-name="Aogonek" unicode="&#x104;" horiz-adv-x="1355" 
d="M371 434h614l-297 750l-14 41zM1090 -217q0 -107 112 -107q56 0 86 48q8 14 25 6l10 -9q14 -8 8 -22q-10 -39 -51 -68.5t-109.5 -29.5t-121 42t-52.5 119q0 137 164 240q-10 4 -16 25l-121 307h-694l-117 -307q-10 -27 -29 -27h-63q-31 0 -21 27l547 1398q8 25 17 25h20
q8 0 18 -25l555 -1398q10 -27 -20 -27h-20q-127 -100 -127 -217z" />
    <glyph glyph-name="aogonek" unicode="&#x105;" horiz-adv-x="1028" 
d="M520 72q127 0 200 82t73 285.5t-72 279.5t-189 76q-170 0 -249.5 -107.5t-79.5 -256t77.5 -254t239.5 -105.5zM719 -217q1 -107 113 -107q56 0 86 48q8 14 24 6l10 -9q14 -8 9 -22q-10 -39 -51.5 -68.5t-110 -29.5t-120.5 42t-52 120.5t55 144t127 104.5q-3 11 -6 19
l-12 98q-23 -53 -88.5 -98t-186.5 -47q-201 -4 -309.5 124t-108.5 320.5t108.5 323.5t300.5 131t271 -105l8 -10l13 51q8 33 28 33h37q25 0 25 -29v-794q0 -29 -25 -29h-18q-127 -100 -127 -217z" />
    <glyph glyph-name="Cacute" unicode="&#x106;" horiz-adv-x="1470" 
d="M833.5 -16q-313.5 0 -514 215t-200.5 518t200.5 518t519 215t492.5 -229q14 -20 0 -41l-39 -37q-23 -23 -41 2q-63 88 -171.5 146.5t-256.5 58.5q-258 0 -425 -186.5t-167 -446.5t167 -446.5t425 -186.5q143 0 260 64.5t179 158.5q14 20 38 6l43 -39q23 -16 0 -38
q-196 -252 -509.5 -252zM674 1604q-23 -8 -31 8l-4 12q-12 18 12 33l297 160q27 16 43 -15l15 -30q10 -29 -17 -43z" />
    <glyph glyph-name="cacute" unicode="&#x107;" horiz-adv-x="978" 
d="M536 -16q-189 0 -313.5 129t-124.5 320t124 320.5t317.5 129.5t310.5 -140q12 -18 -2 -38l-29 -29q-23 -20 -41 2q-100 117 -246.5 117t-237.5 -108.5t-91 -252t90 -253t240.5 -109.5t248.5 127q18 23 43 4l25 -27q20 -20 4 -39q-129 -153 -318 -153zM416 1028
q-20 -18 -37 0l-6 10q-10 16 8 37l227 256q23 27 47 -2l29 -35q23 -27 -2 -45z" />
    <glyph glyph-name="Cdotaccent" unicode="&#x10a;" horiz-adv-x="1470" 
d="M833.5 -16q-313.5 0 -514 215t-200.5 518t200.5 518t519 215t492.5 -229q14 -20 0 -41l-39 -37q-23 -23 -41 2q-63 88 -171.5 146.5t-256.5 58.5q-258 0 -425 -186.5t-167 -446.5t167 -446.5t425 -186.5q143 0 260 64.5t179 158.5q14 20 38 6l43 -39q23 -16 0 -38
q-196 -252 -509.5 -252zM824 1665q-26 0 -42 17.5t-16 41t16.5 41t42 17.5t43 -17.5t17.5 -41.5t-17.5 -41t-43.5 -17z" />
    <glyph glyph-name="cdotaccent" unicode="&#x10b;" horiz-adv-x="978" 
d="M536 -16q-189 0 -313.5 129t-124.5 320t124 320.5t317.5 129.5t310.5 -140q12 -18 -2 -38l-29 -29q-23 -20 -41 2q-100 117 -246.5 117t-237.5 -108.5t-91 -252t90 -253t240.5 -109.5t248.5 127q18 23 43 4l25 -27q20 -20 4 -39q-129 -153 -318 -153zM534 1098
q-26 0 -42.5 16t-16.5 41t16.5 42t42.5 17t43 -17t17 -41t-17 -41t-43 -17z" />
    <glyph glyph-name="Ccaron" unicode="&#x10c;" horiz-adv-x="1470" 
d="M833.5 -16q-313.5 0 -514 215t-200.5 518t200.5 518t519 215t492.5 -229q14 -20 0 -41l-39 -37q-23 -23 -41 2q-63 88 -171.5 146.5t-256.5 58.5q-258 0 -425 -186.5t-167 -446.5t167 -446.5t425 -186.5q143 0 260 64.5t179 158.5q14 20 38 6l43 -39q23 -16 0 -38
q-196 -252 -509.5 -252zM1034 1853v-14q0 -16 -20 -41l-140 -168q-23 -25 -49 -24h-8q-25 0 -47 24l-137 168q-20 20 -21 41v14q0 14 10.5 19.5t28.5 -8.5l170 -176l174 176q18 14 28.5 9t10.5 -20z" />
    <glyph glyph-name="ccaron" unicode="&#x10d;" horiz-adv-x="978" 
d="M536 -16q-189 0 -313.5 129t-124.5 320t124 320.5t317.5 129.5t310.5 -140q12 -18 -2 -38l-29 -29q-23 -20 -41 2q-100 117 -246.5 117t-237.5 -108.5t-91 -252t90 -253t240.5 -109.5t248.5 127q18 23 43 4l25 -27q20 -20 4 -39q-129 -153 -318 -153zM743 1286v-14
q0 -16 -20 -41l-139 -168q-23 -25 -49 -25h-9q-25 0 -47 25l-137 168q-20 20 -20 41v14q0 14 10 19.5t28 -9.5l170 -176l175 176q18 14 28 9t10 -19z" />
    <glyph glyph-name="Dcaron" unicode="&#x10e;" horiz-adv-x="1323" 
d="M596 100q494 0 494 616.5t-494 616.5h-324v-1233h324zM1204 716q0 -347 -151.5 -531.5t-446.5 -184.5h-418q-27 0 -26 27v1380q0 27 26 27h426q291 0 440.5 -185.5t149.5 -532.5zM872 1853v-14q0 -16 -20 -41l-139 -168q-23 -25 -49 -24h-9q-25 0 -47 24l-137 168
q-20 20 -20 41v14q0 14 10 19.5t28 -8.5l170 -176l175 176q18 14 28 9t10 -20z" />
    <glyph glyph-name="dcaron" unicode="&#x10f;" horiz-adv-x="1290" 
d="M520.5 72q153.5 0 208.5 93t55 266t-55 268.5t-210 95.5t-235.5 -104.5t-80.5 -259.5t82 -257t235.5 -102zM1206 1403v-131q0 -139 -159 -215q-11 -8 -23 11t2 30q109 53 109 162l-82 28q-25 6 -25 29v86q0 31 33 31h113q32 0 32 -31zM856 1450q25 0 25 -29v-1392
q0 -29 -25 -29h-29q-25 0 -32 39l-15 67q-88 -122 -274 -122t-297 124.5t-111 321.5t110 325t296 128t272 -123v661q0 29 25 29h55z" />
    <glyph glyph-name="Dcroat" unicode="&#x110;" horiz-adv-x="1323" 
d="M596 100q494 0 494 616t-494 617h-324v-571h416q33 0 33 -31v-33q0 -31 -33 -30h-416v-568h324zM614 1434q291 0 440.5 -185.5t149.5 -532.5t-151.5 -531.5t-446.5 -184.5h-418q-27 0 -26 27v641h-37q-33 0 -33 30v33q0 31 33 31h37v645q0 27 26 27h426z" />
    <glyph glyph-name="dcroat" unicode="&#x111;" horiz-adv-x="1069" 
d="M520.5 72q153.5 0 208.5 93t55 266t-55 268.5t-210 95.5t-235.5 -104.5t-80.5 -259.5t82 -257t235.5 -102zM999 1214q33 0 33 -30v-23q0 -31 -33 -31h-118v-1101q0 -29 -25 -29h-29q-25 0 -32 39l-15 67q-88 -122 -274 -122t-297 124.5t-111 321.5t110 325t296 128
t272 -123v370h-117q-33 0 -32 31v23q0 31 32 30h117v207q0 29 25 29h55q25 0 25 -29v-207h118z" />
    <glyph glyph-name="Emacron" unicode="&#x112;" horiz-adv-x="1093" 
d="M946 100q27 0 27 -26v-47q0 -27 -27 -27h-758q-27 0 -26 27v1380q0 27 26 27h760q25 0 25 -27v-47q0 -27 -25 -27h-676v-565h469q27 0 27 -25v-51q0 -25 -27 -24h-469v-568h674zM369 1665q-33 0 -33 31v24q0 31 33 31h368q33 0 33 -31v-24q0 -31 -33 -31h-368z" />
    <glyph glyph-name="emacron" unicode="&#x113;" horiz-adv-x="999" 
d="M505 799q-130 0 -210 -87t-92 -223h592q-2 150 -81 230t-209 80zM515 883q183 0 284.5 -121t101.5 -328q0 -12 -9 -21.5t-22 -9.5h-665q10 -150 95 -241.5t237 -91.5q61 0 112 18t75 36.5t58 51.5q18 16 37 0l23 -29q18 -18 2 -34q-47 -55 -130 -92t-186 -37
q-193 0 -311.5 126t-118.5 324.5t117 323.5t300 125zM338 1098q-33 0 -33 30v25q0 31 33 31h369q33 0 32 -31v-25q0 -31 -32 -30h-369z" />
    <glyph glyph-name="Edotaccent" unicode="&#x116;" horiz-adv-x="1093" 
d="M946 100q27 0 27 -26v-47q0 -27 -27 -27h-758q-27 0 -26 27v1380q0 27 26 27h760q25 0 25 -27v-47q0 -27 -25 -27h-676v-565h469q27 0 27 -25v-51q0 -25 -27 -24h-469v-568h674zM548.5 1665q-24.5 0 -42 17.5t-17.5 41.5t16.5 41t42.5 17t43 -17.5t17 -41.5t-17.5 -41
t-42 -17z" />
    <glyph glyph-name="edotaccent" unicode="&#x117;" horiz-adv-x="999" 
d="M505 799q-130 0 -210 -87t-92 -223h592q-2 150 -81 230t-209 80zM515 883q183 0 284.5 -121t101.5 -328q0 -12 -9 -21.5t-22 -9.5h-665q10 -150 95 -241.5t237 -91.5q61 0 112 18t75 36.5t58 51.5q18 16 37 0l23 -29q18 -18 2 -34q-47 -55 -130 -92t-186 -37
q-193 0 -311.5 126t-118.5 324.5t117 323.5t300 125zM517 1098q-26 0 -42 16t-16 41t16.5 42t42 17t43 -17t17.5 -41t-17.5 -41t-43.5 -17z" />
    <glyph glyph-name="Eogonek" unicode="&#x118;" horiz-adv-x="1093" 
d="M729 -217q1 -107 113 -107q56 0 86 48q8 14 24 6l11 -9q14 -8 8 -22q-10 -39 -51 -68.5t-110 -29.5t-121 42t-52 119q0 139 160 238h-609q-27 0 -26 27v1380q0 27 26 27h760q25 0 25 -27v-47q0 -27 -25 -27h-676v-565h469q27 0 27 -25v-51q0 -25 -27 -24h-469v-568h674
q27 0 27 -26v-47q0 -27 -27 -27h-90q-127 -100 -127 -217z" />
    <glyph glyph-name="eogonek" unicode="&#x119;" horiz-adv-x="999" 
d="M505 799q-130 0 -210 -87.5t-92 -222.5h592q-2 150 -81 230t-209 80zM555 -210q1 -114 113 -114q56 0 86 48q8 14 24 6l10 -9q14 -8 9 -22q-10 -39 -51 -68.5t-110 -29.5t-121 42t-52 119q0 127 145 228q-39 -6 -80 -6q-193 0 -311.5 126t-118.5 324.5t117 323.5t300 125
t284.5 -121t101.5 -328q0 -12 -9 -21.5t-22 -9.5h-665q10 -150 95 -241.5t237 -91.5q61 0 112 18t75 36.5t58 51.5q18 16 37 0l23 -29q18 -18 2 -34q-51 -61 -139 -97q-55 -37 -102.5 -102.5t-47.5 -123.5z" />
    <glyph glyph-name="Ecaron" unicode="&#x11a;" horiz-adv-x="1093" 
d="M946 100q27 0 27 -26v-47q0 -27 -27 -27h-758q-27 0 -26 27v1380q0 27 26 27h760q25 0 25 -27v-47q0 -27 -25 -27h-676v-565h469q27 0 27 -25v-51q0 -25 -27 -24h-469v-568h674zM758 1853v-14q0 -16 -21 -41l-139 -168q-23 -25 -49 -24h-8q-25 0 -47 24l-138 168
q-20 20 -20 41v14q0 14 10 19.5t29 -8.5l170 -176l174 176q18 14 28.5 9t10.5 -20z" />
    <glyph glyph-name="ecaron" unicode="&#x11b;" horiz-adv-x="999" 
d="M505 799q-130 0 -210 -87t-92 -223h592q-2 150 -81 230t-209 80zM515 883q183 0 284.5 -121t101.5 -328q0 -12 -9 -21.5t-22 -9.5h-665q10 -150 95 -241.5t237 -91.5q61 0 112 18t75 36.5t58 51.5q18 16 37 0l23 -29q18 -18 2 -34q-47 -55 -130 -92t-186 -37
q-193 0 -311.5 126t-118.5 324.5t117 323.5t300 125zM727 1286v-14q0 -16 -20 -41l-140 -168q-23 -25 -49 -25h-8q-25 0 -47 25l-137 168q-20 20 -21 41v14q0 14 10.5 19.5t28.5 -9.5l170 -176l174 176q18 14 28.5 9t10.5 -19z" />
    <glyph glyph-name="Gbreve" unicode="&#x11e;" horiz-adv-x="1507" 
d="M1321 680q27 0 27 -25v-467q0 -12 -11 -22q-70 -74 -216 -128t-296 -54q-293 0 -499.5 204.5t-206.5 528t208 528.5t502 205q129 0 244 -46t169 -90t95 -93q16 -20 0 -37l-43 -43q-18 -18 -34 0q-44 53 -120 111q-127 98 -319 98q-256 0 -422 -186.5t-167 -447.5
t165 -446.5t432 -185.5q121 0 230.5 41t177.5 104v353h-295q-27 0 -27 24v49q0 25 27 25h379zM1085 1829q14 -6 9 -21q-80 -197 -279 -196q-84 0 -141.5 32.5t-82 69.5t-46.5 94q-6 16 10 23l45 20q16 6 23 -8q61 -156 195 -155.5t196 155.5q8 14 22 8z" />
    <glyph glyph-name="gbreve" unicode="&#x11f;" horiz-adv-x="1028" 
d="M523 72q159 0 215.5 89t56.5 266t-57.5 272.5t-216.5 95.5t-238.5 -104.5t-79.5 -259.5t80.5 -257t239.5 -102zM866 852q25 0 25 -29v-882q0 -170 -103.5 -265.5t-259 -95.5t-245.5 58.5t-127 142.5q-8 20 6 29l45 30q20 10 29 -10q76 -160 266 -160q139 0 214 76t72 209
l-2 158q-82 -129 -279.5 -129t-303 124.5t-105.5 319.5t107.5 325t307.5 130t275 -131l13 67q6 33 26 33h39zM529 1122q134 0 196 156q8 14 23 8l49 -22q14 -6 8 -21q-80 -197 -279 -196q-84 0 -141 32.5t-81.5 69.5t-47.5 94q-6 16 10 23l45 20q16 6 23 -8
q61 -156 195 -156z" />
    <glyph glyph-name="Gdotaccent" unicode="&#x120;" horiz-adv-x="1507" 
d="M1321 680q27 0 27 -25v-467q0 -12 -11 -22q-70 -74 -216 -128t-296 -54q-293 0 -499.5 204.5t-206.5 528t208 528.5t502 205q129 0 244 -46t169 -90t95 -93q16 -20 0 -37l-43 -43q-18 -18 -34 0q-44 53 -120 111q-127 98 -319 98q-256 0 -422 -186.5t-167 -447.5
t165 -446.5t432 -185.5q121 0 230.5 41t177.5 104v353h-295q-27 0 -27 24v49q0 25 27 25h379zM819.5 1665q-24.5 0 -42 17.5t-17.5 41t16.5 41t42 17.5t43 -17.5t17.5 -41.5t-17.5 -41t-42 -17z" />
    <glyph glyph-name="gdotaccent" unicode="&#x121;" horiz-adv-x="1028" 
d="M523 72q159 0 215.5 89t56.5 266t-57.5 272.5t-216.5 95.5t-238.5 -104.5t-79.5 -259.5t80.5 -257t239.5 -102zM866 852q25 0 25 -29v-882q0 -170 -103.5 -265.5t-259 -95.5t-245.5 58.5t-127 142.5q-8 20 6 29l45 30q20 10 29 -10q76 -160 266 -160q139 0 214 76t72 209
l-2 158q-82 -129 -279.5 -129t-303 124.5t-105.5 319.5t107.5 325t307.5 130t275 -131l13 67q6 33 26 33h39zM529 1100q-26 0 -42 17.5t-16 41t16.5 41t42 17.5t43 -17.5t17.5 -41.5t-17.5 -41t-43.5 -17z" />
    <glyph glyph-name="Gcommaaccent" unicode="&#x122;" horiz-adv-x="1507" 
d="M885 -158v-106q0 -51 -34 -93t-83 -57q-14 -4 -16 8.5t8 18.5q70 43 69 108l-45 21q-33 10 -32 37v63q0 31 32 31h68q33 0 33 -31zM1321 680q27 0 27 -25v-467q0 -12 -11 -22q-70 -74 -216 -128t-296 -54q-293 0 -499.5 204.5t-206.5 528t208 528.5t502 205
q129 0 244 -46t169 -90t95 -93q16 -20 0 -37l-43 -43q-18 -18 -34 0q-44 53 -120 111q-127 98 -319 98q-256 0 -422 -186.5t-167 -447.5t165 -446.5t432 -185.5q121 0 230.5 41t177.5 104v353h-295q-27 0 -27 24v49q0 25 27 25h379z" />
    <glyph glyph-name="gcommaaccent" unicode="&#x123;" horiz-adv-x="1028" 
d="M523 72q159 0 215.5 89t56.5 266t-57.5 272.5t-216.5 95.5t-238.5 -104.5t-79.5 -259.5t80.5 -257t239.5 -102zM866 852q25 0 25 -29v-882q0 -170 -103.5 -265.5t-259 -95.5t-245.5 58.5t-127 142.5q-8 20 6 29l45 30q20 10 29 -10q76 -160 266 -160q139 0 214 76t72 209
l-2 158q-82 -129 -279.5 -129t-303 124.5t-105.5 319.5t107.5 325t307.5 130t275 -131l13 67q6 33 26 33h39zM465 1135v106q0 51 33.5 93t83.5 57q14 4 16 -8.5t-8 -18.5q-70 -43 -70 -109l45 -20q33 -10 33 -37v-63q0 -31 -33 -31h-67q-33 0 -33 31z" />
    <glyph glyph-name="Hbar" unicode="&#x126;" horiz-adv-x="1378" 
d="M272 662h834v198h-834v-198zM1196 1434q20 0 21 -27v-1380q0 -27 -21 -27h-68q-23 0 -22 27v538h-834v-538q0 -27 -22 -27h-66q-23 0 -22 27v1380q0 27 22 27h66q23 0 22 -27v-451h834v451q0 27 22 27h68z" />
    <glyph glyph-name="hbar" unicode="&#x127;" horiz-adv-x="1044" 
d="M580 883q145 0 236 -85t91 -266v-505q0 -27 -28 -27h-50q-27 0 -26 27v485q0 283 -238 283q-123 0 -197.5 -66.5t-74.5 -134.5v-567q0 -27 -27 -27h-51q-27 0 -27 27v1103h-116q-33 0 -33 31v23q0 31 33 30h116v209q0 27 27 27h51q27 0 27 -27v-209h119q33 0 32 -30v-23
q0 -31 -32 -31h-119v-378q29 51 109 91t178 40z" />
    <glyph glyph-name="Imacron" unicode="&#x12a;" horiz-adv-x="434" 
d="M184 0q-23 0 -22 27v1380q0 27 22 27h66q23 0 22 -27v-1380q0 -27 -22 -27h-66zM41 1665q-33 0 -33 31v24q0 31 33 31h369q33 0 32 -31v-24q0 -31 -32 -31h-369z" />
    <glyph glyph-name="imacron" unicode="&#x12b;" horiz-adv-x="417" 
d="M184 0q-27 0 -26 27v813q0 27 26 26h49q29 0 29 -26v-813q0 -27 -29 -27h-49zM31 1110q-33 0 -33 31v24q0 31 33 31h368q33 0 33 -31v-24q0 -31 -33 -31h-368z" />
    <glyph glyph-name="Iogonek" unicode="&#x12e;" horiz-adv-x="434" 
d="M183 -399q-69 0 -121 42t-52 119q0 137 164 240q-12 6 -12 25v1380q0 27 22 27h66q23 0 22 -27v-1380q0 -27 -22 -27h-21q-127 -100 -127 -217q0 -51 29 -79t84.5 -28t85.5 48q8 14 25 6l10 -9q14 -8 8 -22q-10 -39 -51 -68.5t-110 -29.5z" />
    <glyph glyph-name="iogonek" unicode="&#x12f;" horiz-adv-x="417" 
d="M175 -399q-69 0 -121 42t-52 118.5t49 140t119 102.5q-12 10 -12 23v813q0 27 26 26h49q29 0 29 -26v-813q0 -27 -29 -27h-12q-127 -100 -127 -217q0 -51 29 -79t84.5 -28t85.5 48q8 14 24 6l11 -9q14 -8 8 -22q-10 -39 -51 -68.5t-110 -29.5zM211 1116q-27 0 -43 17.5
t-16 42.5t16 42t43 17t44 -17.5t17 -42t-17 -42t-44 -17.5z" />
    <glyph glyph-name="Idotaccent" unicode="&#x130;" horiz-adv-x="434" 
d="M184 0q-23 0 -22 27v1380q0 27 22 27h66q23 0 22 -27v-1380q0 -27 -22 -27h-66zM221.5 1665q-24.5 0 -42 17.5t-17.5 41.5t16 41t42 17t43.5 -17.5t17.5 -41.5t-17.5 -41t-42 -17z" />
    <glyph glyph-name="dotlessi" unicode="&#x131;" horiz-adv-x="417" 
d="M184 0q-27 0 -26 27v813q0 27 26 26h49q29 0 29 -26v-813q0 -27 -29 -27h-49z" />
    <glyph glyph-name="Kcommaaccent" unicode="&#x136;" horiz-adv-x="1179" 
d="M659 -158v-106q0 -51 -33.5 -93t-82.5 -57q-14 -4 -16.5 8.5t8.5 18.5q70 43 69 108l-45 21q-33 10 -33 37v63q0 31 33 31h68q32 0 32 -31zM272 27q0 -27 -22 -27h-66q-23 0 -22 27v1380q0 27 22 27h66q23 0 22 -27v-645l658 645q27 27 51 27h86q10 0 14 -10.5t-4 -18.5
l-702 -688l704 -688q10 -8 6 -18.5t-16 -10.5h-94q-23 0 -49 27l-654 643v-643z" />
    <glyph glyph-name="kcommaaccent" unicode="&#x137;" horiz-adv-x="874" 
d="M481 -158v-106q0 -51 -33.5 -93t-82.5 -57q-14 -4 -16.5 8.5t7.5 18.5q70 43 70 108l-45 21q-33 10 -33 37v63q0 31 33 31h68q32 0 32 -31zM776 0h-63q-27 0 -56 29l-413 432v-434q0 -27 -27 -27h-51q-27 0 -27 27v1396q0 27 27 27h51q27 0 27 -27v-901l372 314
q33 31 50 30h65q18 0 21.5 -14t-11.5 -27l-391 -331l438 -459q10 -12 5 -23.5t-17 -11.5z" />
    <glyph glyph-name="Lacute" unicode="&#x139;" horiz-adv-x="1026" 
d="M901 100q25 0 25 -26v-47q0 -27 -25 -27h-713q-27 0 -26 27v1378q0 29 22 29h66q23 0 22 -29v-1305h629zM367 1604q-23 -8 -31 8l-4 12q-12 18 12 33l297 160q27 16 43 -15l14 -30q10 -29 -16 -43z" />
    <glyph glyph-name="lacute" unicode="&#x13a;" horiz-adv-x="380" 
d="M166 0q-27 0 -27 27v1396q0 27 27 27h51q27 0 27 -27v-1396q0 -27 -27 -27h-51zM41 1604q-23 -8 -31 8l-4 12q-12 18 12 33l297 160q27 16 43 -15l15 -30q10 -29 -17 -43z" />
    <glyph glyph-name="Lcommaaccent" unicode="&#x13b;" horiz-adv-x="1026" 
d="M584 -158v-106q0 -51 -34 -93t-83 -57q-14 -4 -16 8.5t8 18.5q70 43 69 108l-45 21q-33 10 -32 37v63q0 31 32 31h68q33 0 33 -31zM901 100q25 0 25 -26v-47q0 -27 -25 -27h-713q-27 0 -26 27v1378q0 29 22 29h66q23 0 22 -29v-1305h629z" />
    <glyph glyph-name="lcommaaccent" unicode="&#x13c;" horiz-adv-x="380" 
d="M260 -158v-106q0 -51 -33.5 -93t-83.5 -57q-14 -4 -16 8.5t8 18.5q70 43 70 108l-45 21q-33 10 -33 37v63q0 31 33 31h67q33 0 33 -31zM166 0q-27 0 -27 27v1396q0 27 27 27h51q27 0 27 -27v-1396q0 -27 -27 -27h-51z" />
    <glyph glyph-name="Lcaron" unicode="&#x13d;" horiz-adv-x="1026" 
d="M901 100q25 0 25 -26v-47q0 -27 -25 -27h-713q-27 0 -26 27v1378q0 29 22 29h66q23 0 22 -29v-1305h629zM727 1853v-14q0 -16 -20 -41l-140 -168q-23 -25 -49 -24h-8q-25 0 -47 24l-137 168q-20 20 -21 41v14q0 14 10.5 19.5t28.5 -8.5l170 -176l174 176q18 14 28.5 9
t10.5 -20z" />
    <glyph glyph-name="lcaron" unicode="&#x13e;" horiz-adv-x="380" 
d="M166 0q-27 0 -27 27v1396q0 27 27 27h51q27 0 27 -27v-1396q0 -27 -27 -27h-51zM401 1853v-14q0 -16 -20 -41l-139 -168q-23 -25 -49 -24h-9q-25 0 -47 24l-137 168q-20 20 -20 41v14q0 14 10 19.5t28 -8.5l170 -176l174 176q18 14 28.5 9t10.5 -20z" />
    <glyph glyph-name="Ldot" unicode="&#x13f;" horiz-adv-x="1028" 
d="M610 584q-33 0 -32 32v74q0 33 32 33h72q33 0 33 -33v-74q0 -33 -33 -32h-72zM901 100q25 0 25 -26v-47q0 -27 -25 -27h-713q-27 0 -26 27v1378q0 29 22 29h66q23 0 22 -29v-1305h629z" />
    <glyph glyph-name="ldot" unicode="&#x140;" horiz-adv-x="559" 
d="M377 584q-33 0 -33 32v74q0 33 33 33h72q33 0 32 -33v-74q0 -33 -32 -32h-72zM166 0q-27 0 -27 27v1396q0 27 27 27h51q27 0 27 -27v-1396q0 -27 -27 -27h-51z" />
    <glyph glyph-name="Lslash" unicode="&#x141;" horiz-adv-x="1089" 
d="M963 100q25 0 24 -26v-47q0 -27 -24 -27h-713q-27 0 -27 27v594l-96 -80q-23 -23 -43 2l-16 22q-20 23 4 43l151 125v672q0 29 23 29h65q23 0 23 -29v-580l110 93q8 8 21.5 7t19.5 -12l19 -20q16 -27 -4 -43l-166 -137v-613h629z" />
    <glyph glyph-name="lslash" unicode="&#x142;" horiz-adv-x="559" 
d="M342 27q0 -27 -27 -27h-51q-27 0 -26 27v598l-107 -88q-27 -23 -43 2l-16 20q-20 23 4 43l162 135v686q0 27 26 27h51q27 0 27 -27v-600l107 88q29 20 43 -4l14 -18q16 -27 -4 -43l-160 -133v-686z" />
    <glyph glyph-name="Nacute" unicode="&#x143;" horiz-adv-x="1392" 
d="M1208 1434q23 0 23 -27v-1382q0 -25 -23 -25h-49q-18 0 -37 25l-850 1189v-1189q0 -25 -22 -25h-66q-23 0 -22 25v1382q0 27 24 27h47q18 0 39 -31l848 -1186v1190q0 27 23 27h65zM545 1604q-23 -8 -31 8l-4 12q-12 18 12 33l297 160q27 16 43 -15l15 -30q10 -29 -17 -43
z" />
    <glyph glyph-name="nacute" unicode="&#x144;" horiz-adv-x="999" 
d="M547 883q313 0 313 -334v-522q0 -27 -26 -27h-52q-27 0 -26 27v497q0 143 -56 207t-172 64t-200 -61.5t-84 -147.5v-559q0 -27 -27 -27h-51q-27 0 -27 27v796q0 29 27 29h41q16 0 22 -35l15 -74q31 55 110.5 97.5t192.5 42.5zM383 1028q-20 -18 -37 0l-6 10q-10 16 8 37
l227 256q23 27 48 -2l28 -35q23 -27 -2 -45z" />
    <glyph glyph-name="Ncommaaccent" unicode="&#x145;" horiz-adv-x="1392" 
d="M762 -158v-106q0 -51 -34 -93t-83 -57q-14 -4 -16 8.5t8 18.5q70 43 70 108l-45 21q-33 10 -33 37v63q0 31 33 31h67q33 0 33 -31zM1208 1434q23 0 23 -27v-1382q0 -25 -23 -25h-49q-18 0 -37 25l-850 1189v-1189q0 -25 -22 -25h-66q-23 0 -22 25v1382q0 27 24 27h47
q18 0 39 -31l848 -1186v1190q0 27 23 27h65z" />
    <glyph glyph-name="ncommaaccent" unicode="&#x146;" horiz-adv-x="999" 
d="M590 -158v-106q0 -51 -34 -93t-83 -57q-14 -4 -16 8.5t8 18.5q70 43 70 108l-46 21q-33 10 -32 37v63q0 31 32 31h68q33 0 33 -31zM547 883q313 0 313 -334v-522q0 -27 -26 -27h-52q-27 0 -26 27v497q0 143 -56 207t-172 64t-200 -61.5t-84 -147.5v-559q0 -27 -27 -27
h-51q-27 0 -27 27v796q0 29 27 29h41q16 0 22 -35l15 -74q31 55 110.5 97.5t192.5 42.5z" />
    <glyph glyph-name="Ncaron" unicode="&#x147;" horiz-adv-x="1392" 
d="M1208 1434q23 0 23 -27v-1382q0 -25 -23 -25h-49q-18 0 -37 25l-850 1189v-1189q0 -25 -22 -25h-66q-23 0 -22 25v1382q0 27 24 27h47q18 0 39 -31l848 -1186v1190q0 27 23 27h65zM905 1853v-14q0 -16 -20 -41l-140 -168q-23 -25 -49 -24h-8q-25 0 -47 24l-137 168
q-20 20 -21 41v14q0 14 10.5 19.5t28.5 -8.5l170 -176l174 176q18 14 28.5 9t10.5 -20z" />
    <glyph glyph-name="ncaron" unicode="&#x148;" horiz-adv-x="999" 
d="M547 883q313 0 313 -334v-522q0 -27 -26 -27h-52q-27 0 -26 27v497q0 143 -55.5 207t-172 64t-200.5 -61.5t-84 -147.5v-559q0 -27 -27 -27h-51q-27 0 -27 27v796q0 29 27 29h41q16 0 22 -35l15 -74q31 55 110.5 97.5t192.5 42.5zM711 1286v-14q0 -16 -21 -41l-139 -168
q-23 -25 -49 -25h-8q-25 0 -48 25l-137 168q-20 20 -20 41v14q0 14 10 19.5t29 -9.5l170 -176l174 176q18 14 28.5 9t10.5 -19z" />
    <glyph glyph-name="Eng" unicode="&#x14a;" horiz-adv-x="1392" 
d="M1206 1434q25 0 25 -27v-1481q0 -53 -35 -100t-111 -109q-18 -16 -34 0l-27 27q-18 23 0 39q102 91 102 159t-39 134l-815 1132v-1181q0 -27 -24 -27h-62q-25 0 -24 27v1380q0 27 24 27h47q18 0 39 -31l848 -1180v1184q0 27 25 27h61z" />
    <glyph glyph-name="eng" unicode="&#x14b;" horiz-adv-x="999" 
d="M545 883q315 0 315 -334v-551q0 -59 -20.5 -106.5t-44 -73t-64.5 -60.5q-18 -16 -35 0l-24 25q-14 16 2 39q82 86 82 160v542q0 145 -56.5 208t-172.5 63t-199.5 -62.5t-83.5 -146.5v-559q0 -27 -27 -27h-51q-27 0 -27 27v796q0 29 27 29h41q16 0 22 -35l15 -74
q31 55 110.5 97.5t190.5 42.5z" />
    <glyph glyph-name="Omacron" unicode="&#x14c;" horiz-adv-x="1642" 
d="M820 84q261 0 426 188.5t165 442.5t-165 444.5t-425 190.5t-425 -189.5t-165 -445.5t164 -443.5t425 -187.5zM822 -16q-300 0 -501.5 213t-201.5 519t201.5 520t501.5 214t501 -214t201 -520t-201 -519t-501 -213zM645 1665q-33 0 -33 31v24q0 31 33 31h369q33 0 33 -31
v-24q0 -31 -33 -31h-369z" />
    <glyph glyph-name="omacron" unicode="&#x14d;" horiz-adv-x="1046" 
d="M525.5 72q149.5 0 235 107.5t85.5 251.5t-85 254t-236 110t-237.5 -110t-86.5 -254t87.5 -251.5t237 -107.5zM525.5 -16q-190.5 0 -310 129t-119.5 319.5t120 320.5t310 130t307 -130t117 -320.5t-117 -319.5t-307.5 -129zM350 1098q-33 0 -33 30v25q0 31 33 31h369
q33 0 33 -31v-25q0 -31 -33 -30h-369z" />
    <glyph glyph-name="Ohungarumlaut" unicode="&#x150;" horiz-adv-x="1642" 
d="M820 84q261 0 426 188.5t165 442.5t-165 444.5t-425 190.5t-425 -189.5t-165 -445.5t164 -443.5t425 -187.5zM822 -16q-300 0 -501.5 213t-201.5 519t201.5 520t501.5 214t501 -214t201 -520t-201 -519t-501 -213zM936 1595q-25 -18 -43 15q-12 16 14 39l197 188
q12 10 24.5 7t16.5 -15l22 -33q12 -27 -10 -43zM629 1595q-20 -13 -38.5 8t9.5 46l197 188q29 23 45 -8l22 -35q16 -25 -12 -43z" />
    <glyph glyph-name="ohungarumlaut" unicode="&#x151;" horiz-adv-x="1046" 
d="M525.5 72q149.5 0 235 107.5t85.5 251.5t-85 254t-236 110t-237.5 -110t-86.5 -254t87.5 -251.5t237 -107.5zM525.5 -16q-190.5 0 -310 129t-119.5 319.5t120 320.5t310 130t307 -130t117 -320.5t-117 -319.5t-307.5 -129zM324 1044l-11 7q-16 10 2 41l140 233
q16 33 45 4l28 -22q25 -23 2 -45l-172 -211q-16 -19 -34 -7zM633 1053q-18 -19 -39.5 -4.5t-3.5 45.5l139 233q18 31 45 4l31 -24q23 -18 2 -45z" />
    <glyph glyph-name="OE" unicode="&#x152;" horiz-adv-x="1882" 
d="M823 84q72 0 127 16v1235q-66 14 -129 15q-254 -2 -422 -184.5t-168 -450.5t168 -449.5t424 -181.5zM1737 1333h-676v-565h469q27 0 26 -25v-51q0 -25 -26 -24h-469v-568h674q27 0 26 -26v-47q0 -27 -26 -27h-758q-78 -16 -152 -16q-295 0 -500.5 208.5t-205.5 524.5
q0 172 62.5 314.5t163.5 231.5t225 138t226 49t181 -16h760q25 0 24 -27v-47q1 -27 -24 -27z" />
    <glyph glyph-name="oe" unicode="&#x153;" horiz-adv-x="1748" 
d="M525.5 72q149.5 0 235 107.5t85.5 251.5t-85 254t-236 110t-237.5 -110t-86.5 -254t87.5 -251.5t237 -107.5zM1254.5 799q-129.5 0 -210 -87.5t-92.5 -222.5h592q-2 150 -81 230t-208.5 80zM1268 883q180 0 281.5 -121t101.5 -328q0 -12 -9.5 -21.5t-21.5 -9.5h-666
q10 -150 95.5 -241.5t236.5 -91.5q61 0 112.5 18t75 36.5t58.5 51.5q18 16 37 0l22 -29q18 -18 2 -34q-47 -55 -130 -92t-198.5 -37t-214 59t-151.5 164q-51 -102 -148.5 -162.5t-222.5 -60.5q-193 0 -312.5 129t-119.5 319.5t120 320.5t312 130q125 0 220.5 -60.5
t148.5 -163.5q51 104 148.5 164t222.5 60z" />
    <glyph glyph-name="Racute" unicode="&#x154;" horiz-adv-x="1196" 
d="M272 1333v-680h346q315 0 316 340q0 172 -79 256t-216 84h-367zM1040 0h-69q-20 0 -35 25l-285 528h-379v-528q0 -25 -24 -25h-62q-25 0 -24 25v1382q0 27 24 27h496q150 0 258.5 -114t108.5 -308.5t-81 -303t-206 -139.5l293 -542q14 -27 -15 -27zM457 1604
q-23 -8 -31 8l-4 12q-12 18 12 33l297 160q27 16 43 -15l14 -30q10 -29 -16 -43z" />
    <glyph glyph-name="racute" unicode="&#x155;" horiz-adv-x="679" 
d="M459 795q-100 0 -157.5 -80t-57.5 -174v-514q0 -27 -27 -27h-51q-27 0 -27 27v796q0 29 27 29h31q16 0 26 -35l13 -74q16 27 40.5 54.5t79 56.5t121.5 29t133 -37q16 -10 8 -29l-22 -43q-10 -18 -31 -8q-49 29 -106 29zM293 1028q-20 -18 -37 0l-6 10q-10 16 8 37
l227 256q23 27 47 -2l29 -35q23 -27 -2 -45z" />
    <glyph glyph-name="Rcommaaccent" unicode="&#x156;" horiz-adv-x="1196" 
d="M674 -158v-106q0 -51 -34 -93t-83 -57q-14 -4 -16 8.5t8 18.5q70 43 69 108l-45 21q-33 10 -32 37v63q0 31 32 31h68q33 0 33 -31zM272 1333v-680h346q315 0 316 340q0 172 -79 256t-216 84h-367zM1040 0h-69q-20 0 -35 25l-285 528h-379v-528q0 -25 -24 -25h-62
q-25 0 -24 25v1382q0 27 24 27h496q150 0 258.5 -114t108.5 -308.5t-81 -303t-206 -139.5l293 -542q14 -27 -15 -27z" />
    <glyph glyph-name="rcommaaccent" unicode="&#x157;" horiz-adv-x="679" 
d="M477 -158v-106q0 -51 -33.5 -93t-83.5 -57q-14 -4 -16 8.5t8 18.5q70 43 70 108l-45 21q-33 10 -33 37v63q0 31 33 31h67q33 0 33 -31zM459 795q-100 0 -157.5 -80t-57.5 -174v-514q0 -27 -27 -27h-51q-27 0 -27 27v796q0 29 27 29h31q16 0 26 -35l13 -74
q16 27 40.5 54.5t79 56.5t121.5 29t133 -37q16 -10 8 -29l-22 -43q-10 -18 -31 -8q-49 29 -106 29z" />
    <glyph glyph-name="Rcaron" unicode="&#x158;" horiz-adv-x="1196" 
d="M272 1333v-680h346q315 0 316 340q0 172 -79 256t-216 84h-367zM1040 0h-69q-20 0 -35 25l-285 528h-379v-528q0 -25 -24 -25h-62q-25 0 -24 25v1382q0 27 24 27h496q150 0 258.5 -114t108.5 -308.5t-81 -303t-206 -139.5l293 -542q14 -27 -15 -27zM817 1853v-14
q0 -16 -20 -41l-140 -168q-23 -25 -49 -24h-8q-25 0 -47 24l-137 168q-20 20 -21 41v14q0 14 10.5 19.5t28.5 -8.5l170 -176l174 176q18 14 28.5 9t10.5 -20z" />
    <glyph glyph-name="rcaron" unicode="&#x159;" horiz-adv-x="679" 
d="M459 795q-100 0 -157.5 -80t-57.5 -174v-514q0 -27 -27 -27h-51q-27 0 -27 27v796q0 29 27 29h31q16 0 26 -35l13 -74q16 27 40.5 54.5t79 56.5t121.5 29t133 -37q16 -10 8 -29l-22 -43q-10 -18 -31 -8q-49 29 -106 29zM621 1286v-14q0 -16 -21 -41l-139 -168
q-23 -25 -49 -25h-9q-25 0 -47 25l-137 168q-20 20 -20 41v14q0 14 10 19.5t29 -9.5l170 -176l174 176q18 14 28.5 9t10.5 -19z" />
    <glyph glyph-name="Sacute" unicode="&#x15a;" horiz-adv-x="1230" 
d="M612 -16q-145 0 -278 51t-207 135q-14 14 0 33l43 45q14 18 33 0q63 -72 179 -118t230 -46q168 0 275.5 84t107.5 205t-77.5 178t-326.5 129t-349.5 155t-100.5 218q0 180 127 288.5t340 108.5q270 0 447 -150q16 -12 2 -30l-43 -51q-10 -18 -29 0q-175 131 -357 131
t-278 -76t-96 -196t83 -182t325 -128t345 -149.5t103 -227.5q0 -180 -138.5 -293.5t-359.5 -113.5zM469 1604q-23 -8 -31 8l-4 12q-12 18 12 33l297 160q27 16 43 -15l15 -30q10 -29 -17 -43z" />
    <glyph glyph-name="sacute" unicode="&#x15b;" horiz-adv-x="831" 
d="M424 -16q-205 0 -315 114q-16 23 -5 37l21 33q18 20 39 2q113 -100 252 -100q98 0 154.5 43t56.5 112t-46 105q-47 36 -189 74t-206 92t-63.5 156t81.5 166.5t219 64.5t239 -72q27 -14 16 -37l-25 -37q-12 -23 -32 -8q-101 68 -195 68t-146 -37q-52 -36 -51.5 -100
t41.5 -101q40 -37 182 -75t211.5 -94t69.5 -158t-87 -175t-222 -73zM293 1028q-20 -18 -37 0l-6 10q-10 16 8 37l227 256q23 27 47 -2l29 -35q23 -27 -2 -45z" />
    <glyph glyph-name="Scedilla" unicode="&#x15e;" horiz-adv-x="1230" 
d="M1110 391q0 -180 -137 -292.5t-357 -114.5l-34 -84q66 20 122 -17t56 -115t-42 -118.5t-102 -40.5t-93.5 25.5t-41.5 47.5t2 27l41 15q12 6 19 -7q18 -37 61 -36q78 0 78 81q0 49 -30.5 64.5t-69.5 5.5l-29 -2l-47 18q-12 6 -10 21l49 117q-283 29 -418 184q-14 14 0 33
l43 45q14 18 33 0q63 -72 179 -118t230 -46q168 0 275.5 84t107.5 205t-77.5 178t-326.5 129t-349.5 155t-100.5 218q0 180 127 288.5t340 108.5q270 0 447 -150q16 -12 2 -30l-43 -51q-10 -18 -29 0q-175 131 -357 131t-278 -76t-96 -196t83 -182t325 -128t345 -150
t103 -227z" />
    <glyph glyph-name="scedilla" unicode="&#x15f;" horiz-adv-x="831" 
d="M424 -16h-12l-37 -84q66 20 122 -17t56 -115t-42 -118q-41 -40 -101 -40q-60 -2 -94 24t-42 48t2 27l41 15q14 6 19 -7q18 -37 61 -36q78 0 78 81q0 49 -30.5 64.5t-69.5 5.5l-29 -2l-47 18q-12 6 -10 21l51 121q-147 23 -231 108q-16 23 -5 37l21 33q18 20 39 2
q113 -100 252 -100q98 0 154.5 43t56.5 112t-46 105q-47 36 -189 74t-206 92t-63.5 156t81.5 166.5t219 64.5t239 -72q27 -14 16 -37l-25 -37q-12 -23 -32 -8q-101 68 -195 68t-146 -37q-52 -36 -51.5 -100t41.5 -101q40 -37 182 -75t211.5 -94t69.5 -158t-87 -175t-222 -73
z" />
    <glyph glyph-name="Scaron" unicode="&#x160;" horiz-adv-x="1230" 
d="M612 -16q-145 0 -278 51t-207 135q-14 14 0 33l43 45q14 18 33 0q63 -72 179 -118t230 -46q168 0 275.5 84t107.5 205t-77.5 178t-326.5 129t-349.5 155t-100.5 218q0 180 127 288.5t340 108.5q270 0 447 -150q16 -12 2 -30l-43 -51q-10 -18 -29 0q-174 131 -356.5 131
t-278.5 -76t-96 -196t83 -182t325.5 -128t345 -149.5t102.5 -227.5q0 -180 -138.5 -293.5t-359.5 -113.5zM829 1853v-14q0 -16 -20 -41l-139 -168q-23 -25 -49 -24h-9q-25 0 -47 24l-137 168q-20 20 -20 41v14q0 14 10 19.5t28 -8.5l170 -176l175 176q18 14 28 9t10 -20z
" />
    <glyph glyph-name="scaron" unicode="&#x161;" horiz-adv-x="831" 
d="M424 -16q-205 0 -315 114q-16 23 -5 37l21 33q18 20 39 2q113 -100 252 -100q98 0 154.5 43t56.5 112t-46 105.5t-188.5 74t-206 92t-63.5 156t81 166t219 64.5t239 -72q27 -14 16 -37l-25 -37q-12 -23 -32 -8q-100 68 -194.5 68t-146 -37t-51.5 -100.5t41 -100.5
t182.5 -74.5t211 -94t69.5 -159t-87 -175t-222 -72.5zM621 1286v-14q0 -16 -21 -41l-139 -168q-23 -25 -49 -25h-9q-25 0 -47 25l-137 168q-20 20 -20 41v14q0 14 10 19.5t29 -9.5l170 -176l174 176q18 14 28.5 9t10.5 -19z" />
    <glyph glyph-name="uni0162" unicode="&#x162;" horiz-adv-x="1198" 
d="M1071 1434q27 0 27 -27v-47q0 -27 -27 -27h-416v-1306q0 -27 -26 -27h-35l-31 -74q66 20 122 -16.5t56 -114.5t-42 -119t-101 -41t-93 26t-42 48t2 27l41 14q14 6 18 -6q18 -37 62 -37q78 0 78 82q0 49 -31 64.5t-70 5.5l-28 -2l-48 18q-12 6 -10 21l66 155h2v1282h-418
q-27 0 -27 27v47q0 27 27 27h944z" />
    <glyph glyph-name="uni0163" unicode="&#x163;" horiz-adv-x="727" 
d="M406 -12h-11l-37 -88q66 20 122.5 -17t56.5 -115t-42 -118.5t-101.5 -40.5t-93.5 25.5t-42 48t2 26.5l41 15q14 6 18 -7q18 -37 62 -36q78 0 78 81q0 49 -31 64.5t-70 5.5l-28 -2l-47 18q-12 6 -11 21l56 131q-125 43 -125 238v538h-97q-27 0 -26 25v39q0 27 26 26h97
v219q0 27 26 27h50q29 0 28 -27v-219h234q31 0 30 -26v-39q0 -25 -30 -25h-234v-543q0 -156 113 -155q92 0 147 74q18 18 33 2l27 -37q12 -18 -4 -35q-86 -94 -217 -94z" />
    <glyph glyph-name="Tcaron" unicode="&#x164;" horiz-adv-x="1198" 
d="M1071 1434q27 0 27 -27v-47q0 -27 -27 -27h-416v-1306q0 -27 -26 -27h-60q-25 0 -24 27v1306h-418q-27 0 -27 27v47q0 27 27 27h944zM811 1853v-14q0 -16 -20 -41l-140 -168q-23 -25 -49 -24h-8q-25 0 -47 24l-137 168q-20 20 -21 41v14q0 14 10.5 19.5t28.5 -8.5
l170 -176l174 176q18 14 28.5 9t10.5 -20z" />
    <glyph glyph-name="tcaron" unicode="&#x165;" horiz-adv-x="739" 
d="M406 -12q-203 0 -203 250v538h-97q-27 0 -26 25v39q0 27 26 26h97v219q0 27 26 27h50q29 0 28 -27v-219h234q31 0 30 -26v-39q0 -25 -30 -25h-234v-543q0 -156 113 -155q92 0 147 74q18 18 33 2l27 -37q12 -18 -4 -35q-86 -94 -217 -94zM680 1427v-131q0 -139 -160 -215
q-12 -8 -23 11.5t3 29.5q109 53 108 162l-82 29q-25 6 -24 28v86q0 31 33 31h112q33 0 33 -31z" />
    <glyph glyph-name="Tbar" unicode="&#x166;" horiz-adv-x="1198" 
d="M1071 1434q27 0 27 -27v-47q0 -27 -27 -27h-416v-571h226q33 0 32 -31v-33q0 -31 -32 -30h-226v-641q0 -27 -26 -27h-60q-25 0 -24 27v641h-228q-33 0 -32 30v33q0 31 32 31h228v571h-418q-27 0 -27 27v47q0 27 27 27h944z" />
    <glyph glyph-name="tbar" unicode="&#x167;" horiz-adv-x="765" 
d="M439 -16q-124 0 -170 70t-46 196v526h-96q-27 0 -27 27v37q0 27 27 26h96v123h-96q-27 0 -27 29v35q0 29 27 28h96v219q0 29 27 29h49q29 0 29 -29v-219h235q9 0 19 -8t10 -20v-35q0 -12 -9 -20t-20 -9h-235v-123h235q9 0 19 -8t10 -18v-37q0 -11 -9 -19t-20 -8h-235
v-534q0 -168 112 -168q92 0 148 73q18 16 33 3l26 -37q14 -14 -4 -33q-80 -96 -204 -96z" />
    <glyph glyph-name="Umacron" unicode="&#x16a;" horiz-adv-x="1394" 
d="M1212 1434q25 0 25 -29v-858q0 -260 -141.5 -411.5t-398.5 -151.5t-398 151.5t-141 411.5v858q0 29 26 29h58q27 0 26 -29v-834q0 -236 114 -361.5t314.5 -125.5t315 126t114.5 361v834q0 29 25 29h61zM518 1665q-33 0 -33 31v24q0 31 33 31h369q33 0 33 -31v-24
q0 -31 -33 -31h-369z" />
    <glyph glyph-name="umacron" unicode="&#x16b;" horiz-adv-x="1003" 
d="M838 866q27 0 26 -26v-817q0 -23 -20 -23h-37q-23 0 -27 29l-16 88q-88 -133 -270 -133q-354 0 -355 346v510q0 27 27 26h51q27 0 27 -26v-496q0 -272 262 -272q121 0 187.5 68.5t66.5 152.5v547q0 27 26 26h52zM328 1098q-33 0 -33 30v25q0 31 33 31h368q33 0 33 -31
v-25q0 -31 -33 -30h-368z" />
    <glyph glyph-name="ubreve" unicode="&#x16d;" horiz-adv-x="1003" 
d="M838 866q27 0 26 -26v-817q0 -23 -20 -23h-37q-23 0 -27 29l-16 88q-88 -133 -270 -133q-354 0 -355 346v510q0 27 27 26h51q27 0 27 -26v-496q0 -272 262 -272q121 0 187.5 68.5t66.5 152.5v547q0 27 26 26h52zM504 1044q-84 0 -141.5 33t-82 70t-47.5 94q-6 16 11 23
l45 20q14 6 22 -8q61 -156 195.5 -156t195.5 156q6 14 23 8l49 -22q14 -6 8 -21q-80 -197 -278 -197z" />
    <glyph glyph-name="Uring" unicode="&#x16e;" horiz-adv-x="1394" 
d="M1212 1434q25 0 25 -29v-858q0 -260 -141.5 -411.5t-398.5 -151.5t-398 151.5t-141 411.5v858q0 29 26 29h58q27 0 26 -29v-834q0 -236 114 -361.5t314.5 -125.5t315 126t114.5 361v834q0 29 25 29h61zM697 1686q26 0 44.5 18t18.5 49t-18.5 49.5t-44.5 18.5t-43 -18.5
t-17 -49.5t17 -49t43 -18zM696.5 1620q-55.5 0 -93.5 36t-38 97.5t38 97t93.5 35.5t94 -35.5t38.5 -97t-38.5 -97.5t-94 -36z" />
    <glyph glyph-name="uring" unicode="&#x16f;" horiz-adv-x="1003" 
d="M838 866q27 0 26 -26v-817q0 -23 -20 -23h-37q-23 0 -27 29l-16 88q-88 -133 -270 -133q-354 0 -355 346v510q0 27 27 26h51q27 0 27 -26v-496q0 -272 262 -272q121 0 187.5 68.5t66.5 152.5v547q0 27 26 26h52zM507 1118q26 0 44 18.5t18 49.5t-18.5 49t-44 18t-43 -18
t-17.5 -49t17.5 -49.5t43.5 -18.5zM506 1053q-55 0 -93 35.5t-38 97t38 97.5t93 36t94 -36t39 -97.5t-39 -97t-94 -35.5z" />
    <glyph glyph-name="Uhungarumlaut" unicode="&#x170;" horiz-adv-x="1394" 
d="M1212 1434q25 0 25 -29v-858q0 -260 -141.5 -411.5t-398.5 -151.5t-398 151.5t-141 411.5v858q0 29 26 29h58q27 0 26 -29v-834q0 -236 114 -361.5t314.5 -125.5t315 126t114.5 361v834q0 29 25 29h61zM809 1595q-25 -18 -43 15q-12 16 14 39l197 188q12 10 24.5 7
t16.5 -15l22 -33q12 -27 -10 -43zM502 1595q-20 -13 -38.5 8t9.5 46l197 188q29 23 45 -8l22 -35q16 -25 -12 -43z" />
    <glyph glyph-name="uhungarumlaut" unicode="&#x171;" horiz-adv-x="1003" 
d="M838 866q27 0 26 -26v-817q0 -23 -20 -23h-37q-23 0 -27 29l-16 88q-88 -133 -270 -133q-354 0 -355 346v510q0 27 27 26h51q27 0 27 -26v-496q0 -272 262 -272q121 0 187.5 68.5t66.5 152.5v547q0 27 26 26h52zM301 1044l-10 7q-16 10 2 41l139 233q16 33 45 4l29 -22
q25 -23 2 -45l-172 -211q-17 -19 -35 -7zM610 1053q-18 -19 -39.5 -4.5t-3.5 45.5l140 233q18 31 45 4l30 -24q23 -18 2 -45z" />
    <glyph glyph-name="Uogonek" unicode="&#x172;" horiz-adv-x="1394" 
d="M762 -209q0 -115 112 -115q56 0 87 48q8 14 24 6l10 -9q14 -8 9 -22q-10 -39 -51.5 -68.5t-110 -29.5t-120.5 42t-52 119q0 135 151 232q-66 -10 -125 -10q-256 0 -397 151.5t-141 411.5v858q0 29 26 29h58q27 0 26 -29v-834q0 -236 114 -361.5t314.5 -125.5t315 126
t114.5 361v834q0 29 25 29h61q25 0 25 -29v-858q0 -197 -83 -334t-241 -195q-55 -37 -103 -102.5t-48 -124.5z" />
    <glyph glyph-name="uogonek" unicode="&#x173;" horiz-adv-x="1003" 
d="M775 -399q-69 0 -121 42t-52 120.5t54.5 144t127.5 104.5q-4 8 -4 17l-16 88q-88 -133 -270 -133q-354 0 -355 346v510q0 27 27 26h51q27 0 27 -26v-496q0 -272 262 -272q121 0 187.5 68.5t66.5 152.5v547q0 27 26 26h52q27 0 26 -26v-817q0 -23 -20 -23h-23
q-127 -100 -127 -217q0 -51 29 -79t84.5 -28t85.5 48q8 14 25 6l10 -9q14 -8 8 -22q-10 -39 -51 -68.5t-110 -29.5z" />
    <glyph glyph-name="Wcircumflex" unicode="&#x174;" horiz-adv-x="1755" 
d="M1634 1434q12 0 19.5 -8.5t5.5 -20.5l-359 -1385q-6 -20 -20 -20h-25q-18 0 -24 20l-354 1160l-357 -1160q-6 -20 -20 -20h-25q-16 0 -22 20l-355 1385q-2 12 5.5 20.5t19.5 8.5h55q23 0 29 -29l285 -1149l354 1155q6 23 20 23h23q12 0 20 -23l355 -1155l284 1149
q8 29 29 29h57zM668 1638v15q0 20 20 41l137 168q23 25 47 24h9q27 0 49 -24l139 -168q20 -25 21 -41v-15q0 -14 -10.5 -19t-28.5 9l-174 176l-170 -176q-18 -14 -28.5 -9t-10.5 19z" />
    <glyph glyph-name="wcircumflex" unicode="&#x175;" horiz-adv-x="1280" 
d="M1176 866q35 0 20 -43l-268 -803q-8 -20 -25 -20h-29q-16 0 -22 20l-213 674l-211 -676q-8 -18 -25 -18h-26q-20 0 -27 18l-268 805q-14 43 20 43h54q25 0 30 -20l207 -660l207 660q6 20 23 20h32q16 0 23 -20l209 -660l205 660q6 20 32 20h52zM430 1075v15q0 20 21 40
l137 168q23 25 47 25h8q27 0 49 -25l139 -168q20 -25 21 -40v-15q0 -14 -10.5 -19t-28.5 9l-174 176l-170 -176q-18 -14 -28.5 -9t-10.5 19z" />
    <glyph glyph-name="Ycircumflex" unicode="&#x176;" horiz-adv-x="1241" 
d="M1120 1434q12 0 20.5 -8.5t0.5 -20.5l-467 -784v-596q0 -25 -25 -25h-59q-27 0 -27 25v596l-463 784q-14 29 17 29h63q20 0 39 -29l399 -678l406 682q16 25 39 25h57zM412 1642v15q0 20 20 41l137 168q23 25 47 24h9q27 0 49 -24l139 -168q20 -25 21 -41v-15
q0 -14 -10.5 -19t-28.5 9l-174 176l-170 -176q-18 -14 -28.5 -9t-10.5 19z" />
    <glyph glyph-name="ycircumflex" unicode="&#x177;" horiz-adv-x="1011" 
d="M911 866q14 0 20.5 -12t0.5 -31l-590 -1159q-8 -16 -25 -16h-55q-14 0 -18 12t4 31l205 409l-371 723q-8 12 -3 27.5t21 15.5h54q18 0 32 -30l320 -631l332 643q8 18 26 18h47zM299 1075v15q0 20 20 40l138 168q23 25 47 25h8q27 0 49 -25l139 -168q20 -25 21 -40v-15
q0 -14 -10.5 -19t-28.5 9l-174 176l-170 -176q-18 -14 -28.5 -9t-10.5 19z" />
    <glyph glyph-name="Ydieresis" unicode="&#x178;" horiz-adv-x="1241" 
d="M1120 1434q12 0 20.5 -8.5t0.5 -20.5l-467 -784v-596q0 -25 -25 -25h-59q-27 0 -27 25v596l-463 784q-14 29 17 29h63q20 0 39 -29l399 -678l406 682q16 25 39 25h57zM730.5 1675q-21.5 0 -37 14.5t-15.5 36t15.5 36t37 14.5t36.5 -14.5t15 -36t-15 -36t-36.5 -14.5z
M503.5 1675q-22.5 0 -36.5 14.5t-14 36t14 36t36.5 14.5t37 -14.5t14.5 -36t-14.5 -36t-37 -14.5z" />
    <glyph glyph-name="Zacute" unicode="&#x179;" horiz-adv-x="1198" 
d="M164 1333q-25 0 -25 25v51q0 25 25 25h893q14 0 20 -14.5t-4 -30.5l-797 -1289h775q25 0 24 -24v-51q0 -25 -24 -25h-906q-16 0 -23 14.5t1 28.5l797 1290h-756zM444 1604q-23 -8 -30 8l-4 12q-12 18 12 33l297 160q27 16 43 -15l14 -30q10 -29 -16 -43z" />
    <glyph glyph-name="zacute" unicode="&#x17a;" horiz-adv-x="804" 
d="M166 778q-31 0 -31 29v29q0 12 9.5 21t21.5 9h514q18 0 24.5 -15t-6.5 -34l-456 -729h415q12 0 21.5 -9t9.5 -22v-28q0 -29 -31 -29h-528q-16 0 -24.5 15.5t1.5 35.5l463 727h-403zM270 1028q-20 -18 -37 0l-6 10q-10 16 9 37l227 256q23 27 47 -2l29 -35q23 -27 -2 -45z
" />
    <glyph glyph-name="Zdotaccent" unicode="&#x17b;" horiz-adv-x="1198" 
d="M164 1333q-25 0 -25 25v51q0 25 25 25h893q14 0 20 -14.5t-4 -30.5l-797 -1289h775q25 0 24 -24v-51q0 -25 -24 -25h-906q-16 0 -23 14.5t1 28.5l797 1290h-756zM595 1665q-26 0 -42 17.5t-16 41t16 41t42 17.5t43 -17.5t17 -41.5t-17 -41t-43 -17z" />
    <glyph glyph-name="zdotaccent" unicode="&#x17c;" horiz-adv-x="804" 
d="M166 778q-31 0 -31 29v29q0 12 9.5 21t21.5 9h514q18 0 24.5 -15t-6.5 -34l-456 -729h415q12 0 21.5 -9t9.5 -22v-28q0 -29 -31 -29h-528q-16 0 -24.5 15.5t1.5 35.5l463 727h-403zM389.5 1098q-24.5 0 -42 16t-17.5 41t16 42t42 17t43.5 -17t17.5 -41t-17.5 -41t-42 -17
z" />
    <glyph glyph-name="Zcaron" unicode="&#x17d;" horiz-adv-x="1198" 
d="M164 1333q-25 0 -25 25v51q0 25 25 25h893q14 0 20 -14.5t-4 -30.5l-797 -1289h775q25 0 24 -24v-51q0 -25 -24 -25h-906q-16 0 -23 14.5t1 28.5l797 1290h-756zM805 1853v-14q0 -16 -21 -41l-139 -168q-23 -25 -49 -24h-8q-25 0 -47 24l-138 168q-20 20 -20 41v14
q0 14 10 19.5t29 -8.5l170 -176l174 176q18 14 28.5 9t10.5 -20z" />
    <glyph glyph-name="zcaron" unicode="&#x17e;" horiz-adv-x="804" 
d="M166 778q-31 0 -31 29v29q0 12 9.5 21t21.5 9h514q18 0 24.5 -15t-6.5 -34l-456 -729h415q12 0 21.5 -9t9.5 -22v-28q0 -29 -31 -29h-528q-16 0 -24.5 15.5t1.5 35.5l463 727h-403zM598 1286v-14q0 -16 -20 -41l-140 -168q-23 -25 -49 -25h-8q-25 0 -47 25l-137 168
q-20 20 -21 41v14q0 14 10.5 19.5t28.5 -9.5l170 -176l174 176q18 14 28.5 9t10.5 -19z" />
    <glyph glyph-name="florin" unicode="&#x192;" horiz-adv-x="837" 
d="M526 1356q-100 0 -132 -61.5t-32 -219.5v-305h250q31 0 31 -27v-47q0 -27 -31 -26h-250v-772q0 -51 -31.5 -88.5t-109.5 -120.5q-16 -18 -35 0l-34 32q-14 18 -5 30.5t29 36.5q74 92 74 138v744h-103q-29 0 -28 26v47q0 27 28 27h103v313q0 211 60.5 289t203.5 78
t229 -53q29 -20 13 -41l-25 -37q-12 -20 -35 -10q-70 47 -170 47z" />
    <glyph glyph-name="Scommaaccent" unicode="&#x218;" horiz-adv-x="1230" 
d="M686 -158v-106q0 -51 -34 -93t-83 -57q-14 -4 -16 8.5t8 18.5q70 43 70 108l-45 21q-33 10 -33 37v63q0 31 33 31h67q33 0 33 -31zM612 -16q-145 0 -278 51t-207 135q-14 14 0 33l43 45q14 18 33 0q63 -72 179 -118t230 -46q168 0 275.5 84t107.5 205t-77.5 178
t-326.5 129t-349.5 155t-100.5 218q0 180 127 288.5t340 108.5q270 0 447 -150q16 -12 2 -30l-43 -51q-10 -18 -29 0q-175 131 -357 131t-278 -76t-96 -196t83 -182t325 -128t345 -149.5t103 -227.5q0 -180 -138.5 -293.5t-359.5 -113.5z" />
    <glyph glyph-name="scommaaccent" unicode="&#x219;" horiz-adv-x="831" 
d="M479 -158v-106q0 -51 -33.5 -93t-83.5 -57q-14 -4 -16 8.5t8 18.5q70 43 70 108l-45 21q-33 10 -33 37v63q0 31 33 31h67q33 0 33 -31zM424 -16q-205 0 -315 114q-16 23 -5 37l21 33q18 20 39 2q113 -100 252 -100q98 0 154.5 43t56.5 112t-46 105q-47 36 -189 74
t-206 92t-63.5 156t81.5 166.5t219 64.5t239 -72q27 -14 16 -37l-25 -37q-12 -23 -32 -8q-101 68 -195 68t-146 -37q-52 -36 -51.5 -100t41.5 -101q40 -37 182 -75t211.5 -94t69.5 -158t-87 -175t-222 -73z" />
    <glyph glyph-name="uni021A" unicode="&#x21a;" horiz-adv-x="1198" 
d="M668 -131v-107q0 -51 -34 -93t-83 -56q-14 -4 -16.5 8t8.5 19q70 43 69 108l-45 21q-33 10 -32 36v64q0 31 32 31h68q33 0 33 -31zM1071 1434q27 0 27 -27v-47q0 -27 -27 -27h-416v-1306q0 -27 -26 -27h-60q-25 0 -24 27v1306h-418q-27 0 -27 27v47q0 27 27 27h944z" />
    <glyph glyph-name="uni021B" unicode="&#x21b;" horiz-adv-x="727" 
d="M463 -158v-106q0 -51 -34 -93t-83 -57q-14 -4 -16 8.5t8 18.5q70 43 70 108l-46 21q-33 10 -32 37v63q0 31 32 31h68q33 0 33 -31zM406 -12q-203 0 -203 250v538h-97q-27 0 -26 25v39q0 27 26 26h97v219q0 27 26 27h50q29 0 28 -27v-219h234q31 0 30 -26v-39
q0 -25 -30 -25h-234v-543q0 -156 113 -155q92 0 147 74q18 18 33 2l27 -37q12 -18 -4 -35q-86 -94 -217 -94z" />
    <glyph glyph-name="circumflex" unicode="&#x2c6;" horiz-adv-x="700" 
d="M139 1384q0 20 21 41l137 168q23 25 47 25h8q27 0 49 -25l140 -168q20 -25 20 -41v-14q-1 -14 -11 -19t-28 9l-174 176l-170 -176q-18 -14 -28 -9t-11 19v14z" />
    <glyph glyph-name="caron" unicode="&#x2c7;" horiz-adv-x="737" 
d="M580 1567q0 -16 -21 -41l-139 -168q-23 -25 -49 -25h-9q-25 0 -47 25l-137 168q-20 20 -20 41v14q0 13 10 19t29 -9l170 -176l174 176q18 13 28 9t11 -19v-14z" />
    <glyph glyph-name="breve" unicode="&#x2d8;" horiz-adv-x="866" 
d="M430 1339q-84 0 -141 33t-82 70t-47 94q-6 16 10 23l45 20q14 6 23 -8q61 -156 195 -156t196 156q8 14 22 8l49 -23q14 -6 9 -20q-80 -197 -279 -197z" />
    <glyph glyph-name="dotaccent" unicode="&#x2d9;" horiz-adv-x="434" 
d="M217 1393q-25 0 -42 16t-17 41t16 42t42 17t43 -17t17 -41t-17 -41t-42 -17z" />
    <glyph glyph-name="ring" unicode="&#x2da;" horiz-adv-x="647" 
d="M323 1452q26 0 44 18t18 50t-18 49q-18 18 -44 18t-43 -18q-18 -18 -18 -49q0 -32 18 -50t43 -18zM322 1386q-55 0 -94 36q-38 36 -38 98t38 97q38 36 94 36t94 -36q39 -36 39 -97q0 -62 -39 -98t-94 -36z" />
    <glyph glyph-name="ogonek" unicode="&#x2db;" horiz-adv-x="649" 
d="M250 -228q0 -116 113 -116q55 0 86 47q8 14 24 6l10 -8q14 -8 9 -23q-10 -38 -52 -68t-110 -30t-120 42t-52 123t60 149t136 106h52q-57 -35 -107 -101q-49 -67 -49 -127z" />
    <glyph glyph-name="tilde" unicode="&#x2dc;" horiz-adv-x="907" 
d="M328 1454q-78 0 -113 -82q-10 -16 -29 -4l-18 10q-16 6 -8 25q47 133 170 133q74 0 150 -50t102 -50q72 0 110 84q10 16 29 4l18 -11q16 -6 9 -24q-49 -133 -168 -133q-62 2 -138 50t-114 48z" />
    <glyph glyph-name="hungarumlaut" unicode="&#x2dd;" horiz-adv-x="825" 
d="M176 1339l-10 7q-16 10 2 40l139 234q16 33 45 4l29 -22q25 -23 2 -46l-172 -210q-17 -19 -35 -7zM485 1348q-17 -20 -43 0q-18 10 0 41l140 233q18 31 45 4l30 -24q23 -18 2 -46z" />
    <glyph glyph-name="gravecomb" unicode="&#x300;" 
d="M-188 1323l-267 221q-25 18 -2 45l29 35q25 29 47 2l227 -256q20 -22 2 -47q-16 -18 -36 0z" />
    <glyph glyph-name="acutecomb" unicode="&#x301;" 
d="M-434 1323q-20 -18 -37 0l-6 10q-10 16 8 37l227 256q23 27 47 -2l29 -35q23 -27 -2 -45z" />
    <glyph glyph-name="uni0302" unicode="&#x302;" 
d="M-580 1370v14q0 20 21 41l137 168q23 25 47 25h8q27 0 50 -25l139 -168q20 -25 20 -41v-14q0 -14 -10.5 -19t-28.5 9l-174 176l-170 -176q-18 -14 -28.5 -9t-10.5 19z" />
    <glyph glyph-name="tildecomb" unicode="&#x303;" 
d="M-580 1454q-78 0 -112 -82q-10 -16 -29 -4l-18 10q-16 6 -9 25q47 133 170 133q74 0 150 -50t102 -50q72 0 111 84q10 16 29 4l18 -11q16 -6 8 -24q-49 -133 -168 -133q-63 2 -138 50t-114 48z" />
    <glyph glyph-name="uni0304" unicode="&#x304;" 
d="M-557 1393q-33 0 -33 30v25q0 31 33 31h369q33 0 32 -31v-25q0 -31 -32 -30h-369z" />
    <glyph glyph-name="uni0306" unicode="&#x306;" 
d="M-440 1339q-84 0 -141.5 33t-82 70t-47.5 94q-6 16 11 23l45 20q16 6 22 -8q61 -156 195.5 -156t195.5 156q8 14 23 8l49 -23q14 -6 8 -20q-80 -197 -278 -197z" />
    <glyph glyph-name="uni0307" unicode="&#x307;" 
d="M-217.5 1393q-24.5 0 -41.5 16t-17 41t16 42t42 17t43 -17t17 -41t-17.5 -41t-42 -17z" />
    <glyph glyph-name="uni0308" unicode="&#x308;" 
d="M-207.5 1403q-21.5 0 -37 14.5t-15.5 36t15.5 35.5t37 14t36.5 -14t15 -35.5t-15 -36t-36.5 -14.5zM-434.5 1403q-22.5 0 -36.5 14.5t-14 36t14 35.5t36.5 14t37 -14t14.5 -35.5t-14.5 -36t-37 -14.5z" />
    <glyph glyph-name="uni030A" unicode="&#x30a;" 
d="M-325 1413q26 0 44.5 18.5t18.5 49t-18.5 49t-44.5 18.5t-43 -18.5t-17 -49t17 -49t43 -18.5zM-325.5 1348q-55.5 0 -93.5 35.5t-38 97t38 97.5t93.5 36t94 -36t38.5 -97.5t-38.5 -97t-94 -35.5z" />
    <glyph glyph-name="uni030B" unicode="&#x30b;" 
d="M-649 1339l-10 7q-16 10 2 40l139 234q16 33 45 4l29 -22q25 -23 2 -46l-172 -210q-17 -19 -35 -7zM-340 1348q-19 -21 -43 0q-18 10 0 41l139 233q18 31 45 4l31 -24q23 -18 2 -46z" />
    <glyph glyph-name="uni030C" unicode="&#x30c;" 
d="M-158 1581v-14q0 -16 -20 -41l-139 -168q-23 -25 -50 -25h-8q-25 0 -47 25l-137 168q-20 20 -21 41v14q0 14 10.5 19.5t28.5 -9.5l170 -176l174 176q18 14 28.5 9t10.5 -19z" />
    <glyph glyph-name="uni0312" unicode="&#x312;" 
d="M-295 1427v107q0 51 34 93t83 56q14 4 16 -8t-8 -18q-70 -43 -70 -109l45 -20q33 -10 33 -37v-64q0 -31 -33 -30h-67q-33 -1 -33 30z" />
    <glyph glyph-name="uni0326" unicode="&#x326;" 
d="M-156 -166v-106q0 -51 -33.5 -93.5t-82.5 -56.5q-14 -4 -16.5 8.5t7.5 18.5q70 43 70 108l-45 21q-33 10 -33 37v63q0 31 33 31h68q32 0 32 -31z" />
    <glyph glyph-name="uni0327" unicode="&#x327;" 
d="M-164 -240q0 -78 -42 -118.5t-101 -40.5t-93 25.5t-42 47.5t2 27l41 14q14 6 18 -6q18 -37 62 -37q78 0 77 82q0 49 -30.5 64.5t-69.5 5.5l-29 -2l-47 18q-12 6 -10 21l66 155h73l-53 -125q66 20 122 -16.5t56 -114.5z" />
    <glyph glyph-name="uni0328" unicode="&#x328;" 
d="M-399 -228q1 -116 113 -116q56 0 85 47q8 14 25 6l10 -8q14 -8 8 -23q-10 -39 -51 -68.5t-109.5 -29.5t-121 42t-52.5 123t60.5 148.5t136.5 106.5h51q-57 -35 -106 -101.5t-49 -126.5z" />
    <glyph glyph-name="uni0335" unicode="&#x335;" 
d="M-752 381q-33 0 -32 31v32q0 31 32 31h564q33 0 32 -31v-32q0 -31 -32 -31h-564z" />
    <glyph glyph-name="uni0336" unicode="&#x336;" 
d="M-1434 381q-33 0 -32 31v32q0 31 32 31h1244q33 0 32 -31v-32q0 -31 -32 -31h-1244z" />
    <glyph glyph-name="uni0337" unicode="&#x337;" 
d="M-557 0h-31q-20 0 -26 12t2 25l450 1071q12 31 41 31h35q16 1 22 -11t1 -26l-451 -1071q-14 -31 -43 -31z" />
    <glyph glyph-name="uni0338" unicode="&#x338;" 
d="M-682 0h-31q-20 0 -26 12t2 25l575 1366q12 31 41 31h35q16 0 22 -12t1 -25l-576 -1366q-16 -31 -43 -31z" />
    <glyph glyph-name="uni0394" unicode="&#x394;" horiz-adv-x="1411" 
d="M705 1192l-410 -1092h821zM1225 0h-1041q-14 0 -23 13t-3 30l510 1372q8 18 14 19h45q8 0 14 -19l512 -1374q6 -13 -3 -27t-25 -14z" />
    <glyph glyph-name="Pi" unicode="&#x3a0;" horiz-adv-x="1187" 
d="M993 1434q33 0 33 -31v-1374q0 -9 -8 -19t-19 -10h-53q-27 0 -26 29v1306h-650v-1306q0 -9 -8 -19t-20 -10h-54q-10 0 -18 9t-8 20v1374q0 31 33 31h798z" />
    <glyph glyph-name="uni03A9" unicode="&#x3a9;" horiz-adv-x="1632" 
d="M1446 100q31 0 31 -28v-43q0 -29 -31 -29h-494q-20 0 -22 27t18 32q69 26 177 144q235 258 235 592q0 145 -53 258t-137 174t-176 92q-91 31 -179 31t-179 -31t-175 -92t-137 -174q-54 -113 -54 -249t36 -254q61 -200 199 -347q108 -118 177 -144q16 -3 16 -31t-20 -28
h-492q-31 0 -30 29v43q0 29 30 28h301q-59 54 -103 102q-231 254 -228 593q0 293 186 474t473 181t473 -180t186 -463t-124 -468q-60 -87 -104 -136t-103 -103h303z" />
    <glyph glyph-name="uni03BC" unicode="&#x3bc;" horiz-adv-x="1044" 
d="M911 0h-53q-23 0 -39 29l-45 69q-86 -114 -259 -114t-253 106v-493q0 -29 -26 -29h-54q-25 0 -24 29v1243q0 27 26 26h49q9 0 19 -8t10 -18v-486q0 -283 264 -282q119 0 184 58t64 173v537q0 27 27 26h51q27 0 27 -26v-650q2 -67 45 -153q18 -37 -13 -37z" />
    <glyph glyph-name="pi" unicode="&#x3c0;" horiz-adv-x="1251" 
d="M1061 866q35 0 35 -32v-29q0 -33 -35 -33h-94v-549q0 -89 39 -144q19 -33 27 -43q9 -12 3 -24t-22 -12h-41q-27 0 -45 29q-2 4 -6 10q-53 86 -60 170v563h-436v-741q0 -31 -31 -31h-45q-29 0 -28 31v739q-80 -6 -166 -63q-12 -8 -25 -1q-12 7 -12 21v29q0 27 28 45
q4 2 11 6q86 53 170 59h733z" />
    <glyph glyph-name="Wgrave" unicode="&#x1e80;" horiz-adv-x="1755" 
d="M1634 1434q12 0 19.5 -8.5t5.5 -20.5l-359 -1385q-6 -20 -20 -20h-25q-18 0 -24 20l-354 1160l-357 -1160q-6 -20 -20 -20h-25q-16 0 -22 20l-355 1385q-2 12 5.5 20.5t19.5 8.5h55q23 0 29 -29l285 -1149l354 1155q6 23 20 23h23q12 0 20 -23l355 -1155l284 1149
q8 29 29 29h57zM1034 1602l-315 124q-27 14 -17 43l15 31q16 31 43 15l297 -160q25 -14 12 -33l-4 -12q-8 -16 -31 -8z" />
    <glyph glyph-name="wgrave" unicode="&#x1e81;" horiz-adv-x="1280" 
d="M1176 866q35 0 20 -43l-268 -803q-8 -20 -25 -20h-29q-16 0 -22 20l-213 674l-211 -676q-8 -18 -25 -18h-26q-20 0 -27 18l-268 805q-14 43 20 43h54q25 0 30 -20l207 -660l207 660q6 20 23 20h32q16 0 23 -20l209 -660l205 660q6 20 32 20h52zM731 1028l-266 221
q-25 18 -2 45l29 35q25 29 47 2l227 -256q18 -20 8 -37l-6 -10q-17 -18 -37 0z" />
    <glyph glyph-name="Wacute" unicode="&#x1e82;" horiz-adv-x="1755" 
d="M1634 1434q12 0 19.5 -8.5t5.5 -20.5l-359 -1385q-6 -20 -20 -20h-25q-18 0 -24 20l-354 1160l-357 -1160q-6 -20 -20 -20h-25q-16 0 -22 20l-355 1385q-2 12 5.5 20.5t19.5 8.5h55q23 0 29 -29l285 -1149l354 1155q6 23 20 23h23q12 0 20 -23l355 -1155l284 1149
q8 29 29 29h57zM727 1599q-23 -8 -31 9l-4 12q-12 18 13 33l296 159q27 16 43 -14l15 -31q10 -29 -17 -43z" />
    <glyph glyph-name="wacute" unicode="&#x1e83;" horiz-adv-x="1280" 
d="M1176 866q35 0 20 -43l-268 -803q-8 -20 -25 -20h-29q-16 0 -22 20l-213 674l-211 -676q-8 -18 -25 -18h-26q-20 0 -27 18l-268 805q-14 43 20 43h54q25 0 30 -20l207 -660l207 660q6 20 23 20h32q16 0 23 -20l209 -660l205 660q6 20 32 20h52zM522 1028q-20 -18 -37 0
l-6 10q-10 16 8 37l228 256q23 27 47 -2l29 -35q23 -27 -3 -45z" />
    <glyph glyph-name="Wdieresis" unicode="&#x1e84;" horiz-adv-x="1755" 
d="M1634 1434q12 0 19.5 -8.5t5.5 -20.5l-359 -1385q-6 -20 -20 -20h-25q-18 0 -24 20l-354 1160l-357 -1160q-6 -20 -20 -20h-25q-16 0 -22 20l-355 1385q-2 12 5.5 20.5t19.5 8.5h55q23 0 29 -29l285 -1149l354 1155q6 23 20 23h23q12 0 20 -23l355 -1155l284 1149
q8 29 29 29h57zM986.5 1671q-21.5 0 -37 14.5t-15.5 36t15.5 36t37 14.5t36.5 -14.5t15 -36t-15 -36t-36.5 -14.5zM759.5 1671q-22.5 0 -36.5 14.5t-14 36t14 36t36.5 14.5t37 -14.5t14.5 -36t-14.5 -36t-37 -14.5z" />
    <glyph glyph-name="wdieresis" unicode="&#x1e85;" horiz-adv-x="1280" 
d="M1176 866q35 0 20 -43l-268 -803q-8 -20 -25 -20h-29q-16 0 -22 20l-213 674l-211 -676q-8 -18 -25 -18h-26q-20 0 -27 18l-268 805q-14 43 20 43h54q25 0 30 -20l207 -660l207 660q6 20 23 20h32q16 0 23 -20l209 -660l205 660q6 20 32 20h52zM749.5 1108
q-21.5 0 -37.5 14.5t-16 36t15.5 35.5t37.5 14t37 -14t15 -35.5t-15 -36t-36.5 -14.5zM522.5 1108q-22.5 0 -37 14.5t-14.5 36t14.5 35.5t37 14t36.5 -14t14 -35.5t-14 -36t-36.5 -14.5z" />
    <glyph glyph-name="Ygrave" unicode="&#x1ef2;" horiz-adv-x="1241" 
d="M1120 1434q12 0 20.5 -8.5t0.5 -20.5l-467 -784v-596q0 -25 -25 -25h-59q-27 0 -27 25v596l-463 784q-14 29 17 29h63q20 0 39 -29l399 -678l406 682q16 25 39 25h57zM778 1606l-315 125q-27 14 -17 43l15 30q16 31 43 15l297 -160q25 -14 12 -33l-4 -12q-8 -16 -31 -8z
" />
    <glyph glyph-name="ygrave" unicode="&#x1ef3;" horiz-adv-x="1011" 
d="M911 866q14 0 20.5 -12t0.5 -31l-590 -1159q-8 -16 -25 -16h-55q-14 0 -18 12t4 31l205 409l-371 723q-8 12 -3 27.5t21 15.5h54q18 0 32 -30l320 -631l332 643q8 18 26 18h47zM600 1028l-266 221q-25 18 -2 45l28 35q25 29 48 2l227 -256q18 -20 8 -37l-6 -10
q-17 -18 -37 0z" />
    <glyph glyph-name="endash" unicode="&#x2013;" horiz-adv-x="1122" 
d="M184 418q-27 0 -26 26v37q0 27 26 27h754q29 0 29 -27v-37q0 -27 -29 -26h-754z" />
    <glyph glyph-name="emdash" unicode="&#x2014;" horiz-adv-x="1667" 
d="M184 418q-27 0 -26 26v37q0 27 26 27h1301q27 0 26 -27v-37q0 -27 -26 -26h-1301z" />
    <glyph glyph-name="quoteleft" unicode="&#x2018;" horiz-adv-x="382" 
d="M102 1128v132q0 139 160 215q12 9 24 -11t-3 -30q-109 -53 -109 -162l82 -29q25 -6 25 -29v-86q0 -31 -33 -30h-113q-33 -1 -33 30z" />
    <glyph glyph-name="quoteright" unicode="&#x2019;" horiz-adv-x="382" 
d="M281 1403v-131q0 -139 -160 -215q-11 -8 -23 11t2 30q109 53 109 162l-82 28q-25 6 -25 29v86q0 31 33 31h113q33 0 33 -31z" />
    <glyph glyph-name="quotesinglbase" unicode="&#x201a;" horiz-adv-x="382" 
d="M281 113v-131q0 -139 -160 -215q-11 -8 -23 11t2 29q109 53 109 162l-82 29q-25 6 -25 29v86q0 31 33 30h113q33 1 33 -30z" />
    <glyph glyph-name="quotedblleft" unicode="&#x201c;" horiz-adv-x="733" 
d="M453 1128v132q0 139 159 215q12 9 24 -11t-3 -30q-109 -53 -109 -162l82 -29q25 -6 25 -29v-86q0 -31 -33 -30h-113q-32 -1 -32 30zM102 1128v132q0 139 160 215q12 9 24 -11t-3 -30q-109 -53 -109 -162l82 -29q25 -6 25 -29v-86q0 -31 -33 -30h-113q-33 -1 -33 30z" />
    <glyph glyph-name="quotedblright" unicode="&#x201d;" horiz-adv-x="733" 
d="M631 1403v-131q0 -139 -160 -215q-11 -8 -23 11t3 30q109 53 108 162l-82 28q-25 6 -24 29v86q0 31 32 31h113q33 0 33 -31zM281 1403v-131q0 -139 -160 -215q-11 -8 -23 11t2 30q109 53 109 162l-82 28q-25 6 -25 29v86q0 31 33 31h113q33 0 33 -31z" />
    <glyph glyph-name="quotedblbase" unicode="&#x201e;" horiz-adv-x="733" 
d="M631 113v-131q0 -139 -160 -215q-11 -8 -23 11t3 29q109 53 108 162l-82 29q-25 6 -24 29v86q0 31 32 30h113q33 1 33 -30zM281 113v-131q0 -139 -160 -215q-11 -8 -23 11t2 29q109 53 109 162l-82 29q-25 6 -25 29v86q0 31 33 30h113q33 1 33 -30z" />
    <glyph glyph-name="dagger" unicode="&#x2020;" horiz-adv-x="919" 
d="M729 1022q33 0 33 -31v-28q0 -31 -33 -31h-219v-901q0 -31 -29 -31h-41q-12 0 -21 9t-9 22v901h-220q-33 0 -32 31v28q0 31 32 31h220v381q0 12 9 21t21 10h41q29 0 29 -31v-381h219z" />
    <glyph glyph-name="daggerdbl" unicode="&#x2021;" horiz-adv-x="919" 
d="M729 932h-219v-430h219q33 0 33 -31v-29q0 -31 -33 -30h-219v-381q0 -31 -29 -31h-41q-12 0 -21 9t-9 22v381h-220q-33 0 -32 30v29q0 31 32 31h220v430h-220q-33 0 -32 31v28q0 31 32 31h220v381q0 12 9 21t21 10h41q29 0 29 -31v-381h219q33 0 33 -31v-28
q0 -31 -33 -31z" />
    <glyph glyph-name="bullet" unicode="&#x2022;" horiz-adv-x="655" 
d="M327 446q-87 0 -147 60t-59 147q0 85 59 145q58 60 146 60t148 -60t60 -146t-60 -146t-147 -60z" />
    <glyph glyph-name="ellipsis" unicode="&#x2026;" horiz-adv-x="1372" 
d="M1106 0q-33 0 -33 33v73q0 33 33 33h72q33 0 32 -33v-73q0 -33 -32 -33h-72zM649 0q-33 0 -33 33v73q0 33 33 33h72q33 0 33 -33v-73q0 -33 -33 -33h-72zM193 0q-33 0 -33 33v73q0 33 33 33h71q33 0 33 -33v-73q0 -33 -33 -33h-71z" />
    <glyph glyph-name="perthousand" unicode="&#x2030;" horiz-adv-x="2486" 
d="M1921 450q0 -378 186 -378t187 381q0 275 -91 347q-38 30 -94 29q-188 -1 -188 -379zM1219 450q0 -378 186 -378t186 381q0 277 -91 347q-38 30 -93 29q-188 -1 -188 -379zM2388 450q0 -248 -69 -356q-69 -110 -212 -110t-212 108t-69 358q0 248 70 358q68 110 211 110
t212 -110t69 -358zM1686 450q0 -248 -69 -356q-69 -110 -212 -110t-212 108t-69 358q0 248 69 358t212 110t212 -110t69 -358zM383 1362q-188 0 -188 -379t186 -379t186 381q0 277 -91 347q-38 30 -93 30zM526 0q-20 0 -24 14t4 31l694 1358q16 31 37 31h49q31 0 12 -37
l-698 -1366q-14 -31 -39 -31h-35zM662 982q0 -248 -69 -356q-69 -110 -212 -110t-212 109t-69 357t69 358t212 110t212 -110t69 -358z" />
    <glyph glyph-name="guilsinglleft" unicode="&#x2039;" horiz-adv-x="692" 
d="M514 -16h-20q-27 0 -41 20l-267 371q-29 33 -28 51v14q0 18 28 52l267 370q14 20 41 21h20q37 0 12 -39l-247 -410l247 -411q25 -39 -12 -39z" />
    <glyph glyph-name="guilsinglright" unicode="&#x203a;" horiz-adv-x="692" 
d="M178 883h21q27 0 41 -21l266 -370q29 -33 29 -52v-14q0 -18 -29 -51l-266 -371q-14 -20 -41 -20h-21q-37 0 -12 39l248 411l-248 410q-25 39 12 39z" />
    <glyph glyph-name="fraction" unicode="&#x2044;" horiz-adv-x="313" 
d="M-219 0q-20 0 -25 14q-4 14 4 31l695 1358q16 31 37 31h49q31 0 12 -37l-698 -1366q-14 -31 -39 -31h-35z" />
    <glyph glyph-name="uni2070" unicode="&#x2070;" horiz-adv-x="761" 
d="M383 1516q-188 0 -188 -379t186 -379t186 381q0 277 -91 347q-38 30 -93 30zM662 1136q0 -248 -69 -356q-69 -110 -212 -110t-212 108t-69 358q0 248 69 358t212 110t212 -110t69 -358z" />
    <glyph glyph-name="uni2074" unicode="&#x2074;" horiz-adv-x="835" 
d="M526 975v481l-317 -481h317zM524 1577h76q18 0 18 -18v-584h97q20 0 20 -19v-49q0 -18 -20 -18h-97v-193q0 -20 -18 -20h-53q-20 0 -21 20v193h-407q-18 0 -19 18v41l2 15l398 600q4 14 24 14z" />
    <glyph glyph-name="uni2075" unicode="&#x2075;" horiz-adv-x="759" 
d="M659 954q-1 -108 -69 -196t-202 -88t-201 72t-66 159q0 20 18 21h58q16 0 16 -15q0 -51 44 -101t130 -50t132 66t46 152q0 85 -58 137t-137 49t-134 -60q-6 -8 -25 -4l-72 16q-16 4 -14 18l76 439q4 18 20 18h361q20 0 20 -18v-49q0 -18 -20 -19h-301l-56 -307
q57 39 133 46q76 8 143 -18t113 -94q46 -66 45 -174z" />
    <glyph glyph-name="uni2076" unicode="&#x2076;" horiz-adv-x="741" 
d="M203 982q0 -84 45 -154t128 -70t127 57t44 153t-42 150q-42 56 -120 56t-130 -54t-52 -138zM381 1257q119 1 189 -75t71 -213q0 -137 -71 -218t-191 -81q-279 0 -279 452q0 481 283 482q111 0 167 -68t64 -154q0 -23 -14 -22h-55q-20 0 -21 16q-4 52 -38 98t-103 46
q-96 0 -138 -94t-46 -263q63 94 182 94z" />
    <glyph glyph-name="uni2077" unicode="&#x2077;" horiz-adv-x="704" 
d="M100 1495q-18 0 -18 16v48q0 20 18 20h504q10 0 16 -9t1 -20l-363 -856q-8 -16 -25 -16h-55q-27 0 -14 24l332 793h-396z" />
    <glyph glyph-name="uni2078" unicode="&#x2078;" horiz-adv-x="757" 
d="M193 927q0 -71 44 -121t143 -50t142 50t43 120t-53 120t-133 74q-82 -22 -134 -72t-52 -121zM539 1378q0 140 -163 140t-163 -146q0 -135 166 -176q76 18 118 58t42 124zM250 1151q-129 66 -129 234q0 89 65 154q66 65 193 65t189 -65t63 -167q0 -153 -123 -219
q66 -27 108 -90t41 -154q0 -91 -72 -166q-73 -73 -205 -73t-206 72t-74 166t42 155t108 88z" />
    <glyph glyph-name="uni2079" unicode="&#x2079;" horiz-adv-x="741" 
d="M365 1100q75 0 125 55t50 155t-48 153q-49 55 -127 55t-125 -58t-45 -160q0 -200 170 -200zM641 1123q0 -455 -269 -453q-129 0 -186 72t-63 149q0 23 16 22h56q16 0 18 -14q8 -55 43 -99q36 -44 114 -44t123 69q44 70 50 271q-57 -80 -185 -80t-194 79q-64 79 -64 215
t72 214q72 80 193 80q170 0 223 -123t53 -358z" />
    <glyph glyph-name="Euro" unicode="&#x20ac;" horiz-adv-x="1243" 
d="M778 1450q100 0 190 -28t126 -56q18 -14 4 -39l-27 -39q-12 -25 -41 -8q-119 70 -244 70q-194 0 -302 -123t-134 -332h320q31 0 30 -27v-28q0 -27 -30 -27h-330q-2 -27 -2 -75t4 -117h328q31 0 30 -27v-29q0 -27 -30 -26h-318q31 -205 140 -330t307 -125q141 0 270 94
q25 18 39 -2l29 -43q16 -25 -9 -43q-141 -106 -355 -106t-357 143t-178 412h-88q-31 0 -31 26v29q0 27 31 27h79q-4 61 -4 98t4 94h-79q-31 0 -31 27v28q0 27 31 27h88q35 267 177 411t363 144z" />
    <glyph glyph-name="uni2117" unicode="&#x2117;" horiz-adv-x="1777" 
d="M928 674q201 0 200 227q0 99 -43 149t-153 50h-193v-426h189zM1229 901q0 -92 -29 -159q-29 -68 -76 -98q-87 -57 -170 -56h-215v-316q0 -16 -14 -16h-66q-14 0 -14 16v893q0 20 21 21h290q273 0 273 -285zM890 70q263 0 448 192t186 453q0 261 -186 455t-448 194
q-264 0 -450 -195t-186 -455t186 -452q187 -192 450 -192zM890 -16q-304 0 -518 214t-214 518t215 519t518 215t517 -215t214 -519t-214 -518t-518 -214z" />
    <glyph glyph-name="trademark" unicode="&#x2122;" horiz-adv-x="1243" 
d="M1128 1434q12 0 13 -13v-526q0 -12 -13 -12h-57q-14 0 -14 12v373l-162 -373q-6 -12 -18 -12h-17q-10 0 -16 12l-162 373v-373q0 -12 -14 -12h-58q-12 0 -12 12v526q0 12 10 13h66q12 0 18 -13l176 -405l179 405q6 12 18 13h63zM508 1434q10 0 10 -13v-51q0 -12 -10 -12
h-150v-463q0 -12 -12 -12h-59q-12 0 -13 12v463h-159q-12 0 -13 12v51q0 12 13 13h393z" />
    <glyph glyph-name="uni2153" unicode="&#x2153;" horiz-adv-x="1779" 
d="M1395 918q262 0 262 -236q0 -154 -105 -217q60 -20 100 -98q26 -51 25 -121q-1 -113 -65 -188q-64 -74 -209 -74t-217 68t-72 161q0 23 23 23h51q16 0 19 -22q6 -47 37 -95q31 -49 147 -49q195 0 194 174q0 174 -201 176h-57q-20 0 -20 18v47q0 18 20 19h53
q184 0 185 170q0 158 -176 157q-117 0 -148 -51q-32 -51 -35 -98q0 -14 -18 -14h-51q-23 0 -23 26q0 92 73 158t208 66zM485 0q-20 0 -24 14t4 31l694 1358q16 31 37 31h49q31 0 12 -37l-698 -1366q-14 -31 -39 -31h-35zM528 616q18 0 19 -18v-47q0 -18 -19 -19h-426
q-20 0 -20 19v47q0 18 20 18h166v689l-135 -103q-10 -8 -20 -4t-11 16v58q0 14 19 24l158 131q8 6 22 7h41q18 0 18 -21v-797h168z" />
    <glyph glyph-name="uni2154" unicode="&#x2154;" horiz-adv-x="1890" 
d="M1503 918q262 0 262 -236q0 -154 -104 -217q25 -7 49 -27t50 -71t26 -121q0 -113 -65 -188q-65 -74 -210 -74t-217 68t-71 161q0 23 22 23h51q16 0 20 -22q16 -103 88 -130q38 -14 95 -14q195 0 195 174t-201 176h-57q-20 0 -21 18v47q0 18 21 19h53q184 0 184 170
q0 158 -176 157q-116 0 -147 -51q-32 -51 -35 -98q0 -14 -19 -14h-51q-23 0 -22 26q0 92 72 158q73 66 208 66zM596 0q-20 0 -25 14q-4 14 4 31l695 1358q16 31 37 31h49q31 0 12 -37l-698 -1366q-14 -31 -39 -31h-35zM388 1450q270 0 269 -238q0 -112 -112 -247l-305 -347
h422q20 0 20 -18v-49q0 -18 -20 -19h-539q-18 0 -19 19v33q0 12 8 21t169 191q160 182 168 191q117 131 116 230q0 150 -172 149q-106 0 -148 -47t-42 -105q0 -14 -15 -14h-61q-16 0 -16 21q0 93 66 161q67 68 211 68z" />
    <glyph glyph-name="oneeighth" unicode="&#x215b;" horiz-adv-x="1757" 
d="M1188 240q0 -70 44 -120t143 -50t143 50q43 50 43 120q1 70 -53 120t-134 74q-82 -23 -134 -73q-52 -51 -52 -121zM1534 692q0 139 -163 139t-163 -145q0 -135 166 -176q76 18 118 58t42 124zM1245 465q-129 66 -129 234q0 89 66 154t192 65t190 -65q62 -65 62 -167
q0 -153 -123 -219q66 -27 108 -90t42 -154t-73 -165t-205 -74t-206 72q-73 72 -73 166t42 155t107 88zM483 0q-20 0 -24 14t4 31l694 1358q14 31 37 31h49q31 0 12 -37l-698 -1366q-16 -31 -39 -31h-35zM528 616q18 0 19 -18v-47q0 -18 -19 -19h-426q-20 0 -20 19v47
q0 18 20 18h166v689l-135 -103q-10 -8 -20 -4t-11 16v58q0 14 19 24l158 131q8 6 22 7h41q18 0 18 -21v-797h168z" />
    <glyph glyph-name="threeeighths" unicode="&#x215c;" horiz-adv-x="1841" 
d="M1272 240q0 -70 44 -120t143 -50t143 50q43 50 43 120q1 70 -53 120t-134 74q-82 -23 -134 -73q-52 -51 -52 -121zM1618 692q0 139 -163 139t-163 -145q0 -135 166 -176q76 18 118 58t42 124zM1329 465q-129 66 -129 234q0 89 66 154t192 65t190 -65q62 -65 62 -167
q0 -153 -123 -219q66 -27 108 -90t42 -154t-73 -165t-205 -74t-206 72q-73 72 -73 166t42 155t107 88zM563 0q-20 0 -24 14t4 31l694 1358q16 31 37 31h49q31 0 12 -37l-698 -1366q-14 -31 -39 -31h-35zM401 1450q262 0 263 -236q0 -154 -105 -217q25 -8 49 -27
q24 -18 50 -70t26 -122q0 -114 -64 -188t-210 -74q-145 0 -217 69t-72 160q0 23 22 23h52q16 0 19 -22q14 -103 88 -130q38 -14 95 -14q195 0 195 174t-201 176h-57q-20 0 -21 19v47q0 18 21 18h53q184 0 184 170q0 158 -176 158q-116 0 -147 -51q-32 -51 -35 -99
q0 -14 -18 -14h-52q-23 0 -22 27q1 91 73 157t207 66z" />
    <glyph glyph-name="fiveeighths" unicode="&#x215d;" horiz-adv-x="1802" 
d="M1233 240q0 -70 44 -120t143 -50t143 50q43 50 43 120t-54 120t-133 74q-82 -23 -134 -73q-52 -51 -52 -121zM1579 692q0 139 -163 139t-163 -145q0 -135 166 -176q76 18 118 58t42 124zM1290 465q-129 66 -129 234q0 89 66 154q67 65 193 65t188 -65t63 -167
q0 -153 -123 -219q66 -27 108 -90t42 -154t-73 -165t-205 -74t-206 72t-74 166t43 155q42 61 107 88zM522 0q-20 0 -24 14t4 31l694 1358q16 31 37 31h49q31 0 12 -37l-698 -1366q-14 -31 -39 -31h-35zM659 800q-1 -108 -69 -196t-202 -88t-201 72t-66 160q0 20 18 20h58
q16 0 16 -14q0 -52 44 -102t130 -50t132 67t46 151t-58 137q-58 51 -137 49t-134 -60q-6 -8 -25 -4l-72 16q-16 4 -14 19l76 438q4 18 20 19h361q20 0 20 -19v-49q0 -18 -20 -18h-301l-56 -308q57 39 133 46q76 8 143 -18t113 -94q46 -66 45 -174z" />
    <glyph glyph-name="seveneighths" unicode="&#x215e;" horiz-adv-x="1597" 
d="M1028 240q0 -70 44 -120t143 -50t143 50q43 50 43 120q1 70 -53 120t-134 74q-82 -23 -134 -73q-52 -51 -52 -121zM1374 692q0 139 -163 139t-162 -145q-1 -135 165 -176q76 18 118 58t42 124zM1085 465q-129 66 -129 234q0 89 66 154t192 65t190 -65q62 -65 62 -167
q0 -153 -123 -219q66 -27 108 -90t42 -154t-73 -165t-205 -74q-131 0 -205 72t-74 166t42 155t107 88zM313 0q-20 0 -24 14t4 31l694 1358q16 31 37 31h49q31 0 12 -37l-698 -1366q-14 -31 -39 -31h-35zM100 1350q-18 0 -18 16v47q0 20 18 21h504q10 0 16 -10t1 -19
l-363 -856q-8 -16 -25 -17h-55q-27 0 -14 25l332 793h-396z" />
    <glyph glyph-name="arrowleft" unicode="&#x2190;" horiz-adv-x="1751" 
d="M158 769q0 15 6 22l436 405q23 25 45 2l21 -18q20 -20 -2 -45l-275 -310h1174q29 0 28 -30v-50q0 -31 -28 -30h-1176l277 -312q23 -25 2 -45l-21 -18q-22 -21 -45 2l-436 406q-6 6 -6 21z" />
    <glyph glyph-name="arrowup" unicode="&#x2191;" horiz-adv-x="1198" 
d="M653 29q0 -29 -30 -29h-50q-31 0 -30 29v1173l-310 -274q-25 -23 -45 -2l-18 20q-23 20 2 45l406 436q6 7 21 7t22 -7l405 -436q23 -25 2 -45l-18 -20q-20 -20 -45 2l-312 276v-1175z" />
    <glyph glyph-name="arrowright" unicode="&#x2192;" horiz-adv-x="1751" 
d="M188 715q-29 0 -28 30v50q0 31 28 30h1174l-275 310q-23 25 -2 45l21 18q20 23 45 -2l436 -405q6 -5 6 -21t-6 -22l-436 -406q-25 -23 -45 -2l-21 18q-20 20 2 45l277 312h-1176z" />
    <glyph glyph-name="arrowdown" unicode="&#x2193;" horiz-adv-x="1198" 
d="M545 1405q0 29 30 29h50q31 0 30 -29v-1174l310 275q25 23 45 2l18 -21q20 -20 -2 -45l-405 -436q-5 -6 -21 -6t-22 6l-406 436q-25 25 -2 45l18 21q20 20 45 -2l312 -277v1176z" />
    <glyph glyph-name="arrowboth" unicode="&#x2194;" horiz-adv-x="2226" 
d="M2068 776q0 -16 -6 -22l-436 -406q-25 -25 -45 -2l-20 19q-20 20 2 45l276 311h-1450l277 -311q23 -25 2 -45l-21 -19q-20 -23 -45 2l-436 406q-6 6 -6 21t6 22l436 405q25 23 45 2l21 -18q20 -20 -2 -45l-275 -310h1446l-274 310q-23 25 -2 45l20 18q20 20 45 -2
l436 -405q6 -5 6 -21z" />
    <glyph glyph-name="arrowupdn" unicode="&#x2195;" horiz-adv-x="1198" 
d="M599 1671q15 0 22 -6l405 -436q23 -25 2 -45l-18 -21q-20 -20 -45 2l-312 277v-1450l312 276q25 22 45 2l18 -20q20 -20 -2 -45l-405 -436q-5 -7 -21 -7t-22 7l-406 436q-25 25 -2 45l18 20q20 20 45 -2l310 -274v1446l-310 -275q-25 -23 -45 -2l-18 21q-23 20 2 45
l406 436q6 6 21 6z" />
    <glyph glyph-name="uni2196" unicode="&#x2196;" horiz-adv-x="1370" 
d="M817 1157v-27q0 -31 -33 -30l-411 -25l829 -829q18 -23 -2 -43l-35 -35q-23 -20 -41 -2l-831 831l-25 -415q-4 -33 -30 -33l-29 2q-29 0 -29 33l-22 596q0 8 10 18t20 10l594 -20q35 0 35 -31z" />
    <glyph glyph-name="uni2197" unicode="&#x2197;" horiz-adv-x="1370" 
d="M553 1130v27q0 31 35 31l594 20q10 0 20 -10t10 -18l-22 -596q0 -33 -29 -33l-28 -2q-27 0 -31 33l-25 415l-831 -831q-20 -18 -41 2l-35 35q-20 20 -2 43l829 829l-411 25q-33 0 -33 30z" />
    <glyph glyph-name="uni2198" unicode="&#x2198;" horiz-adv-x="1370" 
d="M1159 831q31 0 31 -34l20 -594q0 -11 -10 -21t-18 -10l-596 23q-33 0 -33 28l-2 29q0 27 33 31l415 24l-831 832q-20 20 2 41l35 34q20 20 43 3l829 -830l25 412q0 33 31 32h26z" />
    <glyph glyph-name="uni2199" unicode="&#x2199;" horiz-adv-x="1370" 
d="M238 831q31 0 30 -32l25 -412l829 830q23 18 43 -3l35 -34q20 -20 2 -41l-831 -832l415 -24q33 -4 33 -31l-2 -29q0 -28 -33 -28l-596 -23q-8 0 -18 10t-10 21l20 594q0 35 31 34h27z" />
    <glyph glyph-name="partialdiff" unicode="&#x2202;" horiz-adv-x="1075" 
d="M530.5 72q149.5 0 233.5 107.5t84 251.5t-85 253t-233.5 109t-236.5 -109t-88 -253t88 -251.5t237.5 -107.5zM531 -16q-192 0 -311.5 129t-119.5 319.5t120 320.5t316.5 130t301.5 -170q-49 403 -492 647q-29 18 -16 39l16 31q18 33 55 10q588 -324 553 -998
q-6 -205 -118.5 -331.5t-304.5 -126.5z" />
    <glyph glyph-name="emptyset" unicode="&#x2205;" horiz-adv-x="1775" 
d="M892 84q249 0 413.5 188.5t164.5 427t-127 412.5l-864 -864q164 -164 413 -164zM291 733.5q0 -237.5 121 -409.5l866 866q-164 160 -410.5 160t-411.5 -189.5t-165 -427zM1583 699.5q0 -289.5 -200.5 -502.5t-490.5 -213t-489 188l-163 -164q-23 -20 -43 0l-31 31
q-18 18 2 41l168 168q-158 199 -158 467q0 307 202 521t489.5 214t484.5 -184l121 120q23 23 49 0l24 -26q20 -20 -2 -45l-125 -125q162 -201 162 -490.5z" />
    <glyph glyph-name="product" unicode="&#x220f;" horiz-adv-x="1187" 
d="M999 1434q33 0 33 -31v-37q0 -31 -33 -31h-69v-1302q0 -33 -31 -33h-51q-31 0 -31 33v1302h-446v-1302q0 -33 -31 -33h-49q-31 0 -31 33v1302h-70q-33 0 -32 31v37q0 31 32 31h809z" />
    <glyph glyph-name="summation" unicode="&#x2211;" horiz-adv-x="1206" 
d="M1051 1374q0 -31 -33 -31h-725l352 -567q16 -33 17 -47v-24q0 -14 -17 -48l-350 -567h723q33 0 33 -31v-28q0 -31 -33 -31h-828q-33 0 -32 31v28q0 10 10 27l389 631l-389 626q-10 16 -10 31v29q0 31 32 31h828q33 0 33 -31v-29z" />
    <glyph glyph-name="minus" unicode="&#x2212;" horiz-adv-x="1122" 
d="M184 655q-27 0 -26 27v37q0 27 26 26h754q29 0 29 -26v-37q0 -27 -29 -27h-754z" />
    <glyph glyph-name="radical" unicode="&#x221a;" horiz-adv-x="1392" 
d="M1174 1434h38q16 0 24 -14t1 -31l-508 -1360q-12 -29 -33 -29h-28q-20 0 -37 29l-326 645l-92 -43q-31 -16 -43 10l-14 27q-14 29 14 43l158 75q31 12 43 -18l303 -596l456 1231q12 31 44 31z" />
    <glyph glyph-name="infinity" unicode="&#x221e;" horiz-adv-x="1783" 
d="M1282 442q123 0 181 82q59 82 59 190t-60 183q-60 76 -183 76q-122 0 -210 -75t-127 -189q37 -117 127 -192t213 -75zM502 442q123 0 213 75t127 192q-39 115 -128 189t-210 75q-121 0 -181 -76q-61 -75 -61 -183t58 -190t182 -82zM1300 1065q146 0 236 -90t90 -258
t-91 -267q-91 -100 -237 -100t-257 69q-110 69 -150 163q-39 -94 -149 -163t-256 -69t-237 100t-91 267q0 168 90 258t234 90t256 -61t153 -158q39 94 151 156t258 63z" />
    <glyph glyph-name="integral" unicode="&#x222b;" horiz-adv-x="860" 
d="M575 1669q72 0 101 -19t29 -83v-58q0 -33 -31 -32h-41q-31 0 -31 32v27q0 43 -37 43h-39q-17 0 -30 -16q-14 -16 -15 -41v-1731q-1 -77 -33 -109t-112 -32h-51q-70 0 -99 19t-28 83v58q0 33 30 32h39q31 0 31 -32v-27q0 -43 37 -43h39q16 0 31 16q14 16 14 41v1731
q0 70 30 106t115 35h51z" />
    <glyph glyph-name="approxequal" unicode="&#x2248;" horiz-adv-x="1116" 
d="M729 492q-98 0 -189 47t-149 47t-100 -24q-41 -24 -78 -62q-16 -14 -29 -4l-18 14q-10 10 -8 25q12 45 78 93t157 48h2q89 0 183 -47t136 -47t74 7t71 42q40 35 49 43t24 0l18 -17q14 -6 8 -24q-14 -47 -75 -93t-152 -48h-2zM729 750q-98 0 -189 47t-149 47t-100 -24
q-41 -24 -78 -62q-16 -14 -29 -4l-18 14q-10 10 -8 25q12 45 78 93t157 48h2q89 0 183 -47t136 -47t74 7t71 42q40 35 49 43t24 0l18 -17q14 -6 8 -24q-14 -47 -75 -93t-152 -48h-2z" />
    <glyph glyph-name="notequal" unicode="&#x2260;" horiz-adv-x="1122" 
d="M938 827h-260l-141 -245h401q29 0 29 -27v-37q0 -27 -29 -26h-453l-94 -164q-16 -27 -41 -13l-20 13q-31 16 -17 47l68 117h-197q-27 0 -26 26v37q0 27 26 27h248l141 245h-389q-27 0 -26 27v37q0 27 26 27h443l112 196q16 27 41 12l25 -12q27 -14 12 -45l-88 -151h209
q29 0 29 -27v-37q0 -27 -29 -27z" />
    <glyph glyph-name="lessequal" unicode="&#x2264;" horiz-adv-x="1224" 
d="M1034 -2h-839q-33 0 -33 31v28q0 31 33 31h839q33 0 33 -31v-28q0 -31 -33 -31zM158 715q0 18 24 28l828 297q33 12 43 -16l12 -27q10 -31 -18 -41l-725 -254l708 -294q31 -12 19 -41l-11 -25q-8 -31 -43 -16l-813 336q-25 10 -24 26v27z" />
    <glyph glyph-name="greaterequal" unicode="&#x2265;" horiz-adv-x="1224" 
d="M190 -2q-33 0 -32 31v28q0 31 32 31h840q33 0 33 -31v-28q0 -31 -33 -31h-840zM1067 715v-27q0 -16 -25 -26l-813 -336q-35 -14 -43 16l-10 25q-12 29 19 41l708 294l-725 254q-29 10 -18 41l12 27q10 29 43 16l827 -297q25 -10 25 -28z" />
    <glyph glyph-name="lozenge" unicode="&#x25ca;" horiz-adv-x="1193" 
d="M598 1317q-20 -40 -20 -43l-314 -559l314 -559l20 -45l20 45l312 559l-312 559q-12 18 -20 43zM1038 723v-14q0 -16 -18 -52l-354 -626q-18 -31 -45 -31h-48q-25 0 -43 31l-354 626q-18 35 -18 52v14q0 20 18 51l354 627q18 33 43 33h48q27 0 45 -33l354 -627
q18 -31 18 -51z" />
    <glyph glyph-name="heart" unicode="&#x2665;" horiz-adv-x="1966" 
d="M1387 1356q-85 0 -150 -21q-90 -30 -203 -180q-28 -37 -52 -37t-38 25q-143 213 -352 213q-98 0 -174 -46t-117 -106q-59 -96 -53 -233t76 -271t252 -302q184 -168 407 -304q223 137 408 305q183 167 251 299t76 267t-51 239q-41 64 -118 108t-162 44zM586 1450
q126 0 234 -58t163 -157q57 99 166 157t231 58q215 0 335 -138t107 -351q-17 -285 -304 -578q-166 -168 -506 -393q-16 -10 -30 -10t-30 10q-340 225 -505 393q-283 289 -304 575q-14 212 105 351q125 141 338 141z" />
    <glyph glyph-name="AE.ss01" horiz-adv-x="2048" 
d="M1075 430v821l-577 -821h577zM1921 1333h-735v-565h436q27 0 27 -25v-51q0 -25 -27 -24h-436v-568h733q10 0 19.5 -8t9.5 -18v-47q0 -10 -9.5 -18.5t-19.5 -8.5h-817q-27 0 -27 27v303h-643l-215 -303q-20 -27 -35 -27h-73q-12 0 -17.5 7t0.5 20l967 1386q12 20 31 21
h831q27 0 27 -27v-47q0 -27 -27 -27z" />
    <glyph glyph-name="B.ss01" horiz-adv-x="1282" 
d="M272 100h488q291 0 291 289q0 281 -242 281h-537v-570zM680 1333h-408v-567h490q111 0 169 60.5t58 229.5t-74.5 223t-234.5 54zM1165 365.5q0 -154.5 -97 -260t-271 -105.5h-604q-12 0 -21.5 9t-9.5 22v1372q0 12 9 21.5t22 9.5h550q360 0 361 -381q0 -250 -141 -322
q92 -31 147 -121t55 -244.5z" />
    <glyph glyph-name="C.ss01" horiz-adv-x="1308" 
d="M688 -16q-256 0 -412.5 197.5t-156.5 539.5t159.5 535.5t409.5 193.5q184 0 313 -87t185 -241q8 -27 -19 -35l-53 -14q-23 -8 -35 23q-41 111 -141 182.5t-250 71.5q-199 0 -327 -171t-128 -461t125 -462t330 -172q299 0 397 260q8 20 35 14l49 -10q27 -6 17 -35
q-57 -160 -185.5 -244.5t-312.5 -84.5z" />
    <glyph glyph-name="Cacute.ss01" horiz-adv-x="1308" 
d="M688 -16q-256 0 -412.5 197.5t-156.5 539.5t159.5 535.5t409.5 193.5q184 0 313 -87t185 -241q8 -27 -19 -35l-53 -14q-23 -8 -35 23q-41 111 -141 182.5t-250 71.5q-199 0 -327 -171t-128 -461t125 -462t330 -172q299 0 397 260q8 20 35 14l49 -10q27 -6 17 -35
q-57 -160 -185.5 -244.5t-312.5 -84.5zM539 1604q-23 -8 -31 8l-4 12q-12 18 12 33l297 160q27 16 43 -15l14 -30q10 -29 -16 -43z" />
    <glyph glyph-name="Ccaron.ss01" horiz-adv-x="1308" 
d="M688 -16q-256 0 -412.5 197.5t-156.5 539.5t159.5 535.5t409.5 193.5q184 0 313 -87t185 -241q8 -27 -19 -35l-53 -14q-23 -8 -35 23q-41 111 -141 182.5t-250 71.5q-199 0 -327 -171t-128 -461t125 -462t330 -172q299 0 397 260q8 20 35 14l49 -10q27 -6 17 -35
q-57 -160 -185.5 -244.5t-312.5 -84.5zM899 1853v-14q0 -16 -20 -41l-140 -168q-23 -25 -49 -24h-8q-25 0 -47 24l-137 168q-20 20 -21 41v14q0 14 10.5 19.5t28.5 -8.5l170 -176l174 176q18 14 28.5 9t10.5 -20z" />
    <glyph glyph-name="Ccedilla.ss01" horiz-adv-x="1308" 
d="M688 -16q-25 0 -37 2l-37 -86q66 20 122.5 -17t56.5 -115t-42 -118.5t-101.5 -40.5t-93.5 25.5t-42 48t2 26.5l41 15q12 6 18 -7q18 -37 62 -36q78 0 78 81q0 49 -31 64.5t-70 5.5l-28 -2l-47 18q-12 6 -11 21l54 125q-213 41 -338 232.5t-125 514t159.5 516t409.5 193.5
q184 0 313 -87t185 -241q8 -27 -19 -35l-53 -14q-23 -8 -35 23q-41 111 -141 182.5t-250 71.5q-199 0 -327 -171t-128 -461t125 -462t330 -172q299 0 397 260q8 20 35 14l49 -10q27 -6 17 -35q-57 -160 -185.5 -244.5t-312.5 -84.5z" />
    <glyph glyph-name="Cdotaccent.ss01" horiz-adv-x="1308" 
d="M688 -16q-256 0 -412.5 197.5t-156.5 539.5t159.5 535.5t409.5 193.5q184 0 313 -87t185 -241q8 -27 -19 -35l-53 -14q-23 -8 -35 23q-41 111 -141 182.5t-250 71.5q-199 0 -327 -171t-128 -461t125 -462t330 -172q299 0 397 260q8 20 35 14l49 -10q27 -6 17 -35
q-57 -160 -185.5 -244.5t-312.5 -84.5zM689 1665q-26 0 -42 17.5t-16 41t16.5 41t42 17.5t43 -17.5t17.5 -41.5t-17.5 -41t-43.5 -17z" />
    <glyph glyph-name="D.ss01" horiz-adv-x="1304" 
d="M1055 1034q0 150 -76 224.5t-217 74.5h-490v-1233h490q147 0 220 86t73 228v620zM766 1434q197 0 298 -98.5t101 -319.5v-582q0 -434 -399 -434h-578q-27 0 -26 27v1380q0 27 26 27h578z" />
    <glyph glyph-name="Eth.ss01" horiz-adv-x="1304" 
d="M1055 414v620q0 150 -76 224.5t-217 74.5h-490v-571h369q33 0 33 -31v-33q0 -31 -33 -30h-369v-568h490q147 0 220 86.5t73 227.5zM766 1434q197 0 298 -98.5t101 -319.5v-582q0 -434 -399 -434h-578q-27 0 -26 27v641h-84q-33 0 -33 30v33q0 31 33 31h84v645q0 27 26 27
h578z" />
    <glyph glyph-name="Dcaron.ss01" horiz-adv-x="1304" 
d="M1055 1034q0 150 -76 224.5t-217 74.5h-490v-1233h490q147 0 220 86t73 228v620zM766 1434q197 0 298 -98.5t101 -319.5v-582q0 -434 -399 -434h-578q-27 0 -26 27v1380q0 27 26 27h578zM874 1853v-14q0 -16 -20 -41l-139 -168q-23 -25 -49 -24h-9q-25 0 -47 24l-137 168
q-20 20 -20 41v14q0 14 10 19.5t29 -8.5l170 -176l174 176q18 14 28 9t10 -20z" />
    <glyph glyph-name="Dcroat.ss01" horiz-adv-x="1304" 
d="M1055 414v620q0 150 -76 224.5t-217 74.5h-490v-571h369q33 0 33 -31v-33q0 -31 -33 -30h-369v-568h490q147 0 220 86.5t73 227.5zM766 1434q197 0 298 -98.5t101 -319.5v-582q0 -434 -399 -434h-578q-27 0 -26 27v641h-84q-33 0 -33 30v33q0 31 33 31h84v645q0 27 26 27
h578z" />
    <glyph glyph-name="E.ss01" horiz-adv-x="1136" 
d="M1006 100q10 0 19 -8t9 -18v-47q0 -10 -9 -18.5t-19 -8.5h-818q-27 0 -26 27v1376q0 12 9 21.5t22 9.5h815q27 0 26 -27v-47q0 -27 -26 -27h-736v-565h437q27 0 26 -25v-51q0 -25 -26 -24h-437v-568h734z" />
    <glyph glyph-name="Eacute.ss01" horiz-adv-x="1136" 
d="M1006 100q10 0 19 -8t9 -18v-47q0 -10 -9 -18.5t-19 -8.5h-818q-27 0 -26 27v1376q0 12 9 21.5t22 9.5h815q27 0 26 -27v-47q0 -27 -26 -27h-736v-565h437q27 0 26 -25v-51q0 -25 -26 -24h-437v-568h734zM428 1604q-23 -8 -31 8l-4 12q-12 18 13 33l296 160q27 16 43 -15
l15 -30q10 -29 -17 -43z" />
    <glyph glyph-name="Ecaron.ss01" horiz-adv-x="1136" 
d="M1006 100q10 0 19 -8t9 -18v-47q0 -10 -9 -18.5t-19 -8.5h-818q-27 0 -26 27v1376q0 12 9 21.5t22 9.5h815q27 0 26 -27v-47q0 -27 -26 -27h-736v-565h437q27 0 26 -25v-51q0 -25 -26 -24h-437v-568h734zM788 1853v-14q0 -16 -20 -41l-139 -168q-23 -25 -49 -24h-9
q-25 0 -47 24l-137 168q-20 20 -20 41v14q0 14 10 19.5t29 -8.5l169 -176l175 176q18 14 28 9t10 -20z" />
    <glyph glyph-name="Ecircumflex.ss01" horiz-adv-x="1136" 
d="M1006 100q10 0 19 -8t9 -18v-47q0 -10 -9 -18.5t-19 -8.5h-818q-27 0 -26 27v1376q0 12 9 21.5t22 9.5h815q27 0 26 -27v-47q0 -27 -26 -27h-736v-565h437q27 0 26 -25v-51q0 -25 -26 -24h-437v-568h734zM369 1642v15q0 20 20 41l137 168q23 25 47 24h9q27 0 49 -24
l139 -168q20 -25 21 -41v-15q0 -14 -10.5 -19t-28.5 9l-174 176l-170 -176q-18 -14 -28.5 -9t-10.5 19z" />
    <glyph glyph-name="Edieresis.ss01" horiz-adv-x="1136" 
d="M1006 100q10 0 19 -8t9 -18v-47q0 -10 -9 -18.5t-19 -8.5h-818q-27 0 -26 27v1376q0 12 9 21.5t22 9.5h815q27 0 26 -27v-47q0 -27 -26 -27h-736v-565h437q27 0 26 -25v-51q0 -25 -26 -24h-437v-568h734zM687.5 1675q-21.5 0 -37 14.5t-15.5 36t15.5 36t37 14.5
t36.5 -14.5t15 -36t-15 -36t-36.5 -14.5zM460.5 1675q-22.5 0 -36.5 14.5t-14 36t14 36t36.5 14.5t37 -14.5t14.5 -36t-14.5 -36t-37 -14.5z" />
    <glyph glyph-name="Edotaccent.ss01" horiz-adv-x="1136" 
d="M1006 100q10 0 19 -8t9 -18v-47q0 -10 -9 -18.5t-19 -8.5h-818q-27 0 -26 27v1376q0 12 9 21.5t22 9.5h815q27 0 26 -27v-47q0 -27 -26 -27h-736v-565h437q27 0 26 -25v-51q0 -25 -26 -24h-437v-568h734zM579 1665q-26 0 -42.5 17.5t-16.5 41t16.5 41t42.5 17.5t43 -17.5
t17 -41.5t-17 -41t-43 -17z" />
    <glyph glyph-name="Egrave.ss01" horiz-adv-x="1136" 
d="M1006 100q10 0 19 -8t9 -18v-47q0 -10 -9 -18.5t-19 -8.5h-818q-27 0 -26 27v1376q0 12 9 21.5t22 9.5h815q27 0 26 -27v-47q0 -27 -26 -27h-736v-565h437q27 0 26 -25v-51q0 -25 -26 -24h-437v-568h734zM735 1606l-315 125q-27 14 -17 43l15 30q16 31 43 15l297 -160
q25 -14 12 -33l-4 -12q-8 -16 -31 -8z" />
    <glyph glyph-name="Emacron.ss01" horiz-adv-x="1136" 
d="M1006 100q10 0 19 -8t9 -18v-47q0 -10 -9 -18.5t-19 -8.5h-818q-27 0 -26 27v1376q0 12 9 21.5t22 9.5h815q27 0 26 -27v-47q0 -27 -26 -27h-736v-565h437q27 0 26 -25v-51q0 -25 -26 -24h-437v-568h734zM399 1665q-33 0 -32 31v24q0 31 32 31h369q33 0 33 -31v-24
q0 -31 -33 -31h-369z" />
    <glyph glyph-name="Eogonek.ss01" horiz-adv-x="1136" 
d="M791 -217q1 -107 113 -107q56 0 85 48q8 14 25 6l10 -9q14 -8 8 -22q-10 -39 -51 -68.5t-109.5 -29.5t-121 42t-52.5 119q0 139 160 238h-670q-27 0 -26 27v1376q0 12 9 21.5t22 9.5h815q27 0 26 -27v-47q1 -27 -26 -27h-736v-565h437q27 0 26 -25v-51q0 -25 -26 -24
h-437v-568h734q10 0 19 -8t9 -18v-47q0 -10 -9 -18.5t-19 -8.5h-88q-127 -100 -127 -217z" />
    <glyph glyph-name="F.ss01" horiz-adv-x="1130" 
d="M1004 1434q27 0 26 -27v-47q0 -27 -26 -27h-732v-616h433q27 0 26 -25v-49q0 -27 -26 -27h-433v-589q0 -27 -22 -27h-66q-23 0 -22 27v1380q0 27 26 27h816z" />
    <glyph glyph-name="G.ss01" horiz-adv-x="1359" 
d="M1190 649q29 0 29 -28v-596q0 -25 -21 -25h-37q-23 0 -22 25l-9 194q-63 -121 -177.5 -178t-254.5 -57q-258 0 -418.5 191.5t-160.5 540.5t166 541.5t430 192.5q217 0 340 -123t149 -289q4 -18 -14 -24l-62 -13q-25 -8 -28 17q-17 112 -101 214q-43 52 -114.5 85
t-159.5 33q-231 0 -361.5 -174.5t-130.5 -460t125 -458.5t357 -173q184 0 297.5 122t115.5 345h-309q-31 0 -31 29v41q0 29 31 28h371z" />
    <glyph glyph-name="Gbreve.ss01" horiz-adv-x="1359" 
d="M1190 649q29 0 29 -28v-596q0 -25 -21 -25h-37q-23 0 -22 25l-9 194q-63 -121 -177.5 -178t-254.5 -57q-258 0 -418.5 191.5t-160.5 540.5t166 541.5t430 192.5q217 0 340 -123t149 -289q4 -18 -14 -24l-62 -13q-25 -8 -28 17q-17 112 -101 214q-43 52 -114.5 85
t-159.5 33q-231 0 -361.5 -174.5t-130.5 -460t125 -458.5t357 -173q184 0 297.5 122t115.5 345h-309q-31 0 -31 29v41q0 29 31 28h371zM961 1829q14 -6 8 -21q-80 -197 -279 -196q-84 0 -141 32.5t-82 69.5t-47 94q-6 16 10 23l45 20q16 6 23 -8q61 -156 195 -155.5
t196 155.5q8 14 22 8z" />
    <glyph glyph-name="Gcommaaccent.ss01" horiz-adv-x="1359" 
d="M772 -158v-106q0 -51 -33.5 -93t-83.5 -57q-14 -4 -16 8.5t8 18.5q70 43 70 108l-45 21q-33 10 -33 37v63q0 31 33 31h67q33 0 33 -31zM1190 649q29 0 29 -28v-596q0 -25 -21 -25h-37q-23 0 -22 25l-9 194q-63 -121 -177.5 -178t-254.5 -57q-258 0 -418.5 191.5
t-160.5 540.5t166 541.5t430 192.5q217 0 340 -123t149 -289q4 -18 -14 -24l-62 -13q-25 -8 -28 17q-17 112 -101 214q-43 52 -114.5 85t-159.5 33q-231 0 -361.5 -174.5t-130.5 -460t125 -458.5t357 -173q184 0 297.5 122t115.5 345h-309q-31 0 -31 29v41q0 29 31 28h371z
" />
    <glyph glyph-name="Gdotaccent.ss01" horiz-adv-x="1359" 
d="M1190 649q29 0 29 -28v-596q0 -25 -21 -25h-37q-23 0 -22 25l-9 194q-63 -121 -177.5 -178t-254.5 -57q-258 0 -418.5 191.5t-160.5 540.5t166 541.5t430 192.5q217 0 340 -123t149 -289q4 -18 -14 -24l-62 -13q-25 -8 -28 17q-17 112 -101 214q-43 52 -114.5 85
t-159.5 33q-231 0 -361.5 -174.5t-130.5 -460t125 -458.5t357 -173q184 0 297.5 122t115.5 345h-309q-31 0 -31 29v41q0 29 31 28h371zM693 1665q-26 0 -42 17.5t-16 41t16.5 41t42 17.5t43 -17.5t17.5 -41.5t-17.5 -41t-43.5 -17z" />
    <glyph glyph-name="I.ss01" horiz-adv-x="602" 
d="M436 1333h-80v-1233h80q27 0 27 -26v-47q0 -27 -27 -27h-270q-27 0 -27 27v47q0 27 27 26h80v1233h-80q-27 0 -27 27v47q0 27 27 27h270q27 0 27 -27v-47q0 -27 -27 -27z" />
    <glyph glyph-name="Iacute.ss01" horiz-adv-x="602" 
d="M436 1333h-80v-1233h80q27 0 27 -26v-47q0 -27 -27 -27h-270q-27 0 -27 27v47q0 27 27 26h80v1233h-80q-27 0 -27 27v47q0 27 27 27h270q27 0 27 -27v-47q0 -27 -27 -27zM152 1604q-23 -8 -31 8l-4 12q-12 18 12 33l297 160q27 16 43 -15l14 -30q10 -29 -16 -43z" />
    <glyph glyph-name="Icircumflex.ss01" horiz-adv-x="602" 
d="M436 1333h-80v-1233h80q27 0 27 -26v-47q0 -27 -27 -27h-270q-27 0 -27 27v47q0 27 27 26h80v1233h-80q-27 0 -27 27v47q0 27 27 27h270q27 0 27 -27v-47q0 -27 -27 -27zM92 1642v15q0 20 21 41l137 168q23 25 47 24h8q27 0 49 -24l140 -168q20 -25 20 -41v-15
q0 -14 -10.5 -19t-28.5 9l-174 176l-170 -176q-18 -14 -28.5 -9t-10.5 19z" />
    <glyph glyph-name="Idieresis.ss01" horiz-adv-x="602" 
d="M436 1333h-80v-1233h80q27 0 27 -26v-47q0 -27 -27 -27h-270q-27 0 -27 27v47q0 27 27 26h80v1233h-80q-27 0 -27 27v47q0 27 27 27h270q27 0 27 -27v-47q0 -27 -27 -27zM411.5 1675q-21.5 0 -37.5 14.5t-16 36t15.5 36t37.5 14.5t37 -14.5t15 -36t-15 -36t-36.5 -14.5z
M184.5 1675q-22.5 0 -37 14.5t-14.5 36t14.5 36t37 14.5t37 -14.5t14.5 -36t-14.5 -36t-37 -14.5z" />
    <glyph glyph-name="Idotaccent.ss01" horiz-adv-x="602" 
d="M436 1333h-80v-1233h80q27 0 27 -26v-47q0 -27 -27 -27h-270q-27 0 -27 27v47q0 27 27 26h80v1233h-80q-27 0 -27 27v47q0 27 27 27h270q27 0 27 -27v-47q0 -27 -27 -27zM303.5 1665q-24.5 0 -42 17.5t-17.5 41.5t16 41t42 17t43 -17.5t17 -41.5t-17 -41t-41.5 -17z" />
    <glyph glyph-name="Igrave.ss01" horiz-adv-x="602" 
d="M436 1333h-80v-1233h80q27 0 27 -26v-47q0 -27 -27 -27h-270q-27 0 -27 27v47q0 27 27 26h80v1233h-80q-27 0 -27 27v47q0 27 27 27h270q27 0 27 -27v-47q0 -27 -27 -27zM459 1606l-316 125q-27 14 -16 43l14 30q16 31 43 15l297 -160q25 -14 13 -33l-5 -12
q-7 -16 -30 -8z" />
    <glyph glyph-name="Imacron.ss01" horiz-adv-x="602" 
d="M436 1333h-80v-1233h80q27 0 27 -26v-47q0 -27 -27 -27h-270q-27 0 -27 27v47q0 27 27 26h80v1233h-80q-27 0 -27 27v47q0 27 27 27h270q27 0 27 -27v-47q0 -27 -27 -27zM123 1665q-33 0 -33 31v24q0 31 33 31h369q33 0 32 -31v-24q0 -31 -32 -31h-369z" />
    <glyph glyph-name="Iogonek.ss01" horiz-adv-x="602" 
d="M302 -399q-69 0 -121 42t-52 119q0 139 160 238h-123q-27 0 -27 27v47q0 27 27 26h80v1233h-80q-27 0 -27 27v47q0 27 27 27h270q27 0 27 -27v-47q0 -27 -27 -27h-80v-1233h80q27 0 27 -26v-47q0 -27 -27 -27h-88q-127 -100 -127 -217q0 -51 29 -79t84.5 -28t85.5 48
q8 14 24 6l11 -9q14 -8 8 -22q-10 -39 -51 -68.5t-110 -29.5z" />
    <glyph glyph-name="M.ss01" horiz-adv-x="1554" 
d="M1317 1434h47q10 0 19.5 -8.5t9.5 -18.5v-1382q0 -25 -21 -25h-65q-25 0 -25 25v1177l-471 -776q-16 -25 -31 -25h-6q-16 0 -31 25l-471 776v-1177q0 -25 -24 -25h-66q-20 0 -20 25v1382q0 27 26 27h50q14 0 32 -31l508 -834l506 834q18 31 33 31z" />
    <glyph glyph-name="N.ss01" horiz-adv-x="1339" 
d="M1155 1434q25 0 25 -27v-1382q0 -25 -25 -25h-49q-18 0 -37 25l-797 1189v-1189q0 -25 -22 -25h-66q-23 0 -22 25v1382q0 27 24 27h47q18 0 39 -31l797 -1186v1190q0 27 21 27h65z" />
    <glyph glyph-name="Nacute.ss01" horiz-adv-x="1339" 
d="M1155 1434q25 0 25 -27v-1382q0 -25 -25 -25h-49q-18 0 -37 25l-797 1189v-1189q0 -25 -22 -25h-66q-23 0 -22 25v1382q0 27 24 27h47q18 0 39 -31l797 -1186v1190q0 27 21 27h65zM520 1604q-23 -8 -31 8l-4 12q-12 18 13 33l297 160q27 16 43 -15l14 -30q10 -29 -16 -43
z" />
    <glyph glyph-name="Ncaron.ss01" horiz-adv-x="1339" 
d="M1155 1434q25 0 25 -27v-1382q0 -25 -25 -25h-49q-18 0 -37 25l-797 1189v-1189q0 -25 -22 -25h-66q-23 0 -22 25v1382q0 27 24 27h47q18 0 39 -31l797 -1186v1190q0 27 21 27h65zM881 1853v-14q0 -16 -21 -41l-139 -168q-23 -25 -49 -24h-8q-25 0 -48 24l-137 168
q-20 20 -20 41v14q0 14 10 19.5t29 -8.5l170 -176l174 176q18 14 28.5 9t10.5 -20z" />
    <glyph glyph-name="Ncommaaccent.ss01" horiz-adv-x="1339" 
d="M737 -158v-106q0 -51 -33.5 -93t-82.5 -57q-14 -4 -16.5 8.5t7.5 18.5q70 43 70 108l-45 21q-33 10 -33 37v63q0 31 33 31h68q32 0 32 -31zM1155 1434q25 0 25 -27v-1382q0 -25 -25 -25h-49q-18 0 -37 25l-797 1189v-1189q0 -25 -22 -25h-66q-23 0 -22 25v1382
q0 27 24 27h47q18 0 39 -31l797 -1186v1190q0 27 21 27h65z" />
    <glyph glyph-name="Eng.ss01" horiz-adv-x="1339" 
d="M1153 1434q27 0 27 -27v-1481q0 -53 -35 -99t-113 -110q-18 -16 -35 0l-26 27q-18 23 0 39q104 91 104 159t-39 134l-764 1138v-1187q0 -27 -24 -27h-62q-25 0 -24 27v1380q0 27 24 27h47q18 0 39 -31l797 -1186v1190q0 27 23 27h61z" />
    <glyph glyph-name="Ntilde.ss01" horiz-adv-x="1339" 
d="M1155 1434q25 0 25 -27v-1382q0 -25 -25 -25h-49q-18 0 -37 25l-797 1189v-1189q0 -25 -22 -25h-66q-23 0 -22 25v1382q0 27 24 27h47q18 0 39 -31l797 -1186v1190q0 27 21 27h65zM545 1726q-78 0 -113 -81q-10 -16 -29 -5l-18 11q-16 6 -8 24q47 133 170 133
q74 0 149.5 -50t102.5 -50q72 0 110 84q10 16 29 4l18 -10q16 -6 9 -25q-49 -133 -168 -133q-63 2 -138 50t-114 48z" />
    <glyph glyph-name="O.ss01" horiz-adv-x="1400" 
d="M701 84q224 0 345 176t121 456t-120.5 457t-345 177t-346.5 -177.5t-122 -457t122 -455.5t346 -176zM700.5 -16q-262.5 0 -422 192.5t-159.5 540.5t159.5 540.5t422 192.5t421 -192.5t158.5 -540.5t-158.5 -540.5t-421 -192.5z" />
    <glyph glyph-name="Oacute.ss01" horiz-adv-x="1400" 
d="M701 84q224 0 345 176t121 456t-120.5 457t-345 177t-346.5 -177.5t-122 -457t122 -455.5t346 -176zM700.5 -16q-262.5 0 -422 192.5t-159.5 540.5t159.5 540.5t422 192.5t421 -192.5t158.5 -540.5t-158.5 -540.5t-421 -192.5zM551 1604q-23 -8 -31 8l-4 12q-12 18 12 33
l297 160q27 16 43 -15l15 -30q10 -29 -17 -43z" />
    <glyph glyph-name="Ocircumflex.ss01" horiz-adv-x="1400" 
d="M701 84q224 0 345 176t121 456t-120.5 457t-345 177t-346.5 -177.5t-122 -457t122 -455.5t346 -176zM700.5 -16q-262.5 0 -422 192.5t-159.5 540.5t159.5 540.5t422 192.5t421 -192.5t158.5 -540.5t-158.5 -540.5t-421 -192.5zM492 1642v15q0 20 20 41l137 168
q23 25 47 24h9q27 0 49 -24l139 -168q20 -25 20 -41v-15q0 -14 -10.5 -19t-28.5 9l-174 176l-170 -176q-18 -14 -28 -9t-10 19z" />
    <glyph glyph-name="Odieresis.ss01" horiz-adv-x="1400" 
d="M701 84q224 0 345 176t121 456t-120.5 457t-345 177t-346.5 -177.5t-122 -457t122 -455.5t346 -176zM700.5 -16q-262.5 0 -422 192.5t-159.5 540.5t159.5 540.5t422 192.5t421 -192.5t158.5 -540.5t-158.5 -540.5t-421 -192.5zM810.5 1675q-21.5 0 -37 14.5t-15.5 36
t15 36t37 14.5t37 -14.5t15 -36t-15 -36t-36.5 -14.5zM583.5 1675q-22.5 0 -37 14.5t-14.5 36t14.5 36t37 14.5t37 -14.5t14.5 -36t-14.5 -36t-37 -14.5z" />
    <glyph glyph-name="Ograve.ss01" horiz-adv-x="1400" 
d="M701 84q224 0 345 176t121 456t-120.5 457t-345 177t-346.5 -177.5t-122 -457t122 -455.5t346 -176zM700.5 -16q-262.5 0 -422 192.5t-159.5 540.5t159.5 540.5t422 192.5t421 -192.5t158.5 -540.5t-158.5 -540.5t-421 -192.5zM858 1606l-315 125q-27 14 -17 43l15 30
q16 31 43 15l297 -160q25 -14 12 -33l-4 -12q-8 -16 -31 -8z" />
    <glyph glyph-name="Ohungarumlaut.ss01" horiz-adv-x="1400" 
d="M701 84q224 0 345 176t121 456t-120.5 457t-345 177t-346.5 -177.5t-122 -457t122 -455.5t346 -176zM700.5 -16q-262.5 0 -422 192.5t-159.5 540.5t159.5 540.5t422 192.5t421 -192.5t158.5 -540.5t-158.5 -540.5t-421 -192.5zM813 1595q-25 -18 -43 15q-12 16 14 39
l197 188q12 10 24.5 7t16.5 -15l22 -33q12 -27 -10 -43zM506 1595q-20 -13 -38.5 8t9.5 46l197 188q29 23 45 -8l22 -35q16 -25 -12 -43z" />
    <glyph glyph-name="Omacron.ss01" horiz-adv-x="1400" 
d="M701 84q224 0 345 176t121 456t-120.5 457t-345 177t-346.5 -177.5t-122 -457t122 -455.5t346 -176zM700.5 -16q-262.5 0 -422 192.5t-159.5 540.5t159.5 540.5t422 192.5t421 -192.5t158.5 -540.5t-158.5 -540.5t-421 -192.5zM522 1665q-33 0 -33 31v24q0 31 33 31h369
q33 0 33 -31v-24q0 -31 -33 -31h-369z" />
    <glyph glyph-name="Oslash.ss01" horiz-adv-x="1400" 
d="M700 84q225 0 346 176t121 475t-147 471l-543 -1061q96 -61 223 -61zM233 717q0 -338 164 -508l547 1067q-102 74 -244 74q-223 0 -345 -177t-122 -456zM1280 717q0 -348 -158.5 -540.5t-421.5 -192.5q-152 0 -272 67l-18 -37q-16 -31 -41 -30h-45q-41 0 -19 45l41 80
q-227 190 -227 608q0 348 159.5 540.5t421.5 192.5q166 0 293 -78l25 47q14 31 37 31h59q31 0 12 -37l-53 -102q207 -197 207 -594z" />
    <glyph glyph-name="Otilde.ss01" horiz-adv-x="1400" 
d="M701 84q224 0 345 176t121 456t-120.5 457t-345 177t-346.5 -177.5t-122 -457t122 -455.5t346 -176zM700.5 -16q-262.5 0 -422 192.5t-159.5 540.5t159.5 540.5t422 192.5t421 -192.5t158.5 -540.5t-158.5 -540.5t-421 -192.5zM575 1726q-78 0 -112 -81q-10 -16 -29 -5
l-18 11q-16 6 -8 24q47 133 170 133q74 0 149.5 -50t101.5 -50q72 0 111 84q10 16 29 4l18 -10q16 -6 8 -25q-49 -133 -168 -133q-63 2 -138 50t-114 48z" />
    <glyph glyph-name="OE.ss01" horiz-adv-x="1789" 
d="M696 84q72 0 121 18v1231q-49 16 -123 17q-219 -2 -340 -179.5t-121 -455t121 -454.5t342 -177zM1663 1333h-735v-565h436q27 0 27 -25v-51q0 -25 -27 -24h-436v-568h733q10 0 19.5 -8t9.5 -18v-47q0 -10 -9.5 -18.5t-19.5 -8.5h-815q-72 -16 -148 -16
q-272 0 -425.5 202.5t-153.5 540.5t158.5 530.5t416.5 192.5q78 0 150 -16h819q27 0 27 -27v-47q0 -27 -27 -27z" />
    <glyph glyph-name="P.ss01" horiz-adv-x="1220" 
d="M655 639q334 0 334 347t-338 347h-381v-694h385zM1102 983q0 -227 -116 -335.5t-290 -108.5h-426v-514q0 -25 -22 -25h-66q-23 0 -22 25v1382q0 27 26 27h512q172 0 288 -112t116 -339z" />
    <glyph glyph-name="Q.ss01" horiz-adv-x="1417" 
d="M697 84q222 0 343 176t121 457t-120.5 457t-343 176t-343.5 -176.5t-121 -457t121 -456.5t343 -176zM696 -16q-258 0 -417.5 192.5t-159.5 540.5t159.5 540.5t418.5 192.5t419 -192.5t160 -528.5t-143 -528l186 -185q20 -20 0 -43l-33 -32q-20 -23 -43 0l-182 180
q-147 -137 -365 -137z" />
    <glyph glyph-name="R.ss01" horiz-adv-x="1234" 
d="M272 1333v-657h457q99 0 176 59q94 72 94 256.5t-79.5 263t-206.5 78.5h-441zM272 575v-550q0 -25 -24 -25h-62q-25 0 -24 25v1382q0 27 26 27h549q168 0 272.5 -111t104.5 -319q0 -326 -252 -406q90 -94 159 -245.5t81 -327.5q4 -25 -23 -25h-59q-25 0 -27 25
q-14 150 -82.5 306t-175.5 244h-463z" />
    <glyph glyph-name="Racute.ss01" horiz-adv-x="1234" 
d="M272 1333v-657h457q99 0 176 59q94 72 94 256.5t-79.5 263t-206.5 78.5h-441zM272 575v-550q0 -25 -24 -25h-62q-25 0 -24 25v1382q0 27 26 27h549q168 0 272.5 -111t104.5 -319q0 -326 -252 -406q90 -94 159 -245.5t81 -327.5q4 -25 -23 -25h-59q-25 0 -27 25
q-14 150 -82.5 306t-175.5 244h-463zM487 1604q-23 -8 -30 8l-4 12q-12 18 12 33l297 160q27 16 43 -15l14 -30q10 -29 -16 -43z" />
    <glyph glyph-name="Rcaron.ss01" horiz-adv-x="1234" 
d="M272 1333v-657h457q99 0 176 59q94 72 94 256.5t-79.5 263t-206.5 78.5h-441zM272 575v-550q0 -25 -24 -25h-62q-25 0 -24 25v1382q0 27 26 27h549q168 0 272.5 -111t104.5 -319q0 -326 -252 -406q90 -94 159 -245.5t81 -327.5q4 -25 -23 -25h-59q-25 0 -27 25
q-14 150 -82.5 306t-175.5 244h-463zM848 1853v-14q0 -16 -21 -41l-139 -168q-23 -25 -49 -24h-8q-25 0 -47 24l-138 168q-20 20 -20 41v14q0 14 10 19.5t29 -8.5l170 -176l174 176q18 14 28.5 9t10.5 -20z" />
    <glyph glyph-name="Rcommaaccent.ss01" horiz-adv-x="1234" 
d="M705 -158v-106q0 -51 -34 -93t-83 -57q-14 -4 -16.5 8.5t8.5 18.5q70 43 69 108l-45 21q-33 10 -33 37v63q0 31 33 31h68q33 0 33 -31zM272 1333v-657h457q99 0 176 59q94 72 94 256.5t-79.5 263t-206.5 78.5h-441zM272 575v-550q0 -25 -24 -25h-62q-25 0 -24 25v1382
q0 27 26 27h549q168 0 272.5 -111t104.5 -319q0 -326 -252 -406q90 -94 159 -245.5t81 -327.5q4 -25 -23 -25h-59q-25 0 -27 25q-14 150 -82.5 306t-175.5 244h-463z" />
    <glyph glyph-name="U.ss01" horiz-adv-x="1292" 
d="M1106 1434q25 0 24 -29v-924q0 -242 -98 -361.5t-332 -119.5h-108q-233 0 -331.5 120t-98.5 361v924q0 29 24 29h60q27 0 26 -29v-952q0 -180 81 -266.5t222 -86.5h142q141 0 222 86t81 267v952q0 29 24 29h62z" />
    <glyph glyph-name="Uacute.ss01" horiz-adv-x="1292" 
d="M1106 1434q25 0 24 -29v-924q0 -242 -98 -361.5t-332 -119.5h-108q-233 0 -331.5 120t-98.5 361v924q0 29 24 29h60q27 0 26 -29v-952q0 -180 81 -266.5t222 -86.5h142q141 0 222 86t81 267v952q0 29 24 29h62zM498 1604q-23 -8 -31 8l-4 12q-12 18 12 33l297 160
q27 16 43 -15l14 -30q10 -29 -16 -43z" />
    <glyph glyph-name="Ucircumflex.ss01" horiz-adv-x="1292" 
d="M1106 1434q25 0 24 -29v-924q0 -242 -98 -361.5t-332 -119.5h-108q-233 0 -331.5 120t-98.5 361v924q0 29 24 29h60q27 0 26 -29v-952q0 -180 81 -266.5t222 -86.5h142q141 0 222 86t81 267v952q0 29 24 29h62zM438 1642v15q0 20 21 41l137 168q23 25 47 24h8
q27 0 49 -24l140 -168q20 -25 20 -41v-15q0 -14 -10.5 -19t-28.5 9l-174 176l-170 -176q-18 -14 -28.5 -9t-10.5 19z" />
    <glyph glyph-name="Udieresis.ss01" horiz-adv-x="1292" 
d="M1106 1434q25 0 24 -29v-924q0 -242 -98 -361.5t-332 -119.5h-108q-233 0 -331.5 120t-98.5 361v924q0 29 24 29h60q27 0 26 -29v-952q0 -180 81 -266.5t222 -86.5h142q141 0 222 86t81 267v952q0 29 24 29h62zM757.5 1675q-21.5 0 -37 14.5t-15.5 36t15 36t37 14.5
t37 -14.5t15 -36t-15 -36t-36.5 -14.5zM530.5 1675q-22.5 0 -37 14.5t-14.5 36t14.5 36t37 14.5t37 -14.5t14.5 -36t-14.5 -36t-37 -14.5z" />
    <glyph glyph-name="Ugrave.ss01" horiz-adv-x="1292" 
d="M1106 1434q25 0 24 -29v-924q0 -242 -98 -361.5t-332 -119.5h-108q-233 0 -331.5 120t-98.5 361v924q0 29 24 29h60q27 0 26 -29v-952q0 -180 81 -266.5t222 -86.5h142q141 0 222 86t81 267v952q0 29 24 29h62zM805 1606l-316 125q-27 14 -16 43l14 30q16 31 43 15
l297 -160q25 -14 13 -33l-4 -12q-8 -16 -31 -8z" />
    <glyph glyph-name="Uhungarumlaut.ss01" horiz-adv-x="1292" 
d="M1106 1434q25 0 24 -29v-924q0 -242 -98 -361.5t-332 -119.5h-108q-233 0 -331.5 120t-98.5 361v924q0 29 24 29h60q27 0 26 -29v-952q0 -180 81 -266.5t222 -86.5h142q141 0 222 86t81 267v952q0 29 24 29h62zM760 1595q-25 -18 -43 15q-12 16 14 39l197 188
q12 10 24.5 7t16.5 -15l22 -33q12 -27 -10 -43zM453 1595q-20 -13 -38.5 8t9.5 46l197 188q29 23 45 -8l22 -35q16 -25 -12 -43z" />
    <glyph glyph-name="Umacron.ss01" horiz-adv-x="1292" 
d="M1106 1434q25 0 24 -29v-924q0 -242 -98 -361.5t-332 -119.5h-108q-233 0 -331.5 120t-98.5 361v924q0 29 24 29h60q27 0 26 -29v-952q0 -180 81 -266.5t222 -86.5h142q141 0 222 86t81 267v952q0 29 24 29h62zM469 1665q-33 0 -33 31v24q0 31 33 31h369q33 0 32 -31v-24
q0 -31 -32 -31h-369z" />
    <glyph glyph-name="Uogonek.ss01" horiz-adv-x="1292" 
d="M707 -209q1 -115 113 -115q56 0 85 48q8 14 25 6l10 -9q14 -8 8 -22q-10 -39 -51 -68.5t-109.5 -29.5t-121 42t-52.5 119q0 139 166 242q-49 -4 -80 -4h-108q-233 0 -331.5 120t-98.5 361v924q0 29 24 29h60q27 0 26 -29v-952q0 -180 81 -266.5t222 -86.5h142
q141 0 222 86t81 267v952q0 29 24 29h62q25 0 24 -29v-924q0 -197 -63 -312.5t-209 -152.5q-55 -35 -103 -100.5t-48 -124.5z" />
    <glyph glyph-name="Uring.ss01" horiz-adv-x="1292" 
d="M1106 1434q25 0 24 -29v-924q0 -242 -98 -361.5t-332 -119.5h-108q-233 0 -331.5 120t-98.5 361v924q0 29 24 29h60q27 0 26 -29v-952q0 -180 81 -266.5t222 -86.5h142q141 0 222 86t81 267v952q0 29 24 29h62zM648 1686q26 0 44.5 18t18.5 49t-18.5 49.5t-44.5 18.5
t-43 -18.5t-17 -49.5t17 -49t43 -18zM647 1620q-55 0 -93 36t-38 97.5t38 97t93 35.5t94 -35.5t39 -97t-39 -97.5t-94 -36z" />
    <glyph glyph-name="W.ss01" horiz-adv-x="1792" 
d="M1671 1434q12 0 19.5 -8.5t5.5 -20.5l-420 -1385q-6 -20 -23 -20h-20q-14 0 -23 18l-315 1129l-315 -1127q-6 -20 -21 -20h-22q-14 0 -23 20l-418 1385q-4 12 3 20.5t20 8.5h61q20 0 29 -29l336 -1135l317 1143q6 20 19 21h28q12 0 19 -21l317 -1143l338 1135
q10 29 29 29h59z" />
    <glyph glyph-name="Wacute.ss01" horiz-adv-x="1792" 
d="M1671 1434q12 0 19.5 -8.5t5.5 -20.5l-420 -1385q-6 -20 -23 -20h-20q-14 0 -23 18l-315 1129l-315 -1127q-6 -20 -21 -20h-22q-14 0 -23 20l-418 1385q-4 12 3 20.5t20 8.5h61q20 0 29 -29l336 -1135l317 1143q6 20 19 21h28q12 0 19 -21l317 -1143l338 1135
q10 29 29 29h59zM745 1599q-23 -8 -30 9l-4 12q-12 18 12 33l297 159q27 16 43 -14l14 -31q10 -29 -16 -43z" />
    <glyph glyph-name="Wcircumflex.ss01" horiz-adv-x="1792" 
d="M1671 1434q12 0 19.5 -8.5t5.5 -20.5l-420 -1385q-6 -20 -23 -20h-20q-14 0 -23 18l-315 1129l-315 -1127q-6 -20 -21 -20h-22q-14 0 -23 20l-418 1385q-4 12 3 20.5t20 8.5h61q20 0 29 -29l336 -1135l317 1143q6 20 19 21h28q12 0 19 -21l317 -1143l338 1135
q10 29 29 29h59zM686 1638v15q0 20 21 41l137 168q23 25 47 24h8q27 0 49 -24l139 -168q20 -25 21 -41v-15q0 -14 -10.5 -19t-28.5 9l-174 176l-170 -176q-18 -14 -28.5 -9t-10.5 19z" />
    <glyph glyph-name="Wdieresis.ss01" horiz-adv-x="1792" 
d="M1671 1434q12 0 19.5 -8.5t5.5 -20.5l-420 -1385q-6 -20 -23 -20h-20q-14 0 -23 18l-315 1129l-315 -1127q-6 -20 -21 -20h-22q-14 0 -23 20l-418 1385q-4 12 3 20.5t20 8.5h61q20 0 29 -29l336 -1135l317 1143q6 20 19 21h28q12 0 19 -21l317 -1143l338 1135
q10 29 29 29h59zM1005.5 1671q-21.5 0 -37.5 14.5t-16 36t15.5 36t37.5 14.5t37 -14.5t15 -36t-15 -36t-36.5 -14.5zM778.5 1671q-22.5 0 -37 14.5t-14.5 36t14.5 36t37 14.5t36.5 -14.5t14 -36t-14 -36t-36.5 -14.5z" />
    <glyph glyph-name="Wgrave.ss01" horiz-adv-x="1792" 
d="M1671 1434q12 0 19.5 -8.5t5.5 -20.5l-420 -1385q-6 -20 -23 -20h-20q-14 0 -23 18l-315 1129l-315 -1127q-6 -20 -21 -20h-22q-14 0 -23 20l-418 1385q-4 12 3 20.5t20 8.5h61q20 0 29 -29l336 -1135l317 1143q6 20 19 21h28q12 0 19 -21l317 -1143l338 1135
q10 29 29 29h59zM1053 1602l-316 124q-27 14 -16 43l14 31q16 31 43 15l297 -160q25 -14 12 -33l-4 -12q-7 -16 -30 -8z" />
    <glyph glyph-name="A.ss04" horiz-adv-x="1134" 
d="M100 66q0 27 27 26h881q27 0 26 -26v-39q0 -27 -26 -27h-881q-27 0 -27 27v39zM334 637h465l-221 547l-15 41zM578 1434q8 0 16 -23l438 -1096q10 -27 -20 -26h-64q-18 0 -28 26l-91 232h-522l-92 -232q-10 -27 -27 -26h-65q-31 0 -21 26l433 1096q8 23 16 23h27z" />
    <glyph glyph-name="B.ss04" horiz-adv-x="1060" 
d="M162 66q0 27 26 26h717q27 0 27 -26v-39q0 -27 -27 -27h-717q-27 0 -26 27v39zM270 393h340q211 0 211 215q1 170 -125 207q-28 8 -57 8h-369v-430zM582 1346h-312v-433h330q172 0 172 217q0 123 -49 169.5t-141 46.5zM932 586q0 -122 -73 -202.5t-212 -80.5h-459
q-27 0 -26 29v1075q0 27 26 27h439q111 0 182.5 -75t71.5 -222q0 -205 -111 -256q162 -57 162 -295z" />
    <glyph glyph-name="C.ss04" horiz-adv-x="1212" 
d="M145 66q0 27 27 26h891q27 0 27 -26v-39q0 -27 -27 -27h-891q-27 0 -27 27v39zM680 287q-256 0 -417 163.5t-161 417.5t161 418t425 164t406 -193q16 -20 -2 -38l-31 -31q-20 -20 -41 2q-41 47 -66.5 72.5t-101.5 59.5t-166 34q-219 0 -346 -138.5t-127 -348.5t128 -348
t345 -138q92 0 165 31.5t105.5 65.5t67.5 85q14 20 39 6l37 -32q23 -14 2 -39q-166 -213 -422 -213z" />
    <glyph glyph-name="D.ss04" horiz-adv-x="1138" 
d="M162 66q0 27 26 26h754q27 0 27 -26v-39q0 -27 -27 -27h-754q-27 0 -26 27v39zM496 399q190 0 296.5 101.5t106.5 368t-106.5 368.5t-296.5 102h-228v-940h228zM861 412q-132 -110 -355 -109h-318q-27 0 -26 29v1075q0 27 26 27h326q214 0 355 -116.5t141 -449.5
t-149 -456z" />
    <glyph glyph-name="E.ss04" horiz-adv-x="921" 
d="M162 66q0 27 26 26h605q27 0 26 -26v-39q0 -27 -26 -27h-605q-27 0 -26 27v39zM793 399q10 0 18 -9t8 -19v-39q0 -29 -26 -29h-605q-27 0 -26 29v1075q0 27 26 27h607q25 0 24 -27v-41q0 -27 -24 -27h-527v-426h355q27 0 26 -24v-39q0 -25 -26 -25h-355v-426h525z" />
    <glyph glyph-name="F.ss04" horiz-adv-x="880" 
d="M162 66q0 27 26 26h564q27 0 26 -26v-39q0 -27 -26 -27h-564q-27 0 -26 27v39zM752 1434q27 0 26 -27v-41q0 -27 -26 -27h-484v-465h338q27 0 27 -24v-43q0 -27 -27 -27h-338v-448q0 -29 -22 -29h-62q-23 0 -22 29v1075q0 27 26 27h564z" />
    <glyph glyph-name="G.ss04" horiz-adv-x="1251" 
d="M143 66q0 27 27 26h913q27 0 27 -26v-39q0 -27 -27 -27h-913q-27 0 -27 27v39zM1083 852q25 0 25 -25v-356q0 -12 -8 -20q-154 -164 -409 -164t-422 155.5t-167 424.5t167 426t417 157t410 -186q18 -20 0 -39l-35 -35q-18 -18 -37 2l-14 16q-45 52 -66.5 65t-43.5 27
q-29 20 -87.5 38t-130.5 18q-209 0 -338 -137.5t-132 -348.5t128 -349t337 -138t327 117v262h-252q-29 0 -29 24v41q0 25 29 25h331z" />
    <glyph glyph-name="H.ss04" horiz-adv-x="1181" 
d="M162 66q0 27 26 26h805q27 0 27 -26v-39q0 -27 -27 -27h-805q-27 0 -26 27v39zM999 1434q20 0 21 -27v-1075q0 -29 -21 -29h-63q-23 0 -23 29v491h-645v-491q0 -29 -22 -29h-62q-23 0 -22 29v1075q0 27 22 27h62q23 0 22 -27v-489h645v489q0 27 23 27h63z" />
    <glyph glyph-name="I.ss04" horiz-adv-x="430" 
d="M162 66q0 27 26 26h54q27 0 26 -26v-39q0 -27 -26 -27h-54q-27 0 -26 27v39zM184 303q-23 0 -22 29v1075q0 27 22 27h62q23 0 22 -27v-1075q0 -29 -22 -29h-62z" />
    <glyph glyph-name="J.ss04" horiz-adv-x="823" 
d="M102 66q0 27 27 26h506q27 0 27 -26v-39q0 -27 -27 -27h-506q-27 0 -27 27v39zM635 1434q27 0 27 -33v-762q0 -172 -69 -262t-224 -90q-193 0 -281 174q-12 23 6 35l47 24q23 12 35 -12q63 -123 191 -123q104 0 146 67.5t42 202.5v746q0 33 27 33h53z" />
    <glyph glyph-name="K.ss04" horiz-adv-x="1013" 
d="M162 66q0 27 26 26h701q27 0 26 -26v-39q0 -27 -26 -27h-701q-27 0 -26 27v39zM913 318q0 -16 -16 -15h-86q-25 0 -49 29l-494 489v-489q0 -29 -22 -29h-62q-23 0 -22 29v1075q0 27 22 27h62q23 0 22 -27v-494l498 494q27 27 53 27h76q10 0 15 -9.5t-3 -17.5l-551 -539
l551 -536q6 -6 6 -14z" />
    <glyph glyph-name="L.ss04" horiz-adv-x="874" 
d="M162 66q0 27 26 26h578q27 0 27 -26v-39q0 -27 -27 -27h-578q-27 0 -26 27v39zM768 399q25 0 25 -26v-41q0 -27 -25 -27h-580q-27 0 -26 27v1075q0 29 22 29h62q23 0 22 -29v-1008h500z" />
    <glyph glyph-name="M.ss04" horiz-adv-x="1357" 
d="M162 66q0 27 26 26h981q27 0 27 -26v-39q0 -27 -27 -27h-981q-27 0 -26 27v39zM1130 1434h46q20 0 20 -27v-1077q0 -27 -20 -27h-62q-25 0 -24 27v846l-379 -846q-12 -27 -25 -27h-12q-14 0 -27 27l-379 846v-846q0 -27 -24 -27h-62q-20 0 -20 27v1077q0 27 26 27h41
q18 0 31 -25l420 -932l418 932q10 25 32 25z" />
    <glyph glyph-name="N.ss04" horiz-adv-x="1185" 
d="M162 66q0 27 26 26h809q27 0 27 -26v-39q0 -27 -27 -27h-809q-27 0 -26 27v39zM999 1434q25 0 25 -27v-1077q0 -27 -25 -27h-45q-16 0 -36 27l-650 903v-903q0 -27 -22 -27h-62q-23 0 -22 27v1077q0 27 24 27h43q18 0 39 -31l650 -903v907q0 27 20 27h61z" />
    <glyph glyph-name="O.ss04" horiz-adv-x="1343" 
d="M143 66q0 27 27 26h1004q27 0 26 -26v-39q0 -27 -26 -27h-1004q-27 0 -27 27v39zM672 383q205 0 331.5 143.5t126.5 342t-128 343t-330.5 144.5t-330.5 -144.5t-128 -343t127 -342t332 -143.5zM671.5 287q-239.5 0 -404.5 164.5t-165 416.5t165 417t404.5 165t404.5 -165
t165 -417t-165 -416.5t-404.5 -164.5z" />
    <glyph glyph-name="P.ss04" horiz-adv-x="970" 
d="M162 66q0 27 26 26h596q27 0 27 -26v-39q0 -27 -27 -27h-596q-27 0 -26 27v39zM485 805q129 0 192.5 61.5t63.5 208.5q0 264 -249 264h-224v-534h217zM852 1076q0 -108 -32 -184.5t-85 -113.5q-96 -67 -217 -67h-250v-381q0 -27 -22 -27h-62q-23 0 -22 27v1077
q0 27 26 27h332q122 0 218 -65q114 -77 114 -293z" />
    <glyph glyph-name="Q.ss04" horiz-adv-x="1343" 
d="M1174 92q27 0 26 -26v-39q0 -27 -26 -27h-1004q-27 0 -27 27v39q0 27 27 26h1004zM672 383q205 0 331.5 143.5t126.5 342t-128 343t-330.5 144.5t-330.5 -144.5t-128 -343t127 -342t332 -143.5zM658 287q-226 0 -391 164.5t-165 416.5t165 417t404.5 165t404.5 -165
t165 -403.5t-133 -394.5l111 -112q20 -20 0 -41l-29 -29q-23 -18 -41 0l-111 113q-154 -131 -380 -131z" />
    <glyph glyph-name="R.ss04" horiz-adv-x="1007" 
d="M162 66q0 27 26 26h674q27 0 27 -26v-39q0 -27 -27 -27h-674q-27 0 -26 27v39zM268 1339v-514h244q131 0 192.5 61.5t61.5 196.5t-59.5 195.5t-188.5 60.5h-250zM870 303h-63q-20 0 -35 27l-237 403h-267v-403q0 -27 -24 -27h-58q-25 0 -24 27v1077q0 27 24 27h365
q145 0 235.5 -89.5t90.5 -248t-64.5 -243.5t-169.5 -110l242 -413q8 -10 3 -18.5t-18 -8.5z" />
    <glyph glyph-name="S.ss04" horiz-adv-x="995" 
d="M131 66q0 27 27 26h678q27 0 26 -26v-39q0 -27 -26 -27h-678q-27 0 -27 27v39zM485 287q-240 0 -366 143q-14 20 0 37l26 33q18 20 35 4q127 -123 307 -123q133 0 210 59.5t77 152.5t-59.5 137t-246.5 102t-266 127t-79 198t97 211q98 82 282 82t321 -115q20 -18 4 -39
l-26 -32q-12 -23 -39 -4q-132 96 -266 96t-198.5 -55.5t-64.5 -147.5t57.5 -137t247.5 -102t267.5 -123t77.5 -199t-107 -219t-291 -86z" />
    <glyph glyph-name="T.ss04" horiz-adv-x="1028" 
d="M100 66q0 27 27 26h774q27 0 27 -26v-39q0 -27 -27 -27h-774q-27 0 -27 27v39zM901 1434q27 0 27 -27v-41q0 -27 -27 -27h-334v-1007q0 -29 -24 -29h-58q-25 0 -24 29v1007h-334q-27 0 -27 27v41q0 27 27 27h774z" />
    <glyph glyph-name="U.ss04" horiz-adv-x="1183" 
d="M180 66q0 27 27 26h768q27 0 26 -26v-39q0 -27 -26 -27h-768q-27 0 -27 27v39zM999 1434q27 0 27 -29v-641q0 -477 -433 -477t-433 477v641q0 29 26 29h54q27 0 26 -29v-614q0 -207 78 -307.5t248 -100.5t249 100.5t79 307.5v614q0 29 24 29h55z" />
    <glyph glyph-name="V.ss04" horiz-adv-x="1069" 
d="M80 66q0 27 26 26h857q27 0 26 -26v-39q0 -27 -26 -27h-857q-27 0 -26 27v39zM965 1434q12 0 19 -8.5t3 -20.5l-414 -1079q-6 -23 -26 -23h-27q-18 0 -28 23l-410 1079q-4 12 2 20.5t18 8.5h60q18 0 28 -29l345 -930l344 930q12 29 32 29h54z" />
    <glyph glyph-name="W.ss04" horiz-adv-x="1441" 
d="M82 66q0 27 27 26h1224q27 0 27 -26v-39q0 -27 -27 -27h-1224q-27 0 -27 27v39zM1339 1434q29 0 21 -29l-279 -1081q-6 -20 -22 -21h-25q-16 0 -22 21l-289 868l-289 -868q-8 -20 -22 -21h-27q-14 0 -20 21l-283 1083q-6 27 20 27h62q16 0 24 -23l222 -883l282 883
q6 23 21 23h20q12 0 19 -23l284 -883l221 883q6 23 27 23h55z" />
    <glyph glyph-name="X.ss04" horiz-adv-x="1089" 
d="M119 66q0 27 26 26h799q27 0 27 -26v-39q0 -27 -27 -27h-799q-27 0 -26 27v39zM954 303h-65q-20 0 -41 27l-301 458l-307 -458q-20 -27 -37 -27h-68q-12 0 -16 8t4 21l362 547l-344 524q-8 12 -2 21.5t19 9.5h67q18 0 31 -23l291 -442l293 442q12 23 32 23h68
q12 0 16.5 -9.5t-4.5 -21.5l-346 -524l361 -547q8 -12 4 -20.5t-17 -8.5z" />
    <glyph glyph-name="Y.ss04" horiz-adv-x="1030" 
d="M98 66q0 27 27 26h780q27 0 27 -26v-39q0 -27 -27 -27h-780q-27 0 -27 27v39zM915 1434q12 0 17.5 -9.5t-2.5 -21.5l-363 -619v-454q0 -27 -24 -27h-58q-25 0 -24 27v454l-361 619q-8 12 -4 21.5t17 9.5h63q20 0 35 -23l305 -524l301 522q16 25 39 25h59z" />
    <glyph glyph-name="Z.ss04" horiz-adv-x="1021" 
d="M119 66q0 27 26 26h732q27 0 26 -26v-39q0 -27 -26 -27h-732q-27 0 -26 27v39zM162 1339q-25 0 -25 25v45q0 25 25 25h721q14 0 19 -15.5t-5 -29.5l-633 -990h610q27 0 27 -26v-43q0 -27 -27 -27h-729q-18 0 -24 14.5t2 28.5l633 993h-594z" />
    <glyph glyph-name="B.ss05" horiz-adv-x="1105" 
d="M162 66q0 27 26 26h742q27 0 26 -26v-39q0 -27 -26 -27h-742q-27 0 -26 27v39zM270 393h385q211 0 211 215q0 170 -126 207q-28 8 -56 8h-414v-430zM627 1346h-357v-433h375q172 0 172 217q0 123 -49 169.5t-141 46.5zM977 604q0 -139 -73 -220t-212 -81h-504
q-27 0 -26 29v1075q0 27 26 27h484q111 0 183.5 -75t72.5 -222q0 -203 -111 -256q160 -58 160 -277z" />
    <glyph glyph-name="C.ss05" horiz-adv-x="1122" 
d="M170 66q0 27 27 26h729q27 0 26 -26v-39q0 -27 -26 -27h-729q-27 0 -27 27v39zM602 287q-217 0 -345 148.5t-128 433t128 433t345 148.5q145 0 248.5 -87t134.5 -235q6 -31 -18 -34l-49 -9q-29 -4 -33 23q-12 102 -89 175t-192 73q-168 0 -267 -129t-99 -358.5t99 -357.5
t267 -128q115 0 194 72.5t99 181.5q8 18 31 14l49 -8q20 -4 16 -33q-25 -147 -133 -235t-258 -88z" />
    <glyph glyph-name="D.ss05" horiz-adv-x="1116" 
d="M162 66q0 27 26 26h754q27 0 27 -26v-39q0 -27 -27 -27h-754q-27 0 -26 27v39zM870 1038q0 154 -58 227.5t-187 73.5h-357v-940h357q246 0 245 314v325zM629 1434q176 0 262 -93.5t86 -324.5v-279q0 -233 -87 -333.5t-261 -100.5h-441q-27 0 -26 29v1075q0 27 26 27h441z
" />
    <glyph glyph-name="E.ss05" horiz-adv-x="964" 
d="M162 66q0 27 26 26h648q27 0 26 -26v-39q0 -27 -26 -27h-648q-27 0 -26 27v39zM834 399q12 0 20 -9t8 -19v-39q0 -29 -28 -29h-646q-27 0 -26 29v1075q0 27 26 27h648q27 0 26 -27v-41q0 -27 -26 -27h-568v-426h346q27 0 27 -24v-39q0 -25 -27 -25h-346v-426h566z" />
    <glyph glyph-name="F.ss05" horiz-adv-x="970" 
d="M162 66q0 27 26 26h654q27 0 26 -26v-39q0 -27 -26 -27h-654q-27 0 -26 27v39zM840 1434q29 0 28 -27v-41q0 -27 -28 -27h-572v-465h338q27 0 27 -24v-43q0 -27 -27 -27h-338v-448q0 -29 -22 -29h-62q-23 0 -22 29v1075q0 27 26 27h652z" />
    <glyph glyph-name="G.ss05" horiz-adv-x="1171" 
d="M170 66q0 27 27 26h790q27 0 27 -26v-39q0 -27 -27 -27h-790q-27 0 -27 27v39zM985 821q29 0 29 -28v-463q0 -27 -23 -27h-37q-20 0 -20 27l-4 137q-45 -92 -140.5 -136t-193.5 -44q-213 0 -340 150.5t-127 432.5t127 431t342 149q172 0 270.5 -97.5t116.5 -226.5
q4 -29 -18 -30l-52 -9q-27 -4 -30 21q-14 94 -83 171t-202 77q-174 0 -268 -134.5t-94 -352.5t94 -352t268 -134q143 0 232.5 86t91.5 264h-240q-31 0 -31 29v31q0 29 31 28h301z" />
    <glyph glyph-name="I.ss05" horiz-adv-x="567" 
d="M141 66q0 27 27 26h231q27 0 27 -26v-39q0 -27 -27 -27h-231q-27 0 -27 27v39zM399 1339h-61v-940h61q27 0 27 -26v-43q0 -27 -27 -27h-231q-27 0 -27 27v43q0 27 27 26h63v940h-63q-27 0 -27 27v41q0 27 27 27h231q27 0 27 -27v-41q0 -27 -27 -27z" />
    <glyph glyph-name="M.ss05" horiz-adv-x="1290" 
d="M162 66q0 27 26 26h916q27 0 26 -26v-39q0 -27 -26 -27h-916q-27 0 -26 27v39zM1063 1434h45q23 0 22 -27v-1077q0 -27 -22 -27h-61q-23 0 -23 27v878l-346 -581q-14 -20 -25 -21h-12q-14 0 -29 21l-344 581v-878q0 -27 -24 -27h-62q-20 0 -20 27v1077q0 27 26 27h41
q18 0 31 -25l385 -643l385 643q14 25 33 25z" />
    <glyph glyph-name="N.ss05" horiz-adv-x="1142" 
d="M162 66q0 27 26 26h768q27 0 27 -26v-39q0 -27 -27 -27h-768q-27 0 -26 27v39zM958 1434q25 0 25 -27v-1077q0 -27 -25 -27h-45q-20 0 -36 27l-609 903v-903q0 -27 -22 -27h-62q-23 0 -22 27v1077q0 27 24 27h43q18 0 39 -31l609 -903v907q0 27 20 27h61z" />
    <glyph glyph-name="O.ss05" horiz-adv-x="1204" 
d="M170 66q0 27 27 26h811q27 0 26 -26v-39q0 -27 -26 -27h-811q-27 0 -27 27v39zM602 383q180 0 272.5 133t92.5 352t-91.5 353.5t-273.5 134.5t-273 -134.5t-91 -353.5t92 -352t272 -133zM602 287q-219 0 -346 147.5t-127 434t127 434t346 147.5t346 -147.5t127 -434
t-127 -434t-346 -147.5z" />
    <glyph glyph-name="P.ss05" horiz-adv-x="1034" 
d="M162 66q0 27 26 26h660q27 0 26 -26v-39q0 -27 -26 -27h-660q-27 0 -26 27v39zM549 805q129 0 192.5 61.5t63.5 208.5q0 264 -250 264h-287v-534h281zM798 778q-97 -67 -216 -67h-314v-381q0 -27 -22 -27h-62q-23 0 -22 27v1077q0 27 26 27h394q123 0 219 -65
q114 -77 113.5 -293.5t-116.5 -297.5z" />
    <glyph glyph-name="Q.ss05" horiz-adv-x="1204" 
d="M1008 92q27 0 26 -26v-39q0 -27 -26 -27h-811q-27 0 -27 27v39q0 27 27 26h811zM238 868q0 -219 92 -352t272 -133t272.5 133t92.5 352t-91.5 353.5t-273.5 134.5t-273 -134.5t-91 -353.5zM129 868.5q0 286.5 127 434t346 147.5t346 -147.5t127 -435t-133 -441.5l98 -98
q20 -20 0 -41l-28 -29q-23 -18 -41 0l-103 102q-111 -74 -266 -73q-219 0 -346 147.5t-127 434z" />
    <glyph glyph-name="R.ss05" horiz-adv-x="1034" 
d="M162 66q0 27 26 26h682q27 0 27 -26v-39q0 -27 -27 -27h-682q-27 0 -26 27v39zM268 1339v-489h334q84 0 135 60t51 188t-59 184.5t-180 56.5h-281zM268 756v-426q0 -27 -24 -27h-58q-25 0 -24 27v1077q0 27 26 27h387q322 0 322 -344q0 -125 -57.5 -205t-132.5 -103
q152 -199 188 -452q4 -27 -25 -27h-59q-20 0 -23 27q-16 127 -67 243.5t-123 182.5h-330z" />
    <glyph glyph-name="U.ss05" horiz-adv-x="1110" 
d="M203 66q0 27 26 26h670q27 0 27 -26v-39q0 -27 -27 -27h-670q-27 0 -26 27v39zM924 1434q25 0 24 -29v-735q0 -174 -76.5 -271.5t-271.5 -97.5h-92q-195 0 -270.5 98.5t-75.5 270.5v735q0 29 24 29h56q27 0 26 -29v-741q0 -135 57.5 -201t157.5 -66h142q100 0 158.5 65.5
t58.5 201.5v741q0 10 8 19.5t18 9.5h56z" />
    <glyph glyph-name="W.ss05" horiz-adv-x="1478" 
d="M98 66q0 27 27 26h1229q27 0 26 -26v-39q0 -27 -26 -27h-1229q-27 0 -27 27v39zM1358 1434q12 0 18 -9.5t2 -21.5l-329 -1079q-6 -20 -21 -21h-24q-18 0 -25 21l-240 862l-239 -862q-6 -20 -23 -21h-26q-14 0 -21 21l-332 1079q-8 31 21 31h57q20 0 29 -31l258 -877
l244 887q6 20 20 21h25q14 0 20 -21l244 -887l258 879q8 29 29 29h55z" />
    <glyph glyph-name="i.loclTRK" horiz-adv-x="417" 
d="M184 0q-27 0 -26 27v813q0 27 26 26h49q29 0 29 -26v-813q0 -27 -29 -27h-49zM211 1116q-27 0 -43 17.5t-16 42.5t16 42t43 17t44 -17.5t17 -41.5t-17 -42t-44 -18z" />
    <glyph glyph-name="a.ss01" horiz-adv-x="927" 
d="M439 66q112 0 177.5 62t65.5 156.5t-64.5 146.5t-182.5 52t-175 -57t-57 -150t62 -151.5t174 -58.5zM786 530v-501q0 -29 -24 -29h-31q-27 0 -35 39l-12 59q-74 -115 -249 -114.5t-256 83.5t-81 209t82 206.5t258 80.5t244 -92v80q0 117 -55.5 180.5t-182.5 63.5
t-235 -68q-20 -8 -33 14l-12 39q-6 14 10 27q106 76 287 76t253 -91.5t72 -261.5z" />
    <glyph glyph-name="aacute.ss01" horiz-adv-x="927" 
d="M439 66q112 0 177.5 62t65.5 156.5t-64.5 146.5t-182.5 52t-175 -57t-57 -150t62 -151.5t174 -58.5zM786 530v-501q0 -29 -24 -29h-31q-27 0 -35 39l-12 59q-74 -115 -249 -114.5t-256 83.5t-81 209t82 206.5t258 80.5t244 -92v80q0 117 -55.5 180.5t-182.5 63.5
t-235 -68q-20 -8 -33 14l-12 39q-6 14 10 27q106 76 287 76t253 -91.5t72 -261.5zM328 1028q-20 -18 -37 0l-6 10q-10 16 8 37l227 256q23 27 47 -2l29 -35q23 -27 -2 -45z" />
    <glyph glyph-name="abreve.ss01" horiz-adv-x="927" 
d="M439 66q112 0 177.5 62t65.5 156.5t-64.5 146.5t-182.5 52t-175 -57t-57 -150t62 -151.5t174 -58.5zM786 530v-501q0 -29 -24 -29h-31q-27 0 -35 39l-12 59q-74 -115 -249 -114.5t-256 83.5t-81 209t82 206.5t258 80.5t244 -92v80q0 117 -55.5 180.5t-182.5 63.5
t-235 -68q-20 -8 -33 14l-12 39q-6 14 10 27q106 76 287 76t253 -91.5t72 -261.5zM442 1044q-84 0 -141 33t-81.5 70t-47.5 94q-6 16 10 23l45 20q14 6 23 -8q61 -156 195 -156t196 156q6 14 23 8l49 -22q14 -6 8 -21q-80 -197 -279 -197z" />
    <glyph glyph-name="acircumflex.ss01" horiz-adv-x="927" 
d="M439 66q112 0 177.5 62t65.5 156.5t-64.5 146.5t-182.5 52t-175 -57t-57 -150t62 -151.5t174 -58.5zM786 530v-501q0 -29 -24 -29h-31q-27 0 -35 39l-12 59q-74 -115 -249 -114.5t-256 83.5t-81 209t82 206.5t258 80.5t244 -92v80q0 117 -55.5 180.5t-182.5 63.5
t-235 -68q-20 -8 -33 14l-12 39q-6 14 10 27q106 76 287 76t253 -91.5t72 -261.5zM236 1075v15q0 20 20 40l137 168q23 25 47 25h9q27 0 49 -25l139 -168q20 -25 20 -40v-15q0 -14 -10.5 -19t-28.5 9l-174 176l-170 -176q-18 -14 -28 -9t-10 19z" />
    <glyph glyph-name="adieresis.ss01" horiz-adv-x="927" 
d="M439 66q112 0 177.5 62t65.5 156.5t-64.5 146.5t-182.5 52t-175 -57t-57 -150t62 -151.5t174 -58.5zM786 530v-501q0 -29 -24 -29h-31q-27 0 -35 39l-12 59q-74 -115 -249 -114.5t-256 83.5t-81 209t82 206.5t258 80.5t244 -92v80q0 117 -55.5 180.5t-182.5 63.5
t-235 -68q-20 -8 -33 14l-12 39q-6 14 10 27q106 76 287 76t253 -91.5t72 -261.5zM554.5 1108q-21.5 0 -37 14.5t-15.5 36t15 35.5t37 14t37 -14t15 -35.5t-15 -36t-36.5 -14.5zM327.5 1108q-22.5 0 -37 14.5t-14.5 36t14.5 35.5t37 14t37 -14t14.5 -35.5t-14.5 -36
t-37 -14.5z" />
    <glyph glyph-name="agrave.ss01" horiz-adv-x="927" 
d="M439 66q112 0 177.5 62t65.5 156.5t-64.5 146.5t-182.5 52t-175 -57t-57 -150t62 -151.5t174 -58.5zM786 530v-501q0 -29 -24 -29h-31q-27 0 -35 39l-12 59q-74 -115 -249 -114.5t-256 83.5t-81 209t82 206.5t258 80.5t244 -92v80q0 117 -55.5 180.5t-182.5 63.5
t-235 -68q-20 -8 -33 14l-12 39q-6 14 10 27q106 76 287 76t253 -91.5t72 -261.5zM537 1028l-267 221q-25 18 -2 45l29 35q25 29 47 2l227 -256q20 -22 2 -47q-16 -18 -36 0z" />
    <glyph glyph-name="amacron.ss01" horiz-adv-x="927" 
d="M439 66q112 0 177.5 62t65.5 156.5t-64.5 146.5t-182.5 52t-175 -57t-57 -150t62 -151.5t174 -58.5zM786 530v-501q0 -29 -24 -29h-31q-27 0 -35 39l-12 59q-74 -115 -249 -114.5t-256 83.5t-81 209t82 206.5t258 80.5t244 -92v80q0 117 -55.5 180.5t-182.5 63.5
t-235 -68q-20 -8 -33 14l-12 39q-6 14 10 27q106 76 287 76t253 -91.5t72 -261.5zM266 1098q-33 0 -33 30v25q0 31 33 31h369q33 0 33 -31v-25q0 -31 -33 -30h-369z" />
    <glyph glyph-name="aogonek.ss01" horiz-adv-x="927" 
d="M439 66q112 0 177.5 62t65.5 156.5t-64.5 146.5t-182.5 52t-175 -57t-57 -150t62 -151.5t174 -58.5zM697 -399q-69 0 -121 42t-52 120.5t54.5 144t128.5 104.5q-8 16 -11 27l-12 59q-74 -115 -249 -114.5t-256 83.5t-81 209t82 206.5t258 80.5t244 -92v80
q0 117 -55.5 180.5t-182.5 63.5t-235 -68q-20 -8 -33 14l-12 39q-6 14 10 27q106 76 287 76t253 -91.5t72 -261.5v-501q0 -29 -24 -29h-19q-127 -100 -127 -217q0 -51 29 -79t84.5 -28t85.5 48q8 14 25 6l10 -9q14 -8 8 -22q-10 -39 -51 -68.5t-110 -29.5z" />
    <glyph glyph-name="aring.ss01" horiz-adv-x="927" 
d="M439 66q112 0 177.5 62t65.5 156.5t-64.5 146.5t-182.5 52t-175 -57t-57 -150t62 -151.5t174 -58.5zM786 530v-501q0 -29 -24 -29h-31q-27 0 -35 39l-12 59q-74 -115 -249 -114.5t-256 83.5t-81 209t82 206.5t258 80.5t244 -92v80q0 117 -55.5 180.5t-182.5 63.5
t-235 -68q-20 -8 -33 14l-12 39q-6 14 10 27q106 76 287 76t253 -91.5t72 -261.5zM445 1118q26 0 44.5 18.5t18.5 49.5t-18.5 49t-44.5 18t-43 -18t-17 -49t17 -49.5t43 -18.5zM444.5 1053q-55.5 0 -93.5 35.5t-38 97t38 97.5t93.5 36t94.5 -36t39 -97.5t-39 -97
t-94.5 -35.5z" />
    <glyph glyph-name="atilde.ss01" horiz-adv-x="927" 
d="M439 66q112 0 177.5 62t65.5 156.5t-64.5 146.5t-182.5 52t-175 -57t-57 -150t62 -151.5t174 -58.5zM786 530v-501q0 -29 -24 -29h-31q-27 0 -35 39l-12 59q-74 -115 -249 -114.5t-256 83.5t-81 209t82 206.5t258 80.5t244 -92v80q0 117 -55.5 180.5t-182.5 63.5
t-235 -68q-20 -8 -33 14l-12 39q-6 14 10 27q106 76 287 76t253 -91.5t72 -261.5zM319 1159q-78 0 -112 -82q-10 -16 -29 -4l-18 10q-16 6 -8 25q47 133 170 133q74 0 149.5 -50t101.5 -50q72 0 111 84q10 16 29 4l18 -10q16 -6 8 -25q-49 -133 -168 -133q-63 2 -138 50
t-114 48z" />
    <glyph glyph-name="ae.ss01" horiz-adv-x="1466" 
d="M400 66q160 0 212 84q42 66 41.5 146.5t-62 133.5t-165.5 53t-163.5 -54t-59.5 -145t55.5 -154.5t141.5 -63.5zM766 489h496q-6 309 -236 310q-121 0 -186.5 -83.5t-73.5 -226.5zM653 551q-1 244 -219 244q-110 0 -225 -68q-20 -8 -31 10l-14 43q-6 16 10 27
q102 76 250 76q246 0 305 -166q104 166 303 166q154 0 245 -109t91 -340q0 -12 -9 -21.5t-22 -9.5h-573q6 -145 73.5 -238t201.5 -93t229 118q16 23 35 7l28 -31q20 -16 0 -37q-113 -145 -297 -145q-213 0 -315 178q-77 -178 -339 -178q-132 0 -207 88t-75 212t82 201.5
t239.5 77.5t233.5 -92v80z" />
    <glyph glyph-name="b.ss01" horiz-adv-x="954" 
d="M494 72q121 0 188.5 91t67.5 259t-66 270.5t-192 102.5q-250 0 -250 -361.5t252 -361.5zM499 883q179 0 268 -129t89 -328t-88 -320.5t-260 -121.5t-266 131l-17 -76q-12 -39 -30 -39h-31q-25 0 -25 29v1392q0 29 25 29h53q27 0 27 -29v-688q76 150 255 150z" />
    <glyph glyph-name="c.ss01" horiz-adv-x="911" 
d="M465 -16q-178 0 -272.5 122.5t-94.5 327.5t94.5 327t280.5 122q137 0 217 -69t101 -183q4 -31 -15 -33l-45 -8q-29 -4 -37 18q-29 134 -115 170q-42 18 -111 17.5t-126 -33.5q-57 -34 -86 -90q-53 -103 -53 -246.5t64.5 -248.5t205.5 -105q178 0 221 184q6 25 33 23
l47 -9q23 -4 17 -34q-20 -117 -106.5 -184.5t-219.5 -67.5z" />
    <glyph glyph-name="cacute.ss01" horiz-adv-x="911" 
d="M465 -16q-178 0 -272.5 122.5t-94.5 327.5t94.5 327t280.5 122q137 0 217 -69t101 -183q4 -31 -15 -33l-45 -8q-29 -4 -37 18q-29 134 -115 170q-42 18 -111 17.5t-126 -33.5q-57 -34 -86 -90q-53 -103 -53 -246.5t64.5 -248.5t205.5 -105q178 0 221 184q6 25 33 23
l47 -9q23 -4 17 -34q-20 -117 -106.5 -184.5t-219.5 -67.5zM358 1028q-22 -20 -43 10q-10 16 9 37l227 256q23 27 47 -2l29 -35q23 -27 -2 -45z" />
    <glyph glyph-name="ccaron.ss01" horiz-adv-x="911" 
d="M465 -16q-178 0 -272.5 122.5t-94.5 327.5t94.5 327t280.5 122q137 0 217 -69t101 -183q4 -31 -15 -33l-45 -8q-29 -4 -37 18q-29 134 -115 170q-42 18 -111 17.5t-126 -33.5q-57 -34 -86 -90q-53 -103 -53 -246.5t64.5 -248.5t205.5 -105q178 0 221 184q6 25 33 23
l47 -9q23 -4 17 -34q-20 -117 -106.5 -184.5t-219.5 -67.5zM686 1286v-14q0 -16 -20 -41l-140 -168q-23 -25 -49 -25h-8q-25 0 -47 25l-137 168q-20 20 -21 41v14q0 14 10.5 19.5t28.5 -9.5l170 -176l174 176q18 14 28.5 9t10.5 -19z" />
    <glyph glyph-name="ccedilla.ss01" horiz-adv-x="911" 
d="M614 -232q0 -78 -42 -118.5t-101 -40.5t-93 25.5t-42 48t2 26.5l41 15q14 6 18 -7q18 -37 62 -36q78 0 78 81q0 49 -31 64.5t-70 5.5l-28 -2l-48 18q-12 6 -10 21l51 119q-147 23 -225 142.5t-78 314t94.5 316.5t280.5 122q137 0 217 -69t101 -183q4 -31 -15 -33l-45 -8
q-29 -4 -37 18q-29 134 -115 170q-42 18 -111 17.5t-126 -33.5q-57 -34 -86 -90q-53 -103 -53 -246.5t64.5 -248.5t205.5 -105q178 0 221 184q6 25 33 23l47 -9q23 -4 17 -34q-20 -117 -104.5 -183.5t-215.5 -68.5l-35 -84q66 20 122 -17t56 -115z" />
    <glyph glyph-name="cdotaccent.ss01" horiz-adv-x="911" 
d="M465 -16q-178 0 -272.5 122.5t-94.5 327.5t94.5 327t280.5 122q137 0 217 -69t101 -183q4 -31 -15 -33l-45 -8q-29 -4 -37 18q-29 134 -115 170q-42 18 -111 17.5t-126 -33.5q-57 -34 -86 -90q-53 -103 -53 -246.5t64.5 -248.5t205.5 -105q178 0 221 184q6 25 33 23
l47 -9q23 -4 17 -34q-20 -117 -106.5 -184.5t-219.5 -67.5zM476 1098q-26 0 -42 16t-16 41t16.5 42t42 17t43 -17t17.5 -41t-17.5 -41t-43.5 -17z" />
    <glyph glyph-name="d.ss01" horiz-adv-x="954" 
d="M713 395q0 115 -8.5 171.5t-32.5 112.5q-51 116 -197.5 116t-209 -102.5t-62.5 -261.5t63.5 -259t211.5 -100q146 0 194 112q40 96 41 211zM791 1450q25 0 24 -29v-1392q0 -29 -24 -29h-29q-25 0 -33 39l-14 67q-88 -123 -260 -122.5t-264.5 124t-92.5 322.5t91.5 326
t263.5 127t258 -123v661q0 29 24 29h56z" />
    <glyph glyph-name="dcaron.ss01" horiz-adv-x="1222" 
d="M713 395q0 115 -8.5 171.5t-32.5 112.5q-51 116 -197.5 116t-209 -102.5t-62.5 -261.5t63.5 -259t211.5 -100q146 0 194 112q40 96 41 211zM1139 1403v-131q0 -139 -160 -215q-12 -8 -23.5 11t2.5 30q109 53 109 162l-82 28q-25 6 -24 29v86q0 31 32 31h113q33 0 33 -31z
M791 1450q25 0 24 -29v-1392q0 -29 -24 -29h-29q-25 0 -33 39l-14 67q-88 -123 -260 -122.5t-264.5 124t-92.5 322.5t91.5 326t263.5 127t258 -123v661q0 29 24 29h56z" />
    <glyph glyph-name="dcroat.ss01" horiz-adv-x="1005" 
d="M713 395q0 115 -8.5 171.5t-32.5 112.5q-51 116 -197.5 116t-209 -102.5t-62.5 -261.5t63.5 -259t211.5 -100q146 0 194 112q40 96 41 211zM932 1214q33 0 33 -30v-23q0 -31 -33 -31h-117v-1101q0 -29 -24 -29h-29q-25 0 -33 39l-14 67q-88 -123 -260 -122.5t-264.5 124
t-92.5 322.5t91.5 326t263.5 127t258 -123v370h-119q-33 0 -33 31v23q0 31 33 30h119v207q0 29 24 29h56q25 0 24 -29v-207h117z" />
    <glyph glyph-name="e.ss01" horiz-adv-x="907" 
d="M467 799q-121 0 -186.5 -83t-73.5 -227h495q-6 310 -235 310zM480 72q134 0 229 118q16 23 34 7l29 -31q20 -16 0 -37q-113 -145 -294 -145t-280.5 122.5t-99.5 324.5t101.5 327t264.5 125t254 -108.5t91 -340.5q0 -12 -9 -21.5t-22 -9.5h-573q6 -145 73.5 -238
t201.5 -93z" />
    <glyph glyph-name="eacute.ss01" horiz-adv-x="907" 
d="M467 799q-121 0 -186.5 -83t-73.5 -227h495q-6 310 -235 310zM480 72q134 0 229 118q16 23 34 7l29 -31q20 -16 0 -37q-113 -145 -294 -145t-280.5 122.5t-99.5 324.5t101.5 327t264.5 125t254 -108.5t91 -340.5q0 -12 -9 -21.5t-22 -9.5h-573q6 -145 73.5 -238
t201.5 -93zM350 1028q-20 -18 -37 0l-6 10q-10 16 8 37l228 256q23 27 47 -2l28 -35q23 -27 -2 -45z" />
    <glyph glyph-name="ecaron.ss01" horiz-adv-x="907" 
d="M467 799q-121 0 -186.5 -83t-73.5 -227h495q-6 310 -235 310zM480 72q134 0 229 118q16 23 34 7l29 -31q20 -16 0 -37q-113 -145 -294 -145t-280.5 122.5t-99.5 324.5t101.5 327t264.5 125t254 -108.5t91 -340.5q0 -12 -9 -21.5t-22 -9.5h-573q6 -145 73.5 -238
t201.5 -93zM678 1286v-14q0 -16 -21 -41l-139 -168q-23 -25 -49 -25h-8q-25 0 -47 25l-138 168q-20 20 -20 41v14q0 14 10 19.5t29 -9.5l170 -176l174 176q18 14 28.5 9t10.5 -19z" />
    <glyph glyph-name="ecircumflex.ss01" horiz-adv-x="907" 
d="M467 799q-121 0 -186.5 -83t-73.5 -227h495q-6 310 -235 310zM480 72q134 0 229 118q16 23 34 7l29 -31q20 -16 0 -37q-113 -145 -294 -145t-280.5 122.5t-99.5 324.5t101.5 327t264.5 125t254 -108.5t91 -340.5q0 -12 -9 -21.5t-22 -9.5h-573q6 -145 73.5 -238
t201.5 -93zM258 1075v15q0 20 21 40l137 168q23 25 47 25h8q27 0 49 -25l139 -168q20 -25 21 -40v-15q0 -14 -10.5 -19t-28.5 9l-174 176l-170 -176q-18 -14 -28.5 -9t-10.5 19z" />
    <glyph glyph-name="edieresis.ss01" horiz-adv-x="907" 
d="M467 799q-121 0 -186.5 -83t-73.5 -227h495q-6 310 -235 310zM480 72q134 0 229 118q16 23 34 7l29 -31q20 -16 0 -37q-113 -145 -294 -145t-280.5 122.5t-99.5 324.5t101.5 327t264.5 125t254 -108.5t91 -340.5q0 -12 -9 -21.5t-22 -9.5h-573q6 -145 73.5 -238
t201.5 -93zM576.5 1108q-21.5 0 -37 14.5t-15.5 36t15.5 35.5t37 14t37 -14t15.5 -35.5t-15.5 -36t-37 -14.5zM350.5 1108q-22.5 0 -37 14.5t-14.5 36t14.5 35.5t37 14t36.5 -14t14 -35.5t-14 -36t-36.5 -14.5z" />
    <glyph glyph-name="edotaccent.ss01" horiz-adv-x="907" 
d="M467 799q-121 0 -186.5 -83t-73.5 -227h495q-6 310 -235 310zM480 72q134 0 229 118q16 23 34 7l29 -31q20 -16 0 -37q-113 -145 -294 -145t-280.5 122.5t-99.5 324.5t101.5 327t264.5 125t254 -108.5t91 -340.5q0 -12 -9 -21.5t-22 -9.5h-573q6 -145 73.5 -238
t201.5 -93zM468 1098q-26 0 -42 16t-16 41t16 42t42 17t43 -17t17 -41t-17 -41t-43 -17z" />
    <glyph glyph-name="egrave.ss01" horiz-adv-x="907" 
d="M467 799q-121 0 -186.5 -83t-73.5 -227h495q-6 310 -235 310zM480 72q134 0 229 118q16 23 34 7l29 -31q20 -16 0 -37q-113 -145 -294 -145t-280.5 122.5t-99.5 324.5t101.5 327t264.5 125t254 -108.5t91 -340.5q0 -12 -9 -21.5t-22 -9.5h-573q6 -145 73.5 -238
t201.5 -93zM559 1028l-266 221q-25 18 -2 45l28 35q25 29 48 2l227 -256q18 -20 8 -37l-6 -10q-17 -18 -37 0z" />
    <glyph glyph-name="emacron.ss01" horiz-adv-x="907" 
d="M467 799q-121 0 -186.5 -83t-73.5 -227h495q-6 310 -235 310zM480 72q134 0 229 118q16 23 34 7l29 -31q20 -16 0 -37q-113 -145 -294 -145t-280.5 122.5t-99.5 324.5t101.5 327t264.5 125t254 -108.5t91 -340.5q0 -12 -9 -21.5t-22 -9.5h-573q6 -145 73.5 -238
t201.5 -93zM289 1098q-33 0 -33 30v25q0 31 33 31h368q33 0 33 -31v-25q0 -31 -33 -30h-368z" />
    <glyph glyph-name="eogonek.ss01" horiz-adv-x="907" 
d="M207 489h495q-6 309 -235 310q-121 0 -186.5 -83.5t-73.5 -226.5zM471 -212q1 -112 113 -112q56 0 86 48q8 14 24 6l11 -9q14 -8 8 -22q-10 -39 -51 -68.5t-110 -29.5t-121 42t-52 119q0 125 139 224q-14 -2 -43 -2q-178 0 -277.5 122.5t-99.5 324.5t101.5 327t264.5 125
t254 -109t91 -340q0 -12 -9 -21.5t-22 -9.5h-573q6 -145 73.5 -238t201.5 -93t229 118q16 23 34 7l29 -31q20 -16 0 -37q-72 -92 -170 -125q-53 -41 -92 -100.5t-39 -115.5z" />
    <glyph glyph-name="g.ss01" horiz-adv-x="946" 
d="M478 795q-93 0 -155.5 -66.5t-62.5 -182.5t61.5 -178.5t155.5 -62.5t158.5 59.5t64.5 178.5t-64.5 185.5t-157.5 66.5zM489 883q70 0 129 -27h189q25 0 24 -16v-23q0 -12 -22 -20l-80 -27q74 -92 74 -227t-84 -231.5t-220.5 -96.5t-217.5 70q-82 -57 -81 -118.5
t36.5 -97.5t103.5 -36h276q102 0 158.5 -47t56.5 -170t-71.5 -177.5t-218.5 -54.5h-123q-127 0 -201 58.5t-74 171.5q0 35 21 34h53q20 0 21 -28q0 -72 47 -111t127 -39h135q94 0 139 29t45 115t-30.5 109.5t-92.5 23.5h-276q-98 0 -165 50t-69 162t111 195q-51 80 -51 185
q0 145 92 244.5t239 99.5z" />
    <glyph glyph-name="gbreve.ss01" horiz-adv-x="946" 
d="M478 795q-93 0 -155.5 -66.5t-62.5 -182.5t61.5 -178.5t155.5 -62.5t158.5 59.5t64.5 178.5t-64.5 185.5t-157.5 66.5zM489 883q70 0 129 -27h189q25 0 24 -16v-23q0 -12 -22 -20l-80 -27q74 -92 74 -227t-84 -231.5t-220.5 -96.5t-217.5 70q-82 -57 -81 -118.5
t36.5 -97.5t103.5 -36h276q102 0 158.5 -47t56.5 -170t-71.5 -177.5t-218.5 -54.5h-123q-127 0 -201 58.5t-74 171.5q0 35 21 34h53q20 0 21 -28q0 -72 47 -111t127 -39h135q94 0 139 29t45 115t-30.5 109.5t-92.5 23.5h-276q-98 0 -165 50t-69 162t111 195q-51 80 -51 185
q0 145 92 244.5t239 99.5zM481 1044q-84 0 -141 33t-82 70t-47 94q-6 16 10 23l45 20q16 6 23 -8q61 -156 195 -156t196 156q8 14 22 8l50 -22q14 -6 8 -21q-80 -197 -279 -197z" />
    <glyph glyph-name="gcommaaccent.ss01" horiz-adv-x="946" 
d="M478 795q-93 0 -155.5 -66.5t-62.5 -182.5t61.5 -178.5t155.5 -62.5t158.5 59.5t64.5 178.5t-64.5 185.5t-157.5 66.5zM489 883q70 0 129 -27h189q25 0 24 -16v-23q0 -12 -22 -20l-80 -27q74 -92 74 -227t-84 -231.5t-220.5 -96.5t-217.5 70q-82 -57 -81 -118.5
t36.5 -97.5t103.5 -36h276q102 0 158.5 -47t56.5 -170t-71.5 -177.5t-218.5 -54.5h-123q-127 0 -201 58.5t-74 171.5q0 35 21 34h53q20 0 21 -28q0 -72 47 -111t127 -39h135q94 0 139 29t45 115t-30.5 109.5t-92.5 23.5h-276q-98 0 -165 50t-69 162t111 195q-51 80 -51 185
q0 145 92 244.5t239 99.5zM420 1133v106q0 51 33.5 93t83.5 57q14 4 16 -8.5t-8 -18.5q-70 -43 -70 -109l45 -20q33 -10 33 -37v-63q0 -31 -33 -31h-67q-33 0 -33 31z" />
    <glyph glyph-name="gdotaccent.ss01" horiz-adv-x="946" 
d="M478 795q-93 0 -155.5 -66.5t-62.5 -182.5t61.5 -178.5t155.5 -62.5t158.5 59.5t64.5 178.5t-64.5 185.5t-157.5 66.5zM489 883q70 0 129 -27h189q25 0 24 -16v-23q0 -12 -22 -20l-80 -27q74 -92 74 -227t-84 -231.5t-220.5 -96.5t-217.5 70q-82 -57 -81 -118.5
t36.5 -97.5t103.5 -36h276q102 0 158.5 -47t56.5 -170t-71.5 -177.5t-218.5 -54.5h-123q-127 0 -201 58.5t-74 171.5q0 35 21 34h53q20 0 21 -28q0 -72 47 -111t127 -39h135q94 0 139 29t45 115t-30.5 109.5t-92.5 23.5h-276q-98 0 -165 50t-69 162t111 195q-51 80 -51 185
q0 145 92 244.5t239 99.5zM484 1098q-26 0 -42 16t-16 41t16.5 42t42 17t43 -17t17.5 -41t-17.5 -41t-43.5 -17z" />
    <glyph glyph-name="o.ss01" horiz-adv-x="954" 
d="M479.5 72q141.5 0 208 97t66.5 263t-66.5 263.5t-208 97.5t-210 -98.5t-68.5 -262.5t68.5 -262t210 -98zM480 -16q-187 0 -284.5 124.5t-97.5 322.5t97.5 325t284.5 127t281.5 -126t94.5 -326t-94.5 -323.5t-281.5 -123.5z" />
    <glyph glyph-name="oacute.ss01" horiz-adv-x="954" 
d="M479.5 72q141.5 0 208 97t66.5 263t-66.5 263.5t-208 97.5t-210 -98.5t-68.5 -262.5t68.5 -262t210 -98zM480 -16q-187 0 -284.5 124.5t-97.5 322.5t97.5 325t284.5 127t281.5 -126t94.5 -326t-94.5 -323.5t-281.5 -123.5zM365 1028q-20 -18 -37 0l-6 10q-10 16 8 37
l227 256q23 27 47 -2l29 -35q23 -27 -2 -45z" />
    <glyph glyph-name="ocircumflex.ss01" horiz-adv-x="954" 
d="M479.5 72q141.5 0 208 97t66.5 263t-66.5 263.5t-208 97.5t-210 -98.5t-68.5 -262.5t68.5 -262t210 -98zM480 -16q-187 0 -284.5 124.5t-97.5 322.5t97.5 325t284.5 127t281.5 -126t94.5 -326t-94.5 -323.5t-281.5 -123.5zM272 1075v15q0 20 21 40l137 168q23 25 47 25h8
q27 0 50 -25l139 -168q20 -25 20 -40v-15q0 -14 -10.5 -19t-28.5 9l-174 176l-170 -176q-18 -14 -28.5 -9t-10.5 19z" />
    <glyph glyph-name="odieresis.ss01" horiz-adv-x="954" 
d="M479.5 72q141.5 0 208 97t66.5 263t-66.5 263.5t-208 97.5t-210 -98.5t-68.5 -262.5t68.5 -262t210 -98zM480 -16q-187 0 -284.5 124.5t-97.5 322.5t97.5 325t284.5 127t281.5 -126t94.5 -326t-94.5 -323.5t-281.5 -123.5zM591.5 1108q-21.5 0 -37 14.5t-15.5 36t15 35.5
t37 14t37 -14t15 -35.5t-15 -36t-36.5 -14.5zM364.5 1108q-22.5 0 -37 14.5t-14.5 36t14.5 35.5t37 14t37 -14t14.5 -35.5t-14.5 -36t-37 -14.5z" />
    <glyph glyph-name="ograve.ss01" horiz-adv-x="954" 
d="M479.5 72q141.5 0 208 97t66.5 263t-66.5 263.5t-208 97.5t-210 -98.5t-68.5 -262.5t68.5 -262t210 -98zM480 -16q-187 0 -284.5 124.5t-97.5 322.5t97.5 325t284.5 127t281.5 -126t94.5 -326t-94.5 -323.5t-281.5 -123.5zM573 1028l-266 221q-25 18 -2 45l29 35
q25 29 47 2l227 -256q18 -20 8 -37l-6 -10q-17 -18 -37 0z" />
    </font>
</defs>
</svg>
