<?xml version="1.0" encoding="utf-8"?>
<!-- Generator: Adobe Illustrator 15.1.0, SVG Export Plug-In . SVG Version: 6.00 Build 0)  -->
<!DOCTYPE svg PUBLIC "-//W3C//DTD SVG 1.1//EN" "http://www.w3.org/Graphics/SVG/1.1/DTD/svg11.dtd">
<svg version="1.1" id="レイヤー_1" xmlns="http://www.w3.org/2000/svg" xmlns:xlink="http://www.w3.org/1999/xlink" x="0px"
	 y="0px" width="80px" height="80px" viewBox="0 0 80 80" enable-background="new 0 0 80 80" xml:space="preserve">
<g>
	<g>
		<g>
			<g>
				<g>
					<g>
						<path fill="#005F70" d="M41.232,25.234c0.338-1.345,0.631-2.613,0.649-2.818c0.019-0.206-0.902-1.351-2.07-2.099
							l-10.738-6.879c-1.168-0.748-2.271-1.28-2.449-1.183c-0.179,0.099-0.851,0.492-1.094,0.643
							c-0.243,0.151-1.511,0.172-2.277-0.319s-2.516-1.061-3.888-1.265c0,0-6.076-0.907-8.428,2.765
							c-2.354,3.67,1.014,8.815,1.014,8.815c0.76,1.16,1.457,2.159,1.55,2.219c0.093,0.059-0.443,1.063-1.19,2.231l-4.701,7.343
							c-0.747,1.168-0.403,2.736,0.765,3.484l17.635,11.293c1.168,0.748,2.736,0.404,3.484-0.764l4.779-7.466
							c0.748-1.168,1.873-3.137,2.499-4.374L41.232,25.234z M16.681,21.15c-0.873,1.078-1.675,1.903-1.782,1.834
							s-0.816-1.075-1.576-2.236c0,0-1.836-2.806-0.242-5.295c1.596-2.489,4.912-1.995,4.912-1.995
							c1.371,0.204,2.94,0.657,3.486,1.007c0.546,0.351,0.168,1.417-0.839,2.371L16.681,21.15z"/>
					</g>
				</g>
			</g>
		</g>
		<g>
			<g>
				<path fill="#005F70" d="M40.225,13.599c0.461-0.266,0.865-0.643,1.172-1.117c1.021-1.597,0.555-3.732-1.043-4.752
					c-1.598-1.023-3.729-0.557-4.752,1.041c-0.299,0.465-0.469,0.976-0.523,1.492c-1.609-0.256-3.406-0.057-5.324,0.59l12.123,7.764
					C41.666,16.636,41.111,14.942,40.225,13.599z"/>
			</g>
		</g>
		<g>
			<g>
				<g>
					<g>
						<path fill="#005F70" d="M46.485,24.59c-1.168-0.748-2.303-0.326-2.521,0.938c-0.219,1.265-0.155,4.247,1.121,3.705
							l2.883-1.223c1.276-0.542,1.365-1.598,0.197-2.346L46.485,24.59z"/>
					</g>
				</g>
			</g>
		</g>
	</g>
	<g>
		<g>
			<path fill="#005F70" d="M41.898,72.044h4.967c0.07,0.433,0.43,0.77,0.883,0.77h11.299c0.455,0,0.811-0.337,0.881-0.77h4.969
				c0.842,0,1.521-0.683,1.521-1.522H40.377C40.377,71.361,41.059,72.044,41.898,72.044z"/>
			<path fill="#005F70" d="M72.402,56.408c-1.266-1.026-3.049-1.043-4.225-0.913c0.035-0.816,0.053-1.656,0.053-2.525
				c0,0-30.871-0.326-30.451,0c0.086,0.063-0.492,0.516-0.492,0.516c0,8.371,1.234,13.896,9.252,16.148h12.408
				c3.176-0.889,5.279-2.388,6.676-4.379c3.041-0.059,7.938-1.257,8.121-5.459C73.822,57.958,73.057,56.938,72.402,56.408z
				 M66.898,62.854c0.584-1.497,0.928-3.183,1.119-5.033c0.822-0.136,2.238-0.221,2.953,0.36c0.133,0.11,0.543,0.441,0.494,1.518
				C71.369,61.876,68.67,62.607,66.898,62.854z"/>
		</g>
	</g>
	<path fill="none" stroke="#00D9FF" stroke-width="3" stroke-miterlimit="10" d="M50.709,28.167c1.25,0.625,4.81,3.041,4.81,9.166
		c0,6.834,0.013,5.834,0.013,10.729"/>
</g>
</svg>
