<?xml version="1.0" encoding="utf-8"?>
<!-- Generator: Adobe Illustrator 15.1.0, SVG Export Plug-In . SVG Version: 6.00 Build 0)  -->
<!DOCTYPE svg PUBLIC "-//W3C//DTD SVG 1.1//EN" "http://www.w3.org/Graphics/SVG/1.1/DTD/svg11.dtd">
<svg version="1.1" id="レイヤー_1" xmlns="http://www.w3.org/2000/svg" xmlns:xlink="http://www.w3.org/1999/xlink" x="0px"
	 y="0px" width="70px" height="70px" viewBox="0 0 70 70" enable-background="new 0 0 70 70" xml:space="preserve">
<g id="新規シンボル">
	<g>
		<g>
			<path fill="#FFFFFF" d="M36.943,28.437c-0.155-0.154-0.163-0.536-0.375-0.536H20.93c-0.213,0-0.47,0.382-0.625,0.536
				C20.151,28.592,20,29.08,20,29.292v20.331c0,0.212,0.151,0.644,0.305,0.799c0.155,0.154,0.413,0.479,0.625,0.479h15.639
				c0.212,0,0.22-0.325,0.375-0.479C37.098,50.266,37,49.834,37,49.622V29.292C37,29.08,37.098,28.592,36.943,28.437z M36,48.9h-5
				v-2.797c0-0.105,0.008-0.104-0.068-0.181c-0.079-0.077-0.122-0.022-0.229-0.022h-3.908c-0.107,0,0.1-0.055,0.022,0.022
				C26.74,45.999,27,45.998,27,46.104V48.9h-6v-19h15V48.9L36,48.9z"/>
			<path fill="#FFFFFF" d="M23.666,45.503h0.782c0.105,0,0.027,0.066,0.104-0.012c0.078-0.078-0.053-0.064-0.053-0.171V44.54
				c0-0.106,0.131-0.27,0.053-0.348c-0.077-0.078,0.001-0.188-0.104-0.188h-0.782c-0.105,0-0.335,0.111-0.412,0.188
				S23,44.434,23,44.54v0.781c0,0.106,0.177,0.093,0.254,0.171S23.561,45.503,23.666,45.503z"/>
			<path fill="#FFFFFF" d="M23.666,42.503h0.782c0.105,0,0.027,0.002,0.104-0.076c0.078-0.077-0.053-0.128-0.053-0.234v-0.782
				c0-0.106,0.131-0.207,0.053-0.284c-0.077-0.077,0.001-0.125-0.104-0.125h-0.782c-0.105,0-0.335,0.047-0.412,0.125
				S23,41.306,23,41.412v0.782c0,0.106,0.177,0.157,0.254,0.234C23.331,42.505,23.561,42.503,23.666,42.503z"/>
			<path fill="#FFFFFF" d="M26.795,42.503h0.781c0.105,0,0.339,0.002,0.416-0.076c0.078-0.077,0.258-0.128,0.258-0.234v-0.782
				c0-0.106-0.18-0.206-0.258-0.284c-0.077-0.077-0.311-0.125-0.416-0.125h-0.781c-0.107,0-0.025,0.047-0.103,0.125
				c-0.077,0.078,0.058,0.178,0.058,0.284v0.782c0,0.106-0.135,0.157-0.058,0.234C26.77,42.505,26.688,42.503,26.795,42.503z"/>
			<path fill="#FFFFFF" d="M23.666,39.503h0.782c0.105,0,0.027-0.062,0.104-0.139c0.078-0.078-0.053-0.192-0.053-0.298v-0.782
				c0-0.105,0.131-0.142,0.053-0.22c-0.077-0.077,0.001-0.061-0.104-0.061h-0.782c-0.105,0-0.335-0.017-0.412,0.061
				C23.177,38.142,23,38.178,23,38.284v0.782c0,0.106,0.177,0.221,0.254,0.298C23.331,39.441,23.561,39.503,23.666,39.503z"/>
			<path fill="#FFFFFF" d="M33.05,45.503h0.782c0.105,0,0.21,0.066,0.288-0.012c0.077-0.078,0.13-0.064,0.13-0.171V44.54
				c0-0.106-0.053-0.27-0.13-0.348c-0.078-0.078-0.183-0.188-0.288-0.188H33.05c-0.106,0-0.152,0.111-0.229,0.188
				c-0.077,0.078-0.071,0.242-0.071,0.348v0.781c0,0.106-0.006,0.093,0.071,0.171C32.897,45.569,32.943,45.503,33.05,45.503z"/>
			<path fill="#FFFFFF" d="M29.922,42.503h0.781c0.106,0,0.276,0.002,0.354-0.076c0.076-0.077,0.193-0.128,0.193-0.234v-0.782
				c0-0.106-0.117-0.206-0.193-0.284c-0.077-0.077-0.247-0.125-0.354-0.125h-0.781c-0.105,0-0.088,0.047-0.166,0.125
				c-0.077,0.078-0.006,0.178-0.006,0.284v0.782c0,0.106-0.071,0.157,0.006,0.234C29.834,42.505,29.816,42.503,29.922,42.503z"/>
			<path fill="#FFFFFF" d="M26.795,39.503h0.781c0.105,0,0.339-0.062,0.416-0.139c0.078-0.078,0.258-0.192,0.258-0.298v-0.782
				c0-0.105-0.18-0.142-0.258-0.22c-0.077-0.077-0.311-0.061-0.416-0.061h-0.781c-0.107,0-0.025-0.017-0.103,0.061
				c-0.077,0.078,0.058,0.114,0.058,0.22v0.782c0,0.106-0.135,0.221-0.058,0.298C26.77,39.441,26.688,39.503,26.795,39.503z"/>
			<path fill="#FFFFFF" d="M23.666,36.503h0.782c0.105,0,0.027-0.126,0.104-0.204c0.078-0.077-0.053-0.256-0.053-0.362v-0.782
				c0-0.105,0.131-0.078,0.053-0.156c-0.077-0.077,0.001,0.003-0.104,0.003h-0.782c-0.105,0-0.335-0.081-0.412-0.003
				C23.177,35.078,23,35.05,23,35.156v0.782c0,0.106,0.177,0.285,0.254,0.362C23.331,36.377,23.561,36.503,23.666,36.503z"/>
			<path fill="#FFFFFF" d="M33.05,42.503h0.782c0.105,0,0.21,0.002,0.288-0.076c0.077-0.077,0.13-0.128,0.13-0.234v-0.782
				c0-0.106-0.053-0.206-0.13-0.284c-0.078-0.077-0.183-0.125-0.288-0.125H33.05c-0.106,0-0.152,0.047-0.229,0.125
				c-0.077,0.077-0.071,0.178-0.071,0.284v0.782c0,0.106-0.006,0.157,0.071,0.234C32.897,42.505,32.943,42.503,33.05,42.503z"/>
			<path fill="#FFFFFF" d="M29.922,39.503h0.781c0.106,0,0.276-0.062,0.354-0.139c0.076-0.078,0.193-0.192,0.193-0.298v-0.782
				c0-0.105-0.117-0.142-0.193-0.22c-0.077-0.077-0.247-0.061-0.354-0.061h-0.781c-0.105,0-0.088-0.017-0.166,0.061
				c-0.077,0.078-0.006,0.114-0.006,0.22v0.782c0,0.106-0.071,0.221,0.006,0.298C29.834,39.441,29.816,39.503,29.922,39.503z"/>
			<path fill="#FFFFFF" d="M26.795,36.503h0.781c0.105,0,0.339-0.126,0.416-0.204c0.078-0.077,0.258-0.256,0.258-0.362v-0.782
				c0-0.105-0.18-0.078-0.258-0.156c-0.077-0.077-0.311,0.003-0.416,0.003h-0.781c-0.107,0-0.025-0.081-0.103-0.003
				c-0.077,0.078,0.058,0.05,0.058,0.156v0.782c0,0.106-0.135,0.285-0.058,0.362C26.77,36.377,26.688,36.503,26.795,36.503z"/>
			<path fill="#FFFFFF" d="M23.666,33.503h0.782c0.105,0,0.027-0.19,0.104-0.268c0.078-0.077-0.053-0.32-0.053-0.426v-0.782
				c0-0.106,0.131-0.015,0.053-0.092c-0.077-0.077,0.001,0.067-0.104,0.067h-0.782c-0.105,0-0.335-0.144-0.412-0.067
				S23,31.922,23,32.028v0.782c0,0.106,0.177,0.349,0.254,0.426C23.331,33.313,23.561,33.503,23.666,33.503z"/>
			<path fill="#FFFFFF" d="M33.05,39.503h0.782c0.105,0,0.21-0.062,0.288-0.139c0.077-0.078,0.13-0.192,0.13-0.298v-0.782
				c0-0.105-0.053-0.142-0.13-0.22c-0.078-0.077-0.183-0.061-0.288-0.061H33.05c-0.106,0-0.152-0.017-0.229,0.061
				c-0.077,0.078-0.071,0.114-0.071,0.22v0.782c0,0.106-0.006,0.221,0.071,0.298C32.897,39.441,32.943,39.503,33.05,39.503z"/>
			<path fill="#FFFFFF" d="M29.922,36.503h0.781c0.106,0,0.276-0.126,0.354-0.204c0.076-0.077,0.193-0.256,0.193-0.362v-0.782
				c0-0.105-0.117-0.078-0.193-0.156c-0.077-0.077-0.247,0.003-0.354,0.003h-0.781c-0.105,0-0.088-0.081-0.166-0.003
				c-0.077,0.078-0.006,0.05-0.006,0.156v0.782c0,0.106-0.071,0.285,0.006,0.362C29.834,36.377,29.816,36.503,29.922,36.503z"/>
			<path fill="#FFFFFF" d="M26.795,33.503h0.781c0.105,0,0.339-0.19,0.416-0.268c0.078-0.077,0.258-0.32,0.258-0.426v-0.782
				c0-0.106-0.18-0.015-0.258-0.092c-0.077-0.077-0.311,0.067-0.416,0.067h-0.781c-0.107,0-0.025-0.144-0.103-0.067
				s0.058-0.015,0.058,0.092v0.782c0,0.106-0.135,0.349-0.058,0.426C26.77,33.313,26.688,33.503,26.795,33.503z"/>
			<path fill="#FFFFFF" d="M33.05,36.503h0.782c0.105,0,0.21-0.126,0.288-0.204c0.077-0.077,0.13-0.256,0.13-0.362v-0.782
				c0-0.105-0.053-0.078-0.13-0.156c-0.078-0.077-0.183,0.003-0.288,0.003H33.05c-0.106,0-0.152-0.081-0.229-0.003
				c-0.077,0.078-0.071,0.05-0.071,0.156v0.782c0,0.106-0.006,0.285,0.071,0.362C32.897,36.377,32.943,36.503,33.05,36.503z"/>
			<path fill="#FFFFFF" d="M29.922,33.503h0.781c0.106,0,0.276-0.19,0.354-0.268c0.076-0.077,0.193-0.32,0.193-0.426v-0.782
				c0-0.106-0.117-0.015-0.193-0.092c-0.077-0.077-0.247,0.067-0.354,0.067h-0.781c-0.105,0-0.088-0.144-0.166-0.067
				c-0.077,0.077-0.006-0.015-0.006,0.092v0.782c0,0.106-0.071,0.349,0.006,0.426C29.834,33.313,29.816,33.503,29.922,33.503z"/>
			<path fill="#FFFFFF" d="M33.05,33.503h0.782c0.105,0,0.21-0.19,0.288-0.268c0.077-0.077,0.13-0.32,0.13-0.426v-0.782
				c0-0.106-0.053-0.015-0.13-0.092c-0.078-0.077-0.183,0.067-0.288,0.067H33.05c-0.106,0-0.152-0.144-0.229-0.067
				c-0.077,0.077-0.071-0.015-0.071,0.092v0.782c0,0.106-0.006,0.349,0.071,0.426C32.897,33.313,32.943,33.503,33.05,33.503z"/>
		</g>
	</g>
	
		<polyline fill="none" stroke="#FFFFFF" stroke-width="2" stroke-linecap="round" stroke-linejoin="round" stroke-miterlimit="10" points="
		32,23.9 32,18.9 49,18.9 49,50.9 	"/>
	<rect x="43" y="23.9" fill="#FFFFFF" width="2" height="2"/>
	<rect x="39" y="23.9" fill="#FFFFFF" width="3" height="2"/>
	<rect x="36" y="23.9" fill="#FFFFFF" width="2" height="2"/>
	<rect x="43" y="27.9" fill="#FFFFFF" width="2" height="2"/>
	<rect x="39" y="27.9" fill="#FFFFFF" width="3" height="2"/>
	<rect x="39" y="30.9" fill="#FFFFFF" width="3" height="3"/>
	<rect x="39" y="34.9" fill="#FFFFFF" width="3" height="2"/>
	<rect x="39" y="38.9" fill="#FFFFFF" width="3" height="2"/>
	<rect x="39" y="42.9" fill="#FFFFFF" width="3" height="2"/>
	<rect x="43" y="30.9" fill="#FFFFFF" width="2" height="3"/>
	<rect x="43" y="34.9" fill="#FFFFFF" width="2" height="2"/>
	<rect x="43" y="38.9" fill="#FFFFFF" width="2" height="2"/>
	<rect x="43" y="42.9" fill="#FFFFFF" width="2" height="2"/>
</g>
</svg>
