<?xml version="1.0" encoding="utf-8"?>
<!-- Generator: Adobe Illustrator 15.1.0, SVG Export Plug-In . SVG Version: 6.00 Build 0)  -->
<!DOCTYPE svg PUBLIC "-//W3C//DTD SVG 1.1//EN" "http://www.w3.org/Graphics/SVG/1.1/DTD/svg11.dtd">
<svg version="1.1" id="レイヤー_1" xmlns="http://www.w3.org/2000/svg" xmlns:xlink="http://www.w3.org/1999/xlink" x="0px"
	 y="0px" width="70px" height="70px" viewBox="0 0 70 70" enable-background="new 0 0 70 70" xml:space="preserve">
<g>
	<g>
		<g>
			<g>
				<g>
					<path fill="#FFFFFF" d="M30.603,39.577c-0.508-0.132-1.225-0.079-1.782,0.185c-0.357-0.502-0.958-0.897-1.466-1.029
						c-0.299-0.078-0.604,0.101-0.682,0.4c-0.078,0.299,0.102,0.604,0.4,0.682c0.444,0.116,0.964,0.643,0.941,0.823v0.001
						c-0.077,0.299,0.103,0.604,0.4,0.681c0.291,0.076,0.587-0.091,0.675-0.375c0.003-0.009,0.005-0.017,0.008-0.025
						c0.068-0.168,0.778-0.376,1.223-0.26c0.299,0.078,0.604-0.102,0.683-0.4C31.08,39.959,30.901,39.654,30.603,39.577z"/>
					<path fill="#FFFFFF" d="M54.46,49.334l-0.209-1.378c-0.003-0.02-0.009-0.039-0.014-0.058c-0.017-0.125-0.048-0.257-0.099-0.396
						c-0.514-1.412-2.72-2.576-6.57-3.461l-2.161-1.799l0.029-0.029c0.222-0.216,0.225-0.57,0.009-0.791
						c-0.218-0.221-0.57-0.225-0.791-0.008l-0.111,0.109l-1.062-0.885l0.072-0.071c0.221-0.216,0.224-0.57,0.008-0.791
						c-0.217-0.221-0.571-0.224-0.791-0.008l-0.153,0.15l-1.063-0.884l0.115-0.113c0.221-0.216,0.225-0.57,0.009-0.791
						c-0.218-0.222-0.571-0.224-0.791-0.008l-0.196,0.192l-1.063-0.884l0.158-0.155c0.221-0.217,0.224-0.571,0.008-0.791
						c-0.216-0.222-0.571-0.225-0.791-0.008l-0.238,0.234l-1.282-1.067c-0.217-0.181-0.534-0.171-0.74,0.021
						c-0.208,0.195-5.151,4.71-10.683-0.783c-0.055-0.055-0.12-0.096-0.19-0.123c-0.395-0.185-0.792-0.605-0.637-1.202
						c0.078-0.299-0.101-0.604-0.4-0.682c-0.299-0.078-0.604,0.102-0.682,0.4c-0.22,0.844,0.102,1.695,0.793,2.224
						c-1.081,2.291-2.662,5.598-2.89,5.948c-0.032,0.049-0.057,0.104-0.072,0.164l-0.84,3.229c-0.077,0.294,0.096,0.596,0.389,0.679
						c0.13,0.037,13.074,3.709,21.365,6.136c0.313,0.091,0.619,0.176,0.918,0.254c4.637,1.207,7.481,0.758,9.077,0.141
						C53.934,51.647,54.58,50.542,54.46,49.334z M53.076,47.854c0.09,0.224,0.056,0.39,0.025,0.473
						c-0.89,0.492-3.37,0.274-6.668-0.367l1.205-2.754C51.991,46.249,52.894,47.399,53.076,47.854z M25.844,36.212
						c4.562,4.034,9.137,2.337,11.289,0.594l0.83,0.691l-1.286,1.262c-0.222,0.216-0.225,0.57-0.009,0.791
						c0.073,0.075,0.164,0.125,0.258,0.15c0.185,0.048,0.388,0.001,0.533-0.142l1.367-1.342l1.063,0.885l-1.329,1.304
						c-0.221,0.216-0.224,0.57-0.008,0.791c0.073,0.075,0.163,0.125,0.258,0.15c0.184,0.048,0.388,0,0.533-0.142l1.41-1.384
						l1.063,0.884l-1.372,1.346c-0.222,0.216-0.225,0.57-0.009,0.791c0.074,0.075,0.164,0.125,0.259,0.149
						c0.184,0.048,0.387,0.001,0.532-0.142l1.453-1.425l1.063,0.884l-1.415,1.388c-0.221,0.216-0.224,0.57-0.008,0.791
						c0.073,0.075,0.163,0.125,0.258,0.15c0.185,0.048,0.388,0.001,0.533-0.142l1.495-1.468l2.028,1.689l-1.32,3.016
						c-6.451-1.36-15.436-4.073-21.985-6.297C23.961,40.189,25.228,37.52,25.844,36.212z M52.487,51.007
						c-1.536,0.594-4.397,0.999-9.276-0.425c-7.342-2.149-18.329-5.274-20.849-5.99l0.551-2.116
						c2.417,0.819,9.705,3.241,16.648,5.047c5.93,1.542,11.606,2.636,13.781,1.9l0.007,0.05
						C53.418,50.154,53.063,50.785,52.487,51.007z"/>
				</g>
			</g>
		</g>
	</g>
	<g>
		<g>
			<g>
				<g>
					<path fill="#FFFFFF" d="M39.397,24.052c0.508-0.132,1.225-0.079,1.782,0.185c0.357-0.502,0.958-0.897,1.466-1.029
						c0.299-0.078,0.604,0.101,0.682,0.4c0.078,0.299-0.102,0.604-0.4,0.682c-0.444,0.116-0.964,0.643-0.941,0.823v0.001
						c0.077,0.299-0.103,0.604-0.4,0.681c-0.291,0.076-0.587-0.091-0.675-0.375c-0.003-0.009-0.005-0.017-0.008-0.025
						c-0.068-0.168-0.778-0.376-1.223-0.26c-0.299,0.078-0.604-0.102-0.683-0.4C38.92,24.435,39.099,24.13,39.397,24.052z"/>
					<path fill="#FFFFFF" d="M17.108,36.526c1.596,0.617,4.44,1.065,9.077-0.141c0.299-0.078,0.604-0.163,0.918-0.254
						c8.291-2.427,21.235-6.1,21.365-6.136c0.293-0.083,0.466-0.385,0.389-0.679l-0.84-3.229c-0.016-0.06-0.04-0.115-0.072-0.164
						c-0.228-0.35-1.809-3.658-2.89-5.948c0.691-0.529,1.013-1.38,0.793-2.224c-0.077-0.298-0.383-0.478-0.682-0.4
						c-0.3,0.078-0.479,0.383-0.4,0.682c0.155,0.597-0.242,1.018-0.637,1.202c-0.07,0.027-0.136,0.068-0.19,0.123
						c-5.531,5.493-10.475,0.978-10.683,0.783c-0.206-0.193-0.523-0.202-0.74-0.021l-1.282,1.067l-0.238-0.234
						c-0.22-0.217-0.575-0.214-0.791,0.008c-0.216,0.22-0.213,0.574,0.008,0.791l0.158,0.155l-1.063,0.884l-0.196-0.192
						c-0.22-0.216-0.573-0.213-0.791,0.008c-0.216,0.22-0.212,0.574,0.009,0.791l0.115,0.113l-1.063,0.884l-0.153-0.15
						c-0.22-0.216-0.574-0.213-0.791,0.008c-0.216,0.221-0.213,0.575,0.008,0.791l0.072,0.071l-1.062,0.885l-0.111-0.109
						c-0.221-0.216-0.573-0.213-0.791,0.008c-0.216,0.22-0.213,0.574,0.009,0.791l0.029,0.029l-2.161,1.799
						c-3.851,0.886-6.057,2.049-6.57,3.461c-0.051,0.139-0.082,0.271-0.099,0.396c-0.005,0.019-0.011,0.038-0.014,0.058L15.54,33.81
						C15.42,35.017,16.066,36.123,17.108,36.526z M22.361,29.682l1.205,2.754c-3.298,0.641-5.778,0.859-6.668,0.367
						c-0.03-0.083-0.064-0.249,0.025-0.473C17.106,31.875,18.009,30.725,22.361,29.682z M46.673,25.912
						c-6.55,2.224-15.534,4.937-21.985,6.297l-1.32-3.016l2.028-1.689l1.495,1.468c0.146,0.143,0.349,0.189,0.533,0.142
						c0.095-0.025,0.185-0.075,0.258-0.15c0.216-0.22,0.213-0.574-0.008-0.791l-1.415-1.388l1.063-0.884l1.453,1.425
						c0.146,0.143,0.349,0.189,0.532,0.142c0.095-0.024,0.185-0.075,0.259-0.149c0.216-0.221,0.213-0.575-0.009-0.791l-1.372-1.346
						l1.063-0.884l1.41,1.384c0.146,0.142,0.35,0.189,0.533,0.142c0.095-0.025,0.185-0.075,0.258-0.15
						c0.216-0.22,0.213-0.574-0.008-0.791l-1.329-1.304l1.063-0.885l1.367,1.342c0.146,0.143,0.349,0.189,0.533,0.142
						c0.094-0.024,0.185-0.075,0.258-0.15c0.216-0.22,0.213-0.574-0.009-0.791l-1.286-1.262l0.83-0.691
						c2.152,1.743,6.728,3.439,11.289-0.594C44.772,21.995,46.039,24.665,46.673,25.912z M16.65,33.949l0.007-0.05
						c2.175,0.736,7.852-0.358,13.781-1.9c6.943-1.806,14.231-4.228,16.648-5.047l0.551,2.116c-2.52,0.715-13.507,3.841-20.849,5.99
						c-4.879,1.424-7.74,1.02-9.276,0.425C16.937,35.26,16.582,34.629,16.65,33.949z"/>
				</g>
			</g>
		</g>
	</g>
</g>
</svg>
