<?xml version="1.0" encoding="utf-8"?>
<!-- Generator: Adobe Illustrator 15.1.0, SVG Export Plug-In . SVG Version: 6.00 Build 0)  -->
<!DOCTYPE svg PUBLIC "-//W3C//DTD SVG 1.1//EN" "http://www.w3.org/Graphics/SVG/1.1/DTD/svg11.dtd">
<svg version="1.1" id="レイヤー_1" xmlns="http://www.w3.org/2000/svg" xmlns:xlink="http://www.w3.org/1999/xlink" x="0px"
	 y="0px" width="70px" height="70px" viewBox="0 0 70 70" enable-background="new 0 0 70 70" xml:space="preserve">
<g>
	<g>
		<g>
			<path fill="#FFFFFF" d="M23.427,29.594h-2.682c-0.412,0-0.745,0.333-0.745,0.745s0.333,0.745,0.745,0.745h2.682
				c0.411,0,0.746-0.333,0.746-0.745S23.838,29.594,23.427,29.594z"/>
		</g>
	</g>
	<g>
		<g>
			<path fill="#FFFFFF" d="M49.117,29.594h-1.643c-0.488,0-0.885,0.333-0.885,0.745s0.396,0.745,0.885,0.745h1.643
				c0.487,0,0.883-0.333,0.883-0.745S49.604,29.594,49.117,29.594z"/>
		</g>
	</g>
	<g>
		<g>
			<path fill="#FFFFFF" d="M26.497,39.223c-0.29-0.291-0.762-0.291-1.054,0l-3.488,3.489c-0.292,0.291-0.292,0.763,0,1.054
				c0.145,0.146,0.336,0.219,0.526,0.219c0.191,0,0.382-0.073,0.526-0.219l3.489-3.489C26.788,39.985,26.788,39.514,26.497,39.223z"
				/>
		</g>
	</g>
	<g>
		<g>
			<path fill="#FFFFFF" d="M45.906,19.814c-0.291-0.291-0.763-0.291-1.055,0l-1.896,1.897c-0.291,0.291-0.291,0.763,0,1.054
				c0.146,0.146,0.336,0.218,0.526,0.218s0.382-0.072,0.527-0.218l1.897-1.897C46.196,20.577,46.196,20.105,45.906,19.814z"/>
		</g>
	</g>
	<g>
		<g>
			<path fill="#FFFFFF" d="M27.807,21.711l-0.87-0.871c-0.291-0.29-0.763-0.29-1.055,0c-0.29,0.291-0.29,0.763,0,1.054l0.872,0.871
				c0.145,0.146,0.336,0.219,0.526,0.219c0.191,0,0.382-0.072,0.526-0.219C28.099,22.474,28.099,22.002,27.807,21.711z"/>
		</g>
	</g>
	<g>
		<g>
			<path fill="#FFFFFF" d="M47.271,41.174l-1.944-1.943c-0.29-0.292-0.763-0.292-1.053,0c-0.292,0.291-0.292,0.763,0,1.054
				l1.942,1.943c0.146,0.146,0.336,0.219,0.527,0.219c0.19,0,0.382-0.073,0.527-0.219C47.562,41.937,47.562,41.465,47.271,41.174z"
				/>
		</g>
	</g>
	<g>
		<g>
			<path fill="#FFFFFF" d="M35.382,21.62c-5.153,0-9.347,4.386-9.347,9.776c0,2.505,0.898,5.203,2.464,7.4
				c1.201,1.688,1.838,3.565,1.838,5.43v4.686c0,0.822,0.667,1.491,1.489,1.491h7.11c0.822,0,1.491-0.669,1.491-1.491v-4.686
				c0-1.864,0.635-3.742,1.836-5.43c1.565-2.197,2.464-4.896,2.464-7.4C44.728,26.006,40.535,21.62,35.382,21.62z M38.937,48.912
				h-7.11v-0.975h3.556c0.411,0,0.745-0.333,0.745-0.745c0-0.411-0.334-0.745-0.745-0.745h-3.556v-0.976h7.11V48.912
				C38.938,48.912,38.938,48.912,38.937,48.912z M34.336,35.008l-0.996-2.13h4.084l-0.997,2.13
				c-0.039,0.084-0.063,0.175-0.069,0.267l-0.577,8.707h-0.797l-0.578-8.707C34.399,35.183,34.375,35.092,34.336,35.008z
				 M41.051,37.933c-1.331,1.868-2.059,3.955-2.111,6.049h-1.665l0.562-8.469l1.434-3.063c0.108-0.23,0.091-0.501-0.046-0.716
				s-0.374-0.345-0.629-0.345h-6.427c-0.254,0-0.491,0.13-0.629,0.345c-0.136,0.215-0.154,0.485-0.046,0.716l1.434,3.063
				l0.563,8.469h-1.666c-0.053-2.094-0.78-4.181-2.11-6.049c-1.369-1.923-2.188-4.366-2.188-6.537c0-4.568,3.525-8.285,7.856-8.285
				s7.854,3.717,7.854,8.285C43.236,33.566,42.419,36.01,41.051,37.933z"/>
		</g>
	</g>
</g>
</svg>
