<?xml version="1.0" standalone="no"?>
<!DOCTYPE svg PUBLIC "-//W3C//DTD SVG 1.1//EN" "http://www.w3.org/Graphics/SVG/1.1/DTD/svg11.dtd" >
<svg xmlns="http://www.w3.org/2000/svg">
<metadata>
Created by FontPrep 20130207 at Tue Apr  4 15:34:47 2017
 By Tina Muller
Copyright 2016 by Paulo Goode. All rights reserved.
</metadata>
<defs>
<font id="01052ad4a26cf7af17e04729c8edd6a6" horiz-adv-x='1024' >
  <font-face 
    font-family="WoodfordBournePRO-ThinItalic"
    font-weight="100"
    font-style="italic"
    font-stretch="normal"
    units-per-em="2048"
    panose-1="0 0 2 0 0 0 0 0 0 0"
    ascent="1638"
    descent="-410"
    x-height="866"
    cap-height="1434"
    bbox="-1485.88 -584 4383.27 1873"
    underline-thickness="102"
    underline-position="-102"
    slope="-9"
    unicode-range="U+0020-FB02"
  />
<missing-glyph horiz-adv-x="1513" 
d="M852 702l197 -237q20 -30 -7 -51q-25 -25 -45 2l-202 237l-273 -237q-25 -20 -51 6q-18 23 6 47l275 233l-197 238q-20 25 3 48t48 1l203 -237l272 237q25 20 49 -2t-4 -51zM1047 -276h155l297 1873h-151q-31 0 -25 27l4 23q3 17 10 19q6 3 17 3h200q12 0 22 -10t7 -23
l-309 -1955q-4 -29 -35 -29h-201q-31 0 -24 26l4 23q4 23 29 23zM623 1597h-156l-297 -1873h152q31 0 24 -27l-4 -23q-3 -17 -10 -19q-6 -3 -17 -3h-200q-12 0 -22 10q-9 10 -7 23l309 1955q4 29 35 29h201q31 0 24 -27l-4 -22q-3 -23 -28 -23z" />
    <glyph glyph-name="fi" unicode="fi" horiz-adv-x="925" 
d="M686 1450q133 0 213 -76q23 -18 8 -37l-20 -22q-14 -16 -33 2q-66 66 -168 65q-219 0 -260 -258l-41 -258h434q13 0 21 -10t6 -22l-127 -807q-6 -27 -29 -27h-20q-29 0 -25 31l121 768h-393l-154 -979q-4 -27 -26 -27h-25q-10 0 -17 10t-6 21l154 975h-111q-26 0 -20 43
q4 25 29 24h114l43 275q49 309 332 309z" />
    <glyph glyph-name="fl" unicode="fl" horiz-adv-x="923" 
d="M913 1450q9 0 17 -9t6 -20l-221 -1396q-4 -25 -27 -25h-20q-10 0 -19 9q-8 9 -6 20l172 1091q12 119 -23 174q-36 56 -146 56t-159 -68t-73 -229l-29 -187h248q12 0 20 -10t6 -22v-7q-8 -29 -34 -28h-252l-154 -979q-4 -27 -26 -27h-25q-10 0 -17 10t-6 21l154 975h-111
q-26 0 -20 43q4 25 29 24h114l35 224q26 164 94 246t208 81q140 0 200 -90l16 98q4 25 29 25h20z" />
    <glyph glyph-name="f_f" unicode="ff" horiz-adv-x="1216" 
d="M647 1329q-111 1 -161 -67t-76 -230l-25 -166h393l31 203q18 139 -16 200q-35 60 -146 60zM1085 1382q-83 0 -127 -59t-65 -199l-41 -258h217q27 0 22 -34t-30 -33h-221l-154 -979q-4 -27 -27 -27h-24q-10 0 -18 10q-7 10 -5 21l154 975h-393l-154 -979q-4 -27 -26 -27
h-25q-10 0 -17 10t-6 21l154 975h-111q-26 0 -20 43q4 25 29 24h114l31 203q27 164 95 246q69 82 223 82t202 -103q61 156 228 156q102 0 174 -55q27 -20 14 -41l-10 -13q-16 -20 -37 -6q-63 47 -146 47z" />
    <glyph glyph-name="f_f_i" unicode="ffi" horiz-adv-x="1392" 
d="M778 866l27 170q25 158 -9 226t-147 68t-163 -68t-76 -230l-25 -166h393zM1286 866q12 0 20 -10t7 -22l-127 -807q-6 -27 -29 -27h-20q-29 0 -25 31l121 768h-393l-154 -979q-4 -27 -27 -27h-24q-10 0 -18 10q-7 10 -5 21l154 975h-393l-154 -979q-4 -27 -26 -27h-25
q-10 0 -17 10t-6 21l154 975h-111q-26 0 -20 43q4 25 29 24h114l31 203q27 164 95 246q69 82 225 82t202 -111q82 164 289 164q133 0 213 -76q23 -18 8 -37l-20 -22q-14 -16 -33 2q-66 66 -168 65q-219 0 -260 -258l-41 -258h434z" />
    <glyph glyph-name="f_f_l" unicode="ffl" horiz-adv-x="1390" 
d="M648 1329q-112 1 -162 -67t-76 -230l-25 -166h393l29 189q23 147 -12 211t-147 63zM1380 1450q10 0 18 -9t5 -20l-221 -1396q-4 -25 -27 -25h-20q-10 0 -19 9q-8 9 -6 20l172 1091q12 119 -24 174q-36 56 -146 56t-158 -68q-49 -68 -73 -229l-29 -187h248q12 0 20 -10
t6 -22v-7q-8 -29 -34 -28h-252l-154 -979q-4 -27 -27 -27h-24q-10 0 -18 10q-7 10 -5 21l154 975h-393l-154 -979q-4 -27 -26 -27h-25q-10 0 -17 10t-6 21l154 975h-111q-26 0 -20 43q4 25 29 24h114l31 203q27 164 95 246q69 82 227 82t204 -119q72 139 258 139
q129 0 189 -90l16 98q4 25 29 25h20z" />
    <glyph glyph-name=".notdef" horiz-adv-x="1513" 
d="M852 702l197 -237q20 -30 -7 -51q-25 -25 -45 2l-202 237l-273 -237q-25 -20 -51 6q-18 23 6 47l275 233l-197 238q-20 25 3 48t48 1l203 -237l272 237q25 20 49 -2t-4 -51zM1047 -276h155l297 1873h-151q-31 0 -25 27l4 23q3 17 10 19q6 3 17 3h200q12 0 22 -10t7 -23
l-309 -1955q-4 -29 -35 -29h-201q-31 0 -24 26l4 23q4 23 29 23zM623 1597h-156l-297 -1873h152q31 0 24 -27l-4 -23q-3 -17 -10 -19q-6 -3 -17 -3h-200q-12 0 -22 10q-9 10 -7 23l309 1955q4 29 35 29h201q31 0 24 -27l-4 -22q-3 -23 -28 -23z" />
    <glyph glyph-name=".null" 
 />
    <glyph glyph-name="nonmarkingreturn" horiz-adv-x="681" 
 />
    <glyph glyph-name="space" unicode=" " horiz-adv-x="471" 
 />
    <glyph glyph-name="exclam" unicode="!" horiz-adv-x="532" 
d="M197 -16q-27 0 -43 18t-12 43t24 42t46 17t42 -19t12 -45t-23 -41t-46 -15zM242 295q-27 0 -23 33l154 1093q2 29 33 29h36q35 0 29 -33l-190 -1093q-6 -29 -31 -29h-8z" />
    <glyph glyph-name="quotedbl" unicode="&#x22;" horiz-adv-x="724" 
d="M573 920q-29 0 -24 32l45 514q6 29 29 29h77q31 0 25 -33l-119 -514q-6 -29 -28 -28h-5zM307 920q-29 0 -24 32l45 514q6 29 28 29h78q31 0 25 -33l-119 -514q-6 -29 -29 -28h-4z" />
    <glyph glyph-name="numbersign" unicode="#" horiz-adv-x="1406" 
d="M922 532l73 469h-397l-76 -469h400zM1266 1069q31 0 30 -31v-6q0 -31 -30 -31h-191l-76 -469h170q31 0 31 -30v-6q0 -31 -35 -31h-180l-67 -434q-6 -31 -37 -31h-15q-33 0 -24 45l65 420h-399l-68 -434q-6 -31 -37 -31h-14q-33 0 -24 45l65 420h-182q-31 0 -31 31v6
q0 31 35 30h192l74 469h-172q-35 0 -35 31v6q0 31 35 31h182l56 350q6 31 37 31h24q27 0 19 -37l-56 -344h398l55 350q6 31 37 31h24q27 0 19 -37l-56 -344h181z" />
    <glyph glyph-name="dollar" unicode="$" horiz-adv-x="1146" 
d="M774 133.5q86 70.5 110 186.5t-34.5 195t-187.5 159l-99 -619q125 8 211 78.5zM474 1301.5q-85 -70.5 -103 -181t37 -177t190 -144.5l92 579q-131 -6 -216 -76.5zM502 -156h-21q-12 0 -21 9.5t-7 21.5l18 113q-236 27 -338 182q-14 20 0 33l29 24q16 16 31 -2
q41 -63 117.5 -108t170.5 -58l105 660q-92 55 -137.5 85t-94.5 79t-62 103t-3 126q20 150 134 242t279 96l17 106q6 33 33 33h20q14 0 22.5 -11t6.5 -26l-17 -106q98 -14 172 -59.5t107 -98.5q8 -16 -6 -26l-29 -21q-14 -10 -27 6q-94 109 -229 127l-98 -618q80 -47 129 -83
q49 -35 98 -89q96 -105 65.5 -260.5t-140 -246.5t-273.5 -93l-18 -113q-4 -27 -33 -27z" />
    <glyph glyph-name="percent" unicode="%" horiz-adv-x="1660" 
d="M1360 850q-202 0 -266 -400t134 -399q198 0 261 406q14 106 16 193q2 88 -34 144t-111 56zM1220 -16q-138 0 -189 109q-50 110 -10 360q40 249 123 357t220 108t187 -111q51 -111 11 -360t-122 -356t-220 -107zM528 1382q-202 0 -266 -399t134 -399t261 405
q15 105 17 193t-34 144t-112 56zM467 0q-20 0 -25 16q-4 16 7 31l790 1358q16 29 39 29h31q33 0 10 -39l-795 -1366q-16 -29 -41 -29h-16zM532 1450q138 0 188 -111t10 -359t-122 -356t-220 -108t-188 110t-10 360t122 356q83 108 220 108z" />
    <glyph glyph-name="ampersand" unicode="&#x26;" horiz-adv-x="1388" 
d="M468 55q100 -1 184 61q83 62 196 187q-209 238 -324 430q-122 -77 -196 -157t-92 -203q-24 -152 54 -235t178 -83zM709 1378q-77 0 -139 -56t-78 -161q-23 -147 63 -321q141 88 212 160t87 176q16 102 -26 152t-119 50zM720 1450q116 0 175 -78t39 -210t-128 -233
q-77 -72 -214 -157q102 -182 311 -407q109 123 287 262q25 14 43 -9l12 -16q14 -25 -6 -43q-98 -66 -285 -252q86 -105 238 -246q25 -20 4 -36l-16 -15q-20 -16 -38 -3t-112 103q-92 90 -133 138q-153 -189 -293 -240q-68 -25 -141 -24q-156 0 -247 104t-60 293
q20 125 95 219t236 201q-102 205 -75 370q20 123 106 201t202 78z" />
    <glyph glyph-name="quotesingle" unicode="'" horiz-adv-x="458" 
d="M307 920q-29 0 -24 32l45 514q6 29 28 29h78q31 0 25 -33l-119 -514q-6 -29 -29 -28h-4z" />
    <glyph glyph-name="parenleft" unicode="(" horiz-adv-x="708" 
d="M426 -207q-6 -10 -18 -8t-19 12q-102 174 -140 410t1 508q41 256 153 488q113 232 273 409q8 8 18 6t13 -10l10 -29q8 -25 -6 -41q-156 -174 -254 -403t-125 -430q-78 -475 110 -834q14 -27 7 -43z" />
    <glyph glyph-name="parenright" unicode=")" horiz-adv-x="708" 
d="M369 1608q6 10 18 8t19 -12q102 -174 140 -410t-1 -508q-41 -256 -154 -488t-272 -409q-9 -8 -19 -6t-12 10l-10 29q-8 25 6 41q156 174 254 403t125 430q78 475 -111 834q-14 27 -6 43z" />
    <glyph glyph-name="asterisk" unicode="*" horiz-adv-x="796" 
d="M532 1450h52q25 0 18 -20l-61 -222l6 -4l215 88q16 6 22 -14l13 -47q8 -23 -15 -25l-231 -43l-2 -8l125 -166q10 -18 -6 -28l-47 -31q-18 -10 -27 10l-84 195h-4l-137 -203q-13 -16 -31 -2l-37 31q-18 16 -6 28l182 166l-2 10l-213 41q-20 6 -10 29l24 47q8 18 25 12
l195 -90l2 6l10 222q0 18 24 18z" />
    <glyph glyph-name="plus" unicode="+" horiz-adv-x="1114" 
d="M965 737q35 0 28 -32l-2 -11q-6 -29 -35 -28h-323l-51 -330q-6 -31 -35 -31h-17q-33 0 -26 35l51 326h-319q-35 0 -29 32l2 13q6 27 35 26h323l51 330q6 31 33 31h17q35 0 28 -35l-51 -326h320z" />
    <glyph glyph-name="comma" unicode="," horiz-adv-x="444" 
d="M150 115h49q32 0 26 -31l-12 -84q-12 -76 -56 -116t-112 -66q-23 -8 -25 12q-4 20 17 29q49 23 78 49t35 76l-33 16q-16 6 -15 31l9 53q6 31 39 31z" />
    <glyph glyph-name="hyphen" unicode="-" horiz-adv-x="868" 
d="M193 430q-28 0 -23 47q4 25 29 25h487q28 0 23 -47q-4 -25 -29 -25h-487z" />
    <glyph glyph-name="period" unicode="." horiz-adv-x="442" 
d="M129 0q-35 0 -29 33l9 49q6 33 36 33h50q35 0 28 -33l-8 -49q-6 -33 -37 -33h-49z" />
    <glyph glyph-name="slash" unicode="/" horiz-adv-x="563" 
d="M35 0h-12q-39 0 -23 35l575 1366q12 33 43 33h17q33 0 18 -35l-575 -1366q-12 -33 -43 -33z" />
    <glyph glyph-name="zero" unicode="0" horiz-adv-x="1163" 
d="M735 1378q-357 0 -463 -662t250 -661q356 -1 460 661t-247 662zM514 -16q-442 0 -326 733t554 733q436 0 322 -733t-550 -733z" />
    <glyph glyph-name="one" unicode="1" horiz-adv-x="935" 
d="M643 1434q13 0 21 -10t6 -23l-211 -1329h264q12 0 21 -11t5 -36q-5 -25 -32 -25h-608q-34 0 -27 45q4 27 33 27h266l199 1257l-246 -190q-12 -10 -28 -5q-15 5 -13 21l2 23q2 16 33 41l254 196q25 18 41 19h20z" />
    <glyph glyph-name="two" unicode="2" horiz-adv-x="1171" 
d="M88 0q-31 0 -29 27v2q0 14 11 24l741 711q96 92 135 157t51 144q27 170 -51 242t-215 71q-279 0 -360 -262q-8 -20 -27 -20h-37q-29 0 -16 34q113 319 454 320h5q206 0 280 -112t49 -274q-25 -163 -161 -304l-717 -688h717q12 0 21 -10t5 -36t-33 -26h-823z" />
    <glyph glyph-name="three" unicode="3" horiz-adv-x="1204" 
d="M742 1450q200 0 297 -100t69 -275q-37 -233 -272 -330q-4 -4 -9 -4q169 -55 203 -192q16 -66 4 -154q-27 -186 -162 -299q-136 -112 -334 -112t-306 93t-87 242q4 20 27 21h29q27 0 22 -29q-12 -102 74 -179t248 -77q163 1 275 99t134 252t-78 226q-101 71 -286 70h-101
q-32 0 -26 46q4 27 33 26h100q158 0 283 79t147 222t-54 223q-77 80 -234 80t-263 -76t-125 -186q-4 -20 -26 -20h-31q-27 0 -19 28q20 138 144 232t324 94z" />
    <glyph glyph-name="four" unicode="4" horiz-adv-x="1173" 
d="M219 406h567l142 888zM967 1434h28q13 0 21 -10t6 -23l-158 -995h133q11 0 19 -10q9 -10 2 -38q-4 -25 -29 -24h-137l-49 -309q-4 -25 -27 -25h-24q-10 0 -19 9q-8 9 -6 20l47 305h-635q-37 0 -20 59l813 1024q12 17 35 17z" />
    <glyph glyph-name="five" unicode="5" horiz-adv-x="1204" 
d="M550 -16q-204 0 -317 94q-111 94 -90 227q6 35 31 35h35q23 0 18 -29q-14 -96 68 -176t256 -80t277 112q104 112 130 259q26 146 -12 236t-112 124q-159 74 -347 1q-92 -36 -159 -97q-10 -8 -39 -2l-31 6q-25 6 -18 33l215 680q10 27 32 27h615q10 0 18 -8t6 -19l-2 -23
q-4 -23 -28 -22h-572l-186 -576q82 62 186 92t204 16t181 -61q80 -48 118 -153t13 -248q-34 -190 -160 -319t-330 -129z" />
    <glyph glyph-name="six" unicode="6" horiz-adv-x="1163" 
d="M661 842q-137 0 -261 -96t-146 -279q-22 -182 54 -297t236 -115q161 0 265 110q104 109 132 303t-58 284t-222 90zM668 913q188 -1 287 -119t69 -330t-154 -346q-123 -134 -333 -134q-459 0 -351 714q59 388 209 570t359 182q166 0 240 -97t73 -229q0 -29 -27 -28h-26
q-25 0 -25 28q-4 102 -61 178t-187 76q-169 0 -293 -168t-204 -569q137 272 424 272z" />
    <glyph glyph-name="seven" unicode="7" horiz-adv-x="966" 
d="M297 1362q-27 0 -23 27l5 20q4 25 24 25h696q25 0 35 -18t-2 -40l-792 -1362q-10 -14 -31 -14h-29q-16 0 -19 15t7 30l768 1317h-639z" />
    <glyph glyph-name="eight" unicode="8" horiz-adv-x="1175" 
d="M530 55q150 0 270 87t142 239q39 264 -305 338q-160 -29 -279 -113q-118 -84 -142 -234t70 -234q94 -83 244 -83zM735 1378q-141 0 -237 -76t-116 -218q-20 -140 50 -208t207 -94q315 49 360 308q23 132 -50 210t-214 78zM744 1450q192 0 278 -100t61 -244t-110 -235
q-86 -91 -197 -128q123 -31 195 -131t50 -250t-156 -264t-341 -114t-311 116q-103 116 -79 266q24 152 126 251t234 131q-100 35 -157 125q-55 91 -33 238t134 243q114 96 306 96z" />
    <glyph glyph-name="nine" unicode="9" horiz-adv-x="1150" 
d="M584 596q367 0 426 360q29 195 -42 309q-71 113 -237 113q-165 0 -277 -108t-141 -289t46 -283t225 -102zM502 -16q-213 0 -287 174q-34 79 -29 151q2 31 25 31h33q22 0 22 -33t10 -71t35 -82q25 -43 77 -71t122 -28q193 0 296 163t165 493q-115 -186 -391 -187
q-207 0 -294 125q-86 125 -54 335t164 338t343 128t299 -140t52 -362q-60 -379 -136 -587q-76 -209 -181 -293t-271 -84z" />
    <glyph glyph-name="colon" unicode=":" horiz-adv-x="526" 
d="M170 0q-35 0 -29 33l9 49q6 33 36 33h50q35 0 28 -33l-8 -49q-6 -33 -37 -33h-49zM268 610q-35 0 -28 33l8 49q6 33 37 33h49q35 0 28 -33l-8 -49q-6 -33 -37 -33h-49z" />
    <glyph glyph-name="semicolon" unicode=";" horiz-adv-x="526" 
d="M190 115h50q32 0 26 -31l-12 -84q-12 -76 -56 -116t-112 -66q-23 -8 -25 12q-4 20 17 29q49 23 78 49t34 76l-32 16q-16 6 -15 31l9 53q6 31 38 31zM268 610q-35 0 -28 33l8 49q6 33 37 33h49q35 0 28 -33l-8 -49q-6 -33 -37 -33h-49z" />
    <glyph glyph-name="less" unicode="&#x3c;" horiz-adv-x="1230" 
d="M340 702l704 -258q29 -10 19 -36l-10 -23q-10 -20 -43 -8l-781 293q-23 10 -22 26l2 19q2 12 27 20l864 336q27 10 35 -10l8 -19q8 -23 -23 -34z" />
    <glyph glyph-name="equal" unicode="=" horiz-adv-x="1118" 
d="M205 502q-28 0 -23 47q4 25 29 24h735q28 0 23 -47q-4 -25 -29 -24h-735zM258 834q-29 0 -24 36q6 36 30 35h735q28 0 23 -47q-4 -25 -29 -24h-735z" />
    <glyph glyph-name="greater" unicode="&#x3e;" horiz-adv-x="1230" 
d="M977 702l-705 259q-29 10 -18 36l10 23q10 20 43 8l780 -293q23 -10 23 -26l-2 -19q-2 -12 -27 -20l-864 -336q-27 -10 -35 10l-8 18q-8 23 23 35z" />
    <glyph glyph-name="question" unicode="?" horiz-adv-x="1005" 
d="M365 -16q-25 0 -40 19t-12 44q10 51 66 51q25 0 40 -18t11 -43q-10 -53 -65 -53zM662 1450q198 0 274 -102t53 -243t-126 -246q-45 -47 -160 -146q-188 -162 -229 -296q-13 -46 -25 -120q-4 -25 -23 -25h-31q-25 0 -18 43q29 209 219 392q25 25 80 73q169 149 211 241
q20 46 28 97q20 123 -51 195q-72 72 -215 71q-217 0 -334 -153q-14 -16 -30 -4l-19 16q-18 16 -2 39q136 168 398 168z" />
    <glyph glyph-name="at" unicode="@" horiz-adv-x="1601" 
d="M874 815q-156 0 -248 -100q-92 -99 -119 -277t29 -282t212 -105q156 1 230 101t101 288q11 100 13 184t-52 138q-54 53 -166 53zM740 -16q-190 0 -266 129q-75 129 -44 327t144 321q114 122 297 122t249 -117l15 47q14 37 32 37h23q23 0 18 -33l-98 -618q-8 -59 11 -103
t75 -45q109 0 131 154l103 637q12 80 -23 156t-123 77l-450 4q-232 0 -400 -175t-217 -478q-16 -152 -7 -218t46 -169q14 -39 -12 -39h-23q-37 0 -49 47q-59 184 -29 387q49 336 239 524t449 189l467 -4q119 -2 170 -97t35 -196l-104 -662q-33 -205 -209 -204
q-152 0 -160 139q-100 -139 -290 -139z" />
    <glyph glyph-name="A" unicode="A" horiz-adv-x="1198" 
d="M303 426h592l-160 805l-6 33zM756 1450q6 0 10 -12l287 -1397q4 -16 -6.5 -28.5t-24.5 -12.5h-18q-25 0 -25 23l-70 331h-645l-172 -336q-10 -18 -26 -18h-21q-14 0 -22.5 14.5t0.5 30.5l720 1397q4 8 9 8h4z" />
    <glyph glyph-name="B" unicode="B" horiz-adv-x="1130" 
d="M553 72q315 0 367 315q45 295 -211 295h-426l-97 -610h367zM678 1362h-287l-98 -608h377q119 0 191.5 64.5t101.5 242.5q14 59 8 103t-11.5 76t-29.5 54q-47 45 -101.5 56.5t-150.5 11.5zM575 0h-450q-10 0 -18.5 9t-6.5 20l219 1380q4 25 27 25h395q170 0 252 -86
t49 -295q-43 -258 -194 -324q88 -25 131 -117t17 -250.5t-136 -260t-285 -101.5z" />
    <glyph glyph-name="C" unicode="C" horiz-adv-x="1406" 
d="M714 -16q-288 0 -441.5 216t-104.5 520t267 517t503 213t451 -231q14 -20 -5 -37l-22 -19q-25 -20 -41 8q-41 72 -145.5 139.5t-239.5 67.5q-256 0 -449.5 -196.5t-236.5 -467.5t86 -465t383 -194q135 0 262 66.5t213 163.5q16 16 37 0l16 -15q20 -20 0 -41
q-245 -245 -533 -245z" />
    <glyph glyph-name="D" unicode="D" horiz-adv-x="1224" 
d="M477 72q485 0 586.5 645t-377.5 645h-297l-205 -1290h293zM481 0h-356q-10 0 -18.5 9t-6.5 20l219 1380q4 25 27 25h365q276 0 382.5 -186.5t51.5 -536.5q-115 -711 -664 -711z" />
    <glyph glyph-name="E" unicode="E" horiz-adv-x="987" 
d="M778 72q10 0 18.5 -8.5t6.5 -18.5l-4 -22q-4 -23 -27 -23h-647q-10 0 -18.5 9t-6.5 20l219 1380q4 25 27 25h649q10 0 17.5 -9.5t5.5 -19.5l-4 -23q-2 -20 -25 -20h-600l-96 -608h434q10 0 18.5 -8.5t6.5 -18.5l-4 -22q-4 -23 -29 -23h-438l-97 -610h594z" />
    <glyph glyph-name="F" unicode="F" horiz-adv-x="942" 
d="M969 1434q27 0 22 -48q-4 -25 -28 -24h-574l-104 -660h428q10 0 18 -8t6 -18l-4 -23q-4 -23 -28 -22h-433l-96 -606q-4 -25 -20 -25h-33q-10 0 -17.5 9t-5.5 20l219 1380q4 25 27 25h623z" />
    <glyph glyph-name="G" unicode="G" horiz-adv-x="1425" 
d="M1272 662q27 0 22 -27l-71 -445q-2 -16 -15 -28q-74 -76 -207 -127t-271 -51t-249.5 53t-190.5 147.5t-113 234.5t-9 302q51 319 282.5 524t497.5 205q181 0 296 -93q85 -69 130 -136q16 -20 0 -33l-26 -23q-23 -18 -35 3t-36 48t-69 68t-117.5 67.5t-156.5 26.5
q-242 0 -441.5 -198.5t-242.5 -465.5t92 -463t387 -196q133 0 250 46t172 114l59 375h-292q-29 0 -25 26l4 23q4 23 29 23h346z" />
    <glyph glyph-name="H" unicode="H" horiz-adv-x="1277" 
d="M1249 1434q23 0 19 -29l-219 -1380q-4 -25 -21 -25h-35q-25 0 -20 29l102 653h-794l-105 -659q-4 -23 -20 -23h-35q-25 0 -21 29l219 1380q4 25 23 25h35q23 0 18 -29l-102 -651h794l105 655q4 25 22 25h35z" />
    <glyph glyph-name="I" unicode="I" horiz-adv-x="407" 
d="M119 0q-23 0 -19 29l219 1380q4 25 23 25h37q23 0 18 -29l-219 -1380q-4 -25 -20 -25h-39z" />
    <glyph glyph-name="J" unicode="J" horiz-adv-x="811" 
d="M776 1434q29 0 25 -35l-164 -1032q-31 -188 -106.5 -285.5t-227.5 -97.5q-207 0 -272 211q-10 27 6 34l31 15q20 10 30 -19q57 -170 209 -170q100 0 164 79t92 259l160 1010q4 31 29 31h24z" />
    <glyph glyph-name="K" unicode="K" horiz-adv-x="1067" 
d="M156 0h-35q-25 0 -21 29l219 1380q4 25 23 25h35q23 0 18 -29l-102 -651l706 655q27 25 54 25h43q10 0 13 -10.5t-5 -18.5l-742 -688l531 -692q8 -8 5 -16.5t-13 -8.5h-54q-18 0 -43 29l-505 661l-107 -667q-4 -23 -20 -23z" />
    <glyph glyph-name="L" unicode="L" horiz-adv-x="942" 
d="M756 72q28 0 21 -36t-27 -36h-625q-10 0 -18.5 9t-6.5 20l217 1378q6 27 25 27h35q23 0 18 -31l-211 -1331h572z" />
    <glyph glyph-name="M" unicode="M" horiz-adv-x="1474" 
d="M1423 1434h23q23 0 18 -29l-219 -1382q-4 -23 -20 -23h-35q-25 0 -21 27l185 1165l-643 -1169q-10 -23 -21 -23h-18q-12 0 -19 27l-293 1165l-184 -1169q-4 -23 -22 -23h-35q-23 0 -19 27l219 1382q4 25 25 25h14q18 0 27 -33l311 -1258l693 1262q18 29 34 29z" />
    <glyph glyph-name="N" unicode="N" horiz-adv-x="1288" 
d="M1257 1434q25 0 21 -29l-219 -1382q-4 -23 -23 -23h-22q-16 0 -31 27l-608 1249l-199 -1253q-4 -23 -20 -23h-35q-25 0 -21 27l219 1382q4 25 25 25h18q18 0 33 -33l609 -1243l198 1251q4 25 21 25h34z" />
    <glyph glyph-name="O" unicode="O" horiz-adv-x="1564" 
d="M717 55q260 0 452.5 198t233.5 466q27 172 -16.5 320.5t-161 243.5t-291.5 95q-260 0 -450.5 -199.5t-233.5 -467.5q-27 -172 15 -319.5t160 -242t292 -94.5zM714.5 -16q-284.5 0 -440 214t-106.5 521t268 519t504 212t439.5 -215t105.5 -523t-267.5 -518t-503 -210z" />
    <glyph glyph-name="P" unicode="P" horiz-adv-x="1024" 
d="M537 616q328 0 391 375q59 371 -262 371h-277l-119 -746h267zM555 545h-295l-84 -522q-4 -23 -20 -23h-35q-25 0 -21 27l219 1382q4 25 27 25h344q150 0 255 -103t66.5 -338t-167.5 -341.5t-289 -106.5z" />
    <glyph glyph-name="Q" unicode="Q" horiz-adv-x="1593" 
d="M717 55q260 0 452.5 198t233.5 466q27 172 -16.5 320.5t-161 243.5t-291.5 95q-260 0 -450.5 -199.5t-233.5 -467.5q-27 -172 15 -319.5t160 -242t292 -94.5zM940 1450q285 0 439.5 -215t106.5 -521t-263 -515l168 -201q20 -20 -2 -41l-19 -16q-23 -18 -41 4l-166 200
q-201 -162 -448 -161q-285 0 -440.5 214t-106.5 521t268 519t504 212z" />
    <glyph glyph-name="R" unicode="R" horiz-adv-x="1087" 
d="M586 639q301 0 358 361.5t-217 361.5h-338l-115 -723h312zM862 0h-35q-16 0 -28 27l-164 540h-373l-86 -544q-4 -23 -24 -23h-29q-27 0 -23 27l219 1382q4 25 25 25h424q135 0 213 -112t45 -321q-55 -342 -315 -419l166 -555q8 -27 -15 -27z" />
    <glyph glyph-name="S" unicode="S" horiz-adv-x="1064" 
d="M523.5 -16q-148.5 0 -262.5 50t-169 136q-14 20 0 33l29 24q16 16 31 -2q49 -74 142 -122t215 -48t216 72t119.5 203.5t-68.5 223.5q-51 50 -95 81t-134 83t-135 82.5t-95.5 80t-64.5 103.5t-4 128q20 154 137 246t287 92q123 0 217 -49t133 -113q8 -16 -6 -26l-29 -21
q-14 -10 -26 6q-113 131 -289 131q-139 0 -230.5 -71.5t-111.5 -190.5q-10 -61 2 -108t59 -90.5t87 -70t129 -77.5t137.5 -85t104.5 -90q107 -107 76.5 -268.5t-142 -252t-260 -90.5z" />
    <glyph glyph-name="T" unicode="T" horiz-adv-x="1101" 
d="M1128 1434q28 0 23 -48q-4 -25 -29 -24h-385l-213 -1337q-4 -25 -24 -25h-29q-10 0 -17.5 9t-4.5 20l210 1333h-380q-10 0 -18.5 9t-2.5 38q4 25 27 25h843z" />
    <glyph glyph-name="U" unicode="U" horiz-adv-x="1314" 
d="M1282 1434q27 0 23 -31l-142 -850q-41 -258 -191.5 -413.5t-379.5 -155.5t-339 157.5t-69 415.5l142 850q6 27 28 27h27q27 0 22 -31l-139 -844q-37 -219 55.5 -361.5t279.5 -142.5t320.5 143.5t167.5 364.5l140 844q4 27 26 27h29z" />
    <glyph glyph-name="V" unicode="V" horiz-adv-x="1228" 
d="M1257 1434q12 0 19.5 -9.5t3.5 -21.5l-723 -1383q-10 -20 -29 -20h-6q-18 0 -22 25l-242 1382q-4 27 21 27h32q20 0 25 -31l217 -1241l643 1245q14 27 35 27h26z" />
    <glyph glyph-name="W" unicode="W" horiz-adv-x="1628" 
d="M1661 1434q10 0 16 -13.5t0 -29.5l-538 -1373q-8 -18 -21 -18h-8q-20 0 -20 23l-150 1202l-534 -1207q-8 -18 -21 -18h-8q-18 0 -19 23l-102 1372q-4 39 25 39h28q18 0 23 -23l82 -1198l532 1202q8 18 19 19h8q12 0 16 -23l152 -1192l467 1196q8 18 26 19h27z" />
    <glyph glyph-name="X" unicode="X" horiz-adv-x="1181" 
d="M977 0h-31q-25 0 -37 27l-278 637l-484 -641q-20 -23 -41 -23h-30q-12 0 -16.5 12.5t3.5 24.5l531 692l-291 672q-16 33 12 33h35q18 0 31 -23l266 -614l463 614q16 23 39 23h33q12 0 17 -12.5t-7 -26.5l-508 -666l305 -698q6 -10 2 -20.5t-14 -10.5z" />
    <glyph glyph-name="Y" unicode="Y" horiz-adv-x="1136" 
d="M1171 1434q12 0 17.5 -11.5t-4.5 -25.5l-568 -774l-96 -600q-4 -23 -24 -23h-29q-27 0 -23 27l95 596l-277 778q-10 33 12 33h33q23 0 33 -23l248 -706l516 706q16 23 39 23h28z" />
    <glyph glyph-name="Z" unicode="Z" horiz-adv-x="1103" 
d="M313 1362q-27 0 -22 27l4 22q4 23 24 23h795q14 0 19.5 -16.5t-7.5 -31.5l-952 -1314h721q27 0 23 -27l-5 -22q-4 -23 -24 -23h-805q-16 0 -23.5 15.5t2.5 29.5l955 1317h-705z" />
    <glyph glyph-name="bracketleft" unicode="[" horiz-adv-x="628" 
d="M623 1597h-156l-297 -1873h152q31 0 24 -27l-4 -23q-3 -17 -10 -19q-6 -3 -17 -3h-200q-12 0 -22 10q-9 10 -7 23l309 1955q4 29 35 29h201q31 0 24 -27l-4 -22q-3 -23 -28 -23z" />
    <glyph glyph-name="backslash" unicode="\" horiz-adv-x="1005" 
d="M840 0q-31 0 -43 33l-576 1366q-14 35 19 35h16q31 0 43 -33l575 -1366q18 -35 -22 -35h-12z" />
    <glyph glyph-name="bracketright" unicode="]" horiz-adv-x="628" 
d="M78 -276h155l297 1873h-151q-31 0 -25 27l4 23q3 17 10 20q7 2 17 2h201q12 0 21 -10t7 -23l-309 -1955q-4 -29 -35 -29h-200q-31 0 -25 26l4 23q4 23 29 23z" />
    <glyph glyph-name="asciicircum" unicode="^" horiz-adv-x="860" 
d="M791 1145h-7q-20 0 -32 33l-144 360l-262 -364q-16 -29 -41 -29h-6q-37 0 -8 47l270 418q27 27 37 28h41q14 0 18 -6t13 -26l137 -418q12 -43 -16 -43z" />
    <glyph glyph-name="underscore" unicode="_" horiz-adv-x="1353" 
d="M84 -223q-23 0 -21 22l3 19q4 27 26 26h975q29 0 25 -26l-2 -19q-2 -23 -27 -22h-979z" />
    <glyph glyph-name="grave" unicode="`" horiz-adv-x="710" 
d="M649 1325l-291 219q-25 18 -4 45l17 23q20 31 45 6l262 -250q20 -20 6 -41q-15 -18 -35 -2z" />
    <glyph glyph-name="a" unicode="a" horiz-adv-x="976" 
d="M436 51q281 0 338 389q8 84 11 145.5t-13 103.5q-16 43 -32 67q-40 60 -173 59q-166 0 -263 -114.5t-123.5 -274.5t33.5 -267.5t222 -107.5zM872 850q10 0 17.5 -10.5t5.5 -20.5l-125 -792q-4 -27 -27 -27h-12q-20 0 -20 33l6 104q-18 -49 -96 -100t-198 -54t-203 60
q-157 119 -118 387q29 186 151 319.5t314 133.5q84 0 142.5 -26t77 -48.5t24.5 -42.5l16 53q12 31 31 31h14z" />
    <glyph glyph-name="b" unicode="b" horiz-adv-x="968" 
d="M427 51q122 0 226.5 101.5t132 275.5t-32 280.5t-185.5 106.5t-227 -93t-131 -287.5t32.5 -289t184.5 -94.5zM568 883q176 0 251.5 -132.5t43.5 -327t-152.5 -317t-290.5 -122.5t-248 139l-29 -86q-12 -37 -28 -37h-13q-10 0 -17 10t-5 21l221 1392q4 27 27 27h24
q25 0 21 -31l-113 -698q132 162 308 162z" />
    <glyph glyph-name="c" unicode="c" horiz-adv-x="923" 
d="M448 -16q-182 0 -279 133t-66.5 320t165.5 316.5t325 129.5t263 -146q12 -20 -4 -30l-31 -19q-20 -10 -30 10q-68 117 -216.5 117t-259 -114.5t-134.5 -267.5t46 -267.5t221.5 -114.5t262.5 135q18 20 37 2l22 -20q14 -16 -6 -37q-134 -147 -316 -147z" />
    <glyph glyph-name="d" unicode="d" horiz-adv-x="968" 
d="M429.5 51q143.5 0 222.5 103.5t108 279.5q59 381 -193 381q-156 0 -258 -112.5t-129 -275.5t39.5 -269.5t210 -106.5zM961 1450q25 0 20 -31l-219 -1392q-4 -27 -27 -27h-10q-25 0 -25 41l-2 68q-109 -125 -278.5 -125t-258.5 128t-58.5 320t156.5 321.5t302 129.5
t238 -135l110 675q4 27 27 27h25z" />
    <glyph glyph-name="e" unicode="e" horiz-adv-x="956" 
d="M547 815q-133 0 -230.5 -94t-130.5 -242l596 4q25 164 -38.5 248t-196.5 84zM564 883q171 0 252 -119t38 -324q-6 -27 -33 -26l-645 -2q-16 -158 49.5 -259.5t213.5 -101.5t259 117q18 16 33 2l21 -20q16 -18 -9 -44q-115 -123 -302 -122.5t-279 127.5t-59.5 328.5
t161.5 322.5t300 121z" />
    <glyph glyph-name="f" unicode="f" horiz-adv-x="749" 
d="M615.5 1450q109.5 0 181.5 -55q27 -20 14 -41l-10 -13q-16 -20 -37 -6q-63 47 -146 47t-126 -59t-66 -199l-41 -258h217q27 0 21 -43q-4 -25 -29 -24h-221l-154 -979q-4 -27 -26 -27h-25q-10 0 -17.5 10.5t-5.5 20.5l154 975h-111q-26 0 -20 43q4 25 29 24h114l43 279
q29 164 90.5 234.5t171 70.5z" />
    <glyph glyph-name="g" unicode="g" horiz-adv-x="976" 
d="M444 51q268 0 324 379q29 188 -16 286.5t-197 98.5t-250 -113.5t-125 -274.5t37.5 -268.5t226.5 -107.5zM872 850q10 0 17.5 -10.5t5.5 -20.5l-141 -889q-27 -164 -128.5 -254t-250.5 -90q-225 0 -295 207q-6 20 6 27l31 18q20 10 28 -14q52 -122 136 -154q41 -16 94 -16
q119 0 204 80t105 219l27 166q-102 -135 -286.5 -135t-268.5 128t-54.5 317t153.5 321.5t304 132.5q100 0 163.5 -41t84.5 -101l24 78q6 20 11.5 25.5t15.5 5.5h14z" />
    <glyph glyph-name="h" unicode="h" horiz-adv-x="937" 
d="M561 883q133 0 206 -82t44 -258l-84 -518q-4 -25 -27 -25h-20q-10 0 -18.5 9t-6.5 20l78 489q47 297 -180 297q-119 0 -209 -71.5t-100 -139.5l-92 -579q-4 -25 -27 -25h-21q-10 0 -18 9t-6 20l221 1396q4 25 29 25h20q10 0 17.5 -9t5.5 -20l-107 -676q35 51 121 94.5
t174 43.5z" />
    <glyph glyph-name="i" unicode="i" horiz-adv-x="391" 
d="M119 0q-10 0 -19 9q-8 9 -6 20l129 813q4 25 29 24h20q10 0 18 -9t5 -19l-129 -813q-4 -25 -27 -25h-20zM307 1118q-23 0 -36 16t-11 37q8 47 55 48q23 -1 37 -17t10 -39q-10 -45 -55 -45z" />
    <glyph glyph-name="j" unicode="j" horiz-adv-x="446" 
d="M-68 -412q-141 0 -196 156q-8 25 4 33l31 18q20 10 26 -10q43 -129 146 -129q150 0 182 209l151 973q6 29 29 28h23q27 0 22 -32l-155 -981q-44 -265 -263 -265zM362 1116q-22 0 -36 16t-11 39q8 47 56 48q23 -1 37 -17t10 -39q-11 -47 -56 -47z" />
    <glyph glyph-name="k" unicode="k" horiz-adv-x="796" 
d="M631 0h-27q-27 0 -51 31l-330 438l-71 -444q-4 -25 -27 -25h-21q-10 0 -18 9t-6 20l221 1396q4 25 29 25h20q10 0 17.5 -9t5.5 -20l-142 -897l396 314q37 29 57 28h29q18 0 19 -15t-15 -28l-422 -334l346 -458q8 -12 5 -21.5t-15 -9.5z" />
    <glyph glyph-name="l" unicode="l" horiz-adv-x="360" 
d="M104 0q-10 0 -18 9t-6 20l221 1396q4 25 29 25h20q10 0 17.5 -9t5.5 -20l-221 -1396q-4 -25 -27 -25h-21z" />
    <glyph glyph-name="m" unicode="m" horiz-adv-x="1441" 
d="M1081 883q143 0 204 -78t40 -209l-92 -571q-4 -25 -27 -25h-20q-10 0 -18.5 9t-6.5 20l80 510q23 139 -11 207.5t-152 68.5t-199.5 -69.5t-96.5 -151.5l-90 -569q-4 -25 -26 -25h-21q-10 0 -18.5 9t-5.5 20l75 483q25 160 -8 232q-34 72 -152 71.5t-200 -71t-94 -150.5
l-90 -569q-4 -25 -27 -25h-21q-10 0 -18 9t-6 20l125 796q4 25 28 25h11q20 0 20 -37v-57q106 127 288 127t224 -152q110 152 305 152z" />
    <glyph glyph-name="n" unicode="n" horiz-adv-x="935" 
d="M593.5 883q119.5 0 183 -76t40.5 -213l-90 -569q-4 -25 -27 -25h-20q-10 0 -18.5 9t-6.5 20l80 503q25 152 -15 217.5t-154 65.5t-211 -65.5t-111 -153.5l-92 -571q-4 -25 -27 -25h-21q-10 0 -18 9t-6 20l125 796q4 25 28 25h13q18 0 18 -37l2 -72q39 55 123.5 98.5
t204 43.5z" />
    <glyph glyph-name="o" unicode="o" horiz-adv-x="1009" 
d="M442.5 51q153.5 0 257 116t128 267.5t-40 266t-218.5 114.5t-260 -118.5t-130 -268.5t43 -263.5t220.5 -113.5zM438 -16q-180 0 -272 128t-62 320t159.5 321.5t312 129.5t271.5 -131q89 -130 58 -322t-159 -319t-308 -127z" />
    <glyph glyph-name="p" unicode="p" horiz-adv-x="952" 
d="M423 51q132 0 228.5 101.5t125 281.5t-39 280.5t-193.5 100.5t-216 -106.5t-118 -277.5t26.5 -275.5t186.5 -104.5zM549.5 883q181.5 0 255.5 -132.5t43 -326t-143.5 -317t-276.5 -123.5q-96 0 -163.5 45t-92.5 121l-88 -556q-4 -25 -29 -24h-20q-10 0 -17.5 9t-5.5 20
l193 1226q4 25 28 25h9q25 0 24 -37l2 -88q100 158 281.5 158z" />
    <glyph glyph-name="q" unicode="q" horiz-adv-x="935" 
d="M399 51q127 0 213 100.5t115 282.5t-21.5 281.5t-185.5 99.5q-135 1 -228 -117q-92 -118 -112 -245t-5 -209t72.5 -137.5t151.5 -55.5zM834 866q10 0 17 -9t5 -19l-197 -1244q-4 -25 -28 -24h-21q-10 0 -17 9t-5 20l86 548q-37 -74 -116 -118.5t-175 -44.5
q-166 0 -239.5 127t-41.5 323t144 322.5t274 126.5q88 0 152.5 -38t79.5 -102l39 97q8 27 32 26h11z" />
    <glyph glyph-name="r" unicode="r" horiz-adv-x="663" 
d="M492 815q-102 0 -172 -86t-84 -182l-84 -522q-4 -25 -27 -25h-21q-10 0 -18 9t-6 20l125 796q4 25 28 25h13q18 0 18 -37v-72q42 63 112 102.5t138 39.5t121 -43q14 -10 6 -23l-20 -29q-8 -14 -27 -4q-49 31 -102 31z" />
    <glyph glyph-name="s" unicode="s" horiz-adv-x="743" 
d="M326 -16q-180 0 -281 120q-18 23 -6 35l24 23q16 14 35 -6q98 -104 230 -105q92 0 152.5 49.5t69.5 125t-32 110.5t-125.5 67t-122.5 49q-38 16 -74 46q-67 54 -51 162t95 165.5t203 57.5t204 -80q20 -20 8 -33l-22 -25q-14 -12 -27 0q-70 70 -166 70q-186 0 -217 -147
q-14 -74 25 -114t120 -70t117.5 -46t79.5 -47q80 -58 65 -167.5t-99 -174.5t-205 -65z" />
    <glyph glyph-name="t" unicode="t" horiz-adv-x="694" 
d="M324.5 -12q-107.5 0 -138 62.5t-12.5 180.5l90 568h-96q-31 0 -21 43q4 25 29 24h100l35 221q4 25 29 25h20q10 0 17.5 -9t5.5 -20l-33 -217h219q28 0 23 -45q-4 -23 -31 -22h-223l-92 -582q-27 -162 78 -162q84 0 157 82q12 12 27 2l27 -24q12 -12 -3 -27
q-100 -100 -207.5 -100z" />
    <glyph glyph-name="u" unicode="u" horiz-adv-x="944" 
d="M842 866q10 0 17 -9t5 -19l-129 -818q-2 -20 -20 -20h-13q-23 0 -22 31l4 86q-43 -59 -120 -96t-154 -37q-178 0 -243 94t-40 250l82 514q4 25 29 24h20q10 0 17.5 -9t5.5 -19l-78 -500q-45 -287 211 -287q117 0 196.5 74t94.5 160l88 557q4 25 28 24h21z" />
    <glyph glyph-name="v" unicode="v" horiz-adv-x="866" 
d="M848 866q24 0 21 -26q-1 -10 -7 -19l-463 -794q-14 -27 -26 -27h-8q-14 0 -21 31l-215 794q-10 41 25 41h26q18 0 25 -32l184 -701l397 705q18 29 35 28h27z" />
    <glyph glyph-name="w" unicode="w" horiz-adv-x="1218" 
d="M1182 866q35 0 14 -45l-383 -803q-10 -18 -25 -18h-8q-16 0 -20 23l-103 696l-323 -703q-6 -16 -23 -16h-8q-23 0 -22 20l-134 816q-4 31 25 30h21q23 0 26 -22l105 -694l321 698q10 18 25 18h16q14 0 19 -22l104 -694l317 694q10 23 37 22h19z" />
    <glyph glyph-name="x" unicode="x" horiz-adv-x="829" 
d="M80 0h-21q-14 0 -20 15.5t8 33.5l326 381l-201 391q-8 18 -3 31.5t21 13.5h25q16 0 33 -32l174 -336l280 340q25 29 46 28h24q16 0 20.5 -16t-10.5 -33l-327 -387l200 -387q20 -43 -18 -43h-23q-20 0 -34 31l-174 334l-281 -338q-27 -27 -45 -27z" />
    <glyph glyph-name="y" unicode="y" horiz-adv-x="933" 
d="M918 866q14 0 18 -13t-4 -32l-768 -1147q-14 -20 -31 -20h-24q-14 0 -18.5 13.5t7.5 31.5l267 401l-238 725q-10 41 25 41h24q16 0 27 -32l213 -658l452 674q10 16 29 16h21z" />
    <glyph glyph-name="z" unicode="z" horiz-adv-x="751" 
d="M227 799q-27 0 -26 30v9q0 12 11 20t24 8h454q18 0 22.5 -16t-10.5 -35l-557 -747h396q27 0 26 -33v-8q0 -27 -32 -27h-472q-16 0 -23 16.5t7 36.5l563 746h-383z" />
    <glyph glyph-name="braceleft" unicode="{" horiz-adv-x="710" 
d="M408 -281q25 0 20 -22l-4 -31q-2 -18 -25 -18h-75q-47 0 -72 33t-14 98l114 713q8 55 -12 93t-57 38h-23q-25 0 -20 28l2 19q4 25 24 24h23q41 0 73 28t39 83l117 737q12 74 43 100t80 27h76q25 0 20 -22l-4 -31q-2 -18 -24 -19h-58q-45 0 -55 -59l-121 -752
q-16 -104 -86 -129q61 -20 41 -155l-115 -727q-8 -55 37 -56h56z" />
    <glyph glyph-name="bar" unicode="|" horiz-adv-x="397" 
d="M90 -238q-12 0 -20 10t-7 21l291 1843q6 33 35 33h8q13 0 21 -11t6 -26l-293 -1843q-4 -27 -33 -27h-8z" />
    <glyph glyph-name="braceright" unicode="}" horiz-adv-x="708" 
d="M428 1597h-55q-25 0 -21 23l4 31q2 18 25 18h76q47 0 71 -33t15 -98l-115 -713q-8 -55 12 -93t58 -38h22q25 0 21 -28l-2 -19q-4 -25 -25 -24h-22q-41 0 -73 -28t-40 -83l-117 -737q-12 -74 -43 -101t-80 -26h-76q-25 0 -20 22l4 31q2 18 25 18h57q45 0 55 60l121 751
q16 104 86 129q-61 20 -41 156l115 727q8 55 -37 55z" />
    <glyph glyph-name="asciitilde" unicode="~" horiz-adv-x="1118" 
d="M759 627q-93 0 -176 48t-150 48t-126 -47l-21 -18q-10 -7 -27 -24q-16 -16 -48 5q-16 12 -8 27q20 45 89 87t158 42q89 -1 176 -49t145 -48t94 23t59 44q24 21 35 29t32 -8q20 -16 15 -30q-20 -45 -87 -87t-160 -42z" />
    <glyph glyph-name="exclamdown" unicode="&#xa1;" horiz-adv-x="534" 
d="M293 573q27 0 22 -32l-153 -1094q-2 -29 -33 -29h-37q-35 0 -29 33l191 1094q6 29 31 28h8zM338 885q27 -1 43 -19t11 -43t-24 -42t-45 -17t-42 19q-17 19 -13 45t24 42t46 15z" />
    <glyph glyph-name="cent" unicode="&#xa2;" horiz-adv-x="944" 
d="M297 681q-94 -110 -115.5 -248t33.5 -247.5t180 -130.5l133 756q-137 -20 -231 -130zM403 -156h-12q-12 0 -21.5 9.5t-7.5 21.5l21 113q-152 25 -230.5 152.5t-50 299.5t149.5 298t289 143l18 108q6 33 35 33h12q14 0 21.5 -11.5t5.5 -25.5l-19 -102q174 -15 242 -146
q12 -20 -4 -30l-31 -19q-20 -10 -30 10q-59 109 -189 117l-133 -764q141 10 242 135q18 20 37 2l22 -20q14 -16 -6 -37q-131 -141 -307 -147l-21 -113q-4 -27 -33 -27z" />
    <glyph glyph-name="sterling" unicode="&#xa3;" horiz-adv-x="1130" 
d="M889 0h-774q-12 0 -22 10q-9 10 -5 36t31 26h4q41 0 83 79t58 177l55 356h-104q-12 0 -21 11t-3 36q5 25 32 25h109l39 245q33 211 129 330t288 119q98 0 165 -36t128 -120q12 -20 -4 -37l-18 -14q-23 -20 -41 8q-90 127 -234 127q-270 0 -331 -383l-39 -239h358
q27 0 27 -33v-10q1 -13 -11 -21t-24 -8h-363l-57 -362q-27 -176 -102 -252l653 2q12 0 22 -11t5 -32q-8 -29 -33 -29z" />
    <glyph glyph-name="currency" unicode="&#xa4;" horiz-adv-x="1085" 
d="M637 1020q-125 0 -233 -93t-125 -217q-19 -124 57 -214t200 -90t232 92t127 217q20 125 -56 215q-77 90 -202 90zM534 334q-125 0 -212 74l-68 -72q-16 -16 -35 0l-20 20q-18 14 0 35l67 72q-82 107 -58 251t132 251l-47 59q-16 20 4 39l20 16q20 16 39 -6l45 -57
q113 76 243 76t218 -76l60 63q18 23 39 2l16 -16q20 -20 -2 -43l-64 -66q75 -111 53 -252t-133 -241l52 -68q16 -20 -2 -35l-29 -22q-18 -12 -35 10l-47 62q-111 -76 -236 -76z" />
    <glyph glyph-name="yen" unicode="&#xa5;" horiz-adv-x="1177" 
d="M1192 1434q12 0 17 -11.5t-5 -25.5l-538 -735h176q27 0 22 -29l-2 -15q-2 -25 -28 -24h-201l-33 -201h197q29 0 24 -28l-2 -15q-4 -25 -28 -24h-201l-49 -303q-4 -23 -25 -23h-29q-27 0 -22 27l47 299h-197q-29 0 -24 28l2 15q2 25 29 24h200l33 201h-197q-27 0 -22 29
l2 14q2 25 29 25h178l-262 739q-10 33 12 33h33q23 0 32 -23l248 -706l516 706q16 23 39 23h29z" />
    <glyph glyph-name="brokenbar" unicode="&#xa6;" horiz-adv-x="397" 
d="M90 -238q-12 0 -20 10t-7 21l111 709q6 33 35 33h8q13 1 21 -11t6 -26l-113 -709q-4 -27 -33 -27h-8zM270 897q-12 0 -21 9t-7 22l112 708q6 33 35 33h8q13 0 21 -11t6 -26l-113 -708q-4 -27 -32 -27h-9z" />
    <glyph glyph-name="section" unicode="&#xa7;" horiz-adv-x="1114" 
d="M551 870q-104 -20 -181 -88t-92 -165t28 -142q26 -27 50 -44q41 -30 283 -95q84 16 161 84t95 184t-79 172q-97 57 -265 94zM704 1450q188 0 314 -111q18 -16 2 -36l-16 -21q-14 -14 -31 0q-121 96 -267 96t-227 -59q-82 -59 -97 -151t67 -160q82 -67 227 -101
q185 -49 247 -113q73 -78 52 -208q-11 -76 -69 -162t-171 -125q162 -80 135 -246q-20 -129 -126 -219t-316 -90q-211 0 -338 158q-16 16 0 30l25 23q20 16 35 -2q100 -137 294 -137q131 0 229 61q97 61 115 176q8 57 -6 97t-62 68q-94 54 -218 79q-168 47 -246 117t-63 190
q29 233 264 305q-186 96 -156 267q19 110 117 192t286 82z" />
    <glyph glyph-name="dieresis" unicode="&#xa8;" horiz-adv-x="636" 
d="M586 1409q-20 0 -33 13q-12 13 -10 34q6 41 47 41q20 0 32 -14t11 -35q-6 -39 -47 -39zM369 1409q-20 0 -33 13q-12 13 -10 34q6 41 47 41q21 0 33 -14t10 -35q-6 -39 -47 -39z" />
    <glyph glyph-name="copyright" unicode="&#xa9;" horiz-adv-x="1769" 
d="M932 219q-193 0 -297 134q-105 135 -105 363t106 363t296 135q141 0 224 -74t106 -192q6 -33 -17 -37l-24 -4q-27 -6 -35 29q-53 207 -256 207q-162 0 -240 -120q-78 -121 -78 -311t85 -306t237 -115q120 -1 184 67t82 146q6 23 29 18l28 -6q25 -6 13 -41
q-72 -256 -338 -256zM930 55q268 0 459 198q190 198 190 462t-191 464q-192 199 -458 199t-459 -200t-193 -463q0 -264 192 -462t460 -198zM929 -16q-304 0 -518 214t-214 518t215 519t518 215t517 -215t214 -520t-214 -518t-518 -213z" />
    <glyph glyph-name="ordfeminine" unicode="&#xaa;" horiz-adv-x="804" 
d="M268 457h303q10 0 18 -9t5 -34q-4 -25 -29 -25h-303q-28 0 -23 34t29 34zM450 735q99 0 157 52q59 53 73 139q32 191 -162 190q-104 0 -168 -55t-76 -139t32 -136q45 -51 144 -51zM707 686h-17q-12 0 -16 35v53q-76 -106 -224 -106t-207 76q-58 76 -41 187
q17 109 101 181t221 72t187 -90l12 59q16 84 -20 149q-36 64 -142 64t-211 -61q-16 -8 -24 14l-11 31q-4 18 7 24q111 60 247 60q135 0 191 -72t31 -227l-66 -424q-6 -25 -18 -25z" />
    <glyph glyph-name="guillemotleft" unicode="&#xab;" horiz-adv-x="989" 
d="M750 -16q-23 0 -35 22l-205 371q-23 39 -19 60t35 57l320 370q16 18 43 19h6q39 0 8 -41l-311 -408l176 -414q16 -37 -12 -36h-6zM424 -16q-23 0 -35 22l-205 371q-23 39 -20 51l2 14q2 14 35 52l319 370q16 18 43 19h6q39 0 9 -41l-312 -408l176 -414q16 -37 -12 -36h-6
z" />
    <glyph glyph-name="logicalnot" unicode="&#xac;" horiz-adv-x="1087" 
d="M238 678q-29 0 -29 33v10q0 29 37 29h694q35 0 29 -33l-43 -266q-4 -31 -33 -31h-21q-33 0 -26 35l35 223h-643z" />
    <glyph glyph-name="uni00AD" unicode="&#xad;" horiz-adv-x="786" 
d="M152 430q-28 0 -23 47q4 25 29 25h487q28 0 23 -47q-4 -25 -29 -25h-487z" />
    <glyph glyph-name="registered" unicode="&#xae;" horiz-adv-x="1769" 
d="M690 1126v-434h322q86 0 142 62t56 156q0 92 -56 154t-144 62h-320zM690 621v-363q0 -14 -16 -14h-47q-14 0 -15 14v924q0 16 15 16h407q123 0 191 -86q67 -86 67 -186t-39 -174q-39 -76 -114 -109q83 -82 113 -170t30 -215q0 -14 -16 -14h-45q-16 0 -17 14
q0 242 -162 363h-352zM930 55q268 0 459 198q190 198 190 462t-191 464q-192 199 -458 199t-459 -200t-193 -463q0 -264 192 -462t460 -198zM930 1450q303 0 517 -215t214 -520t-214 -518t-518 -213t-518 214t-214 518t215 519t518 215z" />
    <glyph glyph-name="macron" unicode="&#xaf;" horiz-adv-x="757" 
d="M352 1399q-37 0 -28 43q6 29 34 28h365q37 0 29 -43q-6 -29 -35 -28h-365z" />
    <glyph glyph-name="degree" unicode="&#xb0;" horiz-adv-x="563" 
d="M380 1098q67 0 118 46t61 114q11 68 -23 112t-101 45q-67 0 -118 -47t-61 -114q-10 -68 24 -112t100 -44zM376 1038q-91 0 -147 65q-55 65 -41 156t88 154t165 63t145 -65q54 -66 41 -157q-14 -92 -87 -154t-164 -62z" />
    <glyph glyph-name="plusminus" unicode="&#xb1;" horiz-adv-x="1118" 
d="M860 72q37 0 31 -33l-2 -10q-6 -29 -35 -29h-719q-37 0 -31 33l2 10q6 29 35 29h719zM967 737q35 0 28 -32l-2 -11q-6 -29 -35 -28h-323l-51 -330q-6 -31 -35 -31h-17q-33 0 -26 35l51 326h-319q-29 0 -29 32v11q0 29 37 28h323l52 330q6 31 32 31h17q35 0 28 -35
l-51 -326h320z" />
    <glyph glyph-name="uni00B2" unicode="&#xb2;" horiz-adv-x="774" 
d="M567 1602q141 0 193 -64t34 -174q-17 -111 -153 -246l-381 -366h440q8 0 14 -6t5 -15l-4 -31q-4 -16 -21 -16h-530q-18 0 -19 21l5 18q0 14 7 16t212 204t204 204q133 129 148 231q27 156 -154 156q-115 0 -169 -52t-62 -112q-4 -12 -14 -12h-46q-16 0 -12 24
q14 90 88 155t215 65z" />
    <glyph glyph-name="uni00B3" unicode="&#xb3;" horiz-adv-x="796" 
d="M575 1604q260 0 224 -236q-13 -90 -55 -143t-82 -74q114 -45 86 -243q-12 -90 -88 -165q-76 -73 -216 -73q-141 0 -201 68t-46 159q4 18 22 18h33q18 1 17 -25q-4 -107 70 -137q38 -15 99 -16q211 0 242 193q27 184 -180 186h-62q-20 0 -16 21l4 30q4 16 18 17h58
q197 0 223 184q31 168 -158 168q-124 0 -167 -54t-54 -112q-2 -10 -18 -10h-33q-27 0 -21 33q14 87 94 149t207 62z" />
    <glyph glyph-name="acute" unicode="&#xb4;" horiz-adv-x="641" 
d="M352 1325q-22 -18 -35 2q-14 20 7 41l262 250q25 25 45 -6l16 -23q20 -27 -4 -45z" />
    <glyph glyph-name="uni00B5" unicode="&#xb5;" horiz-adv-x="1028" 
d="M819 0h-18q-23 0 -35 31l-23 63q-96 -110 -289 -110t-266 122l-84 -512q-4 -25 -26 -24h-25q-10 0 -17 9t-3 20l196 1243q4 25 29 24h21q10 0 17 -9t5 -19l-78 -490q-25 -96 16 -195q17 -44 72 -73t146 -29q268 0 305 228l88 563q4 25 29 24h20q10 0 17 -9t6 -19
l-103 -650q-8 -65 19 -155q10 -33 -19 -33z" />
    <glyph glyph-name="paragraph" unicode="&#xb6;" horiz-adv-x="937" 
d="M901 1434q13 0 21 -10t6 -23l-256 -1612q-4 -27 -27 -27h-29q-25 0 -20 31l248 1569h-172l-250 -1573q-4 -27 -27 -27h-28q-25 0 -21 31l137 864q-113 0 -181 111t-40 281q27 169 127 277t213 108h299z" />
    <glyph glyph-name="periodcentered" unicode="&#xb7;" horiz-adv-x="442" 
d="M225 610q-35 0 -28 33l8 49q6 33 37 33h49q35 0 28 -33l-8 -49q-6 -33 -37 -33h-49z" />
    <glyph glyph-name="cedilla" unicode="&#xb8;" horiz-adv-x="591" 
d="M164 -393q-88 0 -115 78q-6 18 8 20l33 6q12 2 16 -10q12 -35 58 -35q82 0 96 88q6 47 -23 65q-30 17 -71 7l-29 2l-35 16q-16 8 -10 21l90 151h62l-82 -131q70 23 120 -12t40 -112t-54 -115q-43 -38 -104 -39z" />
    <glyph glyph-name="uni00B9" unicode="&#xb9;" horiz-adv-x="651" 
d="M557 745q8 0 13 -7t3 -15l-4 -29q-4 -16 -18 -16h-408q-20 0 -20 20l6 29q0 18 21 18h167l115 721l-149 -114q-12 -8 -24 -2q-11 6 -9 18l6 43q2 12 23 27l180 137q6 4 20 4h23q18 0 18 -23l-129 -811h166z" />
    <glyph glyph-name="ordmasculine" unicode="&#xba;" horiz-adv-x="864" 
d="M291 457h303q28 0 22 -43q-6 -25 -28 -25h-303q-29 0 -24 34t30 34zM483 733q123 0 192 93q69 94 90 228t-16 223q-38 89 -161 89t-199 -95t-96 -224t23 -222q44 -92 167 -92zM477 666q-143 0 -215 100t-42 286t129 283q99 99 245 99t208 -100q64 -100 36 -287
q-28 -186 -123 -284q-95 -97 -238 -97z" />
    <glyph glyph-name="guillemotright" unicode="&#xbb;" horiz-adv-x="989" 
d="M559 883h6q23 0 35 -23l205 -371q23 -39 20 -51l-2 -14q-2 -14 -35 -51l-319 -371q-16 -18 -43 -18h-6q-39 0 -8 41l311 407l-176 414q-16 37 12 37zM233 883h7q23 0 34 -23l205 -371q23 -39 21 -51l-2 -14q-2 -14 -35 -51l-320 -371q-16 -18 -43 -18h-6q-39 0 -8 41
l311 407l-176 414q-16 37 12 37z" />
    <glyph glyph-name="onequarter" unicode="&#xbc;" horiz-adv-x="1615" 
d="M961 287h337l82 514zM1395 901h53q8 0 14 -6t4 -14l-94 -594h96q8 0 14 -6t5 -15l-4 -30q-4 -16 -21 -17h-100l-33 -201q-4 -18 -18 -18h-35q-18 0 -21 23l33 196h-409q-8 0 -15 6q-6 6 -4 15l6 30l2 11l500 608q8 12 27 12zM465 0q-20 0 -25 16q-4 16 6 31l791 1358
q16 29 39 29h31q33 0 10 -39l-795 -1366q-16 -29 -41 -29h-16zM535 600q8 0 13 -7t3 -15l-4 -29q-4 -16 -19 -17h-407q-20 0 -21 21l6 29q0 18 21 18h168l115 721l-150 -115q-12 -8 -23 -2t-10 19l6 43q2 12 23 26l180 138q6 4 21 4h22q18 0 19 -23l-129 -811h166z" />
    <glyph glyph-name="onehalf" unicode="&#xbd;" horiz-adv-x="1748" 
d="M1434 918q141 0 192 -64t34 -174q-17 -111 -153 -246l-381 -366h441q8 0 14 -6t4 -15l-4 -31q-4 -16 -20 -16h-531q-18 0 -18 20l4 19q0 14 7 16t212 204t205 204q133 129 147 231q27 156 -153 156q-115 0 -169 -52t-63 -112q-4 -12 -14 -12h-45q-16 0 -13 24
q14 90 88 155t216 65zM465 0q-20 0 -25 16q-4 16 6 31l791 1358q16 29 39 29h31q33 0 10 -39l-795 -1366q-16 -29 -41 -29h-16zM535 600q8 0 13 -7t3 -15l-4 -29q-4 -16 -19 -17h-407q-20 0 -21 21l6 29q0 18 21 18h168l115 721l-150 -115q-12 -8 -23 -2t-10 19l6 43
q2 12 23 26l180 138q6 4 21 4h22q18 0 19 -23l-129 -811h166z" />
    <glyph glyph-name="threequarters" unicode="&#xbe;" horiz-adv-x="1667" 
d="M1012 287h338l82 514zM1446 901h53q8 0 14 -6t5 -14l-95 -594h97q8 0 14 -6t4 -15l-4 -30q-4 -16 -21 -17h-100l-33 -201q-4 -18 -18 -18h-35q-8 0 -14 7t-6 16l32 196h-409q-8 0 -15 6q-6 6 -4 15l7 30l2 11l499 608q8 12 27 12zM530 0q-20 0 -24 16t6 31l791 1358
q16 29 38 29h31q33 0 10 -39l-794 -1366q-16 -29 -41 -29h-17zM550 1450q259 0 224 -236q-14 -90 -55 -143t-82 -74q20 -8 43 -27q23 -18 40 -72t4 -144t-88 -164t-216 -74t-202 68q-60 68 -46 159q4 18 23 19h32q17 0 17 -26q-1 -47 19 -92q26 -60 151 -60q212 0 240 188
t-179 191h-61q-20 0 -17 20l4 31q4 16 19 16h57q197 0 223 184q31 168 -157 168q-126 0 -172 -61q-38 -48 -49 -104q-2 -10 -19 -11h-33q-27 0 -20 33q14 87 93 149t207 62z" />
    <glyph glyph-name="questiondown" unicode="&#xbf;" horiz-adv-x="888" 
d="M350 -584q-198 0 -274 102q-105 143 -26 340q34 81 103 154t183 164q88 76 138 152t64 122q13 46 25 119q4 25 23 25h30q25 0 19 -43q-29 -209 -219 -391q-25 -25 -80 -74q-98 -87 -159 -158t-81 -187q-20 -115 52 -187t214 -72q217 0 334 153q14 16 31 5l18 -17
q18 -16 3 -39q-136 -168 -398 -168zM647 883q25 1 40 -19t11 -45q-10 -51 -65 -51q-25 0 -40 18t-11 43q10 54 65 54z" />
    <glyph glyph-name="Agrave" unicode="&#xc0;" horiz-adv-x="1198" 
d="M303 426h592l-160 805l-6 33zM756 1450q6 0 10 -12l287 -1397q4 -16 -6.5 -28.5t-24.5 -12.5h-18q-25 0 -25 23l-70 331h-645l-172 -336q-10 -18 -26 -18h-21q-14 0 -22.5 14.5t0.5 30.5l720 1397q4 8 9 8h4zM967 1610l-324 125q-33 14 -22 43l14 26q10 20 35 8l315 -155
q20 -12 13.5 -33.5t-31.5 -13.5z" />
    <glyph glyph-name="Aacute" unicode="&#xc1;" horiz-adv-x="1198" 
d="M303 426h592l-160 805l-6 33zM756 1450q6 0 10 -12l287 -1397q4 -16 -6.5 -28.5t-24.5 -12.5h-18q-25 0 -25 23l-70 331h-645l-172 -336q-10 -18 -26 -18h-21q-14 0 -22.5 14.5t0.5 30.5l720 1397q4 8 9 8h4zM643 1608q-25 -8 -32 13t14 34l315 155q25 12 35 -8l14 -26
q10 -29 -22 -43z" />
    <glyph glyph-name="Acircumflex" unicode="&#xc2;" horiz-adv-x="1198" 
d="M303 426h592l-160 805l-6 33zM756 1450q6 0 10 -12l287 -1397q4 -16 -6.5 -28.5t-24.5 -12.5h-18q-25 0 -25 23l-70 331h-645l-172 -336q-10 -18 -26 -18h-21q-14 0 -22.5 14.5t0.5 30.5l720 1397q4 8 9 8h4zM823 1872h8q27 0 43 -27l107 -166q19 -29 15 -45
q-10 -37 -38 -8l-141 178l-192 -182q-25 -22 -37 -1q-3 6 0.5 25t21.5 37l162 166q23 23 51 23z" />
    <glyph glyph-name="Atilde" unicode="&#xc3;" horiz-adv-x="1198" 
d="M303 426h592l-160 805l-6 33zM756 1450q6 0 10 -12l287 -1397q4 -16 -6.5 -28.5t-24.5 -12.5h-18q-25 0 -25 23l-70 331h-645l-172 -336q-10 -18 -26 -18h-21q-14 0 -22.5 14.5t0.5 30.5l720 1397q4 8 9 8h4zM928 1632q-53 0 -127 53.5t-109 53.5q-86 0 -129 -88
q-6 -12 -24 -6l-21 10q-14 8 -8 26q18 53 71.5 90t114.5 37t134 -54t106 -54q72 0 125 96q6 12 41 -8q16 -10 8 -29q-55 -127 -182 -127z" />
    <glyph glyph-name="Adieresis" unicode="&#xc4;" horiz-adv-x="1198" 
d="M303 426h592l-160 805l-6 33zM756 1450q6 0 10 -12l287 -1397q4 -16 -6.5 -28.5t-24.5 -12.5h-18q-25 0 -25 23l-70 331h-645l-172 -336q-10 -18 -26 -18h-21q-14 0 -22.5 14.5t0.5 30.5l720 1397q4 8 9 8h4zM918 1683q-20 0 -33 13.5t-11 34.5q6 41 48 41
q20 0 32.5 -14.5t10.5 -35.5q-6 -39 -47 -39zM700 1683q-20 0 -32.5 13.5t-10.5 34.5q6 41 48 41q20 0 32.5 -14.5t10.5 -35.5q-7 -39 -48 -39z" />
    <glyph glyph-name="Aring" unicode="&#xc5;" horiz-adv-x="1198" 
d="M303 426h592l-160 805l-6 33zM756 1450q6 0 10 -12l287 -1397q4 -16 -6.5 -28.5t-24.5 -12.5h-18q-25 0 -25 23l-70 331h-645l-172 -336q-10 -18 -26 -18h-21q-14 0 -22.5 14.5t0.5 30.5l720 1397q4 8 9 8h4zM795 1686q63 0 75 69q6 33 -9 47.5t-38 14.5q-63 0 -72 -65.5
t44 -65.5zM794 1630q-50 0 -81 34t-23 90t47 87t89 31t81 -34t23 -89t-47 -87t-89 -32z" />
    <glyph glyph-name="AE" unicode="&#xc6;" horiz-adv-x="1820" 
d="M997 426l136 848l-697 -848h561zM1829 1434q10 0 17 -9.5t5 -19.5l-4 -23q-2 -20 -24 -20h-600l-97 -608h435q10 0 18 -8.5t6 -18.5l-4 -22q-4 -23 -29 -23h-438l-96 -610h594q10 0 18 -8.5t6 -18.5l-4 -22q-4 -23 -26 -23h-648q-10 0 -18 9t-6 20l51 325h-606l-277 -338
q-16 -16 -36 -16h-21q-18 0 -25.5 13.5t9.5 31.5l1124 1372l6 6q6 10 21 11h649z" />
    <glyph glyph-name="Ccedilla" unicode="&#xc7;" horiz-adv-x="1406" 
d="M936 1378q-256 0 -449.5 -196.5t-236.5 -467.5t86 -465t383 -194q135 0 262 66.5t213 163.5q16 16 37 0l16 -15q20 -20 0 -41q-240 -240 -516 -245l-57 -90q70 23 120 -12.5t39.5 -112.5t-53.5 -115.5t-104 -38.5q-88 0 -115 78q-6 18 8 20l33 6q12 2 16 -10
q12 -35 58 -35q82 0 96 88q6 47 -23.5 64.5t-70.5 7.5l-29 2l-35 17q-16 8 -10 20l68 113q-270 18 -410.5 229t-92.5 510t266 512t503 213t451 -231q14 -20 -5 -37l-22 -19q-25 -20 -41 8q-41 72 -145.5 139.5t-239.5 67.5z" />
    <glyph glyph-name="Egrave" unicode="&#xc8;" horiz-adv-x="987" 
d="M778 72q10 0 18.5 -8.5t6.5 -18.5l-4 -22q-4 -23 -27 -23h-647q-10 0 -18.5 9t-6.5 20l219 1380q4 25 27 25h649q10 0 17.5 -9.5t5.5 -19.5l-4 -23q-2 -20 -25 -20h-600l-96 -608h434q10 0 18.5 -8.5t6.5 -18.5l-4 -22q-4 -23 -29 -23h-438l-97 -610h594zM864 1610
l-323 125q-33 14 -23 43l14 26q10 20 35 8l316 -155q20 -12 13 -33.5t-32 -13.5z" />
    <glyph glyph-name="Eacute" unicode="&#xc9;" horiz-adv-x="987" 
d="M778 72q10 0 18.5 -8.5t6.5 -18.5l-4 -22q-4 -23 -27 -23h-647q-10 0 -18.5 9t-6.5 20l219 1380q4 25 27 25h649q10 0 17.5 -9.5t5.5 -19.5l-4 -23q-2 -20 -25 -20h-600l-96 -608h434q10 0 18.5 -8.5t6.5 -18.5l-4 -22q-4 -23 -29 -23h-438l-97 -610h594zM541 1608
q-25 -8 -32 13t13 34l316 155q25 12 34 -8l15 -26q10 -29 -23 -43z" />
    <glyph glyph-name="Ecircumflex" unicode="&#xca;" horiz-adv-x="987" 
d="M778 72q10 0 18.5 -8.5t6.5 -18.5l-4 -22q-4 -23 -27 -23h-647q-10 0 -18.5 9t-6.5 20l219 1380q4 25 27 25h649q10 0 17.5 -9.5t5.5 -19.5l-4 -23q-2 -20 -25 -20h-600l-96 -608h434q10 0 18.5 -8.5t6.5 -18.5l-4 -22q-4 -23 -29 -23h-438l-97 -610h594zM721 1872h8
q27 0 43 -27l107 -166q19 -29 15 -45q-11 -39 -38 -8l-141 178l-193 -182q-25 -22 -37 -1q-3 6 0.5 25t22.5 37l162 166q23 23 51 23z" />
    <glyph glyph-name="Edieresis" unicode="&#xcb;" horiz-adv-x="987" 
d="M778 72q10 0 18.5 -8.5t6.5 -18.5l-4 -22q-4 -23 -27 -23h-647q-10 0 -18.5 9t-6.5 20l219 1380q4 25 27 25h649q10 0 17.5 -9.5t5.5 -19.5l-4 -23q-2 -20 -25 -20h-600l-96 -608h434q10 0 18.5 -8.5t6.5 -18.5l-4 -22q-4 -23 -29 -23h-438l-97 -610h594zM815 1683
q-20 0 -32.5 13.5t-10.5 34.5q6 41 47 41q20 0 32.5 -14.5t10.5 -35.5q-6 -39 -47 -39zM598 1683q-20 0 -32.5 13.5t-10.5 34.5q6 41 47 41q20 0 32.5 -14.5t10.5 -35.5q-6 -39 -47 -39z" />
    <glyph glyph-name="Igrave" unicode="&#xcc;" horiz-adv-x="407" 
d="M119 0q-23 0 -19 29l219 1380q4 25 23 25h37q23 0 18 -29l-219 -1380q-4 -25 -20 -25h-39zM575 1610l-323 125q-33 14 -23 43l15 26q10 20 35 8l315 -155q20 -12 13 -33.5t-32 -13.5z" />
    <glyph glyph-name="Iacute" unicode="&#xcd;" horiz-adv-x="407" 
d="M119 0q-23 0 -19 29l219 1380q4 25 23 25h37q23 0 18 -29l-219 -1380q-4 -25 -20 -25h-39zM252 1608q-25 -8 -32 13t13 34l316 155q25 12 35 -8l14 -26q10 -29 -23 -43z" />
    <glyph glyph-name="Icircumflex" unicode="&#xce;" horiz-adv-x="407" 
d="M119 0q-23 0 -19 29l219 1380q4 25 23 25h37q23 0 18 -29l-219 -1380q-4 -25 -20 -25h-39zM432 1872h8q27 0 43 -27l107 -166q19 -29 15 -45q-10 -37 -38 -8l-141 178l-193 -182q-25 -21 -36 -1q-3 6 0.5 25t21.5 37l162 166q23 23 51 23z" />
    <glyph glyph-name="Idieresis" unicode="&#xcf;" horiz-adv-x="407" 
d="M119 0q-23 0 -19 29l219 1380q4 25 23 25h37q23 0 18 -29l-219 -1380q-4 -25 -20 -25h-39zM526 1683q-20 0 -32.5 13.5t-10.5 34.5q6 41 47 41q20 0 32.5 -14.5t10.5 -35.5q-6 -39 -47 -39zM309 1683q-20 0 -32.5 13.5t-10.5 34.5q6 41 47 41q20 0 32.5 -14.5t10.5 -35.5
q-6 -39 -47 -39z" />
    <glyph glyph-name="Eth" unicode="&#xd0;" horiz-adv-x="1224" 
d="M686 1362h-297l-96 -610h344q35 0 29 -33l-2 -10q-2 -29 -35 -29h-348l-97 -608h293q486 0 587 645t-378 645zM711 1434q276 0 382.5 -186.5t51.5 -536.5q-115 -711 -664 -711h-356q-10 0 -18.5 9t-6.5 20l103 651h-56q-29 0 -28 33v10q0 29 37 29h59l104 657q4 25 27 25
h365z" />
    <glyph glyph-name="Ntilde" unicode="&#xd1;" horiz-adv-x="1288" 
d="M1257 1434q25 0 21 -29l-219 -1382q-4 -23 -23 -23h-22q-16 0 -31 27l-608 1249l-199 -1253q-4 -23 -20 -23h-35q-25 0 -21 27l219 1382q4 25 25 25h18q18 0 33 -33l609 -1243l198 1251q4 25 21 25h34zM977 1632q-53 0 -127 53.5t-109 53.5q-86 0 -129 -88q-6 -12 -24 -6
l-21 10q-14 8 -8 26q18 53 71.5 90t115 37t134 -54t105.5 -54q72 0 125 96q7 13 41 -8q16 -10 8 -29q-55 -127 -182 -127z" />
    <glyph glyph-name="Ograve" unicode="&#xd2;" horiz-adv-x="1564" 
d="M717 55q260 0 452.5 198t233.5 466q27 172 -16.5 320.5t-161 243.5t-291.5 95q-260 0 -450.5 -199.5t-233.5 -467.5q-27 -172 15 -319.5t160 -242t292 -94.5zM714.5 -16q-284.5 0 -440 214t-106.5 521t268 519t504 212t439.5 -215t105.5 -523t-267.5 -518t-503 -210z
M1153 1610l-324 125q-33 14 -22 43l14 26q10 20 35 8l315 -155q21 -13 14 -34t-32 -13z" />
    <glyph glyph-name="Oacute" unicode="&#xd3;" horiz-adv-x="1564" 
d="M717 55q260 0 452.5 198t233.5 466q27 172 -16.5 320.5t-161 243.5t-291.5 95q-260 0 -450.5 -199.5t-233.5 -467.5q-27 -172 15 -319.5t160 -242t292 -94.5zM714.5 -16q-284.5 0 -440 214t-106.5 521t268 519t504 212t439.5 -215t105.5 -523t-267.5 -518t-503 -210z
M829 1608q-25 -8 -31 13q-7 21 13 34l315 155q25 12 35 -8l15 -26q10 -29 -23 -43z" />
    <glyph glyph-name="Ocircumflex" unicode="&#xd4;" horiz-adv-x="1564" 
d="M717 55q260 0 452.5 198t233.5 466q27 172 -16.5 320.5t-161 243.5t-291.5 95q-260 0 -450.5 -199.5t-233.5 -467.5q-27 -172 15 -319.5t160 -242t292 -94.5zM714.5 -16q-284.5 0 -440 214t-106.5 521t268 519t504 212t439.5 -215t105.5 -523t-267.5 -518t-503 -210z
M1010 1872h8q27 0 43 -27l106 -166q20 -30 15 -45q-11 -38 -37 -8l-141 178l-193 -182q-25 -22 -37 -1q-3 6 0.5 25t22.5 37l161 166q23 23 52 23z" />
    <glyph glyph-name="Otilde" unicode="&#xd5;" horiz-adv-x="1564" 
d="M717 55q260 0 452.5 198t233.5 466q27 172 -16.5 320.5t-161 243.5t-291.5 95q-260 0 -450.5 -199.5t-233.5 -467.5q-27 -172 15 -319.5t160 -242t292 -94.5zM714.5 -16q-284.5 0 -440 214t-106.5 521t268 519t504 212t439.5 -215t105.5 -523t-267.5 -518t-503 -210z
M1114 1632q-53 0 -127 53.5t-108 53.5q-84 0 -129 -88q-6 -12 -25 -6l-20 10q-14 8 -9 26q18 53 71.5 90t115 37t134.5 -54t105 -54q72 0 125 96q7 13 41 -8q16 -10 8 -29q-55 -127 -182 -127z" />
    <glyph glyph-name="Odieresis" unicode="&#xd6;" horiz-adv-x="1564" 
d="M717 55q260 0 452.5 198t233.5 466q27 172 -16.5 320.5t-161 243.5t-291.5 95q-260 0 -450.5 -199.5t-233.5 -467.5q-27 -172 15 -319.5t160 -242t292 -94.5zM714.5 -16q-284.5 0 -440 214t-106.5 521t268 519t504 212t439.5 -215t105.5 -523t-267.5 -518t-503 -210z
M1104 1683q-20 0 -32.5 13.5t-10.5 34.5q6 41 47 41q20 0 32.5 -14.5t10.5 -35.5q-6 -39 -47 -39zM887 1683q-20 0 -32.5 13.5t-10.5 34.5q6 41 47 41q20 0 32.5 -14.5t10.5 -35.5q-6 -39 -47 -39z" />
    <glyph glyph-name="multiply" unicode="&#xd7;" horiz-adv-x="923" 
d="M555 702l197 -237q20 -30 -7 -51q-25 -25 -45 2l-202 237l-273 -237q-25 -20 -51 6q-18 23 6 47l275 233l-197 238q-20 25 4 48t47 1l203 -237l272 237q25 20 49 -2t-4 -51z" />
    <glyph glyph-name="Oslash" unicode="&#xd8;" horiz-adv-x="1564" 
d="M1403 719q27 166 -15 313.5t-145 237.5l-772 -1151q104 -63 246 -64q260 0 452.5 198t233.5 466zM934 1378q-260 0 -450.5 -199.5t-233.5 -467.5q-27 -164 13 -308.5t140 -234.5l773 1151q-109 59 -242 59zM715 -16q-160 0 -285 73l-31 -45q-20 -29 -43 -28h-30
q-20 0 -22.5 16t7.5 31l49 73q-119 98 -171 261t-21 354q49 307 268 519t504 212q156 0 279 -70l26 41q20 29 41 29h45q29 0 8 -39l-53 -78q123 -100 176.5 -265t22.5 -357q-49 -307 -267.5 -517t-502.5 -210z" />
    <glyph glyph-name="Ugrave" unicode="&#xd9;" horiz-adv-x="1314" 
d="M1282 1434q27 0 23 -31l-142 -850q-41 -258 -191.5 -413.5t-379.5 -155.5t-339 157.5t-69 415.5l142 850q6 27 28 27h27q27 0 22 -31l-139 -844q-37 -219 55.5 -361.5t279.5 -142.5t320.5 143.5t167.5 364.5l140 844q4 27 26 27h29zM1032 1610l-323 125q-33 14 -23 43
l14 26q10 20 35 8l316 -155q20 -12 13 -33.5t-32 -13.5z" />
    <glyph glyph-name="Uacute" unicode="&#xda;" horiz-adv-x="1314" 
d="M1282 1434q27 0 23 -31l-142 -850q-41 -258 -191.5 -413.5t-379.5 -155.5t-339 157.5t-69 415.5l142 850q6 27 28 27h27q27 0 22 -31l-139 -844q-37 -219 55.5 -361.5t279.5 -142.5t320.5 143.5t167.5 364.5l140 844q4 27 26 27h29zM709 1608q-25 -8 -32 13t13 34
l316 155q25 12 34 -8l15 -26q10 -29 -23 -43z" />
    <glyph glyph-name="Ucircumflex" unicode="&#xdb;" horiz-adv-x="1314" 
d="M1282 1434q27 0 23 -31l-142 -850q-41 -258 -191.5 -413.5t-379.5 -155.5t-339 157.5t-69 415.5l142 850q6 27 28 27h27q27 0 22 -31l-139 -844q-37 -219 55.5 -361.5t279.5 -142.5t320.5 143.5t167.5 364.5l140 844q4 27 26 27h29zM889 1872h8q27 0 43 -27l107 -166
q19 -29 15 -45q-11 -39 -38 -8l-141 178l-193 -182q-25 -22 -37 -1q-3 6 0.5 25t22.5 37l162 166q23 23 51 23z" />
    <glyph glyph-name="Udieresis" unicode="&#xdc;" horiz-adv-x="1314" 
d="M1282 1434q27 0 23 -31l-142 -850q-41 -258 -191.5 -413.5t-379.5 -155.5t-339 157.5t-69 415.5l142 850q6 27 28 27h27q27 0 22 -31l-139 -844q-37 -219 55.5 -361.5t279.5 -142.5t320.5 143.5t167.5 364.5l140 844q4 27 26 27h29zM983 1683q-20 0 -32.5 13.5
t-10.5 34.5q6 41 47 41q20 0 32.5 -14.5t10.5 -35.5q-6 -39 -47 -39zM766 1683q-20 0 -32.5 13.5t-10.5 34.5q6 41 47 41q20 0 32.5 -14.5t10.5 -35.5q-6 -39 -47 -39z" />
    <glyph glyph-name="Yacute" unicode="&#xdd;" horiz-adv-x="1136" 
d="M1171 1434q12 0 17.5 -11.5t-4.5 -25.5l-568 -774l-96 -600q-4 -23 -24 -23h-29q-27 0 -23 27l95 596l-277 778q-10 33 12 33h33q23 0 33 -23l248 -706l516 706q16 23 39 23h28zM616 1608q-26 -8 -32 13t14 34l315 155q25 12 35 -8l15 -26q10 -29 -23 -43z" />
    <glyph glyph-name="Thorn" unicode="&#xde;" horiz-adv-x="1073" 
d="M571 391q131 0 225.5 94.5t121.5 255.5q55 346 -236 346h-336l-110 -696h335zM152 0h-29q-27 0 -23 27l219 1384q4 23 25 23h29q27 0 22 -27l-39 -248h346q162 0 245 -111.5t51 -311.5t-153.5 -307t-283.5 -110h-338l-47 -296q-4 -23 -24 -23z" />
    <glyph glyph-name="germandbls" unicode="&#xdf;" horiz-adv-x="888" 
d="M467 -16q-119 0 -180 61q-25 23 -13 39l13 16q16 23 35 9q70 -57 152 -57t150 68q67 69 80 153q22 141 -74 244q-40 42 -80 82q-97 97 -78 204t121 185l84 64q102 78 114 155t-25 125t-135 48q-244 0 -297 -338l-162 -1017q-4 -25 -27 -25h-20q-10 0 -19 9q-8 9 -6 20
l162 1026q63 395 379 395q143 0 195 -69t36 -158q-14 -89 -63 -149t-102 -92q-213 -128 -139 -267q26 -47 66 -89t79 -89q93 -113 71 -251t-110 -220t-207 -82z" />
    <glyph glyph-name="agrave" unicode="&#xe0;" horiz-adv-x="976" 
d="M436 51q281 0 338 389q8 84 11 145.5t-13 103.5q-16 43 -32 67q-40 60 -173 59q-166 0 -263 -114.5t-123.5 -274.5t33.5 -267.5t222 -107.5zM872 850q10 0 17.5 -10.5t5.5 -20.5l-125 -792q-4 -27 -27 -27h-12q-20 0 -20 33l6 104q-18 -49 -96 -100t-198 -54t-203 60
q-157 119 -118 387q29 186 151 319.5t314 133.5q84 0 142.5 -26t77 -48.5t24.5 -42.5l16 53q12 31 31 31h14zM748 1032l-291 219q-25 18 -4 45l16 23q20 31 45 6l262 -250q20 -20 6 -39.5t-34 -3.5z" />
    <glyph glyph-name="aacute" unicode="&#xe1;" horiz-adv-x="976" 
d="M436 51q281 0 338 389q8 84 11 145.5t-13 103.5q-16 43 -32 67q-40 60 -173 59q-166 0 -263 -114.5t-123.5 -274.5t33.5 -267.5t222 -107.5zM872 850q10 0 17.5 -10.5t5.5 -20.5l-125 -792q-4 -27 -27 -27h-12q-20 0 -20 33l6 104q-18 -49 -96 -100t-198 -54t-203 60
q-157 119 -118 387q29 186 151 319.5t314 133.5q84 0 142.5 -26t77 -48.5t24.5 -42.5l16 53q12 31 31 31h14zM494 1032q-22 -18 -35.5 2t6.5 41l262 250q25 25 45 -6l16 -23q20 -27 -4 -45z" />
    <glyph glyph-name="acircumflex" unicode="&#xe2;" horiz-adv-x="976" 
d="M436 51q281 0 338 389q8 84 11 145.5t-13 103.5q-16 43 -32 67q-40 60 -173 59q-166 0 -263 -114.5t-123.5 -274.5t33.5 -267.5t222 -107.5zM872 850q10 0 17.5 -10.5t5.5 -20.5l-125 -792q-4 -27 -27 -27h-12q-20 0 -20 33l6 104q-18 -49 -96 -100t-198 -54t-203 60
q-157 119 -118 387q29 186 151 319.5t314 133.5q84 0 142.5 -26t77 -48.5t24.5 -42.5l16 53q12 31 31 31h14zM627 1305h8q27 0 43 -27l106 -166q20 -30 15 -45q-11 -40 -37 -8l-141 178l-193 -182q-25 -22 -37 -1q-3 6 0.5 24.5t22.5 37.5l161 166q23 23 52 23z" />
    <glyph glyph-name="atilde" unicode="&#xe3;" horiz-adv-x="976" 
d="M436 51q281 0 338 389q8 84 11 145.5t-13 103.5q-16 43 -32 67q-40 60 -173 59q-166 0 -263 -114.5t-123.5 -274.5t33.5 -267.5t222 -107.5zM872 850q10 0 17.5 -10.5t5.5 -20.5l-125 -792q-4 -27 -27 -27h-12q-20 0 -20 33l6 104q-18 -49 -96 -100t-198 -54t-203 60
q-157 119 -118 387q29 186 151 319.5t314 133.5q84 0 142.5 -26t77 -48.5t24.5 -42.5l16 53q12 31 31 31h14zM731 1065q-53 0 -127 53t-108 53q-86 0 -129 -88q-6 -14 -25 -6l-20 10q-14 8 -9 27q18 53 71.5 90t115 37t134.5 -54t105 -54q72 0 125 96q7 13 41 -8
q16 -12 8 -29q-55 -127 -182 -127z" />
    <glyph glyph-name="adieresis" unicode="&#xe4;" horiz-adv-x="976" 
d="M436 51q281 0 338 389q8 84 11 145.5t-13 103.5q-16 43 -32 67q-40 60 -173 59q-166 0 -263 -114.5t-123.5 -274.5t33.5 -267.5t222 -107.5zM872 850q10 0 17.5 -10.5t5.5 -20.5l-125 -792q-4 -27 -27 -27h-12q-20 0 -20 33l6 104q-18 -49 -96 -100t-198 -54t-203 60
q-157 119 -118 387q29 186 151 319.5t314 133.5q84 0 142.5 -26t77 -48.5t24.5 -42.5l16 53q12 31 31 31h14zM721 1116q-20 0 -32.5 13.5t-10.5 33.5q6 41 47 41q20 0 32.5 -14t10.5 -35q-6 -39 -47 -39zM504 1116q-20 0 -32.5 13.5t-10.5 33.5q6 41 47 41q20 0 32.5 -14
t10.5 -35q-6 -39 -47 -39z" />
    <glyph glyph-name="aring" unicode="&#xe5;" horiz-adv-x="976" 
d="M436 51q281 0 338 389q8 84 11 145.5t-13 103.5q-16 43 -32 67q-40 60 -173 59q-166 0 -263 -114.5t-123.5 -274.5t33.5 -267.5t222 -107.5zM872 850q10 0 17.5 -10.5t5.5 -20.5l-125 -792q-4 -27 -27 -27h-12q-20 0 -20 33l6 104q-18 -49 -96 -100t-198 -54t-203 60
q-157 119 -118 387q29 186 151 319.5t314 133.5q84 0 142.5 -26t77 -48.5t24.5 -42.5l16 53q12 31 31 31h14zM598 1118q63 0 76 70q6 33 -9.5 47t-37.5 14q-63 0 -74 -69q-8 -62 45 -62zM597 1063q-50 0 -81 33.5t-22.5 90t47.5 87.5t89 31t80.5 -34t22.5 -89t-47 -87
t-89 -32z" />
    <glyph glyph-name="ae" unicode="&#xe6;" horiz-adv-x="1513" 
d="M429.5 498q-111.5 0 -184.5 -58.5t-88 -156.5t31 -165t138 -67q175 0 239 85.5t76 168t-44 138t-167.5 55.5zM1107 815q-130 0 -224.5 -86t-132.5 -225l-5 -25l594 4q25 164 -38.5 248t-193.5 84zM1122 883q170 0 251 -119t38 -324q-6 -27 -33 -26l-643 -2q-2 -2 -2 -9.5
t-2 -11.5q-10 -152 56.5 -246t211.5 -94t256 117q18 16 33 2l21 -20q16 -18 -9 -44q-115 -123 -305 -122q-236 0 -315 198q-49 -94 -140 -146t-202 -52q-152 0 -216.5 92t-40.5 216t111 198.5t254.5 74.5t217.5 -102l16 90q47 262 -191 262q-111 0 -231 -74q-20 -6 -29 13
l-10 24q-4 18 8 27q129 78 269 78q238 0 264 -193q135 193 362 193z" />
    <glyph glyph-name="ccedilla" unicode="&#xe7;" horiz-adv-x="923" 
d="M574.5 815q-148.5 0 -259 -114.5t-134.5 -267.5t46 -267.5t221.5 -114.5t262.5 135q18 20 37 2l22 -20q14 -16 -6 -37q-125 -137 -301 -147l-57 -90q70 23 119.5 -12.5t39.5 -112.5t-53 -115.5t-104 -38.5q-88 0 -115 78q-6 18 8 20l33 6q12 2 16 -10q12 -35 58 -35
q82 0 96 88q6 47 -23.5 64.5t-70.5 7.5l-29 2l-35 17q-16 8 -10 20l67 113q-160 16 -244.5 146t-55 311t164.5 310.5t324.5 129t263.5 -145.5q12 -20 -4 -30l-31 -19q-20 -10 -30 10q-68 117 -216.5 117z" />
    <glyph glyph-name="egrave" unicode="&#xe8;" horiz-adv-x="956" 
d="M547 815q-133 0 -230.5 -94t-130.5 -242l596 4q25 164 -38.5 248t-196.5 84zM564 883q171 0 252 -119t38 -324q-6 -27 -33 -26l-645 -2q-16 -158 49.5 -259.5t213.5 -101.5t259 117q18 16 33 2l21 -20q16 -18 -9 -44q-115 -123 -302 -122.5t-279 127.5t-59.5 328.5
t161.5 322.5t300 121zM750 1032l-291 219q-25 18 -4 45l16 23q20 31 45 6l262 -250q20 -20 6 -39.5t-34 -3.5z" />
    <glyph glyph-name="eacute" unicode="&#xe9;" horiz-adv-x="956" 
d="M547 815q-133 0 -230.5 -94t-130.5 -242l596 4q25 164 -38.5 248t-196.5 84zM564 883q171 0 252 -119t38 -324q-6 -27 -33 -26l-645 -2q-16 -158 49.5 -259.5t213.5 -101.5t259 117q18 16 33 2l21 -20q16 -18 -9 -44q-115 -123 -302 -122.5t-279 127.5t-59.5 328.5
t161.5 322.5t300 121zM496 1032q-22 -18 -35.5 2t6.5 41l262 250q25 25 45 -6l17 -23q20 -27 -5 -45z" />
    <glyph glyph-name="ecircumflex" unicode="&#xea;" horiz-adv-x="956" 
d="M547 815q-133 0 -230.5 -94t-130.5 -242l596 4q25 164 -38.5 248t-196.5 84zM564 883q171 0 252 -119t38 -324q-6 -27 -33 -26l-645 -2q-16 -158 49.5 -259.5t213.5 -101.5t259 117q18 16 33 2l21 -20q16 -18 -9 -44q-115 -123 -302 -122.5t-279 127.5t-59.5 328.5
t161.5 322.5t300 121zM629 1305h8q27 0 43 -27l106 -166q20 -30 15 -45q-11 -40 -37 -8l-141 178l-193 -182q-25 -22 -37 -1q-3 6 0.5 24.5t22.5 37.5l162 166q23 23 51 23z" />
    <glyph glyph-name="edieresis" unicode="&#xeb;" horiz-adv-x="956" 
d="M547 815q-133 0 -230.5 -94t-130.5 -242l596 4q25 164 -38.5 248t-196.5 84zM564 883q171 0 252 -119t38 -324q-6 -27 -33 -26l-645 -2q-16 -158 49.5 -259.5t213.5 -101.5t259 117q18 16 33 2l21 -20q16 -18 -9 -44q-115 -123 -302 -122.5t-279 127.5t-59.5 328.5
t161.5 322.5t300 121zM723 1116q-20 0 -32.5 13.5t-10.5 33.5q6 41 47 41q20 0 32.5 -14t10.5 -35q-6 -39 -47 -39zM506 1116q-20 0 -32.5 13.5t-10.5 33.5q6 41 47 41q20 0 32.5 -14t10.5 -35q-6 -39 -47 -39z" />
    <glyph glyph-name="igrave" unicode="&#xec;" horiz-adv-x="360" 
d="M104 0q-10 0 -18 9t-6 20l129 813q4 25 29 24h20q10 0 17.5 -9t5.5 -19l-129 -813q-4 -25 -27 -25h-21zM442 1044l-290 220q-25 18 -5 45l17 22q20 31 45 6l262 -250q20 -20 6 -40q-15 -19 -35 -3z" />
    <glyph glyph-name="iacute" unicode="&#xed;" horiz-adv-x="360" 
d="M104 0q-10 0 -18 9t-6 20l129 813q4 25 29 24h20q10 0 17.5 -9t5.5 -19l-129 -813q-4 -25 -27 -25h-21zM188 1044q-21 -17 -34.5 3t6.5 40l262 250q25 25 45 -6l16 -22q20 -27 -4 -45z" />
    <glyph glyph-name="icircumflex" unicode="&#xee;" horiz-adv-x="360" 
d="M104 0q-10 0 -18 9t-6 20l129 813q4 25 29 24h20q10 0 17.5 -9t5.5 -19l-129 -813q-4 -25 -27 -25h-21zM322 1317h8q27 0 43 -27l106 -166q20 -30 15 -45q-11 -38 -37 -8l-142 178l-192 -182q-25 -22 -37 -1q-3 6 0.5 25t22.5 37l161 166q23 23 52 23z" />
    <glyph glyph-name="idieresis" unicode="&#xef;" horiz-adv-x="360" 
d="M104 0q-10 0 -18 9t-6 20l129 813q4 25 29 24h20q10 0 17.5 -9t5.5 -19l-129 -813q-4 -25 -27 -25h-21zM416 1128q-20 0 -32.5 13.5t-10.5 34.5q6 41 47 41q20 0 32.5 -14.5t10.5 -35.5q-6 -39 -47 -39zM199 1128q-20 0 -32.5 13.5t-10.5 34.5q6 41 47 41
q20 0 32.5 -14.5t10.5 -35.5q-6 -39 -47 -39z" />
    <glyph glyph-name="eth" unicode="&#xf0;" horiz-adv-x="1073" 
d="M592 815q-160 0 -274.5 -117.5t-135.5 -271.5q-27 -147 49 -261t236 -114t269 116.5t134 267.5t-46.5 265.5t-231.5 114.5zM459.5 -16q-189.5 0 -287.5 130t-67.5 320t168 319.5t325.5 129.5q221 0 311 -191q16 332 -204 549l-111 -115q-16 -16 -35 2l-12 11
q-20 16 -2 35l108 112q-59 49 -143 96q-33 18 -16 39q29 39 63 17q84 -51 143 -103l99 101q16 14 32 -2l15 -11q18 -18 0 -34l-94 -99q315 -311 196 -864q-31 -188 -165 -315t-323.5 -127z" />
    <glyph glyph-name="ntilde" unicode="&#xf1;" horiz-adv-x="935" 
d="M593.5 883q119.5 0 183 -76t40.5 -213l-90 -569q-4 -25 -27 -25h-20q-10 0 -18.5 9t-6.5 20l80 503q25 152 -15 217.5t-154 65.5t-211 -65.5t-111 -153.5l-92 -571q-4 -25 -27 -25h-21q-10 0 -18 9t-6 20l125 796q4 25 28 25h13q18 0 18 -37l2 -72q39 55 123.5 98.5
t204 43.5zM711 1065q-53 0 -127 53t-109 53q-86 0 -129 -88q-6 -14 -24 -6l-21 10q-14 8 -8 27q18 53 71.5 90t114.5 37t134 -54t106 -54q72 0 125 96q6 12 41 -8q16 -12 8 -29q-55 -127 -182 -127z" />
    <glyph glyph-name="ograve" unicode="&#xf2;" horiz-adv-x="1009" 
d="M442.5 51q153.5 0 257 116t128 267.5t-40 266t-218.5 114.5t-260 -118.5t-130 -268t43 -263.5t220.5 -114zM438 -16q-180 0 -272 128t-62.5 320t159.5 321.5t312.5 129.5t271.5 -131t58 -322.5t-159 -318.5t-308 -127zM764 1032l-291 219q-25 18 -4 45l16 23q20 31 45 6
l263 -250q20 -20 6 -41q-15 -18 -35 -2z" />
    <glyph glyph-name="oacute" unicode="&#xf3;" horiz-adv-x="1009" 
d="M442.5 51q153.5 0 257 116t128 267.5t-40 266t-218.5 114.5t-260 -118.5t-130 -268t43 -263.5t220.5 -114zM438 -16q-180 0 -272 128t-62.5 320t159.5 321.5t312.5 129.5t271.5 -131t58 -322.5t-159 -318.5t-308 -127zM510 1032q-22 -18 -35.5 2t6.5 41l262 250
q25 25 45 -6l17 -23q20 -27 -4 -45z" />
    <glyph glyph-name="ocircumflex" unicode="&#xf4;" horiz-adv-x="1009" 
d="M442.5 51q153.5 0 257 116t128 267.5t-40 266t-218.5 114.5t-260 -118.5t-130 -268t43 -263.5t220.5 -114zM438 -16q-180 0 -272 128t-62.5 320t159.5 321.5t312.5 129.5t271.5 -131t58 -322.5t-159 -318.5t-308 -127zM643 1305h8q27 0 43 -27l107 -166q19 -29 15 -45
q-11 -38 -38 -8l-141 178l-193 -182q-24 -21 -36 -1q-3 5 0.5 24t21.5 38l162 166q23 23 51 23z" />
    <glyph glyph-name="otilde" unicode="&#xf5;" horiz-adv-x="1009" 
d="M442.5 51q153.5 0 257 116t128 267.5t-40 266t-218.5 114.5t-260 -118.5t-130 -268t43 -263.5t220.5 -114zM438 -16q-180 0 -272 128t-62.5 320t159.5 321.5t312.5 129.5t271.5 -131t58 -322.5t-159 -318.5t-308 -127zM748 1065q-53 0 -127 53t-109 53q-86 0 -129 -88
q-6 -14 -25 -6l-20 10q-14 8 -8 27q18 53 71.5 90t114.5 37t134 -54t106 -54q72 0 125 96q6 12 41 -8q16 -12 8 -29q-55 -127 -182 -127z" />
    <glyph glyph-name="odieresis" unicode="&#xf6;" horiz-adv-x="1009" 
d="M442.5 51q153.5 0 257 116t128 267.5t-40 266t-218.5 114.5t-260 -118.5t-130 -268.5t43 -263.5t220.5 -113.5zM438 -16q-180 0 -272 128t-62 320t159.5 321.5t312 129.5t271.5 -131q89 -130 58 -322t-159 -319t-308 -127zM737 1116q-20 0 -32.5 13.5t-10.5 33.5
q6 41 47 41q20 0 32.5 -14t10.5 -35q-6 -39 -47 -39zM520 1116q-20 0 -32.5 13.5t-10.5 33.5q6 41 47 41q20 0 32.5 -14t10.5 -35q-6 -39 -47 -39z" />
    <glyph glyph-name="divide" unicode="&#xf7;" horiz-adv-x="1118" 
d="M574 551q38 0 61 -28q23 -27 17 -65t-34 -64q-30 -26 -68 -26t-61 28t-19 67t36 63q30 24 68 25zM231 668q-27 0 -22 47q4 25 29 24h735q27 0 22 -47q-4 -25 -28 -24h-736zM652 1038q38 0 61 -28t17 -65t-34 -63q-30 -26 -68 -26t-61 28t-19 66t36 64q30 24 68 24z" />
    <glyph glyph-name="oslash" unicode="&#xf8;" horiz-adv-x="1009" 
d="M442 51q154 0 257 115.5t128 267.5q33 203 -73 311l-447 -661q59 -33 135 -33zM571 815q-156 0 -262 -118.5t-129 -270.5q-33 -193 72 -299l446 659q-53 29 -127 29zM782 883h29q14 0 16 -12.5t-8 -26.5l-24 -35q74 -61 102.5 -161.5t7.5 -221.5q-31 -188 -159 -315
t-308 -127q-96 0 -170 39q-29 -40 -51 -39h-14q-20 0 -23.5 16t8.5 31l23 32q-147 127 -109 371q31 190 161 319.5t312 129.5q92 0 164 -37q19 37 43 37z" />
    <glyph glyph-name="ugrave" unicode="&#xf9;" horiz-adv-x="944" 
d="M842 866q10 0 17 -9t5 -19l-129 -818q-2 -20 -20 -20h-13q-23 0 -22 31l4 86q-43 -59 -120 -96t-154 -37q-178 0 -243 94t-40 250l82 514q4 25 29 24h20q10 0 17.5 -9t5.5 -19l-78 -500q-45 -287 211 -287q117 0 196.5 74t94.5 160l88 557q4 25 28 24h21zM731 1032
l-291 219q-25 18 -4 45l17 23q20 31 45 6l262 -250q20 -20 6 -41q-15 -18 -35 -2z" />
    <glyph glyph-name="uacute" unicode="&#xfa;" horiz-adv-x="944" 
d="M842 866q10 0 17 -9t5 -19l-129 -818q-2 -20 -20 -20h-13q-23 0 -22 31l4 86q-43 -59 -120 -96t-154 -37q-178 0 -243 94t-40 250l82 514q4 25 29 24h20q10 0 17.5 -9t5.5 -19l-78 -500q-45 -287 211 -287q117 0 196.5 74t94.5 160l88 557q4 25 28 24h21zM477 1032
q-22 -18 -35.5 2t7.5 41l262 250q25 25 45 -6l16 -23q20 -27 -4 -45z" />
    <glyph glyph-name="ucircumflex" unicode="&#xfb;" horiz-adv-x="944" 
d="M842 866q10 0 17 -9t5 -19l-129 -818q-2 -20 -20 -20h-13q-23 0 -22 31l4 86q-43 -59 -120 -96t-154 -37q-178 0 -243 94t-40 250l82 514q4 25 29 24h20q10 0 17.5 -9t5.5 -19l-78 -500q-45 -287 211 -287q117 0 196.5 74t94.5 160l88 557q4 25 28 24h21zM610 1305h8
q27 0 44 -27l106 -166q19 -29 15 -45q-11 -38 -38 -8l-141 178l-192 -182q-25 -22 -37 -1q-3 6 0.5 24.5t21.5 37.5l162 166q23 23 51 23z" />
    <glyph glyph-name="udieresis" unicode="&#xfc;" horiz-adv-x="944" 
d="M842 866q10 0 17 -9t5 -19l-129 -818q-2 -20 -20 -20h-13q-23 0 -22 31l4 86q-43 -59 -120 -96t-154 -37q-178 0 -243 94t-40 250l82 514q4 25 29 24h20q10 0 17.5 -9t5.5 -19l-78 -500q-45 -287 211 -287q117 0 196.5 74t94.5 160l88 557q4 25 28 24h21zM705 1116
q-20 0 -33 13.5t-10 33.5q6 41 47 41q20 0 32.5 -14t10.5 -35q-6 -39 -47 -39zM487 1116q-20 0 -32.5 13.5t-10.5 33.5q6 41 48 41q20 0 32.5 -14t10.5 -35q-7 -39 -48 -39z" />
    <glyph glyph-name="yacute" unicode="&#xfd;" horiz-adv-x="933" 
d="M918 866q14 0 18 -13t-4 -32l-768 -1147q-14 -20 -31 -20h-24q-14 0 -18.5 13.5t7.5 31.5l267 401l-238 725q-10 41 25 41h24q16 0 27 -32l213 -658l452 674q10 16 29 16h21zM471 1032q-22 -18 -35.5 2t6.5 41l263 250q25 25 45 -6l16 -23q20 -27 -4 -45z" />
    <glyph glyph-name="thorn" unicode="&#xfe;" horiz-adv-x="933" 
d="M418 51q131 0 223 108q92 107 117 271q24 164 -30 275t-184 111t-214 -110q-84 -108 -112 -275t20 -273t180 -107zM543 883q178 0 248 -131q71 -131 39 -327t-140 -319t-268 -122q-197 0 -250 166l-76 -480q-4 -25 -28 -24h-21q-10 0 -18 9t-6 19l241 1520q4 27 27 27h24
q9 -1 17 -11t6 -20l-76 -467q103 160 281 160z" />
    <glyph glyph-name="ydieresis" unicode="&#xff;" horiz-adv-x="933" 
d="M918 866q14 0 18 -13t-4 -32l-768 -1147q-14 -20 -31 -20h-24q-14 0 -18.5 13.5t7.5 31.5l267 401l-238 725q-10 41 25 41h24q16 0 27 -32l213 -658l452 674q10 16 29 16h21zM698 1116q-20 0 -32.5 13.5t-10.5 33.5q6 41 47 41q20 0 33 -14t10 -35q-6 -39 -47 -39z
M481 1116q-20 0 -32.5 13.5t-10.5 33.5q6 41 47 41q20 0 32.5 -14t10.5 -35q-6 -39 -47 -39z" />
    <glyph glyph-name="Amacron" unicode="&#x100;" horiz-adv-x="1198" 
d="M303 426h592l-160 805l-6 33zM756 1450q6 0 10 -12l287 -1397q4 -16 -6.5 -28.5t-24.5 -12.5h-18q-25 0 -25 23l-70 331h-645l-172 -336q-10 -18 -26 -18h-21q-14 0 -22.5 14.5t0.5 30.5l720 1397q4 8 9 8h4zM623 1673q-38 0 -29 43q6 29 35 29h364q38 0 29 -43
q-6 -29 -35 -29h-364z" />
    <glyph glyph-name="amacron" unicode="&#x101;" horiz-adv-x="976" 
d="M436 51q281 0 338 389q8 84 11 145.5t-13 103.5q-16 43 -32 67q-40 60 -173 59q-166 0 -263 -114.5t-123.5 -274.5t33.5 -267.5t222 -107.5zM872 850q10 0 17.5 -10.5t5.5 -20.5l-125 -792q-4 -27 -27 -27h-12q-20 0 -20 33l6 104q-18 -49 -96 -100t-198 -54t-203 60
q-157 119 -118 387q29 186 151 319.5t314 133.5q84 0 142.5 -26t77 -48.5t24.5 -42.5l16 53q12 31 31 31h14zM426 1106q-38 0 -29 43q6 29 35 29h365q37 0 29.5 -36t-35.5 -36h-365z" />
    <glyph glyph-name="Abreve" unicode="&#x102;" horiz-adv-x="1198" 
d="M303 426h592l-160 805l-6 33zM756 1450q6 0 10 -12l287 -1397q4 -16 -6.5 -28.5t-24.5 -12.5h-18q-25 0 -25 23l-70 331h-645l-172 -336q-10 -18 -26 -18h-21q-14 0 -22.5 14.5t0.5 30.5l720 1397q4 8 9 8h4zM812 1679q64 0 124.5 49.5t93.5 114.5q6 16 23 8l34 -20
q14 -8 7 -23q-115 -193 -303 -192q-119 0 -167.5 54t-66.5 145q-2 14 10 20l39 14q16 4 19 -12q21 -117 90 -145q33 -14 97 -13z" />
    <glyph glyph-name="abreve" unicode="&#x103;" horiz-adv-x="976" 
d="M436 51q281 0 338 389q8 84 11 145.5t-13 103.5q-16 43 -32 67q-40 60 -173 59q-166 0 -263 -114.5t-123.5 -274.5t33.5 -267.5t222 -107.5zM872 850q10 0 17.5 -10.5t5.5 -20.5l-125 -792q-4 -27 -27 -27h-12q-20 0 -20 33l6 104q-18 -49 -96 -100t-198 -54t-203 60
q-157 119 -118 387q29 186 151 319.5t314 133.5q84 0 142.5 -26t77 -48.5t24.5 -42.5l16 53q12 31 31 31h14zM615.5 1112q64.5 0 125 49t93.5 115q6 16 22 8l35 -20q14 -8 6 -23q-115 -193 -303 -192q-119 0 -167 54t-67 144q-2 14 11 21l39 14q16 4 18 -12q21 -116 90 -144
q33 -14 97.5 -14z" />
    <glyph glyph-name="Aogonek" unicode="&#x104;" horiz-adv-x="1198" 
d="M303 426h592l-160 805l-6 33zM910.5 -395q-66.5 0 -112.5 43t-34 120.5t76.5 140t142.5 101.5q-4 8 -4 13l-70 331h-645l-172 -336q-10 -18 -26 -18h-21q-14 0 -22.5 14.5t0.5 30.5l720 1397q4 8 9 8h4q6 0 10 -12l287 -1397q4 -16 -6.5 -28.5t-24.5 -12.5h-4
q-59 -39 -109.5 -99.5t-59.5 -115.5t16.5 -84t84 -29t90.5 52q11 11 28 -2t7 -38.5t-54 -52t-110.5 -26.5z" />
    <glyph glyph-name="aogonek" unicode="&#x105;" horiz-adv-x="976" 
d="M436 51q281 0 338 389q8 84 11 145.5t-13 103.5q-16 43 -32 67q-40 60 -173 59q-166 0 -263 -114.5t-123.5 -274.5t33.5 -267.5t222 -107.5zM668.5 -328q58.5 0 91.5 52q10 10 27.5 -2.5t11.5 -28.5q-14 -35 -58.5 -61.5t-111 -26.5t-112.5 43t-33 122t81 143t148 101
q-2 6 -2 19l6 104q-18 -49 -96 -100t-198 -54t-203 60q-157 119 -118 387q29 186 151 319.5t314 133.5q84 0 142.5 -26t77 -48.5t24.5 -42.5l16 53q12 31 31 31h14q10 0 17.5 -10.5t5.5 -20.5l-125 -792q-4 -27 -27 -27h-6q-59 -39 -109 -99.5t-59.5 -115.5t16 -84t84 -29z
" />
    <glyph glyph-name="Cacute" unicode="&#x106;" horiz-adv-x="1406" 
d="M714 -16q-288 0 -441.5 216t-104.5 520t267 517t503 213t451 -231q14 -20 -5 -37l-22 -19q-25 -20 -41 8q-41 72 -145.5 139.5t-239.5 67.5q-256 0 -449.5 -196.5t-236.5 -467.5t86 -465t383 -194q135 0 262 66.5t213 163.5q16 16 37 0l16 -15q20 -20 0 -41
q-245 -245 -533 -245zM829 1608q-25 -8 -31.5 13t13.5 34l315 155q25 12 35 -8l15 -26q10 -29 -23 -43z" />
    <glyph glyph-name="cacute" unicode="&#x107;" horiz-adv-x="923" 
d="M448 -16q-182 0 -279 133t-66.5 320t165.5 316.5t325 129.5t263 -146q12 -20 -4 -30l-31 -19q-20 -10 -30 10q-68 117 -216.5 117t-259 -114.5t-134.5 -267.5t46 -267.5t221.5 -114.5t262.5 135q18 20 37 2l22 -20q14 -16 -6 -37q-134 -147 -316 -147zM518 1032
q-22 -18 -35.5 2t6.5 41l263 250q25 25 45 -6l16 -23q20 -27 -4 -45z" />
    <glyph glyph-name="Cdotaccent" unicode="&#x10a;" horiz-adv-x="1406" 
d="M714 -16q-288 0 -441.5 216t-104.5 520t267 517t503 213t451 -231q14 -20 -5 -37l-22 -19q-25 -20 -41 8q-41 72 -145.5 139.5t-239.5 67.5q-256 0 -449.5 -196.5t-236.5 -467.5t86 -465t383 -194q135 0 262 66.5t213 163.5q16 16 37 0l16 -15q20 -20 0 -41
q-245 -245 -533 -245zM991 1675q-23 0 -37 15.5t-10 38.5q8 47 55 47q23 0 36.5 -16.5t8.5 -39.5q-8 -45 -53 -45z" />
    <glyph glyph-name="cdotaccent" unicode="&#x10b;" horiz-adv-x="923" 
d="M448 -16q-182 0 -279 133t-66.5 320t165.5 316.5t325 129.5t263 -146q12 -20 -4 -30l-31 -19q-20 -10 -30 10q-68 117 -216.5 117t-259 -114.5t-134.5 -267.5t46 -267.5t221.5 -114.5t262.5 135q18 20 37 2l22 -20q14 -16 -6 -37q-134 -147 -316 -147zM633 1108
q-23 0 -37 15.5t-10 37.5q8 47 55 47q23 0 36 -16t9 -39q-8 -45 -53 -45z" />
    <glyph glyph-name="Ccaron" unicode="&#x10c;" horiz-adv-x="1406" 
d="M714 -16q-288 0 -441.5 216t-104.5 520t267 517t503 213t451 -231q14 -20 -5 -37l-22 -19q-25 -20 -41 8q-41 72 -145.5 139.5t-239.5 67.5q-256 0 -449.5 -196.5t-236.5 -467.5t86 -465t383 -194q135 0 262 66.5t213 163.5q16 16 37 0l16 -15q20 -20 0 -41
q-245 -245 -533 -245zM971 1612q-27 0 -43 26l-107 166q-19 29 -15 45q11 38 38 9l141 -179l193 183q24 20 36 0q4 -7 0 -25t-22 -37l-162 -166q-23 -23 -51 -22h-8z" />
    <glyph glyph-name="ccaron" unicode="&#x10d;" horiz-adv-x="923" 
d="M448 -16q-182 0 -279 133t-66.5 320t165.5 316.5t325 129.5t263 -146q12 -20 -4 -30l-31 -19q-20 -10 -30 10q-68 117 -216.5 117t-259 -114.5t-134.5 -267.5t46 -267.5t221.5 -114.5t262.5 135q18 20 37 2l22 -20q14 -16 -6 -37q-134 -147 -316 -147zM621 1044h-9
q-27 0 -43 27l-106 166q-18 27 -17 41q15 41 39 12l142 -178l192 182q26 22 37 2q3 -6 -0.5 -25t-21.5 -38l-162 -166q-23 -23 -51 -23z" />
    <glyph glyph-name="Dcaron" unicode="&#x10e;" horiz-adv-x="1224" 
d="M477 72q485 0 586.5 645t-377.5 645h-297l-205 -1290h293zM481 0h-356q-10 0 -18.5 9t-6.5 20l219 1380q4 25 27 25h365q276 0 382.5 -186.5t51.5 -536.5q-115 -711 -664 -711zM801 1612q-27 0 -43 26l-107 166q-19 29 -15 45q11 38 38 9l141 -179l193 183q24 20 36 0
q4 -7 0 -25t-22 -37l-162 -166q-23 -23 -51 -22h-8z" />
    <glyph glyph-name="dcaron" unicode="&#x10f;" horiz-adv-x="1144" 
d="M429.5 51q143.5 0 222.5 103.5t108 279.5q59 381 -193 381q-156 0 -258 -112.5t-129 -275.5t39.5 -269.5t210 -106.5zM1149 1434h96q35 0 29 -31l-17 -107q-18 -125 -178 -204q-12 -6 -20 11t6 25q111 66 123 148l-70 24q-23 6 -18 29l12 74q6 31 37 31zM961 1450
q25 0 20 -31l-219 -1392q-4 -27 -27 -27h-10q-25 0 -25 41l-2 68q-109 -125 -278.5 -125t-258.5 128t-58.5 320t156.5 321.5t302 129.5t238 -135l110 675q4 27 27 27h25z" />
    <glyph glyph-name="Dcroat" unicode="&#x110;" horiz-adv-x="1224" 
d="M686 1362h-297l-96 -610h344q35 0 29 -33l-2 -10q-2 -29 -35 -29h-348l-97 -608h293q486 0 587 645t-378 645zM711 1434q276 0 382.5 -186.5t51.5 -536.5q-115 -711 -664 -711h-356q-10 0 -18.5 9t-6.5 20l103 651h-56q-29 0 -28 33v10q0 29 37 29h59l104 657q4 25 27 25
h365z" />
    <glyph glyph-name="dcroat" unicode="&#x111;" horiz-adv-x="1038" 
d="M567 815q-156 0 -258 -112.5t-129 -275.5t40 -269.5t210 -106.5q267 0 328 382t-191 382zM1065 1206q35 0 29 -32v-7q-6 -29 -35 -28h-123l-174 -1112q-4 -27 -27 -27h-10q-25 0 -25 41l-2 68q-109 -125 -278.5 -125t-258.5 128t-58.5 320t156.5 321.5t302 129.5
t238 -135l63 391h-112q-40 0 -29 39q2 29 35 28h118l35 217q4 27 27 27h25q25 0 20 -31l-33 -213h117z" />
    <glyph glyph-name="Emacron" unicode="&#x112;" horiz-adv-x="987" 
d="M778 72q10 0 18.5 -8.5t6.5 -18.5l-4 -22q-4 -23 -27 -23h-647q-10 0 -18.5 9t-6.5 20l219 1380q4 25 27 25h649q10 0 17.5 -9.5t5.5 -19.5l-4 -23q-2 -20 -25 -20h-600l-96 -608h434q10 0 18.5 -8.5t6.5 -18.5l-4 -22q-4 -23 -29 -23h-438l-97 -610h594zM520 1673
q-41 0 -28 43q6 29 34 29h365q38 0 29 -43q-6 -29 -35 -29h-365z" />
    <glyph glyph-name="emacron" unicode="&#x113;" horiz-adv-x="956" 
d="M547 815q-133 0 -230.5 -94t-130.5 -242l596 4q25 164 -38.5 248t-196.5 84zM564 883q171 0 252 -119t38 -324q-6 -27 -33 -26l-645 -2q-16 -158 49.5 -259.5t213.5 -101.5t259 117q18 16 33 2l21 -20q16 -18 -9 -44q-115 -123 -302 -122.5t-279 127.5t-59.5 328.5
t161.5 322.5t300 121zM428 1106q-38 0 -29 43q6 29 35 29h365q37 0 29.5 -36t-35.5 -36h-365z" />
    <glyph glyph-name="Edotaccent" unicode="&#x116;" horiz-adv-x="987" 
d="M778 72q10 0 18.5 -8.5t6.5 -18.5l-4 -22q-4 -23 -27 -23h-647q-10 0 -18.5 9t-6.5 20l219 1380q4 25 27 25h649q10 0 17.5 -9.5t5.5 -19.5l-4 -23q-2 -20 -25 -20h-600l-96 -608h434q10 0 18.5 -8.5t6.5 -18.5l-4 -22q-4 -23 -29 -23h-438l-97 -610h594zM702 1675
q-23 0 -37 15.5t-10 38.5q8 47 56 47q23 0 36 -16.5t9 -39.5q-9 -45 -54 -45z" />
    <glyph glyph-name="edotaccent" unicode="&#x117;" horiz-adv-x="956" 
d="M547 815q-133 0 -230.5 -94t-130.5 -242l596 4q25 164 -38.5 248t-196.5 84zM564 883q171 0 252 -119t38 -324q-6 -27 -33 -26l-645 -2q-16 -158 49.5 -259.5t213.5 -101.5t259 117q18 16 33 2l21 -20q16 -18 -9 -44q-115 -123 -302 -122.5t-279 127.5t-59.5 328.5
t161.5 322.5t300 121zM610 1108q-23 0 -37 15.5t-10 37.5q8 47 55 47q23 0 36.5 -16t9.5 -39q-9 -45 -54 -45z" />
    <glyph glyph-name="Eogonek" unicode="&#x118;" horiz-adv-x="987" 
d="M995 1434q10 0 17.5 -9.5t5.5 -19.5l-4 -23q-2 -20 -25 -20h-600l-96 -608h434q10 0 18.5 -8.5t6.5 -18.5l-4 -22q-4 -23 -29 -23h-438l-97 -610h594q10 0 18.5 -8.5t6.5 -18.5l-4 -22q-4 -23 -27 -23h-88q-59 -39 -109.5 -99.5t-59.5 -115.5t16.5 -84t84 -29t91.5 52
q11 11 27.5 -2t6.5 -38.5t-54 -52t-110.5 -26.5t-112.5 43t-34 121q25 137 199 231h-504q-10 0 -18.5 9t-6.5 20l219 1380q4 25 27 25h649z" />
    <glyph glyph-name="eogonek" unicode="&#x119;" horiz-adv-x="956" 
d="M547 815q-133 0 -230.5 -94t-130.5 -242l596 4q25 164 -38.5 248t-196.5 84zM564 883q171 0 252 -119t38 -324q-6 -27 -33 -26l-645 -2q-16 -158 49.5 -259.5t213.5 -101.5t259 117q18 16 33 2l21 -20q16 -18 -9 -44q-53 -55 -129 -88q-63 -33 -126.5 -101.5
t-72.5 -127.5t16.5 -88t84 -29t90.5 52q11 11 28 -2t7 -38.5t-54 -52t-111 -26.5t-113 43t-33 121q23 127 180 221q-35 -6 -72 -6q-184 0 -276 127t-59.5 328.5t161.5 322.5t300 121z" />
    <glyph glyph-name="Ecaron" unicode="&#x11a;" horiz-adv-x="987" 
d="M778 72q10 0 18.5 -8.5t6.5 -18.5l-4 -22q-4 -23 -27 -23h-647q-10 0 -18.5 9t-6.5 20l219 1380q4 25 27 25h649q10 0 17.5 -9.5t5.5 -19.5l-4 -23q-2 -20 -25 -20h-600l-96 -608h434q10 0 18.5 -8.5t6.5 -18.5l-4 -22q-4 -23 -29 -23h-438l-97 -610h594zM682 1612
q-27 0 -43 26l-107 166q-19 29 -15 45q11 39 38 9l141 -179l193 183q26 22 37 0q3 -6 -0.5 -24.5t-22.5 -37.5l-162 -166q-23 -23 -51 -22h-8z" />
    <glyph glyph-name="ecaron" unicode="&#x11b;" horiz-adv-x="956" 
d="M547 815q-133 0 -230.5 -94t-130.5 -242l596 4q25 164 -38.5 248t-196.5 84zM564 883q171 0 252 -119t38 -324q-6 -27 -33 -26l-645 -2q-16 -158 49.5 -259.5t213.5 -101.5t259 117q18 16 33 2l21 -20q16 -18 -9 -44q-115 -123 -302 -122.5t-279 127.5t-59.5 328.5
t161.5 322.5t300 121zM598 1044h-8q-27 0 -43 27l-107 166q-19 29 -15 45q11 40 38 8l141 -178l193 182q25 22 37 2q4 -6 0 -25t-23 -38l-162 -166q-23 -23 -51 -23z" />
    <glyph glyph-name="Gbreve" unicode="&#x11e;" horiz-adv-x="1425" 
d="M1272 662q27 0 22 -27l-71 -445q-2 -16 -15 -28q-74 -76 -207 -127t-271 -51t-249.5 53t-190.5 147.5t-113 234.5t-9 302q51 319 282.5 524t497.5 205q181 0 296 -93q85 -69 130 -136q16 -20 0 -33l-26 -23q-23 -18 -35 3t-36 48t-69 68t-117.5 67.5t-156.5 26.5
q-242 0 -441.5 -198.5t-242.5 -465.5t92 -463t387 -196q133 0 250 46t172 114l59 375h-292q-29 0 -25 26l4 23q4 23 29 23h346zM990 1679q64 0 125 49.5t93 114.5q6 16 23 8l35 -20q14 -8 6 -23q-115 -193 -303 -192q-119 0 -167 54t-67 145q-2 14 10 20l39 14q16 4 19 -12
q21 -117 90 -145q33 -14 97 -13z" />
    <glyph glyph-name="gbreve" unicode="&#x11f;" horiz-adv-x="976" 
d="M444 51q268 0 324 379q29 188 -16 286.5t-197 98.5t-250 -113.5t-125 -274.5t37.5 -268.5t226.5 -107.5zM872 850q10 0 17.5 -10.5t5.5 -20.5l-141 -889q-27 -164 -128.5 -254t-250.5 -90q-225 0 -295 207q-6 20 6 27l31 18q20 10 28 -14q52 -122 136 -154q41 -16 94 -16
q119 0 204 80t105 219l27 166q-102 -135 -286.5 -135t-268.5 128t-54.5 317t153.5 321.5t304 132.5q100 0 163.5 -41t84.5 -101l24 78q6 20 11.5 25.5t15.5 5.5h14zM636 1112q64 0 124.5 49t93.5 115q6 16 23 8l34 -20q14 -8 7 -23q-115 -193 -304 -192q-119 0 -167 54
t-66 144q-2 14 10 21l39 14q16 4 19 -12q21 -116 89 -144q32 -14 98 -14z" />
    <glyph glyph-name="Gdotaccent" unicode="&#x120;" horiz-adv-x="1425" 
d="M1272 662q27 0 22 -27l-71 -445q-2 -16 -15 -28q-74 -76 -207 -127t-271 -51t-249.5 53t-190.5 147.5t-113 234.5t-9 302q51 319 282.5 524t497.5 205q181 0 296 -93q85 -69 130 -136q16 -20 0 -33l-26 -23q-23 -18 -35 3t-36 48t-69 68t-117.5 67.5t-156.5 26.5
q-242 0 -441.5 -198.5t-242.5 -465.5t92 -463t387 -196q133 0 250 46t172 114l59 375h-292q-29 0 -25 26l4 23q4 23 29 23h346zM983 1675q-23 0 -37 15.5t-10 38.5q8 47 55 47q23 0 36 -16.5t9 -39.5q-8 -45 -53 -45z" />
    <glyph glyph-name="gdotaccent" unicode="&#x121;" horiz-adv-x="976" 
d="M444 51q268 0 324 379q29 188 -16 286.5t-197 98.5t-250 -113.5t-125 -274.5t37.5 -268.5t226.5 -107.5zM872 850q10 0 17.5 -10.5t5.5 -20.5l-141 -889q-27 -164 -128.5 -254t-250.5 -90q-225 0 -295 207q-6 20 6 27l31 18q20 10 28 -14q52 -122 136 -154q41 -16 94 -16
q119 0 204 80t105 219l27 166q-102 -135 -286.5 -135t-268.5 128t-54.5 317t153.5 321.5t304 132.5q100 0 163.5 -41t84.5 -101l24 78q6 20 11.5 25.5t15.5 5.5h14zM629 1108q-23 0 -37 15.5t-10 37.5q8 47 55 47q23 0 36 -16t9 -39q-8 -45 -53 -45z" />
    <glyph glyph-name="Gcommaaccent" unicode="&#x122;" horiz-adv-x="1425" 
d="M653 -137h58q30 0 28 -31l-14 -86q-8 -47 -48 -87t-97 -54q-11 -4 -15 14q-2 16 10 21q74 31 87 102l-33 16q-23 12 -19 37l6 37q6 31 37 31zM1272 662q27 0 22 -27l-71 -445q-2 -16 -15 -28q-74 -76 -207 -127t-271 -51t-249.5 53t-190.5 147.5t-113 234.5t-9 302
q51 319 282.5 524t497.5 205q181 0 296 -93q85 -69 130 -136q16 -20 0 -33l-26 -23q-23 -18 -35 3t-36 48t-69 68t-117.5 67.5t-156.5 26.5q-242 0 -441.5 -198.5t-242.5 -465.5t92 -463t387 -196q133 0 250 46t172 114l59 375h-292q-29 0 -25 26l4 23q4 23 29 23h346z" />
    <glyph glyph-name="gcommaaccent" unicode="&#x123;" horiz-adv-x="976" 
d="M444 51q268 0 324 379q29 188 -16 286.5t-197 98.5t-250 -113.5t-125 -274.5t37.5 -268.5t226.5 -107.5zM872 850q10 0 17.5 -10.5t5.5 -20.5l-141 -889q-27 -164 -128.5 -254t-250.5 -90q-225 0 -295 207q-6 20 6 27l31 18q20 10 28 -14q52 -122 136 -154q41 -16 94 -16
q119 0 204 80t105 219l27 166q-102 -135 -286.5 -135t-268.5 128t-54.5 317t153.5 321.5t304 132.5q100 0 163.5 -41t84.5 -101l24 78q6 20 11.5 25.5t15.5 5.5h14zM645 1118h-57q-31 0 -29 31l14 86q8 47 48.5 87t97.5 54q6 2 9 -1t5 -15t-10 -19q-74 -31 -86 -102l33 -16
q23 -12 18 -37l-6 -37q-6 -31 -37 -31z" />
    <glyph glyph-name="Hbar" unicode="&#x126;" horiz-adv-x="1277" 
d="M279 666h794l33 202h-795zM1249 1434q23 0 19 -29l-219 -1380q-4 -25 -21 -25h-35q-25 0 -20 29l88 565h-795l-90 -569q-4 -25 -20 -25h-35q-25 0 -21 29l219 1380q4 25 23 25h35q23 0 18 -29l-73 -465h794l76 469q4 25 22 25h35z" />
    <glyph glyph-name="hbar" unicode="&#x127;" horiz-adv-x="1001" 
d="M625 883q133 0 205.5 -82t43.5 -258l-83 -518q-4 -25 -27 -25h-21q-10 0 -18 9t-6 20l78 489q47 297 -181 297q-119 0 -209 -71.5t-100 -139.5l-92 -579q-4 -25 -27 -25h-20q-10 0 -18.5 9t-6.5 20l176 1110h-110q-24 0 -27.5 6t-3.5 14l2 23q2 25 35 24h115l35 219
q4 25 28 25h21q10 0 17 -9t5 -20l-35 -215h123q16 0 24.5 -5t6.5 -19l-2 -23q-2 -20 -35 -20h-127l-61 -394q35 51 121 94.5t174 43.5z" />
    <glyph glyph-name="Imacron" unicode="&#x12a;" horiz-adv-x="407" 
d="M119 0q-23 0 -19 29l219 1380q4 25 23 25h37q23 0 18 -29l-219 -1380q-4 -25 -20 -25h-39zM231 1673q-37 0 -28 43q6 29 35 29h364q38 0 29 -43q-6 -29 -35 -29h-365z" />
    <glyph glyph-name="imacron" unicode="&#x12b;" horiz-adv-x="360" 
d="M104 0q-10 0 -18 9t-6 20l129 813q4 25 29 24h20q10 0 17.5 -9t5.5 -19l-129 -813q-4 -25 -27 -25h-21zM121 1118q-38 0 -29 43q6 29 35 29h365q37 0 28 -43q-6 -29 -35 -29h-364z" />
    <glyph glyph-name="Iogonek" unicode="&#x12e;" horiz-adv-x="407" 
d="M76.5 -328q58.5 0 91.5 52q11 11 28 -2t11 -29q-14 -35 -58.5 -61.5t-111 -26.5t-112.5 43t-34 120t75 138t138 100q-6 10 -4 23l219 1380q4 25 23 25h37q23 0 18 -29l-219 -1380q-4 -25 -20 -25h-13q-59 -39 -109 -99.5t-59.5 -115.5t16 -84t84 -29z" />
    <glyph glyph-name="iogonek" unicode="&#x12f;" horiz-adv-x="360" 
d="M258 866q10 0 17.5 -9t5.5 -19l-129 -813q-4 -25 -27 -25h-6q-59 -39 -109.5 -99.5t-59.5 -115.5t16.5 -84t84 -29t90.5 52q11 11 28 -2t7 -38.5t-54 -52t-111 -26.5t-112.5 43t-33.5 120.5t76.5 140t142.5 101.5q-4 12 -4 19l129 813q4 25 29 24h20zM311 1221
q23 0 36 -16.5t9 -39.5q-8 -45 -53 -45q-23 0 -37 15.5t-10 38.5q8 47 55 47z" />
    <glyph glyph-name="Idotaccent" unicode="&#x130;" horiz-adv-x="407" 
d="M119 0q-23 0 -19 29l219 1380q4 25 23 25h37q23 0 18 -29l-219 -1380q-4 -25 -20 -25h-39zM414 1675q-23 0 -37.5 15.5t-9.5 38.5q8 47 55 47q23 0 36 -16.5t9 -39.5q-8 -45 -53 -45z" />
    <glyph glyph-name="dotlessi" unicode="&#x131;" horiz-adv-x="360" 
d="M104 0q-10 0 -18 9t-6 20l129 813q4 25 29 24h20q10 0 17.5 -9t5.5 -19l-129 -813q-4 -25 -27 -25h-21z" />
    <glyph glyph-name="Kcommaaccent" unicode="&#x136;" horiz-adv-x="1067" 
d="M408 -137h57q31 0 29 -31l-15 -86q-8 -47 -48 -87t-97 -54q-9 -3 -15 14q-2 16 11 21q74 31 86 102l-33 16q-23 12 -18 37l6 37q6 31 37 31zM156 0h-35q-25 0 -21 29l219 1380q4 25 23 25h35q23 0 18 -29l-102 -651l706 655q27 25 54 25h43q10 0 13 -10.5t-5 -18.5
l-742 -688l531 -692q8 -8 5 -16.5t-13 -8.5h-54q-18 0 -43 29l-505 661l-107 -667q-4 -23 -20 -23z" />
    <glyph glyph-name="kcommaaccent" unicode="&#x137;" horiz-adv-x="796" 
d="M279 -137h57q33 0 29 -31l-15 -86q-8 -47 -48 -87t-97 -54q-9 -3 -15 14q-2 16 11 21q74 31 86 102l-33 16q-23 12 -18 37l6 37q6 31 37 31zM631 0h-27q-27 0 -51 31l-330 438l-71 -444q-4 -25 -27 -25h-21q-10 0 -18 9t-6 20l221 1396q4 25 29 25h20q10 0 17.5 -9
t5.5 -20l-142 -897l396 314q37 29 57 28h29q18 0 19 -15t-15 -28l-422 -334l346 -458q8 -12 5 -21.5t-15 -9.5z" />
    <glyph glyph-name="Lacute" unicode="&#x139;" horiz-adv-x="942" 
d="M756 72q28 0 21 -36t-27 -36h-625q-10 0 -18.5 9t-6.5 20l217 1378q6 27 25 27h35q23 0 18 -31l-211 -1331h572zM518 1608q-25 -8 -32 13t14 34l315 155q25 12 35 -8l14 -26q10 -29 -22 -43z" />
    <glyph glyph-name="lacute" unicode="&#x13a;" horiz-adv-x="360" 
d="M104 0q-10 0 -18 9t-6 20l221 1396q4 25 29 25h20q10 0 17.5 -9t5.5 -20l-221 -1396q-4 -25 -27 -25h-21zM227 1608q-25 -8 -31 13q-7 21 13 34l315 155q25 12 35 -8l14 -26q10 -29 -22 -43z" />
    <glyph glyph-name="Lcommaaccent" unicode="&#x13b;" horiz-adv-x="942" 
d="M389 -137h57q33 0 29 -31l-14 -86q-8 -47 -48 -87t-98 -54q-6 -2 -9 2t-5 16t10 17q74 31 86 102l-32 16q-23 12 -19 37l6 37q6 31 37 31zM756 72q28 0 21 -36t-27 -36h-625q-10 0 -18.5 9t-6.5 20l217 1378q6 27 25 27h35q23 0 18 -31l-211 -1331h572z" />
    <glyph glyph-name="lcommaaccent" unicode="&#x13c;" horiz-adv-x="360" 
d="M59 -137h58q30 0 28 -31l-14 -86q-8 -47 -48 -87t-97 -54q-11 -4 -15 14q-2 16 11 21q74 31 86 102l-33 16q-23 12 -19 37l7 37q6 31 36 31zM104 0q-10 0 -18 9t-6 20l221 1396q4 25 29 25h20q10 0 17.5 -9t5.5 -20l-221 -1396q-4 -25 -27 -25h-21z" />
    <glyph glyph-name="Lcaron" unicode="&#x13d;" horiz-adv-x="942" 
d="M756 72q28 0 21 -36t-27 -36h-625q-10 0 -18.5 9t-6.5 20l217 1378q6 27 25 27h35q23 0 18 -31l-211 -1331h572zM659 1612q-27 0 -43 26l-106 166q-19 29 -15 45q11 39 37 9l142 -179l192 183q26 22 37 0q3 -6 -0.5 -24.5t-21.5 -37.5l-162 -166q-23 -23 -51 -22h-9z" />
    <glyph glyph-name="lcaron" unicode="&#x13e;" horiz-adv-x="360" 
d="M104 0q-10 0 -18 9t-6 20l221 1396q4 25 29 25h20q10 0 17.5 -9t5.5 -20l-221 -1396q-4 -25 -27 -25h-21zM369 1612q-27 0 -43 26l-107 166q-19 29 -15 45q11 38 38 9l141 -179l192 183q26 22 37 0q3 -6 -0.5 -24.5t-21.5 -37.5l-162 -166q-23 -23 -51 -22h-8z" />
    <glyph glyph-name="Ldot" unicode="&#x13f;" horiz-adv-x="1003" 
d="M504 610q-35 0 -29 33l8 49q6 33 37 33h49q35 0 29 -33l-8 -49q-6 -33 -37 -33h-49zM756 72q28 0 21 -36t-27 -36h-625q-10 0 -18.5 9t-6.5 20l217 1378q6 27 25 27h35q23 0 18 -31l-211 -1331h572z" />
    <glyph glyph-name="ldot" unicode="&#x140;" horiz-adv-x="509" 
d="M379 610q-35 0 -29 33l8 49q6 33 37 33h49q35 0 29 -33l-8 -49q-6 -33 -37 -33h-49zM104 0q-10 0 -18 9t-6 20l221 1396q4 25 29 25h20q10 0 17.5 -9t5.5 -20l-221 -1396q-4 -25 -27 -25h-21z" />
    <glyph glyph-name="Lslash" unicode="&#x141;" horiz-adv-x="997" 
d="M811 72q10 0 18 -10t2 -36t-26 -26h-625q-10 0 -18 9t-6 20l96 612l-115 -84q-25 -20 -43 6l-2 8q-18 27 6 43l170 125l105 668q6 27 24 27h35q23 0 19 -31l-95 -598l115 84q34 23 48 -22q7 -24 -9 -36l-170 -124l-100 -635h571z" />
    <glyph glyph-name="lslash" unicode="&#x142;" horiz-adv-x="522" 
d="M205 0h-21q-10 0 -18 9t-6 20l98 614l-119 -86q-23 -18 -39 4l-10 17q-14 20 10 36l172 127l109 684q4 25 29 25h20q10 0 17.5 -9t5.5 -20l-99 -620l119 88q29 16 39 -2l10 -19q12 -20 -10 -37l-172 -126l-109 -680q-4 -25 -26 -25z" />
    <glyph glyph-name="Nacute" unicode="&#x143;" horiz-adv-x="1288" 
d="M1257 1434q25 0 21 -29l-219 -1382q-4 -23 -23 -23h-22q-16 0 -31 27l-608 1249l-199 -1253q-4 -23 -20 -23h-35q-25 0 -21 27l219 1382q4 25 25 25h18q18 0 33 -33l609 -1243l198 1251q4 25 21 25h34zM692 1608q-25 -8 -30 10q-11 23 12 37l315 155q25 12 35 -8l14 -26
q10 -29 -22 -43z" />
    <glyph glyph-name="nacute" unicode="&#x144;" horiz-adv-x="935" 
d="M593.5 883q119.5 0 183 -76t40.5 -213l-90 -569q-4 -25 -27 -25h-20q-10 0 -18.5 9t-6.5 20l80 503q25 152 -15 217.5t-154 65.5t-211 -65.5t-111 -153.5l-92 -571q-4 -25 -27 -25h-21q-10 0 -18 9t-6 20l125 796q4 25 28 25h13q18 0 18 -37l2 -72q39 55 123.5 98.5
t204 43.5zM473 1032q-22 -18 -35.5 2t6.5 41l263 250q25 25 45 -6l16 -23q20 -27 -4 -45z" />
    <glyph glyph-name="Ncommaaccent" unicode="&#x145;" horiz-adv-x="1288" 
d="M524 -137h58q32 0 28 -31l-14 -86q-8 -47 -48 -87t-97 -54q-11 -4 -15 14q-2 16 10 21q74 31 86 102l-32 16q-23 12 -19 37l6 37q6 31 37 31zM1257 1434q25 0 21 -29l-219 -1382q-4 -23 -23 -23h-22q-16 0 -31 27l-608 1249l-199 -1253q-4 -23 -20 -23h-35q-25 0 -21 27
l219 1382q4 25 25 25h18q18 0 33 -33l609 -1243l198 1251q4 25 21 25h34z" />
    <glyph glyph-name="ncommaaccent" unicode="&#x146;" horiz-adv-x="935" 
d="M348 -137h58q32 0 28 -31l-14 -86q-8 -47 -48 -87t-98 -54q-6 -2 -9 2t-5 16t10 17q74 31 86 102l-32 16q-23 12 -19 37l6 37q6 31 37 31zM593.5 883q119.5 0 183 -76t40.5 -213l-90 -569q-4 -25 -27 -25h-20q-10 0 -18.5 9t-6.5 20l80 503q25 152 -15 217.5t-154 65.5
t-211 -65.5t-111 -153.5l-92 -571q-4 -25 -27 -25h-21q-10 0 -18 9t-6 20l125 796q4 25 28 25h13q18 0 18 -37l2 -72q39 55 123.5 98.5t204 43.5z" />
    <glyph glyph-name="Ncaron" unicode="&#x147;" horiz-adv-x="1288" 
d="M1257 1434q25 0 21 -29l-219 -1382q-4 -23 -23 -23h-22q-16 0 -31 27l-608 1249l-199 -1253q-4 -23 -20 -23h-35q-25 0 -21 27l219 1382q4 25 25 25h18q18 0 33 -33l609 -1243l198 1251q4 25 21 25h34zM834 1612q-27 0 -43 26l-107 166q-19 29 -15 45q11 38 38 9
l141 -179l192 183q26 22 37 0q3 -6 -0.5 -24.5t-21.5 -37.5l-162 -166q-23 -23 -51 -22h-8z" />
    <glyph glyph-name="ncaron" unicode="&#x148;" horiz-adv-x="935" 
d="M593.5 883q119.5 0 183 -76t40.5 -213l-90 -569q-4 -25 -27 -25h-20q-10 0 -18.5 9t-6.5 20l80 503q25 152 -15 217.5t-154 65.5t-211 -65.5t-111 -153.5l-92 -571q-4 -25 -27 -25h-21q-10 0 -18 9t-6 20l125 796q4 25 28 25h13q18 0 18 -37l2 -72q39 55 123.5 98.5
t204 43.5zM575 1044h-8q-27 0 -43 27l-106 166q-20 30 -15 45q11 40 37 8l142 -178l192 182q26 22 37 2q3 -6 -0.5 -25t-22.5 -38l-161 -166q-23 -23 -52 -23z" />
    <glyph glyph-name="Eng" unicode="&#x14a;" horiz-adv-x="1288" 
d="M1255 1434q27 0 23 -29l-236 -1483q-16 -96 -163 -190q-25 -14 -37 4l-15 22q-12 18 9 31q119 72 135 168q12 68 -15 125l-581 1190l-199 -1247q-4 -25 -22 -25h-31q-27 0 -23 29l219 1380q4 25 25 25h18q14 0 33 -33l609 -1245l198 1253q2 25 23 25h30z" />
    <glyph glyph-name="eng" unicode="&#x14b;" horiz-adv-x="976" 
d="M610 883q131 0 201 -76t47 -213l-94 -596q-8 -57 -35 -102.5t-49.5 -67t-67.5 -55.5q-23 -14 -45 14q-10 16 4 39q106 92 117 160l88 546q25 156 -22 219.5t-170 63.5t-224.5 -64.5t-115.5 -154.5l-92 -571q-4 -25 -27 -25h-21q-10 0 -18 9t-6 20l125 796q6 25 28 25h9
q18 0 18 -37l2 -72q39 55 128 98.5t220 43.5z" />
    <glyph glyph-name="Omacron" unicode="&#x14c;" horiz-adv-x="1564" 
d="M717 55q260 0 452.5 198t233.5 466q27 172 -16.5 320.5t-161 243.5t-291.5 95q-260 0 -450.5 -199.5t-233.5 -467.5q-27 -172 15 -319.5t160 -242t292 -94.5zM714.5 -16q-284.5 0 -440 214t-106.5 521t268 519t504 212t439.5 -215t105.5 -523t-267.5 -518t-503 -210z
M809 1673q-38 0 -29 43q6 29 35 29h365q37 0 29.5 -36t-35.5 -36h-365z" />
    <glyph glyph-name="omacron" unicode="&#x14d;" horiz-adv-x="1009" 
d="M442.5 51q153.5 0 257 116t128 267.5t-40 266t-218.5 114.5t-260 -118.5t-130 -268t43 -263.5t220.5 -114zM438 -16q-180 0 -272 128t-62.5 320t159.5 321.5t312.5 129.5t271.5 -131t58 -322.5t-159 -318.5t-308 -127zM442 1106q-37 0 -28 43q6 29 35 29h364q38 0 29 -43
q-6 -29 -35 -29h-365z" />
    <glyph glyph-name="Ohungarumlaut" unicode="&#x150;" horiz-adv-x="1564" 
d="M717 55q260 0 452.5 198t233.5 466q27 172 -16.5 320.5t-161 243.5t-291.5 95q-260 0 -450.5 -199.5t-233.5 -467.5q-27 -172 15 -319.5t160 -242t292 -94.5zM714.5 -16q-284.5 0 -440 214t-106.5 521t268 519t504 212t439.5 -215t105.5 -523t-267.5 -518t-503 -210z
M1049 1595q-23 -14 -36 8t15 46l223 188q12 8 24.5 4t16.5 -16l8 -27q8 -27 -16 -43zM754 1595q-21 -11 -36 10t13 44l225 188q33 18 43 -12l11 -27q12 -27 -15 -43z" />
    <glyph glyph-name="ohungarumlaut" unicode="&#x151;" horiz-adv-x="1009" 
d="M442.5 51q153.5 0 257 116t128 267.5t-40 266t-218.5 114.5t-260 -118.5t-130 -268t43 -263.5t220.5 -114zM438 -16q-180 0 -272 128t-62.5 320t159.5 321.5t312.5 129.5t271.5 -131t58 -322.5t-159 -318.5t-308 -127zM442 1053q-16 -16 -37.5 0t1.5 43l178 233
q20 27 43 0l16 -18q16 -23 -2 -45zM709 1055q-15 -14 -36 0t-1 43l178 233q20 27 43 0l16 -18q20 -23 -2 -45z" />
    <glyph glyph-name="OE" unicode="&#x152;" horiz-adv-x="1728" 
d="M848 70l207 1294q-51 14 -125 14q-260 -2 -448.5 -198.5t-231.5 -464.5q-29 -172 13 -320.5t160 -244t292 -95.5q74 1 133 15zM1737 1434q10 0 17 -9.5t5 -19.5l-4 -23q-2 -20 -24 -20h-601l-96 -608h434q10 0 18.5 -8.5t6.5 -18.5l-4 -22q-4 -23 -29 -23h-438l-96 -610
h594q10 0 18 -8.5t6 -18.5l-4 -22q-4 -23 -27 -23h-647q-82 -16 -153 -16q-283 0 -438.5 215t-106.5 522t266 518t500 211q80 0 149 -16h654z" />
    <glyph glyph-name="oe" unicode="&#x153;" horiz-adv-x="1683" 
d="M1274 815q-133 0 -230.5 -94t-130.5 -242l596 4q25 164 -38.5 248t-196.5 84zM442.5 51q153.5 0 257 116t128 267.5t-40 266t-218.5 114.5t-260 -118.5t-130 -268t43 -263.5t220.5 -114zM1292 883q170 0 251 -119t38 -324q-6 -27 -33 -26l-645 -2q-16 -158 49.5 -259.5
t213.5 -101.5t259 117q16 16 33 2l21 -20q16 -18 -9 -44q-115 -123 -305 -122q-129 0 -214 64.5t-115 176.5q-63 -111 -167 -176t-231 -65q-180 0 -272 128t-62.5 320t159.5 321.5t312 129.5q127 0 210 -65.5t114 -176.5q63 115 166.5 178.5t226.5 63.5z" />
    <glyph glyph-name="Racute" unicode="&#x154;" horiz-adv-x="1087" 
d="M586 639q301 0 358 361.5t-217 361.5h-338l-115 -723h312zM862 0h-35q-16 0 -28 27l-164 540h-373l-86 -544q-4 -23 -24 -23h-29q-27 0 -23 27l219 1382q4 25 25 25h424q135 0 213 -112t45 -321q-55 -342 -315 -419l166 -555q8 -27 -15 -27zM598 1608q-25 -8 -32 13
t14 34l315 155q25 12 35 -8l14 -26q10 -29 -22 -43z" />
    <glyph glyph-name="racute" unicode="&#x155;" horiz-adv-x="663" 
d="M492 815q-102 0 -172 -86t-84 -182l-84 -522q-4 -25 -27 -25h-21q-10 0 -18 9t-6 20l125 796q4 25 28 25h13q18 0 18 -37v-72q42 63 112 102.5t138 39.5t121 -43q14 -10 6 -23l-20 -29q-8 -14 -27 -4q-49 31 -102 31zM360 1032q-21 -17 -34.5 2.5t6.5 40.5l262 250
q25 25 45 -6l16 -23q20 -27 -4 -45z" />
    <glyph glyph-name="Rcommaaccent" unicode="&#x156;" horiz-adv-x="1087" 
d="M430 -137h57q33 0 29 -31l-14 -86q-8 -47 -48 -87t-98 -54q-6 -2 -9 2t-5 16t10 17q74 31 86 102l-32 16q-23 12 -19 37l6 37q6 31 37 31zM586 639q301 0 358 361.5t-217 361.5h-338l-115 -723h312zM862 0h-35q-16 0 -28 27l-164 540h-373l-86 -544q-4 -23 -24 -23h-29
q-27 0 -23 27l219 1382q4 25 25 25h424q135 0 213 -112t45 -321q-55 -342 -315 -419l166 -555q8 -27 -15 -27z" />
    <glyph glyph-name="rcommaaccent" unicode="&#x157;" horiz-adv-x="663" 
d="M236 -137h57q31 0 29 -31l-15 -86q-8 -47 -48 -87t-97 -54q-9 -3 -15 14q-2 16 11 21q74 31 86 102l-33 16q-23 12 -18 37l6 37q6 31 37 31zM492 815q-102 0 -172 -86t-84 -182l-84 -522q-4 -25 -27 -25h-21q-10 0 -18 9t-6 20l125 796q4 25 28 25h13q18 0 18 -37v-72
q42 63 112 102.5t138 39.5t121 -43q14 -10 6 -23l-20 -29q-8 -14 -27 -4q-49 31 -102 31z" />
    <glyph glyph-name="Rcaron" unicode="&#x158;" horiz-adv-x="1087" 
d="M586 639q301 0 358 361.5t-217 361.5h-338l-115 -723h312zM862 0h-35q-16 0 -28 27l-164 540h-373l-86 -544q-4 -23 -24 -23h-29q-27 0 -23 27l219 1382q4 25 25 25h424q135 0 213 -112t45 -321q-55 -342 -315 -419l166 -555q8 -27 -15 -27zM739 1612q-27 0 -43 26
l-106 166q-20 30 -15 45q11 39 37 9l142 -179l192 183q26 22 37 0q3 -6 -0.5 -24.5t-21.5 -37.5l-162 -166q-23 -23 -51 -22h-9z" />
    <glyph glyph-name="rcaron" unicode="&#x159;" horiz-adv-x="663" 
d="M492 815q-102 0 -172 -86t-84 -182l-84 -522q-4 -25 -27 -25h-21q-10 0 -18 9t-6 20l125 796q4 25 28 25h13q18 0 18 -37v-72q42 63 112 102.5t138 39.5t121 -43q14 -10 6 -23l-20 -29q-8 -14 -27 -4q-49 31 -102 31zM463 1044h-8q-27 0 -43 27l-107 166q-19 29 -15 45
q11 38 38 8l141 -178l193 182q25 22 36 2q3 -6 -0.5 -25t-21.5 -38l-162 -166q-23 -23 -51 -23z" />
    <glyph glyph-name="Sacute" unicode="&#x15a;" horiz-adv-x="1064" 
d="M523.5 -16q-148.5 0 -262.5 50t-169 136q-14 20 0 33l29 24q16 16 31 -2q49 -74 142 -122t215 -48t216 72t119.5 203.5t-68.5 223.5q-51 50 -95 81t-134 83t-135 82.5t-95.5 80t-64.5 103.5t-4 128q20 154 137 246t287 92q123 0 217 -49t133 -113q8 -16 -6 -26l-29 -21
q-14 -10 -26 6q-113 131 -289 131q-139 0 -230.5 -71.5t-111.5 -190.5q-10 -61 2 -108t59 -90.5t87 -70t129 -77.5t137.5 -85t104.5 -90q107 -107 76.5 -268.5t-142 -252t-260 -90.5zM580 1608q-25 -8 -32 13t13 34l316 155q25 12 34 -8l15 -26q10 -29 -23 -43z" />
    <glyph glyph-name="sacute" unicode="&#x15b;" horiz-adv-x="743" 
d="M326 -16q-180 0 -281 120q-18 23 -6 35l24 23q16 14 35 -6q98 -104 230 -105q92 0 152.5 49.5t69.5 125t-32 110.5t-125.5 67t-122.5 49q-38 16 -74 46q-67 54 -51 162t95 165.5t203 57.5t204 -80q20 -20 8 -33l-22 -25q-14 -12 -27 0q-70 70 -166 70q-186 0 -217 -147
q-14 -74 25 -114t120 -70t117.5 -46t79.5 -47q80 -58 65 -167.5t-99 -174.5t-205 -65zM369 1032q-22 -18 -35.5 2t6.5 41l262 250q25 25 45 -6l17 -23q20 -27 -5 -45z" />
    <glyph glyph-name="Scedilla" unicode="&#x15e;" horiz-adv-x="1064" 
d="M672 1378q-139 0 -230.5 -71.5t-111.5 -190.5q-10 -61 2 -108t59 -90.5t87 -70t129 -77.5t137.5 -85t104.5 -90q107 -107 76.5 -268.5t-142 -252t-279.5 -90.5h-23l-57 -90q70 23 120 -12.5t40 -112.5t-53.5 -115.5t-104.5 -38.5q-88 0 -115 78q-6 18 8 20l33 6
q12 2 17 -10q12 -35 57 -35q82 0 96 88q6 47 -23.5 64.5t-70.5 7.5l-29 2l-34 17q-16 8 -11 20l70 117q-106 12 -195.5 59t-136.5 121q-14 20 0 33l29 24q16 16 31 -2q49 -74 142 -122t215 -48t216 72t119 204t-68 223q-51 50 -95 81t-134 83t-135 82.5t-95.5 80
t-64.5 103.5t-4 128q20 154 137 246t287 92q123 0 217 -49.5t133 -112.5q8 -16 -6 -26l-29 -21q-14 -10 -26 6q-113 131 -289 131z" />
    <glyph glyph-name="scedilla" unicode="&#x15f;" horiz-adv-x="743" 
d="M440 815q-186 0 -217 -147q-14 -74 25 -114t120 -70t117.5 -46t79.5 -47q80 -58 65 -167.5t-99.5 -174.5t-204.5 -65h-9l-57 -90q70 23 120 -12.5t40 -112.5t-53 -115.5t-105 -38.5q-88 0 -115 78q-6 18 9 20l32 6q12 2 17 -10q12 -35 57 -35q82 0 96 88q6 47 -23.5 64.5
t-70.5 7.5l-28 2l-35 17q-16 8 -11 20l70 117q-139 23 -215 114q-18 23 -6 35l24 23q16 14 35 -6q98 -104 230 -105q92 0 152.5 49.5t69.5 125t-32 110.5t-125.5 67t-122.5 49q-38 16 -74 46q-67 54 -51 162t95 165.5t203 57.5t204 -80q20 -20 8 -33l-22 -25q-14 -12 -27 0
q-70 70 -166 70z" />
    <glyph glyph-name="Scaron" unicode="&#x160;" horiz-adv-x="1064" 
d="M523.5 -16q-148.5 0 -262.5 50t-169 136q-14 20 0 33l29 24q16 16 31 -2q49 -74 142 -122t215 -48t216 72t119.5 203.5t-68.5 223.5q-51 50 -95 81t-134 83t-135 82.5t-95.5 80t-64.5 103.5t-4 128q20 154 137 246t287 92q123 0 217 -49t133 -113q8 -16 -6 -26l-29 -21
q-14 -10 -26 6q-113 131 -289 131q-139 0 -230.5 -71.5t-111.5 -190.5q-10 -61 2 -108t59 -90.5t87 -70t129 -77.5t137.5 -85t104.5 -90q107 -107 76.5 -268.5t-142 -252t-260 -90.5zM721 1612q-27 0 -43 26l-107 166q-19 29 -15 45q11 39 38 9l141 -179l193 183q26 22 37 0
q3 -6 -0.5 -24.5t-22.5 -37.5l-162 -166q-23 -23 -51 -22h-8z" />
    <glyph glyph-name="scaron" unicode="&#x161;" horiz-adv-x="743" 
d="M326 -16q-180 0 -281 120q-18 23 -6 35l24 23q16 14 35 -6q98 -104 230 -105q92 0 152.5 49.5t69.5 125t-32 110.5t-125.5 67t-122.5 49q-38 16 -74 46q-67 54 -51 162t95 165.5t203 57.5t204 -80q20 -20 8 -33l-22 -25q-14 -12 -27 0q-70 70 -166 70q-186 0 -217 -147
q-14 -74 25 -114t120 -70t117.5 -46t79.5 -47q80 -58 65 -167.5t-99 -174.5t-205 -65zM471 1044h-8q-27 0 -43 27l-107 166q-19 29 -15 45q11 40 38 8l141 -178l193 182q24 22 36 2q4 -6 0.5 -25t-22.5 -38l-162 -166q-23 -23 -51 -23z" />
    <glyph glyph-name="uni0162" unicode="&#x162;" horiz-adv-x="1101" 
d="M1128 1434q28 0 23 -48q-4 -25 -29 -24h-385l-213 -1337q-4 -25 -24 -25h-6l-48 -76q70 23 120 -12t40 -112t-53 -115.5t-104 -38.5q-88 0 -115 78q-6 18 8 20l33 6q12 2 16 -10q12 -35 58 -35q82 0 96 88q6 47 -23.5 64.5t-70.5 7.5l-29 2l-35 16q-16 8 -10 21l72 121v4
l210 1333h-380q-10 0 -18.5 9t-2.5 38q4 25 27 25h843z" />
    <glyph glyph-name="uni0163" unicode="&#x163;" horiz-adv-x="694" 
d="M569 866q28 0 23 -45q-4 -23 -31 -22h-223l-92 -582q-27 -162 78 -162q84 0 157 82q12 12 27 2l27 -24q12 -12 -3 -27q-94 -94 -196 -100l-60 -94q70 23 120 -12.5t40 -112.5t-53 -115.5t-104 -38.5q-88 0 -115 78q-6 18 8 20l33 6q12 2 16 -10q12 -35 58 -35q82 0 96 88
q6 47 -23.5 64.5t-70.5 7.5l-29 2l-35 17q-16 8 -10 20l69 119q-137 25 -102 239l90 568h-96q-31 0 -21 43q4 25 29 24h100l35 221q4 25 29 25h20q10 0 17.5 -9t5.5 -20l-33 -217h219z" />
    <glyph glyph-name="Tcaron" unicode="&#x164;" horiz-adv-x="1101" 
d="M1128 1434q28 0 23 -48q-4 -25 -29 -24h-385l-213 -1337q-4 -25 -24 -25h-29q-10 0 -17.5 9t-4.5 20l210 1333h-380q-10 0 -18.5 9t-2.5 38q4 25 27 25h843zM739 1612q-27 0 -43 26l-106 166q-20 30 -15 45q11 39 37 9l142 -179l192 183q26 22 37 0q3 -6 -0.5 -24.5
t-21.5 -37.5l-162 -166q-23 -23 -51 -22h-9z" />
    <glyph glyph-name="tcaron" unicode="&#x165;" horiz-adv-x="704" 
d="M324.5 -12q-107.5 0 -138 62.5t-12.5 180.5l90 568h-96q-31 0 -21 43q4 25 29 24h100l35 221q4 25 29 25h20q10 0 17.5 -9t5.5 -20l-33 -217h219q28 0 23 -45q-4 -23 -31 -22h-223l-92 -582q-27 -162 78 -162q84 0 157 82q12 12 27 2l27 -24q12 -12 -3 -27
q-100 -100 -207.5 -100zM561 1446h96q35 0 29 -31l-16 -106q-18 -125 -178 -205q-12 -6 -20.5 11t5.5 26q111 66 123 147l-70 25q-23 6 -18 28l12 74q6 31 37 31z" />
    <glyph glyph-name="Tbar" unicode="&#x166;" horiz-adv-x="1101" 
d="M1128 1434q28 0 23 -48q-4 -25 -29 -24h-385l-96 -610h209q35 0 29 -33l-2 -10q-2 -29 -35 -29h-213l-105 -655q-4 -25 -24 -25h-29q-10 0 -17.5 9t-4.5 20l102 651h-191q-29 0 -28 33v10q0 29 37 29h194l96 610h-380q-10 0 -18.5 9t-2.5 38q4 25 27 25h843z" />
    <glyph glyph-name="tbar" unicode="&#x167;" horiz-adv-x="714" 
d="M328 -16q-78 0 -117 34t-41 94q-2 58 8 134l86 553h-96q-27 0 -22 34t30 33h100l19 127h-96q-27 0 -22 34t30 34h100l35 229q4 25 29 25h20q11 0 19 -9t6 -20l-35 -225h223q27 0 22 -34t-30 -34h-227l-19 -127h223q27 0 21 -43q-4 -25 -29 -24h-227l-90 -572
q-39 -176 86 -176q72 0 147 82q12 16 29 0l22 -20q14 -14 0 -29q-88 -100 -204 -100z" />
    <glyph glyph-name="Umacron" unicode="&#x16a;" horiz-adv-x="1314" 
d="M1282 1434q27 0 23 -31l-142 -850q-41 -258 -191.5 -413.5t-379.5 -155.5t-339 157.5t-69 415.5l142 850q6 27 28 27h27q27 0 22 -31l-139 -844q-37 -219 55.5 -361.5t279.5 -142.5t320.5 143.5t167.5 364.5l140 844q4 27 26 27h29zM688 1673q-38 0 -29 43q6 29 35 29
h365q41 0 28 -43q-6 -29 -34 -29h-365z" />
    <glyph glyph-name="umacron" unicode="&#x16b;" horiz-adv-x="944" 
d="M842 866q10 0 17 -9t5 -19l-129 -818q-2 -20 -20 -20h-13q-23 0 -22 31l4 86q-43 -59 -120 -96t-154 -37q-178 0 -243 94t-40 250l82 514q4 25 29 24h20q10 0 17.5 -9t5.5 -19l-78 -500q-45 -287 211 -287q117 0 196.5 74t94.5 160l88 557q4 25 28 24h21zM410 1106
q-38 0 -29 43q6 29 35 29h364q38 0 29 -43q-6 -29 -35 -29h-364z" />
    <glyph glyph-name="ubreve" unicode="&#x16d;" horiz-adv-x="944" 
d="M842 866q10 0 17 -9t5 -19l-129 -818q-2 -20 -20 -20h-13q-23 0 -22 31l4 86q-43 -59 -120 -96t-154 -37q-178 0 -243 94t-40 250l82 514q4 25 29 24h20q10 0 17.5 -9t5.5 -19l-78 -500q-45 -287 211 -287q117 0 196.5 74t94.5 160l88 557q4 25 28 24h21zM599.5 1112
q64.5 0 124.5 49t93 115q6 16 23 8l34 -20q14 -8 7 -23q-115 -193 -303 -192q-119 0 -167.5 54t-66.5 144q-2 14 10 21l39 14q16 4 19 -12q21 -116 90 -144q33 -14 97.5 -14z" />
    <glyph glyph-name="Uring" unicode="&#x16e;" horiz-adv-x="1314" 
d="M1282 1434q27 0 23 -31l-142 -850q-41 -258 -191.5 -413.5t-379.5 -155.5t-339 157.5t-69 415.5l142 850q6 27 28 27h27q27 0 22 -31l-139 -844q-37 -219 55.5 -361.5t279.5 -142.5t320.5 143.5t167.5 364.5l140 844q4 27 26 27h29zM860 1686q63 0 76 69q6 33 -9.5 47.5
t-37.5 14.5q-63 0 -74 -70q-8 -61 45 -61zM859 1630q-50 0 -80.5 34t-22.5 90t47 87t89 31t81 -34t22.5 -89t-47.5 -87t-89 -32z" />
    <glyph glyph-name="uring" unicode="&#x16f;" horiz-adv-x="944" 
d="M842 866q10 0 17 -9t5 -19l-129 -818q-2 -20 -20 -20h-13q-23 0 -22 31l4 86q-43 -59 -120 -96t-154 -37q-178 0 -243 94t-40 250l82 514q4 25 29 24h20q10 0 17.5 -9t5.5 -19l-78 -500q-45 -287 211 -287q117 0 196.5 74t94.5 160l88 557q4 25 28 24h21zM582 1118
q63 0 75 70q6 33 -9 47t-38 14q-63 0 -72 -65.5t44 -65.5zM581 1063q-50 0 -81 33.5t-23 90t47 87.5t89 31t81 -34t23 -89t-47 -87t-89 -32z" />
    <glyph glyph-name="Uhungarumlaut" unicode="&#x170;" horiz-adv-x="1314" 
d="M1282 1434q27 0 23 -31l-142 -850q-41 -258 -191.5 -413.5t-379.5 -155.5t-339 157.5t-69 415.5l142 850q6 27 28 27h27q27 0 22 -31l-139 -844q-37 -219 55.5 -361.5t279.5 -142.5t320.5 143.5t167.5 364.5l140 844q4 27 26 27h29zM928 1595q-23 -14 -36 8t15 46
l223 188q12 8 24.5 4t16.5 -16l9 -27q8 -27 -17 -43zM633 1595q-21 -11 -36 10t13 44l226 188q31 17 43 -12l10 -27q12 -27 -15 -43z" />
    <glyph glyph-name="uhungarumlaut" unicode="&#x171;" horiz-adv-x="944" 
d="M842 866q10 0 17 -9t5 -19l-129 -818q-2 -20 -20 -20h-13q-23 0 -22 31l4 86q-43 -59 -120 -96t-154 -37q-178 0 -243 94t-40 250l82 514q4 25 29 24h20q10 0 17.5 -9t5.5 -19l-78 -500q-45 -287 211 -287q117 0 196.5 74t94.5 160l88 557q4 25 28 24h21zM375 1051l-4 4
q-20 14 2 41l178 233q20 27 43 0l16 -18q16 -23 -2 -45l-198 -213q-15 -14 -35 -2zM676 1055q-15 -14 -36 0t-1 43l178 233q20 27 43 0l17 -18q20 -23 -3 -45z" />
    <glyph glyph-name="Uogonek" unicode="&#x172;" horiz-adv-x="1314" 
d="M1282 1434q27 0 23 -31l-142 -850q-33 -207 -137 -351.5t-264 -193.5q-63 -37 -118.5 -100.5t-64.5 -120.5t16.5 -86t84 -29t90.5 52q11 11 28 -2t7 -38.5t-54 -52t-111 -26.5t-113 43t-33 121q23 127 180 221q-39 -6 -80 -6q-231 0 -341 157.5t-69 415.5l142 850
q6 27 28 27h27q27 0 22 -31l-139 -844q-37 -219 55.5 -361.5t279.5 -142.5t320.5 143.5t167.5 364.5l140 844q4 27 26 27h29z" />
    <glyph glyph-name="uogonek" unicode="&#x173;" horiz-adv-x="944" 
d="M634 -328q59 0 91 52q11 11 28 -2t7 -38.5t-54 -52t-111 -26.5t-113 43t-32.5 122t82 144.5t150.5 101.5q-2 4 -2 15l4 86q-43 -59 -120 -96t-154 -37q-178 0 -243 94t-40 250l82 514q4 25 29 24h20q10 0 17.5 -9t5.5 -19l-78 -500q-45 -287 211 -287q117 0 196.5 74
t94.5 160l88 557q4 25 28 24h21q10 0 17 -9t5 -19l-129 -818q-2 -20 -20 -20h-13q-59 -39 -109 -99.5t-59.5 -115.5t16 -84t84.5 -29z" />
    <glyph glyph-name="Wcircumflex" unicode="&#x174;" horiz-adv-x="1628" 
d="M1661 1434q10 0 16 -13.5t0 -29.5l-538 -1373q-8 -18 -21 -18h-8q-20 0 -20 23l-150 1202l-534 -1207q-8 -18 -21 -18h-8q-18 0 -19 23l-102 1372q-4 39 25 39h28q18 0 23 -23l82 -1198l532 1202q8 18 19 19h8q12 0 16 -23l152 -1192l467 1196q8 18 26 19h27zM1042 1872
h9q27 0 43 -27l106 -166q18 -27 17 -41q-15 -40 -39 -12l-142 178l-192 -182q-25 -22 -37 -1q-3 6 0.5 25t21.5 37l162 166q23 23 51 23z" />
    <glyph glyph-name="wcircumflex" unicode="&#x175;" horiz-adv-x="1218" 
d="M1182 866q35 0 14 -45l-383 -803q-10 -18 -25 -18h-8q-16 0 -20 23l-103 696l-323 -703q-6 -16 -23 -16h-8q-23 0 -22 20l-134 816q-4 31 25 30h21q23 0 26 -22l105 -694l321 698q10 18 25 18h16q14 0 19 -22l104 -694l317 694q10 23 37 22h19zM748 1305h8q27 0 43 -27
l106 -166q20 -30 15 -45q-11 -40 -37 -8l-142 178l-192 -182q-25 -22 -37 -1q-3 6 0.5 24.5t22.5 37.5l161 166q23 23 52 23z" />
    <glyph glyph-name="Ycircumflex" unicode="&#x176;" horiz-adv-x="1136" 
d="M1171 1434q12 0 17.5 -11.5t-4.5 -25.5l-568 -774l-96 -600q-4 -23 -24 -23h-29q-27 0 -23 27l95 596l-277 778q-10 33 12 33h33q23 0 33 -23l248 -706l516 706q16 23 39 23h28zM797 1872h8q27 0 43 -27l106 -166q20 -30 15 -45q-11 -38 -37 -8l-141 178l-193 -182
q-25 -22 -37 -1q-3 6 0.5 25t22.5 37l161 166q23 23 52 23z" />
    <glyph glyph-name="ycircumflex" unicode="&#x177;" horiz-adv-x="933" 
d="M918 866q14 0 18 -13t-4 -32l-768 -1147q-14 -20 -31 -20h-24q-14 0 -18.5 13.5t7.5 31.5l267 401l-238 725q-10 41 25 41h24q16 0 27 -32l213 -658l452 674q10 16 29 16h21zM604 1305h8q27 0 43 -27l107 -166q19 -29 15 -45q-11 -38 -38 -8l-141 178l-192 -182
q-25 -22 -37 -1q-3 6 0.5 24.5t21.5 37.5l162 166q23 23 51 23z" />
    <glyph glyph-name="Ydieresis" unicode="&#x178;" horiz-adv-x="1136" 
d="M1171 1434q12 0 17.5 -11.5t-4.5 -25.5l-568 -774l-96 -600q-4 -23 -24 -23h-29q-27 0 -23 27l95 596l-277 778q-10 33 12 33h33q23 0 33 -23l248 -706l516 706q16 23 39 23h28zM891 1683q-20 0 -32.5 13.5t-10.5 34.5q6 41 47 41q20 0 32.5 -14.5t10.5 -35.5
q-6 -39 -47 -39zM674 1683q-20 0 -32.5 13.5t-10.5 34.5q6 41 47 41q20 0 32.5 -14.5t10.5 -35.5q-6 -39 -47 -39z" />
    <glyph glyph-name="Zacute" unicode="&#x179;" horiz-adv-x="1103" 
d="M313 1362q-27 0 -22 27l4 22q4 23 24 23h795q14 0 19.5 -16.5t-7.5 -31.5l-952 -1314h721q27 0 23 -27l-5 -22q-4 -23 -24 -23h-805q-16 0 -23.5 15.5t2.5 29.5l955 1317h-705zM594 1608q-25 -8 -32 13t13 34l316 155q25 12 35 -8l14 -26q10 -29 -22 -43z" />
    <glyph glyph-name="zacute" unicode="&#x17a;" horiz-adv-x="751" 
d="M227 799q-27 0 -26 30v9q0 12 11 20t24 8h454q18 0 22.5 -16t-10.5 -35l-557 -747h396q27 0 26 -33v-8q0 -27 -32 -27h-472q-16 0 -23 16.5t7 36.5l563 746h-383zM381 1032q-22 -18 -35.5 2t6.5 41l262 250q25 25 45 -6l17 -23q20 -27 -4 -45z" />
    <glyph glyph-name="Zdotaccent" unicode="&#x17b;" horiz-adv-x="1103" 
d="M313 1362q-27 0 -22 27l4 22q4 23 24 23h795q14 0 19.5 -16.5t-7.5 -31.5l-952 -1314h721q27 0 23 -27l-5 -22q-4 -23 -24 -23h-805q-16 0 -23.5 15.5t2.5 29.5l955 1317h-705zM756 1675q-23 0 -37 15.5t-10 38.5q8 47 55 47q23 0 36 -16.5t9 -39.5q-8 -45 -53 -45z" />
    <glyph glyph-name="zdotaccent" unicode="&#x17c;" horiz-adv-x="751" 
d="M227 799q-27 0 -26 30v9q0 12 11 20t24 8h454q18 0 22.5 -16t-10.5 -35l-557 -747h396q27 0 26 -33v-8q0 -27 -32 -27h-472q-16 0 -23 16.5t7 36.5l563 746h-383zM496 1108q-23 0 -37.5 15.5t-9.5 37.5q8 47 55 47q23 0 36 -16t9 -39q-8 -45 -53 -45z" />
    <glyph glyph-name="Zcaron" unicode="&#x17d;" horiz-adv-x="1103" 
d="M313 1362q-27 0 -22 27l4 22q4 23 24 23h795q14 0 19.5 -16.5t-7.5 -31.5l-952 -1314h721q27 0 23 -27l-5 -22q-4 -23 -24 -23h-805q-16 0 -23.5 15.5t2.5 29.5l955 1317h-705zM735 1612q-27 0 -43 26l-106 166q-20 30 -15 45q11 39 37 9l142 -179l192 183q26 22 37 0
q3 -6 -0.5 -24.5t-22.5 -37.5l-161 -166q-23 -23 -52 -22h-8z" />
    <glyph glyph-name="zcaron" unicode="&#x17e;" horiz-adv-x="751" 
d="M227 799q-27 0 -26 30v9q0 12 11 20t24 8h454q18 0 22.5 -16t-10.5 -35l-557 -747h396q27 0 26 -33v-8q0 -27 -32 -27h-472q-16 0 -23 16.5t7 36.5l563 746h-383zM483 1044h-8q-27 0 -43 27l-106 166q-20 30 -15 45q11 40 37 8l141 -178l193 182q26 22 37 2
q3 -6 -0.5 -25t-22.5 -38l-161 -166q-23 -23 -52 -23z" />
    <glyph glyph-name="florin" unicode="&#x192;" horiz-adv-x="823" 
d="M645.5 1378q-103.5 0 -150 -68.5t-71.5 -224.5l-53 -329h258q31 0 26 -29l-2 -18q-2 -25 -32 -25h-263l-125 -793q-4 -29 -27.5 -58.5t-121.5 -127.5q-25 -25 -45 2l-12 14q-16 20 4 43q2 2 19.5 18.5t23.5 23t21.5 21.5t22.5 25.5t21.5 30.5t18.5 45l118 756h-104
q-27 0 -25 29l3 18q2 25 30 25h109l53 342q29 193 96.5 272.5t201.5 79.5t210 -55q29 -18 14 -41l-14 -19q-14 -20 -35 -6q-66 49 -169.5 49z" />
    <glyph glyph-name="Scommaaccent" unicode="&#x218;" horiz-adv-x="1064" 
d="M412 -137h57q31 0 29 -31l-15 -86q-8 -47 -48 -87t-97 -54q-6 -2 -9 2t-5 16t10 17q74 31 86 102l-33 16q-23 12 -18 37l6 37q6 31 37 31zM523.5 -16q-148.5 0 -262.5 50t-169 136q-14 20 0 33l29 24q16 16 31 -2q49 -74 142 -122t215 -48t216 72t119.5 203.5
t-68.5 223.5q-51 50 -95 81t-134 83t-135 82.5t-95.5 80t-64.5 103.5t-4 128q20 154 137 246t287 92q123 0 217 -49t133 -113q8 -16 -6 -26l-29 -21q-14 -10 -26 6q-113 131 -289 131q-139 0 -230.5 -71.5t-111.5 -190.5q-10 -61 2 -108t59 -90.5t87 -70t129 -77.5
t137.5 -85t104.5 -90q107 -107 76.5 -268.5t-142 -252t-260 -90.5z" />
    <glyph glyph-name="scommaaccent" unicode="&#x219;" horiz-adv-x="743" 
d="M248 -137h57q31 0 29 -31l-15 -86q-8 -47 -48 -87t-97 -54q-6 -2 -9 2t-5 16t10 17q74 31 86 102l-33 16q-23 12 -18 37l6 37q6 31 37 31zM326 -16q-180 0 -281 120q-18 23 -6 35l24 23q16 14 35 -6q98 -104 230 -105q92 0 152.5 49.5t69.5 125t-32 110.5t-125.5 67
t-122.5 49q-38 16 -74 46q-67 54 -51 162t95 165.5t203 57.5t204 -80q20 -20 8 -33l-22 -25q-14 -12 -27 0q-70 70 -166 70q-186 0 -217 -147q-14 -74 25 -114t120 -70t117.5 -46t79.5 -47q80 -58 65 -167.5t-99 -174.5t-205 -65z" />
    <glyph glyph-name="uni021A" unicode="&#x21a;" horiz-adv-x="1101" 
d="M434 -106h58q32 0 28 -31l-14 -86q-8 -47 -48 -87t-98 -55q-6 -2 -9 1.5t-5 15.5t10 18q74 31 86 103l-32 16q-23 12 -19 37l6 37q6 31 37 31zM1128 1434q28 0 23 -48q-4 -25 -29 -24h-385l-213 -1337q-4 -25 -24 -25h-29q-10 0 -17.5 9t-4.5 20l210 1333h-380
q-10 0 -18.5 9t-2.5 38q4 25 27 25h843z" />
    <glyph glyph-name="uni021B" unicode="&#x21b;" horiz-adv-x="694" 
d="M264 -137h58q30 0 28 -31l-14 -86q-8 -47 -48 -87t-98 -54q-6 -2 -9 2t-5 16t10 17q74 31 86 102l-32 16q-23 12 -19 37l6 37q6 31 37 31zM324.5 -12q-107.5 0 -138 62.5t-12.5 180.5l90 568h-96q-31 0 -21 43q4 25 29 24h100l35 221q4 25 29 25h20q10 0 17.5 -9t5.5 -20
l-33 -217h219q28 0 23 -45q-4 -23 -31 -22h-223l-92 -582q-27 -162 78 -162q84 0 157 82q12 12 27 2l27 -24q12 -12 -3 -27q-100 -100 -207.5 -100z" />
    <glyph glyph-name="circumflex" unicode="&#x2c6;" horiz-adv-x="739" 
d="M551 1614h8q27 0 43 -27l107 -166q19 -29 15 -45q-10 -37 -38 -8l-141 178l-193 -182q-23 -20 -37 -1q-3 6 0 24q4 19 23 38l162 166q23 23 51 23z" />
    <glyph glyph-name="caron" unicode="&#x2c7;" horiz-adv-x="739" 
d="M518 1337h-8q-27 0 -43 27l-107 166q-19 29 -15 45q10 37 38 8l141 -178l193 182q23 20 37 1q3 -6 0 -24q-4 -19 -23 -38l-162 -166q-23 -23 -51 -23z" />
    <glyph glyph-name="breve" unicode="&#x2d8;" horiz-adv-x="870" 
d="M575 1341q-119 1 -167 55t-66 144q-2 14 10 21l39 14q16 4 19 -12q12 -64 34 -98q40 -60 129 -60t149 49t93 115q6 16 23 8l34 -21q14 -8 7 -22q-115 -193 -304 -193z" />
    <glyph glyph-name="dotaccent" unicode="&#x2d9;" horiz-adv-x="430" 
d="M373 1401q-23 0 -37 15t-10 38q8 47 55 47q23 0 36 -16t9 -39q-8 -45 -53 -45z" />
    <glyph glyph-name="ring" unicode="&#x2da;" horiz-adv-x="567" 
d="M440 1454q63 0 76 70q6 33 -9 47t-38 14q-63 0 -74 -69q-4 -30 9 -46t36 -16zM439 1399q-50 0 -81 34q-30 34 -22 90t47 87q39 30 89 30t81 -34t23 -88q-8 -55 -48 -87q-39 -32 -89 -32z" />
    <glyph glyph-name="ogonek" unicode="&#x2db;" horiz-adv-x="655" 
d="M202 -416q-66 0 -113 43q-46 43 -33 124t85 147t156 102l43 -2q-63 -33 -127 -101q-63 -69 -73 -129t17 -88q26 -28 84 -28t91 51q10 10 27 -2t12 -29q-15 -36 -59 -62t-110 -26z" />
    <glyph glyph-name="tilde" unicode="&#x2dc;" horiz-adv-x="917" 
d="M737 1358q-53 0 -127 53t-108 53q-84 0 -129 -88q-6 -12 -25 -6l-20 10q-14 8 -9 27q17 53 71 90t116 37t134 -54q73 -54 105 -55q72 0 125 97q7 14 32 -2q25 -17 18 -35q-55 -127 -183 -127z" />
    <glyph glyph-name="hungarumlaut" unicode="&#x2dd;" horiz-adv-x="819" 
d="M326 1343l-4 5q-20 14 2 41l178 233q20 27 43 0l16 -18q16 -23 -2 -45l-199 -213q-14 -15 -34 -3zM627 1348q-15 -14 -36 0t-1 43l178 233q20 27 43 0l16 -18q20 -20 -2 -45z" />
    <glyph glyph-name="gravecomb" unicode="&#x300;" 
d="M-61 1325l-291 219q-25 18 -4 45l16 23q20 31 45 6l262 -250q20 -20 6 -39.5t-34 -3.5z" />
    <glyph glyph-name="acutecomb" unicode="&#x301;" 
d="M-289 1325q-22 -18 -35.5 2t7.5 41l262 250q25 25 45 -6l16 -23q20 -27 -4 -45z" />
    <glyph glyph-name="uni0302" unicode="&#x302;" 
d="M-182 1597q27 0 43 -26l106 -166q20 -30 15 -45q-11 -40 -37 -8l-142 178l-192 -182q-26 -22 -37 -2q-3 6 0.5 25t22.5 38l161 166q23 23 52 22h8z" />
    <glyph glyph-name="tildecomb" unicode="&#x303;" 
d="M-180 1358q-53 0 -127 53t-109 53q-84 0 -129 -88q-6 -12 -24 -6l-21 10q-14 8 -8 27q18 53 71.5 90t114.5 37t134 -54.5t106 -54.5q72 0 125 97q7 13 32 -3t17 -34q-55 -127 -182 -127z" />
    <glyph glyph-name="uni0304" unicode="&#x304;" 
d="M-406 1399q-37 0 -28 43q6 29 35 28h364q37 0 29 -43q-6 -29 -35 -28h-365z" />
    <glyph glyph-name="uni0306" unicode="&#x306;" 
d="M-295 1341q-119 0 -167 54.5t-66 144.5q-2 14 10 21l39 14q16 4 18 -12q21 -117 91 -145q32 -14 96.5 -13.5t125 49.5t93.5 115q6 16 22 8l35 -21q14 -8 6 -22q-115 -193 -303 -193z" />
    <glyph glyph-name="uni0307" unicode="&#x307;" 
d="M-57 1401q-23 0 -37.5 15.5t-9.5 37.5q8 47 55 47q23 0 36 -16.5t9 -38.5q-8 -45 -53 -45z" />
    <glyph glyph-name="uni0308" unicode="&#x308;" 
d="M-51 1409q-20 0 -32.5 13.5t-10.5 33.5q6 41 47 41q20 0 32.5 -14.5t10.5 -34.5q-6 -39 -47 -39zM-268 1409q-20 0 -32.5 13.5t-10.5 33.5q6 41 47 41q20 0 32.5 -14.5t10.5 -34.5q-6 -39 -47 -39z" />
    <glyph glyph-name="uni030A" unicode="&#x30a;" 
d="M-135 1411q63 0 76 70q6 33 -9.5 47t-37.5 14q-63 0 -74 -69q-4 -29 9 -45.5t36 -16.5zM-136 1356q-50 0 -81 33.5t-23 90t47 87t89.5 30.5t81 -33.5t22.5 -88.5t-47 -87t-89 -32z" />
    <glyph glyph-name="uni030B" unicode="&#x30b;" 
d="M-494 1343l-4 5q-20 14 2 41l179 233q20 27 43 0l16 -18q16 -23 -2 -45l-199 -213q-15 -15 -35 -3zM-193 1348q-14 -14 -35 0t-1 43l178 233q20 27 43 0l16 -18q20 -20 -2 -45z" />
    <glyph glyph-name="uni030C" unicode="&#x30c;" 
d="M-221 1337h-8q-27 0 -43 27l-107 166q-19 29 -15 45q10 37 38 8l141 -178l192 182q25 22 37 1q3 -6 -0.5 -24.5t-21.5 -37.5l-162 -166q-23 -23 -51 -23z" />
    <glyph glyph-name="uni0312" unicode="&#x312;" 
d="M-41 1411h-57q-33 0 -29 31l14 86q8 47 48 87t98 54q6 2 9 -2t5 -16t-10 -17q-74 -31 -86 -102l33 -16q23 -12 18 -37l-6 -37q-6 -31 -37 -31z" />
    <glyph glyph-name="uni0326" unicode="&#x326;" 
d="M-346 -143h57q31 0 29 -31l-14 -86q-8 -47 -48 -87t-98 -54q-6 -2 -9 1t-5 15t10 18q74 31 86 103l-33 16q-23 12 -18 37l6 37q6 31 37 31z" />
    <glyph glyph-name="uni0327" unicode="&#x327;" 
d="M-428 -393q-88 0 -115 78q-6 18 8 20l33 6q12 2 17 -10q12 -35 57 -35q82 0 96 88q6 47 -23.5 64.5t-70.5 7.5l-29 2l-34 16q-16 8 -11 21l90 151h62l-82 -131q70 23 120 -12t40 -112t-53.5 -115.5t-104.5 -38.5z" />
    <glyph glyph-name="uni0328" unicode="&#x328;" 
d="M-453.5 -416q-66.5 0 -112.5 43t-33 124t85 146.5t156 102.5l43 -2q-63 -33 -127 -101.5t-73 -128t16.5 -88t84 -28.5t90.5 51q10 10 27.5 -2t7.5 -38t-54 -52.5t-110.5 -26.5z" />
    <glyph glyph-name="uni0335" unicode="&#x335;" 
d="M-682 393q-29 0 -29 33v10q0 29 37 29h481q35 0 29 -33l-2 -10q-2 -29 -35 -29h-481z" />
    <glyph glyph-name="uni0336" unicode="&#x336;" 
d="M-1456 393q-35 0 -29 33v10q6 29 37 29h1255q35 0 29 -33l-2 -10q-2 -29 -35 -29h-1255z" />
    <glyph glyph-name="uni0337" unicode="&#x337;" 
d="M-553 0h-12q-41 0 -23 35l451 1071q12 33 43 33h16q33 0 19 -35l-451 -1071q-12 -33 -43 -33z" />
    <glyph glyph-name="uni0338" unicode="&#x338;" 
d="M-631 0h-12q-41 0 -23 35l576 1366q12 33 43 33h16q33 0 19 -35l-576 -1366q-12 -33 -43 -33z" />
    <glyph glyph-name="uni0394" unicode="&#x394;" horiz-adv-x="1388" 
d="M821 1229l-614 -1157h862zM1128 0h-999q-14 0 -24 14q-9 14 -1 31l732 1372q8 16 14 17h2q6 0 10 -21l299 -1374q2 -15 -7 -27t-26 -12z" />
    <glyph glyph-name="Pi" unicode="&#x3a0;" horiz-adv-x="1167" 
d="M1126 1434q35 0 31 -33l-217 -1374q-4 -27 -29 -27h-24q-10 0 -19 10q-8 10 -6 21l211 1331h-684l-211 -1335q-4 -27 -28 -27h-25q-10 0 -19 10q-8 10 -6 21l217 1374q6 29 35 29h774z" />
    <glyph glyph-name="uni03A9" unicode="&#x3a9;" horiz-adv-x="1640" 
d="M1386 72q33 0 27 -45q-4 -27 -33 -27h-481q-16 0 -23 10q-18 25 25 56q7 4 61 38t101 65q47 33 116 97t119 134t96 176q44 106 59 229t-8 227q-24 104 -73 166t-119 106q-123 74 -276 74t-305 -74q-182 -89 -286 -277q-58 -105 -83 -236q-23 -86 -15 -168t18 -155
q11 -73 93 -203q45 -68 97 -111q53 -43 82 -66t44 -35q15 -13 12 -33t-26 -20h-479q-33 0 -27 45q4 27 33 27h330q-128 118 -180 236q-80 173 -77 299q1 83 13 192q53 293 260 472t493 179t444 -178t118 -478q-39 -300 -266 -545q-101 -111 -205 -177h321z" />
    <glyph glyph-name="uni03BC" unicode="&#x3bc;" horiz-adv-x="1028" 
d="M819 0h-18q-23 0 -35 31l-23 63q-96 -110 -289 -110t-266 122l-84 -512q-4 -25 -26 -24h-25q-10 0 -17 9t-3 20l196 1243q4 25 29 24h21q10 0 17 -9t5 -19l-78 -490q-25 -96 16 -195q17 -44 72 -73t146 -29q268 0 305 228l88 563q4 25 29 24h20q10 0 17 -9t6 -19
l-103 -650q-8 -65 19 -155q10 -33 -19 -33z" />
    <glyph glyph-name="pi" unicode="&#x3c0;" horiz-adv-x="1220" 
d="M1090 866q35 0 30 -35v-2q-6 -31 -39 -30h-92l-90 -580q-14 -100 37 -186q6 -9 0 -21t-21 -12h-12q-51 0 -80 147q-8 45 4 91l88 561h-464l-121 -770q-6 -29 -33 -29h-14q-12 0 -21 9q-8 9 -6 24l123 764q-76 -6 -168 -66q-14 -10 -29 -4q-14 6 -7 33t32 43
q115 63 219 63h664z" />
    <glyph glyph-name="Wgrave" unicode="&#x1e80;" horiz-adv-x="1628" 
d="M1661 1434q10 0 16 -13.5t0 -29.5l-538 -1373q-8 -18 -21 -18h-8q-20 0 -20 23l-150 1202l-534 -1207q-8 -18 -21 -18h-8q-18 0 -19 23l-102 1372q-4 39 25 39h28q18 0 23 -23l82 -1198l532 1202q8 18 19 19h8q12 0 16 -23l152 -1192l467 1196q8 18 26 19h27zM1186 1610
l-324 125q-33 14 -22 43l14 26q10 20 35 8l315 -155q21 -13 14 -34t-32 -13z" />
    <glyph glyph-name="wgrave" unicode="&#x1e81;" horiz-adv-x="1218" 
d="M1182 866q35 0 14 -45l-383 -803q-10 -18 -25 -18h-8q-16 0 -20 23l-103 696l-323 -703q-6 -16 -23 -16h-8q-23 0 -22 20l-134 816q-4 31 25 30h21q23 0 26 -22l105 -694l321 698q10 18 25 18h16q14 0 19 -22l104 -694l317 694q10 23 37 22h19zM868 1032l-290 219
q-25 18 -5 45l17 23q20 31 45 6l262 -250q20 -20 6 -41q-15 -18 -35 -2z" />
    <glyph glyph-name="Wacute" unicode="&#x1e82;" horiz-adv-x="1628" 
d="M1661 1434q10 0 16 -13.5t0 -29.5l-538 -1373q-8 -18 -21 -18h-8q-20 0 -20 23l-150 1202l-534 -1207q-8 -18 -21 -18h-8q-18 0 -19 23l-102 1372q-4 39 25 39h28q18 0 23 -23l82 -1198l532 1202q8 18 19 19h8q12 0 16 -23l152 -1192l467 1196q8 18 26 19h27zM862 1608
q-25 -8 -32 13t14 34l315 155q25 12 35 -8l14 -26q10 -29 -22 -43z" />
    <glyph glyph-name="wacute" unicode="&#x1e83;" horiz-adv-x="1218" 
d="M1182 866q35 0 14 -45l-383 -803q-10 -18 -25 -18h-8q-16 0 -20 23l-103 696l-323 -703q-6 -16 -23 -16h-8q-23 0 -22 20l-134 816q-4 31 25 30h21q23 0 26 -22l105 -694l321 698q10 18 25 18h16q14 0 19 -22l104 -694l317 694q10 23 37 22h19zM614 1032q-19 -16 -39 8
q-10 14 11 35l262 250q25 25 45 -6l16 -23q20 -27 -4 -45z" />
    <glyph glyph-name="Wdieresis" unicode="&#x1e84;" horiz-adv-x="1628" 
d="M1661 1434q10 0 16 -13.5t0 -29.5l-538 -1373q-8 -18 -21 -18h-8q-20 0 -20 23l-150 1202l-534 -1207q-8 -18 -21 -18h-8q-18 0 -19 23l-102 1372q-4 39 25 39h28q18 0 23 -23l82 -1198l532 1202q8 18 19 19h8q12 0 16 -23l152 -1192l467 1196q8 18 26 19h27zM1137 1683
q-20 0 -32.5 13.5t-10.5 34.5q6 41 47 41q20 0 32.5 -14.5t10.5 -35.5q-6 -39 -47 -39zM920 1683q-20 0 -33 13.5t-10 34.5q6 41 47 41q20 0 32.5 -14.5t10.5 -35.5q-6 -39 -47 -39z" />
    <glyph glyph-name="wdieresis" unicode="&#x1e85;" horiz-adv-x="1218" 
d="M1182 866q35 0 14 -45l-383 -803q-10 -18 -25 -18h-8q-16 0 -20 23l-103 696l-323 -703q-6 -16 -23 -16h-8q-23 0 -22 20l-134 816q-4 31 25 30h21q23 0 26 -22l105 -694l321 698q10 18 25 18h16q14 0 19 -22l104 -694l317 694q10 23 37 22h19zM842 1116
q-20 0 -32.5 13.5t-10.5 33.5q6 41 47 41q20 0 32.5 -14t10.5 -35q-6 -39 -47 -39zM625 1116q-20 0 -32.5 13.5t-10.5 33.5q6 41 47 41q20 0 32.5 -14t10.5 -35q-6 -39 -47 -39z" />
    <glyph glyph-name="Ygrave" unicode="&#x1ef2;" horiz-adv-x="1136" 
d="M1171 1434q12 0 17.5 -11.5t-4.5 -25.5l-568 -774l-96 -600q-4 -23 -24 -23h-29q-27 0 -23 27l95 596l-277 778q-10 33 12 33h33q23 0 33 -23l248 -706l516 706q16 23 39 23h28zM940 1610l-324 125q-33 14 -22 43l14 26q10 20 35 8l315 -155q21 -13 14 -34t-32 -13z" />
    <glyph glyph-name="ygrave" unicode="&#x1ef3;" horiz-adv-x="933" 
d="M918 866q14 0 18 -13t-4 -32l-768 -1147q-14 -20 -31 -20h-24q-14 0 -18.5 13.5t7.5 31.5l267 401l-238 725q-10 41 25 41h24q16 0 27 -32l213 -658l452 674q10 16 29 16h21zM725 1032l-291 219q-25 18 -4 45l16 23q20 31 46 6l262 -250q20 -20 6 -41q-15 -18 -35 -2z
" />
    <glyph glyph-name="endash" unicode="&#x2013;" horiz-adv-x="1116" 
d="M193 430q-28 0 -23 47q4 25 29 25h735q27 0 22 -47q-4 -25 -28 -25h-735z" />
    <glyph glyph-name="emdash" unicode="&#x2014;" horiz-adv-x="1658" 
d="M193 430q-28 0 -23 47q4 25 29 25h1278q27 0 22 -47q-4 -25 -29 -25h-1277z" />
    <glyph glyph-name="quoteleft" unicode="&#x2018;" horiz-adv-x="366" 
d="M342 1128h-96q-35 0 -29 31l16 107q18 125 179 204q12 6 20 -11t-6 -25q-111 -66 -123 -148l70 -24q23 -6 18 -29l-12 -74q-6 -31 -37 -31z" />
    <glyph glyph-name="quoteright" unicode="&#x2019;" horiz-adv-x="368" 
d="M295 1434h96q35 0 29 -31l-17 -107q-18 -125 -178 -204q-12 -6 -20 11t6 25q111 66 123 148l-70 24q-23 6 -18 29l12 74q6 31 37 31z" />
    <glyph glyph-name="quotesinglbase" unicode="&#x201a;" horiz-adv-x="366" 
d="M86 127h96q35 0 29 -31l-16 -106q-18 -125 -179 -205q-12 -6 -20 11t6 26q111 66 123 147l-70 25q-23 6 -18 29l12 73q6 31 37 31z" />
    <glyph glyph-name="quotedblleft" unicode="&#x201c;" horiz-adv-x="702" 
d="M678 1128h-96q-35 0 -29 31l16 107q18 125 179 204q12 6 20 -11t-6 -25q-111 -66 -123 -148l70 -24q23 -6 18 -29l-12 -74q-6 -31 -37 -31zM342 1128h-96q-35 0 -29 31l16 107q18 125 179 204q12 6 20 -11t-6 -25q-111 -66 -123 -148l70 -24q23 -6 18 -29l-12 -74
q-6 -31 -37 -31z" />
    <glyph glyph-name="quotedblright" unicode="&#x201d;" horiz-adv-x="704" 
d="M631 1434h96q35 0 29 -31l-17 -107q-18 -125 -178 -204q-12 -6 -20 11t6 25q111 66 123 148l-70 24q-23 6 -18 29l12 74q6 31 37 31zM295 1434h96q35 0 29 -31l-17 -107q-18 -125 -178 -204q-12 -6 -20 11t6 25q111 66 123 148l-70 24q-23 6 -18 29l12 74q6 31 37 31z
" />
    <glyph glyph-name="quotedblbase" unicode="&#x201e;" horiz-adv-x="702" 
d="M422 127h96q35 0 29 -31l-17 -106q-18 -125 -178 -205q-12 -6 -20 11t6 26q111 66 123 147l-70 25q-23 6 -18 29l12 73q6 31 37 31zM86 127h96q35 0 29 -31l-16 -106q-18 -125 -179 -205q-12 -6 -20 11t6 26q111 66 123 147l-70 25q-23 6 -18 29l12 73q6 31 37 31z" />
    <glyph glyph-name="dagger" unicode="&#x2020;" horiz-adv-x="899" 
d="M793 1012q35 0 28 -33l-2 -10q-6 -29 -35 -29h-219l-143 -911q-4 -29 -31 -29h-18q-12 0 -22 10q-9 10 -7 23l143 907h-208q-35 0 -29 33l2 10q6 29 35 29h213l61 393q4 29 33 29h18q12 0 20 -10t7 -23l-61 -389h215z" />
    <glyph glyph-name="daggerdbl" unicode="&#x2021;" horiz-adv-x="899" 
d="M784 940h-219l-69 -446h215q35 0 28 -33l-2 -10q-2 -29 -35 -29h-219l-61 -393q-4 -29 -31 -29h-18q-12 0 -22 10q-9 10 -7 23l62 389h-209q-35 0 -29 33l2 10q6 29 35 29h213l69 446h-208q-35 0 -29 33l2 10q6 29 35 29h213l61 393q4 29 33 29h18q12 0 20 -10t7 -23
l-61 -389h215q35 0 28 -33l-2 -10q-2 -29 -35 -29z" />
    <glyph glyph-name="bullet" unicode="&#x2022;" horiz-adv-x="602" 
d="M317 530q-57 0 -91 42t-26 100t52 95q43 38 101 38t93 -42t27 -99t-53 -96q-46 -38 -103 -38z" />
    <glyph glyph-name="ellipsis" unicode="&#x2026;" horiz-adv-x="1327" 
d="M1014 0q-35 0 -29 33l8 49q6 33 37 33h49q35 0 29 -33l-8 -49q-6 -33 -37 -33h-49zM571 0q-35 0 -28 33l8 49q6 33 37 33h49q35 0 29 -33l-9 -49q-6 -33 -36 -33h-50zM129 0q-35 0 -29 33l9 49q6 33 36 33h50q35 0 28 -33l-8 -49q-6 -33 -37 -33h-49z" />
    <glyph glyph-name="perthousand" unicode="&#x2030;" horiz-adv-x="2326" 
d="M2025 850q-201 0 -265 -400t133 -399q198 0 261 406q14 106 17 193q2 88 -34 144t-112 56zM1360 850q-202 0 -266 -400t134 -399q198 0 261 406q14 106 16 193q2 88 -34 144t-111 56zM1885 -16q-138 0 -188 110t-10 359q41 249 123 357t220 108t187 -111q50 -111 10 -360
t-122 -356t-220 -107zM1220 -16q-138 0 -189 109q-50 110 -10 360q40 249 123 357t220 108t187 -111q51 -111 11 -360t-122 -356t-220 -107zM528 1382q-202 0 -266 -399t134 -399t261 405q15 105 17 193t-34 144t-112 56zM467 0q-20 0 -25 16q-4 16 7 31l790 1358
q16 29 39 29h31q33 0 10 -39l-795 -1366q-16 -29 -41 -29h-16zM532 1450q138 0 188 -111t10 -359t-122 -356t-220 -108t-188 110t-10 360t122 356q83 108 220 108z" />
    <glyph glyph-name="guilsinglleft" unicode="&#x2039;" horiz-adv-x="663" 
d="M424 -16q-23 0 -35 22l-205 371q-23 39 -20 51l2 14q2 14 35 52l319 370q16 18 43 19h6q39 0 9 -41l-312 -408l176 -414q16 -37 -12 -36h-6z" />
    <glyph glyph-name="guilsinglright" unicode="&#x203a;" horiz-adv-x="663" 
d="M233 883h7q23 0 34 -23l205 -371q23 -39 21 -51l-2 -14q-2 -14 -35 -51l-320 -371q-16 -18 -43 -18h-6q-39 0 -8 41l311 407l-176 414q-16 37 12 37z" />
    <glyph glyph-name="fraction" unicode="&#x2044;" horiz-adv-x="296" 
d="M-223 0q-20 0 -25 16q-4 16 6 31l791 1358q16 29 39 29h30q33 0 11 -39l-795 -1366q-16 -29 -41 -29h-16z" />
    <glyph glyph-name="uni2070" unicode="&#x2070;" horiz-adv-x="745" 
d="M553 1536q-201 0 -265 -400t133 -399q198 0 261 406q14 106 16 193t-33 144q-36 56 -112 56zM413 670q-138 0 -189 109q-50 110 -10 360q40 249 123 357t220 108t187 -111t10 -359t-121 -356q-82 -108 -220 -108z" />
    <glyph glyph-name="uni2074" unicode="&#x2074;" horiz-adv-x="827" 
d="M279 963h337l82 514zM713 1577h53q8 0 14 -6t4 -15l-94 -593h96q8 -1 14 -7t5 -14l-4 -31q-4 -16 -21 -16h-100l-33 -201q-4 -18 -18 -18h-35q-18 0 -21 22l33 197h-409q-8 0 -15 6q-6 6 -4 14l8 41l500 609q8 12 27 12z" />
    <glyph glyph-name="uni2075" unicode="&#x2075;" horiz-adv-x="747" 
d="M420 670q-129 0 -183 70t-40 159q4 16 18 16h39q20 0 16 -18q-8 -53 29 -106t129 -53t154 72q61 73 75 163t-37 145q-52 55 -136 51t-152 -65q-6 -4 -25 0l-53 12q-18 4 -12 21l141 434q6 16 20 16h347q8 0 15 -6t5 -14l-6 -31q0 -16 -21 -16h-301l-116 -334
q61 43 138 50q175 16 243 -111q36 -69 20 -175t-97 -193t-210 -87z" />
    <glyph glyph-name="uni2076" unicode="&#x2076;" horiz-adv-x="727" 
d="M414 737q90 0 148 65t74 166t-19 159q-37 59 -119 59t-149 -60t-81 -149q-14 -90 21 -165t125 -75zM495 1253q122 1 179 -75q56 -76 34 -214t-100 -216t-196 -78q-150 0 -193 120t-8 334q74 479 344 480q109 0 155 -67t42 -155q-4 -18 -17 -18h-39q-23 0 -18 20
q4 56 -24 104t-101 48q-188 0 -264 -385q84 102 206 102z" />
    <glyph glyph-name="uni2077" unicode="&#x2077;" horiz-adv-x="669" 
d="M272 1511q-20 0 -16 21l4 29q4 18 19 18h487q10 0 15 -10t1 -21l-493 -856q-10 -14 -25 -14h-35q-12 0 -16 9t2 18l463 806h-406z" />
    <glyph glyph-name="uni2078" unicode="&#x2078;" horiz-adv-x="747" 
d="M487 1130q-89 -24 -155 -78t-79 -132t25 -130t144 -52t161 56q54 56 66 132t-35 128t-127 76zM553 1536q-182 0 -207 -162q-24 -143 146 -184q180 39 204 199q25 147 -143 147zM602 1155q63 -25 98 -91t21 -159q-14 -92 -96 -164q-82 -71 -211 -71t-190 73
q-60 73 -45 167t69 156t127 91q-55 25 -84 84t-16 149t86 152t197 62t175 -64t35 -166q-27 -160 -166 -219z" />
    <glyph glyph-name="uni2079" unicode="&#x2079;" horiz-adv-x="727" 
d="M457 1087q79 1 145 61t83 167t-26 164t-125 57t-144 -62q-60 -62 -79 -176q-32 -211 146 -211zM539 1604q220 0 218 -227q-2 -106 -22 -251q-37 -240 -121 -348t-219 -108q-80 0 -129 43q-77 68 -67 178q0 18 16 18h39q18 0 18 -18q-2 -59 26 -107t112 -47q84 0 144 77
t103 296q-75 -90 -205 -90t-182 79q-51 79 -29 214t101 213q80 78 197 78z" />
    <glyph glyph-name="Euro" unicode="&#x20ac;" horiz-adv-x="1243" 
d="M164 549q-33 0 -27 43q2 25 33 24l86 2q0 57 16 123t17 78l-82 -2q-33 0 -27 43q4 25 33 25l92 2q78 271 241 417t382 146q172 0 291 -82q20 -14 4 -39l-13 -18q-12 -18 -39 -4q-125 72 -239 71q-207 0 -344 -134t-201 -361l330 2q32 0 26 -43q-2 -25 -32 -25l-342 -2
q-3 -16 -9 -50q-6 -35 -10 -53t-12 -98l336 2q32 0 26 -43q-4 -25 -32 -24l-332 -2q-8 -492 393 -492q156 0 297 97q27 16 37 -7l10 -18q12 -27 -12 -41q-170 -102 -354 -102q-223 0 -343 146t-112 421z" />
    <glyph glyph-name="uni2117" unicode="&#x2117;" horiz-adv-x="1769" 
d="M961 664q221 0 221 236q0 120 -47 172q-47 54 -168 54h-201v-462h195zM1266 913q0 -213 -144 -287q-63 -34 -135 -34h-221v-332q0 -16 -14 -16h-50q-14 0 -14 16v918q0 20 21 20h278q127 0 203 -62t76 -223zM930 55q268 0 459 198q190 198 190 462t-191 464
q-192 199 -458 199t-459 -200t-193 -463q0 -264 192 -462t460 -198zM929 -16q-304 0 -518 214t-214 518t215 519t518 215t517 -215t214 -520t-214 -518t-518 -213z" />
    <glyph glyph-name="trademark" unicode="&#x2122;" horiz-adv-x="1228" 
d="M1270 1434q16 0 12 -15l-82 -526q-2 -10 -14 -10h-41q-18 0 -15 14l62 393l-229 -397q-6 -10 -19 -10h-16q-10 0 -15 14l-110 393l-62 -397q-2 -10 -16 -10h-41q-16 0 -12 14l84 526q2 10 10 11h49q12 0 16 -15l119 -424l254 428q4 10 17 11h49zM659 1434q14 0 11 -15
l-6 -41q-2 -10 -15 -10h-151l-74 -475q-2 -10 -14 -10h-43q-16 0 -13 14l74 471h-164q-16 0 -12 14l8 41q2 10 14 11h385z" />
    <glyph glyph-name="uni2153" unicode="&#x2153;" horiz-adv-x="1738" 
d="M1429 918q260 0 224 -236q-13 -90 -55 -143t-82 -74q114 -45 86 -243q-12 -90 -88 -165q-76 -73 -216 -73q-141 0 -201 68t-46 159q2 18 22 18h33q18 1 17 -25q-4 -107 70 -137q38 -15 99 -16q211 0 242 193q27 184 -180 186h-62q-20 0 -16 21l4 30q4 16 18 17h58
q197 0 223 184q31 168 -158 168q-158 0 -204 -113q-10 -23 -17 -53q-2 -10 -18 -10h-33q-27 0 -21 33q14 87 94 149t207 62zM465 0q-20 0 -25 16q-4 16 6 31l791 1358q16 29 39 29h31q33 0 10 -39l-795 -1366q-16 -29 -41 -29h-16zM535 600q8 0 13 -7t3 -15l-4 -29
q-4 -16 -19 -17h-407q-20 0 -21 21l6 29q0 18 21 18h168l115 721l-150 -115q-12 -8 -23 -2t-10 19l6 43q2 12 23 26l180 138q6 4 21 4h22q18 0 19 -23l-129 -811h166z" />
    <glyph glyph-name="uni2154" unicode="&#x2154;" horiz-adv-x="1851" 
d="M1541 918q260 0 224 -236q-14 -90 -55 -143t-82 -74q115 -45 87 -243q-13 -90 -88 -165q-75 -73 -216 -73t-202 67q-60 68 -46 160q4 18 23 18h33q18 1 17 -25q-4 -108 70 -137q38 -15 99 -16q211 0 242 193q27 184 -181 186h-61q-20 0 -16 21l4 30q4 16 18 17h57
q197 0 224 184q31 168 -158 168q-127 0 -172 -62q-38 -48 -49 -104q-2 -10 -19 -10h-32q-27 0 -21 33q14 87 93 149t207 62zM580 0q-20 0 -25 16q-4 16 6 31l791 1358q16 29 39 29h30q33 0 11 -39l-795 -1366q-16 -29 -41 -29h-16zM543 1450q141 0 192 -64t34 -174
t-153 -245l-380 -367h440q8 0 14 -6t4 -14l-4 -31q-4 -16 -20 -17h-531q-18 0 -18 21l4 18q0 15 7 17t212 204t205 203q133 129 147 232q27 156 -153 155q-115 0 -169 -52t-63 -111q-4 -12 -14 -13h-45q-16 0 -12 25q14 91 88 155t215 64z" />
    <glyph glyph-name="oneeighth" unicode="&#x215b;" horiz-adv-x="1718" 
d="M1284 51q106 1 161 57q54 56 66 132t-34 129q-47 52 -127 75q-90 -24 -156 -78t-79 -132t25 -130q38 -53 144 -53zM1354 504q180 39 205 198q25 147 -144 148q-182 0 -207 -162q-24 -143 146 -184zM1464 469q63 -25 99 -91q35 -67 20 -149q-14 -102 -96 -174
q-82 -71 -211 -71t-190 73q-60 73 -45 167t69 156t127 91q-55 25 -84 84t-15 149t86 152t196 62t175 -64t35 -166q-27 -160 -166 -219zM465 0q-20 0 -25 16q-4 16 6 31l791 1358q16 29 39 29h31q33 0 10 -39l-795 -1366q-16 -29 -41 -29h-16zM535 600q8 0 13 -7t3 -15
l-4 -29q-4 -16 -19 -17h-407q-20 0 -21 21l6 29q0 18 21 18h168l115 721l-150 -115q-12 -8 -23 -2t-10 19l6 43q2 12 23 26l180 138q6 4 21 4h22q18 0 19 -23l-129 -811h166z" />
    <glyph glyph-name="threeeighths" unicode="&#x215c;" horiz-adv-x="1804" 
d="M1370 51q106 1 161 57q54 56 66 132t-34 129q-47 52 -127 75q-90 -24 -156 -78t-79 -132t25 -130q38 -53 144 -53zM1440 504q180 39 205 198q25 147 -144 148q-182 0 -207 -162q-24 -143 146 -184zM1550 469q63 -25 99 -91q35 -67 20 -149q-14 -102 -96 -174
q-82 -71 -211 -71t-190 73q-60 73 -45 167t69 156t127 91q-55 25 -84 84t-15 149t86 152t196 62t175 -64t35 -166q-27 -160 -166 -219zM551 0q-20 0 -25 16q-4 16 6 31l791 1358q16 29 39 29h31q33 0 10 -39l-795 -1366q-16 -29 -41 -29h-16zM550 1450q259 0 224 -236
q-14 -90 -55 -143t-82 -74q20 -8 43 -27q23 -18 40 -72t4 -144t-88 -164t-216 -74t-202 68q-60 68 -46 159q4 18 23 19h32q17 0 17 -26q-1 -47 19 -92q26 -60 151 -60q212 0 240 188t-179 191h-61q-20 0 -17 20l4 31q4 16 19 16h57q197 0 223 184q31 168 -157 168
q-126 0 -172 -61q-38 -48 -49 -104q-2 -10 -19 -11h-33q-27 0 -20 33q14 87 93 149t207 62z" />
    <glyph glyph-name="fiveeighths" unicode="&#x215d;" horiz-adv-x="1759" 
d="M1326 51q106 1 160 57t66 132t-34 129q-47 52 -127 75q-90 -24 -156 -78t-79 -132t25 -130q39 -53 145 -53zM1395 504q180 39 204 198q25 147 -143 148q-182 0 -207 -162q-24 -143 146 -184zM1505 469q63 -25 99 -91q35 -67 20 -149q-14 -102 -96 -174q-82 -71 -211 -71
t-190 73q-60 73 -45 167q14 94 68 156t128 91q-55 25 -84 84q-30 59 -16 149t87 152t197 62t174 -64q51 -64 35 -166q-27 -160 -166 -219zM508 0q-20 0 -25 16q-4 16 6 31l791 1358q16 29 39 29h31q33 0 10 -39l-795 -1366q-16 -29 -41 -29h-16zM395 516q-129 0 -183 71
t-40 158q4 16 18 17h39q20 0 17 -19q-8 -53 28 -106t129 -53q92 0 154 72q61 73 75 163q14 89 -37 145q-52 56 -135 52t-153 -66q-6 -4 -24 0l-54 13q-18 4 -12 20l141 434q6 16 21 17h346q8 0 15 -6t5 -15l-6 -31q0 -16 -20 -16h-301l-117 -334q61 43 138 50q77 6 142 -18
t101 -92t21 -176q-15 -106 -97 -193t-211 -87z" />
    <glyph glyph-name="seveneighths" unicode="&#x215e;" horiz-adv-x="1554" 
d="M1120 51q106 1 161 57t67 132t-35 128t-127 76q-90 -24 -156 -78t-79 -132t25 -130q38 -53 144 -53zM1190 504q180 39 205 198q25 147 -144 148q-182 0 -207 -162q-24 -143 146 -184zM1300 469q63 -25 99 -91q35 -67 20 -149q-14 -102 -96 -174q-82 -71 -211 -71t-189 74
t-45 166q15 94 68 156t127 91q-55 25 -84 84t-15 149t86 152t196 62t176 -64t34 -166q-27 -160 -166 -219zM297 0q-20 0 -25 16q-4 16 7 31l790 1358q16 29 39 29h31q33 0 10 -39l-795 -1366q-16 -29 -41 -29h-16zM250 1366q-20 0 -17 20l5 29q4 18 18 19h487q9 0 15 -10
t2 -21l-494 -856q-10 -14 -24 -15h-35q-27 0 -14 27l462 807h-405z" />
    <glyph glyph-name="arrowleft" unicode="&#x2190;" horiz-adv-x="1722" 
d="M1593 758q29 0 29 -31v-20q0 -31 -29 -31h-1216l282 -320q24 -27 -4 -51q-20 -23 -45 2l-415 387q-7 6 -7 22t7 21l415 387q25 23 45 2q28 -24 4 -51l-280 -317h1214z" />
    <glyph glyph-name="arrowup" unicode="&#x2191;" horiz-adv-x="1128" 
d="M692 29q0 -29 -30 -29h-21q-31 0 -31 29v1214l-317 -280q-24 -23 -48 1q-23 23 -1 48l387 415q6 7 21 7t22 -7l387 -415q25 -25 1 -48t-50 -1l-320 282v-1216z" />
    <glyph glyph-name="arrowright" unicode="&#x2192;" horiz-adv-x="1724" 
d="M219 676q-29 0 -29 31v20q0 31 29 31h1215l-281 317q-23 24 2 48q25 23 47 1l416 -387q6 -6 6 -21t-6 -22l-416 -387q-23 -24 -47 0t-2 49l283 320h-1217z" />
    <glyph glyph-name="arrowdown" unicode="&#x2193;" horiz-adv-x="1128" 
d="M526 1405q0 29 31 29h21q31 0 30 -29v-1215l318 281q24 23 49 -1q25 -23 0 -48l-387 -416q-6 -6 -22 -6t-21 6l-387 416q-23 24 1 48q23 23 48 1l319 -283v1217z" />
    <glyph glyph-name="arrowboth" unicode="&#x2194;" horiz-adv-x="2197" 
d="M2099 722q0 -15 -6 -22l-416 -387q-24 -24 -47 0q-24 24 -2 49l283 320h-1532l283 -320q24 -26 -2 -49q-26 -22 -48 0l-415 387q-7 6 -7 22t7 21l415 387q24 24 48 0t2 -49l-281 -317h1528l-281 317q-23 25 -2 45q27 32 51 4l416 -387q6 -6 6 -21z" />
    <glyph glyph-name="arrowupdn" unicode="&#x2195;" horiz-adv-x="1290" 
d="M691 1671q15 0 22 -6l387 -416q23 -24 -1 -48q-23 -23 -48 -1l-320 283v-1532l320 282q27 24 49 0t0 -49l-387 -415q-5 -7 -21 -7t-22 7l-387 415q-25 25 -2 45q24 28 51 4l317 -280v1528l-317 -281q-24 -23 -49 1q-25 23 0 48l387 416q6 6 21 6z" />
    <glyph glyph-name="uni2196" unicode="&#x2196;" horiz-adv-x="1480" 
d="M887 1120v-8q0 -27 -33 -31l-424 -26l858 -858q23 -18 0 -41l-14 -15q-23 -23 -43 -2l-860 860l-27 -426q0 -33 -29 -32h-10q-29 -1 -29 32l-20 568q0 10 10 20t19 10l569 -20q33 0 33 -31z" />
    <glyph glyph-name="uni2197" unicode="&#x2197;" horiz-adv-x="1247" 
d="M1085 541q-29 0 -28 32l-27 426l-860 -860q-20 -20 -43 2l-14 15q-23 23 0 41l858 858l-424 26q-33 4 -33 31v8q0 31 33 31l569 20q8 0 18 -10t11 -20l-21 -568q0 -33 -28 -32h-11z" />
    <glyph glyph-name="uni2198" unicode="&#x2198;" horiz-adv-x="1480" 
d="M664 195q0 29 32 28l426 27l-860 860q-20 20 2 43l15 14q23 23 40 0l859 -858l26 424q4 33 31 33h8q31 0 31 -33l20 -569q0 -8 -10 -18t-20 -11l-568 21q-33 0 -32 28v11z" />
    <glyph glyph-name="uni2199" unicode="&#x2199;" horiz-adv-x="1245" 
d="M223 766h8q27 0 31 -33l27 -424l858 858q18 23 41 0l14 -14q23 -23 2 -43l-860 -860l426 -27q33 0 33 -28v-11q0 -28 -33 -28l-567 -21q-11 0 -21 10t-10 19l21 569q0 33 30 33z" />
    <glyph glyph-name="partialdiff" unicode="&#x2202;" horiz-adv-x="1073" 
d="M475 51q160 0 269.5 117t134.5 267.5t-47 265t-232 114.5t-274.5 -117.5t-135.5 -271.5q-27 -147 49 -261t236 -114zM467.5 -16q-189.5 0 -287.5 130t-67 320t168 319.5t325 129.5q221 0 312 -191q23 459 -400 690q-33 18 -16 39q29 39 63 17q279 -166 372 -417t19 -595
q-31 -188 -165 -315t-323.5 -127z" />
    <glyph glyph-name="emptyset" unicode="&#x2205;" horiz-adv-x="1642" 
d="M764 55q250 0 442.5 198t233.5 466q35 217 -43 387l-1014 -877q131 -174 381 -174zM520.5 1178.5q-190.5 -199.5 -231.5 -452.5t53 -429l1018 879q-129 203 -389 202.5t-450.5 -200zM759 -16q-277 0 -435 196l-201 -174q-23 -20 -43 4l-12 15q-16 20 6 41l207 178
q-119 203 -73 492.5t265 501.5t505 212t443 -221l181 155q25 20 47 -6l8 -8q20 -20 -6 -45l-191 -164q102 -195 62 -450q-49 -307 -267.5 -517t-495.5 -210z" />
    <glyph glyph-name="product" unicode="&#x220f;" horiz-adv-x="1150" 
d="M1110 1434q37 0 31 -33l-2 -10q-6 -29 -35 -29h-72l-211 -1331q-6 -31 -33 -31h-20q-35 0 -29 35l211 1327h-454l-211 -1331q-6 -31 -33 -31h-21q-35 0 -28 35l211 1327h-68q-37 0 -31 33l2 10q6 29 35 29h758z" />
    <glyph glyph-name="summation" unicode="&#x2211;" horiz-adv-x="1206" 
d="M1157 1362h-745l256 -592q12 -37 10 -52t-25 -59l-444 -587h739q37 0 31 -33l-2 -10q-6 -29 -35 -29h-811q-37 0 -31 33q6 28 15 37l487 647l-278 647q-10 25 -7 41q6 29 35 29h811q37 0 31 -33l-2 -10q-6 -29 -35 -29z" />
    <glyph glyph-name="minus" unicode="&#x2212;" horiz-adv-x="1118" 
d="M231 666q-27 0 -22 47q4 25 29 24h735q27 0 22 -47q-4 -25 -28 -24h-736z" />
    <glyph glyph-name="radical" unicode="&#x221a;" horiz-adv-x="1392" 
d="M1341 1434h17q16 0 22 -14t-2 -34l-714 -1359q-18 -27 -35 -27h-23q-16 0 -20 6t-5 7t-4 9t-4 9l-225 647l-94 -43q-27 -12 -39 10l-8 14q-14 25 8 35l160 72q26 11 37 -21l215 -618l669 1278q14 29 45 29z" />
    <glyph glyph-name="infinity" unicode="&#x221e;" horiz-adv-x="1787" 
d="M1284 432q133 0 210 89t94 202t-32 193t-180 81q-131 0 -237 -82t-162 -204q16 -121 95 -200t212 -79zM492 432q139 0 245 81t164 206q-16 121 -94 200t-210 79t-210 -84q-78 -83 -96 -197q-27 -156 63 -239q52 -46 138 -46zM1402 1069q148 0 220 -90q74 -90 47 -259
t-129 -264q-102 -96 -250 -96t-247 71t-121 165q-53 -96 -174 -166t-269 -70q-147 0 -221 98t-47 267q27 170 126 257t245 87t250 -63t124 -160q54 98 176 160t270 63z" />
    <glyph glyph-name="integral" unicode="&#x222b;" horiz-adv-x="815" 
d="M741 1669q59 0 79 -15t14 -71l-9 -53q-6 -31 -32 -31h-19q-35 0 -29 35l5 25q6 39 -29 38h-45q-16 0 -32 -17q-15 -17 -19 -42l-281 -1761q-10 -70 -42 -99t-101 -28h-56q-59 0 -79 15t-13 71l8 53q6 31 35 31h19q33 0 26 -35l-4 -25q-6 -39 29 -39h45q15 -1 32 17t21 43
l279 1761q10 63 39 95t104 32h55z" />
    <glyph glyph-name="approxequal" unicode="&#x2248;" horiz-adv-x="1118" 
d="M742 510q-92 0 -176 48t-133 48q-50 0 -89 -17t-53 -29q-13 -12 -21 -18q-8 -4 -19 -16t-18 -19t-38 15q-16 12 -9 27q20 45 89 87t158 42t176 -48t131 -48t77 8q34 8 74 43q40 36 51 44t32 -6q21 -15 15 -32q-20 -45 -87 -87q-68 -42 -160 -42zM779 748q-93 0 -176 48
t-132 48t-75 -12t-40 -17q-14 -6 -28 -18q-14 -11 -22 -17t-18 -17q-12 -11 -18 -17q-7 -6 -39 14q-16 12 -8 26q20 45 89 87t158 42t176 -48t145 -48t95 23t60 44q22 21 33 29t32 -7t15 -31q-20 -45 -87 -87t-160 -42z" />
    <glyph glyph-name="notequal" unicode="&#x2260;" horiz-adv-x="1118" 
d="M999 905q28 0 23 -47q-4 -25 -29 -24h-260l-192 -261h405q28 0 23 -47q-4 -25 -29 -24h-451l-118 -160q-18 -23 -43 -8l-2 2q-31 16 -15 47l88 119h-194q-28 0 -23 47q4 25 29 24h242l190 261h-385q-29 0 -24 36q6 36 30 35h432l146 197q18 25 41 8q34 -17 18 -49
l-115 -156h213z" />
    <glyph glyph-name="lessequal" unicode="&#x2264;" horiz-adv-x="1157" 
d="M104 0q-37 0 -28 43q2 29 35 29h831q38 0 29 -43q-6 -29 -35 -29h-832zM299 702l705 -258q29 -10 18 -36l-10 -23q-10 -20 -43 -8l-781 293q-23 10 -22 26l2 19q2 12 27 20l864 336q27 10 35 -10l8 -19q8 -23 -23 -34z" />
    <glyph glyph-name="greaterequal" unicode="&#x2265;" horiz-adv-x="1148" 
d="M90 0q-38 0 -29 43q2 29 35 29h832q37 0 29 -36q-7 -36 -35 -36h-832zM936 702l-705 259q-29 10 -18 36l10 23q10 20 43 8l781 -293q23 -10 22 -26l-2 -19q-2 -12 -27 -20l-864 -336q-27 -10 -35 10l-8 18q-8 23 23 35z" />
    <glyph glyph-name="lozenge" unicode="&#x25ca;" horiz-adv-x="1191" 
d="M543 88l26 43l424 584l-252 626l-28 -43l-424 -583l239 -584zM547 0h-33q-27 0 -39 33l-256 626q-28 67 17 117l454 627q23 31 45 31h33q27 0 39 -35l254 -627q14 -36 11 -60q-3 -25 -25 -57l-453 -626q-20 -29 -47 -29z" />
    <glyph glyph-name="heart" unicode="&#x2665;" horiz-adv-x="1970" 
d="M1539 1378q-95 0 -169 -34t-116 -71q-42 -38 -105 -106q-23 -23 -51 -23t-37 32q-29 76 -115 139t-196 63t-197 -46q-206 -109 -238 -354q-18 -146 32 -286t208 -309q158 -170 377 -317q264 150 474 318t304 312t123 284t-18 247q-33 63 -107 107t-169 44zM760 1450
q110 0 210 -59t140 -156q74 99 193 157t239 58q213 0 311 -140t56 -349q-25 -123 -113 -267t-284 -314q-196 -171 -564 -392q-16 -8 -31 -8t-30 14q-174 139 -254 207q-229 194 -301 329q-43 80 -79 196t-25 232t53 204q136 288 479 288z" />
    <glyph glyph-name="AE.ss01" horiz-adv-x="1853" 
d="M997 426l133 846l-694 -846h561zM1882 1434q26 0 21 -48q-4 -25 -27 -24h-653l-97 -608h402q29 0 24 -27l-4 -22q-2 -23 -28 -23h-406l-96 -610h647q10 0 18.5 -9.5t2.5 -37.5q-4 -25 -27 -25h-701q-10 0 -18 9t-6 20l51 325h-606l-277 -338q-16 -16 -36 -16h-21
q-18 0 -25.5 13.5t9.5 31.5l1124 1372q14 16 31 17h698z" />
    <glyph glyph-name="B.ss01" horiz-adv-x="1183" 
d="M627 72q141 0 230 71.5t116 243.5q45 295 -211 295h-481l-97 -610h443zM731 1362h-342l-96 -608h430q119 0 191.5 64.5t101.5 242.5q14 59 8 103t-11 76t-29 54q-47 45 -102.5 56.5t-150.5 11.5zM649 0h-520q-12 0 -21.5 10t-7.5 23l217 1372q4 29 33 29h445
q176 0 254.5 -85t46.5 -296q-43 -258 -195 -324q88 -25 131.5 -117t17.5 -251.5t-127.5 -260t-273.5 -100.5z" />
    <glyph glyph-name="C.ss01" horiz-adv-x="1232" 
d="M584 -16q-244 0 -357.5 194.5t-59.5 539.5t229 538.5t423 193.5q315 0 398 -315q10 -27 -15 -33l-35 -8q-23 -4 -30 20q-29 95 -78 156t-106.5 84.5t-135.5 23.5q-213 0 -365.5 -178t-200.5 -485t43 -483.5t302 -176.5q131 0 241.5 75t176.5 202q12 20 37 10l22 -10
q20 -10 8 -35q-68 -145 -196.5 -229t-300.5 -84z" />
    <glyph glyph-name="Cacute.ss01" horiz-adv-x="1232" 
d="M584 -16q-244 0 -357.5 194.5t-59.5 539.5t229 538.5t423 193.5q315 0 398 -315q10 -27 -15 -33l-35 -8q-23 -4 -30 20q-29 95 -78 156t-106.5 84.5t-135.5 23.5q-213 0 -365.5 -178t-200.5 -485t43 -483.5t302 -176.5q131 0 241.5 75t176.5 202q12 20 37 10l22 -10
q20 -10 8 -35q-68 -145 -196.5 -229t-300.5 -84zM692 1608q-25 -8 -30 10q-11 23 12 37l315 155q25 12 35 -8l14 -26q10 -29 -22 -43z" />
    <glyph glyph-name="Ccaron.ss01" horiz-adv-x="1232" 
d="M584 -16q-244 0 -357.5 194.5t-59.5 539.5t229 538.5t423 193.5q315 0 398 -315q10 -27 -15 -33l-35 -8q-23 -4 -30 20q-29 95 -78 156t-106.5 84.5t-135.5 23.5q-213 0 -365.5 -178t-200.5 -485t43 -483.5t302 -176.5q131 0 241.5 75t176.5 202q12 20 37 10l22 -10
q20 -10 8 -35q-68 -145 -196.5 -229t-300.5 -84zM834 1612q-27 0 -43 26l-107 166q-19 29 -15 45q11 38 38 9l141 -179l192 183q26 22 37 0q3 -6 -0.5 -24.5t-21.5 -37.5l-162 -166q-23 -23 -51 -22h-8z" />
    <glyph glyph-name="Ccedilla.ss01" horiz-adv-x="1232" 
d="M817 1378q-213 0 -365.5 -178t-200.5 -485t43 -483.5t302 -176.5q131 0 241.5 75t176.5 202q12 20 37 10l22 -10q20 -10 8 -35q-68 -145 -196.5 -229t-300.5 -84h-31l-57 -90q70 23 120 -12.5t39.5 -112.5t-53.5 -115.5t-104 -38.5q-88 0 -115 78q-6 18 8 20l33 6
q12 2 16 -10q12 -35 58 -35q82 0 96 88q6 47 -23.5 64.5t-70.5 7.5l-29 2l-35 17q-16 8 -10 20l70 119q-201 35 -289 225.5t-37 518t226 521t423 193.5q316 0 398 -315q10 -27 -15 -33l-35 -8q-23 -4 -30 20q-29 95 -78 156t-106.5 84.5t-135.5 23.5z" />
    <glyph glyph-name="Cdotaccent.ss01" horiz-adv-x="1232" 
d="M584 -16q-244 0 -357.5 194.5t-59.5 539.5t229 538.5t423 193.5q315 0 398 -315q10 -27 -15 -33l-35 -8q-23 -4 -30 20q-29 95 -78 156t-106.5 84.5t-135.5 23.5q-213 0 -365.5 -178t-200.5 -485t43 -483.5t302 -176.5q131 0 241.5 75t176.5 202q12 20 37 10l22 -10
q20 -10 8 -35q-68 -145 -196.5 -229t-300.5 -84zM854 1675q-23 0 -37 15.5t-10 38.5q8 47 55 47q23 0 36 -16.5t9 -39.5q-8 -45 -53 -45z" />
    <glyph glyph-name="D.ss01" horiz-adv-x="1202" 
d="M823 1362h-434l-205 -1290h430q154 0 245 91t116 240l102 648q47 311 -254 311zM827 1434q190 0 273.5 -96.5t48.5 -317.5l-92 -594q-37 -231 -150.5 -328.5t-300.5 -97.5h-481q-10 0 -18.5 9t-6.5 20l219 1380q4 25 27 25h481z" />
    <glyph glyph-name="Eth.ss01" horiz-adv-x="1202" 
d="M823 1362h-434l-96 -610h344q35 0 29 -33l-2 -10q-2 -29 -35 -29h-348l-97 -608h430q154 0 245 91t116 240l102 648q47 311 -254 311zM827 1434q190 0 273.5 -96.5t48.5 -317.5l-92 -594q-37 -231 -150.5 -328.5t-300.5 -97.5h-481q-10 0 -18.5 9t-6.5 20l103 651h-56
q-29 0 -28 33v10q0 29 37 29h59l104 657q4 25 27 25h481z" />
    <glyph glyph-name="Dcaron.ss01" horiz-adv-x="1202" 
d="M823 1362h-434l-205 -1290h430q154 0 245 91t116 240l102 648q47 311 -254 311zM827 1434q190 0 273.5 -96.5t48.5 -317.5l-92 -594q-37 -231 -150.5 -328.5t-300.5 -97.5h-481q-10 0 -18.5 9t-6.5 20l219 1380q4 25 27 25h481zM780 1612q-27 0 -43 26l-106 166
q-20 30 -15 45q11 39 37 9l142 -179l192 183q26 22 37 0q3 -6 -0.5 -24.5t-22.5 -37.5l-161 -166q-23 -23 -52 -22h-8z" />
    <glyph glyph-name="Dcroat.ss01" horiz-adv-x="1202" 
d="M823 1362h-434l-96 -610h344q35 0 29 -33l-2 -10q-2 -29 -35 -29h-348l-97 -608h430q154 0 245 91t116 240l102 648q47 311 -254 311zM827 1434q190 0 273.5 -96.5t48.5 -317.5l-92 -594q-37 -231 -150.5 -328.5t-300.5 -97.5h-481q-10 0 -18.5 9t-6.5 20l103 651h-56
q-29 0 -28 33v10q0 29 37 29h59l104 657q4 25 27 25h481z" />
    <glyph glyph-name="E.ss01" horiz-adv-x="1019" 
d="M831 72q10 0 18.5 -9.5t2.5 -37.5q-4 -25 -27 -25h-700q-10 0 -18.5 9t-6.5 20l217 1376q4 29 33 29h699q25 0 20 -48q-4 -25 -27 -24h-653l-96 -608h401q29 0 25 -27l-4 -22q-2 -23 -29 -23h-405l-97 -610h647z" />
    <glyph glyph-name="Eacute.ss01" horiz-adv-x="1019" 
d="M831 72q10 0 18.5 -9.5t2.5 -37.5q-4 -25 -27 -25h-700q-10 0 -18.5 9t-6.5 20l217 1376q4 29 33 29h699q25 0 20 -48q-4 -25 -27 -24h-653l-96 -608h401q29 0 25 -27l-4 -22q-2 -23 -29 -23h-405l-97 -610h647zM557 1608q-25 -8 -32 13t14 34l315 155q25 12 35 -8
l14 -26q10 -29 -22 -43z" />
    <glyph glyph-name="Ecaron.ss01" horiz-adv-x="1019" 
d="M831 72q10 0 18.5 -9.5t2.5 -37.5q-4 -25 -27 -25h-700q-10 0 -18.5 9t-6.5 20l217 1376q4 29 33 29h699q25 0 20 -48q-4 -25 -27 -24h-653l-96 -608h401q29 0 25 -27l-4 -22q-2 -23 -29 -23h-405l-97 -610h647zM698 1612q-27 0 -43 26l-106 166q-18 27 -17 41
q15 40 39 13l142 -179l192 183q26 22 37 0q3 -6 -0.5 -24.5t-21.5 -37.5l-162 -166q-23 -23 -51 -22h-9z" />
    <glyph glyph-name="Ecircumflex.ss01" horiz-adv-x="1019" 
d="M831 72q10 0 18.5 -9.5t2.5 -37.5q-4 -25 -27 -25h-700q-10 0 -18.5 9t-6.5 20l217 1376q4 29 33 29h699q25 0 20 -48q-4 -25 -27 -24h-653l-96 -608h401q29 0 25 -27l-4 -22q-2 -23 -29 -23h-405l-97 -610h647zM737 1872h8q27 0 43 -27l107 -166q19 -29 15 -45
q-10 -37 -38 -8l-141 178l-192 -182q-25 -22 -37 -1q-3 6 0.5 25t21.5 37l162 166q23 23 51 23z" />
    <glyph glyph-name="Edieresis.ss01" horiz-adv-x="1019" 
d="M831 72q10 0 18.5 -9.5t2.5 -37.5q-4 -25 -27 -25h-700q-10 0 -18.5 9t-6.5 20l217 1376q4 29 33 29h699q25 0 20 -48q-4 -25 -27 -24h-653l-96 -608h401q29 0 25 -27l-4 -22q-2 -23 -29 -23h-405l-97 -610h647zM831 1683q-20 0 -32.5 13.5t-10.5 34.5q6 41 48 41
q20 0 32.5 -14.5t10.5 -35.5q-7 -39 -48 -39zM614 1683q-20 0 -32.5 13.5t-10.5 34.5q6 41 47 41q20 0 33 -14.5t11 -35.5q-7 -39 -48 -39z" />
    <glyph glyph-name="Edotaccent.ss01" horiz-adv-x="1019" 
d="M831 72q10 0 18.5 -9.5t2.5 -37.5q-4 -25 -27 -25h-700q-10 0 -18.5 9t-6.5 20l217 1376q4 29 33 29h699q25 0 20 -48q-4 -25 -27 -24h-653l-96 -608h401q29 0 25 -27l-4 -22q-2 -23 -29 -23h-405l-97 -610h647zM719 1675q-23 0 -37 15.5t-10 38.5q8 47 55 47
q23 0 36 -16.5t9 -39.5q-8 -45 -53 -45z" />
    <glyph glyph-name="Egrave.ss01" horiz-adv-x="1019" 
d="M831 72q10 0 18.5 -9.5t2.5 -37.5q-4 -25 -27 -25h-700q-10 0 -18.5 9t-6.5 20l217 1376q4 29 33 29h699q25 0 20 -48q-4 -25 -27 -24h-653l-96 -608h401q29 0 25 -27l-4 -22q-2 -23 -29 -23h-405l-97 -610h647zM881 1610l-324 125q-33 14 -22 43l14 26q10 20 35 8
l315 -155q20 -12 13.5 -33.5t-31.5 -13.5z" />
    <glyph glyph-name="Emacron.ss01" horiz-adv-x="1019" 
d="M831 72q10 0 18.5 -9.5t2.5 -37.5q-4 -25 -27 -25h-700q-10 0 -18.5 9t-6.5 20l217 1376q4 29 33 29h699q25 0 20 -48q-4 -25 -27 -24h-653l-96 -608h401q29 0 25 -27l-4 -22q-2 -23 -29 -23h-405l-97 -610h647zM537 1673q-38 0 -29 43q6 29 35 29h364q38 0 29 -43
q-6 -29 -35 -29h-364z" />
    <glyph glyph-name="Eogonek.ss01" horiz-adv-x="1019" 
d="M1049 1434q25 0 20 -48q-4 -25 -27 -24h-653l-96 -608h401q29 0 25 -27l-4 -22q-2 -23 -29 -23h-405l-97 -610h647q10 0 18.5 -9.5t2.5 -37.5q-4 -25 -27 -25h-88q-59 -39 -109 -99.5t-59.5 -115.5t16 -84t84 -29t91.5 52q10 10 27.5 -2.5t11.5 -28.5
q-14 -35 -58.5 -61.5t-111 -26.5t-112.5 43t-34 121q25 137 199 231h-557q-10 0 -18.5 9t-6.5 20l217 1376q4 29 33 29h699z" />
    <glyph glyph-name="F.ss01" horiz-adv-x="1015" 
d="M1042 1434q28 0 23 -48q-4 -25 -29 -24h-647l-104 -660h415q10 0 18.5 -8t6.5 -18l-4 -23q-4 -23 -29 -22h-420l-96 -606q-4 -25 -20 -25h-35q-25 0 -21 29l219 1380q4 25 27 25h696z" />
    <glyph glyph-name="G.ss01" horiz-adv-x="1277" 
d="M1137 637q29 0 24 -31l-92 -583q-4 -23 -20 -23h-23q-23 0 -18 27l24 200q-166 -244 -440 -243q-244 0 -361.5 192.5t-62.5 543.5t231 540.5t420 189.5q106 0 186 -37q81 -37 125 -99q84 -117 84 -276q0 -18 -16 -20l-33 -6q-27 -4 -26 20q-4 120 -66 224
q-33 56 -96.5 89t-149.5 33q-227 0 -378.5 -181t-198.5 -482t44 -480.5t316 -179.5q182 0 314.5 133.5t169.5 376.5h-310q-31 0 -26 31l2 14q4 27 33 27h344z" />
    <glyph glyph-name="Gbreve.ss01" horiz-adv-x="1277" 
d="M1137 637q29 0 24 -31l-92 -583q-4 -23 -20 -23h-23q-23 0 -18 27l24 200q-166 -244 -440 -243q-244 0 -361.5 192.5t-62.5 543.5t231 540.5t420 189.5q106 0 186 -37q81 -37 125 -99q84 -117 84 -276q0 -18 -16 -20l-33 -6q-27 -4 -26 20q-4 120 -66 224
q-33 56 -96.5 89t-149.5 33q-227 0 -378.5 -181t-198.5 -482t44 -480.5t316 -179.5q182 0 314.5 133.5t169.5 376.5h-310q-31 0 -26 31l2 14q4 27 33 27h344zM866 1679q64 0 124.5 49.5t92.5 114.5q6 16 23 8l35 -20q14 -8 6 -23q-115 -193 -303 -192q-119 0 -167 54
t-67 145q-2 14 11 20l38 14q16 4 19 -12q21 -117 90 -145q34 -14 98 -13z" />
    <glyph glyph-name="Gcommaaccent.ss01" horiz-adv-x="1277" 
d="M545 -137h57q33 0 29 -31l-15 -86q-8 -47 -48 -87t-97 -54q-6 -2 -9 2t-5 16t10 17q74 31 86 102l-33 16q-23 12 -18 37l6 37q6 31 37 31zM1137 637q29 0 24 -31l-92 -583q-4 -23 -20 -23h-23q-23 0 -18 27l24 200q-166 -244 -440 -243q-244 0 -361.5 192.5t-62.5 543.5
t231 540.5t420 189.5q106 0 186 -37q81 -37 125 -99q84 -117 84 -276q0 -18 -16 -20l-33 -6q-27 -4 -26 20q-4 120 -66 224q-33 56 -96.5 89t-149.5 33q-227 0 -378.5 -181t-198.5 -482t44 -480.5t316 -179.5q182 0 314.5 133.5t169.5 376.5h-310q-31 0 -26 31l2 14
q4 27 33 27h344z" />
    <glyph glyph-name="Gdotaccent.ss01" horiz-adv-x="1277" 
d="M1137 637q29 0 24 -31l-92 -583q-4 -23 -20 -23h-23q-23 0 -18 27l24 200q-166 -244 -440 -243q-244 0 -361.5 192.5t-62.5 543.5t231 540.5t420 189.5q106 0 186 -37q81 -37 125 -99q84 -117 84 -276q0 -18 -16 -20l-33 -6q-27 -4 -26 20q-4 120 -66 224
q-33 56 -96.5 89t-149.5 33q-227 0 -378.5 -181t-198.5 -482t44 -480.5t316 -179.5q182 0 314.5 133.5t169.5 376.5h-310q-31 0 -26 31l2 14q4 27 33 27h344zM858 1675q-23 0 -37 15.5t-10 38.5q8 47 55 47q23 0 36 -16.5t9 -39.5q-8 -45 -53 -45z" />
    <glyph glyph-name="I.ss01" horiz-adv-x="569" 
d="M547 1362h-76l-205 -1290h76q27 0 23 -27l-3 -18q-4 -27 -30 -27h-230q-27 0 -22 27l2 18q4 27 31 27h75l205 1290h-76q-27 0 -22 27l2 18q4 27 31 27h229q27 0 23 -27l-2 -18q-4 -27 -31 -27z" />
    <glyph glyph-name="Iacute.ss01" horiz-adv-x="569" 
d="M547 1362h-76l-205 -1290h76q27 0 23 -27l-3 -18q-4 -27 -30 -27h-230q-27 0 -22 27l2 18q4 27 31 27h75l205 1290h-76q-27 0 -22 27l2 18q4 27 31 27h229q27 0 23 -27l-2 -18q-4 -27 -31 -27zM332 1608q-25 -8 -32 13t13 34l316 155q25 12 35 -8l14 -26q10 -29 -23 -43z
" />
    <glyph glyph-name="Icircumflex.ss01" horiz-adv-x="569" 
d="M547 1362h-76l-205 -1290h76q27 0 23 -27l-3 -18q-4 -27 -30 -27h-230q-27 0 -22 27l2 18q4 27 31 27h75l205 1290h-76q-27 0 -22 27l2 18q4 27 31 27h229q27 0 23 -27l-2 -18q-4 -27 -31 -27zM512 1872h8q27 0 43 -27l107 -166q19 -29 15 -45q-10 -37 -38 -8l-141 178
l-193 -182q-25 -21 -37 -1q-4 6 0 25t23 37l162 166q23 23 51 23z" />
    <glyph glyph-name="Idieresis.ss01" horiz-adv-x="569" 
d="M547 1362h-76l-205 -1290h76q27 0 23 -27l-3 -18q-4 -27 -30 -27h-230q-27 0 -22 27l2 18q4 27 31 27h75l205 1290h-76q-27 0 -22 27l2 18q4 27 31 27h229q27 0 23 -27l-2 -18q-4 -27 -31 -27zM606 1683q-20 0 -32.5 13.5t-10.5 34.5q6 41 47 41q20 0 32.5 -14.5
t10.5 -35.5q-6 -39 -47 -39zM389 1683q-20 0 -32.5 13.5t-10.5 34.5q6 41 47 41q20 0 32.5 -14.5t10.5 -35.5q-6 -39 -47 -39z" />
    <glyph glyph-name="Idotaccent.ss01" horiz-adv-x="569" 
d="M547 1362h-76l-205 -1290h76q27 0 23 -27l-3 -18q-4 -27 -30 -27h-230q-27 0 -22 27l2 18q4 27 31 27h75l205 1290h-76q-27 0 -22 27l2 18q4 27 31 27h229q27 0 23 -27l-2 -18q-4 -27 -31 -27zM494 1675q-23 0 -37.5 15.5t-10.5 38.5q8 47 56 47q23 0 36 -16.5t9 -39.5
q-8 -45 -53 -45z" />
    <glyph glyph-name="Igrave.ss01" horiz-adv-x="569" 
d="M547 1362h-76l-205 -1290h76q27 0 23 -27l-3 -18q-4 -27 -30 -27h-230q-27 0 -22 27l2 18q4 27 31 27h75l205 1290h-76q-27 0 -22 27l2 18q4 27 31 27h229q27 0 23 -27l-2 -18q-4 -27 -31 -27zM655 1610l-323 125q-33 14 -23 43l15 26q10 20 34 8l316 -155
q20 -12 13 -33.5t-32 -13.5z" />
    <glyph glyph-name="Imacron.ss01" horiz-adv-x="569" 
d="M547 1362h-76l-205 -1290h76q27 0 23 -27l-3 -18q-4 -27 -30 -27h-230q-27 0 -22 27l2 18q4 27 31 27h75l205 1290h-76q-27 0 -22 27l2 18q4 27 31 27h229q27 0 23 -27l-2 -18q-4 -27 -31 -27zM311 1673q-37 0 -29.5 36t35.5 36h365q38 0 29 -43q-6 -29 -35 -29h-365z
" />
    <glyph glyph-name="Iogonek.ss01" horiz-adv-x="569" 
d="M557 1434q27 0 23 -27l-2 -18q-4 -27 -31 -27h-76l-205 -1290h76q27 0 23 -27l-3 -18q-4 -27 -30 -27h-4q-59 -39 -109.5 -99.5t-59.5 -115.5t16.5 -84t84 -29t90.5 52q11 11 28 -2t7 -38.5t-54 -52t-111 -26.5t-113 43t-33 121q25 137 198 231h-170q-27 0 -22 27l2 18
q4 27 31 27h75l205 1290h-76q-27 0 -22 27l2 18q4 27 31 27h229z" />
    <glyph glyph-name="M.ss01" horiz-adv-x="1447" 
d="M1399 1434h14q10 0 18.5 -9.5t6.5 -19.5l-219 -1382q-4 -23 -21 -23h-35q-25 0 -20 27l190 1214l-577 -805q-14 -20 -25 -20h-10q-12 0 -23 24l-327 813l-195 -1230q-4 -23 -22 -23h-35q-23 0 -19 27l219 1382q4 25 25 25h14q12 0 29 -33l352 -871l623 875q23 29 37 29z
" />
    <glyph glyph-name="N.ss01" horiz-adv-x="1236" 
d="M1206 1434q25 0 21 -29l-219 -1382q-4 -23 -23 -23h-22q-16 0 -31 27l-557 1243l-199 -1247q-4 -23 -20 -23h-35q-25 0 -21 27l219 1382q4 25 25 25h18q14 0 33 -33l557 -1243l199 1251q4 25 20 25h35z" />
    <glyph glyph-name="Nacute.ss01" horiz-adv-x="1236" 
d="M1206 1434q25 0 21 -29l-219 -1382q-4 -23 -23 -23h-22q-16 0 -31 27l-557 1243l-199 -1247q-4 -23 -20 -23h-35q-25 0 -21 27l219 1382q4 25 25 25h18q14 0 33 -33l557 -1243l199 1251q4 25 20 25h35zM666 1608q-25 -8 -32 13t13 34l316 155q25 12 34 -8l15 -26
q10 -29 -23 -43z" />
    <glyph glyph-name="Ncaron.ss01" horiz-adv-x="1236" 
d="M1206 1434q25 0 21 -29l-219 -1382q-4 -23 -23 -23h-22q-16 0 -31 27l-557 1243l-199 -1247q-4 -23 -20 -23h-35q-25 0 -21 27l219 1382q4 25 25 25h18q14 0 33 -33l557 -1243l199 1251q4 25 20 25h35zM807 1612q-27 0 -43 26l-107 166q-19 29 -15 45q11 39 38 9
l141 -179l193 183q26 22 37 0q3 -6 -0.5 -24.5t-22.5 -37.5l-162 -166q-23 -23 -51 -22h-8z" />
    <glyph glyph-name="Ncommaaccent.ss01" horiz-adv-x="1236" 
d="M498 -137h57q31 0 29 -31l-15 -86q-8 -47 -48 -87t-97 -54q-6 -2 -9 2t-5 16t10 17q74 31 86 102l-33 16q-23 12 -18 37l6 37q6 31 37 31zM1206 1434q25 0 21 -29l-219 -1382q-4 -23 -23 -23h-22q-16 0 -31 27l-557 1243l-199 -1247q-4 -23 -20 -23h-35q-25 0 -21 27
l219 1382q4 25 25 25h18q14 0 33 -33l557 -1243l199 1251q4 25 20 25h35z" />
    <glyph glyph-name="Eng.ss01" horiz-adv-x="1239" 
d="M1204 1434q27 0 23 -29l-234 -1483q-8 -47 -56 -96t-108 -78q-25 -12 -36 4q-27 41 -9 49q117 57 138 156q14 61 -15 125l-532 1188l-199 -1245q-4 -25 -22 -25h-31q-27 0 -23 29l219 1380q4 25 25 25h16q20 0 35 -33l557 -1243l199 1251q4 25 23 25h30z" />
    <glyph glyph-name="Ntilde.ss01" horiz-adv-x="1236" 
d="M1206 1434q25 0 21 -29l-219 -1382q-4 -23 -23 -23h-22q-16 0 -31 27l-557 1243l-199 -1247q-4 -23 -20 -23h-35q-25 0 -21 27l219 1382q4 25 25 25h18q14 0 33 -33l557 -1243l199 1251q4 25 20 25h35zM950 1632q-53 0 -126.5 53.5t-108.5 53.5q-84 0 -129 -88
q-6 -12 -25 -6l-20 10q-14 8 -9 26q18 53 71.5 90t115 37t134.5 -54t105 -54q72 0 125 96q7 13 41 -8q16 -10 9 -29q-55 -127 -183 -127z" />
    <glyph glyph-name="O.ss01" horiz-adv-x="1312" 
d="M596 55q219 0 364.5 185.5t192.5 480.5q59 408 -105 569q-90 88 -237 88q-221 0 -367.5 -185t-193.5 -479t40 -476.5t306 -182.5zM588 -16q-242 0 -358.5 193.5t-61.5 542.5t230 539.5t418 190.5t358.5 -193.5t60.5 -542.5t-230 -539.5t-417 -190.5z" />
    <glyph glyph-name="Oacute.ss01" horiz-adv-x="1312" 
d="M596 55q219 0 364.5 185.5t192.5 480.5q59 408 -105 569q-90 88 -237 88q-221 0 -367.5 -185t-193.5 -479t40 -476.5t306 -182.5zM588 -16q-242 0 -358.5 193.5t-61.5 542.5t230 539.5t418 190.5t358.5 -193.5t60.5 -542.5t-230 -539.5t-417 -190.5zM705 1608
q-25 -8 -32 13t13 34l315 155q25 12 35 -8l15 -26q10 -29 -23 -43z" />
    <glyph glyph-name="Ocircumflex.ss01" horiz-adv-x="1312" 
d="M596 55q219 0 364.5 185.5t192.5 480.5q59 408 -105 569q-90 88 -237 88q-221 0 -367.5 -185t-193.5 -479t40 -476.5t306 -182.5zM588 -16q-242 0 -358.5 193.5t-61.5 542.5t230 539.5t418 190.5t358.5 -193.5t60.5 -542.5t-230 -539.5t-417 -190.5zM885 1872h8
q27 0 43 -27l106 -166q20 -30 15 -45q-11 -38 -37 -8l-141 178l-193 -182q-25 -22 -37 -1q-3 6 0.5 25t22.5 37l162 166q23 23 51 23z" />
    <glyph glyph-name="Odieresis.ss01" horiz-adv-x="1312" 
d="M596 55q219 0 364.5 185.5t192.5 480.5q59 408 -105 569q-90 88 -237 88q-221 0 -367.5 -185t-193.5 -479t40 -476.5t306 -182.5zM588 -16q-242 0 -358.5 193.5t-61.5 542.5t230 539.5t418 190.5t358.5 -193.5t60.5 -542.5t-230 -539.5t-417 -190.5zM979 1683
q-20 0 -32.5 13.5t-10.5 34.5q6 41 47 41q20 0 32.5 -14.5t10.5 -35.5q-6 -39 -47 -39zM762 1683q-20 0 -32.5 13.5t-10.5 34.5q6 41 47 41q20 0 32.5 -14.5t10.5 -35.5q-6 -39 -47 -39z" />
    <glyph glyph-name="Ograve.ss01" horiz-adv-x="1312" 
d="M596 55q219 0 364.5 185.5t192.5 480.5q59 408 -105 569q-90 88 -237 88q-221 0 -367.5 -185t-193.5 -479t40 -476.5t306 -182.5zM588 -16q-242 0 -358.5 193.5t-61.5 542.5t230 539.5t418 190.5t358.5 -193.5t60.5 -542.5t-230 -539.5t-417 -190.5zM1028 1610l-323 125
q-33 14 -23 43l14 26q10 20 35 8l316 -155q20 -12 13 -33.5t-32 -13.5z" />
    <glyph glyph-name="Ohungarumlaut.ss01" horiz-adv-x="1312" 
d="M596 55q219 0 364.5 185.5t192.5 480.5q59 408 -105 569q-90 88 -237 88q-221 0 -367.5 -185t-193.5 -479t40 -476.5t306 -182.5zM588 -16q-242 0 -358.5 193.5t-61.5 542.5t230 539.5t418 190.5t358.5 -193.5t60.5 -542.5t-230 -539.5t-417 -190.5zM924 1595
q-23 -14 -36 8.5t15 45.5l223 188q12 8 24.5 4t16.5 -16l9 -27q8 -27 -17 -43zM629 1595q-21 -11 -36 10t13 44l225 188q33 18 43 -12l11 -27q12 -27 -15 -43z" />
    <glyph glyph-name="Omacron.ss01" horiz-adv-x="1312" 
d="M596 55q219 0 364.5 185.5t192.5 480.5q59 408 -105 569q-90 88 -237 88q-221 0 -367.5 -185t-193.5 -479t40 -476.5t306 -182.5zM588 -16q-242 0 -358.5 193.5t-61.5 542.5t230 539.5t418 190.5t358.5 -193.5t60.5 -542.5t-230 -539.5t-417 -190.5zM684 1673
q-38 0 -29 43q6 29 35 29h365q37 0 29.5 -36t-35.5 -36h-365z" />
    <glyph glyph-name="Oslash.ss01" horiz-adv-x="1312" 
d="M596 55q221 0 366.5 185.5t194.5 496t-55 488.5l-733 -1090q90 -80 227 -80zM813 1378q-221 0 -367.5 -185t-195.5 -500.5t63 -493.5l736 1091q-92 88 -236 88zM592 -16q-162 0 -266 86l-39 -58q-20 -29 -43 -28h-29q-20 0 -22.5 16t8.5 31l65 96q-160 195 -96 594
q55 348 230 538.5t417 190.5q168 0 277 -92l43 63q20 29 41 29h41q31 0 8 -39l-76 -115q147 -195 89 -563t-233.5 -558.5t-414.5 -190.5z" />
    <glyph glyph-name="Otilde.ss01" horiz-adv-x="1312" 
d="M596 55q219 0 364.5 185.5t192.5 480.5q59 408 -105 569q-90 88 -237 88q-221 0 -367.5 -185t-193.5 -479t40 -476.5t306 -182.5zM588 -16q-242 0 -358.5 193.5t-61.5 542.5t230 539.5t418 190.5t358.5 -193.5t60.5 -542.5t-230 -539.5t-417 -190.5zM989 1632
q-53 0 -127 53.5t-108 53.5q-86 0 -129 -88q-6 -12 -25 -6l-20 10q-14 8 -9 26q18 53 71.5 90t115 37t134.5 -54t105 -54q72 0 125 96q7 13 41 -8q16 -10 8 -29q-55 -127 -182 -127z" />
    <glyph glyph-name="OE.ss01" horiz-adv-x="1613" 
d="M803 1378q-219 0 -363.5 -192.5t-189.5 -470.5q-23 -176 -6.5 -322.5t105.5 -242t239 -95.5q63 1 112 13l205 1300q-39 10 -102 10zM1642 1434q26 0 21 -48q-4 -25 -27 -24h-653l-96 -608h401q29 0 25 -27l-4 -22q-2 -23 -29 -23h-406l-96 -610h647q10 0 18.5 -9.5
t2.5 -37.5q-4 -25 -27 -25h-694q-72 -16 -139 -16q-131 0 -226.5 58t-142.5 158q-105 225 -49 521q51 322 218 525.5t421 203.5q72 0 137 -16h698z" />
    <glyph glyph-name="P.ss01" horiz-adv-x="1101" 
d="M582 616q365 0 424 375q31 188 -44 279.5t-262 91.5h-311l-119 -746h312zM612 545h-352l-84 -522q-4 -23 -20 -23h-35q-25 0 -21 27l219 1382q4 25 27 25h402q174 0 274 -111t64 -339t-168 -333.5t-306 -105.5z" />
    <glyph glyph-name="Q.ss01" horiz-adv-x="1320" 
d="M596 55q219 0 364.5 185.5t192.5 480.5q59 408 -105 569q-90 88 -237 88q-221 0 -367.5 -185t-193.5 -479t40 -476.5t306 -182.5zM816 1450q243 0 358.5 -193.5t60.5 -539.5t-227 -539l133 -155q20 -25 -2 -43l-15 -13q-23 -20 -43 4l-131 150q-156 -137 -360 -137
q-244 0 -360.5 193.5t-61.5 542.5t230 539.5t418 190.5z" />
    <glyph glyph-name="R.ss01" horiz-adv-x="1122" 
d="M659 657q102 0 199 64q53 35 94 110.5t58 182.5q31 184 -43 266t-209 82h-369l-113 -705h383zM152 0h-29q-27 0 -23 27l219 1382q4 25 27 25h432q170 0 258 -108.5t54 -319.5q-51 -326 -324 -404q78 -92 125 -242.5t31 -339.5q0 -20 -23 -20h-29q-27 0 -22 29
q6 156 -38 315.5t-138 243.5l-406 -2l-90 -563q-4 -23 -24 -23z" />
    <glyph glyph-name="Racute.ss01" horiz-adv-x="1122" 
d="M659 657q102 0 199 64q53 35 94 110.5t58 182.5q31 184 -43 266t-209 82h-369l-113 -705h383zM152 0h-29q-27 0 -23 27l219 1382q4 25 27 25h432q170 0 258 -108.5t54 -319.5q-51 -326 -324 -404q78 -92 125 -242.5t31 -339.5q0 -20 -23 -20h-29q-27 0 -22 29
q6 156 -38 315.5t-138 243.5l-406 -2l-90 -563q-4 -23 -24 -23zM608 1608q-25 -8 -30 10q-11 23 12 37l315 155q25 12 35 -8l14 -26q10 -29 -22 -43z" />
    <glyph glyph-name="Rcaron.ss01" horiz-adv-x="1122" 
d="M659 657q102 0 199 64q53 35 94 110.5t58 182.5q31 184 -43 266t-209 82h-369l-113 -705h383zM152 0h-29q-27 0 -23 27l219 1382q4 25 27 25h432q170 0 258 -108.5t54 -319.5q-51 -326 -324 -404q78 -92 125 -242.5t31 -339.5q0 -20 -23 -20h-29q-27 0 -22 29
q6 156 -38 315.5t-138 243.5l-406 -2l-90 -563q-4 -23 -24 -23zM750 1612q-27 0 -43 26l-107 166q-19 29 -15 45q11 38 38 9l141 -179l192 183q26 22 37 0q3 -6 -0.5 -24.5t-21.5 -37.5l-162 -166q-23 -23 -51 -22h-8z" />
    <glyph glyph-name="Rcommaaccent.ss01" horiz-adv-x="1122" 
d="M440 -137h58q30 0 28 -31l-14 -86q-8 -47 -48 -87t-97 -54q-11 -4 -15 14q-2 16 10 21q74 31 87 102l-33 16q-23 12 -19 37l6 37q6 31 37 31zM659 657q102 0 199 64q53 35 94 110.5t58 182.5q31 184 -43 266t-209 82h-369l-113 -705h383zM152 0h-29q-27 0 -23 27
l219 1382q4 25 27 25h432q170 0 258 -108.5t54 -319.5q-51 -326 -324 -404q78 -92 125 -242.5t31 -339.5q0 -20 -23 -20h-29q-27 0 -22 29q6 156 -38 315.5t-138 243.5l-406 -2l-90 -563q-4 -23 -24 -23z" />
    <glyph glyph-name="U.ss01" horiz-adv-x="1191" 
d="M1159 1434q10 0 17.5 -10.5t5.5 -20.5l-146 -922q-39 -242 -147.5 -361.5t-313.5 -119.5h-90q-205 0 -278.5 122t-34.5 363l145 922q4 27 27 27h29q27 0 22 -31l-151 -963q-31 -188 33.5 -278t185.5 -90h147q121 0 216.5 92t125.5 280l152 963q4 27 26 27h29z" />
    <glyph glyph-name="Uacute.ss01" horiz-adv-x="1191" 
d="M1159 1434q10 0 17.5 -10.5t5.5 -20.5l-146 -922q-39 -242 -147.5 -361.5t-313.5 -119.5h-90q-205 0 -278.5 122t-34.5 363l145 922q4 27 27 27h29q27 0 22 -31l-151 -963q-31 -188 33.5 -278t185.5 -90h147q121 0 216.5 92t125.5 280l152 963q4 27 26 27h29zM643 1608
q-25 -8 -32 13t14 34l315 155q25 12 35 -8l14 -26q10 -29 -22 -43z" />
    <glyph glyph-name="Ucircumflex.ss01" horiz-adv-x="1191" 
d="M1159 1434q10 0 17.5 -10.5t5.5 -20.5l-146 -922q-39 -242 -147.5 -361.5t-313.5 -119.5h-90q-205 0 -278.5 122t-34.5 363l145 922q4 27 27 27h29q27 0 22 -31l-151 -963q-31 -188 33.5 -278t185.5 -90h147q121 0 216.5 92t125.5 280l152 963q4 27 26 27h29zM823 1872h8
q27 0 43 -27l107 -166q19 -29 15 -45q-10 -37 -38 -8l-141 178l-192 -182q-25 -22 -37 -1q-3 6 0.5 25t21.5 37l162 166q23 23 51 23z" />
    <glyph glyph-name="Udieresis.ss01" horiz-adv-x="1191" 
d="M1159 1434q10 0 17.5 -10.5t5.5 -20.5l-146 -922q-39 -242 -147.5 -361.5t-313.5 -119.5h-90q-205 0 -278.5 122t-34.5 363l145 922q4 27 27 27h29q27 0 22 -31l-151 -963q-31 -188 33.5 -278t185.5 -90h147q121 0 216.5 92t125.5 280l152 963q4 27 26 27h29zM918 1683
q-20 0 -33 13.5t-11 34.5q6 41 48 41q20 0 32.5 -14.5t10.5 -35.5q-6 -39 -47 -39zM700 1683q-20 0 -32.5 13.5t-10.5 34.5q6 41 48 41q20 0 32.5 -14.5t10.5 -35.5q-7 -39 -48 -39z" />
    <glyph glyph-name="Ugrave.ss01" horiz-adv-x="1191" 
d="M1159 1434q10 0 17.5 -10.5t5.5 -20.5l-146 -922q-39 -242 -147.5 -361.5t-313.5 -119.5h-90q-205 0 -278.5 122t-34.5 363l145 922q4 27 27 27h29q27 0 22 -31l-151 -963q-31 -188 33.5 -278t185.5 -90h147q121 0 216.5 92t125.5 280l152 963q4 27 26 27h29zM967 1610
l-324 125q-33 14 -22 43l14 26q10 20 35 8l315 -155q20 -12 13.5 -33.5t-31.5 -13.5z" />
    <glyph glyph-name="Uhungarumlaut.ss01" horiz-adv-x="1191" 
d="M1159 1434q10 0 17.5 -10.5t5.5 -20.5l-146 -922q-39 -242 -147.5 -361.5t-313.5 -119.5h-90q-205 0 -278.5 122t-34.5 363l145 922q4 27 27 27h29q27 0 22 -31l-151 -963q-31 -188 33.5 -278t185.5 -90h147q121 0 216.5 92t125.5 280l152 963q4 27 26 27h29zM862 1595
q-23 -14 -36 8t16 46l223 188q12 8 24.5 4t16.5 -16l8 -27q8 -27 -16 -43zM567 1595q-19 -10 -35 10.5t13 43.5l225 188q33 18 43 -12l10 -27q12 -27 -14 -43z" />
    <glyph glyph-name="Umacron.ss01" horiz-adv-x="1191" 
d="M1159 1434q10 0 17.5 -10.5t5.5 -20.5l-146 -922q-39 -242 -147.5 -361.5t-313.5 -119.5h-90q-205 0 -278.5 122t-34.5 363l145 922q4 27 27 27h29q27 0 22 -31l-151 -963q-31 -188 33.5 -278t185.5 -90h147q121 0 216.5 92t125.5 280l152 963q4 27 26 27h29zM623 1673
q-38 0 -29 43q6 29 35 29h364q38 0 29 -43q-6 -29 -35 -29h-364z" />
    <glyph glyph-name="Uogonek.ss01" horiz-adv-x="1191" 
d="M1159 1434q10 0 17.5 -10.5t5.5 -20.5l-146 -922q-59 -391 -315 -463q-63 -33 -127 -101.5t-73 -127.5t16.5 -88t84 -29t91.5 52q11 11 27.5 -2t11.5 -29q-14 -35 -58.5 -61.5t-111 -26.5t-112.5 43t-34 121q25 139 207 235q-45 -4 -68 -4h-90q-205 0 -278.5 122
t-34.5 363l145 922q4 27 27 27h29q27 0 22 -31l-151 -963q-31 -188 33.5 -278t185.5 -90h147q121 0 216.5 92t125.5 280l152 963q4 27 26 27h29z" />
    <glyph glyph-name="Uring.ss01" horiz-adv-x="1191" 
d="M1159 1434q10 0 17.5 -10.5t5.5 -20.5l-146 -922q-39 -242 -147.5 -361.5t-313.5 -119.5h-90q-205 0 -278.5 122t-34.5 363l145 922q4 27 27 27h29q27 0 22 -31l-151 -963q-31 -188 33.5 -278t185.5 -90h147q121 0 216.5 92t125.5 280l152 963q4 27 26 27h29zM795 1686
q63 0 75 69q6 33 -9 47.5t-38 14.5q-63 0 -72 -65.5t44 -65.5zM794 1630q-50 0 -81 34t-23 90t47 87t89 31t81 -34t23 -89t-47 -87t-89 -32z" />
    <glyph glyph-name="W.ss01" horiz-adv-x="1669" 
d="M1696 1434q12 0 20 -13.5t2 -29.5l-579 -1373q-8 -18 -23 -18h-6q-18 0 -18 20l-142 1199l-463 -1201q-8 -18 -20 -18h-6q-16 0 -21 23l-184 1372q-2 16 8 27.5t25 11.5h16q20 0 25 -23l155 -1198l471 1202q8 18 21 19h6q12 0 16 -23l144 -1198l506 1202q10 18 28 19h19z
" />
    <glyph glyph-name="Wacute.ss01" horiz-adv-x="1669" 
d="M1696 1434q12 0 20 -13.5t2 -29.5l-579 -1373q-8 -18 -23 -18h-6q-18 0 -18 20l-142 1199l-463 -1201q-8 -18 -20 -18h-6q-16 0 -21 23l-184 1372q-2 16 8 27.5t25 11.5h16q20 0 25 -23l155 -1198l471 1202q8 18 21 19h6q12 0 16 -23l144 -1198l506 1202q10 18 28 19h19z
M852 1608q-25 -8 -32 13t14 34l315 155q25 12 35 -8l14 -26q10 -29 -22 -43z" />
    <glyph glyph-name="Wcircumflex.ss01" horiz-adv-x="1669" 
d="M1696 1434q12 0 20 -13.5t2 -29.5l-579 -1373q-8 -18 -23 -18h-6q-18 0 -18 20l-142 1199l-463 -1201q-8 -18 -20 -18h-6q-16 0 -21 23l-184 1372q-2 16 8 27.5t25 11.5h16q20 0 25 -23l155 -1198l471 1202q8 18 21 19h6q12 0 16 -23l144 -1198l506 1202q10 18 28 19h19z
M1032 1872h8q27 0 43 -27l107 -166q19 -29 15 -45q-10 -37 -38 -8l-141 178l-192 -182q-25 -22 -37 -1q-3 6 0.5 25t21.5 37l162 166q23 23 51 23z" />
    <glyph glyph-name="Wdieresis.ss01" horiz-adv-x="1669" 
d="M1696 1434q12 0 20 -13.5t2 -29.5l-579 -1373q-8 -18 -23 -18h-6q-18 0 -18 20l-142 1199l-463 -1201q-8 -18 -20 -18h-6q-16 0 -21 23l-184 1372q-2 16 8 27.5t25 11.5h16q20 0 25 -23l155 -1198l471 1202q8 18 21 19h6q12 0 16 -23l144 -1198l506 1202q10 18 28 19h19z
M1126 1683q-20 0 -32.5 13.5t-10.5 34.5q6 41 47 41q20 0 33 -14.5t11 -35.5q-7 -39 -48 -39zM909 1683q-20 0 -32.5 13.5t-10.5 34.5q6 41 47 41q20 0 32.5 -14.5t10.5 -35.5q-6 -39 -47 -39z" />
    <glyph glyph-name="Wgrave.ss01" horiz-adv-x="1669" 
d="M1696 1434q12 0 20 -13.5t2 -29.5l-579 -1373q-8 -18 -23 -18h-6q-18 0 -18 20l-142 1199l-463 -1201q-8 -18 -20 -18h-6q-16 0 -21 23l-184 1372q-2 16 8 27.5t25 11.5h16q20 0 25 -23l155 -1198l471 1202q8 18 21 19h6q12 0 16 -23l144 -1198l506 1202q10 18 28 19h19z
M1176 1610l-324 125q-33 14 -23 43l15 26q10 20 35 8l315 -155q20 -12 13.5 -33.5t-31.5 -13.5z" />
    <glyph glyph-name="A.ss04" horiz-adv-x="1026" 
d="M68 72h770q27 0 22 -29l-2 -18q-2 -25 -24 -25h-775q-25 0 -20 29l2 18q4 25 27 25zM319 627h445l-119 592l-6 41l-18 -41zM666 1434q8 0 10 -13l225 -1102q4 -16 -5 -28t-24 -12h-24q-20 0 -21 22l-51 254h-491l-129 -258q-8 -18 -27 -18h-25q-12 0 -18 13t0 32
l565 1101q4 8 11 9h4z" />
    <glyph glyph-name="B.ss04" horiz-adv-x="980" 
d="M129 72h633q27 0 22 -29l-2 -18q-4 -25 -26 -25h-633q-25 0 -21 29l2 18q2 25 25 25zM553 365q203 0 240 237q20 131 -26 179t-110 48h-354l-72 -464h322zM688 1364h-301l-74 -465h316q166 0 202 238q20 133 -18.5 180t-124.5 47zM571 295h-403q-10 0 -16.5 9t-4.5 20
l172 1085q4 25 25 25h385q96 0 149.5 -76t30.5 -228q-14 -92 -51 -160.5t-88 -95.5q134 -54 96 -298q-20 -122 -96 -201.5t-199 -79.5z" />
    <glyph glyph-name="C.ss04" horiz-adv-x="1138" 
d="M106 72h828q27 0 22 -29l-2 -18q-4 -25 -24 -25h-830q-28 0 -21 36t27 36zM618.5 279q-239.5 0 -363.5 166.5t-84 420.5t214 419t414 165t352 -195q14 -25 -4 -36l-19 -15q-23 -18 -43 14q-31 49 -90 105.5t-196 56.5q-215 0 -364.5 -149.5t-184.5 -369.5t66.5 -366.5
t312.5 -146.5q90 0 164.5 34t112.5 70.5t81 90.5q14 18 33 4l22 -25q14 -14 -2 -37q-182 -206 -421.5 -206z" />
    <glyph glyph-name="D.ss04" horiz-adv-x="1052" 
d="M129 72h670q27 0 22 -29l-2 -18q-4 -25 -24 -25h-672q-27 0 -23 29l2 18q4 25 27 25zM444 365q178 0 299 110.5t166 392.5q39 203 -19 349q-58 147 -286 147h-219l-156 -999h215zM444 295h-276q-8 0 -15.5 9t-5.5 20l172 1085q4 25 25 25h285q155 0 253 -70
q54 -40 82 -104q70 -164 23 -400q-54 -330 -197 -447q-143 -118 -346 -118z" />
    <glyph glyph-name="E.ss04" horiz-adv-x="847" 
d="M129 72h533q25 0 20 -29l-2 -18q-4 -25 -25 -25h-530q-27 0 -23 29l2 18q2 25 25 25zM707 365q25 0 20 -46q-4 -25 -27 -24h-532q-8 0 -15.5 9t-5.5 20l172 1085q4 25 25 25h535q25 0 20 -29l-2 -16q-4 -25 -25 -25h-485l-74 -465h326q23 0 18.5 -34t-26.5 -34h-328
l-72 -466h476z" />
    <glyph glyph-name="F.ss04" horiz-adv-x="802" 
d="M129 72h485q27 0 23 -29l-2 -18q-4 -25 -25 -25h-489q-25 0 -21 29l2 18q4 25 27 25zM829 1434q27 0 23 -25l-2 -20q-4 -25 -27 -25h-438l-78 -506h303q27 0 23 -22l-2 -23q-4 -23 -25 -22h-311l-74 -472q-4 -25 -20 -24h-37q-20 0 -17 29l172 1085q4 25 25 25h485z" />
    <glyph glyph-name="G.ss04" horiz-adv-x="1177" 
d="M109 72h839q27 0 23 -29l-2 -18q-2 -25 -25 -25h-842q-27 0 -22 29l2 18q4 25 27 25zM1069 836q10 0 16.5 -8.5t4.5 -18.5l-54 -344q-4 -14 -10 -23q-168 -164 -401.5 -163.5t-363.5 160t-89 427.5t220 426t408.5 158t350.5 -195q12 -23 -2 -34l-23 -19q-20 -16 -34 8
q-2 2 -12.5 18.5t-17.5 26t-22.5 27.5t-29.5 30q-86 68 -215 68q-207 0 -357.5 -147.5t-187.5 -369.5t66.5 -368.5t302.5 -146.5t342 131l47 287h-248q-27 0 -23 27l2 20q4 23 27 23h303z" />
    <glyph glyph-name="H.ss04" horiz-adv-x="1103" 
d="M131 72h723q27 0 23 -29l-3 -18q-2 -25 -24 -25h-727q-27 0 -23 29l4 18q6 25 27 25zM1073 1434q20 0 17 -29l-172 -1086q-4 -25 -21 -24h-35q-23 0 -18 29l82 507h-621l-82 -512q-4 -25 -22 -24h-35q-23 0 -19 29l172 1085q4 25 23 25h35q20 0 16 -29l-80 -504h621
l82 508q4 25 22 25h35z" />
    <glyph glyph-name="I.ss04" horiz-adv-x="403" 
d="M131 72h23q29 0 24 -29l-4 -18q-2 -25 -27 -25h-22q-29 0 -25 29l2 18q4 25 29 25zM166 295q-10 0 -16.5 9t-2.5 20l172 1085q4 25 23 25h33q23 0 18 -29l-172 -1086q-4 -25 -22 -24h-33z" />
    <glyph glyph-name="J.ss04" horiz-adv-x="790" 
d="M68 72h473q29 0 24 -29l-4 -18q-4 -25 -26 -25h-474q-29 0 -24 29l2 18q2 25 29 25zM756 1434q29 0 24 -35l-125 -783q-27 -166 -102.5 -251.5t-220.5 -85.5q-102 0 -157.5 41.5t-84.5 125.5q-10 23 8 33l29 15q25 12 29 -19q49 -127 170 -127t178 73t80 216l121 766
q4 31 28 31h23z" />
    <glyph glyph-name="K.ss04" horiz-adv-x="919" 
d="M129 72h602q27 0 23 -29l-2 -18q-2 -25 -25 -25h-606q-25 0 -21 29l2 18q4 25 27 25zM164 295q-25 0 -17 29l170 1085q4 25 23 25h35q20 0 16 -29l-78 -504l543 508q25 25 49 25h49q10 0 13.5 -10.5t-4.5 -18.5l-590 -551l418 -535q6 -8 3 -16t-14 -8h-57q-18 0 -37 29
l-385 503l-80 -508q-4 -25 -22 -24h-35z" />
    <glyph glyph-name="L.ss04" horiz-adv-x="851" 
d="M131 72h553q29 0 25 -29l-4 -18q-4 -25 -27 -25h-553q-29 0 -25 29l2 18q4 25 29 25zM733 367q10 0 18 -10t1 -35q-4 -25 -25 -25h-555q-10 0 -18.5 9t-6.5 20l172 1083q4 27 25 27h33q20 0 16 -31l-164 -1038h504z" />
    <glyph glyph-name="M.ss04" horiz-adv-x="1273" 
d="M129 72h895q27 0 23 -29l-3 -18q-4 -25 -26 -25h-895q-27 0 -23 29l2 18q4 25 27 25zM1221 1434h24q23 0 19 -29l-172 -1088q-4 -23 -23 -22h-35q-23 0 -18 27l141 895l-510 -900q-12 -23 -20 -22h-15q-14 0 -20 27l-230 895l-141 -900q-4 -23 -22 -22h-35q-23 0 -19 27
l174 1087q4 25 23 25h23q18 0 24 -27l248 -975l553 979q12 23 31 23z" />
    <glyph glyph-name="N.ss04" horiz-adv-x="1105" 
d="M129 72h729q25 0 21 -29l-2 -18q-4 -25 -25 -25h-731q-25 0 -21 29l2 18q4 25 27 25zM1075 1434q23 0 19 -29l-172 -1088q-4 -23 -23 -22h-22q-16 0 -29 27l-477 960l-150 -965q-4 -23 -22 -22h-35q-23 0 -19 27l172 1087q4 25 25 25h20q14 0 29 -33l477 -959l152 967
q4 25 20 25h35z" />
    <glyph glyph-name="O.ss04" horiz-adv-x="1261" 
d="M106 72h930q27 0 23 -29l-2 -18q-4 -25 -25 -25h-932q-27 0 -22 29l2 18q2 25 26 25zM614 348q199 0 350.5 154.5t184.5 363.5t-67.5 361.5t-299.5 152.5t-349 -154.5t-183 -363.5t66 -361.5t298 -152.5zM608 279q-223 0 -349 169.5t-87 417.5t217 416t401 168
t349.5 -170t87.5 -418t-217.5 -415.5t-401.5 -167.5z" />
    <glyph glyph-name="P.ss04" horiz-adv-x="886" 
d="M129 72h518q25 0 21 -29l-2 -18q-2 -25 -25 -25h-518q-27 0 -23 29l4 18q2 25 25 25zM500 788q123 0 193.5 67t95 224.5t-27.5 221t-163 63.5h-211l-90 -576h203zM514 719h-229l-64 -402q-4 -23 -20 -22h-37q-23 0 -19 27l174 1087q4 25 25 25h281q106 0 183 -64
q90 -75 58 -295q-16 -106 -56 -182q-40 -77 -93 -111q-98 -64 -203 -63z" />
    <glyph glyph-name="Q.ss04" horiz-adv-x="1261" 
d="M1034 72q27 0 23 -29l-2 -18q-2 -25 -25 -25h-932q-27 0 -22 29l2 18q4 25 26 25h930zM612.5 348q198.5 0 350 154.5t184.5 363.5t-67.5 361.5t-299.5 152.5t-349 -154.5t-183 -363.5t66.5 -361.5t298 -152.5zM608 279q-225 0 -351 169.5t-87 417.5t217 416t401 168
t349.5 -170t88.5 -413t-206 -410l88 -105q18 -23 -2 -41l-14 -12q-23 -18 -41 4l-88 105q-162 -129 -355 -129z" />
    <glyph glyph-name="R.ss04" horiz-adv-x="917" 
d="M129 72h580q27 0 22 -29l-2 -18q-4 -25 -24 -25h-582q-27 0 -23 29l4 18q6 25 25 25zM522 807q123 0 193.5 67.5t93.5 213.5t-21.5 211t-166.5 65h-234l-88 -557h223zM719 295q-14 0 -27 27l-149 417h-254l-68 -422q-4 -23 -24 -22h-31q-23 0 -19 27l172 1087q4 25 23 25
h309q131 0 197.5 -89.5t41 -247t-96 -242.5t-170.5 -107l147 -431q6 -23 -12 -22h-39z" />
    <glyph glyph-name="S.ss04" horiz-adv-x="894" 
d="M106 72h564q25 0 20 -36t-24 -36h-566q-25 0 -20 29l2 18q4 25 24 25zM422 279q-219 0 -291 143q-12 25 2 33l27 18q16 12 28 -2q57 -123 242 -123q119 0 193.5 60.5t93 163.5t-29.5 152.5t-195.5 125.5t-206 145.5t-39 191.5t111 192.5t222.5 70.5q180 0 276 -113
q20 -23 6 -37l-22 -20q-16 -14 -31 0q-106 100 -216.5 100t-182.5 -54t-85 -148t37 -148.5t152 -105.5q104 -50 142 -74q38 -22 82 -62q81 -73 57.5 -213.5t-121.5 -218t-252 -77.5z" />
    <glyph glyph-name="T.ss04" horiz-adv-x="954" 
d="M68 72h698q27 0 22 -29l-2 -18q-4 -25 -24 -25h-701q-27 0 -22 29l2 18q4 25 27 25zM979 1434q29 0 20.5 -35t-28.5 -35h-312l-163 -1045q-4 -25 -25 -24h-29q-25 0 -20 29l164 1040h-312q-27 0 -18.5 35t27.5 35h696z" />
    <glyph glyph-name="U.ss04" horiz-adv-x="1112" 
d="M172 72h649q27 0 23 -29l-2 -18q-2 -25 -25 -25h-651q-27 0 -23 29l2 18q2 25 27 25zM1081 1434q10 0 16.5 -9.5t4.5 -21.5l-101 -615q-80 -510 -454 -509q-195 0 -280 131t-46 383l101 614q6 27 26 27h29q10 0 16 -9.5t4 -21.5l-100 -608q-35 -217 29.5 -332t224.5 -115
q305 0 377 451l98 608q4 27 25 27h30z" />
    <glyph glyph-name="V.ss04" horiz-adv-x="1017" 
d="M68 72h761q27 0 23 -29l-2 -18q-2 -25 -27 -25h-762q-27 0 -22 29l2 18q4 25 27 25zM1044 1434q12 0 18.5 -9.5t2.5 -21.5l-549 -1088q-10 -20 -27 -20h-8q-16 0 -22 24l-201 1088q-4 27 18 27h33q23 0 23 -31l176 -965l479 969q14 27 31 27h26z" />
    <glyph glyph-name="W.ss04" horiz-adv-x="1376" 
d="M70 72h1118q27 0 22 -29l-2 -18q-4 -25 -26 -25h-1121q-27 0 -22 29l2 18q4 25 29 25zM1403 1434q12 0 18 -13.5t0 -29.5l-424 -1078q-10 -18 -20 -18h-6q-14 0 -19 22l-137 918l-428 -922q-8 -18 -20 -18h-9q-12 0 -16 22l-86 1078q-4 39 25 39h30q16 0 21 -23l69 -917
l418 921q8 18 19 19h10q14 0 16 -19l129 -926l361 926q8 18 24 19h25z" />
    <glyph glyph-name="X.ss04" horiz-adv-x="1001" 
d="M90 72h703q27 0 22 -29l-2 -18q-2 -25 -25 -25h-704q-27 0 -23 29l2 18q2 25 27 25zM840 295h-33q-20 0 -33 27l-213 487l-368 -492q-20 -23 -39 -22h-33q-10 0 -14.5 12t4.5 25l417 542l-227 527q-6 14 -1 23.5t15 9.5h35q14 0 27 -23l203 -469l356 473q12 18 33 19h32
q12 0 16.5 -12.5t-5.5 -26.5l-398 -521l240 -548q6 -10 1 -20.5t-15 -10.5z" />
    <glyph glyph-name="Y.ss04" horiz-adv-x="946" 
d="M68 72h690q27 0 22 -29l-2 -18q-4 -25 -24 -25h-693q-27 0 -22 29l2 18q4 25 27 25zM981 1434q12 0 16 -11.5t-4 -25.5l-430 -611l-74 -469q-4 -23 -24 -22h-29q-25 0 -20 27l71 464l-227 615q-10 33 12 33h31q20 0 31 -23l203 -545l378 545q16 23 35 23h31z" />
    <glyph glyph-name="Z.ss04" horiz-adv-x="950" 
d="M90 72h651q27 0 23 -29l-2 -18q-4 -25 -25 -25h-655q-25 0 -21 29l2 18q2 25 27 25zM309 1364q-25 0 -18.5 35t24.5 35h646q14 0 18 -16.5t-6 -31.5l-756 -1021h574q10 0 16 -8.5t4 -18.5l-4 -21q-4 -23 -25 -22h-653q-16 0 -21.5 15.5t5.5 29.5l755 1024h-559z" />
    <glyph glyph-name="B.ss05" horiz-adv-x="1017" 
d="M129 72h655q27 0 23 -29l-2 -18q-2 -25 -27 -25h-657q-25 0 -21 29l2 18q4 25 27 25zM592 365q205 0 242 237q20 131 -26 179t-110 48h-395l-74 -464h363zM729 1364h-344l-72 -465h357q162 0 200 238q20 133 -17.5 180t-123.5 47zM612 295h-444q-25 0 -21 29l172 1085
q4 25 25 25h426q96 0 149.5 -76t30.5 -228q-31 -203 -139 -256q135 -53 98 -282q-23 -139 -98.5 -218t-198.5 -79z" />
    <glyph glyph-name="C.ss05" horiz-adv-x="1046" 
d="M137 72h656q27 0 22 -29l-2 -18q-2 -25 -25 -25h-659q-25 0 -20 29l2 18q4 25 26 25zM545 279q-199 0 -293 152.5t-49 436t184 433t336 149.5q131 0 212 -89t81 -233q0 -29 -19 -30l-28 -4q-10 -2 -18.5 5t-8.5 21q4 106 -56.5 183t-166.5 77q-164 0 -282 -137
t-156.5 -381t34 -379t232.5 -135q113 0 201 78t126 197q4 14 29 10l25 -4q18 -4 10 -35q-43 -141 -153.5 -228t-239.5 -87z" />
    <glyph glyph-name="D.ss05" horiz-adv-x="1028" 
d="M129 72h668q27 0 22 -29l-2 -18q-2 -25 -24 -25h-670q-27 0 -23 29l2 18q4 25 27 25zM723 1364h-338l-156 -999h334q238 0 289 333l55 353q25 162 -18 237.5t-166 75.5zM731 1434q156 0 219.5 -92.5t26.5 -321.5l-47 -299q-37 -231 -129 -328.5t-246 -97.5h-387
q-8 0 -15.5 9t-5.5 20l172 1085q4 25 25 25h387z" />
    <glyph glyph-name="E.ss05" horiz-adv-x="880" 
d="M131 72h563q25 0 21 -29l-2 -18q-4 -25 -25 -25h-565q-27 0 -23 29l4 18q6 25 27 25zM741 365q24 0 19 -46q-4 -25 -27 -24h-565q-8 0 -15.5 9t-5.5 20l172 1085q4 25 25 25h567q25 0 21 -29l-2 -16q-4 -25 -25 -25h-518l-72 -465h316q25 0 20.5 -34t-24.5 -34h-324
l-72 -466h510z" />
    <glyph glyph-name="F.ss05" horiz-adv-x="884" 
d="M131 72h565q27 0 23 -29l-2 -18q-4 -25 -25 -25h-569q-27 0 -23 29l4 18q6 25 27 25zM909 1434q27 0 21 -45q-4 -25 -27 -25h-516l-78 -506h305q26 0 21.5 -34t-25.5 -33h-313l-74 -472q-4 -25 -22 -24h-35q-23 0 -19 29l172 1085q4 25 25 25h565z" />
    <glyph glyph-name="G.ss05" horiz-adv-x="1099" 
d="M137 72h713q27 0 22 -29l-2 -18q-2 -25 -26 -25h-715q-25 0 -20 29l2 18q4 25 26 25zM963 801q10 0 18 -9.5t6 -21.5l-72 -453q-4 -23 -22 -22h-23q-20 0 -16 27l23 143q-57 -98 -153.5 -142t-184.5 -44q-197 0 -288 153.5t-48 434t182 432t332 151.5q150 0 223.5 -96.5
t73.5 -218.5q0 -35 -19 -37l-28 -4q-10 -2 -18.5 5t-8.5 19q4 98 -49 180t-178 82q-168 0 -282 -144t-150.5 -373.5t30 -372t232.5 -142.5q139 0 241.5 94.5t133.5 290.5l-232 -2q-29 0 -24 31l2 12q4 27 30 27h269z" />
    <glyph glyph-name="I.ss05" horiz-adv-x="538" 
d="M113 72h198q29 0 23 -27l-4 -20q-6 -25 -29 -25h-199q-27 0 -22 27l2 18q4 27 31 27zM516 1364h-61l-158 -999h59q29 0 25 -27l-2 -14q-4 -29 -27 -29h-200q-29 0 -25 29l2 14q4 27 27 27h65l158 999h-62q-27 0 -22 25l4 22q2 23 29 23h198q27 0 23 -27l-2 -18
q-2 -25 -31 -25z" />
    <glyph glyph-name="M.ss05" horiz-adv-x="1208" 
d="M129 72h829q27 0 23 -29l-2 -18q-4 -25 -25 -25h-831q-27 0 -23 29l2 18q4 25 27 25zM1163 1434h17q23 0 18 -29l-172 -1088q-4 -23 -20 -22h-37q-23 0 -19 27l146 927l-432 -616q-14 -16 -23 -17h-10q-12 0 -23 21l-241 612l-146 -932q-4 -23 -22 -22h-37q-20 0 -17 27
l174 1087q4 25 19 25h14q14 0 25 -27l270 -684l483 688q14 23 33 23z" />
    <glyph glyph-name="N.ss05" horiz-adv-x="1060" 
d="M129 72h682q27 0 23 -29l-3 -18q-4 -25 -26 -25h-682q-27 0 -23 29l4 18q2 25 25 25zM1030 1434q23 0 19 -29l-170 -1088q-4 -23 -25 -22h-23q-16 0 -28 27l-432 956l-150 -961q-4 -23 -20 -22h-35q-25 0 -21 27l174 1087q4 25 23 25h20q16 0 31 -33l430 -957l152 965
q4 25 20 25h35z" />
    <glyph glyph-name="O.ss05" horiz-adv-x="1126" 
d="M137 72h735q27 0 23 -29l-2 -18q-4 -25 -25 -25h-737q-27 0 -22 29l2 18q4 25 26 25zM548 348q175 0 287.5 144.5t148.5 374.5t-28.5 371.5t-239.5 141.5t-288 -144t-148.5 -375.5t29 -372t239.5 -140.5zM542 279q-200 0 -292 151.5t-47 436t183 434t337 149.5
t291 -151.5t47 -437.5t-182 -434t-337 -148z" />
    <glyph glyph-name="P.ss05" horiz-adv-x="956" 
d="M129 72h576q27 0 22 -29l-2 -18q-4 -25 -25 -25h-579q-25 0 -21 29l2 18q4 25 27 25zM557 788q123 0 194.5 67t96.5 228q45 281 -193 281h-270l-88 -576h260zM571 719h-286l-64 -402q-4 -23 -22 -22h-35q-23 0 -19 27l172 1087q4 25 25 25h340q121 0 198 -77t46 -282
q-16 -106 -56 -182q-40 -77 -95 -111q-99 -64 -204 -63z" />
    <glyph glyph-name="Q.ss05" horiz-adv-x="1126" 
d="M872 72q27 0 23 -29l-2 -18q-4 -25 -25 -25h-737q-27 0 -22 29l2 18q4 25 26 25h735zM548 348q175 0 287.5 144.5t148.5 374.5t-28.5 371.5t-239.5 141.5t-287.5 -144.5t-148.5 -375.5t28.5 -371.5t239.5 -140.5zM723 1450q199 0 291 -151.5t45 -445.5t-201 -445l92 -109
q16 -23 -2 -41l-14 -12q-23 -18 -41 4l-92 108q-111 -80 -258 -79q-201 0 -293 151.5t-47 436t183 434t337 149.5z" />
    <glyph glyph-name="R.ss05" horiz-adv-x="950" 
d="M129 72h594q25 0 20 -29l-2 -18q-4 -25 -24 -25h-594q-27 0 -23 29l4 18q6 25 25 25zM614 836q78 0 137.5 66.5t81 205t-24.5 197.5t-161 59h-260l-84 -528h311zM166 295q-23 0 -19 27l172 1087q4 25 25 25h332q141 0 200.5 -88.5t36 -236t-88 -226t-138.5 -101.5
q96 -186 96 -436q0 -51 -22 -51h-35q-16 0 -16 29q6 133 -22 255.5t-81 188.5l-313 -2l-72 -449q-4 -23 -22 -22h-33z" />
    <glyph glyph-name="U.ss05" horiz-adv-x="1026" 
d="M166 72h594q27 0 22 -29l-2 -18q-2 -25 -24 -25h-596q-27 0 -23 29l2 18q4 25 27 25zM995 1434q8 0 15.5 -10.5t5.5 -20.5l-119 -746q-27 -168 -108.5 -265t-256.5 -97h-81q-119 0 -183.5 51t-72 133t5.5 183l116 745q4 27 25 27h31q10 0 16 -9.5t4 -21.5l-121 -760
q-43 -279 162 -278h133q96 0 164 70.5t90 211.5l119 760q4 27 25 27h30z" />
    <glyph glyph-name="W.ss05" horiz-adv-x="1376" 
d="M70 72h1118q27 0 22 -29l-2 -18q-4 -25 -24 -25h-1121q-29 0 -24 29l4 18q6 25 27 25zM1403 1434q12 0 19.5 -13.5t-1.5 -29.5l-471 -1078q-8 -18 -22 -18h-6q-14 0 -17 22l-90 918l-379 -922q-8 -18 -22 -18h-8q-12 0 -15 22l-135 1078q-4 39 25 39h30q16 0 21 -23
l102 -932l387 936q8 18 19 19h8q12 0 16 -23l90 -932l400 936q8 18 24 19h25z" />
    <glyph glyph-name="i.loclTRK" horiz-adv-x="360" 
d="M104 0q-10 0 -18 9t-6 20l129 813q4 25 29 24h20q10 0 17.5 -9t5.5 -19l-129 -813q-4 -25 -27 -25h-21zM303 1120q-23 0 -37 15.5t-10 38.5q8 47 55 47q23 0 36 -16.5t9 -39.5q-8 -45 -53 -45z" />
    <glyph glyph-name="ae.ss01" horiz-adv-x="1372" 
d="M413.5 498q-104.5 0 -171 -56.5t-85.5 -156.5t26.5 -167t163.5 -67t180.5 81t72.5 170t-36 142.5t-150.5 53.5zM1022 815q-123 0 -203 -92t-112 -244l493 4q45 332 -178 332zM1030 883q139 0 209 -105.5t33 -337.5q-4 -27 -33 -26l-545 -2q-4 -16 -4 -25
q-14 -152 35 -244t176 -92t242 135q14 16 35 0l18 -16q16 -16 -2 -37q-127 -150 -295 -149q-207 0 -268 180q-98 -180 -309 -180q-143 0 -204 94t-37 217t108.5 196.5t235.5 73.5t198 -102l16 90q47 262 -162 262q-109 0 -219 -74q-16 -8 -25 7l-18 30q-8 16 8 27
q129 78 256 78q219 0 242 -176q119 176 309 176z" />
    <glyph glyph-name="b.ss01" horiz-adv-x="901" 
d="M408.5 51q109.5 0 194.5 98.5t114 274.5t-19.5 283.5t-167.5 107.5q-250 0 -313 -389q-31 -190 25.5 -282.5t166 -92.5zM533 883q166 0 230 -132.5t32.5 -330t-134 -317t-255 -119.5t-230.5 139l-33 -86q-14 -37 -28 -37h-13q-10 0 -17 10t-5 21l221 1392q4 27 27 27h24
q25 0 21 -31l-111 -698q105 162 271 162z" />
    <glyph glyph-name="c.ss01" horiz-adv-x="860" 
d="M375 -16q-176 0 -240.5 124.5t-32 329.5t135 325t280.5 120q250 0 250 -250q0 -25 -18 -29l-23 -4q-33 -4 -33 23q-13 143 -85 175q-38 16 -95 17q-274 0 -334 -385q-10 -96 -6 -180t58.5 -141.5t152.5 -57.5q174 0 248 199q6 20 33 18l24 -4q25 -6 12 -39
q-79 -241 -327 -241z" />
    <glyph glyph-name="cacute.ss01" horiz-adv-x="860" 
d="M375 -16q-176 0 -240.5 124.5t-32 329.5t135 325t280.5 120q250 0 250 -250q0 -25 -18 -29l-23 -4q-33 -4 -33 23q-13 143 -85 175q-38 16 -95 17q-274 0 -334 -385q-10 -96 -6 -180t58.5 -141.5t152.5 -57.5q174 0 248 199q6 20 33 18l24 -4q25 -6 12 -39
q-79 -241 -327 -241zM430 1032q-22 -18 -35.5 2t6.5 41l263 250q25 25 45 -6l16 -23q20 -27 -4 -45z" />
    <glyph glyph-name="ccaron.ss01" horiz-adv-x="860" 
d="M375 -16q-176 0 -240.5 124.5t-32 329.5t135 325t280.5 120q250 0 250 -250q0 -25 -18 -29l-23 -4q-33 -4 -33 23q-13 143 -85 175q-38 16 -95 17q-274 0 -334 -385q-10 -96 -6 -180t58.5 -141.5t152.5 -57.5q174 0 248 199q6 20 33 18l24 -4q25 -6 12 -39
q-79 -241 -327 -241zM532 1044h-8q-27 0 -43 27l-106 166q-20 30 -15 45q11 40 37 8l142 -178l192 182q26 22 37 2q3 -6 -0.5 -25t-22.5 -38l-161 -166q-23 -23 -52 -23z" />
    <glyph glyph-name="ccedilla.ss01" horiz-adv-x="860" 
d="M518 883q250 0 250 -250q0 -25 -18 -29l-23 -4q-33 -4 -33 23q-13 143 -85 175q-38 16 -95 17q-274 0 -334 -385q-10 -96 -6 -180t58.5 -141.5t152.5 -57.5q174 0 248 199q6 20 33 18l24 -4q25 -6 12 -39q-80 -242 -327 -241h-2l-58 -90q70 23 120 -12.5t40 -112.5
t-53 -115.5t-105 -38.5q-88 0 -114 78q-6 18 8 20l33 6q12 2 16 -10q12 -35 57 -35q82 0 97 88q6 47 -24 64.5t-71 7.5l-28 2l-35 17q-16 8 -10 20l67 115q-273 46 -209 460q30 196 133 315.5t281 119.5z" />
    <glyph glyph-name="cdotaccent.ss01" horiz-adv-x="860" 
d="M375 -16q-176 0 -240.5 124.5t-32 329.5t135 325t280.5 120q250 0 250 -250q0 -25 -18 -29l-23 -4q-33 -4 -33 23q-13 143 -85 175q-38 16 -95 17q-274 0 -334 -385q-10 -96 -6 -180t58.5 -141.5t152.5 -57.5q174 0 248 199q6 20 33 18l24 -4q25 -6 12 -39
q-79 -241 -327 -241zM545 1108q-23 0 -37 15.5t-10 37.5q8 47 55 47q23 0 36 -16t9 -39q-8 -45 -53 -45z" />
    <glyph glyph-name="d.ss01" horiz-adv-x="899" 
d="M506 815q-137 0 -218 -109.5t-108 -278.5t19.5 -272.5t186 -103.5t211.5 121q61 102 85 262q61 381 -176 381zM891 1450q25 0 20 -31l-219 -1392q-4 -27 -26 -27h-11q-25 0 -24 41l-2 68q-109 -125 -263.5 -125t-224 126t-39 322.5t137 323.5t267.5 127t222 -135l111 675
q4 27 26 27h25z" />
    <glyph glyph-name="dcaron.ss01" horiz-adv-x="1081" 
d="M506 815q-137 0 -218 -109.5t-108 -278.5t19.5 -272.5t186 -103.5t211.5 121q61 102 85 262q61 381 -176 381zM1085 1434h97q34 0 28 -31l-16 -107q-18 -125 -178 -204q-12 -6 -20.5 11t5.5 25q111 66 123 148l-69 24q-23 6 -19 29l13 74q6 31 36 31zM891 1450
q25 0 20 -31l-219 -1392q-4 -27 -26 -27h-11q-25 0 -24 41l-2 68q-109 -125 -263.5 -125t-224 126t-39 322.5t137 323.5t267.5 127t222 -135l111 675q4 27 26 27h25z" />
    <glyph glyph-name="dcroat.ss01" horiz-adv-x="962" 
d="M506 815q-137 0 -218 -109.5t-108 -278.5t19.5 -272.5t185.5 -103.5t212 121q61 102 85 262q61 381 -176 381zM989 1206q35 0 29 -32v-7q-6 -29 -35 -28h-117l-174 -1112q-4 -27 -26 -27h-11q-25 0 -24 41l-2 68q-109 -125 -263.5 -125t-224 126t-39 322.5t137 323.5
t267.5 127t222 -135l64 391h-119q-40 0 -29 39q2 29 35 28h125l35 217q4 27 26 27h25q25 0 20 -31l-32 -213h110z" />
    <glyph glyph-name="e.ss01" horiz-adv-x="856" 
d="M506 815q-123 0 -203 -92t-113 -244l494 4q45 332 -178 332zM383 51q129 0 244 135q14 16 35 0l18 -16q16 -16 -2 -37q-127 -150 -295 -149.5t-240.5 121t-40 328.5t144 329t259 121t217.5 -105.5t33 -337.5q-4 -27 -33 -26l-547 -2q-20 -160 29 -260.5t178 -100.5z" />
    <glyph glyph-name="eacute.ss01" horiz-adv-x="856" 
d="M506 815q-123 0 -203 -92t-113 -244l494 4q45 332 -178 332zM383 51q129 0 244 135q14 16 35 0l18 -16q16 -16 -2 -37q-127 -150 -295 -149.5t-240.5 121t-40 328.5t144 329t259 121t217.5 -105.5t33 -337.5q-4 -27 -33 -26l-547 -2q-20 -160 29 -260.5t178 -100.5z
M432 1032q-22 -18 -35.5 2t6.5 41l263 250q25 25 45 -6l16 -23q20 -27 -4 -45z" />
    <glyph glyph-name="ecaron.ss01" horiz-adv-x="856" 
d="M506 815q-123 0 -203 -92t-113 -244l494 4q45 332 -178 332zM383 51q129 0 244 135q14 16 35 0l18 -16q16 -16 -2 -37q-127 -150 -295 -149.5t-240.5 121t-40 328.5t144 329t259 121t217.5 -105.5t33 -337.5q-4 -27 -33 -26l-547 -2q-20 -160 29 -260.5t178 -100.5z
M535 1044h-9q-27 0 -43 27l-106 166q-20 30 -15 45q11 40 37 8l142 -178l192 182q26 22 37 2q3 -6 -0.5 -25t-21.5 -38l-162 -166q-23 -23 -51 -23z" />
    <glyph glyph-name="ecircumflex.ss01" horiz-adv-x="856" 
d="M506 815q-123 0 -203 -92t-113 -244l494 4q45 332 -178 332zM383 51q129 0 244 135q14 16 35 0l18 -16q16 -16 -2 -37q-127 -150 -295 -149.5t-240.5 121t-40 328.5t144 329t259 121t217.5 -105.5t33 -337.5q-4 -27 -33 -26l-547 -2q-20 -160 29 -260.5t178 -100.5z
M565 1305h8q27 0 43 -27l107 -166q19 -29 15 -45q-11 -38 -38 -8l-141 178l-192 -182q-25 -22 -37 -1q-3 6 0.5 24.5t21.5 37.5l162 166q23 23 51 23z" />
    <glyph glyph-name="edieresis.ss01" horiz-adv-x="856" 
d="M506 815q-123 0 -203 -92t-113 -244l494 4q45 332 -178 332zM383 51q129 0 244 135q14 16 35 0l18 -16q16 -16 -2 -37q-127 -150 -295 -149.5t-240.5 121t-40 328.5t144 329t259 121t217.5 -105.5t33 -337.5q-4 -27 -33 -26l-547 -2q-20 -160 29 -260.5t178 -100.5z
M659 1116q-20 0 -32.5 13.5t-10.5 33.5q6 41 48 41q20 0 32.5 -14t10.5 -35q-7 -39 -48 -39zM442 1116q-20 0 -32.5 13.5t-10.5 33.5q6 41 47 41q20 0 33 -14t10 -35q-6 -39 -47 -39z" />
    <glyph glyph-name="edotaccent.ss01" horiz-adv-x="856" 
d="M506 815q-123 0 -203 -92t-113 -244l494 4q45 332 -178 332zM383 51q129 0 244 135q14 16 35 0l18 -16q16 -16 -2 -37q-127 -150 -295 -149.5t-240.5 121t-40 328.5t144 329t259 121t217.5 -105.5t33 -337.5q-4 -27 -33 -26l-547 -2q-20 -160 29 -260.5t178 -100.5z
M547 1108q-23 0 -37 15.5t-10 37.5q8 47 55 47q23 0 36 -16t9 -39q-8 -45 -53 -45z" />
    <glyph glyph-name="egrave.ss01" horiz-adv-x="856" 
d="M506 815q-123 0 -203 -92t-113 -244l494 4q45 332 -178 332zM383 51q129 0 244 135q14 16 35 0l18 -16q16 -16 -2 -37q-127 -150 -295 -149.5t-240.5 121t-40 328.5t144 329t259 121t217.5 -105.5t33 -337.5q-4 -27 -33 -26l-547 -2q-20 -160 29 -260.5t178 -100.5z
M686 1032l-291 219q-25 18 -4 45l17 23q20 31 45 6l262 -250q20 -20 6 -41q-15 -18 -35 -2z" />
    <glyph glyph-name="emacron.ss01" horiz-adv-x="856" 
d="M506 815q-123 0 -203 -92t-113 -244l494 4q45 332 -178 332zM383 51q129 0 244 135q14 16 35 0l18 -16q16 -16 -2 -37q-127 -150 -295 -149.5t-240.5 121t-40 328.5t144 329t259 121t217.5 -105.5t33 -337.5q-4 -27 -33 -26l-547 -2q-20 -160 29 -260.5t178 -100.5z
M365 1106q-38 0 -29 43q6 29 35 29h364q38 0 29 -43q-6 -29 -35 -29h-364z" />
    <glyph glyph-name="eogonek.ss01" horiz-adv-x="856" 
d="M506 815q-123 0 -203 -92t-113 -244l494 4q45 332 -178 332zM505.5 883q147.5 0 217.5 -105.5t33 -337.5q-4 -27 -33 -26l-547 -2q-20 -160 29 -260.5t178 -100.5t244 135q14 16 35 0l18 -16q16 -16 -2 -37q-70 -82 -148 -117q-61 -35 -122.5 -102.5t-70.5 -125.5
t16.5 -87t84 -29t90.5 52q11 11 28 -2t7 -38.5t-54 -52t-110.5 -26.5t-112.5 43t-34 121q20 123 176 217q-16 -2 -45 -2q-168 0 -240.5 120.5t-40 328.5t144 329t259 121z" />
    <glyph glyph-name="o.ss01" horiz-adv-x="907" 
d="M391 51q276 0 337.5 382t-208.5 382q-143 0 -229 -106.5t-115 -278.5t22.5 -275.5t192.5 -103.5zM388 -16q-177 0 -247.5 123.5t-39 325.5t138 326t285.5 124t245 -128t34 -328t-135.5 -321.5t-280.5 -121.5z" />
    <glyph glyph-name="oacute.ss01" horiz-adv-x="907" 
d="M391 51q276 0 337.5 382t-208.5 382q-143 0 -229 -106.5t-115 -278.5t22.5 -275.5t192.5 -103.5zM388 -16q-177 0 -247.5 123.5t-39 325.5t138 326t285.5 124t245 -128t34 -328t-135.5 -321.5t-280.5 -121.5zM463 1032q-22 -18 -35.5 2t6.5 41l262 250q25 25 45 -6
l17 -23q20 -27 -4 -45z" />
    <glyph glyph-name="ocircumflex.ss01" horiz-adv-x="907" 
d="M391 51q276 0 337.5 382t-208.5 382q-143 0 -229 -106.5t-115 -278.5t22.5 -275.5t192.5 -103.5zM388 -16q-177 0 -247.5 123.5t-39 325.5t138 326t285.5 124t245 -128t34 -328t-135.5 -321.5t-280.5 -121.5zM596 1305h8q27 0 43 -27l107 -166q19 -29 15 -45
q-11 -40 -38 -8l-141 178l-193 -182q-25 -21 -37 -1q-4 6 0 24.5t23 37.5l162 166q23 23 51 23z" />
    <glyph glyph-name="odieresis.ss01" horiz-adv-x="907" 
d="M391 51q276 0 337.5 382t-208.5 382q-143 0 -229 -106.5t-115 -278.5t22.5 -275.5t192.5 -103.5zM388 -16q-177 0 -247.5 123.5t-39 325.5t138 326t285.5 124t245 -128t34 -328t-135.5 -321.5t-280.5 -121.5zM690 1116q-20 0 -32.5 13.5t-10.5 33.5q6 41 47 41
q20 0 32.5 -14t10.5 -35q-6 -39 -47 -39zM473 1116q-20 0 -32.5 13.5t-10.5 33.5q6 41 47 41q20 0 32.5 -14t10.5 -35q-6 -39 -47 -39z" />
    <glyph glyph-name="ograve.ss01" horiz-adv-x="907" 
d="M391 51q276 0 337.5 382t-208.5 382q-143 0 -229 -106.5t-115 -278.5t22.5 -275.5t192.5 -103.5zM388 -16q-177 0 -247.5 123.5t-39 325.5t138 326t285.5 124t245 -128t34 -328t-135.5 -321.5t-280.5 -121.5zM717 1032l-291 219q-25 18 -4 45l16 23q20 31 45 6l262 -250
q21 -21 7 -41q-15 -18 -35 -2z" />
    <glyph glyph-name="ohungarumlaut.ss01" horiz-adv-x="907" 
d="M391 51q276 0 337.5 382t-208.5 382q-143 0 -229 -106.5t-115 -278.5t22.5 -275.5t192.5 -103.5zM388 -16q-177 0 -247.5 123.5t-39 325.5t138 326t285.5 124t245 -128t34 -328t-135.5 -321.5t-280.5 -121.5zM360 1051l-4 4q-20 14 2 41l179 233q20 27 43 0l16 -18
q16 -23 -2 -45l-199 -213q-15 -14 -35 -2zM662 1055q-15 -14 -36 0t-1 43l178 233q20 27 43 0l16 -18q23 -23 -2 -45z" />
    <glyph glyph-name="omacron.ss01" horiz-adv-x="907" 
d="M391 51q276 0 337.5 382t-208.5 382q-143 0 -229 -106.5t-115 -278.5t22.5 -275.5t192.5 -103.5zM388 -16q-177 0 -247.5 123.5t-39 325.5t138 326t285.5 124t245 -128t34 -328t-135.5 -321.5t-280.5 -121.5zM395 1106q-37 0 -29.5 36t35.5 36h365q38 0 29 -43
q-6 -29 -35 -29h-365z" />
    <glyph glyph-name="oslash.ss01" horiz-adv-x="907" 
d="M391 51q277 0 338 385q33 199 -31 297l-436 -649q53 -33 129 -33zM520 815q-143 0 -229 -106.5t-117 -291t37 -284.5l436 649q-53 33 -127 33zM735 883h29q14 0 16 -12.5t-8 -26.5l-31 -47q102 -121 62 -371q-31 -199 -134.5 -320.5t-279.5 -121.5q-98 0 -168 41
q-26 -42 -51 -41h-14q-20 0 -23.5 16t8.5 31l27 39q-104 121 -66 366q31 199 137.5 323t284.5 124q98 0 164 -41q27 41 47 41z" />
    </font>
</defs>
</svg>
