<?xml version="1.0" standalone="no"?>
<!DOCTYPE svg PUBLIC "-//W3C//DTD SVG 1.1//EN" "http://www.w3.org/Graphics/SVG/1.1/DTD/svg11.dtd" >
<svg xmlns="http://www.w3.org/2000/svg">
<metadata>
Created by FontPrep 20130207 at Tue Apr  4 15:34:48 2017
 By Tina Muller
Copyright 2016 by Paulo Goode. All rights reserved.
</metadata>
<defs>
<font id="e33779abaa52bf778efe7c6765d3aa92" horiz-adv-x='1024' >
  <font-face 
    font-family="WoodfordBournePRO-Ultra"
    font-weight="900"
    font-stretch="normal"
    units-per-em="2048"
    panose-1="0 0 10 0 0 0 0 0 0 0"
    ascent="1638"
    descent="-410"
    x-height="866"
    cap-height="1434"
    bbox="-1309 -590 5430.45 2021"
    underline-thickness="102"
    underline-position="-102"
    unicode-range="U+0020-FB02"
  />
<missing-glyph horiz-adv-x="2211" 
d="M1290 627l234 -236q25 -23 2 -45l-140 -139q-20 -25 -45 0l-235 235l-236 -235q-25 -25 -45 0l-139 139q-23 23 2 45l236 236l-236 233q-25 25 -2 45l139 139q20 25 45 0l236 -235l235 235q25 25 45 0l140 -139q23 -20 -2 -45zM1532 1311q-35 0 -35 32v295q0 31 35 31
h549q12 0 21 -9t9 -22v-1955q0 -11 -9 -21t-21 -10h-549q-35 0 -35 31v294q0 33 35 33h188v1301h-188zM762 1311h-189v-1301h189q35 0 35 -33v-294q0 -31 -35 -31h-549q-12 0 -22 9q-9 9 -9 22v1955q0 12 9 22t22 9h549q35 0 35 -31v-295q0 -32 -35 -32z" />
    <glyph glyph-name="fi" unicode="fi" horiz-adv-x="1282" 
d="M152 866v101q0 259 122 371t324 112q256 0 442 -119q29 -18 11 -43l-140 -186q-16 -25 -39 -12q-96 68 -178 68t-123 -53q-41 -52 -41 -144v-95h627q29 0 29 -30v-807q0 -29 -31 -29h-317q-31 0 -31 29v542h-277v-540q0 -31 -30 -31h-316q-33 0 -32 31v540h-68
q-29 0 -29 31v234q0 31 29 30h68z" />
    <glyph glyph-name="fl" unicode="fl" horiz-adv-x="1282" 
d="M1155 1450q11 0 21 -9t10 -24v-1386q0 -31 -31 -31h-319q-29 0 -29 31v921q0 186 -141 187q-60 1 -98 -59t-38 -134v-80h88q12 0 22 -9t9 -21v-234q0 -12 -9 -21t-22 -10h-88v-540q0 -31 -30 -31h-316q-33 0 -32 31v540h-68q-29 0 -29 31v234q0 31 29 30h68v72
q0 479 450 479q117 0 205 -49v49q0 33 29 33h319z" />
    <glyph glyph-name="f_f" unicode="ff" horiz-adv-x="1587" 
d="M670 1112q-66 0 -103 -50t-37 -118v-78h277q-4 246 -137 246zM1393 1145h-17q-39 12 -63 12q-68 0 -98 -49t-29 -147v-95h157q11 0 21 -9t10 -21v-232q0 -12 -9 -21t-22 -10h-157v-542q0 -31 -31 -31h-315q-33 0 -33 31v542h-277v-542q0 -31 -30 -31h-316q-33 0 -32 31
v542h-68q-29 0 -29 31v232q0 31 29 30h68v84q0 248 143 344q143 97 319 97q175 0 330 -41q111 100 307 100q90 0 176 -20q85 -20 109 -37q24 -18 14 -47l-139 -187q-9 -14 -18 -14z" />
    <glyph glyph-name="f_f_i" unicode="ffi" horiz-adv-x="1937" 
d="M670 1112q-66 0 -103 -50t-37 -118v-78h277q-4 246 -137 246zM1812 866q29 0 29 -30v-807q0 -29 -31 -29h-317q-31 0 -31 29v542h-276v-540q0 -31 -31 -31h-315q-33 0 -33 31v540h-277v-540q0 -31 -30 -31h-316q-33 0 -32 31v540h-68q-29 0 -29 31v234q0 31 29 30h68v84
q0 248 143 344q143 97 318 97q174 0 329 -41q111 100 311 100q256 0 443 -119q29 -18 10 -43l-139 -186q-16 -25 -39 -12q-96 68 -178 68q-164 -1 -164 -197v-95h626z" />
    <glyph glyph-name="f_f_l" unicode="ffl" horiz-adv-x="1937" 
d="M670 1112q-66 0 -103 -50t-37 -118v-78h277q-4 246 -137 246zM1810 1450q12 0 22 -9t9 -24v-1386q0 -31 -31 -31h-319q-29 0 -29 31v921q0 186 -141 187q-61 1 -98 -59t-37 -134v-80h88q12 0 21 -9t10 -21v-234q1 -12 -9 -21t-22 -10h-88v-540q0 -31 -31 -31h-315
q-33 0 -33 31v540h-277v-540q0 -31 -30 -31h-316q-33 0 -32 31v540h-68q-29 0 -29 31v234q0 31 29 30h68v84q0 248 143 344q143 97 324 97q180 0 356 -50q109 76 282 76q117 0 205 -49v49q0 33 29 33h319z" />
    <glyph glyph-name=".notdef" horiz-adv-x="2211" 
d="M1290 627l234 -236q25 -23 2 -45l-140 -139q-20 -25 -45 0l-235 235l-236 -235q-25 -25 -45 0l-139 139q-23 23 2 45l236 236l-236 233q-25 25 -2 45l139 139q20 25 45 0l236 -235l235 235q25 25 45 0l140 -139q23 -20 -2 -45zM1532 1311q-35 0 -35 32v295q0 31 35 31
h549q12 0 21 -9t9 -22v-1955q0 -11 -9 -21t-21 -10h-549q-35 0 -35 31v294q0 33 35 33h188v1301h-188zM762 1311h-189v-1301h189q35 0 35 -33v-294q0 -31 -35 -31h-549q-12 0 -22 9q-9 9 -9 22v1955q0 12 9 22t22 9h549q35 0 35 -31v-295q0 -32 -35 -32z" />
    <glyph glyph-name=".null" 
 />
    <glyph glyph-name="nonmarkingreturn" horiz-adv-x="681" 
 />
    <glyph glyph-name="space" unicode=" " horiz-adv-x="448" 
 />
    <glyph glyph-name="exclam" unicode="!" horiz-adv-x="692" 
d="M346 -16q-78 0 -134 56t-56 134t56 134t135 56t134 -54q55 -56 55 -136t-56 -135t-134 -55zM244 471q-29 0 -35 31l-76 917q-2 31 29 31h368q31 0 29 -31l-78 -917q-2 -31 -32 -31h-205z" />
    <glyph glyph-name="quotedbl" unicode="&#x22;" horiz-adv-x="831" 
d="M555 930q-31 0 -33 31l-61 503q-2 31 26 31h250q29 0 25 -31l-62 -503q-4 -31 -32 -31h-113zM164 930q-29 0 -33 31l-61 503q-4 31 26 31h250q27 0 25 -31l-62 -503q-2 -31 -33 -31h-112z" />
    <glyph glyph-name="numbersign" unicode="#" horiz-adv-x="1536" 
d="M827 629l60 239h-176l-64 -239h180zM1411 1165q9 0 21 -8t12 -22v-236q0 -14 -12 -22t-21 -9h-180l-62 -239h111q10 0 22 -8t11 -23v-236q0 -14 -11 -22t-22 -8h-182l-74 -301q-6 -31 -45 -31h-262q-41 0 -33 45l72 287h-181l-73 -301q-6 -31 -45 -31h-262q-39 0 -31 45
l69 287h-106q-33 0 -33 30v236q0 31 33 31h178l60 239h-111q-33 0 -33 31v236q0 31 33 30h182l64 254q6 31 41 31h276q33 0 25 -37l-64 -248h180l62 254q6 31 43 31h276q33 0 25 -37l-64 -248h111z" />
    <glyph glyph-name="dollar" unicode="$" horiz-adv-x="1359" 
d="M1262 436q0 -133 -93.5 -259t-294.5 -175v-129q0 -29 -30 -29h-332q-31 0 -31 29v125q-225 41 -364 180q-8 8 -8 21.5t8 19.5l215 211q16 16 39 2q98 -80 311 -80q63 0 124.5 21.5t61.5 62.5q0 20 -8 32q-21 33 -195.5 63t-290.5 78t-174.5 110.5t-81 125t-22.5 140.5
t35 163t127 167t223 115v124q0 35 31 35h332q31 0 30 -35v-122q203 -43 373 -181q10 -8 10 -21t-8 -24l-217 -213q-20 -16 -39 -4q-125 92 -315.5 92t-190.5 -69q0 -41 46.5 -64.5t183.5 -46.5q311 -53 428 -166t117 -299z" />
    <glyph glyph-name="percent" unicode="%" horiz-adv-x="2172" 
d="M1722 258q59 0 80 48q20 48 20 144t-20 146q-20 49 -80 49t-81 -50t-21 -144t21 -144q22 -49 81 -49zM1722 -16q-188 0 -280 108t-92 359q0 249 92 359t280 110t280 -110t91 -360q0 -250 -91 -358q-92 -108 -280 -108zM453 791q59 0 79 48t21 144q-1 96 -21 145
q-20 50 -79 50t-81 -50t-22 -145q0 -94 22 -143t81 -49zM657 0q-20 0 -30 14t-2 31l680 1358q14 31 41 31h200q16 0 24 -10t-1 -27l-682 -1366q-14 -31 -43 -31h-187zM453 516q-188 0 -281 109q-92 109 -92 359t92 358q92 110 280 110t280 -110q91 -110 91 -360t-91 -358
t-279 -108z" />
    <glyph glyph-name="ampersand" unicode="&#x26;" horiz-adv-x="1363" 
d="M524 311q78 0 148 97q-29 27 -170 174q-78 -82 -78 -183q0 -88 100 -88zM633 1097q0 77 -53 77q-25 0 -39 -20q-15 -20 -15 -54q0 -33 60 -115q47 74 47 112zM70 399q0 190 262 394q-123 168 -123 282q0 180 107 278q108 97 270 97t262 -91t100 -261t-186 -326l115 -115
q94 86 188 140q23 16 43 -4l160 -201q16 -23 -4 -41q-76 -49 -146 -121q103 -90 207 -180q23 -20 2 -41l-190 -197q-25 -25 -45 -4q-43 42 -109 102t-74 68q-172 -194 -383 -194q-212 0 -334 124t-122 291z" />
    <glyph glyph-name="quotesingle" unicode="'" horiz-adv-x="440" 
d="M164 930q-29 0 -33 31l-61 503q-4 31 26 31h250q27 0 25 -31l-62 -503q-2 -31 -33 -31h-112z" />
    <glyph glyph-name="parenleft" unicode="(" horiz-adv-x="821" 
d="M135 710q0 254 90 500t224 394q20 25 51 10l202 -105q37 -14 21 -43q-82 -131 -138 -342t-53 -415q-2 -414 195 -758q4 -9 -1 -21t-15 -14l-209 -131q-27 -8 -43 8q-127 131 -226 397q-98 266 -98 520z" />
    <glyph glyph-name="parenright" unicode=")" horiz-adv-x="821" 
d="M686 710q0 -254 -98 -520t-226 -397q-16 -16 -43 -8l-208 131q-9 2 -15 13t-2 22q197 344 195 758q4 205 -52 415t-139 342q-16 29 21 43l203 105q31 14 51 -10q133 -148 223 -394t90 -500z" />
    <glyph glyph-name="asterisk" unicode="*" horiz-adv-x="792" 
d="M301 1450h123q33 0 31 -29l-29 -161v-3l145 78q9 4 21 -2t16 -18l37 -117q8 -31 -18 -37l-164 -20v-2l117 -121q18 -25 -11 -41l-100 -72q-27 -18 -41 10l-63 140h-5l-63 -140q-5 -10 -19 -13t-22 5l-102 70q-27 18 -9 41l119 119h-2l-166 24q-27 6 -18 37l39 117
q11 27 35 18l147 -76v3l-29 159q-2 15 8 23t23 8z" />
    <glyph glyph-name="plus" unicode="+" horiz-adv-x="1099" 
d="M973 829q33 0 33 -30v-199q0 -31 -33 -31h-277v-295q0 -33 -30 -32h-232q-31 0 -31 32v295h-276q-33 0 -33 31v199q0 31 33 30h276v297q0 33 31 33h232q31 0 30 -33v-297h277z" />
    <glyph glyph-name="comma" unicode="," horiz-adv-x="575" 
d="M459 317v-313q1 -143 -103 -265t-264 -190q-18 -8 -32 24t8 44q139 72 196 157t58 199l-177 62q-35 12 -34 45v237q0 31 32 31h283q33 0 33 -31z" />
    <glyph glyph-name="hyphen" unicode="-" horiz-adv-x="798" 
d="M127 313q-33 0 -33 31v197q0 31 33 30h545q33 0 33 -30v-197q0 -31 -33 -31h-545z" />
    <glyph glyph-name="period" unicode="." horiz-adv-x="583" 
d="M150 0q-33 0 -33 31v288q0 29 33 29h284q33 0 33 -29v-288q0 -31 -33 -31h-284z" />
    <glyph glyph-name="slash" unicode="/" horiz-adv-x="993" 
d="M287 0h-189q-20 0 -30 15t-2 32l598 1356q12 31 41 31h202q17 0 23 -12t0 -25l-600 -1366q-14 -31 -43 -31z" />
    <glyph glyph-name="zero" unicode="0" horiz-adv-x="1355" 
d="M674 336q53 0 87 8q53 12 90 83q18 37 21 121q2 85 2 169q0 243 -19 280q-41 77 -94 88q-88 21 -154 4q-119 -30 -124 -210q-2 -82 -2 -170q0 -267 43 -316q50 -57 150 -57zM678 -16q-297 0 -439 170t-143 563q0 393 142 563t440 170q297 0 439 -170q143 -170 143 -563
t-142 -563t-440 -170z" />
    <glyph glyph-name="one" unicode="1" horiz-adv-x="1167" 
d="M383 328v692l-229 -27q-10 1 -18 11t-9 20v262q0 16 31 29l243 112q30 7 35 7h320q29 0 28 -31v-1075h254q12 0 22 -10t9 -21v-268q0 -29 -31 -29h-911q-31 0 -31 29v268q0 12 9 21t22 10h256z" />
    <glyph glyph-name="two" unicode="2" horiz-adv-x="1261" 
d="M1137 358q12 0 21 -9t9 -21v-299q0 -29 -30 -29h-983q-31 0 -31 29v243q0 18 12 27l336 354q264 279 264 357q0 43 -26 63q-27 21 -100 21t-107 -29t-31 -92q0 -25 -29 -25h-319q-31 0 -33 33q0 174 104 308q56 73 168 117t271 44h2q266 0 388 -125t122 -315
q0 -96 -40 -186t-79 -130l-321 -336h432z" />
    <glyph glyph-name="three" unicode="3" horiz-adv-x="1255" 
d="M641 1450q270 0 387 -120t117 -310q0 -236 -162 -299q180 -76 180 -315q0 -186 -125 -304t-409 -118q-145 0 -255 41q-186 69 -253 241q-27 70 -27 142q0 35 31 34h317q31 0 31 -30q2 -72 156 -72q83 0 117 24t34 83t-30 71q-31 12 -172 12h-39q-31 0 -31 29v299
q0 29 31 29h39q99 0 126 6q26 6 36 8q25 5 24 45q-2 40 -2 49q0 55 -32 77t-101 22q-154 0 -156 -80q0 -25 -29 -25h-319q-31 0 -31 37q0 149 114 279q58 65 170 105t263 40z" />
    <glyph glyph-name="four" unicode="4" horiz-adv-x="1368" 
d="M745 616v367l-221 -367h221zM778 0q-31 0 -33 31v231h-639q-31 0 -30 29v235q0 14 8 27l537 862q7 19 30 19h467q29 0 29 -31v-787h94q31 0 31 -28v-297q0 -29 -31 -29h-94v-231q0 -31 -29 -31h-340z" />
    <glyph glyph-name="five" unicode="5" horiz-adv-x="1255" 
d="M1163 479q0 -239 -142 -367q-143 -128 -379 -128t-392 108t-156 318q0 33 31 32h317q31 0 31 -24q2 -78 156 -78q67 0 109 37t42 112q0 117 -89 153t-245 -50q-20 -12 -38 -6l-293 59q-25 6 -23 31l115 729q4 29 31 29h811q33 0 32 -29v-297q0 -12 -9 -22t-23 -9l-545 -2
l-21 -133q281 84 481 -48t199 -415z" />
    <glyph glyph-name="six" unicode="6" horiz-adv-x="1261" 
d="M653 657q-69 0 -105 -48q-36 -49 -36 -117t38 -110t104 -42q67 0 105 44t38 111t-37 115t-107 47zM692 973q215 0 344 -140t129 -351t-154 -355q-155 -143 -356 -143q-259 0 -409 187t-150 514t155 546t421 219q200 0 322 -119t120 -252q0 -33 -22 -32h-295q-23 0 -33 24
q-22 23 -104 23t-132 -43t-53 -125q88 47 217 47z" />
    <glyph glyph-name="seven" unicode="7" horiz-adv-x="1236" 
d="M129 1075q-29 0 -29 31v295q0 33 29 33h1020q15 0 25 -14t2 -29l-660 -1360q-18 -31 -51 -31h-348q-16 0 -27 14q-10 14 -2 29l502 1032h-461z" />
    <glyph glyph-name="eight" unicode="8" horiz-adv-x="1259" 
d="M632 336q152 0 150 92q0 43 -39 87t-110 69q-74 -23 -114 -67t-40 -89q1 -92 153 -92zM632 1094q-54 0 -88 -29t-34 -63t32 -72t93 -62q111 45 110 121q0 43 -29 74q-30 31 -84 31zM1163 411q0 -196 -136 -312q-136 -115 -396 -115t-398 115q-137 117 -137 311t168 301
q-135 127 -135 308t129 306t369 125q239 0 369 -125t130 -308t-129 -304q166 -106 166 -302z" />
    <glyph glyph-name="nine" unicode="9" horiz-adv-x="1263" 
d="M629 1114q-59 0 -105 -42t-47 -118t53 -118t110 -41q56 0 92 48q36 49 36 115t-40 111t-99 45zM1167 672q-1 -344 -155 -516t-398 -172t-369 118q-126 118 -124 250q0 35 22 35h324q20 0 33 -25q18 -22 101 -22t127 27t50 106q-45 -12 -147 -12q-250 0 -392 141
q-143 141 -143 364q0 224 154 354t387 130q530 0 530 -778z" />
    <glyph glyph-name="colon" unicode=":" horiz-adv-x="665" 
d="M190 0q-33 0 -32 31v288q0 29 32 29h285q33 0 33 -29v-288q0 -31 -33 -31h-285zM190 502q-33 0 -32 30v289q0 29 32 29h285q33 0 33 -29v-289q0 -31 -33 -30h-285z" />
    <glyph glyph-name="semicolon" unicode=";" horiz-adv-x="657" 
d="M500 317v-313q0 -143 -104 -265t-263 -190q-19 -8 -33 24t9 44q139 72 196 157t57 199l-176 62q-35 12 -34 45v237q0 31 32 31h283q33 0 33 -31zM184 502q-33 0 -32 30v289q0 29 32 29h285q33 0 33 -29v-289q0 -31 -33 -30h-285z" />
    <glyph glyph-name="less" unicode="&#x3c;" horiz-adv-x="1163" 
d="M94 774q0 29 21 37l835 344q31 12 43 -16l74 -183q8 -29 -18 -41l-508 -213l512 -204q27 -12 18 -41l-76 -183q-12 -29 -43 -16l-837 340q-20 8 -21 35v141z" />
    <glyph glyph-name="equal" unicode="=" horiz-adv-x="1179" 
d="M127 385q-33 0 -33 31v196q0 31 33 31h926q33 0 32 -31v-196q0 -31 -32 -31h-926zM127 760q-33 0 -33 31v196q0 31 33 31h926q33 0 32 -31v-196q0 -31 -32 -31h-926z" />
    <glyph glyph-name="greater" unicode="&#x3e;" horiz-adv-x="1163" 
d="M1069 774v-141q0 -27 -20 -35l-838 -340q-31 -12 -43 16l-76 183q-8 29 19 41l512 204l-508 213q-27 12 -19 41l74 183q12 29 43 16l836 -344q20 -8 20 -37z" />
    <glyph glyph-name="question" unicode="?" horiz-adv-x="1214" 
d="M524 -16q-78 0 -134 55t-56 135t56 135t134 55t133 -56t55 -134t-54 -134q-56 -56 -134 -56zM636 1450q150 0 254 -40t154 -106q95 -124 95 -267q-1 -142 -63 -215t-206 -152q-8 -4 -30 -16t-46 -21q-23 -10 -31 -19q-9 -10 -21 -20t-25 -36q-12 -26 -14 -65
q-1 -39 -27 -38h-303q-29 0 -29 26q0 139 38 217t134 138q28 16 102 54t106 66t32 64q0 74 -119 74q-172 0 -176 -185q-2 -23 -29 -28q-215 0 -323 -2q-20 -2 -27 9q-6 11 -6 40q-4 102 25 192q69 208 271 286q114 44 264 44z" />
    <glyph glyph-name="at" unicode="@" horiz-adv-x="2281" 
d="M1133 262q59 0 89 46t30 120t-30 122t-89 48t-93 -49t-34 -121t34 -119t93 -47zM2187 868v-553q-1 -158 -111 -254t-337 -96q-274 0 -387 154q-102 -135 -299 -135t-299 128t-102 324t107 321q108 126 304 126q135 0 227 -70l19 25q31 31 53 30h219q11 0 21 -9t10 -23
v-494q0 -47 28 -70q28 -22 60 -22q31 0 51 8t40 43q19 35 19 92v477q0 82 -46 144t-124 61h-651q-225 0 -382 -177t-156 -470q0 -219 108 -385q10 -11 2 -27t-26 -16h-318q-41 0 -72 43q-72 156 -71 369q0 392 262 670t653 278h649q549 2 549 -492z" />
    <glyph glyph-name="A" unicode="A" horiz-adv-x="1583" 
d="M672 508h239l-108 229l-12 27zM872 1450q23 0 35 -31l617 -1388q4 -12 -3.5 -21.5t-19.5 -9.5h-348q-14 0 -33 31l-53 123h-551l-55 -123q-12 -31 -31 -31h-354q-12 0 -17.5 9t-1.5 22l617 1388q12 31 33 31h165z" />
    <glyph glyph-name="B" unicode="B" horiz-adv-x="1292" 
d="M543 356h184q41 0 64.5 27t23.5 70t-25.5 70.5t-70.5 27.5h-176v-195zM690 1077h-147v-194h133q47 0 75.5 28.5t28.5 67.5t-25.5 68.5t-64.5 29.5zM1217 421q0 -177 -112 -298t-265 -123h-668q-12 0 -21.5 9t-9.5 22v1372q0 12 9.5 21.5t21.5 9.5h629q156 -2 266.5 -125
t110.5 -290t-129 -290q168 -131 168 -308z" />
    <glyph glyph-name="C" unicode="C" horiz-adv-x="1474" 
d="M813 -16q-303 0 -520 214t-217 519t217 519t520 214q168 0 313.5 -67.5t247.5 -188.5q20 -20 2 -43l-225 -225q-25 -25 -45 4q-49 74 -126 117t-167 43q-145 0 -240.5 -108t-95.5 -266t95.5 -265t240.5 -107q195 0 322 162q23 23 47 0l207 -205q18 -23 0 -47
q-104 -125 -254 -197.5t-322 -72.5z" />
    <glyph glyph-name="D" unicode="D" horiz-adv-x="1462" 
d="M743 358q242 0 242 358.5t-242 358.5h-200v-717h200zM1384 722q0 -349 -180 -533.5t-450 -188.5h-582q-12 0 -21.5 9t-9.5 22v1372q0 12 9.5 21.5t21.5 9.5h590q274 -8 448 -185.5t174 -526.5z" />
    <glyph glyph-name="E" unicode="E" horiz-adv-x="1267" 
d="M1137 358q12 0 21 -9t9 -23v-295q0 -12 -9 -21.5t-21 -9.5h-965q-12 0 -21.5 9t-9.5 22v1372q0 12 9.5 21.5t21.5 9.5h967q29 0 28 -31v-295q0 -33 -28 -33h-596v-180h389q31 0 31 -31v-297q0 -29 -31 -28h-389v-181h594z" />
    <glyph glyph-name="F" unicode="F" horiz-adv-x="1251" 
d="M1141 1434q12 0 22.5 -9.5t10.5 -21.5v-295q0 -14 -10.5 -23.5t-22.5 -9.5h-598v-223h413q31 0 31 -29v-297q0 -29 -31 -28h-413v-467q0 -12 -9.5 -21.5t-21.5 -9.5h-340q-12 0 -21.5 9t-9.5 22v1372q0 12 9.5 21.5t21.5 9.5h969z" />
    <glyph glyph-name="G" unicode="G" horiz-adv-x="1501" 
d="M1346 844q29 0 28 -29v-672q0 -47 -214 -103t-359 -56q-295 0 -510 206.5t-215 522.5q0 215 108.5 386t277.5 261t340 90q361 0 574 -258q18 -20 -4 -43l-221 -223q-8 -8 -21.5 -9.5t-21.5 11.5q-117 166 -297 166q-143 0 -238.5 -112t-95.5 -267.5t85 -265t218 -109.5
t193 29v135h-117q-31 0 -31 28v283q0 29 31 29h490z" />
    <glyph glyph-name="H" unicode="H" horiz-adv-x="1538" 
d="M1368 1434q29 0 29 -31v-1372q0 -31 -29 -31h-340q-14 0 -23.5 9t-9.5 22v495h-452v-495q0 -12 -9.5 -21.5t-21.5 -9.5h-340q-12 0 -21.5 9t-9.5 22v1372q0 12 9.5 21.5t21.5 9.5h340q12 0 21.5 -9.5t9.5 -21.5v-520h452v520q0 12 9.5 21.5t23.5 9.5h340z" />
    <glyph glyph-name="I" unicode="I" horiz-adv-x="681" 
d="M172 0q-12 0 -21.5 9t-9.5 22v1372q0 12 9.5 21.5t21.5 9.5h340q12 0 21.5 -9.5t9.5 -21.5v-1372q0 -12 -9.5 -21.5t-21.5 -9.5h-340z" />
    <glyph glyph-name="J" unicode="J" horiz-adv-x="1142" 
d="M973 1434q12 0 21.5 -9.5t9.5 -23.5v-918q-4 -217 -137.5 -358t-348.5 -141q-145 0 -270 78.5t-187 230.5q-12 29 15 39l243 127q33 10 43 -17q27 -82 109 -83t115 59q16 29 16 69v914q0 33 29 33h342z" />
    <glyph glyph-name="K" unicode="K" horiz-adv-x="1480" 
d="M543 31q0 -12 -9.5 -21.5t-21.5 -9.5h-340q-12 0 -21.5 9t-9.5 22v1372q0 12 9.5 21.5t21.5 9.5h340q12 0 21.5 -9.5t9.5 -21.5v-578l436 578q23 31 61 31h351q20 0 29.5 -18.5t-3.5 -35.5l-506 -663l504 -664q12 -14 5 -33.5t-29 -19.5h-369q-35 0 -61 31l-418 553v-553
z" />
    <glyph glyph-name="L" unicode="L" horiz-adv-x="1226" 
d="M1118 358q29 0 29 -32v-295q0 -31 -29 -31h-946q-12 0 -21.5 9t-9.5 22v1370q0 14 9.5 23.5t21.5 9.5h340q12 0 21.5 -9.5t9.5 -23.5v-1043h575z" />
    <glyph glyph-name="M" unicode="M" horiz-adv-x="1914" 
d="M1413 1434h328q33 0 33 -31v-1374q0 -29 -33 -29h-334q-35 0 -35 29v610l-340 -608q-25 -31 -53 -31h-41q-29 0 -53 31l-342 608v-610q0 -29 -35 -29h-336q-31 0 -31 29v1374q0 31 31 31h330q31 0 47 -31l407 -752l408 752q16 31 49 31z" />
    <glyph glyph-name="N" unicode="N" horiz-adv-x="1593" 
d="M1421 1434q12 0 21.5 -9.5t9.5 -21.5v-1374q0 -29 -31 -29h-288q-31 0 -54 29l-536 696v-696q0 -29 -31 -29h-340q-31 0 -31 29v1374q0 12 9.5 21.5t21.5 9.5h307q33 0 51 -31l521 -668v668q0 12 9 21.5t21 9.5h340z" />
    <glyph glyph-name="O" unicode="O" horiz-adv-x="1626" 
d="M814 342q144 0 239.5 106.5t95.5 266t-95.5 267.5t-239.5 108t-240.5 -108t-96.5 -267.5t96.5 -266t240.5 -106.5zM812 -16q-304 0 -520 214t-216 517t216 519t520 216t521 -216t217 -518t-217 -517t-521 -215z" />
    <glyph glyph-name="P" unicode="P" horiz-adv-x="1339" 
d="M766 752q41 0 68.5 46t27.5 120q0 160 -86 159h-233v-325h223zM1264 921q0 -239 -113 -381.5t-274 -142.5h-334v-368q0 -29 -31 -29h-340q-31 0 -31 29v1374q0 31 31 31h721q172 0 271.5 -137t99.5 -376z" />
    <glyph glyph-name="Q" unicode="Q" horiz-adv-x="1644" 
d="M477 714.5q0 -159.5 96.5 -266t240.5 -106.5t239.5 106.5t95.5 266t-95.5 267.5t-239.5 108t-240.5 -108t-96.5 -267.5zM76 715q0 303 216 519t520 216t521 -216t217 -519q0 -233 -135 -420l144 -143q18 -18 0 -41l-211 -211q-6 -6 -19.5 -7.5t-21.5 7.5l-162 163
q-156 -80 -332 -79q-305 0 -521 214t-216 517z" />
    <glyph glyph-name="R" unicode="R" horiz-adv-x="1409" 
d="M543 1075v-291h278q100 0 100.5 145.5t-104.5 145.5h-274zM1311 0h-342q-31 0 -45 31l-211 395h-170v-395q0 -12 -9.5 -21.5t-21.5 -9.5h-340q-31 0 -31 31v1372q0 31 31 31h774q162 -4 269.5 -145.5t107.5 -336t-63.5 -318.5t-161.5 -161l235 -436q6 -12 -2 -24.5
t-20 -12.5z" />
    <glyph glyph-name="S" unicode="S" horiz-adv-x="1370" 
d="M666 -16q-350 0 -549 196q-20 20 0 41l217 217q18 18 41 2q53 -45 136 -74.5t160 -29.5t137 31.5t60 74.5q0 74 -204 107q-293 57 -430.5 157.5t-137.5 260.5q0 213 167 348t427 135q315 0 565 -197q10 -8 10.5 -22t-8.5 -25l-219 -219q-23 -16 -41 -4q-158 111 -317 111
q-80 0 -131 -25t-51 -61q0 -78 223 -117q297 -57 423 -155.5t126 -274.5q0 -221 -161.5 -349t-442.5 -128z" />
    <glyph glyph-name="T" unicode="T" horiz-adv-x="1327" 
d="M1219 1434q12 0 20 -10.5t8 -22.5v-293q0 -33 -28 -33h-355v-1044q0 -12 -9 -21.5t-21 -9.5h-340q-12 0 -21.5 9t-9.5 22v1044h-352q-12 0 -21.5 9.5t-9.5 23.5v293q0 12 9 22.5t22 10.5h1108z" />
    <glyph glyph-name="U" unicode="U" horiz-adv-x="1439" 
d="M1317 1434q12 0 21.5 -9.5t9.5 -23.5v-785q0 -190 -77 -340q-44 -86 -111.5 -149.5t-180.5 -103t-258.5 -39.5t-259 39.5t-181 103t-110.5 149.5q-76 152 -76 340v785q0 14 9.5 23.5t21.5 9.5h340q31 0 31 -33v-733q0 -156 50 -241t175 -85t175 85t50 241v733
q0 14 9.5 23.5t21.5 9.5h340z" />
    <glyph glyph-name="V" unicode="V" horiz-adv-x="1583" 
d="M1503 1434q12 0 20.5 -9.5t2.5 -21.5l-621 -1370q-16 -33 -35 -33h-157q-14 0 -35 33l-621 1370q-4 12 3.5 21.5t21.5 9.5h348q20 0 33 -31l330 -723l325 723q16 31 33 31h352z" />
    <glyph glyph-name="W" unicode="W" horiz-adv-x="2160" 
d="M2081 1434q12 0 19 -9.5t5 -21.5l-487 -1383q-6 -20 -29 -20h-176q-16 0 -27 18l-305 676l-301 -674q-8 -20 -30 -20h-175q-18 0 -30 20l-488 1383q-4 12 4.5 21.5t20.5 9.5h338q25 0 29 -31l241 -666l283 664q12 33 33 33h149q23 0 35 -33l283 -664l239 666q12 31 31 31
h338z" />
    <glyph glyph-name="X" unicode="X" horiz-adv-x="1509" 
d="M1432 0h-375q-29 0 -51 31l-252 379l-250 -381q-20 -29 -53 -29h-373q-14 0 -21.5 9t0.5 22l473 719l-430 653q-8 12 1.5 21.5t21.5 9.5h381q23 0 41 -31l209 -316l209 316q18 31 45 31h378q16 0 22.5 -9.5t-1.5 -21.5l-430 -655l475 -717q8 -12 0 -21.5t-20 -9.5z" />
    <glyph glyph-name="Y" unicode="Y" horiz-adv-x="1402" 
d="M1329 1434q12 0 20.5 -9.5t4.5 -21.5l-453 -799v-575q0 -12 -10 -20.5t-23 -8.5h-338q-31 0 -30 29v575l-449 799q-6 12 2 21.5t21 9.5h358q41 0 53 -31l215 -406l218 406q12 31 49 31h362z" />
    <glyph glyph-name="Z" unicode="Z" horiz-adv-x="1333" 
d="M164 1075q-29 0 -29 31v293q0 35 29 35h1048q16 0 21.5 -14.5t-2.5 -30.5l-545 -1031h494q10 0 19 -10t9 -22v-295q0 -31 -28 -31h-1074q-16 0 -25 14.5t-1 28.5l547 1032h-463z" />
    <glyph glyph-name="bracketleft" unicode="[" horiz-adv-x="841" 
d="M715 1311h-189v-1301h189q35 0 35 -33v-294q0 -31 -35 -31h-549q-12 0 -22 9q-9 9 -9 22v1955q0 12 9 22t22 9h549q35 0 35 -31v-295q0 -32 -35 -32z" />
    <glyph glyph-name="backslash" unicode="\" horiz-adv-x="987" 
d="M705 0q-29 0 -43 31l-601 1366q-6 14 0 25t23 12h203q29 0 41 -31l598 -1356q8 -15 -2 -31t-31 -16h-188z" />
    <glyph glyph-name="bracketright" unicode="]" horiz-adv-x="841" 
d="M127 1311q-35 0 -35 32v295q0 31 35 31h549q12 0 21 -9t10 -22v-1955q1 -11 -9 -21t-22 -10h-549q-35 0 -35 31v294q0 33 35 33h188v1301h-188z" />
    <glyph glyph-name="asciicircum" unicode="^" horiz-adv-x="880" 
d="M752 1145h-125q-20 0 -43 31l-142 198l-145 -198q-23 -31 -43 -31h-123q-20 0 -33 14q-12 14 -2 31l236 418q20 31 41 30h137q20 0 39 -30l235 -418q10 -16 -1 -30t-31 -15z" />
    <glyph glyph-name="underscore" unicode="_" horiz-adv-x="1210" 
d="M127 -279q-33 0 -33 31v111q0 31 33 31h958q33 0 33 -31v-111q0 -31 -33 -31h-958z" />
    <glyph glyph-name="grave" unicode="`" horiz-adv-x="643" 
d="M459 1292l-350 226q-25 18 -9 45l99 149q25 29 47 4l289 -317q20 -23 8 -45l-37 -56q-18 -24 -47 -6z" />
    <glyph glyph-name="a" unicode="a" horiz-adv-x="1114" 
d="M535.5 262q60.5 0 86 44t25.5 126t-24.5 127t-86 45t-94 -49t-32.5 -122t32.5 -122t93 -49zM989 868q29 0 29 -32v-805q0 -12 -9.5 -21.5t-19.5 -9.5h-229q-43 0 -62 41l-18 25q-88 -82 -211 -82q-213 0 -313.5 127t-100.5 325.5t105.5 322.5t306.5 124q129 0 219 -70
l21 23q29 33 51 32h231z" />
    <glyph glyph-name="b" unicode="b" horiz-adv-x="1105" 
d="M561 262q135 0 135 171t-135 171q-66 0 -85 -45t-19 -127t20.5 -126t83.5 -44zM623 883q211 0 319.5 -126t108.5 -322t-104.5 -323.5t-321.5 -127.5q-131 0 -226 77l-14 -22q-18 -39 -61 -39h-195q-14 0 -23.5 9t-9.5 22v1386q0 33 33 33h315q31 0 31 -33v-555
q72 21 148 21z" />
    <glyph glyph-name="c" unicode="c" horiz-adv-x="978" 
d="M522 -16q-217 0 -342 127t-125 321.5t127 322.5t344 128q100 0 195.5 -39t155.5 -111q12 -20 -3 -39l-147 -153q-23 -18 -41 2q-57 61 -131 61t-109.5 -48t-35.5 -126t34.5 -123t104.5 -45q102 0 151 76q18 25 43 4l152 -147q6 -4 8 -16.5t-4 -22.5q-57 -78 -161.5 -125
t-215.5 -47z" />
    <glyph glyph-name="d" unicode="d" horiz-adv-x="1105" 
d="M535.5 262q62.5 0 88 45t25.5 126t-25.5 126t-87 45t-94 -49t-32.5 -122t31.5 -122t94 -49zM981 1450q29 0 29 -33v-1386q0 -31 -29 -31h-199q-43 0 -61 39l-14 24q-100 -80 -238 -79q-213 0 -313.5 128t-100.5 325.5t105.5 321.5t308.5 124q90 0 162 -27v561
q0 14 9 23.5t22 9.5h319z" />
    <glyph glyph-name="e" unicode="e" horiz-adv-x="1038" 
d="M516 651q-82 0 -96 -98h201q-6 37 -32 67.5t-73 30.5zM544 883q222 0 330.5 -144.5t108.5 -402.5q0 -12 -9 -21.5t-22 -9.5h-528q37 -66 154 -65.5t194 36.5q29 12 41 -10l82 -157q12 -29 -4 -39q-127 -86 -340 -86t-354.5 126t-141.5 324.5t133.5 323.5t355.5 125z" />
    <glyph glyph-name="f" unicode="f" horiz-adv-x="933" 
d="M738 1145h-17q-39 12 -64 12q-68 0 -97.5 -49t-29.5 -147v-95h158q12 0 21.5 -9t9.5 -21v-232q0 -12 -9.5 -21.5t-21.5 -9.5h-158v-542q0 -31 -30 -31h-316q-33 0 -32 31v542h-68q-29 0 -29 31v232q0 31 29 30h68v101q0 260 124.5 371.5t319.5 111.5q90 0 176 -19.5
t109.5 -37.5t13.5 -47l-139 -187q-9 -14 -18 -14z" />
    <glyph glyph-name="g" unicode="g" horiz-adv-x="1128" 
d="M549.5 262q71.5 0 99 34t27.5 136q0 172 -137 172q-61 0 -95 -48t-34 -122t34 -123t105.5 -49zM1001 868q31 0 31 -32v-826q0 -217 -145.5 -346t-393 -129t-393.5 164q-16 20 4 41l148 145q25 25 43 0q61 -72 182 -71q80 0 139.5 45t59.5 127v57q-96 -59 -223 -59
q-197 0 -297.5 129t-100.5 325.5t104.5 320.5t297.5 124q125 0 229 -64l19 17q33 33 53 32h243z" />
    <glyph glyph-name="h" unicode="h" horiz-adv-x="1165" 
d="M678 883q174 0 281.5 -118t107.5 -337v-397q0 -31 -29 -31h-317q-31 0 -31 31v452q0 49 -28.5 85t-77.5 36t-79 -36t-30 -93v-444q0 -31 -29 -31h-319q-31 0 -31 31v1386q0 33 31 33h319q29 0 29 -33v-592q103 58 203 58z" />
    <glyph glyph-name="i" unicode="i" horiz-adv-x="610" 
d="M147 0q-12 0 -22 8t-10 21v800q0 17 10 27t22 10h316q31 0 31 -37v-800q0 -29 -31 -29h-316zM305 995q-84 -1 -146 61q-63 62 -63 147t62 147t147 61q85 0 147 -61q62 -60 62 -146t-62 -148t-147 -61z" />
    <glyph glyph-name="j" unicode="j" horiz-adv-x="653" 
d="M103 -465q-207 0 -315 79t-132 183q-4 27 16 35l248 94q29 16 43 -12q23 -51 47 -76t62 -24q88 0 88 135v887q0 12 9 21t21 9h318q12 0 21 -9t10 -21v-856q0 -209 -115 -327t-321 -118zM349 997q-87 1 -147 61t-60 146t60 148t147 61q87 0 147 -61q60 -62 61 -148
q-1 -86 -61 -146t-147 -61z" />
    <glyph glyph-name="k" unicode="k" horiz-adv-x="1210" 
d="M1120 0h-332q-31 0 -55 29l-258 354v-352q0 -31 -31 -31h-319q-29 0 -29 31v1386q0 33 29 33h319q12 0 21.5 -9t9.5 -24v-919l244 338q25 31 45 30h330q18 0 27 -15t-3 -36l-276 -366l305 -400q8 -12 0 -30.5t-27 -18.5z" />
    <glyph glyph-name="l" unicode="l" horiz-adv-x="571" 
d="M125 0q-29 0 -29 31v1386q0 33 29 33h319q12 0 21.5 -9t9.5 -24v-1386q0 -31 -31 -31h-319z" />
    <glyph glyph-name="m" unicode="m" horiz-adv-x="1751" 
d="M1249 883q201 0 302.5 -107.5t101.5 -353.5v-391q0 -12 -9.5 -21.5t-21.5 -9.5h-317q-29 0 -29 31v442q0 53 -33 92t-78 39t-71.5 -38t-26.5 -97v-438q0 -31 -31 -31h-319q-29 0 -29 31v446q0 51 -28.5 89t-74.5 38t-77 -36t-33 -91v-446q0 -31 -29 -31h-319
q-31 0 -31 31v803q0 14 9.5 24t21.5 10h285q29 0 39 -34l22 -60q113 109 261 109t243 -113q120 113 272 113z" />
    <glyph glyph-name="n" unicode="n" horiz-adv-x="1200" 
d="M702 883q207 0 304.5 -108.5t97.5 -285.5v-458q0 -14 -11.5 -22.5t-23.5 -8.5h-313q-31 0 -31 31v448q0 45 -36 85t-88 40t-89 -40t-37 -95v-438q0 -31 -31 -31h-319q-29 0 -29 31v803q0 35 29 34h297q20 0 31 -34l22 -60q39 47 104.5 78t122.5 31z" />
    <glyph glyph-name="o" unicode="o" horiz-adv-x="1036" 
d="M519 262q48 0 84 40t36 130t-36 131t-84 41t-84 -41t-36 -131t36 -130t84 -40zM518 -16q-205 0 -340 131t-135 319t135 318.5t341 130.5t340 -130t134 -318.5t-135 -319.5t-340 -131z" />
    <glyph glyph-name="p" unicode="p" horiz-adv-x="1107" 
d="M575 262q53 0 88 50t35 119t-33.5 121t-89.5 52q-119 0 -119 -171t119 -171zM635 883q203 0 310.5 -132.5t107.5 -323t-109.5 -317t-308.5 -126.5q-86 0 -160 24v-422q0 -12 -9 -21t-22 -9h-319q-29 0 -29 30v1248q0 35 29 34h197q15 0 37 -20.5t26 -22.5l27 -16
q90 74 223 74z" />
    <glyph glyph-name="q" unicode="q" horiz-adv-x="1110" 
d="M532 262q121 0 121 171t-121 171q-55 0 -88.5 -46t-33.5 -119.5t33.5 -125t88.5 -51.5zM985 866q29 0 29 -37v-1243q0 -31 -29 -30h-317q-14 0 -23.5 9t-9.5 21v422q-74 -25 -160 -24q-213 0 -316.5 127t-103.5 323t101.5 322.5t318.5 126.5q121 0 225 -76l27 14
q45 45 64 45h194z" />
    <glyph glyph-name="r" unicode="r" horiz-adv-x="845" 
d="M475 459v-428q0 -31 -31 -31h-317q-31 0 -31 31v803q0 35 31 34h197q41 0 61 -39l31 -51q94 104 231 105q99 0 144 -25q20 -16 16 -31v-4l-121 -229q-16 -25 -39 -12q-45 27 -84 26q-88 0 -88 -149z" />
    <glyph glyph-name="s" unicode="s" horiz-adv-x="899" 
d="M391.5 -16q-227.5 0 -328.5 100q-16 16 -4 39l91 164q13 31 45 10t109 -41t130 -20t53 24.5t-84 40.5q-184 41 -254.5 102.5t-70.5 187.5t107.5 209t287.5 83t330 -82q27 -12 10 -39l-96 -174q-14 -31 -41 -15q-86 57 -165 57.5t-79 -30.5q0 -20 90 -43
q197 -51 259.5 -105.5t62.5 -184.5t-112.5 -206.5t-340 -76.5z" />
    <glyph glyph-name="t" unicode="t" horiz-adv-x="831" 
d="M537 358q1 -86 59 -86q26 0 90 19h6q19 6 35 -19l72 -196q10 -29 -17 -41q-137 -51 -319 -51q-287 0 -305 331v258h-70q-29 0 -29 35v221q0 37 29 37h70v215q0 31 30 31h318q31 0 31 -31v-215h159q31 0 31 -37v-221q0 -35 -31 -35h-159v-215z" />
    <glyph glyph-name="u" unicode="u" horiz-adv-x="1163" 
d="M1036 866q31 0 31 -37v-800q0 -12 -10 -20.5t-23 -8.5h-248q-29 0 -49 29l-51 69q-31 -47 -96.5 -80.5t-128.5 -33.5q-176 0 -270.5 100t-94.5 285v460q0 37 29 37h319q31 0 31 -37v-446q0 -49 28.5 -86t74.5 -37t77 35t33 90v444q0 37 31 37h317z" />
    <glyph glyph-name="v" unicode="v" horiz-adv-x="1089" 
d="M1022 866q18 0 27.5 -14t1.5 -31l-408 -792q-12 -29 -35 -29h-125q-20 0 -37 29l-409 794q-6 12 3 27.5t28 15.5h309q16 0 33 -30l133 -287l137 287q12 31 31 30h311z" />
    <glyph glyph-name="w" unicode="w" horiz-adv-x="1488" 
d="M1403 866q18 0 25.5 -15t1.5 -28l-300 -803q-8 -20 -28 -20h-203q-20 0 -31 20l-125 371l-125 -373q-8 -18 -26 -18h-205q-18 0 -31 18l-295 805q-8 12 0.5 27.5t26.5 15.5h313q25 0 31 -20l86 -324l115 324q8 20 29 20h167q20 0 27 -20l117 -324l86 322q6 23 31 22h313z
" />
    <glyph glyph-name="x" unicode="x" horiz-adv-x="1017" 
d="M385 0h-289q-16 0 -27.5 15.5t1.5 31.5l247 379l-256 393q-10 18 0.5 32.5t26.5 14.5h287q33 0 51 -30l84 -134l84 134q18 31 49 30h289q16 0 25.5 -15t-1.5 -32l-256 -393l250 -381q8 -12 0 -28.5t-28 -16.5h-287q-33 0 -51 29l-74 118l-74 -118q-14 -29 -51 -29z" />
    <glyph glyph-name="y" unicode="y" horiz-adv-x="1161" 
d="M1096 866q14 0 25.5 -13t2.5 -30l-608 -1204q-8 -16 -27 -16h-294q-16 0 -26.5 13t-2.5 30l237 469l-366 708q-6 12 2 27.5t27 15.5h305q23 0 35 -30l176 -367l192 379q8 18 29 18h293z" />
    <glyph glyph-name="z" unicode="z" horiz-adv-x="921" 
d="M123 588q-31 0 -31 28v220q0 12 9.5 21t21.5 9h688q18 0 27.5 -12t1.5 -31l-262 -544h210q12 0 21.5 -9.5t9.5 -21.5v-219q0 -29 -31 -29h-679q-14 0 -24.5 12.5t-4.5 28.5l260 547h-217z" />
    <glyph glyph-name="braceleft" unicode="{" horiz-adv-x="1030" 
d="M743 887q0 -95 -47 -153t-198 -72q161 -16 208 -83q37 -52 37 -141v-319q0 -92 97 -107q10 -2 18 -2h43q35 0 35 -33v-292q0 -33 -35 -33h-164q-385 0 -385 467v305q0 57 -92 57h-92q-33 0 -33 33v295q0 31 33 31h92q68 0 88 39q4 10 4 22v301q0 254 102 360t283 107h164
q35 0 35 -33v-293q0 -33 -35 -32h-43q-74 0 -102 -56q-12 -23 -13 -53v-315z" />
    <glyph glyph-name="bar" unicode="|" horiz-adv-x="505" 
d="M172 -238q-31 0 -31 29v1843q0 35 31 35h162q31 0 31 -35v-1843q0 -29 -31 -29h-162z" />
    <glyph glyph-name="braceright" unicode="}" horiz-adv-x="1030" 
d="M287 887v315q0 92 -94 107q-12 2 -21 2h-43q-35 0 -35 32v293q0 33 35 33h164q181 0 283 -106t102 -361v-301q4 -55 92 -61h92q33 0 33 -31v-295q0 -33 -33 -33h-92q-92 0 -92 -57v-305q0 -467 -385 -467h-164q-35 0 -35 33v292q0 33 35 33h43q70 0 100 51q14 25 15 58
v319q0 151 113 195q52 20 132 29q-152 14 -198 72t-47 153z" />
    <glyph glyph-name="asciitilde" unicode="~" horiz-adv-x="1118" 
d="M735 555q-96 0 -189 34t-153 34q-60 -1 -122 -21q-63 -20 -85 -38t-32 -1l-52 84q-12 14 -8 25q6 45 100 124t205 81h2q93 0 185 -34t149 -34q141 0 199 59q18 18 29 4l55 -88q23 -45 -94 -156q-76 -71 -187 -73h-2z" />
    <glyph glyph-name="exclamdown" unicode="&#xa1;" horiz-adv-x="692" 
d="M244 395h205q31 0 32 -30l78 -918q2 -31 -29 -31h-368q-31 0 -29 31l76 918q6 30 35 30zM346 883q78 1 134 -55t56 -135t-54 -135q-56 -56 -135 -56t-135 56t-56 134t56 134t134 57z" />
    <glyph glyph-name="cent" unicode="&#xa2;" horiz-adv-x="993" 
d="M573 604q-151 0 -151 -174q0 -80 35 -129t121.5 -49t138.5 78q16 27 43 4l147 -141q18 -18 4 -39q-66 -90 -200 -144v-137q0 -29 -31 -29h-309q-31 0 -31 29v152q-121 55 -192.5 164.5t-71.5 241.5t71.5 243.5t192.5 167.5v145q0 35 31 35h309q31 0 31 -35v-131
q113 -41 178 -121q12 -20 -2 -39l-144 -149q-23 -18 -41 2q-49 55 -129 55z" />
    <glyph glyph-name="sterling" unicode="&#xa3;" horiz-adv-x="1230" 
d="M1124 356q12 0 22 -9t9 -21v-295q0 -11 -9 -21t-22 -10h-993q-12 0 -21 9t-10 22v233q0 27 31 31h2q39 6 69 64t29 106v74h-106q-12 0 -22 9q-9 9 -9 21v295q0 12 9 22t22 9h106v61q0 496 471 496q262 0 369 -152q51 -72 74 -180q8 -29 -19 -37l-288 -71q-31 -8 -37 14
q-14 72 -99 72q-72 0 -71 -144v-59h215q12 0 21 -9t10 -22v-295q1 -12 -9 -21t-22 -9h-215v-76q0 -70 -21 -107h514z" />
    <glyph glyph-name="currency" unicode="&#xa4;" horiz-adv-x="1095" 
d="M428 713q0 -49 36 -84t84 -35t84 35t36 84t-36 84t-84 35t-84 -36q-36 -34 -36 -83zM548 334q-82 0 -155 33l-67 -78q-6 -8 -20 -8t-23 6l-187 149q-20 20 0 45l88 107q-16 70 -16 125t18 125l-90 106q-20 23 0 43l189 152q29 14 41 -2l67 -76q70 31 154 31t153 -31
l68 78q16 16 43 0l184 -150q23 -20 0 -43l-86 -108q16 -61 16 -125t-16 -125l86 -109q20 -27 0 -43l-186 -149q-27 -16 -43 0l-66 78q-70 -31 -152 -31z" />
    <glyph glyph-name="yen" unicode="&#xa5;" horiz-adv-x="1404" 
d="M1329 1434q12 0 20.5 -9.5t4.5 -21.5l-330 -584h16q12 0 21.5 -10t9.5 -23v-147q0 -12 -9 -21.5t-22 -9.5h-137l-2 -4v-110h139q12 0 21.5 -9.5t9.5 -21.5v-148q0 -12 -9 -22t-22 -10h-139v-254q0 -12 -10 -20.5t-23 -8.5h-338q-31 0 -30 29v254h-142q-12 0 -21 10t-9 22
v148q0 12 9 21.5t21 9.5h142v110l-2 4h-140q-12 0 -21 9.5t-9 21.5v147q0 12 9 22.5t21 10.5h21l-328 584q-6 12 2 21.5t21 9.5h358q41 0 53 -31l215 -406l218 406q12 31 49 31h362z" />
    <glyph glyph-name="brokenbar" unicode="&#xa6;" horiz-adv-x="505" 
d="M172 -238q-31 0 -31 29v709q0 35 31 35h162q31 0 31 -35v-709q0 -29 -31 -29h-162zM172 897q-31 0 -31 29v708q0 35 31 35h162q31 0 31 -35v-708q0 -29 -31 -29h-162z" />
    <glyph glyph-name="section" unicode="&#xa7;" horiz-adv-x="1124" 
d="M707 586q0 47 -17 57q-35 19 -133 36t-119 26q-25 -29 -24 -95q0 -33 35 -53t141 -35l84 -18q33 35 33 82zM559 1450q281 0 492 -164q16 -23 2 -41l-185 -190q-16 -16 -34 -2q-100 73 -252 73t-152 -47q0 -35 32 -53t140 -35q272 -47 374 -142t101 -233q0 -138 -104 -249
q88 -88 88 -225t-115 -259q-58 -59 -160 -97t-231 -38q-309 0 -475 166q-18 10 0 33l178 192q12 12 35 0q91 -67 247 -67t156 59q0 19 -3 27t-40 23t-114 28q-492 84 -492 377q0 129 109 245q-96 90 -96 222t119 258q57 61 157 100t223 39z" />
    <glyph glyph-name="dieresis" unicode="&#xa8;" horiz-adv-x="718" 
d="M516 1343q-47 0 -80 32t-33 78t33 78t80 32t79 -32t32 -78t-32 -78t-79 -32zM205 1343q-47 0 -79 31t-32 78t32 79t79 32t79 -32t32 -78t-32 -78t-79 -32z" />
    <glyph glyph-name="copyright" unicode="&#xa9;" horiz-adv-x="1650" 
d="M823 358q-145 0 -228 94t-83 264q0 171 84 268t227 97q244 0 310 -225q8 -33 -31 -45l-160 -29q-37 -5 -46 38q-5 24 -27 39t-44 15q-69 0 -69 -160t67 -159q59 0 72 66q6 31 43 30l168 -33q31 -8 24 -43q-61 -217 -307 -217zM826 188q224 0 364 152q139 152 139 376
t-139 377q-140 153 -364 153t-362 -154q-138 -152 -138 -377t138 -376t362 -151zM827 -16q-303 0 -518 214t-215 518t215 519t518 215t517 -215t215 -519q-1 -304 -215 -518t-517 -214z" />
    <glyph glyph-name="ordfeminine" unicode="&#xaa;" horiz-adv-x="913" 
d="M250 461q0 12 9 21t22 10h387q12 0 21 -10t9 -21v-217q0 -12 -9 -22t-21 -9h-387q-12 0 -22 9q-9 9 -9 22v217zM461 842q43 0 69 26t25 58q0 76 -86 75q-53 -1 -76 -25q-47 -50 1 -107q24 -27 67 -27zM813 709q0 -27 -25 -27h-143q-37 0 -47 35l-14 39q-27 -45 -90 -68
t-132 -22q-118 0 -190 70t-72 171q0 103 77 165t222 63q84 0 144 -17v31q-1 49 -33 57t-84 8t-170 -20q-23 -4 -29 20l-26 154q-6 29 22 35l19 2q135 29 237 29q193 0 261 -83t73 -243v-399z" />
    <glyph glyph-name="guillemotleft" unicode="&#xab;" horiz-adv-x="1273" 
d="M1155 -16h-162q-33 0 -51 20l-313 371q-29 33 -29 51v14q0 18 29 52l313 370q18 20 51 21h162q17 -1 23 -15t-4 -30l-271 -404l271 -405q10 -17 5 -31t-24 -14zM649 -16h-162q-33 0 -51 20l-313 371q-29 33 -29 51v14q0 18 29 52l313 370q18 20 51 21h162q17 -1 23 -15
t-4 -30l-271 -404l271 -405q10 -17 5 -31t-24 -14z" />
    <glyph glyph-name="logicalnot" unicode="&#xac;" horiz-adv-x="1202" 
d="M807 582h-680q-33 0 -33 30v199q0 31 33 31h948q33 0 33 -31v-510q0 -33 -31 -33h-239q-31 0 -31 33v281z" />
    <glyph glyph-name="uni00AD" unicode="&#xad;" horiz-adv-x="763" 
d="M109 313q-33 0 -33 31v197q0 31 33 30h544q33 0 33 -30v-197q0 -31 -33 -31h-544z" />
    <glyph glyph-name="registered" unicode="&#xae;" horiz-adv-x="1650" 
d="M760 872v-90h106q23 0 31 10t8 39q0 41 -41 41h-104zM760 586v-203q0 -14 -17 -14h-208q-14 0 -15 14v670q0 16 15 16h399q96 0 153 -58t58 -163q0 -145 -94 -207q43 -51 71 -134t25 -124q0 -14 -17 -14h-210q-16 0 -17 14q0 104 -74 203h-69zM826 188q224 0 364 152
q139 152 139 376t-139 377q-140 153 -364 153t-362 -154q-138 -152 -138 -377t138 -376t362 -151zM827 1450q303 0 517 -215t215 -519q0 -304 -214 -518q-213 -214 -517 -214t-519 214t-215 518t215 519t518 215z" />
    <glyph glyph-name="macron" unicode="&#xaf;" horiz-adv-x="659" 
d="M127 1348q-33 0 -33 30v133q0 31 33 31h405q33 0 33 -31v-133q0 -31 -33 -30h-405z" />
    <glyph glyph-name="degree" unicode="&#xb0;" horiz-adv-x="768" 
d="M385 1118q53 0 88 37t35 91t-35 92t-88 38t-88 -38t-35 -92t35 -91t88 -37zM385 942q-127 0 -216 89t-89 215t89 216t216 90t216 -90t89 -216t-89 -215t-216 -89z" />
    <glyph glyph-name="plusminus" unicode="&#xb1;" horiz-adv-x="1099" 
d="M973 195q33 0 33 -31v-152q0 -31 -33 -30h-846q-33 0 -33 30v152q0 31 33 31h846zM973 829q33 0 33 -30v-199q0 -31 -33 -31h-277v-258q0 -33 -30 -32h-232q-31 0 -31 32v258h-276q-33 0 -33 31v199q0 31 33 30h276v258q0 33 31 33h232q31 0 30 -33v-258h277z" />
    <glyph glyph-name="uni00B2" unicode="&#xb2;" horiz-adv-x="882" 
d="M442 1602q170 0 248 -81t78 -214t-102 -226l-160 -155h254q20 0 20 -19v-205q0 -18 -20 -18h-621q-20 0 -20 18v166q0 10 8 19q39 37 105 100t116 113q154 154 154 221q0 41 -64 41t-78 -31q-4 -10 -6 -28q0 -14 -18 -15h-213q-14 0 -19 5q-4 5 -4 37q0 81 66 168
q34 46 106 75t170 29z" />
    <glyph glyph-name="uni00B3" unicode="&#xb3;" horiz-adv-x="880" 
d="M442 1604q326 0 326 -277q0 -147 -106 -188q121 -49 120 -195q0 -114 -80 -194t-257 -80t-261 91t-84 195q0 23 17 23h221q18 0 18 -16q2 -51 84 -51t82 44q0 31 -20 43t-99 11h-24q-20 0 -21 18v207q0 18 21 18h24q53 -1 78 11t27 20t2 31t-20 35t-50 12q-82 0 -84 -51
q0 -16 -18 -17h-221q-16 0 -17 23q0 127 95 207t247 80z" />
    <glyph glyph-name="acute" unicode="&#xb4;" horiz-adv-x="643" 
d="M184 1292q-29 -18 -47 6l-37 56q-12 23 9 45l288 317q23 25 47 -4l99 -149q16 -27 -8 -45z" />
    <glyph glyph-name="uni00B5" unicode="&#xb5;" horiz-adv-x="1165" 
d="M1087 0h-311q-29 0 -45 29l-47 71q-113 -117 -227 -116q18 0 14 -19v-379q0 -31 -31 -30h-317q-29 0 -29 30v1248q0 33 29 32h317q12 0 22 -9t9 -23v-453q0 -53 31 -87q30 -34 74 -34t76 37t34 88v444q0 37 31 37h315q33 0 33 -37v-639q0 -63 45 -153q6 -13 -1 -25
t-22 -12z" />
    <glyph glyph-name="paragraph" unicode="&#xb6;" horiz-adv-x="1345" 
d="M1225 1434q29 0 28 -31v-1610q0 -12 -9 -21t-21 -10h-228q-12 0 -21 10t-9 21v1381h-160v-1381q0 -31 -29 -31h-227q-13 0 -23 10t-10 21v780q-184 0 -315 126q-131 125 -131 303t131 305t315 127h709z" />
    <glyph glyph-name="periodcentered" unicode="&#xb7;" horiz-adv-x="587" 
d="M150 502q-33 0 -33 30v289q0 29 33 29h284q33 0 33 -29v-289q0 -31 -33 -30h-284z" />
    <glyph glyph-name="cedilla" unicode="&#xb8;" horiz-adv-x="585" 
d="M260 -426q-51 0 -115 34t-49 62l66 70q10 10 26 -2q27 -27 70 -27q59 0 59 53q0 29 -17 43t-38 -5t-49 -13l-90 27q-14 4 -10 20l75 180h174l-38 -92q72 2 120 -40t50 -124q0 -186 -234 -186z" />
    <glyph glyph-name="uni00B9" unicode="&#xb9;" horiz-adv-x="788" 
d="M686 918q20 0 21 -19v-203q0 -18 -21 -18h-586q-18 0 -18 18v203q0 18 18 19h162v391l-143 -19q-18 0 -19 21v176q0 8 21 18l147 66q16 8 31 8h209q18 0 18 -20v-641h160z" />
    <glyph glyph-name="ordmasculine" unicode="&#xba;" horiz-adv-x="886" 
d="M219 461q0 12 10 21t23 10h387q12 0 21 -10t10 -21v-217q0 -12 -10 -22t-21 -9h-387q-12 0 -23 9q-10 9 -10 22v217zM442 924q37 0 58 34q20 36 20 92t-20 91t-58 35q-74 0 -74 -126t74 -126zM442 666q-147 0 -244 100q-98 100 -98 284t98 283q98 101 244 101t246 -100
t100 -284q0 -183 -99 -284q-100 -100 -247 -100z" />
    <glyph glyph-name="guillemotright" unicode="&#xbb;" horiz-adv-x="1277" 
d="M786 883q33 0 52 -21l313 -370q29 -33 29 -52v-14q0 -18 -29 -51l-313 -371q-18 -20 -52 -20h-161q-18 0 -24 14q-5 14 5 31l271 405l-271 404q-10 16 -5 30t24 15h161zM281 883q33 0 51 -21l313 -370q29 -33 29 -52v-14q0 -18 -29 -51l-313 -371q-18 -20 -51 -20h-162
q-18 0 -24 14q-5 14 5 31l271 405l-271 404q-10 16 -5 30t24 15h162z" />
    <glyph glyph-name="onequarter" unicode="&#xbc;" horiz-adv-x="2011" 
d="M1575 401v199l-123 -199h123zM1911 401q20 0 20 -18v-205q0 -14 -20 -14h-70v-146q0 -18 -18 -18h-230q-18 0 -18 18v146h-367q-18 0 -18 14v137q0 16 12 35l332 541q6 10 16 10h273q18 0 18 -18v-482h70zM614 0q-20 0 -30 14t-2 31l680 1358q14 31 41 31h200
q15 0 23 -10t0 -27l-682 -1366q-16 -31 -43 -31h-187zM686 772q20 0 21 -18v-203q0 -18 -21 -19h-586q-18 0 -18 19v203q0 18 18 18h162v391l-143 -18q-18 0 -19 20v176q0 8 21 19l147 65q16 8 31 9h209q18 0 18 -21v-641h160z" />
    <glyph glyph-name="onehalf" unicode="&#xbd;" horiz-adv-x="2121" 
d="M1681 918q170 0 248 -81t78 -214t-102 -226l-160 -155h254q20 0 20 -19v-205q0 -18 -20 -18h-621q-20 0 -20 18v166q0 10 8 19q40 37 106 100t115 113q154 154 154 221q0 41 -64 41t-78 -31q-4 -10 -6 -29q0 -14 -18 -14h-213q-14 0 -19 5q-4 5 -4 37q0 81 66 168
q35 46 107 75t169 29zM614 0q-20 0 -30 14t-2 31l680 1358q14 31 41 31h200q15 0 23 -10t0 -27l-682 -1366q-16 -31 -43 -31h-187zM686 772q20 0 21 -18v-203q0 -18 -21 -19h-586q-18 0 -18 19v203q0 18 18 18h162v391l-143 -18q-18 0 -19 20v176q0 8 21 19l147 65
q16 8 31 9h209q18 0 18 -21v-641h160z" />
    <glyph glyph-name="threequarters" unicode="&#xbe;" horiz-adv-x="2082" 
d="M1647 401v199l-123 -199h123zM1982 401q20 0 21 -18v-205q0 -14 -21 -14h-69v-146q0 -18 -19 -18h-229q-18 0 -18 18v146h-367q-18 0 -18 14v137q0 16 12 35l332 541q6 10 16 10h272q18 0 19 -18v-482h69zM651 0q-20 0 -30 14t-3 31l680 1358q14 31 41 31h201
q16 0 24 -10t-1 -27l-682 -1366q-16 -31 -43 -31h-187zM442 1450q326 0 326 -276q0 -147 -106 -189q121 -49 120 -194q0 -115 -80 -195t-257 -80t-261 91t-84 196q0 23 17 22h221q18 0 18 -16q2 -51 84 -51t82 45q0 31 -20 43t-99 10h-24q-20 0 -21 18v207q0 18 21 19h24
q53 0 78 11t27 19t2 31t-20 35t-50 12q-82 0 -84 -51q0 -16 -18 -16h-221q-16 0 -17 22q0 127 95 207t247 80z" />
    <glyph glyph-name="questiondown" unicode="&#xbf;" horiz-adv-x="1093" 
d="M574 -590q-150 0 -253 40t-155 107q-96 126 -95 267t63 214t206 152q30 15 65 32t44 26q8 8 20 18t17 20q6 10 14 30q8 19 8 54q0 36 27 36h303q29 0 28 -27q0 -139 -38 -217t-134 -137q-28 -17 -102 -55t-106 -66t-31 -64q0 -74 118 -73q172 0 177 184q2 23 28 29
q215 0 324 2q20 2 26 -10t7 -40q8 -205 -119 -358q-63 -76 -178 -120q-114 -44 -264 -44zM686 877q78 1 134 -55t56 -136t-56 -135t-134 -55t-133 56t-55 134t55 134t133 57z" />
    <glyph glyph-name="Agrave" unicode="&#xc0;" horiz-adv-x="1583" 
d="M672 508h239l-108 229l-12 27zM872 1450q23 0 35 -31l617 -1388q4 -12 -3.5 -21.5t-19.5 -9.5h-348q-14 0 -33 31l-53 123h-551l-55 -123q-12 -31 -31 -31h-354q-12 0 -17.5 9t-1.5 22l617 1388q12 31 33 31h165zM961 1567l-400 112q-25 12 -12 43l61 144q12 35 43 14
l361 -197q25 -16 14 -43l-22 -59q-10 -24 -45 -14z" />
    <glyph glyph-name="Aacute" unicode="&#xc1;" horiz-adv-x="1583" 
d="M672 508h239l-108 229l-12 27zM872 1450q23 0 35 -31l617 -1388q4 -12 -3.5 -21.5t-19.5 -9.5h-348q-14 0 -33 31l-53 123h-551l-55 -123q-12 -31 -31 -31h-354q-12 0 -17.5 9t-1.5 22l617 1388q12 31 33 31h165zM616 1565q-35 -10 -45 14l-22 59q-10 27 14 43l361 197
q31 20 43 -14l61 -144q12 -31 -12 -43z" />
    <glyph glyph-name="Acircumflex" unicode="&#xc2;" horiz-adv-x="1583" 
d="M672 508h239l-108 229l-12 27zM872 1450q23 0 35 -31l617 -1388q4 -12 -3.5 -21.5t-19.5 -9.5h-348q-14 0 -33 31l-53 123h-551l-55 -123q-12 -31 -31 -31h-354q-12 0 -17.5 9t-1.5 22l617 1388q12 31 33 31h165zM524 1579v80q0 20 21 41l186 170q25 25 51 24h9
q27 0 53 -24l188 -170q20 -20 21 -41v-80q0 -34 -39 -14l-228 131l-223 -131q-39 -20 -39 14z" />
    <glyph glyph-name="Atilde" unicode="&#xc3;" horiz-adv-x="1583" 
d="M672 508h239l-108 229l-12 27zM872 1450q23 0 35 -31l617 -1388q4 -12 -3.5 -21.5t-19.5 -9.5h-348q-14 0 -33 31l-53 123h-551l-55 -123q-12 -31 -31 -31h-354q-12 0 -17.5 9t-1.5 22l617 1388q12 31 33 31h165zM916.5 1591q-64.5 0 -126 31t-104.5 31t-78 -12.5
t-45 -28.5t-31 -8l-55 26q-35 13 45 117q44 57 137 57t162.5 -30.5t109.5 -30.5t89 45q10 10 29 4l53 -23q16 -4 8 -24q-25 -68 -77 -111t-116.5 -43z" />
    <glyph glyph-name="Adieresis" unicode="&#xc4;" horiz-adv-x="1583" 
d="M672 508h239l-108 229l-12 27zM872 1450q23 0 35 -31l617 -1388q4 -12 -3.5 -21.5t-19.5 -9.5h-348q-14 0 -33 31l-53 123h-551l-55 -123q-12 -31 -31 -31h-354q-12 0 -17.5 9t-1.5 22l617 1388q12 31 33 31h165zM948 1595q-47 0 -79.5 32t-32.5 78t32.5 78t79.5 32
t79 -32t32 -78t-32 -78t-79 -32zM637 1595q-47 0 -79 31t-32 78t32 79t79 32t79 -32t32 -78t-32 -78t-79 -32z" />
    <glyph glyph-name="Aring" unicode="&#xc5;" horiz-adv-x="1583" 
d="M672 508h239l-108 229l-12 27zM872 1450q23 0 35 -31l617 -1388q4 -12 -3.5 -21.5t-19.5 -9.5h-348q-14 0 -33 31l-53 123h-551l-55 -123q-12 -31 -31 -31h-354q-12 0 -17.5 9t-1.5 22l617 1388q12 31 33 31h165zM788 1696q35 0 53.5 24.5t18.5 56.5t-18.5 56.5
t-53.5 24.5q-66 0 -66 -81t66 -81zM789 1534q-101 0 -169.5 66.5t-68.5 177t68.5 177t169.5 66.5t172 -66.5t71 -177t-71 -177t-172 -66.5z" />
    <glyph glyph-name="AE" unicode="&#xc6;" horiz-adv-x="2103" 
d="M977 473v404l-244 -404h244zM1974 1075h-596v-180h389q31 0 31 -31v-297q0 -29 -31 -28h-389v-181h594q12 0 21.5 -9t9.5 -23v-295q0 -12 -9 -21.5t-22 -9.5h-964q-12 0 -21.5 9t-9.5 22v86h-463l-49 -86q-20 -31 -37 -31h-346q-12 0 -20.5 9t-0.5 22l785 1370
q25 33 37 33h1091q29 0 29 -31v-295q0 -33 -29 -33z" />
    <glyph glyph-name="Ccedilla" unicode="&#xc7;" horiz-adv-x="1474" 
d="M1014 -231q0 -186 -234 -187q-51 0 -102 26q-77 40 -62 70l66 70q10 10 27 -2q27 -27 69 -27q59 0 60 54q0 29 -17.5 43t-39.5 -6t-48 -13l-90 27q-14 4 -10 20l63 150q-264 41 -442 245.5t-178 493.5t217 503t520 214q168 0 313.5 -67.5t247.5 -188.5q20 -20 2 -43
l-225 -225q-25 -25 -45 4q-49 74 -126 117t-167 43q-145 0 -240.5 -108t-95.5 -266.5t95.5 -265t240.5 -106.5q195 0 322 162q23 23 47 0l207 -205q18 -23 0 -47q-96 -115 -231.5 -186.5t-291.5 -81.5l-22 -54q72 2 121 -40t49 -123z" />
    <glyph glyph-name="Egrave" unicode="&#xc8;" horiz-adv-x="1267" 
d="M1137 358q12 0 21 -9t9 -23v-295q0 -12 -9 -21.5t-21 -9.5h-965q-12 0 -21.5 9t-9.5 22v1372q0 12 9.5 21.5t21.5 9.5h967q29 0 28 -31v-295q0 -33 -28 -33h-596v-180h389q31 0 31 -31v-297q0 -29 -31 -28h-389v-181h594zM805 1567l-399 112q-25 12 -13 43l62 144
q12 35 43 14l360 -197q25 -16 14 -43l-22 -59q-10 -24 -45 -14z" />
    <glyph glyph-name="Eacute" unicode="&#xc9;" horiz-adv-x="1267" 
d="M1137 358q12 0 21 -9t9 -23v-295q0 -12 -9 -21.5t-21 -9.5h-965q-12 0 -21.5 9t-9.5 22v1372q0 12 9.5 21.5t21.5 9.5h967q29 0 28 -31v-295q0 -33 -28 -33h-596v-180h389q31 0 31 -31v-297q0 -29 -31 -28h-389v-181h594zM461 1565q-35 -10 -45 14l-23 59q-10 27 15 43
l360 197q31 20 43 -14l61 -144q12 -31 -12 -43z" />
    <glyph glyph-name="Ecircumflex" unicode="&#xca;" horiz-adv-x="1267" 
d="M1137 358q12 0 21 -9t9 -23v-295q0 -12 -9 -21.5t-21 -9.5h-965q-12 0 -21.5 9t-9.5 22v1372q0 12 9.5 21.5t21.5 9.5h967q29 0 28 -31v-295q0 -33 -28 -33h-596v-180h389q31 0 31 -31v-297q0 -29 -31 -28h-389v-181h594zM369 1579v80q0 20 20 41l186 170q25 25 52 24h8
q27 0 53 -24l189 -170q20 -20 20 -41v-80q0 -34 -39 -14l-227 131l-223 -131q-39 -20 -39 14z" />
    <glyph glyph-name="Edieresis" unicode="&#xcb;" horiz-adv-x="1267" 
d="M1137 358q12 0 21 -9t9 -23v-295q0 -12 -9 -21.5t-21 -9.5h-965q-12 0 -21.5 9t-9.5 22v1372q0 12 9.5 21.5t21.5 9.5h967q29 0 28 -31v-295q0 -33 -28 -33h-596v-180h389q31 0 31 -31v-297q0 -29 -31 -28h-389v-181h594zM792.5 1595q-47.5 0 -80 32t-32.5 78t32.5 78
t80 32t79 -32t31.5 -78t-31.5 -78t-79 -32zM481 1595q-47 0 -78.5 31t-31.5 78t31.5 79t78.5 32t79 -32t32 -78t-32 -78t-79 -32z" />
    <glyph glyph-name="Igrave" unicode="&#xcc;" horiz-adv-x="681" 
d="M172 0q-12 0 -21.5 9t-9.5 22v1372q0 12 9.5 21.5t21.5 9.5h340q12 0 21.5 -9.5t9.5 -21.5v-1372q0 -12 -9.5 -21.5t-21.5 -9.5h-340zM510 1567l-399 112q-25 12 -13 43l62 144q12 35 43 14l360 -197q25 -16 15 -43l-23 -59q-10 -24 -45 -14z" />
    <glyph glyph-name="Iacute" unicode="&#xcd;" horiz-adv-x="681" 
d="M172 0q-12 0 -21.5 9t-9.5 22v1372q0 12 9.5 21.5t21.5 9.5h340q12 0 21.5 -9.5t9.5 -21.5v-1372q0 -12 -9.5 -21.5t-21.5 -9.5h-340zM166 1565q-35 -10 -45 14l-23 59q-10 27 15 43l360 197q31 20 43 -14l62 -144q12 -31 -13 -43z" />
    <glyph glyph-name="Icircumflex" unicode="&#xce;" horiz-adv-x="681" 
d="M172 0q-12 0 -21.5 9t-9.5 22v1372q0 12 9.5 21.5t21.5 9.5h340q12 0 21.5 -9.5t9.5 -21.5v-1372q0 -12 -9.5 -21.5t-21.5 -9.5h-340zM74 1579v80q0 20 20 41l187 170q25 25 51 24h8q27 0 53 -24l189 -170q20 -20 20 -41v-80q0 -34 -39 -14l-227 131l-223 -131
q-39 -20 -39 14z" />
    <glyph glyph-name="Idieresis" unicode="&#xcf;" horiz-adv-x="681" 
d="M172 0q-12 0 -21.5 9t-9.5 22v1372q0 12 9.5 21.5t21.5 9.5h340q12 0 21.5 -9.5t9.5 -21.5v-1372q0 -12 -9.5 -21.5t-21.5 -9.5h-340zM498 1595q-47 0 -80 32t-33 78t33 78t80 32t78.5 -32t31.5 -78t-31.5 -78t-78.5 -32zM186 1595q-47 0 -78.5 31t-31.5 78t31.5 79
t78.5 32t79 -32t32 -78t-32 -78t-79 -32z" />
    <glyph glyph-name="Eth" unicode="&#xd0;" horiz-adv-x="1462" 
d="M743 358q242 0 242 358.5t-242 358.5h-200v-213h129q33 0 33 -31v-233q0 -31 -33 -31h-129v-209h200zM1384 722q0 -349 -180 -533.5t-450 -188.5h-582q-12 0 -21.5 9t-9.5 22v536h-39q-33 0 -32 31v233q0 31 32 31h39v541q0 12 9.5 21.5t21.5 9.5h590q274 -8 448 -185.5
t174 -526.5z" />
    <glyph glyph-name="Ntilde" unicode="&#xd1;" horiz-adv-x="1593" 
d="M1421 1434q12 0 21.5 -9.5t9.5 -21.5v-1374q0 -29 -31 -29h-288q-31 0 -54 29l-536 696v-696q0 -29 -31 -29h-340q-31 0 -31 29v1374q0 12 9.5 21.5t21.5 9.5h307q33 0 51 -31l521 -668v668q0 12 9 21.5t21 9.5h340zM887.5 1591q-64.5 0 -126 31t-104.5 31
q-96 0 -125 -45q-8 -12 -28 -4l-55 26q-35 13 45 117q44 57 136.5 57t162 -30.5t109.5 -30.5t89 45q10 10 29 4l53 -23q16 -4 8 -24q-25 -68 -77 -111t-116.5 -43z" />
    <glyph glyph-name="Ograve" unicode="&#xd2;" horiz-adv-x="1626" 
d="M814 342q144 0 239.5 106.5t95.5 266t-95.5 267.5t-239.5 108t-240.5 -108t-96.5 -267.5t96.5 -266t240.5 -106.5zM812 -16q-304 0 -520 214t-216 517t216 519t520 216t521 -216t217 -518t-217 -517t-521 -215zM983 1567l-399 112q-25 12 -13 43l62 144q12 35 43 14
l360 -197q25 -16 15 -43l-23 -59q-10 -24 -45 -14z" />
    <glyph glyph-name="Oacute" unicode="&#xd3;" horiz-adv-x="1626" 
d="M814 342q144 0 239.5 106.5t95.5 266t-95.5 267.5t-239.5 108t-240.5 -108t-96.5 -267.5t96.5 -266t240.5 -106.5zM812 -16q-304 0 -520 214t-216 517t216 519t520 216t521 -216t217 -518t-217 -517t-521 -215zM639 1565q-35 -10 -45 14l-23 59q-10 27 15 43l360 197
q31 20 43 -14l62 -144q12 -31 -13 -43z" />
    <glyph glyph-name="Ocircumflex" unicode="&#xd4;" horiz-adv-x="1626" 
d="M814 342q144 0 239.5 106.5t95.5 266t-95.5 267.5t-239.5 108t-240.5 -108t-96.5 -267.5t96.5 -266t240.5 -106.5zM812 -16q-304 0 -520 214t-216 517t216 519t520 216t521 -216t217 -518t-217 -517t-521 -215zM547 1579v80q0 20 20 41l187 170q25 25 51 24h8
q27 0 53 -24l189 -170q20 -20 20 -41v-80q0 -34 -39 -14l-227 131l-223 -131q-39 -20 -39 14z" />
    <glyph glyph-name="Otilde" unicode="&#xd5;" horiz-adv-x="1626" 
d="M814 342q144 0 239.5 106.5t95.5 266t-95.5 267.5t-239.5 108t-240.5 -108t-96.5 -267.5t96.5 -266t240.5 -106.5zM812 -16q-304 0 -520 214t-216 517t216 519t520 216t521 -216t217 -518t-217 -517t-521 -215zM939 1591q-65 0 -126 31t-105 31q-97 0 -124 -45
q-8 -12 -29 -4l-55 26q-36 13 44 117q44 57 137 57t162.5 -30.5t109.5 -30.5t89 45q10 10 29 4l53 -23q16 -4 9 -24q-25 -68 -77 -111t-117 -43z" />
    <glyph glyph-name="Odieresis" unicode="&#xd6;" horiz-adv-x="1626" 
d="M814 342q144 0 239.5 106.5t95.5 266t-95.5 267.5t-239.5 108t-240.5 -108t-96.5 -267.5t96.5 -266t240.5 -106.5zM812 -16q-304 0 -520 214t-216 517t216 519t520 216t521 -216t217 -518t-217 -517t-521 -215zM971 1595q-47 0 -80 32t-33 78t33 78t80 32t78.5 -32
t31.5 -78t-31.5 -78t-78.5 -32zM659.5 1595q-47.5 0 -79 31t-31.5 78t31.5 79t79 32t79 -32t31.5 -78t-31.5 -78t-79 -32z" />
    <glyph glyph-name="multiply" unicode="&#xd7;" horiz-adv-x="1048" 
d="M709 604l233 -235q25 -25 2 -45l-139 -140q-20 -25 -45 0l-236 236l-235 -236q-25 -25 -45 0l-140 140q-23 20 2 45l236 235l-236 234q-25 23 -2 45l140 139q20 25 45 0l235 -236l236 236q25 25 45 0l139 -139q23 -23 -2 -45z" />
    <glyph glyph-name="Oslash" unicode="&#xd8;" horiz-adv-x="1626" 
d="M815 342q143 0 238.5 106.5t95.5 256t-74 251.5l-313 -610q33 -4 53 -4zM477 719q0 -156 88 -260l320 622q-31 8 -70 9q-145 0 -241.5 -107.5t-96.5 -263.5zM1284 1450q16 0 24.5 -11.5t0.5 -25.5l-56 -108q137 -104 217 -258t80 -332q0 -301 -217 -516t-520 -215
q-109 0 -219 32l-2 -2q-14 -31 -43 -30h-172q-20 0 -30.5 14t-2.5 31l45 88q-145 102 -229 258.5t-84 339.5q0 303 216 519t521 216q123 0 240 -41q16 41 47 41h184z" />
    <glyph glyph-name="Ugrave" unicode="&#xd9;" horiz-adv-x="1439" 
d="M1317 1434q12 0 21.5 -9.5t9.5 -23.5v-785q0 -190 -77 -340q-44 -86 -111.5 -149.5t-180.5 -103t-258.5 -39.5t-259 39.5t-181 103t-110.5 149.5q-76 152 -76 340v785q0 14 9.5 23.5t21.5 9.5h340q31 0 31 -33v-733q0 -156 50 -241t175 -85t175 85t50 241v733
q0 14 9.5 23.5t21.5 9.5h340zM891 1567l-399 112q-25 12 -13 43l62 144q12 35 43 14l360 -197q25 -16 14 -43l-22 -59q-10 -24 -45 -14z" />
    <glyph glyph-name="Uacute" unicode="&#xda;" horiz-adv-x="1439" 
d="M1317 1434q12 0 21.5 -9.5t9.5 -23.5v-785q0 -190 -77 -340q-44 -86 -111.5 -149.5t-180.5 -103t-258.5 -39.5t-259 39.5t-181 103t-110.5 149.5q-76 152 -76 340v785q0 14 9.5 23.5t21.5 9.5h340q31 0 31 -33v-733q0 -156 50 -241t175 -85t175 85t50 241v733
q0 14 9.5 23.5t21.5 9.5h340zM547 1565q-35 -10 -45 14l-23 59q-10 27 15 43l360 197q31 20 43 -14l61 -144q12 -31 -12 -43z" />
    <glyph glyph-name="Ucircumflex" unicode="&#xdb;" horiz-adv-x="1439" 
d="M1317 1434q12 0 21.5 -9.5t9.5 -23.5v-785q0 -190 -77 -340q-44 -86 -111.5 -149.5t-180.5 -103t-258.5 -39.5t-259 39.5t-181 103t-110.5 149.5q-76 152 -76 340v785q0 14 9.5 23.5t21.5 9.5h340q31 0 31 -33v-733q0 -156 50 -241t175 -85t175 85t50 241v733
q0 14 9.5 23.5t21.5 9.5h340zM455 1579v80q0 20 20 41l187 170q25 25 51 24h8q27 0 53 -24l189 -170q20 -20 20 -41v-80q0 -34 -39 -14l-227 131l-223 -131q-39 -20 -39 14z" />
    <glyph glyph-name="Udieresis" unicode="&#xdc;" horiz-adv-x="1439" 
d="M1317 1434q12 0 21.5 -9.5t9.5 -23.5v-785q0 -190 -77 -340q-44 -86 -111.5 -149.5t-180.5 -103t-258.5 -39.5t-259 39.5t-181 103t-110.5 149.5q-76 152 -76 340v785q0 14 9.5 23.5t21.5 9.5h340q31 0 31 -33v-733q0 -156 50 -241t175 -85t175 85t50 241v733
q0 14 9.5 23.5t21.5 9.5h340zM878.5 1595q-47.5 0 -80 32t-32.5 78t32.5 78t80 32t79 -32t31.5 -78t-31.5 -78t-79 -32zM567 1595q-47 0 -78.5 31t-31.5 78t31.5 79t78.5 32t79 -32t32 -78t-32 -78t-79 -32z" />
    <glyph glyph-name="Yacute" unicode="&#xdd;" horiz-adv-x="1402" 
d="M1329 1434q12 0 20.5 -9.5t4.5 -21.5l-453 -799v-575q0 -12 -10 -20.5t-23 -8.5h-338q-31 0 -30 29v575l-449 799q-6 12 2 21.5t21 9.5h358q41 0 53 -31l215 -406l218 406q12 31 49 31h362zM528 1565q-35 -10 -45 14l-22 59q-10 27 14 43l361 197q31 20 43 -14l61 -144
q12 -31 -12 -43z" />
    <glyph glyph-name="Thorn" unicode="&#xde;" horiz-adv-x="1396" 
d="M829 647q45 0 68 31q23 32 23 60t-23 59t-72 30h-282v-180h286zM1321 735q0 -201 -115 -323t-276 -123h-387v-260q0 -29 -31 -29h-340q-31 0 -31 29v1374q0 31 31 31h340q12 0 22 -10t9 -21v-217h401q160 -4 268 -127t109 -324z" />
    <glyph glyph-name="germandbls" unicode="&#xdf;" horiz-adv-x="1220" 
d="M993 738q0 -11 36 -62q36 -52 73 -144t37 -191q0 -254 -183 -325q-85 -32 -209 -32q-125 0 -202 53q-20 14 -15 41l52 186q6 34 45 17q55 -25 89 -19t40 27q6 22 6 53q0 86 -44 167t-87 144t-43 115t85 158t85 151q0 80 -125 80q-88 0 -125 -56t-37 -202v-868
q0 -31 -31 -31h-315q-31 0 -31 31v876q4 162 29 260q53 208 254 257q102 26 270 26q283 0 386 -72t104 -229q0 -109 -36 -202t-72 -145t-36 -64z" />
    <glyph glyph-name="agrave" unicode="&#xe0;" horiz-adv-x="1114" 
d="M535.5 262q60.5 0 86 44t25.5 126t-24.5 127t-86 45t-94 -49t-32.5 -122t32.5 -122t93 -49zM989 868q29 0 29 -32v-805q0 -12 -9.5 -21.5t-19.5 -9.5h-229q-43 0 -62 41l-18 25q-88 -82 -211 -82q-213 0 -313.5 127t-100.5 325.5t105.5 322.5t306.5 124q129 0 219 -70
l21 23q29 33 51 32h231zM729 977l-350 225q-25 18 -8 45l98 150q25 29 47 4l289 -318q20 -23 8 -45l-37 -55q-18 -24 -47 -6z" />
    <glyph glyph-name="aacute" unicode="&#xe1;" horiz-adv-x="1114" 
d="M535.5 262q60.5 0 86 44t25.5 126t-24.5 127t-86 45t-94 -49t-32.5 -122t32.5 -122t93 -49zM989 868q29 0 29 -32v-805q0 -12 -9.5 -21.5t-19.5 -9.5h-229q-43 0 -62 41l-18 25q-88 -82 -211 -82q-213 0 -313.5 127t-100.5 325.5t105.5 322.5t306.5 124q129 0 219 -70
l21 23q29 33 51 32h231zM442 977q-29 -18 -47 6l-37 55q-12 23 9 45l288 318q23 25 47 -4l99 -150q16 -27 -8 -45z" />
    <glyph glyph-name="acircumflex" unicode="&#xe2;" horiz-adv-x="1114" 
d="M535.5 262q60.5 0 86 44t25.5 126t-24.5 127t-86 45t-94 -49t-32.5 -122t32.5 -122t93 -49zM989 868q29 0 29 -32v-805q0 -12 -9.5 -21.5t-19.5 -9.5h-229q-43 0 -62 41l-18 25q-88 -82 -211 -82q-213 0 -313.5 127t-100.5 325.5t105.5 322.5t306.5 124q129 0 219 -70
l21 23q29 33 51 32h231zM307 1012v80q0 20 21 41l186 170q25 25 51 24h8q27 0 54 -24l188 -170q20 -20 21 -41v-80q0 -33 -39 -15l-228 131l-223 -131q-39 -18 -39 15z" />
    <glyph glyph-name="atilde" unicode="&#xe3;" horiz-adv-x="1114" 
d="M535.5 262q60.5 0 86 44t25.5 126t-24.5 127t-86 45t-94 -49t-32.5 -122t32.5 -122t93 -49zM989 868q29 0 29 -32v-805q0 -12 -9.5 -21.5t-19.5 -9.5h-229q-43 0 -62 41l-18 25q-88 -82 -211 -82q-213 0 -313.5 127t-100.5 325.5t105.5 322.5t306.5 124q129 0 219 -70
l21 23q29 33 51 32h231zM699.5 1024q-64.5 0 -126 30.5t-104.5 30.5q-99 0 -125 -45q-8 -12 -29 -4l-55 27q-36 13 46 117q45 58 137 57.5t161.5 -31t109.5 -30.5t89 45q10 10 28 4l54 -23q16 -4 8 -24q-25 -68 -77 -111t-116.5 -43z" />
    <glyph glyph-name="adieresis" unicode="&#xe4;" horiz-adv-x="1114" 
d="M535.5 262q60.5 0 86 44t25.5 126t-24.5 127t-86 45t-94 -49t-32.5 -122t32.5 -122t93 -49zM989 868q29 0 29 -32v-805q0 -12 -9.5 -21.5t-19.5 -9.5h-229q-43 0 -62 41l-18 25q-88 -82 -211 -82q-213 0 -313.5 127t-100.5 325.5t105.5 322.5t306.5 124q129 0 219 -70
l21 23q29 33 51 32h231zM731 1028q-47 0 -80 32t-33 78t33 77.5t80 31.5t79 -31.5t32 -77.5t-32 -78t-79 -32zM420 1028q-47 0 -79 31t-32 78t32 78.5t79 31.5t78.5 -31.5t31.5 -77.5t-31.5 -78t-78.5 -32z" />
    <glyph glyph-name="aring" unicode="&#xe5;" horiz-adv-x="1114" 
d="M535.5 262q60.5 0 86 44t25.5 126t-24.5 127t-86 45t-94 -49t-32.5 -122t32.5 -122t93 -49zM989 868q29 0 29 -32v-805q0 -12 -9.5 -21.5t-19.5 -9.5h-229q-43 0 -62 41l-18 25q-88 -82 -211 -82q-213 0 -313.5 127t-100.5 325.5t105.5 322.5t306.5 124q129 0 219 -70
l21 23q29 33 51 32h231zM571 1128q35 0 53.5 25t18.5 56.5t-18.5 56t-53.5 24.5q-66 0 -66 -81t66 -81zM572 967q-101 0 -169.5 66.5t-68.5 177t68.5 177t169.5 66.5t172 -66.5t71 -177t-71 -177t-172 -66.5z" />
    <glyph glyph-name="ae" unicode="&#xe6;" horiz-adv-x="1572" 
d="M497 193q36 0 62.5 22.5t26.5 58.5q0 88 -90 88q-35 0 -60.5 -26.5t-25.5 -60.5t25.5 -58t61.5 -24zM1051 651q-83 0 -97 -98h201q-6 37 -31.5 67.5t-72.5 30.5zM1069 883q231 0 340 -144.5t109 -402.5q0 -12 -9.5 -21.5t-21.5 -9.5h-529q37 -66 154 -65.5t195 36.5
q29 12 41 -10l82 -157q12 -29 -5 -39q-127 -86 -329 -86t-338 104q-119 -104 -383 -104q-166 0 -243 79.5t-77 202.5t91.5 197t259.5 74q104 0 169 -19v33q0 72 -120.5 72t-216.5 -23q-14 -2 -24.5 6t-10.5 19l-33 184q-6 31 29 39h2q5 0 26 5t39 8t38 6q109 16 224 16
q172 0 273 -68q116 68 268 68z" />
    <glyph glyph-name="ccedilla" unicode="&#xe7;" horiz-adv-x="978" 
d="M717 -231q0 -186 -234 -187q-51 0 -102 26q-77 40 -62 70l66 70q10 10 27 -2q27 -27 69 -27q59 0 60 54q0 29 -17.5 43t-40.5 -7t-47 -12l-90 27q-14 4 -10 20l63 152q-162 35 -253 153.5t-91 298t127 307.5t344 128q100 0 195.5 -39t155.5 -111q12 -20 -3 -39l-147 -153
q-23 -18 -41 2q-57 61 -131 61t-109.5 -48t-35.5 -126t34.5 -123t104.5 -45q102 0 151 76q18 25 43 4l152 -147q6 -4 8 -16.5t-4 -22.5q-51 -70 -140 -115t-190 -55l-22 -54q72 2 121 -40t49 -123z" />
    <glyph glyph-name="egrave" unicode="&#xe8;" horiz-adv-x="1038" 
d="M516 651q-82 0 -96 -98h201q-6 37 -32 67.5t-73 30.5zM544 883q222 0 330.5 -144.5t108.5 -402.5q0 -12 -9 -21.5t-22 -9.5h-528q37 -66 154 -65.5t194 36.5q29 12 41 -10l82 -157q12 -29 -4 -39q-127 -86 -340 -86t-354.5 126t-141.5 324.5t133.5 323.5t355.5 125z
M684 977l-350 225q-25 18 -8 45l98 150q25 29 47 4l289 -318q20 -23 8 -45l-37 -55q-18 -24 -47 -6z" />
    <glyph glyph-name="eacute" unicode="&#xe9;" horiz-adv-x="1038" 
d="M516 651q-82 0 -96 -98h201q-6 37 -32 67.5t-73 30.5zM544 883q222 0 330.5 -144.5t108.5 -402.5q0 -12 -9 -21.5t-22 -9.5h-528q37 -66 154 -65.5t194 36.5q29 12 41 -10l82 -157q12 -29 -4 -39q-127 -86 -340 -86t-354.5 126t-141.5 324.5t133.5 323.5t355.5 125z
M397 977q-29 -18 -47 6l-37 55q-12 23 9 45l288 318q23 25 47 -4l99 -150q16 -27 -8 -45z" />
    <glyph glyph-name="ecircumflex" unicode="&#xea;" horiz-adv-x="1038" 
d="M516 651q-82 0 -96 -98h201q-6 37 -32 67.5t-73 30.5zM544 883q222 0 330.5 -144.5t108.5 -402.5q0 -12 -9 -21.5t-22 -9.5h-528q37 -66 154 -65.5t194 36.5q29 12 41 -10l82 -157q12 -29 -4 -39q-127 -86 -340 -86t-354.5 126t-141.5 324.5t133.5 323.5t355.5 125z
M262 1012v80q0 20 21 41l186 170q25 25 51 24h8q27 0 54 -24l188 -170q20 -20 21 -41v-80q0 -33 -39 -15l-228 131l-223 -131q-39 -18 -39 15z" />
    <glyph glyph-name="edieresis" unicode="&#xeb;" horiz-adv-x="1038" 
d="M516 651q-82 0 -96 -98h201q-6 37 -32 67.5t-73 30.5zM544 883q222 0 330.5 -144.5t108.5 -402.5q0 -12 -9 -21.5t-22 -9.5h-528q37 -66 154 -65.5t194 36.5q29 12 41 -10l82 -157q12 -29 -4 -39q-127 -86 -340 -86t-354.5 126t-141.5 324.5t133.5 323.5t355.5 125z
M686 1028q-47 0 -80 32t-33 78t33 77.5t80 31.5t79 -31.5t32 -77.5t-32 -78t-79 -32zM375 1028q-47 0 -79 31t-32 78t32 78.5t79 31.5t78.5 -31.5t31.5 -77.5t-31.5 -78t-78.5 -32z" />
    <glyph glyph-name="igrave" unicode="&#xec;" horiz-adv-x="565" 
d="M125 0q-31 0 -31 29v800q0 37 31 37h315q31 0 31 -37v-800q0 -29 -31 -29h-315zM438 979l-350 225q-25 18 -8 45l98 150q25 29 47 4l289 -318q20 -23 8 -45l-37 -55q-18 -24 -47 -6z" />
    <glyph glyph-name="iacute" unicode="&#xed;" horiz-adv-x="565" 
d="M125 0q-31 0 -31 29v800q0 37 31 37h315q31 0 31 -37v-800q0 -29 -31 -29h-315zM152 979q-29 -18 -48 6l-36 55q-12 23 8 45l289 318q23 25 47 -4l98 -150q16 -27 -8 -45z" />
    <glyph glyph-name="icircumflex" unicode="&#xee;" horiz-adv-x="565" 
d="M125 0q-31 0 -31 29v800q0 37 31 37h315q31 0 31 -37v-800q0 -29 -31 -29h-315zM16 1014v80q0 20 21 41l186 170q25 25 51 24h9q27 0 53 -24l188 -170q20 -20 21 -41v-80q0 -35 -39 -15l-227 131l-224 -131q-39 -20 -39 15z" />
    <glyph glyph-name="idieresis" unicode="&#xef;" horiz-adv-x="565" 
d="M125 0q-31 0 -31 29v800q0 37 31 37h315q31 0 31 -37v-800q0 -29 -31 -29h-315zM440 1030q-47 0 -79.5 32t-32.5 78t32.5 77.5t79.5 31.5t79 -31.5t32 -77.5t-32 -78t-79 -32zM129 1030q-47 0 -79 31t-32 78t32 78.5t79 31.5t79 -31.5t32 -77.5t-32 -78t-79 -32z" />
    <glyph glyph-name="eth" unicode="&#xf0;" horiz-adv-x="1110" 
d="M555 262q49 0 84 39t35 129t-35 129t-84 39t-85 -39t-36 -129t36 -129t85 -39zM573 -16q-215 0 -354 130t-139 316t140 319.5t335 133.5q4 0 35 20q-27 59 -84 123l-76 -82q-25 -29 -47 -6l-84 80q-25 20 0 45l72 76q-35 25 -88 49q-31 14 -17 39l101 203q16 35 55 10
q96 -47 149 -82l74 78q27 23 47 4l84 -78q25 -23 0 -47l-59 -64q317 -276 319 -692q0 -279 -124 -427t-339 -148z" />
    <glyph glyph-name="ntilde" unicode="&#xf1;" horiz-adv-x="1200" 
d="M702 883q207 0 304.5 -108.5t97.5 -285.5v-458q0 -14 -11.5 -22.5t-23.5 -8.5h-313q-31 0 -31 31v448q0 45 -36 85t-88 40t-89 -40t-37 -95v-438q0 -31 -31 -31h-319q-29 0 -29 31v803q0 35 29 34h297q20 0 31 -34l22 -60q39 47 104.5 78t122.5 31zM726 1024
q-65 0 -126 30q-60 30 -104 31q-99 0 -125 -45q-8 -12 -29 -4l-55 27q-23 9 14 74t84 82.5t111.5 17.5t134 -30.5t109.5 -30.5t89 45q10 10 29 4l53 -23q16 -4 9 -24q-25 -68 -77 -111t-117 -43z" />
    <glyph glyph-name="ograve" unicode="&#xf2;" horiz-adv-x="1036" 
d="M519 262q48 0 84 40t36 130t-36 131t-84 41t-84 -41t-36 -131t36 -130t84 -40zM518 -16q-205 0 -340 131t-135 319t135 318.5t341 130.5t340 -130t134 -318.5t-135 -319.5t-340 -131zM674 977l-350 225q-25 18 -9 45l99 150q25 29 47 4l289 -318q20 -23 8 -45l-37 -55
q-18 -24 -47 -6z" />
    <glyph glyph-name="oacute" unicode="&#xf3;" horiz-adv-x="1036" 
d="M519 262q48 0 84 40t36 130t-36 131t-84 41t-84 -41t-36 -131t36 -130t84 -40zM518 -16q-205 0 -340 131t-135 319t135 318.5t341 130.5t340 -130t134 -318.5t-135 -319.5t-340 -131zM387 977q-29 -18 -47 6l-37 55q-12 23 8 45l289 318q23 25 47 -4l98 -150
q16 -27 -8 -45z" />
    <glyph glyph-name="ocircumflex" unicode="&#xf4;" horiz-adv-x="1036" 
d="M519 262q48 0 84 40t36 130t-36 131t-84 41t-84 -41t-36 -131t36 -130t84 -40zM518 -16q-205 0 -340 131t-135 319t135 318.5t341 130.5t340 -130t134 -318.5t-135 -319.5t-340 -131zM252 1012v80q0 20 20 41l187 170q25 25 51 24h8q27 0 53 -24l189 -170q20 -20 20 -41
v-80q0 -33 -39 -15l-227 131l-223 -131q-39 -18 -39 15z" />
    <glyph glyph-name="otilde" unicode="&#xf5;" horiz-adv-x="1036" 
d="M519 262q48 0 84 40t36 130t-36 131t-84 41t-84 -41t-36 -131t36 -130t84 -40zM518 -16q-205 0 -340 131t-135 319t135 318.5t341 130.5t340 -130t134 -318.5t-135 -319.5t-340 -131zM644 1024q-65 0 -126 30q-60 30 -104 31q-99 0 -125 -45q-8 -12 -29 -4l-55 27
q-23 9 14 74t84 82.5t111.5 17.5t134 -30.5t109.5 -30.5t90 45q10 10 28 4l53 -23q16 -4 9 -24q-25 -68 -77 -111t-117 -43z" />
    <glyph glyph-name="odieresis" unicode="&#xf6;" horiz-adv-x="1036" 
d="M519 262q48 0 84 40t36 130t-36 131t-84 41t-84 -41t-36 -131t36 -130t84 -40zM518 -16q-205 0 -340 131t-135 319t135 318.5t341 130.5t340 -130t134 -318.5t-135 -319.5t-340 -131zM676 1028q-47 0 -80 32t-33 78t33 77.5t80 31.5t78.5 -31.5t31.5 -77.5t-31.5 -78
t-78.5 -32zM364.5 1028q-47.5 0 -79 31t-31.5 78t31.5 78.5t79 31.5t79 -31.5t31.5 -77.5t-31.5 -78t-79 -32z" />
    <glyph glyph-name="divide" unicode="&#xf7;" horiz-adv-x="1179" 
d="M590 403q70 0 119 -49t49 -120q0 -72 -49 -120t-119 -48t-120 49t-50 119t50 119q50 50 120 50zM127 571q-33 0 -33 31v197q0 31 33 30h926q33 0 32 -30v-197q0 -31 -32 -31h-926zM590 1337q70 0 119 -49t49 -120q0 -72 -49 -120t-119 -48t-120 48q-50 50 -50 120t50 119
q50 50 120 50z" />
    <glyph glyph-name="oslash" unicode="&#xf8;" horiz-adv-x="1036" 
d="M518 262q49 0 85 40t36 108.5t-8 95.5l-125 -244h12zM518 604q-47 0 -83 -41t-37 -106.5t8 -89.5l120 237h-8zM993 432q0 -186 -135 -317t-340 -131q-82 0 -145 20q-14 -20 -39 -20h-70q-20 0 -30.5 14t-2.5 31l17 30q-96 61 -150.5 159.5t-54.5 213.5q0 190 135 320.5
t340 130.5q76 0 141 -19q12 18 35 19h86q16 0 24.5 -11.5t0.5 -25.5l-19 -37q96 -59 151.5 -158.5t55.5 -218.5z" />
    <glyph glyph-name="ugrave" unicode="&#xf9;" horiz-adv-x="1163" 
d="M1036 866q31 0 31 -37v-800q0 -12 -10 -20.5t-23 -8.5h-248q-29 0 -49 29l-51 69q-31 -47 -96.5 -80.5t-128.5 -33.5q-176 0 -270.5 100t-94.5 285v460q0 37 29 37h319q31 0 31 -37v-446q0 -49 28.5 -86t74.5 -37t77 35t33 90v444q0 37 31 37h317zM737 977l-350 225
q-25 18 -8 45l98 150q25 29 47 4l289 -318q20 -23 8 -45l-37 -55q-18 -24 -47 -6z" />
    <glyph glyph-name="uacute" unicode="&#xfa;" horiz-adv-x="1163" 
d="M1036 866q31 0 31 -37v-800q0 -12 -10 -20.5t-23 -8.5h-248q-29 0 -49 29l-51 69q-31 -47 -96.5 -80.5t-128.5 -33.5q-176 0 -270.5 100t-94.5 285v460q0 37 29 37h319q31 0 31 -37v-446q0 -49 28.5 -86t74.5 -37t77 35t33 90v444q0 37 31 37h317zM451 977q-29 -18 -48 6
l-36 55q-12 23 8 45l289 318q23 25 47 -4l98 -150q16 -27 -8 -45z" />
    <glyph glyph-name="ucircumflex" unicode="&#xfb;" horiz-adv-x="1163" 
d="M1036 866q31 0 31 -37v-800q0 -12 -10 -20.5t-23 -8.5h-248q-29 0 -49 29l-51 69q-31 -47 -96.5 -80.5t-128.5 -33.5q-176 0 -270.5 100t-94.5 285v460q0 37 29 37h319q31 0 31 -37v-446q0 -49 28.5 -86t75 -37t77 35t32.5 90v444q0 37 31 37h317zM315 1012v80
q0 20 21 41l186 170q25 25 51 24h9q27 0 53 -24l188 -170q20 -20 21 -41v-80q0 -33 -39 -15l-227 131l-224 -131q-39 -18 -39 15z" />
    <glyph glyph-name="udieresis" unicode="&#xfc;" horiz-adv-x="1163" 
d="M1036 866q31 0 31 -37v-800q0 -12 -10 -20.5t-23 -8.5h-248q-29 0 -49 29l-51 69q-31 -47 -96.5 -80.5t-128.5 -33.5q-176 0 -270.5 100t-94.5 285v460q0 37 29 37h319q31 0 31 -37v-446q0 -49 28.5 -86t74.5 -37t77 35t33 90v444q0 37 31 37h317zM739 1028
q-47 0 -79.5 32t-32.5 78t32.5 77.5t79.5 31.5t79 -31.5t32 -77.5t-32 -78t-79 -32zM428 1028q-47 0 -79 31t-32 78t32 78.5t79 31.5t79 -31.5t32 -77.5t-32 -78t-79 -32z" />
    <glyph glyph-name="yacute" unicode="&#xfd;" horiz-adv-x="1161" 
d="M1096 866q14 0 25.5 -13t2.5 -30l-608 -1204q-8 -16 -27 -16h-294q-16 0 -26.5 13t-2.5 30l237 469l-366 708q-6 12 2 27.5t27 15.5h305q23 0 35 -30l176 -367l192 379q8 18 29 18h293zM455 977q-29 -18 -47 6l-37 55q-12 23 8 45l289 318q23 25 47 -4l98 -150
q16 -27 -8 -45z" />
    <glyph glyph-name="thorn" unicode="&#xfe;" horiz-adv-x="1110" 
d="M575 262q53 0 90 49q35 49 35 120t-34 119q-35 48 -91 48q-119 0 -119 -168t119 -168zM633 883q205 0 313 -131t109 -323q0 -193 -110 -319t-312 -126q-84 0 -158 24v-379q0 -12 -9 -21t-22 -9h-319q-29 0 -29 30v1602q0 37 29 37h315q35 0 35 -37v-375q80 27 158 27z
" />
    <glyph glyph-name="ydieresis" unicode="&#xff;" horiz-adv-x="1161" 
d="M1096 866q14 0 25.5 -13t2.5 -30l-608 -1204q-8 -16 -27 -16h-294q-16 0 -26.5 13t-2.5 30l237 469l-366 708q-6 12 2 27.5t27 15.5h305q23 0 35 -30l176 -367l192 379q8 18 29 18h293zM743.5 1028q-47.5 0 -80 32t-32.5 78t32.5 77.5t80 31.5t79 -31.5t31.5 -77.5
t-31.5 -78t-79 -32zM432 1028q-47 0 -78.5 31t-31.5 78t31.5 78.5t78.5 31.5t79 -31.5t32 -77.5t-32 -78t-79 -32z" />
    <glyph glyph-name="Amacron" unicode="&#x100;" horiz-adv-x="1583" 
d="M672 508h239l-108 229l-12 27zM872 1450q23 0 35 -31l617 -1388q4 -12 -3.5 -21.5t-19.5 -9.5h-348q-14 0 -33 31l-53 123h-551l-55 -123q-12 -31 -31 -31h-354q-12 0 -17.5 9t-1.5 22l617 1388q12 31 33 31h165zM588 1599q-33 0 -33 31v133q0 31 33 31h405q33 0 33 -31
v-133q0 -31 -33 -31h-405z" />
    <glyph glyph-name="amacron" unicode="&#x101;" horiz-adv-x="1114" 
d="M535.5 262q60.5 0 86 44t25.5 126t-24.5 127t-86 45t-94 -49t-32.5 -122t32.5 -122t93 -49zM989 868q29 0 29 -32v-805q0 -12 -9.5 -21.5t-19.5 -9.5h-229q-43 0 -62 41l-18 25q-88 -82 -211 -82q-213 0 -313.5 127t-100.5 325.5t105.5 322.5t306.5 124q129 0 219 -70
l21 23q29 33 51 32h231zM371 1032q-33 0 -33 31v133q0 31 33 31h405q33 0 33 -31v-133q0 -31 -33 -31h-405z" />
    <glyph glyph-name="Abreve" unicode="&#x102;" horiz-adv-x="1583" 
d="M672 508h239l-108 229l-12 27zM872 1450q23 0 35 -31l617 -1388q4 -12 -3.5 -21.5t-19.5 -9.5h-348q-14 0 -33 31l-53 123h-551l-55 -123q-12 -31 -31 -31h-354q-12 0 -17.5 9t-1.5 22l617 1388q12 31 33 31h165zM789.5 1567q-228.5 0 -314.5 217q-6 14 10 20l144 62
q14 6 22 -8q33 -51 61.5 -73t78 -22t76 21.5t59.5 73.5q8 14 22 8l146 -62q16 -6 10 -20q-86 -217 -314.5 -217z" />
    <glyph glyph-name="abreve" unicode="&#x103;" horiz-adv-x="1114" 
d="M535.5 262q60.5 0 86 44t25.5 126t-24.5 127t-86 45t-94 -49t-32.5 -122t32.5 -122t93 -49zM989 868q29 0 29 -32v-805q0 -12 -9.5 -21.5t-19.5 -9.5h-229q-43 0 -62 41l-18 25q-88 -82 -211 -82q-213 0 -313.5 127t-100.5 325.5t105.5 322.5t306.5 124q129 0 219 -70
l21 23q29 33 51 32h231zM573.5 1196q49.5 0 76 21.5t59.5 72.5q8 14 22 8l146 -61q16 -6 10 -20q-86 -217 -314.5 -217.5t-314.5 217.5q-6 14 10 20l144 61q14 6 22 -8q33 -51 61.5 -72.5t78 -21.5z" />
    <glyph glyph-name="Aogonek" unicode="&#x104;" horiz-adv-x="1583" 
d="M672 508h239l-108 229l-12 27zM1501 0h-110q-94 -111 -95 -211q0 -57 29 -67q10 -4 38 -3.5t91 39.5q18 14 31 0l24 -26q10 -14 4 -23q-59 -139 -208 -139q-82 0 -140.5 45t-58.5 135q0 133 125 250h-78q-14 0 -33 31l-53 123h-551l-55 -123q-12 -31 -31 -31h-354
q-12 0 -17.5 9t-1.5 22l617 1388q12 31 33 31h165q23 0 35 -31l617 -1388q4 -12 -3.5 -21.5t-19.5 -9.5z" />
    <glyph glyph-name="aogonek" unicode="&#x105;" horiz-adv-x="1114" 
d="M535.5 262q60.5 0 86 44t25.5 126t-24.5 127t-86 45t-94 -49t-32.5 -122t32.5 -122t93 -49zM989 868q29 0 29 -32v-805q0 -12 -9.5 -21.5t-19.5 -9.5h-108q-94 -111 -95 -211q0 -57 29 -67q10 -4 38 -3.5t91 39.5q18 14 31 0l24 -26q10 -14 5 -23q-59 -139 -209 -139
q-82 0 -140.5 45t-58.5 135q0 137 133 258q-23 12 -31 33l-18 25q-88 -82 -211 -82q-213 0 -313.5 127t-100.5 325.5t105.5 322.5t306.5 124q129 0 219 -70l21 23q29 33 51 32h231z" />
    <glyph glyph-name="Cacute" unicode="&#x106;" horiz-adv-x="1474" 
d="M813 -16q-303 0 -520 214t-217 519t217 519t520 214q168 0 313.5 -67.5t247.5 -188.5q20 -20 2 -43l-225 -225q-25 -25 -45 4q-49 74 -126 117t-167 43q-145 0 -240.5 -108t-95.5 -266t95.5 -265t240.5 -107q195 0 322 162q23 23 47 0l207 -205q18 -23 0 -47
q-104 -125 -254 -197.5t-322 -72.5zM639 1565q-35 -10 -45 14l-23 59q-10 27 15 43l360 197q31 20 43 -14l62 -144q12 -31 -13 -43z" />
    <glyph glyph-name="cacute" unicode="&#x107;" horiz-adv-x="978" 
d="M522 -16q-217 0 -342 127t-125 321.5t127 322.5t344 128q100 0 195.5 -39t155.5 -111q12 -20 -3 -39l-147 -153q-23 -18 -41 2q-57 61 -131 61t-109.5 -48t-35.5 -126t34.5 -123t104.5 -45q102 0 151 76q18 25 43 4l152 -147q6 -4 8 -16.5t-4 -22.5q-57 -78 -161.5 -125
t-215.5 -47zM399 977q-29 -18 -47 6l-37 55q-12 23 9 45l288 318q23 25 47 -4l99 -150q16 -27 -8 -45z" />
    <glyph glyph-name="Cdotaccent" unicode="&#x10a;" horiz-adv-x="1474" 
d="M813 -16q-303 0 -520 214t-217 519t217 519t520 214q168 0 313.5 -67.5t247.5 -188.5q20 -20 2 -43l-225 -225q-25 -25 -45 4q-49 74 -126 117t-167 43q-145 0 -240.5 -108t-95.5 -266t95.5 -265t240.5 -107q195 0 322 162q23 23 47 0l207 -205q18 -23 0 -47
q-104 -125 -254 -197.5t-322 -72.5zM813 1567q-57 0 -97 39t-40 96t40 97t97 40t97 -40t40 -97t-40 -96t-97 -39z" />
    <glyph glyph-name="cdotaccent" unicode="&#x10b;" horiz-adv-x="978" 
d="M522 -16q-217 0 -342 127t-125 321.5t127 322.5t344 128q100 0 195.5 -39t155.5 -111q12 -20 -3 -39l-147 -153q-23 -18 -41 2q-57 61 -131 61t-109.5 -48t-35.5 -126t34.5 -123t104.5 -45q102 0 151 76q18 25 43 4l152 -147q6 -4 8 -16.5t-4 -22.5q-57 -78 -161.5 -125
t-215.5 -47zM530.5 999q-57.5 0 -97.5 39t-40 96.5t40 97.5t97.5 40t97.5 -40t40 -97.5t-40 -96.5t-97.5 -39z" />
    <glyph glyph-name="Ccaron" unicode="&#x10c;" horiz-adv-x="1474" 
d="M813 -16q-303 0 -520 214t-217 519t217 519t520 214q168 0 313.5 -67.5t247.5 -188.5q20 -20 2 -43l-225 -225q-25 -25 -45 4q-49 74 -126 117t-167 43q-145 0 -240.5 -108t-95.5 -266.5t95.5 -265t240.5 -106.5q195 0 322 162q23 23 47 0l207 -205q18 -23 0 -47
q-104 -125 -254 -197.5t-322 -72.5zM1077 1874v-80q0 -20 -20 -41l-189 -170q-27 -25 -53 -24h-8q-27 0 -51 24l-187 170q-20 20 -20 41v80q0 35 39 14l223 -131l227 131q39 20 39 -14z" />
    <glyph glyph-name="ccaron" unicode="&#x10d;" horiz-adv-x="978" 
d="M522 -16q-217 0 -342 127t-125 321.5t127 322.5t344 128q100 0 195.5 -39t155.5 -111q12 -20 -3 -39l-147 -153q-23 -18 -41 2q-57 61 -131 61t-109.5 -48t-35.5 -126t34.5 -123t104.5 -45q102 0 151 76q18 25 43 4l152 -147q6 -4 8 -16.5t-4 -22.5q-57 -78 -161.5 -125
t-215.5 -47zM795 1307v-80q0 -20 -21 -41l-188 -170q-27 -25 -54 -25h-8q-27 0 -51 25l-186 170q-20 20 -21 41v80q0 33 39 14l223 -131l228 131q39 18 39 -14z" />
    <glyph glyph-name="Dcaron" unicode="&#x10e;" horiz-adv-x="1462" 
d="M743 358q242 0 242 358.5t-242 358.5h-200v-717h200zM1384 722q0 -349 -180 -533.5t-450 -188.5h-582q-12 0 -21.5 9t-9.5 22v1372q0 12 9.5 21.5t21.5 9.5h590q274 -8 448 -185.5t174 -526.5zM1008 1874v-80q0 -20 -21 -41l-188 -170q-27 -25 -54 -24h-8q-27 0 -51 24
l-186 170q-20 20 -21 41v80q0 35 39 14l223 -131l228 131q39 20 39 -14z" />
    <glyph glyph-name="dcaron" unicode="&#x10f;" horiz-adv-x="1619" 
d="M535.5 262q62.5 0 88 45t25.5 126t-25.5 126t-87 45t-94 -49t-32.5 -122t31.5 -122t94 -49zM1530 1403v-248q0 -127 -85 -233.5t-216 -180.5q-23 -12 -33 16t12 40q113 72 152 142.5t39 176.5l-160 55q-35 14 -35 35v197q0 31 33 31h260q33 0 33 -31zM981 1450
q29 0 29 -33v-1386q0 -31 -29 -31h-199q-43 0 -61 39l-14 24q-100 -80 -238 -79q-213 0 -313.5 128t-100.5 325.5t105.5 321.5t308.5 124q90 0 162 -27v561q0 14 9 23.5t22 9.5h319z" />
    <glyph glyph-name="Dcroat" unicode="&#x110;" horiz-adv-x="1462" 
d="M743 358q242 0 242 358.5t-242 358.5h-200v-213h129q33 0 33 -31v-233q0 -31 -33 -31h-129v-209h200zM1384 722q0 -349 -180 -533.5t-450 -188.5h-582q-12 0 -21.5 9t-9.5 22v536h-39q-33 0 -32 31v233q0 31 32 31h39v541q0 12 9.5 21.5t21.5 9.5h590q274 -8 448 -185.5
t174 -526.5z" />
    <glyph glyph-name="dcroat" unicode="&#x111;" horiz-adv-x="1187" 
d="M535.5 262q62.5 0 88 45t25.5 126t-25.5 126t-87 45t-94 -49t-32.5 -122t31.5 -122t94 -49zM1139 1282q33 0 32 -31v-159q0 -31 -32 -31h-129v-1030q0 -31 -29 -31h-199q-43 0 -61 39l-14 24q-100 -80 -238 -79q-213 0 -313.5 128t-100.5 325.5t105.5 321.5t308.5 124
q90 0 162 -27v205h-101q-33 0 -32 31v159q0 31 32 31h101v135q0 14 9 23.5t22 9.5h319q29 0 29 -33v-135h129z" />
    <glyph glyph-name="Emacron" unicode="&#x112;" horiz-adv-x="1267" 
d="M1137 358q12 0 21 -9t9 -23v-295q0 -12 -9 -21.5t-21 -9.5h-965q-12 0 -21.5 9t-9.5 22v1372q0 12 9.5 21.5t21.5 9.5h967q29 0 28 -31v-295q0 -33 -28 -33h-596v-180h389q31 0 31 -31v-297q0 -29 -31 -28h-389v-181h594zM432 1599q-33 0 -33 31v133q0 31 33 31h406
q33 0 32 -31v-133q0 -31 -32 -31h-406z" />
    <glyph glyph-name="emacron" unicode="&#x113;" horiz-adv-x="1038" 
d="M516 651q-82 0 -96 -98h201q-6 37 -32 67.5t-73 30.5zM544 883q222 0 330.5 -144.5t108.5 -402.5q0 -12 -9 -21.5t-22 -9.5h-528q37 -66 154 -65.5t194 36.5q29 12 41 -10l82 -157q12 -29 -4 -39q-127 -86 -340 -86t-354.5 126t-141.5 324.5t133.5 323.5t355.5 125z
M326 1032q-33 0 -33 31v133q0 31 33 31h405q33 0 33 -31v-133q0 -31 -33 -31h-405z" />
    <glyph glyph-name="Edotaccent" unicode="&#x116;" horiz-adv-x="1267" 
d="M1137 358q12 0 21 -9t9 -23v-295q0 -12 -9 -21.5t-21 -9.5h-965q-12 0 -21.5 9t-9.5 22v1372q0 12 9.5 21.5t21.5 9.5h967q29 0 28 -31v-295q0 -33 -28 -33h-596v-180h389q31 0 31 -31v-297q0 -29 -31 -28h-389v-181h594zM635 1567q-57 0 -97 39t-40 96t40 97t97 40
t97 -40t40 -97t-40 -96t-97 -39z" />
    <glyph glyph-name="edotaccent" unicode="&#x117;" horiz-adv-x="1038" 
d="M516 651q-82 0 -96 -98h201q-6 37 -32 67.5t-73 30.5zM544 883q222 0 330.5 -144.5t108.5 -402.5q0 -12 -9 -21.5t-22 -9.5h-528q37 -66 154 -65.5t194 36.5q29 12 41 -10l82 -157q12 -29 -4 -39q-127 -86 -340 -86t-354.5 126t-141.5 324.5t133.5 323.5t355.5 125z
M528.5 999q-57.5 0 -97.5 39t-40 96.5t40 97.5t97.5 40t97.5 -40t40 -97.5t-40 -96.5t-97.5 -39z" />
    <glyph glyph-name="Eogonek" unicode="&#x118;" horiz-adv-x="1267" 
d="M1139 1075h-596v-180h389q31 0 31 -31v-297q0 -29 -31 -28h-389v-181h594q12 0 21 -9t9 -23v-295q0 -12 -9 -21.5t-21 -9.5h-97q-94 -111 -94 -211q0 -57 29 -67q10 -4 37.5 -3.5t91.5 39.5q18 14 31 0l24 -26q10 -14 4 -23q-59 -139 -209 -139q-82 0 -140 45t-58 135
q0 133 125 250h-709q-12 0 -21.5 9t-9.5 22v1372q0 12 9.5 21.5t21.5 9.5h967q29 0 28 -31v-295q1 -33 -28 -33z" />
    <glyph glyph-name="eogonek" unicode="&#x119;" horiz-adv-x="1038" 
d="M516 651q-82 0 -96 -98h201q-6 37 -32 67.5t-73 30.5zM544 883q222 0 330.5 -144.5t108.5 -402.5q0 -12 -9 -21.5t-22 -9.5h-528q37 -66 154 -65.5t194 36.5q29 12 41 -10l82 -157q12 -29 -4 -39q-51 -37 -125 -56q-104 -127 -104 -225q0 -57 28 -67q10 -4 38 -3.5
t91 39.5q18 14 31 0l24 -26q10 -14 5 -23q-59 -139 -209 -139q-82 0 -140.5 45t-58.5 135q0 125 109 234h-27q-215 0 -356.5 126t-141.5 324.5t133.5 323.5t355.5 125z" />
    <glyph glyph-name="Ecaron" unicode="&#x11a;" horiz-adv-x="1267" 
d="M1137 358q12 0 21 -9t9 -23v-295q0 -12 -9 -21.5t-21 -9.5h-965q-12 0 -21.5 9t-9.5 22v1372q0 12 9.5 21.5t21.5 9.5h967q29 0 28 -31v-295q0 -33 -28 -33h-596v-180h389q31 0 31 -31v-297q0 -29 -31 -28h-389v-181h594zM899 1874v-80q0 -20 -20 -41l-189 -170
q-27 -25 -53 -24h-8q-27 0 -51 24l-187 170q-20 20 -20 41v80q0 35 39 14l223 -131l227 131q39 20 39 -14z" />
    <glyph glyph-name="ecaron" unicode="&#x11b;" horiz-adv-x="1038" 
d="M516 651q-82 0 -96 -98h201q-6 37 -32 67.5t-73 30.5zM544 883q222 0 330.5 -144.5t108.5 -402.5q0 -12 -9 -21.5t-22 -9.5h-528q37 -66 154 -65.5t194 36.5q29 12 41 -10l82 -157q12 -29 -4 -39q-127 -86 -340 -86t-354.5 126t-141.5 324.5t133.5 323.5t355.5 125z
M793 1307v-80q0 -20 -21 -41l-188 -170q-27 -25 -54 -25h-8q-27 0 -51 25l-186 170q-20 20 -21 41v80q0 33 39 14l223 -131l228 131q39 18 39 -14z" />
    <glyph glyph-name="Gbreve" unicode="&#x11e;" horiz-adv-x="1501" 
d="M1346 844q29 0 28 -29v-672q0 -47 -214 -103t-359 -56q-295 0 -510 206.5t-215 522.5q0 215 108.5 386t277.5 261t340 90q361 0 574 -258q18 -20 -4 -43l-221 -223q-8 -8 -21.5 -9.5t-21.5 11.5q-117 166 -297 166q-143 0 -238.5 -112t-95.5 -267.5t85 -265t218 -109.5
t193 29v135h-117q-31 0 -31 28v283q0 29 31 29h490zM820.5 1567q-228.5 0 -314.5 217q-6 14 10 20l143 62q16 6 23 -8q33 -51 61.5 -73t77.5 -22t76 21.5t59 73.5q8 14 23 8l145 -62q16 -6 11 -20q-86 -217 -314.5 -217z" />
    <glyph glyph-name="gbreve" unicode="&#x11f;" horiz-adv-x="1128" 
d="M549.5 262q71.5 0 99 34t27.5 136q0 172 -137 172q-61 0 -95 -48t-34 -122t34 -123t105.5 -49zM1001 868q31 0 31 -32v-826q0 -217 -145.5 -346t-393 -129t-393.5 164q-16 20 4 41l148 145q25 25 43 0q61 -72 182 -71q80 0 139.5 45t59.5 127v57q-96 -59 -223 -59
q-197 0 -297.5 129t-100.5 325.5t104.5 320.5t297.5 124q125 0 229 -64l19 17q33 33 53 32h243zM538 1018q-228 0 -315 217q-6 14 10 20l144 62q16 6 22 -8q33 -51 61.5 -73t78 -22t76 21.5t59.5 73.5q6 14 22 8l146 -62q16 -6 10 -20q-86 -217 -314 -217z" />
    <glyph glyph-name="Gdotaccent" unicode="&#x120;" horiz-adv-x="1501" 
d="M1346 844q29 0 28 -29v-672q0 -47 -214 -103t-359 -56q-295 0 -510 206.5t-215 522.5q0 215 108.5 386t277.5 261t340 90q361 0 574 -258q18 -20 -4 -43l-221 -223q-8 -8 -21.5 -9.5t-21.5 11.5q-117 166 -297 166q-143 0 -238.5 -112t-95.5 -267.5t85 -265t218 -109.5
t193 29v135h-117q-31 0 -31 28v283q0 29 31 29h490zM821.5 1567q-57.5 0 -97.5 39t-40 96t40 97t97.5 40t97 -40t39.5 -97t-39.5 -96t-97 -39z" />
    <glyph glyph-name="gdotaccent" unicode="&#x121;" horiz-adv-x="1128" 
d="M549.5 262q71.5 0 99 34t27.5 136q0 172 -137 172q-61 0 -95 -48t-34 -122t34 -123t105.5 -49zM1001 868q31 0 31 -32v-826q0 -217 -145.5 -346t-393 -129t-393.5 164q-16 20 4 41l148 145q25 25 43 0q61 -72 182 -71q80 0 139.5 45t59.5 127v57q-96 -59 -223 -59
q-197 0 -297.5 129t-100.5 325.5t104.5 320.5t297.5 124q125 0 229 -64l19 17q33 33 53 32h243zM538.5 1018q-57.5 0 -97.5 39t-40 96t40 97t97.5 40t97.5 -40t40 -97t-40 -96t-97.5 -39z" />
    <glyph glyph-name="Gcommaaccent" unicode="&#x122;" horiz-adv-x="1501" 
d="M936 -86v-184q0 -72 -62.5 -123t-128.5 -70q-27 -6 -30 19q-4 20 20 28q53 16 88 53t35 84l-113 37q-33 10 -32 35v121q0 31 32 31h158q33 0 33 -31zM1346 844q29 0 28 -29v-672q0 -47 -214 -103t-359 -56q-295 0 -510 206.5t-215 522.5q0 215 108.5 386t277.5 261
t340 90q361 0 574 -258q18 -20 -4 -43l-221 -223q-8 -8 -21.5 -9.5t-21.5 11.5q-117 166 -297 166q-143 0 -238.5 -112t-95.5 -267.5t85 -265t218 -109.5t193 29v135h-117q-31 0 -31 28v283q0 29 31 29h490z" />
    <glyph glyph-name="gcommaaccent" unicode="&#x123;" horiz-adv-x="1128" 
d="M549.5 262q71.5 0 99 34t27.5 136q0 172 -137 172q-61 0 -95 -48t-34 -122t34 -123t105.5 -49zM1001 868q31 0 31 -32v-826q0 -217 -145.5 -346t-393 -129t-393.5 164q-16 20 4 41l148 145q25 25 43 0q61 -72 182 -71q80 0 139.5 45t59.5 127v57q-96 -59 -223 -59
q-197 0 -297.5 129t-100.5 325.5t104.5 320.5t297.5 124q125 0 229 -64l19 17q33 33 53 32h243zM426 999v185q0 72 62.5 123t127.5 69q27 6 31 -16t-20 -31q-53 -16 -88 -53t-35 -84l112 -37q33 -10 33 -35v-121q0 -31 -33 -30h-157q-33 -1 -33 30z" />
    <glyph glyph-name="Hbar" unicode="&#x126;" horiz-adv-x="1538" 
d="M543 621h452v176h-452v-176zM1368 1434q29 0 29 -31v-1372q0 -31 -29 -31h-340q-14 0 -23.5 9t-9.5 22v282h-452v-282q0 -12 -9.5 -21.5t-21.5 -9.5h-340q-12 0 -21.5 9t-9.5 22v1372q0 12 9.5 21.5t21.5 9.5h340q12 0 21.5 -9.5t9.5 -21.5v-299h452v299q0 12 9.5 21.5
t23.5 9.5h340z" />
    <glyph glyph-name="hbar" unicode="&#x127;" horiz-adv-x="1206" 
d="M721 883q174 0 281.5 -118t107.5 -337v-397q0 -31 -29 -31h-317q-31 0 -31 31v452q0 49 -28.5 85t-77.5 36t-79 -36t-30 -93v-444q0 -31 -29 -31h-319q-31 0 -31 31v1030h-88q-33 0 -33 31v159q0 31 33 31h88v135q0 33 31 33h319q29 0 29 -33v-135h139q33 0 33 -31v-159
q0 -31 -33 -31h-139v-236q103 58 203 58z" />
    <glyph glyph-name="Imacron" unicode="&#x12a;" horiz-adv-x="681" 
d="M172 0q-12 0 -21.5 9t-9.5 22v1372q0 12 9.5 21.5t21.5 9.5h340q12 0 21.5 -9.5t9.5 -21.5v-1372q0 -12 -9.5 -21.5t-21.5 -9.5h-340zM137 1599q-33 0 -33 31v133q0 31 33 31h406q33 0 32 -31v-133q0 -31 -32 -31h-406z" />
    <glyph glyph-name="imacron" unicode="&#x12b;" horiz-adv-x="565" 
d="M125 0q-31 0 -31 29v800q0 37 31 37h315q31 0 31 -37v-800q0 -29 -31 -29h-315zM80 1034q-33 0 -33 31v133q0 31 33 31h405q33 0 33 -31v-133q0 -31 -33 -31h-405z" />
    <glyph glyph-name="Iogonek" unicode="&#x12e;" horiz-adv-x="681" 
d="M512 1434q12 0 21.5 -9.5t9.5 -21.5v-1372q0 -12 -9.5 -21.5t-21.5 -9.5h-106q-94 -111 -95 -211q0 -57 29 -67q10 -4 38 -3.5t91 39.5q18 14 31 0l24 -26q10 -14 4 -23q-59 -139 -209 -139q-82 0 -140 45t-58 135q0 133 125 250h-74q-12 0 -21.5 9t-9.5 22v1372
q0 12 9.5 21.5t21.5 9.5h340z" />
    <glyph glyph-name="iogonek" unicode="&#x12f;" horiz-adv-x="565" 
d="M440 866q31 0 31 -37v-800q0 -29 -31 -29h-104q-94 -111 -94 -211q0 -57 28 -67q10 -4 38 -3.5t91 39.5q18 14 31 0l25 -26q10 -14 4 -23q-59 -139 -209 -139q-82 0 -140.5 45t-58.5 135q0 133 125 250h-51q-31 0 -31 29v800q0 37 31 37h315zM282.5 1032
q-69.5 0 -118.5 48t-49 119t48 119t119 48t120 -48t49 -119t-49.5 -119t-119 -48z" />
    <glyph glyph-name="Idotaccent" unicode="&#x130;" horiz-adv-x="681" 
d="M172 0q-12 0 -21.5 9t-9.5 22v1372q0 12 9.5 21.5t21.5 9.5h340q12 0 21.5 -9.5t9.5 -21.5v-1372q0 -12 -9.5 -21.5t-21.5 -9.5h-340zM340 1567q-57 0 -97 39t-40 96t40 97t97 40t97 -40t40 -97t-40 -96t-97 -39z" />
    <glyph glyph-name="dotlessi" unicode="&#x131;" horiz-adv-x="565" 
d="M125 0q-31 0 -31 29v800q0 37 31 37h315q31 0 31 -37v-800q0 -29 -31 -29h-315z" />
    <glyph glyph-name="Kcommaaccent" unicode="&#x136;" horiz-adv-x="1480" 
d="M860 -86v-184q0 -72 -62.5 -123t-127.5 -70q-27 -6 -31 16.5t20 30.5q53 16 88 53t35 84l-112 37q-33 10 -33 35v121q0 31 33 31h157q33 0 33 -31zM543 31q0 -12 -9.5 -21.5t-21.5 -9.5h-340q-12 0 -21.5 9t-9.5 22v1372q0 12 9.5 21.5t21.5 9.5h340q12 0 21.5 -9.5
t9.5 -21.5v-578l436 578q23 31 61 31h351q20 0 29.5 -18.5t-3.5 -35.5l-506 -663l504 -664q12 -14 5 -33.5t-29 -19.5h-369q-35 0 -61 31l-418 553v-553z" />
    <glyph glyph-name="kcommaaccent" unicode="&#x137;" horiz-adv-x="1210" 
d="M735 -86v-184q0 -72 -62.5 -123t-127.5 -70q-27 -6 -31 16.5t21 30.5q53 16 87.5 53t34.5 84l-112 37q-33 10 -33 35v121q0 31 33 31h157q33 0 33 -31zM1120 0h-332q-31 0 -55 29l-258 354v-352q0 -31 -31 -31h-319q-29 0 -29 31v1386q0 33 29 33h319q12 0 21.5 -9
t9.5 -24v-919l244 338q25 31 45 30h330q18 0 27 -15t-3 -36l-276 -366l305 -400q8 -12 0 -30.5t-27 -18.5z" />
    <glyph glyph-name="Lacute" unicode="&#x139;" horiz-adv-x="1226" 
d="M1118 358q29 0 29 -32v-295q0 -31 -29 -31h-946q-12 0 -21.5 9t-9.5 22v1370q0 14 9.5 23.5t21.5 9.5h340q12 0 21.5 -9.5t9.5 -23.5v-1043h575zM463 1565q-35 -10 -45 14l-23 59q-10 27 15 43l360 197q31 20 43 -14l61 -144q12 -31 -12 -43z" />
    <glyph glyph-name="lacute" unicode="&#x13a;" horiz-adv-x="571" 
d="M125 0q-29 0 -29 31v1386q0 33 29 33h319q12 0 21.5 -9t9.5 -24v-1386q0 -31 -31 -31h-319zM104 1565q-35 -10 -45 14l-22 59q-10 27 14 43l361 197q31 20 43 -14l61 -144q12 -31 -12 -43z" />
    <glyph glyph-name="Lcommaaccent" unicode="&#x13b;" horiz-adv-x="1226" 
d="M745 -86v-184q0 -72 -62 -123t-128 -70q-27 -5 -31 17t21 30q53 16 88 53t35 84l-113 37q-33 10 -33 35v121q0 31 33 31h158q32 0 32 -31zM1118 358q29 0 29 -32v-295q0 -31 -29 -31h-946q-12 0 -21.5 9t-9.5 22v1370q0 14 9.5 23.5t21.5 9.5h340q12 0 21.5 -9.5
t9.5 -23.5v-1043h575z" />
    <glyph glyph-name="lcommaaccent" unicode="&#x13c;" horiz-adv-x="571" 
d="M406 -86v-184q0 -72 -62.5 -123t-128.5 -70q-27 -5 -31 17t21 30q53 16 88 53t35 84l-113 37q-33 10 -33 35v121q0 31 33 31h158q33 0 33 -31zM125 0q-29 0 -29 31v1386q0 33 29 33h319q12 0 21.5 -9t9.5 -24v-1386q0 -31 -31 -31h-319z" />
    <glyph glyph-name="Lcaron" unicode="&#x13d;" horiz-adv-x="1226" 
d="M1118 358q29 0 29 -32v-295q0 -31 -29 -31h-946q-12 0 -21.5 9t-9.5 22v1370q0 14 9.5 23.5t21.5 9.5h340q12 0 21.5 -9.5t9.5 -23.5v-1043h575zM901 1874v-80q0 -20 -20 -41l-189 -170q-27 -25 -53 -24h-8q-27 0 -51 24l-187 170q-20 20 -20 41v80q0 35 39 14l223 -131
l227 131q39 20 39 -14z" />
    <glyph glyph-name="lcaron" unicode="&#x13e;" horiz-adv-x="571" 
d="M125 0q-29 0 -29 31v1386q0 33 29 33h319q12 0 21.5 -9t9.5 -24v-1386q0 -31 -31 -31h-319zM543 1874v-80q0 -20 -21 -41l-188 -170q-27 -25 -53 -24h-9q-27 0 -51 24l-186 170q-20 20 -21 41v80q0 35 39 14l223 -131l228 131q39 20 39 -14z" />
    <glyph glyph-name="Ldot" unicode="&#x13f;" horiz-adv-x="1249" 
d="M799 502q-33 0 -33 30v289q0 29 33 29h284q33 0 33 -29v-289q0 -31 -33 -30h-284zM1118 358q29 0 29 -32v-295q0 -31 -29 -31h-946q-12 0 -21.5 9t-9.5 22v1370q0 14 9.5 23.5t21.5 9.5h340q12 0 21.5 -9.5t9.5 -23.5v-1043h575z" />
    <glyph glyph-name="ldot" unicode="&#x140;" horiz-adv-x="985" 
d="M610 502q-33 0 -32 30v289q0 29 32 29h285q33 0 33 -29v-289q0 -31 -33 -30h-285zM125 0q-29 0 -29 31v1386q0 33 29 33h319q12 0 21.5 -9t9.5 -24v-1386q0 -31 -31 -31h-319z" />
    <glyph glyph-name="Lslash" unicode="&#x141;" horiz-adv-x="1433" 
d="M1305 358q29 0 28 -32v-295q0 -31 -28 -31h-947q-12 0 -21 9t-9 22v413l-84 -69q-23 -18 -43 2l-135 155q-16 23 4 43l258 216v610q0 14 9 23.5t21 9.5h340q12 0 21.5 -9.5t9.5 -23.5v-277l88 74q6 6 19.5 4t21.5 -10l131 -154q23 -20 -4 -43l-256 -215v-422h576z" />
    <glyph glyph-name="lslash" unicode="&#x142;" horiz-adv-x="921" 
d="M659 31q0 -31 -30 -31h-320q-29 0 -28 31v385l-105 -88q-25 -20 -43 2l-115 137q-18 14 5 43l258 215v692q0 33 28 33h320q12 0 21 -9t9 -24v-377l111 93q20 16 41 -7l113 -135q20 -23 -4 -43l-261 -217v-700z" />
    <glyph glyph-name="Nacute" unicode="&#x143;" horiz-adv-x="1593" 
d="M1421 1434q12 0 21.5 -9.5t9.5 -21.5v-1374q0 -29 -31 -29h-288q-31 0 -54 29l-536 696v-696q0 -29 -31 -29h-340q-31 0 -31 29v1374q0 12 9.5 21.5t21.5 9.5h307q33 0 51 -31l521 -668v668q0 12 9 21.5t21 9.5h340zM588 1565q-35 -10 -45 14l-23 59q-10 27 15 43
l360 197q31 20 43 -14l61 -144q12 -31 -12 -43z" />
    <glyph glyph-name="nacute" unicode="&#x144;" horiz-adv-x="1200" 
d="M702 883q207 0 304.5 -108.5t97.5 -285.5v-458q0 -14 -11.5 -22.5t-23.5 -8.5h-313q-31 0 -31 31v448q0 45 -36 85t-88 40t-89 -40t-37 -95v-438q0 -31 -31 -31h-319q-29 0 -29 31v803q0 35 29 34h297q20 0 31 -34l22 -60q39 47 104.5 78t122.5 31zM469 977
q-29 -18 -47 6l-37 55q-12 23 8 45l289 318q23 25 47 -4l98 -150q16 -27 -8 -45z" />
    <glyph glyph-name="Ncommaaccent" unicode="&#x145;" horiz-adv-x="1593" 
d="M870 -86v-184q0 -72 -62.5 -123t-127.5 -70q-27 -5 -31 17t21 30q53 16 88 53t35 84l-113 37q-33 10 -33 35v121q0 31 33 31h158q32 0 32 -31zM1421 1434q12 0 21.5 -9.5t9.5 -21.5v-1374q0 -29 -31 -29h-288q-31 0 -54 29l-536 696v-696q0 -29 -31 -29h-340
q-31 0 -31 29v1374q0 12 9.5 21.5t21.5 9.5h307q33 0 51 -31l521 -668v668q0 12 9 21.5t21 9.5h340z" />
    <glyph glyph-name="ncommaaccent" unicode="&#x146;" horiz-adv-x="1200" 
d="M705 -86v-184q0 -72 -62.5 -123t-128.5 -70q-27 -5 -31 17t21 30q53 16 88 53t35 84l-113 37q-33 10 -33 35v121q0 31 33 31h158q33 0 33 -31zM702 883q207 0 304.5 -108.5t97.5 -285.5v-458q0 -14 -11.5 -22.5t-23.5 -8.5h-313q-31 0 -31 31v448q0 45 -36 85t-88 40
t-89 -40t-37 -95v-438q0 -31 -31 -31h-319q-29 0 -29 31v803q0 35 29 34h297q20 0 31 -34l22 -60q39 47 104.5 78t122.5 31z" />
    <glyph glyph-name="Ncaron" unicode="&#x147;" horiz-adv-x="1593" 
d="M1421 1434q12 0 21.5 -9.5t9.5 -21.5v-1374q0 -29 -31 -29h-288q-31 0 -54 29l-536 696v-696q0 -29 -31 -29h-340q-31 0 -31 29v1374q0 12 9.5 21.5t21.5 9.5h307q33 0 51 -31l521 -668v668q0 12 9 21.5t21 9.5h340zM1026 1874v-80q0 -20 -20 -41l-189 -170
q-27 -25 -53 -24h-8q-27 0 -51 24l-187 170q-20 20 -20 41v80q0 35 39 14l223 -131l227 131q39 20 39 -14z" />
    <glyph glyph-name="ncaron" unicode="&#x148;" horiz-adv-x="1200" 
d="M702 883q207 0 304.5 -108.5t97.5 -285.5v-458q0 -14 -11.5 -22.5t-23.5 -8.5h-313q-31 0 -31 31v448q0 45 -36 85t-88 40t-89 -40t-37 -95v-438q0 -31 -31 -31h-319q-29 0 -29 31v803q0 35 29 34h297q20 0 31 -34l22 -60q39 47 104.5 78t122.5 31zM864 1307v-80
q0 -20 -20 -41l-189 -170q-27 -25 -53 -25h-8q-27 0 -51 25l-187 170q-20 20 -20 41v80q0 33 39 14l223 -131l227 131q39 18 39 -14z" />
    <glyph glyph-name="Eng" unicode="&#x14a;" horiz-adv-x="1593" 
d="M1421 1434q11 0 21 -10t10 -21v-1464q0 -209 -221 -373q-18 -16 -35 0l-158 162q-14 20 -3 34t31 40q64 77 66 118q1 41 -57 115l-532 692v-698q0 -29 -31 -29h-340q-31 0 -31 29v1374q-1 12 9 21t22 10h307q33 0 51 -31l521 -670v670q0 12 9 21t21 10h340z" />
    <glyph glyph-name="eng" unicode="&#x14b;" horiz-adv-x="1200" 
d="M702 883q207 0 304.5 -108.5t97.5 -285.5v-509q0 -184 -211 -369q-18 -16 -35 0l-158 162q-14 20 6 48t19 148v510q0 43 -36 84t-88 41t-89 -42t-37 -93v-438q0 -31 -31 -31h-319q-29 0 -29 31v803q0 35 29 34h297q20 0 31 -34l22 -60q39 47 104.5 78t122.5 31z" />
    <glyph glyph-name="Omacron" unicode="&#x14c;" horiz-adv-x="1626" 
d="M814 342q144 0 239.5 106.5t95.5 266t-95.5 267.5t-239.5 108t-240.5 -108t-96.5 -267.5t96.5 -266t240.5 -106.5zM812 -16q-304 0 -520 214t-216 517t216 519t520 216t521 -216t217 -518t-217 -517t-521 -215zM610 1599q-33 0 -32 31v133q0 31 32 31h406q33 0 33 -31
v-133q0 -31 -33 -31h-406z" />
    <glyph glyph-name="omacron" unicode="&#x14d;" horiz-adv-x="1036" 
d="M519 262q48 0 84 40t36 130t-36 131t-84 41t-84 -41t-36 -131t36 -130t84 -40zM518 -16q-205 0 -340 131t-135 319t135 318.5t341 130.5t340 -130t134 -318.5t-135 -319.5t-340 -131zM315 1032q-33 0 -32 31v133q0 31 32 31h406q33 0 33 -31v-133q0 -31 -33 -31h-406z
" />
    <glyph glyph-name="Ohungarumlaut" unicode="&#x150;" horiz-adv-x="1626" 
d="M814 342q144 0 239.5 106.5t95.5 266t-95.5 267.5t-239.5 108t-240.5 -108t-96.5 -267.5t96.5 -266t240.5 -106.5zM812 -16q-304 0 -520 214t-216 517t216 519t520 216t521 -216t217 -518t-217 -517t-521 -215zM958 1575q-23 -8 -45 14l-30 31q-14 16 14 41l209 186
q18 16 39 -4l106 -108q10 -10 7 -24.5t-17 -20.5zM553 1575q-23 -10 -45 14l-31 31q-12 16 17 41l208 186q18 18 37 -4l107 -108q23 -29 -12 -43z" />
    <glyph glyph-name="ohungarumlaut" unicode="&#x151;" horiz-adv-x="1036" 
d="M519 262q48 0 84 40t36 130t-36 131t-84 41t-84 -41t-36 -131t36 -130t84 -40zM518 -16q-205 0 -340 131t-135 319t135 318.5t341 130.5t340 -130t134 -318.5t-135 -319.5t-340 -131zM897 1219.5q0 -13.5 -12 -23.5l-240 -190q-16 -14 -47 2l-37 22q-16 10 2 43l150 236
q16 20 37 8l133 -76q14 -8 14 -21.5zM246 1008l-39 22q-14 10 4 43l147 236q20 20 39 10l133 -78q30 -22 0 -45l-239 -190q-18 -12 -45 2z" />
    <glyph glyph-name="OE" unicode="&#x152;" horiz-adv-x="2074" 
d="M813 342q76 0 135 25v696q-63 27 -137 27q-139 -2 -236.5 -105.5t-97.5 -271.5t97.5 -269.5t238.5 -101.5zM1946 1075h-596v-180h389q31 0 30 -31v-297q0 -29 -30 -28h-389v-181h594q12 0 21 -9t9 -23v-295q0 -12 -9 -21.5t-21 -9.5h-965q-6 0 -8 2q-87 -18 -185 -18
t-226 48t-237.5 136t-178 231.5t-68.5 315.5t67.5 315.5t175 232.5t236.5 138t235 49t181 -18q2 2 8 2h967q29 0 28 -31v-295q1 -33 -28 -33z" />
    <glyph glyph-name="oe" unicode="&#x153;" horiz-adv-x="1622" 
d="M519 262q48 0 84 40t36 130t-36 131t-84 41t-84 -41t-36 -131t36 -130t84 -40zM1102 651q-82 0 -96 -98h200q-6 37 -31.5 67.5t-72.5 30.5zM1120 883q231 0 340 -144.5t109 -402.5q0 -12 -9.5 -21.5t-21.5 -9.5h-528q37 -66 154.5 -65.5t193.5 36.5q29 12 41 -10l82 -157
q12 -29 -4 -39q-127 -86 -326.5 -86t-331.5 96q-129 -96 -317.5 -96t-323.5 131t-135 319t135 318.5t322.5 130.5t312.5 -92q127 92 307 92z" />
    <glyph glyph-name="Racute" unicode="&#x154;" horiz-adv-x="1409" 
d="M543 1075v-291h278q100 0 100.5 145.5t-104.5 145.5h-274zM1311 0h-342q-31 0 -45 31l-211 395h-170v-395q0 -12 -9.5 -21.5t-21.5 -9.5h-340q-31 0 -31 31v1372q0 31 31 31h774q162 -4 269.5 -145.5t107.5 -336t-63.5 -318.5t-161.5 -161l235 -436q6 -12 -2 -24.5
t-20 -12.5zM563 1565q-35 -10 -45 14l-22 59q-10 27 14 43l360 197q31 20 43 -14l62 -144q12 -31 -12 -43z" />
    <glyph glyph-name="racute" unicode="&#x155;" horiz-adv-x="845" 
d="M475 459v-428q0 -31 -31 -31h-317q-31 0 -31 31v803q0 35 31 34h197q41 0 61 -39l31 -51q94 104 231 105q99 0 144 -25q20 -16 16 -31v-4l-121 -229q-16 -25 -39 -12q-45 27 -84 26q-88 0 -88 -149zM309 977q-29 -18 -47 6l-37 55q-12 23 8 45l289 318q23 25 47 -4
l99 -150q16 -27 -9 -45z" />
    <glyph glyph-name="Rcommaaccent" unicode="&#x156;" horiz-adv-x="1409" 
d="M846 -86v-184q0 -72 -62.5 -123t-128.5 -70q-27 -6 -30 19q-4 20 20 28q53 16 88 53t35 84l-113 37q-33 10 -32 35v121q0 31 32 31h158q33 0 33 -31zM543 1075v-291h278q100 0 100.5 145.5t-104.5 145.5h-274zM1311 0h-342q-31 0 -45 31l-211 395h-170v-395
q0 -12 -9.5 -21.5t-21.5 -9.5h-340q-31 0 -31 31v1372q0 31 31 31h774q162 -4 269.5 -145.5t107.5 -336t-63.5 -318.5t-161.5 -161l235 -436q6 -12 -2 -24.5t-20 -12.5z" />
    <glyph glyph-name="rcommaaccent" unicode="&#x157;" horiz-adv-x="845" 
d="M549 -86v-184q0 -72 -62.5 -123t-128.5 -70q-27 -6 -30 19q-4 20 20 28q53 16 88 53t35 84l-113 37q-33 10 -32 35v121q0 31 32 31h158q33 0 33 -31zM475 459v-428q0 -31 -31 -31h-317q-31 0 -31 31v803q0 35 31 34h197q41 0 61 -39l31 -51q94 104 231 105q99 0 144 -25
q20 -16 16 -31v-4l-121 -229q-16 -25 -39 -12q-45 27 -84 26q-88 0 -88 -149z" />
    <glyph glyph-name="Rcaron" unicode="&#x158;" horiz-adv-x="1409" 
d="M543 1075v-291h278q100 0 100.5 145.5t-104.5 145.5h-274zM1311 0h-342q-31 0 -45 31l-211 395h-170v-395q0 -12 -9.5 -21.5t-21.5 -9.5h-340q-31 0 -31 31v1372q0 31 31 31h774q162 -4 269.5 -145.5t107.5 -336t-63.5 -318.5t-161.5 -161l235 -436q6 -12 -2 -24.5
t-20 -12.5zM1001 1794q0 -20 -20 -41l-188 -170q-27 -25 -54 -24h-8q-27 0 -51 24l-186 170q-20 20 -21 41v80q0 35 39 14l223 -131l228 131q39 20 38 -14v-80z" />
    <glyph glyph-name="rcaron" unicode="&#x159;" horiz-adv-x="845" 
d="M475 459v-428q0 -31 -31 -31h-317q-31 0 -31 31v803q0 35 31 34h197q41 0 61 -39l31 -51q94 104 231 105q99 0 144 -25q20 -16 16 -31v-4l-121 -229q-16 -25 -39 -12q-45 27 -84 26q-88 0 -88 -149zM705 1307v-80q0 -20 -21 -41l-188 -170q-27 -25 -54 -25h-8
q-27 0 -51 25l-186 170q-20 20 -21 41v80q0 33 39 14l223 -131l228 131q39 18 39 -14z" />
    <glyph glyph-name="Sacute" unicode="&#x15a;" horiz-adv-x="1370" 
d="M666 -16q-350 0 -549 196q-20 20 0 41l217 217q18 18 41 2q53 -45 136 -74.5t160 -29.5t137 31.5t60 74.5q0 74 -204 107q-293 57 -430.5 157.5t-137.5 260.5q0 213 167 348t427 135q315 0 565 -197q10 -8 10.5 -22t-8.5 -25l-219 -219q-23 -16 -41 -4q-158 111 -317 111
q-80 0 -131 -25t-51 -61q0 -78 223 -117q297 -57 423 -155.5t126 -274.5q0 -221 -161.5 -349t-442.5 -128zM512 1565q-35 -10 -45 14l-23 59q-10 27 15 43l360 197q31 20 43 -14l62 -144q12 -31 -13 -43z" />
    <glyph glyph-name="sacute" unicode="&#x15b;" horiz-adv-x="899" 
d="M391.5 -16q-227.5 0 -328.5 100q-16 16 -4 39l91 164q13 31 45 10t109 -41t130 -20t53 24.5t-84 40.5q-184 41 -254.5 102.5t-70.5 187.5t107.5 209t287.5 83t330 -82q27 -12 10 -39l-96 -174q-14 -31 -41 -15q-86 57 -165 57.5t-79 -30.5q0 -20 90 -43
q197 -51 259.5 -105.5t62.5 -184.5t-112.5 -206.5t-340 -76.5zM334 977q-29 -18 -47 6l-37 55q-12 23 8 45l289 318q23 25 47 -4l98 -150q16 -27 -8 -45z" />
    <glyph glyph-name="Scedilla" unicode="&#x15e;" horiz-adv-x="1370" 
d="M1270 446.5q0 -190.5 -141.5 -317.5t-389.5 -143l-22 -54q72 2 121 -40t49 -123q0 -186 -234 -187q-51 0 -102 26q-77 40 -62 70l66 70q10 10 27 -2q27 -27 69 -27q59 0 60 54q0 29 -17.5 43t-39.5 -6t-48 -13l-90 27q-14 4 -10 20l59 144q-279 25 -448 192q-20 20 0 41
l217 217q18 18 41 2q53 -45 136 -74.5t160 -29.5t137 31.5t60 74.5q0 74 -204 107q-293 57 -430.5 157.5t-137.5 260.5q0 213 167 348t427 135q315 0 565 -197q10 -8 10.5 -22t-8.5 -25l-219 -219q-23 -16 -41 -4q-158 111 -317 111q-80 0 -131 -25t-51 -61q0 -78 223 -117
q297 -57 423 -155.5t126 -289z" />
    <glyph glyph-name="scedilla" unicode="&#x15f;" horiz-adv-x="899" 
d="M844 273q0 -124 -97.5 -200.5t-269.5 -86.5l-22 -54q72 2 121 -40t49 -123q0 -186 -234 -187q-51 0 -102 26q-77 40 -62 70l66 70q10 10 26 -2q27 -27 70 -27q59 0 60 54q0 29 -17.5 43t-39.5 -6t-48 -13l-90 27q-14 4 -10 20l61 146q-166 18 -242 94q-16 16 -4 39
l91 164q13 31 45 10t109 -41t130 -20t53 24.5t-84 40.5q-184 41 -254.5 102.5t-70.5 187.5t107.5 209t287.5 83t330 -82q27 -12 10 -39l-96 -174q-14 -31 -41 -15q-86 57 -165 57.5t-79 -30.5q0 -20 90 -43q197 -51 259.5 -105.5t62.5 -178.5z" />
    <glyph glyph-name="Scaron" unicode="&#x160;" horiz-adv-x="1370" 
d="M666 -16q-350 0 -549 196q-20 20 0 41l217 217q18 18 41 2q53 -45 136 -74.5t160 -29.5t137 31.5t60 74.5q0 74 -204 107q-293 57 -430.5 157.5t-137.5 260.5q0 213 167 348t427 135q315 0 565 -197q10 -8 10.5 -22t-8.5 -25l-219 -219q-23 -16 -41 -4q-158 111 -317 111
q-80 0 -131 -25t-51 -61q0 -78 223 -117q297 -57 423 -155.5t126 -274.5q0 -221 -161.5 -349t-442.5 -128zM950 1874v-80q0 -20 -20 -41l-189 -170q-27 -25 -53 -24h-8q-27 0 -51 24l-187 170q-20 20 -20 41v80q0 35 39 14l223 -131l227 131q39 20 39 -14z" />
    <glyph glyph-name="scaron" unicode="&#x161;" horiz-adv-x="899" 
d="M391.5 -16q-227.5 0 -328.5 100q-16 16 -4 39l91 164q13 31 45 10t109 -41t130 -20t53 24.5t-84 40.5q-184 41 -254.5 102.5t-70.5 187.5t107.5 209t287.5 83t330 -82q27 -12 10 -39l-96 -174q-14 -31 -41 -15q-86 57 -165 57.5t-79 -30.5q0 -20 90 -43
q197 -51 259.5 -105.5t62.5 -184.5t-112.5 -206.5t-340 -76.5zM729 1307v-80q0 -20 -20 -41l-189 -170q-27 -25 -53 -25h-8q-27 0 -51 25l-187 170q-20 20 -20 41v80q0 33 39 14l223 -131l227 131q39 18 39 -14z" />
    <glyph glyph-name="uni0162" unicode="&#x162;" horiz-adv-x="1327" 
d="M1219 1434q12 0 20 -10.5t8 -22.5v-293q0 -33 -28 -33h-355v-1044q0 -12 -9 -21.5t-21 -9.5h-109l-31 -72q72 2 121 -40t49 -124q0 -186 -233 -186q-51 0 -103 26q-77 39 -61 70l65 70q10 10 27 -2q27 -27 70 -27q59 0 59 54q0 29 -17.5 43t-39.5 -7t-47 -12l-90 27
q-14 4 -11 20l68 160h-57q-12 0 -21.5 9t-9.5 22v1044h-352q-12 0 -21.5 9.5t-9.5 23.5v293q0 12 9 22.5t22 10.5h1108z" />
    <glyph glyph-name="uni0163" unicode="&#x163;" horiz-adv-x="831" 
d="M537 358q1 -86 59 -86q26 0 90 19h6q19 6 35 -19l72 -196q10 -29 -17 -41q-117 -45 -270 -49l-23 -54q72 2 121 -40t49 -123q0 -186 -233 -187q-50 0 -102 26q-77 39 -62 70l66 70q10 10 26 -2q27 -27 70 -27q59 0 59 54q0 29 -17 43t-40 -6.5t-47 -12.5l-90 27
q-14 4 -10 20l65 158q-172 59 -186 313v258h-70q-29 0 -29 35v221q0 37 29 37h70v215q0 31 30 31h318q31 0 31 -31v-215h159q31 0 31 -37v-221q0 -35 -31 -35h-159v-215z" />
    <glyph glyph-name="Tcaron" unicode="&#x164;" horiz-adv-x="1327" 
d="M1219 1434q12 0 20 -10.5t8 -22.5v-293q0 -33 -28 -33h-355v-1044q0 -12 -9 -21.5t-21 -9.5h-340q-12 0 -21.5 9t-9.5 22v1044h-352q-12 0 -21.5 9.5t-9.5 23.5v293q0 12 9 22.5t22 10.5h1108zM928 1874v-80q0 -20 -21 -41l-188 -170q-27 -25 -53 -24h-9q-27 0 -51 24
l-186 170q-20 20 -21 41v80q0 35 39 14l224 -131l227 131q39 20 39 -14z" />
    <glyph glyph-name="tcaron" unicode="&#x165;" horiz-adv-x="1069" 
d="M537 358q1 -86 59 -86q26 0 90 19h6q19 6 35 -19l72 -196q10 -29 -17 -41q-137 -51 -319 -51q-287 0 -305 331v258h-70q-29 0 -29 35v221q0 37 29 37h70v215q0 31 30 31h318q31 0 31 -31v-215h159q31 0 31 -37v-221q0 -35 -31 -35h-159v-215zM1022 1544v-248
q0 -127 -85 -233.5t-216 -179.5q-23 -12 -33 15.5t12 39.5q113 72 152 142.5t39 176.5l-160 56q-35 14 -35 35v196q0 31 33 31h260q33 0 33 -31z" />
    <glyph glyph-name="Tbar" unicode="&#x166;" horiz-adv-x="1327" 
d="M1219 1434q12 0 20 -10.5t8 -22.5v-293q0 -33 -28 -33h-355v-213h84q33 0 33 -31v-233q0 -31 -33 -31h-84v-536q0 -12 -9 -21.5t-21 -9.5h-340q-12 0 -21.5 9t-9.5 22v536h-84q-33 0 -33 31v233q0 31 33 31h84v213h-352q-12 0 -21.5 9.5t-9.5 23.5v293q0 12 9 22.5
t22 10.5h1108z" />
    <glyph glyph-name="tbar" unicode="&#x167;" horiz-adv-x="849" 
d="M481 -16q-285 0 -303 329v260h-69q-29 0 -29 35v221q0 37 29 37h69v97h-69q-29 0 -29 34v222q0 37 29 36h69v164q0 31 31 31h317q31 0 31 -31v-164h158q33 0 33 -36v-222q0 -35 -33 -34h-158v-97h158q33 0 33 -37v-221q0 -35 -33 -35h-158v-217q0 -47 16 -64
q33 -35 140 1q22 5 35 -19l71 -196q8 -31 -16 -43q-141 -51 -322 -51z" />
    <glyph glyph-name="Umacron" unicode="&#x16a;" horiz-adv-x="1439" 
d="M1317 1434q12 0 21.5 -9.5t9.5 -23.5v-785q0 -190 -77 -340q-44 -86 -111.5 -149.5t-180.5 -103t-258.5 -39.5t-259 39.5t-181 103t-110.5 149.5q-76 152 -76 340v785q0 14 9.5 23.5t21.5 9.5h340q31 0 31 -33v-733q0 -156 50 -241t175 -85t175 85t50 241v733
q0 14 9.5 23.5t21.5 9.5h340zM518 1599q-33 0 -33 31v133q0 31 33 31h406q33 0 32 -31v-133q0 -31 -32 -31h-406z" />
    <glyph glyph-name="umacron" unicode="&#x16b;" horiz-adv-x="1163" 
d="M1036 866q31 0 31 -37v-800q0 -12 -10 -20.5t-23 -8.5h-248q-29 0 -49 29l-51 69q-31 -47 -96.5 -80.5t-128.5 -33.5q-176 0 -270.5 100t-94.5 285v460q0 37 29 37h319q31 0 31 -37v-446q0 -49 28.5 -86t74.5 -37t77 35t33 90v444q0 37 31 37h317zM379 1032q-33 0 -33 31
v133q0 31 33 31h405q33 0 33 -31v-133q0 -31 -33 -31h-405z" />
    <glyph glyph-name="ubreve" unicode="&#x16d;" horiz-adv-x="1163" 
d="M1036 866q31 0 31 -37v-800q0 -12 -10 -20.5t-23 -8.5h-248q-29 0 -49 29l-51 69q-31 -47 -96.5 -80.5t-128.5 -33.5q-176 0 -270.5 100t-94.5 285v460q0 37 29 37h319q31 0 31 -37v-446q0 -49 28.5 -86t75 -37t77 35t32.5 90v444q0 37 31 37h317zM581.5 1196
q49.5 0 76 21.5t59.5 72.5q8 14 22 8l146 -61q16 -6 10 -20q-86 -217 -314 -217.5t-315 217.5q-6 14 10 20l144 61q14 6 22 -8q33 -51 61.5 -72.5t78 -21.5z" />
    <glyph glyph-name="Uring" unicode="&#x16e;" horiz-adv-x="1439" 
d="M1317 1434q12 0 21.5 -9.5t9.5 -23.5v-785q0 -190 -77 -340q-44 -86 -111.5 -149.5t-180.5 -103t-258.5 -39.5t-259 39.5t-181 103t-110.5 149.5q-76 152 -76 340v785q0 14 9.5 23.5t21.5 9.5h340q31 0 31 -33v-733q0 -156 50 -241t175 -85t175 85t50 241v733
q0 14 9.5 23.5t21.5 9.5h340zM719 1696q35 0 53.5 24.5t18.5 56.5t-18.5 56.5t-53.5 24.5q-66 0 -66 -81t66 -81zM720 1534q-101 0 -170 66.5t-69 177t68.5 177t170 66.5t172.5 -66.5t71 -177t-71 -177t-172 -66.5z" />
    <glyph glyph-name="uring" unicode="&#x16f;" horiz-adv-x="1163" 
d="M1036 866q31 0 31 -37v-800q0 -12 -10 -20.5t-23 -8.5h-248q-29 0 -49 29l-51 69q-31 -47 -96.5 -80.5t-128.5 -33.5q-176 0 -270.5 100t-94.5 285v460q0 37 29 37h319q31 0 31 -37v-446q0 -49 28.5 -86t75 -37t77 35t32.5 90v444q0 37 31 37h317zM580 1128q35 0 53 25
t18 56.5t-18.5 56t-52.5 24.5q-66 0 -66 -81t66 -81zM581 967q-101 0 -170 66.5t-69 177t68.5 177t170 66.5t172 -66.5t70.5 -177t-70.5 -177t-171.5 -66.5z" />
    <glyph glyph-name="Uhungarumlaut" unicode="&#x170;" horiz-adv-x="1439" 
d="M1317 1434q12 0 21.5 -9.5t9.5 -23.5v-785q0 -190 -77 -340q-44 -86 -111.5 -149.5t-180.5 -103t-258.5 -39.5t-259 39.5t-181 103t-110.5 149.5q-76 152 -76 340v785q0 14 9.5 23.5t21.5 9.5h340q31 0 31 -33v-733q0 -156 50 -241t175 -85t175 85t50 241v733
q0 14 9.5 23.5t21.5 9.5h340zM866 1575q-23 -8 -45 14l-30 31q-14 16 14 41l209 186q18 16 39 -4l106 -108q10 -10 7 -24.5t-17 -20.5zM461 1575q-23 -10 -45 14l-31 31q-12 16 16 41l209 186q18 18 37 -4l107 -108q23 -29 -13 -43z" />
    <glyph glyph-name="uhungarumlaut" unicode="&#x171;" horiz-adv-x="1163" 
d="M1036 866q31 0 31 -37v-800q0 -12 -10 -20.5t-23 -8.5h-248q-29 0 -49 29l-51 69q-31 -47 -96.5 -80.5t-128.5 -33.5q-176 0 -270.5 100t-94.5 285v460q0 37 29 37h319q31 0 31 -37v-446q0 -49 28.5 -86t75 -37t77 35t32.5 90v444q0 37 31 37h317zM662 1008l-37 22
q-16 10 2 43l149 236q14 20 37 8l133 -76q14 -8 14.5 -21.5t-12.5 -23.5l-239 -190q-16 -14 -47 2zM309 1008l-39 22q-14 10 4 43l148 236q20 20 39 10l133 -78q29 -21 0 -45l-240 -190q-18 -12 -45 2z" />
    <glyph glyph-name="Uogonek" unicode="&#x172;" horiz-adv-x="1439" 
d="M1317 1434q12 0 21.5 -9.5t9.5 -23.5v-785q0 -183 -81 -351q-42 -87 -124 -153.5t-195 -99.5q-104 -121 -104 -223q0 -57 28 -67q10 -4 38 -3.5t91 39.5q18 14 31 0l25 -26q10 -14 4 -23q-59 -139 -209 -139q-82 0 -140.5 45t-58.5 135q0 125 109 234h-41
q-145 0 -259 39.5t-181.5 103t-110.5 149.5q-76 152 -76 340v785q0 14 9.5 23.5t21.5 9.5h340q31 0 31 -33v-733q0 -156 50 -241t175 -85t175 85t50 241v733q0 14 9.5 23.5t21.5 9.5h340z" />
    <glyph glyph-name="uogonek" unicode="&#x173;" horiz-adv-x="1163" 
d="M1036 866q31 0 31 -37v-800q0 -12 -10 -20.5t-23 -8.5h-104q-94 -111 -94 -211q0 -57 28 -67q10 -4 38 -3.5t91 39.5q18 14 31 0l25 -26q10 -14 4 -23q-59 -139 -209 -139q-82 0 -140.5 45t-58.5 135q0 137 127 252q-20 6 -35 27l-51 69q-31 -47 -96.5 -80.5
t-128.5 -33.5q-176 0 -270.5 100t-94.5 285v460q0 37 29 37h319q31 0 31 -37v-446q0 -49 28.5 -86t75 -37t77 35t32.5 90v444q0 37 31 37h317z" />
    <glyph glyph-name="Wcircumflex" unicode="&#x174;" horiz-adv-x="2160" 
d="M2081 1434q12 0 19 -9.5t5 -21.5l-487 -1383q-6 -20 -29 -20h-176q-16 0 -27 18l-305 676l-301 -674q-8 -20 -30 -20h-175q-18 0 -30 20l-488 1383q-4 12 4.5 21.5t20.5 9.5h338q25 0 29 -31l241 -666l283 664q12 33 33 33h149q23 0 35 -33l283 -664l239 666q12 31 31 31
h338zM817 1579v80q0 20 21 41l186 170q25 25 51 24h8q27 0 54 -24l188 -170q20 -20 21 -41v-80q0 -34 -39 -14l-228 131l-223 -131q-39 -20 -39 14z" />
    <glyph glyph-name="wcircumflex" unicode="&#x175;" horiz-adv-x="1488" 
d="M1403 866q18 0 25.5 -15t1.5 -28l-300 -803q-8 -20 -28 -20h-203q-20 0 -31 20l-125 371l-125 -373q-8 -18 -26 -18h-205q-18 0 -31 18l-295 805q-8 12 0.5 27.5t26.5 15.5h313q25 0 31 -20l86 -324l115 324q8 20 29 20h167q20 0 27 -20l117 -324l86 322q6 23 31 22h313z
M477 1012v80q0 20 21 41l186 170q25 25 51 24h8q27 0 54 -24l188 -170q20 -20 21 -41v-80q0 -33 -39 -15l-228 131l-223 -131q-39 -18 -39 15z" />
    <glyph glyph-name="Ycircumflex" unicode="&#x176;" horiz-adv-x="1402" 
d="M1329 1434q12 0 20.5 -9.5t4.5 -21.5l-453 -799v-575q0 -12 -10 -20.5t-23 -8.5h-338q-31 0 -30 29v575l-449 799q-6 12 2 21.5t21 9.5h358q41 0 53 -31l215 -406l218 406q12 31 49 31h362zM436 1579v80q0 20 21 41l186 170q25 25 51 24h8q27 0 54 -24l188 -170
q20 -20 21 -41v-80q0 -34 -39 -14l-228 131l-223 -131q-39 -20 -39 14z" />
    <glyph glyph-name="ycircumflex" unicode="&#x177;" horiz-adv-x="1161" 
d="M1096 866q14 0 25.5 -13t2.5 -30l-608 -1204q-8 -16 -27 -16h-294q-16 0 -26.5 13t-2.5 30l237 469l-366 708q-6 12 2 27.5t27 15.5h305q23 0 35 -30l176 -367l192 379q8 18 29 18h293zM319 1012v80q0 20 21 41l186 170q25 25 52 24h8q27 0 53 -24l188 -170
q20 -20 21 -41v-80q0 -33 -39 -15l-227 131l-224 -131q-39 -18 -39 15z" />
    <glyph glyph-name="Ydieresis" unicode="&#x178;" horiz-adv-x="1402" 
d="M1329 1434q12 0 20.5 -9.5t4.5 -21.5l-453 -799v-575q0 -12 -10 -20.5t-23 -8.5h-338q-31 0 -30 29v575l-449 799q-6 12 2 21.5t21 9.5h358q41 0 53 -31l215 -406l218 406q12 31 49 31h362zM860 1595q-47 0 -79.5 32t-32.5 78t32.5 78t79.5 32t79 -32t32 -78t-32 -78
t-79 -32zM549 1595q-47 0 -79 31t-32 78t32 79t79 32t78.5 -32t31.5 -78t-31.5 -78t-78.5 -32z" />
    <glyph glyph-name="Zacute" unicode="&#x179;" horiz-adv-x="1333" 
d="M164 1075q-29 0 -29 31v293q0 35 29 35h1048q16 0 21.5 -14.5t-2.5 -30.5l-545 -1031h494q10 0 19 -10t9 -22v-295q0 -31 -28 -31h-1074q-16 0 -25 14.5t-1 28.5l547 1032h-463zM483 1565q-35 -10 -45 14l-22 59q-10 27 14 43l361 197q31 20 43 -14l61 -144
q12 -31 -12 -43z" />
    <glyph glyph-name="zacute" unicode="&#x17a;" horiz-adv-x="921" 
d="M123 588q-31 0 -31 28v220q0 12 9.5 21t21.5 9h688q18 0 27.5 -12t1.5 -31l-262 -544h210q12 0 21.5 -9.5t9.5 -21.5v-219q0 -29 -31 -29h-679q-14 0 -24.5 12.5t-4.5 28.5l260 547h-217zM340 977q-29 -18 -47 6l-37 55q-12 23 8 45l289 318q23 25 47 -4l98 -150
q16 -27 -8 -45z" />
    <glyph glyph-name="Zdotaccent" unicode="&#x17b;" horiz-adv-x="1333" 
d="M164 1075q-29 0 -29 31v293q0 35 29 35h1048q16 0 21.5 -14.5t-2.5 -30.5l-545 -1031h494q10 0 19 -10t9 -22v-295q0 -31 -28 -31h-1074q-16 0 -25 14.5t-1 28.5l547 1032h-463zM657.5 1567q-57.5 0 -97.5 39t-40 96t40 97t97.5 40t97.5 -40t40 -97t-40 -96t-97.5 -39z
" />
    <glyph glyph-name="zdotaccent" unicode="&#x17c;" horiz-adv-x="921" 
d="M123 588q-31 0 -31 28v220q0 12 9.5 21t21.5 9h688q18 0 27.5 -12t1.5 -31l-262 -544h210q12 0 21.5 -9.5t9.5 -21.5v-219q0 -29 -31 -29h-679q-14 0 -24.5 12.5t-4.5 28.5l260 547h-217zM471 999q-57 0 -97 39t-40 96.5t40 97.5t97 40t97 -40t40 -97.5t-40 -96.5
t-97 -39z" />
    <glyph glyph-name="Zcaron" unicode="&#x17d;" horiz-adv-x="1333" 
d="M164 1075q-29 0 -29 31v293q0 35 29 35h1048q16 0 21.5 -14.5t-2.5 -30.5l-545 -1031h494q10 0 19 -10t9 -22v-295q0 -31 -28 -31h-1074q-16 0 -25 14.5t-1 28.5l547 1032h-463zM922 1874v-80q0 -20 -21 -41l-188 -170q-27 -25 -54 -24h-8q-27 0 -51 24l-186 170
q-20 20 -21 41v80q0 35 39 14l223 -131l228 131q39 20 39 -14z" />
    <glyph glyph-name="zcaron" unicode="&#x17e;" horiz-adv-x="921" 
d="M123 588q-31 0 -31 28v220q0 12 9.5 21t21.5 9h688q18 0 27.5 -12t1.5 -31l-262 -544h210q12 0 21.5 -9.5t9.5 -21.5v-219q0 -29 -31 -29h-679q-14 0 -24.5 12.5t-4.5 28.5l260 547h-217zM735 1307v-80q0 -20 -20 -41l-189 -170q-27 -25 -53 -25h-8q-27 0 -51 25
l-187 170q-20 20 -20 41v80q0 33 39 14l223 -131l227 131q39 18 39 -14z" />
    <glyph glyph-name="florin" unicode="&#x192;" horiz-adv-x="966" 
d="M684 1157q-119 0 -119 -192v-70h158q12 0 21.5 -10.5t9.5 -22.5v-293q0 -12 -9.5 -21t-21.5 -9h-158v-596q0 -82 -45 -159t-92 -119t-117 -93q-20 -14 -39 0l-174 164q-16 16 0 39q76 92 76 151v613h-70q-29 0 -28 30v293q0 12 8 22.5t20 10.5h70v78q0 256 132 366.5
t317.5 110.5t294.5 -59q18 -11 10 -45l-140 -187q-12 -20 -41.5 -11t-62.5 9z" />
    <glyph glyph-name="Scommaaccent" unicode="&#x218;" horiz-adv-x="1370" 
d="M795 -86v-184q0 -72 -62.5 -123t-128.5 -70q-27 -5 -31 17t21 30q53 16 88 53t35 84l-113 37q-33 10 -33 35v121q0 31 33 31h158q33 0 33 -31zM666 -16q-350 0 -549 196q-20 20 0 41l217 217q18 18 41 2q53 -45 136 -74.5t160 -29.5t137 31.5t60 74.5q0 74 -204 107
q-293 57 -430.5 157.5t-137.5 260.5q0 213 167 348t427 135q315 0 565 -197q10 -8 10.5 -22t-8.5 -25l-219 -219q-23 -16 -41 -4q-158 111 -317 111q-80 0 -131 -25t-51 -61q0 -78 223 -117q297 -57 423 -155.5t126 -274.5q0 -221 -161.5 -349t-442.5 -128z" />
    <glyph glyph-name="scommaaccent" unicode="&#x219;" horiz-adv-x="899" 
d="M532 -86v-184q0 -72 -62 -123t-128 -70q-27 -6 -31 16.5t21 30.5q53 16 88 53t35 84l-113 37q-33 10 -33 35v121q0 31 33 31h158q32 0 32 -31zM391.5 -16q-227.5 0 -328.5 100q-16 16 -4 39l91 164q13 31 45 10t109 -41t130 -20t53 24.5t-84 40.5q-184 41 -254.5 102.5
t-70.5 187.5t107.5 209t287.5 83t330 -82q27 -12 10 -39l-96 -174q-14 -31 -41 -15q-86 57 -165 57.5t-79 -30.5q0 -20 90 -43q197 -51 259.5 -105.5t62.5 -184.5t-112.5 -206.5t-340 -76.5z" />
    <glyph glyph-name="uni021A" unicode="&#x21a;" horiz-adv-x="1327" 
d="M772 -90v-184q0 -72 -62.5 -123.5t-127.5 -69.5q-27 -6 -31 16t20 31q53 16 88 53t35 84l-112 37q-33 10 -33 35v121q0 31 33 31h157q33 0 33 -31zM1219 1434q12 0 20 -10.5t8 -22.5v-293q0 -33 -28 -33h-355v-1044q0 -12 -9 -21.5t-21 -9.5h-340q-12 0 -21.5 9t-9.5 22
v1044h-352q-12 0 -21.5 9.5t-9.5 23.5v293q0 12 9 22.5t22 10.5h1108z" />
    <glyph glyph-name="uni021B" unicode="&#x21b;" horiz-adv-x="831" 
d="M567 -86v-184q0 -72 -62.5 -123t-127.5 -70q-27 -6 -31 16.5t21 30.5q53 16 87.5 53t34.5 84l-112 37q-33 10 -33 35v121q0 31 33 31h158q32 0 32 -31zM537 358q1 -86 59 -86q26 0 90 19h6q19 6 35 -19l72 -196q10 -29 -17 -41q-137 -51 -319 -51q-287 0 -305 331v258
h-70q-29 0 -29 35v221q0 37 29 37h70v215q0 31 30 31h318q31 0 31 -31v-215h159q31 0 31 -37v-221q0 -35 -31 -35h-159v-215z" />
    <glyph glyph-name="circumflex" unicode="&#x2c6;" horiz-adv-x="720" 
d="M96 1327v80q0 20 21 41l186 170q25 25 51 24h8q27 0 54 -24l188 -170q20 -20 21 -41v-80q0 -32 -39 -14l-228 131l-223 -131q-39 -18 -39 14z" />
    <glyph glyph-name="caron" unicode="&#x2c7;" horiz-adv-x="716" 
d="M623 1622v-80q0 -20 -21 -41l-188 -170q-27 -25 -54 -24h-8q-27 0 -51 24l-186 170q-20 20 -21 41v80q0 33 39 14l223 -131l228 131q39 18 39 -14z" />
    <glyph glyph-name="breve" unicode="&#x2d8;" horiz-adv-x="821" 
d="M411 1315q-228 0 -315 217q-6 14 10 20l144 62q16 6 22 -8q33 -51 62 -73t78 -22q50 0 76 22t59 73q8 14 22 8l146 -62q16 -6 10 -20q-86 -217 -314 -217z" />
    <glyph glyph-name="dotaccent" unicode="&#x2d9;" horiz-adv-x="462" 
d="M231 1315q-57 0 -97 39t-40 96t40 97t97 40t97 -40t41 -97q-1 -57 -41 -96t-97 -39z" />
    <glyph glyph-name="ring" unicode="&#x2da;" horiz-adv-x="657" 
d="M326 1438q35 0 53 24t18 57t-18 57t-53 23q-66 -1 -66 -81t66 -80zM327 1276q-101 0 -170 66t-69 178t69 178t170 66t172 -68q71 -66 71 -176t-71 -178q-71 -66 -172 -66z" />
    <glyph glyph-name="ogonek" unicode="&#x2db;" horiz-adv-x="595" 
d="M351 -301q28 0 91 39q18 14 31 0l25 -27q10 -14 4 -22q-59 -139 -209 -140q-82 0 -140 45t-59 136q0 150 148 270h153q-111 -129 -110 -231q0 -59 28 -67q10 -3 38 -3z" />
    <glyph glyph-name="tilde" unicode="&#x2dc;" horiz-adv-x="833" 
d="M544 1339q-64 0 -126 31q-60 31 -104 31q-98 0 -126 -45q-8 -12 -28 -4l-56 26q-36 14 46 117q45 57 137 57t162 -30q69 -30 109 -31q40 0 89 45q10 10 29 4l53 -22q16 -4 8 -25q-25 -68 -77 -111t-116 -43z" />
    <glyph glyph-name="hungarumlaut" unicode="&#x2dd;" horiz-adv-x="886" 
d="M494 1323l-37 23q-16 10 2 43l149 235q14 20 37 8l133 -76q14 -8 14 -21t-12 -24l-239 -190q-16 -14 -47 2zM141 1323l-39 23q-14 10 4 43l148 235q20 20 39 10l133 -78q28 -20 0 -45l-240 -190q-18 -12 -45 2z" />
    <glyph glyph-name="gravecomb" unicode="&#x300;" 
d="M-186 1292l-351 226q-25 18 -8 45l99 149q25 29 47 4l288 -317q20 -23 9 -45l-37 -56q-18 -24 -47 -6z" />
    <glyph glyph-name="acutecomb" unicode="&#x301;" 
d="M-459 1292q-29 -18 -47 6l-37 56q-12 23 8 45l289 317q23 25 47 -4l99 -149q16 -27 -9 -45z" />
    <glyph glyph-name="uni0302" unicode="&#x302;" 
d="M-623 1327v80q0 20 21 41l186 170q25 25 51 24h9q27 0 53 -24l188 -170q20 -20 21 -41v-80q0 -32 -39 -14l-227 131l-224 -131q-39 -18 -39 14z" />
    <glyph glyph-name="tildecomb" unicode="&#x303;" 
d="M-290 1339q-65 0 -126 31t-104 31t-78 -12.5t-45 -28.5t-31 -8l-55 26q-35 13 45 117q44 57 137 57t162.5 -30.5t109 -30.5t89.5 45q10 10 28 4l54 -22q16 -4 8 -25q-25 -68 -77 -111t-117 -43z" />
    <glyph glyph-name="uni0304" unicode="&#x304;" 
d="M-532 1348q-33 0 -33 30v133q0 31 33 31h405q33 0 33 -31v-133q0 -31 -33 -30h-405z" />
    <glyph glyph-name="uni0306" unicode="&#x306;" 
d="M-410.5 1315q-228.5 0 -314.5 217q-6 14 10 20l144 62q14 6 22 -8q33 -51 61.5 -73t78 -22t76 21.5t59.5 73.5q6 14 22 8l146 -62q16 -6 10 -20q-86 -217 -314.5 -217z" />
    <glyph glyph-name="uni0307" unicode="&#x307;" 
d="M-231.5 1315q-57.5 0 -97.5 39t-40 96t40 97t97.5 40t97.5 -40t40 -97t-40 -96t-97.5 -39z" />
    <glyph glyph-name="uni0308" unicode="&#x308;" 
d="M-203 1343q-47 0 -79.5 32t-32.5 78t32.5 78t79.5 32t79 -32t32 -78t-32 -78t-79 -32zM-514 1343q-47 0 -79 31t-32 78t32 79t79 32t79 -32t32 -78t-32 -78t-79 -32z" />
    <glyph glyph-name="uni030A" unicode="&#x30a;" 
d="M-332 1444q35 0 53.5 24.5t18.5 56.5t-18.5 56.5t-53.5 24.5q-66 0 -66 -81t66 -81zM-331 1282q-101 0 -169.5 66.5t-68.5 177t68.5 177t169.5 66.5t172 -66.5t71 -177t-71 -177t-172 -66.5z" />
    <glyph glyph-name="uni030B" unicode="&#x30b;" 
d="M-393 1323l-37 23q-16 10 2 43l149 235q16 20 37 8l133 -76q14 -8 14.5 -21t-11.5 -24l-240 -190q-16 -14 -47 2zM-745 1323l-39 23q-14 10 4 43l147 235q20 20 39 10l133 -78q28 -20 0 -45l-239 -190q-18 -12 -45 2z" />
    <glyph glyph-name="uni030C" unicode="&#x30c;" 
d="M-94 1622v-80q0 -20 -21 -41l-188 -170q-27 -25 -53 -24h-9q-27 0 -51 24l-186 170q-20 20 -21 41v80q0 33 39 14l224 -131l227 131q39 18 39 -14z" />
    <glyph glyph-name="uni0312" unicode="&#x312;" 
d="M-354 1296v185q0 72 62.5 123t127.5 69q27 6 31 -16t-21 -31q-53 -16 -87.5 -53t-34.5 -84l112 -37q33 -10 33 -35v-121q0 -31 -33 -30h-158q-32 -1 -32 30z" />
    <glyph glyph-name="uni0326" unicode="&#x326;" 
d="M-94 -84v-184q0 -72 -62.5 -123t-128.5 -70q-27 -6 -30 19q-4 20 20 28q53 16 88 53t35 85l-113 36q-33 10 -32 35v121q0 31 32 31h158q33 0 33 -31z" />
    <glyph glyph-name="uni0327" unicode="&#x327;" 
d="M-92 -240q0 -186 -234 -186q-51 0 -102 26q-76 39 -61 70l65 70q10 10 27 -2q27 -27 69 -27q59 0 60 53q0 29 -17.5 43.5t-38.5 -5.5t-49 -13l-90 27q-14 4 -10 20l76 180h174l-39 -92q72 2 121 -40t49 -124z" />
    <glyph glyph-name="uni0328" unicode="&#x328;" 
d="M-502 -270q0 150 148 270h153q-111 -129 -110 -231q1 -59 29 -67q10 -3 37.5 -3t90.5 39q18 14 31 0l25 -27q10 -14 4 -22q-59 -139 -209 -140q-82 0 -140.5 45.5t-58.5 135.5z" />
    <glyph glyph-name="uni0335" unicode="&#x335;" 
d="M-696 281q-33 0 -33 30v234q0 31 33 30h569q33 0 33 -30v-234q0 -31 -33 -30h-569z" />
    <glyph glyph-name="uni0336" unicode="&#x336;" 
d="M-1276 281q-33 0 -33 30v234q0 31 33 30h1149q33 0 33 -30v-234q0 -31 -33 -30h-1149z" />
    <glyph glyph-name="uni0337" unicode="&#x337;" 
d="M-580 0h-188q-20 0 -30 14q-9 14 -1 33l467 1061q12 31 41 31h205q16 1 22 -11t1 -26l-474 -1071q-16 -31 -43 -31z" />
    <glyph glyph-name="uni0338" unicode="&#x338;" 
d="M-707 0h-188q-20 0 -31 15q-10 15 -2 32l598 1356q12 31 41 31h203q16 0 22 -12t1 -25l-601 -1366q-16 -31 -43 -31z" />
    <glyph glyph-name="uni0394" unicode="&#x394;" horiz-adv-x="1630" 
d="M815 1014l-225 -658h450zM1518 0h-1407q-14 0 -24 13q-9 13 -3 30l502 1372q8 18 28 19h398q25 0 30 -19l504 -1374q6 -13 -3 -27t-25 -14z" />
    <glyph glyph-name="Pi" unicode="&#x3a0;" horiz-adv-x="1374" 
d="M1200 1434q33 0 33 -31v-1370q0 -33 -31 -33h-315q-31 0 -31 33v1069h-338v-1069q0 -33 -31 -33h-315q-31 0 -31 33v1370q0 31 33 31h1026z" />
    <glyph glyph-name="uni03A9" unicode="&#x3a9;" horiz-adv-x="1558" 
d="M1446 356q31 0 31 -28v-299q0 -29 -31 -29h-596q-29 0 -29 27q7 85 130 321q46 88 84 212t38 256q1 132 -67 202q-68 72 -227 72t-227 -72t-69 -219t57 -303t124 -284t73 -185q0 -27 -28 -27h-596q-31 0 -31 29v299q0 29 31 28h86q-51 113 -84 240t-33 199q0 295 193 475
q194 180 504 180t503 -177t193 -478q0 -55 -33 -187t-84 -252h88z" />
    <glyph glyph-name="uni03BC" unicode="&#x3bc;" horiz-adv-x="1165" 
d="M1087 0h-311q-29 0 -45 29l-47 71q-113 -117 -227 -116q18 0 14 -19v-379q0 -31 -31 -30h-317q-29 0 -29 30v1248q0 33 29 32h317q12 0 22 -9t9 -23v-453q0 -53 31 -87q30 -34 74 -34t76 37t34 88v444q0 37 31 37h315q33 0 33 -37v-639q0 -63 45 -153q6 -13 -1 -25
t-22 -12z" />
    <glyph glyph-name="pi" unicode="&#x3c0;" horiz-adv-x="1531" 
d="M1415 866q35 0 35 -30v-273q0 -29 -35 -28h-145v-297q0 -106 65 -201q6 -13 0 -25t-20 -12h-314q-27 0 -45 29q-2 4 -6 10q-53 86 -59 170v326h-180v-504q0 -31 -31 -31h-320q-29 0 -28 31v504q-106 0 -207 -66q-12 -8 -25 -1q-12 7 -12 21v267q0 27 29 45q4 2 10 6
q86 53 170 59h1118z" />
    <glyph glyph-name="Wgrave" unicode="&#x1e80;" horiz-adv-x="2160" 
d="M2081 1434q12 0 19 -9.5t5 -21.5l-487 -1383q-6 -20 -29 -20h-176q-16 0 -27 18l-305 676l-301 -674q-8 -20 -30 -20h-175q-18 0 -30 20l-488 1383q-4 12 4.5 21.5t20.5 9.5h338q25 0 29 -31l241 -666l283 664q12 33 33 33h149q23 0 35 -33l283 -664l239 666q12 31 31 31
h338zM1253 1567l-399 112q-25 12 -12 43l61 144q12 35 43 14l361 -197q25 -16 14 -43l-23 -59q-10 -24 -45 -14z" />
    <glyph glyph-name="wgrave" unicode="&#x1e81;" horiz-adv-x="1488" 
d="M1403 866q18 0 25.5 -15t1.5 -28l-300 -803q-8 -20 -28 -20h-203q-20 0 -31 20l-125 371l-125 -373q-8 -18 -26 -18h-205q-18 0 -31 18l-295 805q-8 12 0.5 27.5t26.5 15.5h313q25 0 31 -20l86 -324l115 324q8 20 29 20h167q20 0 27 -20l117 -324l86 322q6 23 31 22h313z
M899 977l-350 225q-25 18 -8 45l98 150q25 29 47 4l289 -318q20 -23 8 -45l-37 -55q-18 -24 -47 -6z" />
    <glyph glyph-name="Wacute" unicode="&#x1e82;" horiz-adv-x="2160" 
d="M2081 1434q12 0 19 -9.5t5 -21.5l-487 -1383q-6 -20 -29 -20h-176q-16 0 -27 18l-305 676l-301 -674q-8 -20 -30 -20h-175q-18 0 -30 20l-488 1383q-4 12 4.5 21.5t20.5 9.5h338q25 0 29 -31l241 -666l283 664q12 33 33 33h149q23 0 35 -33l283 -664l239 666q12 31 31 31
h338zM909 1565q-35 -10 -45 14l-22 59q-10 27 14 43l361 197q31 20 43 -14l61 -144q12 -31 -12 -43z" />
    <glyph glyph-name="wacute" unicode="&#x1e83;" horiz-adv-x="1488" 
d="M1403 866q18 0 25.5 -15t1.5 -28l-300 -803q-8 -20 -28 -20h-203q-20 0 -31 20l-125 371l-125 -373q-8 -18 -26 -18h-205q-18 0 -31 18l-295 805q-8 12 0.5 27.5t26.5 15.5h313q25 0 31 -20l86 -324l115 324q8 20 29 20h167q20 0 27 -20l117 -324l86 322q6 23 31 22h313z
M612 977q-29 -18 -47 6l-37 55q-12 23 9 45l288 318q23 25 47 -4l99 -150q16 -27 -8 -45z" />
    <glyph glyph-name="Wdieresis" unicode="&#x1e84;" horiz-adv-x="2160" 
d="M2081 1434q12 0 19 -9.5t5 -21.5l-487 -1383q-6 -20 -29 -20h-176q-16 0 -27 18l-305 676l-301 -674q-8 -20 -30 -20h-175q-18 0 -30 20l-488 1383q-4 12 4.5 21.5t20.5 9.5h338q25 0 29 -31l241 -666l283 664q12 33 33 33h149q23 0 35 -33l283 -664l239 666q12 31 31 31
h338zM1241 1595q-47 0 -80 32t-33 78t33 78t80 32t79 -32t32 -78t-32 -78t-79 -32zM930 1595q-47 0 -79 31t-32 78t32 79t79 32t78.5 -32t31.5 -78t-31.5 -78t-78.5 -32z" />
    <glyph glyph-name="wdieresis" unicode="&#x1e85;" horiz-adv-x="1488" 
d="M1403 866q18 0 25.5 -15t1.5 -28l-300 -803q-8 -20 -28 -20h-203q-20 0 -31 20l-125 371l-125 -373q-8 -18 -26 -18h-205q-18 0 -31 18l-295 805q-8 12 0.5 27.5t26.5 15.5h313q25 0 31 -20l86 -324l115 324q8 20 29 20h167q20 0 27 -20l117 -324l86 322q6 23 31 22h313z
M901 1028q-47 0 -80 32t-33 78t33 77.5t80 31.5t79 -31.5t32 -77.5t-32 -78t-79 -32zM590 1028q-47 0 -79 31t-32 78t32 78.5t79 31.5t78.5 -31.5t31.5 -77.5t-31.5 -78t-78.5 -32z" />
    <glyph glyph-name="Ygrave" unicode="&#x1ef2;" horiz-adv-x="1402" 
d="M1329 1434q12 0 20.5 -9.5t4.5 -21.5l-453 -799v-575q0 -12 -10 -20.5t-23 -8.5h-338q-31 0 -30 29v575l-449 799q-6 12 2 21.5t21 9.5h358q41 0 53 -31l215 -406l218 406q12 31 49 31h362zM872 1567l-399 112q-25 12 -12 43l61 144q12 35 43 14l361 -197q25 -16 14 -43
l-22 -59q-11 -24 -46 -14z" />
    <glyph glyph-name="ygrave" unicode="&#x1ef3;" horiz-adv-x="1161" 
d="M1096 866q14 0 25.5 -13t2.5 -30l-608 -1204q-8 -16 -27 -16h-294q-16 0 -26.5 13t-2.5 30l237 469l-366 708q-6 12 2 27.5t27 15.5h305q23 0 35 -30l176 -367l192 379q8 18 29 18h293zM741 977l-350 225q-25 18 -8 45l98 150q25 29 47 4l289 -318q20 -23 8 -45l-37 -55
q-18 -24 -47 -6z" />
    <glyph glyph-name="endash" unicode="&#x2013;" horiz-adv-x="1179" 
d="M127 313q-33 0 -33 31v197q0 31 33 30h926q33 0 32 -30v-197q0 -31 -32 -31h-926z" />
    <glyph glyph-name="emdash" unicode="&#x2014;" horiz-adv-x="1748" 
d="M127 313q-33 0 -33 31v197q0 31 33 30h1493q35 0 35 -30v-197q0 -31 -35 -31h-1493z" />
    <glyph glyph-name="quoteleft" unicode="&#x2018;" horiz-adv-x="534" 
d="M102 858v248q0 127 85 233t216 181q23 12 33 -16t-12 -40q-113 -72 -152 -142t-39 -177l160 -55q35 -14 35 -35v-197q0 -31 -33 -31h-260q-33 0 -33 31z" />
    <glyph glyph-name="quoteright" unicode="&#x2019;" horiz-adv-x="534" 
d="M432 1403v-248q0 -127 -85 -233t-216 -181q-23 -12 -33 16t13 40q113 73 151 143t39 176l-160 55q-35 14 -35 35v197q0 31 33 31h260q33 0 33 -31z" />
    <glyph glyph-name="quotesinglbase" unicode="&#x201a;" horiz-adv-x="534" 
d="M432 248v-248q0 -127 -85 -233t-216 -181q-23 -12 -33 16t13 40q113 72 151 142t39 177l-160 55q-35 14 -35 35v197q0 31 33 31h260q33 0 33 -31z" />
    <glyph glyph-name="quotedblleft" unicode="&#x201c;" horiz-adv-x="1122" 
d="M690 858v248q0 127 85 233t216 181q23 12 33 -16t-12 -40q-113 -72 -152 -142t-39 -177l160 -55q35 -14 35 -35v-197q0 -31 -33 -31h-260q-33 0 -33 31zM104 858v248q0 127 85 233t217 181q22 12 32 -16t-12 -40q-113 -72 -152 -142t-38 -177l159 -55q35 -14 35 -35v-197
q0 -31 -33 -31h-260q-33 0 -33 31z" />
    <glyph glyph-name="quotedblright" unicode="&#x201d;" horiz-adv-x="1122" 
d="M1018 1403v-248q0 -127 -85 -233t-216 -181q-23 -12 -33 16t12 40q113 73 152 143t39 176l-160 55q-35 14 -35 35v197q0 31 33 31h260q33 0 33 -31zM432 1403v-248q0 -127 -85 -233t-216 -181q-23 -12 -33 16t13 40q113 73 151 143t39 176l-160 55q-35 14 -35 35v197
q0 31 33 31h260q33 0 33 -31z" />
    <glyph glyph-name="quotedblbase" unicode="&#x201e;" horiz-adv-x="1122" 
d="M1018 248v-248q0 -127 -85 -233t-216 -181q-23 -12 -33 16t12 40q113 72 152 142t39 177l-160 55q-35 14 -35 35v197q0 31 33 31h260q33 0 33 -31zM432 248v-248q0 -127 -85 -233t-216 -181q-23 -12 -33 16t13 40q113 72 151 142t39 177l-160 55q-35 14 -35 35v197
q0 31 33 31h260q33 0 33 -31z" />
    <glyph glyph-name="dagger" unicode="&#x2020;" horiz-adv-x="1040" 
d="M915 1114q33 0 33 -31v-196q0 -31 -33 -31h-249v-825q0 -31 -29 -31h-229q-12 0 -22 9q-9 9 -9 22v825h-250q-33 0 -33 31v196q0 31 33 31h250v289q0 12 9 21t22 10h229q29 0 29 -31v-289h249z" />
    <glyph glyph-name="daggerdbl" unicode="&#x2021;" horiz-adv-x="1040" 
d="M915 856h-249v-278h249q33 0 33 -31v-197q0 -31 -33 -31h-249v-288q0 -31 -29 -31h-229q-12 0 -22 9q-9 9 -9 22v288h-250q-33 0 -33 31v197q0 31 33 31h250v278h-250q-33 0 -33 31v196q0 31 33 31h250v289q0 12 9 21t22 10h229q29 0 29 -31v-289h249q33 0 33 -31v-196
q0 -31 -33 -31z" />
    <glyph glyph-name="bullet" unicode="&#x2022;" horiz-adv-x="794" 
d="M396 383q-124 0 -210 86t-86 210t86 211t210 87t211 -87t87 -211t-87 -210t-211 -86z" />
    <glyph glyph-name="ellipsis" unicode="&#x2026;" horiz-adv-x="1763" 
d="M1325 0q-33 0 -33 31v288q0 29 33 29h285q33 0 32 -29v-288q0 -31 -32 -31h-285zM737 0q-33 0 -32 31v288q0 29 32 29h285q33 0 33 -29v-288q0 -31 -33 -31h-285zM150 0q-33 0 -33 31v288q0 29 33 29h284q33 0 33 -29v-288q0 -31 -33 -31h-284z" />
    <glyph glyph-name="perthousand" unicode="&#x2030;" horiz-adv-x="3000" 
d="M2552 258q59 0 80 48q20 48 20 144t-20 146q-20 49 -80 49t-81 -50q-22 -50 -22 -144q0 -93 22 -143t81 -50zM1722 258q59 0 80 48q20 48 20 144t-20 146q-20 49 -80 49t-81 -50t-21 -144t21 -144q22 -49 81 -49zM2552 -16q-188 0 -281 108q-92 109 -92 359q0 249 92 359
q93 110 281 110t279 -110t91 -360t-91 -358t-279 -108zM1722 -16q-188 0 -280 108t-92 359q0 249 92 359t280 110t280 -110t91 -360q0 -250 -91 -358q-92 -108 -280 -108zM453 791q59 0 79 48t21 144q-1 96 -21 145q-20 50 -79 50t-81 -50t-22 -145q0 -94 22 -143t81 -49z
M657 0q-20 0 -30 14t-2 31l680 1358q14 31 41 31h200q16 0 24 -10t-1 -27l-682 -1366q-14 -31 -43 -31h-187zM453 516q-188 0 -281 109q-92 109 -92 359t92 358q92 110 280 110t280 -110q91 -110 91 -360t-91 -358t-279 -108z" />
    <glyph glyph-name="guilsinglleft" unicode="&#x2039;" horiz-adv-x="768" 
d="M649 -16h-162q-33 0 -51 20l-313 371q-29 33 -29 51v14q0 18 29 52l313 370q18 20 51 21h162q17 -1 23 -15t-4 -30l-271 -404l271 -405q10 -17 5 -31t-24 -14z" />
    <glyph glyph-name="guilsinglright" unicode="&#x203a;" horiz-adv-x="768" 
d="M281 883q33 0 51 -21l313 -370q29 -33 29 -52v-14q0 -18 -29 -51l-313 -371q-18 -20 -51 -20h-162q-18 0 -24 14q-5 14 5 31l271 405l-271 404q-10 16 -5 30t24 15h162z" />
    <glyph glyph-name="fraction" unicode="&#x2044;" horiz-adv-x="460" 
d="M-209 0q-20 0 -31 14q-10 14 -2 31l680 1358q14 31 41 31h201q16 0 23 -10t-1 -27l-682 -1366q-16 -31 -43 -31h-186z" />
    <glyph glyph-name="uni2070" unicode="&#x2070;" horiz-adv-x="903" 
d="M453 944q59 0 79 48t20 144t-20 146q-20 49 -79 49t-81 -50t-22 -144q0 -93 22 -143t81 -50zM453 670q-188 0 -281 108q-92 109 -92 359q0 249 92 359t280 110t280 -110q91 -110 91 -360t-91 -358t-279 -108z" />
    <glyph glyph-name="uni2074" unicode="&#x2074;" horiz-adv-x="899" 
d="M465 1077v199l-123 -199h123zM801 1077q20 0 20 -18v-205q0 -14 -20 -14h-70v-146q0 -18 -18 -18h-230q-18 0 -18 18v146h-367q-18 0 -18 14v137q0 16 12 35l332 541q6 10 16 10h273q18 0 18 -18v-482h70z" />
    <glyph glyph-name="uni2075" unicode="&#x2075;" horiz-adv-x="862" 
d="M784 983q0 -131 -78 -222t-255 -91q-178 0 -263 89q-84 89 -84 191q0 27 19 27h219q16 0 16 -14q2 -51 81 -51t79 73q0 51 -35 69t-75 8q-40 -11 -54 -36q-6 -8 -24 -4l-217 47q-16 4 -15 18l78 482q4 18 21 18h501q20 0 21 -18v-205q0 -18 -21 -18h-317l-10 -64
q173 45 293 -39t120 -260z" />
    <glyph glyph-name="uni2076" unicode="&#x2076;" horiz-adv-x="843" 
d="M437 928q24 0 43 19t22 46q-2 29 -22 51t-45 21q-24 0 -42 -23q-18 -24 -18 -52t19 -45t43 -17zM471 1298q131 0 213 -90t82 -224t-100 -225t-240 -91q-172 0 -259 136t-87 330t100 331q100 136 275 137q137 0 207 -80t67 -168q0 -23 -14 -23h-203q-16 0 -24 24
q-8 23 -48 23t-50 -19q-11 -19 -15 -79q39 18 96 18z" />
    <glyph glyph-name="uni2077" unicode="&#x2077;" horiz-adv-x="856" 
d="M100 1339q-18 0 -18 17v203q0 20 18 20h656q12 0 16 -9t0 -20l-418 -854q-10 -18 -32 -18h-234q-10 0 -15 9t-1 18l311 634h-283z" />
    <glyph glyph-name="uni2078" unicode="&#x2078;" horiz-adv-x="843" 
d="M338 960q0 -48 83 -48t83 40q0 47 -78 86q-88 -30 -88 -78zM479 1316q0 46 -59 46t-60 -45q1 -45 60 -68q59 21 59 67zM764 934q0 -116 -88 -191q-88 -73 -254 -73t-254 74t-88 189q0 116 78 191q-56 84 -56 202t82 198t236 80t236 -80t81 -199q0 -119 -51 -199
q78 -76 78 -192z" />
    <glyph glyph-name="uni2079" unicode="&#x2079;" horiz-adv-x="843" 
d="M424 1219q22 -1 40 21q17 22 17 48t-17 48t-44 22q-28 0 -50 -18t-20 -53q2 -34 27 -51t47 -17zM80 1295q0 141 98 225t261 84t245 -128t82 -354q0 -228 -98 -340t-254 -112t-237 85t-81 171q0 23 15 22h190q10 0 23 -16q18 -14 80 -14t81 51q-20 4 -63 4q-160 0 -251 90
t-91 232z" />
    <glyph glyph-name="Euro" unicode="&#x20ac;" horiz-adv-x="1257" 
d="M765 1450q239 0 404 -111q9 -6 13 -19t-2 -24l-172 -249q-20 -25 -45 -11q-84 57 -195 58q-152 0 -201 -107h221q12 0 22 -9t9 -22v-145q0 -12 -9 -21t-22 -10h-245v-127h245q12 0 22 -9t9 -21v-146q0 -12 -9 -21t-22 -10h-223q37 -112 181 -110q68 0 138 26q68 26 96 50
t46 -2l170 -250q16 -25 -8 -43q-66 -57 -180 -95t-240 -38q-242 0 -392 118t-200 344h-70q-12 0 -21 10t-9 21v146q0 12 9 21t21 9h46v127h-46q-12 0 -21 10t-9 21v145q0 12 9 22t21 9h70q50 225 200 344t389 119z" />
    <glyph glyph-name="uni2117" unicode="&#x2117;" horiz-adv-x="1650" 
d="M922 756q28 0 28 34t-10 58t-25 24h-127v-116h134zM971 1069q97 -1 157 -77t60 -184t-71 -179q-71 -70 -167 -70h-162v-172q0 -18 -18 -18h-199q-23 0 -22 18v662q0 20 20 20h402zM826 188q224 0 364 152q139 152 139 376t-139 377q-140 153 -364 153t-362 -154
q-138 -152 -138 -377t138 -376t362 -151zM827 -16q-303 0 -518 214t-215 518t215 519t518 215t517 -215t215 -519q-1 -304 -215 -518t-517 -214z" />
    <glyph glyph-name="trademark" unicode="&#x2122;" horiz-adv-x="1361" 
d="M1247 1434q12 0 13 -13v-526q0 -12 -13 -12h-176q-14 0 -14 12v168l-99 -168q-8 -12 -18 -12h-16q-10 0 -17 12l-104 170v-170q0 -12 -15 -12h-174q-12 0 -12 12v526q0 12 10 13h189q12 0 18 -13l113 -219l108 219q6 12 19 13h188zM535 1434q10 0 10 -13v-143
q0 -12 -10 -12h-113v-371q0 -12 -12 -12h-177q-12 0 -12 12v371h-106q-12 0 -13 12v143q0 12 13 13h420z" />
    <glyph glyph-name="uni2153" unicode="&#x2153;" horiz-adv-x="2148" 
d="M1708 918q326 0 326 -277q0 -147 -107 -188q121 -49 121 -195q0 -115 -80 -195q-80 -79 -257 -79t-261 91t-84 195q0 23 16 23h222q18 0 18 -17q2 -51 84 -51t82 45q0 31 -20 43t-99 11h-24q-20 0 -21 18v207q0 18 21 18h24q53 -1 78 11t27 20t2 31t-20 35t-50 12
q-82 0 -84 -51q0 -16 -18 -17h-222q-16 0 -16 23q0 127 95 207t247 80zM639 0q-20 0 -31 14q-10 14 -2 31l680 1358q14 31 41 31h201q16 0 23 -10t-1 -27l-682 -1366q-16 -31 -43 -31h-186zM686 772q20 0 21 -18v-203q0 -18 -21 -19h-586q-18 0 -18 19v203q0 18 18 18h162
v391l-143 -18q-18 0 -19 20v176q0 8 21 19l147 65q16 8 31 9h209q18 0 18 -21v-641h160z" />
    <glyph glyph-name="uni2154" unicode="&#x2154;" horiz-adv-x="2226" 
d="M1853 629q1 47 -75 47t-78 -51q0 -16 -19 -17h-221q-16 0 -16 23q0 127 95 207t247 80q326 0 325 -277q0 -147 -106 -188q121 -49 121 -195q0 -115 -80 -195q-80 -79 -257 -79t-261 91t-84 195q0 23 16 23h221q18 0 19 -17q2 -51 84 -51t82 45q0 31 -20 43t-99 11h-25
q-20 0 -20 18v207q0 18 20 18h25q53 -1 78 11t27 20t1 31zM717 0q-20 0 -31 14q-10 14 -2 31l680 1358q14 31 41 31h201q16 0 23 -10t-1 -27l-682 -1366q-16 -31 -43 -31h-186zM442 1450q170 0 248 -81t78 -214t-102 -225l-160 -156h254q20 0 20 -18v-205q0 -18 -20 -19
h-621q-20 0 -20 19v166q-1 11 23 33t90 86t116 112q154 154 154 221q0 41 -64 41t-78 -30q-4 -10 -6 -29q0 -14 -18 -14h-213q-14 0 -19 5q-4 4 -4 36q0 80 66 169q34 47 106 75t170 28z" />
    <glyph glyph-name="oneeighth" unicode="&#x215b;" horiz-adv-x="2109" 
d="M1639 225q83 0 83 41q1 47 -77 86q-88 -29 -89 -78q0 -49 83 -49zM1638 676q-60 0 -59 -45q0 -45 59 -68q59 20 60 66q0 47 -60 47zM1298 247q0 116 78 191q-55 84 -55 202t82 198q81 80 235 80t236 -80t82 -199t-51 -199q77 -76 77 -192t-88 -191q-88 -73 -254 -73
t-254 74t-88 189zM614 0q-20 0 -30 14t-2 31l680 1358q14 31 41 31h200q15 0 23 -10t0 -27l-682 -1366q-16 -31 -43 -31h-187zM686 772q20 0 21 -18v-203q0 -18 -21 -19h-586q-18 0 -18 19v203q0 18 18 18h162v391l-143 -18q-18 0 -19 20v176q0 8 21 19l147 65q16 8 31 9
h209q18 0 18 -21v-641h160z" />
    <glyph glyph-name="threeeighths" unicode="&#x215c;" horiz-adv-x="2177" 
d="M1624 274q0 -49 83 -49t83 41q0 47 -78 86q-88 -29 -88 -78zM1765 630q0 46 -59 46t-59 -45t59 -68q59 21 59 67zM2050 248q0 -116 -88 -191q-88 -73 -254 -73t-254 74t-88 189q0 116 78 191q-55 84 -55 202t81 198q82 80 236 80t236 -80t82 -199t-52 -199
q78 -76 78 -192zM651 0q-20 0 -30 14t-3 31l680 1358q14 31 41 31h201q16 0 24 -10t-1 -27l-682 -1366q-16 -31 -43 -31h-187zM442 1450q326 0 326 -276q0 -147 -106 -189q121 -49 120 -194q0 -115 -80 -195t-257 -80t-261 91t-84 196q0 23 17 22h221q18 0 18 -16
q2 -51 84 -51t82 45q0 31 -20 43t-99 10h-24q-20 0 -21 18v207q0 18 21 19h24q53 0 78 11t27 19t2 31t-20 35t-50 12q-82 0 -84 -51q0 -16 -18 -16h-221q-16 0 -17 22q0 127 95 207t247 80z" />
    <glyph glyph-name="fiveeighths" unicode="&#x215d;" horiz-adv-x="2185" 
d="M1634 274q0 -49 83 -49t83 41q0 47 -78 86q-88 -29 -88 -78zM1716 676q-60 0 -59 -45q0 -45 59 -68q59 20 60 66q0 47 -60 47zM2060 248q0 -116 -88 -191q-88 -73 -254 -73t-254 74t-88 189q0 116 78 191q-55 84 -55 202t82 198q81 80 235 80t236 -80t82 -199t-52 -199
q78 -76 78 -192zM633 0q-20 0 -31 14q-10 14 -2 31l680 1358q14 31 41 31h201q16 0 23 -10t-1 -27l-682 -1366q-14 -31 -43 -31h-186zM784 829q0 -131 -78 -222t-255 -91q-178 0 -263 89q-84 89 -84 192q0 27 19 26h219q16 0 16 -14q2 -51 81 -51t79 73q0 51 -35 69t-75 8
q-40 -11 -54 -36q-6 -8 -24 -4l-217 47q-16 4 -15 19l78 481q4 18 21 19h501q20 0 21 -19v-205q0 -18 -21 -18h-317l-10 -64q172 45 293 -38q120 -85 120 -261z" />
    <glyph glyph-name="seveneighths" unicode="&#x215e;" horiz-adv-x="1978" 
d="M1425 274q0 -49 83 -49t83 41q0 47 -78 86q-88 -29 -88 -78zM1508 676q-60 0 -60 -45t59 -68q59 20 60 66q1 47 -59 47zM1167 247q0 116 78 191q-55 84 -55 202t82 198t236 80t235 -80q82 -80 82 -199t-51 -199q78 -76 78 -192t-89 -191q-88 -73 -254 -73t-254 74
t-88 189zM414 0q-20 0 -31 14q-10 14 -2 31l680 1358q14 31 41 31h201q16 0 23 -10t-1 -27l-682 -1366q-16 -31 -43 -31h-186zM100 1194q-18 0 -18 16v203q0 20 18 21h656q12 0 16 -10t0 -19l-418 -854q-10 -18 -32 -19h-234q-10 0 -15 10t-1 17l311 635h-283z" />
    <glyph glyph-name="arrowleft" unicode="&#x2190;" horiz-adv-x="1667" 
d="M117 640q0 16 8 24l618 575q23 23 45 2l142 -143q20 -20 -2 -45l-211 -224h805q29 0 28 -30v-316q0 -31 -28 -30h-803l209 -224q23 -25 2 -45l-142 -141q-22 -23 -45 2l-618 571q-8 8 -8 24z" />
    <glyph glyph-name="arrowup" unicode="&#x2191;" horiz-adv-x="1454" 
d="M915 29q0 -29 -30 -29h-316q-31 0 -30 29v805l-224 -211q-25 -25 -45 -2l-143 141q-20 20 2 45l576 618q8 9 23 9t24 -9l571 -618q25 -25 2 -45l-141 -141q-20 -23 -45 2l-224 208v-802z" />
    <glyph glyph-name="arrowright" unicode="&#x2192;" horiz-adv-x="1667" 
d="M145 453q-29 0 -28 30v316q0 31 28 30h805l-211 224q-23 25 -2 45l142 143q23 20 45 -2l618 -575q8 -8 8 -24t-8 -24l-618 -571q-23 -25 -45 -2l-142 141q-20 20 2 45l209 224h-803z" />
    <glyph glyph-name="arrowdown" unicode="&#x2193;" horiz-adv-x="1454" 
d="M539 1405q0 29 30 29h316q31 0 30 -29v-805l224 211q25 25 45 2l143 -141q20 -20 -2 -45l-575 -619q-8 -8 -24 -8t-24 8l-571 619q-25 25 -2 45l141 141q20 23 45 -2l224 -209v803z" />
    <glyph glyph-name="arrowboth" unicode="&#x2194;" horiz-adv-x="2142" 
d="M2025 646q0 -16 -8 -23l-618 -572q-23 -23 -45 -2l-142 141q-20 23 2 46l209 223h-704l209 -223q23 -23 2 -46l-142 -141q-23 -20 -45 2l-618 572q-8 8 -8 23t8 24l618 575q23 25 45 2l142 -143q20 -23 -2 -45l-211 -223h708l-211 223q-23 23 -2 45l142 143q23 23 45 -2
l618 -575q8 -8 8 -24z" />
    <glyph glyph-name="arrowupdn" unicode="&#x2195;" horiz-adv-x="1454" 
d="M728 1671q15 0 24 -8l571 -619q25 -25 2 -45l-141 -141q-20 -23 -45 2l-224 209v-704l224 208q25 25 45 2l141 -141q23 -20 -2 -45l-571 -618q-8 -9 -24 -9t-23 9l-576 618q-23 25 -2 45l143 141q20 23 45 -2l224 -211v709l-224 -211q-25 -25 -45 -2l-143 141
q-20 20 2 45l576 619q8 8 23 8z" />
    <glyph glyph-name="uni2196" unicode="&#x2196;" horiz-adv-x="1380" 
d="M381 211h-199q-30 0 -30 33l-35 841q0 10 10 21q16 12 25 12l843 -31q33 0 33 -30l-2 -201q0 -31 -33 -31l-307 -8l569 -569q20 -20 -2 -43l-221 -221q-23 -23 -43 -2l-567 567l-10 -305q0 -33 -31 -33z" />
    <glyph glyph-name="uni2197" unicode="&#x2197;" horiz-adv-x="1380" 
d="M1198 211h-199q-31 0 -30 33l-11 305l-567 -567q-20 -20 -43 2l-221 221q-23 23 -2 43l569 569l-307 8q-33 0 -33 31l-2 201q0 31 33 30l844 31q8 0 24 -12q10 -10 11 -21l-35 -841q0 -33 -31 -33z" />
    <glyph glyph-name="uni2198" unicode="&#x2198;" horiz-adv-x="1380" 
d="M356 145v199q0 31 33 31l305 10l-567 567q-20 20 2 43l221 222q23 23 43 2l570 -570l8 307q0 33 30 33l201 2q31 0 31 -33l31 -843q0 -8 -13 -25q-10 -10 -20 -10l-842 35q-33 0 -33 30z" />
    <glyph glyph-name="uni2199" unicode="&#x2199;" horiz-adv-x="1380" 
d="M1024 344v-199q0 -30 -33 -30l-841 -35q-10 0 -21 10q-12 16 -12 25l30 843q0 33 31 33l201 -2q31 0 31 -33l8 -307l569 570q20 20 43 -2l221 -222q23 -23 2 -43l-567 -567l305 -10q33 0 33 -31z" />
    <glyph glyph-name="partialdiff" unicode="&#x2202;" horiz-adv-x="1110" 
d="M555 262q49 0 84 39t35 129t-35 129t-84 39t-85 -39t-36 -129t36 -129t85 -39zM573 -16q-215 0 -354 130t-139 316t140 319.5t335 133.5q4 0 35 20q-35 74 -115 153t-192 132q-31 14 -17 39l101 203q16 35 55 10q610 -301 614 -881q0 -279 -124 -427t-339 -148z" />
    <glyph glyph-name="emptyset" unicode="&#x2205;" horiz-adv-x="1650" 
d="M829 342q143 0 238.5 106.5t95.5 266.5q0 63 -14 112l-457 -456q63 -29 137 -29zM492 715q0 -45 10 -101l450 451q-55 25 -123 25q-145 0 -241 -107.5t-96 -267.5zM1565 715q0 -301 -217.5 -516t-520.5 -215q-221 0 -403 118l-94 -94q-23 -20 -43 0l-176 176q-20 20 2 41
l94 94q-117 182 -117 396q0 303 216 519t521 216q211 0 396 -115l94 95q23 25 43 4l176 -177q20 -20 -2 -45l-92 -92q123 -184 123 -405z" />
    <glyph glyph-name="product" unicode="&#x220f;" horiz-adv-x="1517" 
d="M1391 1434q33 0 32 -31v-270q0 -31 -32 -31h-70v-1069q0 -33 -31 -33h-315q-31 0 -31 33v1069h-371v-1069q0 -33 -30 -33h-316q-31 0 -30 33v1069h-70q-33 0 -33 31v270q0 31 33 31h1264z" />
    <glyph glyph-name="summation" unicode="&#x2211;" horiz-adv-x="1230" 
d="M1137 1204q0 -31 -33 -30h-561l372 -369q10 -14 11 -23v-131q0 -8 -11 -22l-370 -369h559q33 0 33 -31v-198q0 -31 -33 -31h-977q-33 0 -33 31v198q0 14 15 29l452 459l-452 457q-14 14 -15 30v199q0 31 33 31h977q33 0 33 -31v-199z" />
    <glyph glyph-name="minus" unicode="&#x2212;" horiz-adv-x="1179" 
d="M127 569q-33 0 -33 31v197q0 31 33 30h926q33 0 32 -30v-197q0 -31 -32 -31h-926z" />
    <glyph glyph-name="radical" unicode="&#x221a;" horiz-adv-x="1409" 
d="M1077 1434h254q15 0 25 -14t2 -31l-590 -1360q-12 -29 -33 -29h-88q-18 0 -35 29l-307 602l-119 -64q-31 -16 -43 11l-92 174q-14 27 15 43q56 33 166 89t167 89q33 18 54 -15l211 -395l368 840q12 31 45 31z" />
    <glyph glyph-name="infinity" unicode="&#x221e;" horiz-adv-x="1742" 
d="M1223 541q115 0 114 112q0 43 -20 67q-21 24 -41 28t-51 4t-91 -27t-100 -80q40 -53 100 -79t89 -25zM522 541q29 -1 88 25t99 79q-39 53 -99 80t-92 27q-31 0 -51 -4q-21 -4 -41 -28t-20 -67q-1 -112 116 -112zM1247 1036q162 0 283 -108t121 -273t-123 -283t-279 -118
q-109 0 -211 58t-166 143q-63 -85 -166 -143t-212 -58q-156 0 -278 118t-122 284t120 273q120 108 282 107q109 0 212 -51t164 -129q61 78 165 129t210 51z" />
    <glyph glyph-name="integral" unicode="&#x222b;" horiz-adv-x="1261" 
d="M834 1669q158 0 246 -70t87 -202v-86q0 -33 -30 -33h-228q-31 0 -30 33v39q0 59 -43 59h-17q-16 0 -31 -16q-14 -16 -14 -41v-1454q0 -250 -332 -250h-14q-158 0 -246 68t-88 202v86q0 33 31 33h227q31 0 31 -33v-37q0 -61 43 -61h14q18 0 31 16q14 16 14 41v1454
q0 252 332 252h17z" />
    <glyph glyph-name="approxequal" unicode="&#x2248;" horiz-adv-x="1118" 
d="M735 342q-96 0 -189 34t-153 34t-122 -20q-63 -20 -85 -38t-32 -2l-52 84q-12 14 -8 25q6 45 100 124t205 81h2q93 0 185 -34t149 -34q141 0 199 59q18 18 29 4l55 -88q23 -45 -94 -156q-76 -71 -187 -73h-2zM735 772q-96 0 -189 34t-153 34t-122 -20q-63 -20 -85 -38
t-32 -2l-52 84q-12 14 -8 25q6 45 100 124t205 81h2q93 0 185 -34t149 -34q141 0 199 59q18 18 29 5l55 -89q23 -45 -94 -156q-76 -71 -187 -73h-2z" />
    <glyph glyph-name="notequal" unicode="&#x2260;" horiz-adv-x="1179" 
d="M1053 778h-283l-65 -116h348q33 0 32 -31v-197q0 -31 -32 -31h-492l-121 -217q-12 -33 -41 -14l-170 96q-27 14 -12 45l51 90h-141q-33 0 -33 31v197q0 31 33 31h285l65 116h-350q-33 0 -33 31v197q0 31 33 30h494l118 211q18 29 41 15l170 -95q29 -16 13 -45l-48 -86
h138q33 0 32 -30v-197q1 -31 -32 -31z" />
    <glyph glyph-name="lessequal" unicode="&#x2264;" horiz-adv-x="1165" 
d="M1038 -18h-913q-33 0 -33 30v197q0 31 33 31h913q33 0 33 -31v-197q0 -30 -33 -30zM94 774q0 29 21 37l835 344q31 12 43 -16l74 -183q8 -29 -18 -41l-508 -213l512 -204q27 -12 18 -41l-76 -183q-12 -29 -43 -16l-837 340q-20 8 -21 35v141z" />
    <glyph glyph-name="greaterequal" unicode="&#x2265;" horiz-adv-x="1165" 
d="M127 -18q-33 0 -33 30v197q0 31 33 31h913q33 0 33 -31v-197q0 -31 -33 -30h-913zM1071 774v-141q0 -27 -20 -35l-838 -340q-31 -12 -43 16l-76 183q-8 29 19 41l512 204l-508 213q-27 12 -19 41l74 183q12 29 43 16l836 -344q20 -8 20 -37z" />
    <glyph glyph-name="lozenge" unicode="&#x25ca;" horiz-adv-x="1214" 
d="M608 1036q-2 0 -2 -4l-155 -315l155 -316q0 -4 2 -2v2l158 316l-158 315v4zM1122 723v-14q0 -16 -18 -52l-354 -626q-18 -31 -58 -31h-168q-39 0 -57 31l-354 626q-18 35 -19 52v14q0 20 19 51l354 627q18 33 57 33h168q39 0 58 -33l354 -627q18 -31 18 -51z" />
    <glyph glyph-name="heart" unicode="&#x2665;" horiz-adv-x="1925" 
d="M1309 1155q-221 0 -334 -264q-4 -6 -12 -6t-9 6l-8 20l-16 32q-34 62 -47 77q-14 16 -36 43t-83 59q-61 33 -139 33q-79 0 -125 -37t-58 -84q-20 -59 6 -141t88 -167q64 -85 196 -207t233 -177q94 51 229 177t205 216q119 154 82 299q-29 121 -172 121zM580 1450
q279 0 385 -209q111 209 385 209q327 0 431 -287q31 -81 23 -201t-74 -268t-234 -314q-167 -165 -499 -386q-16 -10 -33 -10t-32 10q-342 227 -507 393q-284 286 -301 574q-12 209 110 349t346 140z" />
    <glyph glyph-name="AE.ss01" horiz-adv-x="2271" 
d="M977 473v404l-244 -404h244zM2140 1075h-762v-180h357q12 0 21 -9t9 -22v-297q0 -10 -9 -19t-21 -9h-357v-181h760q33 0 33 -32v-295q0 -12 -9.5 -21.5t-23.5 -9.5h-1130q-12 0 -21.5 9t-9.5 22v86h-463l-49 -86q-20 -31 -37 -31h-346q-12 0 -20.5 9t-0.5 22l785 1370
q25 33 37 33h1257q31 0 31 -31v-295q0 -33 -31 -33z" />
    <glyph glyph-name="B.ss01" horiz-adv-x="1437" 
d="M543 356h329q39 0 64 27t25 70t-26 70.5t-71 27.5h-321v-195zM836 1077h-293v-194h278q45 0 75 28.5t30 67.5t-25.5 68.5t-64.5 29.5zM1360 421q0 -177 -110.5 -298t-264.5 -123h-813q-12 0 -21.5 9t-9.5 22v1372q0 12 9.5 21.5t21.5 9.5h774q156 -2 266.5 -125
t110.5 -289t-129 -291q166 -131 166 -308z" />
    <glyph glyph-name="C.ss01" horiz-adv-x="1361" 
d="M702 -16q-264 0 -439 193.5t-175 539.5t175 539.5t439 193.5q207 0 357.5 -120t214.5 -349q4 -12 -3 -23.5t-22 -13.5l-313 -55q-27 0 -35 22q-16 80 -71.5 131.5t-127.5 51.5q-100 0 -156.5 -99.5t-56.5 -282.5t55.5 -279.5t157.5 -96.5q76 0 128.5 53t68.5 131
q8 29 35 25l313 -56q14 -2 22.5 -13t4.5 -23q-63 -229 -214 -349t-358 -120z" />
    <glyph glyph-name="Cacute.ss01" horiz-adv-x="1361" 
d="M702 -16q-264 0 -439 193.5t-175 539.5t175 539.5t439 193.5q207 0 357.5 -120t214.5 -349q4 -12 -3 -23.5t-22 -13.5l-313 -55q-27 0 -35 22q-16 80 -71.5 131.5t-127.5 51.5q-100 0 -156.5 -99.5t-56.5 -282.5t55.5 -279.5t157.5 -96.5q76 0 128.5 53t68.5 131
q8 29 35 25l313 -56q14 -2 22.5 -13t4.5 -23q-63 -229 -214 -349t-358 -120zM528 1565q-35 -10 -45 14l-22 59q-10 27 14 43l361 197q31 20 43 -14l61 -144q12 -31 -12 -43z" />
    <glyph glyph-name="Ccaron.ss01" horiz-adv-x="1361" 
d="M702 -16q-264 0 -439 193.5t-175 539.5t175 539.5t439 193.5q207 0 357.5 -120t214.5 -349q4 -12 -3 -23.5t-22 -13.5l-313 -55q-27 0 -35 22q-16 80 -71.5 131.5t-127.5 51.5q-100 0 -156.5 -99.5t-56.5 -282.5t55.5 -279.5t157.5 -96.5q76 0 128.5 53t68.5 131
q8 29 35 25l313 -56q14 -2 22.5 -13t4.5 -23q-63 -229 -214 -349t-358 -120zM967 1874v-80q0 -20 -21 -41l-188 -170q-27 -25 -53 -24h-9q-27 0 -51 24l-186 170q-20 20 -21 41v80q0 35 39 14l223 -131l228 131q39 20 39 -14z" />
    <glyph glyph-name="Ccedilla.ss01" horiz-adv-x="1361" 
d="M909 -231q0 -186 -233 -187q-50 0 -102 26q-77 39 -62 70l66 70q10 10 26 -2q27 -27 70 -27q59 0 59 54q0 29 -17.5 43t-39.5 -7t-47 -12l-90 27q-14 4 -11 20l64 150q-223 39 -363.5 227.5t-140.5 515t175 520t439 193.5q207 0 357.5 -120t214.5 -349q4 -12 -3 -23.5
t-22 -13.5l-313 -55q-27 0 -35 22q-16 80 -71.5 131.5t-127.5 51.5q-100 0 -156.5 -99.5t-56.5 -282.5t55.5 -279.5t157.5 -96.5q76 0 128.5 53t68.5 131q8 29 35 25l313 -56q14 -2 22.5 -13t4.5 -23q-59 -213 -192.5 -332t-319.5 -135l-23 -54q72 2 121 -40t49 -123z" />
    <glyph glyph-name="Cdotaccent.ss01" horiz-adv-x="1361" 
d="M702 -16q-264 0 -439 193.5t-175 539.5t175 539.5t439 193.5q207 0 357.5 -120t214.5 -349q4 -12 -3 -23.5t-22 -13.5l-313 -55q-27 0 -35 22q-16 80 -71.5 131.5t-127.5 51.5q-100 0 -156.5 -99.5t-56.5 -282.5t55.5 -279.5t157.5 -96.5q76 0 128.5 53t68.5 131
q8 29 35 25l313 -56q14 -2 22.5 -13t4.5 -23q-63 -229 -214 -349t-358 -120zM702.5 1567q-57.5 0 -97.5 39t-40 96t40 97t97.5 40t97.5 -40t40 -97t-40 -96t-97.5 -39z" />
    <glyph glyph-name="D.ss01" horiz-adv-x="1511" 
d="M991 907q0 168 -168 168h-280v-717h280q168 0 168 166v383zM883 1434q227 0 368.5 -124t141.5 -358v-473q0 -231 -141.5 -355t-368.5 -124h-711q-12 0 -21.5 9t-9.5 22v1372q0 12 9.5 21.5t21.5 9.5h711z" />
    <glyph glyph-name="Eth.ss01" horiz-adv-x="1511" 
d="M991 524v383q0 168 -168 168h-280v-213h135q33 0 33 -31v-233q0 -31 -33 -31h-135v-209h280q168 0 168 166zM883 1434q227 0 368.5 -124t141.5 -358v-473q0 -231 -141.5 -355t-368.5 -124h-711q-12 0 -21.5 9t-9.5 22v536h-32q-33 0 -33 31v233q0 31 33 31h32v541
q0 12 9.5 21.5t21.5 9.5h711z" />
    <glyph glyph-name="Dcaron.ss01" horiz-adv-x="1511" 
d="M991 907q0 168 -168 168h-280v-717h280q168 0 168 166v383zM883 1434q227 0 368.5 -124t141.5 -358v-473q0 -231 -141.5 -355t-368.5 -124h-711q-12 0 -21.5 9t-9.5 22v1372q0 12 9.5 21.5t21.5 9.5h711zM1030 1874v-80q0 -20 -20 -41l-189 -170q-27 -25 -53 -24h-8
q-27 0 -51 24l-187 170q-20 20 -20 41v80q0 35 39 14l223 -131l227 131q39 20 39 -14z" />
    <glyph glyph-name="Dcroat.ss01" horiz-adv-x="1511" 
d="M991 524v383q0 168 -168 168h-280v-213h135q33 0 33 -31v-233q0 -31 -33 -31h-135v-209h280q168 0 168 166zM883 1434q227 0 368.5 -124t141.5 -358v-473q0 -231 -141.5 -355t-368.5 -124h-711q-12 0 -21.5 9t-9.5 22v536h-32q-33 0 -33 31v233q0 31 33 31h32v541
q0 12 9.5 21.5t21.5 9.5h711z" />
    <glyph glyph-name="E.ss01" horiz-adv-x="1437" 
d="M1303 358q33 0 32 -32v-295q0 -12 -9 -21.5t-23 -9.5h-1131q-12 0 -21.5 9t-9.5 22v1372q0 12 9.5 21.5t21.5 9.5h1133q31 0 30 -31v-295q0 -33 -30 -33h-762v-180h356q12 0 21.5 -9t9.5 -22v-297q0 -10 -9.5 -19t-21.5 -9h-356v-181h760z" />
    <glyph glyph-name="Eacute.ss01" horiz-adv-x="1437" 
d="M1303 358q33 0 32 -32v-295q0 -12 -9 -21.5t-23 -9.5h-1131q-12 0 -21.5 9t-9.5 22v1372q0 12 9.5 21.5t21.5 9.5h1133q31 0 30 -31v-295q0 -33 -30 -33h-762v-180h356q12 0 21.5 -9t9.5 -22v-297q0 -10 -9.5 -19t-21.5 -9h-356v-181h760zM545 1565q-35 -10 -45 14
l-23 59q-10 27 15 43l360 197q31 20 43 -14l61 -144q12 -31 -12 -43z" />
    <glyph glyph-name="Ecaron.ss01" horiz-adv-x="1437" 
d="M1303 358q33 0 32 -32v-295q0 -12 -9 -21.5t-23 -9.5h-1131q-12 0 -21.5 9t-9.5 22v1372q0 12 9.5 21.5t21.5 9.5h1133q31 0 30 -31v-295q0 -33 -30 -33h-762v-180h356q12 0 21.5 -9t9.5 -22v-297q0 -10 -9.5 -19t-21.5 -9h-356v-181h760zM983 1874v-80q0 -20 -20 -41
l-189 -170q-27 -25 -53 -24h-8q-27 0 -51 24l-187 170q-20 20 -20 41v80q0 35 39 14l223 -131l227 131q39 20 39 -14z" />
    <glyph glyph-name="Ecircumflex.ss01" horiz-adv-x="1437" 
d="M1303 358q33 0 32 -32v-295q0 -12 -9 -21.5t-23 -9.5h-1131q-12 0 -21.5 9t-9.5 22v1372q0 12 9.5 21.5t21.5 9.5h1133q31 0 30 -31v-295q0 -33 -30 -33h-762v-180h356q12 0 21.5 -9t9.5 -22v-297q0 -10 -9.5 -19t-21.5 -9h-356v-181h760zM453 1579v80q0 20 20 41
l186 170q25 25 52 24h8q27 0 53 -24l189 -170q20 -20 20 -41v-80q0 -34 -39 -14l-227 131l-223 -131q-39 -20 -39 14z" />
    <glyph glyph-name="Edieresis.ss01" horiz-adv-x="1437" 
d="M1303 358q33 0 32 -32v-295q0 -12 -9 -21.5t-23 -9.5h-1131q-12 0 -21.5 9t-9.5 22v1372q0 12 9.5 21.5t21.5 9.5h1133q31 0 30 -31v-295q0 -33 -30 -33h-762v-180h356q12 0 21.5 -9t9.5 -22v-297q0 -10 -9.5 -19t-21.5 -9h-356v-181h760zM876.5 1595q-47.5 0 -80 32
t-32.5 78t32.5 78t80 32t79 -32t31.5 -78t-31.5 -78t-79 -32zM565 1595q-47 0 -78.5 31t-31.5 78t31.5 79t78.5 32t79 -32t32 -78t-32 -78t-79 -32z" />
    <glyph glyph-name="Edotaccent.ss01" horiz-adv-x="1437" 
d="M1303 358q33 0 32 -32v-295q0 -12 -9 -21.5t-23 -9.5h-1131q-12 0 -21.5 9t-9.5 22v1372q0 12 9.5 21.5t21.5 9.5h1133q31 0 30 -31v-295q0 -33 -30 -33h-762v-180h356q12 0 21.5 -9t9.5 -22v-297q0 -10 -9.5 -19t-21.5 -9h-356v-181h760zM719 1567q-57 0 -97 39t-40 96
t40 97t97 40t97 -40t40 -97t-40 -96t-97 -39z" />
    <glyph glyph-name="Egrave.ss01" horiz-adv-x="1437" 
d="M1303 358q33 0 32 -32v-295q0 -12 -9 -21.5t-23 -9.5h-1131q-12 0 -21.5 9t-9.5 22v1372q0 12 9.5 21.5t21.5 9.5h1133q31 0 30 -31v-295q0 -33 -30 -33h-762v-180h356q12 0 21.5 -9t9.5 -22v-297q0 -10 -9.5 -19t-21.5 -9h-356v-181h760zM889 1567l-400 112
q-25 12 -12 43l62 144q12 35 43 14l360 -197q25 -16 14 -43l-22 -59q-10 -24 -45 -14z" />
    <glyph glyph-name="Emacron.ss01" horiz-adv-x="1437" 
d="M1303 358q33 0 32 -32v-295q0 -12 -9 -21.5t-23 -9.5h-1131q-12 0 -21.5 9t-9.5 22v1372q0 12 9.5 21.5t21.5 9.5h1133q31 0 30 -31v-295q0 -33 -30 -33h-762v-180h356q12 0 21.5 -9t9.5 -22v-297q0 -10 -9.5 -19t-21.5 -9h-356v-181h760zM516 1599q-33 0 -33 31v133
q0 31 33 31h406q33 0 32 -31v-133q0 -31 -32 -31h-406z" />
    <glyph glyph-name="Eogonek.ss01" horiz-adv-x="1437" 
d="M1124 -430q-82 0 -140 45t-58 135q0 133 125 250h-879q-12 0 -21.5 9t-9.5 22v1372q0 12 9.5 21.5t21.5 9.5h1133q31 0 30 -31v-295q0 -33 -30 -33h-762v-180h356q12 0 21.5 -9t9.5 -22v-297q0 -10 -9.5 -19t-21.5 -9h-356v-181h760q33 0 32 -32v-295q0 -12 -9 -21.5
t-23 -9.5h-93q-94 -111 -94 -211q0 -57 29 -67q10 -4 37.5 -3.5t91.5 39.5q18 14 31 0l24 -26q10 -14 4 -23q-59 -139 -209 -139z" />
    <glyph glyph-name="F.ss01" horiz-adv-x="1415" 
d="M1305 1434q12 0 21 -9.5t9 -21.5v-295q0 -14 -9 -23.5t-21 -9.5h-762v-223h381q31 0 30 -29v-297q0 -29 -30 -28h-381v-467q0 -12 -9.5 -21.5t-21.5 -9.5h-340q-12 0 -21.5 9t-9.5 22v1372q0 12 9.5 21.5t21.5 9.5h1133z" />
    <glyph glyph-name="G.ss01" horiz-adv-x="1361" 
d="M1214 764q29 0 29 -29v-706q0 -29 -31 -29h-170q-27 0 -30 29l-25 90q-102 -135 -301 -135q-252 0 -425 195.5t-173 540.5t175 537.5t452 192.5q215 0 361.5 -140.5t168.5 -314.5q4 -33 -26 -39l-310 -55q-35 -6 -39 27q-8 61 -51 113.5t-104 52.5q-225 0 -225 -379
t227 -379q129 0 182 86h-111q-31 0 -30 29v284q0 29 30 29h426z" />
    <glyph glyph-name="Gbreve.ss01" horiz-adv-x="1361" 
d="M1214 764q29 0 29 -29v-706q0 -29 -31 -29h-170q-27 0 -30 29l-25 90q-102 -135 -301 -135q-252 0 -425 195.5t-173 540.5t175 537.5t452 192.5q215 0 361.5 -140.5t168.5 -314.5q4 -33 -26 -39l-310 -55q-35 -6 -39 27q-8 61 -51 113.5t-104 52.5q-225 0 -225.5 -379
t227.5 -379q129 0 182 86h-111q-31 0 -30 29v284q0 29 30 29h426zM718 1567q-228 0 -315 217q-6 14 11 20l143 62q16 6 23 -8q33 -51 61.5 -73t77.5 -22t75.5 21.5t59.5 73.5q8 14 23 8l145 -62q16 -6 10 -20q-86 -217 -314 -217z" />
    <glyph glyph-name="Gcommaaccent.ss01" horiz-adv-x="1361" 
d="M795 -86v-184q0 -72 -62.5 -123t-128.5 -70q-27 -5 -31 17t21 30q53 16 88 53t35 84l-113 37q-33 10 -33 35v121q0 31 33 31h158q33 0 33 -31zM1214 764q29 0 29 -29v-706q0 -29 -31 -29h-170q-27 0 -30 29l-25 90q-102 -135 -301 -135q-252 0 -425 195.5t-173 540.5
t175 537.5t452 192.5q215 0 361.5 -140.5t168.5 -314.5q4 -33 -26 -39l-310 -55q-35 -6 -39 27q-8 61 -51 113.5t-104 52.5q-225 0 -225 -379t227 -379q129 0 182 86h-111q-31 0 -30 29v284q0 29 30 29h426z" />
    <glyph glyph-name="Gdotaccent.ss01" horiz-adv-x="1361" 
d="M1214 764q29 0 29 -29v-706q0 -29 -31 -29h-170q-27 0 -30 29l-25 90q-102 -135 -301 -135q-252 0 -425 195.5t-173 540.5t175 537.5t452 192.5q215 0 361.5 -140.5t168.5 -314.5q4 -33 -26 -39l-310 -55q-35 -6 -39 27q-8 61 -51 113.5t-104 52.5q-225 0 -225 -379
t227 -379q129 0 182 86h-111q-31 0 -30 29v284q0 29 30 29h426zM719 1567q-57 0 -97 39t-40 96t40 97t97 40t97 -40t40 -97t-40 -96t-97 -39z" />
    <glyph glyph-name="I.ss01" horiz-adv-x="892" 
d="M762 1075h-115v-717h115q35 0 35 -32v-295q0 -31 -35 -31h-631q-35 0 -35 31v295q0 33 35 32h115v717h-115q-35 0 -35 33v295q0 31 35 31h631q35 0 35 -31v-295q0 -33 -35 -33z" />
    <glyph glyph-name="Iacute.ss01" horiz-adv-x="892" 
d="M762 1075h-115v-717h115q35 0 35 -32v-295q0 -31 -35 -31h-631q-35 0 -35 31v295q0 33 35 32h115v717h-115q-35 0 -35 33v295q0 31 35 31h631q35 0 35 -31v-295q0 -33 -35 -33zM272 1565q-35 -10 -45 14l-22 59q-10 27 14 43l361 197q31 20 43 -14l61 -144
q12 -31 -12 -43z" />
    <glyph glyph-name="Icircumflex.ss01" horiz-adv-x="892" 
d="M762 1075h-115v-717h115q35 0 35 -32v-295q0 -31 -35 -31h-631q-35 0 -35 31v295q0 33 35 32h115v717h-115q-35 0 -35 33v295q0 31 35 31h631q35 0 35 -31v-295q0 -33 -35 -33zM180 1579v80q0 20 21 41l186 170q25 25 51 24h8q27 0 54 -24l188 -170q20 -20 21 -41v-80
q0 -34 -39 -14l-228 131l-223 -131q-39 -20 -39 14z" />
    <glyph glyph-name="Idieresis.ss01" horiz-adv-x="892" 
d="M762 1075h-115v-717h115q35 0 35 -32v-295q0 -31 -35 -31h-631q-35 0 -35 31v295q0 33 35 32h115v717h-115q-35 0 -35 33v295q0 31 35 31h631q35 0 35 -31v-295q0 -33 -35 -33zM604 1595q-47 0 -79.5 32t-32.5 78t32.5 78t79.5 32t79 -32t32 -78t-32 -78t-79 -32z
M293 1595q-47 0 -79 31t-32 78t32 79t79 32t78.5 -32t31.5 -78t-31.5 -78t-78.5 -32z" />
    <glyph glyph-name="Idotaccent.ss01" horiz-adv-x="892" 
d="M762 1075h-115v-717h115q35 0 35 -32v-295q0 -31 -35 -31h-631q-35 0 -35 31v295q0 33 35 32h115v717h-115q-35 0 -35 33v295q0 31 35 31h631q35 0 35 -31v-295q0 -33 -35 -33zM446.5 1567q-57.5 0 -97.5 39t-40 96t40 97t97.5 40t97.5 -40t40 -97t-40 -96t-97.5 -39z
" />
    <glyph glyph-name="Igrave.ss01" horiz-adv-x="892" 
d="M762 1075h-115v-717h115q35 0 35 -32v-295q0 -31 -35 -31h-631q-35 0 -35 31v295q0 33 35 32h115v717h-115q-35 0 -35 33v295q0 31 35 31h631q35 0 35 -31v-295q0 -33 -35 -33zM616 1567l-399 112q-25 12 -12 43l61 144q12 35 43 14l361 -197q25 -16 14 -43l-22 -59
q-11 -24 -46 -14z" />
    <glyph glyph-name="Imacron.ss01" horiz-adv-x="892" 
d="M762 1075h-115v-717h115q35 0 35 -32v-295q0 -31 -35 -31h-631q-35 0 -35 31v295q0 33 35 32h115v717h-115q-35 0 -35 33v295q0 31 35 31h631q35 0 35 -31v-295q0 -33 -35 -33zM244 1599q-33 0 -33 31v133q0 31 33 31h405q33 0 33 -31v-133q0 -31 -33 -31h-405z" />
    <glyph glyph-name="Iogonek.ss01" horiz-adv-x="892" 
d="M586 -430q-82 0 -140.5 45t-58.5 135q0 133 125 250h-381q-35 0 -35 31v295q0 33 35 32h115v717h-115q-35 0 -35 33v295q0 31 35 31h631q35 0 35 -31v-295q0 -33 -35 -33h-115v-717h115q35 0 35 -32v-295q0 -31 -35 -31h-90q-94 -111 -94 -211q0 -57 28 -67
q10 -4 38 -3.5t91 39.5q18 14 31 0l25 -26q10 -14 4 -23q-59 -139 -209 -139z" />
    <glyph glyph-name="M.ss01" horiz-adv-x="1755" 
d="M1253 1434h332q29 0 29 -31v-1374q0 -29 -29 -29h-340q-12 0 -22.5 8t-10.5 21v721l-262 -437q-20 -31 -51 -30h-41q-31 0 -51 30l-264 441v-725q0 -12 -10.5 -20.5t-22.5 -8.5h-340q-29 0 -29 29v1374q0 31 29 31h332q29 0 47 -31l330 -500l327 500q18 31 47 31z" />
    <glyph glyph-name="N.ss01" horiz-adv-x="1529" 
d="M1358 1434q12 0 21.5 -9.5t9.5 -21.5v-1374q0 -29 -31 -29h-287q-31 0 -55 29l-473 696v-696q0 -29 -31 -29h-340q-31 0 -31 29v1374q0 12 9.5 21.5t21.5 9.5h307q33 0 51 -31l457 -668v668q0 12 9.5 21.5t21.5 9.5h340z" />
    <glyph glyph-name="Nacute.ss01" horiz-adv-x="1529" 
d="M1358 1434q12 0 21.5 -9.5t9.5 -21.5v-1374q0 -29 -31 -29h-287q-31 0 -55 29l-473 696v-696q0 -29 -31 -29h-340q-31 0 -31 29v1374q0 12 9.5 21.5t21.5 9.5h307q33 0 51 -31l457 -668v668q0 12 9.5 21.5t21.5 9.5h340zM592 1565q-35 -10 -45 14l-23 59q-10 27 15 43
l360 197q31 20 43 -14l62 -144q12 -31 -13 -43z" />
    <glyph glyph-name="Ncaron.ss01" horiz-adv-x="1529" 
d="M1358 1434q12 0 21.5 -9.5t9.5 -21.5v-1374q0 -29 -31 -29h-287q-31 0 -55 29l-473 696v-696q0 -29 -31 -29h-340q-31 0 -31 29v1374q0 12 9.5 21.5t21.5 9.5h307q33 0 51 -31l457 -668v668q0 12 9.5 21.5t21.5 9.5h340zM1030 1874v-80q0 -20 -20 -41l-189 -170
q-27 -25 -53 -24h-8q-27 0 -51 24l-187 170q-20 20 -20 41v80q0 35 39 14l223 -131l227 131q39 20 39 -14z" />
    <glyph glyph-name="Ncommaaccent.ss01" horiz-adv-x="1529" 
d="M874 -86v-184q0 -72 -62 -123t-128 -70q-27 -5 -31 17t21 30q53 16 88 53t35 84l-113 37q-33 10 -33 35v121q0 31 33 31h158q32 0 32 -31zM1358 1434q12 0 21.5 -9.5t9.5 -21.5v-1374q0 -29 -31 -29h-287q-31 0 -55 29l-473 696v-696q0 -29 -31 -29h-340q-31 0 -31 29
v1374q0 12 9.5 21.5t21.5 9.5h307q33 0 51 -31l457 -668v668q0 12 9.5 21.5t21.5 9.5h340z" />
    <glyph glyph-name="Eng.ss01" horiz-adv-x="1529" 
d="M1358 1434q12 0 21 -10t10 -21v-1464q0 -209 -222 -373q-18 -16 -34 0l-158 162q-14 20 0 39q2 4 49 57t47 91t-59 120l-469 690v-696q0 -29 -31 -29h-340q-31 0 -31 29v1374q-1 12 9 21t22 10h307q33 0 51 -31l457 -668v668q0 12 9 21t22 10h340z" />
    <glyph glyph-name="Ntilde.ss01" horiz-adv-x="1529" 
d="M1358 1434q12 0 21.5 -9.5t9.5 -21.5v-1374q0 -29 -31 -29h-287q-31 0 -55 29l-473 696v-696q0 -29 -31 -29h-340q-31 0 -31 29v1374q0 12 9.5 21.5t21.5 9.5h307q33 0 51 -31l457 -668v668q0 12 9.5 21.5t21.5 9.5h340zM891.5 1591q-64.5 0 -125.5 31q-60 31 -104 31
q-98 0 -125 -45q-8 -12 -29 -4l-55 26q-35 13 45 117q44 57 136.5 57t162 -30.5t109.5 -30.5t89 45q10 10 29 4l53 -23q16 -4 8 -24q-25 -68 -77 -111t-116.5 -43z" />
    <glyph glyph-name="O.ss01" horiz-adv-x="1445" 
d="M723.5 336q234.5 0 234.5 379t-234.5 379t-234.5 -379t234.5 -379zM724 -16q-292 0 -464 191.5t-172 541.5t172 541.5t464 191.5t463 -191.5t171 -541.5t-171 -541.5t-463 -191.5z" />
    <glyph glyph-name="Oacute.ss01" horiz-adv-x="1445" 
d="M723.5 336q234.5 0 234.5 379t-234.5 379t-234.5 -379t234.5 -379zM724 -16q-292 0 -464 191.5t-172 541.5t172 541.5t464 191.5t463 -191.5t171 -541.5t-171 -541.5t-463 -191.5zM551 1565q-35 -10 -45 14l-23 59q-10 27 15 43l360 197q31 20 43 -14l62 -144
q12 -31 -13 -43z" />
    <glyph glyph-name="Ocircumflex.ss01" horiz-adv-x="1445" 
d="M723.5 336q234.5 0 234.5 379t-234.5 379t-234.5 -379t234.5 -379zM724 -16q-292 0 -464 191.5t-172 541.5t172 541.5t464 191.5t463 -191.5t171 -541.5t-171 -541.5t-463 -191.5zM459 1579v80q0 20 20 41l187 170q25 25 51 24h8q27 0 53 -24l189 -170q20 -20 20 -41v-80
q0 -34 -39 -14l-227 131l-223 -131q-39 -20 -39 14z" />
    <glyph glyph-name="Odieresis.ss01" horiz-adv-x="1445" 
d="M723.5 336q234.5 0 234.5 379t-234.5 379t-234.5 -379t234.5 -379zM724 -16q-292 0 -464 191.5t-172 541.5t172 541.5t464 191.5t463 -191.5t171 -541.5t-171 -541.5t-463 -191.5zM883 1595q-47 0 -80 32t-33 78t33 78t80 32t78.5 -32t31.5 -78t-31.5 -78t-78.5 -32z
M571 1595q-47 0 -78.5 31t-31.5 78t31.5 79t78.5 32t79 -32t32 -78t-32 -78t-79 -32z" />
    <glyph glyph-name="Ograve.ss01" horiz-adv-x="1445" 
d="M723.5 336q234.5 0 234.5 379t-234.5 379t-234.5 -379t234.5 -379zM724 -16q-292 0 -464 191.5t-172 541.5t172 541.5t464 191.5t463 -191.5t171 -541.5t-171 -541.5t-463 -191.5zM895 1567l-399 112q-25 12 -13 43l62 144q12 35 43 14l360 -197q25 -16 15 -43l-23 -59
q-10 -24 -45 -14z" />
    <glyph glyph-name="Ohungarumlaut.ss01" horiz-adv-x="1445" 
d="M723.5 336q234.5 0 234.5 379t-234.5 379t-234.5 -379t234.5 -379zM724 -16q-292 0 -464 191.5t-172 541.5t172 541.5t464 191.5t463 -191.5t171 -541.5t-171 -541.5t-463 -191.5zM870 1575q-23 -8 -45 14l-30 31q-14 16 14 41l209 186q18 16 39 -4l106 -108
q10 -10 7 -24.5t-17 -20.5zM465 1575q-23 -10 -45 14l-31 31q-12 16 17 41l208 186q18 18 37 -4l107 -108q23 -29 -13 -43z" />
    <glyph glyph-name="Omacron.ss01" horiz-adv-x="1445" 
d="M723.5 336q234.5 0 234.5 379t-234.5 379t-234.5 -379t234.5 -379zM724 -16q-292 0 -464 191.5t-172 541.5t172 541.5t464 191.5t463 -191.5t171 -541.5t-171 -541.5t-463 -191.5zM522 1599q-33 0 -33 31v133q0 31 33 31h406q33 0 33 -31v-133q0 -31 -33 -31h-406z" />
    <glyph glyph-name="Oslash.ss01" horiz-adv-x="1445" 
d="M725 336q233 0 233 381q0 104 -16 172l-278 -545q24 -8 61 -8zM489 717q0 -98 17 -180l282 548q-25 8 -63 9q-236 0 -236 -377zM999 1448h187q16 0 24.5 -11.5t-0.5 -25.5l-59 -115q207 -197 207 -563t-171 -557.5t-462 -191.5q-123 0 -227 34l-4 -6q-14 -31 -43 -30
h-172q-20 0 -30.5 14t-2.5 31l55 106q-213 195 -213 564.5t172 561t465 191.5q127 0 231 -37q17 35 43 35z" />
    <glyph glyph-name="Otilde.ss01" horiz-adv-x="1445" 
d="M723.5 336q234.5 0 234.5 379t-234.5 379t-234.5 -379t234.5 -379zM724 -16q-292 0 -464 191.5t-172 541.5t172 541.5t464 191.5t463 -191.5t171 -541.5t-171 -541.5t-463 -191.5zM850.5 1591q-64.5 0 -125.5 31t-105 31q-97 0 -124 -45q-8 -12 -29 -4l-55 26
q-36 13 44 117q44 57 137 57t162.5 -30.5t109.5 -30.5t89 45q10 10 29 4l53 -23q16 -4 8 -24q-25 -68 -77 -111t-116.5 -43z" />
    <glyph glyph-name="OE.ss01" horiz-adv-x="2156" 
d="M725 336q78 0 135 39v680q-57 39 -137 39q-233 -2 -233.5 -380t235.5 -378zM2023 1075h-761v-180h356q12 0 21.5 -9t9.5 -22v-297q0 -10 -9.5 -19t-21.5 -9h-356v-181h759q33 0 33 -32v-295q0 -12 -9 -21.5t-24 -9.5h-1136q-98 -16 -158 -16q-293 0 -466 189t-173 541.5
t172 544t463 191.5q86 0 160 -18q2 2 8 2h1132q31 0 31 -31v-295q0 -33 -31 -33z" />
    <glyph glyph-name="P.ss01" horiz-adv-x="1366" 
d="M811 844q78 0 78 116.5t-82 116.5h-289v-233h293zM1290 947q0 -218 -110.5 -338t-276.5 -120h-385v-460q0 -29 -29 -29h-339q-33 0 -33 29v1374q0 31 30 31h773q166 0 268 -134.5t102 -352.5z" />
    <glyph glyph-name="Q.ss01" horiz-adv-x="1437" 
d="M700.5 336q104.5 0 158.5 109.5t54 270.5t-54 269.5t-158.5 108.5t-158 -108.5t-53.5 -269.5t53.5 -270.5t158 -109.5zM700 -16q-264 0 -438 194.5t-174 538.5t174 538.5t438.5 194.5t439.5 -194.5t175 -538.5q0 -238 -92 -416l149 -145q20 -20 0 -43l-211 -211
q-23 -20 -43 0l-143 143q-127 -61 -275 -61z" />
    <glyph glyph-name="R.ss01" horiz-adv-x="1499" 
d="M543 1075v-239h366q90 0 90 120t-92 119h-364zM543 477v-448q0 -29 -31 -29h-340q-31 0 -31 29v1374q0 31 31 31h854q156 -2 265.5 -139.5t109.5 -340.5q0 -285 -184 -413q72 -98 130 -271.5t56 -240.5q-4 -29 -33 -29h-340q-33 0 -33 29q4 86 -46 215t-148 233h-260z
" />
    <glyph glyph-name="Racute.ss01" horiz-adv-x="1499" 
d="M543 1075v-239h366q90 0 90 120t-92 119h-364zM543 477v-448q0 -29 -31 -29h-340q-31 0 -31 29v1374q0 31 31 31h854q156 -2 265.5 -139.5t109.5 -340.5q0 -285 -184 -413q72 -98 130 -271.5t56 -240.5q-4 -29 -33 -29h-340q-33 0 -33 29q4 86 -46 215t-148 233h-260z
M596 1565q-35 -10 -45 14l-23 59q-10 27 15 43l360 197q31 20 43 -14l62 -144q12 -31 -13 -43z" />
    <glyph glyph-name="Rcaron.ss01" horiz-adv-x="1499" 
d="M543 1075v-239h366q90 0 90 119.5t-92 119.5h-364zM543 477v-448q0 -29 -31 -29h-340q-31 0 -31 29v1374q0 31 31 31h854q156 -2 265.5 -139.5t109.5 -340.5q0 -285 -184 -413q72 -98 130 -271.5t56 -240.5q-4 -29 -33 -29h-340q-33 0 -33 29q4 86 -46 215t-148 233h-260
zM1034 1874v-80q0 -20 -20 -41l-189 -170q-27 -25 -53 -24h-8q-27 0 -51 24l-187 170q-20 20 -20 41v80q0 35 39 14l223 -131l227 131q39 20 39 -14z" />
    <glyph glyph-name="Rcommaaccent.ss01" horiz-adv-x="1499" 
d="M879 -86v-184q0 -72 -62.5 -123t-128.5 -70q-27 -5 -31 17t21 30q53 16 88 53t35 84l-113 37q-33 10 -33 35v121q0 31 33 31h158q33 0 33 -31zM543 1075v-239h366q90 0 90 120t-92 119h-364zM543 477v-448q0 -29 -31 -29h-340q-31 0 -31 29v1374q0 31 31 31h854
q156 -2 265.5 -139.5t109.5 -340.5q0 -285 -184 -413q72 -98 130 -271.5t56 -240.5q-4 -29 -33 -29h-340q-33 0 -33 29q4 86 -46 215t-148 233h-260z" />
    <glyph glyph-name="U.ss01" horiz-adv-x="1454" 
d="M1284 1434q12 0 21.5 -9.5t9.5 -23.5v-932q0 -219 -112.5 -344t-344.5 -125h-262q-229 0 -342 128t-113 341v932q0 14 9.5 23.5t21.5 9.5h338q12 0 22.5 -9.5t10.5 -23.5v-864q0 -178 143 -179h84q143 0 143 179v864q0 14 9.5 23.5t21.5 9.5h340z" />
    <glyph glyph-name="Uacute.ss01" horiz-adv-x="1454" 
d="M1284 1434q12 0 21.5 -9.5t9.5 -23.5v-932q0 -219 -112.5 -344t-344.5 -125h-262q-229 0 -342 128t-113 341v932q0 14 9.5 23.5t21.5 9.5h338q12 0 22.5 -9.5t10.5 -23.5v-864q0 -178 143 -179h84q143 0 143 179v864q0 14 9.5 23.5t21.5 9.5h340zM555 1565
q-35 -10 -45 14l-23 59q-10 27 15 43l360 197q31 20 43 -14l62 -144q12 -31 -13 -43z" />
    <glyph glyph-name="Ucircumflex.ss01" horiz-adv-x="1454" 
d="M1284 1434q12 0 21.5 -9.5t9.5 -23.5v-932q0 -219 -112.5 -344t-344.5 -125h-262q-229 0 -342 128t-113 341v932q0 14 9.5 23.5t21.5 9.5h338q12 0 22.5 -9.5t10.5 -23.5v-864q0 -178 143 -179h84q143 0 143 179v864q0 14 9.5 23.5t21.5 9.5h340zM463 1579v80q0 20 20 41
l187 170q25 25 51 24h8q27 0 53 -24l189 -170q20 -20 20 -41v-80q0 -34 -39 -14l-227 131l-223 -131q-39 -20 -39 14z" />
    <glyph glyph-name="Udieresis.ss01" horiz-adv-x="1454" 
d="M1284 1434q12 0 21.5 -9.5t9.5 -23.5v-932q0 -219 -112.5 -344t-344.5 -125h-262q-229 0 -342 128t-113 341v932q0 14 9.5 23.5t21.5 9.5h338q12 0 22.5 -9.5t10.5 -23.5v-864q0 -178 143 -179h84q143 0 143 179v864q0 14 9.5 23.5t21.5 9.5h340zM887 1595q-47 0 -80 32
t-33 78t33 78t80 32t78.5 -32t31.5 -78t-31.5 -78t-78.5 -32zM575.5 1595q-47.5 0 -79 31t-31.5 78t31.5 79t79 32t79 -32t31.5 -78t-31.5 -78t-79 -32z" />
    <glyph glyph-name="Ugrave.ss01" horiz-adv-x="1454" 
d="M1284 1434q12 0 21.5 -9.5t9.5 -23.5v-932q0 -219 -112.5 -344t-344.5 -125h-262q-229 0 -342 128t-113 341v932q0 14 9.5 23.5t21.5 9.5h338q12 0 22.5 -9.5t10.5 -23.5v-864q0 -178 143 -179h84q143 0 143 179v864q0 14 9.5 23.5t21.5 9.5h340zM899 1567l-399 112
q-25 12 -13 43l62 144q12 35 43 14l360 -197q25 -16 15 -43l-23 -59q-10 -24 -45 -14z" />
    <glyph glyph-name="Uhungarumlaut.ss01" horiz-adv-x="1454" 
d="M1284 1434q12 0 21.5 -9.5t9.5 -23.5v-932q0 -219 -112.5 -344t-344.5 -125h-262q-229 0 -342 128t-113 341v932q0 14 9.5 23.5t21.5 9.5h338q12 0 22.5 -9.5t10.5 -23.5v-864q0 -178 143 -179h84q143 0 143 179v864q0 14 9.5 23.5t21.5 9.5h340zM874 1575q-23 -8 -45 14
l-30 31q-14 16 14 41l209 186q18 16 39 -4l106 -108q10 -10 7 -24.5t-17 -20.5zM469 1575q-23 -10 -45 14l-31 31q-12 16 17 41l208 186q18 18 37 -4l107 -108q23 -29 -12 -43z" />
    <glyph glyph-name="Umacron.ss01" horiz-adv-x="1454" 
d="M1284 1434q12 0 21.5 -9.5t9.5 -23.5v-932q0 -219 -112.5 -344t-344.5 -125h-262q-229 0 -342 128t-113 341v932q0 14 9.5 23.5t21.5 9.5h338q12 0 22.5 -9.5t10.5 -23.5v-864q0 -178 143 -179h84q143 0 143 179v864q0 14 9.5 23.5t21.5 9.5h340zM526 1599q-33 0 -32 31
v133q0 31 32 31h406q33 0 33 -31v-133q0 -31 -33 -31h-406z" />
    <glyph glyph-name="Uogonek.ss01" horiz-adv-x="1454" 
d="M1284 1434q12 0 21.5 -9.5t9.5 -23.5v-932q0 -186 -82 -307t-252 -152q-102 -119 -102 -221q1 -57 29 -67q10 -4 37.5 -3.5t90.5 39.5q18 14 31 0l25 -26q10 -14 4 -23q-59 -139 -209 -139q-82 0 -140.5 45t-58.5 135q0 133 125 250h-217q-229 0 -342 128t-113 341v932
q0 14 9.5 23.5t21.5 9.5h338q12 0 22.5 -9.5t10.5 -23.5v-864q0 -178 143 -179h84q143 0 143 179v864q0 14 9.5 23.5t21.5 9.5h340z" />
    <glyph glyph-name="Uring.ss01" horiz-adv-x="1454" 
d="M1284 1434q12 0 21.5 -9.5t9.5 -23.5v-932q0 -219 -112.5 -344t-344.5 -125h-262q-229 0 -342 128t-113 341v932q0 14 9.5 23.5t21.5 9.5h338q12 0 22.5 -9.5t10.5 -23.5v-864q0 -178 143 -179h84q143 0 143 179v864q0 14 9.5 23.5t21.5 9.5h340zM727 1696
q35 0 53.5 24.5t18.5 56.5t-18.5 56.5t-53.5 24.5q-66 0 -66 -81t66 -81zM728 1534q-101 0 -170 66.5t-69 177t69 177t170 66.5t172 -66.5t71 -177t-71 -177t-172 -66.5z" />
    <glyph glyph-name="W.ss01" horiz-adv-x="2156" 
d="M2075 1434q12 0 20 -9.5t4 -21.5l-549 -1383q-6 -20 -26 -20h-156q-16 0 -27 18l-262 629l-262 -627q-8 -20 -29 -20h-151q-23 0 -31 20l-549 1383q-4 12 5.5 21.5t21.5 9.5h334q16 0 26 -19l281 -663l225 661q6 20 31 21h195q23 0 30 -21l226 -661l280 663q8 18 29 19
h334z" />
    <glyph glyph-name="Wacute.ss01" horiz-adv-x="2156" 
d="M2075 1434q12 0 20 -9.5t4 -21.5l-549 -1383q-6 -20 -26 -20h-156q-16 0 -27 18l-262 629l-262 -627q-8 -20 -29 -20h-151q-23 0 -31 20l-549 1383q-4 12 5.5 21.5t21.5 9.5h334q16 0 26 -19l281 -663l225 661q6 20 31 21h195q23 0 30 -21l226 -661l280 663q8 18 29 19
h334zM907 1565q-35 -10 -45 14l-22 59q-10 27 14 43l360 197q31 20 43 -14l62 -144q12 -31 -12 -43z" />
    <glyph glyph-name="Wcircumflex.ss01" horiz-adv-x="2156" 
d="M2075 1434q12 0 20 -9.5t4 -21.5l-549 -1383q-6 -20 -26 -20h-156q-16 0 -27 18l-262 629l-262 -627q-8 -20 -29 -20h-151q-23 0 -31 20l-549 1383q-4 12 5.5 21.5t21.5 9.5h334q16 0 26 -19l281 -663l225 661q6 20 31 21h195q23 0 30 -21l226 -661l280 663q8 18 29 19
h334zM815 1579v80q0 20 21 41l186 170q25 25 51 24h8q27 0 54 -24l188 -170q20 -20 20 -41v-80q1 -34 -38 -14l-228 131l-223 -131q-39 -20 -39 14z" />
    <glyph glyph-name="Wdieresis.ss01" horiz-adv-x="2156" 
d="M2075 1434q12 0 20 -9.5t4 -21.5l-549 -1383q-6 -20 -26 -20h-156q-16 0 -27 18l-262 629l-262 -627q-8 -20 -29 -20h-151q-23 0 -31 20l-549 1383q-4 12 5.5 21.5t21.5 9.5h334q16 0 26 -19l281 -663l225 661q6 20 31 21h195q23 0 30 -21l226 -661l280 663q8 18 29 19
h334zM1239 1595q-47 0 -80 32t-33 78t33 78t80 32t79 -32t32 -78t-32 -78t-79 -32zM928 1595q-47 0 -79 31t-32 78t32 79t79 32t78.5 -32t31.5 -78t-31.5 -78t-78.5 -32z" />
    <glyph glyph-name="Wgrave.ss01" horiz-adv-x="2156" 
d="M2075 1434q12 0 20 -9.5t4 -21.5l-549 -1383q-6 -20 -26 -20h-156q-16 0 -27 18l-262 629l-262 -627q-8 -20 -29 -20h-151q-23 0 -31 20l-549 1383q-4 12 5.5 21.5t21.5 9.5h334q16 0 26 -19l281 -663l225 661q6 20 31 21h195q23 0 30 -21l226 -661l280 663q8 18 29 19
h334zM1251 1567l-399 112q-25 12 -12 43l61 144q12 35 43 14l361 -197q25 -16 14 -43l-23 -59q-10 -24 -45 -14z" />
    <glyph glyph-name="A.ss04" horiz-adv-x="1318" 
d="M80 252q0 27 26 27h1106q27 0 27 -27v-225q0 -27 -27 -27h-1106q-27 0 -26 27v225zM575 719h168l-69 158l-12 30zM770 1434q20 0 33 -33l434 -985q6 -12 -2 -21.5t-21 -9.5h-356q-18 0 -31 31l-24 55h-287l-27 -55q-14 -31 -34 -31h-351q-12 0 -21 9t-5 22l442 985
q16 33 33 33h217z" />
    <glyph glyph-name="B.ss04" horiz-adv-x="1187" 
d="M141 252q0 27 27 27h895q27 0 27 -27v-225q0 -27 -27 -27h-895q-27 0 -27 27v225zM537 641h104q70 0 70 66q0 72 -74 71h-100v-137zM598 1174h-61v-136h59q78 0 78 68t-76 68zM1090 667q0 -122 -83 -204t-253 -82h-582q-12 0 -21.5 10t-9.5 23v989q0 12 9.5 21.5
t21.5 9.5h559q152 0 237 -72t85 -211q0 -176 -144 -236q72 -6 126.5 -66t54.5 -182z" />
    <glyph glyph-name="C.ss04" horiz-adv-x="1239" 
d="M166 252q0 27 27 27h894q27 0 27 -27v-225q0 -27 -27 -27h-894q-27 0 -27 27v225zM655 365q-231 0 -392 144t-161 397t162 398.5t395 145.5q166 0 282 -61.5t169 -143.5q16 -27 2 -43l-176 -178q-23 -25 -45 4q-82 104 -215 105q-197 -1 -197 -225t197 -224
q141 0 221 119q18 29 47 2l182 -176q18 -18 0 -45q-63 -88 -188 -153.5t-283 -65.5z" />
    <glyph glyph-name="D.ss04" horiz-adv-x="1284" 
d="M141 252q0 27 27 27h950q27 0 27 -27v-225q0 -27 -27 -27h-950q-27 0 -27 27v225zM621 700q98 0 143 37t45 170t-45 171t-143 38h-103v-416h103zM1186 922.5q0 -146.5 -31 -242.5t-80 -152q-127 -146 -444 -147h-459q-12 0 -21.5 10t-9.5 23v989q0 12 9.5 21.5t21.5 9.5
h467q121 0 210 -20.5t170 -74t124 -162t43 -255z" />
    <glyph glyph-name="E.ss04" horiz-adv-x="1081" 
d="M141 252q0 27 27 27h784q27 0 27 -27v-225q0 -27 -27 -27h-784q-27 0 -27 27v225zM948 700q12 0 21.5 -9t9.5 -23v-254q0 -12 -9 -22.5t-22 -10.5h-776q-12 0 -21.5 10t-9.5 23v989q0 12 9.5 21.5t21.5 9.5h778q29 0 29 -31v-256q0 -31 -29 -31h-432v-67h240q33 0 33 -29
v-223q0 -29 -33 -29h-240v-68h430z" />
    <glyph glyph-name="F.ss04" horiz-adv-x="1089" 
d="M141 252q0 27 27 27h793q27 0 26 -27v-225q0 -27 -26 -27h-793q-27 0 -27 27v225zM956 1434q12 0 21.5 -9.5t9.5 -21.5v-256q0 -12 -9 -21.5t-22 -9.5h-438v-100h279q31 0 30 -31v-260q0 -29 -30 -29h-279v-282q0 -12 -8 -22.5t-21 -10.5h-317q-12 0 -21.5 10t-9.5 23
v989q0 12 9.5 21.5t21.5 9.5h784z" />
    <glyph glyph-name="G.ss04" horiz-adv-x="1298" 
d="M143 252q0 27 27 27h983q27 0 27 -27v-225q0 -27 -27 -27h-983q-27 0 -27 27v225zM1151 1004q29 0 29 -29v-471q0 -46 -205 -102q-137 -38 -267.5 -37.5t-231.5 28t-187 88t-136.5 169t-50.5 253.5q0 270 166 408.5t400 138.5q309 0 462 -158q25 -23 -2 -43l-178 -188
q-14 -20 -43 2q-84 70 -223 70q-205 0 -205 -218q2 -129 56.5 -180t149.5 -51t140 16v29h-63q-33 0 -33 29v217q0 29 33 29h389z" />
    <glyph glyph-name="H.ss04" horiz-adv-x="1341" 
d="M141 252q0 27 27 27h1006q27 0 26 -27v-225q0 -27 -26 -27h-1006q-27 0 -27 27v225zM1171 1434q29 0 29 -31v-989q0 -12 -8 -22.5t-21 -10.5h-317q-31 0 -31 33v336h-305v-336q0 -12 -8 -22.5t-21 -10.5h-317q-12 0 -21.5 10t-9.5 23v989q0 12 9.5 21.5t21.5 9.5h317
q29 0 29 -31v-336h305v336q0 31 31 31h317z" />
    <glyph glyph-name="I.ss04" horiz-adv-x="659" 
d="M141 252q0 27 27 27h324q27 0 26 -27v-225q0 -27 -26 -27h-324q-27 0 -27 27v225zM172 381q-12 0 -21.5 10t-9.5 23v989q0 12 9.5 21.5t21.5 9.5h317q29 0 29 -31v-989q0 -12 -8 -22.5t-21 -10.5h-317z" />
    <glyph glyph-name="J.ss04" horiz-adv-x="1087" 
d="M102 252q0 27 27 27h793q27 0 26 -27v-225q0 -27 -26 -27h-793q-27 0 -27 27v225zM915 1434q12 0 22.5 -9.5t10.5 -23.5v-588q0 -225 -103.5 -336.5t-340.5 -111.5q-311 0 -420 258q-10 27 14 36l230 121q27 10 41 -16q35 -57 102 -57q98 0 98 120v574q0 33 29 33h317z
" />
    <glyph glyph-name="K.ss04" horiz-adv-x="1318" 
d="M141 252q0 27 27 27h1057q27 0 26 -27v-225q0 -27 -26 -27h-1057q-27 0 -27 27v225zM518 414q0 -12 -8 -22.5t-21 -10.5h-317q-12 0 -21.5 10t-9.5 23v989q0 12 9.5 21.5t21.5 9.5h317q29 0 29 -31v-387l305 387q20 31 60 31h346q14 0 20 -9.5t-4 -21.5l-422 -496
l402 -493q10 -14 5 -23.5t-18 -9.5h-346q-39 0 -61 33l-287 360v-360z" />
    <glyph glyph-name="L.ss04" horiz-adv-x="1077" 
d="M141 252q0 27 27 27h801q27 0 26 -27v-225q0 -27 -26 -27h-801q-27 0 -27 27v225zM967 700q12 0 20 -10t8 -22v-254q0 -33 -28 -33h-795q-12 0 -21.5 9t-9.5 24v987q0 14 9.5 23.5t21.5 9.5h317q29 0 29 -33v-701h449z" />
    <glyph glyph-name="M.ss04" horiz-adv-x="1560" 
d="M141 252q0 27 27 27h1225q27 0 26 -27v-225q0 -27 -26 -27h-1225q-27 0 -27 27v225zM1092 1434h299q29 0 28 -31v-991q0 -31 -28 -31h-318q-12 0 -21.5 9t-9.5 22v397l-196 -395q-20 -33 -49 -33h-33q-33 0 -49 33l-197 395v-397q0 -12 -9 -21.5t-22 -9.5h-317
q-29 0 -29 31v991q0 31 29 31h297q33 0 49 -31l264 -455l264 455q18 31 48 31z" />
    <glyph glyph-name="N.ss04" horiz-adv-x="1327" 
d="M141 252q0 27 27 27h991q27 0 27 -27v-225q0 -27 -27 -27h-991q-27 0 -27 27v225zM1155 1434q12 0 21.5 -9.5t9.5 -21.5v-991q0 -12 -9.5 -21.5t-21.5 -9.5h-264q-33 0 -55 31l-318 419v-419q0 -31 -29 -31h-317q-12 0 -21.5 9t-9.5 22v991q0 12 9.5 21.5t21.5 9.5h285
q35 0 49 -31l301 -422v422q0 12 9 21.5t22 9.5h317z" />
    <glyph glyph-name="O.ss04" horiz-adv-x="1411" 
d="M143 252q0 27 27 27h1071q27 0 27 -27v-225q0 -27 -27 -27h-1071q-27 0 -27 27v225zM704.5 684q225.5 0 225.5 224t-226 224t-225.5 -224t226 -224zM704.5 365q-114.5 0 -218 30.5t-191.5 92t-140.5 170t-52.5 250t52.5 249t140.5 170t191.5 93t218 30.5t219 -30.5
t192.5 -93t140.5 -170t52.5 -249t-52.5 -250t-140.5 -170t-192.5 -92t-219 -30.5z" />
    <glyph glyph-name="P.ss04" horiz-adv-x="1128" 
d="M141 252q0 27 27 27h817q27 0 27 -27v-225q0 -27 -27 -27h-817q-27 0 -27 27v225zM602 954q37 0 54.5 26t17.5 60q0 84 -78 84h-78v-170h84zM1053 1040q0 -199 -100.5 -296t-258.5 -97h-176v-235q0 -31 -29 -31h-317q-31 0 -31 31v991q0 31 31 31h539q342 -1 342 -394z
" />
    <glyph glyph-name="Q.ss04" horiz-adv-x="1411" 
d="M1241 279q27 0 27 -27v-225q0 -27 -27 -27h-1071q-27 0 -27 27v225q0 27 27 27h1071zM704.5 1132q-225.5 0 -225.5 -224t225.5 -224t225.5 224t-225.5 224zM1103 342q-13 0 -22 8l-73 74q-137 -59 -277.5 -59t-244 30.5t-191.5 92t-140.5 170t-52.5 250t52.5 249
t140.5 170t191.5 93t218 30.5t219 -30.5t192.5 -93t140.5 -170t52.5 -260t-72 -273.5l57 -58q18 -18 0 -41l-172 -174q-6 -8 -19 -8z" />
    <glyph glyph-name="R.ss04" horiz-adv-x="1234" 
d="M141 252q0 27 27 27h975q27 0 26 -27v-225q0 -27 -26 -27h-975q-27 0 -27 27v225zM518 1124v-141h150q80 0 80 72q-2 43 -24 56t-65 13h-141zM1145 381h-328q-23 0 -45 33l-194 260h-60v-262q0 -31 -29 -31h-317q-31 0 -31 31v991q0 31 31 31h569q166 0 274.5 -102.5
t108.5 -284.5q0 -107 -17 -147t-22.5 -54.5t-20.5 -33.5t-20.5 -27.5t-24 -25t-23.5 -20.5t-25.5 -19t-22.5 -18l215 -288q8 -12 1 -22.5t-19 -10.5z" />
    <glyph glyph-name="S.ss04" horiz-adv-x="1173" 
d="M104 252q0 27 27 27h895q27 0 27 -27v-225q0 -27 -27 -27h-895q-27 0 -27 27v225zM592 362q-291 0 -483 187q-20 20 0 43l149 174q16 23 39 2q125 -98 289 -98q111 0 110 41q0 39 -131 53q-271 45 -365 127t-94 230.5t121 238.5t336 90q152 0 275 -42t176 -112
q23 -25 2 -45l-162 -186q-23 -16 -39 -4q-2 0 -10 8q-9 9 -19 17q-29 24 -88.5 40.5t-120.5 16.5t-77.5 -5t-16.5 -25t21.5 -28t118.5 -26q123 -29 196.5 -52.5t137 -61.5t90 -92t26.5 -132q0 -172 -127 -265.5t-354 -93.5z" />
    <glyph glyph-name="T.ss04" horiz-adv-x="1118" 
d="M80 252q0 27 26 27h908q27 0 26 -27v-225q0 -27 -26 -27h-908q-27 0 -26 27v225zM1012 1434q12 0 20 -10.5t8 -22.5v-254q0 -31 -28 -31h-264v-702q0 -12 -9.5 -22.5t-21.5 -10.5h-318q-12 0 -20 10t-8 23v702h-260q-12 0 -21.5 9.5t-9.5 21.5v254q0 12 9 22.5t22 10.5
h901z" />
    <glyph glyph-name="U.ss04" horiz-adv-x="1298" 
d="M137 252q0 27 27 27h971q27 0 26 -27v-225q0 -27 -26 -27h-971q-27 0 -27 27v225zM1151 1434q31 0 31 -33v-516q0 -248 -121 -384t-412 -136t-411.5 136t-120.5 384v516q0 14 9 23.5t21 9.5h320q29 0 29 -33v-477q0 -129 34.5 -184.5t118.5 -55.5t119 55.5t35 184.5v477
q0 14 9 23.5t22 9.5h317z" />
    <glyph glyph-name="V.ss04" horiz-adv-x="1343" 
d="M70 252q0 27 26 27h1151q27 0 27 -27v-225q0 -27 -27 -27h-1151q-27 0 -26 27v225zM1251 1434q12 0 18.5 -9.5t2.5 -21.5l-453 -1002q-14 -20 -28 -20h-236q-14 0 -29 22l-454 1000q-4 12 3 21.5t21 9.5h312q20 0 32 -31l234 -518l231 518q16 31 33 31h313z" />
    <glyph glyph-name="W.ss04" horiz-adv-x="1757" 
d="M70 252q0 27 26 27h1563q27 0 27 -27v-225q0 -27 -27 -27h-1563q-27 0 -26 27v225zM1663 1434q12 0 18.5 -9.5t1.5 -21.5l-352 -1002q-6 -20 -26 -20h-215q-16 0 -29 18l-180 412l-183 -410q-8 -20 -28 -20h-211q-18 0 -31 20l-356 1002q-4 12 5 21.5t21 9.5h303
q25 0 33 -33l148 -481l200 481q12 33 33 33h131q16 0 33 -33l201 -481l141 481q8 33 33 33h309z" />
    <glyph glyph-name="X.ss04" horiz-adv-x="1269" 
d="M76 252q0 27 26 27h1065q27 0 27 -27v-225q0 -27 -27 -27h-1065q-27 0 -26 27v225zM1169 381h-358q-23 0 -45 31l-133 204l-129 -204q-23 -31 -45 -31h-359q-12 0 -20 10t0 23l336 499l-322 490q-8 12 -1 21.5t20 9.5h358q27 0 45 -33l117 -203l129 203q18 33 39 33h356
q12 0 21.5 -9.5t1.5 -21.5l-332 -490l342 -499q8 -12 0 -22.5t-21 -10.5z" />
    <glyph glyph-name="Y.ss04" horiz-adv-x="1232" 
d="M68 252q0 27 26 27h1045q27 0 26 -27v-225q0 -27 -26 -27h-1045q-27 0 -26 27v225zM1135 1434q12 0 22 -9.5t4 -21.5l-356 -631v-360q0 -12 -9.5 -21.5t-21.5 -9.5h-315q-12 0 -21.5 9t-9.5 22v360l-356 631q-6 12 2 21.5t20 9.5h346q29 0 45 -33l131 -258l138 260
q12 31 43 31h338z" />
    <glyph glyph-name="Z.ss04" horiz-adv-x="1126" 
d="M76 252q0 27 26 27h922q27 0 27 -27v-225q0 -27 -27 -27h-922q-27 0 -26 27v225zM164 1116q-29 0 -29 29v254q0 35 29 35h862q16 0 22.5 -14.5t-4.5 -30.5l-432 -689h381q10 0 19.5 -10t9.5 -22v-254q0 -33 -29 -33h-887q-16 0 -25 14.5t-1 28.5l412 692h-328z" />
    <glyph glyph-name="B.ss05" horiz-adv-x="1253" 
d="M141 252q0 27 27 27h942q27 0 27 -27v-225q0 -27 -27 -27h-942q-27 0 -27 27v225zM537 641h172q70 0 69 66q0 72 -76 71h-165v-137zM666 1174h-129v-136h125q80 0 79 66q1 70 -75 70zM1155 667q0 -122 -83 -204t-251 -82h-649q-12 0 -21.5 10t-9.5 23v989q0 12 9.5 21.5
t21.5 9.5h627q152 0 235.5 -72t83.5 -211q0 -92 -25.5 -141t-95.5 -95q78 -27 118 -76.5t40 -171.5z" />
    <glyph glyph-name="C.ss05" horiz-adv-x="1181" 
d="M139 252q0 27 27 27h852q27 0 26 -27v-225q0 -27 -26 -27h-852q-27 0 -27 27v225zM586 365q-218 0 -359 123t-141 414.5t137 419.5t363 128q389 0 483 -356q8 -29 -27 -39l-266 -47q-31 -4 -35 22q-29 102 -133 103q-143 0 -143 -224.5t139 -224.5q59 0 100 32t52 77
q4 29 37 22l266 -47q33 -8 24 -39q-96 -364 -497 -364z" />
    <glyph glyph-name="D.ss05" horiz-adv-x="1292" 
d="M141 252q0 27 27 27h954q27 0 27 -27v-225q0 -27 -27 -27h-954q-27 0 -27 27v225zM817 948q0 86 -21.5 127t-74.5 41h-203v-416h203q55 0 75.5 40t20.5 124v84zM770 1434q217 0 321.5 -119t104.5 -363v-90q0 -244 -104.5 -362.5t-321.5 -118.5h-598q-12 0 -21.5 10
t-9.5 23v989q0 12 9.5 21.5t21.5 9.5h598z" />
    <glyph glyph-name="E.ss05" horiz-adv-x="1193" 
d="M141 252q0 27 27 27h897q27 0 27 -27v-225q0 -27 -27 -27h-897q-27 0 -27 27v225zM1061 700q12 0 21.5 -9t9.5 -23v-254q0 -12 -9.5 -22.5t-21.5 -10.5h-889q-12 0 -21.5 10t-9.5 23v989q0 12 9.5 21.5t21.5 9.5h891q29 0 29 -31v-256q0 -31 -29 -31h-545v-67h262
q33 0 33 -29v-223q0 -29 -33 -29h-262v-68h543z" />
    <glyph glyph-name="F.ss05" horiz-adv-x="1236" 
d="M141 252q0 27 27 27h940q27 0 27 -27v-225q0 -27 -27 -27h-940q-27 0 -27 27v225zM1104 1434q12 0 21.5 -9.5t9.5 -21.5v-256q0 -12 -9.5 -21.5t-21.5 -9.5h-586v-100h293q31 0 31 -31v-260q0 -29 -31 -29h-293v-282q0 -12 -8 -22.5t-21 -10.5h-317q-12 0 -21.5 10
t-9.5 23v989q0 12 9.5 21.5t21.5 9.5h932z" />
    <glyph glyph-name="G.ss05" horiz-adv-x="1198" 
d="M127 252q0 27 27 27h901q27 0 26 -27v-225q0 -27 -26 -27h-901q-27 0 -27 27v225zM1053 997q29 0 28 -28v-557q0 -12 -9 -21.5t-21 -9.5h-168q-18 0 -31 31l-18 59q-33 -37 -48.5 -51t-72 -34.5t-146.5 -20.5t-172 25.5t-154.5 83.5t-113.5 169t-41 264.5t44 265
t120 169.5q143 108 346 108q430 0 473 -328q2 -33 -29 -39l-260 -49q-33 -4 -39 21q-10 27 -17 39t-32.5 25.5t-66.5 13.5q-86 0 -123 -52.5t-37 -171t35 -172t123.5 -53.5t115.5 61h-59q-31 0 -31 29v195q0 29 31 28h373z" />
    <glyph glyph-name="I.ss05" horiz-adv-x="827" 
d="M121 252q0 27 26 27h533q27 0 27 -27v-225q0 -27 -27 -27h-533q-27 0 -26 27v225zM680 1116h-78v-416h78q27 0 27 -26v-266q0 -27 -27 -27h-533q-27 0 -26 27v266q0 27 26 26h78v416h-78q-27 0 -26 27v264q0 27 26 27h533q27 0 27 -27v-264q0 -27 -27 -27z" />
    <glyph glyph-name="M.ss05" horiz-adv-x="1480" 
d="M141 252q0 27 27 27h1145q27 0 26 -27v-225q0 -27 -26 -27h-1145q-27 0 -27 27v225zM1014 1434h297q29 0 28 -31v-991q0 -31 -28 -31h-318q-12 0 -21 9t-9 22v434l-156 -289q-20 -33 -51 -33h-31q-35 0 -51 33l-156 289v-434q0 -12 -9 -21.5t-22 -9.5h-317q-29 0 -29 31
v991q0 31 29 31h297q27 0 49 -31l225 -332l226 332q23 31 47 31z" />
    <glyph glyph-name="N.ss05" horiz-adv-x="1333" 
d="M141 252q0 27 27 27h997q27 0 27 -27v-225q0 -27 -27 -27h-997q-27 0 -27 27v225zM1161 1434q12 0 21.5 -9.5t9.5 -21.5v-991q0 -12 -9 -21.5t-22 -9.5h-264q-31 0 -53 31l-326 419v-419q0 -31 -29 -31h-317q-12 0 -21.5 9t-9.5 22v991q0 12 9.5 21.5t21.5 9.5h285
q35 0 49 -31l309 -422v422q0 31 29 31h317z" />
    <glyph glyph-name="O.ss05" horiz-adv-x="1243" 
d="M139 252q0 27 27 27h919q27 0 27 -27v-225q0 -27 -27 -27h-919q-27 0 -27 27v225zM621 1133q-156 0 -156 -224.5t157 -224.5t156 223q0 115 -43 170.5t-114 55.5zM622 365q-536 0 -536 542.5t535 542.5q246 0 391 -127t145 -416q1 -542 -535 -542z" />
    <glyph glyph-name="P.ss05" horiz-adv-x="1218" 
d="M141 252q0 27 27 27h895q27 0 27 -27v-225q0 -27 -27 -27h-895q-27 0 -27 27v225zM680 954q37 0 54.5 26t17.5 60q0 84 -78 84h-156v-170h162zM1130 1040q0 -199 -100 -296t-258 -97h-254v-235q0 -31 -29 -31h-317q-31 0 -31 31v991q0 31 31 31h616q342 -1 342 -394z" />
    <glyph glyph-name="Q.ss05" horiz-adv-x="1243" 
d="M1085 279q27 0 27 -27v-225q0 -27 -27 -27h-919q-27 0 -27 27v225q0 27 27 27h919zM621 1133q-156 0 -156 -224.5t157 -224.5t156 223q0 115 -43 170.5t-114 55.5zM621 365q-535 0 -535 542.5t535 542.5q246 0 391 -127t145 -416q0 -172 -55 -289l45 -45q18 -18 0 -41
l-170 -174q-20 -20 -41 0l-51 52q-115 -45 -264 -45z" />
    <glyph glyph-name="R.ss05" horiz-adv-x="1232" 
d="M141 252q0 27 27 27h965q27 0 26 -27v-225q0 -27 -26 -27h-965q-27 0 -27 27v225zM518 1124v-145h180q84 0 84 80q0 66 -75 65h-189zM518 670v-258q0 -31 -29 -31h-317q-31 0 -31 31v991q0 31 31 31h604q383 0 383 -371q0 -193 -158 -305q119 -111 158 -346
q2 -12 -8 -21.5t-23 -9.5h-315q-25 0 -31 31q-16 84 -42.5 141t-86.5 117h-135z" />
    <glyph glyph-name="U.ss05" horiz-adv-x="1275" 
d="M182 252q0 27 27 27h856q27 0 27 -27v-225q0 -27 -27 -27h-856q-27 0 -27 27v225zM1108 1434q29 0 29 -33v-639q0 -217 -106.5 -308.5t-340.5 -91.5h-104q-229 0 -337 94.5t-108 305.5v639q0 14 9.5 23.5t21.5 9.5h315q12 0 21.5 -9.5t9.5 -23.5v-578q0 -141 78 -141h84
q78 0 78 141v578q0 33 33 33h317z" />
    <glyph glyph-name="W.ss05" horiz-adv-x="1802" 
d="M68 252q0 27 26 27h1614q27 0 27 -27v-225q0 -27 -27 -27h-1614q-27 0 -26 27v225zM1710 1434q12 0 19.5 -9.5t3.5 -21.5l-404 -1002q-6 -20 -29 -20h-213q-25 0 -32 18l-152 361l-151 -359q-8 -20 -31 -20h-209q-27 0 -35 20l-407 1002q-4 12 3 21.5t19 9.5h314
q18 0 30 -31l191 -459l161 469q6 20 29 21h172q25 0 31 -19l160 -471l192 471q6 18 31 19h307z" />
    <glyph glyph-name="i.loclTRK" horiz-adv-x="565" 
d="M125 0q-31 0 -31 29v800q0 37 31 37h315q31 0 31 -37v-800q0 -29 -31 -29h-315zM282.5 1032q-69.5 0 -118.5 48t-49 119t48 119t119 48t120 -48t49 -119t-49.5 -119t-119 -48z" />
    <glyph glyph-name="a.ss01" horiz-adv-x="1058" 
d="M496 193q37 0 60.5 23.5t23.5 57.5q0 88 -88 88q-31 0 -56.5 -25.5t-25.5 -59.5t24.5 -59t61.5 -25zM938 31q0 -12 -9 -21.5t-22 -9.5h-200q-18 0 -40 11.5t-30 27.5l-31 61q-37 -51 -100.5 -83.5t-132.5 -32.5q-166 0 -242 80.5t-76 203.5t91.5 196t254.5 73
q106 0 168 -21v35q0 72 -114 72q-59 0 -217 -23q-14 -2 -24.5 6t-10.5 19l-33 184q-6 31 29 39q0 -2 4 0t20.5 5t36 6t49 7t73.5 10.5t142 6.5q406 0 414 -379v-473z" />
    <glyph glyph-name="aacute.ss01" horiz-adv-x="1058" 
d="M496 193q37 0 60.5 23.5t23.5 57.5q0 88 -88 88q-31 0 -56.5 -25.5t-25.5 -59.5t24.5 -59t61.5 -25zM938 31q0 -12 -9 -21.5t-22 -9.5h-200q-18 0 -40 11.5t-30 27.5l-31 61q-37 -51 -100.5 -83.5t-132.5 -32.5q-166 0 -242 80.5t-76 203.5t91.5 196t254.5 73
q106 0 168 -21v35q0 72 -114 72q-59 0 -217 -23q-14 -2 -24.5 6t-10.5 19l-33 184q-6 31 29 39q0 -2 4 0t20.5 5t36 6t49 7t73.5 10.5t142 6.5q406 0 414 -379v-473zM395 977q-29 -18 -47 6l-37 55q-12 23 8 45l289 318q23 25 47 -4l99 -150q16 -27 -9 -45z" />
    <glyph glyph-name="abreve.ss01" horiz-adv-x="1058" 
d="M496 193q37 0 60.5 23.5t23.5 57.5q0 88 -88 88q-31 0 -56.5 -25.5t-25.5 -59.5t24.5 -59t61.5 -25zM938 31q0 -12 -9 -21.5t-22 -9.5h-200q-18 0 -40 11.5t-30 27.5l-31 61q-37 -51 -100.5 -83.5t-132.5 -32.5q-166 0 -242 80.5t-76 203.5t91.5 196t254.5 73
q106 0 168 -21v35q0 72 -114 72q-59 0 -217 -23q-14 -2 -24.5 6t-10.5 19l-33 184q-6 31 29 39q0 -2 4 0t20.5 5t36 6t49 7t73.5 10.5t142 6.5q406 0 414 -379v-473zM526 1196q49 0 76 21.5t60 72.5q6 14 22 8l145 -61q16 -6 11 -20q-86 -217 -314.5 -217.5t-314.5 217.5
q-6 14 10 20l144 61q16 6 22 -8q33 -51 61.5 -72.5t77.5 -21.5z" />
    <glyph glyph-name="acircumflex.ss01" horiz-adv-x="1058" 
d="M496 193q37 0 60.5 23.5t23.5 57.5q0 88 -88 88q-31 0 -56.5 -25.5t-25.5 -59.5t24.5 -59t61.5 -25zM938 31q0 -12 -9 -21.5t-22 -9.5h-200q-18 0 -40 11.5t-30 27.5l-31 61q-37 -51 -100.5 -83.5t-132.5 -32.5q-166 0 -242 80.5t-76 203.5t91.5 196t254.5 73
q106 0 168 -21v35q0 72 -114 72q-59 0 -217 -23q-14 -2 -24.5 6t-10.5 19l-33 184q-6 31 29 39q0 -2 4 0t20.5 5t36 6t49 7t73.5 10.5t142 6.5q406 0 414 -379v-473zM260 1012v80q0 20 21 41l186 170q25 25 51 24h8q27 0 54 -24l188 -170q20 -20 20 -41v-80q1 -33 -38 -15
l-228 131l-223 -131q-39 -18 -39 15z" />
    <glyph glyph-name="adieresis.ss01" horiz-adv-x="1058" 
d="M496 193q37 0 60.5 23.5t23.5 57.5q0 88 -88 88q-31 0 -56.5 -25.5t-25.5 -59.5t24.5 -59t61.5 -25zM938 31q0 -12 -9 -21.5t-22 -9.5h-200q-18 0 -40 11.5t-30 27.5l-31 61q-37 -51 -100.5 -83.5t-132.5 -32.5q-166 0 -242 80.5t-76 203.5t91.5 196t254.5 73
q106 0 168 -21v35q0 72 -114 72q-59 0 -217 -23q-14 -2 -24.5 6t-10.5 19l-33 184q-6 31 29 39q0 -2 4 0t20.5 5t36 6t49 7t73.5 10.5t142 6.5q406 0 414 -379v-473zM684 1028q-47 0 -80 32t-33 78t33 77.5t80 31.5t79 -31.5t32 -77.5t-32 -78t-79 -32zM373 1028
q-47 0 -79 31t-32 78t32 78.5t79 31.5t78.5 -31.5t31.5 -77.5t-31.5 -78t-78.5 -32z" />
    <glyph glyph-name="agrave.ss01" horiz-adv-x="1058" 
d="M496 193q37 0 60.5 23.5t23.5 57.5q0 88 -88 88q-31 0 -56.5 -25.5t-25.5 -59.5t24.5 -59t61.5 -25zM938 31q0 -12 -9 -21.5t-22 -9.5h-200q-18 0 -40 11.5t-30 27.5l-31 61q-37 -51 -100.5 -83.5t-132.5 -32.5q-166 0 -242 80.5t-76 203.5t91.5 196t254.5 73
q106 0 168 -21v35q0 72 -114 72q-59 0 -217 -23q-14 -2 -24.5 6t-10.5 19l-33 184q-6 31 29 39q0 -2 4 0t20.5 5t36 6t49 7t73.5 10.5t142 6.5q406 0 414 -379v-473zM682 977l-350 225q-25 18 -8 45l98 150q25 29 47 4l289 -318q20 -23 8 -45l-37 -55q-18 -24 -47 -6z" />
    <glyph glyph-name="amacron.ss01" horiz-adv-x="1058" 
d="M496 193q37 0 60.5 23.5t23.5 57.5q0 88 -88 88q-31 0 -56.5 -25.5t-25.5 -59.5t24.5 -59t61.5 -25zM938 31q0 -12 -9 -21.5t-22 -9.5h-200q-18 0 -40 11.5t-30 27.5l-31 61q-37 -51 -100.5 -83.5t-132.5 -32.5q-166 0 -242 80.5t-76 203.5t91.5 196t254.5 73
q106 0 168 -21v35q0 72 -114 72q-59 0 -217 -23q-14 -2 -24.5 6t-10.5 19l-33 184q-6 31 29 39q0 -2 4 0t20.5 5t36 6t49 7t73.5 10.5t142 6.5q406 0 414 -379v-473zM324 1032q-33 0 -33 31v133q0 31 33 31h405q33 0 33 -31v-133q0 -31 -33 -31h-405z" />
    <glyph glyph-name="aogonek.ss01" horiz-adv-x="1058" 
d="M496 193q37 0 60.5 23.5t23.5 57.5q0 88 -88 88q-31 0 -56.5 -25.5t-25.5 -59.5t24.5 -59t61.5 -25zM524 883q406 0 414 -379v-473q0 -12 -9 -21.5t-22 -9.5h-106q-94 -111 -94 -211q0 -57 28 -67q10 -4 38 -3.5t91 39.5q18 14 31 0l25 -26q10 -14 4 -23
q-59 -139 -209 -139q-82 0 -140.5 45t-58.5 135q0 145 141 266q-14 10 -20 23l-31 61q-37 -51 -100.5 -83.5t-132.5 -32.5q-166 0 -242 80.5t-76 203.5t91.5 196t254.5 73q106 0 168 -21v35q0 72 -114 72q-59 0 -217 -23q-14 -2 -24.5 6t-10.5 19l-33 184q-6 31 29 39
q0 -2 4 0t20.5 5t36 6t49 7t73.5 10.5t142 6.5z" />
    <glyph glyph-name="aring.ss01" horiz-adv-x="1058" 
d="M496 193q37 0 60.5 23.5t23.5 57.5q0 88 -88 88q-31 0 -56.5 -25.5t-25.5 -59.5t24.5 -59t61.5 -25zM938 31q0 -12 -9 -21.5t-22 -9.5h-200q-18 0 -40 11.5t-30 27.5l-31 61q-37 -51 -100.5 -83.5t-132.5 -32.5q-166 0 -242 80.5t-76 203.5t91.5 196t254.5 73
q106 0 168 -21v35q0 72 -114 72q-59 0 -217 -23q-14 -2 -24.5 6t-10.5 19l-33 184q-6 31 29 39q0 -2 4 0t20.5 5t36 6t49 7t73.5 10.5t142 6.5q406 0 414 -379v-473zM524 1128q35 0 53.5 25t18.5 56.5t-18.5 56t-53.5 24.5q-66 0 -66 -81t66 -81zM525 967
q-101 0 -169.5 66.5t-68.5 177t68.5 177t169.5 66.5t172 -66.5t71 -177t-71 -177t-172 -66.5z" />
    <glyph glyph-name="atilde.ss01" horiz-adv-x="1058" 
d="M496 193q37 0 60.5 23.5t23.5 57.5q0 88 -88 88q-31 0 -56.5 -25.5t-25.5 -59.5t24.5 -59t61.5 -25zM938 31q0 -12 -9 -21.5t-22 -9.5h-200q-18 0 -40 11.5t-30 27.5l-31 61q-37 -51 -100.5 -83.5t-132.5 -32.5q-166 0 -242 80.5t-76 203.5t91.5 196t254.5 73
q106 0 168 -21v35q0 72 -114 72q-59 0 -217 -23q-14 -2 -24.5 6t-10.5 19l-33 184q-6 31 29 39q0 -2 4 0t20.5 5t36 6t49 7t73.5 10.5t142 6.5q406 0 414 -379v-473zM652 1024q-65 0 -126 30.5t-104 30.5q-99 0 -125 -45q-8 -12 -29 -4l-55 27q-37 13 45 117
q45 58 137.5 57.5t162 -31t109 -30.5t89.5 45q10 10 28 4l54 -23q16 -4 8 -24q-25 -68 -77 -111t-117 -43z" />
    <glyph glyph-name="ae.ss01" horiz-adv-x="1536" 
d="M497 193q36 0 62.5 22.5t26.5 58.5q0 88 -90 88q-35 0 -60.5 -26.5t-25.5 -60.5t25.5 -58t61.5 -24zM1118 553q0 98 -84 98t-80 -98h164zM1036 883q442 0 443 -547q0 -12 -9.5 -21.5t-21.5 -9.5h-490q29 -57 133.5 -57t149.5 24q33 14 43 -8l105 -155q18 -31 0 -43
q-127 -82 -312.5 -82t-318.5 104q-119 -104 -383 -104q-166 0 -243 79.5t-77 202.5t91.5 197t259.5 74q104 0 169 -19v33q0 72 -120.5 72t-216.5 -23q-14 -2 -24.5 6t-10.5 19l-33 184q-6 31 29 39h2q5 0 26 5t39 8t38 6q109 16 224 16q172 0 273 -68q108 68 235 68z" />
    <glyph glyph-name="b.ss01" horiz-adv-x="1079" 
d="M541 262q127 0 127 171t-121 171q-57 0 -73.5 -41t-16.5 -117t3 -106.5t22.5 -54t58.5 -23.5zM608 883q202 0 308 -126q106 -127 106 -321t-103.5 -323t-310.5 -129q-117 0 -209 77l-14 -22q-18 -39 -61 -39h-195q-14 0 -23.5 9t-9.5 22v1386q0 33 33 33h315q31 0 31 -33
v-555q67 21 133 21z" />
    <glyph glyph-name="c.ss01" horiz-adv-x="995" 
d="M510 -16q-190 0 -322.5 128t-132.5 323.5t132 321.5t301.5 126t279 -85t150.5 -229q2 -10 -5.5 -21t-17.5 -13l-231 -37q-29 -6 -37 18l-9 21q-8 19 -15 31q-22 36 -79 36q-115 0 -114.5 -171t104.5 -171q98 0 113 80q4 27 32 23l234 -37q32 -5 27 -37
q-27 -145 -143.5 -226t-266.5 -81z" />
    <glyph glyph-name="cacute.ss01" horiz-adv-x="995" 
d="M510 -16q-190 0 -322.5 128t-132.5 323.5t132 321.5t301.5 126t279 -85t150.5 -229q2 -10 -5.5 -21t-17.5 -13l-231 -37q-29 -6 -37 18l-9 21q-8 19 -15 31q-22 36 -79 36q-115 0 -114.5 -171t104.5 -171q98 0 113 80q4 27 32 23l234 -37q32 -5 27 -37
q-27 -145 -143.5 -226t-266.5 -81zM389 977q-29 -18 -47 6l-37 55q-12 23 8 45l289 318q23 25 47 -4l99 -150q16 -27 -9 -45z" />
    <glyph glyph-name="ccaron.ss01" horiz-adv-x="995" 
d="M510 -16q-190 0 -322.5 128t-132.5 323.5t132 321.5t301.5 126t279 -85t150.5 -229q2 -10 -5.5 -21t-17.5 -13l-231 -37q-29 -6 -37 18l-9 21q-8 19 -15 31q-22 36 -79 36q-115 0 -114.5 -171t104.5 -171q98 0 113 80q4 27 32 23l234 -37q32 -5 27 -37
q-27 -145 -143.5 -226t-266.5 -81zM784 1307v-80q0 -20 -20 -41l-189 -170q-27 -25 -53 -25h-8q-27 0 -51 25l-187 170q-20 20 -20 41v80q0 33 39 14l223 -131l227 131q39 18 39 -14z" />
    <glyph glyph-name="ccedilla.ss01" horiz-adv-x="995" 
d="M707 -231q0 -186 -234 -187q-51 0 -103 26q-77 39 -61 70l66 70q10 10 26 -2q27 -27 70 -27q59 0 59 54q0 29 -17 43t-39 -6t-48 -13l-90 27q-14 4 -10 20l65 154q-150 37 -243 155.5t-93 280.5q0 197 132 323t301.5 126t279 -85t150.5 -229q2 -10 -5.5 -21t-17.5 -13
l-231 -37q-29 -6 -37 18l-9 21q-8 19 -15 31q-22 36 -79 36q-115 0 -114.5 -171t104.5 -171q98 0 113 80q4 27 32 23l234 -37q32 -5 27 -37q-25 -133 -125.5 -213t-235.5 -92l-22 -54q72 2 121 -40t49 -123z" />
    <glyph glyph-name="cdotaccent.ss01" horiz-adv-x="995" 
d="M510 -16q-190 0 -322.5 128t-132.5 323.5t132 321.5t301.5 126t279 -85t150.5 -229q2 -10 -5.5 -21t-17.5 -13l-231 -37q-29 -6 -37 18l-9 21q-8 19 -15 31q-22 36 -79 36q-115 0 -114.5 -171t104.5 -171q98 0 113 80q4 27 32 23l234 -37q32 -5 27 -37
q-27 -145 -143.5 -226t-266.5 -81zM520.5 999q-57.5 0 -97.5 39t-40 96.5t40 97.5t97.5 40t97 -40t39.5 -97.5t-39.5 -96.5t-97 -39z" />
    <glyph glyph-name="d.ss01" horiz-adv-x="1079" 
d="M527 262q52 0 74 40t22 130t-21.5 131t-74 41t-85 -51t-32.5 -121t32.5 -120t84.5 -50zM952 1450q29 0 29 -33v-1386q0 -31 -29 -31h-196q-43 0 -62 39l-14 24q-100 -80 -221 -79q-203 0 -303.5 129t-100.5 324.5t105.5 320.5t298.5 125q74 0 145 -27v561q0 14 9.5 23.5
t21.5 9.5h317z" />
    <glyph glyph-name="dcaron.ss01" horiz-adv-x="1558" 
d="M527 262q52 0 74 40t22 130t-21.5 131t-74 41t-85 -51t-32.5 -121t32.5 -120t84.5 -50zM1468 1403v-248q0 -127 -85 -233.5t-216 -180.5q-23 -12 -32.5 16t12.5 40q113 72 151.5 142.5t38.5 176.5l-159 55q-35 14 -35 35v197q0 31 33 31h260q32 0 32 -31zM952 1450
q29 0 29 -33v-1386q0 -31 -29 -31h-196q-43 0 -62 39l-14 24q-100 -80 -221 -79q-203 0 -303.5 129t-100.5 324.5t105.5 320.5t298.5 125q74 0 145 -27v561q0 14 9.5 23.5t21.5 9.5h317z" />
    <glyph glyph-name="dcroat.ss01" horiz-adv-x="1171" 
d="M527 262q52 0 74 40t22 130t-21.5 131t-74 41t-85 -51t-32.5 -121t32.5 -120t84.5 -50zM1098 1282q33 0 32 -31v-159q0 -31 -32 -31h-117v-1030q0 -31 -29 -31h-196q-43 0 -62 39l-14 24q-100 -80 -221 -79q-203 0 -303.5 129t-100.5 324.5t105.5 320.5t298.5 125
q74 0 145 -27v205h-112q-33 0 -33 31v159q0 31 33 31h112v135q0 14 9.5 23.5t21.5 9.5h317q29 0 29 -33v-135h117z" />
    <glyph glyph-name="e.ss01" horiz-adv-x="999" 
d="M500 651q-84 0 -80 -98h164q0 98 -84 98zM557.5 248q104.5 0 149.5 24q33 14 43 -8l104 -155q18 -31 0 -43q-127 -82 -321.5 -82t-336 127t-141.5 320.5t134.5 322.5t312.5 129q442 0 442 -547q0 -12 -9 -21.5t-22 -9.5h-489q29 -57 133.5 -57z" />
    <glyph glyph-name="eacute.ss01" horiz-adv-x="999" 
d="M500 651q-84 0 -80 -98h164q0 98 -84 98zM557.5 248q104.5 0 149.5 24q33 14 43 -8l104 -155q18 -31 0 -43q-127 -82 -321.5 -82t-336 127t-141.5 320.5t134.5 322.5t312.5 129q442 0 442 -547q0 -12 -9 -21.5t-22 -9.5h-489q29 -57 133.5 -57zM410 977q-29 -18 -48 6
l-36 55q-12 23 8 45l289 318q23 25 47 -4l98 -150q16 -27 -8 -45z" />
    <glyph glyph-name="ecaron.ss01" horiz-adv-x="999" 
d="M500 651q-84 0 -80 -98h164q0 98 -84 98zM557.5 248q104.5 0 149.5 24q33 14 43 -8l104 -155q18 -31 0 -43q-127 -82 -321.5 -82t-336 127t-141.5 320.5t134.5 322.5t312.5 129q442 0 442 -547q0 -12 -9 -21.5t-22 -9.5h-489q29 -57 133.5 -57zM805 1307v-80
q0 -20 -21 -41l-188 -170q-27 -25 -53 -25h-8q-27 0 -52 25l-186 170q-20 20 -21 41v80q0 33 39 14l224 -131l227 131q39 18 39 -14z" />
    <glyph glyph-name="ecircumflex.ss01" horiz-adv-x="999" 
d="M500 651q-84 0 -80 -98h164q0 98 -84 98zM557.5 248q104.5 0 149.5 24q33 14 43 -8l104 -155q18 -31 0 -43q-127 -82 -321.5 -82t-336 127t-141.5 320.5t134.5 322.5t312.5 129q442 0 442 -547q0 -12 -9 -21.5t-22 -9.5h-489q29 -57 133.5 -57zM274 1012v80q0 20 21 41
l186 170q25 25 51 24h9q27 0 53 -24l188 -170q20 -20 21 -41v-80q0 -33 -39 -15l-227 131l-224 -131q-39 -18 -39 15z" />
    <glyph glyph-name="edieresis.ss01" horiz-adv-x="999" 
d="M500 651q-84 0 -80 -98h164q0 98 -84 98zM557.5 248q104.5 0 149.5 24q33 14 43 -8l104 -155q18 -31 0 -43q-127 -82 -321.5 -82t-336 127t-141.5 320.5t134.5 322.5t312.5 129q442 0 442 -547q0 -12 -9 -21.5t-22 -9.5h-489q29 -57 133.5 -57zM698 1028q-47 0 -79.5 32
t-32.5 78t32.5 77.5t79.5 31.5t79 -31.5t32 -77.5t-32 -78t-79 -32zM387 1028q-47 0 -79 31t-32 78t32 78.5t79 31.5t79 -31.5t32 -77.5t-32 -78t-79 -32z" />
    <glyph glyph-name="edotaccent.ss01" horiz-adv-x="999" 
d="M500 651q-84 0 -80 -98h164q0 98 -84 98zM557.5 248q104.5 0 149.5 24q33 14 43 -8l104 -155q18 -31 0 -43q-127 -82 -321.5 -82t-336 127t-141.5 320.5t134.5 322.5t312.5 129q442 0 442 -547q0 -12 -9 -21.5t-22 -9.5h-489q29 -57 133.5 -57zM540.5 999
q-57.5 0 -97.5 39t-40 96.5t40 97.5t97.5 40t97.5 -40t40 -97.5t-40 -96.5t-97.5 -39z" />
    <glyph glyph-name="egrave.ss01" horiz-adv-x="999" 
d="M500 651q-84 0 -80 -98h164q0 98 -84 98zM557.5 248q104.5 0 149.5 24q33 14 43 -8l104 -155q18 -31 0 -43q-127 -82 -321.5 -82t-336 127t-141.5 320.5t134.5 322.5t312.5 129q442 0 442 -547q0 -12 -9 -21.5t-22 -9.5h-489q29 -57 133.5 -57zM696 977l-350 225
q-25 18 -8 45l98 150q25 29 47 4l289 -318q20 -23 8 -45l-37 -55q-18 -24 -47 -6z" />
    <glyph glyph-name="emacron.ss01" horiz-adv-x="999" 
d="M500 651q-84 0 -80 -98h164q0 98 -84 98zM557.5 248q104.5 0 149.5 24q33 14 43 -8l104 -155q18 -31 0 -43q-127 -82 -321.5 -82t-336 127t-141.5 320.5t134.5 322.5t312.5 129q442 0 442 -547q0 -12 -9 -21.5t-22 -9.5h-489q29 -57 133.5 -57zM338 1032q-33 0 -33 31
v133q0 31 33 31h405q33 0 33 -31v-133q0 -31 -33 -31h-405z" />
    <glyph glyph-name="eogonek.ss01" horiz-adv-x="999" 
d="M584 553q0 98 -84 98t-80 -98h164zM502 883q442 0 442 -547q0 -12 -9 -21.5t-22 -9.5h-489q29 -57 133.5 -57t149.5 24q33 14 43 -8l104 -155q18 -31 0 -43q-115 -76 -279 -82q-80 -104 -79 -195q0 -57 28 -67q10 -4 38 -3.5t91 39.5q18 14 31 0l25 -26q10 -14 4 -23
q-59 -139 -209 -139q-82 0 -140.5 45t-58.5 135q0 127 119 246q-164 35 -266.5 152.5t-102.5 297t134.5 308.5t312.5 129z" />
    <glyph glyph-name="g.ss01" horiz-adv-x="1030" 
d="M504 604q-96 0 -96 -71.5t96 -71.5t96 71.5t-96 71.5zM502 883q131 0 235 -56h209q31 0 31 -32v-140q0 -18 -29 -30l-28 -11q12 -49 12 -77q0 -145 -121 -250t-307 -105q-57 0 -88 2q-20 -4 -6 -28q12 -16 36 -17h234q143 0 220 -81t77 -222q0 -301 -377 -301h-207
q-180 0 -243.5 60.5t-63.5 179.5q0 23 5 31t28 8h262q16 0 20 -25q0 -2 13 -2h186q20 0 34.5 14.5t14.5 36.5q0 49 -39 49h-248q-262 0 -307 209q-16 84 8.5 156t73.5 117q-61 90 -61 176q0 141 119 239.5t307 98.5z" />
    </font>
</defs>
</svg>
