<?xml version="1.0" standalone="no"?>
<!DOCTYPE svg PUBLIC "-//W3C//DTD SVG 1.1//EN" "http://www.w3.org/Graphics/SVG/1.1/DTD/svg11.dtd" >
<svg xmlns="http://www.w3.org/2000/svg">
<metadata>
Created by FontPrep 20130207 at Tue Apr  4 15:34:41 2017
 By Tina Muller
Copyright 2016 by Paulo Goode. All rights reserved.
</metadata>
<defs>
<font id="5f189ac00a67221751b554108ab168c7" horiz-adv-x='1024' >
  <font-face 
    font-family="WoodfordBournePRO-MediumItalic"
    font-weight="500"
    font-style="italic"
    font-stretch="normal"
    units-per-em="2048"
    panose-1="0 0 6 0 0 0 0 0 0 0"
    ascent="1638"
    descent="-410"
    x-height="866"
    cap-height="1434"
    bbox="-1415.88 -588 4944.57 1937"
    underline-thickness="102"
    underline-position="-102"
    slope="-9"
    unicode-range="U+0020-FB02"
  />
<missing-glyph horiz-adv-x="1822" 
d="M1057 651l194 -235q23 -25 -2 -49l-65 -56q-23 -23 -47 4l-199 234l-272 -236q-25 -23 -50 2l-55 68q-23 23 6 49l273 234l-197 235q-25 25 2 49l66 56q23 23 47 -5l198 -233l273 236q27 23 47 -3l57 -67q23 -27 -4 -49zM1227 -150h174l256 1620h-168q-31 0 -27 29
l25 143q2 27 29 27h356q12 0 21 -9t8 -22l-310 -1955q-4 -31 -32 -31h-357q-33 0 -26 29l22 143q2 26 29 26zM750 1470h-175l-256 -1620h168q31 0 27 -28l-25 -144q-2 -27 -28 -26h-357q-12 0 -21 9t-7 22l309 1955q4 31 33 31h356q33 0 27 -29l-23 -143q-1 -27 -28 -27z
" />
    <glyph glyph-name="fi" unicode="fi" horiz-adv-x="1083" 
d="M711 1450q190 0 307 -102q27 -20 8 -45l-72 -78q-18 -20 -41 -4q-68 61 -166 61t-159 -61t-78 -174l-29 -181h516q13 0 21 -9t6 -21l-127 -813q-6 -23 -27 -23h-151q-12 0 -22 11q-9 11 -7 24l105 663h-342l-134 -850q-4 -29 -28 -28h-156q-10 0 -18 10t-6 20l133 848
h-90q-10 0 -18 10t-7 19l16 111q4 29 31 28h96l31 203q59 381 408 381z" />
    <glyph glyph-name="fl" unicode="fl" horiz-adv-x="1083" 
d="M1090 1450q12 0 20 -9t6 -22l-221 -1390q-4 -29 -29 -29h-151q-12 0 -21 9q-8 9 -6 22l164 1042q8 92 -22 137t-120 45t-138 -63q-50 -63 -70 -191l-21 -135h174q11 0 21 -9t8 -21l-16 -109q-4 -29 -33 -29h-182l-134 -850q-4 -29 -28 -28h-156q-10 0 -18 10t-6 20
l133 848h-90q-10 0 -18 10t-7 19l16 111q4 29 31 28h96l25 162q31 203 130 296t267 93q127 0 199 -82l14 86q4 29 31 29h152z" />
    <glyph glyph-name="f_f" unicode="ff" horiz-adv-x="1380" 
d="M823 866l15 97q23 145 -4 207t-121 62q-95 0 -145 -58q-50 -59 -68 -185l-19 -123h342zM1255 1282q-88 0 -132 -57t-62 -178l-29 -181h191q10 0 19 -9t7 -21l-18 -109q-4 -29 -29 -29h-198l-134 -850q-4 -29 -28 -28h-154q-12 0 -20 10t-6 20l133 848h-342l-134 -850
q-4 -29 -28 -28h-154q-12 0 -20 10t-6 20l133 848h-90q-10 0 -18 10t-7 21l18 109q4 29 29 28h96l23 156q57 371 410 371q158 0 229 -93q96 150 293 150q145 0 223 -61q25 -18 10 -43l-67 -82q-18 -23 -43 -9q-45 27 -95 27z" />
    <glyph glyph-name="f_f_i" unicode="ffi" horiz-adv-x="1634" 
d="M823 866l15 97q23 145 -4 207t-121 62q-95 0 -145 -58q-50 -59 -68 -185l-19 -123h342zM1298 1282q-98 0 -159 -61t-78 -174l-29 -181h516q12 0 20 -9t7 -21l-127 -813q-6 -23 -27 -23h-151q-12 0 -22 11q-9 11 -7 24l105 663h-342l-134 -850q-4 -29 -28 -28h-156
q-10 0 -18 10t-6 20l133 848h-342l-134 -850q-4 -29 -28 -28h-154q-12 0 -20 10t-6 20l133 848h-90q-10 0 -18 10t-7 21l18 109q4 29 29 28h96l23 156q57 371 410 371q158 0 231 -95q104 152 326 152q190 0 307 -102q27 -20 8 -45l-72 -78q-18 -20 -41 -4q-68 61 -166 61z
" />
    <glyph glyph-name="f_f_l" unicode="ffl" horiz-adv-x="1632" 
d="M823 866l15 97q23 145 -4 207t-121 62q-95 0 -145 -58q-50 -59 -68 -185l-19 -123h342zM1640 1450q12 0 20 -9t7 -22l-221 -1390q-4 -29 -29 -29h-151q-12 0 -21 9q-8 9 -6 22l164 1042q8 92 -22 137q-29 45 -119 45t-140 -63t-69 -191l-21 -135h174q12 0 22 -9t7 -21
l-16 -109q-4 -29 -33 -29h-182l-134 -850q-4 -29 -28 -28h-156q-10 0 -18 10t-6 20l133 848h-342l-134 -850q-4 -29 -28 -28h-154q-12 0 -20 10t-6 20l133 848h-90q-10 0 -18 10t-7 21l18 109q4 29 29 28h96l23 156q57 371 410 371q166 0 239 -107q98 131 301 131
q127 0 199 -82l14 86q4 29 31 29h151z" />
    <glyph glyph-name=".notdef" horiz-adv-x="1822" 
d="M1057 651l194 -235q23 -25 -2 -49l-65 -56q-23 -23 -47 4l-199 234l-272 -236q-25 -23 -50 2l-55 68q-23 23 6 49l273 234l-197 235q-25 25 2 49l66 56q23 23 47 -5l198 -233l273 236q27 23 47 -3l57 -67q23 -27 -4 -49zM1227 -150h174l256 1620h-168q-31 0 -27 29
l25 143q2 27 29 27h356q12 0 21 -9t8 -22l-310 -1955q-4 -31 -32 -31h-357q-33 0 -26 29l22 143q2 26 29 26zM750 1470h-175l-256 -1620h168q31 0 27 -28l-25 -144q-2 -27 -28 -26h-357q-12 0 -21 9t-7 22l309 1955q4 31 33 31h356q33 0 27 -29l-23 -143q-1 -27 -28 -27z
" />
    <glyph glyph-name=".null" 
 />
    <glyph glyph-name="nonmarkingreturn" horiz-adv-x="681" 
 />
    <glyph glyph-name="space" unicode=" " horiz-adv-x="444" 
 />
    <glyph glyph-name="exclam" unicode="!" horiz-adv-x="602" 
d="M236 -16q-49 0 -82 38t-24 87t46 79t86 31q49 0 81 -40t23 -88q-9 -47 -45 -77t-85 -30zM246 373q-29 0 -25 33l115 1013q4 31 31 31h186q33 0 27 -31l-205 -1016q-6 -31 -31 -30h-98z" />
    <glyph glyph-name="quotedbl" unicode="&#x22;" horiz-adv-x="772" 
d="M602 924q-29 0 -29 32l35 508q4 31 29 31h151q14 0 22 -9t3 -22l-129 -510q-6 -31 -29 -30h-53zM281 924q-29 0 -29 32l35 508q4 31 28 31h152q14 0 21 -9t4 -22l-130 -510q-6 -31 -28 -30h-53z" />
    <glyph glyph-name="numbersign" unicode="#" horiz-adv-x="1458" 
d="M899 575l68 367h-301l-68 -367h301zM1350 1112q31 0 30 -31v-108q0 -31 -30 -31h-187l-69 -367h143q33 0 33 -30v-109q0 -31 -35 -30h-180l-72 -375q-6 -31 -39 -31h-125q-35 0 -26 45l67 361h-303l-70 -375q-6 -31 -41 -31h-122q-37 0 -29 45l67 361h-149q-31 0 -31 30
v109q0 31 33 30h186l68 367h-145q-33 0 -33 31v108q0 31 33 31h182l59 307q6 31 39 31h137q29 0 21 -37l-60 -301h302l59 307q6 31 39 31h135q29 0 20 -37l-57 -301h150z" />
    <glyph glyph-name="dollar" unicode="$" horiz-adv-x="1228" 
d="M807.5 257.5q57.5 49.5 69.5 121.5t-26 123t-122 94l-63 -406q84 18 141.5 67.5zM518 1181q-55 -48 -64 -116t27.5 -114t118.5 -87l59 381q-86 -16 -141 -64zM584 -156h-111q-12 0 -21.5 9.5t-7.5 21.5l19 115q-233 33 -359 192q-20 25 -2 39l113 96q18 18 37 -2
q33 -41 97.5 -77.5t144.5 -51.5l75 482q-74 29 -109.5 45t-94 53t-85 71.5t-44 92t-7.5 125.5q23 150 143 262.5t318 130.5l19 111q8 31 32 30h111q14 0 22.5 -9t6.5 -24l-19 -114q213 -33 334 -176q16 -25 -4 -41l-109 -88q-20 -16 -43 2q-92 84 -209 106l-71 -448
q165 -62 259 -144q111 -98 81.5 -265t-148 -277.5t-319.5 -124.5l-19 -113q-4 -29 -30 -29z" />
    <glyph glyph-name="percent" unicode="%" horiz-adv-x="1894" 
d="M1434 143q92 0 140 85t66 202q18 116 21 182q2 66 -26 107t-85 41q-164 0 -215 -308t99 -309zM1423 -16q-162 0 -225 112t-23 362q40 249 132 355q91 107 251 107t224 -115t23 -363q-40 -248 -130 -353t-252 -105zM438 676q92 0 141 85q76 134 87 384q2 67 -26 107
t-85 40q-163 0 -215 -308t98 -308zM539 0q-14 0 -21 12q-6 12 2 27l791 1370q16 25 39 25h106q14 0 20 -10t-3 -25l-791 -1368q-16 -31 -43 -31h-100zM428 516q-162 0 -225 113t-23 361t131 356q92 106 252 106t223 -115q64 -115 24 -363t-130 -352q-90 -106 -252 -106z" />
    <glyph glyph-name="ampersand" unicode="&#x26;" horiz-adv-x="1378" 
d="M480 168q80 0 142 44t146 136q-154 178 -244 318q-182 -127 -207 -281q-16 -101 34 -159t129 -58zM704 1288q-52 0 -96 -41t-55 -108q-16 -98 53 -236q92 66 140 121t58 122q10 66 -18 104q-30 38 -82 38zM453 -16q-174 0 -272 114q-97 115 -66 291q20 115 97 210
t232 198q-100 184 -78 328q22 145 123 235t241 90t210 -85t48 -213t-97 -213q-76 -85 -201 -167q90 -139 217 -278q109 104 252 208q27 16 43 -6l64 -98q14 -25 -9 -43q-86 -53 -229 -193q88 -100 211 -217q23 -23 0 -39l-106 -94q-25 -23 -46 -2q-174 174 -202 207
q-59 -63 -109 -106t-141 -85q-90 -42 -182 -42z" />
    <glyph glyph-name="quotesingle" unicode="'" horiz-adv-x="450" 
d="M281 924q-29 0 -29 32l35 508q4 31 28 31h152q14 0 21 -9t4 -22l-130 -510q-6 -31 -28 -30h-53z" />
    <glyph glyph-name="parenleft" unicode="(" horiz-adv-x="761" 
d="M424 -209q-20 -16 -39 8q-107 143 -157 403t-9 516q41 257 156 489t272 403q20 20 39 2l105 -70q16 -25 2 -41q-131 -152 -229 -376t-126 -429q-72 -449 90 -794q12 -27 -2 -41z" />
    <glyph glyph-name="parenright" unicode=")" horiz-adv-x="763" 
d="M424 1612q20 16 39 -8q107 -142 157 -402t9 -517t-156 -489t-272 -403q-20 -20 -39 -2l-105 70q-16 25 -2 41q131 152 229 376q97 224 126 429q72 449 -91 794q-12 27 3 41z" />
    <glyph glyph-name="asterisk" unicode="*" horiz-adv-x="792" 
d="M489 1450h84q27 0 21 -25l-57 -194l4 -2l188 82q25 10 29 -17l14 -77q4 -25 -18 -31l-205 -33v-6l113 -146q14 -20 -11 -32l-76 -49q-23 -14 -32 8l-66 172h-4l-115 -176q-14 -20 -34 -4l-62 49q-20 16 -4 32l164 146l-2 6l-193 33q-23 6 -10 33l39 77q8 25 31 17
l168 -84l2 4l4 192q0 25 28 25z" />
    <glyph glyph-name="plus" unicode="+" horiz-adv-x="1107" 
d="M997 778q35 0 29 -33l-16 -92q-6 -31 -35 -30h-303l-49 -314q-6 -33 -37 -33h-111q-33 0 -26 35l49 312h-301q-35 0 -29 32l16 95q6 29 35 28h303l49 316q6 31 35 30h113q33 0 26 -32l-49 -314h301z" />
    <glyph glyph-name="comma" unicode="," horiz-adv-x="501" 
d="M141 219h154q33 0 27 -31l-29 -186q-16 -106 -97 -183t-192 -120q-20 -9 -28 17t18 36q92 39 140 93t61 135l-95 36q-25 8 -18 37l20 135q6 31 39 31z" />
    <glyph glyph-name="hyphen" unicode="-" horiz-adv-x="837" 
d="M156 379q-12 0 -21 9q-8 9 -6 20l14 98q4 27 31 26h516q10 0 20 -9t7 -19l-17 -98q-4 -27 -30 -27h-514z" />
    <glyph glyph-name="period" unicode="." horiz-adv-x="503" 
d="M109 0q-35 0 -29 31l24 155q6 33 37 33h154q35 0 29 -33l-25 -155q-6 -31 -37 -31h-153z" />
    <glyph glyph-name="slash" unicode="/" horiz-adv-x="649" 
d="M129 0h-102q-16 0 -23 10q-6 10 -2 23l573 1370q14 31 37 31h105q14 0 21 -10t1 -23l-573 -1370q-12 -31 -37 -31z" />
    <glyph glyph-name="zero" unicode="0" horiz-adv-x="1249" 
d="M580 180q160 0 246 133t130 418q49 258 7 390q-43 132 -203 132t-246 -134t-133 -414q-49 -253 -5 -389t204 -136zM558 -16q-251 0 -350 180t-39 560t210 553q151 173 401 173t349 -179t40 -562t-209 -554t-402 -171z" />
    <glyph glyph-name="one" unicode="1" horiz-adv-x="1038" 
d="M760 1434q12 0 21 -10t7 -21l-194 -1219h260q12 0 22 -9t7 -21l-21 -125q-4 -29 -31 -29h-743q-12 0 -21 9t-8 22l19 125q4 29 33 28h262l159 1008l-237 -119q-12 -4 -25 2q-12 6 -10 21l21 135q2 16 30 33l248 155q27 14 47 15h154z" />
    <glyph glyph-name="two" unicode="2" horiz-adv-x="1212" 
d="M1010 199q12 -1 21 -11t7 -22l-20 -137q-4 -29 -33 -29h-895q-12 0 -21 8t-8 21l19 112q0 16 14 31l582 547q229 213 250 336q33 199 -191 198q-141 0 -198 -62t-80 -136q-12 -25 -31 -25h-162q-26 0 -20 46t36 104t86 123q56 67 160 107t240 40h6q158 0 252 -65
q167 -115 127 -351q-12 -78 -49 -146t-64 -98t-75 -77l-541 -514h588z" />
    <glyph glyph-name="three" unicode="3" horiz-adv-x="1226" 
d="M760 1450q234 0 332 -113t71 -297q-37 -225 -248 -313q82 -29 139 -107q56 -79 30 -246t-162 -279t-365 -111q-131 0 -227 38q-163 64 -203 220q-16 61 -6 118q6 25 29 25h155q25 0 27 -29q-4 -78 56 -127t183 -49t207 65t100 179t-52 158q-69 45 -230 45h-78
q-12 0 -21 9t-8 21l23 138q4 29 33 28h71q303 0 334 224q27 207 -209 206q-117 0 -195 -50t-97 -128q-8 -27 -31 -26h-158q-29 0 -22 34q18 143 153 255t369 112z" />
    <glyph glyph-name="four" unicode="4" horiz-adv-x="1261" 
d="M371 500h411l107 657zM893 1434h225q12 0 22 -10t7 -21l-143 -903h114q10 0 20 -10t7 -21l-23 -139q-4 -29 -30 -29h-121l-43 -272q-4 -29 -29 -29h-164q-12 0 -20 9t-6 22l41 270h-635q-12 0 -22 9q-9 9 -7 22l20 117q0 10 13 28l739 938q17 19 35 19z" />
    <glyph glyph-name="five" unicode="5" horiz-adv-x="1228" 
d="M560 -16q-220 0 -341 98t-98 270q8 33 31 33h163q23 0 19 -29q-10 -70 50 -123t187 -53t212 80t103 202t-30 186q-83 114 -299 61q-88 -23 -154 -68q-12 -8 -67 4l-127 29q-25 6 -19 33l224 702q8 25 30 25h705q10 0 19 -10t8 -19l-23 -141q-4 -27 -29 -27l-561 -2
l-127 -379q208 106 403 53t251 -234q31 -102 8 -233q-35 -210 -176 -334q-142 -124 -362 -124z" />
    <glyph glyph-name="six" unicode="6" horiz-adv-x="1206" 
d="M585 180q117 0 197 81t100 217t-41 209q-60 73 -167 73t-195 -72t-105 -205t38 -218t173 -85zM705 940q205 0 310 -130t73 -344t-170 -348q-139 -134 -355 -134q-250 0 -350 189t-46 537t217 544t398 196q100 0 175 -36q127 -61 164 -203q15 -56 12 -107q-4 -31 -29 -31
h-137q-18 0 -29 27q-8 61 -50 107t-132 46q-276 0 -379 -489q123 176 328 176z" />
    <glyph glyph-name="seven" unicode="7" horiz-adv-x="1046" 
d="M270 1235q-12 0 -20 9t-6 20l22 141q4 29 29 29h803q18 0 27 -18t-1 -34l-780 -1359q-16 -23 -39 -23h-184q-15 0 -19 13t7 26l690 1196h-529z" />
    <glyph glyph-name="eight" unicode="8" horiz-adv-x="1212" 
d="M561 180q111 0 202 58t106 162q15 103 -46 168t-170 91q-131 -29 -219 -95t-103 -169t52 -159t178 -56zM739 1253q-104 0 -176 -55t-85 -149q-13 -95 36 -151t145 -77q240 55 267 226q16 92 -33 149q-50 57 -154 57zM760 1450q215 0 312 -116t69 -281q-18 -109 -85 -194
t-163 -136q99 -39 153 -131t35 -217q-27 -168 -167 -280q-140 -111 -372 -111t-342 120q-112 120 -83 295q18 119 98 207t197 131q-80 47 -121 137t-23 203q25 161 151 267t341 106z" />
    <glyph glyph-name="nine" unicode="9" horiz-adv-x="1202" 
d="M632 684q108 0 198 67t108 205q20 138 -34 222t-174 84t-205 -80t-104 -213t41 -209q62 -76 170 -76zM522 -16q-92 0 -165 28t-111 68q-111 118 -94 250q6 31 28 30h156q18 0 29 -28q4 -52 45 -102t129 -50q266 0 360 443q-104 -127 -313 -127t-311 136q-101 136 -66 351
t184 341q151 126 379 126t321 -171t46 -464q-74 -459 -221 -645t-396 -186z" />
    <glyph glyph-name="colon" unicode=":" horiz-adv-x="587" 
d="M150 0q-35 0 -29 31l24 155q6 33 37 33h154q35 0 29 -33l-25 -155q-6 -31 -37 -31h-153zM240 561q-35 0 -29 31l25 156q6 33 36 32h154q35 0 29 -32l-25 -156q-6 -31 -37 -31h-153z" />
    <glyph glyph-name="semicolon" unicode=";" horiz-adv-x="585" 
d="M182 219h154q32 0 26 -31l-28 -186q-16 -106 -97 -183t-192 -120q-19 -9 -27 17t17 36q92 39 140 93t61 135l-95 36q-25 8 -18 37l20 135q6 31 39 31zM238 561q-35 0 -29 31l24 156q6 33 37 32h154q35 0 29 -32l-25 -156q-6 -31 -37 -31h-153z" />
    <glyph glyph-name="less" unicode="&#x3c;" horiz-adv-x="1200" 
d="M440 702l609 -239q27 -12 14 -39l-49 -88q-14 -25 -45 -12l-781 315q-20 7 -18 29t12 73q2 20 27 29l876 336q29 10 37 -12l25 -90q6 -27 -25 -39z" />
    <glyph glyph-name="equal" unicode="=" horiz-adv-x="1146" 
d="M168 451q-12 0 -21 9q-8 9 -6 19l15 99q4 27 30 26h822q12 0 20 -9t6 -20l-14 -98q-4 -27 -31 -26h-821zM225 801q-12 0 -20 9t-6 19l14 99q4 27 31 26h821q12 0 20 -9t7 -19l-15 -99q-4 -27 -30 -26h-822z" />
    <glyph glyph-name="greater" unicode="&#x3e;" horiz-adv-x="1200" 
d="M846 705l-608 239q-27 12 -15 39l49 88q14 25 45 12l781 -315q20 -10 18 -30t-12 -72q-2 -20 -27 -29l-876 -336q-29 -10 -37 12l-25 90q-6 27 25 39z" />
    <glyph glyph-name="question" unicode="?" horiz-adv-x="1079" 
d="M394 -16q-48 0 -79 38t-21 84t44 74q35 28 81 29q46 0 77 -38q30 -38 22 -84q-8 -47 -42 -75t-82 -28zM698 1450q119 0 203 -35t123 -93q78 -116 53 -259q-22 -153 -149 -267q-47 -42 -73 -60t-112 -80t-130 -127t-66 -154q-8 -27 -27 -27h-141q-25 0 -23 45
q16 221 228 379q150 108 184 138q35 30 69 77t42 96q14 82 -38 132q-51 51 -149 51t-162 -34t-84 -62t-47 -70q-14 -20 -30 -17l-136 9q-25 6 -14 34q31 140 160 232t319 92z" />
    <glyph glyph-name="at" unicode="@" horiz-adv-x="1902" 
d="M901 145q207 0 256 299q8 76 7 136t-40 100q-39 39 -116 39q-117 0 -190 -82t-92 -211q-18 -129 22 -205t153 -76zM850 -16q-192 0 -272 132q-78 132 -48 330t147 318q116 120 292 119q176 0 248 -99l22 43q16 31 41 31h111q29 0 24 -31l-90 -571q-8 -51 12 -84
q19 -33 65 -33t85 36t51 118l90 567q14 80 -20 148q-35 68 -115 67l-530 2q-238 0 -416 -178t-228 -481q-33 -201 37 -385q12 -33 -14 -33h-149q-20 0 -36 16q-15 16 -20 39q-57 168 -24 387q57 354 295 576t559 223l536 -2q189 0 275 -111t59 -274l-98 -614
q-43 -264 -330 -265q-205 0 -254 146q-113 -137 -305 -137z" />
    <glyph glyph-name="A" unicode="A" horiz-adv-x="1331" 
d="M455 463h438l-121 549l-6 30zM854 1450q14 0 23 -20l337 -1395q6 -35 -26 -35h-154q-27 0 -30 27l-58 237h-608l-127 -239q-14 -25 -33 -25h-158q-18 0 -27 16.5t-1 32.5l772 1387q8 14 18 14h72z" />
    <glyph glyph-name="B" unicode="B" horiz-adv-x="1208" 
d="M627 197q96 0 166.5 56t89.5 173q31 199 -152 199h-325l-68 -428h289zM737 1237h-233l-70 -426h273q184 0 221 223q18 119 -30 161t-161 42zM672 0h-555q-12 0 -20.5 9t-6.5 22l217 1374q4 29 31 29h502q162 0 250 -106.5t56 -309.5t-183 -295q78 -39 115.5 -129
t19.5 -211q-27 -168 -143.5 -275.5t-282.5 -107.5z" />
    <glyph glyph-name="C" unicode="C" horiz-adv-x="1443" 
d="M745 -16q-307 0 -476 218t-120.5 522t278.5 515t523 211q152 0 279 -64.5t205 -185.5q16 -27 -9 -47l-102 -88q-10 -10 -27.5 -8t-25.5 16q-43 72 -130 125t-200 53q-213 0 -373.5 -159.5t-196.5 -381.5t69.5 -375t310.5 -153q240 0 415 199q20 25 45 0l90 -100
q25 -25 5 -50q-253 -247 -560 -247z" />
    <glyph glyph-name="D" unicode="D" horiz-adv-x="1335" 
d="M588 199q193 0 310.5 136t156.5 390t-30 382t-261 128h-262l-164 -1036h250zM580 0h-463q-12 0 -20.5 9t-6.5 22l217 1374q4 29 29 29h467q274 0 401 -188t71 -537t-237.5 -529t-457.5 -180z" />
    <glyph glyph-name="E" unicode="E" horiz-adv-x="1116" 
d="M936 199q12 0 20.5 -9.5t6.5 -19.5l-23 -143q-4 -27 -29 -27h-794q-12 0 -20.5 9t-6.5 22l217 1374q4 29 29 29h797q10 0 18 -9.5t6 -21.5l-22 -141q-4 -27 -27 -27h-606l-66 -420h416q12 0 20.5 -8t6.5 -21l-23 -141q-4 -27 -31 -27h-422l-65 -419h598z" />
    <glyph glyph-name="F" unicode="F" horiz-adv-x="1083" 
d="M1120 1434q10 0 19.5 -9.5t7.5 -21.5l-23 -139q-4 -29 -30 -29h-592l-74 -467h424q12 0 20.5 -8t6.5 -21l-23 -141q-4 -27 -31 -27h-430l-86 -542q-4 -29 -24 -29h-170q-10 0 -18.5 9t-6.5 22l217 1374q4 29 29 29h784z" />
    <glyph glyph-name="G" unicode="G" horiz-adv-x="1460" 
d="M1335 743q10 0 18.5 -9t6.5 -19l-86 -551q-6 -23 -19 -33q-78 -59 -222 -103t-288 -44q-285 0 -466 211t-131 530t291 522t519 203q160 0 283 -73.5t186 -176.5q16 -27 -4 -41l-112 -96q-29 -25 -47 8q-41 66 -125 124t-201 58q-203 0 -367.5 -162.5t-200.5 -380.5
t74 -374t304 -156t321 105l45 266h-215q-12 0 -20.5 9t-6.5 20l23 137q4 27 29 26h411z" />
    <glyph glyph-name="H" unicode="H" horiz-adv-x="1398" 
d="M1374 1434q29 0 25 -31l-219 -1374q-4 -29 -27 -29h-168q-29 0 -24 31l92 583h-650l-94 -587q-4 -27 -24 -27h-170q-29 0 -25 31l217 1374q4 29 27 29h170q29 0 24 -31l-94 -592h649l95 594q4 29 26 29h170z" />
    <glyph glyph-name="I" unicode="I" horiz-adv-x="528" 
d="M113 0q-27 0 -23 31l217 1374q4 29 27 29h172q27 0 22 -31l-217 -1374q-4 -29 -26 -29h-172z" />
    <glyph glyph-name="J" unicode="J" horiz-adv-x="960" 
d="M932 1434q12 0 21.5 -9.5t7.5 -23.5l-158 -987q-70 -430 -432 -430q-129 0 -217 67.5t-117 190.5q-6 31 10 39l117 55q29 12 45 -25q43 -123 164 -123q78 0 135 60.5t78 191.5l153 963q4 31 29 31h164z" />
    <glyph glyph-name="K" unicode="K" horiz-adv-x="1259" 
d="M285 0h-170q-29 0 -25 31l217 1374q4 29 27 29h170q29 0 24 -31l-100 -617l635 625q20 23 55 23h187q16 0 21 -16.5t-7 -28.5l-694 -672l473 -680q8 -10 3 -23.5t-22 -13.5h-184q-27 0 -45 31l-440 612l-101 -616q-4 -27 -24 -27z" />
    <glyph glyph-name="L" unicode="L" horiz-adv-x="1071" 
d="M913 199q29 0 25 -31l-23 -139q-4 -29 -28 -29h-770q-12 0 -20.5 9t-6.5 22l217 1374q4 29 27 29h170q29 0 24 -31l-190 -1204h575z" />
    <glyph glyph-name="M" unicode="M" horiz-adv-x="1669" 
d="M1485 1434h162q27 0 22 -31l-217 -1376q-4 -27 -27 -27h-168q-12 0 -20 9t-6 20l143 905l-551 -911q-12 -23 -28 -23h-35q-23 0 -37 35l-270 901l-144 -909q-4 -27 -26 -27h-168q-12 0 -19.5 9t-5.5 20l217 1376q4 29 29 29h147q31 0 39 -37l299 -1035l625 1047
q16 25 39 25z" />
    <glyph glyph-name="N" unicode="N" horiz-adv-x="1427" 
d="M1405 1434q10 0 18.5 -9.5t6.5 -21.5l-220 -1376q-4 -27 -26 -27h-135q-23 0 -41 33l-535 1005l-164 -1011q-4 -27 -24 -27h-170q-10 0 -18.5 9t-6.5 20l217 1376q4 29 29 29h141q25 0 41 -37l531 -989l159 997q4 29 27 29h170z" />
    <glyph glyph-name="O" unicode="O" horiz-adv-x="1597" 
d="M754 182q213 0 370.5 160t191.5 381t-69.5 374.5t-314.5 153.5t-370 -161.5t-193.5 -382t69 -373t316.5 -152.5zM737 -16q-297 0 -467 217t-123 524t276.5 516t526.5 209t466 -219t121 -525.5t-275.5 -514t-524.5 -207.5z" />
    <glyph glyph-name="P" unicode="P" horiz-adv-x="1150" 
d="M639 676q229 0 281 289q23 129 -21.5 200.5t-150.5 71.5h-246l-90 -561h227zM682 479h-299l-74 -452q-4 -27 -24 -27h-170q-12 0 -19.5 9t-5.5 20l217 1376q4 29 29 29h498q166 0 256 -127t51 -358.5t-168 -350.5t-291 -119z" />
    <glyph glyph-name="Q" unicode="Q" horiz-adv-x="1611" 
d="M754 182q213 0 370.5 160t191.5 381t-69.5 374.5t-314.5 153.5t-369.5 -162t-193.5 -382t68.5 -372.5t316.5 -152.5zM950 1450q297 0 466 -219.5t123 -516.5t-249 -495l133 -158q23 -20 0 -43l-110 -96q-25 -20 -41 4l-142 168q-186 -111 -393 -110q-297 0 -467 217
t-123 524t276.5 516t526.5 209z" />
    <glyph glyph-name="R" unicode="R" horiz-adv-x="1243" 
d="M713 702q219 0 264 279q41 254 -158 254h-317l-84 -533h295zM1036 0h-164q-25 0 -34 29l-166 477h-287l-76 -479q-4 -27 -26 -27h-166q-12 0 -20.5 9t-6.5 20l217 1376q4 29 29 29h579q147 0 231.5 -128t52.5 -323.5t-113.5 -305.5t-196.5 -145l164 -501q10 -31 -17 -31z
" />
    <glyph glyph-name="S" unicode="S" horiz-adv-x="1210" 
d="M565 -16q-315 0 -471 198q-20 25 -2 39l113 96q16 18 37 -2q41 -51 128 -93t195.5 -42t197.5 53.5t104 144.5t-47 149t-265 143q-72 29 -108.5 45t-92.5 52q-56 35 -84 71q-69 89 -51 217q25 164 162 279.5t367 115.5q285 0 438 -184q16 -25 -4 -41l-109 -88
q-20 -16 -43 2q-125 115 -295 114q-121 0 -199.5 -51t-91 -137t45 -135t196.5 -109q109 -41 166 -67.5t131 -78.5q142 -100 104 -302q-29 -164 -162 -276.5t-360 -112.5z" />
    <glyph glyph-name="T" unicode="T" horiz-adv-x="1206" 
d="M1241 1434q12 0 20.5 -9.5t6.5 -21.5l-21 -139q-4 -29 -30 -29h-375l-193 -1206q-4 -29 -26 -29h-168q-10 0 -18.5 9t-6.5 22l191 1204h-371q-10 0 -19.5 9t-7.5 22l23 139q4 29 28 29h967z" />
    <glyph glyph-name="U" unicode="U" horiz-adv-x="1376" 
d="M1372 1434q31 0 27 -31l-135 -807q-40 -253 -188 -426q-75 -88 -189.5 -137t-255.5 -49q-193 0 -311 91q-218 169 -160 533l133 797q6 29 31 29h165q29 0 25 -31l-131 -789q-31 -190 36.5 -311t226.5 -121t265.5 125t137.5 320l129 778q4 29 28 29h166z" />
    <glyph glyph-name="V" unicode="V" horiz-adv-x="1388" 
d="M1432 1434q14 0 23 -12.5t3 -24.5l-772 -1370q-14 -27 -35 -27h-69q-23 0 -27 29l-317 1376q-6 29 22 29h164q23 0 31 -29l221 -1016l557 1016q18 29 43 29h156z" />
    <glyph glyph-name="W" unicode="W" horiz-adv-x="1867" 
d="M1915 1434q14 0 21.5 -12.5t0.5 -28.5l-600 -1368q-14 -25 -30 -25h-78q-23 0 -29 27l-170 977l-471 -979q-12 -25 -31 -25h-82q-23 0 -24 27l-186 1368q-4 39 24 39h156q20 0 28 -27l115 -971l463 975q10 23 27 23h69q16 0 23 -29l176 -965l418 973q8 20 28 21h152z" />
    <glyph glyph-name="X" unicode="X" horiz-adv-x="1347" 
d="M1178 18q0 -18 -19 -18h-170q-29 0 -47 33l-242 520l-407 -526q-27 -27 -51 -27h-174q-18 0 -26.5 16.5t3.5 30.5l557 701l-305 647q-18 39 14 39h174q25 0 43 -33l220 -477l378 487q16 23 45 23h175q18 0 25 -16.5t-5 -33.5l-520 -655l328 -694q4 -9 4 -17z" />
    <glyph glyph-name="Y" unicode="Y" horiz-adv-x="1261" 
d="M1305 1434q16 0 24 -15.5t-2 -32.5l-569 -772l-96 -587q-4 -27 -27 -27h-166q-12 0 -20.5 8t-6.5 21l93 585l-295 785q-10 35 18 35h166q31 0 43 -33l209 -567l418 575q18 25 45 25h166z" />
    <glyph glyph-name="Z" unicode="Z" horiz-adv-x="1206" 
d="M297 1235q-10 0 -18.5 9t-6.5 20l23 143q4 27 29 27h907q16 0 23.5 -18.5t-5.5 -33.5l-850 -1183h623q10 0 18.5 -9.5t6.5 -19.5l-23 -143q-4 -27 -27 -27h-925q-20 0 -29.5 16.5t2.5 32.5l852 1186h-600z" />
    <glyph glyph-name="bracketleft" unicode="[" horiz-adv-x="722" 
d="M729 1470h-174l-256 -1620h168q31 0 27 -28l-25 -144q-2 -27 -29 -26h-356q-12 0 -22 9q-9 9 -7 22l310 1955q4 31 32 31h357q33 0 26 -29l-22 -143q-2 -27 -29 -27z" />
    <glyph glyph-name="backslash" unicode="\" horiz-adv-x="1085" 
d="M829 0q-25 0 -36 31l-574 1370q-6 14 1 23t22 10h104q23 0 37 -31l573 -1370q4 -13 -2 -23t-22 -10h-103z" />
    <glyph glyph-name="bracketright" unicode="]" horiz-adv-x="722" 
d="M66 -150h174l256 1620h-168q-31 0 -27 29l25 143q2 27 28 27h357q12 0 21 -9t7 -22l-309 -1955q-4 -31 -33 -31h-356q-33 0 -27 29l23 143q2 26 29 26z" />
    <glyph glyph-name="asciicircum" unicode="^" horiz-adv-x="858" 
d="M827 1145h-57q-16 0 -35 31l-137 297l-229 -304q-18 -25 -39 -24h-70q-16 0 -20 12t6 27l295 428q18 27 34 26h87q20 0 30 -30l156 -426q12 -37 -21 -37z" />
    <glyph glyph-name="underscore" unicode="_" horiz-adv-x="1290" 
d="M53 -248q-29 0 -24 27l8 59q4 29 29 29h970q12 0 20 -8t7 -21l-8 -59q-4 -27 -29 -27h-973z" />
    <glyph glyph-name="grave" unicode="`" horiz-adv-x="700" 
d="M651 1292l-332 219q-23 16 -6 41l49 86q18 31 46 9l292 -277q20 -20 7 -41l-19 -31q-12 -22 -37 -6z" />
    <glyph glyph-name="a" unicode="a" horiz-adv-x="1040" 
d="M463 145q215 0 260 301q23 154 -19 214.5t-148 60.5t-180.5 -88t-94.5 -211t24.5 -200t157.5 -77zM954 858q12 0 20.5 -9t6.5 -22l-127 -798q-4 -29 -29 -29h-100q-23 0 -41 41l-4 59q-96 -115 -258 -116q-203 -2 -286 132t-53 324t150.5 316.5t311.5 126.5
q154 0 235 -99l23 47q14 27 41 27h110z" />
    <glyph glyph-name="b" unicode="b" horiz-adv-x="1032" 
d="M478 145q97 0 174 80t97.5 211t-21.5 208t-142 77t-173 -75t-94.5 -217t20.5 -213t139 -71zM625 883q193 0 273.5 -135.5t48.5 -327.5t-151.5 -314t-292.5 -122t-251 116l-27 -67q-14 -33 -43 -33h-98q-10 0 -18.5 9t-6.5 22l220 1390q4 29 28 29h156q29 0 24 -31
l-102 -635q105 99 240 99z" />
    <glyph glyph-name="c" unicode="c" horiz-adv-x="956" 
d="M451 -16q-193 0 -296.5 134t-71.5 324t169 315.5t323 125.5q217 0 312 -156q12 -23 -6 -35l-86 -69q-20 -12 -37 8q-66 90 -180.5 90t-196.5 -85t-100 -204t33 -203t165 -84q45 0 67.5 8.5t36 13.5t27.5 14q33 20 70 57t57 14l74 -78q14 -20 -2 -41q-51 -59 -148 -104
t-210 -45z" />
    <glyph glyph-name="d" unicode="d" horiz-adv-x="1032" 
d="M460 145q206 0 253 288t-144 288q-117 0 -192.5 -87t-95.5 -209t25.5 -201t153.5 -79zM1040 1450q29 0 25 -31l-219 -1390q-4 -29 -29 -29h-82q-27 0 -35 31l-20 55q-102 -102 -262 -102q-193 0 -280 132t-55 325t154.5 317.5t305.5 124.5q145 0 215 -90l100 628
q4 29 29 29h153z" />
    <glyph glyph-name="e" unicode="e" horiz-adv-x="993" 
d="M556 741q-95 0 -164.5 -66.5t-92.5 -164.5l424 2q14 106 -29 167.5t-138 61.5zM580.5 883q191.5 0 277.5 -130t47 -358q-4 -29 -31 -28l-600 -2q-2 -106 50.5 -168t164 -62t224.5 82q25 16 41 -6l39 -88q14 -23 -11 -45q-45 -39 -134 -66.5t-183 -27.5q-201 0 -307.5 130
t-75.5 327.5t169 319.5t329.5 122z" />
    <glyph glyph-name="f" unicode="f" horiz-adv-x="829" 
d="M675.5 1450q147.5 0 223.5 -61q25 -18 10 -43l-67 -82q-18 -23 -43 -9q-45 27 -94 27q-88 0 -132.5 -57.5t-62.5 -177.5l-29 -181h191q10 0 19 -9t7 -21l-18 -109q-4 -29 -29 -29h-198l-134 -850q-4 -29 -28 -28h-154q-12 0 -20 10t-6 20l133 848h-90q-10 0 -18.5 8.5
t-6.5 22.5l16 109q4 29 31 28h96l31 205q35 205 130 292t242.5 87z" />
    <glyph glyph-name="g" unicode="g" horiz-adv-x="1046" 
d="M473 145q211 0 257 288t-159 288q-119 0 -193.5 -85t-95.5 -210t24.5 -203t166.5 -78zM961 858q12 0 20 -9t6 -22l-137 -866q-31 -188 -157 -292.5t-310 -104.5q-135 0 -221 55t-123 139q-8 23 6 33l96 76q23 12 35 -10q20 -39 36.5 -61.5t59.5 -47t103 -24.5
q106 0 183 67.5t97 181.5l19 109q-98 -98 -258 -98q-197 0 -281 132t-52 325t152.5 317.5t296.5 124.5t246 -111l27 59q16 27 39 27h117z" />
    <glyph glyph-name="h" unicode="h" horiz-adv-x="1040" 
d="M639 883q154 0 236.5 -100.5t50.5 -295.5l-74 -458q-4 -29 -29 -29h-151q-10 0 -19.5 9t-7.5 22l76 477q33 213 -135 213q-90 0 -159 -57.5t-79 -120.5l-82 -514q-4 -29 -28 -29h-152q-12 0 -20.5 9t-6.5 22l220 1390q4 29 30 29h152q29 0 24 -31l-102 -635
q43 41 113.5 70t142.5 29z" />
    <glyph glyph-name="i" unicode="i" horiz-adv-x="487" 
d="M102 0q-10 0 -19 9t-7 22l127 807q4 29 30 28h152q13 0 21 -9t6 -21l-129 -807q-4 -29 -29 -29h-152zM349 1065q-50 0 -83 39q-34 39 -24 89t47 81t87 31t83 -40q33 -41 23 -91t-46 -80q-37 -30 -87 -29z" />
    <glyph glyph-name="j" unicode="j" horiz-adv-x="536" 
d="M-57 -436q-135 0 -204 62t-85 147q-6 23 10 32l129 50q23 10 31 -17q37 -113 123 -112q129 0 157 184l146 926q8 31 31 30h151q31 0 27 -30l-148 -930q-55 -342 -368 -342zM398 1063q-50 0 -83 39t-25 89t46 82q37 32 88 32t84 -40q34 -41 24 -91t-47 -80t-87 -31z" />
    <glyph glyph-name="k" unicode="k" horiz-adv-x="983" 
d="M918 866q23 0 21 -24q-1 -10 -11 -19l-389 -352l301 -440q8 -12 3 -21.5t-18 -9.5h-161q-27 0 -52 31l-278 399l-68 -401q-4 -29 -28 -29h-152q-31 0 -27 31l220 1390q4 29 30 29h152q31 0 26 -31l-145 -907l354 330q31 25 52 24h170z" />
    <glyph glyph-name="l" unicode="l" horiz-adv-x="454" 
d="M86 0q-12 0 -20.5 9t-6.5 22l220 1390q4 29 30 29h152q12 0 20 -9t6 -22l-221 -1390q-4 -29 -28 -29h-152z" />
    <glyph glyph-name="m" unicode="m" horiz-adv-x="1581" 
d="M1182 883q345 0 291 -371l-78 -483q-4 -29 -29 -29h-154q-10 0 -19 9t-7 22l78 483q31 207 -127 207q-88 0 -150.5 -57.5t-75.5 -128.5l-80 -506q-4 -29 -28 -29h-152q-12 0 -20 9t-6 22l73 471q18 111 -8 165t-113 54t-152 -57.5t-77 -126.5l-82 -508q-4 -29 -28 -29
h-152q-12 0 -20.5 9t-6.5 22l127 800q4 27 29 27h127q25 0 29 -33l8 -57q115 115 280.5 115t225.5 -133q123 133 297 133z" />
    <glyph glyph-name="n" unicode="n" horiz-adv-x="1054" 
d="M657 883q173 0 244.5 -95.5t46.5 -246.5l-80 -512q-4 -29 -28 -29h-152q-12 0 -20.5 9t-5.5 22l75 483q33 207 -131 207q-94 0 -171 -57.5t-87 -128.5l-82 -506q-4 -29 -28 -29h-152q-12 0 -20.5 9t-6.5 22l125 800q4 27 31 27h131q20 0 25 -33l10 -65q103 123 276 123z
" />
    <glyph glyph-name="o" unicode="o" horiz-adv-x="1024" 
d="M467.5 145q106.5 0 183 85t96 209t-29.5 203t-157 79t-187.5 -88t-98 -211t34 -200t159 -77zM449.5 -16q-191.5 0 -296 133t-74.5 323t168 316.5t330.5 126.5t296 -134.5t71.5 -324.5t-168 -315t-327.5 -125z" />
    <glyph glyph-name="p" unicode="p" horiz-adv-x="1024" 
d="M474 145q99 0 175 82t96 214t-27.5 206t-145 74t-166 -84t-89 -214t18.5 -204t138 -74zM628 883q178 0 260.5 -136.5t51.5 -328.5t-147.5 -313t-283.5 -121t-233 106l-77 -500q-4 -27 -31 -26h-152q-12 0 -20 9t-6 19l194 1239q4 27 31 27h88q27 0 39 -33l14 -59
q94 117 272 117z" />
    <glyph glyph-name="q" unicode="q" horiz-adv-x="1015" 
d="M441 145q101 0 168 79t88 214q44 283 -144 283q-111 0 -183.5 -89t-90.5 -209t21.5 -199t140.5 -79zM932 866q10 0 18 -9t6 -21l-196 -1246q-4 -27 -29 -26h-153q-10 0 -18.5 9t-6.5 19l80 492q-82 -100 -232 -100q-193 0 -271.5 131t-46.5 326t144.5 318.5t287.5 123.5
t239 -115l34 68q20 31 48 30h96z" />
    <glyph glyph-name="r" unicode="r" horiz-adv-x="737" 
d="M238 0h-152q-12 0 -20.5 9t-6.5 22l125 800q4 27 31 27h88q20 0 33 -33l18 -63q111 121 238 121q96 0 137 -41q14 -16 4 -33l-63 -100q-8 -18 -46 -2.5t-79 16.5q-80 0 -134.5 -65.5t-68.5 -153.5l-76 -475q-4 -29 -28 -29z" />
    <glyph glyph-name="s" unicode="s" horiz-adv-x="817" 
d="M327.5 -16q-186.5 0 -292.5 118q-20 25 -6 41l57 72q16 18 41 -2q86 -80 225 -80q72 0 115 32t47 81t-25.5 71.5t-104.5 47.5t-114 41t-83 48q-84 60 -60.5 179t113.5 184.5t247.5 65.5t255.5 -90q18 -18 9 -35l-60 -78q-16 -16 -35 -4q-92 57 -170 57q-139 0 -159 -100
q-17 -77 97 -113q48 -16 67.5 -22t47 -16.5t44 -18.5t38 -19.5t34 -22.5t26.5 -25q50 -51 32.5 -158.5t-109 -180.5t-278 -73z" />
    <glyph glyph-name="t" unicode="t" horiz-adv-x="763" 
d="M143 698q-10 0 -19 9.5t-7 19.5l18 111q4 29 31 28h88l35 217q4 29 28 29h154q10 0 18.5 -9t6.5 -22l-33 -215h192q12 0 20.5 -9t6.5 -21l-16 -111q-4 -27 -31 -27h-199l-67 -424q-10 -68 4 -95t71.5 -27t118.5 51q18 10 29 -10l43 -97q10 -23 -12 -35q-109 -76 -263 -75
q-242 0 -200 288l67 424h-84z" />
    <glyph glyph-name="u" unicode="u" horiz-adv-x="1044" 
d="M958 866q12 0 20.5 -9t6.5 -21l-129 -809q-4 -27 -25 -27h-110q-23 0 -35 31l-20 73q-41 -53 -113 -86.5t-143 -33.5q-180 0 -254 98t-47 268l77 488q4 29 31 28h152q12 0 20 -9t6 -21l-76 -484q-35 -209 148 -209q90 0 153.5 59.5t75.5 131.5l80 504q4 29 31 28h151z
" />
    <glyph glyph-name="v" unicode="v" horiz-adv-x="976" 
d="M969 866q14 0 19 -13t-3 -26l-500 -798q-18 -29 -32 -29h-60q-16 0 -24 31l-250 800q-10 35 24 35h148q20 0 28 -30l148 -529l313 529q18 31 37 30h152z" />
    <glyph glyph-name="w" unicode="w" horiz-adv-x="1345" 
d="M1317 866q14 0 19 -12t-1 -25l-403 -804q-14 -25 -29 -25h-94q-23 0 -27 27l-88 546l-258 -548q-10 -25 -28 -25h-93q-23 0 -26 27l-152 809q-4 31 25 30h147q25 0 29 -26l76 -525l250 527q10 25 28 24h82q20 0 25 -26l88 -525l235 525q10 27 33 26h162z" />
    <glyph glyph-name="x" unicode="x" horiz-adv-x="925" 
d="M195 0h-158q-14 0 -19.5 14.5t7.5 30.5l331 393l-200 387q-8 18 -3 29.5t21 11.5h143q18 0 33 -30l127 -246l205 246q27 31 45 30h158q14 0 20 -15t-6 -30l-336 -403l199 -381q6 -12 2 -24.5t-21 -12.5h-141q-20 0 -35 31l-125 239l-200 -241q-25 -29 -47 -29z" />
    <glyph glyph-name="y" unicode="y" horiz-adv-x="1056" 
d="M1042 866q14 0 20.5 -11t-1.5 -28l-780 -1171q-18 -25 -35 -25h-160q-14 0 -18.5 12.5t4.5 28.5l295 434l-244 725q-12 35 24 35h144q20 0 28 -30l177 -531l358 537q14 25 31 24h157z" />
    <glyph glyph-name="z" unicode="z" horiz-adv-x="829" 
d="M195 705q-29 0 -29 30l16 101q0 12 10.5 21t22.5 9h565q16 0 22.5 -17.5t-3.5 -31.5l-471 -655h315q12 0 20.5 -10.5t6.5 -22.5l-15 -100q-4 -29 -32 -29h-576q-14 0 -21.5 15.5t3.5 31.5l475 658h-309z" />
    <glyph glyph-name="braceleft" unicode="{" horiz-adv-x="851" 
d="M598 -152q10 0 18 -8t7 -18l-23 -148q-4 -25 -29 -24h-114q-104 0 -158 68q-53 69 -31 216l86 533q6 43 -21 69q-28 26 -52 25h-56q-12 0 -19 9t-5 20l20 141q4 27 27 27h61q29 0 63 22t42 72l86 545q27 154 93 213q67 59 175 59h119q10 0 18 -8t6 -19l-22 -147
q-4 -25 -29 -25h-57q-33 0 -58 -26q-24 -26 -30 -60l-88 -559q-12 -77 -47 -115t-125 -51q139 -23 114 -190l-86 -547q-4 -31 12 -51t50 -23h53z" />
    <glyph glyph-name="bar" unicode="|" horiz-adv-x="444" 
d="M78 -238q-12 0 -20 8t-7 21l293 1843q6 35 35 35h78q31 0 24 -35l-293 -1843q-4 -29 -32 -29h-78z" />
    <glyph glyph-name="braceright" unicode="}" horiz-adv-x="849" 
d="M379 1470h-53q-10 0 -18 8t-7 19l23 148q4 25 28 24h115q104 0 158 -68q53 -69 30 -217l-86 -532q-6 -43 22 -69t52 -25h55q12 0 20 -9t5 -20l-21 -141q-4 -27 -26 -27h-62q-28 1 -62 -21t-42 -73l-86 -545q-28 -154 -94 -213t-174 -59h-119q-10 0 -19 8q-8 8 -6 18
l23 148q4 25 28 24h58q32 0 62 32q19 22 26 54l88 560q12 76 47 114t125 51q-139 23 -115 191l86 547q4 31 -12 52q-17 21 -49 21z" />
    <glyph glyph-name="asciitilde" unicode="~" horiz-adv-x="1118" 
d="M763 594q-99 0 -181 42t-132 42q-89 0 -171 -61q-33 -23 -46 -25t-28 14l-25 41q-36 48 91 130q83 54 181 54q98 1 182 -41q83 -42 131 -42t84 16t70 40t51 30t31 -13l29 -45q30 -43 -98 -133q-70 -49 -169 -49z" />
    <glyph glyph-name="exclamdown" unicode="&#xa1;" horiz-adv-x="604" 
d="M358 494q29 0 25 -33l-115 -1014q-2 -31 -30 -31h-187q-33 0 -26 31l204 1016q6 31 31 31h98zM369 883q49 0 82 -38t23 -87t-46 -80q-37 -31 -86 -31t-81 40q-33 40 -23 88t46 78t85 30z" />
    <glyph glyph-name="cent" unicode="&#xa2;" horiz-adv-x="966" 
d="M338 581.5q-45 -69.5 -57 -151.5t9 -150.5t77 -103.5l86 512q-70 -37 -115 -106.5zM451 -156h-105q-12 0 -21.5 9.5t-7.5 21.5l21 123q-141 39 -212 163t-43 285.5t136.5 279.5t263.5 148l19 117q8 31 33 31h106q33 0 29 -33l-19 -112q160 -23 236 -150q12 -23 -6 -35
l-86 -69q-20 -12 -37 8q-57 76 -133 88l-95 -569q78 16 164 102q23 23 43 0l74 -78q14 -20 -2 -41q-45 -51 -127 -93t-180 -54l-19 -113q-4 -29 -32 -29z" />
    <glyph glyph-name="sterling" unicode="&#xa3;" horiz-adv-x="1175" 
d="M991 197q11 1 21 -9t8 -22l-21 -135q-8 -31 -32 -31h-873q-12 0 -21 9t-7 22l16 110q4 31 29 31h4q41 0 83 70t56 151l35 228h-105q-12 0 -20 9t-6 21l20 135q8 31 33 31h108l29 170q35 217 141 341t328 124q153 0 225 -62t113 -180q4 -27 -12 -34l-137 -37
q-27 -14 -37 14q-43 100 -164 100q-193 0 -236 -280l-26 -156h295q12 0 20 -10t6 -23l-20 -135q0 -12 -10 -20t-23 -8h-299l-39 -242q-20 -127 -70 -182h588z" />
    <glyph glyph-name="currency" unicode="&#xa4;" horiz-adv-x="1089" 
d="M552 489q91 0 168 67t92 158q15 90 -41 156t-146 66t-168 -66t-92 -158q-14 -91 41 -157t146 -66zM534 334q-108 0 -186 55l-74 -74q-16 -18 -36 -2l-84 78q-18 18 2 39l84 88q-47 88 -30 196t89 195l-57 80q-14 23 6 41l104 76q23 16 39 -4l49 -66q96 56 204 56t190 -56
l67 70q20 18 41 2l82 -76q18 -23 -4 -43l-82 -84q43 -83 28 -193t-89 -194l57 -86q16 -20 -4 -39l-109 -78q-23 -16 -37 7l-51 67q-91 -55 -199 -55z" />
    <glyph glyph-name="yen" unicode="&#xa5;" horiz-adv-x="1282" 
d="M1315 1434q16 0 24.5 -15.5t-2.5 -32.5l-483 -655h102q29 0 25 -31l-10 -71q-4 -29 -31 -29h-174l-27 -162h168q12 0 20.5 -9t6.5 -21l-12 -74q-4 -27 -29 -27h-176l-45 -280q-4 -27 -27 -27h-166q-12 0 -20 8t-6 21l43 278h-170q-12 0 -20.5 8.5t-6.5 20.5l12 74
q4 29 29 28h176l27 162h-168q-12 0 -20.5 9t-6.5 22l12 71q4 29 29 29h113l-252 668q-10 35 18 35h166q31 0 43 -33l209 -567l418 575q18 25 45 25h166z" />
    <glyph glyph-name="brokenbar" unicode="&#xa6;" horiz-adv-x="444" 
d="M78 -238q-12 0 -20 8t-7 21l113 709q6 35 35 35h77q31 0 25 -35l-113 -709q-4 -29 -32 -29h-78zM258 897q-12 0 -20 8t-7 21l113 708q6 35 35 35h78q31 0 24 -35l-112 -708q-4 -29 -33 -29h-78z" />
    <glyph glyph-name="section" unicode="&#xa7;" horiz-adv-x="1118" 
d="M520 797q-150 -47 -170 -187q-16 -105 111 -151q79 -27 198 -47q57 16 105 64q47 48 55 102t3 78q-5 26 -28 44q-24 18 -43 32q-41 30 -231 65zM719 1450q217 0 375 -135q16 -18 -2 -37l-105 -96q-16 -16 -33 -2q-111 88 -242 88t-193 -42t-70 -107t44 -103t179 -68
q190 -39 287 -120t73 -228q-10 -74 -59 -150t-137 -120q123 -90 99 -232t-148 -248q-124 -104 -347 -104q-260 0 -391 162q-14 10 2 31l107 98q18 16 35 0q86 -109 276 -109q96 0 171 40t87 117t-38 110t-185 63q-211 45 -296 128t-69 210q27 188 213 278q-137 94 -112 248
q20 128 141 228t338 100z" />
    <glyph glyph-name="dieresis" unicode="&#xa8;" horiz-adv-x="673" 
d="M627 1380q-35 0 -57 25t-16 55q11 63 75 66q35 0 55 -26t14 -60q-12 -60 -71 -60zM367 1380q-35 0 -57 25t-16 55t27 48t53 18t52 -26t14 -60q-12 -60 -73 -60z" />
    <glyph glyph-name="copyright" unicode="&#xa9;" horiz-adv-x="1708" 
d="M899 281q-172 1 -267 117t-95 319t95 321t267 117q260 0 320 -248q6 -33 -23 -41l-84 -14q-29 -6 -39 29q-37 143 -176 143q-107 0 -157 -84t-50 -226t54 -224t155 -82q76 0 122 45t58 102q6 25 35 25l90 -19q31 -6 19 -41q-66 -239 -324 -239zM899 115q248 0 416 177
t168 424t-168 425t-416 178t-417 -179t-169 -425t169 -423t417 -177zM899 -16q-303 0 -518 214t-215 518t215 519t518 215t517 -215t214 -519t-214 -518t-517 -214z" />
    <glyph glyph-name="ordfeminine" unicode="&#xaa;" horiz-adv-x="851" 
d="M276 473h340q12 0 20 -9t7 -22l-16 -104q-4 -27 -29 -27h-342q-12 -1 -20 9t-7 20l17 104q4 29 30 29zM485 782q72 0 119 39q48 39 58 103t-21 102q-31 39 -109 39t-125 -41t-57 -103q-10 -63 26 -101t109 -38zM762 684h-68q-16 0 -28 33l-9 45q-70 -96 -216 -96t-208 77
q-61 79 -44 183t99 170t212 66q131 0 184 -58l10 53q12 63 -19 103q-32 38 -118 38t-190 -45q-25 -4 -29 21l-6 84q0 23 14 28q98 48 254 48t214 -78t34 -238l-64 -409q-6 -25 -22 -25z" />
    <glyph glyph-name="guillemotleft" unicode="&#xab;" horiz-adv-x="1110" 
d="M819 -16q-23 0 -37 26l-221 361q-25 43 -21 65t31 51l344 373q23 23 48 23h81q16 -1 20 -11t-7 -24l-328 -414l195 -418q14 -33 -19 -32h-86zM414 -16q-23 0 -37 26l-221 361q-25 43 -23 55l2 14q2 18 31 47l344 373q23 23 47 23h82q16 -1 19 -11t-7 -24l-327 -414
l194 -418q14 -33 -18 -32h-86z" />
    <glyph glyph-name="logicalnot" unicode="&#xac;" horiz-adv-x="1138" 
d="M199 635q-33 0 -29 33l14 92q4 31 37 31h809q35 0 29 -33l-60 -373q-6 -33 -36 -33h-117q-33 0 -27 35l39 248h-659z" />
    <glyph glyph-name="uni00AD" unicode="&#xad;" horiz-adv-x="776" 
d="M125 379q-12 0 -21 9q-8 9 -6 20l15 98q4 27 30 26h516q9 0 19 -9t8 -19l-16 -98q-4 -27 -31 -27h-514z" />
    <glyph glyph-name="registered" unicode="&#xae;" horiz-adv-x="1708" 
d="M735 1014v-283h228q57 0 92 40q35 39 35 103t-35 102t-94 38h-226zM735 604v-291q0 -14 -16 -14h-119q-14 0 -14 14v811q0 16 14 17h404q111 0 174 -75t63 -183q0 -176 -127 -242q123 -125 123 -328q0 -14 -16 -14h-119q-16 0 -17 14q0 182 -122 291h-228zM899 115
q248 0 416 177t168 424t-168 425t-416 178t-417 -179t-169 -425t169 -423t417 -177zM899 1450q303 0 517 -215t214 -519t-214 -518t-517 -214t-518 214t-215 518t215 519t518 215z" />
    <glyph glyph-name="macron" unicode="&#xaf;" horiz-adv-x="714" 
d="M315 1376q-33 0 -28 31l12 66q4 31 33 30h385q14 0 23 -9t8 -24l-11 -65q-6 -29 -32 -29h-390z" />
    <glyph glyph-name="degree" unicode="&#xb0;" horiz-adv-x="638" 
d="M423 1114q62 0 107 43q46 43 56 103t-21 102q-31 41 -93 41t-107 -43q-45 -42 -55 -104t21 -102q30 -40 92 -40zM415 1004q-105 0 -172 78t-51 184q16 104 100 177q83 73 188 73t173 -81t52 -185q-17 -104 -101 -174q-84 -72 -189 -72z" />
    <glyph glyph-name="plusminus" unicode="&#xb1;" horiz-adv-x="1110" 
d="M895 125q35 0 29 -31l-11 -74q-6 -29 -32 -28h-781q-14 0 -23 8t-7 23l12 73q6 29 33 29h780zM997 778q35 0 29 -33l-14 -92q-6 -31 -37 -30h-303l-47 -297q-6 -33 -35 -33h-111q-33 0 -26 35l47 295h-301q-33 0 -29 32l14 93q4 31 37 30h303l47 299q6 31 33 31h113
q33 0 26 -33l-47 -297h301z" />
    <glyph glyph-name="uni00B2" unicode="&#xb2;" horiz-adv-x="819" 
d="M585 1602q159 0 221 -69t44 -185q-12 -74 -50 -131t-106 -119l-288 -269h350q25 0 20 -24l-14 -98q-4 -23 -25 -23h-563q-25 0 -20 25l12 84q4 20 11 24t173 158t166 155q162 145 170 230q8 45 -17 72q-27 26 -99 26t-112 -35t-50 -77q-10 -18 -23 -19h-113q-18 0 -18 27
q8 90 90 169t241 79z" />
    <glyph glyph-name="uni00B3" unicode="&#xb3;" horiz-adv-x="835" 
d="M588 1604q144 0 214 -67q69 -67 45 -207t-136 -189q37 -13 71 -67t17 -156q-15 -102 -95 -176q-80 -72 -236 -72t-224 80q-66 80 -51 172q4 23 24 22h102q20 0 27 -24q6 -104 125 -105q78 0 123 36t55 93t-20 93q-31 36 -125 38h-45q-10 0 -17 7q-6 7 -4 16l15 92
q4 20 22 20h37q158 0 180 136q23 113 -110 112q-127 0 -166 -110q-6 -16 -23 -17h-112q-23 0 -21 29q10 88 97 166t231 78z" />
    <glyph glyph-name="acute" unicode="&#xb4;" horiz-adv-x="643" 
d="M340 1292q-25 -16 -37 6l-18 31q-14 20 6 41l293 277q12 10 25 7t20 -16l49 -86q16 -25 -6 -41z" />
    <glyph glyph-name="uni00B5" unicode="&#xb5;" horiz-adv-x="1087" 
d="M911 0h-145q-25 0 -39 31l-31 61q-109 -109 -266 -108q-100 0 -145 61l-76 -455q-4 -27 -29 -26h-155q-10 0 -19 9q-8 9 -6 19l197 1246q4 29 30 28h152q12 0 20 -9t7 -21l-76 -478q-35 -215 159 -215q97 1 159 51t77 138l80 506q4 29 31 28h151q13 0 21 -9t6 -21
l-103 -652q-14 -94 15 -153q6 -7 3 -19t-18 -12z" />
    <glyph glyph-name="paragraph" unicode="&#xb6;" horiz-adv-x="1120" 
d="M1114 1434q29 0 25 -31l-254 -1612q-4 -29 -31 -29h-117q-27 0 -22 31l233 1485h-166l-235 -1487q-4 -29 -31 -29h-117q-27 0 -22 31l131 828q-143 1 -230 121q-86 120 -60 294t148 286t269 112h479z" />
    <glyph glyph-name="periodcentered" unicode="&#xb7;" horiz-adv-x="503" 
d="M197 561q-35 0 -29 31l25 156q6 33 36 32h154q35 0 29 -32l-25 -156q-6 -31 -37 -31h-153z" />
    <glyph glyph-name="cedilla" unicode="&#xb8;" horiz-adv-x="589" 
d="M168 -408q-70 0 -107 28t-45 56q-8 14 7 21l40 27q14 10 32 -14t52 -23q80 0 93 82q8 43 -21 55t-51 -3t-43 -7l-55 20q-20 6 -11 23l97 159h112l-73 -112q81 10 123 -34t30 -120t-61 -117t-119 -41z" />
    <glyph glyph-name="uni00B9" unicode="&#xb9;" horiz-adv-x="690" 
d="M643 821q25 0 21 -24l-15 -97q-4 -23 -22 -22h-480q-27 0 -22 24l14 97q4 23 25 22h164l90 576l-144 -74q-12 -6 -22 1t-8 17l16 103q2 16 29 31l160 98q8 6 26 6h105q23 0 22 -25l-117 -733h158z" />
    <glyph glyph-name="ordmasculine" unicode="&#xba;" horiz-adv-x="874" 
d="M274 473h342q12 0 20 -9t7 -22l-16 -104q-4 -27 -29 -27h-342q-12 -1 -20 9t-7 20l17 104q4 29 28 29zM498 817q86 0 135 68t67 168q33 229 -122 229q-86 0 -140 -68t-70 -164t14 -165q30 -68 116 -68zM484 666q-144 0 -224 102t-49 288t133 282t246 96t220 -102
q77 -102 47 -288q-29 -188 -129 -283t-244 -95z" />
    <glyph glyph-name="guillemotright" unicode="&#xbb;" horiz-adv-x="1110" 
d="M610 883h86q23 0 37 -27l221 -360q25 -43 23 -56l-2 -14q-2 -18 -31 -47l-344 -373q-23 -23 -47 -22h-82q-16 0 -19 10t7 24l327 414l-194 418q-14 33 18 33zM205 883h86q23 0 37 -27l221 -360q25 -43 21 -66t-31 -51l-344 -373q-23 -23 -48 -22h-81q-16 0 -20 10
q-3 10 7 24l328 414l-195 418q-14 33 19 33z" />
    <glyph glyph-name="onequarter" unicode="&#xbc;" horiz-adv-x="1794" 
d="M1182 338h239l62 373zM1661 338q25 0 20 -25l-14 -98q-4 -20 -25 -20h-83l-29 -172q-4 -23 -23 -23h-112q-27 0 -23 25l27 170h-385q-27 0 -23 22l13 78q2 10 14 27l450 563q14 16 33 16h144q27 0 22 -24l-86 -539h80zM522 0q-14 0 -20 12t2 27l790 1370q16 25 39 25h107
q14 0 19 -10t-3 -25l-790 -1368q-16 -31 -43 -31h-101zM621 676q25 0 20 -25l-14 -96q-4 -23 -23 -23h-479q-27 0 -23 25l15 96q4 23 24 23h164l90 575l-143 -73q-12 -6 -23 1q-10 7 -8 17l17 102q2 16 28 31l160 98q8 6 27 7h104q23 0 23 -25l-117 -733h158z" />
    <glyph glyph-name="onehalf" unicode="&#xbd;" horiz-adv-x="1916" 
d="M1572 918q159 0 221 -69t44 -185q-12 -74 -50 -132t-106 -118l-288 -269h350q25 0 20 -24l-14 -98q-4 -23 -25 -23h-563q-25 0 -20 25l12 84q4 20 11 24t173 158t166 155q162 145 170 230q8 45 -17 72q-26 26 -98 26t-113 -35q-40 -35 -50 -77q-10 -18 -23 -19h-112
q-18 0 -19 27q8 90 90 169t241 79zM522 0q-14 0 -20 12t2 27l790 1370q16 25 39 25h107q14 0 19 -10t-3 -25l-790 -1368q-16 -31 -43 -31h-101zM621 676q25 0 20 -25l-14 -96q-4 -23 -23 -23h-479q-27 0 -23 25l15 96q4 23 24 23h164l90 575l-143 -73q-12 -6 -23 1
q-10 7 -8 17l17 102q2 16 28 31l160 98q8 6 27 7h104q23 0 23 -25l-117 -733h158z" />
    <glyph glyph-name="threequarters" unicode="&#xbe;" horiz-adv-x="1855" 
d="M1243 338h240l61 373zM1722 338q25 0 21 -25l-14 -98q-4 -20 -25 -20h-84l-29 -172q-4 -23 -22 -23h-113q-27 0 -22 25l26 170h-385q-27 0 -22 22l12 78q2 10 14 27l451 563q14 16 33 16h143q27 0 23 -24l-87 -539h80zM578 0q-14 0 -21 12q-6 12 2 27l791 1370
q16 25 39 25h106q14 0 19 -10t-3 -25l-790 -1368q-16 -31 -43 -31h-100zM564 1450q144 0 213 -67t45 -207t-136 -189q37 -12 71 -66q33 -54 17 -157q-16 -104 -95 -176t-235 -72t-224 80q-67 80 -52 172q4 23 25 23h102q20 0 27 -25q6 -104 124 -104q78 0 123 36t55 92
q10 58 -20 94q-31 36 -125 38h-45q-10 0 -16 7t-4 15l14 92q4 20 23 21h36q158 0 181 135q23 113 -111 113q-127 0 -166 -111q-6 -16 -22 -16h-113q-23 0 -20 28q10 88 96 166q88 78 232 78z" />
    <glyph glyph-name="questiondown" unicode="&#xbf;" horiz-adv-x="978" 
d="M401 -588q-119 0 -203 35t-122 93q-78 116 -53 259q22 154 149 268q47 42 73 59q183 120 241 207q44 65 67 154q8 27 27 27h141q25 0 22 -45q-16 -221 -227 -379q-157 -113 -188 -140q-31 -28 -65 -75t-42 -96q-14 -82 38 -132q51 -50 149 -50q98 -1 161 33t84 62
q20 28 47 70q14 20 31 17l135 -8q25 -6 15 -35q-31 -139 -160 -232q-130 -92 -320 -92zM705 879q48 0 79 -38t22 -84t-44 -75t-81 -29t-77 38q-30 38 -22 84t42 75t81 29z" />
    <glyph glyph-name="Agrave" unicode="&#xc0;" horiz-adv-x="1331" 
d="M455 463h438l-121 549l-6 30zM854 1450q14 0 23 -20l337 -1395q6 -35 -26 -35h-154q-27 0 -30 27l-58 237h-608l-127 -239q-14 -25 -33 -25h-158q-18 0 -27 16.5t-1 32.5l772 1387q8 14 18 14h72zM1047 1589l-361 117q-33 12 -22 41l28 82q10 29 43 12l342 -168
q20 -14 15 -33l-11 -36q-5 -25 -34 -15z" />
    <glyph glyph-name="Aacute" unicode="&#xc1;" horiz-adv-x="1331" 
d="M455 463h438l-121 549l-6 30zM854 1450q14 0 23 -20l337 -1395q6 -35 -26 -35h-154q-27 0 -30 27l-58 237h-608l-127 -239q-14 -25 -33 -25h-158q-18 0 -27 16.5t-1 32.5l772 1387q8 14 18 14h72zM686 1587q-29 -10 -35 15l-10 36q-6 18 14 33l342 168q33 16 43 -12
l29 -82q10 -29 -22 -41z" />
    <glyph glyph-name="Acircumflex" unicode="&#xc2;" horiz-adv-x="1331" 
d="M455 463h438l-121 549l-6 30zM854 1450q14 0 23 -20l337 -1395q6 -35 -26 -35h-154q-27 0 -30 27l-58 237h-608l-127 -239q-14 -25 -33 -25h-158q-18 0 -27 16.5t-1 32.5l772 1387q8 14 18 14h72zM881 1884h14q23 0 45 -29l137 -161q16 -18 13 -39l-7 -47q-8 -35 -39 -6
l-170 157l-221 -164q-16 -10 -25.5 -3t-6.5 20l8 47q4 25 24 41l183 166q20 18 45 18z" />
    <glyph glyph-name="Atilde" unicode="&#xc3;" horiz-adv-x="1331" 
d="M455 463h438l-121 549l-6 30zM854 1450q14 0 23 -20l337 -1395q6 -35 -26 -35h-154q-27 0 -30 27l-58 237h-608l-127 -239q-14 -25 -33 -25h-158q-18 0 -27 16.5t-1 32.5l772 1387q8 14 18 14h72zM986 1614q-60 0 -125.5 43t-106.5 43q-80 0 -127 -66q-12 -14 -33 -4
l-31 15q-23 10 -5 46.5t69 75.5t123 39t141.5 -44t97.5 -44q66 0 117 72q8 14 27 4l34 -16q23 -14 11 -35q-66 -129 -192 -129z" />
    <glyph glyph-name="Adieresis" unicode="&#xc4;" horiz-adv-x="1331" 
d="M455 463h438l-121 549l-6 30zM854 1450q14 0 23 -20l337 -1395q6 -35 -26 -35h-154q-27 0 -30 27l-58 237h-608l-127 -239q-14 -25 -33 -25h-158q-18 0 -27 16.5t-1 32.5l772 1387q8 14 18 14h72zM1001 1645q-35 0 -56 24.5t-16 55.5t25.5 48t52.5 17t52 -25.5t14 -60.5
q-13 -59 -72 -59zM741 1645q-35 0 -56 24.5t-16 55.5t26.5 48t53 17t52 -25.5t14.5 -60.5q-13 -59 -74 -59z" />
    <glyph glyph-name="Aring" unicode="&#xc5;" horiz-adv-x="1331" 
d="M455 463h438l-121 549l-6 30zM854 1450q14 0 23 -20l337 -1395q6 -35 -26 -35h-154q-27 0 -30 27l-58 237h-608l-127 -239q-14 -25 -33 -25h-158q-18 0 -27 16.5t-1 32.5l772 1387q8 14 18 14h72zM854 1690q68 0 78 75q4 33 -11.5 52.5t-43.5 19.5q-63 0 -78 -72
q-4 -33 10 -54t45 -21zM845 1589q-73 0 -119 51.5t-33 131.5t66.5 122.5t126.5 42.5t120 -51t32.5 -131t-67.5 -123t-126 -43z" />
    <glyph glyph-name="AE" unicode="&#xc6;" horiz-adv-x="1982" 
d="M565 446h455l113 707zM1997 1434q10 0 18 -9.5t6 -21.5l-22 -141q-4 -27 -27 -27h-606l-66 -420h416q12 0 20.5 -8t6.5 -21l-23 -141q-4 -27 -30 -27h-422l-66 -419h598q12 0 20.5 -9.5t6.5 -19.5l-23 -143q-4 -27 -28 -27h-795q-12 0 -20.5 9t-6.5 22l35 219h-579
l-181 -227q-18 -23 -43 -23h-157q-20 0 -28.5 15.5t5.5 33.5l1071 1364q14 20 37 21h883z" />
    <glyph glyph-name="Ccedilla" unicode="&#xc7;" horiz-adv-x="1443" 
d="M940 1251q-213 0 -373.5 -159.5t-196.5 -381.5t69.5 -375t310.5 -153q240 0 415 199q20 25 45 0l90 -100q25 -25 5 -50q-238 -236 -543 -247l-47 -72q80 10 123 -34t30.5 -120t-61.5 -116.5t-119 -40.5t-106.5 27.5t-44.5 56.5q-8 14 6 20l41 27q14 10 31.5 -13.5
t52.5 -23.5q80 0 92 82q8 43 -20.5 55t-50.5 -3t-44 -7l-55 20q-20 6 -10 23l73 123q-264 33 -407.5 244.5t-96 503.5t277.5 503t523 211q152 0 279 -64.5t205 -185.5q16 -27 -9 -47l-102 -88q-10 -10 -27.5 -8t-25.5 16q-43 72 -130 125t-200 53z" />
    <glyph glyph-name="Egrave" unicode="&#xc8;" horiz-adv-x="1116" 
d="M936 199q12 0 20.5 -9.5t6.5 -19.5l-23 -143q-4 -27 -29 -27h-794q-12 0 -20.5 9t-6.5 22l217 1374q4 29 29 29h797q10 0 18 -9.5t6 -21.5l-22 -141q-4 -27 -27 -27h-606l-66 -420h416q12 0 20.5 -8t6.5 -21l-23 -141q-4 -27 -31 -27h-422l-65 -419h598zM952 1589
l-360 117q-33 12 -23 41l29 82q10 29 43 12l342 -168q20 -14 14 -33l-10 -36q-6 -25 -35 -15z" />
    <glyph glyph-name="Eacute" unicode="&#xc9;" horiz-adv-x="1116" 
d="M936 199q12 0 20.5 -9.5t6.5 -19.5l-23 -143q-4 -27 -29 -27h-794q-12 0 -20.5 9t-6.5 22l217 1374q4 29 29 29h797q10 0 18 -9.5t6 -21.5l-22 -141q-4 -27 -27 -27h-606l-66 -420h416q12 0 20.5 -8t6.5 -21l-23 -141q-4 -27 -31 -27h-422l-65 -419h598zM592 1587
q-29 -10 -35 15l-10 36q-6 18 14 33l342 168q33 16 43 -12l29 -82q10 -29 -23 -41z" />
    <glyph glyph-name="Ecircumflex" unicode="&#xca;" horiz-adv-x="1116" 
d="M936 199q12 0 20.5 -9.5t6.5 -19.5l-23 -143q-4 -27 -29 -27h-794q-12 0 -20.5 9t-6.5 22l217 1374q4 29 29 29h797q10 0 18 -9.5t6 -21.5l-22 -141q-4 -27 -27 -27h-606l-66 -420h416q12 0 20.5 -8t6.5 -21l-23 -141q-4 -27 -31 -27h-422l-65 -419h598zM786 1884h15
q23 0 45 -29l137 -161q16 -18 12 -39l-6 -47q-8 -35 -39 -6l-170 157l-221 -164q-16 -10 -25.5 -3t-7.5 20l9 47q4 25 24 41l182 166q20 18 45 18z" />
    <glyph glyph-name="Edieresis" unicode="&#xcb;" horiz-adv-x="1116" 
d="M936 199q12 0 20.5 -9.5t6.5 -19.5l-23 -143q-4 -27 -29 -27h-794q-12 0 -20.5 9t-6.5 22l217 1374q4 29 29 29h797q10 0 18 -9.5t6 -21.5l-22 -141q-4 -27 -27 -27h-606l-66 -420h416q12 0 20.5 -8t6.5 -21l-23 -141q-4 -27 -31 -27h-422l-65 -419h598zM907 1645
q-35 1 -57 25t-16 55t26 48t52 17t52.5 -25.5t14.5 -60.5q-13 -59 -72 -59zM647 1645q-35 0 -56.5 24.5t-16.5 55.5t27 48q21 17 53 17t52.5 -25.5t14.5 -60.5q-13 -59 -74 -59z" />
    <glyph glyph-name="Igrave" unicode="&#xcc;" horiz-adv-x="528" 
d="M113 0q-27 0 -23 31l217 1374q4 29 27 29h172q27 0 22 -31l-217 -1374q-4 -29 -26 -29h-172zM649 1589l-360 117q-33 12 -23 41l29 82q10 29 43 12l342 -168q20 -14 14 -33l-10 -36q-6 -25 -35 -15z" />
    <glyph glyph-name="Iacute" unicode="&#xcd;" horiz-adv-x="528" 
d="M113 0q-27 0 -23 31l217 1374q4 29 27 29h172q27 0 22 -31l-217 -1374q-4 -29 -26 -29h-172zM289 1587q-29 -10 -35 15l-10 36q-6 18 14 33l342 168q33 16 43 -12l29 -82q10 -29 -23 -41z" />
    <glyph glyph-name="Icircumflex" unicode="&#xce;" horiz-adv-x="528" 
d="M113 0q-27 0 -23 31l217 1374q4 29 27 29h172q27 0 22 -31l-217 -1374q-4 -29 -26 -29h-172zM483 1884h15q23 0 45 -29l137 -161q16 -18 12 -39l-6 -47q-8 -35 -39 -6l-170 157l-221 -164q-16 -10 -25.5 -3t-7.5 20l8 47q4 25 25 41l182 166q20 18 45 18z" />
    <glyph glyph-name="Idieresis" unicode="&#xcf;" horiz-adv-x="528" 
d="M113 0q-27 0 -23 31l217 1374q4 29 27 29h172q27 0 22 -31l-217 -1374q-4 -29 -26 -29h-172zM604 1645q-35 0 -56.5 24.5t-16.5 55.5t26 48t53 17t52 -25.5t14 -60.5q-13 -59 -72 -59zM344 1645q-35 0 -56.5 24.5t-16.5 55.5t26.5 48t53.5 17t52.5 -25.5t14.5 -60.5
q-13 -59 -74 -59z" />
    <glyph glyph-name="Eth" unicode="&#xd0;" horiz-adv-x="1335" 
d="M764 1235h-262l-70 -434h256q35 0 29 -33l-19 -109q-2 -29 -32 -28h-260l-68 -432h250q193 0 310.5 136t156.5 390t-30 382t-261 128zM803 1434q274 0 401 -187.5t71 -537t-237.5 -529.5t-457.5 -180h-463q-12 0 -20.5 9t-6.5 22l94 600h-47q-31 0 -28 31l16 108
q2 31 33 31h53l96 604q4 29 29 29h467z" />
    <glyph glyph-name="Ntilde" unicode="&#xd1;" horiz-adv-x="1427" 
d="M1405 1434q10 0 18.5 -9.5t6.5 -21.5l-220 -1376q-4 -27 -26 -27h-135q-23 0 -41 33l-535 1005l-164 -1011q-4 -27 -24 -27h-170q-10 0 -18.5 9t-6.5 20l217 1376q4 29 29 29h141q25 0 41 -37l531 -989l159 997q4 29 27 29h170zM1028 1614q-63 0 -128.5 43t-106.5 43
q-80 0 -127 -66q-12 -14 -33 -4l-31 15q-23 10 -5 46.5t69 75.5t123 39t141 -44t98 -44q66 0 117 72q8 14 26 4l35 -16q23 -14 11 -35q-66 -129 -189 -129z" />
    <glyph glyph-name="Ograve" unicode="&#xd2;" horiz-adv-x="1597" 
d="M754 182q213 0 370.5 160t191.5 381t-69.5 374.5t-314.5 153.5t-370 -161.5t-193.5 -382t69 -373t316.5 -152.5zM737 -16q-297 0 -467 217t-123 524t276.5 516t526.5 209t466 -219t121 -525.5t-275.5 -514t-524.5 -207.5zM1171 1589l-360 117q-33 12 -23 41l29 82
q10 29 43 12l342 -168q20 -14 15 -33l-11 -36q-6 -25 -35 -15z" />
    <glyph glyph-name="Oacute" unicode="&#xd3;" horiz-adv-x="1597" 
d="M754 182q213 0 370.5 160t191.5 381t-69.5 374.5t-314.5 153.5t-370 -161.5t-193.5 -382t69 -373t316.5 -152.5zM737 -16q-297 0 -467 217t-123 524t276.5 516t526.5 209t466 -219t121 -525.5t-275.5 -514t-524.5 -207.5zM811 1587q-29 -10 -35 15l-10 36q-6 18 14 33
l342 168q33 16 43 -12l29 -82q10 -29 -23 -41z" />
    <glyph glyph-name="Ocircumflex" unicode="&#xd4;" horiz-adv-x="1597" 
d="M754 182q213 0 370.5 160t191.5 381t-69.5 374.5t-314.5 153.5t-370 -161.5t-193.5 -382t69 -373t316.5 -152.5zM737 -16q-297 0 -467 217t-123 524t276.5 516t526.5 209t466 -219t121 -525.5t-275.5 -514t-524.5 -207.5zM1006 1884h14q23 0 45 -29l137 -161
q16 -18 12 -39l-6 -47q-8 -35 -39 -6l-170 157l-221 -164q-16 -10 -25.5 -3t-7.5 20l9 47q4 25 24 41l183 166q20 18 45 18z" />
    <glyph glyph-name="Otilde" unicode="&#xd5;" horiz-adv-x="1597" 
d="M754 182q213 0 370.5 160t191.5 381t-69.5 374.5t-314.5 153.5t-370 -161.5t-193.5 -382t69 -373t316.5 -152.5zM737 -16q-297 0 -467 217t-123 524t276.5 516t526.5 209t466 -219t121 -525.5t-275.5 -514t-524.5 -207.5zM1114 1614q-63 0 -128.5 43t-106.5 43
q-80 0 -127 -66q-12 -14 -33 -4l-31 15q-23 10 -5 46.5t69 75.5t123 39t141 -44t98 -44q66 0 117 72q8 14 26 4l35 -16q23 -14 11 -35q-66 -129 -189 -129z" />
    <glyph glyph-name="Odieresis" unicode="&#xd6;" horiz-adv-x="1597" 
d="M754 182q213 0 370.5 160t191.5 381t-69.5 374.5t-314.5 153.5t-370 -161.5t-193.5 -382t69 -373t316.5 -152.5zM737 -16q-297 0 -467 217t-123 524t276.5 516t526.5 209t466 -219t121 -525.5t-275.5 -514t-524.5 -207.5zM1126 1645q-35 0 -56 24.5t-16 55.5t25.5 48
t52 17t52 -25.5t14.5 -60.5q-13 -59 -72 -59zM866 1645q-35 0 -56.5 24.5t-16 55.5t27 48t53 17t52 -25.5t14.5 -60.5q-13 -59 -74 -59z" />
    <glyph glyph-name="multiply" unicode="&#xd7;" horiz-adv-x="976" 
d="M635 651l194 -235q23 -25 -2 -49l-65 -56q-23 -23 -47 4l-199 234l-272 -236q-25 -23 -49 2l-56 68q-23 23 6 49l273 234l-197 235q-25 25 2 49l66 56q23 23 47 -5l199 -233l272 236q27 23 47 -3l57 -67q23 -27 -4 -49z" />
    <glyph glyph-name="Oslash" unicode="&#xd8;" horiz-adv-x="1597" 
d="M748 182q219 0 376.5 160t194.5 400.5t-105 394.5l-622 -926q74 -29 156 -29zM369 702q-43 -256 102 -409l623 930q-70 29 -156 28q-217 0 -375.5 -162t-193.5 -387zM737 -16q-147 0 -260 55l-20 -31q-16 -25 -43 -24h-97q-20 0 -26 17t6 34l55 82q-123 100 -178 262
t-27 348q47 305 276.5 514t526.5 209q137 0 260 -55l19 28q18 27 43 27h106q18 0 23.5 -14.5t-4.5 -28.5l-62 -92q123 -102 177.5 -264t23.5 -349q-47 -303 -274.5 -510.5t-524.5 -207.5z" />
    <glyph glyph-name="Ugrave" unicode="&#xd9;" horiz-adv-x="1376" 
d="M1372 1434q31 0 27 -31l-135 -807q-40 -253 -188 -426q-75 -88 -189.5 -137t-255.5 -49q-193 0 -311 91q-218 169 -160 533l133 797q6 29 31 29h165q29 0 25 -31l-131 -789q-31 -190 36.5 -311t226.5 -121t265.5 125t137.5 320l129 778q4 29 28 29h166zM1079 1589
l-360 117q-33 12 -23 41l29 82q10 29 43 12l342 -168q20 -14 14 -33l-10 -36q-6 -25 -35 -15z" />
    <glyph glyph-name="Uacute" unicode="&#xda;" horiz-adv-x="1376" 
d="M1372 1434q31 0 27 -31l-135 -807q-40 -253 -188 -426q-75 -88 -189.5 -137t-255.5 -49q-193 0 -311 91q-218 169 -160 533l133 797q6 29 31 29h165q29 0 25 -31l-131 -789q-31 -190 36.5 -311t226.5 -121t265.5 125t137.5 320l129 778q4 29 28 29h166zM719 1587
q-29 -10 -35 15l-10 36q-6 18 14 33l342 168q33 16 43 -12l29 -82q10 -29 -23 -41z" />
    <glyph glyph-name="Ucircumflex" unicode="&#xdb;" horiz-adv-x="1376" 
d="M1372 1434q31 0 27 -31l-135 -807q-40 -253 -188 -426q-75 -88 -189.5 -137t-255.5 -49q-193 0 -311 91q-218 169 -160 533l133 797q6 29 31 29h165q29 0 25 -31l-131 -789q-31 -190 36.5 -311t226.5 -121t265.5 125t137.5 320l129 778q4 29 28 29h166zM913 1884h15
q23 0 45 -29l137 -161q16 -18 12 -39l-6 -47q-8 -35 -39 -6l-170 157l-221 -164q-16 -10 -25.5 -3t-7.5 20l9 47q4 25 24 41l182 166q20 18 45 18z" />
    <glyph glyph-name="Udieresis" unicode="&#xdc;" horiz-adv-x="1376" 
d="M1372 1434q31 0 27 -31l-135 -807q-40 -253 -188 -426q-75 -88 -189.5 -137t-255.5 -49q-193 0 -311 91q-218 169 -160 533l133 797q6 29 31 29h165q29 0 25 -31l-131 -789q-31 -190 36.5 -311t226.5 -121t265.5 125t137.5 320l129 778q4 29 28 29h166zM1034 1645
q-35 0 -56.5 24.5t-16 55.5t26 48t52 17t52 -25.5t14.5 -60.5q-13 -59 -72 -59zM774 1645q-35 0 -56.5 24.5t-16.5 55.5t27 48t53.5 17t52 -25.5t14.5 -60.5q-13 -59 -74 -59z" />
    <glyph glyph-name="Yacute" unicode="&#xdd;" horiz-adv-x="1261" 
d="M1305 1434q16 0 24 -15.5t-2 -32.5l-569 -772l-96 -587q-4 -27 -27 -27h-166q-12 0 -20.5 8t-6.5 21l93 585l-295 785q-10 35 18 35h166q31 0 43 -33l209 -567l418 575q18 25 45 25h166zM645 1587q-29 -10 -35 15l-10 36q-6 18 14 33l342 168q33 16 43 -12l29 -82
q10 -29 -22 -41z" />
    <glyph glyph-name="Thorn" unicode="&#xde;" horiz-adv-x="1222" 
d="M702 504q96 0 162 61.5t82 168.5t-21.5 173t-142.5 66h-321l-74 -469h315zM283 0h-166q-12 0 -20.5 9t-6.5 20l217 1378q4 27 29 27h166q12 0 20 -9.5t6 -19.5l-36 -234h372q160 -2 247 -121.5t55 -320.5t-156.5 -311.5t-286.5 -112.5h-369l-45 -278q-4 -27 -26 -27z" />
    <glyph glyph-name="germandbls" unicode="&#xdf;" horiz-adv-x="1028" 
d="M356 72q0 10 9 18l38 86q10 20 37 8q66 -39 122 -39q56 -1 103 47q48 48 60 127q11 79 -17 149t-69 112q-163 171 -38 323q42 51 89 85q124 90 135 177q6 51 -23 84q-30 33 -108 33q-117 0 -179 -77t-87 -230l-152 -946q-4 -29 -28 -29h-152q-12 0 -20 9t-6 22l151 964
q39 247 149 351t326 104t293 -74q78 -74 55 -202q-12 -82 -57 -150t-91 -104q-121 -94 -128 -151q-6 -58 93 -182q38 -46 62 -126t9 -172q-27 -156 -129 -231q-102 -74 -216 -74t-208 63q-23 15 -23 25z" />
    <glyph glyph-name="agrave" unicode="&#xe0;" horiz-adv-x="1040" 
d="M463 145q215 0 260 301q23 154 -19 214.5t-148 60.5t-180.5 -88t-94.5 -211t24.5 -200t157.5 -77zM954 858q12 0 20.5 -9t6.5 -22l-127 -798q-4 -29 -29 -29h-100q-23 0 -41 41l-4 59q-96 -115 -258 -116q-203 -2 -286 132t-53 324t150.5 316.5t311.5 126.5
q154 0 235 -99l23 47q14 27 41 27h110zM795 989l-332 219q-23 16 -6 41l49 86q6 12 19.5 15.5t25.5 -7.5l293 -276q20 -20 6 -41l-19 -31q-11 -22 -36 -6z" />
    <glyph glyph-name="aacute" unicode="&#xe1;" horiz-adv-x="1040" 
d="M463 145q215 0 260 301q23 154 -19 214.5t-148 60.5t-180.5 -88t-94.5 -211t24.5 -200t157.5 -77zM954 858q12 0 20.5 -9t6.5 -22l-127 -798q-4 -29 -29 -29h-100q-23 0 -41 41l-4 59q-96 -115 -258 -116q-203 -2 -286 132t-53 324t150.5 316.5t311.5 126.5
q154 0 235 -99l23 47q14 27 41 27h110zM526 989q-25 -16 -37 6l-18 31q-14 20 6 41l293 276q12 10 25.5 7.5t19.5 -15.5l49 -86q16 -25 -6 -41z" />
    <glyph glyph-name="acircumflex" unicode="&#xe2;" horiz-adv-x="1040" 
d="M463 145q215 0 260 301q23 154 -19 214.5t-148 60.5t-180.5 -88t-94.5 -211t24.5 -200t157.5 -77zM954 858q12 0 20.5 -9t6.5 -22l-127 -798q-4 -29 -29 -29h-100q-23 0 -41 41l-4 59q-96 -115 -258 -116q-203 -2 -286 132t-53 324t150.5 316.5t311.5 126.5
q154 0 235 -99l23 47q14 27 41 27h110zM676 1317q23 0 45 -29l137 -162q16 -18 12 -39l-6 -47q-8 -35 -39 -6l-170 158l-221 -164q-16 -10 -25.5 -3t-7.5 19l9 48q4 25 24 41l182 165q20 18 46 19h14z" />
    <glyph glyph-name="atilde" unicode="&#xe3;" horiz-adv-x="1040" 
d="M463 145q215 0 260 301q23 154 -19 214.5t-148 60.5t-180.5 -88t-94.5 -211t24.5 -200t157.5 -77zM954 858q12 0 20.5 -9t6.5 -22l-127 -798q-4 -29 -29 -29h-100q-23 0 -41 41l-4 59q-96 -115 -258 -116q-203 -2 -286 132t-53 324t150.5 316.5t311.5 126.5
q154 0 235 -99l23 47q14 27 41 27h110zM770 1047q-63 0 -129 43t-106 43q-80 0 -127 -66q-12 -14 -33 -4l-31 14q-23 10 -5 47t69 76t122.5 39t141 -44t98.5 -44q66 0 117 72q8 14 26 4l35 -17q23 -14 10 -34q-66 -129 -188 -129z" />
    <glyph glyph-name="adieresis" unicode="&#xe4;" horiz-adv-x="1040" 
d="M463 145q215 0 260 301q23 154 -19 214.5t-148 60.5t-180.5 -88t-94.5 -211t24.5 -200t157.5 -77zM954 858q12 0 20.5 -9t6.5 -22l-127 -798q-4 -29 -29 -29h-100q-23 0 -41 41l-4 59q-96 -115 -258 -116q-203 -2 -286 132t-53 324t150.5 316.5t311.5 126.5
q154 0 235 -99l23 47q14 27 41 27h110zM782 1077q-35 0 -56 24.5t-16 55.5t25.5 48.5t52.5 17.5t52 -26t14 -60q-13 -60 -72 -60zM522 1077q-35 0 -56.5 24.5t-15.5 55.5t27 48.5t53 17.5t52 -26t14 -60q-13 -60 -74 -60z" />
    <glyph glyph-name="aring" unicode="&#xe5;" horiz-adv-x="1040" 
d="M463 145q215 0 260 301q23 154 -19 214.5t-148 60.5t-180.5 -88t-94.5 -211t24.5 -200t157.5 -77zM954 858q12 0 20.5 -9t6.5 -22l-127 -798q-4 -29 -29 -29h-100q-23 0 -41 41l-4 59q-96 -115 -258 -116q-203 -2 -286 132t-53 324t150.5 316.5t311.5 126.5
q154 0 235 -99l23 47q14 27 41 27h110zM635 1122q68 0 78 76q4 33 -11.5 52.5t-44.5 19.5q-63 0 -77 -72q-4 -33 10 -54.5t45 -21.5zM626 1022q-73 0 -119 51t-33 131t66.5 123t126.5 43t120 -51t32.5 -131t-67.5 -123t-126 -43z" />
    <glyph glyph-name="ae" unicode="&#xe6;" horiz-adv-x="1536" 
d="M454 438q-83 0 -135.5 -48t-62.5 -117t22.5 -114.5t118.5 -45.5t139.5 56t64.5 122.5t-26.5 106.5t-120.5 40zM1099 741q-95 0 -165 -66.5t-92 -164.5l424 2q14 106 -29 167.5t-138 61.5zM1120.5 883q193.5 0 280 -130t47.5 -358q-4 -29 -31 -28l-600 -2
q-2 -106 50.5 -168t164 -62t223.5 82q25 16 41 -6l39 -88q14 -23 -10 -45q-45 -39 -134 -66.5t-183 -27.5q-207 0 -316 139q-119 -139 -346 -139q-172 0 -240.5 89t-47.5 214t111.5 195.5t239 70.5t220.5 -68l12 72q14 84 -19.5 128t-133 44t-218.5 -51q-35 -10 -39 24
l-6 86q0 27 19 35q111 59 276 60q225 0 271 -125q136 125 329.5 125z" />
    <glyph glyph-name="ccedilla" unicode="&#xe7;" horiz-adv-x="956" 
d="M577.5 721q-114.5 0 -196.5 -85t-100 -204t33 -203t165 -84q45 0 67.5 8.5t36 13.5t27.5 14q33 20 70 57t57 14l74 -78q14 -20 -2 -41q-47 -53 -136 -98t-194 -51l-47 -72q80 10 123 -34t31 -120t-61.5 -116.5t-119.5 -40.5t-106.5 27.5t-44.5 56.5q-8 14 6 20l41 27
q14 10 32 -13.5t52 -23.5q80 0 92 82q8 43 -20.5 55t-50.5 -2t-44 -8l-55 20q-20 6 -10 23l76 125q-158 27 -238 155.5t-50 307.5t167 304.5t323 125.5q218 0 312 -156q12 -23 -6 -35l-86 -69q-20 -12 -37 8q-66 90 -180.5 90z" />
    <glyph glyph-name="egrave" unicode="&#xe8;" horiz-adv-x="993" 
d="M556 741q-95 0 -164.5 -66.5t-92.5 -164.5l424 2q14 106 -29 167.5t-138 61.5zM580.5 883q191.5 0 277.5 -130t47 -358q-4 -29 -31 -28l-600 -2q-2 -106 50.5 -168t164 -62t224.5 82q25 16 41 -6l39 -88q14 -23 -11 -45q-45 -39 -134 -66.5t-183 -27.5q-201 0 -307.5 130
t-75.5 327.5t169 319.5t329.5 122zM766 989l-332 219q-23 16 -6 41l49 86q6 12 19.5 15.5t25.5 -7.5l293 -276q20 -20 6 -41l-18 -31q-12 -22 -37 -6z" />
    <glyph glyph-name="eacute" unicode="&#xe9;" horiz-adv-x="993" 
d="M556 741q-95 0 -164.5 -66.5t-92.5 -164.5l424 2q14 106 -29 167.5t-138 61.5zM580.5 883q191.5 0 277.5 -130t47 -358q-4 -29 -31 -28l-600 -2q-2 -106 50.5 -168t164 -62t224.5 82q25 16 41 -6l39 -88q14 -23 -11 -45q-45 -39 -134 -66.5t-183 -27.5q-201 0 -307.5 130
t-75.5 327.5t169 319.5t329.5 122zM498 989q-25 -16 -37 6l-19 31q-14 20 7 41l292 276q12 10 25.5 7.5t19.5 -15.5l50 -86q16 -25 -7 -41z" />
    <glyph glyph-name="ecircumflex" unicode="&#xea;" horiz-adv-x="993" 
d="M556 741q-95 0 -164.5 -66.5t-92.5 -164.5l424 2q14 106 -29 167.5t-138 61.5zM580.5 883q191.5 0 277.5 -130t47 -358q-4 -29 -31 -28l-600 -2q-2 -106 50.5 -168t164 -62t224.5 82q25 16 41 -6l39 -88q14 -23 -11 -45q-45 -39 -134 -66.5t-183 -27.5q-201 0 -307.5 130
t-75.5 327.5t169 319.5t329.5 122zM647 1317q23 0 45 -29l137 -162q16 -18 13 -39l-6 -47q-8 -35 -39 -6l-170 158l-221 -164q-16 -10 -25.5 -3t-7.5 19l8 48q4 25 25 41l182 165q20 18 45 19h14z" />
    <glyph glyph-name="edieresis" unicode="&#xeb;" horiz-adv-x="993" 
d="M556 741q-95 0 -164.5 -66.5t-92.5 -164.5l424 2q14 106 -29 167.5t-138 61.5zM580.5 883q191.5 0 277.5 -130t47 -358q-4 -29 -31 -28l-600 -2q-2 -106 50.5 -168t164 -62t224.5 82q25 16 41 -6l39 -88q14 -23 -11 -45q-45 -39 -134 -66.5t-183 -27.5q-201 0 -307.5 130
t-75.5 327.5t169 319.5t329.5 122zM754 1077q-35 0 -56.5 24.5t-16.5 55.5t25.5 48.5t52.5 17.5t52 -26t14 -60q-12 -60 -71 -60zM494 1077q-35 0 -56.5 24.5t-16.5 55.5t26.5 48.5t53.5 17.5t52 -26t14 -60q-12 -60 -73 -60z" />
    <glyph glyph-name="igrave" unicode="&#xec;" horiz-adv-x="454" 
d="M86 0q-10 0 -19.5 9t-7.5 22l127 807q4 29 31 28h152q12 0 20 -9t6 -21l-129 -807q-4 -29 -28 -29h-152zM494 995l-332 219q-23 16 -6 41l49 86q18 31 45 9l293 -277q20 -20 6 -41l-19 -31q-11 -22 -36 -6z" />
    <glyph glyph-name="iacute" unicode="&#xed;" horiz-adv-x="454" 
d="M86 0q-10 0 -19.5 9t-7.5 22l127 807q4 29 31 28h152q12 0 20 -9t6 -21l-129 -807q-4 -29 -28 -29h-152zM225 995q-25 -16 -37 6l-18 31q-14 20 6 41l293 277q27 23 45 -9l49 -86q16 -25 -6 -41z" />
    <glyph glyph-name="icircumflex" unicode="&#xee;" horiz-adv-x="454" 
d="M86 0q-10 0 -19.5 9t-7.5 22l127 807q4 29 31 28h152q12 0 20 -9t6 -21l-129 -807q-4 -29 -28 -29h-152zM360 1323h15q23 0 45 -29l137 -161q16 -18 12 -39l-6 -47q-8 -35 -39 -7l-170 158l-221 -164q-16 -10 -25.5 -3t-7.5 20l9 47q4 25 24 41l182 166q20 18 45 18z" />
    <glyph glyph-name="idieresis" unicode="&#xef;" horiz-adv-x="454" 
d="M86 0q-10 0 -19.5 9t-7.5 22l127 807q4 29 31 28h152q12 0 20 -9t6 -21l-129 -807q-4 -29 -28 -29h-152zM481 1083q-35 0 -57 25q-22 26 -16 56t26 48t52 17.5t52.5 -26t14.5 -60.5q-13 -60 -72 -60zM221 1083q-35 0 -57 25q-22 26 -16 56t28 48q20 18 52 17.5t52.5 -26
t14.5 -60.5q-13 -60 -74 -60z" />
    <glyph glyph-name="eth" unicode="&#xf0;" horiz-adv-x="1089" 
d="M604 719q-111 0 -196.5 -86t-105 -210t33.5 -201t164 -77t194 85t102 209t-31 202t-161 78zM495.5 -16q-200.5 0 -310 134t-80 322t175 315.5t333.5 127.5q129 0 199 -97q2 203 -151 369l-115 -111q-23 -18 -39 3l-45 43q-23 23 0 40l108 105q-55 41 -91 61t-21 45l63 93
q18 25 53 8q72 -39 125 -82l76 74q23 23 43 -2l41 -39q20 -20 2 -43l-74 -72q307 -317 218 -803q-35 -227 -172.5 -359t-338 -132z" />
    <glyph glyph-name="ntilde" unicode="&#xf1;" horiz-adv-x="1054" 
d="M657 883q173 0 244.5 -95.5t46.5 -246.5l-80 -512q-4 -29 -28 -29h-152q-12 0 -20.5 9t-5.5 22l75 483q33 207 -131 207q-94 0 -171 -57.5t-87 -128.5l-82 -506q-4 -29 -28 -29h-152q-12 0 -20.5 9t-6.5 22l125 800q4 27 31 27h131q20 0 25 -33l10 -65q103 123 276 123z
M765 1047q-60 0 -126 43t-107 43q-80 0 -126 -66q-12 -14 -33 -4l-31 14q-23 10 -5 47t69 76t122.5 39t141 -44t98.5 -44q66 0 117 72q8 14 26 4l35 -17q23 -14 10 -34q-31 -61 -81 -95t-110 -34z" />
    <glyph glyph-name="ograve" unicode="&#xf2;" horiz-adv-x="1024" 
d="M467.5 145q106.5 0 183 85t96 209t-29.5 203t-157 79t-187.5 -88t-98 -211t34 -200t159 -77zM449.5 -16q-191.5 0 -296 133t-74.5 323t168 316.5t330.5 126.5t296 -134.5t71.5 -324.5t-168 -315t-327.5 -125zM766 989l-332 219q-23 16 -6 41l49 86q6 12 19.5 15.5
t25.5 -7.5l293 -276q20 -20 6 -41l-18 -31q-12 -22 -37 -6z" />
    <glyph glyph-name="oacute" unicode="&#xf3;" horiz-adv-x="1024" 
d="M467.5 145q106.5 0 183 85t96 209t-29.5 203t-157 79t-187.5 -88t-98 -211t34 -200t159 -77zM449.5 -16q-191.5 0 -296 133t-74.5 323t168 316.5t330.5 126.5t296 -134.5t71.5 -324.5t-168 -315t-327.5 -125zM498 989q-25 -16 -37 6l-19 31q-14 20 7 41l292 276
q12 10 25.5 7.5t19.5 -15.5l50 -86q16 -25 -7 -41z" />
    <glyph glyph-name="ocircumflex" unicode="&#xf4;" horiz-adv-x="1024" 
d="M467.5 145q106.5 0 183 85t96 209t-29.5 203t-157 79t-187.5 -88t-98 -211t34 -200t159 -77zM449.5 -16q-191.5 0 -296 133t-74.5 323t168 316.5t330.5 126.5t296 -134.5t71.5 -324.5t-168 -315t-327.5 -125zM647 1317q23 0 45 -29l137 -162q16 -18 13 -39l-6 -47
q-8 -35 -39 -6l-170 158l-221 -164q-16 -10 -25.5 -3t-7.5 19l8 48q4 25 25 41l182 165q20 18 45 19h14z" />
    <glyph glyph-name="otilde" unicode="&#xf5;" horiz-adv-x="1024" 
d="M467.5 145q106.5 0 183 85t96 209t-29.5 203t-157 79t-187.5 -88t-98 -211t34 -200t159 -77zM449.5 -16q-191.5 0 -296 133t-74.5 323t168 316.5t330.5 126.5t296 -134.5t71.5 -324.5t-168 -315t-327.5 -125zM741 1047q-63 0 -128.5 43t-106.5 43q-80 0 -127 -66
q-12 -14 -33 -4l-31 14q-23 10 -5 47t69 76t123 39t141.5 -44t97.5 -44q66 0 117 72q8 14 27 4l35 -17q23 -14 10 -34q-66 -129 -189 -129z" />
    <glyph glyph-name="odieresis" unicode="&#xf6;" horiz-adv-x="1024" 
d="M467.5 145q106.5 0 183 85t96 209t-29.5 203t-157 79t-187.5 -88t-98 -211t34 -200t159 -77zM449.5 -16q-191.5 0 -296 133t-74.5 323t168 316.5t330.5 126.5t296 -134.5t71.5 -324.5t-168 -315t-327.5 -125zM754 1077q-35 0 -56.5 24.5t-16.5 55.5t25.5 48.5t52.5 17.5
t52 -26t14 -60q-12 -60 -71 -60zM494 1077q-35 0 -56.5 24.5t-16.5 55.5t26.5 48.5t53.5 17.5t52 -26t14 -60q-12 -60 -73 -60z" />
    <glyph glyph-name="divide" unicode="&#xf7;" horiz-adv-x="1146" 
d="M570 489q54 -1 87 -41t25 -94t-48 -90q-40 -35 -94 -35t-88 42q-34 43 -26 97t49 88t95 33zM197 627q-12 0 -21 9q-8 9 -6 19l14 99q4 27 31 26h821q12 0 20 -9t7 -19l-14 -99q-4 -27 -31 -26h-821zM677 1174q54 0 87 -41q32 -41 24 -95t-48 -90q-40 -35 -94 -35t-88 42
q-34 43 -26 97t50 88t95 34z" />
    <glyph glyph-name="oslash" unicode="&#xf8;" horiz-adv-x="1024" 
d="M748 444q23 129 -39 209l-330 -489q37 -18 86 -19q109 0 186 85t97 214zM274 418q-23 -129 43 -207l332 491q-37 18 -86 19q-111 0 -191 -88t-98 -215zM795 883h34q14 0 17.5 -10.5t-6.5 -24.5l-27 -39q82 -61 117 -164.5t14 -226.5q-31 -184 -167 -309t-324 -125
q-96 0 -172 34l-7 -10q-16 -25 -43 -24h-22q-16 0 -22.5 12t3.5 27l23 34q-82 61 -118 163t-17 224q31 186 169 312.5t328 126.5q96 0 173 -35q21 35 47 35z" />
    <glyph glyph-name="ugrave" unicode="&#xf9;" horiz-adv-x="1044" 
d="M958 866q12 0 20.5 -9t6.5 -21l-129 -809q-4 -27 -25 -27h-110q-23 0 -35 31l-20 73q-41 -53 -113 -86.5t-143 -33.5q-180 0 -254 98t-47 268l77 488q4 29 31 28h152q12 0 20 -9t6 -21l-76 -484q-35 -209 148 -209q90 0 153.5 59.5t75.5 131.5l80 504q4 29 31 28h151z
M780 989l-331 219q-23 16 -7 41l50 86q6 12 19 15.5t26 -7.5l292 -276q20 -20 7 -41l-19 -31q-12 -22 -37 -6z" />
    <glyph glyph-name="uacute" unicode="&#xfa;" horiz-adv-x="1044" 
d="M958 866q12 0 20.5 -9t6.5 -21l-129 -809q-4 -27 -25 -27h-110q-23 0 -35 31l-20 73q-41 -53 -113 -86.5t-143 -33.5q-180 0 -254 98t-47 268l77 488q4 29 31 28h152q12 0 20 -9t6 -21l-76 -484q-35 -209 148 -209q90 0 153.5 59.5t75.5 131.5l80 504q4 29 31 28h151z
M512 989q-25 -16 -37 6l-18 31q-14 20 6 41l293 276q12 10 25.5 7.5t19.5 -15.5l49 -86q16 -25 -6 -41z" />
    <glyph glyph-name="ucircumflex" unicode="&#xfb;" horiz-adv-x="1044" 
d="M958 866q12 0 20.5 -9t6.5 -21l-129 -809q-4 -27 -25 -27h-110q-23 0 -35 31l-20 73q-41 -53 -113 -86.5t-143 -33.5q-180 0 -254 98t-47 268l77 488q4 29 31 28h152q12 0 20 -9t6 -21l-76 -484q-35 -209 148 -209q90 0 153.5 59.5t75.5 131.5l80 504q4 29 31 28h151z
M662 1317q23 0 45 -29l137 -162q16 -18 12 -39l-6 -47q-8 -35 -39 -6l-170 158l-221 -164q-16 -10 -25.5 -3t-7.5 19l8 48q4 25 25 41l182 165q20 18 45 19h15z" />
    <glyph glyph-name="udieresis" unicode="&#xfc;" horiz-adv-x="1044" 
d="M958 866q12 0 20.5 -9t6.5 -21l-129 -809q-4 -27 -25 -27h-110q-23 0 -35 31l-20 73q-41 -53 -113 -86.5t-143 -33.5q-180 0 -254 98t-47 268l77 488q4 29 31 28h152q12 0 20 -9t6 -21l-76 -484q-35 -209 148 -209q90 0 153.5 59.5t75.5 131.5l80 504q4 29 31 28h151z
M768 1077q-35 0 -56.5 24.5t-16.5 55.5t25.5 48.5t52.5 17.5t52.5 -26t14.5 -60q-13 -60 -72 -60zM508 1077q-35 0 -56.5 24.5t-16.5 55.5t26.5 48.5t53.5 17.5t52.5 -26t14.5 -60q-13 -60 -74 -60z" />
    <glyph glyph-name="yacute" unicode="&#xfd;" horiz-adv-x="1056" 
d="M1042 866q14 0 20.5 -11t-1.5 -28l-780 -1171q-18 -25 -35 -25h-160q-14 0 -18.5 12.5t4.5 28.5l295 434l-244 725q-12 35 24 35h144q20 0 28 -30l177 -531l358 537q14 25 31 24h157zM512 989q-25 -16 -37 6l-18 31q-14 20 6 41l293 276q12 10 25.5 7.5t19.5 -15.5
l49 -86q16 -25 -6 -41z" />
    <glyph glyph-name="thorn" unicode="&#xfe;" horiz-adv-x="1015" 
d="M574 719q-100 0 -166 -85t-86 -211t16 -202t134 -76q99 0 172 84t92 208t-21 203q-41 79 -141 79zM618 883q184 0 264 -135q80 -134 50 -328q-31 -194 -147 -316q-117 -122 -279 -120q-162 0 -223 106l-74 -438q-4 -27 -29 -27h-153q-10 0 -20 9q-9 9 -7 20l246 1558
q4 29 28 29h156q12 0 20 -9t7 -22l-74 -426q90 99 235 99z" />
    <glyph glyph-name="ydieresis" unicode="&#xff;" horiz-adv-x="1056" 
d="M1042 866q14 0 20.5 -11t-1.5 -28l-780 -1171q-18 -25 -35 -25h-160q-14 0 -18.5 12.5t4.5 28.5l295 434l-244 725q-12 35 24 35h144q20 0 28 -30l177 -531l358 537q14 25 31 24h157zM768 1077q-35 0 -56.5 24.5t-16.5 55.5t25.5 48.5t52.5 17.5t52.5 -26t14.5 -60
q-13 -60 -72 -60zM508 1077q-35 0 -56.5 24.5t-16.5 55.5t26.5 48.5t53.5 17.5t52.5 -26t14.5 -60q-13 -60 -74 -60z" />
    <glyph glyph-name="Amacron" unicode="&#x100;" horiz-adv-x="1331" 
d="M455 463h438l-121 549l-6 30zM854 1450q14 0 23 -20l337 -1395q6 -35 -26 -35h-154q-27 0 -30 27l-58 237h-608l-127 -239q-14 -25 -33 -25h-158q-18 0 -27 16.5t-1 32.5l772 1387q8 14 18 14h72zM670 1640q-33 0 -29 31l12 66q4 31 33 30h385q14 0 23.5 -9t7.5 -23
l-10 -66q-6 -29 -33 -29h-389z" />
    <glyph glyph-name="amacron" unicode="&#x101;" horiz-adv-x="1040" 
d="M463 145q215 0 260 301q23 154 -19 214.5t-148 60.5t-180.5 -88t-94.5 -211t24.5 -200t157.5 -77zM954 858q12 0 20.5 -9t6.5 -22l-127 -798q-4 -29 -29 -29h-100q-23 0 -41 41l-4 59q-96 -115 -258 -116q-203 -2 -286 132t-53 324t150.5 316.5t311.5 126.5
q154 0 235 -99l23 47q14 27 41 27h110zM451 1073q-33 0 -29 31l12 65q4 31 33 31h385q14 0 23.5 -9t7.5 -24l-11 -65q-6 -29 -32 -29h-389z" />
    <glyph glyph-name="Abreve" unicode="&#x102;" horiz-adv-x="1331" 
d="M455 463h438l-121 549l-6 30zM854 1450q14 0 23 -20l337 -1395q6 -35 -26 -35h-154q-27 0 -30 27l-58 237h-608l-127 -239q-14 -25 -33 -25h-158q-18 0 -27 16.5t-1 32.5l772 1387q8 14 18 14h72zM852 1593q-113 0 -172 60.5t-80 146.5q-4 23 12 29l70 26q20 4 29 -14
q12 -37 26.5 -60.5t47 -44t87.5 -20.5t110.5 37t88.5 94q10 14 29 6l65 -38q16 -10 6 -29q-43 -78 -124.5 -135.5t-194.5 -57.5z" />
    <glyph glyph-name="abreve" unicode="&#x103;" horiz-adv-x="1040" 
d="M463 145q215 0 260 301q23 154 -19 214.5t-148 60.5t-180.5 -88t-94.5 -211t24.5 -200t157.5 -77zM954 858q12 0 20.5 -9t6.5 -22l-127 -798q-4 -29 -29 -29h-100q-23 0 -41 41l-4 59q-96 -115 -258 -116q-203 -2 -286 132t-53 324t150.5 316.5t311.5 126.5
q154 0 235 -99l23 47q14 27 41 27h110zM632.5 1026q-112.5 0 -172 60.5t-79.5 146.5q-4 23 12 29l70 26q20 4 29 -14q12 -37 26 -60.5t47 -44t88 -20.5t110.5 37t88.5 94q10 14 29 6l65 -39q16 -10 6 -28q-43 -78 -125 -135.5t-194.5 -57.5z" />
    <glyph glyph-name="Aogonek" unicode="&#x104;" horiz-adv-x="1331" 
d="M455 463h438l-121 549l-6 30zM1019 -412q-75 0 -126 47.5t-37 135.5q23 135 188 229h-10q-27 0 -30 27l-58 237h-608l-127 -239q-14 -25 -33 -25h-158q-18 0 -27 16.5t-1 32.5l772 1387q8 14 18 14h72q14 0 23 -20l337 -1395q6 -35 -26 -35h-41q-143 -113 -160 -227
q-6 -37 12.5 -58.5t49.5 -21.5q63 0 102 47q14 14 31 -2l20 -21q14 -12 0 -38.5t-61 -58.5t-122 -32z" />
    <glyph glyph-name="aogonek" unicode="&#x105;" horiz-adv-x="1040" 
d="M463 145q215 0 260 301q23 154 -19 214.5t-148 60.5t-180.5 -88t-94.5 -211t24.5 -200t157.5 -77zM729 -307q63 0 102 47q14 14 31 -2l21 -21q14 -12 0 -38.5t-61.5 -58.5t-122 -32t-126 47.5t-36.5 135.5q23 135 188 229q-23 0 -41 41l-4 59q-96 -115 -258 -116
q-203 -2 -286 132t-53 324t150.5 316.5t311.5 126.5q154 0 235 -99l23 47q14 27 41 27h110q12 0 20.5 -9t6.5 -22l-127 -798q-5 -25 -25 -29q-143 -104 -161 -227q-6 -37 12 -58.5t49 -21.5z" />
    <glyph glyph-name="Cacute" unicode="&#x106;" horiz-adv-x="1443" 
d="M745 -16q-307 0 -476 218t-120.5 522t278.5 515t523 211q152 0 279 -64.5t205 -185.5q16 -27 -9 -47l-102 -88q-10 -10 -27.5 -8t-25.5 16q-43 72 -130 125t-200 53q-213 0 -373.5 -159.5t-196.5 -381.5t69.5 -375t310.5 -153q240 0 415 199q20 25 45 0l90 -100
q25 -25 5 -50q-253 -247 -560 -247zM815 1587q-29 -10 -35 15l-10 36q-6 18 14 33l342 168q33 16 43 -12l29 -82q10 -29 -22 -41z" />
    <glyph glyph-name="cacute" unicode="&#x107;" horiz-adv-x="956" 
d="M451 -16q-193 0 -296.5 134t-71.5 324t169 315.5t323 125.5q217 0 312 -156q12 -23 -6 -35l-86 -69q-20 -12 -37 8q-66 90 -180.5 90t-196.5 -85t-100 -204t33 -203t165 -84q45 0 67.5 8.5t36 13.5t27.5 14q33 20 70 57t57 14l74 -78q14 -20 -2 -41q-51 -59 -148 -104
t-210 -45zM500 989q-25 -16 -37 6l-19 31q-14 20 7 41l292 276q12 10 25.5 7.5t19.5 -15.5l50 -86q16 -25 -7 -41z" />
    <glyph glyph-name="Cdotaccent" unicode="&#x10a;" horiz-adv-x="1443" 
d="M745 -16q-307 0 -476 218t-120.5 522t278.5 515t523 211q152 0 279 -64.5t205 -185.5q16 -27 -9 -47l-102 -88q-10 -10 -27.5 -8t-25.5 16q-43 72 -130 125t-200 53q-213 0 -373.5 -159.5t-196.5 -381.5t69.5 -375t310.5 -153q240 0 415 199q20 25 45 0l90 -100
q25 -25 5 -50q-253 -247 -560 -247zM988 1626q-38 0 -62.5 31t-18.5 66.5t33 58t64.5 22.5t62.5 -30.5t17.5 -67.5t-33 -58.5t-63.5 -21.5z" />
    <glyph glyph-name="cdotaccent" unicode="&#x10b;" horiz-adv-x="956" 
d="M451 -16q-193 0 -296.5 134t-71.5 324t169 315.5t323 125.5q217 0 312 -156q12 -23 -6 -35l-86 -69q-20 -12 -37 8q-66 90 -180.5 90t-196.5 -85t-100 -204t33 -203t165 -84q45 0 67.5 8.5t36 13.5t27.5 14q33 20 70 57t57 14l74 -78q14 -20 -2 -41q-51 -59 -148 -104
t-210 -45zM613 1059q-38 0 -62.5 30.5t-18.5 66.5t33 58.5t65 22.5t62.5 -30.5t17.5 -67.5t-33 -58.5t-64 -21.5z" />
    <glyph glyph-name="Ccaron" unicode="&#x10c;" horiz-adv-x="1443" 
d="M745 -16q-307 0 -476 218t-120.5 522t278.5 515t523 211q152 0 279 -64.5t205 -185.5q16 -27 -9 -47l-102 -88q-10 -10 -27.5 -8t-25.5 16q-43 72 -130 125t-200 53q-213 0 -373.5 -159.5t-196.5 -381.5t69.5 -375t310.5 -153q240 0 415 199q20 25 45 0l90 -100
q25 -25 5 -50q-253 -247 -560 -247zM973 1587q-20 0 -45 31l-125 168q-20 25 -19 47l4 33q2 14 16.5 16t26.5 -12l162 -164l215 168q20 14 31.5 6t7.5 -25l-4 -28q-6 -27 -22 -43l-189 -176q-20 -20 -45 -21h-14z" />
    <glyph glyph-name="ccaron" unicode="&#x10d;" horiz-adv-x="956" 
d="M451 -16q-193 0 -296.5 134t-71.5 324t169 315.5t323 125.5q217 0 312 -156q12 -23 -6 -35l-86 -69q-20 -12 -37 8q-66 90 -180.5 90t-196.5 -85t-100 -204t33 -203t165 -84q45 0 67.5 8.5t36 13.5t27.5 14q33 20 70 57t57 14l74 -78q14 -20 -2 -41q-51 -59 -148 -104
t-210 -45zM612 1020h-14q-20 0 -45 31l-125 168q-20 25 -18 47l4 32q2 14 16 16.5t27 -11.5l161 -164l216 168q20 14 31.5 6t6.5 -25l-4 -28q-6 -27 -22 -43l-189 -177q-20 -20 -45 -20z" />
    <glyph glyph-name="Dcaron" unicode="&#x10e;" horiz-adv-x="1335" 
d="M588 199q193 0 310.5 136t156.5 390t-30 382t-261 128h-262l-164 -1036h250zM580 0h-463q-12 0 -20.5 9t-6.5 22l217 1374q4 29 29 29h467q274 0 401 -188t71 -537t-237.5 -529t-457.5 -180zM817 1587q-20 0 -45 31l-125 168q-20 25 -18 47l4 33q2 14 16.5 16t26.5 -12
l162 -164l215 168q20 14 31.5 6t7.5 -25l-5 -28q-6 -27 -22 -43l-188 -176q-20 -20 -46 -21h-14z" />
    <glyph glyph-name="dcaron" unicode="&#x10f;" horiz-adv-x="1300" 
d="M460 145q206 0 253 288t-144 288q-117 0 -192.5 -87t-95.5 -209t25.5 -201t153.5 -79zM1243 1434h168q35 0 27.5 -33.5t-15.5 -94.5t-10 -73q-14 -90 -86 -166t-176 -129q-16 -8 -24.5 12.5t8.5 28.5q158 96 178 227l-107 37q-25 10 -22 33l22 127q2 31 37 31zM1040 1450
q29 0 25 -31l-219 -1390q-4 -29 -29 -29h-82q-27 0 -35 31l-20 55q-102 -102 -262 -102q-193 0 -280 132t-55 325t154.5 317.5t305.5 124.5q145 0 215 -90l100 628q4 29 29 29h153z" />
    <glyph glyph-name="Dcroat" unicode="&#x110;" horiz-adv-x="1335" 
d="M764 1235h-262l-70 -434h256q35 0 29 -33l-19 -109q-2 -29 -32 -28h-260l-68 -432h250q193 0 310.5 136t156.5 390t-30 382t-261 128zM803 1434q274 0 401 -187.5t71 -537t-237.5 -529.5t-457.5 -180h-463q-12 0 -20.5 9t-6.5 22l94 600h-47q-31 0 -28 31l16 108
q2 31 33 31h53l96 604q4 29 29 29h467z" />
    <glyph glyph-name="dcroat" unicode="&#x111;" horiz-adv-x="1107" 
d="M569 721q-117 0 -192.5 -87t-95.5 -209t25.5 -201t153.5 -79q206 0 253 288t-144 288zM1151 1239q33 0 29 -31l-13 -73q-4 -31 -32 -31h-119l-170 -1075q-4 -29 -29 -29h-82q-27 0 -35 31l-20 55q-102 -102 -262 -102q-193 0 -280 132t-55 325t154.5 317.5t305.5 124.5
q145 0 215 -90l49 311h-117q-33 0 -28 33l12 73q4 29 33 29h122l29 182q4 29 29 29h153q29 0 25 -31l-29 -180h115z" />
    <glyph glyph-name="Emacron" unicode="&#x112;" horiz-adv-x="1116" 
d="M936 199q12 0 20.5 -9.5t6.5 -19.5l-23 -143q-4 -27 -29 -27h-794q-12 0 -20.5 9t-6.5 22l217 1374q4 29 29 29h797q10 0 18 -9.5t6 -21.5l-22 -141q-4 -27 -27 -27h-606l-66 -420h416q12 0 20.5 -8t6.5 -21l-23 -141q-4 -27 -31 -27h-422l-65 -419h598zM575 1640
q-33 0 -28 31l12 66q4 31 33 30h385q14 0 23.5 -9t7.5 -23l-11 -66q-6 -29 -32 -29h-390z" />
    <glyph glyph-name="emacron" unicode="&#x113;" horiz-adv-x="993" 
d="M556 741q-95 0 -164.5 -66.5t-92.5 -164.5l424 2q14 106 -29 167.5t-138 61.5zM580.5 883q191.5 0 277.5 -130t47 -358q-4 -29 -31 -28l-600 -2q-2 -106 50.5 -168t164 -62t224.5 82q25 16 41 -6l39 -88q14 -23 -11 -45q-45 -39 -134 -66.5t-183 -27.5q-201 0 -307.5 130
t-75.5 327.5t169 319.5t329.5 122zM422 1073q-33 0 -29 31l13 65q4 31 32 31h385q14 0 23.5 -9t7.5 -24l-10 -65q-6 -29 -33 -29h-389z" />
    <glyph glyph-name="Edotaccent" unicode="&#x116;" horiz-adv-x="1116" 
d="M936 199q12 0 20.5 -9.5t6.5 -19.5l-23 -143q-4 -27 -29 -27h-794q-12 0 -20.5 9t-6.5 22l217 1374q4 29 29 29h797q10 0 18 -9.5t6 -21.5l-22 -141q-4 -27 -27 -27h-606l-66 -420h416q12 0 20.5 -8t6.5 -21l-23 -141q-4 -27 -31 -27h-422l-65 -419h598zM765 1626
q-38 0 -62.5 31t-18.5 66.5t32.5 58t64.5 22.5t62.5 -30.5t17.5 -67.5t-32.5 -58.5t-63.5 -21.5z" />
    <glyph glyph-name="edotaccent" unicode="&#x117;" horiz-adv-x="993" 
d="M556 741q-95 0 -164.5 -66.5t-92.5 -164.5l424 2q14 106 -29 167.5t-138 61.5zM580.5 883q191.5 0 277.5 -130t47 -358q-4 -29 -31 -28l-600 -2q-2 -106 50.5 -168t164 -62t224.5 82q25 16 41 -6l39 -88q14 -23 -11 -45q-45 -39 -134 -66.5t-183 -27.5q-201 0 -307.5 130
t-75.5 327.5t169 319.5t329.5 122zM611 1059q-38 0 -62.5 30.5t-18.5 66.5t33 58.5t65 22.5t62.5 -30.5t17.5 -67.5t-33 -58.5t-64 -21.5z" />
    <glyph glyph-name="Eogonek" unicode="&#x118;" horiz-adv-x="1116" 
d="M1133 1434q10 0 18 -9.5t6 -21.5l-22 -141q-4 -27 -27 -27h-606l-66 -420h416q12 0 20.5 -8t6.5 -21l-23 -141q-4 -27 -31 -27h-422l-65 -419h598q12 0 20.5 -9.5t6.5 -19.5l-23 -143q-4 -27 -29 -27h-80q-143 -113 -159 -227q-6 -37 12 -58.5t49 -21.5q63 0 103 47
q14 14 30 -2l21 -21q14 -13 0 -39t-61.5 -58t-121.5 -32t-126 47.5t-37 135.5q23 135 188 229h-612q-12 0 -20.5 9t-6.5 22l217 1374q4 29 29 29h797z" />
    <glyph glyph-name="eogonek" unicode="&#x119;" horiz-adv-x="993" 
d="M556 741q-95 0 -164.5 -66.5t-92.5 -164.5l424 2q14 106 -29 167.5t-138 61.5zM580.5 883q191.5 0 277.5 -130t47 -358q-4 -29 -31 -28l-600 -2q-2 -106 50.5 -168t164 -62t224.5 82q25 16 41 -6l39 -88q14 -23 -11 -45q-45 -39 -125 -64q-162 -113 -180 -241
q-6 -37 12.5 -58.5t49.5 -21.5q63 0 102 47q14 14 31 -2l20 -21q14 -12 0 -38.5t-61 -58.5t-122 -32t-126 47.5t-37 135.5q18 123 164 215q-14 -2 -45 -2q-201 0 -307.5 130t-75.5 327.5t169 319.5t329.5 122z" />
    <glyph glyph-name="Ecaron" unicode="&#x11a;" horiz-adv-x="1116" 
d="M936 199q12 0 20.5 -9.5t6.5 -19.5l-23 -143q-4 -27 -29 -27h-794q-12 0 -20.5 9t-6.5 22l217 1374q4 29 29 29h797q10 0 18 -9.5t6 -21.5l-22 -141q-4 -27 -27 -27h-606l-66 -420h416q12 0 20.5 -8t6.5 -21l-23 -141q-4 -27 -31 -27h-422l-65 -419h598zM750 1587
q-20 0 -45 31l-125 168q-20 25 -19 47l4 33q2 14 16.5 16t26.5 -12l162 -164l215 168q20 14 31.5 6t7.5 -25l-4 -28q-6 -27 -23 -43l-188 -176q-20 -20 -45 -21h-14z" />
    <glyph glyph-name="ecaron" unicode="&#x11b;" horiz-adv-x="993" 
d="M556 741q-95 0 -164.5 -66.5t-92.5 -164.5l424 2q14 106 -29 167.5t-138 61.5zM580.5 883q191.5 0 277.5 -130t47 -358q-4 -29 -31 -28l-600 -2q-2 -106 50.5 -168t164 -62t224.5 82q25 16 41 -6l39 -88q14 -23 -11 -45q-45 -39 -134 -66.5t-183 -27.5q-201 0 -307.5 130
t-75.5 327.5t169 319.5t329.5 122zM610 1020h-14q-20 0 -45 31l-125 168q-20 25 -18 47l4 32q2 14 16 16.5t27 -11.5l161 -164l215 168q20 14 31.5 6t7.5 -25l-4 -28q-6 -27 -22 -43l-189 -177q-20 -20 -45 -20z" />
    <glyph glyph-name="Gbreve" unicode="&#x11e;" horiz-adv-x="1460" 
d="M1335 743q10 0 18.5 -9t6.5 -19l-86 -551q-6 -23 -19 -33q-78 -59 -222 -103t-288 -44q-285 0 -466 211t-130.5 530t291 522t518.5 203q160 0 283 -73.5t186 -176.5q16 -27 -4 -41l-112 -96q-29 -25 -47 8q-41 66 -125 124t-201 58q-203 0 -367.5 -162.5t-200.5 -380.5
t73.5 -374t304 -156t321.5 105l45 266h-215q-12 0 -20.5 9t-6.5 20l23 137q4 27 29 26h411zM979 1593q-113 0 -172 60.5t-80 146.5q-4 23 12 29l70 26q20 4 29 -14q12 -37 26.5 -60.5t47 -44t87.5 -20.5t110.5 37t88.5 94q10 14 29 6l65 -38q16 -10 6 -29
q-43 -78 -124.5 -135.5t-194.5 -57.5z" />
    <glyph glyph-name="gbreve" unicode="&#x11f;" horiz-adv-x="1046" 
d="M473 145q211 0 257 288t-159 288q-119 0 -193.5 -85t-95.5 -210t24.5 -203t166.5 -78zM961 858q12 0 20 -9t6 -22l-137 -866q-31 -188 -157 -292.5t-310 -104.5q-135 0 -221 55t-123 139q-8 23 6 33l96 76q23 12 35 -10q20 -39 36.5 -61.5t59.5 -47t103 -24.5
q106 0 183 67.5t97 181.5l19 109q-98 -98 -258 -98q-197 0 -281 132t-52 325t152.5 317.5t296 124.5t246.5 -111l27 59q16 27 39 27h117zM628.5 1034q-112.5 0 -172 60.5t-79.5 146.5q-4 23 12 29l70 26q20 4 28 -14q12 -37 26.5 -60.5t47.5 -44t88 -20.5t110.5 37t88.5 94
q10 14 29 6l65 -39q16 -10 6 -28q-43 -78 -125 -135.5t-194.5 -57.5z" />
    <glyph glyph-name="Gdotaccent" unicode="&#x120;" horiz-adv-x="1460" 
d="M1335 743q10 0 18.5 -9t6.5 -19l-86 -551q-6 -23 -19 -33q-78 -59 -222 -103t-288 -44q-285 0 -466 211t-130.5 530t291 522t518.5 203q160 0 283 -73.5t186 -176.5q16 -27 -4 -41l-112 -96q-29 -25 -47 8q-41 66 -125 124t-201 58q-203 0 -367.5 -162.5t-200.5 -380.5
t73.5 -374t304 -156t321.5 105l45 266h-215q-12 0 -20.5 9t-6.5 20l23 137q4 27 29 26h411zM986 1626q-38 0 -62.5 31t-18.5 66.5t33 58t64.5 22.5t62.5 -30.5t17.5 -67.5t-33 -58.5t-63.5 -21.5z" />
    <glyph glyph-name="gdotaccent" unicode="&#x121;" horiz-adv-x="1046" 
d="M473 145q211 0 257 288t-159 288q-119 0 -193.5 -85t-95.5 -210t24.5 -203t166.5 -78zM961 858q12 0 20 -9t6 -22l-137 -866q-31 -188 -157 -292.5t-310 -104.5q-135 0 -221 55t-123 139q-8 23 6 33l96 76q23 12 35 -10q20 -39 36.5 -61.5t59.5 -47t103 -24.5
q106 0 183 67.5t97 181.5l19 109q-98 -98 -258 -98q-197 0 -281 132t-52 325t152.5 317.5t296 124.5t246.5 -111l27 59q16 27 39 27h117zM636 1067q-38 0 -62.5 30.5t-18.5 66.5t32.5 58.5t64.5 22.5t62.5 -30.5t17.5 -67.5t-32.5 -58.5t-63.5 -21.5z" />
    <glyph glyph-name="Gcommaaccent" unicode="&#x122;" horiz-adv-x="1460" 
d="M680 -102h102q33 0 29 -31l-20 -117q-8 -59 -56.5 -107.5t-116.5 -68.5q-16 -6 -18 14q-2 14 14 25q94 37 107 123l-66 26q-29 14 -24 37l12 68q6 31 37 31zM1335 743q10 0 18.5 -9t6.5 -19l-86 -551q-6 -23 -19 -33q-78 -59 -222 -103t-288 -44q-285 0 -466 211
t-130.5 530t291 522t518.5 203q160 0 283 -73.5t186 -176.5q16 -27 -4 -41l-112 -96q-29 -25 -47 8q-41 66 -125 124t-201 58q-203 0 -367.5 -162.5t-200.5 -380.5t73.5 -374t304 -156t321.5 105l45 266h-215q-12 0 -20.5 9t-6.5 20l23 137q4 27 29 26h411z" />
    <glyph glyph-name="gcommaaccent" unicode="&#x123;" horiz-adv-x="1046" 
d="M473 145q211 0 257 288t-159 288q-119 0 -193.5 -85t-95.5 -210t24.5 -203t166.5 -78zM961 858q12 0 20 -9t6 -22l-137 -866q-31 -188 -157 -292.5t-310 -104.5q-135 0 -221 55t-123 139q-8 23 6 33l96 76q23 12 35 -10q20 -39 36.5 -61.5t59.5 -47t103 -24.5
q106 0 183 67.5t97 181.5l19 109q-98 -98 -258 -98q-197 0 -281 132t-52 325t152.5 317.5t296.5 124.5t246 -111l27 59q16 27 39 27h117zM543 1083l20 117q8 59 56.5 107.5t115.5 68.5q17 6 19 -11t-15 -28q-94 -37 -106 -123l65 -26q29 -14 25 -37l-12 -68q-6 -31 -37 -30
h-103q-30 -1 -28 30z" />
    <glyph glyph-name="Hbar" unicode="&#x126;" horiz-adv-x="1398" 
d="M408 645h649l30 191h-649zM1374 1434q29 0 25 -31l-219 -1374q-4 -29 -25 -29h-170q-29 0 -24 31l67 438h-649l-70 -440q-4 -29 -24 -29h-170q-29 0 -25 31l217 1374q4 29 27 29h170q29 0 24 -31l-61 -389h647l64 391q4 29 26 29h170z" />
    <glyph glyph-name="hbar" unicode="&#x127;" horiz-adv-x="1120" 
d="M719 883q154 0 236.5 -100.5t50.5 -295.5l-74 -458q-4 -29 -29 -29h-151q-10 0 -19.5 9t-7.5 22l76 477q33 213 -135 213q-90 0 -159 -57.5t-79 -120.5l-82 -514q-4 -29 -29 -29h-151q-12 0 -20.5 9t-6.5 22l170 1073h-116q-14 0 -23.5 7t-7.5 19l12 82q2 27 33 27h123
l28 182q4 29 31 29h152q29 0 24 -31l-28 -180h114q35 0 31 -27l-12 -82q-2 -27 -33 -26h-123l-51 -320q43 41 113.5 70t142.5 29z" />
    <glyph glyph-name="Imacron" unicode="&#x12a;" horiz-adv-x="528" 
d="M113 0q-27 0 -23 31l217 1374q4 29 27 29h172q27 0 22 -31l-217 -1374q-4 -29 -26 -29h-172zM272 1640q-33 0 -28 31l12 66q4 31 33 30h385q14 0 23.5 -9t7.5 -23l-11 -66q-6 -29 -32 -29h-390z" />
    <glyph glyph-name="imacron" unicode="&#x12b;" horiz-adv-x="454" 
d="M86 0q-10 0 -19.5 9t-7.5 22l127 807q4 29 31 28h152q12 0 20 -9t6 -21l-129 -807q-4 -29 -28 -29h-152zM150 1079q-33 0 -29 31l12 66q4 31 33 30h385q14 0 23.5 -9t7.5 -23l-11 -66q-6 -29 -32 -29h-389z" />
    <glyph glyph-name="Iogonek" unicode="&#x12e;" horiz-adv-x="528" 
d="M506 1434q27 0 22 -31l-217 -1374q-4 -29 -26 -29h-43q-143 -113 -160 -227q-6 -37 12.5 -58.5t48.5 -21.5q63 0 103 47q14 14 30 -2l21 -21q14 -13 0 -39t-61.5 -58t-121.5 -32t-125.5 47.5t-37.5 135.5q23 135 188 229h-26q-27 0 -23 31l217 1374q4 29 27 29h172z" />
    <glyph glyph-name="iogonek" unicode="&#x12f;" horiz-adv-x="454" 
d="M369 866q12 0 20 -9t6 -21l-129 -807q-4 -29 -28 -29h-39q-143 -113 -160 -227q-6 -37 12.5 -58.5t48.5 -21.5q63 0 103 47q14 14 30 -2l21 -21q14 -12 0 -38.5t-61.5 -58.5t-122 -32t-125.5 47.5t-37 135.5q23 135 188 229h-10q-10 0 -19.5 9t-7.5 22l127 807
q4 29 31 28h152zM360 1280q41 0 68 -34t19.5 -75t-36 -64.5t-69.5 -23.5t-68.5 34t-20.5 74t36.5 64.5t70.5 24.5z" />
    <glyph glyph-name="Idotaccent" unicode="&#x130;" horiz-adv-x="528" 
d="M113 0q-27 0 -23 31l217 1374q4 29 27 29h172q27 0 22 -31l-217 -1374q-4 -29 -26 -29h-172zM462 1626q-38 0 -62.5 31t-18.5 66.5t32.5 58t64.5 22.5t62.5 -30.5t17.5 -67.5t-32.5 -58.5t-63.5 -21.5z" />
    <glyph glyph-name="dotlessi" unicode="&#x131;" horiz-adv-x="454" 
d="M86 0q-10 0 -19.5 9t-7.5 22l127 807q4 29 31 28h152q12 0 20 -9t6 -21l-129 -807q-4 -29 -28 -29h-152z" />
    <glyph glyph-name="Kcommaaccent" unicode="&#x136;" horiz-adv-x="1259" 
d="M502 -102h102q31 0 29 -31l-21 -117q-8 -59 -56 -107.5t-116 -68.5q-16 -6 -18 14q-2 14 14 25q94 37 107 123l-66 26q-29 14 -24 37l12 68q6 31 37 31zM285 0h-170q-29 0 -25 31l217 1374q4 29 27 29h170q29 0 24 -31l-100 -617l635 625q20 23 55 23h187q16 0 21 -16.5
t-7 -28.5l-694 -672l473 -680q8 -10 3 -23.5t-22 -13.5h-184q-27 0 -45 31l-440 612l-101 -616q-4 -27 -24 -27z" />
    <glyph glyph-name="kcommaaccent" unicode="&#x137;" horiz-adv-x="983" 
d="M369 -102h102q33 0 29 -31l-21 -117q-8 -59 -56 -107.5t-116 -68.5q-16 -6 -18 14q-2 14 14 25q94 37 107 123l-66 26q-29 14 -25 37l13 68q6 31 37 31zM918 866q23 0 21 -24q-1 -10 -11 -19l-389 -352l301 -440q8 -12 3 -21.5t-18 -9.5h-161q-27 0 -52 31l-278 399
l-68 -401q-4 -29 -28 -29h-152q-31 0 -27 31l220 1390q4 29 30 29h152q31 0 26 -31l-145 -907l354 330q31 25 52 24h170z" />
    <glyph glyph-name="Lacute" unicode="&#x139;" horiz-adv-x="1071" 
d="M913 199q29 0 25 -31l-23 -139q-4 -29 -28 -29h-770q-12 0 -20.5 9t-6.5 22l217 1374q4 29 27 29h170q29 0 24 -31l-190 -1204h575zM580 1587q-29 -10 -35 15l-10 36q-6 18 14 33l342 168q33 16 43 -12l29 -82q10 -29 -23 -41z" />
    <glyph glyph-name="lacute" unicode="&#x13a;" horiz-adv-x="454" 
d="M86 0q-12 0 -20.5 9t-6.5 22l220 1390q4 29 30 29h152q12 0 20 -9t6 -22l-221 -1390q-4 -29 -28 -29h-152zM250 1587q-29 -10 -35 15l-10 36q-6 18 14 33l342 168q33 16 43 -12l29 -82q10 -29 -23 -41z" />
    <glyph glyph-name="Lcommaaccent" unicode="&#x13b;" horiz-adv-x="1071" 
d="M444 -102h103q30 0 28 -31l-20 -117q-8 -59 -56 -107.5t-116 -68.5q-16 -6 -18 14q-2 14 14 25q94 37 106 123l-65 26q-29 14 -25 37l13 68q6 31 36 31zM913 199q29 0 25 -31l-23 -139q-4 -29 -28 -29h-770q-12 0 -20.5 9t-6.5 22l217 1374q4 29 27 29h170q29 0 24 -31
l-190 -1204h575z" />
    <glyph glyph-name="lcommaaccent" unicode="&#x13c;" horiz-adv-x="454" 
d="M92 -102h103q30 0 28 -31l-20 -117q-8 -59 -56.5 -107.5t-115.5 -68.5q-16 -6 -18.5 11t14.5 28q94 37 106 123l-65 26q-29 14 -25 37l12 68q6 31 37 31zM86 0q-12 0 -20.5 9t-6.5 22l220 1390q4 29 30 29h152q12 0 20 -9t6 -22l-221 -1390q-4 -29 -28 -29h-152z" />
    <glyph glyph-name="Lcaron" unicode="&#x13d;" horiz-adv-x="1071" 
d="M913 199q29 0 25 -31l-23 -139q-4 -29 -28 -29h-770q-12 0 -20.5 9t-6.5 22l217 1374q4 29 27 29h170q29 0 24 -31l-190 -1204h575zM737 1587q-20 0 -45 31l-125 168q-20 25 -18 47l4 33q2 14 16.5 16t26.5 -12l162 -164l215 168q20 14 31.5 6t7.5 -25l-4 -28
q-6 -27 -23 -43l-188 -176q-20 -20 -45 -21h-15z" />
    <glyph glyph-name="lcaron" unicode="&#x13e;" horiz-adv-x="454" 
d="M86 0q-12 0 -20.5 9t-6.5 22l220 1390q4 29 30 29h152q12 0 20 -9t6 -22l-221 -1390q-4 -29 -28 -29h-152zM408 1587q-20 0 -46 31l-124 168q-20 25 -19 47l4 33q2 14 16.5 16t26.5 -12l162 -164l215 168q20 14 31.5 6t7.5 -25l-4 -28q-6 -27 -23 -43l-188 -176
q-20 -20 -45 -21h-14z" />
    <glyph glyph-name="Ldot" unicode="&#x13f;" horiz-adv-x="1112" 
d="M647 561q-35 0 -29 31l25 156q6 33 37 32h154q35 0 28 -32l-24 -156q-6 -31 -37 -31h-154zM913 199q29 0 25 -31l-23 -139q-4 -29 -28 -29h-770q-12 0 -20.5 9t-6.5 22l217 1374q4 29 27 29h170q29 0 24 -31l-190 -1204h575z" />
    <glyph glyph-name="ldot" unicode="&#x140;" horiz-adv-x="692" 
d="M510 561q-35 0 -29 31l25 156q6 33 37 32h153q35 0 29 -32l-25 -156q-6 -31 -36 -31h-154zM86 0q-12 0 -20.5 9t-6.5 22l220 1390q4 29 30 29h152q12 0 20 -9t6 -22l-221 -1390q-4 -29 -28 -29h-152z" />
    <glyph glyph-name="Lslash" unicode="&#x141;" horiz-adv-x="1177" 
d="M1018 199q29 0 24 -31l-22 -139q-4 -29 -29 -29h-770q-12 0 -20 9t-6 22l84 538l-113 -71q-29 -20 -49 10l-43 78q-16 29 8 45l229 141l101 633q4 29 26 29h170q29 0 25 -31l-76 -477l127 78q31 18 45 -9l45 -80q12 -31 -6 -43l-244 -151l-82 -522h576z" />
    <glyph glyph-name="lslash" unicode="&#x142;" horiz-adv-x="690" 
d="M356 0h-151q-12 0 -20.5 9t-6.5 22l80 508l-111 -82q-25 -20 -41 2l-51 73q-18 25 8 41l228 166l106 682q4 29 31 29h152q12 0 20 -9t6 -22l-80 -506l111 82q29 20 41 -4l49 -76q14 -20 -8 -38l-225 -166l-109 -682q-4 -29 -29 -29z" />
    <glyph glyph-name="Nacute" unicode="&#x143;" horiz-adv-x="1427" 
d="M1405 1434q10 0 18.5 -9.5t6.5 -21.5l-220 -1376q-4 -27 -26 -27h-135q-23 0 -41 33l-535 1005l-164 -1011q-4 -27 -24 -27h-170q-10 0 -18.5 9t-6.5 20l217 1376q4 29 29 29h141q25 0 41 -37l531 -989l159 997q4 29 27 29h170zM725 1587q-29 -10 -35 15l-10 36
q-6 18 14 33l342 168q33 16 43 -12l29 -82q10 -29 -23 -41z" />
    <glyph glyph-name="nacute" unicode="&#x144;" horiz-adv-x="1054" 
d="M657 883q173 0 244.5 -95.5t46.5 -246.5l-80 -512q-4 -29 -28 -29h-152q-12 0 -20.5 9t-5.5 22l75 483q33 207 -131 207q-94 0 -171 -57.5t-87 -128.5l-82 -506q-4 -29 -28 -29h-152q-12 0 -20.5 9t-6.5 22l125 800q4 27 31 27h131q20 0 25 -33l10 -65q103 123 276 123z
M524 989q-25 -16 -37 6l-18 31q-14 20 6 41l293 276q12 10 25.5 7.5t19.5 -15.5l49 -86q16 -25 -6 -41z" />
    <glyph glyph-name="Ncommaaccent" unicode="&#x145;" horiz-adv-x="1427" 
d="M588 -102h102q31 0 29 -31l-21 -117q-8 -59 -56 -107.5t-116 -68.5q-16 -6 -18 14q-2 14 14 25q94 37 107 123l-66 26q-29 14 -24 37l12 68q6 31 37 31zM1405 1434q10 0 18.5 -9.5t6.5 -21.5l-220 -1376q-4 -27 -26 -27h-135q-23 0 -41 33l-535 1005l-164 -1011
q-4 -27 -24 -27h-170q-10 0 -18.5 9t-6.5 20l217 1376q4 29 29 29h141q25 0 41 -37l531 -989l159 997q4 29 27 29h170z" />
    <glyph glyph-name="ncommaaccent" unicode="&#x146;" horiz-adv-x="1054" 
d="M397 -102h103q32 0 28 -31l-20 -117q-8 -59 -56.5 -107.5t-115.5 -68.5q-16 -6 -18.5 11t14.5 28q94 37 106 123l-65 26q-29 14 -25 37l12 68q6 31 37 31zM657 883q173 0 244.5 -95.5t46.5 -246.5l-80 -512q-4 -29 -28 -29h-152q-12 0 -20.5 9t-5.5 22l75 483
q33 207 -131 207q-94 0 -171 -57.5t-87 -128.5l-82 -506q-4 -29 -28 -29h-152q-12 0 -20.5 9t-6.5 22l125 800q4 27 31 27h131q20 0 25 -33l10 -65q103 123 276 123z" />
    <glyph glyph-name="Ncaron" unicode="&#x147;" horiz-adv-x="1427" 
d="M1405 1434q10 0 18.5 -9.5t6.5 -21.5l-220 -1376q-4 -27 -26 -27h-135q-23 0 -41 33l-535 1005l-164 -1011q-4 -27 -24 -27h-170q-10 0 -18.5 9t-6.5 20l217 1376q4 29 29 29h141q25 0 41 -37l531 -989l159 997q4 29 27 29h170zM883 1587q-20 0 -45 31l-125 168
q-20 25 -19 47l4 33q2 14 16.5 16t26.5 -12l162 -164l215 168q20 14 31.5 6t7.5 -25l-4 -28q-6 -27 -23 -43l-188 -176q-20 -20 -45 -21h-14z" />
    <glyph glyph-name="ncaron" unicode="&#x148;" horiz-adv-x="1054" 
d="M657 883q173 0 244.5 -95.5t46.5 -246.5l-80 -512q-4 -29 -28 -29h-152q-12 0 -20.5 9t-5.5 22l75 483q33 207 -131 207q-94 0 -171 -57.5t-87 -128.5l-82 -506q-4 -29 -28 -29h-152q-12 0 -20.5 9t-6.5 22l125 800q4 27 31 27h131q20 0 25 -33l10 -65q103 123 276 123z
M637 1020h-14q-20 0 -45 31l-125 168q-20 25 -19 47l4 32q2 14 16.5 16.5t26.5 -11.5l162 -164l215 168q20 14 31.5 6t7.5 -25l-4 -28q-6 -27 -23 -43l-188 -177q-20 -20 -45 -20z" />
    <glyph glyph-name="Eng" unicode="&#x14a;" horiz-adv-x="1427" 
d="M1376 1434q12 0 22 -12t7 -23l-234 -1475q-23 -139 -210 -274q-20 -8 -35 14l-70 84q-10 18 4 39q117 80 131 164q8 49 -22 115l-520 964l-162 -1010q-2 -20 -23 -20h-168q-12 0 -21 11t-7 24l219 1376q2 23 24 23h146q25 0 39 -37l530 -985l160 999q2 23 22 23h168z" />
    <glyph glyph-name="eng" unicode="&#x14b;" horiz-adv-x="1075" 
d="M678 883q164 0 239.5 -94.5t51.5 -247.5l-88 -557q-10 -66 -42 -121.5t-61.5 -85t-83.5 -74.5q-25 -18 -45 4l-65 78q-16 20 0 45q48 44 65 79.5t23 74.5l86 530q33 207 -146 207q-96 0 -175 -56.5t-89 -129.5l-82 -506q-4 -29 -28 -29h-152q-12 0 -20.5 9t-6.5 22
l125 800q8 27 31 27h129q20 0 25 -33l10 -65q98 123 299 123z" />
    <glyph glyph-name="Omacron" unicode="&#x14c;" horiz-adv-x="1597" 
d="M754 182q213 0 370.5 160t191.5 381t-69.5 374.5t-314.5 153.5t-370 -161.5t-193.5 -382t69 -373t316.5 -152.5zM737 -16q-297 0 -467 217t-123 524t276.5 516t526.5 209t466 -219t121 -525.5t-275.5 -514t-524.5 -207.5zM795 1640q-33 0 -29 31l12 66q4 31 33 30h385
q14 0 23.5 -9t7.5 -23l-10 -66q-6 -29 -33 -29h-389z" />
    <glyph glyph-name="omacron" unicode="&#x14d;" horiz-adv-x="1024" 
d="M467.5 145q106.5 0 183 85t96 209t-29.5 203t-157 79t-187.5 -88t-98 -211t34 -200t159 -77zM449.5 -16q-191.5 0 -296 133t-74.5 323t168 316.5t330.5 126.5t296 -134.5t71.5 -324.5t-168 -315t-327.5 -125zM422 1073q-33 0 -29 31l13 65q4 31 32 31h385q14 0 23.5 -9
t7.5 -24l-10 -65q-6 -29 -33 -29h-389z" />
    <glyph glyph-name="Ohungarumlaut" unicode="&#x150;" horiz-adv-x="1597" 
d="M932 1251q-211 0 -370 -161.5t-193.5 -382t69 -373t316.5 -152.5t370.5 160t191.5 381t-69.5 374.5t-314.5 153.5zM950 1450q297 0 466 -219t121 -525.5t-275.5 -514t-524.5 -207.5t-467 217t-123 524t276.5 516t526.5 209zM866 1595l-20 23q-12 20 14 41l225 182
q27 18 41 -8l4 -6l17 14q29 18 41 -10l53 -70q10 -23 -12 -37l-264 -139q-23 -10 -35 6l-6 6l-21 -10q-25 -15 -37 8z" />
    <glyph glyph-name="ohungarumlaut" unicode="&#x151;" horiz-adv-x="1024" 
d="M467.5 145q106.5 0 183 85t96 209t-29.5 203t-157 79t-187.5 -88t-98 -211t34 -200t159 -77zM449.5 -16q-191.5 0 -296 133t-74.5 323t168 316.5t330.5 126.5t296 -134.5t71.5 -324.5t-168 -315t-327.5 -125zM684 1032l-27 17q-18 12 -2 38l183 234q14 20 41 2l63 -45
q27 -23 2 -45l-223 -199q-19 -16 -37 -2zM371 1030l-25 17q-23 16 -2 40l180 234q18 20 43 0l64 -45q25 -25 2 -45l-225 -199q-14 -14 -37 -2z" />
    <glyph glyph-name="OE" unicode="&#x152;" horiz-adv-x="1880" 
d="M748 182q72 0 133 21l163 1036q-45 12 -108 12q-209 -2 -369.5 -160.5t-197.5 -382.5t68.5 -375t310.5 -151zM1896 1434q10 0 18.5 -9.5t6.5 -21.5l-23 -141q-4 -27 -26 -27h-606l-66 -420h416q12 0 20.5 -8t5.5 -21l-22 -141q-4 -27 -31 -27h-422l-65 -419h598
q12 0 20.5 -9.5t5.5 -19.5l-22 -143q-4 -27 -29 -27h-780q-82 -16 -158 -16q-283 0 -461 211t-126.5 531t287 522t509.5 202q82 0 152 -16h798z" />
    <glyph glyph-name="oe" unicode="&#x153;" horiz-adv-x="1660" 
d="M467.5 145q106.5 0 183 85t96 209t-29.5 203t-157 79t-187.5 -88t-98 -211t34 -200t159 -77zM1224 741q-95 0 -165 -66.5t-92 -164.5l424 2q14 106 -29 167.5t-138 61.5zM1233.5 883q205.5 0 292 -130t47.5 -358q-4 -29 -31 -28l-600 -2q-2 -106 50 -168t164 -62t224 82
q25 16 41 -6l39 -88q14 -23 -10 -45q-45 -39 -134 -66.5t-183 -27.5q-221 0 -326 153q-143 -154 -346 -153.5t-307.5 133.5t-74.5 323t168 316.5t336.5 126.5t303.5 -152q141 152 346.5 152z" />
    <glyph glyph-name="Racute" unicode="&#x154;" horiz-adv-x="1243" 
d="M713 702q219 0 264 279q41 254 -158 254h-317l-84 -533h295zM1036 0h-164q-25 0 -34 29l-166 477h-287l-76 -479q-4 -27 -26 -27h-166q-12 0 -20.5 9t-6.5 20l217 1376q4 29 29 29h579q147 0 231.5 -128t52.5 -323.5t-113.5 -305.5t-196.5 -145l164 -501q10 -31 -17 -31z
M635 1587q-29 -10 -35 15l-10 36q-6 18 14 33l342 168q33 16 43 -12l29 -82q10 -29 -23 -41z" />
    <glyph glyph-name="racute" unicode="&#x155;" horiz-adv-x="737" 
d="M238 0h-152q-12 0 -20.5 9t-6.5 22l125 800q4 27 31 27h88q20 0 33 -33l18 -63q111 121 238 121q96 0 137 -41q14 -16 4 -33l-63 -100q-8 -18 -46 -2.5t-79 16.5q-80 0 -134.5 -65.5t-68.5 -153.5l-76 -475q-4 -29 -28 -29zM393 989q-25 -16 -37 6l-18 31q-14 20 6 41
l293 276q12 10 25.5 7.5t19.5 -15.5l49 -86q16 -25 -6 -41z" />
    <glyph glyph-name="Rcommaaccent" unicode="&#x156;" horiz-adv-x="1243" 
d="M510 -102h102q31 0 29 -31l-20 -117q-8 -59 -56.5 -107.5t-115.5 -68.5q-16 -6 -18.5 11t13.5 28q94 37 107 123l-66 26q-29 14 -24 37l12 68q6 31 37 31zM713 702q219 0 264 279q41 254 -158 254h-317l-84 -533h295zM1036 0h-164q-25 0 -34 29l-166 477h-287l-76 -479
q-4 -27 -26 -27h-166q-12 0 -20.5 9t-6.5 20l217 1376q4 29 29 29h579q147 0 231.5 -128t52.5 -323.5t-113.5 -305.5t-196.5 -145l164 -501q10 -31 -17 -31z" />
    <glyph glyph-name="rcommaaccent" unicode="&#x157;" horiz-adv-x="737" 
d="M266 -102h103q32 0 28 -31l-20 -117q-8 -59 -56.5 -107.5t-115.5 -68.5q-16 -6 -18.5 11t14.5 28q94 37 106 123l-65 26q-29 14 -25 37l12 68q6 31 37 31zM238 0h-152q-12 0 -20.5 9t-6.5 22l125 800q4 27 31 27h88q20 0 33 -33l18 -63q111 121 238 121q96 0 137 -41
q14 -16 4 -33l-63 -100q-8 -18 -46 -2.5t-79 16.5q-80 0 -134.5 -65.5t-68.5 -153.5l-76 -475q-4 -29 -28 -29z" />
    <glyph glyph-name="Rcaron" unicode="&#x158;" horiz-adv-x="1243" 
d="M713 702q219 0 264 279q41 254 -158 254h-317l-84 -533h295zM1036 0h-164q-25 0 -34 29l-166 477h-287l-76 -479q-4 -27 -26 -27h-166q-12 0 -20.5 9t-6.5 20l217 1376q4 29 29 29h579q147 0 231.5 -128t52.5 -323.5t-113.5 -305.5t-196.5 -145l164 -501q10 -31 -17 -31z
M793 1587q-20 0 -45 31l-125 168q-20 25 -19 47l4 33q2 14 16.5 16t26.5 -12l162 -164l215 168q20 14 31.5 6t7.5 -25l-4 -28q-6 -27 -23 -43l-188 -176q-20 -20 -45 -21h-14z" />
    <glyph glyph-name="rcaron" unicode="&#x159;" horiz-adv-x="737" 
d="M238 0h-152q-12 0 -20.5 9t-6.5 22l125 800q4 27 31 27h88q20 0 33 -33l18 -63q111 121 238 121q96 0 137 -41q14 -16 4 -33l-63 -100q-8 -18 -46 -2.5t-79 16.5q-80 0 -134.5 -65.5t-68.5 -153.5l-76 -475q-4 -29 -28 -29zM506 1020h-14q-20 0 -46 31l-124 168
q-20 25 -19 47l4 32q2 14 16.5 16.5t26.5 -11.5l162 -164l215 168q20 14 31.5 6t7.5 -25l-4 -28q-6 -27 -23 -43l-188 -177q-20 -20 -45 -20z" />
    <glyph glyph-name="Sacute" unicode="&#x15a;" horiz-adv-x="1210" 
d="M565 -16q-315 0 -471 198q-20 25 -2 39l113 96q16 18 37 -2q41 -51 128 -93t195.5 -42t197.5 53.5t104 144.5t-47 149t-265 143q-72 29 -108.5 45t-92.5 52q-56 35 -84 71q-69 89 -51 217q25 164 162 279.5t367 115.5q285 0 438 -184q16 -25 -4 -41l-109 -88
q-20 -16 -43 2q-125 115 -295 114q-121 0 -199.5 -51t-91 -137t45 -135t196.5 -109q109 -41 166 -67.5t131 -78.5q142 -100 104 -302q-29 -164 -162 -276.5t-360 -112.5zM623 1587q-29 -10 -35 15l-10 36q-6 18 14 33l342 168q33 16 43 -12l29 -82q10 -29 -23 -41z" />
    <glyph glyph-name="sacute" unicode="&#x15b;" horiz-adv-x="817" 
d="M327.5 -16q-186.5 0 -292.5 118q-20 25 -6 41l57 72q16 18 41 -2q86 -80 225 -80q72 0 115 32t47 81t-25.5 71.5t-104.5 47.5t-114 41t-83 48q-84 60 -60.5 179t113.5 184.5t247.5 65.5t255.5 -90q18 -18 9 -35l-60 -78q-16 -16 -35 -4q-92 57 -170 57q-139 0 -159 -100
q-17 -77 97 -113q48 -16 67.5 -22t47 -16.5t44 -18.5t38 -19.5t34 -22.5t26.5 -25q50 -51 32.5 -158.5t-109 -180.5t-278 -73zM397 989q-25 -16 -37 6l-18 31q-14 20 6 41l293 276q12 10 25.5 7.5t19.5 -15.5l49 -86q16 -25 -6 -41z" />
    <glyph glyph-name="Scedilla" unicode="&#x15e;" horiz-adv-x="1210" 
d="M501.5 -399q-69.5 0 -106.5 27.5t-45 56.5q-8 14 6 20l41 27q14 10 32 -13.5t52 -23.5q80 0 92 82q8 43 -20.5 55t-52 -3.5t-41.5 -6.5l-56 20q-20 6 -10 23l74 125q-242 27 -373 192q-20 25 -2 39l113 96q16 18 37 -2q41 -51 128 -93t195.5 -42t197.5 53.5t104 144.5
t-47.5 149t-264.5 143q-72 29 -108.5 45t-92.5 52q-56 35 -84 71q-69 89 -51 217q25 164 162 279.5t367 115.5q284 0 438 -184q16 -25 -4 -41l-109 -88q-20 -16 -43 2q-125 115 -295 114q-121 0 -199.5 -51t-91 -137t45 -135t196.5 -109q109 -41 166 -67.5t131 -78.5
q142 -100 104 -302q-29 -162 -158.5 -274.5t-353.5 -114.5l-47 -72q80 10 123 -34t31 -120t-61.5 -116.5t-119 -40.5z" />
    <glyph glyph-name="scedilla" unicode="&#x15f;" horiz-adv-x="817" 
d="M487 733q-139 0 -159 -100q-17 -77 97 -113q48 -16 67.5 -22t47 -16.5t44 -18.5t38 -19.5t34 -22.5t26.5 -25q50 -51 32.5 -157.5t-104 -178.5t-248.5 -76l-47 -72q80 10 123 -34t31 -120t-61.5 -116.5t-119 -40.5t-106.5 27.5t-45 56.5q-8 14 6 20l41 27q14 10 32 -13.5
t52 -23.5q80 0 92 82q8 43 -20.5 55t-52 -3.5t-41.5 -6.5l-56 20q-20 6 -10 23l76 125q-141 25 -221 112q-20 25 -6 41l57 72q16 18 41 -2q86 -80 225 -80q72 0 115 32t47 81t-25.5 71.5t-104.5 47.5t-114 41t-83 48q-84 60 -60.5 179t113.5 184.5t247.5 65.5t255.5 -90
q18 -18 9 -35l-60 -78q-16 -16 -35 -4q-92 57 -170 57z" />
    <glyph glyph-name="Scaron" unicode="&#x160;" horiz-adv-x="1210" 
d="M565 -16q-315 0 -471 198q-20 25 -2 39l113 96q16 18 37 -2q41 -51 128 -93t195.5 -42t197.5 53.5t104 144.5t-47 149t-265 143q-72 29 -108.5 45t-92.5 52q-56 35 -84 71q-69 89 -51 217q25 164 162 279.5t367 115.5q285 0 438 -184q16 -25 -4 -41l-109 -88
q-20 -16 -43 2q-125 115 -295 114q-121 0 -199.5 -51t-91 -137t45 -135t196.5 -109q109 -41 166 -67.5t131 -78.5q142 -100 104 -302q-29 -164 -162 -276.5t-360 -112.5zM780 1587q-20 0 -45 31l-125 168q-20 25 -18 47l4 33q2 14 16.5 16t26.5 -12l162 -164l215 168
q20 14 31.5 6t7.5 -25l-4 -28q-6 -27 -23 -43l-188 -176q-20 -20 -45 -21h-15z" />
    <glyph glyph-name="scaron" unicode="&#x161;" horiz-adv-x="817" 
d="M327.5 -16q-186.5 0 -292.5 118q-20 25 -6 41l57 72q16 18 41 -2q86 -80 225 -80q72 0 115 32t47 81t-25.5 71.5t-104.5 47.5t-114 41t-83 48q-84 60 -60.5 179t113.5 184.5t247.5 65.5t255.5 -90q18 -18 9 -35l-60 -78q-16 -16 -35 -4q-92 57 -170 57q-139 0 -159 -100
q-17 -77 97 -113q48 -16 67.5 -22t47 -16.5t44 -18.5t38 -19.5t34 -22.5t26.5 -25q50 -51 32.5 -158.5t-109 -180.5t-278 -73zM510 1020h-14q-20 0 -45 31l-125 168q-20 25 -19 47l4 32q2 14 16.5 16.5t26.5 -11.5l162 -164l215 168q20 14 31.5 6t7.5 -25l-4 -28
q-6 -27 -23 -43l-188 -177q-20 -20 -45 -20z" />
    <glyph glyph-name="uni0162" unicode="&#x162;" horiz-adv-x="1206" 
d="M1241 1434q12 0 20.5 -9.5t6.5 -21.5l-21 -139q-4 -29 -30 -29h-375l-193 -1206q-4 -29 -26 -29h-45l-50 -74q80 10 123 -34t31 -119.5t-61.5 -116.5t-119 -41t-106.5 27.5t-45 56.5q-8 14 6 20l41 27q14 10 32 -13.5t52 -23.5q80 0 92 82q8 43 -20.5 55.5t-51.5 -3.5
t-42 -7l-56 21q-20 6 -10 22l74 121h-12q-10 0 -18.5 9t-6.5 22l191 1204h-371q-10 0 -19.5 9t-7.5 22l23 139q4 29 28 29h967z" />
    <glyph glyph-name="uni0163" unicode="&#x163;" horiz-adv-x="763" 
d="M655 866q12 0 20.5 -9t6.5 -21l-16 -111q-4 -27 -31 -27h-199l-67 -424q-10 -68 4 -95t71.5 -27t118.5 51q18 10 29 -10l43 -97q10 -23 -12 -35q-100 -68 -230 -75l-49 -74q80 10 123 -34t31 -120t-61.5 -116.5t-119.5 -40.5t-106.5 27.5t-44.5 56.5q-8 14 6 20l41 27
q14 10 32 -13.5t52 -23.5q80 0 92 82q8 43 -20.5 55t-51.5 -3t-43 -7l-55 20q-20 6 -10 23l78 129q-160 41 -127 280l67 424h-84q-10 0 -19 9.5t-7 19.5l18 111q4 29 31 28h88l35 217q4 29 28 29h154q10 0 18.5 -9t6.5 -22l-33 -215h192z" />
    <glyph glyph-name="Tcaron" unicode="&#x164;" horiz-adv-x="1206" 
d="M1241 1434q12 0 20.5 -9.5t6.5 -21.5l-21 -139q-4 -29 -30 -29h-375l-193 -1206q-4 -29 -26 -29h-168q-10 0 -18.5 9t-6.5 22l191 1204h-371q-10 0 -19.5 9t-7.5 22l23 139q4 29 28 29h967zM778 1587q-20 0 -45 31l-125 168q-20 25 -18 47l4 33q2 14 16.5 16t26.5 -12
l162 -164l215 168q20 14 31.5 6t7.5 -25l-4 -28q-6 -27 -23 -43l-188 -176q-20 -20 -45 -21h-15z" />
    <glyph glyph-name="tcaron" unicode="&#x165;" horiz-adv-x="831" 
d="M143 698q-10 0 -19 9.5t-7 19.5l18 111q4 29 31 28h88l35 217q4 29 28 29h154q10 0 18.5 -9t6.5 -22l-33 -215h192q12 0 20.5 -9t6.5 -21l-16 -111q-4 -27 -31 -27h-199l-67 -424q-10 -68 4 -95t71.5 -27t118.5 51q18 10 29 -10l43 -97q10 -23 -12 -35q-109 -76 -263 -75
q-242 0 -200 288l67 424h-84zM903 1376q-8 -61 -10 -73q-14 -90 -86 -166t-176 -129q-16 -8 -24.5 12t7.5 29q158 96 179 227l-107 37q-25 10 -22 33l22 127q2 31 37 30h168q35 1 27.5 -32.5t-15.5 -94.5z" />
    <glyph glyph-name="Tbar" unicode="&#x166;" horiz-adv-x="1206" 
d="M1241 1434q12 0 20.5 -9.5t6.5 -21.5l-21 -139q-4 -29 -30 -29h-375l-70 -434h156q35 0 28 -33l-18 -109q-2 -29 -33 -28h-160l-96 -602q-4 -29 -26 -29h-168q-10 0 -18.5 9t-6.5 22l94 600h-147q-33 0 -29 31l17 108q4 31 32 31h154l70 434h-371q-10 0 -19.5 9t-7.5 22
l23 139q4 29 28 29h967z" />
    <glyph glyph-name="tbar" unicode="&#x167;" horiz-adv-x="784" 
d="M143 698q-10 0 -18 10t-6 21l18 109q4 29 29 28h90l16 113h-82q-12 0 -20 9t-6 22l18 110q4 27 29 27h88l31 201q4 27 30 26h152q12 0 20 -8t7 -20l-31 -199h194q12 0 20 -9t7 -20l-16 -110q-4 -29 -31 -29h-201l-16 -113h194q11 0 19 -9t6 -21l-16 -109q-4 -29 -29 -29
h-203l-65 -419q-10 -68 1 -99q11 -30 66 -30t123 49q20 16 33 -6l41 -97q12 -23 -10 -37q-100 -76 -260 -75q-244 0 -203 297l65 417h-84z" />
    <glyph glyph-name="Umacron" unicode="&#x16a;" horiz-adv-x="1376" 
d="M1372 1434q31 0 27 -31l-135 -807q-40 -253 -188 -426q-75 -88 -189.5 -137t-255.5 -49q-193 0 -311 91q-218 169 -160 533l133 797q6 29 31 29h165q29 0 25 -31l-131 -789q-31 -190 36.5 -311t226.5 -121t265.5 125t137.5 320l129 778q4 29 28 29h166zM702 1640
q-33 0 -28 31l12 66q4 31 33 30h385q14 0 23.5 -9t7.5 -23l-11 -66q-6 -29 -32 -29h-390z" />
    <glyph glyph-name="umacron" unicode="&#x16b;" horiz-adv-x="1044" 
d="M958 866q12 0 20.5 -9t6.5 -21l-129 -809q-4 -27 -25 -27h-110q-23 0 -35 31l-20 73q-41 -53 -113 -86.5t-143 -33.5q-180 0 -254 98t-47 268l77 488q4 29 31 28h152q12 0 20 -9t6 -21l-76 -484q-35 -209 148 -209q90 0 153.5 59.5t75.5 131.5l80 504q4 29 31 28h151z
M436 1073q-33 0 -28 31l12 65q4 31 33 31h385q14 0 23 -9t7 -24l-10 -65q-6 -29 -33 -29h-389z" />
    <glyph glyph-name="ubreve" unicode="&#x16d;" horiz-adv-x="1044" 
d="M958 866q12 0 20.5 -9t6.5 -21l-129 -809q-4 -27 -25 -27h-110q-23 0 -35 31l-20 73q-41 -53 -113 -86.5t-143 -33.5q-180 0 -254 98t-47 268l77 488q4 29 31 28h152q12 0 20 -9t6 -21l-76 -484q-35 -209 148 -209q90 0 153.5 59.5t75.5 131.5l80 504q4 29 31 28h151z
M618 1026q-113 0 -172 60.5t-79 146.5q-4 23 12 29l70 26q20 4 28 -14q12 -37 26.5 -60.5t47.5 -44t88 -20.5t110.5 37t88.5 94q10 14 28 6l66 -39q16 -10 6 -28q-43 -78 -125 -135.5t-195 -57.5z" />
    <glyph glyph-name="Uring" unicode="&#x16e;" horiz-adv-x="1376" 
d="M1372 1434q31 0 27 -31l-135 -807q-40 -253 -188 -426q-75 -88 -189.5 -137t-255.5 -49q-193 0 -311 91q-218 169 -160 533l133 797q6 29 31 29h165q29 0 25 -31l-131 -789q-31 -190 36.5 -311t226.5 -121t265.5 125t137.5 320l129 778q4 29 28 29h166zM887 1690
q68 0 78 75q4 33 -11.5 52.5t-44.5 19.5q-63 0 -78 -72q-4 -33 10.5 -54t45.5 -21zM878 1589q-73 0 -119 51.5t-33 131.5t66.5 122.5t126 42.5t119.5 -51t33 -131t-67 -123t-126 -43z" />
    <glyph glyph-name="uring" unicode="&#x16f;" horiz-adv-x="1044" 
d="M958 866q12 0 20.5 -9t6.5 -21l-129 -809q-4 -27 -25 -27h-110q-23 0 -35 31l-20 73q-41 -53 -113 -86.5t-143 -33.5q-180 0 -254 98t-47 268l77 488q4 29 31 28h152q12 0 20 -9t6 -21l-76 -484q-35 -209 148 -209q90 0 153.5 59.5t75.5 131.5l80 504q4 29 31 28h151z
M621 1122q68 0 77 76q4 33 -11 52.5t-44 19.5q-63 0 -78 -72q-4 -33 10.5 -54.5t45.5 -21.5zM611 1022q-73 0 -119 51t-32.5 131t67 123t126 43t119.5 -51t33 -131t-67.5 -123t-126.5 -43z" />
    <glyph glyph-name="Uhungarumlaut" unicode="&#x170;" horiz-adv-x="1376" 
d="M1372 1434q31 0 27 -31l-135 -807q-40 -253 -188 -426q-75 -88 -189.5 -137t-255.5 -49q-193 0 -311 91q-218 169 -160 533l133 797q6 29 31 29h165q29 0 25 -31l-131 -789q-31 -190 36.5 -311t226.5 -121t265.5 125t137.5 320l129 778q4 29 28 29h166zM774 1595l-20 23
q-12 20 14 41l225 182q27 18 41 -8l4 -6l17 14q29 18 41 -10l53 -70q10 -23 -12 -37l-265 -139q-23 -10 -34 6l-7 6l-20 -10q-25 -15 -37 8z" />
    <glyph glyph-name="uhungarumlaut" unicode="&#x171;" horiz-adv-x="1044" 
d="M958 866q12 0 20.5 -9t6.5 -21l-129 -809q-4 -27 -25 -27h-110q-23 0 -35 31l-20 73q-41 -53 -113 -86.5t-143 -33.5q-180 0 -254 98t-47 268l77 488q4 29 31 28h152q12 0 20 -9t6 -21l-76 -484q-35 -209 148 -209q90 0 153.5 59.5t75.5 131.5l80 504q4 29 31 28h151z
M698 1032l-26 17q-18 12 -2 38l182 234q14 20 41 2l63 -45q27 -23 2 -45l-223 -199q-19 -16 -37 -2zM385 1030l-25 17q-23 16 -2 40l181 234q18 20 43 0l63 -45q25 -25 2 -45l-225 -199q-14 -14 -37 -2z" />
    <glyph glyph-name="Uogonek" unicode="&#x172;" horiz-adv-x="1376" 
d="M1372 1434q31 0 27 -31l-135 -807q-33 -213 -142.5 -370.5t-298.5 -215.5q-156 -113 -174 -237q-6 -37 12.5 -58.5t49.5 -21.5q63 0 102 47q14 14 31 -2l20 -21q14 -12 0 -38.5t-61 -58.5t-122 -32t-126 47.5t-37 135.5q18 123 164 215q-16 -2 -51 -2q-193 0 -311 91
q-218 169 -160 533l133 797q6 29 31 29h165q29 0 25 -31l-131 -789q-31 -190 36.5 -311t226.5 -121t265.5 125t137.5 320l129 778q4 29 28 29h166z" />
    <glyph glyph-name="uogonek" unicode="&#x173;" horiz-adv-x="1044" 
d="M958 866q12 0 20.5 -9t6.5 -21l-129 -809q-4 -27 -25 -27h-43q-143 -113 -159 -227q-6 -37 12 -58.5t49 -21.5q63 0 103 47q14 14 30 -2l21 -21q14 -13 0 -39t-62 -58t-122 -32t-126 48t-38 128.5t72.5 143.5t131.5 100q-6 6 -14 23l-20 73q-41 -53 -113 -86.5
t-143 -33.5q-180 0 -254 98t-47 268l77 488q4 29 31 28h152q12 0 20 -9t6 -21l-76 -484q-35 -209 148 -209q90 0 153.5 59.5t75.5 131.5l80 504q4 29 31 28h151z" />
    <glyph glyph-name="Wcircumflex" unicode="&#x174;" horiz-adv-x="1867" 
d="M1915 1434q14 0 21.5 -12.5t0.5 -28.5l-600 -1368q-14 -25 -30 -25h-78q-23 0 -29 27l-170 977l-471 -979q-12 -25 -31 -25h-82q-23 0 -24 27l-186 1368q-4 39 24 39h156q20 0 28 -27l115 -971l463 975q10 23 27 23h69q16 0 23 -29l176 -965l418 973q8 20 28 21h152z
M1147 1884h14q23 0 45 -29l137 -161q16 -18 13 -39l-6 -47q-8 -35 -39 -6l-170 157l-221 -164q-16 -10 -25.5 -3t-7.5 20l8 47q4 25 25 41l182 166q20 18 45 18z" />
    <glyph glyph-name="wcircumflex" unicode="&#x175;" horiz-adv-x="1345" 
d="M1317 866q14 0 19 -12t-1 -25l-403 -804q-14 -25 -29 -25h-94q-23 0 -27 27l-88 546l-258 -548q-10 -25 -28 -25h-93q-23 0 -26 27l-152 809q-4 31 25 30h147q25 0 29 -26l76 -525l250 527q10 25 28 24h82q20 0 25 -26l88 -525l235 525q10 27 33 26h162zM809 1317
q23 0 45 -29l137 -162q16 -18 13 -39l-7 -47q-8 -35 -39 -6l-170 158l-221 -164q-16 -10 -25.5 -3t-6.5 19l8 48q4 25 24 41l183 165q20 18 45 19h14z" />
    <glyph glyph-name="Ycircumflex" unicode="&#x176;" horiz-adv-x="1261" 
d="M1305 1434q16 0 24 -15.5t-2 -32.5l-569 -772l-96 -587q-4 -27 -27 -27h-166q-12 0 -20.5 8t-6.5 21l93 585l-295 785q-10 35 18 35h166q31 0 43 -33l209 -567l418 575q18 25 45 25h166zM840 1884h14q23 0 45 -29l137 -161q16 -18 13 -39l-7 -47q-8 -35 -38 -6l-170 157
l-222 -164q-16 -10 -25 -3t-7 20l8 47q4 25 24 41l183 166q20 18 45 18z" />
    <glyph glyph-name="ycircumflex" unicode="&#x177;" horiz-adv-x="1056" 
d="M1042 866q14 0 20.5 -11t-1.5 -28l-780 -1171q-18 -25 -35 -25h-160q-14 0 -18.5 12.5t4.5 28.5l295 434l-244 725q-12 35 24 35h144q20 0 28 -30l177 -531l358 537q14 25 31 24h157zM662 1317q23 0 45 -29l137 -162q16 -18 12 -39l-6 -47q-8 -35 -39 -6l-170 158
l-221 -164q-16 -10 -25.5 -3t-7.5 19l8 48q4 25 25 41l182 165q20 18 45 19h15z" />
    <glyph glyph-name="Ydieresis" unicode="&#x178;" horiz-adv-x="1261" 
d="M1305 1434q16 0 24 -15.5t-2 -32.5l-569 -772l-96 -587q-4 -27 -27 -27h-166q-12 0 -20.5 8t-6.5 21l93 585l-295 785q-10 35 18 35h166q31 0 43 -33l209 -567l418 575q18 25 45 25h166zM961 1645q-35 0 -56.5 24.5t-16.5 55.5t25.5 48t52.5 17t52 -25.5t14 -60.5
q-12 -59 -71 -59zM700 1645q-35 0 -56 24.5t-16 55.5t26.5 48t53.5 17t52 -25.5t14 -60.5q-13 -59 -74 -59z" />
    <glyph glyph-name="Zacute" unicode="&#x179;" horiz-adv-x="1206" 
d="M297 1235q-10 0 -18.5 9t-6.5 20l23 143q4 27 29 27h907q16 0 23.5 -18.5t-5.5 -33.5l-850 -1183h623q10 0 18.5 -9.5t6.5 -19.5l-23 -143q-4 -27 -27 -27h-925q-20 0 -29.5 16.5t2.5 32.5l852 1186h-600zM616 1587q-29 -10 -34 15l-11 36q-6 18 15 33l342 168
q33 16 43 -12l28 -82q10 -29 -22 -41z" />
    <glyph glyph-name="zacute" unicode="&#x17a;" horiz-adv-x="829" 
d="M195 705q-29 0 -29 30l16 101q0 12 10.5 21t22.5 9h565q16 0 22.5 -17.5t-3.5 -31.5l-471 -655h315q12 0 20.5 -10.5t6.5 -22.5l-15 -100q-4 -29 -32 -29h-576q-14 0 -21.5 15.5t3.5 31.5l475 658h-309zM416 989q-25 -16 -37 6l-19 31q-14 20 7 41l292 276
q12 10 25.5 7.5t20.5 -15.5l49 -86q16 -25 -6 -41z" />
    <glyph glyph-name="Zdotaccent" unicode="&#x17b;" horiz-adv-x="1206" 
d="M297 1235q-10 0 -18.5 9t-6.5 20l23 143q4 27 29 27h907q16 0 23.5 -18.5t-5.5 -33.5l-850 -1183h623q10 0 18.5 -9.5t6.5 -19.5l-23 -143q-4 -27 -27 -27h-925q-20 0 -29.5 16.5t2.5 32.5l852 1186h-600zM790 1626q-38 0 -63 31t-18.5 66.5t33 58t64.5 22.5t62.5 -30.5
t17.5 -67.5t-32.5 -58.5t-63.5 -21.5z" />
    <glyph glyph-name="zdotaccent" unicode="&#x17c;" horiz-adv-x="829" 
d="M195 705q-29 0 -29 30l16 101q0 12 10.5 21t22.5 9h565q16 0 22.5 -17.5t-3.5 -31.5l-471 -655h315q12 0 20.5 -10.5t6.5 -22.5l-15 -100q-4 -29 -32 -29h-576q-14 0 -21.5 15.5t3.5 31.5l475 658h-309zM530 1059q-38 0 -63 30.5t-18.5 66.5t33 58.5t64.5 22.5
t62.5 -30.5t17.5 -67.5t-32.5 -58.5t-63.5 -21.5z" />
    <glyph glyph-name="Zcaron" unicode="&#x17d;" horiz-adv-x="1206" 
d="M297 1235q-10 0 -18.5 9t-6.5 20l23 143q4 27 29 27h907q16 0 23.5 -18.5t-5.5 -33.5l-850 -1183h623q10 0 18.5 -9.5t6.5 -19.5l-23 -143q-4 -27 -27 -27h-925q-20 0 -29.5 16.5t2.5 32.5l852 1186h-600zM774 1587q-20 0 -45 31l-125 168q-20 25 -18 47l4 33
q2 14 16.5 16t26.5 -12l162 -164l215 168q20 14 31.5 6t7.5 -25l-5 -28q-6 -27 -22 -43l-188 -176q-20 -20 -46 -21h-14z" />
    <glyph glyph-name="zcaron" unicode="&#x17e;" horiz-adv-x="829" 
d="M195 705q-29 0 -29 30l16 101q0 12 10.5 21t22.5 9h565q16 0 22.5 -17.5t-3.5 -31.5l-471 -655h315q12 0 20.5 -10.5t6.5 -22.5l-15 -100q-4 -29 -32 -29h-576q-14 0 -21.5 15.5t3.5 31.5l475 658h-309zM528 1020h-14q-20 0 -45 31l-125 168q-20 25 -18 47l4 32
q2 14 16 16.5t27 -11.5l162 -164l215 168q20 14 31.5 6t6.5 -25l-4 -28q-6 -27 -22 -43l-189 -177q-20 -20 -45 -20z" />
    <glyph glyph-name="florin" unicode="&#x192;" horiz-adv-x="880" 
d="M716 1280q-79 0 -125 -62.5t-67 -189.5l-35 -211h213q14 0 22.5 -9t6.5 -22l-22 -139q-4 -27 -33 -26h-217l-113 -711q-25 -152 -209 -268q-25 -16 -47 6l-78 88q-18 20 2 43q109 98 117 153l109 689h-86q-29 0 -27 28l23 146q2 23 26 22h94l37 232q35 219 135.5 310
t251 90.5t248.5 -63.5q25 -18 8 -43l-69 -83q-14 -20 -37 -11q-49 31 -128 31z" />
    <glyph glyph-name="Scommaaccent" unicode="&#x218;" horiz-adv-x="1210" 
d="M481 -102h103q30 0 28 -31l-20 -117q-8 -59 -56.5 -107.5t-115.5 -68.5q-16 -6 -18.5 11t14.5 28q94 37 106 123l-65 26q-29 14 -25 37l12 68q6 31 37 31zM565 -16q-315 0 -471 198q-20 25 -2 39l113 96q16 18 37 -2q41 -51 128 -93t195.5 -42t197.5 53.5t104 144.5
t-47 149t-265 143q-72 29 -108.5 45t-92.5 52q-56 35 -84 71q-69 89 -51 217q25 164 162 279.5t367 115.5q285 0 438 -184q16 -25 -4 -41l-109 -88q-20 -16 -43 2q-125 115 -295 114q-121 0 -199.5 -51t-91 -137t45 -135t196.5 -109q109 -41 166 -67.5t131 -78.5
q142 -100 104 -302q-29 -164 -162 -276.5t-360 -112.5z" />
    <glyph glyph-name="scommaaccent" unicode="&#x219;" horiz-adv-x="817" 
d="M268 -102h103q30 0 28 -31l-20 -117q-8 -59 -56.5 -107.5t-115.5 -68.5q-16 -6 -18.5 11t14.5 28q94 37 106 123l-65 26q-29 14 -25 37l12 68q6 31 37 31zM327.5 -16q-186.5 0 -292.5 118q-20 25 -6 41l57 72q16 18 41 -2q86 -80 225 -80q72 0 115 32t47 81t-25.5 71.5
t-104.5 47.5t-114 41t-83 48q-84 60 -60.5 179t113.5 184.5t247.5 65.5t255.5 -90q18 -18 9 -35l-60 -78q-16 -16 -35 -4q-92 57 -170 57q-139 0 -159 -100q-17 -77 97 -113q48 -16 67.5 -22t47 -16.5t44 -18.5t38 -19.5t34 -22.5t26.5 -25q50 -51 32.5 -158.5t-109 -180.5
t-278 -73z" />
    <glyph glyph-name="uni021A" unicode="&#x21a;" horiz-adv-x="1206" 
d="M481 -88h103q30 0 28 -31l-20 -117q-8 -59 -56.5 -107t-115.5 -69q-16 -6 -18.5 11.5t14.5 27.5q94 37 106 123l-65 27q-29 14 -25 37l12 67q6 31 37 31zM1241 1434q12 0 20.5 -9.5t6.5 -21.5l-21 -139q-4 -29 -30 -29h-375l-193 -1206q-4 -29 -26 -29h-168
q-10 0 -18.5 9t-6.5 22l191 1204h-371q-10 0 -19.5 9t-7.5 22l23 139q4 29 28 29h967z" />
    <glyph glyph-name="uni021B" unicode="&#x21b;" horiz-adv-x="763" 
d="M297 -102h102q31 0 29 -31l-20 -117q-8 -59 -56.5 -107.5t-115.5 -68.5q-16 -6 -18.5 11t13.5 28q94 37 107 123l-66 26q-29 14 -24 37l12 68q6 31 37 31zM143 698q-10 0 -19 9.5t-7 19.5l18 111q4 29 31 28h88l35 217q4 29 28 29h154q10 0 18.5 -9t6.5 -22l-33 -215h192
q12 0 20.5 -9t6.5 -21l-16 -111q-4 -27 -31 -27h-199l-67 -424q-10 -68 4 -95t71.5 -27t118.5 51q18 10 29 -10l43 -97q10 -23 -12 -35q-109 -76 -263 -75q-242 0 -200 288l67 424h-84z" />
    <glyph glyph-name="circumflex" unicode="&#x2c6;" horiz-adv-x="729" 
d="M539 1626h14q23 0 45 -29l137 -161q16 -18 13 -39l-7 -47q-8 -35 -39 -7l-170 158l-221 -164q-16 -10 -25 -3t-7 20l8 47q4 25 24 41l183 166q20 18 45 18z" />
    <glyph glyph-name="caron" unicode="&#x2c7;" horiz-adv-x="724" 
d="M516 1323h-14q-20 0 -45 31l-125 168q-20 25 -19 47l4 33q3 14 17 16t26 -12l162 -164l215 168q19 14 31 6t8 -25l-4 -28q-6 -27 -22 -43l-189 -177q-20 -20 -45 -20z" />
    <glyph glyph-name="breve" unicode="&#x2d8;" horiz-adv-x="843" 
d="M561 1329q-113 1 -172 61t-80 146q-4 23 13 29l69 26q20 4 29 -14q12 -37 26 -61t48 -43q34 -21 88 -21t110 37q55 37 88 94q10 14 29 6l65 -39q16 -10 7 -28q-43 -78 -125 -136t-195 -57z" />
    <glyph glyph-name="dotaccent" unicode="&#x2d9;" horiz-adv-x="444" 
d="M376 1362q-38 0 -63 31t-19 67t34 58q26 22 64 22t63 -31t17 -67t-32 -58q-26 -22 -64 -22z" />
    <glyph glyph-name="ring" unicode="&#x2da;" horiz-adv-x="612" 
d="M467 1446q68 0 78 76q4 33 -11 52t-45 19q-63 0 -77 -71q-4 -32 10 -54t45 -22zM499 1694q73 0 119 -52t33 -131q-14 -81 -67 -123t-126 -42t-119 51t-33 131q12 80 66 123t127 43z" />
    <glyph glyph-name="ogonek" unicode="&#x2db;" horiz-adv-x="630" 
d="M188 -432q-74 0 -127 47q-51 47 -37 130t78 149q66 66 142 102l92 -2q-162 -113 -180 -242q-6 -36 12 -58t49 -22q63 0 102 47q14 14 31 -2l21 -20q14 -12 0 -39q-13 -26 -61 -58t-122 -32z" />
    <glyph glyph-name="tilde" unicode="&#x2dc;" horiz-adv-x="884" 
d="M492 1436q-80 0 -127 -66q-12 -14 -33 -4l-31 14q-23 10 -5 47t69 76t123 39t141 -44q70 -44 98 -44q66 0 117 72q8 14 26 4l35 -17q23 -14 10 -34q-67 -131 -188 -129q-63 0 -129 43t-106 43z" />
    <glyph glyph-name="hungarumlaut" unicode="&#x2dd;" horiz-adv-x="858" 
d="M631 1335l-27 17q-18 12 -2 39l182 233q14 20 41 2l64 -45q27 -23 2 -45l-223 -199q-19 -16 -37 -2zM317 1333l-24 17q-23 16 -2 41l180 233q18 20 43 0l64 -45q25 -25 2 -45l-226 -199q-14 -14 -37 -2z" />
    <glyph glyph-name="gravecomb" unicode="&#x300;" 
d="M-49 1292l-332 219q-23 16 -6 41l49 86q6 12 19.5 15.5t25.5 -6.5l293 -277q20 -20 6 -41l-18 -31q-12 -22 -37 -6z" />
    <glyph glyph-name="acutecomb" unicode="&#x301;" 
d="M-303 1292q-25 -16 -37 6l-18 31q-14 20 6 41l293 277q12 10 25.5 7t19.5 -16l49 -86q16 -25 -6 -41z" />
    <glyph glyph-name="uni0302" unicode="&#x302;" 
d="M-190 1620h14q23 0 45 -29l137 -161q16 -18 12 -39l-6 -48q-8 -35 -39 -6l-170 158l-221 -164q-16 -10 -25.5 -3t-7.5 20l9 47q4 25 24 41l182 166q20 18 46 18z" />
    <glyph glyph-name="tildecomb" unicode="&#x303;" 
d="M-160 1350q-60 0 -126 43t-107 43q-80 0 -127 -66q-12 -14 -33 -4l-31 14q-23 10 -5 47t69 76t123 39t141.5 -44t97.5 -44q66 0 117 72q8 14 27 4l34 -17q23 -14 11 -34q-65 -129 -191 -129z" />
    <glyph glyph-name="uni0304" unicode="&#x304;" 
d="M-399 1376q-33 0 -29 31l12 66q4 31 33 30h385q14 0 23.5 -9t7.5 -24l-10 -65q-6 -29 -33 -29h-389z" />
    <glyph glyph-name="uni0306" unicode="&#x306;" 
d="M-283 1329q-113 0 -172 60.5t-80 146.5q-4 23 13 29l69 26q20 4 29 -14q12 -37 26.5 -60.5t47.5 -44t88 -20.5t110.5 37t88.5 94q10 14 28 6l66 -39q16 -10 6 -28q-43 -78 -125 -135.5t-195 -57.5z" />
    <glyph glyph-name="uni0307" unicode="&#x307;" 
d="M-68 1362q-38 0 -63 30.5t-19 66.5t33 58.5t65 22.5t62.5 -30.5t17.5 -67.5t-32.5 -58.5t-63.5 -21.5z" />
    <glyph glyph-name="uni0308" unicode="&#x308;" 
d="M-47 1380q-35 0 -56.5 25t-16.5 55t25.5 48t52.5 18t52.5 -25.5t14.5 -60.5q-13 -60 -72 -60zM-307 1380q-35 0 -56.5 25t-16.5 55t26.5 48t53.5 18t52.5 -25.5t14.5 -60.5q-13 -60 -74 -60z" />
    <glyph glyph-name="uni030A" unicode="&#x30a;" 
d="M-150 1425q68 0 78 76q4 33 -11 52.5t-44 19.5q-63 0 -78 -72q-4 -33 10 -54.5t45 -21.5zM-159 1325q-73 0 -119 51t-32.5 131t67 123t126 43t119.5 -51t33 -131t-67.5 -123t-126.5 -43z" />
    <glyph glyph-name="uni030B" unicode="&#x30b;" 
d="M-227 1335l-27 17q-18 12 -2 39l182 233q14 20 41 2l64 -45q27 -23 2 -45l-223 -199q-19 -16 -37 -2zM-541 1333l-24 17q-23 16 -2 41l180 233q18 20 43 0l63 -45q25 -25 2 -45l-225 -199q-14 -14 -37 -2z" />
    <glyph glyph-name="uni030C" unicode="&#x30c;" 
d="M-209 1323h-14q-20 0 -45 31l-125 168q-20 25 -19 47l4 33q2 14 16.5 16t26.5 -12l162 -164l215 168q20 14 31.5 6t7.5 -25l-4 -28q-6 -27 -22 -43l-189 -177q-20 -20 -45 -20z" />
    <glyph glyph-name="uni0312" unicode="&#x312;" 
d="M-152 1378l21 117q8 59 56 107.5t116 68.5q16 6 18 -14q2 -14 -14 -25q-94 -37 -106 -123l65 -26q29 -14 25 -37l-13 -68q-6 -31 -36 -30h-103q-33 -1 -29 30z" />
    <glyph glyph-name="uni0326" unicode="&#x326;" 
d="M-352 -104h102q33 0 29 -31l-21 -117q-8 -59 -56 -107.5t-116 -68.5q-16 -6 -18 14q-2 14 14 25q94 37 107 123l-66 26q-29 14 -24 37l12 68q6 31 37 31z" />
    <glyph glyph-name="uni0327" unicode="&#x327;" 
d="M-422 -408q-70 0 -106.5 28t-44.5 56q-8 14 6 21l41 27q14 10 22 -5q27 -33 62 -32q80 0 92 82q8 43 -20.5 55t-51 -2.5t-43.5 -7.5l-55 20q-20 6 -10 23l96 159h112l-73 -112q80 10 123 -34t30.5 -120t-61.5 -117t-119 -41z" />
    <glyph glyph-name="uni0328" unicode="&#x328;" 
d="M-443.5 -432q-74.5 0 -126 47t-38 130t79 148.5t141.5 102.5l92 -2q-162 -113 -180 -242q-6 -37 12.5 -58.5t48.5 -21.5q63 0 103 47q14 14 30 -2l21 -20q14 -12 0 -39t-61.5 -58.5t-122 -31.5z" />
    <glyph glyph-name="uni0335" unicode="&#x335;" 
d="M-702 344q-31 0 -29 31l16 108q2 31 33 31h530q35 0 29 -33l-18 -108q-2 -29 -33 -29h-528z" />
    <glyph glyph-name="uni0336" unicode="&#x336;" 
d="M-1386 344q-35 0 -29 31l16 108q6 31 33 31h1214q35 0 29 -33l-18 -108q-6 -29 -33 -29h-1212z" />
    <glyph glyph-name="uni0337" unicode="&#x337;" 
d="M-514 0h-102q-16 0 -23 10q-6 10 -2 23l451 1075q12 31 36 31h105q14 1 20 -9t0 -24l-448 -1075q-14 -31 -37 -31z" />
    <glyph glyph-name="uni0338" unicode="&#x338;" 
d="M-590 0h-102q-16 0 -23 10q-6 10 -2 23l574 1370q16 31 37 31h104q14 0 21 -10t1 -23l-573 -1370q-12 -31 -37 -31z" />
    <glyph glyph-name="uni0394" unicode="&#x394;" horiz-adv-x="1499" 
d="M866 1133l-489 -936h680zM1278 0h-1188q-14 0 -23 11t-1 26l727 1372q10 25 24 25h174q16 0 23 -27l293 -1372q1 -15 -7 -25t-22 -10z" />
    <glyph glyph-name="Pi" unicode="&#x3a0;" horiz-adv-x="1259" 
d="M1229 1434q14 0 23 -10t8 -21l-218 -1374q-4 -29 -30 -29h-154q-12 0 -20 9t-7 22l193 1216h-530l-193 -1218q-4 -29 -31 -29h-153q-12 0 -21 9q-8 9 -6 22l217 1372q4 31 33 31h889z" />
    <glyph glyph-name="uni03A9" unicode="&#x3a9;" horiz-adv-x="1603" 
d="M1407 197q12 1 21 -9t8 -22l-23 -137q-4 -29 -31 -29h-532q-18 0 -23 13q-4 13 11 34q8 20 80 93t148 156q77 83 152 223q75 141 93 275q34 256 -82 357q-116 102 -296 101q-179 -2 -331 -116t-196 -354q-25 -141 3 -277q29 -136 73 -214t96 -153t60 -92q9 -18 4 -32
t-21 -14h-529q-12 0 -21 9t-8 22l23 137q4 29 31 29h229q-4 8 -52 90t-76 171q-29 90 -34 142q-6 52 -6 104t8 103q43 285 258 464t513 179t461 -187t112 -481q-18 -120 -84 -244t-117 -186t-137 -155h215z" />
    <glyph glyph-name="uni03BC" unicode="&#x3bc;" horiz-adv-x="1087" 
d="M911 0h-145q-25 0 -39 31l-31 61q-109 -109 -266 -108q-100 0 -145 61l-76 -455q-4 -27 -29 -26h-155q-10 0 -19 9q-8 9 -6 19l197 1246q4 29 30 28h152q12 0 20 -9t7 -21l-76 -478q-35 -215 159 -215q97 1 159 51t77 138l80 506q4 29 31 28h151q13 0 21 -9t6 -21
l-103 -652q-14 -94 15 -153q6 -7 3 -19t-18 -12z" />
    <glyph glyph-name="pi" unicode="&#x3c0;" horiz-adv-x="1357" 
d="M1083 16q0 -16 -20 -16h-139q-20 0 -41 31q-57 109 -41 211l67 440h-338l-102 -651q-6 -31 -33 -31h-147q-12 0 -22 9q-9 9 -7 22l107 649q-92 -2 -187 -72q-14 -10 -30 -2t-13 25l23 135q6 41 82 70q76 30 164 30h858q35 0 30 -32l-18 -121q-6 -31 -35 -31h-123
l-69 -459q-14 -81 6 -131q5 -14 9 -24t12 -28q8 -17 7 -24z" />
    <glyph glyph-name="Wgrave" unicode="&#x1e80;" horiz-adv-x="1867" 
d="M1915 1434q14 0 21.5 -12.5t0.5 -28.5l-600 -1368q-14 -25 -30 -25h-78q-23 0 -29 27l-170 977l-471 -979q-12 -25 -31 -25h-82q-23 0 -24 27l-186 1368q-4 39 24 39h156q20 0 28 -27l115 -971l463 975q10 23 27 23h69q16 0 23 -29l176 -965l418 973q8 20 28 21h152z
M1313 1589l-361 117q-33 12 -22 41l28 82q10 29 43 12l342 -168q20 -14 15 -33l-10 -36q-6 -25 -35 -15z" />
    <glyph glyph-name="wgrave" unicode="&#x1e81;" horiz-adv-x="1345" 
d="M1317 866q14 0 19 -12t-1 -25l-403 -804q-14 -25 -29 -25h-94q-23 0 -27 27l-88 546l-258 -548q-10 -25 -28 -25h-93q-23 0 -26 27l-152 809q-4 31 25 30h147q25 0 29 -26l76 -525l250 527q10 25 28 24h82q20 0 25 -26l88 -525l235 525q10 27 33 26h162zM928 989
l-332 219q-23 16 -6 41l49 86q6 12 19.5 15.5t25.5 -7.5l293 -276q20 -20 6 -41l-18 -31q-12 -22 -37 -6z" />
    <glyph glyph-name="Wacute" unicode="&#x1e82;" horiz-adv-x="1867" 
d="M1915 1434q14 0 21.5 -12.5t0.5 -28.5l-600 -1368q-14 -25 -30 -25h-78q-23 0 -29 27l-170 977l-471 -979q-12 -25 -31 -25h-82q-23 0 -24 27l-186 1368q-4 39 24 39h156q20 0 28 -27l115 -971l463 975q10 23 27 23h69q16 0 23 -29l176 -965l418 973q8 20 28 21h152z
M952 1587q-29 -10 -34 15l-11 36q-6 18 15 33l342 168q33 16 43 -12l28 -82q10 -29 -22 -41z" />
    <glyph glyph-name="wacute" unicode="&#x1e83;" horiz-adv-x="1345" 
d="M1317 866q14 0 19 -12t-1 -25l-403 -804q-14 -25 -29 -25h-94q-23 0 -27 27l-88 546l-258 -548q-10 -25 -28 -25h-93q-23 0 -26 27l-152 809q-4 31 25 30h147q25 0 29 -26l76 -525l250 527q10 25 28 24h82q20 0 25 -26l88 -525l235 525q10 27 33 26h162zM659 989
q-25 -16 -36 6l-19 31q-14 20 6 41l293 276q12 10 25.5 7.5t19.5 -15.5l49 -86q16 -25 -6 -41z" />
    <glyph glyph-name="Wdieresis" unicode="&#x1e84;" horiz-adv-x="1867" 
d="M1915 1434q14 0 21.5 -12.5t0.5 -28.5l-600 -1368q-14 -25 -30 -25h-78q-23 0 -29 27l-170 977l-471 -979q-12 -25 -31 -25h-82q-23 0 -24 27l-186 1368q-4 39 24 39h156q20 0 28 -27l115 -971l463 975q10 23 27 23h69q16 0 23 -29l176 -965l418 973q8 20 28 21h152z
M1268 1645q-35 0 -56.5 24.5t-16.5 55.5t25.5 48t52.5 17t52.5 -25.5t13.5 -60.5q-12 -59 -71 -59zM1008 1645q-35 0 -56.5 24.5t-16.5 55.5t26.5 48t53.5 17t52 -25.5t14 -60.5q-12 -59 -73 -59z" />
    <glyph glyph-name="wdieresis" unicode="&#x1e85;" horiz-adv-x="1345" 
d="M1317 866q14 0 19 -12t-1 -25l-403 -804q-14 -25 -29 -25h-94q-23 0 -27 27l-88 546l-258 -548q-10 -25 -28 -25h-93q-23 0 -26 27l-152 809q-4 31 25 30h147q25 0 29 -26l76 -525l250 527q10 25 28 24h82q20 0 25 -26l88 -525l235 525q10 27 33 26h162zM915 1077
q-35 0 -56 24.5t-16 55.5t25.5 48.5t52.5 17.5t52 -26t14 -60q-13 -60 -72 -60zM655 1077q-35 0 -56 24.5t-16 55.5t27 49q20 18 52 17.5t52.5 -26.5t14.5 -60q-13 -60 -74 -60z" />
    <glyph glyph-name="Ygrave" unicode="&#x1ef2;" horiz-adv-x="1261" 
d="M1305 1434q16 0 24 -15.5t-2 -32.5l-569 -772l-96 -587q-4 -27 -27 -27h-166q-12 0 -20.5 8t-6.5 21l93 585l-295 785q-10 35 18 35h166q31 0 43 -33l209 -567l418 575q18 25 45 25h166zM1006 1589l-361 117q-33 12 -22 41l28 82q10 29 43 12l342 -168q20 -14 15 -33
l-11 -36q-5 -25 -34 -15z" />
    <glyph glyph-name="ygrave" unicode="&#x1ef3;" horiz-adv-x="1056" 
d="M1042 866q14 0 20.5 -11t-1.5 -28l-780 -1171q-18 -25 -35 -25h-160q-14 0 -18.5 12.5t4.5 28.5l295 434l-244 725q-12 35 24 35h144q20 0 28 -30l177 -531l358 537q14 25 31 24h157zM780 989l-331 219q-23 16 -7 41l50 86q6 12 19 15.5t26 -7.5l292 -276q20 -20 7 -41
l-19 -31q-12 -22 -37 -6z" />
    <glyph glyph-name="endash" unicode="&#x2013;" horiz-adv-x="1144" 
d="M156 379q-12 0 -21 9q-8 9 -6 20l14 98q4 27 31 26h821q13 0 21 -9t6 -19l-14 -98q-4 -27 -31 -27h-821z" />
    <glyph glyph-name="emdash" unicode="&#x2014;" horiz-adv-x="1697" 
d="M156 379q-12 0 -21 9q-8 9 -6 20l14 98q4 27 31 26h1376q12 0 20 -9t7 -19l-16 -98q-4 -27 -29 -27h-1376z" />
    <glyph glyph-name="quoteleft" unicode="&#x2018;" horiz-adv-x="442" 
d="M393 995h-168q-34 0 -28 29t15 95q9 65 11 77q14 90 86 166t176 129q17 8 25 -12t-8 -29q-158 -96 -178 -227l106 -37q25 -10 23 -33l-23 -127q-4 -31 -37 -31z" />
    <glyph glyph-name="quoteright" unicode="&#x2019;" horiz-adv-x="442" 
d="M297 1434h168q35 0 28 -33t-16 -95q-8 -61 -10 -73q-14 -90 -86 -166t-176 -129q-16 -8 -25 12q-8 20 8 29q158 96 179 227l-107 37q-25 10 -22 33l22 127q2 31 37 31z" />
    <glyph glyph-name="quotesinglbase" unicode="&#x201a;" horiz-adv-x="442" 
d="M100 195h168q35 0 29 -29t-15 -95q-9 -65 -12 -77q-14 -90 -86 -167t-176 -128q-16 -8 -24 12t8 29q158 96 178 227l-107 37q-25 10 -22 33l22 127q2 31 37 31z" />
    <glyph glyph-name="quotedblleft" unicode="&#x201c;" horiz-adv-x="880" 
d="M831 995h-167q-35 0 -29 29t15 95q9 65 12 77q14 90 86 166t176 129q16 8 24 -12t-8 -29q-158 -96 -178 -227l106 -37q25 -10 23 -33l-23 -127q-4 -31 -37 -31zM393 995h-168q-34 0 -28 29t15 95q9 65 11 77q14 90 86 166t176 129q17 8 25 -12t-8 -29q-158 -96 -178 -227
l106 -37q25 -10 23 -33l-23 -127q-4 -31 -37 -31z" />
    <glyph glyph-name="quotedblright" unicode="&#x201d;" horiz-adv-x="880" 
d="M735 1434h168q35 0 29 -31q-5 -20 -15 -89t-12 -81q-14 -90 -86 -166t-176 -129q-16 -8 -25 12q-8 20 9 29q158 96 178 227l-107 37q-25 10 -22 33l22 127q2 31 37 31zM297 1434h168q35 0 28 -33t-16 -95q-8 -61 -10 -73q-14 -90 -86 -166t-176 -129q-16 -8 -25 12
q-8 20 8 29q158 96 179 227l-107 37q-25 10 -22 33l22 127q2 31 37 31z" />
    <glyph glyph-name="quotedblbase" unicode="&#x201e;" horiz-adv-x="880" 
d="M539 195h168q34 0 28 -29t-15 -95q-9 -65 -11 -77q-14 -90 -86 -167t-177 -128q-16 -8 -24 12t8 29q158 96 178 227l-106 37q-25 10 -23 33l23 127q2 31 37 31zM100 195h168q35 0 29 -29t-15 -95q-9 -65 -12 -77q-14 -90 -86 -167t-176 -128q-16 -8 -24 12t8 29
q158 96 178 227l-107 37q-25 10 -22 33l22 127q2 31 37 31z" />
    <glyph glyph-name="dagger" unicode="&#x2020;" horiz-adv-x="962" 
d="M895 1057q35 0 29 -31l-15 -94q-6 -29 -37 -29h-231l-139 -872q-4 -31 -31 -31h-113q-12 0 -21 9t-7 22l139 872h-227q-35 0 -29 31l14 94q6 29 37 29h230l53 346q4 31 35 31h112q29 0 25 -31l-53 -346h229z" />
    <glyph glyph-name="daggerdbl" unicode="&#x2021;" horiz-adv-x="962" 
d="M872 903h-231l-59 -373h229q35 0 29 -30l-15 -94q-2 -29 -37 -29h-231l-55 -346q-4 -31 -31 -31h-113q-12 0 -21 9t-7 22l55 346h-227q-35 0 -29 31l14 94q6 29 37 28h230l59 373h-227q-35 0 -29 31l14 94q6 29 37 29h230l53 346q4 31 35 31h112q29 0 25 -31l-53 -346
h229q35 0 29 -31l-15 -94q-6 -29 -37 -29z" />
    <glyph glyph-name="bullet" unicode="&#x2022;" horiz-adv-x="690" 
d="M363 461q-88 0 -143 66q-54 67 -42 156t78 145t155 56t144 -68q55 -69 42 -157t-79 -143t-155 -55z" />
    <glyph glyph-name="ellipsis" unicode="&#x2026;" horiz-adv-x="1513" 
d="M1118 0q-35 0 -28 31l24 155q6 33 37 33h154q35 0 28 -33l-24 -155q-6 -31 -37 -31h-154zM612 0q-35 0 -28 31l24 155q6 33 37 33h154q35 0 28 -33l-24 -155q-6 -31 -37 -31h-154zM109 0q-35 0 -29 31l24 155q6 33 37 33h154q35 0 29 -33l-25 -155q-6 -31 -37 -31h-153z
" />
    <glyph glyph-name="perthousand" unicode="&#x2030;" horiz-adv-x="2633" 
d="M2173 143q92 0 140 85q49 85 67 202q18 116 20 182t-25 107q-28 41 -85 41q-164 0 -216 -308t99 -309zM1434 143q92 0 140 85t66 202q18 116 21 182q2 66 -26 107t-85 41q-164 0 -215 -308t99 -309zM2163 -16q-162 0 -226 112q-63 113 -23 362t132 355q92 107 252 107
t223 -115t23 -363t-129 -353q-90 -105 -252 -105zM1423 -16q-162 0 -225 112t-23 362q40 249 132 355q91 107 251 107t224 -115t23 -363q-40 -248 -130 -353t-252 -105zM438 676q92 0 141 85q76 134 87 384q2 67 -26 107t-85 40q-163 0 -215 -308t98 -308zM539 0
q-14 0 -21 12q-6 12 2 27l791 1370q16 25 39 25h106q14 0 20 -10t-3 -25l-791 -1368q-16 -31 -43 -31h-100zM428 516q-162 0 -225 113t-23 361t131 356q92 106 252 106t223 -115q64 -115 24 -363t-130 -352q-90 -106 -252 -106z" />
    <glyph glyph-name="guilsinglleft" unicode="&#x2039;" horiz-adv-x="704" 
d="M414 -16q-23 0 -37 26l-221 361q-25 43 -23 55l2 14q2 18 31 47l344 373q23 23 47 23h82q16 -1 19 -11t-7 -24l-327 -414l194 -418q14 -33 -18 -32h-86z" />
    <glyph glyph-name="guilsinglright" unicode="&#x203a;" horiz-adv-x="704" 
d="M205 883h86q23 0 37 -27l221 -360q25 -43 21 -66t-31 -51l-344 -373q-23 -23 -48 -22h-81q-16 0 -20 10q-3 10 7 24l328 414l-195 418q-14 33 19 33z" />
    <glyph glyph-name="fraction" unicode="&#x2044;" horiz-adv-x="374" 
d="M-225 0q-14 0 -21 12q-6 12 2 27l791 1370q16 25 39 25h106q14 0 20 -10t-3 -25l-791 -1368q-16 -31 -43 -31h-100z" />
    <glyph glyph-name="uni2070" unicode="&#x2070;" horiz-adv-x="815" 
d="M463 829q92 0 140 85q49 85 67 202q18 116 20 182t-25 107q-28 41 -85 41q-164 0 -216 -308t99 -309zM453 670q-162 0 -226 112q-63 113 -23 362t132 355q92 107 252 107t223 -115t23 -363t-129 -353q-90 -105 -252 -105z" />
    <glyph glyph-name="uni2074" unicode="&#x2074;" horiz-adv-x="858" 
d="M354 1014h240l61 372zM834 1014q25 0 20 -25l-14 -98q-4 -20 -25 -21h-84l-29 -172q-4 -23 -22 -22h-113q-27 0 -22 24l26 170h-385q-27 0 -22 23l12 78q2 10 14 26l451 564q14 16 33 16h143q27 0 23 -25l-86 -538h80z" />
    <glyph glyph-name="uni2075" unicode="&#x2075;" horiz-adv-x="798" 
d="M458 670q-150 0 -218 81t-50 171q6 20 23 20h117q20 0 16 -32t24 -64t94 -31q66 0 114 52q49 52 59 121t-29 106q-39 38 -99 30t-112 -53q-8 -8 -32 -2l-123 27q-23 8 -17 24l144 445q10 23 24 22h412q10 0 17 -7t5 -17l-16 -99q0 -23 -23 -22h-311l-74 -211
q74 37 150 32t134 -36t89 -101t14 -178q-18 -106 -100 -192t-232 -86z" />
    <glyph glyph-name="uni2076" unicode="&#x2076;" horiz-adv-x="780" 
d="M465 821q59 0 101 45t51 116t-17 110q-27 38 -85 38t-102 -44t-55 -109q-6 -61 21 -109t86 -47zM558 1272q108 0 172 -85t42 -222t-110 -217t-208 -80t-184 66q-63 66 -72 170q-9 103 7 233q33 211 130 338t255 127q121 0 172 -70t49 -156q-4 -29 -23 -28h-104
q-20 0 -20 24q0 94 -86 94q-78 0 -122 -68t-71 -194q65 68 173 68z" />
    <glyph glyph-name="uni2077" unicode="&#x2077;" horiz-adv-x="749" 
d="M264 1436q-10 0 -16 7t-4 15l16 98q4 23 23 23h553q10 0 16 -9t0 -22l-485 -852q-10 -18 -29 -18h-129q-31 0 -16 29l417 729h-346z" />
    <glyph glyph-name="uni2078" unicode="&#x2078;" horiz-adv-x="790" 
d="M459 815q73 0 115 38t50 88q8 49 -27 89q-34 40 -91 60q-166 -47 -180 -160q-4 -49 28 -82t105 -33zM550 1458q-60 0 -96 -33q-34 -33 -40 -79q-15 -96 100 -129q137 35 150 143q2 23 -1 41q-3 17 -28 37t-85 20zM573 1604q137 0 199 -74t42 -196q-19 -122 -128 -199
q112 -67 86 -237q-14 -90 -100 -159t-232 -69t-216 76t-50 203q21 126 154 202q-90 76 -66 217q16 102 95 169t216 67z" />
    <glyph glyph-name="uni2079" unicode="&#x2079;" horiz-adv-x="780" 
d="M546 1456q-60 0 -104 -41t-53 -111q-7 -70 19 -115q26 -44 86 -44t104 40q45 41 56 115t-18 115q-30 41 -90 41zM211 922h104q14 0 23 -23q4 -88 88 -88q74 0 119 55t80 195q-55 -61 -154 -62q-139 0 -201 87q-60 86 -38 226t115 216t214 76t182 -62t67 -171
q6 -108 -13 -253q-74 -449 -371 -448q-133 0 -186 70t-52 153q0 29 23 29z" />
    <glyph glyph-name="Euro" unicode="&#x20ac;" horiz-adv-x="1249" 
d="M930 1450q182 0 327 -100q23 -14 5 -41l-99 -115q-16 -23 -41 -6q-106 66 -234 66t-228 -88q-100 -87 -150 -236h278q12 0 20 -8t7 -21l-10 -74q-4 -27 -35 -26l-299 -2q-4 -12 -14 -78l-13 -88h297q13 0 21 -8t6 -21l-12 -74q-4 -27 -33 -26l-287 -2q4 -154 72 -238
t215 -84t278 94q27 18 39 -6l70 -127q12 -25 -14 -41q-176 -116 -398 -116t-348 134q-125 134 -131 386h-80q-12 0 -20 8t-6 20l10 74q4 27 35 27l67 2l13 84q6 37 14 82h-66q-12 0 -20 8t-6 20l12 74q4 27 33 27l82 2q78 254 242 386q165 132 401 132z" />
    <glyph glyph-name="uni2117" unicode="&#x2117;" horiz-adv-x="1708" 
d="M956 705q138 1 138 155t-136 154h-167v-309h165zM995 1141q111 0 181 -69t69 -212q0 -143 -82 -213t-178 -69h-194v-263q0 -16 -17 -16h-115q-18 0 -18 16v805q0 20 21 21h333zM899 115q248 0 416 177t168 424t-168 425t-416 178t-417 -179t-169 -425t169 -423t417 -177z
M899 -16q-303 0 -518 214t-215 518t215 519t518 215t517 -215t214 -519t-214 -518t-517 -214z" />
    <glyph glyph-name="trademark" unicode="&#x2122;" horiz-adv-x="1288" 
d="M1329 1434q14 0 12 -13l-81 -526q-2 -12 -15 -12h-102q-16 0 -13 12l46 295l-183 -295q-8 -12 -18 -12h-17q-10 0 -14 12l-96 295l-47 -295q-2 -12 -17 -12h-98q-14 0 -12 12l84 526q4 12 10 13h111q10 0 16 -13l100 -334l205 334q6 12 19 13h110zM674 1434q14 0 10 -13
l-14 -88q0 -10 -13 -10h-135l-65 -428q-2 -12 -15 -12h-102q-16 0 -12 12l67 428h-139q-12 0 -12 12l14 86q4 12 14 13h402z" />
    <glyph glyph-name="uni2153" unicode="&#x2153;" horiz-adv-x="1914" 
d="M1570 918q144 0 213 -67t45 -207t-136 -189q36 -13 70 -67t18 -156t-96 -176q-80 -72 -236 -72t-222 80t-52 172q4 23 24 22h102q20 0 27 -25q6 -104 125 -104q78 0 123 36t55 93t-20 93q-31 36 -125 38h-45q-10 0 -17 7q-6 7 -4 16l15 92q4 20 22 20h37q158 0 180 135
q23 113 -110 113q-127 0 -166 -110q-6 -16 -23 -17h-112q-23 0 -21 29q10 88 97 166q88 78 232 78zM522 0q-14 0 -20 12t2 27l790 1370q16 25 39 25h107q14 0 19 -10t-3 -25l-790 -1368q-16 -31 -43 -31h-101zM621 676q25 0 20 -25l-14 -96q-4 -23 -23 -23h-479
q-27 0 -23 25l15 96q4 23 24 23h164l90 575l-143 -73q-12 -6 -23 1q-10 7 -8 17l17 102q2 16 28 31l160 98q8 6 27 7h104q23 0 23 -25l-117 -733h158z" />
    <glyph glyph-name="uni2154" unicode="&#x2154;" horiz-adv-x="2021" 
d="M1676 918q144 0 214 -67q68 -67 44 -207t-136 -189q37 -13 71 -67q33 -54 17 -156t-95 -176q-79 -72 -235 -72t-224 80q-67 80 -52 172q4 23 25 22h102q20 0 27 -25q6 -104 125 -104q79 0 123 36t54 93t-20 93q-31 36 -125 38h-45q-10 0 -16 7t-4 16l14 92q4 20 23 20h36
q158 0 181 135q23 113 -111 113q-127 0 -166 -110q-6 -16 -22 -17h-113q-23 0 -20 29q10 88 97 166t231 78zM629 0q-14 0 -21 12q-6 12 2 27l791 1370q16 25 39 25h106q14 0 20 -10t-3 -25l-791 -1368q-16 -31 -43 -31h-100zM560 1450q159 0 221 -69t44 -185
q-12 -74 -50 -131t-105 -119l-289 -268h350q25 0 21 -25l-15 -98q-4 -23 -24 -23h-563q-25 0 -21 25l12 84q3 21 11 25t174 158t166 155q162 145 170 229q8 45 -18 72t-98 27t-113 -35q-40 -35 -50 -78q-10 -18 -23 -18h-112q-18 0 -19 26q8 90 90 169t241 79z" />
    <glyph glyph-name="oneeighth" unicode="&#x215b;" horiz-adv-x="1912" 
d="M1472 129q74 0 116 38t49 88t-26 89q-34 39 -91 59q-166 -47 -181 -159q-4 -49 28 -82q31 -33 105 -33zM1564 772q-60 0 -96 -33q-35 -33 -41 -80q-14 -96 101 -129q137 35 149 144q2 23 -1 41t-27 38q-25 19 -85 19zM1587 918q137 0 199 -74t42 -196q-19 -122 -128 -199
q49 -29 74 -89q26 -60 12 -148q-14 -89 -100 -159q-86 -69 -233 -69t-217 76t-48 203q21 126 153 202q-90 76 -65 217q16 102 95 169t216 67zM532 0q-14 0 -20 12t2 27l791 1370q16 25 38 25h107q14 0 19 -10t-3 -25l-790 -1368q-16 -31 -43 -31h-101zM621 676q25 0 20 -25
l-14 -96q-4 -23 -23 -23h-479q-27 0 -23 25l15 96q4 23 24 23h164l90 575l-143 -73q-12 -6 -23 1q-10 7 -8 17l17 102q2 16 28 31l160 98q8 6 27 7h104q23 0 23 -25l-117 -733h158z" />
    <glyph glyph-name="threeeighths" unicode="&#x215c;" horiz-adv-x="1970" 
d="M1530 129q74 0 116 38t49 88t-27 89t-91 59q-166 -47 -180 -159q-5 -49 27 -82t106 -33zM1620 772q-60 0 -94 -33t-41 -80q-15 -96 100 -129q137 35 150 144q2 23 -1 41q-3 17 -28 37q-26 20 -86 20zM1644 918q136 0 198 -74t43 -196t-128 -199q49 -29 74 -89t11 -148
q-14 -89 -99 -159q-87 -69 -233 -69t-216 76t-49 203q21 126 154 202q-90 76 -66 217q16 102 95 169t216 67zM588 0q-14 0 -21 12q-6 12 2 27l791 1370q16 25 39 25h106q13 0 19 -10t-2 -25l-791 -1368q-16 -31 -43 -31h-100zM564 1450q144 0 213 -67t45 -207t-136 -189
q37 -12 71 -66q33 -54 17 -157q-16 -104 -95 -176t-235 -72t-224 80q-67 80 -52 172q4 23 25 23h102q20 0 27 -25q6 -104 124 -104q78 0 123 36t55 92q10 58 -20 94q-31 36 -125 38h-45q-10 0 -16 7t-4 15l14 92q4 20 23 21h36q158 0 181 135q23 113 -111 113
q-127 0 -166 -111q-6 -16 -22 -16h-113q-23 0 -20 28q10 88 96 166q88 78 232 78z" />
    <glyph glyph-name="fiveeighths" unicode="&#x215d;" horiz-adv-x="1947" 
d="M1510 129q74 0 115 38q42 38 49 88t-26 89q-35 39 -92 59q-166 -47 -180 -159q-4 -49 28 -82t106 -33zM1600 772q-60 0 -95 -33t-41 -80q-14 -96 101 -129q137 35 149 144q2 23 -1 41t-27 38q-26 19 -86 19zM1624 918q136 0 198 -74t43 -196t-128 -199q110 -65 85 -237
q-14 -89 -100 -159q-86 -69 -232 -69t-216 76t-49 203q21 126 153 202q-90 76 -65 217q16 102 95 169t216 67zM573 0q-14 0 -20 12t2 27l791 1370q16 25 38 25h107q14 0 19 -10t-3 -25l-790 -1368q-16 -31 -43 -31h-101zM433 516q-151 0 -219 81t-48 171q6 20 22 20h117
q21 0 17 -32t24 -63t92 -31q66 0 115 52t59 121t-28 105t-100 30q-60 -7 -111 -52q-8 -8 -33 -3l-123 27q-23 8 -16 25l143 444q10 23 25 23h411q10 0 18 -8t5 -17l-17 -98q0 -23 -22 -23h-311l-74 -211q73 37 149 32q168 -11 224 -137q30 -72 13 -178t-99 -192t-233 -86z
" />
    <glyph glyph-name="seveneighths" unicode="&#x215e;" horiz-adv-x="1736" 
d="M1296 129q74 0 116 38t49 88t-26 89q-35 39 -92 59q-166 -47 -180 -159q-4 -49 28 -82q31 -33 105 -33zM1388 772q-60 0 -96 -33q-35 -33 -41 -80q-14 -96 101 -129q137 35 149 144q2 23 -1 41t-27 38q-25 19 -85 19zM1411 918q137 0 199 -74t42 -196q-19 -122 -128 -199
q110 -65 85 -237q-13 -89 -99 -159q-86 -69 -234 -69q-146 0 -216 76t-48 203q21 126 153 202q-90 76 -65 217q16 102 95 169t216 67zM352 0q-14 0 -20 12t2 27l790 1370q16 25 39 25h107q14 0 19 -10t-3 -25l-790 -1368q-16 -31 -43 -31h-101zM242 1290q-10 0 -17 7
q-6 7 -4 16l17 98q4 23 22 23h553q10 0 16 -10t0 -21l-485 -852q-10 -18 -29 -19h-129q-31 0 -16 29l418 729h-346z" />
    <glyph glyph-name="arrowleft" unicode="&#x2190;" horiz-adv-x="1671" 
d="M152 676q0 16 8 24l504 469q25 23 45 2l67 -65q20 -20 -2 -45l-250 -277h1032q29 0 29 -30v-152q0 -31 -29 -31h-1034l252 -276q23 -23 2 -45l-67 -66q-20 -21 -45 2l-504 469q-8 5 -8 21z" />
    <glyph glyph-name="arrowup" unicode="&#x2191;" horiz-adv-x="1232" 
d="M797 29q0 -29 -31 -29h-152q-31 0 -30 29v1032l-277 -250q-25 -23 -45 -2l-65 68q-20 20 2 45l469 503q8 9 23 9t22 -9l469 -503q23 -25 2 -45l-66 -68q-23 -20 -45 2l-276 252v-1034z" />
    <glyph glyph-name="arrowright" unicode="&#x2192;" horiz-adv-x="1671" 
d="M193 571q-29 0 -29 31v152q0 31 29 30h1032l-250 277q-23 25 -2 45l67 65q20 20 45 -2l504 -469q8 -8 8 -23t-8 -22l-504 -469q-25 -23 -45 -2l-67 66q-20 23 2 45l252 276h-1034z" />
    <glyph glyph-name="arrowdown" unicode="&#x2193;" horiz-adv-x="1232" 
d="M526 1405q0 29 31 29h152q31 0 30 -29v-1032l277 250q25 23 45 2l65 -68q20 -20 -2 -45l-469 -504q-8 -8 -23 -8t-22 8l-469 504q-23 25 -2 45l66 68q23 20 45 -2l276 -252v1034z" />
    <glyph glyph-name="arrowboth" unicode="&#x2194;" horiz-adv-x="2136" 
d="M2062 684q0 -16 -8 -22l-504 -469q-23 -25 -45 -3l-67 66q-20 23 2 45l252 277h-1168l252 -277q23 -23 2 -45l-67 -66q-23 -23 -45 3l-504 469q-8 6 -8 21t8 24l504 469q23 25 45 2l67 -66q20 -20 -2 -45l-250 -276h1164l-250 276q-23 25 -2 45l67 66q23 23 45 -2
l504 -469q8 -7 8 -23z" />
    <glyph glyph-name="arrowupdn" unicode="&#x2195;" horiz-adv-x="1368" 
d="M730 1671q15 0 22 -8l469 -504q25 -25 2 -45l-66 -67q-23 -20 -45 2l-276 251v-1167l276 252q22 22 45 2l66 -68q23 -20 -2 -45l-469 -503q-6 -9 -22 -9t-23 9l-469 503q-25 25 -2 45l65 68q20 20 45 -2l277 -250v1163l-277 -249q-25 -23 -45 -2l-65 67q-23 20 2 45
l469 504q8 8 23 8z" />
    <glyph glyph-name="uni2196" unicode="&#x2196;" horiz-adv-x="1458" 
d="M975 1090v-95q0 -29 -33 -30l-373 -19l731 -731q18 -18 -2 -41l-106 -106q-23 -23 -43 -2l-731 731l-17 -373q0 -31 -30 -35l-95 2q-30 0 -30 33l-25 688q-2 6 8 21q12 12 23 12l688 -25q35 0 35 -30z" />
    <glyph glyph-name="uni2197" unicode="&#x2197;" horiz-adv-x="1253" 
d="M408 1090q0 31 34 30l688 25q10 0 23 -12q10 -14 8 -21l-24 -688q0 -33 -31 -33l-94 -2q-31 4 -31 35l-16 373l-732 -731q-20 -20 -43 2l-106 106q-23 23 -2 41l731 731l-373 19q-33 2 -32 30v95z" />
    <glyph glyph-name="uni2198" unicode="&#x2198;" horiz-adv-x="1458" 
d="M1149 862h94q31 0 31 -35l24 -688q0 -10 -12 -21t-20 -9l-688 24q-33 0 -33 31l-2 94q2 31 35 31l372 16l-731 731q-20 20 2 43l107 107q20 23 41 2l731 -731l18 372q2 33 31 33z" />
    <glyph glyph-name="uni2199" unicode="&#x2199;" horiz-adv-x="1251" 
d="M207 862h94q29 0 31 -33l18 -372l731 731q20 20 41 -2l107 -107q23 -23 2 -43l-731 -731l372 -16q33 0 35 -31l-2 -94q0 -31 -33 -31l-688 -24q-8 -2 -20 9t-12 21l24 688q0 35 31 35z" />
    <glyph glyph-name="partialdiff" unicode="&#x2202;" horiz-adv-x="1089" 
d="M491 145q111 0 194 85t102 209t-30.5 202t-160.5 78t-197 -86t-105 -210t33.5 -201t163.5 -77zM487.5 -16q-200.5 0 -310 134t-80 322t175 315.5t333.5 127.5q129 0 199 -97q2 315 -340 514q-29 16 -14 41l63 93q18 25 53 8q212 -114 349 -349t81 -618
q-35 -227 -172 -359t-337.5 -132z" />
    <glyph glyph-name="emptyset" unicode="&#x2205;" horiz-adv-x="1656" 
d="M1346 727q20 135 -15 256l-817 -704q106 -96 262 -97q219 0 377 160t193 385zM397 702q-25 -145 21 -270l821 711q-102 109 -272 108q-217 0 -376 -162t-194 -387zM766 -16q-246 0 -412 155l-153 -131q-25 -20 -47 6l-74 86q-18 23 6 45l158 138q-109 195 -68 444
q47 305 276.5 514t526.5 209q254 0 422 -168l143 123q27 20 47 -4l76 -86q20 -23 -4 -45l-158 -135q98 -197 60 -433q-47 -303 -274.5 -510.5t-524.5 -207.5z" />
    <glyph glyph-name="product" unicode="&#x220f;" horiz-adv-x="1312" 
d="M1305 1434q35 0 28 -31l-18 -127q-6 -29 -37 -29h-72l-192 -1214q-6 -33 -33 -33h-152q-35 0 -28 33l192 1214h-415l-193 -1214q-6 -33 -35 -33h-151q-33 0 -27 33l193 1214h-70q-35 0 -29 31l21 125q6 31 35 31h983z" />
    <glyph glyph-name="summation" unicode="&#x2211;" horiz-adv-x="1216" 
d="M1186 1278h-664l281 -492q10 -27 8 -38l-8 -64q-2 -6 -21 -39l-436 -489h660q35 0 28 -33l-14 -92q-6 -31 -37 -31h-885q-35 0 -28 31l14 94q2 14 16 29l504 563l-323 563q-12 14 -9 31l15 92q6 31 35 31h884q37 0 31 -31l-14 -94q-6 -31 -37 -31z" />
    <glyph glyph-name="minus" unicode="&#x2212;" horiz-adv-x="1146" 
d="M197 625q-12 0 -21 9q-8 9 -6 19l14 99q4 27 31 26h821q12 0 20 -9t7 -19l-14 -99q-4 -27 -31 -26h-821z" />
    <glyph glyph-name="radical" unicode="&#x221a;" horiz-adv-x="1400" 
d="M1294 1434h121q19 0 25 -14t-4 -31l-754 -1360q-18 -29 -37 -29h-51q-20 0 -33 29l-219 628l-109 -53q-31 -16 -40 10l-33 86q-10 27 16 40q26 12 123 58q96 46 126 60t42 -18l186 -521l594 1084q14 31 47 31z" />
    <glyph glyph-name="infinity" unicode="&#x221e;" horiz-adv-x="1767" 
d="M1262 479q90 1 154 63t78 150q13 88 -25 142q-37 54 -127 55t-180 -59t-146 -158q24 -84 90 -138t156 -55zM582 889q-90 1 -152 -57t-74 -146q-14 -88 24 -148t127 -59t179 61t148 154q-27 88 -94 142q-68 54 -158 53zM1360 1055q162 -1 253 -103t63 -269t-144 -268
t-254 -101q-139 0 -238 65q-98 66 -135 156q-65 -93 -181 -157t-258 -64t-228 109q-88 109 -62 277t138 262q114 93 254 93q140 1 243 -59q102 -60 133 -146q66 90 182 148t234 57z" />
    <glyph glyph-name="integral" unicode="&#x222b;" horiz-adv-x="1013" 
d="M868 1669q102 0 150 -39t33 -129l-13 -67q-6 -33 -34 -33h-111q-33 0 -27 35l6 30q6 47 -32 47h-31q-16 0 -32 -16q-17 -16 -21 -41l-258 -1626q-27 -182 -244 -182h-39q-100 0 -147 40t-33 130l10 67q6 31 37 31h111q33 0 26 -33l-6 -30q-8 -49 33 -50h30q18 -1 33 17
q16 18 21 43l258 1624q14 90 70 136t173 46h37z" />
    <glyph glyph-name="approxequal" unicode="&#x2248;" horiz-adv-x="1120" 
d="M738 434q-99 0 -181 42t-132 42t-94 -18t-77 -42t-46 -26t-28 14l-24 41q-12 16 -9 33q15 43 99 97q84 55 182 55t181 -42t131 -42t84 16t70 40t51 30t32 -12l29 -46q28 -42 -99 -132q-70 -50 -169 -50zM790 758q-98 0 -182 42q-82 42 -132 42t-94 -18t-77 -43
q-33 -23 -46 -25t-28 14l-24 41q-36 48 91 130q83 54 181 54t181 -42t145 -42t140 57q34 24 51 30t32 -13l29 -45q29 -43 -99 -133q-70 -49 -168 -49z" />
    <glyph glyph-name="notequal" unicode="&#x2260;" horiz-adv-x="1146" 
d="M1067 963q12 1 20 -9t7 -20l-15 -98q-4 -27 -30 -27h-267l-143 -197h371q12 0 20 -9t6 -19l-14 -99q-4 -27 -31 -26h-463l-135 -185q-18 -25 -45 -8l-72 45q-31 14 -14 43l76 105h-168q-12 0 -20 9t-7 19l15 99q4 27 30 26h263l141 197h-365q-12 0 -20 9t-6 20l14 98
q4 27 31 27h459l147 202q16 25 43 9l78 -48q25 -16 10 -43l-88 -120h172z" />
    <glyph glyph-name="lessequal" unicode="&#x2264;" horiz-adv-x="1165" 
d="M84 -8q-33 0 -29 31l15 94q4 31 32 30h871q14 0 23 -9t8 -23l-17 -95q-4 -29 -33 -28h-870zM422 702l608 -239q27 -12 14 -39l-49 -88q-14 -25 -45 -12l-780 315q-24 7 -20 29t10 58t30 44l877 336q29 10 37 -12l24 -90q6 -27 -24 -39z" />
    <glyph glyph-name="greaterequal" unicode="&#x2265;" horiz-adv-x="1161" 
d="M78 -8q-14 0 -24 8q-9 8 -7 23l16 94q4 31 33 30h871q33 0 28 -32l-14 -95q-6 -29 -33 -28h-870zM827 705l-608 239q-27 12 -14 39l49 88q14 25 45 12l780 -315q23 -10 20 -30t-9 -56t-31 -45l-877 -336q-29 -10 -37 12l-24 90q-6 27 24 39z" />
    <glyph glyph-name="lozenge" unicode="&#x25ca;" horiz-adv-x="1202" 
d="M569 225l342 492l-186 489l-344 -489l180 -467q6 -25 8 -25zM582 0h-95q-33 0 -45 31l-256 626q-12 36 -9 61t28 56l454 627q25 33 52 33h94q33 0 45 -33l254 -627q23 -61 -17 -117l-452 -626q-20 -31 -53 -31z" />
    <glyph glyph-name="heart" unicode="&#x2665;" horiz-adv-x="1949" 
d="M1479 1280q-86 0 -164 -41t-117 -82q-40 -41 -66 -75t-35 -42q-9 -10 -29 -10t-24 19q-20 41 -33 65t-51 70q-79 96 -219 96q-93 0 -165 -43t-119 -111t-57 -186t39 -232q47 -114 187 -264t302 -256q196 106 388 258t281 277q76 100 106 215t-1 203q-47 139 -223 139z
M741 1450q131 0 227 -55t134 -156q72 99 184 155t242 56q219 0 317 -143q98 -133 52 -349q-62 -286 -398 -578q-195 -169 -561 -388q-16 -10 -34 -10t-30 12q-309 240 -443 392t-187 327q-41 129 -28 245q24 218 164 355t361 137z" />
    <glyph glyph-name="AE.ss01" horiz-adv-x="2074" 
d="M565 446h455l113 709zM2099 1434q12 0 20.5 -9.5t6.5 -21.5l-23 -139q-4 -29 -28 -29h-709l-66 -420h383q12 0 20.5 -8t6.5 -21l-22 -141q-4 -27 -31 -27h-389l-66 -419h701q12 0 20 -9.5t6 -21.5l-22 -139q-4 -29 -29 -29h-897q-12 0 -20.5 9t-6.5 22l35 219h-579
l-181 -227q-18 -23 -43 -23h-157q-20 0 -28.5 15.5t5.5 33.5l1071 1364q14 20 37 21h985z" />
    <glyph glyph-name="B.ss01" horiz-adv-x="1302" 
d="M729 197q213 0 246 223q31 205 -152 205h-420l-65 -428h391zM823 1237h-321l-68 -426h357q188 0 221 217q18 121 -30 165t-159 44zM776 0h-657q-12 0 -21.5 9t-7.5 22l217 1372q4 31 31 31h586q166 0 253 -105.5t54 -311.5t-174 -294q78 -39 115.5 -129t19.5 -211
q-29 -172 -137.5 -277.5t-278.5 -105.5z" />
    <glyph glyph-name="C.ss01" horiz-adv-x="1294" 
d="M614 -16q-256 0 -386 197.5t-74 543.5t238.5 535.5t441.5 189.5q186 0 300.5 -100.5t145.5 -286.5q6 -27 -18 -33l-150 -26q-31 -6 -39 30q-51 219 -250 219q-172 0 -290.5 -145t-158.5 -399t28.5 -391.5t228.5 -137.5q225 0 338 234q10 23 39 16l147 -31q31 -10 16 -45
q-82 -178 -224.5 -274t-332.5 -96z" />
    <glyph glyph-name="Cacute.ss01" horiz-adv-x="1294" 
d="M614 -16q-256 0 -386 197.5t-74 543.5t238.5 535.5t441.5 189.5q186 0 300.5 -100.5t145.5 -286.5q6 -27 -18 -33l-150 -26q-31 -6 -39 30q-51 219 -250 219q-172 0 -290.5 -145t-158.5 -399t28.5 -391.5t228.5 -137.5q225 0 338 234q10 23 39 16l147 -31q31 -10 16 -45
q-82 -178 -224.5 -274t-332.5 -96zM688 1587q-29 -10 -35 15l-10 36q-6 18 14 33l342 168q33 16 43 -12l29 -82q10 -29 -22 -41z" />
    <glyph glyph-name="Ccaron.ss01" horiz-adv-x="1294" 
d="M614 -16q-256 0 -386 197.5t-74.5 543.5t238.5 535.5t442 189.5q186 0 300.5 -100.5t145.5 -286.5q6 -27 -18 -33l-150 -26q-31 -6 -39 30q-51 219 -250 219q-172 0 -290.5 -145t-158.5 -399t28.5 -391.5t228.5 -137.5q225 0 338 234q10 23 39 16l147 -31q31 -10 16 -45
q-82 -178 -224.5 -274t-332.5 -96zM846 1587q-20 0 -45 31l-125 168q-20 25 -19 47l5 33q2 14 16 16t27 -12l161 -164l215 168q20 14 31.5 6t7.5 -25l-4 -28q-6 -27 -22 -43l-189 -176q-20 -20 -45 -21h-14z" />
    <glyph glyph-name="Ccedilla.ss01" horiz-adv-x="1294" 
d="M823 1253q-172 0 -290.5 -145t-158.5 -399t28.5 -391.5t228.5 -137.5q225 0 338 234q10 23 39 16l147 -31q31 -10 16 -45q-82 -178 -222 -273t-328 -97l-48 -72q80 10 123 -34t31 -120t-61.5 -116.5t-119 -40.5t-106.5 27.5t-45 56.5q-8 14 6 20l41 27q14 10 32 -13.5
t52 -23.5q80 0 92 82q8 43 -20.5 55t-51.5 -4t-42 -6l-55 20q-20 6 -11 23l76 127q-209 39 -309.5 231.5t-48 520t235.5 517t442 189.5q186 0 300.5 -100.5t145.5 -286.5q6 -27 -18 -33l-150 -26q-31 -6 -39 30q-51 219 -250 219z" />
    <glyph glyph-name="Cdotaccent.ss01" horiz-adv-x="1294" 
d="M614 -16q-256 0 -386 197.5t-74.5 543.5t238.5 535.5t442 189.5q186 0 300.5 -100.5t145.5 -286.5q6 -27 -18 -33l-150 -26q-31 -6 -39 30q-51 219 -250 219q-172 0 -290.5 -145t-158.5 -399t28.5 -391.5t228.5 -137.5q225 0 338 234q10 23 39 16l147 -31q31 -10 16 -45
q-82 -178 -224.5 -274t-332.5 -96zM861 1626q-38 0 -62.5 31t-18.5 66.5t33 58t64.5 22.5t62.5 -30.5t17.5 -67.5t-33 -58.5t-63.5 -21.5z" />
    <glyph glyph-name="D.ss01" horiz-adv-x="1343" 
d="M879 1235h-377l-164 -1036h364q123 0 199 71.5t94 190.5l84 532q35 242 -200 242zM924 1434q207 0 308 -112t66 -337l-86 -541q-72 -444 -503 -444h-592q-12 0 -20.5 9t-6.5 22l217 1374q4 29 29 29h588z" />
    <glyph glyph-name="Eth.ss01" horiz-adv-x="1343" 
d="M879 1235h-377l-70 -434h234q35 0 28 -33l-18 -109q-2 -29 -33 -28h-237l-68 -432h364q123 0 199 71.5t94 190.5l84 532q35 242 -200 242zM924 1434q207 0 308 -112t66 -337l-86 -541q-72 -444 -503 -444h-592q-12 0 -20.5 9t-6.5 22l94 600h-69q-33 0 -29 31l16 108
q4 31 33 31h76l96 604q4 29 29 29h588z" />
    <glyph glyph-name="Dcaron.ss01" horiz-adv-x="1343" 
d="M879 1235h-377l-164 -1036h364q123 0 199 71.5t94 190.5l84 532q35 242 -200 242zM924 1434q207 0 308 -112t66 -337l-86 -541q-72 -444 -503 -444h-592q-12 0 -20.5 9t-6.5 22l217 1374q4 29 29 29h588zM834 1587q-20 0 -46 31l-124 168q-20 25 -19 47l4 33
q2 14 16.5 16t26.5 -12l162 -164l215 168q20 14 31.5 6t7.5 -25l-4 -28q-6 -27 -23 -43l-188 -176q-20 -20 -45 -21h-14z" />
    <glyph glyph-name="Dcroat.ss01" horiz-adv-x="1343" 
d="M879 1235h-377l-70 -434h234q35 0 28 -33l-18 -109q-2 -29 -33 -28h-237l-68 -432h364q123 0 199 71.5t94 190.5l84 532q35 242 -200 242zM924 1434q207 0 308 -112t66 -337l-86 -541q-72 -444 -503 -444h-592q-12 0 -20.5 9t-6.5 22l94 600h-69q-33 0 -29 31l16 108
q4 31 33 31h76l96 604q4 29 29 29h588z" />
    <glyph glyph-name="E.ss01" horiz-adv-x="1210" 
d="M1038 199q12 0 20.5 -9.5t6.5 -21.5l-23 -139q-4 -29 -28 -29h-897q-12 0 -20.5 9t-6.5 22l217 1372q4 31 31 31h897q12 0 20.5 -9.5t6.5 -21.5l-23 -139q-4 -29 -29 -29h-708l-66 -420h383q12 0 20.5 -8t6.5 -21l-23 -141q-4 -27 -30 -27h-390l-65 -419h700z" />
    <glyph glyph-name="Eacute.ss01" horiz-adv-x="1210" 
d="M1038 199q12 0 20.5 -9.5t6.5 -21.5l-23 -139q-4 -29 -28 -29h-897q-12 0 -20.5 9t-6.5 22l217 1372q4 31 31 31h897q12 0 20.5 -9.5t6.5 -21.5l-23 -139q-4 -29 -29 -29h-708l-66 -420h383q12 0 20.5 -8t6.5 -21l-23 -141q-4 -27 -30 -27h-390l-65 -419h700zM641 1587
q-29 -10 -35 15l-10 36q-6 18 14 33l342 168q33 16 43 -12l29 -82q10 -29 -23 -41z" />
    <glyph glyph-name="Ecaron.ss01" horiz-adv-x="1210" 
d="M1038 199q12 0 20.5 -9.5t6.5 -21.5l-23 -139q-4 -29 -28 -29h-897q-12 0 -20.5 9t-6.5 22l217 1372q4 31 31 31h897q12 0 20.5 -9.5t6.5 -21.5l-23 -139q-4 -29 -29 -29h-708l-66 -420h383q12 0 20.5 -8t6.5 -21l-23 -141q-4 -27 -30 -27h-390l-65 -419h700zM799 1587
q-20 0 -45 31l-125 168q-20 25 -19 47l4 33q2 14 16.5 16t26.5 -12l162 -164l215 168q20 14 31.5 6t7.5 -25l-4 -28q-6 -27 -22 -43l-189 -176q-20 -20 -45 -21h-14z" />
    <glyph glyph-name="Ecircumflex.ss01" horiz-adv-x="1210" 
d="M1038 199q12 0 20.5 -9.5t6.5 -21.5l-23 -139q-4 -29 -28 -29h-897q-12 0 -20.5 9t-6.5 22l217 1372q4 31 31 31h897q12 0 20.5 -9.5t6.5 -21.5l-23 -139q-4 -29 -29 -29h-708l-66 -420h383q12 0 20.5 -8t6.5 -21l-23 -141q-4 -27 -30 -27h-390l-65 -419h700zM836 1884
h14q23 0 45 -29l137 -161q16 -18 12 -39l-6 -47q-8 -35 -39 -6l-170 157l-221 -164q-16 -10 -25.5 -3t-7.5 20l9 47q4 25 24 41l183 166q20 18 45 18z" />
    <glyph glyph-name="Edieresis.ss01" horiz-adv-x="1210" 
d="M1038 199q12 0 20.5 -9.5t6.5 -21.5l-23 -139q-4 -29 -28 -29h-897q-12 0 -20.5 9t-6.5 22l217 1372q4 31 31 31h897q12 0 20.5 -9.5t6.5 -21.5l-23 -139q-4 -29 -29 -29h-708l-66 -420h383q12 0 20.5 -8t6.5 -21l-23 -141q-4 -27 -30 -27h-390l-65 -419h700zM956 1645
q-35 0 -56 24.5t-16 55.5t25.5 48t52.5 17t52 -25.5t14 -60.5q-13 -59 -72 -59zM696 1645q-35 0 -56.5 24.5t-15.5 55.5t27 48t53 17t52 -25.5t14 -60.5q-13 -59 -74 -59z" />
    <glyph glyph-name="Edotaccent.ss01" horiz-adv-x="1210" 
d="M1038 199q12 0 20.5 -9.5t6.5 -21.5l-23 -139q-4 -29 -28 -29h-897q-12 0 -20.5 9t-6.5 22l217 1372q4 31 31 31h897q12 0 20.5 -9.5t6.5 -21.5l-23 -139q-4 -29 -29 -29h-708l-66 -420h383q12 0 20.5 -8t6.5 -21l-23 -141q-4 -27 -30 -27h-390l-65 -419h700zM814 1626
q-38 0 -62.5 31t-18.5 66.5t33 58t64.5 22.5t62.5 -30.5t17.5 -67.5t-33 -58.5t-63.5 -21.5z" />
    <glyph glyph-name="Egrave.ss01" horiz-adv-x="1210" 
d="M1038 199q12 0 20.5 -9.5t6.5 -21.5l-23 -139q-4 -29 -28 -29h-897q-12 0 -20.5 9t-6.5 22l217 1372q4 31 31 31h897q12 0 20.5 -9.5t6.5 -21.5l-23 -139q-4 -29 -29 -29h-708l-66 -420h383q12 0 20.5 -8t6.5 -21l-23 -141q-4 -27 -30 -27h-390l-65 -419h700zM1001 1589
l-360 117q-33 12 -23 41l29 82q10 29 43 12l342 -168q20 -14 15 -33l-11 -36q-6 -25 -35 -15z" />
    <glyph glyph-name="Emacron.ss01" horiz-adv-x="1210" 
d="M1038 199q12 0 20.5 -9.5t6.5 -21.5l-23 -139q-4 -29 -28 -29h-897q-12 0 -20.5 9t-6.5 22l217 1372q4 31 31 31h897q12 0 20.5 -9.5t6.5 -21.5l-23 -139q-4 -29 -29 -29h-708l-66 -420h383q12 0 20.5 -8t6.5 -21l-23 -141q-4 -27 -30 -27h-390l-65 -419h700zM625 1640
q-33 0 -29 31l12 66q4 31 33 30h385q14 0 23.5 -9t7.5 -23l-10 -66q-6 -29 -33 -29h-389z" />
    <glyph glyph-name="Eogonek.ss01" horiz-adv-x="1210" 
d="M1235 1434q12 0 20.5 -9.5t6.5 -21.5l-23 -139q-4 -29 -29 -29h-708l-66 -420h383q12 0 20.5 -8t6.5 -21l-23 -141q-4 -27 -30 -27h-390l-65 -419h700q12 0 20.5 -9.5t6.5 -21.5l-23 -139q-4 -29 -28 -29h-80q-143 -113 -160 -227q-6 -37 12.5 -58.5t49.5 -21.5
q63 0 102 47q14 14 31 -2l20 -21q14 -13 0 -39t-61 -58t-122 -32t-126 47.5t-37 135.5q23 135 188 229h-714q-12 0 -20.5 9t-6.5 22l217 1372q4 31 31 31h897z" />
    <glyph glyph-name="F.ss01" horiz-adv-x="1198" 
d="M1233 1434q10 0 19.5 -9.5t7.5 -21.5l-23 -139q-4 -29 -29 -29h-706l-74 -467h401q10 0 19.5 -8t7.5 -21l-22 -141q-4 -27 -31 -27h-408l-86 -542q-4 -29 -24 -29h-170q-29 0 -25 31l217 1374q4 29 29 29h897z" />
    <glyph glyph-name="G.ss01" horiz-adv-x="1320" 
d="M1198 698q12 0 20.5 -9t6.5 -21l-103 -641q-4 -27 -24 -27h-82q-27 0 -27 29l8 147q-141 -192 -388 -192t-379 197.5t-76 545.5t243 535.5t443 187.5q215 0 322.5 -126t107.5 -310q0 -23 -25 -25l-147 -26q-35 -4 -35 26q-2 102 -56.5 183t-170.5 81q-186 0 -305 -151.5
t-157 -393.5t27.5 -385t243.5 -143q133 0 233.5 87t133.5 241h-219q-14 0 -22.5 9t-6.5 22l20 131q4 29 31 28h383z" />
    <glyph glyph-name="Gbreve.ss01" horiz-adv-x="1320" 
d="M1198 698q12 0 20.5 -9t6.5 -21l-103 -641q-4 -27 -24 -27h-82q-27 0 -27 29l8 147q-141 -193 -388 -192.5t-379 198t-76.5 545.5t243 535.5t443.5 187.5q215 0 322.5 -126t107.5 -310q0 -23 -25 -25l-147 -26q-35 -4 -35 26q-2 102 -56.5 183t-170.5 81
q-186 0 -305 -151.5t-157 -393t27.5 -385t243.5 -143.5q133 0 233.5 87t133.5 241h-219q-14 0 -22.5 9t-6.5 22l20 131q4 29 31 28h383zM862 1593q-113 0 -172 60.5t-80 146.5q-4 23 13 29l69 26q20 4 29 -14q12 -37 26.5 -60.5t47 -44t87.5 -20.5t111 37t88 94q10 14 29 6
l66 -38q16 -10 6 -29q-43 -78 -125 -135.5t-195 -57.5z" />
    <glyph glyph-name="Gcommaaccent.ss01" horiz-adv-x="1320" 
d="M545 -102h102q33 0 29 -31l-21 -117q-8 -59 -56 -107.5t-116 -68.5q-16 -6 -18 14q-2 14 14 25q94 37 107 123l-66 26q-29 14 -24 37l12 68q6 31 37 31zM1198 698q12 0 20.5 -9t6.5 -21l-103 -641q-4 -27 -24 -27h-82q-27 0 -27 29l8 147q-141 -193 -388 -192.5t-379 198
t-76.5 545.5t243 535.5t443.5 187.5q215 0 322.5 -126t107.5 -310q0 -23 -25 -25l-147 -26q-35 -4 -35 26q-2 102 -56.5 183t-170.5 81q-186 0 -305 -151.5t-157 -393t27.5 -385t243.5 -143.5q133 0 233.5 87t133.5 241h-219q-14 0 -22.5 9t-6.5 22l20 131q4 29 31 28h383z
" />
    <glyph glyph-name="Gdotaccent.ss01" horiz-adv-x="1320" 
d="M1198 698q12 0 20.5 -9t6.5 -21l-103 -641q-4 -27 -24 -27h-82q-27 0 -27 29l8 147q-141 -193 -388 -192.5t-379 198t-76.5 545.5t243 535.5t443.5 187.5q215 0 322.5 -126t107.5 -310q0 -23 -25 -25l-147 -26q-35 -4 -35 26q-2 102 -56.5 183t-170.5 81
q-186 0 -305 -151.5t-157 -393t27.5 -385t243.5 -143.5q133 0 233.5 87t133.5 241h-219q-14 0 -22.5 9t-6.5 22l20 131q4 29 31 28h383zM869 1626q-38 0 -62.5 31t-18.5 66.5t33 58t65 22.5t62.5 -30.5t17.5 -67.5t-33 -58.5t-64 -21.5z" />
    <glyph glyph-name="I.ss01" horiz-adv-x="712" 
d="M692 1235h-98l-164 -1036h94q10 0 18.5 -9.5t6.5 -19.5l-23 -141q-4 -29 -30 -29h-412q-10 0 -18.5 9t-6.5 20l21 141q4 29 31 29h98l164 1036h-92q-12 0 -20.5 9t-6.5 20l22 141q4 29 31 29h412q10 0 18 -9.5t6 -19.5l-20 -141q-4 -29 -31 -29z" />
    <glyph glyph-name="Iacute.ss01" horiz-adv-x="712" 
d="M692 1235h-98l-164 -1036h94q10 0 18.5 -9.5t6.5 -19.5l-23 -141q-4 -29 -30 -29h-412q-10 0 -18.5 9t-6.5 20l21 141q4 29 31 29h98l164 1036h-92q-12 0 -20.5 9t-6.5 20l22 141q4 29 31 29h412q10 0 18 -9.5t6 -19.5l-20 -141q-4 -29 -31 -29zM383 1587q-29 -10 -35 15
l-10 36q-6 18 14 33l342 168q33 16 43 -12l29 -82q10 -29 -23 -41z" />
    <glyph glyph-name="Icircumflex.ss01" horiz-adv-x="712" 
d="M692 1235h-98l-164 -1036h94q10 0 18.5 -9.5t6.5 -19.5l-23 -141q-4 -29 -30 -29h-412q-10 0 -18.5 9t-6.5 20l21 141q4 29 31 29h98l164 1036h-92q-12 0 -20.5 9t-6.5 20l22 141q4 29 31 29h412q10 0 18 -9.5t6 -19.5l-20 -141q-4 -29 -31 -29zM578 1884h14q23 0 45 -29
l137 -161q16 -18 12 -39l-6 -47q-8 -35 -39 -6l-170 157l-221 -164q-16 -10 -25.5 -3t-7.5 20l9 47q4 25 24 41l182 166q20 18 46 18z" />
    <glyph glyph-name="Idieresis.ss01" horiz-adv-x="712" 
d="M692 1235h-98l-164 -1036h94q10 0 18.5 -9.5t6.5 -19.5l-23 -141q-4 -29 -30 -29h-412q-10 0 -18.5 9t-6.5 20l21 141q4 29 31 29h98l164 1036h-92q-12 0 -20.5 9t-6.5 20l22 141q4 29 31 29h412q10 0 18 -9.5t6 -19.5l-20 -141q-4 -29 -31 -29zM698 1645q-35 0 -56 24.5
t-16 55.5t25.5 48t52.5 17t52 -25.5t14 -60.5q-13 -59 -72 -59zM438 1645q-35 0 -56.5 24.5t-15.5 55.5t27 48t53 17t52 -25.5t14 -60.5q-13 -59 -74 -59z" />
    <glyph glyph-name="Idotaccent.ss01" horiz-adv-x="712" 
d="M692 1235h-98l-164 -1036h94q10 0 18.5 -9.5t6.5 -19.5l-23 -141q-4 -29 -30 -29h-412q-10 0 -18.5 9t-6.5 20l21 141q4 29 31 29h98l164 1036h-92q-12 0 -20.5 9t-6.5 20l22 141q4 29 31 29h412q10 0 18 -9.5t6 -19.5l-20 -141q-4 -29 -31 -29zM556 1626q-38 0 -62.5 31
t-18.5 66.5t33 58t64.5 22.5t62 -30.5t17.5 -67.5t-32.5 -58.5t-63.5 -21.5z" />
    <glyph glyph-name="Igrave.ss01" horiz-adv-x="712" 
d="M692 1235h-98l-164 -1036h94q10 0 18.5 -9.5t6.5 -19.5l-23 -141q-4 -29 -30 -29h-412q-10 0 -18.5 9t-6.5 20l21 141q4 29 31 29h98l164 1036h-92q-12 0 -20.5 9t-6.5 20l22 141q4 29 31 29h412q10 0 18 -9.5t6 -19.5l-20 -141q-4 -29 -31 -29zM743 1589l-360 117
q-33 12 -23 41l29 82q10 29 43 12l342 -168q20 -14 14 -33l-10 -36q-6 -25 -35 -15z" />
    <glyph glyph-name="Imacron.ss01" horiz-adv-x="712" 
d="M692 1235h-98l-164 -1036h94q10 0 18.5 -9.5t6.5 -19.5l-23 -141q-4 -29 -30 -29h-412q-10 0 -18.5 9t-6.5 20l21 141q4 29 31 29h98l164 1036h-92q-12 0 -20.5 9t-6.5 20l22 141q4 29 31 29h412q10 0 18 -9.5t6 -19.5l-20 -141q-4 -29 -31 -29zM367 1640q-33 0 -29 31
l12 66q4 31 33 30h385q14 0 23.5 -9t7.5 -23l-11 -66q-6 -29 -32 -29h-389z" />
    <glyph glyph-name="Iogonek.ss01" horiz-adv-x="712" 
d="M719 1434q10 0 18 -9.5t6 -19.5l-20 -141q-4 -29 -31 -29h-98l-164 -1036h94q10 0 18.5 -9.5t6.5 -19.5l-23 -141q-4 -29 -30 -29h-50q-143 -113 -159 -227q-6 -37 12 -58.5t49 -21.5q63 0 103 47q14 14 30 -2l21 -21q14 -13 0 -39t-62 -58t-122 -32t-125.5 47.5
t-36.5 135.5q23 135 188 229h-260q-10 0 -18.5 9t-6.5 20l21 141q4 29 31 29h98l164 1036h-92q-12 0 -20.5 9t-6.5 20l22 141q4 29 31 29h412z" />
    <glyph glyph-name="M.ss01" horiz-adv-x="1589" 
d="M1405 1434h158q12 0 20 -9.5t6 -21.5l-217 -1376q-4 -27 -26 -27h-170q-10 0 -18.5 9t-6.5 20l158 995l-471 -645q-18 -23 -31 -23h-25q-25 0 -32 25l-279 651l-162 -1005q-4 -27 -26 -27h-168q-12 0 -19.5 9t-5.5 20l217 1376q4 29 29 29h147q25 0 37 -31l314 -727
l532 733q18 25 39 25z" />
    <glyph glyph-name="N.ss01" horiz-adv-x="1372" 
d="M1348 1434q10 0 18 -9.5t6 -21.5l-217 -1376q-4 -27 -29 -27h-137q-20 0 -37 29l-481 999l-162 -1001q-4 -27 -24 -27h-170q-12 0 -19.5 9t-5.5 20l217 1376q4 29 29 29h143q18 0 37 -31l477 -989l160 991q4 29 25 29h170z" />
    <glyph glyph-name="Nacute.ss01" horiz-adv-x="1372" 
d="M1348 1434q10 0 18 -9.5t6 -21.5l-217 -1376q-4 -27 -29 -27h-137q-20 0 -37 29l-481 999l-162 -1001q-4 -27 -24 -27h-170q-12 0 -19.5 9t-5.5 20l217 1376q4 29 29 29h143q18 0 37 -31l477 -989l160 991q4 29 25 29h170zM700 1587q-29 -10 -34 15l-11 36q-6 18 15 33
l342 168q33 16 43 -12l28 -82q10 -29 -22 -41z" />
    <glyph glyph-name="Ncaron.ss01" horiz-adv-x="1372" 
d="M1348 1434q10 0 18 -9.5t6 -21.5l-217 -1376q-4 -27 -29 -27h-137q-20 0 -37 29l-481 999l-162 -1001q-4 -27 -24 -27h-170q-12 0 -19.5 9t-5.5 20l217 1376q4 29 29 29h143q18 0 37 -31l477 -989l160 991q4 29 25 29h170zM858 1587q-20 0 -45 31l-125 168q-20 25 -18 47
l4 33q2 14 16.5 16t26.5 -12l162 -164l215 168q20 14 31.5 6t7.5 -25l-5 -28q-6 -27 -22 -43l-188 -176q-20 -20 -46 -21h-14z" />
    <glyph glyph-name="Ncommaaccent.ss01" horiz-adv-x="1372" 
d="M563 -102h103q30 0 28 -31l-20 -117q-8 -59 -56.5 -107.5t-115.5 -68.5q-16 -6 -18.5 11t14.5 28q94 37 106 123l-65 26q-29 14 -25 37l12 68q6 31 37 31zM1348 1434q10 0 18 -9.5t6 -21.5l-217 -1376q-4 -27 -29 -27h-137q-20 0 -37 29l-481 999l-162 -1001
q-4 -27 -24 -27h-170q-12 0 -19.5 9t-5.5 20l217 1376q4 29 29 29h143q18 0 37 -31l477 -989l160 991q4 29 25 29h170z" />
    <glyph glyph-name="Eng.ss01" horiz-adv-x="1372" 
d="M1346 1434q12 0 20 -10t6 -21l-233 -1479q-20 -133 -205 -256q-23 -16 -45 6l-64 78q-16 29 0 41q115 72 133 158q8 49 -22 115l-465 962l-162 -999q-4 -29 -26 -29h-168q-29 0 -25 31l217 1374q4 29 29 29h141q23 0 37 -29l479 -991l160 991q4 29 27 29h166z" />
    <glyph glyph-name="Ntilde.ss01" horiz-adv-x="1372" 
d="M1348 1434q10 0 18 -9.5t6 -21.5l-217 -1376q-4 -27 -29 -27h-137q-20 0 -37 29l-481 999l-162 -1001q-4 -27 -24 -27h-170q-12 0 -19.5 9t-5.5 20l217 1376q4 29 29 29h143q18 0 37 -31l477 -989l160 991q4 29 25 29h170zM1004 1614q-63 0 -129 43t-107 43
q-80 0 -127 -66q-12 -14 -33 -4l-30 15q-23 10 -11 34q23 49 74 88t123 39t141.5 -44t98.5 -44q66 0 116 72q8 14 27 4l35 -16q23 -14 10 -35q-66 -129 -188 -129z" />
    <glyph glyph-name="O.ss01" horiz-adv-x="1376" 
d="M643 180q180 0 296 150.5t154 393.5t-24.5 386t-242 143t-297 -151.5t-155.5 -393t25.5 -385t243.5 -143.5zM624 -16q-265 0 -395.5 195.5t-75 544.5t241 537.5t450.5 188.5t395 -195.5t75 -544.5t-240.5 -537.5t-450.5 -188.5z" />
    <glyph glyph-name="Oacute.ss01" horiz-adv-x="1376" 
d="M643 180q180 0 296 150.5t154 393.5t-24.5 386t-242 143t-297 -151.5t-155.5 -393t25.5 -385t243.5 -143.5zM624 -16q-265 0 -395.5 195.5t-75 544.5t241 537.5t450.5 188.5t395 -195.5t75 -544.5t-240.5 -537.5t-450.5 -188.5zM707 1587q-29 -10 -35 15l-10 36
q-6 18 14 33l342 168q33 16 43 -12l29 -82q10 -29 -23 -41z" />
    <glyph glyph-name="Ocircumflex.ss01" horiz-adv-x="1376" 
d="M643 180q180 0 296 150.5t154 393.5t-24.5 386t-242 143t-297 -151.5t-155.5 -393t25.5 -385t243.5 -143.5zM624 -16q-265 0 -395.5 195.5t-75 544.5t241 537.5t450.5 188.5t395 -195.5t75 -544.5t-240.5 -537.5t-450.5 -188.5zM901 1884h14q23 0 46 -29l137 -161
q16 -18 12 -39l-6 -47q-8 -35 -39 -6l-170 157l-221 -164q-16 -10 -25.5 -3t-7.5 20l8 47q4 25 25 41l182 166q20 18 45 18z" />
    <glyph glyph-name="Odieresis.ss01" horiz-adv-x="1376" 
d="M643 180q180 0 296 150.5t154 393.5t-24.5 386t-242 143t-297 -151.5t-155.5 -393t25.5 -385t243.5 -143.5zM624 -16q-265 0 -395.5 195.5t-75 544.5t241 537.5t450.5 188.5t395 -195.5t75 -544.5t-240.5 -537.5t-450.5 -188.5zM1022 1645q-35 0 -56.5 24.5t-16.5 55.5
t25.5 48t52.5 17t52.5 -25.5t14.5 -60.5q-13 -59 -72 -59zM762 1645q-35 0 -56.5 24.5t-16.5 55.5t26.5 48t53.5 17t52.5 -25.5t14.5 -60.5q-13 -59 -74 -59z" />
    <glyph glyph-name="Ograve.ss01" horiz-adv-x="1376" 
d="M643 180q180 0 296 150.5t154 393.5t-24.5 386t-242 143t-297 -151.5t-155.5 -393t25.5 -385t243.5 -143.5zM624 -16q-265 0 -395.5 195.5t-75 544.5t241 537.5t450.5 188.5t395 -195.5t75 -544.5t-240.5 -537.5t-450.5 -188.5zM1067 1589l-360 117q-33 12 -23 41l29 82
q10 29 43 12l342 -168q20 -14 14 -33l-10 -36q-6 -25 -35 -15z" />
    <glyph glyph-name="Ohungarumlaut.ss01" horiz-adv-x="1376" 
d="M826.5 1253q-179.5 0 -297 -151.5t-155.5 -393t25.5 -385t243.5 -143.5t296 150.5t154 393.5t-24.5 386t-242 143zM845 1450q265 0 395 -195.5t75 -544.5t-240.5 -537.5t-450.5 -188.5t-395.5 195.5t-75 544.5t241 537.5t450.5 188.5zM762 1595l-21 23q-12 20 15 41
l225 182q27 18 41 -8l4 -6l16 14q29 18 41 -10l54 -70q10 -23 -13 -37l-264 -139q-23 -10 -35 6l-6 6l-20 -10q-25 -15 -37 8z" />
    <glyph glyph-name="Omacron.ss01" horiz-adv-x="1376" 
d="M643 180q180 0 296 150.5t154 393.5t-24.5 386t-242 143t-297 -151.5t-155.5 -393t25.5 -385t243.5 -143.5zM624 -16q-265 0 -395.5 195.5t-75 544.5t241 537.5t450.5 188.5t395 -195.5t75 -544.5t-240.5 -537.5t-450.5 -188.5zM690 1640q-33 0 -28 31l12 66q4 31 33 30
h385q14 0 23 -9t7 -23l-10 -66q-6 -29 -33 -29h-389z" />
    <glyph glyph-name="Oslash.ss01" horiz-adv-x="1376" 
d="M639 180q184 0 300 150.5t153 386t-15 373.5l-585 -871q61 -39 147 -39zM829 1253q-182 0 -299.5 -151t-154.5 -389.5t18 -374.5l588 874q-59 41 -152 41zM629 -16q-147 0 -256 59l-25 -37q-16 -25 -43 -24h-92q-20 0 -27.5 19t2.5 34l70 104q-164 197 -104 590
q55 344 240.5 532.5t447.5 188.5q150 0 258 -61l24 36q16 23 41 23h105q16 0 21 -13.5t-3 -29.5l-76 -113q164 -199 101 -587q-53 -344 -238.5 -532.5t-445.5 -188.5z" />
    <glyph glyph-name="Otilde.ss01" horiz-adv-x="1376" 
d="M643 180q180 0 296 150.5t154 393.5t-24.5 386t-242 143t-297 -151.5t-155.5 -393t25.5 -385t243.5 -143.5zM624 -16q-265 0 -395.5 195.5t-75 544.5t241 537.5t450.5 188.5t395 -195.5t75 -544.5t-240.5 -537.5t-450.5 -188.5zM1007 1614q-60 0 -126 43t-107 43
q-80 0 -127 -66q-12 -14 -33 -4l-30 15q-23 10 -11 34q23 49 74 88t123 39t141.5 -44t98.5 -44q66 0 116 72q8 14 27 4l35 -16q23 -14 10 -35q-31 -61 -81 -95t-110 -34z" />
    <glyph glyph-name="OE.ss01" horiz-adv-x="1851" 
d="M635 180q66 0 123 23l164 1036q-37 14 -99 14q-180 -2 -295.5 -155t-153.5 -389.5t25.5 -382.5t235.5 -146zM1876 1434q12 0 20.5 -9.5t6.5 -21.5l-23 -139q-4 -29 -29 -29h-708l-66 -420h383q12 0 20.5 -8t6.5 -21l-23 -141q-4 -27 -30 -27h-390l-65 -419h700
q12 0 20.5 -9.5t6.5 -21.5l-23 -139q-4 -29 -28 -29h-879q-76 -16 -151 -16q-276 0 -401.5 202.5t-71 537.5t235.5 530.5t446 195.5q78 0 147 -16h895z" />
    <glyph glyph-name="P.ss01" horiz-adv-x="1234" 
d="M723 717q244 0 287 270q18 125 -28 187.5t-169 62.5h-311l-82 -520h303zM766 520h-377l-80 -493q-4 -27 -24 -27h-170q-12 0 -19.5 9t-5.5 20l217 1376q4 29 29 29h569q170 0 263.5 -125t57.5 -348t-163 -332t-297 -109z" />
    <glyph glyph-name="Q.ss01" horiz-adv-x="1392" 
d="M634 180q169 0 285.5 154.5t153.5 388t-25.5 382t-231.5 148.5t-287.5 -155t-154.5 -389.5t27.5 -381.5t232.5 -147zM834.5 1450q252.5 0 383 -197.5t74.5 -547.5q-45 -293 -192 -478l127 -151q20 -29 -2 -47l-107 -90q-23 -23 -43 2l-133 143q-145 -100 -324 -100
q-256 0 -387.5 197.5t-76.5 543.5t241.5 535.5t439 189.5z" />
    <glyph glyph-name="R.ss01" horiz-adv-x="1296" 
d="M811 737q74 0 144.5 59.5t92 185.5t-23.5 189.5t-145 63.5h-377l-80 -498h389zM283 0h-168q-12 0 -19.5 9t-5.5 20l217 1376q4 29 29 29h622q164 0 254.5 -125t55.5 -336q-47 -299 -289 -406q152 -236 131 -540q0 -27 -27 -27h-165q-31 0 -25 35q8 123 -28 265t-124 243
h-348l-84 -516q-4 -27 -26 -27z" />
    <glyph glyph-name="Racute.ss01" horiz-adv-x="1296" 
d="M811 737q74 0 144.5 59.5t92 185.5t-23.5 189.5t-145 63.5h-377l-80 -498h389zM283 0h-168q-12 0 -19.5 9t-5.5 20l217 1376q4 29 29 29h622q164 0 254.5 -125t55.5 -336q-47 -299 -289 -406q152 -236 131 -540q0 -27 -27 -27h-165q-31 0 -25 35q8 123 -28 265t-124 243
h-348l-84 -516q-4 -27 -26 -27zM653 1587q-29 -10 -35 15l-10 36q-6 18 15 33l342 168q33 16 43 -12l28 -82q10 -29 -22 -41z" />
    <glyph glyph-name="Rcaron.ss01" horiz-adv-x="1296" 
d="M811 737q74 0 144.5 59.5t92 185.5t-23.5 189.5t-145 63.5h-377l-80 -498h389zM283 0h-168q-12 0 -19.5 9t-5.5 20l217 1376q4 29 29 29h622q164 0 254.5 -125t55.5 -336q-47 -299 -289 -406q152 -236 131 -540q0 -27 -27 -27h-165q-31 0 -25 35q8 123 -28 265t-124 243
h-348l-84 -516q-4 -27 -26 -27zM811 1587q-20 0 -45 31l-125 168q-20 25 -18 47l4 33q2 14 16 16t27 -12l161 -164l216 168q20 14 31.5 6t6.5 -25l-4 -28q-6 -27 -22 -43l-189 -176q-20 -20 -45 -21h-14z" />
    <glyph glyph-name="Rcommaaccent.ss01" horiz-adv-x="1296" 
d="M522 -102h103q30 0 28 -31l-20 -117q-8 -59 -56.5 -107.5t-115.5 -68.5q-16 -6 -18.5 11t14.5 28q94 37 106 123l-65 26q-29 14 -25 37l12 68q6 31 37 31zM811 737q74 0 144.5 59.5t92 185.5t-23.5 189.5t-145 63.5h-377l-80 -498h389zM283 0h-168q-12 0 -19.5 9t-5.5 20
l217 1376q4 29 29 29h622q164 0 254.5 -125t55.5 -336q-47 -299 -289 -406q152 -236 131 -540q0 -27 -27 -27h-165q-31 0 -25 35q8 123 -28 265t-124 243h-348l-84 -516q-4 -27 -26 -27z" />
    <glyph glyph-name="U.ss01" horiz-adv-x="1312" 
d="M1288 1434q10 0 18.5 -9.5t6.5 -21.5l-148 -932q-37 -231 -152.5 -351t-334.5 -120h-166q-219 0 -303 127t-47 356l145 922q4 29 29 29h166q31 0 26 -31l-147 -926q-43 -279 174 -278h119q104 0 178 74.5t96 215.5l144 916q4 29 28 29h168z" />
    <glyph glyph-name="Uacute.ss01" horiz-adv-x="1312" 
d="M1288 1434q10 0 18.5 -9.5t6.5 -21.5l-148 -932q-37 -231 -152.5 -351t-334.5 -120h-166q-219 0 -303 127t-47 356l145 922q4 29 29 29h166q31 0 26 -31l-147 -926q-43 -279 174 -278h119q104 0 178 74.5t96 215.5l144 916q4 29 28 29h168zM678 1587q-29 -10 -35 15
l-10 36q-6 18 14 33l342 168q33 16 43 -12l29 -82q10 -29 -23 -41z" />
    <glyph glyph-name="Ucircumflex.ss01" horiz-adv-x="1312" 
d="M1288 1434q10 0 18.5 -9.5t6.5 -21.5l-148 -932q-37 -231 -152.5 -351t-334.5 -120h-166q-219 0 -303 127t-47 356l145 922q4 29 29 29h166q31 0 26 -31l-147 -926q-43 -279 174 -278h119q104 0 178 74.5t96 215.5l144 916q4 29 28 29h168zM872 1884h15q23 0 45 -29
l137 -161q16 -18 12 -39l-6 -47q-8 -35 -39 -6l-170 157l-221 -164q-16 -10 -25.5 -3t-7.5 20l9 47q4 25 24 41l182 166q20 18 45 18z" />
    <glyph glyph-name="Udieresis.ss01" horiz-adv-x="1312" 
d="M1288 1434q10 0 18.5 -9.5t6.5 -21.5l-148 -932q-37 -231 -152.5 -351t-334.5 -120h-166q-219 0 -303 127t-47 356l145 922q4 29 29 29h166q31 0 26 -31l-147 -926q-43 -279 174 -278h119q104 0 178 74.5t96 215.5l144 916q4 29 28 29h168zM993 1645q-35 1 -57 25t-16 55
t26 48t52 17t52.5 -25.5t14.5 -60.5q-13 -59 -72 -59zM733 1645q-35 1 -57 25t-16 55t28 48q20 17 52 17t52.5 -25.5t14.5 -60.5q-13 -59 -74 -59z" />
    <glyph glyph-name="Ugrave.ss01" horiz-adv-x="1312" 
d="M1288 1434q10 0 18.5 -9.5t6.5 -21.5l-148 -932q-37 -231 -152.5 -351t-334.5 -120h-166q-219 0 -303 127t-47 356l145 922q4 29 29 29h166q31 0 26 -31l-147 -926q-43 -279 174 -278h119q104 0 178 74.5t96 215.5l144 916q4 29 28 29h168zM1038 1589l-360 117
q-33 12 -23 41l29 82q10 29 43 12l342 -168q20 -14 14 -33l-10 -36q-6 -25 -35 -15z" />
    <glyph glyph-name="Uhungarumlaut.ss01" horiz-adv-x="1312" 
d="M1288 1434q10 0 18.5 -9.5t6.5 -21.5l-148 -932q-37 -231 -152.5 -351t-334.5 -120h-166q-219 0 -303 127t-47 356l145 922q4 29 29 29h166q31 0 26 -31l-147 -926q-43 -279 174 -278h119q104 0 178 74.5t96 215.5l144 916q4 29 28 29h168zM733 1595l-20 23q-12 20 14 41
l225 182q27 18 41 -8l4 -6l17 14q29 18 41 -10l53 -70q10 -23 -12 -37l-265 -139q-23 -10 -34 6l-6 6l-21 -10q-25 -15 -37 8z" />
    <glyph glyph-name="Umacron.ss01" horiz-adv-x="1312" 
d="M1288 1434q10 0 18.5 -9.5t6.5 -21.5l-148 -932q-37 -231 -152.5 -351t-334.5 -120h-166q-219 0 -303 127t-47 356l145 922q4 29 29 29h166q31 0 26 -31l-147 -926q-43 -279 174 -278h119q104 0 178 74.5t96 215.5l144 916q4 29 28 29h168zM662 1640q-33 0 -29 31l12 66
q4 31 33 30h385q14 0 23.5 -9t7.5 -23l-11 -66q-6 -29 -32 -29h-389z" />
    <glyph glyph-name="Uogonek.ss01" horiz-adv-x="1312" 
d="M1288 1434q10 0 18.5 -9.5t6.5 -21.5l-148 -932q-61 -391 -350 -457q-162 -113 -180 -241q-6 -37 12.5 -58.5t48.5 -21.5q63 0 103 47q14 14 30 -2l21 -21q14 -12 0 -38.5t-61.5 -58.5t-122 -32t-126 47.5t-36.5 135.5q23 135 188 229h-180q-219 0 -303 127t-47 356
l145 922q4 29 29 29h166q31 0 26 -31l-147 -926q-43 -279 174 -278h119q104 0 178 74.5t96 215.5l144 916q4 29 28 29h168z" />
    <glyph glyph-name="Uring.ss01" horiz-adv-x="1312" 
d="M1288 1434q10 0 18.5 -9.5t6.5 -21.5l-148 -932q-37 -231 -152.5 -351t-334.5 -120h-166q-219 0 -303 127t-47 356l145 922q4 29 29 29h166q31 0 26 -31l-147 -926q-43 -279 174 -278h119q104 0 178 74.5t96 215.5l144 916q4 29 28 29h168zM846 1690q68 0 78 75
q4 33 -11.5 52.5t-44.5 19.5q-63 0 -77 -72q-4 -33 10 -54t45 -21zM837 1589q-73 0 -119 51.5t-33 131.5t66.5 122.5t126 42.5t119.5 -51t33 -131t-67 -123t-126 -43z" />
    <glyph glyph-name="W.ss01" horiz-adv-x="1888" 
d="M1931 1434q14 0 23.5 -14.5t3.5 -28.5l-651 -1368q-12 -23 -29 -23h-66q-23 0 -26 25l-160 940l-410 -942q-10 -23 -28 -23h-66q-23 0 -26 27l-260 1372q-4 35 28 35h152q25 0 28 -27l164 -954l410 960q10 20 26 21h89q18 0 24 -23l133 -958l455 962q10 18 29 19h157z
" />
    <glyph glyph-name="Wacute.ss01" horiz-adv-x="1888" 
d="M1931 1434q14 0 23.5 -14.5t3.5 -28.5l-651 -1368q-12 -23 -29 -23h-66q-23 0 -26 25l-160 940l-410 -942q-10 -23 -28 -23h-66q-23 0 -26 27l-260 1372q-4 35 28 35h152q25 0 28 -27l164 -954l410 960q10 20 26 21h89q18 0 24 -23l133 -958l455 962q10 18 29 19h157z
M948 1587q-29 -10 -35 15l-10 36q-6 18 15 33l342 168q33 16 43 -12l28 -82q10 -29 -22 -41z" />
    <glyph glyph-name="Wcircumflex.ss01" horiz-adv-x="1888" 
d="M1931 1434q14 0 23.5 -14.5t3.5 -28.5l-651 -1368q-12 -23 -29 -23h-66q-23 0 -26 25l-160 940l-410 -942q-10 -23 -28 -23h-66q-23 0 -26 27l-260 1372q-4 35 28 35h152q25 0 28 -27l164 -954l410 960q10 20 26 21h89q18 0 24 -23l133 -958l455 962q10 18 29 19h157z
M1143 1884h14q23 0 45 -29l137 -161q16 -18 13 -39l-6 -47q-8 -35 -39 -6l-170 157l-222 -164q-16 -10 -25 -3t-7 20l8 47q4 25 24 41l183 166q20 18 45 18z" />
    <glyph glyph-name="Wdieresis.ss01" horiz-adv-x="1888" 
d="M1931 1434q14 0 23.5 -14.5t3.5 -28.5l-651 -1368q-12 -23 -29 -23h-66q-23 0 -26 25l-160 940l-410 -942q-10 -23 -28 -23h-66q-23 0 -26 27l-260 1372q-4 35 28 35h152q25 0 28 -27l164 -954l410 960q10 20 26 21h89q18 0 24 -23l133 -958l455 962q10 18 29 19h157z
M1264 1645q-35 0 -56.5 24.5t-16.5 55.5t25.5 48t52.5 17t52 -25.5t14 -60.5q-12 -59 -71 -59zM1004 1645q-35 0 -56.5 24.5t-16.5 55.5t26.5 48t53.5 17t52 -25.5t14 -60.5q-12 -59 -73 -59z" />
    <glyph glyph-name="Wgrave.ss01" horiz-adv-x="1888" 
d="M1931 1434q14 0 23.5 -14.5t3.5 -28.5l-651 -1368q-12 -23 -29 -23h-66q-23 0 -26 25l-160 940l-410 -942q-10 -23 -28 -23h-66q-23 0 -26 27l-260 1372q-4 35 28 35h152q25 0 28 -27l164 -954l410 960q10 20 26 21h89q18 0 24 -23l133 -958l455 962q10 18 29 19h157z
M1309 1589l-361 117q-33 12 -22 41l28 82q10 29 43 12l342 -168q20 -14 15 -33l-11 -36q-5 -25 -34 -15z" />
    <glyph glyph-name="A.ss04" horiz-adv-x="1165" 
d="M76 164h923q12 0 20.5 -9.5t6.5 -21.5l-16 -104q-4 -29 -27 -29h-930q-29 0 -24 31l18 104q4 29 29 29zM461 668h327l-88 399l-6 35l-16 -35zM786 1434q14 0 21 -23l254 -1051q2 -14 -6 -24t-21 -10h-162q-20 0 -24 26l-39 166h-422l-86 -168q-14 -25 -33 -24h-168
q-12 0 -18 11t0 25l586 1053q12 18 22 19h96z" />
    <glyph glyph-name="B.ss04" horiz-adv-x="1077" 
d="M137 164h748q12 0 20 -9.5t6 -21.5l-16 -104q-4 -29 -29 -29h-751q-10 0 -18.5 9t-6.5 22l19 104q4 29 28 29zM606 487q154 0 176 166q23 154 -102 154h-248l-49 -320h223zM709 1280h-203l-51 -319h200q133 0 160 167q12 84 -14 118t-92 34zM657 334h-489q-10 0 -18.5 9
t-6.5 19l166 1043q4 29 27 29h463q123 0 187.5 -78t39.5 -228q-29 -184 -158 -239q68 -25 102.5 -93.5t16.5 -188.5t-102 -196.5t-228 -76.5z" />
    <glyph glyph-name="C.ss04" horiz-adv-x="1200" 
d="M135 164h856q29 0 25 -31l-15 -104q-4 -29 -28 -29h-858q-12 0 -20.5 9t-6.5 22l18 104q4 29 29 29zM643 317q-242 0 -375 161t-92 414t217 405.5t414 152.5q143 0 249.5 -59.5t155.5 -147.5q12 -25 -4 -35l-108 -88q-23 -18 -42 10q-33 48 -87.5 94t-161.5 46
q-164 0 -281.5 -113t-143.5 -283t50 -273t234 -103q76 0 141 28.5t97 57t71 75.5q18 23 43 3l86 -97q18 -20 -2 -45q-174 -203 -461 -203z" />
    <glyph glyph-name="D.ss04" horiz-adv-x="1161" 
d="M137 164h793q12 0 20 -9.5t6 -21.5l-16 -104q-4 -29 -27 -29h-798q-10 0 -18.5 9t-6.5 22l19 104q4 29 28 29zM539 514q145 0 238 81t128 300q12 115 6 185.5t-46 108.5t-85 51t-114 13h-172l-117 -739h162zM172 334q-10 0 -20.5 11t-8.5 24l166 1042q2 23 25 23h368
q169 0 280 -66q62 -36 94 -100q82 -163 36 -398q-50 -324 -217 -436q-149 -100 -365 -100h-358z" />
    <glyph glyph-name="E.ss04" horiz-adv-x="956" 
d="M137 164h643q10 0 18.5 -9.5t6.5 -21.5l-17 -104q-4 -29 -26 -29h-645q-12 0 -20.5 9t-6.5 22l19 104q4 29 28 29zM836 514q10 0 18 -9t6 -22l-18 -123q-4 -27 -29 -26h-645q-10 0 -18.5 9t-6.5 19l166 1043q4 29 27 29h647q10 0 18.5 -9.5t6.5 -21.5l-19 -121
q-4 -29 -28 -29h-467l-45 -288h288q10 0 18.5 -8.5t6.5 -20.5l-17 -107q-4 -27 -28 -26h-293l-45 -289h457z" />
    <glyph glyph-name="F.ss04" horiz-adv-x="933" 
d="M137 164h621q12 0 20 -9.5t6 -21.5l-16 -104q-4 -29 -29 -29h-624q-10 0 -18.5 9t-6.5 22l19 104q4 29 28 29zM958 1434q12 0 20.5 -8.5t6.5 -20.5l-18 -123q-4 -29 -29 -29h-444l-52 -325h295q10 0 18.5 -8.5t6.5 -18.5l-19 -125q-4 -27 -28 -26h-301l-62 -390
q-4 -27 -24 -26h-162q-10 0 -17.5 9t-5.5 19l166 1043q4 29 27 29h622z" />
    <glyph glyph-name="G.ss04" horiz-adv-x="1236" 
d="M125 164h903q12 0 20.5 -9.5t6.5 -21.5l-17 -104q-4 -29 -28 -29h-906q-10 0 -19 9t-7 22l18 104q4 29 29 29zM1149 911q10 0 18.5 -9t6.5 -19l-66 -406q-2 -20 -23 -33q-170 -127 -415.5 -127t-391 149.5t-102.5 421t223.5 417t407.5 145.5q260 0 397 -182
q18 -25 -2 -41l-94 -84q-27 -23 -47 6q-33 39 -50.5 55.5t-73.5 41t-130 24.5q-162 0 -277.5 -106.5t-144.5 -285t51 -279.5t234 -101t256 82l26 170h-168q-29 0 -24 28l16 105q4 29 29 28h344z" />
    <glyph glyph-name="H.ss04" horiz-adv-x="1214" 
d="M139 164h846q12 0 20.5 -9.5t6.5 -21.5l-17 -104q-4 -29 -26 -29h-852q-12 0 -20.5 9t-6.5 22l21 104q4 29 28 29zM1190 1434q27 0 22 -31l-165 -1043q-4 -27 -25 -26h-162q-27 0 -22 28l69 433h-485l-68 -435q-4 -27 -26 -26h-160q-12 0 -19.5 9t-5.5 19l166 1043
q4 29 27 29h160q27 0 22 -31l-69 -428h485l70 430q4 29 26 29h160z" />
    <glyph glyph-name="I.ss04" horiz-adv-x="518" 
d="M139 164h150q12 0 20 -9.5t6 -21.5l-16 -104q-4 -29 -29 -29h-153q-12 0 -20.5 9t-6.5 22l19 104q4 29 30 29zM168 334q-12 0 -20.5 9t-4.5 19l166 1043q4 29 27 29h158q29 0 24 -31l-166 -1043q-4 -27 -26 -26h-158z" />
    <glyph glyph-name="J.ss04" horiz-adv-x="919" 
d="M82 164h610q12 0 20.5 -9.5t6.5 -21.5l-19 -104q-4 -29 -28 -29h-611q-12 0 -20 9t-6 22l18 104q4 29 29 29zM893 1434q12 0 20.5 -9.5t6.5 -23.5l-111 -703q-31 -193 -124 -287t-275 -94q-119 0 -194 51.5t-114 166.5q-8 23 11 30l123 58q27 12 32 -15q39 -100 138 -100
q162 0 196 219l109 676q4 31 28 31h154z" />
    <glyph glyph-name="K.ss04" horiz-adv-x="1105" 
d="M137 164h801q12 0 20.5 -9.5t6.5 -21.5l-17 -104q-4 -29 -26 -29h-807q-29 0 -25 31l19 104q4 29 28 29zM168 334q-10 0 -18.5 11t-6.5 24l164 1036q4 29 27 29h160q27 0 22 -31l-74 -451l469 459q20 23 54 23h178q14 0 20 -14.5t-4 -24.5l-553 -516l379 -519q8 -8 4 -17
t-14 -9h-180q-27 0 -45 26l-326 443l-72 -443q-4 -27 -26 -26h-158z" />
    <glyph glyph-name="L.ss04" horiz-adv-x="952" 
d="M139 164h658q12 0 20 -9.5t6 -21.5l-16 -104q-4 -29 -29 -29h-661q-12 0 -20.5 9t-6.5 22l19 104q4 29 30 29zM854 514q10 0 18.5 -9t6.5 -20l-19 -123q-4 -29 -29 -28h-661q-12 0 -20.5 9t-6.5 22l166 1040q4 29 27 29h160q27 0 22 -31l-141 -889h477z" />
    <glyph glyph-name="M.ss04" horiz-adv-x="1404" 
d="M137 164h1041q12 0 20 -9.5t6 -21.5l-16 -104q-4 -29 -29 -29h-1042q-12 0 -20.5 9t-6.5 22l19 104q4 29 28 29zM1382 1434q27 0 23 -31l-164 -1043q-4 -27 -27 -26h-159q-10 0 -18.5 8t-6.5 20l109 674l-400 -680q-14 -23 -30 -22h-27q-23 0 -29 28l-192 674l-109 -676
q-4 -27 -26 -26h-160q-10 0 -18.5 8t-6.5 20l168 1043q4 29 27 29h147q23 0 35 -35l223 -750l453 764q12 20 35 21h153z" />
    <glyph glyph-name="N.ss04" horiz-adv-x="1208" 
d="M137 164h844q29 0 25 -31l-15 -104q-4 -29 -28 -29h-848q-29 0 -25 31l19 104q4 29 28 29zM1184 1434q10 0 18 -9.5t6 -21.5l-166 -1043q-4 -27 -26 -26h-127q-20 0 -35 24l-387 725l-115 -723q-4 -27 -26 -26h-160q-10 0 -18.5 8t-6.5 20l166 1043q4 29 29 29h133
q20 0 35 -29l379 -723l116 723q4 29 25 29h160z" />
    <glyph glyph-name="O.ss04" horiz-adv-x="1331" 
d="M125 164h991q12 0 20.5 -9.5t6.5 -21.5l-17 -104q-4 -29 -28 -29h-994q-10 0 -18 9t-6 22l16 104q4 29 29 29zM670 498q156 0 275.5 111.5t146.5 281.5t-52 274.5t-235 104.5t-274.5 -113t-146.5 -282t51 -273t235 -104zM653.5 317q-234.5 0 -376.5 158t-102 416
t226.5 408.5t420 150.5t376.5 -157.5t102 -417t-226.5 -409t-420 -149.5z" />
    <glyph glyph-name="P.ss04" horiz-adv-x="999" 
d="M137 164h649q12 0 20.5 -9.5t6.5 -21.5l-16 -104q-4 -29 -29 -29h-651q-12 0 -20.5 9t-6.5 22l21 104q4 29 26 29zM582 862q172 0 204 211q31 184 -133 184h-157l-64 -395h150zM616 686h-213l-51 -326q-4 -27 -24 -26h-162q-29 0 -25 28l168 1043q4 29 27 29h395
q141 0 218 -88t46 -291t-137 -286t-242 -83z" />
    <glyph glyph-name="Q.ss04" horiz-adv-x="1331" 
d="M1116 164q12 0 20.5 -9.5t6.5 -21.5l-17 -104q-4 -29 -28 -29h-994q-10 0 -18 9t-6 22l16 104q4 29 29 29h991zM670 498q156 0 275.5 111.5t146.5 281.5t-52 274.5t-235 104.5t-274.5 -113t-146.5 -282t51 -273t235 -104zM821.5 1450q233.5 0 376.5 -157.5t102 -422.5
q-33 -203 -167 -348l71 -82q16 -23 0 -39l-92 -79q-20 -16 -39 2l-76 88q-160 -94 -340 -95q-238 0 -380 158t-102 416t226.5 408.5t420 150.5z" />
    <glyph glyph-name="R.ss04" horiz-adv-x="1062" 
d="M137 164h750q29 0 24 -31l-14 -104q-4 -29 -29 -29h-751q-12 0 -20.5 9t-6.5 22l21 104q4 29 26 29zM625 885q176 0 206 198q14 96 -18.5 135t-118.5 39h-198l-60 -372h189zM770 334q-16 0 -31 24l-159 353h-172l-56 -351q-4 -27 -26 -26h-158q-29 0 -25 28l166 1043
q4 29 27 29h424q147 0 227 -98.5t51 -280.5q-39 -254 -247 -330l151 -363q14 -29 -12 -28h-160z" />
    <glyph glyph-name="S.ss04" horiz-adv-x="1030" 
d="M115 164h712q10 0 18.5 -9.5t6.5 -21.5l-16 -104q-4 -29 -27 -29h-715q-29 0 -24 31l18 104q4 29 27 29zM518 315q-274 0 -377 174q-14 23 2 35l103 82q16 16 30 0q88 -117 240 -117q90 0 152.5 42t72.5 112q6 35 -1 59.5t-39 46.5t-138 64q-182 55 -269 131t-63.5 215
t134 215t254 76t241.5 -42t141 -105q14 -25 0 -39l-102 -82q-16 -14 -33 2q-92 92 -227 92q-84 0 -139.5 -35t-61.5 -97t35 -96t150 -73q92 -29 143 -51q50 -22 106 -62q107 -75 79 -227.5t-139.5 -236t-293.5 -83.5z" />
    <glyph glyph-name="T.ss04" horiz-adv-x="1032" 
d="M76 164h790q10 0 18.5 -9.5t6.5 -21.5l-14 -104q-4 -29 -29 -29h-793q-12 0 -20 9t-6 22l18 104q4 29 29 29zM1067 1434q10 0 18.5 -9.5t6.5 -21.5l-19 -121q-8 -29 -29 -29h-294l-140 -893q-4 -27 -28 -26h-158q-10 0 -18.5 9t-6.5 19l142 891h-289q-10 0 -18.5 9.5
t-6.5 21.5l21 121q4 29 26 29h793z" />
    <glyph glyph-name="U.ss04" horiz-adv-x="1198" 
d="M158 164h792q12 0 20.5 -9.5t6.5 -21.5l-16 -104q-4 -29 -27 -29h-797q-12 0 -20 9t-6 22l18 104q4 29 29 29zM1184 1434q29 0 24 -31l-94 -580q-41 -250 -163 -378t-359.5 -128t-331.5 135.5t-55 383.5l94 569q4 29 29 29h155q29 0 25 -31l-92 -557q-55 -348 188 -348
q131 0 204 90t101 270l90 547q4 29 27 29h158z" />
    <glyph glyph-name="V.ss04" horiz-adv-x="1163" 
d="M70 164h931q12 0 20.5 -9.5t6.5 -21.5l-16 -104q-4 -29 -29 -29h-934q-12 0 -20.5 9t-5.5 22l18 104q4 29 29 29zM1206 1434q12 0 19.5 -12.5t1.5 -24.5l-574 -1039q-12 -25 -32 -24h-105q-20 0 -27 26l-245 1045q-8 29 20 29h144q29 0 32 -31l168 -774l416 782
q14 23 35 23h147z" />
    <glyph glyph-name="W.ss04" horiz-adv-x="1548" 
d="M72 164h1314q12 0 20.5 -9.5t6.5 -21.5l-16 -104q-4 -29 -29 -29h-1319q-12 0 -20.5 9t-5.5 22l18 104q4 29 31 29zM1591 1434q14 0 20.5 -11.5t0.5 -25.5l-465 -1043q-8 -20 -25 -20h-106q-18 0 -23 22l-121 691l-337 -695q-10 -18 -27 -18h-105q-18 0 -24 26l-137 1039
q-6 35 26 35h148q20 0 24 -27l78 -725l350 731q12 20 29 21h57q18 0 23 -25l131 -729l309 733q8 20 29 21h145z" />
    <glyph glyph-name="X.ss04" horiz-adv-x="1132" 
d="M92 164h860q29 0 25 -31l-14 -104q-4 -29 -29 -29h-864q-29 0 -25 31l16 104q4 29 31 29zM987 334h-162q-23 0 -37 26l-170 363l-280 -369q-18 -20 -45 -20h-178q-12 0 -17.5 13t2.5 26l422 520l-231 504q-8 16 -2 26.5t18 10.5h164q25 0 35 -25l158 -354l274 358
q14 20 37 21h178q14 0 18.5 -14.5t-4.5 -28.5l-405 -498l244 -524q6 -12 -0.5 -23.5t-18.5 -11.5z" />
    <glyph glyph-name="Y.ss04" horiz-adv-x="1062" 
d="M70 164h831q12 0 20.5 -9.5t6.5 -21.5l-17 -104q-4 -29 -28 -29h-834q-12 0 -20.5 9t-5.5 22l18 104q4 29 29 29zM1106 1434q14 0 21.5 -14.5t-3.5 -28.5l-434 -615l-65 -416q-4 -27 -29 -26h-156q-12 0 -20 8t-6 20l67 418l-237 619q-10 35 18 35h158q27 0 37 -29
l157 -418l291 422q18 25 43 25h158z" />
    <glyph glyph-name="Z.ss04" horiz-adv-x="1034" 
d="M86 164h772q10 0 18.5 -9.5t6.5 -21.5l-15 -104q-4 -29 -28 -29h-777q-10 0 -18 9t-6 22l18 104q4 29 29 29zM301 1253q-10 0 -18.5 9.5t-6.5 19.5l23 125q4 27 27 27h737q14 0 20.5 -17.5t-4.5 -32.5l-659 -870h498q10 0 17 -9t5 -20l-20 -125q-4 -27 -27 -26h-778
q-16 0 -22.5 14t3.5 27l662 878h-457z" />
    <glyph glyph-name="B.ss05" horiz-adv-x="1128" 
d="M137 164h781q12 0 20 -9.5t6 -21.5l-16 -104q-4 -29 -29 -29h-784q-29 0 -25 31l19 104q4 29 28 29zM657 487q152 0 179 166q20 154 -103 154h-301l-51 -320h276zM760 1280h-254l-51 -319h254q131 0 157 167q14 84 -12 118t-94 34zM709 334h-541q-12 0 -19.5 9t-5.5 19
l166 1043q4 29 27 29h516q121 0 185.5 -78t39.5 -240t-145 -227q141 -62 106 -271q-18 -131 -101 -207.5t-228 -76.5z" />
    <glyph glyph-name="C.ss05" horiz-adv-x="1093" 
d="M135 164h739q10 0 18.5 -9.5t6.5 -21.5l-16 -104q-4 -29 -27 -29h-743q-10 0 -18.5 9t-6.5 22l18 104q4 29 29 29zM569 317q-217 0 -322.5 145.5t-60.5 430.5t190.5 421t344.5 136q158 0 252 -89t102 -251q0 -31 -20 -33l-131 -22q-31 -4 -33 24q-4 86 -49 138.5
t-125 52.5q-123 0 -208 -101.5t-114 -288t19.5 -284.5t171.5 -98q88 0 152.5 55t97.5 149q6 16 32 11l127 -27q25 -6 15 -37q-47 -160 -166 -246t-275 -86z" />
    <glyph glyph-name="D.ss05" horiz-adv-x="1150" 
d="M137 164h795q12 0 20.5 -9.5t5.5 -21.5l-16 -104q-4 -29 -27 -29h-798q-12 0 -20.5 9t-6.5 22l19 104q4 29 28 29zM776 1253h-282l-117 -739h274q182 0 223 264l37 232q18 127 -11.5 185t-123.5 58zM817 1434q184 0 259 -106.5t38 -342.5l-31 -207q-37 -236 -141 -340
t-289 -104h-485q-10 0 -18.5 9t-6.5 19l166 1043q4 29 27 29h481z" />
    <glyph glyph-name="E.ss05" horiz-adv-x="1024" 
d="M139 164h709q29 0 24 -31l-14 -104q-4 -29 -29 -29h-712q-12 0 -20.5 9t-6.5 22l21 104q4 29 28 29zM905 514q10 0 18.5 -9t6.5 -22l-19 -123q-4 -27 -28 -26h-715q-10 0 -18.5 9t-6.5 19l166 1043q4 29 27 29h715q10 0 18 -9.5t6 -21.5l-18 -121q-4 -29 -29 -29h-534
l-45 -288h294q10 0 18.5 -8.5t6.5 -20.5l-16 -107q-4 -27 -27 -26h-301l-45 -289h526z" />
    <glyph glyph-name="F.ss05" horiz-adv-x="1046" 
d="M139 164h729q12 0 20.5 -9.5t6.5 -21.5l-16 -104q-4 -29 -27 -29h-735q-12 0 -20.5 9t-6.5 22l21 104q4 29 28 29zM1069 1434q12 0 20.5 -9.5t6.5 -21.5l-19 -121q-4 -29 -28 -29h-555l-50 -325h301q10 0 18.5 -9.5t6.5 -19.5l-18 -123q-4 -27 -29 -26h-309l-60 -390
q-4 -27 -26 -26h-160q-12 0 -19.5 9t-5.5 19l166 1043q4 29 27 29h733z" />
    <glyph glyph-name="G.ss05" horiz-adv-x="1148" 
d="M135 164h795q12 0 20 -9.5t6 -21.5l-16 -104q-4 -29 -29 -29h-798q-10 0 -18.5 9t-6.5 22l18 104q4 29 29 29zM1047 895q10 0 19 -9t7 -22l-80 -504q-4 -27 -26 -26h-86q-23 0 -23 24l8 105q-100 -145 -306 -145.5t-313.5 143t-62.5 430.5t191.5 423t338 136t284 -97.5
t92.5 -230.5q0 -31 -21 -32l-135 -23q-27 -4 -31 23q0 70 -38 125t-132 55q-135 0 -222 -106.5t-117 -287t18.5 -279.5t166.5 -99t191.5 62.5t93.5 182.5l-153 -2q-31 0 -27 31l14 94q4 29 31 29h318z" />
    <glyph glyph-name="I.ss05" horiz-adv-x="667" 
d="M119 164h344q12 0 19 -8.5t5 -20.5l-18 -106q-4 -29 -29 -29h-344q-12 0 -20 8t-6 21l18 106q4 29 31 29zM637 1253h-68l-116 -739h63q12 0 20.5 -8t6.5 -21l-19 -123q-4 -29 -30 -28h-344q-12 0 -20.5 8t-6.5 20l20 125q4 27 29 27h70l116 739h-65q-29 0 -25 29l21 125
q4 27 28 27h345q12 0 20 -8.5t6 -20.5l-20 -123q-4 -29 -31 -29z" />
    <glyph glyph-name="M.ss05" horiz-adv-x="1333" 
d="M137 164h969q12 0 20.5 -9.5t6.5 -21.5l-17 -104q-4 -29 -29 -29h-970q-12 0 -20.5 9t-6.5 22l19 104q4 29 28 29zM1169 1434h142q27 0 22 -31l-164 -1043q-4 -27 -26 -26h-160q-10 0 -18.5 8t-6.5 20l113 709l-330 -475q-18 -20 -32 -21h-25q-18 0 -29 27l-188 469
l-115 -711q-4 -27 -26 -26h-160q-10 0 -18.5 8t-6.5 20l168 1049q2 23 17 23h145q25 0 39 -33l227 -541l393 551q16 23 39 23z" />
    <glyph glyph-name="N.ss05" horiz-adv-x="1185" 
d="M137 164h821q12 0 20.5 -9.5t6.5 -21.5l-16 -104q-4 -29 -29 -29h-823q-12 0 -20.5 9t-6.5 22l21 104q4 29 26 29zM1161 1434q29 0 25 -31l-164 -1043q-4 -27 -29 -26h-127q-23 0 -35 26l-364 721l-115 -721q-4 -27 -24 -26h-160q-12 0 -20.5 8t-6.5 20l168 1043
q4 29 27 29h133q20 0 35 -31l358 -713l115 715q4 29 27 29h157z" />
    <glyph glyph-name="O.ss05" horiz-adv-x="1181" 
d="M139 164h817q12 0 20.5 -9.5t6.5 -21.5l-16 -104q-4 -29 -29 -29h-819q-12 0 -20.5 9t-6.5 22l19 104q4 29 28 29zM595 498q130 0 219 107.5t118 285.5t-20.5 278.5t-180.5 100.5t-219 -107.5t-117 -287t20.5 -278.5t179.5 -99zM579 317q-220 0 -330 143.5t-64 431.5
t194.5 423t367.5 135t329 -144.5t65 -431.5t-193.5 -422t-368.5 -135z" />
    <glyph glyph-name="P.ss05" horiz-adv-x="1071" 
d="M137 164h717q29 0 25 -31l-17 -104q-4 -29 -26 -29h-721q-10 0 -18.5 9t-6.5 22l19 104q4 29 28 29zM647 862q174 0 209 207q29 188 -137 188h-225l-62 -395h215zM682 686h-279l-51 -326q-4 -27 -26 -26h-160q-29 0 -25 28l166 1043q4 29 29 29h463q141 0 218 -88
t46 -291t-137.5 -286t-243.5 -83z" />
    <glyph glyph-name="Q.ss05" horiz-adv-x="1181" 
d="M956 164q12 0 20.5 -9.5t6.5 -21.5l-16 -104q-4 -29 -29 -29h-819q-12 0 -20.5 9t-6.5 22l19 104q4 29 28 29h817zM595 498q130 0 219 107.5t118 285.5t-20.5 278.5t-180.5 100.5t-219 -108t-117 -287t20.5 -278t179.5 -99zM747 1450q219 0 329 -144.5t65 -435.5
q-37 -244 -164 -387l72 -82q18 -20 -5 -43l-86 -75q-23 -20 -45 6l-73 86q-113 -57 -254 -58q-227 0 -337 143.5t-64 431.5t194.5 423t367.5 135z" />
    <glyph glyph-name="R.ss05" horiz-adv-x="1089" 
d="M137 164h758q10 0 18.5 -9.5t6.5 -21.5l-17 -104q-4 -29 -26 -29h-762q-10 0 -18.5 9t-6.5 22l19 104q6 29 28 29zM690 897q63 0 108.5 47t60.5 140t-16.5 133t-113.5 40h-233l-58 -360h252zM168 334q-29 0 -25 28l166 1043q4 29 29 29h450q338 0 279 -367
q-18 -119 -77.5 -194.5t-137.5 -108.5q98 -133 98 -389q0 -41 -26 -41h-154q-23 0 -22 28q6 236 -97 363l-239 -2l-60 -363q-4 -27 -26 -26h-158z" />
    <glyph glyph-name="U.ss05" horiz-adv-x="1140" 
d="M174 164h711q10 0 18 -9.5t6 -21.5l-14 -104q-4 -29 -29 -29h-712q-12 0 -20.5 9t-6.5 22l18 104q4 29 29 29zM1116 1434q10 0 18.5 -9.5t6.5 -21.5l-111 -705q-31 -188 -128 -280t-298 -92h-92q-377 0 -315 385l110 694q4 29 27 29h158q29 0 24 -31l-108 -684
q-33 -215 112 -215h113q72 0 123 56t69 171l107 674q4 29 26 29h158z" />
    <glyph glyph-name="W.ss05" horiz-adv-x="1579" 
d="M76 164h1333q12 0 20.5 -9.5t6.5 -21.5l-17 -104q-4 -29 -28 -29h-1336q-12 0 -20 9t-6 22l18 104q6 29 29 29zM1614 1434q14 0 21 -13.5t-1 -29.5l-506 -1033q-10 -25 -30 -24h-97q-18 0 -22 26l-94 664l-301 -668q-10 -23 -31 -22h-96q-16 0 -23 26l-186 1039
q-6 35 26 35h148q16 0 24 -27l111 -723l320 725q10 25 26 25h78q23 0 23 -27l90 -723l342 725q14 25 32 25h146z" />
    <glyph glyph-name="i.loclTRK" horiz-adv-x="454" 
d="M86 0q-10 0 -19.5 9t-7.5 22l127 807q4 29 31 28h152q12 0 20 -9t6 -21l-129 -807q-4 -29 -28 -29h-152zM342 1083q-41 0 -68.5 34t-20.5 74t36.5 64.5t70.5 24.5t68 -34t19.5 -75t-36 -64.5t-69.5 -23.5z" />
    <glyph glyph-name="ae.ss01" horiz-adv-x="1445" 
d="M444.5 438q-77.5 0 -127 -46t-61.5 -117t20.5 -116.5t113.5 -45.5t131.5 57t59.5 124t-25 105.5t-111.5 38.5zM1044 741q-90 0 -150 -64.5t-81 -168.5l361 2q31 231 -130 231zM1069 883q172 0 249 -125t40 -367q-4 -25 -35 -24l-526 -2q-6 -225 170 -226q100 0 196 86
q25 18 45 -6l49 -84q16 -20 -4 -41q-104 -111 -298 -110.5t-289 131.5q-117 -131 -328 -131q-168 0 -234.5 90t-45.5 215t110.5 194.5t229 69.5t210.5 -68l13 72q14 86 -16 129t-129 43t-206 -51q-29 -8 -37 20l-10 90q-2 25 19 35q115 59 270 60q213 0 258 -117
q127 117 299 117z" />
    <glyph glyph-name="b.ss01" horiz-adv-x="983" 
d="M449 145q94 0 161.5 79t88.5 210t-14.5 209t-129.5 78q-182 0 -231 -288t125 -288zM598 883q180 0 256 -134.5t44 -327.5t-140.5 -315t-282.5 -122q-141 0 -221 116l-29 -67q-16 -33 -37 -33h-102q-12 0 -20.5 9t-6.5 22l220 1390q4 29 28 29h156q10 0 18 -9t6 -22
l-100 -635q90 99 211 99z" />
    <glyph glyph-name="c.ss01" horiz-adv-x="923" 
d="M414 -16q-188 0 -275.5 130t-55.5 329.5t153.5 319.5t302.5 120q145 0 222 -80t81 -203q4 -27 -19 -29l-114 -18q-31 -2 -31 20q-14 111 -66 135q-28 14 -73 13q-213 0 -258 -303q-43 -272 151 -273q137 0 197 146q8 23 30 20l119 -20q25 -6 15 -39q-29 -104 -129 -186
t-250 -82z" />
    <glyph glyph-name="cacute.ss01" horiz-adv-x="923" 
d="M414 -16q-188 0 -275.5 130t-55.5 329.5t153.5 319.5t302.5 120q145 0 222 -80t81 -203q4 -27 -19 -29l-114 -18q-31 -2 -31 20q-14 111 -66 135q-28 14 -73 13q-213 0 -258 -303q-43 -272 151 -273q137 0 197 146q8 23 30 20l119 -20q25 -6 15 -39q-29 -104 -129 -186
t-250 -82zM451 989q-25 -16 -37 6l-19 31q-14 20 6 41l293 276q12 10 25.5 7.5t19.5 -15.5l49 -86q16 -25 -6 -41z" />
    <glyph glyph-name="ccaron.ss01" horiz-adv-x="923" 
d="M414 -16q-188 0 -275.5 130t-55.5 329.5t153.5 319.5t302.5 120q145 0 222 -80t81 -203q4 -27 -19 -29l-114 -18q-31 -2 -31 20q-14 111 -66 135q-28 14 -73 13q-213 0 -258 -303q-43 -272 151 -273q137 0 197 146q8 23 30 20l119 -20q25 -6 15 -39q-29 -104 -129 -186
t-250 -82zM563 1020h-14q-20 0 -45 31l-125 168q-20 25 -19 47l5 32q2 14 16 16.5t27 -11.5l161 -164l215 168q20 14 31.5 6t7.5 -25l-4 -28q-6 -27 -22 -43l-189 -177q-20 -20 -45 -20z" />
    <glyph glyph-name="ccedilla.ss01" horiz-adv-x="923" 
d="M539 721q-213 0 -258 -303q-43 -272 151 -273q137 0 197 146q8 23 30 20l119 -20q25 -6 15 -39q-27 -98 -121 -180t-236 -88l-47 -72q80 10 123 -34t31 -120t-61.5 -116.5t-119.5 -40.5t-106.5 27.5t-44.5 56.5q-8 14 6 20l41 27q14 10 32 -13.5t52 -23.5q80 0 92 82
q8 43 -20.5 55t-51.5 -3t-43 -7l-55 20q-20 6 -10 23l76 127q-145 29 -210 153.5t-35 311t151.5 306.5t302.5 120q145 0 222 -80t81 -203q4 -27 -19 -29l-114 -18q-31 -2 -31 20q-14 111 -66 135q-28 14 -73 13z" />
    <glyph glyph-name="cdotaccent.ss01" horiz-adv-x="923" 
d="M414 -16q-188 0 -275.5 130t-55.5 329.5t153.5 319.5t302.5 120q145 0 222 -80t81 -203q4 -27 -19 -29l-114 -18q-31 -2 -31 20q-14 111 -66 135q-28 14 -73 13q-213 0 -258 -303q-43 -272 151 -273q137 0 197 146q8 23 30 20l119 -20q25 -6 15 -39q-29 -104 -129 -186
t-250 -82zM564 1059q-38 0 -62.5 30.5t-18.5 66.5t33 58.5t65 22.5t62.5 -30.5t17 -67.5t-33 -58.5t-63.5 -21.5z" />
    <glyph glyph-name="d.ss01" horiz-adv-x="980" 
d="M432 145q180 0 226 288t-123 288q-102 0 -168 -87t-86 -213t15.5 -201t135.5 -75zM989 1450q29 0 25 -31l-219 -1390q-4 -29 -29 -29h-92q-27 0 -33 35l-10 51q-106 -102 -246 -102q-182 0 -258 131t-44 327t143.5 318.5t283.5 122.5q125 0 195 -90l102 628q4 29 29 29
h153z" />
    <glyph glyph-name="dcaron.ss01" horiz-adv-x="1251" 
d="M432 145q180 0 226 288t-123 288q-102 0 -168 -87t-86 -213t15.5 -201t135.5 -75zM1194 1434h168q35 0 28 -33t-15.5 -94.5t-10.5 -73.5q-14 -90 -86 -166t-176 -129q-16 -8 -24.5 12.5t7.5 28.5q158 96 179 227l-107 37q-25 10 -22 33l22 127q2 31 37 31zM989 1450
q29 0 25 -31l-219 -1390q-4 -29 -29 -29h-92q-27 0 -33 35l-10 51q-106 -102 -246 -102q-182 0 -258 131t-44 327.5t143.5 318.5t283.5 122q125 0 195 -90l102 628q4 29 29 29h153z" />
    <glyph glyph-name="dcroat.ss01" horiz-adv-x="1058" 
d="M535 721q-102 0 -168 -87t-86 -213t15.5 -201t135.5 -75q180 0 226 288t-123 288zM1102 1239q33 0 28 -31l-12 -73q-4 -31 -33 -31h-120l-170 -1075q-4 -29 -29 -29h-92q-27 0 -33 35l-10 51q-106 -102 -246 -102q-182 0 -258 131t-44 327.5t143.5 318.5t283.5 122
q125 0 195 -90l51 311h-115q-33 0 -29 33l13 73q4 29 32 29h121l29 182q4 29 29 29h153q29 0 25 -31l-29 -180h117z" />
    </font>
</defs>
</svg>
