<?xml version="1.0" standalone="no"?>
<!DOCTYPE svg PUBLIC "-//W3C//DTD SVG 1.1//EN" "http://www.w3.org/Graphics/SVG/1.1/DTD/svg11.dtd" >
<svg xmlns="http://www.w3.org/2000/svg">
<metadata>
Created by FontPrep 20130207 at Tue Apr  4 15:34:32 2017
 By Tina Muller
Copyright 2016 by Paulo Goode. All rights reserved.
</metadata>
<defs>
<font id="899d2cbf1b9ce991b195667e08459910" horiz-adv-x='1024' >
  <font-face 
    font-family="WoodfordBournePRO-ExtraLightItalic"
    font-weight="200"
    font-style="italic"
    font-stretch="normal"
    units-per-em="2048"
    panose-1="0 0 3 0 0 0 0 0 0 0"
    ascent="1638"
    descent="-410"
    x-height="866"
    cap-height="1434"
    bbox="-1469.17 -584 4513 1886"
    underline-thickness="102"
    underline-position="-102"
    slope="-9"
    unicode-range="U+0020-FB02"
  />
<missing-glyph horiz-adv-x="1585" 
d="M899 690l197 -235q18 -29 -2 -49l-19 -15q-25 -25 -45 2l-203 236l-272 -236q-25 -20 -45 0l-18 21q-18 23 6 47l274 233l-197 238q-20 25 3 47l18 16q25 20 45 -4l203 -235l270 237q25 20 47 -2l17 -18q20 -25 -4 -49zM1090 -248h159l289 1817h-156q-31 0 -24 26l8 52
q4 23 27 22h235q12 0 22 -10t7 -23l-309 -1955q-4 -29 -33 -29h-238q-31 0 -24 26l8 52q4 22 29 22zM651 1569h-159l-289 -1817h155q31 0 25 -26l-8 -52q-4 -23 -27 -22h-235q-12 0 -22 10q-9 10 -7 23l309 1955q4 29 33 29h238q31 0 24 -27l-8 -51q-4 -22 -29 -22z" />
    <glyph glyph-name="fi" unicode="fi" horiz-adv-x="962" 
d="M692 1450q147 0 234 -82q25 -18 8 -39l-31 -35q-18 -16 -35 0q-70 66 -170 66q-213 0 -254 -254l-36 -240h452q12 0 20 -10t7 -22l-127 -807q-6 -27 -29 -27h-51q-29 0 -25 31l117 745h-381l-149 -950q-4 -27 -27 -27h-55q-10 1 -18 11t-5 20l150 946h-107q-10 0 -17 9
t-5 20l6 37q4 25 29 24h110l39 258q51 326 350 326z" />
    <glyph glyph-name="fl" unicode="fl" horiz-adv-x="960" 
d="M952 1450q12 0 20 -9t5 -20l-221 -1396q-4 -25 -27 -25h-51q-10 0 -19 9q-8 9 -6 20l170 1069q12 119 -21 175q-34 56 -140 56q-106 1 -156 -67q-49 -68 -72 -222l-26 -174h231q12 0 20 -10t7 -22l-4 -29q-6 -29 -35 -29h-236l-149 -950q-4 -27 -27 -27h-55q-10 1 -18 11
t-5 20l150 946h-107q-10 0 -17 9t-5 20l6 37q4 25 29 24h110l31 209q29 172 103 257q75 85 219 85t202 -90l16 98q4 25 29 25h49z" />
    <glyph glyph-name="f_f" unicode="ff" horiz-adv-x="1253" 
d="M788 866l33 219q10 119 -25 170q-36 51 -140 51t-152 -65q-49 -66 -74 -219l-22 -156h380zM1120 1360q-80 0 -124 -60t-66 -194l-37 -240h211q10 0 17 -9t5 -19l-6 -37q-4 -25 -28 -25h-215l-150 -950q-4 -27 -27 -27h-53q-12 -1 -19 9t-5 22l149 946h-381l-149 -950
q-4 -27 -27 -27h-53q-12 -1 -20 9t-5 22l150 946h-107q-10 0 -17 9t-5 20l6 37q4 25 29 24h110l29 193q29 170 104 254q76 84 232 84t209 -101q70 154 243 154q113 0 185 -57q27 -20 14 -41l-23 -29q-20 -20 -39 -6q-57 43 -137 43z" />
    <glyph glyph-name="f_f_i" unicode="ffi" horiz-adv-x="1447" 
d="M788 866l31 209q12 123 -22 177q-35 54 -139 54t-154 -65q-49 -66 -74 -219l-22 -156h380zM1184 1360q-213 0 -254 -254l-37 -240h453q12 0 20 -10t6 -22l-127 -807q-6 -27 -28 -27h-52q-29 0 -24 31l116 745h-380l-150 -950q-4 -27 -27 -27h-55q-10 1 -17 11t-5 20
l149 946h-381l-149 -950q-4 -27 -27 -27h-53q-12 -1 -20 9t-5 22l150 946h-107q-10 0 -17 9t-5 20l6 37q4 25 29 24h110l29 193q29 170 104 254q76 84 235 84t208 -109q88 162 299 162q147 0 233 -82q25 -18 8 -39l-30 -35q-16 -16 -35 0q-70 66 -170 66z" />
    <glyph glyph-name="f_f_l" unicode="ffl" horiz-adv-x="1445" 
d="M788 866l31 209v6l2 4q10 119 -25 170q-36 51 -140 51t-152 -65q-49 -66 -74 -219l-22 -156h380zM1438 1450q12 0 20 -9t4 -20l-221 -1396q-4 -25 -27 -25h-51q-10 0 -18 9t-6 20l170 1069q12 119 -22 175q-35 56 -141 56q-106 1 -155 -67t-71 -222l-27 -174h231
q12 0 20 -10t7 -22l-4 -29q-8 -29 -35 -29h-235l-150 -950q-4 -27 -27 -27h-55q-10 1 -17 11t-5 20l149 946h-381l-149 -950q-4 -27 -27 -27h-53q-12 -1 -20 9t-5 22l150 946h-107q-10 0 -17 9t-5 20l6 37q4 25 29 24h110l29 193q29 170 104 254q76 84 238 84t209 -117
q80 137 270 137q131 0 190 -90l17 98q4 25 29 25h49z" />
    <glyph glyph-name=".notdef" horiz-adv-x="1585" 
d="M899 690l197 -235q18 -29 -2 -49l-19 -15q-25 -25 -45 2l-203 236l-272 -236q-25 -20 -45 0l-18 21q-18 23 6 47l274 233l-197 238q-20 25 3 47l18 16q25 20 45 -4l203 -235l270 237q25 20 47 -2l17 -18q20 -25 -4 -49zM1090 -248h159l289 1817h-156q-31 0 -24 26l8 52
q4 23 27 22h235q12 0 22 -10t7 -23l-309 -1955q-4 -29 -33 -29h-238q-31 0 -24 26l8 52q4 22 29 22zM651 1569h-159l-289 -1817h155q31 0 25 -26l-8 -52q-4 -23 -27 -22h-235q-12 0 -22 10q-9 10 -7 23l309 1955q4 29 33 29h238q31 0 24 -27l-8 -51q-4 -22 -29 -22z" />
    <glyph glyph-name=".null" 
 />
    <glyph glyph-name="nonmarkingreturn" horiz-adv-x="681" 
 />
    <glyph glyph-name="space" unicode=" " horiz-adv-x="464" 
 />
    <glyph glyph-name="exclam" unicode="!" horiz-adv-x="548" 
d="M209 -16q-35 0 -55 22t-14 54q6 30 29 50q25 20 55 21q30 0 50 -25t15 -57q-14 -65 -80 -65zM242 313q-27 0 -23 33l146 1075q2 29 32 29h70q35 0 29 -33l-195 -1075q-6 -29 -31 -29h-28z" />
    <glyph glyph-name="quotedbl" unicode="&#x22;" horiz-adv-x="735" 
d="M580 920q-29 0 -25 32l41 514q6 29 29 29h96q31 0 24 -33l-120 -512q-6 -31 -31 -30h-14zM301 920q-29 0 -25 32l41 514q6 29 29 29h96q31 0 25 -33l-121 -512q-6 -31 -31 -30h-14z" />
    <glyph glyph-name="numbersign" unicode="#" horiz-adv-x="1419" 
d="M915 543l74 444h-375l-75 -444h376zM1284 1079q31 0 31 -30v-31q0 -31 -31 -31h-188l-74 -444h164q31 0 31 -31v-31q0 -31 -35 -30h-181l-69 -420q-6 -31 -37 -31h-39q-35 0 -27 45l68 406h-377l-69 -420q-6 -31 -37 -31h-39q-35 0 -27 45l66 406h-174q-31 0 -31 30v31
q0 31 35 31h190l74 444h-166q-35 0 -35 31v31q0 31 35 30h182l56 340q6 31 36 31h52q27 0 18 -37l-55 -334h375l55 340q6 31 37 31h51q27 0 18 -37l-55 -334h172z" />
    <glyph glyph-name="dollar" unicode="$" horiz-adv-x="1165" 
d="M782 163q81 67 101 172.5t-33 178t-172 141.5l-90 -569q113 10 194 77zM485 1274q-78 -66 -94 -166t35 -162.5t174 -130.5l84 533q-121 -8 -199 -74zM520 -156h-41q-12 0 -21 9.5t-7 21.5l18 115q-233 27 -342 182q-16 23 0 35l47 41q16 16 33 -2q39 -55 113.5 -99.5
t162.5 -58.5l99 621q-178 98 -232 153q-94 94 -72.5 241t135 243t287.5 104l17 106q6 33 33 33h41q14 0 22 -11t6 -26l-16 -108q102 -14 179 -59.5t112 -100.5q12 -20 -7 -31l-45 -36q-18 -10 -30 6q-96 102 -226 123l-92 -582q133 -68 171 -102.5t64.5 -63.5t38 -54.5
t26 -61.5t10 -71.5t-8.5 -82.5q-29 -150 -139.5 -244t-284.5 -100l-18 -113q-4 -27 -33 -27z" />
    <glyph glyph-name="percent" unicode="%" horiz-adv-x="1714" 
d="M1274 72q190 0 250 387q14 100 16 183t-32 135t-108 52t-127 -57q-54 -57 -80 -135t-46 -191q-57 -374 127 -374zM1266 -16q-143 0 -197 110q-53 111 -13 361t124 356q84 107 227 107t197 -112t13 -360q-40 -248 -124 -355t-227 -107zM406 604q190 0 249 387
q15 99 17 183t-32 136t-108 52t-128 -57t-80 -135t-45 -191q-57 -375 127 -375zM483 0q-18 0 -22 15t4 30l790 1360q16 29 39 29h47q15 0 19 -12t-6 -27l-795 -1366q-14 -29 -41 -29h-35zM397 516q-143 0 -196 111t-13 361t123 355q83 107 227 107t197 -112t13 -360
t-124 -354q-84 -108 -227 -108z" />
    <glyph glyph-name="ampersand" unicode="&#x26;" horiz-adv-x="1386" 
d="M471 82q96 0 173 57t185 174q-197 225 -305 404q-112 -72 -182 -149q-70 -76 -90 -204t51 -205q72 -77 168 -77zM708 1358q-71 0 -129 -52t-73 -149q-23 -137 61 -303q129 82 195 152t81 164t-25 140q-40 48 -110 48zM723 1450q121 0 182 -79t41 -212t-124 -231
q-74 -70 -208 -156q96 -166 289 -379q113 123 281 250q27 16 43 -6l22 -35q14 -25 -6 -43q-100 -68 -272 -240q71 -87 231 -239q25 -20 4 -37l-37 -33q-20 -18 -44 1q-25 19 -109 103t-121 128q-158 -187 -293 -235q-68 -24 -141 -23q-160 0 -252 106t-64 293q19 123 95 217
t237 201q-102 203 -79 345q24 142 114 223t211 81z" />
    <glyph glyph-name="quotesingle" unicode="'" horiz-adv-x="456" 
d="M301 920q-29 0 -25 32l41 514q6 29 29 29h96q31 0 25 -33l-121 -512q-6 -31 -31 -30h-14z" />
    <glyph glyph-name="parenleft" unicode="(" horiz-adv-x="720" 
d="M426 -207q-8 -10 -19 -8t-18 12q-102 168 -144 413t-1 504t153 491q113 232 273 407q20 20 32 -4l31 -37q10 -25 -4 -41q-150 -168 -248 -397t-125 -431q-76 -473 107 -825q12 -27 4 -41z" />
    <glyph glyph-name="parenright" unicode=")" horiz-adv-x="720" 
d="M381 1608q8 10 19 8t18 -12q102 -168 144 -413t1 -504t-153 -491t-273 -407q-20 -20 -33 4l-30 37q-10 25 4 41q150 168 248 397t125 430q76 473 -107 826q-12 27 -4 41z" />
    <glyph glyph-name="asterisk" unicode="*" horiz-adv-x="796" 
d="M522 1450h60q25 0 18 -20l-59 -216l4 -4l209 86q18 6 24 -14l13 -55q8 -20 -15 -25l-225 -41l-2 -8l123 -162q10 -18 -8 -28l-54 -35q-20 -12 -28 10l-80 188h-4l-131 -196q-15 -16 -33 -2l-41 35q-18 16 -6 28l178 162l-2 10l-209 39q-20 6 -10 29l28 55q8 18 25 12
l188 -88l2 4l11 216q0 20 24 20z" />
    <glyph glyph-name="plus" unicode="+" horiz-adv-x="1112" 
d="M973 748q35 0 28 -33l-6 -31q-6 -29 -34 -29h-320l-49 -325q-6 -31 -37 -31h-37q-33 0 -26 35l51 321h-316q-35 0 -28 33l4 31q6 29 35 29h319l51 325q6 31 33 31h39q33 0 27 -35l-50 -321h316z" />
    <glyph glyph-name="comma" unicode="," horiz-adv-x="456" 
d="M248 109l-17 -109q-25 -143 -196 -209q-23 -8 -25 12q-4 23 17 31q119 51 133 150l-47 20q-16 6 -15 31l11 74q6 31 38 30h74q33 1 27 -30z" />
    <glyph glyph-name="hyphen" unicode="-" horiz-adv-x="862" 
d="M184 418q-10 0 -18 9t-6 19l4 37q4 25 29 25h493q10 0 20 -9t7 -20l-6 -35q-4 -27 -29 -26h-494z" />
    <glyph glyph-name="period" unicode="." horiz-adv-x="456" 
d="M125 0q-35 0 -29 33l13 73q6 33 36 33h72q35 0 29 -33l-13 -73q-6 -33 -36 -33h-72z" />
    <glyph glyph-name="slash" unicode="/" horiz-adv-x="583" 
d="M55 0h-32q-39 0 -23 35l575 1366q12 33 41 33h37q33 0 19 -35l-576 -1366q-10 -33 -41 -33z" />
    <glyph glyph-name="zero" unicode="0" horiz-adv-x="1183" 
d="M532 84q344 0 445 641q49 309 -6 467t-230 158q-341 0 -443 -633t234 -633zM526 -16q-459 0 -342 733t566 733q455 0 340 -739q-118 -727 -564 -727z" />
    <glyph glyph-name="one" unicode="1" horiz-adv-x="958" 
d="M670 1434q12 0 20 -10t6 -23l-207 -1303h265q12 0 21 -10t7 -22l-6 -39q-6 -27 -33 -27h-639q-12 0 -21 9t-7 22l6 39q4 29 33 28h264l190 1200l-243 -174q-12 -10 -28 -4q-15 6 -13 21l6 49q2 16 33 39l254 186q20 18 40 19h52z" />
    <glyph glyph-name="two" unicode="2" horiz-adv-x="1181" 
d="M938 100q12 0 21 -10t8 -22l-6 -41q-4 -27 -33 -27h-840q-31 0 -29 27l4 28q2 14 13 25l704 674q102 96 146 164q43 68 55 145q25 155 -48 221t-202 66q-264 0 -340 -248q-12 -20 -29 -21h-65q-27 0 -16 35q100 334 469 334h6q209 0 288 -114t52 -280q-27 -165 -168 -306
l-676 -650h686z" />
    <glyph glyph-name="three" unicode="3" horiz-adv-x="1210" 
d="M747 1450q208 0 305 -103t69 -281t-166 -270q-46 -31 -107 -59q236 -78 199 -344q-27 -184 -162 -297q-135 -112 -343 -112t-316 100t-87 246q6 20 29 20h57q27 0 23 -28q-10 -98 70 -168t232 -70q153 0 259 91q105 91 127 235t-73 211q-95 66 -271 65h-96q-12 0 -22 9
q-9 9 -7 22l8 41q4 29 31 28h94q154 0 270 73t138 208q20 135 -51 209t-218 74t-247 -71t-119 -173q-4 -20 -27 -21h-61q-27 0 -19 29q20 140 146 238t335 98z" />
    <glyph glyph-name="four" unicode="4" horiz-adv-x="1193" 
d="M254 426h532l134 838zM950 1434h74q12 0 20 -10t7 -23l-154 -975h127q12 0 20 -9t7 -20l-9 -45q-4 -27 -30 -26h-133l-48 -301q-4 -25 -26 -25h-57q-10 0 -19 9q-8 9 -6 20l45 297h-635q-12 0 -20 9t-7 21l7 39l6 17l796 1005q12 17 35 17z" />
    <glyph glyph-name="five" unicode="5" horiz-adv-x="1210" 
d="M551 -16q-209 0 -322 95t-90 236q4 35 31 35h63q23 0 19 -28q-14 -90 62 -164t241 -74q164 0 264 104t125 258q26 154 -34 244q-60 88 -160 104t-213 -16q-113 -31 -193 -100q-14 -8 -45 0l-51 12q-29 6 -19 33l215 684q10 27 33 27h635q10 0 18 -8t7 -19l-7 -51
q-4 -23 -28 -23h-570l-172 -530q145 99 324 100t291 -111q53 -54 75 -146t3 -212q-33 -194 -163 -322t-339 -128z" />
    <glyph glyph-name="six" unicode="6" horiz-adv-x="1173" 
d="M552 84q152 0 252 102q99 102 125 284q27 182 -55 267q-82 86 -210 86t-245 -90q-116 -90 -138 -262q-22 -171 49 -279q70 -108 222 -108zM678 920q190 0 290 -121t71 -334t-157 -347t-339 -134q-471 0 -361 714q57 380 210 566t368 186q120 0 196 -55q132 -95 125 -275
q0 -29 -26 -28h-51q-25 0 -27 26q-4 92 -58 162t-174 70q-161 0 -279 -156t-192 -524q138 250 404 250z" />
    <glyph glyph-name="seven" unicode="7" horiz-adv-x="985" 
d="M291 1333q-27 0 -23 27l8 49q4 25 25 25h721q25 0 34 -18t-3 -38l-789 -1362q-14 -16 -33 -16h-65q-16 0 -20 15q-3 15 8 28l751 1290h-614z" />
    <glyph glyph-name="eight" unicode="8" horiz-adv-x="1183" 
d="M538 84q140 0 254 81t134 219t-63 214t-222 107q-155 -29 -267 -108t-134 -219t68 -217t230 -77zM736 1350q-132 0 -222 -72t-111 -201q-37 -236 240 -286q299 53 340 288q20 125 -47 198q-68 73 -200 73zM746 1450q198 0 287 -104t63 -263q-24 -125 -104 -215t-189 -129
q117 -33 185 -131t45 -248t-157 -263t-346 -113t-319 116q-106 116 -80 285q23 133 120 229t224 131q-96 39 -148 129q-53 90 -31 234t137 243t313 99z" />
    <glyph glyph-name="nine" unicode="9" horiz-adv-x="1163" 
d="M730 1352q-154 0 -259 -102q-106 -102 -134 -272t44 -266t210 -96t254 72q117 72 147 260t-39 296t-223 108zM506 -16q-82 0 -144 26q-107 45 -154 150q-36 76 -30 153q2 31 27 31h59q20 0 25 -29q0 -79 53 -155t174 -76q180 0 281 152q100 152 157 454
q-113 -172 -370 -172q-211 0 -301 127q-89 127 -57 339t169 339t353 127t303 -147q88 -147 51 -385q-59 -362 -137 -566t-186 -286t-273 -82z" />
    <glyph glyph-name="colon" unicode=":" horiz-adv-x="540" 
d="M166 0q-35 0 -29 33l13 73q6 33 36 33h72q35 0 29 -33l-13 -73q-6 -33 -36 -33h-72zM262 600q-35 0 -29 33l13 74q6 33 37 32h71q35 0 29 -32l-12 -74q-6 -33 -37 -33h-72z" />
    <glyph glyph-name="semicolon" unicode=";" horiz-adv-x="540" 
d="M289 109l-17 -109q-25 -143 -196 -209q-23 -8 -25 12q-4 23 17 31q119 51 133 150l-47 20q-16 6 -15 31l11 74q6 31 38 30h74q33 1 27 -30zM262 600q-35 0 -29 33l13 74q6 33 37 32h71q35 0 29 -32l-12 -74q-6 -33 -37 -33h-72z" />
    <glyph glyph-name="less" unicode="&#x3c;" horiz-adv-x="1224" 
d="M365 702l682 -253q31 -10 16 -37l-19 -39q-10 -20 -43 -8l-780 297q-23 10 -22 28q4 8 5 26t25 27l869 336q27 10 35 -12l12 -35q8 -23 -23 -35z" />
    <glyph glyph-name="equal" unicode="=" horiz-adv-x="1124" 
d="M197 489q-11 -1 -19 9t-6 20l4 37q4 25 29 25h756q10 0 18 -10t6 -19l-4 -35q-4 -27 -29 -27h-755zM250 825q-10 -1 -18 9t-7 20l4 37q4 25 29 24h756q10 0 18 -9t6 -19l-4 -35q-4 -27 -28 -27h-756z" />
    <glyph glyph-name="greater" unicode="&#x3e;" horiz-adv-x="1224" 
d="M946 702l-682 254q-31 10 -16 37l18 39q10 20 43 8l781 -297q23 -10 22 -28q-4 -9 -5 -27t-26 -26l-868 -336q-27 -10 -35 12l-12 35q-8 23 22 35z" />
    <glyph glyph-name="question" unicode="?" horiz-adv-x="1021" 
d="M373 -16q-31 0 -50 24t-14 53q10 61 78 62q31 0 49 -23t15 -53q-15 -63 -78 -63zM670 1450q206 0 284 -105t56 -251q-14 -85 -66 -170q-30 -55 -136 -145q-105 -89 -110 -91q-86 -72 -135 -142t-64 -115q-15 -44 -28 -116q-4 -27 -22 -26h-58q-25 0 -18 45
q27 213 221 387q26 23 98 86t103 94t66 90q36 59 46 119q19 116 -49 182t-203 66q-207 0 -321 -158q-12 -18 -31 -6l-45 14q-20 14 -4 39q55 91 166 147t250 56z" />
    <glyph glyph-name="at" unicode="@" horiz-adv-x="1671" 
d="M782 72q145 0 216 95t100 273q12 96 12 174t-51 128t-154 51q-145 1 -234 -95t-114 -263t27 -265t198 -98zM1239 -18q-162 0 -180 141q-105 -139 -295 -139t-266 130t-45 328t144 320q114 121 296 121t250 -113l16 47q14 35 35 35h41q25 0 20 -33l-96 -608q-8 -57 11 -98
t73 -41q111 0 133 153l99 621q12 80 -23 154t-121 75l-469 4q-231 0 -402 -177t-220 -478q-16 -143 -8 -215t47 -172q14 -37 -13 -37h-51q-39 0 -51 49q-59 176 -27 387q49 340 250 537t475 196l484 -4q135 -2 193 -101t40 -214l-102 -649q-19 -119 -79 -169t-159 -50z" />
    <glyph glyph-name="A" unicode="A" horiz-adv-x="1228" 
d="M338 434h557l-158 778zM778 1450q8 0 13 -14l299 -1397q4 -16 -6.5 -27.5t-24.5 -11.5h-49q-25 0 -25 23l-67 311h-637l-162 -314q-10 -20 -27 -20h-53q-14 0 -22.5 14.5t-0.5 30.5l732 1395q6 10 10 10h20z" />
    <glyph glyph-name="B" unicode="B" horiz-adv-x="1148" 
d="M569 100q293 0 342 295q41 274 -198 275h-402l-90 -570h348zM692 1333h-274l-92 -567h352q111 0 180.5 62.5t95.5 226.5q4 63 6.5 107t-16 76t-36.5 50q-44 44 -216 45zM598 0h-475q-10 0 -18.5 9t-6.5 20l219 1380q4 25 27 25h420q362 0 303 -387q-43 -250 -193 -320
q86 -29 127 -120t16.5 -246.5t-136 -258t-283.5 -102.5z" />
    <glyph glyph-name="C" unicode="C" horiz-adv-x="1415" 
d="M721 -16q-293 0 -449.5 216t-107.5 521t270 517t510 212t455 -236q14 -25 -4 -38l-41 -35q-29 -20 -45 8q-39 72 -140.5 136.5t-232.5 64.5q-246 0 -432.5 -187.5t-227.5 -448.5t83 -445.5t366 -184.5q133 0 255 63.5t208 159.5q16 16 39 0l33 -35q23 -23 0 -43
q-246 -245 -539 -245z" />
    <glyph glyph-name="D" unicode="D" horiz-adv-x="1249" 
d="M502 100q461 0 559 616.5t-356 616.5h-289l-197 -1233h283zM504 0h-381q-10 0 -18.5 9t-6.5 20l219 1380q4 25 27 25h387q276 0 388 -186.5t55 -538.5q-115 -709 -670 -709z" />
    <glyph glyph-name="E" unicode="E" horiz-adv-x="1015" 
d="M815 100q10 0 18.5 -8t6.5 -18l-9 -51q-4 -23 -26 -23h-682q-10 0 -18.5 9t-6.5 20l219 1380q4 25 27 25h682q10 0 18.5 -9.5t6.5 -19.5l-9 -51q-2 -20 -26 -21h-600l-90 -565h430q10 0 18 -8t6 -19l-8 -51q-4 -23 -29 -22h-434l-90 -568h596z" />
    <glyph glyph-name="F" unicode="F" horiz-adv-x="974" 
d="M1004 1434q10 0 18 -9.5t6 -19.5l-6 -47q-4 -25 -29 -25h-577l-99 -616h428q10 0 18.5 -8.5t6.5 -18.5l-8 -49q-4 -25 -29 -25h-432l-94 -591q-4 -25 -23 -25h-63q-10 0 -17.5 9t-5.5 20l219 1380q4 25 27 25h660z" />
    <glyph glyph-name="G" unicode="G" horiz-adv-x="1433" 
d="M1286 680q27 0 23 -27l-74 -469q-4 -18 -16 -28q-74 -74 -210.5 -123t-274.5 -49t-251.5 54t-193.5 148.5t-115 234.5t-10 302q51 317 284.5 522t501.5 205q224 0 381 -166q78 -82 55 -102l-47 -39q-23 -20 -38 4.5t-38.5 50t-67.5 64t-113.5 63.5t-147.5 25
q-233 0 -424 -190.5t-233 -447.5t88.5 -442.5t369.5 -185.5q123 0 232.5 42t165.5 105l55 351h-275q-29 0 -24 26l8 49q4 23 29 23h360z" />
    <glyph glyph-name="H" unicode="H" horiz-adv-x="1304" 
d="M1278 1434q25 0 20 -29l-219 -1380q-4 -25 -22 -25h-66q-25 0 -20 29l98 637h-760l-102 -643q-4 -23 -23 -23h-65q-25 0 -21 29l219 1380q4 25 23 25h66q25 0 20 -29l-100 -639h761l101 643q4 25 24 25h66z" />
    <glyph glyph-name="I" unicode="I" horiz-adv-x="436" 
d="M117 0q-23 0 -19 29l219 1380q4 25 23 25h68q25 0 20 -29l-219 -1380q-4 -25 -23 -25h-69z" />
    <glyph glyph-name="J" unicode="J" horiz-adv-x="845" 
d="M811 1434q12 0 20.5 -10.5t6.5 -24.5l-162 -1022q-31 -190 -114 -291.5t-243 -101.5q-223 0 -286 221q-10 29 6 37l51 22q23 10 33 -18q53 -160 199 -160q199 0 247 317l158 1000q4 31 29 31h55z" />
    <glyph glyph-name="K" unicode="K" horiz-adv-x="1110" 
d="M184 0h-65q-25 0 -21 29l219 1380q4 25 23 25h66q25 0 20 -29l-102 -643l690 647q27 25 53 25h76q10 0 14 -12.5t-4 -20.5l-731 -684l518 -690q8 -8 5 -17.5t-15 -9.5h-84q-18 0 -43 29l-492 651l-104 -657q-4 -23 -23 -23z" />
    <glyph glyph-name="L" unicode="L" horiz-adv-x="970" 
d="M793 100q10 0 17 -9t5 -19l-8 -47q-4 -25 -27 -25h-657q-10 0 -18.5 9t-6.5 20l217 1378q6 27 25 27h66q25 0 20 -31l-207 -1303h574z" />
    <glyph glyph-name="M" unicode="M" horiz-adv-x="1519" 
d="M1438 1434h53q25 0 20 -29l-219 -1382q-4 -23 -22 -23h-64q-27 0 -22 27l174 1106l-621 -1110q-14 -23 -22 -23h-23q-16 0 -22 29l-289 1104l-174 -1110q-4 -23 -25 -23h-63q-25 0 -21 27l219 1382q4 25 25 25h45q20 0 29 -33l309 -1208l676 1212q18 29 37 29z" />
    <glyph glyph-name="N" unicode="N" horiz-adv-x="1320" 
d="M1290 1434q10 0 17.5 -9.5t5.5 -19.5l-219 -1382q-4 -23 -25 -23h-47q-16 0 -33 29l-592 1192l-190 -1198q-4 -23 -23 -23h-65q-25 0 -21 27l219 1382q4 25 25 25h47q20 0 35 -33l590 -1186l190 1194q4 25 21 25h65z" />
    <glyph glyph-name="O" unicode="O" horiz-adv-x="1572" 
d="M726 84q249 0 432 189.5t224 446.5t-79.5 443.5t-369.5 186.5t-432.5 -191.5t-224.5 -448.5t80 -441.5t370 -184.5zM720 -16q-288 0 -446.5 214t-109.5 522t270 519t509 211t445.5 -216t108.5 -524t-269 -517t-508 -209z" />
    <glyph glyph-name="P" unicode="P" horiz-adv-x="1052" 
d="M559 631q307 0 367 354q29 172 -34 260t-208 88h-268l-113 -702h256zM584 530h-295l-82 -507q-4 -23 -23 -23h-65q-25 0 -21 27l219 1382q4 25 27 25h379q162 0 258 -113t58 -343t-167 -339t-288 -109z" />
    <glyph glyph-name="Q" unicode="Q" horiz-adv-x="1597" 
d="M726 84q249 0 432 189.5t224 446.5t-79.5 443.5t-369.5 186.5t-432.5 -191.5t-224.5 -448.5t80 -441.5t370 -184.5zM943 1450q288 0 445.5 -216t109.5 -519t-259 -512l160 -191q20 -20 -2 -41l-39 -34q-23 -18 -41 4l-160 192q-201 -150 -436 -149q-289 0 -447.5 214
t-109.5 522t270 519t509 211z" />
    <glyph glyph-name="R" unicode="R" horiz-adv-x="1122" 
d="M614 653q283 0 337 340t-203 340h-332l-109 -680h307zM901 0h-63q-18 0 -31 27l-164 526h-352l-84 -530q-4 -23 -25 -23h-61q-27 0 -23 27l219 1382q4 25 25 25h459q139 0 218 -115t46 -328q-57 -344 -313 -422l166 -542q8 -27 -17 -27z" />
    <glyph glyph-name="S" unicode="S" horiz-adv-x="1097" 
d="M518 -16q-135 0 -249.5 49t-176.5 139q-16 23 0 35l47 41q16 16 33 -2q45 -68 138 -115t211 -47t212 68q121 86 121 230q0 78 -39 131q-68 92 -248 185q-184 100 -237 150q-111 100 -88 254t143.5 251t302.5 97q129 0 227.5 -50t143.5 -116q12 -20 -6 -31l-45 -36
q-18 -10 -31 6q-117 127 -291 127q-135 0 -223 -66.5t-106.5 -176t45 -174.5t243.5 -159t236 -160q56 -67 64.5 -94.5t18.5 -68.5t-3 -123q-29 -152 -146 -248t-297 -96z" />
    <glyph glyph-name="T" unicode="T" horiz-adv-x="1126" 
d="M1155 1434q10 0 18.5 -9.5t6.5 -19.5l-6 -47q-4 -25 -29 -25h-383l-209 -1308q-4 -25 -25 -25h-61q-10 0 -17.5 9t-5.5 20l207 1304h-379q-10 0 -18 9.5t-6 19.5l8 47q4 25 27 25h872z" />
    <glyph glyph-name="U" unicode="U" horiz-adv-x="1329" 
d="M1303 1434q27 0 22 -31l-139 -840q-41 -260 -192.5 -419.5t-393.5 -159.5t-351.5 163.5t-70.5 421.5l139 838q6 27 31 27h58q27 0 22 -31l-137 -832q-35 -211 51 -349t267 -138t308 139t162 355l135 829q4 27 29 27h60z" />
    <glyph glyph-name="V" unicode="V" horiz-adv-x="1265" 
d="M1296 1434q12 0 20.5 -10.5t4.5 -22.5l-735 -1378q-12 -23 -29 -23h-20q-20 0 -25 25l-258 1382q-4 27 20 27h64q20 0 24 -31l220 -1190l622 1194q14 27 37 27h55z" />
    <glyph glyph-name="W" unicode="W" horiz-adv-x="1683" 
d="M1718 1434q12 0 18.5 -13.5t0.5 -29.5l-553 -1371q-8 -20 -23 -20h-24q-18 0 -23 23l-153 1151l-521 -1154q-8 -20 -22 -20h-25q-20 0 -20 23l-121 1372q-4 39 24 39h58q16 0 24 -23l88 -1147l517 1151q10 18 20 19h23q14 0 18 -25l158 -1139l454 1145q8 18 27 19h55z
" />
    <glyph glyph-name="X" unicode="X" horiz-adv-x="1218" 
d="M1018 0h-62q-27 0 -38 29l-271 610l-467 -616q-20 -23 -43 -23h-63q-12 0 -18.5 13.5t3.5 25.5l537 694l-295 666q-16 35 14 35h66q23 0 33 -25l256 -584l444 586q16 23 41 23h64q14 0 19 -12.5t-7 -28.5l-510 -664l311 -698q6 -10 2 -20.5t-16 -10.5z" />
    <glyph glyph-name="Y" unicode="Y" horiz-adv-x="1165" 
d="M1202 1434q12 0 18.5 -12.5t-3.5 -26.5l-568 -774l-96 -598q-4 -23 -25 -23h-61q-27 0 -23 27l95 594l-281 780q-14 33 12 33h64q27 0 35 -25l239 -676l494 678q16 23 41 23h59z" />
    <glyph glyph-name="Z" unicode="Z" horiz-adv-x="1126" 
d="M309 1333q-27 0 -22 27l8 51q4 23 24 23h822q16 0 21 -16.5t-7 -31.5l-930 -1286h699q27 0 22 -26l-8 -51q-4 -23 -25 -23h-831q-18 0 -25.5 15.5t2.5 29.5l930 1288h-680z" />
    <glyph glyph-name="bracketleft" unicode="[" horiz-adv-x="651" 
d="M647 1569h-160l-288 -1817h155q31 0 25 -26l-8 -52q-4 -23 -27 -22h-235q-12 0 -22 10q-9 10 -7 23l309 1955q4 29 33 29h237q31 0 25 -27l-8 -51q-4 -22 -29 -22z" />
    <glyph glyph-name="backslash" unicode="\" horiz-adv-x="1024" 
d="M838 0q-31 0 -41 33l-576 1366q-14 35 19 35h36q29 0 41 -33l576 -1366q16 -35 -23 -35h-32z" />
    <glyph glyph-name="bracketright" unicode="]" horiz-adv-x="651" 
d="M76 -248h160l288 1817h-155q-31 0 -25 26l8 52q4 23 27 22h235q12 0 22 -10t7 -23l-309 -1955q-4 -29 -33 -29h-238q-31 0 -24 26l8 52q4 22 29 22z" />
    <glyph glyph-name="asciicircum" unicode="^" horiz-adv-x="860" 
d="M799 1145h-19q-20 0 -32 33l-142 346l-256 -350q-16 -29 -39 -29h-20q-37 0 -10 45l276 420q18 29 35 28h53q18 0 31 -32l141 -420q14 -41 -18 -41z" />
    <glyph glyph-name="underscore" unicode="_" horiz-adv-x="1339" 
d="M78 -229q-25 0 -23 24l4 27q4 27 27 26h975q29 0 24 -26l-4 -27q-4 -25 -26 -24h-977z" />
    <glyph glyph-name="grave" unicode="`" horiz-adv-x="708" 
d="M649 1317l-299 219q-25 18 -4 45l23 37q20 31 45 6l270 -256q18 -23 8 -35l-6 -12q-14 -20 -37 -4z" />
    <glyph glyph-name="a" unicode="a" horiz-adv-x="991" 
d="M442 72q266 0 320 370q28 144 -12 258q-33 94 -186 94.5t-245 -109.5t-116.5 -260.5t31.5 -251.5t208 -101zM891 852q10 0 18.5 -10.5t5.5 -20.5l-127 -794q-4 -27 -26 -27h-33q-20 0 -24 35l4 94q-23 -49 -97.5 -96t-179.5 -49q-197 -6 -280.5 126t-54 320t151.5 320.5
t311 132.5t245 -113l16 51q14 31 33 31h37z" />
    <glyph glyph-name="b" unicode="b" horiz-adv-x="983" 
d="M439 72q116 0 213.5 96t124 261t-29 265.5t-175.5 100.5t-214 -89.5t-124 -272.5t29.5 -272t175.5 -89zM587 883q175 0 250.5 -133.5t45 -327t-151.5 -316t-291 -122.5t-250 133l-28 -80q-12 -37 -31 -37h-33q-10 0 -17 10t-5 21l221 1392q4 27 27 27h53q27 0 22 -31
l-110 -684q123 148 298 148z" />
    <glyph glyph-name="c" unicode="c" horiz-adv-x="931" 
d="M452.5 -16q-188.5 0 -286.5 133t-67.5 321t165.5 316.5t329 128.5t269 -148q14 -20 -4 -33l-43 -28q-18 -12 -33 8q-63 113 -205 113t-247 -108.5t-127.5 -254t44 -253t207 -107.5t253.5 129q18 23 38 2l35 -33q14 -18 -6 -39q-133 -147 -321.5 -147z" />
    <glyph glyph-name="d" unicode="d" horiz-adv-x="983" 
d="M437 72q254 0 311 361t-181 362q-147 0 -243.5 -107.5t-121 -260.5t37 -254t197.5 -101zM979 1450q25 0 20 -31l-219 -1392q-4 -27 -26 -27h-27q-23 0 -27 39l-6 63q-109 -119 -279.5 -118.5t-258.5 128.5t-57.5 321t155.5 321.5t298 128.5t236 -125l109 665q4 27 27 27
h55z" />
    <glyph glyph-name="e" unicode="e" horiz-adv-x="964" 
d="M549 799q-125 0 -215 -88t-121 -226l555 4q23 152 -35.5 231t-183.5 79zM568 883q175 0 257 -122t41 -331q-6 -27 -32 -27l-635 -2q-12 -145 50 -238t200.5 -93t252.5 108q18 18 33 2l27 -37q14 -20 -10 -43q-113 -117 -304.5 -116.5t-286.5 128.5t-62.5 328.5
t163.5 321.5t306 121z" />
    <glyph glyph-name="f" unicode="f" horiz-adv-x="768" 
d="M629 1450q119 0 190 -57q27 -20 15 -41l-23 -29q-20 -20 -39 -6q-59 43 -138 43t-123 -59.5t-67 -194.5l-36 -240h210q10 0 17.5 -9t5.5 -19l-6 -37q-4 -25 -29 -25h-215l-149 -950q-4 -27 -27 -27h-53q-12 0 -19.5 9.5t-5.5 21.5l150 946h-107q-8 0 -16 7.5t-6 21.5
l6 37q4 25 29 24h110l39 262q31 172 99.5 247t187.5 75z" />
    <glyph glyph-name="g" unicode="g" horiz-adv-x="993" 
d="M451 72q254 0 309 358q27 176 -16.5 270.5t-185.5 94.5q-142 1 -236 -107q-92 -108 -118 -261t34.5 -254t212.5 -101zM893 852q10 0 17.5 -10.5t4.5 -20.5l-139 -884q-27 -170 -135.5 -263.5t-263.5 -93.5q-229 0 -307 205q-6 20 6 29l47 30q20 10 29 -12
q20 -45 38.5 -72.5t67.5 -58.5t117 -31q115 0 198.5 77t104.5 210l24 154q-102 -127 -284 -127t-266 129t-54 318t153.5 320.5t303.5 131.5q98 0 159.5 -39t86.5 -96l24 73q10 31 29 31h39z" />
    <glyph glyph-name="h" unicode="h" horiz-adv-x="960" 
d="M580 883q137 0 211.5 -87t46.5 -266l-82 -505q-4 -25 -27 -25h-51q-10 0 -18.5 9t-6.5 20l78 487q43 279 -170 279q-113 0 -197.5 -69t-95.5 -136l-90 -565q-4 -25 -26 -25h-52q-10 0 -18 9t-6 20l221 1396q4 25 29 25h49q12 0 19 -9t5 -20l-106 -667q35 51 118 90
t169 39z" />
    <glyph glyph-name="i" unicode="i" horiz-adv-x="413" 
d="M115 0q-10 0 -19 9q-8 9 -6 20l129 813q4 25 29 24h51q10 0 17 -9t6 -19l-129 -813q-4 -25 -27 -25h-51zM332 1239q28 -1 44 -23q17 -22 13 -50q-5 -28 -25 -44t-49 -16t-46 20t-13 50t26 46q22 17 50 17z" />
    <glyph glyph-name="j" unicode="j" horiz-adv-x="466" 
d="M-66 -418q-168 0 -217 168q-8 25 7 33l51 27q20 10 28 -13q43 -125 140 -125q145 0 178 203l149 963q8 29 29 28h53q27 0 23 -32l-154 -969q-47 -283 -287 -283zM370 1104q-28 0 -46 22t-14 50q4 29 25 46t49 17q28 1 46 -21t13 -51t-25 -46t-48 -17z" />
    <glyph glyph-name="k" unicode="k" horiz-adv-x="839" 
d="M676 0h-58q-29 0 -51 31l-319 430l-70 -436q-4 -25 -26 -25h-52q-10 0 -18 9t-6 20l221 1396q4 25 29 25h49q12 0 19 -9t5 -20l-143 -899l387 316q33 29 55 28h62q18 0 20 -15t-14 -28l-416 -338l336 -454q8 -12 5 -21.5t-15 -9.5z" />
    <glyph glyph-name="l" unicode="l" horiz-adv-x="380" 
d="M100 0q-10 0 -18 9t-6 20l221 1396q4 25 29 25h49q12 0 19 -9t5 -20l-221 -1396q-4 -25 -26 -25h-52z" />
    <glyph glyph-name="m" unicode="m" horiz-adv-x="1474" 
d="M1106 883q150 0 213 -82t39 -223l-88 -553q-4 -25 -27 -25h-51q-10 0 -18.5 9t-6.5 20l78 503q23 129 -10 196t-143.5 67t-188.5 -68t-92 -147l-86 -555q-4 -25 -29 -25h-49q-12 0 -20.5 9t-5.5 20l75 481q25 150 -7 218q-31 68 -143 67.5t-189.5 -68.5t-90.5 -145
l-88 -557q-4 -25 -26 -25h-52q-10 0 -18 9t-6 20l125 798q4 25 28 25h37q23 0 23 -37l2 -57q109 125 285 125t225 -148q117 148 305 148z" />
    <glyph glyph-name="n" unicode="n" horiz-adv-x="962" 
d="M598 883q141 0 206.5 -81t43.5 -220l-88 -557q-4 -25 -27 -25h-51q-10 0 -18.5 9t-6.5 20l78 499q44 267 -153 267q-115 0 -208 -63.5t-106 -149.5l-90 -557q-4 -25 -26 -25h-52q-10 0 -18 9t-6 20l125 798q4 25 28 25h39q20 0 21 -37l4 -70q39 55 121 96.5t184 41.5z
" />
    <glyph glyph-name="o" unicode="o" horiz-adv-x="1013" 
d="M447 72q142 0 239.5 109.5t122.5 254.5q23 145 -37.5 252t-204 107t-244 -112t-120.5 -259q-25 -139 38.5 -245.5t205.5 -106.5zM441 -16q-183 0 -278 129t-65.5 321t161.5 320.5t317 128.5t277.5 -132.5t60.5 -323.5t-161 -317t-312 -126z" />
    <glyph glyph-name="p" unicode="p" horiz-adv-x="968" 
d="M434 72q123 0 216 97t120 267t-36.5 264.5t-183.5 94.5t-205 -101.5t-111 -264.5t25.5 -260t174.5 -97zM569 883q180 0 255 -133.5t44 -327t-143.5 -316t-280.5 -122.5q-92 0 -157.5 41t-89.5 110l-86 -541q-4 -27 -29 -26h-51q-10 0 -17.5 9t-5.5 20l193 1230
q4 25 28 25h27q27 0 27 -37l6 -80q100 148 280 148z" />
    <glyph glyph-name="q" unicode="q" horiz-adv-x="954" 
d="M405 72q126 0 207.5 96t108.5 267t-19.5 265.5t-175 94.5t-217 -112t-111 -259.5t29 -249.5t177.5 -102zM856 866q10 0 17.5 -9t5.5 -19l-197 -1244q-4 -27 -29 -26h-51q-10 0 -17 9t-5 20l84 536q-37 -68 -112 -108.5t-165 -40.5q-172 0 -246.5 128t-42 324.5t144 321.5
t277.5 125q88 0 150.5 -37t81.5 -96l39 90q8 27 34 26h31z" />
    <glyph glyph-name="r" unicode="r" horiz-adv-x="679" 
d="M504 795q-98 0 -164 -82t-80 -176l-82 -512q-4 -25 -26 -25h-52q-10 0 -18 9t-6 20l125 798q4 25 28 25h29q18 0 23 -37l4 -70q35 47 97 92.5t144 45.5t129 -43q16 -12 7 -25l-29 -45q-12 -14 -29 -4q-57 29 -100 29z" />
    <glyph glyph-name="s" unicode="s" horiz-adv-x="759" 
d="M330 -16q-186 0 -287 120q-18 23 -6 35l33 35q16 14 34 -6q96 -98 230 -98q88 0 144.5 45t63.5 114.5t-31 102.5t-121 62.5t-120 47.5q-38 16 -76 46q-73 56 -54 165.5t100.5 169.5t213 60t216.5 -82q20 -20 8 -33l-31 -37q-16 -14 -29 -2q-76 68 -167 68
q-176 0 -203 -138q-14 -68 23.5 -104.5t115.5 -64.5t117 -45t82 -47q79 -56 63 -167.5t-102 -179t-217 -67.5z" />
    <glyph glyph-name="t" unicode="t" horiz-adv-x="710" 
d="M330 -12q-199 0 -160 254l86 534h-94q-10 0 -18.5 8.5t-6.5 18.5l8 39q4 25 29 24h98l33 221q4 25 31 25h49q10 0 18.5 -9t6.5 -20l-33 -217h213q10 0 18 -9t6 -19l-6 -39q-4 -23 -30 -23h-218l-86 -547q-27 -152 74 -151q82 0 152 74q14 14 26 0l31 -41q10 -14 -4 -29
q-102 -94 -223 -94z" />
    <glyph glyph-name="u" unicode="u" horiz-adv-x="966" 
d="M868 866q10 0 17.5 -9t5.5 -19l-127 -815q-2 -23 -23 -23h-34q-25 0 -25 31l-2 84q-43 -59 -118 -95t-152 -36q-178 0 -245 95t-42 255l82 508q4 25 28 24h50q12 0 19 -9t5 -19l-78 -496q-43 -270 197 -270q111 0 186.5 70.5t89.5 154.5l86 545q4 25 29 24h51z" />
    <glyph glyph-name="v" unicode="v" horiz-adv-x="890" 
d="M874 866q23 0 23 -24q0 -10 -6 -19l-471 -796q-14 -27 -29 -27h-20q-14 0 -21 31l-223 796q-10 39 25 39h53q20 0 26 -32l177 -662l376 666q18 29 37 28h53z" />
    <glyph glyph-name="w" unicode="w" horiz-adv-x="1247" 
d="M1212 866q35 0 17 -43l-389 -803q-12 -20 -25 -20h-29q-16 0 -20 23l-100 663l-310 -668q-8 -18 -22 -18h-29q-23 0 -22 23l-138 813q-4 31 25 30h49q23 0 27 -22l98 -658l305 660q8 20 25 20h33q14 0 18 -22l102 -658l299 658q8 23 35 22h51z" />
    <glyph glyph-name="x" unicode="x" horiz-adv-x="851" 
d="M106 0h-51q-14 0 -20 15.5t6 33.5l328 383l-201 389q-8 18 -3 31.5t21 13.5h52q16 0 32 -32l164 -316l264 320q25 29 45 28h56q14 0 18 -16t-8 -33l-330 -389l201 -387q8 -12 4 -26.5t-22 -14.5h-50q-18 0 -34 31l-164 311l-262 -315q-27 -27 -46 -27z" />
    <glyph glyph-name="y" unicode="y" horiz-adv-x="962" 
d="M946 866q14 0 18.5 -13t-3.5 -30l-771 -1153q-14 -23 -30 -22h-56q-14 0 -19 14t7 31l273 409l-238 725q-6 14 1 26.5t24 12.5h51q16 0 26 -32l205 -629l430 643q12 18 31 18h51z" />
    <glyph glyph-name="z" unicode="z" horiz-adv-x="770" 
d="M219 778q-27 0 -26 29l4 31q0 12 11 20t23 8h480q18 0 22 -16t-8 -35l-539 -727h377q12 0 20.5 -9t6.5 -22l-2 -30q0 -27 -33 -27h-496q-16 0 -22 16.5t6 34.5l543 727h-367z" />
    <glyph glyph-name="braceleft" unicode="{" horiz-adv-x="743" 
d="M395 -252h56q27 0 22 -22l-8 -58q-2 -20 -27 -20h-84q-59 0 -91 42t-19 124l108 671q8 53 -13 88q-22 35 -56 35h-31q-25 0 -21 29l7 47q4 25 24 25h31q39 1 71 27t39 79l111 694q14 92 54 126t102 34h86q25 0 20 -22l-8 -58q-2 -20 -25 -20h-57q-23 1 -40 -17t-23 -49
l-113 -708q-18 -117 -107 -138q82 -18 60 -163l-109 -687q-6 -31 10 -45t31 -14z" />
    <glyph glyph-name="bar" unicode="|" horiz-adv-x="407" 
d="M88 -238q-12 0 -20 10t-7 21l291 1843q6 33 35 33h25q14 0 21 -10t3 -27l-293 -1843q-4 -27 -32 -27h-23z" />
    <glyph glyph-name="braceright" unicode="}" horiz-adv-x="741" 
d="M362 1569q-27 0 -22 22l8 58q2 20 27 20h84q59 0 91 -42t19 -124l-108 -672q-9 -53 13 -88t56 -34h31q25 0 21 -29l-7 -47q-4 -25 -24 -25h-31q-38 0 -70 -26t-40 -80l-111 -695q-14 -91 -54 -125t-102 -34h-86q-25 0 -20 22l8 58q2 20 25 20h57q23 0 40 18t23 48
l113 708q18 117 107 137q-82 18 -60 164l109 686q6 31 -9 45t-32 15h-56z" />
    <glyph glyph-name="asciitilde" unicode="~" horiz-adv-x="1118" 
d="M583 666q-83 48 -144 47q-89 0 -193 -95q-6 -5 -27 7l-14 16q-16 12 -8 29q20 43 91 88t163 45t177 -47t131 -47t93 17t104 75q16 8 33 -4l17 -17q12 -12 6 -28q-22 -45 -90 -89q-68 -45 -162 -45t-177 48z" />
    <glyph glyph-name="exclamdown" unicode="&#xa1;" horiz-adv-x="550" 
d="M309 555q27 0 23 -33l-146 -1075q-2 -29 -32 -29h-70q-35 0 -29 33l195 1075q6 29 31 29h28zM342 885q35 0 55 -23q21 -24 15 -54t-30 -50t-54 -20t-52 24q-20 25 -14 57q14 66 80 66z" />
    <glyph glyph-name="cent" unicode="&#xa2;" horiz-adv-x="948" 
d="M305 659q-84 -102 -102 -228t30 -226.5t154 -124.5l125 708q-123 -27 -207 -129zM414 -156h-33q-12 0 -21.5 9.5t-7.5 21.5l21 115q-147 27 -225 154.5t-49.5 296.5t147.5 293t282 145l19 110q6 33 33 33h34q14 0 21.5 -11.5t5.5 -25.5l-18 -104q169 -15 239 -146
q14 -20 -4 -33l-43 -28q-18 -12 -33 8q-55 102 -174 113l-127 -721q125 10 226 127q18 23 38 2l35 -33q14 -18 -6 -39q-125 -139 -307 -147l-21 -113q-4 -27 -32 -27z" />
    <glyph glyph-name="sterling" unicode="&#xa3;" horiz-adv-x="1140" 
d="M907 0h-796q-12 0 -22 10q-9 10 -7 23l4 35q4 27 31 26h4q41 0 83 77t58 171l51 328h-104q-12 0 -21 10q-8 10 -6 22l6 39q8 29 33 29h109l35 227q35 213 132 333t298 120q111 0 179 -42t124 -132q12 -25 -6 -37l-45 -20q-25 -18 -39 10q-80 121 -220 121
q-252 0 -309 -361l-37 -219h344q12 0 20 -10t7 -23l-4 -39q0 -12 -11 -20t-24 -8h-348l-53 -336q-25 -166 -94 -236l639 2q12 0 21 -10t7 -22l-6 -39q-6 -29 -33 -29z" />
    <glyph glyph-name="currency" unicode="&#xa4;" horiz-adv-x="1085" 
d="M634 1001q-116 -1 -218 -87t-118 -203q-18 -117 54 -202t189 -85t217 87t118 204t-53 201q-73 84 -189 85zM534 334q-122 0 -206 69l-70 -71q-16 -16 -35 0l-35 33q-18 16 0 34l72 76q-72 99 -50 237t120 240l-49 64q-16 18 4 39l41 30q20 16 39 -6l45 -59q110 72 234 72
t212 -72l62 65q18 23 38 2l31 -30q20 -20 -2 -43l-67 -70q68 -104 48 -236t-124 -233l53 -72q14 -18 -2 -34l-47 -37q-20 -12 -37 10l-47 64q-106 -72 -228 -72z" />
    <glyph glyph-name="yen" unicode="&#xa5;" horiz-adv-x="1202" 
d="M1221 1434q12 0 18 -12.5t-4 -26.5l-524 -717h157q27 0 23 -29l-4 -28q-2 -25 -29 -25h-194l-31 -193h188q12 0 20.5 -8t6.5 -20l-6 -29q-2 -25 -29 -24h-192l-50 -299q-4 -23 -24 -23h-62q-27 0 -22 27l47 295h-193q-29 0 -24 28l4 29q2 25 29 24h196l31 193h-191
q-29 0 -24 29l4 26q4 27 31 27h164l-261 723q-14 33 13 33h63q25 0 35 -25l240 -676l493 678q16 23 41 23h60z" />
    <glyph glyph-name="brokenbar" unicode="&#xa6;" horiz-adv-x="407" 
d="M88 -238q-12 0 -20 10t-7 21l111 709q6 33 35 33h24q13 -1 21 -11t4 -26l-113 -709q-4 -27 -32 -27h-23zM268 897q-12 0 -21 9t-7 22l112 708q6 33 35 33h25q14 0 21 -10t3 -27l-112 -708q-4 -27 -33 -27h-23z" />
    <glyph glyph-name="section" unicode="&#xa7;" horiz-adv-x="1114" 
d="M545 854q-96 -20 -167 -84t-85 -155q-14 -92 43 -149q42 -43 178 -80q41 -11 129 -34q80 18 149 80t86 169q17 106 -67 159t-266 94zM708 1450q196 0 326 -117q20 -14 2 -37l-37 -36q-14 -14 -30 0q-125 94 -264 94t-217 -56t-91 -141q-14 -86 56 -143t224 -96t199 -73
q44 -34 74 -67q60 -67 42 -166q-17 -98 -72 -183t-162 -124q154 -84 127 -244q-20 -129 -131 -223t-327 -94t-347 160q-16 12 2 30l43 39q20 16 35 -2q94 -129 291 -129q123 0 215 56t108 163q16 106 -61 152q-65 39 -226 80t-241 115t-66 194q29 225 252 299
q-172 98 -145 262q17 115 121 201t300 86z" />
    <glyph glyph-name="dieresis" unicode="&#xa8;" horiz-adv-x="645" 
d="M596 1403q-25 0 -40 16t-11 39q10 45 53 45q25 0 39 -16t10 -41q-6 -43 -51 -43zM369 1403q-23 0 -38 16t-12 39q6 45 54 45q23 0 37 -16t12 -41q-10 -43 -53 -43z" />
    <glyph glyph-name="copyright" unicode="&#xa9;" horiz-adv-x="1755" 
d="M924 233q-186 1 -288 131t-104 352q0 222 102 353t290 131q139 0 221 -72t106 -190q6 -33 -16 -37l-39 -6q-29 -6 -37 29q-45 193 -237 192q-150 0 -221 -112t-71 -291q0 -180 79 -288q78 -108 217 -108q109 1 169 63t79 136q6 23 28 19l43 -9q27 -6 15 -41
q-72 -252 -336 -252zM923 70q263 0 448 192t185 453t-185 455t-448 194t-449 -195t-187 -455q0 -260 186 -452q187 -192 450 -192zM923 -16q-304 0 -519 214q-214 214 -214 518t216 519t518 215q303 0 517 -215t214 -519t-214 -518t-518 -214z" />
    <glyph glyph-name="ordfeminine" unicode="&#xaa;" horiz-adv-x="815" 
d="M270 461h312q10 0 18 -9t6 -20l-4 -35q-4 -27 -29 -26h-313q-10 0 -18 9t-6 19l6 35q4 27 28 27zM459 745q94 -1 148 49t69 136q27 174 -154 174q-98 0 -158 -51t-72 -130t31 -129q42 -50 136 -49zM719 686h-29q-10 0 -18 35l-2 51q-76 -104 -222 -104t-206 76
q-59 76 -43 186q18 110 101 180t219 70t186 -84l12 57q14 80 -21 138q-35 59 -137 59t-205 -58q-18 -8 -26 17l-9 43q-4 18 9 24q106 58 246 58t198 -74q56 -74 31 -230l-64 -419q-6 -25 -20 -25z" />
    <glyph glyph-name="guillemotleft" unicode="&#xab;" horiz-adv-x="1015" 
d="M766 -16q-23 0 -35 22l-209 369q-23 41 -20 53l2 14q2 18 33 50l325 372q16 18 43 19h25q16 1 18 -11t-10 -28l-315 -410l180 -414q16 -37 -12 -36h-25zM422 -16q-23 0 -35 22l-209 369q-23 41 -20 53l2 14q2 18 33 50l325 372q16 18 43 19h25q16 1 18 -11t-10 -28
l-315 -410l180 -414q16 -37 -13 -36h-24z" />
    <glyph glyph-name="logicalnot" unicode="&#xac;" horiz-adv-x="1099" 
d="M229 668q-33 0 -28 32l2 29q2 31 37 31h721q35 0 28 -33l-47 -291q-4 -33 -33 -33h-43q-33 0 -26 35l37 230h-648z" />
    <glyph glyph-name="uni00AD" unicode="&#xad;" horiz-adv-x="784" 
d="M145 418q-10 0 -18 9t-6 19l4 37q4 25 29 25h493q9 0 19 -9t8 -20l-6 -35q-4 -27 -29 -26h-494z" />
    <glyph glyph-name="registered" unicode="&#xae;" horiz-adv-x="1755" 
d="M700 1100v-400h299q81 0 133 58t52 145q0 86 -52 141t-135 56h-297zM700 616v-346q0 -14 -16 -14h-63q-14 0 -15 14v899q0 16 15 17h407q120 0 186 -84t66 -182q0 -210 -147 -277q79 -80 109 -167t30 -206q0 -14 -17 -14h-61q-16 0 -16 14q0 227 -154 346h-324zM923 70
q263 0 448 192t185 453t-185 455t-448 194t-449 -195t-187 -455q0 -260 186 -452q187 -192 450 -192zM924 1450q303 0 517 -215t214 -519t-214 -518t-518 -214t-519 214q-214 214 -214 518t216 519t518 215z" />
    <glyph glyph-name="macron" unicode="&#xaf;" horiz-adv-x="747" 
d="M344 1393q-35 0 -31 32l4 23q6 31 35 31h369q35 0 31 -33l-4 -23q-6 -31 -33 -30h-371z" />
    <glyph glyph-name="degree" unicode="&#xb0;" horiz-adv-x="579" 
d="M389 1102q66 0 116 46t60 110t-22 110q-33 45 -99 45t-116 -46q-50 -45 -60 -111t22 -110t99 -44zM385 1030q-94 0 -153 68q-58 68 -43 162t91 160t170 65q95 0 153 -69t42 -163q-16 -95 -91 -159t-169 -64z" />
    <glyph glyph-name="plusminus" unicode="&#xb1;" horiz-adv-x="1116" 
d="M868 84q37 0 31 -33l-4 -24q-6 -29 -35 -29h-733q-37 0 -31 33l4 24q6 29 35 29h733zM973 748q35 0 28 -33l-4 -31q-6 -29 -34 -29h-320l-49 -321q-6 -31 -35 -31h-39q-33 0 -26 35l51 317h-316q-33 0 -28 33l2 29q0 31 37 31h319l49 321q6 31 35 31h37q35 0 29 -35
l-50 -317h314z" />
    <glyph glyph-name="uni00B2" unicode="&#xb2;" horiz-adv-x="784" 
d="M572 1602q144 0 198 -65t37 -177q-16 -112 -154 -246l-360 -344h420q8 0 14 -7t4 -15l-6 -46q-4 -18 -20 -18h-539q-18 0 -19 21l7 34q0 13 7 17t204 194t196 193q139 133 152 231q27 143 -144 144q-106 0 -157 -50t-60 -104q-4 -12 -16 -12h-60q-18 0 -14 24
q12 90 89 158t221 68z" />
    <glyph glyph-name="uni00B3" unicode="&#xb3;" horiz-adv-x="804" 
d="M578 1604q270 0 231 -242q-25 -158 -135 -213q36 -11 70 -67t18 -160t-91 -179q-75 -73 -220 -73t-207 70q-61 71 -47 163q4 18 22 19h49q18 0 18 -25q1 -44 19 -85q24 -56 141 -56q197 0 228 176q12 84 -27 128t-147 46h-58q-20 0 -16 22l6 43q2 18 19 19h53
q190 0 213 174q31 154 -146 154q-73 0 -121 -29t-63 -56q-14 -28 -25 -67q-4 -12 -20 -12h-51q-23 0 -21 30q14 88 96 154t212 66z" />
    <glyph glyph-name="acute" unicode="&#xb4;" horiz-adv-x="641" 
d="M350 1317q-23 -16 -37 4l-6 12q-10 12 8 35l271 256q25 25 45 -6l22 -37q20 -27 -4 -45z" />
    <glyph glyph-name="uni00B5" unicode="&#xb5;" horiz-adv-x="1042" 
d="M840 0h-47q-23 0 -35 31l-25 63q-99 -110 -279 -110t-243 108l-82 -498q-4 -27 -29 -26h-53q-10 0 -17 9t-5 20l196 1245q4 25 31 24h49q10 0 18 -9t7 -19l-78 -488q-43 -279 217 -278q121 0 197 55t92 164l86 551q4 25 28 24h52q10 0 17 -9t5 -19l-102 -650
q-11 -77 18 -155q10 -33 -18 -33z" />
    <glyph glyph-name="paragraph" unicode="&#xb6;" horiz-adv-x="978" 
d="M950 1434q12 0 20 -10t7 -23l-256 -1612q-4 -27 -29 -27h-49q-25 0 -20 31l245 1550h-172l-245 -1554q-4 -27 -27 -27h-49q-9 0 -17 10t-6 21l137 856q-121 0 -193 113t-44 285q27 171 131 279t227 108h340z" />
    <glyph glyph-name="periodcentered" unicode="&#xb7;" horiz-adv-x="456" 
d="M219 600q-35 0 -29 33l13 74q6 33 37 32h71q35 0 29 -32l-12 -74q-6 -33 -37 -33h-72z" />
    <glyph glyph-name="cedilla" unicode="&#xb8;" horiz-adv-x="591" 
d="M164 -397q-94 0 -123 80q-6 18 8 20l35 10q14 6 18 -8q14 -35 58 -35q84 0 96 88q6 46 -23 62t-69 4h-29l-41 18q-16 8 -10 21l92 153h74l-80 -127q72 17 120 -19t38 -112t-56 -116t-108 -39z" />
    <glyph glyph-name="uni00B9" unicode="&#xb9;" horiz-adv-x="628" 
d="M578 762q20 0 16 -23l-6 -43q-2 -18 -21 -18h-424q-20 0 -20 20l8 45q0 18 23 19h165l109 688l-147 -104q-12 -8 -24 -3q-11 6 -9 19l8 57q2 12 25 27l176 129q6 4 22 4h41q18 0 19 -23l-125 -794h164z" />
    <glyph glyph-name="ordmasculine" unicode="&#xba;" horiz-adv-x="866" 
d="M287 461h313q10 0 18 -9t7 -20l-7 -35q-8 -27 -28 -26h-311q-10 0 -19 9q-8 9 -6 19l4 35q4 27 29 27zM487 752q115 0 179 88q62 88 84 213t-14 210t-150 85t-186 -88q-71 -88 -90 -210q-18 -122 22 -210t155 -88zM479 666q-143 0 -217 101t-44 285t130 283t244 99
t213 -100q68 -100 38 -288q-29 -188 -125 -284t-239 -96z" />
    <glyph glyph-name="guillemotright" unicode="&#xbb;" horiz-adv-x="1015" 
d="M569 883h25q23 0 35 -23l209 -368q23 -41 20 -54l-2 -14q-2 -18 -33 -49l-325 -373q-16 -18 -43 -18h-25q-16 0 -18 12t10 27l315 409l-180 414q-16 37 12 37zM225 883h25q23 0 35 -23l209 -368q23 -41 20 -54l-2 -14q-2 -18 -33 -49l-325 -373q-16 -18 -43 -18h-25
q-16 0 -18 12t10 27l315 409l-180 414q-16 37 12 37z" />
    <glyph glyph-name="onequarter" unicode="&#xbc;" horiz-adv-x="1656" 
d="M1010 299h317l76 481zM1419 901h74q8 0 14 -6t4 -14l-92 -582h92q11 0 17 -7t4 -16l-8 -45q-4 -18 -21 -18h-96l-33 -195q-4 -18 -18 -18h-53q-8 0 -15 7q-6 7 -6 16l31 190h-404q-10 0 -16 7t-4 16l8 40l4 15l490 598q12 12 28 12zM479 0q-18 0 -22 15t4 30l790 1360
q16 29 39 29h47q15 0 19 -12t-6 -27l-795 -1366q-14 -29 -41 -29h-35zM555 616q20 0 16 -22l-6 -43q-4 -18 -20 -19h-424q-20 0 -21 21l9 45q0 18 22 18h166l109 689l-148 -105q-12 -8 -24 -2q-11 6 -9 19l8 57q2 12 25 26l176 130q6 4 23 4h41q18 0 18 -23l-125 -795h164z
" />
    <glyph glyph-name="onehalf" unicode="&#xbd;" horiz-adv-x="1787" 
d="M1467 918q143 0 197 -65t38 -177t-154 -246l-360 -344h420q8 0 14 -7t4 -16l-6 -45q-2 -18 -21 -18h-538q-18 0 -19 20l7 35q0 13 7 17t204 194t196 193q139 133 152 231q27 143 -144 144q-106 0 -157 -50t-60 -104q-4 -12 -16 -12h-60q-18 0 -14 24q12 90 89 158t221 68
zM479 0q-18 0 -22 15t4 30l790 1360q16 29 39 29h47q15 0 19 -12t-6 -27l-795 -1366q-14 -29 -41 -29h-35zM555 616q20 0 16 -22l-6 -43q-4 -18 -20 -19h-424q-20 0 -21 21l9 45q0 18 22 18h166l109 689l-148 -105q-12 -8 -24 -2q-11 6 -9 19l8 57q2 12 25 26l176 130
q6 4 23 4h41q18 0 18 -23l-125 -795h164z" />
    <glyph glyph-name="threequarters" unicode="&#xbe;" horiz-adv-x="1710" 
d="M1063 299h317l76 481zM1473 901h73q8 0 14 -6t5 -14l-92 -582h92q10 0 16 -7t4 -16l-8 -45q-4 -18 -21 -18h-96l-33 -195q-4 -18 -18 -18h-53q-8 0 -15 7q-6 7 -6 16l31 190h-403q-10 0 -17 7q-6 7 -4 16l8 40l4 15l490 598q12 12 29 12zM543 0q-19 0 -23 15t4 30
l791 1360q16 29 39 29h47q14 0 18 -12t-6 -27l-795 -1366q-14 -29 -40 -29h-35zM553 1450q270 0 231 -242q-25 -158 -135 -213q37 -12 71 -67t18 -160q-16 -104 -92 -178q-75 -74 -220 -74t-207 71q-61 71 -47 163q4 18 23 18h49q18 0 18 -24q0 -101 67 -128q36 -14 93 -14
q197 0 227 176q12 84 -26 128q-39 44 -148 46h-57q-20 0 -17 23l7 43q2 18 18 18h53q190 0 213 174q31 154 -145 154q-74 0 -122 -29t-63 -56q-14 -28 -24 -67q-4 -12 -21 -12h-51q-23 0 -20 31q14 87 95 153t212 66z" />
    <glyph glyph-name="questiondown" unicode="&#xbf;" horiz-adv-x="909" 
d="M362 -584q-206 0 -284 106t-54 250q24 145 123 242q58 58 120 110t67 54q86 72 135 143t65 115t27 115q4 27 23 27h57q25 0 18 -46q-27 -213 -221 -387q-26 -23 -98 -86t-102 -94t-67 -90q-36 -59 -46 -119q-19 -116 49 -182t203 -66q207 0 321 158q12 18 31 6l45 -14
q20 -14 4 -39q-55 -91 -166 -147t-250 -56zM659 883q31 0 51 -24t13 -54q-10 -61 -78 -62q-31 0 -49 23t-14 53q14 64 77 64z" />
    <glyph glyph-name="Agrave" unicode="&#xc0;" horiz-adv-x="1228" 
d="M338 434h557l-158 778zM778 1450q8 0 13 -14l299 -1397q4 -16 -6.5 -27.5t-24.5 -11.5h-49q-25 0 -25 23l-67 311h-637l-162 -314q-10 -20 -27 -20h-53q-14 0 -22.5 14.5t-0.5 30.5l732 1395q6 10 10 10h20zM983 1606l-332 123q-33 14 -22 43l16 38q10 25 37 9l322 -158
q20 -12 14 -31l-4 -14q-6 -18 -31 -10z" />
    <glyph glyph-name="Aacute" unicode="&#xc1;" horiz-adv-x="1228" 
d="M338 434h557l-158 778zM778 1450q8 0 13 -14l299 -1397q4 -16 -6.5 -27.5t-24.5 -11.5h-49q-25 0 -25 23l-67 311h-637l-162 -314q-10 -20 -27 -20h-53q-14 0 -22.5 14.5t-0.5 30.5l732 1395q6 10 10 10h20zM653 1604q-25 -8 -30 10l-5 14q-6 18 15 31l321 158
q27 16 37 -9l17 -39q10 -29 -23 -43z" />
    <glyph glyph-name="Acircumflex" unicode="&#xc2;" horiz-adv-x="1228" 
d="M338 434h557l-158 778zM778 1450q8 0 13 -14l299 -1397q4 -16 -6.5 -27.5t-24.5 -11.5h-49q-25 0 -25 23l-67 311h-637l-162 -314q-10 -20 -27 -20h-53q-14 0 -22.5 14.5t-0.5 30.5l732 1395q6 10 10 10h20zM844 1874q27 0 45 -27l112 -164q18 -27 17 -41l-4 -16
q-10 -39 -37 -6l-148 174l-200 -178q-25 -18 -32 -6t-5 18l4 21q4 20 22 39l166 165q23 20 52 21h8z" />
    <glyph glyph-name="Atilde" unicode="&#xc3;" horiz-adv-x="1228" 
d="M338 434h557l-158 778zM778 1450q8 0 13 -14l299 -1397q4 -16 -6.5 -27.5t-24.5 -11.5h-49q-25 0 -25 23l-67 311h-637l-162 -314q-10 -20 -27 -20h-53q-14 0 -22.5 14.5t-0.5 30.5l732 1395q6 10 10 10h20zM942 1628q-55 0 -128 51.5t-107 51.5q-82 0 -129 -84
q-8 -16 -27 -5l-23 11q-16 8 -8 28q18 51 71.5 89t117 38t135 -52t104.5 -52q70 0 123 90q6 14 25 4l20 -12q18 -12 10 -31q-59 -127 -184 -127z" />
    <glyph glyph-name="Adieresis" unicode="&#xc4;" horiz-adv-x="1228" 
d="M338 434h557l-158 778zM778 1450q8 0 13 -14l299 -1397q4 -16 -6.5 -27.5t-24.5 -11.5h-49q-25 0 -25 23l-67 311h-637l-162 -314q-10 -20 -27 -20h-53q-14 0 -22.5 14.5t-0.5 30.5l732 1395q6 10 10 10h20zM938 1675q-25 0 -40 16.5t-11 39.5q10 45 53 45q25 0 39 -16.5
t10 -41.5q-6 -43 -51 -43zM711 1675q-23 0 -38.5 16.5t-10.5 39.5q6 45 53 45q23 0 37 -16.5t12 -41.5q-10 -43 -53 -43z" />
    <glyph glyph-name="Aring" unicode="&#xc5;" horiz-adv-x="1228" 
d="M338 434h557l-158 778zM778 1450q8 0 13 -14l299 -1397q4 -16 -6.5 -27.5t-24.5 -11.5h-49q-25 0 -25 23l-67 311h-637l-162 -314q-10 -20 -27 -20h-53q-14 0 -22.5 14.5t-0.5 30.5l732 1395q6 10 10 10h20zM807 1686q63 0 76 71q6 31 -9.5 47.5t-39.5 16.5
q-63 0 -74 -70q-4 -31 9 -48t38 -17zM804 1620q-54 0 -89 39t-26 99t52 94t97.5 34t89.5 -39t25.5 -98t-52.5 -94t-97 -35z" />
    <glyph glyph-name="AE" unicode="&#xc6;" horiz-adv-x="1857" 
d="M1001 430l129 815l-665 -815h536zM1866 1434q10 0 18 -9.5t6 -19.5l-8 -51q-2 -20 -27 -21h-600l-90 -565h430q10 0 18.5 -8t6.5 -19l-8 -51q-4 -23 -29 -22h-434l-90 -568h596q10 0 18 -8t6 -18l-8 -51q-4 -23 -26 -23h-682q-10 0 -18.5 9t-6.5 20l47 301h-600
l-254 -312q-16 -18 -37 -18h-53q-18 0 -25.5 13.5t9.5 31.5l1112 1372q14 16 30 17h699z" />
    <glyph glyph-name="Ccedilla" unicode="&#xc7;" horiz-adv-x="1415" 
d="M936 1350q-246 0 -432.5 -187.5t-227.5 -448.5t83 -445.5t366 -184.5q133 0 255 63.5t208 159.5q16 16 39 0l33 -35q23 -23 0 -43q-236 -236 -523 -245l-53 -86q72 18 120 -19t38 -113t-55.5 -115.5t-108.5 -39.5q-94 0 -123 80q-6 18 8 20l35 10q14 6 18 -8
q14 -35 58 -35q84 0 96 89q6 45 -22.5 61t-69.5 4h-29l-41 18q-16 8 -10 21l70 115q-270 20 -410.5 233t-92.5 510t269 509t510 212t455 -236q14 -25 -4 -38l-41 -35q-29 -20 -45 8q-39 72 -140.5 136.5t-232.5 64.5z" />
    <glyph glyph-name="Egrave" unicode="&#xc8;" horiz-adv-x="1015" 
d="M815 100q10 0 18.5 -8t6.5 -18l-9 -51q-4 -23 -26 -23h-682q-10 0 -18.5 9t-6.5 20l219 1380q4 25 27 25h682q10 0 18.5 -9.5t6.5 -19.5l-9 -51q-2 -20 -26 -21h-600l-90 -565h430q10 0 18 -8t6 -19l-8 -51q-4 -23 -29 -22h-434l-90 -568h596zM883 1606l-332 123
q-33 14 -23 43l17 38q10 25 37 9l321 -158q20 -12 15 -31l-5 -14q-5 -18 -30 -10z" />
    <glyph glyph-name="Eacute" unicode="&#xc9;" horiz-adv-x="1015" 
d="M815 100q10 0 18.5 -8t6.5 -18l-9 -51q-4 -23 -26 -23h-682q-10 0 -18.5 9t-6.5 20l219 1380q4 25 27 25h682q10 0 18.5 -9.5t6.5 -19.5l-9 -51q-2 -20 -26 -21h-600l-90 -565h430q10 0 18 -8t6 -19l-8 -51q-4 -23 -29 -22h-434l-90 -568h596zM553 1604q-25 -8 -31 10
l-4 14q-6 18 14 31l322 158q27 16 37 -9l16 -39q10 -29 -22 -43z" />
    <glyph glyph-name="Ecircumflex" unicode="&#xca;" horiz-adv-x="1015" 
d="M815 100q10 0 18.5 -8t6.5 -18l-9 -51q-4 -23 -26 -23h-682q-10 0 -18.5 9t-6.5 20l219 1380q4 25 27 25h682q10 0 18.5 -9.5t6.5 -19.5l-9 -51q-2 -20 -26 -21h-600l-90 -565h430q10 0 18 -8t6 -19l-8 -51q-4 -23 -29 -22h-434l-90 -568h596zM743 1874q27 0 45 -27
l113 -164q18 -27 17 -41l-5 -16q-10 -39 -36 -6l-148 174l-201 -178q-24 -17 -31.5 -5.5t-4.5 17.5l4 21q4 20 22 39l166 165q23 20 51 21h8z" />
    <glyph glyph-name="Edieresis" unicode="&#xcb;" horiz-adv-x="1015" 
d="M815 100q10 0 18.5 -8t6.5 -18l-9 -51q-4 -23 -26 -23h-682q-10 0 -18.5 9t-6.5 20l219 1380q4 25 27 25h682q10 0 18.5 -9.5t6.5 -19.5l-9 -51q-2 -20 -26 -21h-600l-90 -565h430q10 0 18 -8t6 -19l-8 -51q-4 -23 -29 -22h-434l-90 -568h596zM838 1675q-25 0 -40.5 16.5
t-11.5 39.5q10 45 54 45q25 0 39 -16.5t10 -41.5q-6 -43 -51 -43zM610 1675q-23 0 -38 16.5t-11 39.5q6 45 53 45q23 0 37.5 -16.5t12.5 -41.5q-11 -43 -54 -43z" />
    <glyph glyph-name="Igrave" unicode="&#xcc;" horiz-adv-x="436" 
d="M117 0q-23 0 -19 29l219 1380q4 25 23 25h68q25 0 20 -29l-219 -1380q-4 -25 -23 -25h-69zM590 1606l-332 123q-33 14 -22 43l16 38q10 25 37 9l321 -158q20 -12 15 -31l-4 -14q-6 -18 -31 -10z" />
    <glyph glyph-name="Iacute" unicode="&#xcd;" horiz-adv-x="436" 
d="M117 0q-23 0 -19 29l219 1380q4 25 23 25h68q25 0 20 -29l-219 -1380q-4 -25 -23 -25h-69zM260 1604q-25 -8 -31 10l-4 14q-6 18 15 31l321 158q27 16 37 -9l16 -39q10 -29 -22 -43z" />
    <glyph glyph-name="Icircumflex" unicode="&#xce;" horiz-adv-x="436" 
d="M117 0q-23 0 -19 29l219 1380q4 25 23 25h68q25 0 20 -29l-219 -1380q-4 -25 -23 -25h-69zM451 1874q27 0 45 -27l112 -164q18 -27 17 -41l-4 -16q-10 -39 -37 -6l-148 174l-200 -178q-25 -18 -32 -6t-5 18l4 21q4 20 22 39l166 165q23 20 51 21h9z" />
    <glyph glyph-name="Idieresis" unicode="&#xcf;" horiz-adv-x="436" 
d="M117 0q-23 0 -19 29l219 1380q4 25 23 25h68q25 0 20 -29l-219 -1380q-4 -25 -23 -25h-69zM545 1675q-25 0 -40.5 16.5t-10.5 39.5q10 45 53 45q25 0 39 -16.5t10 -41.5q-6 -43 -51 -43zM317 1675q-23 0 -38 16.5t-11 39.5q6 45 54 45q23 0 37 -16.5t12 -41.5
q-11 -43 -54 -43z" />
    <glyph glyph-name="Eth" unicode="&#xd0;" horiz-adv-x="1249" 
d="M705 1333h-289l-90 -571h325q33 0 27 -31l-4 -33q-2 -31 -35 -30h-330l-90 -568h283q461 0 559 616.5t-356 616.5zM731 1434q276 0 388 -186.5t55 -538.5q-115 -709 -670 -709h-381q-10 0 -18.5 9t-6.5 20l103 639h-54q-33 0 -28 32l2 33q2 29 37 29h57l102 647
q4 25 27 25h387z" />
    <glyph glyph-name="Ntilde" unicode="&#xd1;" horiz-adv-x="1320" 
d="M1290 1434q10 0 17.5 -9.5t5.5 -19.5l-219 -1382q-4 -23 -25 -23h-47q-16 0 -33 29l-592 1192l-190 -1198q-4 -23 -23 -23h-65q-25 0 -21 27l219 1382q4 25 25 25h47q20 0 35 -33l590 -1186l190 1194q4 25 21 25h65zM989 1628q-55 0 -128 51.5t-107 51.5q-82 0 -129 -84
q-8 -16 -27 -5l-23 11q-16 8 -8 28q18 51 71.5 89t117 38t135.5 -52t104 -52q70 0 123 90q6 14 25 4l20 -12q18 -12 11 -31q-59 -127 -185 -127z" />
    <glyph glyph-name="Ograve" unicode="&#xd2;" horiz-adv-x="1572" 
d="M726 84q249 0 432 189.5t224 446.5t-79.5 443.5t-369.5 186.5t-432.5 -191.5t-224.5 -448.5t80 -441.5t370 -184.5zM720 -16q-288 0 -446.5 214t-109.5 522t270 519t509 211t445.5 -216t108.5 -524t-269 -517t-508 -209zM1155 1606l-332 123q-33 14 -22 43l16 38
q10 25 37 9l322 -158q20 -12 14 -31l-4 -14q-6 -18 -31 -10z" />
    <glyph glyph-name="Oacute" unicode="&#xd3;" horiz-adv-x="1572" 
d="M726 84q249 0 432 189.5t224 446.5t-79.5 443.5t-369.5 186.5t-432.5 -191.5t-224.5 -448.5t80 -441.5t370 -184.5zM720 -16q-288 0 -446.5 214t-109.5 522t270 519t509 211t445.5 -216t108.5 -524t-269 -517t-508 -209zM825 1604q-25 -8 -30 10l-4 14q-6 18 14 31
l321 158q27 16 37 -9l17 -39q10 -29 -23 -43z" />
    <glyph glyph-name="Ocircumflex" unicode="&#xd4;" horiz-adv-x="1572" 
d="M726 84q249 0 432 189.5t224 446.5t-79.5 443.5t-369.5 186.5t-432.5 -191.5t-224.5 -448.5t80 -441.5t370 -184.5zM720 -16q-288 0 -446.5 214t-109.5 522t270 519t509 211t445.5 -216t108.5 -524t-269 -517t-508 -209zM1016 1874q27 0 45 -27l113 -164q18 -27 16 -41
l-4 -16q-10 -39 -37 -6l-148 174l-200 -178q-25 -18 -32 -6t-5 18l4 21q4 20 23 39l165 165q23 20 52 21h8z" />
    <glyph glyph-name="Otilde" unicode="&#xd5;" horiz-adv-x="1572" 
d="M726 84q249 0 432 189.5t224 446.5t-79.5 443.5t-369.5 186.5t-432.5 -191.5t-224.5 -448.5t80 -441.5t370 -184.5zM720 -16q-288 0 -446.5 214t-109.5 522t270 519t509 211t445.5 -216t108.5 -524t-269 -517t-508 -209zM1114 1628q-55 0 -128 51.5t-107 51.5
q-82 0 -129 -84q-8 -16 -27 -5l-23 11q-16 8 -8 28q18 51 71.5 89t117 38t135 -52t104.5 -52q70 0 123 90q6 14 25 4l20 -12q18 -12 10 -31q-59 -127 -184 -127z" />
    <glyph glyph-name="Odieresis" unicode="&#xd6;" horiz-adv-x="1572" 
d="M726 84q249 0 432 189.5t224 446.5t-79.5 443.5t-369.5 186.5t-432.5 -191.5t-224.5 -448.5t80 -441.5t370 -184.5zM720 -16q-288 0 -446.5 214t-109.5 522t270 519t509 211t445.5 -216t108.5 -524t-269 -517t-508 -209zM1110 1675q-25 0 -40 16.5t-11 39.5q10 45 53 45
q25 0 39 -16.5t10 -41.5q-6 -43 -51 -43zM883 1675q-23 0 -38.5 16.5t-10.5 39.5q6 45 53 45q23 0 37 -16.5t12 -41.5q-10 -43 -53 -43z" />
    <glyph glyph-name="multiply" unicode="&#xd7;" horiz-adv-x="935" 
d="M573 690l197 -235q18 -29 -2 -49l-18 -15q-25 -25 -45 2l-203 236l-273 -236q-25 -20 -45 0l-18 21q-18 23 6 47l274 233l-196 238q-20 25 2 47l18 16q25 20 45 -4l203 -235l270 237q25 20 48 -2l16 -18q20 -25 -4 -49z" />
    <glyph glyph-name="Oslash" unicode="&#xd8;" horiz-adv-x="1572" 
d="M723 84q252 0 435 189.5t224 447.5q25 156 -13 294t-132 224l-741 -1100q100 -55 227 -55zM276 709q-25 -154 12.5 -290t129.5 -222l739 1099q-94 53 -223 54q-250 0 -433.5 -191.5t-224.5 -449.5zM721 -16q-160 0 -283 69l-26 -41q-20 -29 -43 -28h-45q-20 0 -23.5 16
t6.5 31l51 78q-119 98 -171 259.5t-23 352.5q49 307 270 518t508 211q150 0 275 -66l24 37q20 29 41 29h59q33 0 11 -39l-56 -82q123 -98 177.5 -262t23.5 -358q-49 -307 -269 -516t-507 -209z" />
    <glyph glyph-name="Ugrave" unicode="&#xd9;" horiz-adv-x="1329" 
d="M1303 1434q27 0 22 -31l-139 -840q-41 -260 -192.5 -419.5t-393.5 -159.5t-351.5 163.5t-70.5 421.5l139 838q6 27 31 27h58q27 0 22 -31l-137 -832q-35 -211 51 -349t267 -138t308 139t162 355l135 829q4 27 29 27h60zM1040 1606l-331 123q-33 14 -23 43l16 38
q10 25 37 9l322 -158q20 -12 14 -31l-4 -14q-6 -18 -31 -10z" />
    <glyph glyph-name="Uacute" unicode="&#xda;" horiz-adv-x="1329" 
d="M1303 1434q27 0 22 -31l-139 -840q-41 -260 -192.5 -419.5t-393.5 -159.5t-351.5 163.5t-70.5 421.5l139 838q6 27 31 27h58q27 0 22 -31l-137 -832q-35 -211 51 -349t267 -138t308 139t162 355l135 829q4 27 29 27h60zM711 1604q-25 -8 -31 10l-4 14q-6 18 14 31
l322 158q27 16 37 -9l16 -39q10 -29 -23 -43z" />
    <glyph glyph-name="Ucircumflex" unicode="&#xdb;" horiz-adv-x="1329" 
d="M1303 1434q27 0 22 -31l-139 -840q-41 -260 -192.5 -419.5t-393.5 -159.5t-351.5 163.5t-70.5 421.5l139 838q6 27 31 27h58q27 0 22 -31l-137 -832q-35 -211 51 -349t267 -138t308 139t162 355l135 829q4 27 29 27h60zM901 1874q27 0 45 -27l113 -164q18 -27 16 -41
l-4 -16q-10 -39 -37 -6l-147 174l-201 -178q-25 -18 -32 -6t-5 18l4 21q4 20 23 39l166 165q23 20 51 21h8z" />
    <glyph glyph-name="Udieresis" unicode="&#xdc;" horiz-adv-x="1329" 
d="M1303 1434q27 0 22 -31l-139 -840q-41 -260 -192.5 -419.5t-393.5 -159.5t-351.5 163.5t-70.5 421.5l139 838q6 27 31 27h58q27 0 22 -31l-137 -832q-35 -211 51 -349t267 -138t308 139t162 355l135 829q4 27 29 27h60zM995 1675q-25 0 -40 16.5t-11 39.5q10 45 53 45
q25 0 39.5 -16.5t10.5 -41.5q-7 -43 -52 -43zM768 1675q-23 0 -38 16.5t-11 39.5q6 45 53 45q23 0 37 -16.5t12 -41.5q-10 -43 -53 -43z" />
    <glyph glyph-name="Yacute" unicode="&#xdd;" horiz-adv-x="1165" 
d="M1202 1434q12 0 18.5 -12.5t-3.5 -26.5l-568 -774l-96 -598q-4 -23 -25 -23h-61q-27 0 -23 27l95 594l-281 780q-14 33 12 33h64q27 0 35 -25l239 -676l494 678q16 23 41 23h59zM625 1604q-25 -8 -31 10l-4 14q-6 18 14 31l322 158q27 16 37 -9l16 -39q10 -29 -23 -43z
" />
    <glyph glyph-name="Thorn" unicode="&#xde;" horiz-adv-x="1107" 
d="M602 418q123 0 211 87t111 236q53 319 -219 320h-332l-103 -643h332zM182 0h-61q-27 0 -23 27l219 1384q4 23 25 23h59q29 0 25 -27l-39 -246h352q162 0 246 -113.5t52 -313.5t-154.5 -308.5t-284.5 -110.5h-344l-47 -292q-4 -23 -25 -23z" />
    <glyph glyph-name="germandbls" unicode="&#xdf;" horiz-adv-x="921" 
d="M498 -16q-112 0 -191 61q-25 23 -12 41l18 31q14 25 35 8q76 -53 133 -53q90 0 153 64q62 65 74 147q20 133 -69 238q-37 42 -75 82q-93 98 -75 199q18 102 118 178q42 32 83 64q96 74 111 160q8 62 -27 108t-129 46q-240 0 -291 -332l-157 -1001q-4 -25 -29 -25h-49
q-10 0 -19 9q-8 9 -6 20l158 1011q35 214 132 312t263 98t223 -70t39 -183t-118 -196q-41 -33 -82 -63q-154 -111 -91 -226q25 -44 62 -85t74 -88q86 -110 63 -251q-23 -142 -115 -223t-204 -81z" />
    <glyph glyph-name="agrave" unicode="&#xe0;" horiz-adv-x="991" 
d="M442 72q266 0 320 370q28 144 -12 258q-33 94 -186 94.5t-245 -109.5t-116.5 -260.5t31.5 -251.5t208 -101zM891 852q10 0 18.5 -10.5t5.5 -20.5l-127 -794q-4 -27 -26 -27h-33q-20 0 -24 35l4 94q-23 -49 -97.5 -96t-179.5 -49q-197 -6 -280.5 126t-54 320t151.5 320.5
t311 132.5t245 -113l16 51q14 31 33 31h37zM758 1022l-299 219q-25 18 -4 45l22 37q20 31 45 6l271 -256q18 -23 8 -35l-6 -12q-14 -20 -37 -4z" />
    <glyph glyph-name="aacute" unicode="&#xe1;" horiz-adv-x="991" 
d="M442 72q266 0 320 370q28 144 -12 258q-33 94 -186 94.5t-245 -109.5t-116.5 -260.5t31.5 -251.5t208 -101zM891 852q10 0 18.5 -10.5t5.5 -20.5l-127 -794q-4 -27 -26 -27h-33q-20 0 -24 35l4 94q-23 -49 -97.5 -96t-179.5 -49q-197 -6 -280.5 126t-54 320t151.5 320.5
t311 132.5t245 -113l16 51q14 31 33 31h37zM502 1022q-23 -16 -37 4l-6 12q-10 12 8 35l270 256q25 25 45 -6l23 -37q20 -27 -4 -45z" />
    <glyph glyph-name="acircumflex" unicode="&#xe2;" horiz-adv-x="991" 
d="M442 72q266 0 320 370q28 144 -12 258q-33 94 -186 94.5t-245 -109.5t-116.5 -260.5t31.5 -251.5t208 -101zM891 852q10 0 18.5 -10.5t5.5 -20.5l-127 -794q-4 -27 -26 -27h-33q-20 0 -24 35l4 94q-23 -49 -97.5 -96t-179.5 -49q-197 -6 -280.5 126t-54 320t151.5 320.5
t311 132.5t245 -113l16 51q14 31 33 31h37zM643 1307q27 0 45 -27l113 -164q18 -27 16 -41l-4 -16q-10 -39 -37 -6l-147 174l-201 -178q-26 -19 -32 -7t-1.5 35.5t23.5 42.5l166 166q23 20 51 21h8z" />
    <glyph glyph-name="atilde" unicode="&#xe3;" horiz-adv-x="991" 
d="M442 72q266 0 320 370q28 144 -12 258q-33 94 -186 94.5t-245 -109.5t-116.5 -260.5t31.5 -251.5t208 -101zM891 852q10 0 18.5 -10.5t5.5 -20.5l-127 -794q-4 -27 -26 -27h-33q-20 0 -24 35l4 94q-23 -49 -97.5 -96t-179.5 -49q-197 -6 -280.5 126t-54 320t151.5 320.5
t311 132.5t245 -113l16 51q14 31 33 31h37zM741 1061q-55 0 -127.5 51t-107.5 51q-82 0 -129 -84q-8 -16 -27 -4l-22 10q-16 8 -9 29q18 51 71.5 89t117 38t135.5 -52t105 -52q70 0 122 90q6 14 25 4l20 -12q18 -12 11 -31q-59 -127 -185 -127z" />
    <glyph glyph-name="adieresis" unicode="&#xe4;" horiz-adv-x="991" 
d="M442 72q266 0 320 370q28 144 -12 258q-33 94 -186 94.5t-245 -109.5t-116.5 -260.5t31.5 -251.5t208 -101zM891 852q10 0 18.5 -10.5t5.5 -20.5l-127 -794q-4 -27 -26 -27h-33q-20 0 -24 35l4 94q-23 -49 -97.5 -96t-179.5 -49q-197 -6 -280.5 126t-54 320t151.5 320.5
t311 132.5t245 -113l16 51q14 31 33 31h37zM737 1108q-25 0 -40 16.5t-11 38.5q10 45 53 45q25 0 39.5 -16t9.5 -41q-6 -43 -51 -43zM510 1108q-23 0 -38 16.5t-11 38.5q6 45 53 45q23 0 37 -16t12 -41q-10 -43 -53 -43z" />
    <glyph glyph-name="aring" unicode="&#xe5;" horiz-adv-x="991" 
d="M442 72q266 0 320 370q28 144 -12 258q-33 94 -186 94.5t-245 -109.5t-116.5 -260.5t31.5 -251.5t208 -101zM891 852q10 0 18.5 -10.5t5.5 -20.5l-127 -794q-4 -27 -26 -27h-33q-20 0 -24 35l4 94q-23 -49 -97.5 -96t-179.5 -49q-197 -6 -280.5 126t-54 320t151.5 320.5
t311 132.5t245 -113l16 51q14 31 33 31h37zM606 1118q63 0 76 72q6 31 -9.5 47t-39.5 16q-63 0 -74 -69q-4 -31 9 -48.5t38 -17.5zM603 1053q-54 0 -89 38.5t-26 99t52.5 94.5t97.5 34t89 -39t26 -98t-52.5 -94t-97.5 -35z" />
    <glyph glyph-name="ae" unicode="&#xe6;" horiz-adv-x="1519" 
d="M434.5 483q-104.5 0 -173 -56t-83 -147t29.5 -152.5t129 -61.5q161 0 229 86q55 69 67 148t-41 131t-157.5 52zM1102 799q-125 0 -215 -88t-121 -226l555 4q23 152 -35.5 231t-183.5 79zM1122 883q174 0 256 -122t41 -331q-6 -27 -33 -27l-634 -2q-12 -145 50 -238
t200.5 -93t252.5 108q18 18 33 2l27 -37q14 -20 -10 -43q-113 -117 -308 -116q-113 0 -193.5 48t-121.5 132q-51 -86 -142 -133t-200 -47q-156 0 -221.5 92t-43 215t109.5 197.5t249 74.5t221 -94l17 84q43 242 -183 242q-111 0 -229 -68q-23 -6 -31 14l-8 39q-4 23 10 29
q121 74 271 74q236 0 264 -172q139 172 356 172z" />
    <glyph glyph-name="ccedilla" unicode="&#xe7;" horiz-adv-x="931" 
d="M577 795q-142 0 -247 -108.5t-127.5 -254t44 -253t207 -107.5t253.5 129q18 23 38 2l35 -33q14 -18 -6 -39q-125 -139 -307 -147l-55 -86q72 18 120 -19t37.5 -113t-55.5 -115.5t-108 -39.5q-94 0 -123 80q-6 18 8 20l35 10q14 6 18 -8q14 -35 57 -35q84 0 97 89
q6 45 -23 61t-69 4h-29l-41 18q-16 8 -10 21l69 115q-160 20 -242.5 149t-53 310t164.5 309.5t328.5 128t269.5 -147.5q14 -20 -4 -33l-43 -28q-18 -12 -33 8q-63 113 -205 113z" />
    <glyph glyph-name="egrave" unicode="&#xe8;" horiz-adv-x="964" 
d="M549 799q-125 0 -215 -88t-121 -226l555 4q23 152 -35.5 231t-183.5 79zM568 883q175 0 257 -122t41 -331q-6 -27 -32 -27l-635 -2q-12 -145 50 -238t200.5 -93t252.5 108q18 18 33 2l27 -37q14 -20 -10 -43q-113 -117 -304.5 -116.5t-286.5 128.5t-62.5 328.5
t163.5 321.5t306 121zM752 1022l-299 219q-25 18 -4 45l22 37q20 31 45 6l270 -256q18 -23 9 -35l-7 -12q-13 -20 -36 -4z" />
    <glyph glyph-name="eacute" unicode="&#xe9;" horiz-adv-x="964" 
d="M549 799q-125 0 -215 -88t-121 -226l555 4q23 152 -35.5 231t-183.5 79zM568 883q175 0 257 -122t41 -331q-6 -27 -32 -27l-635 -2q-12 -145 50 -238t200.5 -93t252.5 108q18 18 33 2l27 -37q14 -20 -10 -43q-113 -117 -304.5 -116.5t-286.5 128.5t-62.5 328.5
t163.5 321.5t306 121zM496 1022q-23 -16 -37 4l-6 12q-10 12 8 35l270 256q25 25 45 -6l23 -37q20 -27 -4 -45z" />
    <glyph glyph-name="ecircumflex" unicode="&#xea;" horiz-adv-x="964" 
d="M549 799q-125 0 -215 -88t-121 -226l555 4q23 152 -35.5 231t-183.5 79zM568 883q175 0 257 -122t41 -331q-6 -27 -32 -27l-635 -2q-12 -145 50 -238t200.5 -93t252.5 108q18 18 33 2l27 -37q14 -20 -10 -43q-113 -117 -304.5 -116.5t-286.5 128.5t-62.5 328.5
t163.5 321.5t306 121zM637 1307q27 0 45 -27l113 -164q18 -27 16 -41l-4 -16q-10 -39 -37 -6l-147 174l-201 -178q-26 -19 -32 -7t-1.5 35.5t23.5 42.5l166 166q23 20 51 21h8z" />
    <glyph glyph-name="edieresis" unicode="&#xeb;" horiz-adv-x="964" 
d="M549 799q-125 0 -215 -88t-121 -226l555 4q23 152 -35.5 231t-183.5 79zM568 883q175 0 257 -122t41 -331q-6 -27 -32 -27l-635 -2q-12 -145 50 -238t200.5 -93t252.5 108q18 18 33 2l27 -37q14 -20 -10 -43q-113 -117 -304.5 -116.5t-286.5 128.5t-62.5 328.5
t163.5 321.5t306 121zM731 1108q-25 0 -40 16.5t-11 38.5q10 45 53 45q25 0 39 -16t10 -41q-6 -43 -51 -43zM504 1108q-23 0 -38 16.5t-11 38.5q6 45 53 45q23 0 37 -16t12 -41q-10 -43 -53 -43z" />
    <glyph glyph-name="igrave" unicode="&#xec;" horiz-adv-x="380" 
d="M100 0q-10 0 -18 9t-6 20l129 813q4 25 28 24h50q12 0 19 -9t5 -19l-129 -813q-4 -25 -26 -25h-52zM453 1032l-299 219q-25 18 -4 45l22 37q20 31 45 6l270 -256q18 -23 9 -34l-7 -13q-13 -20 -36 -4z" />
    <glyph glyph-name="iacute" unicode="&#xed;" horiz-adv-x="380" 
d="M100 0q-10 0 -18 9t-6 20l129 813q4 25 28 24h50q12 0 19 -9t5 -19l-129 -813q-4 -25 -26 -25h-52zM197 1032q-23 -16 -37 4l-6 13q-10 12 8 34l270 256q25 25 45 -6l23 -37q20 -27 -4 -45z" />
    <glyph glyph-name="icircumflex" unicode="&#xee;" horiz-adv-x="380" 
d="M100 0q-10 0 -18 9t-6 20l129 813q4 25 28 24h50q12 0 19 -9t5 -19l-129 -813q-4 -25 -26 -25h-52zM338 1317q27 0 45 -27l113 -164q18 -27 16 -41l-4 -16q-10 -39 -37 -6l-147 174l-201 -178q-25 -18 -32 -6t-5 18l4 21q4 20 23 38l166 166q23 20 51 21h8z" />
    <glyph glyph-name="idieresis" unicode="&#xef;" horiz-adv-x="380" 
d="M100 0q-10 0 -18 9t-6 20l129 813q4 25 28 24h50q12 0 19 -9t5 -19l-129 -813q-4 -25 -26 -25h-52zM432 1118q-25 0 -40 16.5t-11 39.5q10 45 53 45q25 0 39 -16.5t10 -41.5q-6 -43 -51 -43zM205 1118q-23 0 -38 16.5t-11 39.5q6 45 53 45q23 0 37 -16.5t12 -41.5
q-10 -43 -53 -43z" />
    <glyph glyph-name="eth" unicode="&#xf0;" horiz-adv-x="1077" 
d="M595.5 793q-147.5 0 -257 -111t-127.5 -258q-27 -139 44 -245.5t220.5 -106.5t252.5 109.5t126 253.5t-44 251t-214.5 107zM469 -16q-193 0 -294 131t-70.5 321t169 318.5t334 128.5t279.5 -170q14 305 -193 508l-110 -113q-18 -18 -37 2l-19 18q-20 16 -2 35l109 111
q-55 49 -133 90q-33 18 -17 39l21 29q23 27 55 6q82 -49 139 -99l95 97q14 14 34 -2l21 -17q16 -20 0 -37l-92 -94q315 -313 205 -850q-31 -197 -166 -324.5t-328 -127.5z" />
    <glyph glyph-name="ntilde" unicode="&#xf1;" horiz-adv-x="962" 
d="M598 883q141 0 206.5 -81t43.5 -220l-88 -557q-4 -25 -27 -25h-51q-10 0 -18.5 9t-6.5 20l78 499q44 267 -153 267q-115 0 -208 -63.5t-106 -149.5l-90 -557q-4 -25 -26 -25h-52q-10 0 -18 9t-6 20l125 798q4 25 28 25h39q20 0 21 -37l4 -70q39 55 121 96.5t184 41.5z
M725 1061q-55 0 -128 51t-108 51q-82 0 -129 -84q-8 -16 -26 -4l-23 10q-16 8 -8 29q18 51 71.5 89t117 38t135 -52t104.5 -52q70 0 123 90q6 14 25 4l20 -12q18 -12 10 -31q-59 -127 -184 -127z" />
    <glyph glyph-name="ograve" unicode="&#xf2;" horiz-adv-x="1013" 
d="M447 72q142 0 239.5 109.5t122.5 254.5q23 145 -37.5 252t-204 107t-244 -112t-120.5 -259q-25 -139 38.5 -245.5t205.5 -106.5zM441 -16q-183 0 -278 129t-65.5 321t161.5 320.5t317 128.5t277.5 -132.5t60.5 -323.5t-161 -317t-312 -126zM764 1022l-299 219
q-25 18 -4 45l22 37q20 31 45 6l271 -256q18 -23 8 -35l-6 -12q-14 -20 -37 -4z" />
    <glyph glyph-name="oacute" unicode="&#xf3;" horiz-adv-x="1013" 
d="M447 72q142 0 239.5 109.5t122.5 254.5q23 145 -37.5 252t-204 107t-244 -112t-120.5 -259q-25 -139 38.5 -245.5t205.5 -106.5zM441 -16q-183 0 -278 129t-65.5 321t161.5 320.5t317 128.5t277.5 -132.5t60.5 -323.5t-161 -317t-312 -126zM508 1022q-23 -16 -37 4l-6 12
q-10 12 8 35l270 256q25 25 45 -6l23 -37q20 -27 -4 -45z" />
    <glyph glyph-name="ocircumflex" unicode="&#xf4;" horiz-adv-x="1013" 
d="M447 72q142 0 239.5 109.5t122.5 254.5q23 145 -37.5 252t-204 107t-244 -112t-120.5 -259q-25 -139 38.5 -245.5t205.5 -106.5zM441 -16q-183 0 -278 129t-65.5 321t161.5 320.5t317 128.5t277.5 -132.5t60.5 -323.5t-161 -317t-312 -126zM649 1307q27 0 45 -27
l113 -164q18 -27 16 -41l-4 -16q-10 -39 -37 -6l-147 174l-201 -178q-26 -19 -32 -7t-1.5 35.5t23.5 42.5l166 166q23 20 51 21h8z" />
    <glyph glyph-name="otilde" unicode="&#xf5;" horiz-adv-x="1013" 
d="M447 72q142 0 239.5 109.5t122.5 254.5q23 145 -37.5 252t-204 107t-244 -112t-120.5 -259q-25 -139 38.5 -245.5t205.5 -106.5zM441 -16q-183 0 -278 129t-65.5 321t161.5 320.5t317 128.5t277.5 -132.5t60.5 -323.5t-161 -317t-312 -126zM748 1061q-55 0 -128 51
t-108 51q-82 0 -129 -84q-8 -16 -27 -4l-22 10q-16 8 -8 29q18 51 71.5 89t116.5 38t135 -52t105 -52q70 0 123 90q6 14 24 4l21 -12q18 -12 10 -31q-59 -127 -184 -127z" />
    <glyph glyph-name="odieresis" unicode="&#xf6;" horiz-adv-x="1013" 
d="M447 72q142 0 239.5 109.5t122.5 254.5q23 145 -37.5 252t-204 107t-244 -112t-120.5 -259q-25 -139 38.5 -245.5t205.5 -106.5zM441 -16q-183 0 -278 129t-65.5 321t161.5 320.5t317 128.5t277.5 -132.5t60.5 -323.5t-161 -317t-312 -126zM743 1108q-25 0 -40 16.5
t-11 38.5q10 45 53 45q25 0 39.5 -16t10.5 -41q-7 -43 -52 -43zM516 1108q-23 0 -38 16.5t-11 38.5q6 45 53 45q23 0 37 -16t12 -41q-10 -43 -53 -43z" />
    <glyph glyph-name="divide" unicode="&#xf7;" horiz-adv-x="1124" 
d="M572 539q42 0 67 -32t19 -74q-6 -41 -36 -69q-32 -28 -75 -28t-69 32t-20 74t40 69q32 28 74 28zM223 657q-10 -1 -18 9t-6 20l4 37q4 25 28 25h756q11 0 19 -10t6 -19l-4 -35q-4 -27 -29 -27h-756zM658 1071q42 0 67 -32q25 -31 19 -73t-36 -70q-32 -28 -75 -28t-69 32
t-20 74t40 70q32 28 74 27z" />
    <glyph glyph-name="oslash" unicode="&#xf8;" horiz-adv-x="1013" 
d="M686.5 181.5q97.5 109.5 125.5 273t-69 270.5l-419 -625q53 -29 122 -28q143 0 240.5 109.5zM569 795q-145 0 -245.5 -112t-120.5 -259q-31 -174 63 -279l422 623q-53 27 -119 27zM784 883h31q14 0 16.5 -12.5t-8.5 -26.5l-22 -35q74 -61 103.5 -162.5t8.5 -222.5
q-31 -188 -159.5 -314t-311.5 -126q-94 0 -172 39q-22 -40 -49 -39h-16q-20 0 -24.5 14t7.5 31l23 32q-72 59 -102.5 157.5t-12.5 217.5q31 190 163 318.5t316 128.5q92 0 166 -35q23 35 43 35z" />
    <glyph glyph-name="ugrave" unicode="&#xf9;" horiz-adv-x="966" 
d="M868 866q10 0 17.5 -9t5.5 -19l-127 -815q-2 -23 -23 -23h-34q-25 0 -25 31l-2 84q-43 -59 -118 -95t-152 -36q-178 0 -245 95t-42 255l82 508q4 25 28 24h50q12 0 19 -9t5 -19l-78 -496q-43 -270 197 -270q111 0 186.5 70.5t89.5 154.5l86 545q4 25 29 24h51zM741 1022
l-299 219q-25 18 -4 45l23 37q20 31 45 6l270 -256q18 -23 8 -35l-6 -12q-14 -20 -37 -4z" />
    <glyph glyph-name="uacute" unicode="&#xfa;" horiz-adv-x="966" 
d="M868 866q10 0 17.5 -9t5.5 -19l-127 -815q-2 -23 -23 -23h-34q-25 0 -25 31l-2 84q-43 -59 -118 -95t-152 -36q-178 0 -245 95t-42 255l82 508q4 25 28 24h50q12 0 19 -9t5 -19l-78 -496q-43 -270 197 -270q111 0 186.5 70.5t89.5 154.5l86 545q4 25 29 24h51zM485 1022
q-23 -16 -36 4l-7 12q-10 12 9 35l270 256q25 25 45 -6l22 -37q20 -27 -4 -45z" />
    <glyph glyph-name="ucircumflex" unicode="&#xfb;" horiz-adv-x="966" 
d="M868 866q10 0 17.5 -9t5.5 -19l-127 -815q-2 -23 -23 -23h-34q-25 0 -25 31l-2 84q-43 -59 -118 -95t-152 -36q-178 0 -245 95t-42 255l82 508q4 25 28 24h50q12 0 19 -9t5 -19l-78 -496q-43 -270 197 -270q111 0 186.5 70.5t89.5 154.5l86 545q4 25 29 24h51zM627 1307
q27 0 45 -27l112 -164q18 -27 17 -41l-4 -16q-10 -39 -37 -6l-148 174l-200 -178q-26 -19 -32 -7t-1.5 35.5t22.5 42.5l166 166q23 20 51 21h9z" />
    <glyph glyph-name="udieresis" unicode="&#xfc;" horiz-adv-x="966" 
d="M868 866q10 0 17.5 -9t5.5 -19l-127 -815q-2 -23 -23 -23h-34q-25 0 -25 31l-2 84q-43 -59 -118 -95t-152 -36q-178 0 -245 95t-42 255l82 508q4 25 28 24h50q12 0 19 -9t5 -19l-78 -496q-43 -270 197 -270q111 0 186.5 70.5t89.5 154.5l86 545q4 25 29 24h51zM721 1108
q-25 0 -40 16.5t-11 38.5q10 45 53 45q25 0 39 -16t10 -41q-6 -43 -51 -43zM494 1108q-23 0 -38.5 16.5t-11.5 38.5q6 45 54 45q23 0 37 -16t12 -41q-10 -43 -53 -43z" />
    <glyph glyph-name="yacute" unicode="&#xfd;" horiz-adv-x="962" 
d="M946 866q14 0 18.5 -13t-3.5 -30l-771 -1153q-14 -23 -30 -22h-56q-14 0 -19 14t7 31l273 409l-238 725q-6 14 1 26.5t24 12.5h51q16 0 26 -32l205 -629l430 643q12 18 31 18h51zM481 1022q-23 -16 -37 4l-6 12q-10 12 8 35l271 256q25 25 45 -6l22 -37q20 -27 -4 -45z
" />
    <glyph glyph-name="thorn" unicode="&#xfe;" horiz-adv-x="952" 
d="M429 72q124 0 212 102t112 257q25 155 -27 258t-175 103t-203 -102t-106 -261t19 -258q44 -99 168 -99zM565 883q174 0 246 -132t41 -327q-30 -195 -140 -318q-110 -122 -284 -122t-231 151l-74 -469q-4 -25 -29 -24h-51q-10 0 -18 9t-7 19l242 1528q4 27 27 27h55
q10 -1 17 -11t6 -20l-74 -457q100 146 274 146z" />
    <glyph glyph-name="ydieresis" unicode="&#xff;" horiz-adv-x="962" 
d="M946 866q14 0 18.5 -13t-3.5 -30l-771 -1153q-14 -23 -30 -22h-56q-14 0 -19 14t7 31l273 409l-238 725q-6 14 1 26.5t24 12.5h51q16 0 26 -32l205 -629l430 643q12 18 31 18h51zM717 1108q-25 0 -40 16.5t-11 38.5q10 45 53 45q25 0 39 -16t10 -41q-6 -43 -51 -43z
M489 1108q-23 0 -38 16.5t-11 38.5q6 45 54 45q23 0 37 -16t12 -41q-11 -43 -54 -43z" />
    <glyph glyph-name="Amacron" unicode="&#x100;" horiz-adv-x="1228" 
d="M338 434h557l-158 778zM778 1450q8 0 13 -14l299 -1397q4 -16 -6.5 -27.5t-24.5 -11.5h-49q-25 0 -25 23l-67 311h-637l-162 -314q-10 -20 -27 -20h-53q-14 0 -22.5 14.5t-0.5 30.5l732 1395q6 10 10 10h20zM633 1665q-35 0 -31 33l4 22q6 31 35 31h369q35 0 30 -33
l-4 -22q-6 -31 -32 -31h-371z" />
    <glyph glyph-name="amacron" unicode="&#x101;" horiz-adv-x="991" 
d="M442 72q266 0 320 370q28 144 -12 258q-33 94 -186 94.5t-245 -109.5t-116.5 -260.5t31.5 -251.5t208 -101zM891 852q10 0 18.5 -10.5t5.5 -20.5l-127 -794q-4 -27 -26 -27h-33q-20 0 -24 35l4 94q-23 -49 -97.5 -96t-179.5 -49q-197 -6 -280.5 126t-54 320t151.5 320.5
t311 132.5t245 -113l16 51q14 31 33 31h37zM432 1098q-35 0 -31 32l5 23q6 31 34 31h369q35 0 31 -33l-4 -23q-6 -31 -33 -30h-371z" />
    <glyph glyph-name="Abreve" unicode="&#x102;" horiz-adv-x="1228" 
d="M338 434h557l-158 778zM778 1450q8 0 13 -14l299 -1397q4 -16 -6.5 -27.5t-24.5 -11.5h-49q-25 0 -25 23l-67 311h-637l-162 -314q-10 -20 -27 -20h-53q-14 0 -22.5 14.5t-0.5 30.5l732 1395q6 10 10 10h20zM826.5 1688q60.5 0 120 47t91.5 110q8 14 25 6l41 -24
q14 -8 6 -23q-109 -193 -307 -192q-117 0 -168 55t-70 145q-2 14 13 21l45 18q18 4 20 -12q27 -112 91 -138q32 -13 92.5 -13z" />
    <glyph glyph-name="abreve" unicode="&#x103;" horiz-adv-x="991" 
d="M442 72q266 0 320 370q28 144 -12 258q-33 94 -186 94.5t-245 -109.5t-116.5 -260.5t31.5 -251.5t208 -101zM891 852q10 0 18.5 -10.5t5.5 -20.5l-127 -794q-4 -27 -26 -27h-33q-20 0 -24 35l4 94q-23 -49 -97.5 -96t-179.5 -49q-197 -6 -280.5 126t-54 320t151.5 320.5
t311 132.5t245 -113l16 51q14 31 33 31h37zM602 1044q-117 0 -168 55.5t-69 145.5q-2 14 12 21l45 18q18 4 20 -12q28 -110 92 -138q32 -14 92 -14t119.5 47t92.5 111q8 14 24 6l41 -24q14 -8 6 -23q-109 -193 -307 -193z" />
    <glyph glyph-name="Aogonek" unicode="&#x104;" horiz-adv-x="1228" 
d="M338 434h557l-158 778zM935 -399q-69 0 -116 44t-35 121t73 138t136 102q-8 6 -8 17l-67 311h-637l-162 -314q-10 -20 -27 -20h-53q-14 0 -22.5 14.5t-0.5 30.5l732 1395q6 10 10 10h20q8 0 13 -14l299 -1397q4 -16 -6.5 -27.5t-24.5 -11.5h-10q-150 -104 -168 -223
q-17 -101 95 -101q56 0 91 52q12 12 35 -9q16 -10 6 -28q-16 -35 -60 -62.5t-113 -27.5z" />
    <glyph glyph-name="aogonek" unicode="&#x105;" horiz-adv-x="991" 
d="M442 72q266 0 320 370q28 144 -12 258q-33 94 -186 94.5t-245 -109.5t-116.5 -260.5t31.5 -251.5t208 -101zM788 18q-2 0 -5 -9t-21 -9h-2q-150 -104 -168 -223q-16 -101 96 -101q56 0 90 52q12 12 35 -9q16 -10 6 -28q-16 -35 -60 -62.5t-113 -27.5t-116 44t-32 124
q20 139 215 241q-8 12 -8 25l4 94q-23 -49 -97.5 -96t-179.5 -49q-197 -6 -280.5 126t-54 320t151.5 320.5t311 132.5t245 -113l16 51q14 31 33 31h37q10 0 18 -10.5t6 -20.5l-127 -794q0 -6 -2 -9h2z" />
    <glyph glyph-name="Cacute" unicode="&#x106;" horiz-adv-x="1415" 
d="M721 -16q-293 0 -449.5 216t-107.5 521t270 517t510 212t455 -236q14 -25 -4 -38l-41 -35q-29 -20 -45 8q-39 72 -140.5 136.5t-232.5 64.5q-246 0 -432.5 -187.5t-227.5 -448.5t83 -445.5t366 -184.5q133 0 255 63.5t208 159.5q16 16 39 0l33 -35q23 -23 0 -43
q-246 -245 -539 -245zM827 1604q-25 -8 -30 10l-4 14q-6 18 14 31l321 158q27 16 37 -9l17 -39q10 -29 -23 -43z" />
    <glyph glyph-name="cacute" unicode="&#x107;" horiz-adv-x="931" 
d="M452.5 -16q-188.5 0 -286.5 133t-67.5 321t165.5 316.5t329 128.5t269 -148q14 -20 -4 -33l-43 -28q-18 -12 -33 8q-63 113 -205 113t-247 -108.5t-127.5 -254t44 -253t207 -107.5t253.5 129q18 23 38 2l35 -33q14 -18 -6 -39q-133 -147 -321.5 -147zM514 1022
q-23 -16 -37 4l-6 12q-10 12 8 35l271 256q25 25 45 -6l22 -37q20 -27 -4 -45z" />
    <glyph glyph-name="Cdotaccent" unicode="&#x10a;" horiz-adv-x="1415" 
d="M721 -16q-293 0 -449.5 216t-107.5 521t270 517t510 212t455 -236q14 -25 -4 -38l-41 -35q-29 -20 -45 8q-39 72 -140.5 136.5t-232.5 64.5q-246 0 -432.5 -187.5t-227.5 -448.5t83 -445.5t366 -184.5q133 0 255 63.5t208 159.5q16 16 39 0l33 -35q23 -23 0 -43
q-246 -245 -539 -245zM991 1665q-25 0 -41 18.5t-13 43.5t22.5 40t44 15t40 -19.5t11.5 -44.5t-21.5 -39t-42.5 -14z" />
    <glyph glyph-name="cdotaccent" unicode="&#x10b;" horiz-adv-x="931" 
d="M452.5 -16q-188.5 0 -286.5 133t-67.5 321t165.5 316.5t329 128.5t269 -148q14 -20 -4 -33l-43 -28q-18 -12 -33 8q-63 113 -205 113t-247 -108.5t-127.5 -254t44 -253t207 -107.5t253.5 129q18 23 38 2l35 -33q14 -18 -6 -39q-133 -147 -321.5 -147zM641 1214
q25 0 40 -19t11 -46q-9 -51 -63 -51q-25 0 -41.5 18.5t-13.5 43t22.5 39.5t44.5 15z" />
    <glyph glyph-name="Ccaron" unicode="&#x10c;" horiz-adv-x="1415" 
d="M721 -16q-293 0 -449.5 216t-107.5 521t270 517t510 212t455 -236q14 -25 -4 -38l-41 -35q-29 -20 -45 8q-39 72 -140.5 136.5t-232.5 64.5q-246 0 -432.5 -187.5t-227.5 -448.5t83 -445.5t366 -184.5q133 0 255 63.5t208 159.5q16 16 39 0l33 -35q23 -23 0 -43
q-246 -245 -539 -245zM971 1606q-27 0 -43 28l-111 166q-19 28 -14 48q9 44 39 12l145 -174l197 180q20 14 30.5 6t6.5 -33t-23 -43l-168 -168q-23 -23 -49 -22h-10z" />
    <glyph glyph-name="ccaron" unicode="&#x10d;" horiz-adv-x="931" 
d="M452.5 -16q-188.5 0 -286.5 133t-67.5 321t165.5 316.5t329 128.5t269 -148q14 -20 -4 -33l-43 -28q-18 -12 -33 8q-63 113 -205 113t-247 -108.5t-127.5 -254t44 -253t207 -107.5t253.5 129q18 23 38 2l35 -33q14 -18 -6 -39q-133 -147 -321.5 -147zM618 1038h-10
q-27 0 -43 29l-110 166q-19 29 -15 49t14.5 23.5t24.5 -13.5l146 -174l196 180q20 14 30.5 6t7.5 -31t-23 -44l-168 -168q-23 -23 -50 -23z" />
    <glyph glyph-name="Dcaron" unicode="&#x10e;" horiz-adv-x="1249" 
d="M502 100q461 0 559 616.5t-356 616.5h-289l-197 -1233h283zM504 0h-381q-10 0 -18.5 9t-6.5 20l219 1380q4 25 27 25h387q276 0 388 -186.5t55 -538.5q-115 -709 -670 -709zM803 1606q-27 0 -43 28l-111 166q-19 28 -14 48q9 44 39 12l145 -174l197 180q20 14 30.5 6
t6.5 -33t-23 -43l-168 -168q-23 -23 -49 -22h-10z" />
    <glyph glyph-name="dcaron" unicode="&#x10f;" horiz-adv-x="1179" 
d="M437 72q254 0 311 361t-181 362q-147 0 -243.5 -107.5t-121 -260.5t37 -254t197.5 -101zM1169 1434h113q35 0 29 -31q0 -4 -8.5 -60.5t-10.5 -60.5q-23 -135 -196 -225q-14 -6 -22.5 11t5.5 26q121 74 138 166l-78 28q-25 6 -21 29l15 86q6 31 36 31zM979 1450
q25 0 20 -31l-219 -1392q-4 -27 -26 -27h-27q-23 0 -27 39l-6 63q-109 -119 -279.5 -118.5t-258.5 128.5t-57.5 321t155.5 321.5t298 128.5t236 -125l109 665q4 27 27 27h55z" />
    <glyph glyph-name="Dcroat" unicode="&#x110;" horiz-adv-x="1249" 
d="M705 1333h-289l-90 -571h325q33 0 27 -31l-4 -33q-2 -31 -35 -30h-330l-90 -568h283q461 0 559 616.5t-356 616.5zM731 1434q276 0 388 -186.5t55 -538.5q-115 -709 -670 -709h-381q-10 0 -18.5 9t-6.5 20l103 639h-54q-33 0 -28 32l2 33q2 29 37 29h57l102 647
q4 25 27 25h387z" />
    <glyph glyph-name="dcroat" unicode="&#x111;" horiz-adv-x="1054" 
d="M437 72q254 0 311 361t-181 362q-147 0 -243.5 -107.5t-121 -260.5t37 -254t197.5 -101zM1085 1214q33 0 29 -32l-4 -23q-6 -29 -35 -29h-121l-174 -1103q-4 -27 -26 -27h-27q-23 0 -27 39l-6 63q-109 -119 -279.5 -118.5t-258.5 128.5t-57.5 321t155.5 321.5t298 128.5
t236 -125l62 372h-115q-33 0 -28 33l4 23q4 29 32 28h119l35 209q4 27 27 27h55q25 0 20 -31l-32 -205h118z" />
    <glyph glyph-name="Emacron" unicode="&#x112;" horiz-adv-x="1015" 
d="M815 100q10 0 18.5 -8t6.5 -18l-9 -51q-4 -23 -26 -23h-682q-10 0 -18.5 9t-6.5 20l219 1380q4 25 27 25h682q10 0 18.5 -9.5t6.5 -19.5l-9 -51q-2 -20 -26 -21h-600l-90 -565h430q10 0 18 -8t6 -19l-8 -51q-4 -23 -29 -22h-434l-90 -568h596zM532 1665q-35 0 -30 33
l4 22q6 31 35 31h368q35 0 31 -33l-4 -22q-6 -31 -33 -31h-371z" />
    <glyph glyph-name="emacron" unicode="&#x113;" horiz-adv-x="964" 
d="M549 799q-125 0 -215 -88t-121 -226l555 4q23 152 -35.5 231t-183.5 79zM568 883q175 0 257 -122t41 -331q-6 -27 -32 -27l-635 -2q-12 -145 50 -238t200.5 -93t252.5 108q18 18 33 2l27 -37q14 -20 -10 -43q-113 -117 -304.5 -116.5t-286.5 128.5t-62.5 328.5
t163.5 321.5t306 121zM426 1098q-35 0 -31 32l4 23q6 31 35 31h369q35 0 31 -33l-5 -23q-6 -31 -32 -30h-371z" />
    <glyph glyph-name="Edotaccent" unicode="&#x116;" horiz-adv-x="1015" 
d="M815 100q10 0 18.5 -8t6.5 -18l-9 -51q-4 -23 -26 -23h-682q-10 0 -18.5 9t-6.5 20l219 1380q4 25 27 25h682q10 0 18.5 -9.5t6.5 -19.5l-9 -51q-2 -20 -26 -21h-600l-90 -565h430q10 0 18 -8t6 -19l-8 -51q-4 -23 -29 -22h-434l-90 -568h596zM729.5 1782
q24.5 0 39.5 -19.5t11 -46.5q-9 -51 -63 -51q-25 0 -41.5 18.5t-13 43.5t23 40t44 15z" />
    <glyph glyph-name="edotaccent" unicode="&#x117;" horiz-adv-x="964" 
d="M549 799q-125 0 -215 -88t-121 -226l555 4q23 152 -35.5 231t-183.5 79zM568 883q175 0 257 -122t41 -331q-6 -27 -32 -27l-635 -2q-12 -145 50 -238t200.5 -93t252.5 108q18 18 33 2l27 -37q14 -20 -10 -43q-113 -117 -304.5 -116.5t-286.5 128.5t-62.5 328.5
t163.5 321.5t306 121zM610 1098q-25 0 -41 18.5t-13 43t22.5 39.5t44.5 15t40 -19t11 -44t-21.5 -39t-42.5 -14z" />
    <glyph glyph-name="Eogonek" unicode="&#x118;" horiz-adv-x="1015" 
d="M1026 1434q10 0 18.5 -9.5t6.5 -19.5l-9 -51q-2 -20 -26 -21h-600l-90 -565h430q10 0 18 -8t6 -19l-8 -51q-4 -23 -29 -22h-434l-90 -568h596q10 0 18.5 -8t6.5 -18l-9 -51q-4 -23 -26 -23h-86q-150 -104 -168 -223q-17 -101 95 -101q56 0 91 52q12 12 35 -9
q16 -10 6 -28q-16 -35 -60 -62.5t-113 -27.5t-116 44t-32 124q20 133 196 231h-530q-10 0 -18.5 9t-6.5 20l219 1380q4 25 27 25h682z" />
    <glyph glyph-name="eogonek" unicode="&#x119;" horiz-adv-x="964" 
d="M549 799q-125 0 -215 -88t-121 -226l555 4q23 152 -35.5 231t-183.5 79zM568 883q175 0 257 -122t41 -331q-6 -27 -32 -27l-635 -2q-12 -145 50 -238t200.5 -93t252.5 108q18 18 33 2l27 -37q14 -20 -10 -43q-49 -49 -125 -82q-66 -39 -126.5 -104.5t-69.5 -124.5
t14.5 -86t80 -27t90.5 52q12 12 35 -9q16 -10 6 -28q-16 -35 -60 -62.5t-112.5 -27.5t-115.5 44t-33 124q18 123 176 219q-45 -4 -68 -4q-188 0 -283 128t-62.5 328.5t163.5 321.5t306 121z" />
    <glyph glyph-name="Ecaron" unicode="&#x11a;" horiz-adv-x="1015" 
d="M815 100q10 0 18.5 -8t6.5 -18l-9 -51q-4 -23 -26 -23h-682q-10 0 -18.5 9t-6.5 20l219 1380q4 25 27 25h682q10 0 18.5 -9.5t6.5 -19.5l-9 -51q-2 -20 -26 -21h-600l-90 -565h430q10 0 18 -8t6 -19l-8 -51q-4 -23 -29 -22h-434l-90 -568h596zM696 1606q-27 0 -43 28
l-110 166q-19 29 -15 49q9 45 39 11l146 -174l196 180q20 14 30.5 6t6.5 -33t-22 -43l-168 -168q-23 -23 -49 -22h-11z" />
    <glyph glyph-name="ecaron" unicode="&#x11b;" horiz-adv-x="964" 
d="M549 799q-125 0 -215 -88t-121 -226l555 4q23 152 -35.5 231t-183.5 79zM568 883q175 0 257 -122t41 -331q-6 -27 -32 -27l-635 -2q-12 -145 50 -238t200.5 -93t252.5 108q18 18 33 2l27 -37q14 -20 -10 -43q-113 -117 -304.5 -116.5t-286.5 128.5t-62.5 328.5
t163.5 321.5t306 121zM600 1038h-10q-27 0 -43 29l-111 166q-19 28 -14 48q9 45 39 11l145 -174l197 180q20 14 30.5 6t6.5 -31t-23 -44l-168 -168q-23 -23 -49 -23z" />
    <glyph glyph-name="Gbreve" unicode="&#x11e;" horiz-adv-x="1433" 
d="M1286 680q27 0 23 -27l-74 -469q-4 -18 -16 -28q-74 -74 -210.5 -123t-274.5 -49t-251.5 54t-193.5 148.5t-115 234.5t-10 302q51 317 284.5 522t501.5 205q224 0 381 -166q78 -82 55 -102l-47 -39q-23 -20 -38 4.5t-38.5 50t-67.5 64t-113.5 63.5t-147.5 25
q-233 0 -424 -190.5t-233 -447.5t88.5 -442.5t369.5 -185.5q123 0 232.5 42t165.5 105l55 351h-275q-29 0 -24 26l8 49q4 23 29 23h360zM992.5 1688q60.5 0 119.5 47t92 110q8 14 25 6l41 -24q14 -8 6 -23q-109 -193 -307 -192q-117 0 -168 55t-70 145q-2 14 12 21l45 18
q18 4 21 -12q27 -112 91 -138q32 -13 92.5 -13z" />
    <glyph glyph-name="gbreve" unicode="&#x11f;" horiz-adv-x="993" 
d="M451 72q254 0 309 358q27 176 -16.5 270.5t-186 94.5t-235.5 -107.5t-118.5 -260.5t35 -254t212.5 -101zM893 852q10 0 17.5 -10.5t4.5 -20.5l-139 -884q-27 -170 -135.5 -263.5t-263.5 -93.5q-229 0 -307 205q-6 20 6 29l47 30q20 10 29 -12q20 -45 38.5 -72.5
t67.5 -58.5t117 -31q115 0 198.5 77t104.5 210l24 154q-102 -127 -284 -127t-266 129t-54.5 318t153.5 320.5t304 131.5q98 0 159.5 -39t86.5 -96l24 73q10 31 29 31h39zM640.5 1122q60.5 0 119.5 47.5t92 110.5q8 14 25 6l41 -24q14 -8 6 -23q-109 -193 -308 -192
q-117 0 -168 55t-69 145q-2 14 12 21l45 18q18 4 21 -12q27 -112 91 -138q32 -14 92.5 -14z" />
    <glyph glyph-name="Gdotaccent" unicode="&#x120;" horiz-adv-x="1433" 
d="M1286 680q27 0 23 -27l-74 -469q-4 -18 -16 -28q-74 -74 -210.5 -123t-274.5 -49t-251.5 54t-193.5 148.5t-115 234.5t-10 302q51 317 284.5 522t501.5 205q224 0 381 -166q78 -82 55 -102l-47 -39q-23 -20 -38 4.5t-38.5 50t-67.5 64t-113.5 63.5t-147.5 25
q-233 0 -424 -190.5t-233 -447.5t88.5 -442.5t369.5 -185.5q123 0 232.5 42t165.5 105l55 351h-275q-29 0 -24 26l8 49q4 23 29 23h360zM983 1665q-25 0 -41 18.5t-13 43.5t22.5 40t44 15t40 -19.5t11.5 -44.5t-21.5 -39t-42.5 -14z" />
    <glyph glyph-name="gdotaccent" unicode="&#x121;" horiz-adv-x="993" 
d="M451 72q254 0 309 358q27 176 -16.5 270.5t-186 94.5t-235.5 -107.5t-118.5 -260.5t35 -254t212.5 -101zM893 852q10 0 17.5 -10.5t4.5 -20.5l-139 -884q-27 -170 -135.5 -263.5t-263.5 -93.5q-229 0 -307 205q-6 20 6 29l47 30q20 10 29 -12q20 -45 38.5 -72.5
t67.5 -58.5t117 -31q115 0 198.5 77t104.5 210l24 154q-102 -127 -284 -127t-266 129t-54.5 318t153.5 320.5t304 131.5q98 0 159.5 -39t86.5 -96l24 73q10 31 29 31h39zM643 1217q25 0 40 -19.5t11 -46.5q-9 -51 -63 -51q-25 0 -41.5 18.5t-13 43t22.5 40t44 15.5z" />
    <glyph glyph-name="Gcommaaccent" unicode="&#x122;" horiz-adv-x="1433" 
d="M659 -129h68q31 0 29 -31l-15 -92q-10 -51 -51 -92t-100 -57q-14 -2 -16.5 13t12.5 21q78 35 90 109l-41 18q-23 12 -19 37l7 43q6 31 36 31zM1286 680q27 0 23 -27l-74 -469q-4 -18 -16 -28q-74 -74 -210.5 -123t-274.5 -49t-251.5 54t-193.5 148.5t-115 234.5t-10 302
q51 317 284.5 522t501.5 205q224 0 381 -166q78 -82 55 -102l-47 -39q-23 -20 -38 4.5t-38.5 50t-67.5 64t-113.5 63.5t-147.5 25q-233 0 -424 -190.5t-233 -447.5t88.5 -442.5t369.5 -185.5q123 0 232.5 42t165.5 105l55 351h-275q-29 0 -24 26l8 49q4 23 29 23h360z" />
    <glyph glyph-name="gcommaaccent" unicode="&#x123;" horiz-adv-x="993" 
d="M451 72q254 0 309 358q27 176 -16.5 270.5t-186 94.5t-235.5 -107.5t-118.5 -260.5t35 -254t212.5 -101zM893 852q10 0 17.5 -10.5t4.5 -20.5l-139 -884q-27 -170 -135.5 -263.5t-263.5 -93.5q-229 0 -307 205q-6 20 6 29l47 30q20 10 29 -12q20 -45 38.5 -72.5
t67.5 -58.5t117 -31q115 0 198.5 77t104.5 210l24 154q-102 -127 -284 -127t-266 129t-54.5 318t153.5 320.5t304 131.5q98 0 159.5 -39t86.5 -96l24 73q10 31 29 31h39zM653 1104h-67q-33 0 -29 31l14 92q10 51 51.5 92t100.5 57q14 2 16 -13t-12 -22q-78 -35 -90 -108
l41 -19q23 -12 18 -36l-6 -43q-6 -31 -37 -31z" />
    <glyph glyph-name="Hbar" unicode="&#x126;" horiz-adv-x="1304" 
d="M307 662h762l33 198h-762zM1278 1434q25 0 20 -29l-219 -1380q-4 -25 -22 -25h-66q-25 0 -20 29l82 536h-760l-86 -540q-4 -25 -23 -25h-65q-25 0 -21 29l219 1380q4 25 23 25h66q25 0 20 -29l-72 -449h762l72 453q4 25 24 25h66z" />
    <glyph glyph-name="hbar" unicode="&#x127;" horiz-adv-x="1028" 
d="M647 883q137 0 212 -87t46 -266l-82 -505q-4 -25 -26 -25h-52q-10 0 -18 9t-6 20l78 487q43 279 -170 279q-113 0 -198 -69t-95 -136l-90 -565q-4 -25 -27 -25h-51q-10 0 -18.5 9t-6.5 20l174 1101h-112q-35 0 -31 23l4 35q2 27 35 26h119l33 211q4 25 28 25h49
q12 0 19.5 -9t5.5 -20l-33 -207h119q16 0 24.5 -6t6.5 -20l-4 -35q-2 -23 -35 -23h-125l-60 -376q35 51 118 90t169 39z" />
    <glyph glyph-name="Imacron" unicode="&#x12a;" horiz-adv-x="436" 
d="M117 0q-23 0 -19 29l219 1380q4 25 23 25h68q25 0 20 -29l-219 -1380q-4 -25 -23 -25h-69zM240 1665q-35 0 -31 33l4 22q6 31 35 31h368q35 0 31 -33l-4 -22q-6 -31 -33 -31h-370z" />
    <glyph glyph-name="imacron" unicode="&#x12b;" horiz-adv-x="380" 
d="M100 0q-10 0 -18 9t-6 20l129 813q4 25 28 24h50q12 0 19 -9t5 -19l-129 -813q-4 -25 -26 -25h-52zM127 1108q-35 0 -31 33l4 22q6 31 35 31h369q35 0 31 -33l-5 -22q-6 -31 -32 -31h-371z" />
    <glyph glyph-name="Iogonek" unicode="&#x12e;" horiz-adv-x="436" 
d="M98 -324q56 0 90 52q12 12 35 -9q16 -10 6 -28q-16 -35 -60 -62.5t-113 -27.5t-115.5 44t-32.5 124q20 133 201 233q-14 6 -11 27l219 1380q4 25 23 25h68q25 0 20 -29l-219 -1380q-4 -25 -23 -25h-16q-150 -104 -168 -223q-17 -101 96 -101z" />
    <glyph glyph-name="iogonek" unicode="&#x12f;" horiz-adv-x="380" 
d="M283 866q12 0 19 -9t5 -19l-129 -813q-4 -25 -26 -25h-13q-150 -104 -168 -223q-17 -101 95 -101q56 0 92 52q11 11 31 -4t10 -33q-16 -35 -60.5 -62.5t-113 -27.5t-115.5 44t-33 124q20 137 207 237q-10 10 -8 23l129 813q4 25 28 24h50zM325 1233q26 0 41 -19.5
t11 -48.5q-8 -51 -64 -51q-27 0 -43 18.5t-13 44.5t22.5 41t45.5 15z" />
    <glyph glyph-name="Idotaccent" unicode="&#x130;" horiz-adv-x="436" 
d="M117 0q-23 0 -19 29l219 1380q4 25 23 25h68q25 0 20 -29l-219 -1380q-4 -25 -23 -25h-69zM424 1665q-25 0 -41 18.5t-13 43.5t22.5 40t44 15t40 -19.5t10.5 -46.5q-9 -51 -63 -51z" />
    <glyph glyph-name="dotlessi" unicode="&#x131;" horiz-adv-x="380" 
d="M100 0q-10 0 -18 9t-6 20l129 813q4 25 28 24h50q12 0 19 -9t5 -19l-129 -813q-4 -25 -26 -25h-52z" />
    <glyph glyph-name="Kcommaaccent" unicode="&#x136;" horiz-adv-x="1110" 
d="M430 -129h68q30 0 28 -31l-14 -92q-10 -51 -51 -92t-101 -57q-14 -2 -16 13t12 21q78 35 90 109l-40 18q-23 12 -19 37l6 43q6 31 37 31zM184 0h-65q-25 0 -21 29l219 1380q4 25 23 25h66q25 0 20 -29l-102 -643l690 647q27 25 53 25h76q10 0 14 -12.5t-4 -20.5
l-731 -684l518 -690q8 -8 5 -17.5t-15 -9.5h-84q-18 0 -43 29l-492 651l-104 -657q-4 -23 -23 -23z" />
    <glyph glyph-name="kcommaaccent" unicode="&#x137;" horiz-adv-x="839" 
d="M299 -129h68q30 0 28 -31l-14 -92q-10 -51 -51 -92t-101 -57q-14 -2 -16 13t12 21q78 35 90 109l-41 18q-23 12 -18 37l6 43q6 31 37 31zM676 0h-58q-29 0 -51 31l-319 430l-70 -436q-4 -25 -26 -25h-52q-10 0 -18 9t-6 20l221 1396q4 25 29 25h49q12 0 19 -9t5 -20
l-143 -899l387 316q33 29 55 28h62q18 0 20 -15t-14 -28l-416 -338l336 -454q8 -12 5 -21.5t-15 -9.5z" />
    <glyph glyph-name="Lacute" unicode="&#x139;" horiz-adv-x="970" 
d="M793 100q10 0 17 -9t5 -19l-8 -47q-4 -25 -27 -25h-657q-10 0 -18.5 9t-6.5 20l217 1378q6 27 25 27h66q25 0 20 -31l-207 -1303h574zM532 1604q-25 -8 -30 10l-4 14q-6 18 14 31l322 158q27 16 36 -9l17 -39q10 -29 -23 -43z" />
    <glyph glyph-name="lacute" unicode="&#x13a;" horiz-adv-x="380" 
d="M100 0q-10 0 -18 9t-6 20l221 1396q4 25 29 25h49q12 0 19 -9t5 -20l-221 -1396q-4 -25 -26 -25h-52zM233 1604q-25 -8 -30 10l-4 14q-6 18 14 31l322 158q27 16 36 -9l17 -39q10 -29 -23 -43z" />
    <glyph glyph-name="Lcommaaccent" unicode="&#x13b;" horiz-adv-x="970" 
d="M401 -129h68q31 0 29 -31l-15 -92q-10 -51 -51 -92t-100 -57q-14 -2 -16.5 13t12.5 21q78 35 90 109l-41 18q-23 12 -19 37l7 43q6 31 36 31zM793 100q10 0 17 -9t5 -19l-8 -47q-4 -25 -27 -25h-657q-10 0 -18.5 9t-6.5 20l217 1378q6 27 25 27h66q25 0 20 -31
l-207 -1303h574z" />
    <glyph glyph-name="lcommaaccent" unicode="&#x13c;" horiz-adv-x="380" 
d="M68 -129h67q33 0 29 -31l-14 -92q-10 -51 -51.5 -92t-100.5 -57q-14 -2 -16 13t12 21q78 35 90 109l-41 18q-23 12 -18 37l6 43q6 31 37 31zM100 0q-10 0 -18 9t-6 20l221 1396q4 25 29 25h49q12 0 19 -9t5 -20l-221 -1396q-4 -25 -26 -25h-52z" />
    <glyph glyph-name="Lcaron" unicode="&#x13d;" horiz-adv-x="970" 
d="M793 100q10 0 17 -9t5 -19l-8 -47q-4 -25 -27 -25h-657q-10 0 -18.5 9t-6.5 20l217 1378q6 27 25 27h66q25 0 20 -31l-207 -1303h574zM676 1606q-27 0 -43 28l-111 166q-19 28 -14 48q9 44 39 12l145 -174l197 180q20 14 30.5 6t6.5 -33t-23 -43l-168 -168
q-23 -23 -49 -22h-10z" />
    <glyph glyph-name="lcaron" unicode="&#x13e;" horiz-adv-x="380" 
d="M100 0q-10 0 -18 9t-6 20l221 1396q4 25 29 25h49q12 0 19 -9t5 -20l-221 -1396q-4 -25 -26 -25h-52zM377 1606q-27 0 -43 28l-111 166q-19 28 -14 48q9 44 39 12l145 -174l197 180q20 14 30.5 6t6.5 -33t-23 -43l-168 -168q-23 -23 -49 -22h-10z" />
    <glyph glyph-name="Ldot" unicode="&#x13f;" horiz-adv-x="1028" 
d="M537 600q-35 0 -29 33l12 74q6 33 37 32h72q35 0 28 -32l-12 -74q-6 -33 -37 -33h-71zM793 100q10 0 17 -9t5 -19l-8 -47q-4 -25 -27 -25h-657q-10 0 -18.5 9t-6.5 20l217 1378q6 27 25 27h66q25 0 20 -31l-207 -1303h574z" />
    <glyph glyph-name="ldot" unicode="&#x140;" horiz-adv-x="550" 
d="M410 600q-35 0 -29 33l12 74q6 33 37 32h72q35 0 28 -32l-12 -74q-6 -33 -37 -33h-71zM100 0q-10 0 -18 9t-6 20l221 1396q4 25 29 25h49q12 0 19 -9t5 -20l-221 -1396q-4 -25 -26 -25h-52z" />
    <glyph glyph-name="Lslash" unicode="&#x141;" horiz-adv-x="1038" 
d="M860 100q10 0 17.5 -9t5.5 -19l-9 -47q-4 -25 -26 -25h-658q-10 0 -18 9t-6 20l94 596l-117 -82q-23 -18 -43 8l-12 24q-18 27 6 43l185 130l104 659q6 27 25 27h65q25 0 21 -31l-91 -569l117 81q12 8 25.5 5.5t17.5 -13.5l12 -22q12 -31 -6 -43l-186 -131l-96 -611h573z
" />
    <glyph glyph-name="lslash" unicode="&#x142;" horiz-adv-x="561" 
d="M240 0h-52q-10 0 -18 9t-6 20l94 592l-117 -86q-23 -18 -39 4l-20 28q-14 20 10 37l184 137l109 684q4 25 29 25h49q12 0 20.5 -9t3.5 -20l-94 -594l117 86q27 16 41 -2l18 -32q12 -20 -10 -37l-184 -135l-109 -682q-4 -25 -26 -25z" />
    <glyph glyph-name="Nacute" unicode="&#x143;" horiz-adv-x="1320" 
d="M1290 1434q10 0 17.5 -9.5t5.5 -19.5l-219 -1382q-4 -23 -25 -23h-47q-16 0 -33 29l-592 1192l-190 -1198q-4 -23 -23 -23h-65q-25 0 -21 27l219 1382q4 25 25 25h47q20 0 35 -33l590 -1186l190 1194q4 25 21 25h65zM700 1604q-25 -8 -30 10l-4 14q-6 18 14 31l321 158
q27 16 37 -9l17 -39q10 -29 -23 -43z" />
    <glyph glyph-name="nacute" unicode="&#x144;" horiz-adv-x="962" 
d="M598 883q141 0 206.5 -81t43.5 -220l-88 -557q-4 -25 -27 -25h-51q-10 0 -18.5 9t-6.5 20l78 499q44 267 -153 267q-115 0 -208 -63.5t-106 -149.5l-90 -557q-4 -25 -26 -25h-52q-10 0 -18 9t-6 20l125 798q4 25 28 25h39q20 0 21 -37l4 -70q39 55 121 96.5t184 41.5z
M485 1022q-23 -16 -36 4l-7 12q-10 12 9 35l270 256q25 25 45 -6l22 -37q20 -27 -4 -45z" />
    <glyph glyph-name="Ncommaaccent" unicode="&#x145;" horiz-adv-x="1320" 
d="M539 -129h67q33 0 29 -31l-14 -92q-10 -51 -51.5 -92t-100.5 -57q-14 -2 -16 13t12 21q78 35 90 109l-41 18q-23 12 -18 37l6 43q6 31 37 31zM1290 1434q10 0 17.5 -9.5t5.5 -19.5l-219 -1382q-4 -23 -25 -23h-47q-16 0 -33 29l-592 1192l-190 -1198q-4 -23 -23 -23h-65
q-25 0 -21 27l219 1382q4 25 25 25h47q20 0 35 -33l590 -1186l190 1194q4 25 21 25h65z" />
    <glyph glyph-name="ncommaaccent" unicode="&#x146;" horiz-adv-x="962" 
d="M360 -129h68q31 0 29 -31l-15 -92q-10 -51 -51 -92t-100 -57q-14 -2 -16.5 13t12.5 21q78 35 90 109l-41 18q-23 12 -19 37l7 43q6 31 36 31zM598 883q141 0 206.5 -81t43.5 -220l-88 -557q-4 -25 -27 -25h-51q-10 0 -18.5 9t-6.5 20l78 499q44 267 -153 267
q-115 0 -208 -63.5t-106 -149.5l-90 -557q-4 -25 -26 -25h-52q-10 0 -18 9t-6 20l125 798q4 25 28 25h39q20 0 21 -37l4 -70q39 55 121 96.5t184 41.5z" />
    <glyph glyph-name="Ncaron" unicode="&#x147;" horiz-adv-x="1320" 
d="M1290 1434q10 0 17.5 -9.5t5.5 -19.5l-219 -1382q-4 -23 -25 -23h-47q-16 0 -33 29l-592 1192l-190 -1198q-4 -23 -23 -23h-65q-25 0 -21 27l219 1382q4 25 25 25h47q20 0 35 -33l590 -1186l190 1194q4 25 21 25h65zM844 1606q-27 0 -43 28l-111 166q-19 28 -14 48
q9 44 39 12l145 -174l197 180q20 14 30.5 6t6.5 -33t-23 -43l-168 -168q-23 -23 -49 -22h-10z" />
    <glyph glyph-name="ncaron" unicode="&#x148;" horiz-adv-x="962" 
d="M598 883q141 0 206.5 -81t43.5 -220l-88 -557q-4 -25 -27 -25h-51q-10 0 -18.5 9t-6.5 20l78 499q44 267 -153 267q-115 0 -208 -63.5t-106 -149.5l-90 -557q-4 -25 -26 -25h-52q-10 0 -18 9t-6 20l125 798q4 25 28 25h39q20 0 21 -37l4 -70q39 55 121 96.5t184 41.5z
M590 1038h-10q-27 0 -43 29l-111 166q-19 28 -14 48q9 45 39 11l145 -174l197 180q20 14 30 6t7 -31t-23 -44l-168 -168q-23 -23 -49 -23z" />
    <glyph glyph-name="Eng" unicode="&#x14a;" horiz-adv-x="1320" 
d="M1284 1434q27 0 23 -31l-236 -1481q-18 -106 -174 -209q-23 -14 -37 6l-26 37q-10 18 8 33q117 74 133 166q12 63 -17 123l-567 1139l-190 -1192q-4 -25 -23 -25h-61q-29 0 -25 31l219 1378q4 25 25 25h49q16 0 33 -33l592 -1186l188 1194q2 25 23 25h63z" />
    <glyph glyph-name="eng" unicode="&#x14b;" horiz-adv-x="999" 
d="M631.5 883q132.5 0 204 -81t47.5 -220l-92 -588q-8 -57 -36 -105.5t-52.5 -71t-71.5 -61.5q-20 -14 -39 4l-21 27q-12 16 2 39q102 90 111 160l88 542q23 145 -22 206t-161 61t-212 -63.5t-109 -149.5l-90 -557q-4 -25 -26 -25h-52q-10 0 -18 9t-6 20l125 798q6 25 28 25
h35q20 0 21 -37l4 -70q41 55 125.5 96.5t217 41.5z" />
    <glyph glyph-name="Omacron" unicode="&#x14c;" horiz-adv-x="1572" 
d="M726 84q249 0 432 189.5t224 446.5t-79.5 443.5t-369.5 186.5t-432.5 -191.5t-224.5 -448.5t80 -441.5t370 -184.5zM720 -16q-288 0 -446.5 214t-109.5 522t270 519t509 211t445.5 -216t108.5 -524t-269 -517t-508 -209zM805 1665q-35 0 -31 33l4 22q6 31 35 31h369
q35 0 30 -33l-4 -22q-6 -31 -32 -31h-371z" />
    <glyph glyph-name="omacron" unicode="&#x14d;" horiz-adv-x="1013" 
d="M447 72q142 0 239.5 109.5t122.5 254.5q23 145 -37.5 252t-204 107t-244 -112t-120.5 -259q-25 -139 38.5 -245.5t205.5 -106.5zM441 -16q-183 0 -278 129t-65.5 321t161.5 320.5t317 128.5t277.5 -132.5t60.5 -323.5t-161 -317t-312 -126zM438 1098q-35 0 -30 32l4 23
q6 31 34 31h369q35 0 31 -33l-4 -23q-6 -31 -33 -30h-371z" />
    <glyph glyph-name="Ohungarumlaut" unicode="&#x150;" horiz-adv-x="1572" 
d="M726 84q249 0 432 189.5t224 446.5t-79.5 443.5t-369.5 186.5t-432.5 -191.5t-224.5 -448.5t80 -441.5t370 -184.5zM720 -16q-288 0 -446.5 214t-109.5 522t270 519t509 211t445.5 -216t108.5 -524t-269 -517t-508 -209zM1014 1593q-20 -16 -35 9l-8 10q-10 16 18 39
l223 188q12 8 24.5 4t16.5 -16l19 -37q8 -25 -17 -41zM801 1593q-18 -10 -31 4l-10 13q-14 18 14 41l225 188q29 20 43 -12l19 -37q12 -27 -12 -41z" />
    <glyph glyph-name="ohungarumlaut" unicode="&#x151;" horiz-adv-x="1013" 
d="M447 72q142 0 239.5 109.5t122.5 254.5q23 145 -37.5 252t-204 107t-244 -112t-120.5 -259q-25 -139 38.5 -245.5t205.5 -106.5zM441 -16q-183 0 -278 129t-65.5 321t161.5 320.5t317 128.5t277.5 -132.5t60.5 -323.5t-161 -317t-312 -126zM434 1049q-14 -18 -37.5 0
t-5.5 45l180 233q16 27 43 0l27 -24q18 -23 -2 -46zM678 1049l-10 6q-16 12 0 41l180 233q18 25 43 0l27 -24q20 -23 -3 -45l-202 -209q-17 -16 -35 -2z" />
    <glyph glyph-name="OE" unicode="&#x152;" horiz-adv-x="1763" 
d="M723 84q76 0 131 16l197 1237q-49 12 -119 13q-248 -2 -431.5 -190.5t-224 -446.5t79 -443.5t367.5 -185.5zM1772 1434q10 0 18 -9.5t6 -19.5l-8 -51q-2 -20 -27 -21h-600l-90 -565h430q10 0 18.5 -8t6.5 -19l-8 -51q-4 -23 -29 -22h-434l-90 -568h596q10 0 18 -8t6 -18
l-8 -51q-4 -23 -27 -23h-680q-82 -16 -151 -16q-283 0 -444.5 214t-111.5 524t272 519t501 209q80 0 151 -16h685z" />
    <glyph glyph-name="oe" unicode="&#x153;" horiz-adv-x="1677" 
d="M447 72q142 0 239.5 109.5t122.5 254.5q23 145 -37.5 252t-204 107t-244 -112t-120.5 -259q-25 -139 38.5 -245.5t205.5 -106.5zM1261.5 799q-124.5 0 -215 -88t-120.5 -226l555 4q23 152 -36 231t-183.5 79zM1282 883q174 0 256 -122t41 -331q-6 -27 -33 -27l-635 -2
q-12 -145 50.5 -238t200.5 -93t253 108q18 18 33 2l27 -37q14 -20 -11 -43q-113 -117 -307 -116q-123 0 -209 57t-121 158q-66 -100 -165 -157.5t-220 -57.5q-184 0 -279 129t-65.5 321t161.5 320.5t316 128.5q121 0 203 -56.5t119 -156.5q139 213 385 213z" />
    <glyph glyph-name="Racute" unicode="&#x154;" horiz-adv-x="1122" 
d="M614 653q283 0 337 340t-203 340h-332l-109 -680h307zM901 0h-63q-18 0 -31 27l-164 526h-352l-84 -530q-4 -23 -25 -23h-61q-27 0 -23 27l219 1382q4 25 25 25h459q139 0 218 -115t46 -328q-57 -344 -313 -422l166 -542q8 -27 -17 -27zM606 1604q-25 -8 -31 10l-4 14
q-6 18 15 31l321 158q27 16 37 -9l17 -39q10 -29 -23 -43z" />
    <glyph glyph-name="racute" unicode="&#x155;" horiz-adv-x="679" 
d="M504 795q-98 0 -164 -82t-80 -176l-82 -512q-4 -25 -26 -25h-52q-10 0 -18 9t-6 20l125 798q4 25 28 25h29q18 0 23 -37l4 -70q35 47 97 92.5t144 45.5t129 -43q16 -12 7 -25l-29 -45q-12 -14 -29 -4q-57 29 -100 29zM369 1022q-23 -16 -37 4l-6 12q-10 12 8 35l270 256
q25 25 45 -6l23 -37q20 -27 -4 -45z" />
    <glyph glyph-name="Rcommaaccent" unicode="&#x156;" horiz-adv-x="1122" 
d="M449 -129h67q33 0 29 -31l-15 -92q-10 -51 -51 -92t-100 -57q-14 -2 -16.5 13t12.5 21q78 35 90 109l-41 18q-23 12 -18 37l6 43q6 31 37 31zM614 653q283 0 337 340t-203 340h-332l-109 -680h307zM901 0h-63q-18 0 -31 27l-164 526h-352l-84 -530q-4 -23 -25 -23h-61
q-27 0 -23 27l219 1382q4 25 25 25h459q139 0 218 -115t46 -328q-57 -344 -313 -422l166 -542q8 -27 -17 -27z" />
    <glyph glyph-name="rcommaaccent" unicode="&#x157;" horiz-adv-x="679" 
d="M244 -129h67q33 0 29 -31l-14 -92q-10 -51 -51.5 -92t-100.5 -57q-14 -2 -16 13t12 21q78 35 90 109l-41 18q-23 12 -18 37l6 43q6 31 37 31zM504 795q-98 0 -164 -82t-80 -176l-82 -512q-4 -25 -26 -25h-52q-10 0 -18 9t-6 20l125 798q4 25 28 25h29q18 0 23 -37l4 -70
q35 47 97 92.5t144 45.5t129 -43q16 -12 7 -25l-29 -45q-12 -14 -29 -4q-57 29 -100 29z" />
    <glyph glyph-name="Rcaron" unicode="&#x158;" horiz-adv-x="1122" 
d="M614 653q283 0 337 340t-203 340h-332l-109 -680h307zM901 0h-63q-18 0 -31 27l-164 526h-352l-84 -530q-4 -23 -25 -23h-61q-27 0 -23 27l219 1382q4 25 25 25h459q139 0 218 -115t46 -328q-57 -344 -313 -422l166 -542q8 -27 -17 -27zM750 1606q-27 0 -43 28l-111 166
q-19 28 -14 48q9 44 39 12l145 -174l197 180q20 14 30 6t6 -33t-22 -43l-168 -168q-23 -23 -49 -22h-10z" />
    <glyph glyph-name="rcaron" unicode="&#x159;" horiz-adv-x="679" 
d="M504 795q-98 0 -164 -82t-80 -176l-82 -512q-4 -25 -26 -25h-52q-10 0 -18 9t-6 20l125 798q4 25 28 25h29q18 0 23 -37l4 -70q35 47 97 92.5t144 45.5t129 -43q16 -12 7 -25l-29 -45q-12 -14 -29 -4q-57 29 -100 29zM473 1038h-10q-27 0 -43 29l-111 166q-19 28 -14 48
q9 45 39 11l145 -174l197 180q20 14 30 6t6.5 -31t-22.5 -44l-168 -168q-23 -23 -49 -23z" />
    <glyph glyph-name="Sacute" unicode="&#x15a;" horiz-adv-x="1097" 
d="M518 -16q-135 0 -249.5 49t-176.5 139q-16 23 0 35l47 41q16 16 33 -2q45 -68 138 -115t211 -47t212 68q121 86 121 230q0 78 -39 131q-68 92 -248 185q-184 100 -237 150q-111 100 -88 254t143.5 251t302.5 97q129 0 227.5 -50t143.5 -116q12 -20 -6 -31l-45 -36
q-18 -10 -31 6q-117 127 -291 127q-135 0 -223 -66.5t-106.5 -176t45 -174.5t243.5 -159t236 -160q56 -67 64.5 -94.5t18.5 -68.5t-3 -123q-29 -152 -146 -248t-297 -96zM590 1604q-25 -8 -31 10l-4 14q-6 18 14 31l322 158q27 16 37 -9l16 -39q10 -29 -22 -43z" />
    <glyph glyph-name="sacute" unicode="&#x15b;" horiz-adv-x="759" 
d="M330 -16q-186 0 -287 120q-18 23 -6 35l33 35q16 14 34 -6q96 -98 230 -98q88 0 144.5 45t63.5 114.5t-31 102.5t-121 62.5t-120 47.5q-38 16 -76 46q-73 56 -54 165.5t100.5 169.5t213 60t216.5 -82q20 -20 8 -33l-31 -37q-16 -14 -29 -2q-76 68 -167 68
q-176 0 -203 -138q-14 -68 23.5 -104.5t115.5 -64.5t117 -45t82 -47q79 -56 63 -167.5t-102 -179t-217 -67.5zM375 1022q-23 -16 -37 4l-6 12q-10 12 8 35l270 256q25 25 45 -6l23 -37q20 -27 -4 -45z" />
    <glyph glyph-name="Scedilla" unicode="&#x15e;" horiz-adv-x="1097" 
d="M686 1350q-135 0 -223 -66.5t-106.5 -176t45 -174.5t243.5 -159t236 -160q56 -67 64.5 -94.5t18.5 -68.5t-3 -123q-29 -152 -146 -248t-297 -96h-16l-53 -86q72 18 119.5 -19t37.5 -113t-55 -115.5t-109 -39.5q-94 0 -123 80q-6 18 9 20l34 10q14 6 19 -8q14 -35 57 -35
q84 0 97 89q6 45 -23 61t-70 4h-28l-41 18q-16 8 -11 21l72 119q-233 27 -342 182q-16 23 0 35l47 41q16 16 33 -2q45 -68 138 -115t211 -47t212 68q121 86 121 230q0 78 -39 131q-68 92 -248 185q-184 100 -237 150q-111 100 -88 254t143.5 251t302.5 97q129 0 227.5 -50
t143.5 -116q12 -20 -6 -31l-45 -36q-18 -10 -31 6q-117 127 -291 127z" />
    <glyph glyph-name="scedilla" unicode="&#x15f;" horiz-adv-x="759" 
d="M451 797q-176 0 -203 -138q-14 -68 23.5 -104.5t115.5 -64.5t117 -45t82 -47q79 -56 63 -167.5t-102 -179t-217 -67.5h-4l-54 -86q72 18 120 -19t38 -113t-55 -115.5t-109 -39.5q-94 0 -123 80q-6 18 9 20l34 10q14 6 19 -8q14 -35 57 -35q84 0 96 89q6 45 -22.5 61
t-69.5 4h-28l-41 18q-16 8 -11 21l72 119q-139 23 -215 114q-18 23 -6 35l33 35q16 14 34 -6q96 -98 230 -98q88 0 144.5 45t63.5 114.5t-31 102.5t-121 62.5t-120 47.5q-38 16 -76 46q-73 56 -54 165.5t100.5 169.5t213 60t216.5 -82q20 -20 8 -33l-31 -37q-16 -14 -29 -2
q-75 68 -167 68z" />
    <glyph glyph-name="Scaron" unicode="&#x160;" horiz-adv-x="1097" 
d="M518 -16q-135 0 -249.5 49t-176.5 139q-16 23 0 35l47 41q16 16 33 -2q45 -68 138 -115t211 -47t212 68q121 86 121 230q0 78 -39 131q-68 92 -248 185q-184 100 -237 150q-111 100 -88 254t143.5 251t302.5 97q129 0 227.5 -50t143.5 -116q12 -20 -6 -31l-45 -36
q-18 -10 -31 6q-117 127 -291 127q-135 0 -223 -66.5t-106.5 -176t45 -174.5t243.5 -159t236 -160q56 -67 64.5 -94.5t18.5 -68.5t-3 -123q-29 -152 -146 -248t-297 -96zM733 1606q-27 0 -43 28l-110 166q-19 29 -15 49q9 45 39 11l146 -174l196 180q20 14 30.5 6t6.5 -33
t-22 -43l-168 -168q-23 -23 -50 -22h-10z" />
    <glyph glyph-name="scaron" unicode="&#x161;" horiz-adv-x="759" 
d="M330 -16q-186 0 -287 120q-18 23 -6 35l33 35q16 14 34 -6q96 -98 230 -98q88 0 144.5 45t63.5 114.5t-31 102.5t-121 62.5t-120 47.5q-38 16 -76 46q-73 56 -54 165.5t100.5 169.5t213 60t216.5 -82q20 -20 8 -33l-31 -37q-16 -14 -29 -2q-76 68 -167 68
q-176 0 -203 -138q-14 -68 23.5 -104.5t115.5 -64.5t117 -45t82 -47q79 -56 63 -167.5t-102 -179t-217 -67.5zM479 1038h-10q-27 0 -43 29l-111 166q-19 28 -14 48q10 47 39 11l145 -174l197 180q20 14 30 6t7.5 -31t-23.5 -44l-168 -168q-23 -23 -49 -23z" />
    <glyph glyph-name="uni0162" unicode="&#x162;" horiz-adv-x="1126" 
d="M1155 1434q10 0 18.5 -9.5t6.5 -19.5l-6 -47q-4 -25 -29 -25h-383l-209 -1308q-4 -25 -25 -25h-16l-47 -76q72 18 120 -18.5t38 -112.5t-55.5 -115.5t-108.5 -39.5q-94 0 -123 79q-6 18 8 21l35 10q14 6 18 -8q14 -35 58 -35q84 0 96 88q6 45 -22.5 61.5t-69.5 4.5h-29
l-41 18q-16 8 -10 21l70 114q-4 4 -5 17l207 1304h-379q-10 0 -18 9.5t-6 19.5l8 47q4 25 27 25h872z" />
    <glyph glyph-name="uni0163" unicode="&#x163;" horiz-adv-x="710" 
d="M590 866q10 0 18 -9t6 -19l-6 -39q-4 -23 -30 -23h-218l-86 -547q-27 -152 74 -151q82 0 152 74q14 14 26 0l31 -41q10 -14 -4 -29q-90 -88 -203 -94l-57 -90q72 18 120 -19t38 -113t-55.5 -115.5t-108.5 -39.5q-94 0 -123 80q-6 18 8 20l35 10q14 6 18 -8q14 -35 58 -35
q84 0 96 89q6 45 -22.5 61t-69.5 4h-29l-41 18q-16 8 -10 21l74 121q-145 29 -111 250l86 534h-94q-10 0 -18.5 8.5t-6.5 18.5l8 39q4 25 29 24h98l33 221q4 25 31 25h49q10 0 18.5 -9t6.5 -20l-33 -217h213z" />
    <glyph glyph-name="Tcaron" unicode="&#x164;" horiz-adv-x="1126" 
d="M1155 1434q10 0 18.5 -9.5t6.5 -19.5l-6 -47q-4 -25 -29 -25h-383l-209 -1308q-4 -25 -25 -25h-61q-10 0 -17.5 9t-5.5 20l207 1304h-379q-10 0 -18 9.5t-6 19.5l8 47q4 25 27 25h872zM748 1606q-27 0 -43 28l-111 166q-19 28 -14 48q9 45 38 12l146 -174l197 180
q20 14 30 6t7 -33t-23 -43l-168 -168q-23 -23 -49 -22h-10z" />
    <glyph glyph-name="tcaron" unicode="&#x165;" horiz-adv-x="733" 
d="M330 -12q-199 0 -160 254l86 534h-94q-10 0 -18.5 8.5t-6.5 18.5l8 39q4 25 29 24h98l33 221q4 25 31 25h49q10 0 18.5 -9t6.5 -20l-33 -217h213q10 0 18 -9t6 -19l-6 -39q-4 -23 -30 -23h-218l-86 -547q-27 -152 74 -151q82 0 152 74q14 14 26 0l31 -41q10 -14 -4 -29
q-102 -94 -223 -94zM598 1458h113q34 0 28 -31q-2 -4 -10 -60t-8 -60q-23 -135 -197 -226q-14 -6 -22 11.5t6 25.5q121 74 137 166l-78 29q-25 6 -20 28l14 86q6 31 37 31z" />
    <glyph glyph-name="Tbar" unicode="&#x166;" horiz-adv-x="1126" 
d="M1155 1434q10 0 18.5 -9.5t6.5 -19.5l-6 -47q-4 -25 -29 -25h-383l-92 -571h200q33 0 27 -31l-4 -33q-4 -31 -35 -30h-203l-102 -643q-4 -25 -25 -25h-61q-10 0 -17.5 9t-5.5 20l101 639h-178q-33 0 -29 32l2 33q2 29 37 29h184l90 571h-379q-10 0 -18 9.5t-6 19.5l8 47
q4 25 27 25h872z" />
    <glyph glyph-name="tbar" unicode="&#x167;" horiz-adv-x="731" 
d="M340 -16q-123 0 -155 70t-11 200l82 522h-94q-10 0 -18 9q-7 9 -5 20l6 37q4 25 29 24h98l17 123h-92q-10 0 -18 9q-7 9 -5 22l4 35q4 27 29 26h98l35 222q4 27 29 26h51q10 0 18 -9t6 -20l-34 -219h217q10 0 17 -9t5 -19l-4 -37q-4 -27 -29 -27h-221l-18 -123h217
q10 0 17 -9t5 -19l-6 -37q-4 -25 -28 -25h-222l-84 -536q-38 -166 82 -166q68 0 142 73q12 16 28 0l27 -38q16 -16 -2 -31q-90 -94 -213 -94z" />
    <glyph glyph-name="Umacron" unicode="&#x16a;" horiz-adv-x="1329" 
d="M1303 1434q27 0 22 -31l-139 -840q-41 -260 -192.5 -419.5t-393.5 -159.5t-351.5 163.5t-70.5 421.5l139 838q6 27 31 27h58q27 0 22 -31l-137 -832q-35 -211 51 -349t267 -138t308 139t162 355l135 829q4 27 29 27h60zM690 1665q-35 0 -31 33l5 22q6 31 34 31h369
q35 0 31 -33l-4 -22q-6 -31 -33 -31h-371z" />
    <glyph glyph-name="umacron" unicode="&#x16b;" horiz-adv-x="966" 
d="M868 866q10 0 17.5 -9t5.5 -19l-127 -815q-2 -23 -23 -23h-34q-25 0 -25 31l-2 84q-43 -59 -118 -95t-152 -36q-178 0 -245 95t-42 255l82 508q4 25 28 24h50q12 0 19 -9t5 -19l-78 -496q-43 -270 197 -270q111 0 186.5 70.5t89.5 154.5l86 545q4 25 29 24h51zM416 1098
q-35 0 -31 32l4 23q6 31 35 31h369q35 0 30 -33l-4 -23q-6 -31 -33 -30h-370z" />
    <glyph glyph-name="ubreve" unicode="&#x16d;" horiz-adv-x="966" 
d="M868 866q10 0 17.5 -9t5.5 -19l-127 -815q-2 -23 -23 -23h-34q-25 0 -25 31l-2 84q-43 -59 -118 -95t-152 -36q-178 0 -245 95t-42 255l82 508q4 25 28 24h50q12 0 19 -9t5 -19l-78 -496q-43 -270 197 -270q111 0 186.5 70.5t89.5 154.5l86 545q4 25 29 24h51zM586 1044
q-117 0 -168 55.5t-70 145.5q-2 14 12 21l46 18q18 4 20 -12q27 -112 91 -138q32 -14 92.5 -14t119.5 47t92 111q8 14 25 6l41 -24q14 -8 6 -23q-109 -193 -307 -193z" />
    <glyph glyph-name="Uring" unicode="&#x16e;" horiz-adv-x="1329" 
d="M1303 1434q27 0 22 -31l-139 -840q-41 -260 -192.5 -419.5t-393.5 -159.5t-351.5 163.5t-70.5 421.5l139 838q6 27 31 27h58q27 0 22 -31l-137 -832q-35 -211 51 -349t267 -138t308 139t162 355l135 829q4 27 29 27h60zM864 1686q63 0 76 71q6 31 -9.5 47.5t-39.5 16.5
q-63 0 -74 -70q-4 -31 9 -48t38 -17zM861 1620q-54 0 -89 39t-25.5 99t52.5 94t97 34t89 -39t26 -98t-52.5 -94t-97.5 -35z" />
    <glyph glyph-name="uring" unicode="&#x16f;" horiz-adv-x="966" 
d="M868 866q10 0 17.5 -9t5.5 -19l-127 -815q-2 -23 -23 -23h-34q-25 0 -25 31l-2 84q-43 -59 -118 -95t-152 -36q-178 0 -245 95t-42 255l82 508q4 25 28 24h50q12 0 19 -9t5 -19l-78 -496q-43 -270 197 -270q111 0 186.5 70.5t89.5 154.5l86 545q4 25 29 24h51zM590 1118
q63 0 76 72q6 31 -9.5 47t-40.5 16q-63 0 -73 -69q-4 -31 9 -48.5t38 -17.5zM587 1053q-54 0 -89 38.5t-26 99t52 94.5t97.5 34t89 -39t25.5 -98t-52 -94t-97 -35z" />
    <glyph glyph-name="Uhungarumlaut" unicode="&#x170;" horiz-adv-x="1329" 
d="M1303 1434q27 0 22 -31l-139 -840q-41 -260 -192.5 -419.5t-393.5 -159.5t-351.5 163.5t-70.5 421.5l139 838q6 27 31 27h58q27 0 22 -31l-137 -832q-35 -211 51 -349t267 -138t308 139t162 355l135 829q4 27 29 27h60zM899 1593q-20 -16 -35 9l-8 10q-10 16 18 39
l224 188q12 8 24.5 4t16.5 -16l18 -37q8 -25 -16 -41zM686 1593q-18 -10 -31 4l-10 13q-14 18 14 41l226 188q29 20 43 -12l18 -37q12 -27 -12 -41z" />
    <glyph glyph-name="uhungarumlaut" unicode="&#x171;" horiz-adv-x="966" 
d="M868 866q10 0 17.5 -9t5.5 -19l-127 -815q-2 -23 -23 -23h-34q-25 0 -25 31l-2 84q-43 -59 -118 -95t-152 -36q-178 0 -245 95t-42 255l82 508q4 25 28 24h50q12 0 19 -9t5 -19l-78 -496q-43 -270 197 -270q111 0 186.5 70.5t89.5 154.5l86 545q4 25 29 24h51zM412 1049
q-14 -18 -37.5 0t-5.5 45l180 233q16 27 43 0l26 -24q18 -23 -2 -46zM655 1049l-10 6q-16 12 0 41l180 233q18 25 43 0l27 -24q23 -23 -2 -45l-203 -209q-17 -16 -35 -2z" />
    <glyph glyph-name="Uogonek" unicode="&#x172;" horiz-adv-x="1329" 
d="M1303 1434q27 0 22 -31l-139 -840q-33 -207 -138.5 -353.5t-269.5 -199.5q-160 -104 -182 -233q-16 -101 96 -101q56 0 90 52q12 12 35 -9q16 -10 6 -28q-16 -35 -60 -62.5t-113 -27.5t-116 44t-32 124q18 123 176 219q-49 -4 -76 -4q-244 0 -353.5 163.5t-70.5 421.5
l139 838q6 27 31 27h58q27 0 22 -31l-137 -832q-35 -211 51 -349t267 -138t308 139t162 355l135 829q4 27 29 27h60z" />
    <glyph glyph-name="uogonek" unicode="&#x173;" horiz-adv-x="966" 
d="M609 -399q-69 0 -116 44t-33.5 123t79 143t145.5 103q-2 4 -2 17l-2 84q-43 -59 -118 -95t-152 -36q-178 0 -245 95t-42 255l82 508q4 25 28 24h50q12 0 19 -9t5 -19l-78 -496q-43 -270 197 -270q111 0 186.5 70.5t89.5 154.5l86 545q4 25 29 24h51q10 0 17.5 -9t5.5 -19
l-127 -815q-2 -23 -23 -23h-18q-150 -104 -168 -223q-17 -101 95 -101q56 0 91 52q12 12 35 -9q16 -10 6 -28q-16 -35 -60 -62.5t-113 -27.5z" />
    <glyph glyph-name="Wcircumflex" unicode="&#x174;" horiz-adv-x="1683" 
d="M1718 1434q12 0 18.5 -13.5t0.5 -29.5l-553 -1371q-8 -20 -23 -20h-24q-18 0 -23 23l-153 1151l-521 -1154q-8 -20 -22 -20h-25q-20 0 -20 23l-121 1372q-4 39 24 39h58q16 0 24 -23l88 -1147l517 1151q10 18 20 19h23q14 0 18 -25l158 -1139l454 1145q8 18 27 19h55z
M1073 1874q27 0 45 -27l113 -164q18 -27 16 -41l-4 -16q-10 -39 -37 -6l-147 174l-201 -178q-25 -18 -32 -6t-5 18l4 21q4 20 23 39l166 165q23 20 51 21h8z" />
    <glyph glyph-name="wcircumflex" unicode="&#x175;" horiz-adv-x="1247" 
d="M1212 866q35 0 17 -43l-389 -803q-12 -20 -25 -20h-29q-16 0 -20 23l-100 663l-310 -668q-8 -18 -22 -18h-29q-23 0 -22 23l-138 813q-4 31 25 30h49q23 0 27 -22l98 -658l305 660q8 20 25 20h33q14 0 18 -22l102 -658l299 658q8 23 35 22h51zM766 1307q27 0 45 -27
l113 -164q18 -27 16 -41l-4 -16q-10 -39 -37 -6l-147 174l-201 -178q-26 -19 -32 -7t-1.5 35.5t23.5 42.5l166 166q23 20 51 21h8z" />
    <glyph glyph-name="Ycircumflex" unicode="&#x176;" horiz-adv-x="1165" 
d="M1202 1434q12 0 18.5 -12.5t-3.5 -26.5l-568 -774l-96 -598q-4 -23 -25 -23h-61q-27 0 -23 27l95 594l-281 780q-14 33 12 33h64q27 0 35 -25l239 -676l494 678q16 23 41 23h59zM815 1874q27 0 45 -27l113 -164q18 -27 16 -41l-4 -16q-10 -39 -37 -6l-147 174l-201 -178
q-25 -18 -32 -6t-5 18l4 21q4 20 23 39l166 165q23 20 51 21h8z" />
    <glyph glyph-name="ycircumflex" unicode="&#x177;" horiz-adv-x="962" 
d="M946 866q14 0 18.5 -13t-3.5 -30l-771 -1153q-14 -23 -30 -22h-56q-14 0 -19 14t7 31l273 409l-238 725q-6 14 1 26.5t24 12.5h51q16 0 26 -32l205 -629l430 643q12 18 31 18h51zM623 1307q27 0 45 -27l112 -164q18 -27 17 -41l-4 -16q-10 -39 -37 -6l-148 174l-200 -178
q-26 -19 -32 -7t-1.5 35.5t22.5 42.5l166 166q23 20 51 21h9z" />
    <glyph glyph-name="Ydieresis" unicode="&#x178;" horiz-adv-x="1165" 
d="M1202 1434q12 0 18.5 -12.5t-3.5 -26.5l-568 -774l-96 -598q-4 -23 -25 -23h-61q-27 0 -23 27l95 594l-281 780q-14 33 12 33h64q27 0 35 -25l239 -676l494 678q16 23 41 23h59zM909 1675q-25 0 -40 16.5t-11 39.5q10 45 53 45q25 0 39.5 -16.5t10.5 -41.5
q-7 -43 -52 -43zM682 1675q-23 0 -38 16.5t-11 39.5q6 45 53 45q23 0 37 -16.5t12 -41.5q-10 -43 -53 -43z" />
    <glyph glyph-name="Zacute" unicode="&#x179;" horiz-adv-x="1126" 
d="M309 1333q-27 0 -22 27l8 51q4 23 24 23h822q16 0 21 -16.5t-7 -31.5l-930 -1286h699q27 0 22 -26l-8 -51q-4 -23 -25 -23h-831q-18 0 -25.5 15.5t2.5 29.5l930 1288h-680zM600 1604q-25 -8 -31 10l-4 14q-6 18 15 31l321 158q27 16 37 -9l16 -39q10 -29 -22 -43z" />
    <glyph glyph-name="zacute" unicode="&#x17a;" horiz-adv-x="770" 
d="M219 778q-27 0 -26 29l4 31q0 12 11 20t23 8h480q18 0 22 -16t-8 -35l-539 -727h377q12 0 20.5 -9t6.5 -22l-2 -30q0 -27 -33 -27h-496q-16 0 -22 16.5t6 34.5l543 727h-367zM389 1022q-23 -16 -37 4l-6 12q-10 12 8 35l271 256q25 25 45 -6l22 -37q20 -27 -4 -45z" />
    <glyph glyph-name="Zdotaccent" unicode="&#x17b;" horiz-adv-x="1126" 
d="M309 1333q-27 0 -22 27l8 51q4 23 24 23h822q16 0 21 -16.5t-7 -31.5l-930 -1286h699q27 0 22 -26l-8 -51q-4 -23 -25 -23h-831q-18 0 -25.5 15.5t2.5 29.5l930 1288h-680zM776.5 1782q24.5 0 39.5 -19.5t11 -46.5q-9 -51 -63 -51q-25 0 -41 18.5t-13 43.5t22.5 40t44 15
z" />
    <glyph glyph-name="zdotaccent" unicode="&#x17c;" horiz-adv-x="770" 
d="M219 778q-27 0 -26 29l4 31q0 12 11 20t23 8h480q18 0 22 -16t-8 -35l-539 -727h377q12 0 20.5 -9t6.5 -22l-2 -30q0 -27 -33 -27h-496q-16 0 -22 16.5t6 34.5l543 727h-367zM516.5 1214q24.5 0 39.5 -19t11 -46q-9 -51 -63 -51q-25 0 -41.5 18.5t-13 43t23 39.5t44 15z
" />
    <glyph glyph-name="Zcaron" unicode="&#x17d;" horiz-adv-x="1126" 
d="M309 1333q-27 0 -22 27l8 51q4 23 24 23h822q16 0 21 -16.5t-7 -31.5l-930 -1286h699q27 0 22 -26l-8 -51q-4 -23 -25 -23h-831q-18 0 -25.5 15.5t2.5 29.5l930 1288h-680zM743 1606q-27 0 -43 28l-110 166q-19 29 -15 49q9 45 39 11l146 -174l196 180q20 14 30.5 6
t7.5 -33t-23 -43l-168 -168q-23 -23 -49 -22h-11z" />
    <glyph glyph-name="zcaron" unicode="&#x17e;" horiz-adv-x="770" 
d="M219 778q-27 0 -26 29l4 31q0 12 11 20t23 8h480q18 0 22 -16t-8 -35l-539 -727h377q12 0 20.5 -9t6.5 -22l-2 -30q0 -27 -33 -27h-496q-16 0 -22 16.5t6 34.5l543 727h-367zM494 1038h-11q-27 0 -43 29l-110 166q-19 29 -15 49t14.5 23.5t24.5 -13.5l146 -174l196 180
q20 14 30 6t6.5 -31t-21.5 -44l-168 -168q-23 -23 -49 -23z" />
    <glyph glyph-name="florin" unicode="&#x192;" horiz-adv-x="835" 
d="M663 1356q-97 0 -144.5 -66.5t-72.5 -216.5l-49 -303h248q31 0 27 -29l-6 -47q-2 -25 -33 -24h-252l-121 -774q-8 -41 -37.5 -79t-126.5 -126q-25 -20 -45 2l-28 33q-16 18 4 43q115 104 125 159l116 742h-100q-27 0 -25 28l7 47q2 25 30 25h105l49 315q31 199 105.5 282
t213.5 83t217 -57q29 -18 15 -41l-29 -33q-16 -20 -35 -8q-61 45 -158 45z" />
    <glyph glyph-name="Scommaaccent" unicode="&#x218;" horiz-adv-x="1097" 
d="M428 -129h68q32 0 28 -31l-14 -92q-10 -51 -51 -92t-101 -57q-14 -2 -16 13t12 21q78 35 90 109l-41 18q-23 12 -18 37l6 43q6 31 37 31zM518 -16q-135 0 -249.5 49t-176.5 139q-16 23 0 35l47 41q16 16 33 -2q45 -68 138 -115t211 -47t212 68q121 86 121 230
q0 78 -39 131q-68 92 -248 185q-184 100 -237 150q-111 100 -88 254t143.5 251t302.5 97q129 0 227.5 -50t143.5 -116q12 -20 -6 -31l-45 -36q-18 -10 -31 6q-117 127 -291 127q-135 0 -223 -66.5t-106.5 -176t45 -174.5t243.5 -159t236 -160q56 -67 64.5 -94.5t18.5 -68.5
t-3 -123q-29 -152 -146 -248t-297 -96z" />
    <glyph glyph-name="scommaaccent" unicode="&#x219;" horiz-adv-x="759" 
d="M252 -129h67q33 0 29 -31l-14 -92q-10 -51 -51 -92t-101 -57q-14 -2 -16 13t12 21q78 35 90 109l-41 18q-23 12 -18 37l6 43q6 31 37 31zM330 -16q-186 0 -287 120q-18 23 -6 35l33 35q16 14 34 -6q96 -98 230 -98q88 0 144.5 45t63.5 114.5t-31 102.5t-121 62.5
t-120 47.5q-38 16 -76 46q-73 56 -54 165.5t100.5 169.5t213 60t216.5 -82q20 -20 8 -33l-31 -37q-16 -14 -29 -2q-76 68 -167 68q-176 0 -203 -138q-14 -68 23.5 -104.5t115.5 -64.5t117 -45t82 -47q79 -56 63 -167.5t-102 -179t-217 -67.5z" />
    <glyph glyph-name="uni021A" unicode="&#x21a;" horiz-adv-x="1126" 
d="M444 -102h68q33 0 29 -31l-15 -92q-10 -51 -51 -92t-100 -58q-14 -2 -16.5 13.5t12.5 21.5q78 35 90 109l-41 18q-23 12 -19 37l7 43q6 31 36 31zM1155 1434q10 0 18.5 -9.5t6.5 -19.5l-6 -47q-4 -25 -29 -25h-383l-209 -1308q-4 -25 -25 -25h-61q-10 0 -17.5 9t-5.5 20
l207 1304h-379q-10 0 -18 9.5t-6 19.5l8 47q4 25 27 25h872z" />
    <glyph glyph-name="uni021B" unicode="&#x21b;" horiz-adv-x="710" 
d="M272 -129h68q33 0 29 -31l-15 -92q-10 -51 -51 -92t-100 -57q-14 -2 -16.5 13t12.5 21q78 35 90 109l-41 18q-23 12 -19 37l7 43q6 31 36 31zM330 -12q-199 0 -160 254l86 534h-94q-10 0 -18.5 8.5t-6.5 18.5l8 39q4 25 29 24h98l33 221q4 25 31 25h49q10 0 18.5 -9
t6.5 -20l-33 -217h213q10 0 18 -9t6 -19l-6 -39q-4 -23 -30 -23h-218l-86 -547q-27 -152 74 -151q82 0 152 74q14 14 26 0l31 -41q10 -14 -4 -29q-102 -94 -223 -94z" />
    <glyph glyph-name="circumflex" unicode="&#x2c6;" horiz-adv-x="737" 
d="M557 1616q27 0 45 -27l113 -164q18 -27 16 -41l-4 -16q-10 -39 -37 -6l-147 174l-201 -178q-25 -18 -32 -6t-5 18l4 21q4 20 23 39l166 165q23 20 51 21h8z" />
    <glyph glyph-name="caron" unicode="&#x2c7;" horiz-adv-x="735" 
d="M518 1333h-10q-27 0 -43 29l-111 166q-19 28 -14 48q9 45 39 11l145 -174l197 180q20 14 30 6t7 -31q-4 -23 -23 -44l-168 -168q-23 -23 -49 -23z" />
    <glyph glyph-name="breve" unicode="&#x2d8;" horiz-adv-x="864" 
d="M571 1339q-117 -1 -168 55t-69 146q-2 14 12 21l45 18q18 4 21 -12q27 -113 91 -139q33 -13 93 -13t119 47t92 111q8 14 24 6l41 -25q14 -8 7 -22q-109 -193 -308 -193z" />
    <glyph glyph-name="dotaccent" unicode="&#x2d9;" horiz-adv-x="434" 
d="M373 1393q-25 0 -41 18t-14 43t22 40t45 15t40 -19t11 -46q-9 -51 -63 -51z" />
    <glyph glyph-name="ring" unicode="&#x2da;" horiz-adv-x="577" 
d="M446 1452q63 0 76 72q6 31 -9 47t-40 16q-63 0 -74 -69q-4 -30 9 -48t38 -18zM443 1386q-54 0 -89 39q-36 39 -26 99t53 95q43 34 97 34t89 -39q35 -38 26 -98t-53 -95t-97 -35z" />
    <glyph glyph-name="ogonek" unicode="&#x2db;" horiz-adv-x="649" 
d="M198 -420q-68 0 -116 44q-47 44 -34 125t84 147t153 104l55 -2q-66 -38 -126 -104t-70 -126t15 -86q24 -26 80 -26t91 51q10 10 31 -4q20 -14 10 -33q-17 -34 -61 -62t-112 -28z" />
    <glyph glyph-name="tilde" unicode="&#x2dc;" horiz-adv-x="909" 
d="M735 1356q-55 0 -128 51t-107 51q-82 0 -129 -84q-8 -16 -27 -4l-22 10q-16 8 -9 29q17 51 71 89t118 38t135 -52q72 -52 104 -52q70 0 123 90q6 14 25 4l20 -13q18 -12 11 -30q-59 -127 -185 -127z" />
    <glyph glyph-name="hungarumlaut" unicode="&#x2dd;" horiz-adv-x="827" 
d="M358 1343q-13 -19 -37 0t-6 46l181 233q16 27 43 0l26 -25q18 -23 -2 -45zM602 1343l-10 7q-16 12 0 41l180 233q18 25 43 0l27 -25q23 -23 -2 -45l-203 -208q-17 -17 -35 -3z" />
    <glyph glyph-name="gravecomb" unicode="&#x300;" 
d="M-59 1317l-299 219q-25 18 -4 45l22 37q20 31 45 6l270 -256q18 -23 9 -35l-7 -12q-13 -20 -36 -4z" />
    <glyph glyph-name="acutecomb" unicode="&#x301;" 
d="M-291 1317q-23 -16 -37 4l-6 12q-10 12 8 35l271 256q25 25 45 -6l22 -37q20 -27 -4 -45z" />
    <glyph glyph-name="uni0302" unicode="&#x302;" 
d="M-182 1602q27 0 45 -27l112 -164q18 -27 17 -41l-4 -16q-10 -39 -37 -6l-148 174l-200 -179q-26 -18 -32 -6t-1.5 35.5t22.5 42.5l166 166q23 20 52 21h8z" />
    <glyph glyph-name="tildecomb" unicode="&#x303;" 
d="M-174 1356q-55 0 -128 51t-108 51q-82 0 -129 -84q-8 -16 -26 -4l-23 10q-16 8 -8 29q18 51 71.5 89t117 38t135 -52t104.5 -52q70 0 123 90q6 14 25 4l20 -13q18 -12 10 -30q-59 -127 -184 -127z" />
    <glyph glyph-name="uni0304" unicode="&#x304;" 
d="M-403 1393q-35 0 -31 32l4 23q6 31 35 31h368q35 0 31 -33l-4 -23q-6 -31 -33 -30h-370z" />
    <glyph glyph-name="uni0306" unicode="&#x306;" 
d="M-293 1339q-117 0 -168 55.5t-69 145.5q-2 14 12 21l45 18q18 4 20 -12q27 -111 91 -139q32 -14 92.5 -13.5t120 47.5t92.5 111q8 14 24 6l41 -25q14 -8 6 -22q-109 -193 -307 -193z" />
    <glyph glyph-name="uni0307" unicode="&#x307;" 
d="M-61 1393q-25 0 -41.5 18.5t-13.5 43t22.5 39.5t44.5 15t40 -19.5t11 -45.5q-9 -51 -63 -51z" />
    <glyph glyph-name="uni0308" unicode="&#x308;" 
d="M-49 1403q-25 0 -40 16.5t-11 38.5q10 45 53 45q25 0 39 -16.5t10 -40.5q-6 -43 -51 -43zM-276 1403q-23 0 -38.5 16.5t-11.5 38.5q6 45 54 45q23 0 37 -16.5t12 -40.5q-10 -43 -53 -43z" />
    <glyph glyph-name="uni030A" unicode="&#x30a;" 
d="M-139 1413q63 0 76 72q6 31 -9.5 47t-40.5 16q-63 0 -73 -69q-4 -31 9 -48.5t38 -17.5zM-142 1348q-54 0 -89 38.5t-26 99t52 94.5t97 34t89 -39t26 -98t-52 -94t-97 -35z" />
    <glyph glyph-name="uni030B" unicode="&#x30b;" 
d="M-469 1343q-15 -20 -38 -0.5t-5 46.5l180 233q16 27 43 0l27 -25q18 -23 -2 -45zM-225 1343l-11 7q-16 12 0 41l181 233q18 25 43 0l26 -25q23 -23 -2 -45l-202 -208q-17 -17 -35 -3z" />
    <glyph glyph-name="uni030C" unicode="&#x30c;" 
d="M-217 1333h-10q-27 0 -43 29l-111 166q-19 28 -14 48q9 45 39 11l145 -174l197 180q20 14 30 6t7.5 -31t-23.5 -44l-168 -168q-23 -23 -49 -23z" />
    <glyph glyph-name="uni0312" unicode="&#x312;" 
d="M-131 1427l14 93q10 51 51 92t101 57q14 2 16 -13t-12 -22q-78 -35 -90 -108l41 -19q23 -12 18 -37l-6 -43q-6 -31 -37 -30h-67q-33 -1 -29 30z" />
    <glyph glyph-name="uni0326" unicode="&#x326;" 
d="M-348 -135h67q31 0 29 -31l-14 -92q-10 -51 -51 -92t-101 -58q-14 -2 -16 13.5t12 21.5q78 35 90 109l-41 18q-23 12 -18 37l6 43q6 31 37 31z" />
    <glyph glyph-name="uni0327" unicode="&#x327;" 
d="M-428 -397q-94 0 -123 80q-6 18 8 20l35 10q14 6 19 -8q14 -35 57 -35q84 0 96 88q6 45 -22.5 61.5t-69.5 4.5h-29l-41 18q-16 8 -10 21l92 153h74l-80 -127q72 18 120 -18.5t38 -112.5t-55.5 -115.5t-108.5 -39.5z" />
    <glyph glyph-name="uni0328" unicode="&#x328;" 
d="M-451.5 -420q-68.5 0 -115.5 44t-34 125t84 146.5t152 104.5l56 -2q-66 -39 -126.5 -104.5t-69.5 -125t14.5 -86t80 -26.5t91.5 51q11 11 30.5 -3.5t9.5 -33.5q-16 -35 -60 -62.5t-112.5 -27.5z" />
    <glyph glyph-name="uni0335" unicode="&#x335;" 
d="M-686 381q-33 0 -29 33l2 32q2 29 37 29h494q33 0 26 -31l-4 -32q-4 -31 -35 -31h-491z" />
    <glyph glyph-name="uni0336" unicode="&#x336;" 
d="M-1440 381q-35 0 -28 33l2 32q6 29 36 29h1246q35 0 28 -31l-4 -32q-6 -31 -35 -31h-1245z" />
    <glyph glyph-name="uni0337" unicode="&#x337;" 
d="M-543 0h-32q-37 0 -25 35l450 1071q12 33 44 33h34q35 0 21 -35l-451 -1071q-12 -33 -41 -33z" />
    <glyph glyph-name="uni0338" unicode="&#x338;" 
d="M-623 0h-32q-18 0 -25 11q-6 11 2 24l576 1366q12 33 41 33h36q33 0 19 -35l-576 -1366q-10 -33 -41 -33z" />
    <glyph glyph-name="uni0394" unicode="&#x394;" horiz-adv-x="1413" 
d="M831 1206l-585 -1106h821zM1163 0h-1042q-14 0 -24 13q-9 13 -1 30l729 1372q10 18 17 19h43q8 0 12 -23l297 -1372q2 -15 -7 -27t-24 -12z" />
    <glyph glyph-name="Pi" unicode="&#x3a0;" horiz-adv-x="1187" 
d="M1149 1434q35 0 31 -33l-217 -1374q-4 -27 -29 -27h-53q-10 0 -19 10q-8 10 -6 21l205 1304h-647l-207 -1308q-4 -27 -29 -27h-55q-10 0 -19 10q-8 10 -6 21l217 1374q6 29 35 29h799z" />
    <glyph glyph-name="uni03A9" unicode="&#x3a9;" horiz-adv-x="1632" 
d="M1391 100q12 0 21 -9t7 -21l-6 -43q-4 -27 -33 -27h-493q-14 0 -22 9q-18 23 22 52q9 7 73 51q133 92 263 234q74 82 127 201t68 248q28 245 -72 384q-45 60 -111 100q-114 69 -283 70t-353 -115q-95 -60 -169 -176t-104 -270q-30 -125 2 -302q16 -96 91 -216
q50 -74 96 -117q47 -43 73 -65t38 -38q12 -14 10 -32t-26 -18h-489q-12 0 -22 9q-9 9 -7 22l6 43q4 27 33 26h307q-293 315 -225 701q51 291 260 470t498 179t447 -180t116 -482q-55 -397 -440 -688h297z" />
    <glyph glyph-name="uni03BC" unicode="&#x3bc;" horiz-adv-x="1042" 
d="M840 0h-47q-23 0 -35 31l-25 63q-99 -110 -279 -110t-243 108l-82 -498q-4 -27 -29 -26h-53q-10 0 -17 9t-5 20l196 1245q4 25 31 24h49q10 0 18 -9t7 -19l-78 -488q-43 -279 217 -278q121 0 197 55t92 164l86 551q4 25 28 24h52q10 0 17 -9t5 -19l-102 -650
q-11 -77 18 -155q10 -33 -18 -33z" />
    <glyph glyph-name="pi" unicode="&#x3c0;" horiz-adv-x="1251" 
d="M1128 866q35 0 31 -35l-4 -28q-6 -31 -37 -31h-100l-84 -553q-14 -98 31 -178q10 -19 4 -30t-21 -11h-41q-25 0 -41 33q-51 94 -35 205l82 534h-436l-115 -743q-6 -29 -32 -29h-45q-12 0 -22 9q-9 9 -7 24l121 737q-86 -6 -172 -68q-14 -10 -30 -3q-15 7 -11 24l6 37
q8 29 33 45q43 23 62 32q61 29 157 29h706z" />
    <glyph glyph-name="Wgrave" unicode="&#x1e80;" horiz-adv-x="1683" 
d="M1718 1434q12 0 18.5 -13.5t0.5 -29.5l-553 -1371q-8 -20 -23 -20h-24q-18 0 -23 23l-153 1151l-521 -1154q-8 -20 -22 -20h-25q-20 0 -20 23l-121 1372q-4 39 24 39h58q16 0 24 -23l88 -1147l517 1151q10 18 20 19h23q14 0 18 -25l158 -1139l454 1145q8 18 27 19h55z
M1212 1606l-331 123q-33 14 -23 43l16 38q10 25 37 9l322 -158q20 -12 14 -31l-4 -14q-6 -18 -31 -10z" />
    <glyph glyph-name="wgrave" unicode="&#x1e81;" horiz-adv-x="1247" 
d="M1212 866q35 0 17 -43l-389 -803q-12 -20 -25 -20h-29q-16 0 -20 23l-100 663l-310 -668q-8 -18 -22 -18h-29q-23 0 -22 23l-138 813q-4 31 25 30h49q23 0 27 -22l98 -658l305 660q8 20 25 20h33q14 0 18 -22l102 -658l299 658q8 23 35 22h51zM881 1022l-299 219
q-25 18 -4 45l22 37q20 31 45 6l270 -256q18 -23 9 -35l-6 -12q-14 -20 -37 -4z" />
    <glyph glyph-name="Wacute" unicode="&#x1e82;" horiz-adv-x="1683" 
d="M1718 1434q12 0 18.5 -13.5t0.5 -29.5l-553 -1371q-8 -20 -23 -20h-24q-18 0 -23 23l-153 1151l-521 -1154q-8 -20 -22 -20h-25q-20 0 -20 23l-121 1372q-4 39 24 39h58q16 0 24 -23l88 -1147l517 1151q10 18 20 19h23q14 0 18 -25l158 -1139l454 1145q8 18 27 19h55z
M883 1604q-25 -8 -31 10l-4 14q-6 18 14 31l322 158q27 16 37 -9l16 -39q10 -29 -23 -43z" />
    <glyph glyph-name="wacute" unicode="&#x1e83;" horiz-adv-x="1247" 
d="M1212 866q35 0 17 -43l-389 -803q-12 -20 -25 -20h-29q-16 0 -20 23l-100 663l-310 -668q-8 -18 -22 -18h-29q-23 0 -22 23l-138 813q-4 31 25 30h49q23 0 27 -22l98 -658l305 660q8 20 25 20h33q14 0 18 -22l102 -658l299 658q8 23 35 22h51zM625 1022q-23 -16 -37 4
l-6 12q-10 12 8 35l270 256q25 25 45 -6l23 -37q20 -27 -4 -45z" />
    <glyph glyph-name="Wdieresis" unicode="&#x1e84;" horiz-adv-x="1683" 
d="M1718 1434q12 0 18.5 -13.5t0.5 -29.5l-553 -1371q-8 -20 -23 -20h-24q-18 0 -23 23l-153 1151l-521 -1154q-8 -20 -22 -20h-25q-20 0 -20 23l-121 1372q-4 39 24 39h58q16 0 24 -23l88 -1147l517 1151q10 18 20 19h23q14 0 18 -25l158 -1139l454 1145q8 18 27 19h55z
M1167 1675q-25 0 -40 16.5t-11 39.5q10 45 53 45q25 0 39.5 -16.5t10.5 -41.5q-7 -43 -52 -43zM940 1675q-23 0 -38 16.5t-11 39.5q6 45 53 45q23 0 37 -16.5t12 -41.5q-10 -43 -53 -43z" />
    <glyph glyph-name="wdieresis" unicode="&#x1e85;" horiz-adv-x="1247" 
d="M1212 866q35 0 17 -43l-389 -803q-12 -20 -25 -20h-29q-16 0 -20 23l-100 663l-310 -668q-8 -18 -22 -18h-29q-23 0 -22 23l-138 813q-4 31 25 30h49q23 0 27 -22l98 -658l305 660q8 20 25 20h33q14 0 18 -22l102 -658l299 658q8 23 35 22h51zM860 1108q-25 0 -40 16.5
t-11 38.5q10 45 53 45q25 0 39 -16t10 -41q-6 -43 -51 -43zM633 1108q-23 0 -38 16.5t-11 38.5q6 45 53 45q23 0 37 -16t12 -41q-10 -43 -53 -43z" />
    <glyph glyph-name="Ygrave" unicode="&#x1ef2;" horiz-adv-x="1165" 
d="M1202 1434q12 0 18.5 -12.5t-3.5 -26.5l-568 -774l-96 -598q-4 -23 -25 -23h-61q-27 0 -23 27l95 594l-281 780q-14 33 12 33h64q27 0 35 -25l239 -676l494 678q16 23 41 23h59zM954 1606l-331 123q-33 14 -23 43l16 38q10 25 37 9l322 -158q20 -12 14 -31l-4 -14
q-6 -18 -31 -10z" />
    <glyph glyph-name="ygrave" unicode="&#x1ef3;" horiz-adv-x="962" 
d="M946 866q14 0 18.5 -13t-3.5 -30l-771 -1153q-14 -23 -30 -22h-56q-14 0 -19 14t7 31l273 409l-238 725q-6 14 1 26.5t24 12.5h51q16 0 26 -32l205 -629l430 643q12 18 31 18h51zM737 1022l-299 219q-25 18 -4 45l23 37q20 31 45 6l270 -256q18 -23 8 -35l-6 -12
q-14 -20 -37 -4z" />
    <glyph glyph-name="endash" unicode="&#x2013;" horiz-adv-x="1122" 
d="M184 418q-10 0 -18 9t-6 19l4 37q4 25 29 25h755q10 0 18 -9t7 -20l-4 -35q-4 -27 -29 -26h-756z" />
    <glyph glyph-name="emdash" unicode="&#x2014;" horiz-adv-x="1667" 
d="M184 418q-10 0 -18 9t-6 19l4 37q4 25 29 25h1300q10 0 18 -9t7 -20l-5 -35q-4 -27 -28 -26h-1301z" />
    <glyph glyph-name="quoteleft" unicode="&#x2018;" horiz-adv-x="382" 
d="M213 1128q0 4 8 60t10 61q23 135 197 226q14 7 22 -11t-6 -26q-121 -74 -137 -166l78 -29q25 -6 21 -29l-15 -86q-6 -31 -37 -30h-112q-35 -1 -29 30z" />
    <glyph glyph-name="quoteright" unicode="&#x2019;" horiz-adv-x="385" 
d="M295 1434h113q34 0 28 -31q-2 -5 -10 -61t-8 -60q-23 -135 -197 -225q-14 -6 -22 11t6 26q121 74 137 166l-78 28q-25 6 -20 29l14 86q6 31 37 31z" />
    <glyph glyph-name="quotesinglbase" unicode="&#x201a;" horiz-adv-x="382" 
d="M229 113q0 -5 -8 -61t-10 -60q-23 -135 -197 -225q-14 -6 -22 11t6 25q121 74 137 166l-78 29q-25 6 -20 29l14 86q6 31 37 30h113q34 1 28 -30z" />
    <glyph glyph-name="quotedblleft" unicode="&#x201c;" horiz-adv-x="743" 
d="M571 1128q3 4 11 60t8 61q23 135 196 226q14 7 22 -11t-5 -26q-121 -74 -137 -166l77 -29q25 -6 21 -29l-14 -86q-6 -31 -37 -30h-113q-35 -1 -29 30zM213 1128q0 4 8 60t10 61q23 135 197 226q14 7 22 -11t-6 -26q-121 -74 -137 -166l78 -29q25 -6 21 -29l-15 -86
q-6 -31 -37 -30h-112q-35 -1 -29 30z" />
    <glyph glyph-name="quotedblright" unicode="&#x201d;" horiz-adv-x="745" 
d="M653 1434h113q35 0 29 -31q-1 -5 -9 -61t-10 -60q-23 -135 -196 -225q-14 -6 -22 11t5 26q121 74 137 166l-77 28q-25 6 -21 29l14 86q6 31 37 31zM295 1434h113q34 0 28 -31q-2 -5 -10 -61t-8 -60q-23 -135 -197 -225q-14 -6 -22 11t6 26q121 74 137 166l-78 28
q-25 6 -20 29l14 86q6 31 37 31z" />
    <glyph glyph-name="quotedblbase" unicode="&#x201e;" horiz-adv-x="743" 
d="M588 113q-2 -5 -10 -61t-9 -60q-23 -135 -196 -225q-15 -6 -23 11t6 25q121 74 138 166l-78 29q-25 6 -21 29l15 86q6 31 36 30h113q35 1 29 -30zM229 113q0 -5 -8 -61t-10 -60q-23 -135 -197 -225q-14 -6 -22 11t6 25q121 74 137 166l-78 29q-25 6 -20 29l14 86
q6 31 37 30h113q34 1 28 -30z" />
    <glyph glyph-name="dagger" unicode="&#x2020;" horiz-adv-x="913" 
d="M815 1022q35 0 29 -33l-4 -28q-6 -29 -35 -29h-223l-142 -903q-4 -29 -30 -29h-41q-12 0 -22 10q-9 10 -7 23l143 899h-213q-35 0 -28 33l4 28q6 29 35 29h217l59 383q4 29 35 29h39q12 0 20 -10t6 -23l-59 -379h217z" />
    <glyph glyph-name="daggerdbl" unicode="&#x2021;" horiz-adv-x="913" 
d="M805 932h-223l-66 -430h217q35 0 29 -33l-4 -29q-2 -29 -35 -28h-223l-60 -383q-4 -29 -30 -29h-41q-12 0 -22 10q-9 10 -7 23l61 379h-213q-35 0 -28 32l4 29q6 29 35 29h217l67 430h-213q-35 0 -28 33l4 28q6 29 35 29h217l59 383q4 29 35 29h39q12 0 20 -10t6 -23
l-59 -379h217q35 0 29 -33l-4 -28q-2 -29 -35 -29z" />
    <glyph glyph-name="bullet" unicode="&#x2022;" horiz-adv-x="622" 
d="M367 823q65 0 105 -48q40 -49 31 -113t-61 -106t-116 -42t-102 48t-28 112t57 107q48 42 114 42z" />
    <glyph glyph-name="ellipsis" unicode="&#x2026;" horiz-adv-x="1370" 
d="M1038 0q-35 0 -28 33l12 73q6 33 37 33h71q35 0 29 -33l-12 -73q-6 -33 -37 -33h-72zM582 0q-35 0 -29 33l12 73q6 33 37 33h72q35 0 28 -33l-12 -73q-6 -33 -37 -33h-71zM125 0q-35 0 -29 33l13 73q6 33 36 33h72q35 0 29 -33l-13 -73q-6 -33 -36 -33h-72z" />
    <glyph glyph-name="perthousand" unicode="&#x2030;" horiz-adv-x="2396" 
d="M1958 72q190 0 250 387q14 100 16 183t-32 135t-108 52t-127 -57q-54 -57 -80 -135t-46 -191q-57 -374 127 -374zM1274 72q190 0 250 387q14 100 16 183t-32 135t-108 52t-127 -57q-54 -57 -80 -135t-46 -191q-57 -374 127 -374zM1950 -16q-143 0 -197 110
q-53 111 -13 361t124 356q84 107 227 107t197 -112t13 -360q-40 -248 -124 -355t-227 -107zM1266 -16q-143 0 -197 110q-53 111 -13 361t124 356q84 107 227 107t197 -112t13 -360q-40 -248 -124 -355t-227 -107zM406 604q190 0 249 387q15 99 17 183t-32 136t-108 52
t-128 -57t-80 -135t-45 -191q-57 -375 127 -375zM483 0q-18 0 -22 15t4 30l790 1360q16 29 39 29h47q15 0 19 -12t-6 -27l-795 -1366q-14 -29 -41 -29h-35zM397 516q-143 0 -196 111t-13 361t123 355q83 107 227 107t197 -112t13 -360t-124 -354q-84 -108 -227 -108z" />
    <glyph glyph-name="guilsinglleft" unicode="&#x2039;" horiz-adv-x="673" 
d="M422 -16q-23 0 -35 22l-209 369q-23 41 -20 53l2 14q2 18 33 50l325 372q16 18 43 19h25q16 1 18 -11t-10 -28l-315 -410l180 -414q16 -37 -13 -36h-24z" />
    <glyph glyph-name="guilsinglright" unicode="&#x203a;" horiz-adv-x="673" 
d="M227 883h25q23 0 35 -23l209 -368q23 -41 20 -54l-2 -14q-2 -18 -33 -49l-325 -373q-16 -18 -43 -18h-25q-16 0 -18 12t10 27l315 409l-180 414q-16 37 12 37z" />
    <glyph glyph-name="fraction" unicode="&#x2044;" horiz-adv-x="315" 
d="M-223 0q-19 0 -23 15t4 30l791 1360q16 29 39 29h47q14 0 18 -12t-6 -27l-794 -1366q-14 -29 -41 -29h-35z" />
    <glyph glyph-name="uni2070" unicode="&#x2070;" horiz-adv-x="761" 
d="M430 758q190 0 250 387q14 100 16 183t-31 135q-34 53 -108 53t-128 -58t-80 -135q-26 -78 -46 -190q-57 -375 127 -375zM422 670q-143 0 -197 110q-53 111 -13 361t124 356q84 107 227 107t197 -112t13 -360q-40 -248 -124 -355t-227 -107z" />
    <glyph glyph-name="uni2074" unicode="&#x2074;" horiz-adv-x="833" 
d="M295 975h317l76 481zM705 1577h73q8 0 14 -6t5 -15l-92 -581h92q10 0 16 -7t4 -16l-8 -45q-2 -18 -21 -18h-96l-33 -195q-4 -18 -18 -18h-53q-8 0 -15 7q-6 7 -6 15l31 191h-403q-10 0 -17 7q-6 7 -4 15l8 41l4 15l490 598q12 12 29 12z" />
    <glyph glyph-name="uni2075" unicode="&#x2075;" horiz-adv-x="759" 
d="M429 670q-134 0 -191 72t-43 161q6 18 20 19h55q18 0 17 -21q-5 -49 29 -97t120 -48t145 67q58 68 72 154t-36 136t-128 45t-143 -62q-6 -4 -27 0l-67 16q-20 4 -14 21l141 436q10 18 22 18h361q8 0 15 -6t5 -14l-8 -47q0 -18 -20 -19h-303l-107 -305q63 39 140 45
q173 14 239 -116q34 -69 18 -175t-97 -193t-215 -87z" />
    <glyph glyph-name="uni2076" unicode="&#x2076;" horiz-adv-x="741" 
d="M426 758q84 0 138 59t70 153t-19 149q-33 55 -111 55t-138 -56t-74 -140q-14 -83 18 -152q32 -68 116 -68zM511 1257q118 1 177 -77q58 -78 36 -215t-102 -216t-202 -79q-285 0 -209 466t354 468q111 0 158 -68t43 -154q-8 -20 -16 -22h-56q-23 0 -18 22q4 50 -23 94
t-94 44q-176 0 -248 -357q82 94 200 94z" />
    <glyph glyph-name="uni2077" unicode="&#x2077;" horiz-adv-x="686" 
d="M270 1495q-20 0 -16 21l6 45q4 18 19 18h503q10 0 16 -10t1 -21l-492 -856q-10 -14 -26 -14h-56q-12 0 -16 9t0 18l453 790h-392z" />
    <glyph glyph-name="uni2078" unicode="&#x2078;" horiz-adv-x="757" 
d="M430 756q98 0 151 52q52 52 63 122q10 70 -34 120t-118 70q-199 -53 -224 -202q-8 -66 28 -114t134 -48zM496 1196q174 39 192 186q23 135 -133 136q-96 0 -140 -44t-53 -106q-24 -133 134 -172zM621 1151q61 -27 94 -91t18 -145q-14 -102 -97 -174q-83 -71 -216 -71
t-196 74q-62 74 -47 168q28 174 188 243q-117 66 -92 234q13 89 87 151t202 64q128 0 181 -66t35 -170q-24 -151 -157 -217z" />
    <glyph glyph-name="uni2079" unicode="&#x2079;" horiz-adv-x="741" 
d="M469 1100q74 0 134 56t77 149q14 106 -26 159q-40 54 -116 54t-134 -58t-74 -162q-29 -198 139 -198zM215 911h55q18 0 19 -18q-1 -55 25 -97t89 -42q94 0 151 71q56 72 97 273q-69 -82 -197 -82t-182 81q-53 81 -31 216t104 213q83 78 200 78t171 -60t55 -168
q1 -107 -19 -252q-39 -240 -124 -348t-225 -106q-84 0 -134 43q-80 69 -70 178q0 20 16 20z" />
    <glyph glyph-name="Euro" unicode="&#x20ac;" horiz-adv-x="1245" 
d="M928 1450q180 0 299 -86q20 -14 4 -39l-31 -41q-14 -20 -41 -4q-117 70 -233 70q-193 0 -322 -124t-188 -333l317 2q11 0 21 -8t8 -21l-4 -28q-4 -25 -33 -25l-334 -2q-14 -69 -29 -193l328 3q12 -1 20 -9t7 -20l-4 -29q-4 -25 -33 -24l-322 -2q-4 -453 373 -453
q152 0 289 96q27 16 39 -6l22 -43q14 -27 -12 -41q-167 -106 -377 -106t-332 143q-121 143 -116 414l-86 -2q-12 0 -22 8q-9 8 -7 20l4 29q2 25 35 25l82 2q2 8 6 51t25 141l-78 -2q-12 0 -22 8q-9 8 -7 21l4 28q2 25 33 25l90 2q78 269 241 411t386 142z" />
    <glyph glyph-name="uni2117" unicode="&#x2117;" horiz-adv-x="1755" 
d="M961 674q201 0 200 227q0 99 -43 149t-153 50h-193v-426h189zM1262 901q0 -92 -29 -159q-29 -68 -76 -98q-87 -56 -170 -56h-215v-316q0 -16 -14 -16h-66q-14 0 -14 16v893q0 20 20 21h291q273 0 273 -285zM923 70q263 0 448 192t185 453t-185 455t-448 194t-449 -195
t-187 -455q0 -260 186 -452q187 -192 450 -192zM923 -16q-304 0 -519 214q-214 214 -214 518t216 519t518 215q303 0 517 -215t214 -519t-214 -518t-518 -214z" />
    <glyph glyph-name="trademark" unicode="&#x2122;" horiz-adv-x="1243" 
d="M1284 1434q16 0 12 -15l-82 -526q-2 -10 -14 -10h-55q-18 0 -15 14l58 371l-219 -375q-6 -10 -19 -10h-16q-10 0 -14 14l-107 371l-57 -375q-2 -10 -17 -10h-55q-16 0 -12 14l84 526q2 10 10 11h63q12 0 17 -15l115 -403l243 407q4 10 17 11h63zM664 1434q14 0 10 -15
l-8 -51q-2 -10 -15 -10h-147l-72 -465q-2 -10 -14 -10h-58q-16 0 -12 14l72 461h-158q-16 0 -12 14l10 51q2 10 14 11h390z" />
    <glyph glyph-name="uni2153" unicode="&#x2153;" horiz-adv-x="1779" 
d="M1460 918q132 0 192 -60t40 -182q-25 -158 -136 -213q37 -11 71 -67t18 -160q-15 -104 -91 -179q-76 -73 -221 -73t-207 70q-61 71 -47 163q2 18 23 19h49q18 0 18 -25q0 -101 67 -127q36 -14 93 -14q197 0 227 176q12 84 -26 128q-39 44 -148 46h-57q-20 0 -16 22l6 43
q4 18 18 19h53q190 0 213 174q31 154 -145 153q-172 0 -209 -151q-4 -12 -20 -12h-51q-23 0 -21 30q14 88 95 154t212 66zM479 0q-18 0 -22 15t4 30l790 1360q16 29 39 29h47q15 0 19 -12t-6 -27l-795 -1366q-14 -29 -41 -29h-35zM555 616q20 0 16 -22l-6 -43
q-4 -18 -20 -19h-424q-20 0 -21 21l9 45q0 18 22 18h166l109 689l-148 -105q-12 -8 -24 -2q-11 6 -9 19l8 57q2 12 25 26l176 130q6 4 23 4h41q18 0 18 -23l-125 -795h164z" />
    <glyph glyph-name="uni2154" unicode="&#x2154;" horiz-adv-x="1890" 
d="M1571 918q270 0 231 -242q-25 -158 -135 -213q37 -11 71 -67t18 -160t-92 -179q-75 -73 -220 -73t-207 70q-61 71 -47 163q2 18 22 19h50q18 0 18 -25q0 -102 67 -127q36 -14 93 -14q197 0 227 176q12 84 -27 128t-147 46h-57q-20 0 -17 22l6 43q4 18 19 19h53
q190 0 213 174q31 154 -145 153q-172 0 -209 -151q-4 -12 -21 -12h-51q-23 0 -20 30q14 88 95 154t212 66zM592 0q-18 0 -22 15t3 30l791 1360q16 29 39 29h47q14 0 18 -12t-6 -27l-794 -1366q-14 -29 -41 -29h-35zM548 1450q144 0 197 -65t37 -177t-153 -245l-361 -345h420
q8 0 14 -7t5 -15l-7 -45q-4 -18 -20 -19h-539q-18 0 -18 21l6 35q0 14 7 17t204 193t197 193q139 133 151 232q27 143 -143 143q-105 0 -157 -49t-60 -105q-4 -12 -17 -12h-59q-18 0 -14 25q12 89 89 157t221 68z" />
    <glyph glyph-name="oneeighth" unicode="&#x215b;" horiz-adv-x="1763" 
d="M1327 70q98 0 151 52q52 52 63 122t-33 120t-119 70q-87 -23 -149 -74t-72 -123q-10 -71 25 -119q36 -48 134 -48zM1452 831q-96 0 -140 -44t-52 -105q-25 -133 133 -172q174 39 192 186q23 135 -133 135zM1518 465q61 -27 94 -91t18 -145q-14 -102 -97 -174
q-83 -71 -216 -71t-196 74q-62 74 -47 168q28 174 188 243q-117 66 -92 234q13 89 87 151t202 64q128 0 181 -66t35 -170q-24 -151 -157 -217zM481 0q-18 0 -22 15t4 30l790 1360q16 29 39 29h47q15 0 19 -12t-6 -27l-795 -1366q-14 -29 -41 -29h-35zM555 616q20 0 16 -22
l-6 -43q-4 -18 -20 -19h-424q-20 0 -21 21l9 45q0 18 22 18h166l109 689l-148 -105q-12 -8 -24 -2q-11 6 -9 19l8 57q2 12 25 26l176 130q6 4 23 4h41q18 0 18 -23l-125 -795h164z" />
    <glyph glyph-name="threeeighths" unicode="&#x215c;" horiz-adv-x="1841" 
d="M1407 70q98 0 151 52q52 52 63 122t-34 120t-119 70q-86 -23 -148 -74t-72 -123q-10 -71 25 -119q36 -48 134 -48zM1532 831q-96 0 -140 -44t-53 -105q-24 -133 134 -172q174 39 192 186q23 135 -133 135zM1597 465q61 -27 95 -91q33 -65 18 -145q-14 -102 -97 -174
q-83 -71 -216 -71t-196 74q-62 74 -47 168q28 173 187 243q-51 29 -77 87q-27 58 -14 147t87 151t202 64q128 0 181 -66t35 -170q-25 -151 -158 -217zM559 0q-18 0 -22 15t4 30l790 1360q16 29 39 29h47q15 0 19 -12t-6 -27l-795 -1366q-14 -29 -41 -29h-35zM553 1450
q270 0 231 -242q-25 -158 -135 -213q37 -12 71 -67t18 -160q-16 -104 -92 -178q-75 -74 -220 -74t-207 71q-61 71 -47 163q4 18 23 18h49q18 0 18 -24q0 -101 67 -128q36 -14 93 -14q197 0 227 176q12 84 -26 128q-39 44 -148 46h-57q-20 0 -17 23l7 43q2 18 18 18h53
q190 0 213 174q31 154 -145 154q-74 0 -122 -29t-63 -56q-14 -28 -24 -67q-4 -12 -21 -12h-51q-23 0 -20 31q14 87 95 153t212 66z" />
    <glyph glyph-name="fiveeighths" unicode="&#x215d;" horiz-adv-x="1802" 
d="M1366 70q98 0 151 52q52 52 63 122t-34 120t-119 70q-86 -23 -148 -74q-63 -51 -73 -123q-10 -71 26 -119t134 -48zM1491 831q-96 0 -140 -44t-53 -105q-24 -133 134 -172q174 39 192 186q23 135 -133 135zM1556 465q61 -27 95 -91q33 -65 18 -145q-14 -102 -97 -174
q-83 -71 -216 -71t-196 74q-62 74 -47 168q28 173 187 243q-51 29 -77 87q-27 58 -14 147t87 151t202 64q128 0 181 -66t35 -170q-25 -151 -158 -217zM537 0q-19 0 -23 15t4 30l791 1360q16 29 39 29h47q14 0 18 -12t-6 -27l-795 -1366q-14 -29 -41 -29h-34zM404 516
q-134 0 -191 73t-43 161q6 18 20 18h56q18 0 16 -20q-6 -50 29 -98t121 -48t144 68t72 154t-35 135q-50 49 -128 45t-143 -62q-6 -4 -27 0l-68 16q-20 4 -14 21l141 436q10 18 23 19h360q7 0 15 -6t6 -15l-8 -47q0 -18 -21 -18h-303l-107 -306q63 39 141 45q172 13 238 -115
q35 -70 19 -176t-97 -193q-82 -87 -216 -87z" />
    <glyph glyph-name="seveneighths" unicode="&#x215e;" horiz-adv-x="1595" 
d="M1161 70q98 0 151 52q52 52 63 122t-33 120t-119 70q-87 -23 -149 -74t-72 -123q-10 -71 25 -119q36 -48 134 -48zM1286 831q-96 0 -140 -44t-52 -105q-25 -133 133 -172q174 39 192 186q23 135 -133 135zM1352 465q61 -27 94 -91t18 -145q-14 -102 -97 -174
q-83 -71 -216 -71t-196 74q-62 74 -47 168q28 174 188 243q-118 66 -92 234q14 89 88 151t202 64q128 0 180 -66q54 -66 35 -170q-24 -151 -157 -217zM309 0q-18 0 -22 15t4 30l790 1360q16 29 39 29h47q15 0 19 -12t-6 -27l-795 -1366q-14 -29 -41 -29h-35zM248 1350
q-20 0 -17 20l7 45q4 18 18 19h504q10 0 15 -10t1 -21l-491 -856q-10 -14 -27 -15h-55q-13 0 -17 8t0 19l453 791h-391z" />
    <glyph glyph-name="arrowleft" unicode="&#x2190;" horiz-adv-x="1710" 
d="M180 708q0 16 6 21l437 406q25 25 45 2l20 -21q20 -20 -2 -45l-274 -307h1173q29 0 29 -31v-51q0 -31 -29 -31h-1175l276 -309q23 -25 2 -45l-20 -21q-20 -22 -45 3l-437 407q-6 6 -6 22z" />
    <glyph glyph-name="arrowup" unicode="&#x2191;" horiz-adv-x="1153" 
d="M717 29q0 -29 -31 -29h-51q-31 0 -31 29v1173l-307 -274q-25 -23 -45 -2l-21 20q-23 20 2 45l406 436q5 7 21 7t22 -7l408 -436q25 -25 2 -45l-21 -20q-20 -20 -45 2l-309 276v-1175z" />
    <glyph glyph-name="arrowright" unicode="&#x2192;" horiz-adv-x="1712" 
d="M213 651q-29 0 -29 31v51q0 31 29 31h1173l-274 307q-23 25 -2 45l20 21q20 23 46 -2l436 -406q6 -6 6 -21t-6 -22l-436 -407q-25 -25 -46 -3l-20 21q-20 20 2 45l277 309h-1176z" />
    <glyph glyph-name="arrowdown" unicode="&#x2193;" horiz-adv-x="1153" 
d="M526 1405q0 29 31 29h51q31 0 31 -29v-1174l307 275q25 23 45 2l21 -21q20 -20 -2 -45l-406 -436q-6 -6 -21 -6t-22 6l-407 436q-23 25 -2 45l20 21q20 20 45 -2l309 -277v1176z" />
    <glyph glyph-name="arrowboth" unicode="&#x2194;" horiz-adv-x="2183" 
d="M2091 714q0 -15 -6 -22l-436 -407q-23 -23 -45 -2l-21 20q-20 20 2 45l277 309h-1450l276 -309q23 -25 2 -45l-20 -20q-23 -20 -45 2l-437 407q-6 6 -6 22t6 21l437 406q23 23 45 2l20 -21q20 -20 -2 -45l-274 -307h1446l-275 307q-23 25 -2 45l21 21q23 20 45 -2
l436 -406q6 -6 6 -21z" />
    <glyph glyph-name="arrowupdn" unicode="&#x2195;" horiz-adv-x="1308" 
d="M699 1671q15 0 22 -6l407 -436q23 -25 2 -45l-20 -21q-20 -20 -45 2l-309 277v-1450l309 276q25 22 45 2l20 -20q20 -20 -2 -45l-407 -436q-5 -7 -21 -7t-22 7l-406 436q-23 25 -2 45l21 20q20 20 45 -2l307 -274v1446l-307 -275q-25 -23 -45 -2l-21 21q-20 20 2 45
l406 436q6 6 21 6z" />
    <glyph glyph-name="uni2196" unicode="&#x2196;" horiz-adv-x="1474" 
d="M905 1114v-29q0 -31 -33 -30l-411 -25l831 -829q18 -20 -2 -41l-37 -37q-20 -20 -41 -2l-831 831l-23 -413q-2 -33 -30 -33h-29q-31 0 -31 33l-20 596q0 10 10 20t21 10l593 -20q33 0 33 -31z" />
    <glyph glyph-name="uni2197" unicode="&#x2197;" horiz-adv-x="1249" 
d="M1098 506h-29q-29 0 -31 33l-22 413l-832 -831q-20 -18 -41 2l-37 37q-20 20 -2 41l832 829l-412 25q-33 0 -32 30v29q0 31 32 31l594 20q10 0 20 -10t11 -20l-21 -596q0 -33 -30 -33z" />
    <glyph glyph-name="uni2198" unicode="&#x2198;" horiz-adv-x="1474" 
d="M635 180v29q0 29 33 31l413 22l-831 832q-20 20 2 41l37 36q23 20 41 3l829 -832l25 412q0 33 30 32h29q31 0 31 -32l20 -594q0 -10 -10 -20t-20 -11l-596 21q-33 0 -33 30z" />
    <glyph glyph-name="uni2199" unicode="&#x2199;" horiz-adv-x="1247" 
d="M248 786q31 0 31 -32l24 -412l830 832q18 18 41 -3l36 -36q23 -20 2 -41l-831 -832l414 -22q33 -2 32 -31v-29q1 -30 -32 -30l-596 -21q-10 0 -21 10q-10 10 -10 21l20 594q0 33 31 32h29z" />
    <glyph glyph-name="partialdiff" unicode="&#x2202;" horiz-adv-x="1077" 
d="M479.5 72q149.5 0 253 109.5t126 253.5t-44 251t-214.5 107t-257.5 -111t-127.5 -258q-27 -139 44 -245.5t220.5 -106.5zM473 -16q-193 0 -294 131t-70 321t169 318.5t333.5 128.5t279.5 -170q20 426 -385 651q-33 18 -17 39l21 29q23 27 55 6q543 -320 402 -1002
q-31 -197 -166 -324.5t-328 -127.5z" />
    <glyph glyph-name="emptyset" unicode="&#x2205;" horiz-adv-x="1646" 
d="M772.5 84q237.5 0 420.5 189.5t224 447.5q31 199 -35 358l-970 -839q123 -156 360.5 -156zM311 709q-35 -217 47 -381l975 839q-125 182 -369.5 182.5t-428 -191t-224.5 -449.5zM766 -16q-276 0 -434 186l-191 -164q-25 -18 -45 4l-26 31q-16 25 6 43l196 170
q-117 201 -73 467q49 307 270 518t505 211t443 -209l172 148q25 23 47 -5l23 -26q23 -23 -6 -45l-183 -158q100 -199 62 -446q-49 -307 -269.5 -516t-496.5 -209z" />
    <glyph glyph-name="product" unicode="&#x220f;" horiz-adv-x="1187" 
d="M1155 1434q37 0 31 -33l-6 -37q-6 -29 -37 -29h-72l-205 -1304q-6 -31 -35 -31h-49q-35 0 -28 35l207 1300h-447l-207 -1304q-6 -31 -33 -31h-51q-33 0 -26 35l204 1300h-67q-35 0 -29 33l6 37q6 29 35 29h809z" />
    <glyph glyph-name="summation" unicode="&#x2211;" horiz-adv-x="1208" 
d="M1163 1343h-727l262 -569q12 -35 11 -47l-4 -25q0 -2 -23 -47l-442 -565h721q37 0 30 -33l-4 -28q-6 -29 -35 -29h-829q-35 0 -29 33l4 28q4 18 13 27l491 629l-289 629q-10 20 -8 30l6 29q6 29 35 29h828q37 0 30 -33l-6 -29q-6 -29 -35 -29z" />
    <glyph glyph-name="minus" unicode="&#x2212;" horiz-adv-x="1124" 
d="M223 655q-10 -1 -18 9t-6 20l4 37q4 25 28 24h756q11 0 19 -9t6 -19l-4 -35q-4 -27 -29 -27h-756z" />
    <glyph glyph-name="radical" unicode="&#x221a;" horiz-adv-x="1394" 
d="M1331 1434h39q16 0 24 -14t-3 -34l-723 -1359q-18 -27 -35 -27h-29q-16 0 -20 6t-8 10t-5 15l-225 643l-96 -45q-29 -14 -39 10l-14 31q-14 25 8 35l180 81q29 12 39 -18l209 -596l653 1233q14 29 45 29z" />
    <glyph glyph-name="infinity" unicode="&#x221e;" horiz-adv-x="1783" 
d="M1280 442q123 0 197 83t90 191t-30 182q-46 75 -169 75t-224 -76t-159 -195q18 -112 95 -186t200 -74zM500 442q123 0 226 77t159 194q-18 115 -93 187t-197 73q-122 0 -197 -78t-92 -185q-17 -108 27 -188t167 -80zM1396 1065q146 0 224 -92t51 -261q-27 -170 -133 -266
t-252 -96t-245 70t-123 162q-56 -96 -176 -164t-266 -68t-222 100q-78 100 -51 270q27 169 129 257t248 88q146 -1 248 -63q103 -62 126 -156q55 96 176 158q120 62 266 61z" />
    <glyph glyph-name="integral" unicode="&#x222b;" horiz-adv-x="860" 
d="M770 1669q70 0 96 -20t17 -84l-9 -58q-6 -31 -32 -30h-41q-33 0 -27 34l4 27q6 41 -30 41h-41q-18 0 -32 -17q-15 -17 -20 -42l-276 -1731q-10 -75 -48 -107t-118 -32h-51q-70 0 -96 20t-17 84l8 58q6 31 35 30h41q33 0 27 -35l-6 -26q-8 -41 30 -41h41q17 0 33 17t21 42
l274 1731q12 70 47 104t119 35h51z" />
    <glyph glyph-name="approxequal" unicode="&#x2248;" horiz-adv-x="1118" 
d="M742 492q-94 0 -178 47t-129 47q-112 0 -204 -92q-10 -8 -30 4l-15 16q-16 12 -8 29q20 43 91 88t163 45t177 -47t131 -47t87 15q40 15 111 77q16 8 33 -4l16 -17q12 -12 6 -28q-23 -45 -91 -89q-66 -44 -160 -44zM782 750q-94 0 -177 47t-129 47q-112 0 -204 -92
q-10 -8 -30 4l-15 16q-16 12 -8 29q20 43 91 88t163 45t177 -47q86 -47 132 -47t86 15t111 77q16 8 33 -4l16 -17q12 -12 6 -28q-22 -45 -90 -89t-162 -44z" />
    <glyph glyph-name="notequal" unicode="&#x2260;" horiz-adv-x="1124" 
d="M1014 918q10 0 18 -10t6 -19l-4 -35q-4 -27 -28 -27h-261l-180 -245h396q10 0 18 -10t6 -19l-4 -35q-4 -27 -29 -26h-454l-121 -166q-20 -23 -45 -9l-19 13q-29 18 -14 47l84 115h-186q-10 0 -19 9q-8 9 -6 19l4 37q4 25 29 25h246l180 245h-381q-10 -1 -18 9t-7 20l4 37
q4 25 29 25h440l146 198q18 25 41 8l24 -14q25 -16 11 -45l-109 -147h203z" />
    <glyph glyph-name="lessequal" unicode="&#x2264;" horiz-adv-x="1159" 
d="M100 -2q-35 0 -30 33l4 28q2 29 35 29h839q35 0 31 -33l-4 -28q-6 -29 -35 -29h-840zM328 702l682 -253q31 -10 16 -37l-18 -39q-10 -20 -43 -8l-781 297q-23 10 -22 28q4 8 5 26t26 27l868 336q27 10 35 -12l12 -35q8 -23 -23 -35z" />
    <glyph glyph-name="greaterequal" unicode="&#x2265;" horiz-adv-x="1150" 
d="M88 -2q-35 0 -31 33l4 28q2 29 35 29h840q35 0 31 -33l-4 -28q-6 -29 -35 -29h-840zM909 702l-682 254q-31 10 -16 37l18 39q10 20 43 8l781 -297q23 -10 22 -28q-4 -9 -5 -27t-26 -26l-868 -336q-27 -10 -35 12l-12 35q-8 23 23 35z" />
    <glyph glyph-name="lozenge" unicode="&#x25ca;" horiz-adv-x="1193" 
d="M549 119l24 39l402 557l-225 561l-13 35l-428 -596l228 -557zM555 0h-47q-29 0 -41 33l-256 626q-12 36 -9 61t27 56l455 627q23 31 45 31h47q29 0 41 -35l254 -627q14 -36 11 -60q-3 -25 -25 -57l-453 -626q-20 -29 -49 -29z" />
    <glyph glyph-name="heart" unicode="&#x2665;" horiz-adv-x="1966" 
d="M1526 1356q-94 0 -171 -38t-116 -74t-100 -105q-25 -21 -49 -21t-33 29q-29 77 -112 143t-193 66t-193 -46q-85 -46 -147 -124t-77 -217t34 -273t202 -300q154 -165 361 -302q248 141 454 305q206 165 296 301q92 136 120 270q52 239 -112 343q-70 43 -164 43zM743 1450
q127 0 225 -58t140 -157q74 103 190 159t240 56q215 0 315 -145q96 -131 54 -344q-25 -123 -105 -254q-201 -326 -856 -719q-16 -8 -32 -8t-29 14q-322 254 -448 391t-183 330q-39 127 -28 243q21 218 161 355q141 137 356 137z" />
    <glyph glyph-name="AE.ss01" horiz-adv-x="1904" 
d="M1001 430l129 813l-665 -813h536zM1931 1434q10 0 17.5 -9.5t5.5 -19.5l-6 -47q-4 -25 -27 -25h-666l-90 -565h398q29 0 24 -27l-8 -51q-2 -23 -29 -22h-401l-90 -568h659q10 0 18.5 -9t6.5 -19l-8 -47q-4 -25 -27 -25h-745q-10 0 -18.5 9t-6.5 20l47 301h-600l-254 -312
q-16 -18 -37 -18h-53q-18 0 -25.5 13.5t9.5 31.5l1112 1372q14 16 30 17h764z" />
    <glyph glyph-name="B.ss01" horiz-adv-x="1210" 
d="M649 100q279 0 324 295q45 274 -197 275h-467l-90 -570h430zM752 1333h-336l-90 -567h413q111 0 180.5 61.5t96.5 230.5t-38.5 222t-225.5 53zM678 0h-551q-12 0 -21.5 10t-7.5 23l217 1372q4 29 33 29h475q367 0 303 -387q-39 -248 -190 -320q88 -29 128.5 -120
t16 -247.5t-127.5 -258t-275 -101.5z" />
    <glyph glyph-name="C.ss01" horiz-adv-x="1247" 
d="M590 -16q-246 0 -363.5 195.5t-62.5 540.5t232 537.5t427 192.5q170 0 271.5 -88t136.5 -244q10 -27 -14 -33l-62 -12q-25 -6 -33 23q-57 184 -176 232q-55 22 -127 22q-205 0 -349 -170t-191 -465t40 -463t285 -168q127 0 231.5 71.5t168.5 194.5q10 23 36 12l52 -14
q23 -10 10 -39q-72 -152 -204 -238.5t-308 -86.5z" />
    <glyph glyph-name="Cacute.ss01" horiz-adv-x="1247" 
d="M590 -16q-246 0 -363.5 195.5t-62.5 540.5t232 537.5t427 192.5q170 0 271.5 -88t136.5 -244q10 -27 -14 -33l-62 -12q-25 -6 -33 23q-57 184 -176 232q-55 22 -127 22q-205 0 -349 -170t-191 -465t40 -463t285 -168q127 0 231.5 71.5t168.5 194.5q10 23 36 12l52 -14
q23 -10 10 -39q-72 -152 -204 -238.5t-308 -86.5zM692 1604q-25 -8 -30 10l-5 14q-6 18 15 31l321 158q27 16 37 -9l17 -39q10 -29 -23 -43z" />
    <glyph glyph-name="Ccaron.ss01" horiz-adv-x="1247" 
d="M590 -16q-246 0 -363.5 195.5t-62.5 540.5t232 537.5t427 192.5q170 0 271.5 -88t136.5 -244q10 -27 -14 -33l-62 -12q-25 -6 -33 23q-57 184 -176 232q-55 22 -127 22q-205 0 -349 -170t-191 -465t40 -463t285 -168q127 0 231.5 71.5t168.5 194.5q10 23 36 12l52 -14
q23 -10 10 -39q-72 -152 -204 -238.5t-308 -86.5zM836 1606q-27 0 -43 28l-111 166q-19 28 -14 48q9 44 39 12l145 -174l197 180q20 14 30 6t6 -33t-22 -43l-168 -168q-23 -23 -49 -22h-10z" />
    <glyph glyph-name="Ccedilla.ss01" horiz-adv-x="1247" 
d="M819 1350q-205 0 -349 -170t-191 -465t40 -463t285 -168q127 0 231.5 71.5t168.5 194.5q10 23 36 12l52 -14q23 -10 10 -39q-72 -152 -204 -238.5t-308 -86.5h-21l-55 -86q72 18 120 -19t38 -113t-55.5 -115.5t-108.5 -39.5q-94 0 -123 80q-6 18 8 20l35 10q14 6 18 -8
q14 -35 58 -35q84 0 96 89q6 45 -22.5 61t-69.5 4h-29l-41 18q-16 8 -10 21l72 121q-203 35 -294 226.5t-39 519t229 520t427 192.5q170 0 271.5 -88t136.5 -244q10 -27 -14 -33l-62 -12q-25 -6 -33 23q-57 184 -176 232q-55 22 -127 22z" />
    <glyph glyph-name="Cdotaccent.ss01" horiz-adv-x="1247" 
d="M590 -16q-246 0 -363.5 195.5t-62.5 540.5t232 537.5t427 192.5q170 0 271.5 -88t136.5 -244q10 -27 -14 -33l-62 -12q-25 -6 -33 23q-57 184 -176 232q-55 22 -127 22q-205 0 -349 -170t-191 -465t40 -463t285 -168q127 0 231.5 71.5t168.5 194.5q10 23 36 12l52 -14
q23 -10 10 -39q-72 -152 -204 -238.5t-308 -86.5zM856 1665q-25 0 -41 18.5t-13 43.5t22.5 40t44 15t40 -19.5t11.5 -44.5t-21.5 -39t-42.5 -14z" />
    <glyph glyph-name="D.ss01" horiz-adv-x="1234" 
d="M836 1333h-420l-197 -1233h416q147 0 234 87t110 229l98 622q45 295 -241 295zM850 1434q401 0 334 -422l-92 -582q-37 -231 -154 -330.5t-309 -99.5h-506q-10 0 -18.5 9t-6.5 20l219 1380q4 25 27 25h506z" />
    <glyph glyph-name="Eth.ss01" horiz-adv-x="1234" 
d="M836 1333h-420l-90 -571h319q33 0 27 -31l-4 -33q-4 -31 -35 -30h-324l-90 -568h416q147 0 234 87t110 229l98 622q45 295 -241 295zM850 1434q401 0 334 -422l-92 -582q-37 -231 -154 -330.5t-309 -99.5h-506q-10 0 -18.5 9t-6.5 20l103 639h-60q-33 0 -28 32l2 33
q2 29 37 29h63l102 647q4 25 27 25h506z" />
    <glyph glyph-name="Dcaron.ss01" horiz-adv-x="1234" 
d="M836 1333h-420l-197 -1233h416q147 0 234 87t110 229l98 622q45 295 -241 295zM850 1434q401 0 334 -422l-92 -582q-37 -231 -154 -330.5t-309 -99.5h-506q-10 0 -18.5 9t-6.5 20l219 1380q4 25 27 25h506zM791 1606q-27 0 -43 28l-111 166q-19 28 -14 48q9 44 39 12
l145 -174l197 180q20 14 30 6t6 -33t-22 -43l-168 -168q-23 -23 -49 -22h-10z" />
    <glyph glyph-name="Dcroat.ss01" horiz-adv-x="1234" 
d="M836 1333h-420l-90 -571h319q33 0 27 -31l-4 -33q-4 -31 -35 -30h-324l-90 -568h416q147 0 234 87t110 229l98 622q45 295 -241 295zM850 1434q401 0 334 -422l-92 -582q-37 -231 -154 -330.5t-309 -99.5h-506q-10 0 -18.5 9t-6.5 20l103 639h-60q-33 0 -28 32l2 33
q2 29 37 29h63l102 647q4 25 27 25h506z" />
    <glyph glyph-name="E.ss01" horiz-adv-x="1062" 
d="M879 100q10 0 18 -9t6 -19l-8 -47q-4 -25 -27 -25h-745q-10 0 -18.5 9t-6.5 20l217 1376q4 29 33 29h744q10 0 17 -9.5t5 -19.5l-6 -47q-4 -25 -27 -25h-665l-90 -565h397q29 0 25 -27l-9 -51q-2 -23 -28 -22h-402l-90 -568h660z" />
    <glyph glyph-name="Eacute.ss01" horiz-adv-x="1062" 
d="M879 100q10 0 18 -9t6 -19l-8 -47q-4 -25 -27 -25h-745q-10 0 -18.5 9t-6.5 20l217 1376q4 29 33 29h744q10 0 17 -9.5t5 -19.5l-6 -47q-4 -25 -27 -25h-665l-90 -565h397q29 0 25 -27l-9 -51q-2 -23 -28 -22h-402l-90 -568h660zM578 1604q-25 -8 -31 10l-4 14
q-6 18 14 31l322 158q27 16 36 -9l17 -39q10 -29 -23 -43z" />
    <glyph glyph-name="Ecaron.ss01" horiz-adv-x="1062" 
d="M879 100q10 0 18 -9t6 -19l-8 -47q-4 -25 -27 -25h-745q-10 0 -18.5 9t-6.5 20l217 1376q4 29 33 29h744q10 0 17 -9.5t5 -19.5l-6 -47q-4 -25 -27 -25h-665l-90 -565h397q29 0 25 -27l-9 -51q-2 -23 -28 -22h-402l-90 -568h660zM721 1606q-27 0 -43 28l-111 166
q-19 28 -14 48q9 46 39 12l145 -174l197 180q20 14 30.5 6t6.5 -33t-23 -43l-168 -168q-23 -23 -49 -22h-10z" />
    <glyph glyph-name="Ecircumflex.ss01" horiz-adv-x="1062" 
d="M879 100q10 0 18 -9t6 -19l-8 -47q-4 -25 -27 -25h-745q-10 0 -18.5 9t-6.5 20l217 1376q4 29 33 29h744q10 0 17 -9.5t5 -19.5l-6 -47q-4 -25 -27 -25h-665l-90 -565h397q29 0 25 -27l-9 -51q-2 -23 -28 -22h-402l-90 -568h660zM768 1874q27 0 45 -27l113 -164
q18 -27 16 -41l-4 -16q-10 -39 -37 -6l-147 174l-201 -178q-25 -18 -32 -6t-5 18l4 21q4 20 23 39l166 165q23 20 51 21h8z" />
    <glyph glyph-name="Edieresis.ss01" horiz-adv-x="1062" 
d="M879 100q10 0 18 -9t6 -19l-8 -47q-4 -25 -27 -25h-745q-10 0 -18.5 9t-6.5 20l217 1376q4 29 33 29h744q10 0 17 -9.5t5 -19.5l-6 -47q-4 -25 -27 -25h-665l-90 -565h397q29 0 25 -27l-9 -51q-2 -23 -28 -22h-402l-90 -568h660zM862 1675q-25 0 -40 16.5t-11 39.5
q10 45 53 45q25 0 39.5 -16.5t9.5 -41.5q-6 -43 -51 -43zM635 1675q-23 0 -38 16.5t-11 39.5q6 45 53 45q23 0 37 -16.5t12 -41.5q-10 -43 -53 -43z" />
    <glyph glyph-name="Edotaccent.ss01" horiz-adv-x="1062" 
d="M879 100q10 0 18 -9t6 -19l-8 -47q-4 -25 -27 -25h-745q-10 0 -18.5 9t-6.5 20l217 1376q4 29 33 29h744q10 0 17 -9.5t5 -19.5l-6 -47q-4 -25 -27 -25h-665l-90 -565h397q29 0 25 -27l-9 -51q-2 -23 -28 -22h-402l-90 -568h660zM741 1665q-25 0 -41 18.5t-13 43.5
t22.5 40t44.5 15t40 -19.5t11 -44.5t-21.5 -39t-42.5 -14z" />
    <glyph glyph-name="Egrave.ss01" horiz-adv-x="1062" 
d="M879 100q10 0 18 -9t6 -19l-8 -47q-4 -25 -27 -25h-745q-10 0 -18.5 9t-6.5 20l217 1376q4 29 33 29h744q10 0 17 -9.5t5 -19.5l-6 -47q-4 -25 -27 -25h-665l-90 -565h397q29 0 25 -27l-9 -51q-2 -23 -28 -22h-402l-90 -568h660zM907 1606l-332 123q-33 14 -22 43l16 38
q10 25 37 9l322 -158q20 -12 14 -31l-4 -14q-6 -18 -31 -10z" />
    <glyph glyph-name="Emacron.ss01" horiz-adv-x="1062" 
d="M879 100q10 0 18 -9t6 -19l-8 -47q-4 -25 -27 -25h-745q-10 0 -18.5 9t-6.5 20l217 1376q4 29 33 29h744q10 0 17 -9.5t5 -19.5l-6 -47q-4 -25 -27 -25h-665l-90 -565h397q29 0 25 -27l-9 -51q-2 -23 -28 -22h-402l-90 -568h660zM557 1665q-35 0 -31 33l4 22q6 31 35 31
h369q35 0 31 -33l-4 -22q-6 -31 -33 -31h-371z" />
    <glyph glyph-name="Eogonek.ss01" horiz-adv-x="1062" 
d="M1092 1434q10 0 17 -9.5t5 -19.5l-6 -47q-4 -25 -27 -25h-665l-90 -565h397q29 0 25 -27l-9 -51q-2 -23 -28 -22h-402l-90 -568h660q10 0 18 -9t6 -19l-8 -47q-4 -25 -27 -25h-84q-150 -104 -168 -223q-16 -101 96 -101q56 0 91 52q11 11 31 -4t10 -33
q-16 -35 -60.5 -62.5t-113 -27.5t-115.5 44t-33 124q20 133 197 231h-596q-10 0 -18.5 9t-6.5 20l217 1376q4 29 33 29h744z" />
    <glyph glyph-name="F.ss01" horiz-adv-x="1056" 
d="M1085 1434q10 0 18.5 -9.5t6.5 -19.5l-6 -47q-4 -25 -29 -25h-659l-99 -616h412q10 0 19.5 -8.5t7.5 -18.5l-8 -49q-4 -25 -31 -25h-416l-94 -591q-4 -25 -23 -25h-65q-25 0 -21 29l219 1380q4 25 27 25h741z" />
    <glyph glyph-name="G.ss01" horiz-adv-x="1288" 
d="M1151 651q29 0 25 -30l-95 -598q-4 -23 -22 -23h-35q-25 0 -20 27l20 188q-162 -231 -418 -231t-376.5 193.5t-65.5 543.5t234.5 539.5t424.5 189.5q106 0 188.5 -37t127.5 -99q88 -120 88 -282q0 -18 -19 -20l-59 -11q-27 -6 -27 21q-7 156 -86 242t-207 86
q-219 0 -362 -174.5t-189 -462t39.5 -458.5t300.5 -171q170 0 295 123t162 346h-289q-31 0 -26 31l6 41q4 27 33 26h352z" />
    <glyph glyph-name="Gbreve.ss01" horiz-adv-x="1288" 
d="M1151 651q29 0 25 -30l-95 -598q-4 -23 -22 -23h-35q-25 0 -20 27l20 188q-162 -231 -418 -231t-376.5 193.5t-65.5 543.5t234.5 539.5t424.5 189.5q106 0 188.5 -37t127.5 -99q88 -120 88 -282q0 -18 -19 -20l-59 -11q-27 -6 -27 21q-7 156 -85.5 242t-207.5 86
q-219 0 -362 -174.5t-189 -462t39.5 -458.5t300.5 -171q170 0 295 123t162 346h-289q-31 0 -26 31l6 41q4 27 33 26h352zM869.5 1688q60.5 0 120 47t91.5 110q8 14 25 6l41 -24q14 -8 6 -23q-109 -193 -307 -192q-117 0 -168 55t-70 145q-2 14 13 21l45 18q18 4 20 -12
q27 -112 91 -138q32 -13 92.5 -13z" />
    <glyph glyph-name="Gcommaaccent.ss01" horiz-adv-x="1288" 
d="M545 -129h67q31 0 29 -31l-14 -92q-10 -51 -51 -92t-101 -57q-14 -2 -16 13t12 21q78 35 90 109l-41 18q-23 12 -18 37l6 43q6 31 37 31zM1151 651q29 0 25 -30l-95 -598q-4 -23 -22 -23h-35q-25 0 -20 27l20 188q-162 -231 -418 -231t-376.5 193.5t-65.5 543.5
t234.5 539.5t424.5 189.5q106 0 188.5 -37t127.5 -99q88 -120 88 -282q0 -18 -19 -20l-59 -11q-27 -6 -27 21q-7 156 -86 242t-207 86q-219 0 -362 -174.5t-189 -462t39.5 -458.5t300.5 -171q170 0 295 123t162 346h-289q-31 0 -26 31l6 41q4 27 33 26h352z" />
    <glyph glyph-name="Gdotaccent.ss01" horiz-adv-x="1288" 
d="M1151 651q29 0 25 -30l-95 -598q-4 -23 -22 -23h-35q-25 0 -20 27l20 188q-162 -231 -418 -231t-376.5 193.5t-65.5 543.5t234.5 539.5t424.5 189.5q106 0 188.5 -37t127.5 -99q88 -120 88 -282q0 -18 -19 -20l-59 -11q-27 -6 -27 21q-7 156 -85.5 242t-207.5 86
q-219 0 -362 -174.5t-189 -462t39.5 -458.5t300.5 -171q170 0 295 123t162 346h-289q-31 0 -26 31l6 41q4 27 33 26h352zM860 1665q-25 0 -41 18.5t-13 43.5t22.5 40t44 15t40 -19.5t11.5 -44.5t-21.5 -39t-42.5 -14z" />
    <glyph glyph-name="I.ss01" horiz-adv-x="602" 
d="M580 1333h-80l-197 -1233h80q10 0 18.5 -8t6.5 -18l-9 -47q-4 -27 -30 -27h-271q-27 0 -22 27l6 47q4 27 31 26h80l196 1233h-80q-10 0 -18 8.5t-6 18.5l8 47q4 27 31 27h270q27 0 22 -27l-6 -47q-3 -27 -30 -27z" />
    <glyph glyph-name="Iacute.ss01" horiz-adv-x="602" 
d="M580 1333h-80l-197 -1233h80q10 0 18.5 -8t6.5 -18l-9 -47q-4 -27 -30 -27h-271q-27 0 -22 27l6 47q4 27 31 26h80l196 1233h-80q-10 0 -18 8.5t-6 18.5l8 47q4 27 31 27h270q27 0 22 -27l-6 -47q-3 -27 -30 -27zM344 1604q-25 -8 -31 10l-4 14q-6 18 15 31l321 158
q27 16 37 -9l16 -39q10 -29 -22 -43z" />
    <glyph glyph-name="Icircumflex.ss01" horiz-adv-x="602" 
d="M580 1333h-80l-197 -1233h80q10 0 18.5 -8t6.5 -18l-9 -47q-4 -27 -30 -27h-271q-27 0 -22 27l6 47q4 27 31 26h80l196 1233h-80q-10 0 -18 8.5t-6 18.5l8 47q4 27 31 27h270q27 0 22 -27l-6 -47q-3 -27 -30 -27zM535 1874q27 0 45 -27l112 -164q18 -27 17 -41l-4 -16
q-10 -39 -37 -6l-148 174l-201 -178q-25 -18 -31.5 -6t-4.5 18l4 21q4 20 22 39l166 165q23 20 51 21h9z" />
    <glyph glyph-name="Idieresis.ss01" horiz-adv-x="602" 
d="M580 1333h-80l-197 -1233h80q10 0 18.5 -8t6.5 -18l-9 -47q-4 -27 -30 -27h-271q-27 0 -22 27l6 47q4 27 31 26h80l196 1233h-80q-10 0 -18 8.5t-6 18.5l8 47q4 27 31 27h270q27 0 22 -27l-6 -47q-3 -27 -30 -27zM629 1675q-25 0 -40.5 16.5t-10.5 39.5q10 45 53 45
q25 0 39 -16.5t10 -41.5q-6 -43 -51 -43zM401 1675q-23 0 -38 16.5t-11 39.5q6 45 54 45q23 0 37 -16.5t12 -41.5q-11 -43 -54 -43z" />
    <glyph glyph-name="Idotaccent.ss01" horiz-adv-x="602" 
d="M580 1333h-80l-197 -1233h80q10 0 18.5 -8t6.5 -18l-9 -47q-4 -27 -30 -27h-271q-27 0 -22 27l6 47q4 27 31 26h80l196 1233h-80q-10 0 -18 8.5t-6 18.5l8 47q4 27 31 27h270q27 0 22 -27l-6 -47q-3 -27 -30 -27zM520.5 1782q24.5 0 39.5 -19.5t11 -46.5q-9 -51 -63 -51
q-25 0 -41 18.5t-13 43.5t22.5 40t44 15z" />
    <glyph glyph-name="Igrave.ss01" horiz-adv-x="602" 
d="M580 1333h-80l-197 -1233h80q10 0 18.5 -8t6.5 -18l-9 -47q-4 -27 -30 -27h-271q-27 0 -22 27l6 47q4 27 31 26h80l196 1233h-80q-10 0 -18 8.5t-6 18.5l8 47q4 27 31 27h270q27 0 22 -27l-6 -47q-3 -27 -30 -27zM674 1606l-332 123q-33 14 -23 43l17 38q10 25 37 9
l321 -158q20 -12 15 -31l-4 -14q-6 -18 -31 -10z" />
    <glyph glyph-name="Imacron.ss01" horiz-adv-x="602" 
d="M580 1333h-80l-197 -1233h80q10 0 18.5 -8t6.5 -18l-9 -47q-4 -27 -30 -27h-271q-27 0 -22 27l6 47q4 27 31 26h80l196 1233h-80q-10 0 -18 8.5t-6 18.5l8 47q4 27 31 27h270q27 0 22 -27l-6 -47q-3 -27 -30 -27zM324 1665q-35 0 -31 33l4 22q6 31 35 31h368q35 0 31 -33
l-4 -22q-6 -31 -33 -31h-370z" />
    <glyph glyph-name="Iogonek.ss01" horiz-adv-x="602" 
d="M594 1434q27 0 22 -27l-6 -47q-4 -27 -30 -27h-80l-197 -1233h80q10 0 18.5 -8t6.5 -18l-9 -47q-4 -27 -30 -27h-13q-150 -104 -168 -223q-16 -101 96 -101q56 0 91 52q11 11 31 -4t10 -33q-16 -35 -60.5 -62.5t-113 -27.5t-115.5 44t-33 124q20 133 197 231h-193
q-27 0 -22 27l6 47q4 27 31 26h80l196 1233h-80q-10 0 -18 8.5t-6 18.5l8 47q4 27 31 27h270z" />
    <glyph glyph-name="M.ss01" horiz-adv-x="1480" 
d="M1401 1434h47q10 0 18.5 -9.5t6.5 -19.5l-220 -1382q-4 -23 -22 -23h-66q-25 0 -20 27l182 1165l-553 -768q-14 -23 -26 -23h-13q-14 0 -24 25l-318 776l-186 -1179q-4 -23 -25 -23h-63q-25 0 -21 27l219 1382q4 25 25 25h45q14 0 31 -33l344 -838l600 842q23 29 39 29z
" />
    <glyph glyph-name="N.ss01" horiz-adv-x="1267" 
d="M1239 1434q25 0 21 -29l-220 -1382q-4 -23 -22 -23h-49q-18 0 -33 27l-539 1187l-190 -1191q-4 -23 -23 -23h-65q-25 0 -21 27l219 1382q4 25 25 25h47q18 0 33 -33l541 -1184l188 1192q4 25 23 25h65z" />
    <glyph glyph-name="Nacute.ss01" horiz-adv-x="1267" 
d="M1239 1434q25 0 21 -29l-220 -1382q-4 -23 -22 -23h-49q-18 0 -33 27l-539 1187l-190 -1191q-4 -23 -23 -23h-65q-25 0 -21 27l219 1382q4 25 25 25h47q18 0 33 -33l541 -1184l188 1192q4 25 23 25h65zM674 1604q-25 -8 -31 10l-4 14q-6 18 14 31l322 158q27 16 37 -9
l16 -39q10 -29 -22 -43z" />
    <glyph glyph-name="Ncaron.ss01" horiz-adv-x="1267" 
d="M1239 1434q25 0 21 -29l-220 -1382q-4 -23 -22 -23h-49q-18 0 -33 27l-539 1187l-190 -1191q-4 -23 -23 -23h-65q-25 0 -21 27l219 1382q4 25 25 25h47q18 0 33 -33l541 -1184l188 1192q4 25 23 25h65zM817 1606q-27 0 -43 28l-110 166q-19 29 -15 49q9 45 39 11
l146 -174l196 180q20 14 30.5 6t7.5 -33t-24 -43l-167 -168q-23 -23 -50 -22h-10z" />
    <glyph glyph-name="Ncommaaccent.ss01" horiz-adv-x="1267" 
d="M512 -129h68q30 0 28 -31l-14 -92q-10 -51 -51 -92t-101 -57q-14 -2 -16 13t12 21q78 35 90 109l-41 18q-23 12 -18 37l6 43q6 31 37 31zM1239 1434q25 0 21 -29l-220 -1382q-4 -23 -22 -23h-49q-18 0 -33 27l-539 1187l-190 -1191q-4 -23 -23 -23h-65q-25 0 -21 27
l219 1382q4 25 25 25h47q18 0 33 -33l541 -1184l188 1192q4 25 23 25h65z" />
    <glyph glyph-name="Eng.ss01" horiz-adv-x="1269" 
d="M1237 1434q27 0 23 -29l-234 -1483q-8 -55 -58 -107t-114 -85q-27 -12 -39 4l-22 30q-14 27 2 35q115 59 135 156q12 59 -17 123l-516 1136l-190 -1189q-2 -25 -25 -25h-61q-27 0 -23 29l219 1380q2 25 25 25h45q20 0 35 -33l541 -1184l188 1192q4 25 25 25h61z" />
    <glyph glyph-name="Ntilde.ss01" horiz-adv-x="1267" 
d="M1239 1434q25 0 21 -29l-220 -1382q-4 -23 -22 -23h-49q-18 0 -33 27l-539 1187l-190 -1191q-4 -23 -23 -23h-65q-25 0 -21 27l219 1382q4 25 25 25h47q18 0 33 -33l541 -1184l188 1192q4 25 23 25h65zM963 1628q-55 0 -128 51.5t-108 51.5q-82 0 -129 -84q-8 -16 -27 -5
l-22 11q-16 8 -8 28q18 51 71.5 89t116.5 38t135 -52t105 -52q70 0 123 90q6 14 24 4l21 -12q18 -12 10 -31q-59 -127 -184 -127z" />
    <glyph glyph-name="O.ss01" horiz-adv-x="1327" 
d="M606 84q211 0 350.5 177t183.5 459t-36 456t-290 174t-350 -178.5t-185 -460t35.5 -454.5t291.5 -173zM596 -16q-248 0 -367.5 193.5t-64.5 542.5t233 539.5t426 190.5t367 -193.5t63.5 -542.5t-232.5 -539.5t-425 -190.5z" />
    <glyph glyph-name="Oacute.ss01" horiz-adv-x="1327" 
d="M606 84q211 0 350.5 177t183.5 459t-36 456t-290 174t-350 -178.5t-185 -460t35.5 -454.5t291.5 -173zM596 -16q-248 0 -367.5 193.5t-64.5 542.5t233 539.5t426 190.5t367 -193.5t63.5 -542.5t-232.5 -539.5t-425 -190.5zM707 1604q-25 -8 -31 10l-4 14q-6 18 14 31
l322 158q27 16 36 -9l17 -39q10 -29 -23 -43z" />
    <glyph glyph-name="Ocircumflex.ss01" horiz-adv-x="1327" 
d="M606 84q211 0 350.5 177t183.5 459t-36 456t-290 174t-350 -178.5t-185 -460t35.5 -454.5t291.5 -173zM596 -16q-248 0 -367.5 193.5t-64.5 542.5t233 539.5t426 190.5t367 -193.5t63.5 -542.5t-232.5 -539.5t-425 -190.5zM897 1874q27 0 45 -27l113 -164q18 -27 16 -41
l-4 -16q-10 -39 -37 -6l-147 174l-201 -178q-25 -18 -32 -6t-5 18l4 21q4 20 23 39l166 165q23 20 51 21h8z" />
    <glyph glyph-name="Odieresis.ss01" horiz-adv-x="1327" 
d="M606 84q211 0 350.5 177t183.5 459t-36 456t-290 174t-350 -178.5t-185 -460t35.5 -454.5t291.5 -173zM596 -16q-248 0 -367.5 193.5t-64.5 542.5t233 539.5t426 190.5t367 -193.5t63.5 -542.5t-232.5 -539.5t-425 -190.5zM991 1675q-25 0 -40 16.5t-11 39.5q10 45 53 45
q25 0 39.5 -16.5t9.5 -41.5q-6 -43 -51 -43zM764 1675q-23 0 -38 16.5t-11 39.5q6 45 53 45q23 0 37 -16.5t12 -41.5q-10 -43 -53 -43z" />
    <glyph glyph-name="Ograve.ss01" horiz-adv-x="1327" 
d="M606 84q211 0 350.5 177t183.5 459t-36 456t-290 174t-350 -178.5t-185 -460t35.5 -454.5t291.5 -173zM596 -16q-248 0 -367.5 193.5t-64.5 542.5t233 539.5t426 190.5t367 -193.5t63.5 -542.5t-232.5 -539.5t-425 -190.5zM1036 1606l-331 123q-33 14 -23 43l16 38
q10 25 37 9l322 -158q20 -12 14 -31l-4 -14q-6 -18 -31 -10z" />
    <glyph glyph-name="Ohungarumlaut.ss01" horiz-adv-x="1327" 
d="M606 84q211 0 350.5 177t183.5 459t-36 456t-290 174t-350 -178.5t-185 -460t35.5 -454.5t291.5 -173zM596 -16q-248 0 -367.5 193.5t-64.5 542.5t233 539.5t426 190.5t367 -193.5t63.5 -542.5t-232.5 -539.5t-425 -190.5zM895 1593q-20 -16 -35 9l-8 10q-10 16 18 39
l224 188q12 8 24 4t17 -16l18 -37q8 -25 -16 -41zM682 1593q-18 -10 -31 4l-10 13q-14 18 14 41l226 188q29 20 43 -12l18 -37q12 -27 -12 -41z" />
    <glyph glyph-name="Omacron.ss01" horiz-adv-x="1327" 
d="M606 84q211 0 350.5 177t183.5 459t-36 456t-290 174t-350 -178.5t-185 -460t35.5 -454.5t291.5 -173zM596 -16q-248 0 -367.5 193.5t-64.5 542.5t233 539.5t426 190.5t367 -193.5t63.5 -542.5t-232.5 -539.5t-425 -190.5zM686 1665q-35 0 -31 33l4 22q6 31 35 31h369
q35 0 31 -33l-4 -22q-6 -31 -33 -31h-371z" />
    <glyph glyph-name="Oslash.ss01" horiz-adv-x="1327" 
d="M606 84q213 0 352.5 177t185.5 470t-48 463l-699 -1040q82 -70 209 -70zM817 1350q-211 0 -351 -178t-188 -474t54 -469l702 1045q-82 76 -217 76zM600 -16q-156 0 -264 77l-35 -51q-18 -27 -43 -26h-43q-20 0 -23.5 16t7.5 31l65 98q-162 197 -98 594
q55 346 233.5 536.5t423.5 190.5q164 0 273 -86l39 57q20 29 41 29h55q14 0 17 -12.5t-7 -28.5l-76 -113q152 -195 93.5 -563t-235.5 -558.5t-423 -190.5z" />
    <glyph glyph-name="Otilde.ss01" horiz-adv-x="1327" 
d="M606 84q211 0 350.5 177t183.5 459t-36 456t-290 174t-350 -178.5t-185 -460t35.5 -454.5t291.5 -173zM596 -16q-248 0 -367.5 193.5t-64.5 542.5t233 539.5t426 190.5t367 -193.5t63.5 -542.5t-232.5 -539.5t-425 -190.5zM995 1628q-55 0 -127.5 51.5t-107.5 51.5
q-82 0 -129 -84q-8 -16 -27 -5l-22 11q-16 8 -9 28q18 51 71.5 89t117 38t135.5 -52t104 -52q70 0 123 90q6 14 25 4l20 -12q18 -12 11 -31q-59 -127 -185 -127z" />
    <glyph glyph-name="OE.ss01" horiz-adv-x="1667" 
d="M598 84q58 0 115 14l196 1239q-43 12 -102 13q-209 0 -347 -183.5t-181 -453.5q-23 -170 -7.5 -309.5t100.5 -229.5t226 -90zM1696 1434q10 0 17 -9.5t5 -19.5l-6 -47q-4 -25 -26 -25h-666l-90 -565h397q29 0 25 -27l-9 -51q-2 -23 -28 -22h-402l-90 -568h660q10 0 18 -9
t6 -19l-8 -47q-4 -25 -26 -25h-740q-70 -16 -139 -16q-262 0 -371.5 206.5t-57.5 530.5t222 526.5t426 202.5q74 0 139 -16h744z" />
    <glyph glyph-name="P.ss01" horiz-adv-x="1132" 
d="M614 639q336 0 392 352q29 174 -39 258t-240 84h-311l-111 -694h309zM647 539h-358l-82 -516q-4 -23 -23 -23h-65q-25 0 -21 27l219 1382q4 25 27 25h440q172 0 271.5 -114t63.5 -341t-168 -333.5t-304 -106.5z" />
    <glyph glyph-name="Q.ss01" horiz-adv-x="1337" 
d="M605 84q208 0 346.5 178t183.5 457.5t-35 455t-289 175.5t-349 -179t-184 -459t37.5 -454t289.5 -174zM820 1450q245 0 364 -193.5t65.5 -534.5t-221.5 -532l133 -155q20 -25 -2 -43l-37 -31q-23 -23 -43 4l-131 148q-150 -129 -352 -129q-246 0 -366.5 194.5
t-65.5 542.5t233 538.5t423 190.5z" />
    <glyph glyph-name="R.ss01" horiz-adv-x="1161" 
d="M694 676q96 0 184 60q50 34 88 103.5t52 168.5q29 170 -38 247.5t-194 77.5h-370l-107 -657h385zM182 0h-61q-27 0 -23 27l219 1382q4 25 27 25h475q170 0 258 -113t53 -324q-51 -319 -315 -403q176 -231 150 -571q0 -23 -23 -23h-61q-25 0 -23 31q6 150 -36 304
t-134 243l-393 -3l-88 -552q-4 -23 -25 -23z" />
    <glyph glyph-name="Racute.ss01" horiz-adv-x="1161" 
d="M694 676q96 0 184 60q50 34 88 103.5t52 168.5q29 170 -38 247.5t-194 77.5h-370l-107 -657h385zM182 0h-61q-27 0 -23 27l219 1382q4 25 27 25h475q170 0 258 -113t53 -324q-51 -319 -315 -403q176 -231 150 -571q0 -23 -23 -23h-61q-25 0 -23 31q6 150 -36 304
t-134 243l-393 -3l-88 -552q-4 -23 -25 -23zM618 1604q-25 -8 -30 10l-4 14q-6 18 14 31l322 158q27 16 36 -9l17 -39q10 -29 -23 -43z" />
    <glyph glyph-name="Rcaron.ss01" horiz-adv-x="1161" 
d="M694 676q96 0 184 60q50 34 88 103.5t52 168.5q29 170 -38 247.5t-194 77.5h-370l-107 -657h385zM182 0h-61q-27 0 -23 27l219 1382q4 25 27 25h475q170 0 258 -113t53 -324q-51 -319 -315 -403q176 -231 150 -571q0 -23 -23 -23h-61q-25 0 -23 31q6 150 -36 304
t-134 243l-393 -3l-88 -552q-4 -23 -25 -23zM762 1606q-27 0 -43 28l-111 166q-19 28 -14 48q9 44 39 12l145 -174l197 180q20 14 30.5 6t6.5 -33t-23 -43l-168 -168q-23 -23 -49 -22h-10z" />
    <glyph glyph-name="Rcommaaccent.ss01" horiz-adv-x="1161" 
d="M459 -129h67q31 0 29 -31l-14 -92q-10 -51 -51 -92t-101 -57q-14 -2 -16 13t12 21q78 35 90 109l-41 18q-23 12 -18 37l6 43q6 31 37 31zM694 676q96 0 184 60q50 34 88 103.5t52 168.5q29 170 -38 247.5t-194 77.5h-370l-107 -657h385zM182 0h-61q-27 0 -23 27l219 1382
q4 25 27 25h475q170 0 258 -113t53 -324q-51 -319 -315 -403q176 -231 150 -571q0 -23 -23 -23h-61q-25 0 -23 31q6 150 -36 304t-134 243l-393 -3l-88 -552q-4 -23 -25 -23z" />
    <glyph glyph-name="U.ss01" horiz-adv-x="1220" 
d="M1188 1434q10 0 18 -10.5t6 -20.5l-147 -924q-37 -240 -147.5 -359.5t-319.5 -119.5h-106q-399 0 -322 485l145 922q4 27 27 27h59q29 0 25 -31l-152 -954q-27 -178 34 -263.5t175 -85.5h142q117 0 208 88t119 267l150 952q4 27 26 27h60z" />
    <glyph glyph-name="Uacute.ss01" horiz-adv-x="1220" 
d="M1188 1434q10 0 18 -10.5t6 -20.5l-147 -924q-37 -240 -147.5 -359.5t-319.5 -119.5h-106q-399 0 -322 485l145 922q4 27 27 27h59q29 0 25 -31l-152 -954q-27 -178 34 -263.5t175 -85.5h142q117 0 208 88t119 267l150 952q4 27 26 27h60zM651 1604q-25 -8 -30 10l-5 14
q-6 18 15 31l321 158q27 16 37 -9l17 -39q10 -29 -23 -43z" />
    <glyph glyph-name="Ucircumflex.ss01" horiz-adv-x="1220" 
d="M1188 1434q10 0 18 -10.5t6 -20.5l-147 -924q-37 -240 -147.5 -359.5t-319.5 -119.5h-106q-399 0 -322 485l145 922q4 27 27 27h59q29 0 25 -31l-152 -954q-27 -178 34 -263.5t175 -85.5h142q117 0 208 88t119 267l150 952q4 27 26 27h60zM842 1874q27 0 45 -27l112 -164
q18 -27 17 -41l-4 -16q-10 -39 -37 -6l-148 174l-200 -178q-25 -18 -32 -6t-5 18l4 21q4 20 22 39l166 165q23 20 52 21h8z" />
    <glyph glyph-name="Udieresis.ss01" horiz-adv-x="1220" 
d="M1188 1434q10 0 18 -10.5t6 -20.5l-147 -924q-37 -240 -147.5 -359.5t-319.5 -119.5h-106q-399 0 -322 485l145 922q4 27 27 27h59q29 0 25 -31l-152 -954q-27 -178 34 -263.5t175 -85.5h142q117 0 208 88t119 267l150 952q4 27 26 27h60zM936 1675q-25 0 -40 16.5
t-11 39.5q10 45 53 45q25 0 39 -16.5t10 -41.5q-6 -43 -51 -43zM709 1675q-23 0 -38.5 16.5t-11.5 39.5q6 45 54 45q23 0 37 -16.5t12 -41.5q-10 -43 -53 -43z" />
    <glyph glyph-name="Ugrave.ss01" horiz-adv-x="1220" 
d="M1188 1434q10 0 18 -10.5t6 -20.5l-147 -924q-37 -240 -147.5 -359.5t-319.5 -119.5h-106q-399 0 -322 485l145 922q4 27 27 27h59q29 0 25 -31l-152 -954q-27 -178 34 -263.5t175 -85.5h142q117 0 208 88t119 267l150 952q4 27 26 27h60zM981 1606l-332 123
q-33 14 -22 43l16 38q10 25 37 9l321 -158q20 -12 15 -31l-4 -14q-6 -18 -31 -10z" />
    <glyph glyph-name="Uhungarumlaut.ss01" horiz-adv-x="1220" 
d="M1188 1434q10 0 18 -10.5t6 -20.5l-147 -924q-37 -240 -147.5 -359.5t-319.5 -119.5h-106q-399 0 -322 485l145 922q4 27 27 27h59q29 0 25 -31l-152 -954q-27 -178 34 -263.5t175 -85.5h142q117 0 208 88t119 267l150 952q4 27 26 27h60zM840 1593q-20 -16 -35 9l-8 10
q-10 16 18 39l223 188q12 8 25.5 4t15.5 -16l19 -37q8 -25 -17 -41zM627 1593q-18 -10 -31 4l-10 13q-14 18 14 41l225 188q29 20 43 -12l19 -37q12 -27 -13 -41z" />
    <glyph glyph-name="Umacron.ss01" horiz-adv-x="1220" 
d="M1188 1434q10 0 18 -10.5t6 -20.5l-147 -924q-37 -240 -147.5 -359.5t-319.5 -119.5h-106q-399 0 -322 485l145 922q4 27 27 27h59q29 0 25 -31l-152 -954q-27 -178 34 -263.5t175 -85.5h142q117 0 208 88t119 267l150 952q4 27 26 27h60zM631 1665q-35 0 -31 33l4 22
q6 31 35 31h369q35 0 30 -33l-4 -22q-6 -31 -33 -31h-370z" />
    <glyph glyph-name="Uogonek.ss01" horiz-adv-x="1220" 
d="M1188 1434q10 0 18 -10.5t6 -20.5l-147 -924q-31 -195 -107.5 -310.5t-216.5 -152.5q-63 -37 -123.5 -103.5t-69.5 -124.5t14.5 -85t80 -27t90.5 52q12 12 35 -9q16 -10 6 -28q-16 -35 -60 -62.5t-113 -27.5t-116 44t-32 124q20 131 198 233q-16 -2 -53 -2h-106
q-399 0 -322 485l145 922q4 27 27 27h59q29 0 25 -31l-152 -954q-27 -178 34 -263.5t175 -85.5h142q117 0 208 88t119 267l150 952q4 27 26 27h60z" />
    <glyph glyph-name="Uring.ss01" horiz-adv-x="1220" 
d="M1188 1434q10 0 18 -10.5t6 -20.5l-147 -924q-37 -240 -147.5 -359.5t-319.5 -119.5h-106q-399 0 -322 485l145 922q4 27 27 27h59q29 0 25 -31l-152 -954q-27 -178 34 -263.5t175 -85.5h142q117 0 208 88t119 267l150 952q4 27 26 27h60zM805 1686q63 0 76 71
q6 31 -9.5 47.5t-40.5 16.5q-63 0 -73 -70q-4 -31 9 -48t38 -17zM802 1620q-54 0 -89 39t-26 99t52 94t97.5 34t89.5 -39t25.5 -98t-52.5 -94t-97 -35z" />
    <glyph glyph-name="W.ss01" horiz-adv-x="1718" 
d="M1749 1434q14 0 22.5 -13.5t2.5 -29.5l-596 -1373q-10 -18 -25 -18h-20q-18 0 -19 20l-147 1141l-451 -1143q-8 -18 -20 -18h-21q-18 0 -22 23l-201 1372q-2 18 8 28.5t23 10.5h47q23 0 26 -23l158 -1143l457 1147q8 18 22 19h25q12 0 18 -23l140 -1143l495 1147
q10 18 29 19h49z" />
    <glyph glyph-name="Wacute.ss01" horiz-adv-x="1718" 
d="M1749 1434q14 0 22.5 -13.5t2.5 -29.5l-596 -1373q-10 -18 -25 -18h-20q-18 0 -19 20l-147 1141l-451 -1143q-8 -18 -20 -18h-21q-18 0 -22 23l-201 1372q-2 18 8 28.5t23 10.5h47q23 0 26 -23l158 -1143l457 1147q8 18 22 19h25q12 0 18 -23l140 -1143l495 1147
q10 18 29 19h49zM874 1604q-25 -8 -30 10l-4 14q-6 18 14 31l322 158q27 16 36 -9l17 -39q10 -29 -23 -43z" />
    <glyph glyph-name="Wcircumflex.ss01" horiz-adv-x="1718" 
d="M1749 1434q14 0 22.5 -13.5t2.5 -29.5l-596 -1373q-10 -18 -25 -18h-20q-18 0 -19 20l-147 1141l-451 -1143q-8 -18 -20 -18h-21q-18 0 -22 23l-201 1372q-2 18 8 28.5t23 10.5h47q23 0 26 -23l158 -1143l457 1147q8 18 22 19h25q12 0 18 -23l140 -1143l495 1147
q10 18 29 19h49zM1065 1874q27 0 45 -27l113 -164q18 -27 16 -41l-4 -16q-10 -39 -37 -6l-147 174l-201 -178q-25 -18 -32 -6t-5 18l4 21q4 20 23 39l166 165q23 20 51 21h8z" />
    <glyph glyph-name="Wdieresis.ss01" horiz-adv-x="1718" 
d="M1749 1434q14 0 22.5 -13.5t2.5 -29.5l-596 -1373q-10 -18 -25 -18h-20q-18 0 -19 20l-147 1141l-451 -1143q-8 -18 -20 -18h-21q-18 0 -22 23l-201 1372q-2 18 8 28.5t23 10.5h47q23 0 26 -23l158 -1143l457 1147q8 18 22 19h25q12 0 18 -23l140 -1143l495 1147
q10 18 29 19h49zM1159 1675q-25 0 -40 16.5t-11 39.5q10 45 53 45q25 0 39 -16.5t10 -41.5q-6 -43 -51 -43zM932 1675q-23 0 -38 16.5t-11 39.5q6 45 53 45q23 0 37 -16.5t12 -41.5q-10 -43 -53 -43z" />
    <glyph glyph-name="Wgrave.ss01" horiz-adv-x="1718" 
d="M1749 1434q14 0 22.5 -13.5t2.5 -29.5l-596 -1373q-10 -18 -25 -18h-20q-18 0 -19 20l-147 1141l-451 -1143q-8 -18 -20 -18h-21q-18 0 -22 23l-201 1372q-2 18 8 28.5t23 10.5h47q23 0 26 -23l158 -1143l457 1147q8 18 22 19h25q12 0 18 -23l140 -1143l495 1147
q10 18 29 19h49zM1204 1606l-332 123q-33 14 -22 43l16 38q10 25 37 9l322 -158q20 -12 14 -31l-4 -14q-6 -18 -31 -10z" />
    <glyph glyph-name="A.ss04" horiz-adv-x="1058" 
d="M874 92q27 0 23 -29l-4 -38q-4 -25 -25 -25h-811q-25 0 -20 29l6 39q2 25 27 24h804zM352 637h418l-113 547l-6 39zM692 1434q8 0 15 -15l231 -1089q4 -14 -5 -27.5t-24 -13.5h-55q-18 0 -23 24l-47 234h-477l-119 -238q-8 -20 -26 -20h-58q-12 0 -18 13t0 30l569 1091
q4 10 13 11h24z" />
    <glyph glyph-name="B.ss04" horiz-adv-x="1003" 
d="M791 92q27 0 22 -29l-4 -38q-2 -25 -29 -25h-659q-25 0 -21 29l4 39q2 25 27 24h660zM565 393q190 0 226 221q18 119 -24 164t-103 45h-332l-66 -430h299zM692 1346h-278l-68 -433h289q158 0 192 222q18 121 -17.5 166t-117.5 45zM592 303h-424q-10 0 -16.5 9.5
t-4.5 19.5l170 1077q4 25 25 25h403q102 0 157.5 -77t33.5 -227q-31 -199 -143 -251q139 -57 101 -297q-20 -122 -97.5 -200.5t-204.5 -78.5z" />
    <glyph glyph-name="C.ss04" horiz-adv-x="1153" 
d="M946 92q29 0 25 -29l-6 -38q-2 -25 -25 -25h-836q-31 0 -24 29l8 39q2 25 25 24h833zM629 287q-244 0 -371 165.5t-86 419.5t215 416t420 162t358 -197q12 -25 -4 -36l-39 -31q-20 -18 -39 8q-61 88 -116 121q-72 41 -166 41q-203 0 -345.5 -141.5t-175 -350.5t62.5 -345
t295 -136t347 186q16 18 35 4l37 -41q16 -16 -2 -38q-182 -207 -426 -207z" />
    <glyph glyph-name="D.ss04" horiz-adv-x="1077" 
d="M829 92q27 0 23 -29l-4 -38q-4 -25 -27 -25h-700q-27 0 -23 29l6 39q2 25 27 24h698zM467 399q170 0 284.5 103.5t157.5 371.5q35 196 -21 330.5t-270 134.5h-208l-148 -940h205zM168 303q-8 0 -15.5 10.5t-5.5 20.5l170 1075q4 25 25 25h303q157 0 259 -69
q56 -37 86 -103q72 -166 26 -400q-55 -331 -200.5 -445t-350.5 -114h-297z" />
    <glyph glyph-name="E.ss04" horiz-adv-x="872" 
d="M688 92q27 0 23 -29l-6 -38q-4 -25 -25 -25h-557q-27 0 -23 29l4 39q2 25 27 24h557zM735 399q10 0 18.5 -9t6.5 -21l-6 -39q-4 -27 -27 -27h-559q-8 0 -15.5 9.5t-5.5 19.5l170 1077q4 25 25 25h561q25 0 21 -29l-6 -41q-4 -25 -25 -25h-481l-68 -426h318q10 0 16 -8
t4 -18l-4 -39q-4 -23 -27 -23h-321l-66 -426h471z" />
    <glyph glyph-name="F.ss04" horiz-adv-x="833" 
d="M647 92q27 0 23 -29l-4 -38q-2 -25 -27 -25h-520q-25 0 -21 29l6 39q2 25 27 24h516zM858 1434q29 0 25 -25l-6 -45q-4 -25 -27 -25h-440l-72 -465h301q10 0 17.5 -7t5.5 -17l-5 -45q-4 -25 -26 -25h-309l-70 -450q-4 -27 -23 -27h-65q-20 0 -17 29l170 1077q4 25 25 25
h516z" />
    <glyph glyph-name="G.ss04" horiz-adv-x="1191" 
d="M967 92q27 0 22 -29l-4 -38q-2 -25 -27 -25h-856q-27 0 -22 29l6 39q4 25 27 24h854zM1087 852q10 0 16.5 -8t4.5 -19l-55 -358q-4 -16 -13 -25q-170 -156 -405 -155.5t-369.5 158t-92.5 426.5t222 424t404 155q168 0 258 -75q67 -56 106 -118q14 -23 -2 -34l-39 -35
q-20 -16 -37 8q-2 2 -16 22q-15 19 -23 28q-8 10 -26 30q-26 29 -84 54.5t-139 25.5q-195 0 -337.5 -139.5t-178 -350.5t62.5 -347t287.5 -136t320.5 119l43 260h-229q-29 0 -25 26l7 41q4 23 26 23h313z" />
    <glyph glyph-name="H.ss04" horiz-adv-x="1128" 
d="M885 92q27 0 22 -29l-4 -38q-2 -25 -26 -25h-756q-27 0 -23 29l8 39q4 25 27 24h752zM1100 1434q23 0 18 -29l-172 -1075q-4 -27 -20 -27h-64q-25 0 -20 29l80 491h-590l-78 -493q-4 -27 -25 -27h-63q-23 0 -19 29l170 1077q4 25 23 25h63q23 0 19 -29l-78 -487h590
l80 491q4 25 22 25h64z" />
    <glyph glyph-name="I.ss04" horiz-adv-x="430" 
d="M184 92q29 0 25 -29l-6 -38q-2 -25 -27 -25h-53q-29 0 -25 29l6 39q2 25 29 24h51zM166 303q-10 0 -16.5 9.5t-2.5 19.5l170 1077q4 25 23 25h61q25 0 21 -29l-170 -1075q-4 -27 -25 -27h-61z" />
    <glyph glyph-name="J.ss04" horiz-adv-x="819" 
d="M575 92q29 0 25 -29l-6 -38q-4 -25 -29 -25h-504q-29 0 -24 29l6 39q2 25 29 24h503zM786 1434q12 0 20.5 -10.5t6.5 -24.5l-123 -764q-27 -172 -106.5 -260t-233.5 -88q-106 0 -165.5 44t-92.5 136q-8 23 10 33l50 22q25 12 30 -16q45 -121 159.5 -121t170 68.5
t76.5 203.5l119 746q4 31 28 31h51z" />
    <glyph glyph-name="K.ss04" horiz-adv-x="962" 
d="M778 92q29 0 25 -29l-6 -38q-2 -25 -25 -25h-653q-25 0 -21 29l6 39q2 25 27 24h647zM227 303h-63q-25 0 -17 31l168 1075q4 25 23 25h63q23 0 19 -29l-78 -492l526 496q25 25 52 25h77q10 0 14.5 -11.5t-3.5 -19.5l-582 -543l410 -530q6 -10 3 -18.5t-14 -8.5h-86
q-20 0 -39 29l-370 489l-78 -491q-4 -27 -25 -27z" />
    <glyph glyph-name="L.ss04" horiz-adv-x="874" 
d="M711 92q29 0 24 -29l-8 -38q-2 -25 -27 -25h-577q-29 0 -25 29l6 39q2 25 29 24h578zM760 399q12 0 19 -9t5 -19l-8 -39q-4 -27 -24 -27h-580q-10 0 -18.5 9.5t-6.5 19.5l170 1075q4 27 25 27h61q23 0 19 -31l-160 -1006h498z" />
    <glyph glyph-name="M.ss04" horiz-adv-x="1304" 
d="M1059 92q10 0 18 -8t6 -21l-6 -38q-4 -25 -26 -25h-930q-27 0 -23 29l6 39q2 25 27 24h928zM1223 1434h53q25 0 20 -29l-170 -1077q-4 -25 -24 -25h-64q-23 0 -18 29l133 844l-485 -850q-12 -23 -23 -23h-16q-16 0 -23 29l-221 844l-133 -848q-4 -25 -25 -25h-63
q-23 0 -19 29l172 1077q4 25 23 25h51q18 0 27 -29l244 -924l528 930q12 23 33 23z" />
    <glyph glyph-name="N.ss04" horiz-adv-x="1128" 
d="M887 92q25 0 20 -29l-4 -38q-2 -25 -26 -25h-758q-25 0 -21 29l6 39q2 25 27 24h756zM1100 1434q10 0 16 -9.5t4 -19.5l-170 -1077q-4 -25 -24 -25h-47q-16 0 -29 27l-457 907l-141 -909q-4 -25 -25 -25h-63q-23 0 -19 29l170 1077q4 25 25 25h47q16 0 31 -33l454 -903
l144 911q4 25 20 25h64z" />
    <glyph glyph-name="O.ss04" horiz-adv-x="1277" 
d="M1055 92q27 0 22 -29l-4 -38q-4 -25 -26 -25h-947q-27 0 -22 29l6 39q2 25 27 24h944zM628.5 383q189.5 0 332.5 144.5t175 344t-63.5 342t-285 142.5t-333 -145.5t-174 -346.5t64 -341t284 -140zM620 287q-224 0 -355.5 168t-92.5 417.5t219 413.5t405.5 164t355.5 -167
t91 -418t-219 -414.5t-404 -163.5z" />
    <glyph glyph-name="P.ss04" horiz-adv-x="913" 
d="M680 92q25 0 20 -29l-4 -38q-4 -25 -26 -25h-549q-27 0 -23 29l8 39q4 25 25 24h549zM518 805q115 0 180.5 63.5t89 208.5t-24.5 203.5t-153 58.5h-198l-84 -534h190zM537 711h-226l-59 -383q-4 -25 -23 -25h-65q-23 0 -19 29l172 1077q4 25 25 25h307q125 0 201 -80
t45 -283t-133.5 -281.5t-224.5 -78.5z" />
    <glyph glyph-name="Q.ss04" horiz-adv-x="1277" 
d="M1053 92q27 0 22 -29l-4 -38q-2 -25 -27 -25h-946q-27 0 -22 29l6 39q4 25 27 24h944zM785 1356q-190 0 -333 -145.5t-173.5 -346.5t63.5 -341t284 -140t333 144t175 344t-63.5 342.5t-285.5 142.5zM795 1450q225 0 355 -167t92 -409.5t-198 -402.5l86 -98q18 -23 -2 -41
l-32 -27q-20 -18 -41 2l-84 101q-166 -121 -353 -121q-225 0 -356 168t-92 417.5t219.5 413.5t405.5 164z" />
    <glyph glyph-name="R.ss04" horiz-adv-x="950" 
d="M750 92q27 0 22 -29l-4 -38q-2 -25 -27 -25h-620q-27 0 -23 29l8 39q4 25 25 24h619zM545 825q117 0 182.5 63.5t87.5 198.5q20 135 -21.5 193.5t-156.5 58.5h-225l-82 -514h215zM797 303h-66q-16 0 -29 27l-151 403h-236l-63 -405q-4 -25 -27 -25h-59q-23 0 -19 29
l170 1077q4 25 23 25h336q134 0 204 -92t44 -250q-47 -292 -262 -351l147 -413q10 -25 -12 -25z" />
    <glyph glyph-name="S.ss04" horiz-adv-x="925" 
d="M707 92q25 0 20 -29l-6 -38q-4 -25 -23 -25h-600q-25 0 -20 29l6 39q2 25 25 24h598zM444 287q-233 0 -311 151q-12 25 2 33l45 33q16 12 29 -2q66 -121 242 -121q111 0 183.5 56.5t88.5 151.5t-29 139t-190 116q-154 70 -218.5 140.5t-44 196.5t117 197.5t233.5 71.5
q199 0 297 -121q20 -23 6 -37l-41 -35q-18 -14 -33 0q-100 98 -211.5 98.5t-179.5 -50t-80 -137.5t36 -135t150.5 -95t144.5 -69.5t88 -63.5q86 -77 61.5 -218.5t-125.5 -220.5t-261 -79z" />
    <glyph glyph-name="T.ss04" horiz-adv-x="972" 
d="M788 92q27 0 23 -29l-4 -38q-4 -25 -25 -25h-723q-27 0 -22 29l6 39q2 25 27 24h718zM999 1434q10 0 17.5 -9.5t5.5 -19.5l-8 -41q-6 -25 -27 -25h-307l-158 -1009q-4 -27 -26 -27h-58q-25 0 -20 29l157 1007h-307q-10 0 -16 9.5t-4 19.5l8 41q6 25 25 25h718z" />
    <glyph glyph-name="U.ss04" horiz-adv-x="1132" 
d="M850 92q29 0 24 -29l-6 -38q-4 -25 -24 -25h-684q-10 0 -18.5 8t-6.5 21l6 39q2 25 27 24h682zM1104 1434q27 0 22 -31l-98 -606q-41 -254 -155.5 -382t-317.5 -128t-291 133t-47 383l98 604q6 27 29 27h57q10 0 16.5 -9.5t4.5 -21.5l-98 -596q-66 -424 239 -424
q154 0 241 108.5t120 321.5l96 594q4 27 24 27h60z" />
    <glyph glyph-name="V.ss04" horiz-adv-x="1050" 
d="M868 92q10 0 18.5 -8t6.5 -21l-6 -38q-2 -25 -27 -25h-801q-29 0 -24 29l6 39q4 25 27 24h800zM1081 1434q12 0 18.5 -10.5t2.5 -22.5l-555 -1075q-10 -23 -27 -23h-31q-18 0 -24 27l-211 1077q-4 27 20 27h58q25 0 24 -31l174 -922l465 926q14 27 33 27h53z" />
    <glyph glyph-name="W.ss04" horiz-adv-x="1415" 
d="M1233 92q10 0 18.5 -8t5.5 -21l-6 -38q-2 -25 -26 -25h-1166q-29 0 -24 29l6 39q4 25 29 24h1163zM1446 1434q12 0 18 -13.5t0 -27.5l-432 -1069q-8 -20 -22 -21h-29q-14 0 -18 23l-136 866l-407 -870q-8 -18 -21 -19h-30q-14 0 -19 25l-98 1067q-4 39 27 39h57
q16 0 20 -23l72 -874l403 878q8 18 21 19h20q16 0 19 -21l129 -881l348 883q8 18 27 19h51z" />
    <glyph glyph-name="X.ss04" horiz-adv-x="1032" 
d="M829 92q27 0 23 -29l-4 -38q-4 -25 -27 -25h-741q-27 0 -23 29l6 39q2 25 27 24h739zM872 303h-61q-20 0 -33 27l-205 458l-348 -462q-20 -23 -39 -23h-67q-10 0 -14.5 13.5t4.5 25.5l417 537l-227 522q-6 14 -1 23.5t15 9.5h66q14 0 27 -23l192 -442l338 446
q12 18 35 19h65q12 0 16.5 -12.5t-5.5 -26.5l-400 -516l242 -543q6 -10 0 -21.5t-17 -11.5z" />
    <glyph glyph-name="Y.ss04" horiz-adv-x="972" 
d="M791 92q27 0 22 -29l-4 -38q-2 -25 -27 -25h-723q-29 0 -24 29l6 39q4 25 27 24h723zM1010 1434q12 0 17 -12.5t-3 -26.5l-432 -611l-72 -456q-4 -25 -24 -25h-60q-25 0 -20 29l69 452l-229 617q-10 33 14 33h60q23 0 32 -25l193 -514l358 516q16 23 37 23h60z" />
    <glyph glyph-name="Z.ss04" horiz-adv-x="968" 
d="M768 92q27 0 23 -29l-5 -38q-4 -25 -26 -25h-682q-25 0 -21 29l4 39q4 25 29 24h678zM307 1339q-10 0 -16 8.5t-4 18.5l8 45q4 23 22 23h666q14 0 19.5 -16.5t-5.5 -31.5l-733 -987h555q8 0 15.5 -9t5.5 -19l-6 -43q-4 -25 -27 -25h-682q-16 0 -21.5 15.5t5.5 29.5
l735 991h-537z" />
    <glyph glyph-name="B.ss05" horiz-adv-x="1042" 
d="M815 92q27 0 23 -29l-4 -38q-2 -25 -27 -25h-688q-25 0 -21 29l6 39q2 25 27 24h684zM606 393q193 0 228 221q18 119 -24 164t-103 45h-375l-68 -430h342zM735 1346h-323l-66 -433h332q156 0 192 222q18 121 -17.5 166t-117.5 45zM635 303h-467q-25 0 -21 29l170 1077
q4 25 25 25h446q102 0 157.5 -77t33.5 -227q-31 -199 -141 -251q139 -58 100 -281q-20 -137 -98 -216t-205 -79z" />
    <glyph glyph-name="C.ss05" horiz-adv-x="1056" 
d="M811 92q27 0 23 -29l-5 -38q-2 -25 -24 -25h-680q-25 0 -21 29l7 39q4 25 26 24h674zM551 287q-203 0 -300 151.5t-52 435t186 430t338 146.5q137 0 221 -89t86 -237q0 -29 -20 -30l-52 -9q-25 -4 -28 25q4 102 -53.5 174t-157.5 72q-156 0 -266.5 -130t-146.5 -359.5
t30.5 -356.5t218.5 -127q106 0 189 72.5t122 185.5q4 14 29 10l49 -10q18 -4 10 -35q-43 -145 -155.5 -232t-247.5 -87z" />
    <glyph glyph-name="D.ss05" horiz-adv-x="1056" 
d="M827 92q29 0 25 -29l-6 -38q-2 -25 -25 -25h-700q-27 0 -23 29l6 39q2 25 27 24h696zM735 1339h-325l-148 -940h322q225 0 272 318l51 323q25 154 -15 226.5t-157 72.5zM752 1434q162 0 227 -95.5t29 -326.5l-43 -279q-37 -233 -132.5 -331.5t-254.5 -98.5h-410
q-8 0 -15.5 9.5t-5.5 19.5l170 1077q4 25 25 25h410z" />
    <glyph glyph-name="E.ss05" horiz-adv-x="913" 
d="M729 92q27 0 23 -29l-7 -38q-4 -25 -24 -25h-600q-27 0 -23 29l8 39q4 25 27 24h596zM778 399q10 0 17.5 -9t5.5 -21l-6 -39q-4 -27 -27 -27h-600q-8 0 -15.5 9.5t-5.5 19.5l170 1077q4 25 25 25h602q25 0 21 -29l-7 -41q-4 -25 -24 -25h-522l-66 -426h311q10 0 17.5 -8
t5.5 -18l-6 -39q-4 -23 -25 -23h-319l-66 -426h514z" />
    <glyph glyph-name="F.ss05" horiz-adv-x="921" 
d="M735 92q10 0 18.5 -8t6.5 -21l-6 -38q-4 -25 -25 -25h-608q-27 0 -23 29l8 39q4 25 27 24h602zM946 1434q10 0 17.5 -9.5t5.5 -19.5l-6 -41q-4 -25 -27 -25h-524l-72 -465h305q10 0 17.5 -8t5.5 -18l-6 -43q-4 -25 -25 -25h-313l-70 -450q-4 -27 -25 -27h-63
q-23 0 -19 29l170 1077q4 25 25 25h604z" />
    <glyph glyph-name="G.ss05" horiz-adv-x="1110" 
d="M868 92q27 0 23 -29l-4 -38q-2 -25 -27 -25h-735q-25 0 -21 29l7 39q4 25 26 24h731zM981 821q10 0 19.5 -9t7.5 -21l-74 -463q-4 -25 -25 -25h-37q-18 0 -18 27l20 135q-55 -92 -148 -135t-183 -43q-197 0 -292 151.5t-52 433t184 430t336 148.5q158 0 234.5 -95
t76.5 -222q0 -35 -18 -37l-54 -9q-27 -5 -25 47q1 34 -15.5 85t-67.5 94t-133 43q-160 0 -267.5 -136.5t-142.5 -355.5t27.5 -350t207 -131t240 87t123.5 265l-213 -2q-12 0 -20 9.5t-6 21.5l6 31q4 27 30 26h279z" />
    <glyph glyph-name="I.ss05" horiz-adv-x="567" 
d="M346 92q29 0 23 -26l-7 -41q-6 -25 -28 -25h-234q-27 0 -22 27l6 39q4 27 31 26h231zM545 1339h-64l-149 -940h61q29 0 25 -28l-6 -39q-4 -29 -27 -29h-233q-29 0 -25 29l6 41q4 27 27 26h65l150 940h-64q-25 0 -22 25l8 47q2 23 29 23h231q29 0 25 -27l-7 -43
q-1 -25 -30 -25z" />
    <glyph glyph-name="M.ss05" horiz-adv-x="1236" 
d="M991 92q29 0 25 -29l-6 -38q-2 -25 -25 -25h-864q-27 0 -23 29l6 39q2 25 27 24h860zM1165 1434h45q23 0 19 -29l-170 -1077q-4 -25 -23 -25h-63q-25 0 -21 29l138 876l-408 -583q-16 -18 -25 -19h-14q-12 0 -25 23l-229 579l-137 -880q-4 -25 -25 -25h-65q-20 0 -17 29
l172 1077q4 25 19 25h43q18 0 29 -29l260 -651l462 657q14 23 35 23z" />
    <glyph glyph-name="N.ss05" horiz-adv-x="1089" 
d="M844 92q29 0 24 -29l-6 -38q-2 -25 -26 -25h-715q-27 0 -23 29l8 39q4 25 25 24h713zM1061 1434q23 0 18 -29l-168 -1077q-4 -25 -24 -25h-47q-18 0 -31 27l-416 903l-141 -905q-4 -25 -23 -25h-63q-25 0 -21 29l172 1077q4 25 23 25h47q16 0 31 -33l413 -901l144 909
q4 25 22 25h64z" />
    <glyph glyph-name="O.ss05" horiz-adv-x="1138" 
d="M891 92q29 0 24 -29l-6 -38q-4 -25 -24 -25h-756q-29 0 -25 29l7 39q4 25 26 24h754zM558 383q165 0 271.5 136t141.5 354t-26.5 350.5t-225.5 132.5t-270.5 -136.5t-141.5 -355.5t25.5 -350t225.5 -131zM551 287q-203 0 -300 150.5t-52 435t185 431t344 146.5
t300 -149.5t51 -436.5t-185 -432t-343 -145z" />
    <glyph glyph-name="P.ss05" horiz-adv-x="983" 
d="M739 92q27 0 23 -29l-6 -38q-2 -25 -25 -25h-612q-25 0 -21 29l6 39q2 25 27 24h608zM578 805q115 0 181 62.5t90 207.5t-25.5 204.5t-153.5 59.5h-260l-82 -534h250zM596 711h-285l-59 -383q-4 -25 -25 -25h-63q-23 0 -19 29l170 1077q4 25 25 25h369q111 0 195 -72
t52 -290q-32 -217 -150 -295q-99 -66 -210 -66z" />
    <glyph glyph-name="Q.ss05" horiz-adv-x="1138" 
d="M891 92q29 0 24 -29l-6 -38q-4 -25 -24 -25h-756q-29 0 -25 29l7 39q4 25 26 24h754zM719 1356q-164 0 -270.5 -136.5t-141.5 -355.5t25.5 -350t225.5 -131t271.5 136t141.5 354t-26.5 350.5t-225.5 132.5zM728 1450q204 0 300 -149.5t51 -437.5t-192 -439l86 -102
q16 -23 -2 -41l-31 -27q-20 -18 -43 4l-86 104q-113 -76 -258 -75q-205 0 -302 150.5t-52 435t185 431t344 146.5z" />
    <glyph glyph-name="R.ss05" horiz-adv-x="983" 
d="M762 92q27 0 22 -29l-6 -38q-4 -25 -24 -25h-633q-27 0 -23 29l6 39q6 25 27 24h631zM631 850q76 0 131 62.5t76 189.5t-21.5 182t-150.5 55h-254l-78 -489h297zM227 303h-61q-23 0 -19 29l170 1077q4 25 25 25h360q147 0 209 -91.5t38.5 -238t-88 -224t-138.5 -102.5
q98 -162 98 -426q0 -49 -24 -49h-62q-18 0 -18 29q6 127 -20.5 243.5t-80.5 182.5l-297 -2l-67 -428q-4 -25 -25 -25z" />
    <glyph glyph-name="U.ss05" horiz-adv-x="1052" 
d="M788 92q27 0 23 -29l-4 -38q-4 -25 -27 -25h-622q-27 0 -23 29l6 39q2 25 27 24h620zM1024 1434q8 0 15.5 -10.5t4.5 -20.5l-116 -735q-27 -174 -113 -270.5t-266 -96.5h-84q-180 0 -235.5 99.5t-28.5 273.5l114 733q4 27 25 27h59q27 0 23 -31l-119 -744
q-39 -262 152 -262h127q90 0 154.5 66.5t84.5 202.5l117 741q4 27 25 27h61z" />
    <glyph glyph-name="W.ss05" horiz-adv-x="1423" 
d="M1239 92q27 0 23 -29l-5 -38q-4 -25 -26 -25h-1170q-29 0 -24 29l6 39q6 25 29 24h1167zM1452 1434q12 0 19.5 -13.5t-1.5 -29.5l-479 -1067q-10 -20 -24 -21h-27q-14 0 -18 25l-91 858l-362 -862q-8 -20 -23 -21h-28q-12 0 -17 25l-147 1067q-4 39 25 39h57q18 0 22 -23
l105 -885l371 887q8 20 20 21h25q14 0 18 -23l90 -885l385 887q8 20 27 21h53z" />
    <glyph glyph-name="i.loclTRK" horiz-adv-x="380" 
d="M100 0q-10 0 -18 9t-6 20l129 813q4 25 28 24h50q12 0 19 -9t5 -19l-129 -813q-4 -25 -26 -25h-52zM313 1114q-27 0 -43 18.5t-13 44.5t22.5 41t45.5 15t41 -19.5t11 -48.5q-9 -51 -64 -51z" />
    <glyph glyph-name="ae.ss01" horiz-adv-x="1388" 
d="M420 483q-98 0 -159.5 -54t-80 -147t24.5 -154.5t152.5 -61.5t169 74.5t69.5 158.5t-34 134t-142 50zM1194 489q45 309 -166 310q-115 0 -190.5 -86t-106.5 -228zM1038 883q147 0 219 -109.5t35 -343.5q-4 -27 -32 -27l-543 -2q-16 -147 31 -238t167.5 -91t233.5 123
q14 18 37 0l24 -33q14 -18 -2 -37q-121 -141 -295 -141q-203 0 -274 166q-104 -166 -313 -166q-150 0 -211.5 93t-39 217t108.5 196.5t235 72.5t199 -94l17 84q20 117 -13.5 179.5t-142 62.5t-219.5 -68q-16 -8 -27 10l-16 43q-8 18 10 29q129 74 260 74q217 0 246 -158
q119 158 305 158z" />
    <glyph glyph-name="b.ss01" horiz-adv-x="919" 
d="M420.5 72q104.5 0 185 94t107.5 260t-18.5 267.5t-157.5 101.5q-236 0 -295 -369q-31 -180 21.5 -267t157 -87zM553 883q164 0 230.5 -132.5t34.5 -329t-134 -317t-257 -120.5t-232 133l-33 -80q-14 -37 -31 -37h-33q-10 0 -17 10t-5 21l221 1392q4 27 27 27h53
q27 0 22 -31l-108 -684q98 148 262 148z" />
    <glyph glyph-name="c.ss01" horiz-adv-x="874" 
d="M383 -16q-178 0 -247.5 126t-37 329.5t140 323.5t283.5 120q137 0 199.5 -70t62.5 -188q0 -25 -18 -29l-43 -6q-33 -4 -33 22q-13 138 -80 168q-35 16 -90 15q-258 0 -317 -367q-10 -90 -6 -169t55 -133t143 -54q164 0 238 188q6 20 31 19l47 -9q25 -6 12 -39
q-35 -113 -122 -180t-218 -67z" />
    <glyph glyph-name="cacute.ss01" horiz-adv-x="874" 
d="M383 -16q-178 0 -247.5 126t-37 329.5t140 323.5t283.5 120q137 0 199.5 -70t62.5 -188q0 -25 -18 -29l-43 -6q-33 -4 -33 22q-13 138 -80 168q-35 16 -90 15q-258 0 -317 -367q-10 -90 -6 -169t55 -133t143 -54q164 0 238 188q6 20 31 19l47 -9q25 -6 12 -39
q-35 -113 -122 -180t-218 -67zM434 1022q-23 -16 -37 4l-6 12q-10 12 8 35l271 256q25 25 45 -6l22 -37q20 -27 -4 -45z" />
    <glyph glyph-name="ccaron.ss01" horiz-adv-x="874" 
d="M383 -16q-178 0 -247.5 126t-37 329.5t140 323.5t283.5 120q137 0 199.5 -70t62.5 -188q0 -25 -18 -29l-43 -6q-33 -4 -33 22q-13 138 -80 168q-35 16 -90 15q-258 0 -317 -367q-10 -90 -6 -169t55 -133t143 -54q164 0 238 188q6 20 31 19l47 -9q25 -6 12 -39
q-35 -113 -122 -180t-218 -67zM539 1038h-11q-27 0 -43 29l-110 166q-19 29 -15 49t14.5 23.5t24.5 -13.5l146 -174l196 180q20 14 30 6t6.5 -31t-21.5 -44l-168 -168q-23 -23 -49 -23z" />
    <glyph glyph-name="ccedilla.ss01" horiz-adv-x="874" 
d="M522 883q137 0 199.5 -70t62.5 -188q0 -25 -18 -29l-43 -6q-33 -4 -33 22q-13 138 -80 168q-35 16 -90 15q-258 0 -317 -367q-10 -90 -6 -169t55 -133t143 -54q164 0 238 188q6 20 31 19l47 -9q25 -6 12 -39q-35 -113 -121 -179t-217 -68l-53 -86q72 18 120 -19
t37.5 -113t-55.5 -115.5t-108 -39.5q-94 0 -123 80q-6 18 8 20l35 10q14 6 18 -8q14 -35 58 -35q84 0 96 89q6 45 -22.5 61t-69.5 4h-29l-41 18q-16 8 -10 21l71 119q-143 25 -195 145.5t-21.5 314t138 313.5t283.5 120z" />
    <glyph glyph-name="cdotaccent.ss01" horiz-adv-x="874" 
d="M383 -16q-178 0 -247.5 126t-37 329.5t140 323.5t283.5 120q137 0 199.5 -70t62.5 -188q0 -25 -18 -29l-43 -6q-33 -4 -33 22q-13 138 -80 168q-35 16 -90 15q-258 0 -317 -367q-10 -90 -6 -169t55 -133t143 -54q164 0 238 188q6 20 31 19l47 -9q25 -6 12 -39
q-35 -113 -122 -180t-218 -67zM561.5 1214q24.5 0 39.5 -19t11 -46q-9 -51 -63 -51q-25 0 -41 18.5t-13 43t22.5 39.5t44 15z" />
    <glyph glyph-name="d.ss01" horiz-adv-x="917" 
d="M393 72q90 0 151.5 55t88 129t43.5 178q61 360 -164 361q-129 1 -207 -105q-79 -106 -103 -265t20 -256t171 -97zM913 1450q25 0 21 -31l-219 -1392q-4 -27 -27 -27h-29q-23 0 -26 39l-4 63q-109 -118 -263 -118t-227 127t-41 323t139 322.5t265 126.5t221 -125l108 665
q4 27 29 27h53z" />
    <glyph glyph-name="dcaron.ss01" horiz-adv-x="1120" 
d="M393 72q90 0 151.5 55t88 129t43.5 178q61 360 -164 361q-129 0 -207 -105.5t-102.5 -264.5t19.5 -256t171 -97zM1110 1434h113q34 0 28 -31q-2 -4 -10 -60.5t-8 -60.5q-23 -135 -197 -225q-14 -6 -22 11t6 26q121 74 137 166l-78 28q-25 6 -20 29l14 86q6 31 37 31z
M913 1450q25 0 21 -31l-219 -1392q-4 -27 -27 -27h-29q-23 0 -26 39l-4 63q-109 -119 -263.5 -118.5t-227 127.5t-41 323.5t139 322.5t265.5 126t221 -125l108 665q4 27 29 27h53z" />
    <glyph glyph-name="dcroat.ss01" horiz-adv-x="985" 
d="M393 72q90 0 151.5 55t88.5 129t43 178q61 360 -164 361q-129 0 -207 -105.5t-102.5 -264.5t19.5 -256t171 -97zM1016 1214q33 0 28 -32l-4 -23q-6 -29 -34 -29h-117l-174 -1103q-4 -27 -27 -27h-29q-23 0 -26 39l-4 63q-109 -119 -263.5 -118.5t-227 127.5t-41 323.5
t139 322.5t265.5 126t221 -125l61 372h-118q-33 0 -29 33l4 23q4 29 33 28h123l34 209q4 27 29 27h53q25 0 21 -31l-33 -205h115z" />
    <glyph glyph-name="e.ss01" horiz-adv-x="870" 
d="M510 799q-115 0 -190.5 -86t-106.5 -228l463 4q45 310 -166 310zM397 72q121 0 234 123q16 18 37 0l24 -33q14 -18 -2 -37q-121 -141 -294 -141t-251.5 122.5t-46 328.5t147 327t268 121t225.5 -109.5t35 -343.5q-4 -27 -33 -27l-542 -2q-16 -147 30.5 -238t167.5 -91z
" />
    <glyph glyph-name="eacute.ss01" horiz-adv-x="870" 
d="M510 799q-115 0 -190.5 -86t-106.5 -228l463 4q45 310 -166 310zM397 72q121 0 234 123q16 18 37 0l24 -33q14 -18 -2 -37q-121 -141 -294 -141t-251.5 122.5t-46 328.5t147 327t268 121t225.5 -109.5t35 -343.5q-4 -27 -33 -27l-542 -2q-16 -147 30.5 -238t167.5 -91z
M438 1022q-23 -16 -37 4l-6 12q-10 12 8 35l271 256q25 25 45 -6l22 -37q20 -27 -4 -45z" />
    <glyph glyph-name="ecaron.ss01" horiz-adv-x="870" 
d="M510 799q-115 0 -190.5 -86t-106.5 -228l463 4q45 310 -166 310zM397 72q121 0 234 123q16 18 37 0l24 -33q14 -18 -2 -37q-121 -141 -294 -141t-251.5 122.5t-46 328.5t147 327t268 121t225.5 -109.5t35 -343.5q-4 -27 -33 -27l-542 -2q-16 -147 30.5 -238t167.5 -91z
M543 1038h-11q-27 0 -43 29l-110 166q-20 30 -15 50q11 43 39 9l146 -174l196 180q20 14 30.5 6t6.5 -31t-22 -44l-168 -168q-23 -23 -49 -23z" />
    <glyph glyph-name="ecircumflex.ss01" horiz-adv-x="870" 
d="M510 799q-115 0 -190.5 -86t-106.5 -228l463 4q45 310 -166 310zM397 72q121 0 234 123q16 18 37 0l24 -33q14 -18 -2 -37q-121 -141 -294 -141t-251.5 122.5t-46 328.5t147 327t268 121t225.5 -109.5t35 -343.5q-4 -27 -33 -27l-542 -2q-16 -147 30.5 -238t167.5 -91z
M580 1307q27 0 45 -27l112 -164q18 -27 17 -41l-4 -16q-10 -39 -37 -6l-148 174l-200 -178q-26 -19 -32 -7t-1.5 35.5t22.5 42.5l166 166q23 20 51 21h9z" />
    <glyph glyph-name="edieresis.ss01" horiz-adv-x="870" 
d="M510 799q-115 0 -190.5 -86t-106.5 -228l463 4q45 310 -166 310zM397 72q121 0 234 123q16 18 37 0l24 -33q14 -18 -2 -37q-121 -141 -294 -141t-251.5 122.5t-46 328.5t147 327t268 121t225.5 -109.5t35 -343.5q-4 -27 -33 -27l-542 -2q-16 -147 30.5 -238t167.5 -91z
M674 1108q-25 0 -40.5 16.5t-10.5 38.5q10 45 53 45q25 0 39 -16t10 -41q-6 -43 -51 -43zM446 1108q-23 0 -38 16.5t-11 38.5q6 45 54 45q23 0 37 -16t12 -41q-11 -43 -54 -43z" />
    <glyph glyph-name="edotaccent.ss01" horiz-adv-x="870" 
d="M510 799q-115 0 -190.5 -86t-106.5 -228l463 4q45 310 -166 310zM397 72q121 0 234 123q16 18 37 0l24 -33q14 -18 -2 -37q-121 -141 -294 -141t-251.5 122.5t-46 328.5t147 327t268 121t225.5 -109.5t35 -343.5q-4 -27 -33 -27l-542 -2q-16 -147 30.5 -238t167.5 -91z
M565.5 1214q24.5 0 40 -19t10.5 -46q-9 -51 -63 -51q-25 0 -41 18.5t-13 43t22.5 39.5t44 15z" />
    <glyph glyph-name="egrave.ss01" horiz-adv-x="870" 
d="M510 799q-115 0 -190.5 -86t-106.5 -228l463 4q45 310 -166 310zM397 72q121 0 234 123q16 18 37 0l24 -33q14 -18 -2 -37q-121 -141 -294 -141t-251.5 122.5t-46 328.5t147 327t268 121t225.5 -109.5t35 -343.5q-4 -27 -33 -27l-542 -2q-16 -147 30.5 -238t167.5 -91z
M694 1022l-299 219q-25 18 -4 45l23 37q20 31 45 6l270 -256q18 -23 8 -35l-6 -12q-14 -20 -37 -4z" />
    <glyph glyph-name="emacron.ss01" horiz-adv-x="870" 
d="M510 799q-115 0 -190.5 -86t-106.5 -228l463 4q45 310 -166 310zM397 72q121 0 234 123q16 18 37 0l24 -33q14 -18 -2 -37q-121 -141 -294 -141t-251.5 122.5t-46 328.5t147 327t268 121t225.5 -109.5t35 -343.5q-4 -27 -33 -27l-542 -2q-16 -147 30.5 -238t167.5 -91z
M369 1098q-35 0 -31 32l4 23q6 31 35 31h368q35 0 31 -33l-4 -23q-6 -31 -33 -30h-370z" />
    <glyph glyph-name="eogonek.ss01" horiz-adv-x="870" 
d="M676 489q45 309 -166 310q-115 0 -190.5 -86t-106.5 -228zM513.5 883q153.5 0 225.5 -109.5t35 -343.5q-4 -27 -33 -27l-542 -2q-16 -147 30.5 -238t167.5 -91t234 123q16 18 37 0l24 -33q14 -18 -2 -37q-63 -76 -139 -109q-66 -39 -124 -104.5t-67.5 -123.5t14 -85
t80 -27t91.5 52q11 11 31 -4t10 -33q-16 -35 -60.5 -62.5t-113 -27.5t-115.5 44t-33 124q18 121 172 217q-14 -2 -41 -2q-172 0 -250.5 122.5t-46 328.5t147 327t268 121z" />
    <glyph glyph-name="o.ss01" horiz-adv-x="919" 
d="M399 72q261 0 319 360t-194 361q-135 -1 -216 -101q-80 -100 -108 -264t20 -260t179 -96zM395 -16q-178 0 -253.5 126t-43.5 324t142 323.5t290 125.5t250 -129t39 -328t-138.5 -320.5t-285.5 -121.5z" />
    <glyph glyph-name="oacute.ss01" horiz-adv-x="919" 
d="M399 72q261 0 319 360t-194 361q-135 -1 -216 -101q-80 -100 -108 -264t20 -260t179 -96zM395 -16q-178 0 -253.5 126t-43.5 324t142 323.5t290 125.5t250 -129t39 -328t-138.5 -320.5t-285.5 -121.5zM465 1022q-23 -16 -37 4l-6 12q-10 12 8 35l270 256q25 25 45 -6
l23 -37q20 -27 -4 -45z" />
    <glyph glyph-name="ocircumflex.ss01" horiz-adv-x="919" 
d="M399 72q260 0 318.5 360t-193.5 361q-135 0 -216 -100.5t-108.5 -264.5t20.5 -260t179 -96zM395 -16q-178 0 -253.5 126t-44 324.5t142 323.5t290.5 125t250 -129t39 -328t-138.5 -320.5t-285.5 -121.5zM606 1307q27 0 45 -27l113 -164q18 -27 16 -41l-4 -16
q-10 -39 -37 -6l-147 174l-201 -178q-26 -19 -32 -7t-1.5 35.5t23.5 42.5l166 166q23 20 51 21h8z" />
    <glyph glyph-name="odieresis.ss01" horiz-adv-x="919" 
d="M399 72q261 0 319 360t-194 361q-135 -1 -216 -101q-80 -100 -108 -264t20 -260t179 -96zM395 -16q-178 0 -253.5 126t-43.5 324t142 323.5t290 125.5t250 -129t39 -328t-138.5 -320.5t-285.5 -121.5zM700 1108q-25 0 -40 16.5t-11 38.5q10 45 53 45q25 0 39.5 -16
t10.5 -41q-7 -43 -52 -43zM473 1108q-23 0 -38 16.5t-11 38.5q6 45 53 45q23 0 37 -16t12 -41q-10 -43 -53 -43z" />
    </font>
</defs>
</svg>
