<?xml version="1.0" standalone="no"?>
<!DOCTYPE svg PUBLIC "-//W3C//DTD SVG 1.1//EN" "http://www.w3.org/Graphics/SVG/1.1/DTD/svg11.dtd" >
<svg xmlns="http://www.w3.org/2000/svg">
<metadata>
Created by FontPrep 20130207 at Tue Apr  4 15:34:49 2017
 By Tina Muller
Copyright 2016 by Paulo Goode. All rights reserved.
</metadata>
<defs>
<font id="d08615f433bed8b56b0b1df40ba8eee5" horiz-adv-x='1024' >
  <font-face 
    font-family="WoodfordBournePRO-UltraItalic"
    font-weight="900"
    font-style="italic"
    font-stretch="normal"
    units-per-em="2048"
    panose-1="0 0 10 0 0 0 0 0 0 0"
    ascent="1638"
    descent="-410"
    x-height="866"
    cap-height="1434"
    bbox="-1328.29 -590 5649.56 2021"
    underline-thickness="102"
    underline-position="-102"
    slope="-9"
    unicode-range="U+0020-FB02"
  />
<missing-glyph horiz-adv-x="2211" 
d="M1315 586l192 -232q25 -29 -2 -51l-141 -119q-27 -23 -51 6l-191 230l-272 -236q-29 -25 -55 6l-119 142q-23 31 6 55l270 234l-196 229q-23 29 4 53l139 119q27 25 53 -6l193 -230l270 234q31 27 51 -4l123 -144q23 -31 -2 -51zM1456 10h197l205 1301h-187q-12 0 -21 10
t-8 22l46 293q2 12 11 22t19 11h555q11 0 21 -9t8 -22l-309 -1955q-4 -31 -29 -31h-555q-12 0 -21 10t-10 21l47 294q1 13 11 23t20 10zM909 1311h-196l-205 -1301h186q12 0 22 -10t7 -23l-45 -292q-2 -13 -11 -23t-20 -10h-555q-12 0 -21 9t-8 22l310 1955q4 31 28 31h555
q12 0 22 -10t9 -21l-47 -295q-2 -12 -12 -22t-19 -10z" />
    <glyph glyph-name="fi" unicode="fi" horiz-adv-x="1282" 
d="M741 1450q266 0 428 -135q31 -25 7 -55l-134 -146q-27 -31 -53 -12q-76 55 -163 55t-142 -58t-70 -151l-14 -82h623q12 0 20 -9t6 -21l-129 -820q-2 -16 -24 -16h-316q-12 0 -24 14t-11 27l84 530h-276l-109 -686q-4 -31 -30 -30h-318q-14 0 -23 9t-7 21l108 686h-63
q-11 -1 -21 9t-8 22l37 234q4 31 31 30h71l19 113q72 471 501 471z" />
    <glyph glyph-name="fl" unicode="fl" horiz-adv-x="1282" 
d="M1313 1450q12 0 21 -9t7 -22l-219 -1388q-4 -31 -30 -31h-320q-12 0 -21 9t-8 22l150 952q10 80 -9 118t-89 38q-70 1 -121 -57t-64 -146l-10 -70h84q12 0 22 -9t7 -21l-35 -234q-4 -31 -31 -31h-94l-109 -686q-4 -31 -30 -30h-318q-14 0 -23 9t-7 21l108 686h-63
q-11 -1 -21 9t-8 22l37 234q4 31 31 30h71l12 82q76 469 506 469q121 0 213 -57l11 59q4 31 30 31h320z" />
    <glyph glyph-name="f_f" unicode="ff" horiz-adv-x="1585" 
d="M877 866v6q20 124 2 182t-88 58t-119 -48t-62 -130l-10 -68h277zM1450 1157q-150 0 -180 -209l-15 -82h160q11 0 21 -9t8 -21l-35 -230q-4 -33 -31 -33h-170l-108 -688q-4 -31 -31 -30h-315q-12 0 -23 9q-10 9 -8 21l106 688h-276l-109 -688q-4 -31 -30 -30h-316
q-12 0 -22 9t-8 21l106 688h-63q-11 -1 -21 9t-8 22l39 232q4 31 31 30h69l15 95q68 430 530 430q143 0 309 -43q125 102 326 102q95 0 173 -22t105 -44q27 -24 9 -49l-140 -170q-16 -20 -51 -10q-8 2 -47 2z" />
    <glyph glyph-name="f_f_i" unicode="ffi" horiz-adv-x="1937" 
d="M877 866v6q20 124 2 182t-88 58t-119 -48t-62 -130l-10 -68h277zM1878 866q12 0 20 -9t7 -21l-129 -820q-2 -16 -25 -16h-315q-12 0 -25 14q-12 14 -10 27l84 530h-277l-108 -686q-4 -31 -31 -30h-317q-14 0 -24 9q-9 9 -7 21l108 686h-63q-8 0 -10 2h-203l-109 -688
q-4 -31 -30 -30h-316q-12 0 -22 9t-8 21l106 688h-63q-11 -1 -21 9t-8 22l39 232q4 31 31 30h69l15 95q68 430 530 430q141 0 307 -43q125 102 324 102q266 0 428 -135q31 -25 6 -55l-133 -146q-27 -31 -53 -12q-75 55 -163 55t-143 -58t-69 -151l-15 -82h623z" />
    <glyph glyph-name="f_f_l" unicode="ffl" horiz-adv-x="1937" 
d="M877 866v6q20 124 2 182t-88 58t-119 -48t-62 -130l-10 -68h277zM1968 1450q12 0 22 -9t7 -22l-219 -1388q-4 -31 -31 -31h-320q-12 0 -21 9t-7 22l149 952q10 80 -9 118t-89 38q-70 1 -121 -57t-63 -146l-11 -70h84q11 0 21 -9t8 -21l-35 -234q-4 -31 -30 -31h-95
l-108 -686q-4 -31 -31 -30h-317q-14 0 -24 9q-9 9 -7 21l108 686h-63q-8 0 -10 2h-203l-109 -688q-4 -31 -30 -30h-316q-12 0 -22 9t-8 21l106 688h-63q-11 -1 -21 9t-8 22l39 232q4 31 31 30h69l15 95q68 430 530 430q154 0 336 -52q115 78 293 78q121 0 213 -57l10 59
q4 31 31 31h319z" />
    <glyph glyph-name=".notdef" horiz-adv-x="2211" 
d="M1315 586l192 -232q25 -29 -2 -51l-141 -119q-27 -23 -51 6l-191 230l-272 -236q-29 -25 -55 6l-119 142q-23 31 6 55l270 234l-196 229q-23 29 4 53l139 119q27 25 53 -6l193 -230l270 234q31 27 51 -4l123 -144q23 -31 -2 -51zM1456 10h197l205 1301h-187q-12 0 -21 10
t-8 22l46 293q2 12 11 22t19 11h555q11 0 21 -9t8 -22l-309 -1955q-4 -31 -29 -31h-555q-12 0 -21 10t-10 21l47 294q1 13 11 23t20 10zM909 1311h-196l-205 -1301h186q12 0 22 -10t7 -23l-45 -292q-2 -13 -11 -23t-20 -10h-555q-12 0 -21 9t-8 22l310 1955q4 31 28 31h555
q12 0 22 -10t9 -21l-47 -295q-2 -12 -12 -22t-19 -10z" />
    <glyph glyph-name=".null" 
 />
    <glyph glyph-name="nonmarkingreturn" horiz-adv-x="681" 
 />
    <glyph glyph-name="space" unicode=" " horiz-adv-x="411" 
 />
    <glyph glyph-name="exclam" unicode="!" horiz-adv-x="692" 
d="M285 -16q-78 0 -131 62t-39 142t72 128t136 48q79 0 131 -66q52 -68 36 -144t-71 -123q-56 -47 -134 -47zM252 471q-35 0 -31 31l68 917q2 31 30 31h371q33 0 27 -31l-225 -917q-6 -31 -31 -31h-209z" />
    <glyph glyph-name="quotedbl" unicode="&#x22;" horiz-adv-x="831" 
d="M637 930q-10 0 -21 9q-10 9 -10 19l19 506q0 12 10 22t20 9h242q11 0 21 -9t8 -22l-144 -503q-8 -31 -30 -31h-115zM246 930q-10 0 -21 9q-10 9 -10 19l18 506q1 12 11 22t20 9h242q12 0 21 -9t8 -22l-144 -503q-8 -31 -31 -31h-114z" />
    <glyph glyph-name="numbersign" unicode="#" horiz-adv-x="1523" 
d="M870 629l60 239h-176l-64 -239h180zM1454 1165q8 0 20 -8t13 -22v-236q0 -14 -12 -22t-21 -9h-180l-62 -239h113q9 0 21 -8t12 -23v-236q0 -14 -12 -22t-21 -8h-182l-76 -301q-6 -31 -43 -31h-264q-39 0 -31 45l70 287h-178l-74 -301q-6 -31 -45 -31h-262q-41 0 -33 45
l72 287h-109q-33 0 -33 30v236q0 31 33 31h178l60 239h-111q-33 0 -33 31v236q0 31 33 30h182l62 254q6 31 43 31h276q33 0 25 -37l-64 -248h180l62 254q6 31 41 31h278q31 0 23 -37l-62 -248h111z" />
    <glyph glyph-name="dollar" unicode="$" horiz-adv-x="1359" 
d="M754 -156h-332q-12 0 -20.5 8.5t-6.5 20.5l19 125q-229 43 -336 180q-6 8 -3 21.5t13 19.5l246 211q20 18 41 4q86 -82 297 -82q63 0 128.5 21.5t71.5 62.5q4 20 -3 32q-18 31 -171 59t-251.5 68t-150.5 86t-83 101.5t-31 110.5t4 113q23 129 138.5 252.5t316.5 171.5
l21 124q6 35 34 35h332q33 0 27 -35l-21 -122q215 -45 346 -181q20 -20 -8 -45l-250 -213q-20 -18 -41 -4q-104 92 -297 92t-202 -69q-6 -39 37 -63.5t189.5 -50.5t249.5 -75t146 -111q90 -130 53 -298q-20 -129 -130.5 -247t-317.5 -165l-21 -129q-4 -29 -34 -29z" />
    <glyph glyph-name="percent" unicode="%" horiz-adv-x="2189" 
d="M1704 258q58 0 90 54t51 161q40 172 -55 172q-115 0 -154 -217q-16 -98 -2 -134q12 -36 70 -36zM1680 -16q-190 0 -270 114q-79 114 -39 366q40 251 142 353q102 103 292 103t268 -117q77 -117 37 -365t-140 -351t-290 -103zM502 791q58 0 90 54t51 161q18 78 8 124
t-63 48q-115 0 -154 -217q-16 -98 -3 -135q13 -35 71 -35zM629 0q-12 0 -20 8q-7 8 -1 21l793 1386q4 6 7 9q3 4 4 6q2 4 60 4h166q12 0 22 -10t1 -19l-782 -1374q-18 -31 -50 -31h-200zM603 1452q189 0 267 -117t38 -365t-140 -350q-100 -104 -292 -104q-190 0 -268 115
t-39 366q40 251 142 353t292 102z" />
    <glyph glyph-name="ampersand" unicode="&#x26;" horiz-adv-x="1366" 
d="M500 311q49 0 85 22t83 73q-47 55 -144 176q-92 -84 -105 -178t81 -93zM696 1174q-25 0 -44 -22t-21 -40q-8 -37 41 -127q98 113 62 168q-13 21 -38 21zM815 772l98 -115q106 86 209 138q27 18 43 -2l127 -201q14 -25 -10 -39q-76 -47 -164 -121l180 -180q16 -25 -6 -43
l-221 -197q-31 -27 -47 -4q-29 31 -78 86t-78 84q-207 -194 -416 -194t-313 128t-76 287q37 197 326 392q-94 166 -78 284q17 162 141 268q124 107 293 107t253 -95t59 -243q-35 -186 -242 -340z" />
    <glyph glyph-name="quotesingle" unicode="'" horiz-adv-x="440" 
d="M246 930q-10 0 -21 9q-10 9 -10 19l18 506q1 12 11 22t20 9h242q12 0 21 -9t8 -22l-144 -503q-8 -31 -31 -31h-114z" />
    <glyph glyph-name="parenleft" unicode="(" horiz-adv-x="831" 
d="M424 -209q-23 -10 -41 8q-111 109 -177 391t-25 535q40 254 159 486t272 399q20 16 47 8l222 -123q14 -4 18 -16t-4 -25q-103 -123 -199 -340t-123 -428q-70 -403 62 -745q14 -29 -12 -41z" />
    <glyph glyph-name="parenright" unicode=")" horiz-adv-x="833" 
d="M494 1612q23 10 41 -8q111 -109 177 -391q121 -520 -134 -1022q-119 -232 -273 -398q-20 -16 -47 -8l-221 123q-14 4 -19 16q-4 12 5 25q102 123 198 340t123 428q70 403 -61 745q-14 29 12 41z" />
    <glyph glyph-name="asterisk" unicode="*" horiz-adv-x="790" 
d="M436 1450h125q31 0 25 -27l-56 -163l2 -3l158 78q12 4 24 -2t9 -18l18 -117q0 -33 -24 -37l-168 -20v-2l96 -121q16 -23 -14 -41l-113 -70q-29 -20 -39 6l-41 142h-4l-86 -140q-6 -10 -20 -12t-23 4l-90 70q-23 18 -2 41l137 119h-2l-164 24q-23 6 -10 37l55 117
q12 27 41 18l133 -76l3 3l-5 159q-1 11 11 21t24 10z" />
    <glyph glyph-name="plus" unicode="+" horiz-adv-x="1101" 
d="M1036 829q35 0 29 -30l-31 -199q-6 -31 -39 -31h-276l-45 -295q-6 -33 -37 -32h-234q-31 0 -24 32l47 295h-276q-35 0 -29 31l33 197q6 33 36 32h277l45 297q6 33 39 33h231q31 0 25 -33l-47 -297h276z" />
    <glyph glyph-name="comma" unicode="," horiz-adv-x="575" 
d="M131 348h283q32 0 26 -31l-49 -313q-23 -143 -145 -267t-293 -188q-23 -8 -31 25t19 43q149 63 219 151t90 205l-168 62q-33 14 -27 45l37 237q6 31 39 31z" />
    <glyph glyph-name="hyphen" unicode="-" horiz-adv-x="798" 
d="M109 313q-13 -1 -23 9t-8 22l33 197q4 31 32 30h549q14 0 24 -9t7 -21l-33 -197q-4 -31 -31 -31h-550z" />
    <glyph glyph-name="period" unicode="." horiz-adv-x="583" 
d="M82 0q-35 0 -29 31l45 288q6 29 37 29h285q35 0 29 -29l-46 -288q-6 -31 -36 -31h-285z" />
    <glyph glyph-name="slash" unicode="/" horiz-adv-x="755" 
d="M248 0h-215q-12 0 -21 9q-8 9 -4 22l570 1372q12 31 30 31h215q13 0 21 -10t4 -21l-569 -1372q-13 -31 -31 -31z" />
    <glyph glyph-name="zero" unicode="0" horiz-adv-x="1355" 
d="M651 336q137 0 187 85q49 85 86 318q42 191 22 273t-138 82t-183 -65q-43 -41 -74 -188q-32 -147 -46 -248q-13 -101 -11 -119t6 -48q4 -31 15 -41q11 -9 33 -29t103 -20zM618 -16q-296 0 -416 176t-58 569t224 557t460 164t417 -177t55 -573t-224 -556
q-162 -160 -458 -160z" />
    <glyph glyph-name="one" unicode="1" horiz-adv-x="1167" 
d="M907 1434q13 0 23 -10t8 -21l-172 -1075h252q12 0 21 -10t8 -21l-41 -266q-4 -31 -31 -31h-914q-12 0 -21 9t-7 22l43 266q4 31 28 31h261l108 692l-229 -29q-27 0 -23 29l43 276q2 20 27 25l241 100q25 12 54 13h321z" />
    <glyph glyph-name="two" unicode="2" horiz-adv-x="1265" 
d="M791 1450h10q178 0 288 -70q231 -147 132 -462q-11 -36 -39 -83q-29 -48 -57 -78q-29 -30 -35 -37t-39 -36l-353 -326h428q12 0 22 -9t7 -21l-47 -297q-4 -31 -31 -31h-985q-12 0 -21 9t-8 22l41 254q2 23 19 37l383 342q407 370 312 417q-24 13 -81 13t-96 -20t-52 -40
t-26 -57q-12 -29 -37 -29h-317q-27 0 -29 40q-5 96 79 216q104 149 289 210q110 36 243 36z" />
    <glyph glyph-name="three" unicode="3" horiz-adv-x="1255" 
d="M86 355q0 89 37 87h311q29 0 36 -38t33 -50q25 -14 89 -14t96 5t68 39q37 34 31 111q-2 26 -58 31q-55 4 -127 4h-47q-12 0 -21 10t-8 21l49 295q4 31 31 31h35q131 0 169 19t42 93q2 35 -1 51q-8 42 -103 44q-141 0 -177 -72q-16 -33 -34 -33h-320q-29 0 -27 41
q12 140 146 272q68 68 188 108t269 40q268 0 368 -128t72 -325q-35 -221 -207 -286q62 -25 106 -109t21 -219q-31 -180 -168 -290q-137 -109 -390 -109t-368 94t-132 191q-9 50 -9 86z" />
    <glyph glyph-name="four" unicode="4" horiz-adv-x="1370" 
d="M559 616h217l66 367zM803 1434h471q12 0 21 -10t8 -21l-125 -787h92q12 0 21 -9t7 -21l-47 -293q-4 -31 -30 -31h-99l-35 -231q-4 -31 -32 -31h-340q-12 0 -23 9q-10 9 -8 22l37 231h-637q-12 0 -22 9q-9 9 -9 22l43 246q4 23 23 45l649 831q15 19 35 19z" />
    <glyph glyph-name="five" unicode="5" horiz-adv-x="1257" 
d="M449 442q25 0 20 -30q-6 -72 117 -72q82 0 141 38t68 126t-71 95q-70 6 -137 -7q-67 -12 -89 -16t-101 16l-250 57q-27 6 -18 31l231 729q8 25 31 25h817q12 0 22 -10t7 -21l-47 -293q-4 -33 -31 -33l-549 -2l-51 -129q295 84 476 -57t134 -434q-37 -231 -194 -352
q-158 -119 -399 -119q-240 0 -374 103t-108 327q4 29 31 28h324z" />
    <glyph glyph-name="six" unicode="6" horiz-adv-x="1261" 
d="M694 657q-72 0 -116 -42q-44 -43 -54 -111t18 -116t94 -48q64 0 114 42q49 42 58 110t-16 116q-26 49 -98 49zM762 973q217 1 329 -143q111 -144 79 -361t-192 -351t-380 -134q-264 0 -388 196t-72 520t232 537t449 213q117 0 205 -44t129 -106t56 -123q15 -59 6 -95
t-29 -35h-279q-14 0 -33 24q-2 -1 -25 11t-91 12t-129 -47t-82 -127q76 53 215 53z" />
    <glyph glyph-name="seven" unicode="7" horiz-adv-x="1146" 
d="M236 1075q-12 0 -22 9q-9 9 -7 24l45 295q4 31 33 31h936q10 0 17 -16t1 -27l-766 -1358q-25 -33 -49 -33h-377q-12 0 -17 10t3 23l594 1042h-391z" />
    <glyph glyph-name="eight" unicode="8" horiz-adv-x="1259" 
d="M600 336q166 0 180 96q6 41 -22 86q-29 45 -86 66q-92 -27 -142 -71t-55 -87q-4 -42 29 -66t96 -24zM836 993q10 101 -92 101q-58 0 -100 -29q-76 -52 -27 -139q22 -39 69 -58q139 53 150 125zM566 -16q-262 0 -383 125q-120 125 -87 315q31 190 215 301
q-117 127 -86 324q29 165 172 283t384 118t354 -136t83 -314t-180 -302q70 -47 103 -131t14 -190q-29 -180 -178 -287q-149 -106 -411 -106z" />
    <glyph glyph-name="nine" unicode="9" horiz-adv-x="1265" 
d="M729 1114q-61 0 -113 -44t-59 -119q-8 -75 34 -115t97 -41q55 0 107 52q51 53 57 115t-28 107t-95 45zM141 387h310q14 0 36 -31q20 -16 90 -16t137 45t95 127q-86 -51 -197 -51q-229 -1 -348 149t-81 373t206 345t387 122q284 0 388 -210t42 -572t-234 -524
q-171 -161 -423 -160q-194 0 -299 78t-126 155q-11 41 -19 78q-7 37 4 61q10 31 32 31z" />
    <glyph glyph-name="colon" unicode=":" horiz-adv-x="665" 
d="M123 0q-35 0 -29 31l45 288q6 29 37 29h285q35 0 28 -29l-45 -288q-6 -31 -36 -31h-285zM203 500q-35 0 -29 30l45 289q6 29 37 29h285q35 0 28 -29l-45 -289q-6 -31 -37 -30h-284z" />
    <glyph glyph-name="semicolon" unicode=";" horiz-adv-x="659" 
d="M172 348h283q32 0 26 -31l-49 -313q-24 -143 -146 -267t-292 -188q-23 -8 -31 25t19 43q150 63 220 151t89 205l-168 62q-33 14 -27 45l37 237q6 31 39 31zM199 500q-35 0 -29 30l45 289q6 29 37 29h285q35 0 28 -29l-45 -289q-6 -31 -37 -30h-284z" />
    <glyph glyph-name="less" unicode="&#x3c;" horiz-adv-x="1163" 
d="M569 700l486 -219q27 -14 10 -41l-96 -170q-16 -31 -47 -18l-783 344q-18 8 -14 37q16 94 21 131t28 45l893 340q31 12 39 -19l47 -180q0 -31 -25 -41z" />
    <glyph glyph-name="equal" unicode="=" horiz-adv-x="1181" 
d="M121 385q-12 0 -23 9q-10 9 -8 22l33 196q4 31 33 31h931q11 0 21 -9t8 -22l-33 -196q-4 -31 -30 -31h-932zM180 760q-12 0 -22 9t-8 22l32 196q4 31 33 31h932q12 0 21 -9t8 -22l-33 -196q-4 -31 -31 -31h-932z" />
    <glyph glyph-name="greater" unicode="&#x3e;" horiz-adv-x="1163" 
d="M680 707l-485 219q-27 14 -11 41l97 170q16 31 47 18l782 -344q18 -8 14 -37q-16 -94 -21 -131t-28 -45l-893 -340q-31 -12 -39 18l-47 181q0 31 25 41z" />
    <glyph glyph-name="question" unicode="?" horiz-adv-x="1171" 
d="M432 -16q-76 0 -126 60t-36 135t70 121t129 46q74 0 124 -60t38 -136q-11 -76 -67 -120q-56 -46 -132 -46zM743 1450q374 0 441 -288q16 -73 4 -152q-20 -129 -89 -201t-206 -145q-84 -42 -113 -58q-75 -42 -108 -133q-12 -33 -33 -33h-281q-16 0 -20 12t-6 40
q-4 229 237 362q25 12 81 38t87 41t62 44t36 61t-22 54t-83 22q-129 -1 -176 -68q-24 -39 -35 -71l-13 -39q-12 -31 -31 -33l-280 -2q-14 -2 -24 7q-9 9 -9 22q-10 216 148 368t433 152z" />
    <glyph glyph-name="at" unicode="@" horiz-adv-x="2281" 
d="M1094 262q59 0 102 52t57 137q27 147 -77 147q-68 0 -116 -58t-58 -128t11 -110q22 -40 81 -40zM1686 -35q-281 0 -371 154q-125 -135 -305 -135q-215 0 -301 136q-85 136 -53 333t151 313t307 117q145 0 223 -78l35 41q23 23 51 22h222q12 0 22 -9t8 -21l-80 -508
q-12 -80 64 -80q45 0 90 36t57 117l74 478q12 82 -20 138q-33 56 -105 56h-629q-246 0 -438 -182t-242 -485q-33 -211 37 -383q8 -25 -18 -25h-307q-20 0 -41 20q-20 20 -25 46q-55 160 -16 387q66 377 363 642q298 265 698 265h626q287 2 410 -127t84 -377l-88 -553
q-27 -156 -146 -247t-337 -91z" />
    <glyph glyph-name="A" unicode="A" horiz-adv-x="1499" 
d="M643 508h250l-76 231l-6 27zM977 1450q29 0 37 -31l405 -1390q6 -29 -24 -29h-324q-27 0 -37 33l-43 121h-561l-68 -121q-20 -33 -40 -33h-332q-27 0 -37 19.5t2 35.5l836 1375q12 20 30 20h156z" />
    <glyph glyph-name="B" unicode="B" horiz-adv-x="1306" 
d="M717 356q41 0 75.5 35t43.5 86q10 74 -78 74h-199l-31 -195h189zM813 1077h-168l-31 -194h138q45 0 83.5 35.5t45 74.5t-11 61.5t-56.5 22.5zM793 0h-687q-12 0 -21 9t-7 22l215 1372q4 31 35 31h635q156 0 251 -132.5t66 -302.5q-20 -154 -174 -284q63 -55 97 -142.5
t20 -183.5q-27 -160 -152 -274.5t-278 -114.5z" />
    <glyph glyph-name="C" unicode="C" horiz-adv-x="1488" 
d="M766 -16q-313 0 -502.5 222t-141.5 525t295 511t546 208q178 0 316 -73.5t210 -200.5q18 -29 -10 -58l-203 -176q-14 -12 -38 -10t-34 18q-90 140 -254 140t-284.5 -114t-146.5 -274t50 -259t217 -99q205 0 342 158q10 14 29 14t29 -14l184 -211q29 -33 6 -58
q-117 -117 -278.5 -183t-331.5 -66z" />
    <glyph glyph-name="D" unicode="D" horiz-adv-x="1472" 
d="M729 358q121 0 204 98.5t110.5 277.5t-16.5 260t-165 81h-217l-117 -717h201zM702 0h-596q-12 0 -21 9t-7 22l215 1372q4 31 33 31h592q274 0 426.5 -188.5t96.5 -539t-261 -528.5t-478 -178z" />
    <glyph glyph-name="E" unicode="E" horiz-adv-x="1280" 
d="M1135 358q12 0 21 -9t7 -23l-45 -293q-4 -33 -33 -33h-979q-12 0 -21 9t-7 22l215 1372q4 31 33 31h979q12 0 22 -9.5t8 -21.5l-47 -295q-4 -33 -31 -33h-612l-29 -180h396q12 0 21 -9t7 -24l-49 -291q-4 -33 -30 -32h-402l-31 -181h607z" />
    <glyph glyph-name="F" unicode="F" horiz-adv-x="1263" 
d="M1309 1434q12 0 21 -9.5t7 -21.5l-45 -295q-4 -33 -32 -33h-615l-37 -223h418q14 0 23.5 -9t7.5 -22l-47 -293q-4 -31 -31 -30h-428l-72 -467q-4 -31 -33 -31h-340q-12 0 -21 9t-7 22l215 1372q4 31 33 31h983z" />
    <glyph glyph-name="G" unicode="G" horiz-adv-x="1503" 
d="M1415 844q12 0 21.5 -9.5t7.5 -21.5l-107 -682q-6 -29 -22 -37q-88 -41 -245 -75.5t-292 -34.5q-309 0 -506.5 215t-147.5 532t302 518t543 201q162 0 302 -68.5t222 -207.5q18 -31 -6 -52l-221 -188q-18 -14 -37 -9t-27 19q-92 150 -254 150t-283.5 -118t-145.5 -272
t50 -259t213 -105q92 0 185 35l28 129h-116q-14 0 -23.5 9t-7.5 22l45 278q4 31 31 31h491z" />
    <glyph glyph-name="H" unicode="H" horiz-adv-x="1550" 
d="M1534 1434q12 0 21.5 -9.5t7.5 -21.5l-217 -1372q-4 -31 -33 -31h-338q-14 0 -23.5 9t-7.5 22l80 495h-467l-78 -493q-4 -33 -33 -33h-340q-12 0 -21 9t-7 22l215 1372q4 31 33 31h340q12 0 22 -9.5t8 -21.5l-82 -520h467l80 520q4 31 33 31h340z" />
    <glyph glyph-name="I" unicode="I" horiz-adv-x="681" 
d="M106 0q-12 0 -21 9t-7 22l215 1372q4 31 33 31h340q12 0 21 -9.5t7 -21.5l-215 -1372q-4 -31 -33 -31h-340z" />
    <glyph glyph-name="J" unicode="J" horiz-adv-x="1146" 
d="M1128 1434q12 0 22.5 -9.5t8.5 -21.5l-147 -930q-35 -223 -177.5 -356t-375.5 -133q-156 0 -270.5 79.5t-143.5 237.5q-6 35 14 43l224 109q45 14 63 -33q31 -61 111 -62q47 0 96 34t61 108l144 903q4 31 30 31h340z" />
    <glyph glyph-name="K" unicode="K" horiz-adv-x="1501" 
d="M446 0h-340q-12 0 -21 9t-7 22l215 1372q4 31 33 31h340q12 0 22 -9.5t8 -21.5l-96 -578l543 586q16 23 57 23h367q23 0 31 -24t-9 -40l-633 -653l400 -666q10 -14 1 -32.5t-32 -18.5h-350q-29 0 -47 31l-357 551l-92 -549q-4 -33 -33 -33z" />
    <glyph glyph-name="L" unicode="L" horiz-adv-x="1234" 
d="M1112 358q12 0 20.5 -9t6.5 -21l-45 -297q-4 -31 -33 -31h-955q-12 0 -21 9t-7 22l217 1372q0 31 31 31h340q12 0 22 -9.5t8 -21.5l-168 -1045h584z" />
    <glyph glyph-name="M" unicode="M" horiz-adv-x="1914" 
d="M1898 1434q12 0 22.5 -9.5t8.5 -21.5l-217 -1370q-4 -33 -33 -33h-338q-12 0 -22 9t-8 22l90 579l-434 -587q-18 -23 -43 -23h-56q-37 0 -57 43l-242 571l-90 -581q-4 -33 -33 -33h-337q-14 0 -23.5 9t-7.5 22l215 1372q4 31 35 31h315q41 0 53 -43l281 -752l541 776
q12 18 47 19h333z" />
    <glyph glyph-name="N" unicode="N" horiz-adv-x="1605" 
d="M1587 1434q14 0 23.5 -9.5t7.5 -21.5l-217 -1370q-4 -33 -31 -33h-278q-35 0 -56 41l-440 698l-117 -706q-4 -33 -33 -33h-337q-12 0 -21.5 9t-7.5 22l213 1372q4 31 33 31h295q25 0 53 -39l430 -672l113 680q4 31 32 31h338z" />
    <glyph glyph-name="O" unicode="O" horiz-adv-x="1636" 
d="M799.5 342q152.5 0 267.5 111.5t140.5 272.5t-49.5 262.5t-227.5 101.5t-268 -113t-142.5 -274t50 -261t229.5 -100zM764 -16q-311 0 -500.5 222t-141.5 526t289.5 511t552 207t499 -222t140.5 -527.5t-288 -511t-551 -205.5z" />
    <glyph glyph-name="P" unicode="P" horiz-adv-x="1310" 
d="M768 752q47 0 87 51t54 129q27 145 -59 145h-205l-53 -325h176zM844 397h-307l-58 -364q-4 -33 -33 -33h-337q-14 0 -22.5 9t-6.5 22l213 1372q4 31 33 31h688q172 0 252 -150.5t38 -384t-168 -368t-292 -134.5z" />
    <glyph glyph-name="Q" unicode="Q" horiz-adv-x="1632" 
d="M799.5 342q152.5 0 267.5 111.5t140.5 272.5t-49.5 262.5t-227.5 101.5t-268 -113t-142.5 -274t50 -261t229.5 -100zM964 1450q310 0 498.5 -222t139.5 -536q-41 -252 -226 -444l90 -105q18 -29 0 -47l-225 -194q-25 -20 -43 0l-121 143q-156 -61 -311 -61
q-313 0 -502.5 222t-141.5 526t290 511t552 207z" />
    <glyph glyph-name="R" unicode="R" horiz-adv-x="1439" 
d="M874 784q51 0 90.5 46.5t51.5 123.5q23 121 -80 121h-291l-47 -291h276zM1253 0h-323q-29 0 -45 31l-166 395h-178l-62 -393q-4 -33 -33 -33h-337q-14 0 -22.5 9t-6.5 22l213 1372q4 31 33 31h776q164 0 254 -150.5t55 -376.5q-27 -166 -108.5 -284.5t-188.5 -153.5
l158 -436q12 -33 -19 -33z" />
    <glyph glyph-name="S" unicode="S" horiz-adv-x="1390" 
d="M639 336q90 0 171 31.5t87 89.5q4 64 -184 94q-248 41 -361 102q-205 113 -168 330q24 156 168 301q74 74 202 120t290 46q336 0 547 -211q10 -12 9 -31.5t-11 -27.5l-207 -176q-31 -20 -62 -3l-41 23q-110 53 -165.5 61.5t-125 8.5t-133 -26t-67.5 -69q-8 -84 198 -114
q125 -23 200 -44.5t167 -67.5q183 -92 141 -327q-30 -166 -170 -304q-162 -157 -492 -158q-171 0 -299 46t-239 169q-23 27 -2 47l217 182q18 16 47 2q147 -94 283 -94z" />
    <glyph glyph-name="T" unicode="T" horiz-adv-x="1339" 
d="M1384 1434q12 0 21.5 -9.5t7.5 -21.5l-47 -295q-4 -33 -31 -33h-360l-166 -1044q-4 -31 -33 -31h-340q-12 0 -22.5 9t-7.5 22l167 1044h-358q-12 0 -21.5 9.5t-7.5 21.5l45 297q4 31 33 31h1120z" />
    <glyph glyph-name="U" unicode="U" horiz-adv-x="1456" 
d="M1487 1434q12 0 21.5 -8.5t7.5 -22.5l-125 -754q-33 -206 -129 -363q-56 -91 -131.5 -155.5t-192.5 -105.5t-251 -41t-232.5 30.5t-158.5 81.5q-129 110 -161 278.5t-4 297.5l123 731q0 31 31 31h340q12 0 22 -9.5t8 -21.5l-120 -717q-25 -164 10 -254t155 -90
q240 0 297 367l117 694q4 31 31 31h342z" />
    <glyph glyph-name="V" unicode="V" horiz-adv-x="1589" 
d="M1649 1434q20 0 31.5 -16.5t2.5 -28.5l-833 -1356q-20 -33 -43 -33h-150q-25 0 -32 35l-412 1368q-8 31 23 31h329q27 0 39 -29l225 -731l449 729q18 31 53 31h318z" />
    <glyph glyph-name="W" unicode="W" horiz-adv-x="2166" 
d="M2232 1434q18 0 28.5 -11.5t2.5 -27.5l-676 -1362q-18 -33 -45 -33h-164q-29 0 -37 33l-200 692l-391 -694q-16 -31 -41 -31h-172q-27 0 -33 33l-293 1362q-6 39 25 39h315q29 0 35 -33l153 -684l379 692q12 25 35 25h147q23 0 31 -35l205 -682l358 694q10 23 31 23h307z
" />
    <glyph glyph-name="X" unicode="X" horiz-adv-x="1554" 
d="M1386 0h-344q-37 0 -57 41l-194 371l-318 -379q-27 -33 -59 -33h-357q-25 0 -37 19.5t5 39.5l587 709l-321 618q-10 18 -5 33t23 15h346q35 0 56 -43l161 -306l275 326q16 23 53 23h352q25 0 37.5 -20.5t-4.5 -39.5l-534 -645l356 -692q18 -37 -21 -37z" />
    <glyph glyph-name="Y" unicode="Y" horiz-adv-x="1417" 
d="M1473 1434q25 0 36 -18.5t-2 -41.5l-571 -770l-94 -571q-4 -33 -33 -33h-340q-12 0 -21.5 8t-7.5 23l92 573l-319 795q-12 35 27 35h331q35 0 56 -43l159 -396l297 412q18 27 54 27h336z" />
    <glyph glyph-name="Z" unicode="Z" horiz-adv-x="1335" 
d="M279 1075q-12 0 -22.5 9.5t-8.5 23.5l47 293q4 33 31 33h1052q20 0 29.5 -19.5t-2.5 -38.5l-723 -1018h500q12 0 21 -9t7 -23l-45 -293q-4 -33 -32 -33h-1078q-27 0 -37 17.5t2 37.5l723 1020h-464z" />
    <glyph glyph-name="bracketleft" unicode="[" horiz-adv-x="841" 
d="M862 1311h-196l-205 -1301h186q11 0 21 -10t8 -23l-45 -292q-2 -13 -11 -23t-20 -10h-555q-12 0 -21 9t-8 22l310 1955q4 31 28 31h555q11 0 21 -10t10 -21l-47 -295q-1 -12 -11 -22t-20 -10z" />
    <glyph glyph-name="backslash" unicode="\" horiz-adv-x="1185" 
d="M817 0q-18 0 -31 31l-569 1372q-4 12 4 21t21 10h215q18 0 30 -31l570 -1372q4 -11 -4 -21t-21 -10h-215z" />
    <glyph glyph-name="bracketright" unicode="]" horiz-adv-x="841" 
d="M51 10h197l205 1301h-187q-12 0 -21 10t-7 22l45 293q2 12 11 22t19 11h555q12 0 22 -9t7 -22l-309 -1955q-4 -31 -29 -31h-555q-12 0 -21 10t-10 21l47 294q2 13 12 23t19 10z" />
    <glyph glyph-name="asciicircum" unicode="^" horiz-adv-x="856" 
d="M874 1145h-122q-16 0 -35 31l-129 215l-193 -224q-20 -23 -37 -22h-149q-12 0 -20 8q-7 8 1 21l324 440q18 25 33 24h143q18 0 31 -30l180 -434q4 -12 -5 -20t-22 -9z" />
    <glyph glyph-name="underscore" unicode="_" horiz-adv-x="1210" 
d="M16 -279q-12 -1 -22 9t-8 22l16 111q4 31 31 31h966q11 0 21 -10t8 -21l-18 -111q-4 -31 -31 -31h-963z" />
    <glyph glyph-name="grave" unicode="`" horiz-adv-x="690" 
d="M655 1253l-381 220q-20 10 -8 34l88 166q4 9 18 13t25 -5l336 -311q16 -18 0 -43l-37 -65q-12 -27 -41 -9z" />
    <glyph glyph-name="a" unicode="a" horiz-adv-x="1120" 
d="M496 262q66 0 108.5 55.5t52.5 137.5q16 150 -86 149q-61 0 -107 -55t-58 -139q-21 -148 90 -148zM1057 868q14 0 23.5 -8t6.5 -22l-126 -807q-2 -12 -12.5 -21.5t-20.5 -9.5h-211q-20 0 -68 51l-14 4q-96 -72 -229 -71q-213 2 -295 140q-83 138 -51 332t150 310.5
t306 116.5q135 0 225 -78l33 41q20 23 51 22h232z" />
    <glyph glyph-name="b" unicode="b" horiz-adv-x="1112" 
d="M542.5 262q66.5 0 109 54.5t55.5 138.5q23 150 -97 149q-131 0 -157 -184q-10 -78 6.5 -118t83 -40zM684 883q223 0 312 -139.5t57.5 -329.5t-149.5 -310t-318 -120q-145 0 -234 88l-26 -41q-16 -31 -56 -31h-207q-14 0 -23 9t-7 22l219 1388q4 31 31 31h317q35 0 31 -31
l-86 -553q59 17 139 17z" />
    <glyph glyph-name="c" unicode="c" horiz-adv-x="995" 
d="M461 -16q-213 0 -323.5 135t-78 328.5t172 314.5t331.5 121q244 0 361 -168q14 -25 -6 -41l-158 -135q-23 -16 -41 8q-61 57 -134 57t-121 -48t-58 -130q-20 -164 116 -164q78 0 138 60q14 14 16 14q25 25 51 -4l135 -152q16 -25 2 -45q-29 -43 -145.5 -97t-257.5 -54z
" />
    <glyph glyph-name="d" unicode="d" horiz-adv-x="1112" 
d="M494 262q63 0 106 48t57 130q25 164 -86 164q-66 0 -109.5 -56t-55.5 -134q-25 -152 88 -152zM1141 1450q12 0 22.5 -9t7.5 -22l-219 -1388q-4 -31 -32 -31h-175q-20 0 -45 20l-41 37q-100 -74 -247 -73q-217 0 -300 137q-82 137 -52 332t149 312.5t309 117.5
q100 0 187 -35l88 571q4 31 30 31h318z" />
    <glyph glyph-name="e" unicode="e" horiz-adv-x="1040" 
d="M568 651q-46 0 -81.5 -33.5t-46.5 -70.5h207q4 35 -14.5 69.5t-64.5 34.5zM600 883q219 0 310 -143.5t61 -401.5q-2 -12 -11.5 -22.5t-19.5 -10.5h-541q14 -39 47 -52t113 -13t172 39q14 6 30.5 0.5t18.5 -17.5l66 -172q8 -33 -24 -51.5t-133 -36.5t-189 -18
q-221 0 -346 133t-97.5 327.5t176 316.5t367.5 122z" />
    <glyph glyph-name="f" unicode="f" horiz-adv-x="929" 
d="M745 1450q94 0 173 -22q79 -20 106 -44t8 -49l-139 -170q-16 -20 -51 -10q-8 2 -47 2q-150 0 -181 -209l-14 -82h160q12 0 21.5 -9t6.5 -21l-34 -230q-4 -33 -31 -33h-170l-109 -688q-4 -31 -30 -30h-316q-12 0 -22 9t-8 21l106 688h-63q-14 0 -22.5 10.5t-6.5 20.5
l37 232q4 31 31 30h71l19 113q73 471 505 471z" />
    <glyph glyph-name="g" unicode="g" horiz-adv-x="1134" 
d="M508 262q139 0 171 171t-99 171q-70 0 -114 -50t-58 -132q-29 -160 100 -160zM1071 868q12 0 22.5 -9t8.5 -21l-133 -840q-33 -217 -188.5 -340t-387.5 -123q-147 0 -251.5 49t-153.5 131q-12 25 6 41l176 146q27 18 43 -6q59 -82 157 -82t165 50t83 134l9 39
q-90 -53 -221 -53q-211 0 -295 135q-83 135 -51 335t150 314.5t302 114.5q137 0 229 -72l31 35q27 23 53 22h246z" />
    <glyph glyph-name="h" unicode="h" horiz-adv-x="1169" 
d="M735 883q180 0 275.5 -124t60.5 -343l-59 -385q-4 -31 -33 -31h-315q-12 0 -21.5 9t-7.5 22l70 465q18 109 -76 108q-53 0 -95 -42t-53 -99l-69 -432q-4 -31 -31 -31h-320q-12 0 -21 9t-7 22l219 1388q4 31 31 31h319q12 0 20.5 -9t6.5 -22l-99 -588q94 52 205 52z" />
    <glyph glyph-name="i" unicode="i" horiz-adv-x="608" 
d="M84 0q-12 0 -22 9q-9 9 -7 22l123 805q4 31 31 30h319q12 0 22 -9t7 -21l-127 -805q-4 -31 -31 -31h-315zM450 1411q86 0 142 -71q56 -72 42 -156q-16 -84 -80 -136t-150 -53q-86 0 -142 71q-55 71 -40 156q14 85 78 137t150 52z" />
    <glyph glyph-name="j" unicode="j" horiz-adv-x="647" 
d="M-45 -465q-201 0 -296 80t-105 192q-4 27 14 33l252 90q29 8 37 -22q27 -94 92 -94q51 0 86 41t45 112l137 869q4 31 33 30h315q11 0 21 -9t8 -21l-135 -861q-70 -440 -504 -440zM488 1413q88 0 144 -71q56 -70 41 -156t-79 -138t-149 -51q-86 0 -143 68q-56 68 -41 155
t77 140t150 53z" />
    <glyph glyph-name="k" unicode="k" horiz-adv-x="1218" 
d="M1071 0h-334q-31 0 -49 31l-217 352l-59 -352q-4 -31 -31 -31h-320q-12 0 -21 8t-7 23l219 1388q4 31 31 31h319q12 0 21.5 -8t7.5 -23l-152 -921l305 346q14 23 45 22h349q14 0 21 -15t-3 -28l-350 -372l246 -420q6 -12 -1.5 -21.5t-19.5 -9.5z" />
    <glyph glyph-name="l" unicode="l" horiz-adv-x="571" 
d="M61 0q-12 0 -21 9t-7 22l219 1388q4 31 31 31h319q12 0 21.5 -9t7.5 -22l-219 -1388q-4 -31 -31 -31h-320z" />
    <glyph glyph-name="m" unicode="m" horiz-adv-x="1755" 
d="M1338 883q181 0 268.5 -118t48.5 -357l-60 -377q-4 -31 -30 -31h-318q-12 0 -22.5 9t-7.5 22l73 454q8 51 -14.5 85t-68.5 34t-85 -43t-49 -102l-67 -428q-4 -31 -31 -31h-318q-12 0 -22 9t-8 22l73 458q8 49 -10 82t-65 33t-90 -41t-54 -98l-69 -434q-4 -31 -31 -31
h-320q-12 0 -21 9t-7 22l129 807q4 31 33 30h270q27 0 39 -28l18 -56q123 98 268.5 98.5t231.5 -112.5q135 113 316 113z" />
    <glyph glyph-name="n" unicode="n" horiz-adv-x="1206" 
d="M784 883q195 0 277 -120t53 -292l-67 -440q-4 -31 -33 -31h-318q-12 0 -21 9t-7 22l71 458q8 45 -17.5 80t-80.5 35t-105.5 -47t-58.5 -100l-65 -426q-4 -31 -31 -31h-320q-12 0 -21 9t-7 22l127 807q4 31 30 30h283q20 0 33 -28l20 -56q104 99 258 99z" />
    <glyph glyph-name="o" unicode="o" horiz-adv-x="1042" 
d="M496 262q49 0 93 45t58 137.5t-17.5 126t-81.5 33.5t-95 -50t-58.5 -139t19.5 -121t82 -32zM462 -16q-206 0 -325 138t-89 326.5t179.5 311.5t354 123t326.5 -137.5t88 -327.5t-181 -312t-353 -122z" />
    <glyph glyph-name="p" unicode="p" horiz-adv-x="1114" 
d="M530 262q66 0 115 56.5t61 129.5q25 156 -92 156q-66 0 -106.5 -56t-54.5 -140q-25 -146 77 -146zM696 883q138 0 230 -71q172 -134 129 -404q-31 -186 -154 -305t-311 -119q-96 0 -180 32l-68 -428q-4 -33 -31 -32h-319q-12 0 -21.5 9t-7.5 21l197 1252q4 31 30 30h193
q25 0 51 -26l31 -23q92 64 231 64z" />
    <glyph glyph-name="q" unicode="q" horiz-adv-x="1116" 
d="M498 262q129 0 164 191q25 152 -80 151q-66 0 -113 -53t-61 -137q-25 -152 90 -152zM1055 866q12 0 21 -9t7 -21l-196 -1248q-4 -33 -31 -32h-317q-14 0 -23.5 9t-7.5 21l74 416q-53 -18 -156 -18q-225 0 -313 137q-87 137 -55 329t145.5 312.5t318.5 120.5
q84 0 133.5 -20.5t98.5 -63.5l34 30q37 37 62 37h205z" />
    <glyph glyph-name="r" unicode="r" horiz-adv-x="827" 
d="M605 608q-42 0 -79 -41t-49 -118l-65 -418q-4 -31 -31 -31h-320q-12 0 -21 9t-7 22l127 807q4 31 30 30h185q29 0 51 -28l39 -52q100 94 224 94.5t157 -40.5q16 -18 2 -43l-115 -191q-10 -16 -48 -8t-80 8z" />
    <glyph glyph-name="s" unicode="s" horiz-adv-x="909" 
d="M373 -16q-242 0 -350 118q-18 23 -5 43l97 140q14 18 47 0q98 -49 203.5 -49t101.5 38q0 23 -36 28q-7 1 -36 9t-50 13.5t-55 16.5t-52.5 19.5t-45 22.5t-40 29.5t-28.5 36t-20.5 43t-5.5 52t8 64.5q27 121 130.5 198t279.5 77q115 0 208 -31t138 -70q20 -18 8 -41
l-104 -145q-18 -18 -45 -8q-109 43 -183.5 43t-80.5 -41q0 -20 58 -34.5t85 -23t62.5 -20.5t57.5 -24t46 -28q86 -57 55 -208q-67 -268 -448 -268z" />
    <glyph glyph-name="t" unicode="t" horiz-adv-x="851" 
d="M412 -16q-162 0 -224.5 97t-46.5 247l39 245h-65q-12 0 -22.5 9.5t-8.5 21.5l37 232q4 31 33 30h73l33 215q4 31 31 31h317q14 0 23.5 -9t7.5 -22l-33 -215h158q12 0 21.5 -9t7.5 -21l-35 -230q-4 -33 -31 -33h-168l-37 -227q-6 -47 3.5 -60.5t41.5 -13.5l97 13
q25 6 34 -23l62 -190q8 -31 -23 -45q-115 -43 -325 -43z" />
    <glyph glyph-name="u" unicode="u" horiz-adv-x="1169" 
d="M1106 866q14 0 23.5 -9t7.5 -21l-127 -803q-2 -12 -11.5 -22.5t-21.5 -10.5h-236q-23 0 -49 31l-51 57q-35 -45 -102.5 -74.5t-128.5 -29.5q-184 0 -267.5 105.5t-54.5 289.5l72 457q4 31 30 30h320q12 0 21.5 -9t7.5 -21l-74 -465q-14 -111 79 -111q48 0 91 41t53 96
l70 439q4 31 30 30h318z" />
    <glyph glyph-name="v" unicode="v" horiz-adv-x="1118" 
d="M1120 866q12 0 19.5 -10t-0.5 -22l-547 -803q-18 -31 -39 -31h-123q-20 0 -33 31l-291 807q-4 10 4.5 19t20.5 9h301q23 0 31 -30l102 -310l207 310q18 31 43 30h305z" />
    <glyph glyph-name="w" unicode="w" horiz-adv-x="1507" 
d="M1489 866q12 0 21.5 -8t2.5 -20l-432 -805q-16 -33 -34 -33h-203q-29 0 -33 33l-70 360l-176 -360q-16 -33 -37 -33h-198q-25 0 -33 33l-170 803q-8 31 25 30h305q29 0 32 -32l35 -312l160 312q20 33 35 32h164q29 0 32 -32l68 -312l133 312q12 33 31 32h342z" />
    <glyph glyph-name="x" unicode="x" horiz-adv-x="1044" 
d="M340 0h-330q-14 0 -19 14.5t5 24.5l340 410l-199 382q-18 35 19 35h288q18 0 33 -30l70 -131l110 131q23 31 45 30h326q12 0 20.5 -15t-1.5 -28l-347 -420l195 -374q6 -12 1 -20.5t-17 -8.5h-291q-23 0 -37 31l-64 121l-98 -121q-18 -31 -49 -31z" />
    <glyph glyph-name="y" unicode="y" horiz-adv-x="1210" 
d="M1202 866q14 0 21.5 -11t-0.5 -21l-797 -1199q-18 -33 -37 -32h-330q-14 0 -20 13t0 24l328 475l-250 723q-10 29 24 28h295q27 0 31 -30l129 -367l240 365q20 33 34 32h332z" />
    <glyph glyph-name="z" unicode="z" horiz-adv-x="925" 
d="M152 588q-12 0 -21.5 8t-7.5 20l35 220q8 31 30 30h703q16 0 25.5 -17.5t1.5 -29.5l-359 -540h211q12 0 21.5 -9.5t7.5 -21.5l-35 -217q-4 -31 -31 -31h-706q-12 0 -19.5 14.5t0.5 24.5l363 549h-219z" />
    <glyph glyph-name="braceleft" unicode="{" horiz-adv-x="1032" 
d="M786 10h52q12 0 21 -9t7 -24l-47 -292q-4 -33 -31 -33h-161q-180 0 -271 115q-90 115 -51 364l49 305q6 45 -75 45h-99q-12 0 -22 9t-8 22l45 297q4 31 32 31h109q82 0 94 73l49 301q41 252 154 354t295 101h172q12 0 21 -9t7 -24l-45 -293q-2 -12 -11 -22t-21 -10h-60
q-97 0 -125 -119l-51 -315q-8 -47 -18 -76t-38 -63q-50 -61 -222 -79q143 -16 183 -77t23 -156l-49 -317q-12 -84 76 -97q10 -2 16 -2z" />
    <glyph glyph-name="bar" unicode="|" horiz-adv-x="505" 
d="M63 -238q-12 0 -20 8t-6 21l295 1843q6 35 37 35h161q31 0 25 -35l-293 -1843q-4 -29 -35 -29h-164z" />
    <glyph glyph-name="braceright" unicode="}" horiz-adv-x="1030" 
d="M317 1311h-51q-12 0 -21 9t-7 23l47 293q4 33 30 33h162q181 0 271 -115t51 -364l-49 -305q-6 -45 75 -45h99q12 0 22 -10t8 -21l-45 -297q-4 -31 -32 -31h-109q-66 0 -88 -51l-6 -22l-49 -302q-41 -252 -154 -353t-295 -101h-172q-12 0 -21 9t-8 24l45 292q2 13 12 23
t21 10h60q70 0 106 64q12 27 19 55l51 315q8 47 18 76t38 63q50 61 222 79q-143 16 -183 77t-24 156l50 317q12 84 -76 97q-10 2 -17 2z" />
    <glyph glyph-name="asciitilde" unicode="~" horiz-adv-x="1118" 
d="M766 555q-104 0 -185 34t-137 34t-132 -40t-98 -35t-30 27l-43 80q-10 25 -6 41q5 37 109 109t212 72t187 -34q80 -34 128 -34t118 40q69 40 95 37t38 -26l47 -90q12 -27 -4 -49q-143 -166 -299 -166z" />
    <glyph glyph-name="exclamdown" unicode="&#xa1;" horiz-adv-x="692" 
d="M442 395q33 0 31 -30l-67 -918q-4 -31 -31 -31h-371q-33 0 -27 31l226 918q6 31 30 30h209zM409 883q77 -1 131 -63t40 -142t-72 -128t-137 -48q-78 0 -130 66t-37 144q15 77 71 124t134 47z" />
    <glyph glyph-name="cent" unicode="&#xa2;" horiz-adv-x="993" 
d="M539 -156h-308q-29 0 -24 29l22 152q-111 55 -165 163.5t-33.5 240.5t109.5 243.5t220 169.5l23 145q6 35 37 35h307q31 0 25 -35l-21 -131q111 -43 158 -119q10 -20 -8 -39l-164 -149q-29 -20 -41 0q-43 55 -131 55q-139 0 -168 -174q-31 -178 127 -178q86 0 151 78
q20 27 43 4l125 -141q16 -16 -4 -39q-78 -88 -223 -144l-21 -137q-4 -29 -36 -29z" />
    <glyph glyph-name="sterling" unicode="&#xa3;" horiz-adv-x="1230" 
d="M1110 356q12 0 22 -9t7 -21l-43 -295q-4 -31 -31 -31h-997q-12 0 -22 9q-9 9 -7 22l37 231q4 35 26 35h2q41 0 83 58t55 120l10 64h-105q-12 0 -21 9t-7 21l45 293q4 33 31 33h110l14 74q39 227 158 355t375 128q395 0 395 -348q0 -27 -22 -29l-285 -65q-29 -6 -33 18
q0 70 -76 70q-90 0 -116 -154l-8 -49h213q12 0 21 -9t7 -22l-47 -295q-4 -31 -29 -30h-219l-16 -88q-8 -55 -29 -95h502z" />
    <glyph glyph-name="currency" unicode="&#xa4;" horiz-adv-x="1091" 
d="M572 594q48 0 90 35q41 35 49 84t-23 84t-80 35t-89 -36q-40 -34 -48 -83t22 -84q31 -35 79 -35zM528 334q-82 0 -145 31l-82 -76q-8 -8 -21 -8t-22 6l-162 149q-16 23 6 45l105 107q-4 72 5 124t36 126l-70 106q-6 8 -4 22t10 21l211 152q31 14 41 -2l56 -76
q74 31 158 31t147 -31l80 78q23 14 45 2l161 -152q18 -18 -8 -43l-102 -106q11 -130 -41 -252l67 -109q7 -8 5 -22t-11 -21l-209 -149q-31 -16 -43 0l-53 78q-78 -31 -160 -31z" />
    <glyph glyph-name="yen" unicode="&#xa5;" horiz-adv-x="1411" 
d="M1470 1434q25 0 36.5 -18.5t-1.5 -41.5l-411 -555h6q12 0 21 -9t7 -22l-22 -149q-4 -31 -31 -31h-139l-2 -4l-19 -110h129q12 0 22.5 -9.5t8.5 -21.5l-24 -148q-4 -33 -31 -32h-139l-41 -250q-4 -33 -33 -33h-340q-12 0 -21.5 8t-7.5 23l41 252h-141q-12 0 -21.5 10
t-7.5 22l23 148q4 31 33 31h147l18 110l-2 4h-135q-12 0 -21.5 9.5t-6.5 21.5l22 147q4 33 31 33h26l-233 580q-12 35 27 35h331q33 0 56 -43l159 -396l297 412q18 27 54 27h335z" />
    <glyph glyph-name="brokenbar" unicode="&#xa6;" horiz-adv-x="505" 
d="M63 -238q-12 0 -20 8t-6 21l115 709q6 35 36 35h162q31 0 25 -35l-113 -709q-4 -29 -35 -29h-164zM244 897q-29 0 -25 29l113 708q6 35 37 35h161q31 0 25 -35l-113 -708q-4 -29 -34 -29h-164z" />
    <glyph glyph-name="section" unicode="&#xa7;" horiz-adv-x="1124" 
d="M481 705q-29 -29 -38 -87t55 -82t188 -32q35 33 43 79t-3 66t-60 27q-48 8 -99 16t-86 13zM721 1450q281 0 465 -164q16 -23 -4 -39l-215 -192q-18 -18 -37 -2q-92 74 -248 73q-138 0 -150 -61q-4 -31 22 -42t138 -32q266 -49 351 -143t63 -232t-143 -249q78 -92 54 -225
t-159 -258q-66 -60 -174 -98t-238 -38q-313 0 -448 166q-14 8 6 33l209 190q10 14 35 4q70 -69 228 -69t171 59q9 21 -10 38q-18 16 -133 38q-266 49 -361 147q-94 98 -72 228t148 249q-78 88 -56 235q22 148 170 266t388 118z" />
    <glyph glyph-name="dieresis" unicode="&#xa8;" horiz-adv-x="718" 
d="M678 1343q-55 0 -87 41q-32 42 -24 86t38 68t78 25q48 0 79 -41t20 -92q-16 -87 -104 -87zM367 1343q-55 0 -87 41q-32 42 -24 86t39 68t79 25q48 0 78 -41t19 -92q-16 -87 -104 -87z" />
    <glyph glyph-name="copyright" unicode="&#xa9;" horiz-adv-x="1628" 
d="M856 358q-145 0 -228 94t-83 264q0 171 84 268t227 97q244 0 309 -225q8 -33 -30 -45l-160 -29q-37 -5 -46 38q-5 24 -27 39t-44 15q-70 0 -70 -160t68 -159q57 0 72 66q6 31 43 30l168 -33q31 -8 24 -43q-61 -217 -307 -217zM859 188q224 0 364 152q139 152 139 376
t-139 377t-363 153t-363 -154q-139 -152 -139 -377t138 -376t363 -151zM860 -16q-303 0 -518 214t-215 518t215 519t518 215t517 -215t214 -519t-214 -518t-517 -214z" />
    <glyph glyph-name="ordfeminine" unicode="&#xaa;" horiz-adv-x="913" 
d="M285 492h389q14 0 23 -10t8 -21l-35 -215q-4 -33 -33 -33h-389q-12 0 -22 9q-9 9 -7 22l35 217q4 31 31 31zM529 842q40 0 71 20t37 58q5 38 -17 60t-68 22t-74 -24t-33 -60t19 -56t65 -20zM831 682h-135q-23 0 -39 33l-18 30q-61 -79 -205 -79t-210 80q-67 80 -46 184
q14 90 92 147t194 57t187 -20l6 45q6 52 -39 58h-14l-8 -3q-83 0 -143 -12t-72 -13t-21 8q-8 9 -6 20l-2 151q0 20 25 33l29 8q121 23 221 25q197 0 259 -85t34 -251l-62 -389q-4 -27 -27 -27z" />
    <glyph glyph-name="guillemotleft" unicode="&#xab;" horiz-adv-x="1261" 
d="M1096 -16h-187q-25 0 -43 32l-239 349q-29 43 -27 59l2 16q2 16 27 41l375 373q25 29 53 29h176q12 1 18 -9t-2 -20l-346 -420l213 -420q6 -12 -1 -21t-19 -9zM590 -16h-187q-25 0 -43 32l-239 349q-29 43 -27 59l2 16q2 16 27 41l375 373q25 29 53 29h176q12 1 18 -9
t-2 -20l-346 -420l213 -420q6 -12 -1 -21t-19 -9z" />
    <glyph glyph-name="logicalnot" unicode="&#xac;" horiz-adv-x="1204" 
d="M152 582q-37 0 -29 30l33 199q6 31 37 31h948q35 0 28 -31l-79 -510q-6 -33 -37 -33h-242q-31 0 -25 31l45 283h-679z" />
    <glyph glyph-name="uni00AD" unicode="&#xad;" horiz-adv-x="763" 
d="M90 313q-12 -1 -22 9t-9 22l33 197q4 31 33 30h549q14 0 23 -9t8 -21l-33 -197q-4 -31 -31 -31h-551z" />
    <glyph glyph-name="registered" unicode="&#xae;" horiz-adv-x="1628" 
d="M793 872v-90h106q23 0 31 10t8 39q0 41 -41 41h-104zM793 586v-203q0 -14 -17 -14h-209q-14 0 -14 14v670q0 16 14 16h400q96 0 153 -58t58 -163q0 -145 -95 -207q43 -51 71 -134t26 -124q0 -14 -17 -14h-211q-16 0 -16 14q0 104 -74 203h-69zM859 188q224 0 364 152
q139 152 139 376t-139 377t-363 153t-363 -154q-139 -152 -139 -377t138 -376t363 -151zM860 1450q303 0 517 -215t214 -519t-214 -518t-517 -214t-518 214t-215 518t215 519t518 215z" />
    <glyph glyph-name="macron" unicode="&#xaf;" horiz-adv-x="661" 
d="M270 1348q-12 0 -20 9t-6 21l24 133q0 11 10 21t19 10h414q12 0 21 -9t7 -20l-20 -135q-4 -31 -31 -30h-418z" />
    <glyph glyph-name="degree" unicode="&#xb0;" horiz-adv-x="731" 
d="M477 1135q57 0 95 39t45 91t-16 87q-24 34 -81 34t-97 -40t-45 -92q-11 -120 99 -119zM467 958q-125 0 -207 98t-65 218q18 119 113 204t221 85q126 -1 208 -99t63 -218q-20 -120 -114 -204t-219 -84z" />
    <glyph glyph-name="plusminus" unicode="&#xb1;" horiz-adv-x="1101" 
d="M938 195q10 -1 19 -11t10 -20l-25 -152q-4 -31 -29 -30h-858q-12 0 -21 9t-7 21l26 150q4 33 29 33h856zM1036 829q35 0 29 -30l-33 -199q-6 -31 -37 -31h-276l-41 -256q-6 -35 -35 -34h-233q-33 0 -27 32l43 258h-279q-35 0 -28 31l35 199q6 31 36 30h277l41 258
q6 33 35 33h233q31 0 25 -30l-41 -261h276z" />
    <glyph glyph-name="uni00B2" unicode="&#xb2;" horiz-adv-x="876" 
d="M623 1602q165 0 241 -76t54 -212t-154 -243l-178 -145h239q29 0 25 -29l-29 -184q-4 -29 -28 -29h-607q-29 0 -24 27l24 170q2 18 23 39l235 190q190 156 199 225q4 27 -55 27q-58 0 -90 -45q-12 -29 -31 -29h-197q-51 0 -6 114t172 167q81 33 187 33z" />
    <glyph glyph-name="uni00B3" unicode="&#xb3;" horiz-adv-x="882" 
d="M610 1604q164 0 244 -76t55 -223q-14 -80 -48 -117t-87 -58q37 -14 70 -67q32 -53 16 -150t-101 -171t-249 -72q-102 0 -174 30t-104 78q-60 88 -46 172q4 29 29 29h193q18 0 24 -12t6 -17q29 -39 76 -39q86 0 98 45q0 10 2 24t-24 29q-27 13 -80 13h-25q-31 0 -26 29
l26 166q4 29 27 28h12q112 1 127 63q6 26 -10 40t-43 14q-68 0 -87 -34t-36 -34h-211q-23 0 -22 23q2 91 102 189t266 98z" />
    <glyph glyph-name="acute" unicode="&#xb4;" horiz-adv-x="645" 
d="M326 1253q-29 -18 -41 9l-37 65q-14 25 0 43l336 311q10 7 24 5t19 -13l88 -166q12 -25 -8 -34z" />
    <glyph glyph-name="uni00B5" unicode="&#xb5;" horiz-adv-x="1161" 
d="M1026 0h-303q-25 0 -47 31l-41 61q-123 -109 -232 -108q8 0 3 -19l-64 -377q-4 -33 -33 -32h-319q-12 0 -22 9q-9 9 -7 21l197 1250q4 31 30 30h318q12 0 21 -9t8 -21l-72 -467q-16 -109 77 -109q47 0 90 42q42 42 50 95l70 439q4 31 30 30h318q12 0 22 -9t8 -21
l-102 -658q-24 -113 10 -147q8 -7 6 -19t-16 -12z" />
    <glyph glyph-name="paragraph" unicode="&#xb6;" horiz-adv-x="1347" 
d="M1384 1434q27 0 23 -31l-254 -1610q-2 -12 -13 -21t-24 -10h-227q-29 0 -25 31l217 1381h-157l-217 -1381q-1 -12 -13 -21t-24 -10h-228q-31 0 -26 31l123 780q-178 -1 -292 135t-85 313t176 295t340 118h706z" />
    <glyph glyph-name="periodcentered" unicode="&#xb7;" horiz-adv-x="583" 
d="M162 500q-35 0 -29 30l45 289q6 29 37 29h285q35 0 28 -29l-45 -289q-6 -31 -37 -30h-284z" />
    <glyph glyph-name="cedilla" unicode="&#xb8;" horiz-adv-x="587" 
d="M168 -426q-88 0 -136 32t-59 60q0 14 4 21l54 53q13 14 37 -8t59 -21q78 0 88 76q6 39 -16 42q-23 3 -39 -20t-49 -14l-84 27q-20 6 -11 26l105 168h178l-66 -92q92 -2 128 -56t21 -130q-14 -76 -70 -120t-144 -44z" />
    <glyph glyph-name="uni00B9" unicode="&#xb9;" horiz-adv-x="788" 
d="M752 918q31 0 26 -29l-28 -182q-4 -29 -27 -29h-573q-29 0 -25 27l27 184q8 29 28 29h158l61 391l-135 -21q-30 -5 -26 21l28 174q2 23 33 37l137 53q10 6 33 6h209q29 0 24 -27l-98 -634h148z" />
    <glyph glyph-name="ordmasculine" unicode="&#xba;" horiz-adv-x="886" 
d="M256 492h389q11 0 21 -10t8 -21l-35 -215q0 -14 -9 -24t-22 -9h-389q-12 0 -21 9t-8 22l35 217q4 31 31 31zM516 924q74 0 100 129q20 123 -53 123q-35 0 -63 -33t-39 -94q-19 -125 55 -125zM492 666q-146 0 -235 105t-58 291t137 279t248 93t236 -102t64 -292t-138 -282
t-254 -92z" />
    <glyph glyph-name="guillemotright" unicode="&#xbb;" horiz-adv-x="1261" 
d="M858 883q25 0 43 -33l240 -348q29 -43 26 -60l-2 -16q-2 -16 -26 -41l-375 -373q-25 -29 -53 -28h-176q-12 0 -19 9q-6 9 2 19l346 420l-213 420q-6 12 1 21t20 10h186zM352 883q25 0 43 -33l240 -348q29 -43 27 -60q-6 -33 -29 -57l-375 -373q-25 -29 -53 -28h-176
q-12 0 -19 9q-6 9 2 19l346 420l-213 420q-6 12 1 21t20 10h186z" />
    <glyph glyph-name="onequarter" unicode="&#xbc;" horiz-adv-x="2017" 
d="M1460 401h117l33 199zM1903 401q29 0 24 -26l-31 -185q-4 -27 -26 -26h-66l-20 -135q-4 -29 -29 -29h-213q-29 0 -24 27l20 137h-354q-31 0 -27 26l21 136q2 18 24 49l393 504q18 23 37 22h260q31 0 27 -27l-76 -473h60zM729 772q31 0 27 -29l-29 -182q-4 -29 -27 -29
h-573q-29 0 -25 27l27 184q6 29 29 29h157l62 391l-135 -20q-31 -5 -27 20l29 174q2 23 32 37l138 53q8 6 32 7h209q29 0 25 -27l-98 -635h147zM598 0q-12 0 -19 8t-1 21l792 1386q4 6 7 9q3 2 4 6t59 4h168q12 0 21 -10t1 -19l-782 -1374q-18 -31 -49 -31h-201z" />
    <glyph glyph-name="onehalf" unicode="&#xbd;" horiz-adv-x="2125" 
d="M1763 918q166 0 242 -76t53 -212t-153 -243l-179 -145h240q29 0 25 -29l-29 -184q-4 -29 -29 -29h-606q-29 0 -24 27l24 170q2 18 23 39l235 190q190 156 199 225q4 27 -55 27q-58 0 -91 -45q-12 -29 -30 -29h-197q-27 0 -27 32q0 74 74 167q39 49 119 82t186 33z
M729 772q31 0 27 -29l-29 -182q-4 -29 -27 -29h-573q-29 0 -25 27l27 184q6 29 29 29h157l62 391l-135 -20q-31 -5 -27 20l29 174q2 23 32 37l138 53q8 6 32 7h209q29 0 25 -27l-98 -635h147zM598 0q-12 0 -19 8t-1 21l792 1386q4 6 7 9q3 2 4 6t59 4h168q12 0 21 -10t1 -19
l-782 -1374q-18 -31 -49 -31h-201z" />
    <glyph glyph-name="threequarters" unicode="&#xbe;" horiz-adv-x="2091" 
d="M1536 401h117l33 199zM1978 401q29 0 25 -26l-31 -185q-4 -27 -26 -26h-66l-20 -135q-4 -29 -29 -29h-213q-29 0 -25 27l21 137h-354q-31 0 -27 26l20 136q2 18 25 49l393 504q18 23 37 22h260q31 0 27 -27l-76 -473h59zM641 0q-12 0 -19 8t-1 21l792 1386q4 6 7 9
q3 4 4 6q2 4 60 4h167q12 0 21 -10t1 -19l-782 -1374q-18 -31 -49 -31h-201zM585 1450q165 0 245 -76t55 -223q-14 -80 -48 -117t-87 -57q38 -13 70 -67t16 -151t-102 -170t-249 -73q-102 0 -174 31q-71 31 -103 78q-59 88 -46 172q4 29 28 28h193q21 0 29 -21q2 -5 2 -7
q29 -39 75 -39q86 0 99 45q0 10 2 24q2 13 -25 27t-80 14h-24q-31 0 -27 29l27 166q4 29 26 29h13q113 0 127 62q5 26 -11 40t-43 14q-68 0 -87 -34t-35 -33h-211q-23 0 -23 22q2 92 102 190q101 97 266 97z" />
    <glyph glyph-name="questiondown" unicode="&#xbf;" horiz-adv-x="1093" 
d="M467 -590q-376 0 -440 288q-16 73 -4 152q20 129 89 201t205 146q84 41 113 57q73 40 109 133q12 33 32 33h281q16 0 20 -11t7 -40q4 -229 -238 -363q-25 -12 -81 -38t-87 -41t-61 -44t-36 -61q-4 -32 22 -54t82 -22q132 0 176 69q24 38 35 71q11 32 14 38q12 31 30 33
l281 2q14 2 23 -7t10 -22q10 -216 -149 -368t-433 -152zM778 877q76 -1 126 -61t36 -135t-70 -121t-128 -46q-74 0 -125 60q-49 60 -37 136t67 121q55 46 131 46z" />
    <glyph glyph-name="Agrave" unicode="&#xc0;" horiz-adv-x="1499" 
d="M643 508h250l-76 231l-6 27zM977 1450q29 0 37 -31l405 -1390q6 -29 -24 -29h-324q-27 0 -37 33l-43 121h-561l-68 -121q-20 -33 -40 -33h-332q-27 0 -37 19.5t2 35.5l836 1375q12 20 30 20h156zM1143 1565l-406 104q-29 8 -20 41l45 152q10 39 51 18l377 -186
q20 -10 14 -35l-18 -76q-6 -28 -43 -18z" />
    <glyph glyph-name="Aacute" unicode="&#xc1;" horiz-adv-x="1499" 
d="M643 508h250l-76 231l-6 27zM977 1450q29 0 37 -31l405 -1390q6 -29 -24 -29h-324q-27 0 -37 33l-43 121h-561l-68 -121q-20 -33 -40 -33h-332q-27 0 -37 19.5t2 35.5l836 1375q12 20 30 20h156zM748 1563q-37 -10 -43 18l-19 76q-6 25 14 35l377 186q41 20 51 -18
l46 -152q8 -33 -21 -41z" />
    <glyph glyph-name="Acircumflex" unicode="&#xc2;" horiz-adv-x="1499" 
d="M643 508h250l-76 231l-6 27zM977 1450q29 0 37 -31l405 -1390q6 -29 -24 -29h-324q-27 0 -37 33l-43 121h-561l-68 -121q-20 -33 -40 -33h-332q-27 0 -37 19.5t2 35.5l836 1375q12 20 30 20h156zM950 1898h21q12 0 47 -34l176 -154q12 -12 8 -39l-14 -92q-6 -31 -39 -8
l-207 129l-258 -139q-10 -4 -18.5 2t-6.5 18l17 92q4 29 26 45l209 164q25 16 39 16z" />
    <glyph glyph-name="Atilde" unicode="&#xc3;" horiz-adv-x="1499" 
d="M643 508h250l-76 231l-6 27zM977 1450q29 0 37 -31l405 -1390q6 -29 -24 -29h-324q-27 0 -37 33l-43 121h-561l-68 -121q-20 -33 -40 -33h-332q-27 0 -37 19.5t2 35.5l836 1375q12 20 30 20h156zM1052.5 1591q-65.5 0 -119.5 31t-120 31t-106 -37q-18 -16 -45 -4l-46 20
q-29 12 -10.5 45t35 54.5t64 47t122 25.5t139 -30.5t87.5 -30.5q61 0 106 41q14 12 33 6l55 -25q28 -11 13 -43q-33 -59 -87.5 -95t-120 -36z" />
    <glyph glyph-name="Adieresis" unicode="&#xc4;" horiz-adv-x="1499" 
d="M643 508h250l-76 231l-6 27zM977 1450q29 0 37 -31l405 -1390q6 -29 -24 -29h-324q-27 0 -37 33l-43 121h-561l-68 -121q-20 -33 -40 -33h-332q-27 0 -37 19.5t2 35.5l836 1375q12 20 30 20h156zM1106 1595q-55 0 -87 41t-24 85t38 69t78 25t79 -41t20 -93
q-16 -86 -104 -86zM795 1595q-55 0 -87 41t-24 85t39 69t79 25t77.5 -41t19.5 -93q-16 -86 -104 -86z" />
    <glyph glyph-name="Aring" unicode="&#xc5;" horiz-adv-x="1499" 
d="M643 508h250l-76 231l-6 27zM977 1450q29 0 37 -31l405 -1390q6 -29 -24 -29h-324q-27 0 -37 33l-43 121h-561l-68 -121q-20 -33 -40 -33h-332q-27 0 -37 19.5t2 35.5l836 1375q12 20 30 20h156zM924 1696q39 0 59.5 24.5t24.5 57t-11.5 57.5t-54.5 25q-68 0 -84 -74
q-6 -35 10.5 -62.5t55.5 -27.5zM906 1534q-99 0 -164.5 73.5t-46.5 184t90 170t173.5 59.5t167 -73.5t45 -184t-92.5 -170t-172 -59.5z" />
    <glyph glyph-name="AE" unicode="&#xc6;" horiz-adv-x="2183" 
d="M727 473h324l82 526zM2208 1434q12 0 22.5 -9.5t7.5 -21.5l-47 -295q-4 -33 -30 -33h-613l-28 -180h395q12 0 21.5 -9t7.5 -24l-50 -291q-4 -33 -30 -32h-402l-30 -181h606q12 0 21 -9t7 -23l-45 -293q-4 -33 -32 -33h-979q-12 0 -21.5 9t-7.5 22l14 86h-546l-60 -86
q-25 -31 -49 -31h-332q-20 0 -30.5 18.5t2.5 36.5l1005 1356q14 23 41 23h1182z" />
    <glyph glyph-name="Ccedilla" unicode="&#xc7;" horiz-adv-x="1488" 
d="M950 1090q-164 0 -284.5 -114t-146.5 -274t50 -259t217 -99q205 0 342 158q10 14 29 14t29 -14l184 -211q29 -33 6 -58q-111 -111 -262 -176t-313 -73l-37 -52q92 -2 128 -56t20.5 -130t-71 -120t-143.5 -44t-136 32t-58 60q0 14 4 21l53 53q16 14 39 -7.5t57 -21.5
q78 0 88 76q6 39 -16 42t-39 -19.5t-49 -14.5l-84 27q-20 6 -10 27l86 139q-260 49 -406.5 258t-101.5 494.5t292 493.5t546 208q178 0 316 -73.5t210 -200.5q18 -29 -10 -58l-203 -176q-14 -12 -38 -10t-34 18q-90 140 -254 140z" />
    <glyph glyph-name="Egrave" unicode="&#xc8;" horiz-adv-x="1280" 
d="M1135 358q12 0 21 -9t7 -23l-45 -293q-4 -33 -33 -33h-979q-12 0 -21 9t-7 22l215 1372q4 31 33 31h979q12 0 22 -9.5t8 -21.5l-47 -295q-4 -33 -31 -33h-612l-29 -180h396q12 0 21 -9t7 -24l-49 -291q-4 -33 -30 -32h-402l-31 -181h607zM1059 1565l-406 104
q-29 8 -20 41l45 152q10 39 51 18l377 -186q20 -10 14 -35l-18 -76q-6 -28 -43 -18z" />
    <glyph glyph-name="Eacute" unicode="&#xc9;" horiz-adv-x="1280" 
d="M1135 358q12 0 21 -9t7 -23l-45 -293q-4 -33 -33 -33h-979q-12 0 -21 9t-7 22l215 1372q4 31 33 31h979q12 0 22 -9.5t8 -21.5l-47 -295q-4 -33 -31 -33h-612l-29 -180h396q12 0 21 -9t7 -24l-49 -291q-4 -33 -30 -32h-402l-31 -181h607zM664 1563q-37 -10 -43 18l-19 76
q-6 25 14 35l377 186q41 20 51 -18l46 -152q8 -33 -21 -41z" />
    <glyph glyph-name="Ecircumflex" unicode="&#xca;" horiz-adv-x="1280" 
d="M1135 358q12 0 21 -9t7 -23l-45 -293q-4 -33 -33 -33h-979q-12 0 -21 9t-7 22l215 1372q4 31 33 31h979q12 0 22 -9.5t8 -21.5l-47 -295q-4 -33 -31 -33h-612l-29 -180h396q12 0 21 -9t7 -24l-49 -291q-4 -33 -30 -32h-402l-31 -181h607zM866 1898h21q12 0 47 -34
l176 -154q12 -12 8 -39l-14 -92q-6 -31 -39 -8l-207 129l-258 -139q-10 -4 -18.5 2t-6.5 18l17 92q4 29 26 45l209 164q25 16 39 16z" />
    <glyph glyph-name="Edieresis" unicode="&#xcb;" horiz-adv-x="1280" 
d="M1135 358q12 0 21 -9t7 -23l-45 -293q-4 -33 -33 -33h-979q-12 0 -21 9t-7 22l215 1372q4 31 33 31h979q12 0 22 -9.5t8 -21.5l-47 -295q-4 -33 -31 -33h-612l-29 -180h396q12 0 21 -9t7 -24l-49 -291q-4 -33 -30 -32h-402l-31 -181h607zM1022 1595q-55 0 -87 41t-24 85
t38 69t78 25t79 -41t20 -93q-16 -86 -104 -86zM711 1595q-55 0 -87 41t-24 85t39 69t79 25t77.5 -41t19.5 -93q-16 -86 -104 -86z" />
    <glyph glyph-name="Igrave" unicode="&#xcc;" horiz-adv-x="681" 
d="M106 0q-12 0 -21 9t-7 22l215 1372q4 31 33 31h340q12 0 21 -9.5t7 -21.5l-215 -1372q-4 -31 -33 -31h-340zM739 1565l-405 104q-29 8 -21 41l45 152q10 39 52 18l376 -186q20 -10 15 -35l-19 -76q-6 -28 -43 -18z" />
    <glyph glyph-name="Iacute" unicode="&#xcd;" horiz-adv-x="681" 
d="M106 0q-12 0 -21 9t-7 22l215 1372q4 31 33 31h340q12 0 21 -9.5t7 -21.5l-215 -1372q-4 -31 -33 -31h-340zM344 1563q-37 -10 -43 18l-18 76q-6 25 14 35l377 186q41 20 51 -18l45 -152q8 -33 -20 -41z" />
    <glyph glyph-name="Icircumflex" unicode="&#xce;" horiz-adv-x="681" 
d="M106 0q-12 0 -21 9t-7 22l215 1372q4 31 33 31h340q12 0 21 -9.5t7 -21.5l-215 -1372q-4 -31 -33 -31h-340zM547 1898h20q12 0 47 -34l177 -154q12 -12 8 -39l-15 -92q-6 -31 -39 -8l-206 129l-258 -139q-10 -4 -18.5 2t-6.5 18l16 92q4 29 27 45l209 164q25 16 39 16z
" />
    <glyph glyph-name="Idieresis" unicode="&#xcf;" horiz-adv-x="681" 
d="M106 0q-12 0 -21 9t-7 22l215 1372q4 31 33 31h340q12 0 21 -9.5t7 -21.5l-215 -1372q-4 -31 -33 -31h-340zM702 1595q-55 0 -86.5 41t-23.5 85t37.5 69t77.5 25t79 -41t21 -93q-17 -86 -105 -86zM391 1595q-55 0 -87 41t-24 85t39 69t79 25t78 -41t20 -93
q-17 -86 -105 -86z" />
    <glyph glyph-name="Eth" unicode="&#xd0;" horiz-adv-x="1472" 
d="M862 1075h-217l-35 -213h146q33 0 26 -31l-37 -233q-6 -31 -30 -31h-152l-35 -209h201q121 0 203.5 98.5t110.5 277.5t-16 260t-165 81zM918 1434q274 0 426.5 -188.5t96.5 -539t-261 -528.5t-478 -178h-596q-12 0 -21 9t-7 22l84 536h-37q-35 0 -25 31l35 233
q6 31 29 31h45l84 541q4 31 33 31h592z" />
    <glyph glyph-name="Ntilde" unicode="&#xd1;" horiz-adv-x="1605" 
d="M1587 1434q14 0 23.5 -9.5t7.5 -21.5l-217 -1370q-4 -33 -31 -33h-278q-35 0 -56 41l-440 698l-117 -706q-4 -33 -33 -33h-337q-12 0 -21.5 9t-7.5 22l213 1372q4 31 33 31h295q25 0 53 -39l430 -672l113 680q4 31 32 31h338zM1081.5 1591q-65.5 0 -120 31t-120 31
t-106.5 -37q-18 -16 -45 -4l-45 20q-29 12 -10.5 45t35 54.5t63.5 47t122 25.5t139.5 -30.5t86.5 -30.5q61 0 107 41q14 12 33 6l55 -25q27 -11 12 -43q-33 -59 -87 -95t-119.5 -36z" />
    <glyph glyph-name="Ograve" unicode="&#xd2;" horiz-adv-x="1636" 
d="M799.5 342q152.5 0 267.5 111.5t140.5 272.5t-49.5 262.5t-227.5 101.5t-268 -113t-142.5 -274t50 -261t229.5 -100zM764 -16q-311 0 -500.5 222t-141.5 526t289.5 511t552 207t499 -222t140.5 -527.5t-288 -511t-551 -205.5zM1190 1565l-406 104q-29 8 -20 41l45 152
q10 39 51 18l377 -186q20 -10 14 -35l-18 -76q-6 -28 -43 -18z" />
    <glyph glyph-name="Oacute" unicode="&#xd3;" horiz-adv-x="1636" 
d="M799.5 342q152.5 0 267.5 111.5t140.5 272.5t-49.5 262.5t-227.5 101.5t-268 -113t-142.5 -274t50 -261t229.5 -100zM764 -16q-311 0 -500.5 222t-141.5 526t289.5 511t552 207t499 -222t140.5 -527.5t-288 -511t-551 -205.5zM795 1563q-37 -10 -43 18l-19 76
q-6 25 15 35l376 186q41 20 52 -18l45 -152q8 -33 -21 -41z" />
    <glyph glyph-name="Ocircumflex" unicode="&#xd4;" horiz-adv-x="1636" 
d="M799.5 342q152.5 0 267.5 111.5t140.5 272.5t-49.5 262.5t-227.5 101.5t-268 -113t-142.5 -274t50 -261t229.5 -100zM764 -16q-311 0 -500.5 222t-141.5 526t289.5 511t552 207t499 -222t140.5 -527.5t-288 -511t-551 -205.5zM997 1898h21q12 0 47 -34l176 -154
q12 -12 8 -39l-14 -92q-6 -31 -39 -8l-207 129l-258 -139q-10 -4 -18 2t-6 18l16 92q4 29 27 45l208 164q25 16 39 16z" />
    <glyph glyph-name="Otilde" unicode="&#xd5;" horiz-adv-x="1636" 
d="M799.5 342q152.5 0 267.5 111.5t140.5 272.5t-49.5 262.5t-227.5 101.5t-268 -113t-142.5 -274t50 -261t229.5 -100zM764 -16q-311 0 -500.5 222t-141.5 526t289.5 511t552 207t499 -222t140.5 -527.5t-288 -511t-551 -205.5zM1099.5 1591q-65.5 0 -119.5 31t-119.5 31
t-106.5 -37q-18 -16 -45 -4l-45 20q-41 18 24 100q17 22 64 47t121.5 25t139 -30.5t87.5 -30.5q61 0 106 41q14 12 33 6l55 -25q28 -11 13 -43q-33 -59 -87.5 -95t-120 -36z" />
    <glyph glyph-name="Odieresis" unicode="&#xd6;" horiz-adv-x="1636" 
d="M799.5 342q152.5 0 267.5 111.5t140.5 272.5t-49.5 262.5t-227.5 101.5t-268 -113t-142.5 -274t50 -261t229.5 -100zM764 -16q-311 0 -500.5 222t-141.5 526t289.5 511t552 207t499 -222t140.5 -527.5t-288 -511t-551 -205.5zM1153 1595q-55 0 -87 41t-24 85t38 69t78 25
t79 -41t20 -93q-16 -86 -104 -86zM842 1595q-55 0 -87 41t-24 85t39 69t79 25t77.5 -41t19.5 -93q-16 -86 -104 -86z" />
    <glyph glyph-name="multiply" unicode="&#xd7;" horiz-adv-x="1046" 
d="M733 586l193 -232q25 -29 -2 -51l-142 -119q-27 -23 -51 6l-190 230l-273 -236q-29 -25 -55 6l-119 142q-23 31 6 55l271 234l-197 229q-23 29 4 53l139 119q27 25 54 -6l192 -230l271 234q31 27 51 -4l123 -144q23 -31 -2 -51z" />
    <glyph glyph-name="Oslash" unicode="&#xd8;" horiz-adv-x="1636" 
d="M786 342q166 0 280.5 111.5t141.5 283.5q23 129 -32 226l-416 -619q8 -2 26 -2zM518 692q-20 -135 41 -233l424 628q-12 2 -39 3q-166 0 -281.5 -113t-144.5 -285zM1440 1450q20 0 30.5 -16.5t-0.5 -32.5l-71 -109q121 -104 176 -262t27 -338q-47 -297 -287 -502.5
t-549 -205.5q-119 0 -223 34l-13 -16q-12 -18 -43 -18h-178q-23 0 -33 18t3 39l61 90q-129 104 -187.5 264t-29.5 342q47 299 288.5 506t551.5 207q125 0 237 -41q23 41 53 41h187z" />
    <glyph glyph-name="Ugrave" unicode="&#xd9;" horiz-adv-x="1456" 
d="M1487 1434q12 0 21.5 -8.5t7.5 -22.5l-125 -754q-33 -206 -129 -363q-56 -91 -131.5 -155.5t-192.5 -105.5t-251 -41t-232.5 30.5t-158.5 81.5q-129 110 -161 278.5t-4 297.5l123 731q0 31 31 31h340q12 0 22 -9.5t8 -21.5l-120 -717q-25 -164 10 -254t155 -90
q240 0 297 367l117 694q4 31 31 31h342zM1135 1565l-406 104q-29 8 -20 41l45 152q10 39 51 18l377 -186q20 -10 14 -35l-18 -76q-6 -28 -43 -18z" />
    <glyph glyph-name="Uacute" unicode="&#xda;" horiz-adv-x="1456" 
d="M1487 1434q12 0 21.5 -8.5t7.5 -22.5l-125 -754q-33 -206 -129 -363q-56 -91 -131.5 -155.5t-192.5 -105.5t-251 -41t-232.5 30.5t-158.5 81.5q-129 110 -161 278.5t-4 297.5l123 731q0 31 31 31h340q12 0 22 -9.5t8 -21.5l-120 -717q-25 -164 10 -254t155 -90
q240 0 297 367l117 694q4 31 31 31h342zM739 1563q-37 -10 -43 18l-18 76q-6 25 14 35l377 186q41 20 51 -18l45 -152q8 -33 -20 -41z" />
    <glyph glyph-name="Ucircumflex" unicode="&#xdb;" horiz-adv-x="1456" 
d="M1487 1434q12 0 21.5 -8.5t7.5 -22.5l-125 -754q-33 -206 -129 -363q-56 -91 -131.5 -155.5t-192.5 -105.5t-251 -41t-232.5 30.5t-158.5 81.5q-129 110 -161 278.5t-4 297.5l123 731q0 31 31 31h340q12 0 22 -9.5t8 -21.5l-120 -717q-25 -164 10 -254t155 -90
q240 0 297 367l117 694q4 31 31 31h342zM942 1898h21q12 0 47 -34l176 -154q12 -12 8 -39l-14 -92q-6 -31 -39 -8l-207 129l-258 -139q-10 -4 -18.5 2t-6.5 18l17 92q4 29 26 45l209 164q25 16 39 16z" />
    <glyph glyph-name="Udieresis" unicode="&#xdc;" horiz-adv-x="1456" 
d="M1487 1434q12 0 21.5 -8.5t7.5 -22.5l-125 -754q-33 -206 -129 -363q-56 -91 -131.5 -155.5t-192.5 -105.5t-251 -41t-232.5 30.5t-158.5 81.5q-129 110 -161 278.5t-4 297.5l123 731q0 31 31 31h340q12 0 22 -9.5t8 -21.5l-120 -717q-25 -164 10 -254t155 -90
q240 0 297 367l117 694q4 31 31 31h342zM1098 1595q-55 0 -87 41t-24 85t38 69t78 25t78.5 -41t20.5 -93q-16 -86 -104 -86zM786 1595q-55 0 -86.5 41t-23.5 85t38.5 69t78.5 25t78 -41t20 -93q-17 -86 -105 -86z" />
    <glyph glyph-name="Yacute" unicode="&#xdd;" horiz-adv-x="1417" 
d="M1473 1434q25 0 36 -18.5t-2 -41.5l-571 -770l-94 -571q-4 -33 -33 -33h-340q-12 0 -21.5 8t-7.5 23l92 573l-319 795q-12 35 27 35h331q35 0 56 -43l159 -396l297 412q18 27 54 27h336zM690 1563q-37 -10 -43 18l-18 76q-6 25 14 35l377 186q41 20 51 -18l45 -152
q8 -33 -20 -41z" />
    <glyph glyph-name="Thorn" unicode="&#xde;" horiz-adv-x="1409" 
d="M866 647q104 0 117 84q6 41 -16.5 68.5t-57.5 27.5h-305l-29 -180h291zM446 0h-337q-14 0 -22.5 9t-6.5 22l213 1370q4 33 33 33h340q12 0 22 -9.5t8 -21.5l-34 -217h403q160 -4 252 -134t60 -331t-159.5 -315.5t-289.5 -116.5h-410l-39 -256q-4 -33 -33 -33z" />
    <glyph glyph-name="germandbls" unicode="&#xdf;" horiz-adv-x="1206" 
d="M1038 720q0 -10 31 -66t50 -147t1 -199t-67 -179q-99 -145 -333 -145q-118 0 -226 65q-43 25 -19 49l74 170q10 25 53 10q42 -16 60 -16q72 -2 87 92t-18 174t-64 146q-32 66 -22 116q11 50 113 154q151 156 90 199q-20 14 -74 14q-98 0 -152 -62t-77 -208l-135 -856
q-4 -31 -33 -31h-318q-12 0 -21 9t-7 22l139 889q51 310 179 420t426 110t407 -81t82 -243q-18 -108 -74 -200t-104 -144t-48 -62z" />
    <glyph glyph-name="agrave" unicode="&#xe0;" horiz-adv-x="1120" 
d="M496 262q66 0 108.5 55.5t52.5 137.5q16 150 -86 149q-61 0 -107 -55t-58 -139q-21 -148 90 -148zM1057 868q14 0 23.5 -8t6.5 -22l-126 -807q-2 -12 -12.5 -21.5t-20.5 -9.5h-211q-20 0 -68 51l-14 4q-96 -72 -229 -71q-213 2 -295 140q-83 138 -51 332t150 310.5
t306 116.5q135 0 225 -78l33 41q20 23 51 22h232zM852 938l-381 219q-20 10 -8 35l88 166q4 10 18.5 13t24.5 -5l336 -311q16 -18 0 -43l-37 -66q-12 -26 -41 -8z" />
    <glyph glyph-name="aacute" unicode="&#xe1;" horiz-adv-x="1120" 
d="M496 262q66 0 108.5 55.5t52.5 137.5q16 150 -86 149q-61 0 -107 -55t-58 -139q-21 -148 90 -148zM1057 868q14 0 23.5 -8t6.5 -22l-126 -807q-2 -12 -12.5 -21.5t-20.5 -9.5h-211q-20 0 -68 51l-14 4q-96 -72 -229 -71q-213 2 -295 140q-83 138 -51 332t150 310.5
t306 116.5q135 0 225 -78l33 41q20 23 51 22h232zM565 938q-29 -18 -41 8l-37 66q-16 25 0 43l336 311q10 8 24.5 5t18.5 -13l88 -166q12 -25 -8 -35z" />
    <glyph glyph-name="acircumflex" unicode="&#xe2;" horiz-adv-x="1120" 
d="M496 262q66 0 108.5 55.5t52.5 137.5q16 150 -86 149q-61 0 -107 -55t-58 -139q-21 -148 90 -148zM1057 868q14 0 23.5 -8t6.5 -22l-126 -807q-2 -12 -12.5 -21.5t-20.5 -9.5h-211q-20 0 -68 51l-14 4q-96 -72 -229 -71q-213 2 -295 140t-50.5 332t149.5 310.5t306 116.5
q135 0 225 -78l33 41q20 23 51 22h232zM702 1331h21q12 0 47 -35l176 -153q12 -12 8 -39l-14 -92q-6 -31 -39 -8l-207 129l-258 -140q-10 -4 -18 2t-6 19l16 92q4 29 27 45l209 164q25 16 38 16z" />
    <glyph glyph-name="atilde" unicode="&#xe3;" horiz-adv-x="1120" 
d="M496 262q66 0 108.5 55.5t52.5 137.5q16 150 -86 149q-61 0 -107 -55t-58 -139q-21 -148 90 -148zM1057 868q14 0 23.5 -8t6.5 -22l-126 -807q-2 -12 -12.5 -21.5t-20.5 -9.5h-211q-20 0 -68 51l-14 4q-96 -72 -229 -71q-213 2 -295 140t-50.5 332t149.5 310.5t306 116.5
q135 0 225 -78l33 41q20 23 51 22h232zM804.5 1024q-65.5 0 -119.5 30.5t-119.5 30.5t-106.5 -36q-18 -16 -45 -5l-45 21q-41 17 24 99q17 22 64 47.5t121.5 25.5t139 -30.5t87.5 -30.5q61 0 106 41q14 12 33 6l55 -25q29 -12 13 -43q-33 -59 -87.5 -95t-120 -36z" />
    <glyph glyph-name="adieresis" unicode="&#xe4;" horiz-adv-x="1120" 
d="M496 262q66 0 108.5 55.5t52.5 137.5q16 150 -86 149q-61 0 -107 -55t-58 -139q-21 -148 90 -148zM1057 868q14 0 23.5 -8t6.5 -22l-126 -807q-2 -12 -12.5 -21.5t-20.5 -9.5h-211q-20 0 -68 51l-14 4q-96 -72 -229 -71q-213 2 -295 140q-83 138 -51 332t150 310.5
t306 116.5q135 0 225 -78l33 41q20 23 51 22h232zM858 1028q-55 0 -87 41q-31 41 -23 85t37.5 68.5t77.5 24.5t79 -41t21 -92q-17 -86 -105 -86zM547 1028q-55 0 -87 41t-24 85t39 68.5t79 24.5t78 -41t19 -92q-16 -86 -104 -86z" />
    <glyph glyph-name="aring" unicode="&#xe5;" horiz-adv-x="1120" 
d="M496 262q66 0 108.5 55.5t52.5 137.5q16 150 -86 149q-61 0 -107 -55t-58 -139q-21 -148 90 -148zM1057 868q14 0 23.5 -8t6.5 -22l-126 -807q-2 -12 -12.5 -21.5t-20.5 -9.5h-211q-20 0 -68 51l-14 4q-96 -72 -229 -71q-213 2 -295 140t-50.5 332t149.5 310.5t306 116.5
q135 0 225 -78l33 41q20 23 51 22h232zM676 1128q39 0 59.5 25t24.5 57.5t-11.5 57t-54.5 24.5q-68 0 -84 -73q-6 -35 10.5 -63t55.5 -28zM659 967q-99 0 -165 73.5t-46.5 184t90 170t173 59.5t167 -73.5t45.5 -184t-92 -170t-172 -59.5z" />
    <glyph glyph-name="ae" unicode="&#xe6;" horiz-adv-x="1564" 
d="M444.5 193q34.5 0 67.5 25.5t39 68.5q14 76 -57 75q-55 0 -83 -33.5t-32 -64.5t13.5 -51t52 -20zM1093 651q-46 0 -82 -33.5t-46 -70.5h206q4 35 -14 69.5t-64 34.5zM1124 883q219 0 310.5 -143.5t60.5 -401.5q-2 -12 -11 -22.5t-20 -10.5h-540q14 -39 47 -52t112.5 -13
t171.5 39q14 6 31 0.5t19 -17.5l65 -172q8 -33 -23.5 -51.5t-133 -36.5t-189.5 -18q-184 0 -309 98q-129 -98 -342.5 -98t-287 87t-55.5 213q37 253 369 253q119 0 187 -23l8 49q4 39 -15.5 49.5t-105.5 10.5t-188 -25q-20 -6 -36 9.5t-16 29.5v164q0 33 29 43
q100 39 297 39t264 -78q133 78 301 78z" />
    <glyph glyph-name="ccedilla" unicode="&#xe7;" horiz-adv-x="995" 
d="M585 604q-73 0 -121 -48t-58 -130q-20 -164 116 -164q78 0 138 60q14 14 16 14q25 25 51 -4l135 -152q16 -25 2 -45q-25 -39 -129 -90t-233 -59l-37 -54q92 -2 128 -56t20.5 -130t-71 -120t-143.5 -44t-136 32t-58 60q0 14 4 21l53 53q16 14 39 -7.5t57 -21.5q78 0 88 76
q6 39 -16 42t-39 -19.5t-49 -14.5l-84 27q-20 6 -10 27l88 141q-156 39 -230.5 164t-44 302t170 298t331.5 121q244 0 361 -168q14 -25 -6 -41l-158 -135q-23 -16 -41 8q-61 57 -134 57z" />
    <glyph glyph-name="egrave" unicode="&#xe8;" horiz-adv-x="1040" 
d="M568 651q-46 0 -81.5 -33.5t-46.5 -70.5h207q4 35 -14.5 69.5t-64.5 34.5zM600 883q219 0 310 -143.5t61 -401.5q-2 -12 -11.5 -22.5t-19.5 -10.5h-541q14 -39 47 -52t113 -13t172 39q14 6 30.5 0.5t18.5 -17.5l66 -172q8 -33 -24 -51.5t-133 -36.5t-189 -18
q-221 0 -346 133t-97.5 327.5t176 316.5t367.5 122zM784 938l-381 219q-20 10 -8 35l88 166q4 10 18.5 13t24.5 -5l336 -311q14 -18 0 -43l-37 -66q-12 -26 -41 -8z" />
    <glyph glyph-name="eacute" unicode="&#xe9;" horiz-adv-x="1040" 
d="M568 651q-46 0 -81.5 -33.5t-46.5 -70.5h207q4 35 -14.5 69.5t-64.5 34.5zM600 883q219 0 310 -143.5t61 -401.5q-2 -12 -11.5 -22.5t-19.5 -10.5h-541q14 -39 47 -52t113 -13t172 39q14 6 30.5 0.5t18.5 -17.5l66 -172q8 -33 -24 -51.5t-133 -36.5t-189 -18
q-221 0 -346 133t-97.5 327.5t176 316.5t367.5 122zM498 938q-29 -18 -41 8l-37 66q-14 25 0 43l336 311q10 8 24.5 5t18.5 -13l88 -166q12 -25 -8 -35z" />
    <glyph glyph-name="ecircumflex" unicode="&#xea;" horiz-adv-x="1040" 
d="M568 651q-46 0 -81.5 -33.5t-46.5 -70.5h207q4 35 -14.5 69.5t-64.5 34.5zM600 883q219 0 310 -143.5t61 -401.5q-2 -12 -11.5 -22.5t-19.5 -10.5h-541q14 -39 47 -52t113 -13t172 39q14 6 30.5 0.5t18.5 -17.5l66 -172q8 -33 -24 -51.5t-133 -36.5t-189 -18
q-221 0 -346 133t-97.5 327.5t176 316.5t367.5 122zM635 1331h20q12 0 47 -35l177 -153q12 -12 8 -39l-15 -92q-6 -31 -38 -8l-207 129l-258 -140q-10 -4 -18.5 2t-6.5 19l16 92q4 29 27 45l209 164q25 16 39 16z" />
    <glyph glyph-name="edieresis" unicode="&#xeb;" horiz-adv-x="1040" 
d="M568 651q-46 0 -81.5 -33.5t-46.5 -70.5h207q4 35 -14.5 69.5t-64.5 34.5zM600 883q219 0 310 -143.5t61 -401.5q-2 -12 -11.5 -22.5t-19.5 -10.5h-541q14 -39 47 -52t113 -13t172 39q14 6 30.5 0.5t18.5 -17.5l66 -172q8 -33 -24 -51.5t-133 -36.5t-189 -18
q-221 0 -346 133t-97.5 327.5t176 316.5t367.5 122zM791 1028q-55 0 -87 41t-24 85t38 68.5t77.5 24.5t78.5 -41t21 -92q-16 -86 -104 -86zM479 1028q-55 0 -87 41t-23.5 85t39 68.5t78.5 24.5t78 -41t20 -92q-17 -86 -105 -86z" />
    <glyph glyph-name="igrave" unicode="&#xec;" horiz-adv-x="571" 
d="M66 0q-14 0 -23.5 9t-7.5 22l125 805q4 31 30 30h320q12 0 21.5 -9t7.5 -21l-127 -805q-4 -31 -31 -31h-315zM555 936l-381 219q-20 10 -8 35l88 166q4 10 18.5 13t24.5 -5l336 -311q14 -18 0 -43l-37 -66q-12 -26 -41 -8z" />
    <glyph glyph-name="iacute" unicode="&#xed;" horiz-adv-x="571" 
d="M66 0q-14 0 -23.5 9t-7.5 22l125 805q4 31 30 30h320q12 0 21.5 -9t7.5 -21l-127 -805q-4 -31 -31 -31h-315zM268 936q-29 -18 -41 8l-37 66q-14 25 0 43l336 311q10 8 24.5 5t18.5 -13l88 -166q12 -25 -8 -35z" />
    <glyph glyph-name="icircumflex" unicode="&#xee;" horiz-adv-x="571" 
d="M66 0q-14 0 -23.5 9t-7.5 22l125 805q4 31 30 30h320q12 0 21.5 -9t7.5 -21l-127 -805q-4 -31 -31 -31h-315zM406 1329h20q12 0 47 -35l176 -153q12 -12 8 -39l-14 -92q-6 -31 -39 -9l-207 129l-258 -139q-10 -4 -18 2t-6 19l16 92q4 29 27 45l209 164q25 16 39 16z" />
    <glyph glyph-name="idieresis" unicode="&#xef;" horiz-adv-x="571" 
d="M66 0q-14 0 -23.5 9t-7.5 22l125 805q4 31 30 30h320q12 0 21.5 -9t7.5 -21l-127 -805q-4 -31 -31 -31h-315zM561 1026q-55 0 -87 41t-24 85t38 68.5t78 24.5t79 -41t21 -92q-17 -86 -105 -86zM250 1026q-55 0 -87 41t-24 85t39 68.5t79 24.5t78 -41t19 -92
q-16 -86 -104 -86z" />
    <glyph glyph-name="eth" unicode="&#xf0;" horiz-adv-x="1110" 
d="M627 598q-57 0 -106.5 -47t-63.5 -143q-23 -145 80 -146q53 0 102 45.5t63 145.5q25 145 -75 145zM539 -16q-213 0 -338 139t-93 324.5t185 310.5t342 125q10 0 28.5 9t26.5 11q-12 68 -86 148l-117 -107q-27 -23 -45 0l-86 84q-27 27 4 49l105 97l-37 24q-31 14 -12 43
l129 195q14 23 51 8q37 -6 109 -53l45 43q29 27 53 -2l76 -78q23 -31 2 -51l-33 -31q295 -303 231 -735q-41 -272 -184 -412.5t-356 -140.5z" />
    <glyph glyph-name="ntilde" unicode="&#xf1;" horiz-adv-x="1206" 
d="M784 883q195 0 277 -120t53 -292l-67 -440q-4 -31 -33 -31h-318q-12 0 -21 9t-7 22l71 458q8 45 -17.5 80t-80.5 35t-105.5 -47t-58.5 -100l-65 -426q-4 -31 -31 -31h-320q-12 0 -21 9t-7 22l127 807q4 31 30 30h283q20 0 33 -28l20 -56q104 99 258 99zM827.5 1024
q-65.5 0 -120 30.5t-120 30.5t-106.5 -36q-18 -16 -45 -5l-45 21q-29 12 -10.5 45t35 54.5t63.5 47t122 25.5t139.5 -30.5t86.5 -30.5q61 0 107 41q14 12 33 6l55 -25q28 -11 12 -43q-33 -59 -87 -95t-119.5 -36z" />
    <glyph glyph-name="ograve" unicode="&#xf2;" horiz-adv-x="1042" 
d="M496 262q49 0 93 45t58 137.5t-17.5 126t-81.5 33.5t-95 -50t-58.5 -139t19.5 -121t82 -32zM462 -16q-206 0 -325 138t-89 326.5t179.5 311.5t354 123t326.5 -137.5t88 -327.5t-181 -312t-353 -122zM770 938l-381 219q-20 10 -8 35l88 166q4 10 18.5 13t24.5 -5l336 -311
q16 -18 0 -43l-37 -66q-12 -26 -41 -8z" />
    <glyph glyph-name="oacute" unicode="&#xf3;" horiz-adv-x="1042" 
d="M496 262q49 0 93 45t58 137.5t-17.5 126t-81.5 33.5t-95 -50t-58.5 -139t19.5 -121t82 -32zM462 -16q-206 0 -325 138t-89 326.5t179.5 311.5t354 123t326.5 -137.5t88 -327.5t-181 -312t-353 -122zM483 938q-29 -18 -41 8l-36 66q-16 25 0 43l335 311q10 8 24.5 5
t18.5 -13l88 -166q12 -25 -8 -35z" />
    <glyph glyph-name="ocircumflex" unicode="&#xf4;" horiz-adv-x="1042" 
d="M496 262q49 0 93 45t58 137.5t-17.5 126t-81.5 33.5t-95 -50t-58.5 -139t19.5 -121t82 -32zM462 -16q-206 0 -325 138t-89 326.5t179.5 311.5t354 123t326.5 -137.5t88 -327.5t-181 -312t-353 -122zM621 1331h20q12 0 47 -35l176 -153q12 -12 8 -39l-14 -92
q-6 -31 -39 -8l-207 129l-258 -140q-10 -4 -18 2t-6 19l16 92q4 29 27 45l209 164q25 16 39 16z" />
    <glyph glyph-name="otilde" unicode="&#xf5;" horiz-adv-x="1042" 
d="M496 262q49 0 93 45t58 137.5t-17.5 126t-81.5 33.5t-95 -50t-58.5 -139t19.5 -121t82 -32zM462 -16q-206 0 -325 138t-89 326.5t179.5 311.5t354 123t326.5 -137.5t88 -327.5t-181 -312t-353 -122zM722.5 1024q-65.5 0 -119.5 30.5t-119.5 30.5t-106.5 -36
q-18 -16 -45 -5l-45 21q-41 17 24 99q17 22 64 47.5t121.5 25.5t139 -30.5t87.5 -30.5q61 0 106 41q14 12 33 6l56 -25q28 -11 12 -43q-33 -59 -87.5 -95t-120 -36z" />
    <glyph glyph-name="odieresis" unicode="&#xf6;" horiz-adv-x="1042" 
d="M496 262q49 0 93 45t58 137.5t-17.5 126t-81.5 33.5t-95 -50t-58.5 -139t19.5 -121t82 -32zM462 -16q-206 0 -325 138t-89 326.5t179.5 311.5t354 123t326.5 -137.5t88 -327.5t-181 -312t-353 -122zM776 1028q-55 0 -87 41t-23.5 85t38 68.5t77.5 24.5t79 -41t21 -92
q-17 -86 -105 -86zM465 1028q-55 0 -87 41t-24 85t39 68.5t79 24.5t78 -41t19 -92q-16 -86 -104 -86z" />
    <glyph glyph-name="divide" unicode="&#xf7;" horiz-adv-x="1181" 
d="M566 399q68 0 112 -53q43 -54 33 -122q-9 -68 -59 -111t-120 -43t-114 54q-45 54 -34 122t62 111q52 42 120 42zM150 571q-12 -1 -22 9t-9 22l33 197q4 31 32 30h932q12 0 22 -9t7 -21l-33 -197q-4 -31 -31 -31h-931zM714 1331q68 0 112 -53q42 -54 32 -122t-59 -112
t-119 -43t-115 55t-30 130q8 61 59 103q52 42 120 42z" />
    <glyph glyph-name="oslash" unicode="&#xf8;" horiz-adv-x="1042" 
d="M492 262q53 0 97 45.5t55 119t5 103.5l-180 -266q8 -2 23 -2zM553 604q-55 0 -100.5 -50t-56.5 -123.5t3 -111.5l189 279q-18 6 -35 6zM469 -16q-90 0 -170 28l-6 -10q-12 -18 -43 -18h-35q-12 0 -20.5 8t-1.5 20l26 39q-98 63 -144 170t-26 234q29 182 178.5 305
t347.5 123q94 0 181 -33l10 14q12 18 43 19h41q12 0 18 -9.5t-2 -19.5l-30 -45q94 -63 137 -168.5t22 -230.5q-33 -182 -180 -304t-346 -122z" />
    <glyph glyph-name="ugrave" unicode="&#xf9;" horiz-adv-x="1169" 
d="M1106 866q14 0 23.5 -9t7.5 -21l-127 -803q-2 -12 -11.5 -22.5t-21.5 -10.5h-236q-23 0 -49 31l-51 57q-35 -45 -102.5 -74.5t-128.5 -29.5q-184 0 -267.5 105.5t-54.5 289.5l72 457q4 31 30 30h320q12 0 21.5 -9t7.5 -21l-74 -465q-14 -111 79 -111q48 0 91 41t53 96
l70 439q4 31 30 30h318zM842 938l-381 219q-20 10 -8 35l88 166q4 10 18 13t25 -5l336 -311q14 -18 0 -43l-37 -66q-12 -26 -41 -8z" />
    <glyph glyph-name="uacute" unicode="&#xfa;" horiz-adv-x="1169" 
d="M1106 866q14 0 23.5 -9t7.5 -21l-127 -803q-2 -12 -11.5 -22.5t-21.5 -10.5h-236q-23 0 -49 31l-51 57q-35 -45 -102.5 -74.5t-128.5 -29.5q-184 0 -267.5 105.5t-54.5 289.5l72 457q4 31 30 30h320q12 0 21.5 -9t7.5 -21l-74 -465q-14 -111 79 -111q48 0 91 41t53 96
l70 439q4 31 30 30h318zM555 938q-29 -18 -41 8l-37 66q-14 25 0 43l336 311q10 8 24.5 5t18.5 -13l88 -166q12 -25 -8 -35z" />
    <glyph glyph-name="ucircumflex" unicode="&#xfb;" horiz-adv-x="1169" 
d="M1106 866q14 0 23.5 -9t7.5 -21l-127 -803q-2 -12 -11.5 -22.5t-21.5 -10.5h-236q-23 0 -49 31l-51 57q-35 -45 -102.5 -74.5t-128.5 -29.5q-184 0 -267.5 105.5t-54.5 289.5l72 457q4 31 30 30h320q12 0 21.5 -9t7.5 -21l-74 -465q-14 -111 79 -111q48 0 91 41t53 96
l70 439q4 31 30 30h318zM692 1331h21q12 0 47 -35l176 -153q12 -12 8 -39l-14 -92q-6 -31 -39 -8l-207 129l-258 -140q-10 -4 -18.5 2t-6.5 19l17 92q4 29 26 45l209 164q25 16 39 16z" />
    <glyph glyph-name="udieresis" unicode="&#xfc;" horiz-adv-x="1169" 
d="M1106 866q14 0 23.5 -9t7.5 -21l-127 -803q-2 -12 -11.5 -22.5t-21.5 -10.5h-236q-23 0 -49 31l-51 57q-35 -45 -102.5 -74.5t-128.5 -29.5q-184 0 -267.5 105.5t-54.5 289.5l72 457q4 31 30 30h320q12 0 21.5 -9t7.5 -21l-74 -465q-14 -111 79 -111q48 0 91 41t53 96
l70 439q4 31 30 30h318zM848 1028q-55 0 -87 41t-24 85t38 68.5t78 24.5t79 -41t20 -92q-16 -86 -104 -86zM537 1028q-55 0 -87 41t-24 85t39 68.5t79 24.5t77.5 -41t19.5 -92q-16 -86 -104 -86z" />
    <glyph glyph-name="yacute" unicode="&#xfd;" horiz-adv-x="1210" 
d="M1202 866q14 0 21.5 -11t-0.5 -21l-797 -1199q-18 -33 -37 -32h-330q-14 0 -20 13t0 24l328 475l-250 723q-10 29 24 28h295q27 0 31 -30l129 -367l240 365q20 33 34 32h332zM563 938q-29 -18 -41 8l-37 66q-14 25 0 43l336 311q10 8 24.5 5t18.5 -13l88 -166
q12 -25 -8 -35z" />
    <glyph glyph-name="thorn" unicode="&#xfe;" horiz-adv-x="1118" 
d="M532 262q68 0 117 55t61 129q24 153 -92 152q-66 0 -108 -54t-55 -136q-23 -146 77 -146zM698 883q144 0 234 -72q173 -137 127 -403q-31 -186 -154 -306t-311 -118q-80 0 -174 32l-68 -385q-4 -33 -30 -32h-320q-12 0 -21 9t-8 21l252 1608q4 31 31 31h319q13 0 23 -10
t8 -21l-69 -375q73 21 161 21z" />
    <glyph glyph-name="ydieresis" unicode="&#xff;" horiz-adv-x="1210" 
d="M1202 866q14 0 21.5 -11t-0.5 -21l-797 -1199q-18 -33 -37 -32h-330q-14 0 -20 13t0 24l328 475l-250 723q-10 29 24 28h295q27 0 31 -30l129 -367l240 365q20 33 34 32h332zM856 1028q-55 0 -87 41q-31 41 -23 85t37.5 68.5t77.5 24.5t79 -41t21 -92q-17 -86 -105 -86z
M545 1028q-55 0 -87 41t-24 85t39 68.5t79 24.5t77.5 -41t19.5 -92q-16 -86 -104 -86z" />
    <glyph glyph-name="Amacron" unicode="&#x100;" horiz-adv-x="1499" 
d="M643 508h250l-76 231l-6 27zM977 1450q29 0 37 -31l405 -1390q6 -29 -24 -29h-324q-27 0 -37 33l-43 121h-561l-68 -121q-20 -33 -40 -33h-332q-27 0 -37 19.5t2 35.5l836 1375q12 20 30 20h156zM729 1599q-12 0 -20.5 9.5t-6.5 21.5l25 133q0 12 9 21.5t20 9.5h413
q12 0 21.5 -9t7.5 -20l-20 -135q-4 -31 -31 -31h-418z" />
    <glyph glyph-name="amacron" unicode="&#x101;" horiz-adv-x="1120" 
d="M496 262q66 0 108.5 55.5t52.5 137.5q16 150 -86 149q-61 0 -107 -55t-58 -139q-21 -148 90 -148zM1057 868q14 0 23.5 -8t6.5 -22l-126 -807q-2 -12 -12.5 -21.5t-20.5 -9.5h-211q-20 0 -68 51l-14 4q-96 -72 -229 -71q-213 2 -295 140q-83 138 -51 332t150 310.5
t306 116.5q135 0 225 -78l33 41q20 23 51 22h232zM481 1032q-12 0 -20 9.5t-6 21.5l24 133q0 12 9.5 21.5t19.5 9.5h414q12 0 21 -9.5t7 -19.5l-20 -135q-4 -31 -31 -31h-418z" />
    <glyph glyph-name="Abreve" unicode="&#x102;" horiz-adv-x="1499" 
d="M643 508h250l-76 231l-6 27zM977 1450q29 0 37 -31l405 -1390q6 -29 -24 -29h-324q-27 0 -37 33l-43 121h-561l-68 -121q-20 -33 -40 -33h-332q-27 0 -37 19.5t2 35.5l836 1375q12 20 30 20h156zM939.5 1567q-111.5 0 -185.5 66.5t-97 152.5q-8 23 15 33l106 43
q25 8 39 -17q53 -82 135 -82q111 0 172 88q14 18 35 7l103 -64q18 -10 8 -35q-37 -74 -128 -133t-202.5 -59z" />
    <glyph glyph-name="abreve" unicode="&#x103;" horiz-adv-x="1120" 
d="M496 262q66 0 108.5 55.5t52.5 137.5q16 150 -86 149q-61 0 -107 -55t-58 -139q-21 -148 90 -148zM1057 868q14 0 23.5 -8t6.5 -22l-126 -807q-2 -12 -12.5 -21.5t-20.5 -9.5h-211q-20 0 -68 51l-14 4q-96 -72 -229 -71q-213 2 -295 140t-50.5 332t149.5 310.5t306 116.5
q135 0 225 -78l33 41q20 23 51 22h232zM691.5 999q-111.5 0 -185.5 67t-96 153q-8 23 14 32l106 43q25 8 39 -16q53 -82 136 -82q111 0 172 88q14 18 34 6l103 -63q18 -10 8 -35q-37 -74 -128 -133.5t-202.5 -59.5z" />
    <glyph glyph-name="Aogonek" unicode="&#x104;" horiz-adv-x="1499" 
d="M643 508h250l-76 231l-6 27zM1395 0h-82q-43 -43 -65.5 -66.5t-47 -69.5t-32 -95t29.5 -50q53 0 98 39q23 18 39 -2l35 -39q14 -16 2 -39q-25 -29 -38 -43t-63 -39.5t-123 -25.5t-129 51t-42 152q12 68 61 128t113 99h-80q-27 0 -37 33l-43 121h-561l-68 -121
q-20 -33 -40 -33h-332q-27 0 -37 19.5t2 35.5l836 1375q12 20 30 20h156q29 0 37 -31l405 -1390q6 -29 -24 -29z" />
    <glyph glyph-name="aogonek" unicode="&#x105;" horiz-adv-x="1120" 
d="M657 455q16 150 -86 149q-61 0 -107 -55t-58 -139q-20 -147 90 -148q66 0 108.5 55.5t52.5 137.5zM775.5 -430q-72.5 0 -129 51t-42.5 152q12 68 61.5 128t112.5 99h-61q-20 0 -68 51l-14 4q-96 -72 -229 -71q-213 2 -295 140t-50.5 332t149.5 310.5t306 116.5
q135 0 225 -78l33 41q20 23 51 22h232q14 0 23 -8t7 -22l-126 -807q0 -6 -9 -19l-72 -72q-20 -20 -48.5 -70t-35.5 -100t29 -51q53 0 99 39q23 18 39 -2l34 -39q14 -16 2 -39q-25 -29 -38 -43t-63 -39.5t-122.5 -25.5z" />
    <glyph glyph-name="Cacute" unicode="&#x106;" horiz-adv-x="1488" 
d="M766 -16q-313 0 -502.5 222t-141.5 525t295 511t546 208q178 0 316 -73.5t210 -200.5q18 -29 -10 -58l-203 -176q-14 -12 -38 -10t-34 18q-90 140 -254 140t-284.5 -114t-146.5 -274t50 -259t217 -99q205 0 342 158q10 14 29 14t29 -14l184 -211q29 -33 6 -58
q-117 -117 -278.5 -183t-331.5 -66zM803 1563q-37 -10 -43 18l-19 76q-6 25 15 35l377 186q41 20 51 -18l45 -152q8 -33 -21 -41z" />
    <glyph glyph-name="cacute" unicode="&#x107;" horiz-adv-x="995" 
d="M461 -16q-213 0 -323.5 135t-78 328.5t172 314.5t331.5 121q244 0 361 -168q14 -25 -6 -41l-158 -135q-23 -16 -41 8q-61 57 -134 57t-121 -48t-58 -130q-20 -164 116 -164q78 0 138 60q14 14 16 14q25 25 51 -4l135 -152q16 -25 2 -45q-29 -43 -145.5 -97t-257.5 -54z
M477 938q-29 -18 -41 8l-37 66q-14 25 0 43l336 311q10 8 24.5 5t18.5 -13l88 -166q12 -25 -8 -35z" />
    <glyph glyph-name="Cdotaccent" unicode="&#x10a;" horiz-adv-x="1488" 
d="M766 -16q-313 0 -502.5 222t-141.5 525t295 511t546 208q178 0 316 -73.5t210 -200.5q18 -29 -10 -58l-203 -176q-14 -12 -38 -10t-34 18q-90 139 -254 139.5t-284.5 -113.5t-146.5 -274t50 -259t217 -99q205 0 342 158q10 14 29 14t29 -14l184 -211q29 -33 6 -58
q-117 -117 -278.5 -183t-331.5 -66zM986 1567q-56 0 -96 48t-30 104t50 88t97 32t96.5 -48t29 -105.5t-50.5 -88t-96 -30.5z" />
    <glyph glyph-name="cdotaccent" unicode="&#x10b;" horiz-adv-x="995" 
d="M461 -16q-213 0 -323.5 135t-78 328.5t172 314.5t331.5 121q244 0 361 -168q14 -25 -6 -41l-158 -135q-23 -16 -41 8q-61 57 -134 57t-121 -48t-58 -130q-20 -164 116 -164q78 0 138 60q14 14 16 14q25 25 51 -4l135 -152q16 -25 2 -45q-29 -43 -145.5 -97t-257.5 -54z
M595 999q-56 0 -96 48.5t-30 104.5t50 88t97 32t96.5 -48t29 -105.5t-50.5 -88.5t-96 -31z" />
    <glyph glyph-name="Ccaron" unicode="&#x10c;" horiz-adv-x="1488" 
d="M766 -16q-313 0 -502.5 222t-141.5 525t295 511t546 208q178 0 316 -73.5t210 -200.5q18 -29 -10 -58l-203 -176q-14 -12 -38 -10t-34 18q-90 139 -254 139.5t-284.5 -113.5t-146.5 -274t50 -259t217 -99q205 0 342 158q10 14 29 14t29 -14l184 -211q29 -33 6 -58
q-117 -117 -278.5 -183t-331.5 -66zM995 1559h-22q-16 0 -47 34l-152 170q-23 27 -20 56l8 61q4 33 51 4l186 -143l244 149q20 12 31.5 2t7.5 -30l-10 -50q-6 -37 -23 -49l-217 -188q-18 -16 -37 -16z" />
    <glyph glyph-name="ccaron" unicode="&#x10d;" horiz-adv-x="995" 
d="M461 -16q-213 0 -323.5 135t-78 328.5t172 314.5t331.5 121q244 0 361 -168q14 -25 -6 -41l-158 -135q-23 -16 -41 8q-61 57 -134 57t-121 -48t-58 -130q-20 -164 116 -164q78 0 138 60q14 14 16 14q25 25 51 -4l135 -152q16 -25 2 -45q-29 -43 -145.5 -97t-257.5 -54z
M582 991q-16 0 -47 35l-152 170q-23 27 -21 55l9 62q4 33 51 4l186 -143l244 149q20 12 31.5 2t7.5 -31l-10 -49q-6 -37 -23 -49l-217 -188q-18 -16 -37 -17h-22z" />
    <glyph glyph-name="Dcaron" unicode="&#x10e;" horiz-adv-x="1472" 
d="M729 358q121 0 204 98.5t110.5 277.5t-16.5 260t-165 81h-217l-117 -717h201zM702 0h-596q-12 0 -21 9t-7 22l215 1372q4 31 33 31h592q274 0 426.5 -188.5t96.5 -539t-261 -528.5t-478 -178zM858 1559h-22q-16 0 -48 34l-151 170q-23 27 -21 56l9 61q4 33 51 4l186 -143
l244 149q20 12 31.5 2t7.5 -30l-10 -50q-6 -37 -23 -49l-217 -188q-18 -16 -37 -16z" />
    <glyph glyph-name="dcaron" unicode="&#x10f;" horiz-adv-x="1495" 
d="M494 262q63 0 106 48t57 130q25 164 -86 164q-66 0 -109.5 -56t-55.5 -134q-25 -152 88 -152zM1358 1434h260q35 0 29 -31q-14 -68 -39 -250q-20 -127 -122 -231.5t-245 -173.5q-20 -12 -31 12q-8 23 11 33q219 125 249 323l-151 55q-33 12 -29 35l31 197q2 31 37 31z
M1141 1450q12 0 22.5 -9t7.5 -22l-219 -1388q-4 -31 -32 -31h-175q-20 0 -45 20l-41 37q-100 -74 -247 -73q-217 0 -300 137t-52.5 332t149.5 312.5t309 117.5q100 0 187 -35l88 571q4 31 30 31h318z" />
    <glyph glyph-name="Dcroat" unicode="&#x110;" horiz-adv-x="1472" 
d="M862 1075h-217l-35 -213h146q33 0 26 -31l-37 -233q-6 -31 -30 -31h-152l-35 -209h201q121 0 203.5 98.5t110.5 277.5t-16 260t-165 81zM918 1434q274 0 426.5 -188.5t96.5 -539t-261 -528.5t-478 -178h-596q-12 0 -21 9t-7 22l84 536h-37q-35 0 -25 31l35 233
q6 31 29 31h45l84 541q4 31 33 31h592z" />
    <glyph glyph-name="dcroat" unicode="&#x111;" horiz-adv-x="1196" 
d="M571 604q-66 0 -109.5 -56t-55.5 -134q-25 -152 88 -152q63 0 106 48t57 130q25 164 -86 164zM1257 1282q12 0 21.5 -10t7.5 -21l-26 -159q-4 -31 -29 -31h-117l-162 -1030q-4 -31 -32 -31h-175q-20 0 -45 20l-41 37q-100 -74 -247 -73q-217 0 -300 137t-52.5 332
t149.5 312.5t309 117.5q100 0 187 -35l32 213h-121q-12 0 -21 9t-7 22l24 157q4 33 31 33h129l21 137q4 31 30 31h318q12 0 22.5 -9t7.5 -22l-22 -137h108z" />
    <glyph glyph-name="Emacron" unicode="&#x112;" horiz-adv-x="1280" 
d="M1135 358q12 0 21 -9t7 -23l-45 -293q-4 -33 -33 -33h-979q-12 0 -21 9t-7 22l215 1372q4 31 33 31h979q12 0 22 -9.5t8 -21.5l-47 -295q-4 -33 -31 -33h-612l-29 -180h396q12 0 21 -9t7 -24l-49 -291q-4 -33 -30 -32h-402l-31 -181h607zM645 1599q-12 0 -20.5 9.5
t-6.5 21.5l25 133q0 12 9.5 21.5t19.5 9.5h413q12 0 21.5 -9t7.5 -20l-20 -135q-4 -31 -31 -31h-418z" />
    <glyph glyph-name="emacron" unicode="&#x113;" horiz-adv-x="1040" 
d="M568 651q-46 0 -81.5 -33.5t-46.5 -70.5h207q4 35 -14.5 69.5t-64.5 34.5zM600 883q219 0 310 -143.5t61 -401.5q-2 -12 -11.5 -22.5t-19.5 -10.5h-541q14 -39 47 -52t113 -13t172 39q14 6 30.5 0.5t18.5 -17.5l66 -172q8 -33 -24 -51.5t-133 -36.5t-189 -18
q-221 0 -346 133t-97.5 327.5t176 316.5t367.5 122zM414 1032q-12 0 -20.5 9.5t-6.5 21.5l25 133q0 12 9 21.5t19 9.5h414q12 0 21.5 -9.5t7.5 -19.5l-21 -135q-4 -31 -31 -31h-417z" />
    <glyph glyph-name="Edotaccent" unicode="&#x116;" horiz-adv-x="1280" 
d="M1135 358q12 0 21 -9t7 -23l-45 -293q-4 -33 -33 -33h-979q-12 0 -21 9t-7 22l215 1372q4 31 33 31h979q12 0 22 -9.5t8 -21.5l-47 -295q-4 -33 -31 -33h-612l-29 -180h396q12 0 21 -9t7 -24l-49 -291q-4 -33 -30 -32h-402l-31 -181h607zM847 1567q-56 0 -96 48t-30 104
t50 88t97 32t96.5 -48t29 -105.5t-50.5 -88t-96 -30.5z" />
    <glyph glyph-name="edotaccent" unicode="&#x117;" horiz-adv-x="1040" 
d="M568 651q-46 0 -81.5 -33.5t-46.5 -70.5h207q4 35 -14.5 69.5t-64.5 34.5zM600 883q219 0 310 -143.5t61 -401.5q-2 -12 -11.5 -22.5t-19.5 -10.5h-541q14 -39 47 -52t113 -13t172 39q14 6 30.5 0.5t18.5 -17.5l66 -172q8 -33 -24 -51.5t-133 -36.5t-189 -18
q-221 0 -346 133t-97.5 327.5t176 316.5t367.5 122zM616 999q-56 0 -96.5 48.5t-30 104.5t50.5 88t97 32t96 -48t29 -105.5t-50 -88.5t-96 -31z" />
    <glyph glyph-name="Eogonek" unicode="&#x118;" horiz-adv-x="1280" 
d="M1305 1434q12 0 22 -9.5t8 -21.5l-47 -295q-4 -33 -31 -33h-612l-29 -180h396q12 0 21 -9t7 -24l-49 -291q-4 -33 -30 -32h-402l-31 -181h607q12 0 21 -9t7 -23l-45 -293q-4 -33 -33 -33h-69q-43 -43 -65.5 -66.5t-46.5 -69.5t-32 -95t29 -50q53 0 98 39q23 18 39 -2
l35 -39q14 -16 2 -39q-25 -29 -38 -43t-63 -39.5t-123 -25.5t-129 51t-42 152q12 68 61.5 128t112.5 99h-748q-12 0 -21 9t-7 22l215 1372q4 31 33 31h979z" />
    <glyph glyph-name="eogonek" unicode="&#x119;" horiz-adv-x="1040" 
d="M568 651q-46 0 -81.5 -33.5t-46.5 -70.5h207q4 35 -14.5 69.5t-64.5 34.5zM600 883q219 0 310 -143.5t61 -401.5q-2 -12 -11.5 -22.5t-19.5 -10.5h-541q14 -39 47 -52t113 -13t172 39q14 6 30.5 0.5t18.5 -17.5l66 -172q8 -33 -19 -48t-114 -36q-49 -47 -69.5 -69.5
t-47.5 -69.5t-34 -97t30 -51q53 0 98 39q23 18 39 -2l35 -39q14 -16 2 -39q-25 -29 -38 -43t-63.5 -39.5t-123 -25.5t-129 51t-39 162t146.5 201h-20q-221 0 -346 133t-97.5 327.5t176 316.5t367.5 122z" />
    <glyph glyph-name="Ecaron" unicode="&#x11a;" horiz-adv-x="1280" 
d="M1135 358q12 0 21 -9t7 -23l-45 -293q-4 -33 -33 -33h-979q-12 0 -21 9t-7 22l215 1372q4 31 33 31h979q12 0 22 -9.5t8 -21.5l-47 -295q-4 -33 -31 -33h-612l-29 -180h396q12 0 21 -9t7 -24l-49 -291q-4 -33 -30 -32h-402l-31 -181h607zM856 1559h-22q-16 0 -48 34
l-151 170q-23 27 -21 56l9 61q4 33 51 4l186 -143l244 149q20 12 31.5 2t7.5 -30l-10 -50q-6 -37 -23 -49l-217 -188q-18 -16 -37 -16z" />
    <glyph glyph-name="ecaron" unicode="&#x11b;" horiz-adv-x="1040" 
d="M568 651q-46 0 -81.5 -33.5t-46.5 -70.5h207q4 35 -14.5 69.5t-64.5 34.5zM600 883q219 0 310 -143.5t61 -401.5q-2 -12 -11.5 -22.5t-19.5 -10.5h-541q14 -39 47 -52t113 -13t172 39q14 6 30.5 0.5t18.5 -17.5l66 -172q8 -33 -24 -51.5t-133 -36.5t-189 -18
q-221 0 -346 133t-97.5 327.5t176 316.5t367.5 122zM602 991q-16 0 -47 35l-152 170q-23 27 -20 55l8 62q4 33 51 4l187 -143l243 149q20 12 31.5 2t7.5 -31l-10 -49q-6 -37 -22 -49l-217 -188q-18 -16 -37 -17h-23z" />
    <glyph glyph-name="Gbreve" unicode="&#x11e;" horiz-adv-x="1503" 
d="M1415 844q12 0 21.5 -9.5t7.5 -21.5l-107 -682q-6 -29 -22 -37q-88 -41 -245 -75.5t-292 -34.5q-309 0 -506.5 215t-147.5 532t302 518t543 201q162 0 302 -68.5t222 -207.5q18 -31 -6 -52l-221 -188q-18 -14 -37 -9t-27 19q-92 150 -254 150t-283.5 -118t-145.5 -272.5
t50 -259t213 -104.5q92 0 185 35l28 129h-116q-14 0 -23.5 9t-7.5 22l45 278q4 31 31 31h491zM1002.5 1567q-111.5 0 -185.5 66.5t-96 152.5q-8 23 14 33l107 43q25 8 39 -17q53 -82 135 -82q111 0 172 88q14 18 35 7l102 -64q18 -10 8 -35q-37 -74 -128 -133t-202.5 -59z
" />
    <glyph glyph-name="gbreve" unicode="&#x11f;" horiz-adv-x="1134" 
d="M508 262q139 0 171 171t-99 171q-70 0 -114 -50t-58 -132q-29 -160 100 -160zM1071 868q12 0 22.5 -9t8.5 -21l-133 -840q-33 -217 -188.5 -340t-387.5 -123q-147 0 -251.5 49t-153.5 131q-12 25 6 41l176 146q27 18 43 -6q59 -82 156.5 -82t165 50t83.5 134l9 39
q-90 -53 -221 -53q-211 0 -295 135t-51.5 335t150.5 314.5t302 114.5q137 0 229 -72l31 35q27 23 53 22h246zM654.5 1018q-111.5 0 -185.5 66.5t-96 152.5q-8 23 14 33l107 43q25 8 38 -17q53 -82 136 -82q111 0 172 89q14 18 34 6l103 -64q18 -10 8 -35q-37 -74 -128 -133
t-202.5 -59z" />
    <glyph glyph-name="Gdotaccent" unicode="&#x120;" horiz-adv-x="1503" 
d="M1415 844q12 0 21.5 -9.5t7.5 -21.5l-107 -682q-6 -29 -22 -37q-88 -41 -245 -75.5t-292 -34.5q-309 0 -506.5 215t-147.5 532t302 518t543 201q162 0 302 -68.5t222 -207.5q18 -31 -6 -52l-221 -188q-18 -14 -37 -9t-27 19q-92 150 -254 150t-283.5 -118t-145.5 -272.5
t50 -259t213 -104.5q92 0 185 35l28 129h-116q-14 0 -23.5 9t-7.5 22l45 278q4 31 31 31h491zM994 1567q-56 0 -96 48t-30 104t50 88t97.5 32t96.5 -48t29 -105.5t-50.5 -88t-96.5 -30.5z" />
    <glyph glyph-name="gdotaccent" unicode="&#x121;" horiz-adv-x="1134" 
d="M508 262q139 0 171 171t-99 171q-70 0 -114 -50t-58 -132q-29 -160 100 -160zM1071 868q12 0 22.5 -9t8.5 -21l-133 -840q-33 -217 -188.5 -340t-387.5 -123q-147 0 -251.5 49t-153.5 131q-12 25 6 41l176 146q27 18 43 -6q59 -82 156.5 -82t165 50t83.5 134l9 39
q-90 -53 -221 -53q-211 0 -295 135t-51.5 335t150.5 314.5t302 114.5q137 0 229 -72l31 35q27 23 53 22h246zM646 1018q-56 0 -96 48t-30 104.5t50 88t97.5 31.5t96.5 -48t29 -105.5t-50.5 -88t-96.5 -30.5z" />
    <glyph glyph-name="Gcommaaccent" unicode="&#x122;" horiz-adv-x="1503" 
d="M713 -53h157q31 0 29 -31l-27 -160q-10 -72 -68.5 -132t-135.5 -87q-23 -6 -25 14.5t21 30.5q51 23 86.5 63t42.5 87l-105 39q-35 12 -31 36l19 109q6 31 37 31zM1415 844q12 0 21.5 -9.5t7.5 -21.5l-107 -682q-6 -29 -22 -37q-88 -41 -245 -75.5t-292 -34.5
q-309 0 -506.5 215t-147.5 532t302 518t543 201q162 0 302 -68.5t222 -207.5q18 -31 -6 -52l-221 -188q-18 -14 -37 -9t-27 19q-92 150 -254 150t-283.5 -118t-145.5 -272.5t50 -259t213 -104.5q92 0 185 35l28 129h-116q-14 0 -23.5 9t-7.5 22l45 278q4 31 31 31h491z" />
    <glyph glyph-name="gcommaaccent" unicode="&#x123;" horiz-adv-x="1134" 
d="M508 262q139 0 171 171t-99 171q-70 0 -114 -50t-58 -132q-29 -160 100 -160zM1071 868q12 0 22.5 -9t8.5 -21l-133 -840q-33 -217 -188.5 -340t-387.5 -123q-147 0 -251.5 49t-153.5 131q-12 25 6 41l176 146q27 18 43 -6q59 -82 157 -82t165 50t83 134l9 39
q-90 -53 -221 -53q-211 0 -295 135q-83 135 -51 335t150 314.5t302 114.5q137 0 229 -72l31 35q27 23 53 22h246zM520 999l27 160q10 72 68.5 132.5t136.5 86.5q23 6 24.5 -14.5t-20.5 -30.5q-51 -23 -87 -62.5t-42 -86.5l104 -39q35 -12 31 -37l-19 -109q-6 -31 -36 -30
h-158q-33 -1 -29 30z" />
    <glyph glyph-name="Hbar" unicode="&#x126;" horiz-adv-x="1550" 
d="M571 621h467l29 176h-467zM1534 1434q12 0 21.5 -9.5t7.5 -21.5l-217 -1372q-4 -31 -31 -31h-340q-14 0 -23.5 9t-7.5 22l45 282h-467l-43 -282q-4 -31 -33 -31h-340q-12 0 -21 9t-7 22l215 1372q4 31 33 31h340q12 0 22 -9.5t8 -21.5l-49 -299h467l47 299q4 31 33 31
h340z" />
    <glyph glyph-name="hbar" unicode="&#x127;" horiz-adv-x="1269" 
d="M834 883q180 0 275 -124t60 -343l-59 -385q-4 -31 -33 -31h-315q-12 0 -21.5 9t-7.5 22l70 465q18 109 -76 108q-53 0 -95 -42t-52 -99l-70 -432q-4 -31 -31 -31h-319q-12 0 -21.5 9t-7.5 22l162 1030h-121q-12 0 -21.5 10t-7.5 23l25 155q4 33 31 33h129l22 137
q4 31 31 31h319q12 0 20.5 -9t6.5 -22l-22 -137h108q12 0 21.5 -10t7.5 -23l-27 -155q-4 -33 -29 -33h-118l-39 -230q94 52 205 52z" />
    <glyph glyph-name="Imacron" unicode="&#x12a;" horiz-adv-x="681" 
d="M106 0q-12 0 -21 9t-7 22l215 1372q4 31 33 31h340q12 0 21 -9.5t7 -21.5l-215 -1372q-4 -31 -33 -31h-340zM326 1599q-12 0 -20.5 9.5t-6.5 21.5l25 133q0 12 9 21.5t19 9.5h414q12 0 21.5 -9t7.5 -20l-21 -135q-4 -31 -31 -31h-417z" />
    <glyph glyph-name="imacron" unicode="&#x12b;" horiz-adv-x="571" 
d="M66 0q-14 0 -23.5 9t-7.5 22l125 805q4 31 30 30h320q12 0 21.5 -9t7.5 -21l-127 -805q-4 -31 -31 -31h-315zM184 1030q-12 0 -20 9.5t-6 21.5l24 133q0 12 9.5 21.5t19.5 9.5h414q12 0 21 -9.5t7 -19.5l-20 -135q-4 -31 -31 -31h-418z" />
    <glyph glyph-name="Iogonek" unicode="&#x12e;" horiz-adv-x="681" 
d="M666 1434q12 0 21 -9.5t7 -21.5l-215 -1372q-4 -31 -33 -31h-81q-43 -43 -66 -66.5t-47.5 -69.5t-31.5 -95t30 -50q53 0 98 39q23 18 39 -2l35 -39q14 -16 2 -39q-25 -29 -38 -43t-63.5 -39.5t-123 -25.5t-129 51t-42.5 135q24 151 175 244h-97q-12 0 -21 9t-7 22
l215 1372q4 31 33 31h340z" />
    <glyph glyph-name="iogonek" unicode="&#x12f;" horiz-adv-x="571" 
d="M510 866q12 0 21.5 -9t7.5 -21l-127 -805q-4 -31 -31 -31h-82q-43 -43 -65.5 -66.5t-47 -69.5t-31.5 -95t29 -50q53 0 99 39q23 18 39 -2l34 -39q14 -16 2 -39q-25 -29 -38 -43t-63 -39.5t-122.5 -25.5t-129 51t-42.5 152q12 68 61.5 128t112.5 99h-71q-14 0 -23.5 9
t-7.5 22l125 805q4 31 30 30h320zM420.5 1362q69.5 0 117.5 -59.5t34.5 -129t-60.5 -107.5t-118 -38t-120 60.5t-32 134.5q10 61 59.5 100t119 39z" />
    <glyph glyph-name="Idotaccent" unicode="&#x130;" horiz-adv-x="681" 
d="M106 0q-12 0 -21 9t-7 22l215 1372q4 31 33 31h340q12 0 21 -9.5t7 -21.5l-215 -1372q-4 -31 -33 -31h-340zM528 1567q-56 0 -96.5 48t-30.5 104t50.5 88t97.5 32t96 -48t29 -105.5t-50 -88t-96 -30.5z" />
    <glyph glyph-name="dotlessi" unicode="&#x131;" horiz-adv-x="571" 
d="M66 0q-14 0 -23.5 9t-7.5 22l125 805q4 31 30 30h320q12 0 21.5 -9t7.5 -21l-127 -805q-4 -31 -31 -31h-315z" />
    <glyph glyph-name="Kcommaaccent" unicode="&#x136;" horiz-adv-x="1501" 
d="M621 -53h157q33 0 29 -31l-27 -160q-10 -72 -68.5 -132t-136.5 -87q-23 -6 -24.5 14.5t20.5 30.5q51 23 87 63t42 87l-104 39q-35 12 -31 36l19 109q6 31 37 31zM446 0h-340q-12 0 -21 9t-7 22l215 1372q4 31 33 31h340q12 0 22 -9.5t8 -21.5l-96 -578l543 586
q16 23 57 23h367q23 0 31 -24t-9 -40l-633 -653l400 -666q10 -14 1 -32.5t-32 -18.5h-350q-29 0 -47 31l-357 551l-92 -549q-4 -33 -33 -33z" />
    <glyph glyph-name="kcommaaccent" unicode="&#x137;" horiz-adv-x="1218" 
d="M479 -53h158q31 0 29 -31l-27 -160q-10 -72 -68.5 -132t-136.5 -87q-23 -6 -24.5 14.5t20.5 30.5q51 23 87 63t42 87l-104 39q-35 12 -31 36l18 109q6 31 37 31zM1071 0h-334q-31 0 -49 31l-217 352l-59 -352q-4 -31 -31 -31h-320q-12 0 -21 8t-7 23l219 1388q4 31 31 31
h319q12 0 21.5 -8t7.5 -23l-152 -921l305 346q14 23 45 22h349q14 0 21 -15t-3 -28l-350 -372l246 -420q6 -12 -1.5 -21.5t-19.5 -9.5z" />
    <glyph glyph-name="Lacute" unicode="&#x139;" horiz-adv-x="1234" 
d="M1112 358q12 0 20.5 -9t6.5 -21l-45 -297q-4 -31 -33 -31h-955q-12 0 -21 9t-7 22l217 1372q0 31 31 31h340q12 0 22 -9.5t8 -21.5l-168 -1045h584zM664 1563q-37 -10 -43 18l-19 76q-6 25 14 35l377 186q41 20 51 -18l46 -152q8 -33 -21 -41z" />
    <glyph glyph-name="lacute" unicode="&#x13a;" horiz-adv-x="571" 
d="M61 0q-12 0 -21 9t-7 22l219 1388q4 31 31 31h319q12 0 21.5 -9t7.5 -22l-219 -1388q-4 -31 -31 -31h-320zM287 1563q-37 -10 -43 18l-19 76q-6 25 15 35l376 186q41 20 52 -18l45 -152q8 -33 -21 -41z" />
    <glyph glyph-name="Lcommaaccent" unicode="&#x13b;" horiz-adv-x="1234" 
d="M514 -53h158q32 0 28 -31l-26 -160q-10 -72 -68.5 -132t-136.5 -87q-23 -6 -25 14.5t21 30.5q51 23 87 63t42 87l-105 39q-35 12 -30 36l18 109q6 31 37 31zM1112 358q12 0 20.5 -9t6.5 -21l-45 -297q-4 -31 -33 -31h-955q-12 0 -21 9t-7 22l217 1372q0 31 31 31h340
q12 0 22 -9.5t8 -21.5l-168 -1045h584z" />
    <glyph glyph-name="lcommaaccent" unicode="&#x13c;" horiz-adv-x="571" 
d="M133 -53h158q32 0 28 -31l-26 -160q-10 -72 -68.5 -132t-136.5 -87q-23 -6 -25 14.5t21 30.5q51 23 87 63t42 87l-104 39q-35 12 -31 36l18 109q6 31 37 31zM61 0q-12 0 -21 9t-7 22l219 1388q4 31 31 31h319q12 0 21.5 -9t7.5 -22l-219 -1388q-4 -31 -31 -31h-320z" />
    <glyph glyph-name="Lcaron" unicode="&#x13d;" horiz-adv-x="1234" 
d="M1112 358q12 0 20.5 -9t6.5 -21l-45 -297q-4 -31 -33 -31h-955q-12 0 -21 9t-7 22l217 1372q0 31 31 31h340q12 0 22 -9.5t8 -21.5l-168 -1045h584zM856 1559h-22q-16 0 -48 34l-151 170q-23 27 -21 56l9 61q4 33 51 4l186 -143l244 149q20 12 31.5 2t7.5 -30l-10 -50
q-6 -37 -23 -49l-217 -188q-18 -16 -37 -16z" />
    <glyph glyph-name="lcaron" unicode="&#x13e;" horiz-adv-x="571" 
d="M61 0q-12 0 -21 9t-7 22l219 1388q4 31 31 31h319q12 0 21.5 -9t7.5 -22l-219 -1388q-4 -31 -31 -31h-320zM479 1559h-22q-16 0 -47 34l-152 170q-23 27 -20 56l8 61q4 33 51 4l186 -143l244 149q20 12 31.5 2t7.5 -30l-10 -50q-6 -37 -23 -49l-217 -188q-18 -16 -37 -16
z" />
    <glyph glyph-name="Ldot" unicode="&#x13f;" horiz-adv-x="1249" 
d="M827 500q-35 0 -28 30l45 289q6 29 37 29h284q35 0 29 -29l-45 -289q-6 -31 -37 -30h-285zM1112 358q12 0 20.5 -9t6.5 -21l-45 -297q-4 -31 -33 -31h-955q-12 0 -21 9t-7 22l217 1372q0 31 31 31h340q12 0 22 -9.5t8 -21.5l-168 -1045h584z" />
    <glyph glyph-name="ldot" unicode="&#x140;" horiz-adv-x="919" 
d="M674 500q-35 0 -29 30l45 289q6 29 37 29h285q35 0 28 -29l-45 -289q-6 -31 -37 -30h-284zM61 0q-12 0 -21 9t-7 22l219 1388q4 31 31 31h319q12 0 21.5 -9t7.5 -22l-219 -1388q-4 -31 -31 -31h-320z" />
    <glyph glyph-name="Lslash" unicode="&#x141;" horiz-adv-x="1402" 
d="M1280 358q12 0 20.5 -9t6.5 -21l-45 -297q-4 -31 -33 -31h-955q-12 0 -21 9t-7 22l71 458l-116 -65q-12 -8 -29.5 -5t-26.5 17l-92 168q-25 29 8 45l310 174l92 580q0 31 31 31h340q12 0 22 -9.5t8 -21.5l-53 -334l143 80q31 16 45 -8l99 -174q18 -27 -4 -43l-336 -189
l-62 -377h584z" />
    <glyph glyph-name="lslash" unicode="&#x142;" horiz-adv-x="901" 
d="M547 0h-320q-12 0 -21 9t-7 22l59 372l-100 -73q-31 -23 -45 2l-103 145q-16 27 6 45l295 217l107 680q4 31 31 31h319q12 0 21.5 -9t7.5 -22l-58 -364l103 75q29 20 45 -6l100 -147q16 -27 -8 -45l-293 -215l-108 -686q-4 -31 -31 -31z" />
    <glyph glyph-name="Nacute" unicode="&#x143;" horiz-adv-x="1605" 
d="M1587 1434q14 0 23.5 -9.5t7.5 -21.5l-217 -1370q-4 -33 -31 -33h-278q-35 0 -56 41l-440 698l-117 -706q-4 -33 -33 -33h-337q-12 0 -21.5 9t-7.5 22l213 1372q4 31 33 31h295q25 0 53 -39l430 -672l113 680q4 31 32 31h338zM776 1563q-37 -10 -43 18l-18 76
q-6 25 14 35l377 186q41 20 51 -18l45 -152q8 -33 -20 -41z" />
    <glyph glyph-name="nacute" unicode="&#x144;" horiz-adv-x="1206" 
d="M784 883q195 0 277 -120t53 -292l-67 -440q-4 -31 -33 -31h-318q-12 0 -21 9t-7 22l71 458q8 45 -17.5 80t-80.5 35t-105.5 -47t-58.5 -100l-65 -426q-4 -31 -31 -31h-320q-12 0 -21 9t-7 22l127 807q4 31 30 30h283q20 0 33 -28l20 -56q104 99 258 99zM588 938
q-29 -18 -41 8l-37 66q-14 25 0 43l336 311q10 8 24.5 5t18.5 -13l88 -166q12 -25 -8 -35z" />
    <glyph glyph-name="Ncommaaccent" unicode="&#x145;" horiz-adv-x="1605" 
d="M664 -53h157q31 0 29 -31l-27 -160q-10 -72 -68.5 -132t-136.5 -87q-23 -6 -24.5 14.5t20.5 30.5q51 23 87 63t42 87l-104 39q-35 12 -31 36l19 109q6 31 37 31zM1587 1434q14 0 23.5 -9.5t7.5 -21.5l-217 -1370q-4 -33 -31 -33h-278q-35 0 -56 41l-440 698l-117 -706
q-4 -33 -33 -33h-337q-12 0 -21.5 9t-7.5 22l213 1372q4 31 33 31h295q25 0 53 -39l430 -672l113 680q4 31 32 31h338z" />
    <glyph glyph-name="ncommaaccent" unicode="&#x146;" horiz-adv-x="1206" 
d="M457 -53h157q33 0 29 -31l-27 -160q-10 -72 -68.5 -132t-135.5 -87q-23 -6 -25 14.5t21 30.5q51 23 86.5 63t42.5 87l-105 39q-35 12 -31 36l19 109q6 31 37 31zM784 883q195 0 277 -120t53 -292l-67 -440q-4 -31 -33 -31h-318q-12 0 -21 9t-7 22l71 458q8 45 -17.5 80
t-80.5 35t-105.5 -47t-58.5 -100l-65 -426q-4 -31 -31 -31h-320q-12 0 -21 9t-7 22l127 807q4 31 30 30h283q20 0 33 -28l20 -56q104 99 258 99z" />
    <glyph glyph-name="Ncaron" unicode="&#x147;" horiz-adv-x="1605" 
d="M1587 1434q14 0 23.5 -9.5t7.5 -21.5l-217 -1370q-4 -33 -31 -33h-278q-35 0 -56 41l-440 698l-117 -706q-4 -33 -33 -33h-337q-12 0 -21.5 9t-7.5 22l213 1372q4 31 33 31h295q25 0 53 -39l430 -672l113 680q4 31 32 31h338zM969 1559h-23q-16 0 -47 34l-151 170
q-23 27 -21 56l8 61q4 33 51 4l187 -143l244 149q20 12 31.5 2t6.5 -30l-10 -50q-6 -37 -22 -49l-217 -188q-18 -16 -37 -16z" />
    <glyph glyph-name="ncaron" unicode="&#x148;" horiz-adv-x="1206" 
d="M784 883q195 0 277 -120t53 -292l-67 -440q-4 -31 -33 -31h-318q-12 0 -21 9t-7 22l71 458q8 45 -17.5 80t-80.5 35t-105.5 -47t-58.5 -100l-65 -426q-4 -31 -31 -31h-320q-12 0 -21 9t-7 22l127 807q4 31 30 30h283q20 0 33 -28l20 -56q104 99 258 99zM692 991
q-16 0 -47 35l-151 170q-23 27 -21 55l8 62q4 33 51 4l187 -143l244 149q20 12 31.5 2t6.5 -31l-10 -49q-6 -37 -22 -49l-217 -188q-18 -16 -37 -17h-23z" />
    <glyph glyph-name="Eng" unicode="&#x14a;" horiz-adv-x="1605" 
d="M1530 1434q12 0 24 -16t11 -27l-232 -1465q-18 -119 -89 -205t-181 -172q-27 -2 -33 25l-137 162q-14 29 -4 51q4 4 22 18q19 15 27 23l25 25q48 48 52 84q5 37 -32 108l-442 680l-117 -707q-2 -18 -23 -18h-340q-12 0 -24 14t-8 27l215 1372q2 20 24 21h307q11 0 29 -16
t19 -27l432 -656l112 678q2 20 23 21h340z" />
    <glyph glyph-name="eng" unicode="&#x14b;" horiz-adv-x="1200" 
d="M782 883q190 0 273.5 -118t54.5 -294l-82 -504q-16 -111 -75.5 -191.5t-157.5 -162.5q-10 -10 -27.5 -8t-28.5 14l-137 164q-20 29 4 54t32.5 68.5t14.5 76.5l80 507q8 45 -17.5 80t-76.5 35t-101.5 -47t-60.5 -100l-65 -426q-4 -31 -31 -31h-320q-12 0 -21 9t-7 22
l127 807q4 31 30 30h281q25 0 35 -28l20 -56q102 99 256 99z" />
    <glyph glyph-name="Omacron" unicode="&#x14c;" horiz-adv-x="1636" 
d="M799.5 342q152.5 0 267.5 111.5t140.5 272.5t-49.5 262.5t-227.5 101.5t-268 -113t-142.5 -274t50 -261t229.5 -100zM764 -16q-311 0 -500.5 222t-141.5 526t289.5 511t552 207t499 -222t140.5 -527.5t-288 -511t-551 -205.5zM776 1599q-12 0 -20 9.5t-6 21.5l24 133
q0 12 9.5 21.5t19.5 9.5h414q12 0 21 -9t7 -20l-20 -135q-4 -31 -31 -31h-418z" />
    <glyph glyph-name="omacron" unicode="&#x14d;" horiz-adv-x="1042" 
d="M496 262q49 0 93 45t58 137.5t-17.5 126t-81.5 33.5t-95 -50t-58.5 -139t19.5 -121t82 -32zM462 -16q-206 0 -325 138t-89 326.5t179.5 311.5t354 123t326.5 -137.5t88 -327.5t-181 -312t-353 -122zM399 1032q-12 0 -20 9.5t-6 21.5l24 133q0 12 9.5 21.5t19.5 9.5h414
q12 0 21 -9.5t7 -19.5l-20 -135q-4 -31 -31 -31h-418z" />
    <glyph glyph-name="Ohungarumlaut" unicode="&#x150;" horiz-adv-x="1636" 
d="M799.5 342q152.5 0 267.5 111.5t140.5 272.5t-49.5 262.5t-227.5 101.5t-268 -113t-142.5 -274t50 -261t229.5 -100zM764 -16q-311 0 -500.5 222t-141.5 526t289.5 511t552 207t499 -222t140.5 -527.5t-288 -511t-551 -205.5zM1229 1573q-27 -10 -43 8l-41 47
q-18 18 10 41l229 176q23 14 39 -6l103 -125q12 -16 -6 -26zM719 1575q-29 -6 -41 8l-43 47q-18 18 10 41l229 176q23 16 39 -6l105 -125q12 -16 -6 -26z" />
    <glyph glyph-name="ohungarumlaut" unicode="&#x151;" horiz-adv-x="1042" 
d="M496 262q49 0 93 45t58 137.5t-17.5 126t-81.5 33.5t-95 -50t-58.5 -139t19.5 -121t82 -32zM462 -16q-206 0 -325 138t-89 326.5t179.5 311.5t354 123t326.5 -137.5t88 -327.5t-181 -312t-353 -122zM698 1008l-53 28q-23 14 -6 39l184 234q16 16 41 2l125 -76
q12 -10 15.5 -23.5t-9.5 -21.5l-256 -180q-18 -14 -41 -2zM330 1008l-54 28q-20 14 -8 39l187 234q12 16 41 2l122 -76q14 -10 17.5 -23.5t-8.5 -21.5l-258 -180q-16 -14 -39 -2z" />
    <glyph glyph-name="OE" unicode="&#x152;" horiz-adv-x="2070" 
d="M786 342q63 0 136 23l110 714q-45 10 -90 11q-150 -2 -272.5 -111t-149.5 -279t52 -264t214 -94zM2095 1434q12 0 22.5 -9.5t8.5 -21.5l-47 -295q-4 -33 -31 -33h-612l-29 -180h395q12 0 21.5 -9t7.5 -24l-49 -291q-4 -33 -31 -32h-401l-31 -181h606q12 0 21.5 -9
t7.5 -23l-45 -293q-4 -33 -33 -33h-946q-82 -16 -187.5 -16t-229.5 50t-222 141t-146.5 238.5t-20.5 321.5t118 313.5t212 224.5q253 177 509 177q82 0 151 -16h981z" />
    <glyph glyph-name="oe" unicode="&#x153;" horiz-adv-x="1632" 
d="M496 262q49 0 93 45t58 137.5t-17.5 126t-81.5 33.5t-95 -50t-58.5 -139t19.5 -121t82 -32zM1160 651q-46 0 -82 -33.5t-46 -70.5h207q4 35 -14.5 69.5t-64.5 34.5zM1192 883q219 0 310 -143.5t61 -401.5q-2 -12 -11.5 -22.5t-19.5 -10.5h-541q14 -39 47 -52t113 -13
t172 39q14 6 30.5 0.5t18.5 -17.5l66 -172q8 -33 -24 -51.5t-133 -36.5t-189 -18q-186 0 -308 98q-141 -98 -315 -98q-213 0 -332 138t-89 326.5t179.5 311.5t333.5 123t301 -95q144 95 330 95z" />
    <glyph glyph-name="Racute" unicode="&#x154;" horiz-adv-x="1439" 
d="M874 784q51 0 90.5 46.5t51.5 123.5q23 121 -80 121h-291l-47 -291h276zM1253 0h-323q-29 0 -45 31l-166 395h-178l-62 -393q-4 -33 -33 -33h-337q-14 0 -22.5 9t-6.5 22l213 1372q4 31 33 31h776q164 0 254 -150.5t55 -376.5q-27 -166 -108.5 -284.5t-188.5 -153.5
l158 -436q12 -33 -19 -33zM690 1563q-37 -10 -43 18l-18 76q-6 25 14 35l377 186q41 20 51 -18l45 -152q8 -33 -20 -41z" />
    <glyph glyph-name="racute" unicode="&#x155;" horiz-adv-x="827" 
d="M605 608q-42 0 -79 -41t-49 -118l-65 -418q-4 -31 -31 -31h-320q-12 0 -21 9t-7 22l127 807q4 31 30 30h185q29 0 51 -28l39 -52q100 94 224 94.5t157 -40.5q16 -18 2 -43l-115 -191q-10 -16 -48 -8t-80 8zM434 938q-29 -18 -41 8l-37 66q-16 25 0 43l336 311
q10 8 24.5 5t18.5 -13l88 -166q12 -25 -8 -35z" />
    <glyph glyph-name="Rcommaaccent" unicode="&#x156;" horiz-adv-x="1439" 
d="M606 -53h158q31 0 29 -31l-27 -160q-10 -72 -68.5 -132t-136.5 -87q-23 -6 -24.5 14.5t20.5 30.5q51 23 87 63t42 87l-104 39q-35 12 -31 36l18 109q6 31 37 31zM874 784q51 0 90.5 46.5t51.5 123.5q23 121 -80 121h-291l-47 -291h276zM1253 0h-323q-29 0 -45 31
l-166 395h-178l-62 -393q-4 -33 -33 -33h-337q-14 0 -22.5 9t-6.5 22l213 1372q4 31 33 31h776q164 0 254 -150.5t55 -376.5q-27 -166 -108.5 -284.5t-188.5 -153.5l158 -436q12 -33 -19 -33z" />
    <glyph glyph-name="rcommaaccent" unicode="&#x157;" horiz-adv-x="827" 
d="M303 -53h158q30 0 28 -31l-26 -160q-10 -72 -68.5 -132t-136.5 -87q-23 -6 -25 14.5t21 30.5q51 23 87 63t42 87l-104 39q-35 12 -31 36l18 109q6 31 37 31zM605 608q-42 0 -79 -41t-49 -118l-65 -418q-4 -31 -31 -31h-320q-12 0 -21 9t-7 22l127 807q4 31 30 30h185
q29 0 51 -28l39 -52q100 94 224 94.5t157 -40.5q16 -18 2 -43l-115 -191q-10 -16 -48 -8t-80 8z" />
    <glyph glyph-name="Rcaron" unicode="&#x158;" horiz-adv-x="1439" 
d="M874 784q51 0 90.5 46.5t51.5 123.5q23 121 -80 121h-291l-47 -291h276zM1253 0h-323q-29 0 -45 31l-166 395h-178l-62 -393q-4 -33 -33 -33h-337q-14 0 -22.5 9t-6.5 22l213 1372q4 31 33 31h776q164 0 254 -150.5t55 -376.5q-27 -166 -108.5 -284.5t-188.5 -153.5
l158 -436q12 -33 -19 -33zM883 1559h-23q-16 0 -47 34l-151 170q-23 27 -21 56l8 61q4 33 51 4l187 -143l243 149q20 12 32 2t7 -30l-10 -50q-6 -37 -22 -49l-217 -188q-18 -16 -37 -16z" />
    <glyph glyph-name="rcaron" unicode="&#x159;" horiz-adv-x="827" 
d="M605 608q-42 0 -79 -41t-49 -118l-65 -418q-4 -31 -31 -31h-320q-12 0 -21 9t-7 22l127 807q4 31 30 30h185q29 0 51 -28l39 -52q100 94 224 94.5t157 -40.5q16 -18 2 -43l-115 -191q-10 -16 -48 -8t-80 8zM539 991q-16 0 -47 35l-152 170q-23 27 -21 55l9 62q4 33 51 4
l186 -143l244 149q20 12 31.5 2t7.5 -31l-10 -49q-6 -37 -23 -49l-217 -188q-18 -16 -37 -17h-22z" />
    <glyph glyph-name="Sacute" unicode="&#x15a;" horiz-adv-x="1390" 
d="M639 336q90 0 171 31.5t87 89.5q4 64 -184 94q-248 41 -361 102q-205 113 -168 330q24 156 168 301q74 74 202 120t290 46q336 0 547 -211q10 -12 9 -31.5t-11 -27.5l-207 -176q-31 -20 -62 -3l-41 23q-110 53 -165.5 61.5t-125 8.5t-133 -26t-67.5 -69q-8 -84 198 -114
q125 -23 200 -44.5t167 -67.5q183 -92 141 -327q-30 -166 -170 -304q-162 -157 -492 -158q-171 0 -299 46t-239 169q-23 27 -2 47l217 182q18 16 47 2q147 -94 283 -94zM684 1563q-37 -10 -43 18l-18 76q-6 25 14 35l377 186q41 20 51 -18l45 -152q8 -33 -20 -41z" />
    <glyph glyph-name="sacute" unicode="&#x15b;" horiz-adv-x="909" 
d="M373 -16q-242 0 -350 118q-18 23 -5 43l97 140q14 18 47 0q98 -49 203.5 -49t101.5 38q0 23 -36 28q-7 1 -36 9t-50 13.5t-55 16.5t-52.5 19.5t-45 22.5t-40 29.5t-28.5 36t-20.5 43t-5.5 52t8 64.5q27 121 130.5 198t279.5 77q115 0 208 -31t138 -70q20 -18 8 -41
l-104 -145q-18 -18 -45 -8q-109 43 -183.5 43t-80.5 -41q0 -20 58 -34.5t85 -23t62.5 -20.5t57.5 -24t46 -28q86 -57 55 -208q-67 -268 -448 -268zM432 938q-29 -18 -41 8l-37 66q-14 25 0 43l336 311q10 8 24.5 5t18.5 -13l88 -166q12 -25 -8 -35z" />
    <glyph glyph-name="Scedilla" unicode="&#x15e;" horiz-adv-x="1390" 
d="M788.5 1094q-69.5 0 -133 -26t-67.5 -69q-8 -84 198 -114q125 -23 200 -44.5t167 -67.5q183 -92 141 -327q-28 -160 -158 -294q-68 -70 -182 -115t-260 -51l-37 -54q92 -2 128 -56t21 -130t-70.5 -120t-143.5 -44t-136 32t-59 60q0 14 4 21l54 53q16 14 38.5 -7.5
t57.5 -21.5q78 0 88 76q6 39 -16.5 42t-38.5 -20t-49 -14l-84 27q-20 6 -11 27l82 131q-258 25 -428 211q-23 27 -2 47l217 182q18 16 47 2q147 -94 283 -94q90 0 171 31.5t87 89.5q4 64 -184 94q-248 41 -361 102q-205 113 -168 330q24 156 168 301q74 74 202 120t290 46
q336 0 547 -211q10 -12 9 -31.5t-11 -27.5l-207 -176q-31 -20 -62 -3l-41 23q-110 53 -165.5 61.5t-125 8.5z" />
    <glyph glyph-name="scedilla" unicode="&#x15f;" horiz-adv-x="909" 
d="M537.5 631q-74.5 0 -80.5 -41q0 -20 58 -34.5t85 -23t62.5 -20.5t57.5 -24t46 -28q86 -57 55 -208q-59 -250 -399 -266l-37 -54q92 -2 128 -56t21 -130t-70.5 -120t-144 -44t-136.5 32t-58 60q0 14 4 21l53 53q14 14 31 0q31 -29 66 -29q78 0 88 76q6 39 -16.5 42
t-39.5 -19.5t-49 -14.5l-84 27q-20 6 -10 27l84 135q-147 23 -229 110q-18 23 -5 43l97 140q14 18 47 0q98 -49 203.5 -49t101.5 38q0 23 -36 28q-7 1 -36 9t-50 13.5t-55 16.5t-52.5 19.5t-45 22.5t-40 29.5t-28.5 36t-20.5 43t-5.5 52t8 64.5q27 121 130.5 198t279.5 77
q115 0 208 -31t138 -70q20 -18 8 -41l-104 -145q-18 -18 -45 -8q-109 43 -183.5 43z" />
    <glyph glyph-name="Scaron" unicode="&#x160;" horiz-adv-x="1390" 
d="M639 336q90 0 171 31.5t87 89.5q4 64 -184 94q-248 41 -361 102q-205 113 -168 330q24 156 168 301q74 74 202 120t290 46q336 0 547 -211q10 -12 9 -31.5t-11 -27.5l-207 -176q-31 -20 -62 -3l-41 23q-110 53 -165.5 61.5t-125 8.5t-133 -26t-67.5 -69q-8 -84 198 -114
q125 -23 200 -44.5t167 -67.5q183 -92 141 -327q-30 -166 -170 -304q-162 -157 -492 -158q-171 0 -299 46t-239 169q-23 27 -2 47l217 182q18 16 47 2q147 -94 283 -94zM877 1559h-23q-16 0 -47 34l-152 170q-23 27 -20 56l8 61q4 33 51 4l187 -143l243 149q20 12 31.5 2
t7.5 -30l-10 -50q-6 -37 -23 -49l-217 -188q-18 -16 -36 -16z" />
    <glyph glyph-name="scaron" unicode="&#x161;" horiz-adv-x="909" 
d="M373 -16q-242 0 -350 118q-18 23 -5 43l97 140q14 18 47 0q98 -49 203.5 -49t101.5 38q0 23 -36 28q-7 1 -36 9t-50 13.5t-55 16.5t-52.5 19.5t-45 22.5t-40 29.5t-28.5 36t-20.5 43t-5.5 52t8 64.5q27 121 130.5 198t279.5 77q115 0 208 -31t138 -70q20 -18 8 -41
l-104 -145q-18 -18 -45 -8q-109 43 -183.5 43t-80.5 -41q0 -20 58 -34.5t85 -23t62.5 -20.5t57.5 -24t46 -28q86 -57 55 -208q-67 -268 -448 -268zM537 991q-16 0 -48 35l-151 170q-23 27 -21 55l9 62q4 33 51 4l186 -143l244 149q20 12 31.5 2t7.5 -31l-10 -49
q-6 -37 -23 -49l-217 -188q-18 -16 -37 -17h-22z" />
    <glyph glyph-name="uni0162" unicode="&#x162;" horiz-adv-x="1339" 
d="M1384 1434q12 0 21.5 -9.5t7.5 -21.5l-47 -295q-4 -33 -31 -33h-360l-166 -1044q-4 -31 -33 -31h-94l-51 -72q92 -2 128 -56t20.5 -130t-71 -120t-143.5 -44t-136 32t-58 60q0 14 4 21l53 53q14 14 31 0q31 -29 65 -29q78 0 88 76q6 39 -16.5 42t-38.5 -20t-49 -14
l-84 27q-20 6 -10 27l92 147h-70q-12 0 -22.5 9t-7.5 22l167 1044h-358q-12 0 -21.5 9.5t-7.5 21.5l45 297q4 31 33 31h1120z" />
    <glyph glyph-name="uni0163" unicode="&#x163;" horiz-adv-x="851" 
d="M362.5 -418q-88.5 0 -136.5 32t-58 60q0 14 4 21l53 53q16 14 39 -7.5t58 -21.5q78 0 88 76q6 39 -16.5 42t-39.5 -19.5t-49 -14.5l-84 27q-20 6 -10 27l88 143q-96 33 -134 121t-24 207l39 245h-65q-12 0 -22.5 9.5t-8.5 21.5l37 232q4 31 33 30h73l33 215q4 31 31 31
h317q14 0 23.5 -9t7.5 -22l-33 -215h158q12 0 21.5 -9t7.5 -21l-35 -230q-4 -33 -31 -33h-168l-37 -227q-6 -47 3.5 -60.5t41.5 -13.5l97 13q25 6 34 -23l62 -190q8 -31 -23 -45q-94 -37 -272 -43l-37 -52q92 -2 128 -56t21 -130t-70.5 -120t-144 -44z" />
    <glyph glyph-name="Tcaron" unicode="&#x164;" horiz-adv-x="1339" 
d="M1384 1434q12 0 21.5 -9.5t7.5 -21.5l-47 -295q-4 -33 -31 -33h-360l-166 -1044q-4 -31 -33 -31h-340q-12 0 -22.5 9t-7.5 22l167 1044h-358q-12 0 -21.5 9.5t-7.5 21.5l45 297q4 31 33 31h1120zM848 1559h-23q-16 0 -47 34l-151 170q-23 27 -21 56l8 61q4 33 52 4
l186 -143l244 149q20 12 31.5 2t7.5 -30l-11 -50q-6 -37 -22 -49l-217 -188q-18 -16 -37 -16z" />
    <glyph glyph-name="tcaron" unicode="&#x165;" horiz-adv-x="993" 
d="M412 -16q-162 0 -224.5 97t-46.5 247l39 245h-65q-12 0 -22.5 9.5t-8.5 21.5l37 232q4 31 33 30h73l33 215q4 31 31 31h317q14 0 23.5 -9t7.5 -22l-33 -215h158q12 0 21.5 -9t7.5 -21l-35 -230q-4 -33 -31 -33h-168l-37 -227q-6 -47 3.5 -60.5t41.5 -13.5l97 13
q25 6 34 -23l62 -190q8 -31 -23 -45q-115 -43 -325 -43zM924 1575h260q34 0 28 -31q-11 -53 -38 -250q-20 -127 -122 -231.5t-245 -173.5q-20 -12 -31 12q-8 23 10 33q219 125 250 323l-151 56q-33 12 -29 35l31 196q2 31 37 31z" />
    <glyph glyph-name="Tbar" unicode="&#x166;" horiz-adv-x="1339" 
d="M1384 1434q12 0 21.5 -9.5t7.5 -21.5l-47 -295q-4 -33 -31 -33h-360l-35 -213h90q33 0 27 -31l-37 -233q-6 -31 -31 -31h-94l-86 -536q-4 -31 -33 -31h-340q-12 0 -22.5 9t-7.5 22l86 536h-93q-35 0 -24 31l35 233q6 31 28 31h101l34 213h-358q-12 0 -21.5 9.5t-7.5 21.5
l45 297q4 31 33 31h1120z" />
    <glyph glyph-name="tbar" unicode="&#x167;" horiz-adv-x="874" 
d="M412 -16q-160 0 -223 97q-62 97 -46 245l39 247h-67q-13 -1 -23 9t-8 22l41 232q4 31 31 30h73l15 97h-64q-31 0 -30 30l34 232q4 31 33 30h74l24 164q4 31 33 31h318q31 0 28 -31l-24 -164h157q11 0 21 -9t8 -21l-35 -230q-4 -33 -30 -32h-168l-15 -97h158q12 0 21 -9
t8 -21l-35 -230q-4 -33 -31 -33h-168l-37 -229q-8 -47 2 -58t43 -12l90 9q31 8 39 -15l64 -192q10 -31 -23 -47q-109 -45 -327 -45z" />
    <glyph glyph-name="Umacron" unicode="&#x16a;" horiz-adv-x="1456" 
d="M1487 1434q12 0 21.5 -8.5t7.5 -22.5l-125 -754q-33 -206 -129 -363q-56 -91 -131.5 -155.5t-192.5 -105.5t-251 -41t-232.5 30.5t-158.5 81.5q-129 110 -161 278.5t-4 297.5l123 731q0 31 31 31h340q12 0 22 -9.5t8 -21.5l-120 -717q-25 -164 10 -254t155 -90
q240 0 297 367l117 694q4 31 31 31h342zM721 1599q-12 0 -20.5 9.5t-6.5 21.5l25 133q0 12 9 21.5t20 9.5h413q12 0 21.5 -9t7.5 -20l-21 -135q-4 -31 -30 -31h-418z" />
    <glyph glyph-name="umacron" unicode="&#x16b;" horiz-adv-x="1169" 
d="M1106 866q14 0 23.5 -9t7.5 -21l-127 -803q-2 -12 -11.5 -22.5t-21.5 -10.5h-236q-23 0 -49 31l-51 57q-35 -45 -102.5 -74.5t-128.5 -29.5q-184 0 -267.5 105.5t-54.5 289.5l72 457q4 31 30 30h320q12 0 21.5 -9t7.5 -21l-74 -465q-14 -111 79 -111q48 0 91 41t53 96
l70 439q4 31 30 30h318zM471 1032q-12 0 -20.5 9.5t-6.5 21.5l25 133q0 12 9 21.5t20 9.5h413q12 0 21.5 -9.5t7.5 -19.5l-20 -135q-4 -31 -31 -31h-418z" />
    <glyph glyph-name="ubreve" unicode="&#x16d;" horiz-adv-x="1169" 
d="M1106 866q14 0 23.5 -9t7.5 -21l-127 -803q-2 -12 -11.5 -22.5t-21.5 -10.5h-236q-23 0 -49 31l-51 57q-35 -45 -102.5 -74.5t-128.5 -29.5q-184 0 -267.5 105.5t-54.5 289.5l72 457q4 31 30 30h320q12 0 21.5 -9t7.5 -21l-74 -465q-14 -111 79 -111q48 0 91 41t53 96
l70 439q4 31 30 30h318zM681.5 999q-111.5 0 -185.5 67t-97 153q-8 23 15 32l106 43q25 8 39 -16q53 -82 135 -82q111 0 172 88q14 18 35 6l103 -63q18 -10 8 -35q-37 -74 -128 -133.5t-202.5 -59.5z" />
    <glyph glyph-name="Uring" unicode="&#x16e;" horiz-adv-x="1456" 
d="M1487 1434q12 0 21.5 -8.5t7.5 -22.5l-125 -754q-33 -206 -129 -363q-56 -91 -131.5 -155.5t-192.5 -105.5t-251 -41t-232.5 30.5t-158.5 81.5q-129 110 -161 278.5t-4 297.5l123 731q0 31 31 31h340q12 0 22 -9.5t8 -21.5l-120 -717q-25 -164 10 -254t155 -90
q240 0 297 367l117 694q4 31 31 31h342zM916 1696q39 0 59 24.5t24.5 57t-11 57.5t-54.5 25q-68 0 -84 -74q-6 -35 10.5 -62.5t55.5 -27.5zM898 1534q-99 0 -164.5 73.5t-46.5 184t90 170t173.5 59.5t167 -73.5t45 -184t-92.5 -170t-172 -59.5z" />
    <glyph glyph-name="uring" unicode="&#x16f;" horiz-adv-x="1169" 
d="M1106 866q14 0 23.5 -9t7.5 -21l-127 -803q-2 -12 -11.5 -22.5t-21.5 -10.5h-236q-23 0 -49 31l-51 57q-35 -45 -102.5 -74.5t-128.5 -29.5q-184 0 -267.5 105.5t-54.5 289.5l72 457q4 31 30 30h320q12 0 21.5 -9t7.5 -21l-74 -465q-14 -111 79 -111q48 0 91 41t53 96
l70 439q4 31 30 30h318zM666 1128q39 0 59 25t24.5 57.5t-11 57t-54.5 24.5q-68 0 -84 -73q-6 -35 10.5 -63t55.5 -28zM648 967q-99 0 -164.5 73.5t-46.5 184t90 170t173.5 59.5t167 -73.5t45 -184t-92.5 -170t-172 -59.5z" />
    <glyph glyph-name="Uhungarumlaut" unicode="&#x170;" horiz-adv-x="1456" 
d="M1487 1434q12 0 21.5 -8.5t7.5 -22.5l-125 -754q-33 -206 -129 -363q-56 -91 -131.5 -155.5t-192.5 -105.5t-251 -41t-232.5 30.5t-158.5 81.5q-129 110 -161 278.5t-4 297.5l123 731q0 31 31 31h340q12 0 22 -9.5t8 -21.5l-120 -717q-25 -164 10 -254t155 -90
q240 0 297 367l117 694q4 31 31 31h342zM1174 1573q-27 -10 -44 8l-40 47q-18 18 10 41l229 176q23 14 39 -6l102 -125q12 -16 -6 -26zM664 1575q-29 -6 -41 8l-43 47q-18 18 10 41l229 176q23 16 39 -6l105 -125q12 -16 -7 -26z" />
    <glyph glyph-name="uhungarumlaut" unicode="&#x171;" horiz-adv-x="1169" 
d="M1106 866q14 0 23.5 -9t7.5 -21l-127 -803q-2 -12 -11.5 -22.5t-21.5 -10.5h-236q-23 0 -49 31l-51 57q-35 -45 -102.5 -74.5t-128.5 -29.5q-184 0 -267.5 105.5t-54.5 289.5l72 457q4 31 30 30h320q12 0 21.5 -9t7.5 -21l-74 -465q-14 -111 79 -111q48 0 91 41t53 96
l70 439q4 31 30 30h318zM770 1008l-53 28q-20 14 -6 39l184 234q16 16 41 2l125 -76q12 -10 15 -23.5t-9 -21.5l-256 -180q-18 -14 -41 -2zM401 1008l-53 28q-20 14 -8 39l186 234q12 16 41 2l123 -76q14 -10 17.5 -23.5t-9.5 -21.5l-258 -180q-16 -14 -39 -2z" />
    <glyph glyph-name="Uogonek" unicode="&#x172;" horiz-adv-x="1456" 
d="M1487 1434q12 0 21.5 -8.5t7.5 -22.5l-125 -754q-86 -526 -492 -637l-71 -72q-20 -20 -49 -70t-36.5 -100t29.5 -51q53 0 98 39q23 18 39 -2l35 -39q14 -16 2 -39q-25 -29 -38 -43t-63 -39.5t-123 -25.5t-129 51t-39 162t146 201h-22q-250 0 -381 111q-130 111 -162 279
q-32 169 -4 298l123 731q0 31 31 31h340q12 0 22 -9.5t8 -21.5l-120 -717q-25 -164 10 -254t155 -90q240 0 297 367l117 694q4 31 31 31h342z" />
    <glyph glyph-name="uogonek" unicode="&#x173;" horiz-adv-x="1169" 
d="M1106 866q14 0 23.5 -9t7.5 -21l-127 -803q-2 -12 -11.5 -22.5t-21.5 -10.5h-78q-43 -43 -65.5 -66.5t-47 -69.5t-31.5 -95t29 -50q53 0 99 39q23 18 39 -2l34 -39q14 -16 2 -39q-25 -29 -38 -43t-63 -39.5t-122.5 -25.5t-129 51t-42.5 152q12 68 61.5 129t112.5 98
q-16 2 -45 31l-51 57q-35 -45 -102.5 -74.5t-128.5 -29.5q-184 0 -267.5 105.5t-54.5 289.5l72 457q4 31 30 30h320q12 0 21.5 -9t7.5 -21l-74 -465q-14 -111 79 -111q48 0 91 41t53 96l70 439q4 31 30 30h318z" />
    <glyph glyph-name="Wcircumflex" unicode="&#x174;" horiz-adv-x="2166" 
d="M2232 1434q18 0 28.5 -11.5t2.5 -27.5l-676 -1362q-18 -33 -45 -33h-164q-29 0 -37 33l-200 692l-391 -694q-16 -31 -41 -31h-172q-27 0 -33 33l-293 1362q-6 39 25 39h315q29 0 35 -33l153 -684l379 692q12 25 35 25h147q23 0 31 -35l205 -682l358 694q10 23 31 23h307z
M1278 1898h20q12 0 48 -34l176 -154q12 -12 8 -39l-14 -92q-6 -31 -39 -8l-207 129l-258 -139q-10 -4 -18.5 2t-6.5 18l17 92q4 29 26 45l209 164q25 16 39 16z" />
    <glyph glyph-name="wcircumflex" unicode="&#x175;" horiz-adv-x="1507" 
d="M1489 866q12 0 21.5 -8t2.5 -20l-432 -805q-16 -33 -34 -33h-203q-29 0 -33 33l-70 360l-176 -360q-16 -33 -37 -33h-198q-25 0 -33 33l-170 803q-8 31 25 30h305q29 0 32 -32l35 -312l160 312q20 33 35 32h164q29 0 32 -32l68 -312l133 312q12 33 31 32h342zM854 1331
h20q12 0 48 -35l176 -153q12 -12 8 -39l-14 -92q-6 -31 -39 -8l-207 129l-258 -140q-10 -4 -18.5 2t-6.5 19l17 92q4 29 26 45l209 164q25 16 39 16z" />
    <glyph glyph-name="Ycircumflex" unicode="&#x176;" horiz-adv-x="1417" 
d="M1473 1434q25 0 36 -18.5t-2 -41.5l-571 -770l-94 -571q-4 -33 -33 -33h-340q-12 0 -21.5 8t-7.5 23l92 573l-319 795q-12 35 27 35h331q35 0 56 -43l159 -396l297 412q18 27 54 27h336zM893 1898h20q12 0 48 -34l176 -154q12 -12 8 -39l-15 -92q-6 -31 -38 -8l-207 129
l-258 -139q-10 -4 -18.5 2t-6.5 18l16 92q4 29 27 45l209 164q25 16 39 16z" />
    <glyph glyph-name="ycircumflex" unicode="&#x177;" horiz-adv-x="1210" 
d="M1202 866q14 0 21.5 -11t-0.5 -21l-797 -1199q-18 -33 -37 -32h-330q-14 0 -20 13t0 24l328 475l-250 723q-10 29 24 28h295q27 0 31 -30l129 -367l240 365q20 33 34 32h332zM700 1331h21q12 0 47 -35l176 -153q12 -12 8 -39l-14 -92q-6 -31 -39 -8l-207 129l-258 -140
q-10 -4 -18 2t-6 19l16 92q4 29 27 45l209 164q25 16 38 16z" />
    <glyph glyph-name="Ydieresis" unicode="&#x178;" horiz-adv-x="1417" 
d="M1473 1434q25 0 36 -18.5t-2 -41.5l-571 -770l-94 -571q-4 -33 -33 -33h-340q-12 0 -21.5 8t-7.5 23l92 573l-319 795q-12 35 27 35h331q35 0 56 -43l159 -396l297 412q18 27 54 27h336zM1049 1595q-55 0 -87 41t-24 85t38 69t78 25t78.5 -41t20.5 -93q-16 -86 -104 -86z
M737 1595q-55 0 -87 41t-24 85t39 69t79 25t78 -41t20 -93q-17 -86 -105 -86z" />
    <glyph glyph-name="Zacute" unicode="&#x179;" horiz-adv-x="1335" 
d="M279 1075q-12 0 -22.5 9.5t-8.5 23.5l47 293q4 33 31 33h1052q20 0 29.5 -19.5t-2.5 -38.5l-723 -1018h500q12 0 21 -9t7 -23l-45 -293q-4 -33 -32 -33h-1078q-27 0 -37 17.5t2 37.5l723 1020h-464zM651 1563q-37 -10 -43 18l-18 76q-6 25 14 35l377 186q41 20 51 -18
l45 -152q8 -33 -20 -41z" />
    <glyph glyph-name="zacute" unicode="&#x17a;" horiz-adv-x="925" 
d="M152 588q-12 0 -21.5 8t-7.5 20l35 220q8 31 30 30h703q16 0 25.5 -17.5t1.5 -29.5l-359 -540h211q12 0 21.5 -9.5t7.5 -21.5l-35 -217q-4 -31 -31 -31h-706q-12 0 -19.5 14.5t0.5 24.5l363 549h-219zM459 938q-29 -18 -41 8l-37 66q-16 25 0 43l336 311q10 8 24.5 5
t18.5 -13l88 -166q12 -25 -8 -35z" />
    <glyph glyph-name="Zdotaccent" unicode="&#x17b;" horiz-adv-x="1335" 
d="M279 1075q-12 0 -22.5 9.5t-8.5 23.5l47 293q4 33 31 33h1052q20 0 29.5 -19.5t-2.5 -38.5l-723 -1018h500q12 0 21 -9t7 -23l-45 -293q-4 -33 -32 -33h-1078q-27 0 -37 17.5t2 37.5l723 1020h-464zM835 1567q-56 0 -96.5 48t-30 104t50.5 88t97 32t96 -48t29 -105.5
t-50 -88t-96 -30.5z" />
    <glyph glyph-name="zdotaccent" unicode="&#x17c;" horiz-adv-x="925" 
d="M152 588q-12 0 -21.5 8t-7.5 20l35 220q8 31 30 30h703q16 0 25.5 -17.5t1.5 -29.5l-359 -540h211q12 0 21.5 -9.5t7.5 -21.5l-35 -217q-4 -31 -31 -31h-706q-12 0 -19.5 14.5t0.5 24.5l363 549h-219zM577 999q-56 0 -96.5 48.5t-30 104.5t50.5 88t97 32t96 -48
t29 -105.5t-50 -88.5t-96 -31z" />
    <glyph glyph-name="Zcaron" unicode="&#x17d;" horiz-adv-x="1335" 
d="M279 1075q-12 0 -22.5 9.5t-8.5 23.5l47 293q4 33 31 33h1052q20 0 29.5 -19.5t-2.5 -38.5l-723 -1018h500q12 0 21 -9t7 -23l-45 -293q-4 -33 -32 -33h-1078q-27 0 -37 17.5t2 37.5l723 1020h-464zM844 1559h-23q-16 0 -47 34l-151 170q-23 27 -21 56l8 61q4 33 52 4
l186 -143l244 149q20 12 31.5 2t6.5 -30l-10 -50q-6 -37 -22 -49l-217 -188q-18 -16 -37 -16z" />
    <glyph glyph-name="zcaron" unicode="&#x17e;" horiz-adv-x="925" 
d="M152 588q-12 0 -21.5 8t-7.5 20l35 220q8 31 30 30h703q16 0 25.5 -17.5t1.5 -29.5l-359 -540h211q12 0 21.5 -9.5t7.5 -21.5l-35 -217q-4 -31 -31 -31h-706q-12 0 -19.5 14.5t0.5 24.5l363 549h-219zM563 991q-16 0 -47 35l-151 170q-23 27 -21 55l8 62q4 33 51 4
l187 -143l244 149q20 12 31.5 2t6.5 -31l-10 -49q-6 -37 -22 -49l-217 -188q-18 -16 -37 -17h-23z" />
    <glyph glyph-name="florin" unicode="&#x192;" horiz-adv-x="954" 
d="M819 1157q-135 0 -168 -203l-10 -59h154q12 0 21 -9t7 -24l-45 -293q-4 -31 -30 -30h-162l-97 -609q-23 -135 -109.5 -248.5t-172.5 -119.5q-35 -4 -51 12l-162 178q-20 23 0 43q96 74 104 144l97 600h-66q-12 0 -21.5 10t-7.5 20l50 305q2 20 20 21h80l14 90
q80 465 522 465q140 0 271 -74q23 -14 2 -43l-139 -170q-20 -20 -44 -13t-57 7z" />
    <glyph glyph-name="Scommaaccent" unicode="&#x218;" horiz-adv-x="1390" 
d="M565 -53h158q31 0 29 -31l-27 -160q-10 -72 -68.5 -132t-136.5 -87q-23 -6 -24.5 14.5t20.5 30.5q51 23 87 63t42 87l-104 39q-35 12 -31 36l18 109q6 31 37 31zM639 336q90 0 171 31.5t87 89.5q4 64 -184 94q-248 41 -361 102q-205 113 -168 330q24 156 168 301
q74 74 202 120t290 46q336 0 547 -211q10 -12 9 -31.5t-11 -27.5l-207 -176q-31 -20 -62 -3l-41 23q-110 53 -165.5 61.5t-125 8.5t-133 -26t-67.5 -69q-8 -84 198 -114q125 -23 200 -44.5t167 -67.5q183 -92 141 -327q-30 -166 -170 -304q-162 -157 -492 -158
q-171 0 -299 46t-239 169q-23 27 -2 47l217 182q18 16 47 2q147 -94 283 -94z" />
    <glyph glyph-name="scommaaccent" unicode="&#x219;" horiz-adv-x="909" 
d="M293 -53h158q32 0 28 -31l-26 -160q-10 -72 -68.5 -132t-136.5 -87q-23 -6 -25 14.5t21 30.5q51 23 87 63t42 87l-105 39q-35 12 -30 36l18 109q6 31 37 31zM373 -16q-242 0 -350 118q-18 23 -5 43l97 140q14 18 47 0q98 -49 203.5 -49t101.5 38q0 23 -36 28q-7 1 -36 9
t-50 13.5t-55 16.5t-52.5 19.5t-45 22.5t-40 29.5t-28.5 36t-20.5 43t-5.5 52t8 64.5q27 121 130.5 198t279.5 77q115 0 208 -31t138 -70q20 -18 8 -41l-104 -145q-18 -18 -45 -8q-109 43 -183.5 43t-80.5 -41q0 -20 58 -34.5t85 -23t62.5 -20.5t57.5 -24t46 -28
q86 -57 55 -208q-67 -268 -448 -268z" />
    <glyph glyph-name="uni021A" unicode="&#x21a;" horiz-adv-x="1339" 
d="M539 -57h157q33 0 29 -31l-27 -160q-10 -72 -68.5 -132t-135.5 -87q-23 -6 -25 14.5t20 30.5q51 23 87 63t42 87l-104 39q-35 12 -31 36l19 109q6 31 37 31zM1384 1434q12 0 21.5 -9.5t7.5 -21.5l-47 -295q-4 -33 -31 -33h-360l-166 -1044q-4 -31 -33 -31h-340
q-12 0 -22.5 9t-7.5 22l167 1044h-358q-12 0 -21.5 9.5t-7.5 21.5l45 297q4 31 33 31h1120z" />
    <glyph glyph-name="uni021B" unicode="&#x21b;" horiz-adv-x="851" 
d="M336 -53h158q30 0 28 -31l-26 -160q-10 -72 -68.5 -132t-136.5 -87q-23 -6 -25 14.5t21 30.5q51 23 87 63t42 87l-105 39q-35 12 -30 36l18 109q6 31 37 31zM412 -16q-162 0 -224.5 97t-46.5 247l39 245h-65q-12 0 -22.5 9.5t-8.5 21.5l37 232q4 31 33 30h73l33 215
q4 31 31 31h317q14 0 23.5 -9t7.5 -22l-33 -215h158q12 0 21.5 -9t7.5 -21l-35 -230q-4 -33 -31 -33h-168l-37 -227q-6 -47 3.5 -60.5t41.5 -13.5l97 13q25 6 34 -23l62 -190q8 -31 -23 -45q-115 -43 -325 -43z" />
    <glyph glyph-name="circumflex" unicode="&#x2c6;" horiz-adv-x="716" 
d="M524 1642h21q12 0 47 -34l176 -154q12 -12 8 -39l-14 -92q-6 -31 -39 -8l-207 129l-258 -139q-10 -4 -18 2t-7 18l17 92q4 29 26 45l209 164q25 16 39 16z" />
    <glyph glyph-name="caron" unicode="&#x2c7;" horiz-adv-x="708" 
d="M516 1307h-22q-16 0 -48 34l-151 170q-23 27 -21 56l9 61q4 33 51 4l186 -143l244 149q20 12 32 2t7 -30l-10 -49q-6 -37 -23 -50l-217 -188q-18 -16 -37 -16z" />
    <glyph glyph-name="breve" unicode="&#x2d8;" horiz-adv-x="808" 
d="M552 1315q-112 1 -185 67q-74 66 -97 152q-8 23 15 33l106 43q25 8 39 -17q53 -82 135 -82q111 0 172 88q14 18 35 7l102 -64q18 -10 9 -35q-37 -74 -128 -133t-203 -59z" />
    <glyph glyph-name="dotaccent" unicode="&#x2d9;" horiz-adv-x="462" 
d="M403 1587q57 0 97 -48q40 -47 28 -105q-10 -58 -50 -88t-96 -31q-56 0 -96 48q-40 49 -30 105t50 88t97 31z" />
    <glyph glyph-name="ring" unicode="&#x2da;" horiz-adv-x="669" 
d="M498 1438q39 0 59 24t25 58q4 34 -12 58t-54 24q-68 0 -84 -74q-6 -35 10 -63q17 -27 56 -27zM532 1763q102 1 168 -73q64 -74 44 -184t-92 -170q-73 -60 -172 -60t-165 74q-67 74 -47 184t91 170t173 59z" />
    <glyph glyph-name="ogonek" unicode="&#x2db;" horiz-adv-x="600" 
d="M157 -451q-73 -1 -129 51t-43 139t69 151t124 100l156 2l-72 -72q-20 -20 -49 -70t-36 -101q-7 -50 30 -50q53 0 98 39q23 18 39 -2l35 -39q14 -16 2 -39q-25 -29 -38 -43t-63 -40t-123 -26z" />
    <glyph glyph-name="tilde" unicode="&#x2dc;" horiz-adv-x="841" 
d="M702 1339q-66 0 -119 31q-54 31 -120 31t-107 -37q-18 -16 -45 -4l-45 20q-28 12 -10 45t34 55t64 48q47 26 122 24q76 0 140 -30t86 -31q61 0 107 41q14 12 33 6l55 -25q27 -11 12 -43q-33 -59 -87 -95t-120 -36z" />
    <glyph glyph-name="hungarumlaut" unicode="&#x2dd;" horiz-adv-x="905" 
d="M678 1323l-53 29q-23 14 -7 39l185 233q16 16 41 2l125 -76q31 -26 6 -45l-256 -180q-18 -14 -41 -2zM309 1323l-53 29q-20 14 -8 39l186 233q12 16 41 2l123 -76q14 -10 17 -23t-9 -22l-258 -180q-16 -14 -39 -2z" />
    <glyph glyph-name="gravecomb" unicode="&#x300;" 
d="M-35 1253l-381 220q-20 10 -8 34l88 166q4 10 18.5 13.5t24.5 -5.5l336 -311q14 -18 0 -43l-37 -65q-12 -27 -41 -9z" />
    <glyph glyph-name="acutecomb" unicode="&#x301;" 
d="M-319 1253q-29 -18 -41 9l-37 65q-16 25 0 43l336 311q10 8 24 5t19 -13l88 -166q12 -25 -9 -34z" />
    <glyph glyph-name="uni0302" unicode="&#x302;" 
d="M-172 1647q12 0 47 -35l176 -154q12 -12 8 -39l-14 -92q-6 -31 -39 -8l-207 129l-258 -139q-10 -4 -18 2t-6 18l16 92q4 29 27 45l209 164q25 16 38 17h21z" />
    <glyph glyph-name="tildecomb" unicode="&#x303;" 
d="M-139.5 1339q-65.5 0 -119.5 31t-119.5 31t-106.5 -37q-18 -16 -45 -4l-45 20q-29 12 -11 45t34.5 54.5t64 47t122 25.5t139 -30.5t87.5 -30.5q61 0 106 41q14 12 33 6l55 -25q28 -11 13 -43q-33 -59 -87.5 -95t-120 -36z" />
    <glyph glyph-name="uni0304" unicode="&#x304;" 
d="M-391 1348q-12 0 -20.5 9t-6.5 21l25 133q0 12 9 21.5t19 9.5h414q12 0 21.5 -9t7.5 -20l-21 -135q-4 -31 -30 -30h-418z" />
    <glyph glyph-name="uni0306" unicode="&#x306;" 
d="M-256.5 1315q-111.5 0 -185.5 66.5t-97 152.5q-8 23 15 33l106 43q25 8 39 -17q53 -82 135 -82q111 0 172 88q14 18 35 7l103 -64q18 -10 8 -35q-37 -74 -128 -133t-202.5 -59z" />
    <glyph glyph-name="uni0307" unicode="&#x307;" 
d="M-81 1315q-56 0 -96 48t-30 104.5t50 88t97 31.5t96.5 -48t29 -105.5t-50.5 -88t-96 -30.5z" />
    <glyph glyph-name="uni0308" unicode="&#x308;" 
d="M-41 1343q-55 0 -87 41q-32 42 -24 86t38 68.5t78 24.5t79 -41t20 -92q-16 -87 -104 -87zM-352 1343q-55 0 -87 41q-32 42 -24 86t39 68.5t79 24.5t77.5 -41t19.5 -92q-16 -87 -104 -87z" />
    <glyph glyph-name="uni030A" unicode="&#x30a;" 
d="M-172 1444q39 0 59.5 24.5t24.5 57.5t-11.5 57.5t-54.5 24.5q-68 0 -84 -74q-6 -35 10.5 -62.5t55.5 -27.5zM-189 1282q-99 0 -165 74t-46.5 184t90 169.5t173.5 59.5t167 -73.5t45 -184t-92 -170t-172 -59.5z" />
    <glyph glyph-name="uni030B" unicode="&#x30b;" 
d="M-227 1323l-54 29q-23 14 -6 39l185 233q16 16 41 2l124 -76q12 -10 15.5 -23.5t-8.5 -21.5l-256 -180q-18 -14 -41 -2zM-596 1323l-53 29q-20 14 -8 39l186 233q12 16 41 2l123 -76q14 -10 17 -23.5t-9 -21.5l-258 -180q-16 -14 -39 -2z" />
    <glyph glyph-name="uni030C" unicode="&#x30c;" 
d="M-193 1307h-22q-16 0 -47 34l-152 170q-23 27 -20 56l8 61q4 33 51 4l187 -143l243 149q20 12 31.5 2t7.5 -30l-10 -49q-6 -37 -23 -50l-217 -188q-18 -16 -37 -16z" />
    <glyph glyph-name="uni0312" unicode="&#x312;" 
d="M-182 1296l26 160q10 72 68.5 132.5t136.5 86.5q23 6 25 -14.5t-21 -30.5q-51 -23 -87 -62.5t-42 -86.5l105 -39q35 -12 30 -37l-18 -109q-6 -31 -37 -30h-158q-30 -1 -28 30z" />
    <glyph glyph-name="uni0326" unicode="&#x326;" 
d="M-362 -53h157q33 0 29 -31l-27 -160q-10 -72 -68.5 -132t-136.5 -87q-23 -6 -24.5 14.5t20.5 30.5q51 23 87 63t42 87l-104 39q-35 12 -31 36l19 109q6 31 37 31z" />
    <glyph glyph-name="uni0327" unicode="&#x327;" 
d="M-420 -426q-88 0 -136 32t-58 60q0 14 4 21l53 53q16 14 39 -7.5t57 -21.5q78 0 88 76q6 39 -16.5 42t-38.5 -19.5t-49 -14.5l-84 27q-20 6 -10 26l104 168h178l-65 -92q92 -2 128 -56t20.5 -130t-71 -120t-143.5 -44z" />
    <glyph glyph-name="uni0328" unicode="&#x328;" 
d="M-443.5 -451q-72.5 0 -129 51.5t-43 138.5t70 151.5t123.5 99.5l156 2l-72 -72q-20 -20 -49 -70.5t-36 -100.5t30 -50q53 0 98 39q23 18 39 -2l35 -39q14 -16 2 -39q-25 -29 -38 -43t-63.5 -40t-123 -26z" />
    <glyph glyph-name="uni0335" unicode="&#x335;" 
d="M-733 281q-35 0 -25 30l35 234q6 31 29 30h592q33 0 26 -30l-37 -234q-6 -31 -30 -30h-590z" />
    <glyph glyph-name="uni0336" unicode="&#x336;" 
d="M-1303 281q-31 0 -24 30l35 234q6 31 28 30h1164q31 0 24 -30l-37 -234q-6 -31 -28 -30h-1162z" />
    <glyph glyph-name="uni0337" unicode="&#x337;" 
d="M-465 0h-215q-12 0 -20 9t-5 22l447 1077q12 31 29 31h217q12 1 20 -9t4 -22l-448 -1077q-9 -31 -29 -31z" />
    <glyph glyph-name="uni0338" unicode="&#x338;" 
d="M-541 0h-215q-12 0 -20 9t-4 22l569 1372q12 31 31 31h215q12 0 20 -10t4 -21l-569 -1372q-13 -31 -31 -31z" />
    <glyph glyph-name="uni0394" unicode="&#x394;" horiz-adv-x="1636" 
d="M922 1012l-330 -656h448zM1464 0h-1425q-12 0 -20 9q-7 9 -1 20l719 1372q16 33 41 33h391q25 0 33 -33l287 -1372q2 -9 -6 -19t-19 -10z" />
    <glyph glyph-name="Pi" unicode="&#x3a0;" horiz-adv-x="1374" 
d="M1358 1434q12 0 21 -10t7 -21l-217 -1372q-4 -31 -30 -31h-318q-12 0 -21 9t-7 22l168 1071h-338l-168 -1071q-4 -31 -31 -31h-318q-12 0 -21 9t-7 22l217 1372q0 12 10 21t21 10h1032z" />
    <glyph glyph-name="uni03A9" unicode="&#x3a9;" horiz-adv-x="1558" 
d="M1432 356q12 0 21 -9t7 -21l-47 -295q-4 -31 -31 -31h-596q-23 0 -30 27q-7 62 165 306q67 95 131 230t86 266t-32 196t-214 65q-308 0 -357 -318q-33 -226 91 -582q42 -122 37 -156t-28 -34h-588q-12 0 -21 9t-8 22l48 293q4 33 30 32h101q-74 244 -54 461
q31 273 255 453t538 180t484 -200t108 -478q-59 -217 -174 -416h78z" />
    <glyph glyph-name="uni03BC" unicode="&#x3bc;" horiz-adv-x="1161" 
d="M1026 0h-303q-25 0 -47 31l-41 61q-123 -109 -232 -108q8 0 3 -19l-64 -377q-4 -33 -33 -32h-319q-12 0 -22 9q-9 9 -7 21l197 1250q4 31 30 30h318q12 0 21 -9t8 -21l-72 -467q-16 -109 77 -109q47 0 90 42q42 42 50 95l70 439q4 31 30 30h318q12 0 22 -9t8 -21
l-102 -658q-24 -113 10 -147q8 -7 6 -19t-16 -12z" />
    <glyph glyph-name="pi" unicode="&#x3c0;" horiz-adv-x="1529" 
d="M1483 866q12 0 21 -9t7 -21l-41 -271q-4 -31 -30 -30h-158l-47 -310q-16 -101 24 -192q15 -33 -14 -33h-297q-20 0 -39 31q-66 104 -49 217l43 287h-180l-80 -504q0 -31 -29 -31h-319q-12 0 -22 9q-9 9 -7 22l86 504q-106 0 -211 -80q-14 -10 -32 -1t-15 25l47 297
q4 33 38 48q65 29 108 35q43 7 94 7h1102z" />
    <glyph glyph-name="Wgrave" unicode="&#x1e80;" horiz-adv-x="2166" 
d="M2232 1434q18 0 28.5 -11.5t2.5 -27.5l-676 -1362q-18 -33 -45 -33h-164q-29 0 -37 33l-200 692l-391 -694q-16 -31 -41 -31h-172q-27 0 -33 33l-293 1362q-6 39 25 39h315q29 0 35 -33l153 -684l379 692q12 25 35 25h147q23 0 31 -35l205 -682l358 694q10 23 31 23h307z
M1470 1565l-405 104q-29 8 -21 41l46 152q10 39 51 18l377 -186q20 -10 14 -35l-19 -76q-6 -28 -43 -18z" />
    <glyph glyph-name="wgrave" unicode="&#x1e81;" horiz-adv-x="1507" 
d="M1489 866q12 0 21.5 -8t2.5 -20l-432 -805q-16 -33 -34 -33h-203q-29 0 -33 33l-70 360l-176 -360q-16 -33 -37 -33h-198q-25 0 -33 33l-170 803q-8 31 25 30h305q29 0 32 -32l35 -312l160 312q20 33 35 32h164q29 0 32 -32l68 -312l133 312q12 33 31 32h342zM1004 938
l-381 219q-20 10 -9 35l88 166q4 10 18.5 13t24.5 -5l336 -311q16 -18 0 -43l-37 -66q-11 -26 -40 -8z" />
    <glyph glyph-name="Wacute" unicode="&#x1e82;" horiz-adv-x="2166" 
d="M2232 1434q18 0 28.5 -11.5t2.5 -27.5l-676 -1362q-18 -33 -45 -33h-164q-29 0 -37 33l-200 692l-391 -694q-16 -31 -41 -31h-172q-27 0 -33 33l-293 1362q-6 39 25 39h315q29 0 35 -33l153 -684l379 692q12 25 35 25h147q23 0 31 -35l205 -682l358 694q10 23 31 23h307z
M1075 1563q-37 -10 -43 18l-18 76q-6 25 14 35l377 186q41 20 51 -18l45 -152q8 -33 -20 -41z" />
    <glyph glyph-name="wacute" unicode="&#x1e83;" horiz-adv-x="1507" 
d="M1489 866q12 0 21.5 -8t2.5 -20l-432 -805q-16 -33 -34 -33h-203q-29 0 -33 33l-70 360l-176 -360q-16 -33 -37 -33h-198q-25 0 -33 33l-170 803q-8 31 25 30h305q29 0 32 -32l35 -312l160 312q20 33 35 32h164q29 0 32 -32l68 -312l133 312q12 33 31 32h342zM717 938
q-29 -18 -41 8l-37 66q-16 25 0 43l336 311q10 8 24.5 5t18.5 -13l88 -166q12 -25 -8 -35z" />
    <glyph glyph-name="Wdieresis" unicode="&#x1e84;" horiz-adv-x="2166" 
d="M2232 1434q18 0 28.5 -11.5t2.5 -27.5l-676 -1362q-18 -33 -45 -33h-164q-29 0 -37 33l-200 692l-391 -694q-16 -31 -41 -31h-172q-27 0 -33 33l-293 1362q-6 39 25 39h315q29 0 35 -33l153 -684l379 692q12 25 35 25h147q23 0 31 -35l205 -682l358 694q10 23 31 23h307z
M1434 1595q-55 0 -87 41t-24 85t38 69t78 25t78.5 -41t20.5 -93q-16 -86 -104 -86zM1122 1595q-55 0 -86.5 41t-23.5 85t38.5 69t78.5 25t78 -41t20 -93q-17 -86 -105 -86z" />
    <glyph glyph-name="wdieresis" unicode="&#x1e85;" horiz-adv-x="1507" 
d="M1489 866q12 0 21.5 -8t2.5 -20l-432 -805q-16 -33 -34 -33h-203q-29 0 -33 33l-70 360l-176 -360q-16 -33 -37 -33h-198q-25 0 -33 33l-170 803q-8 31 25 30h305q29 0 32 -32l35 -312l160 312q20 33 35 32h164q29 0 32 -32l68 -312l133 312q12 33 31 32h342zM1010 1028
q-55 0 -87 41t-24 85t38 68.5t78 24.5t78.5 -41t20.5 -92q-16 -86 -104 -86zM698 1028q-55 0 -86.5 41t-23.5 85t38.5 68.5t78.5 24.5t78 -41t20 -92q-17 -86 -105 -86z" />
    <glyph glyph-name="Ygrave" unicode="&#x1ef2;" horiz-adv-x="1417" 
d="M1473 1434q25 0 36 -18.5t-2 -41.5l-571 -770l-94 -571q-4 -33 -33 -33h-340q-12 0 -21.5 8t-7.5 23l92 573l-319 795q-12 35 27 35h331q35 0 56 -43l159 -396l297 412q18 27 54 27h336zM1085 1565l-405 104q-29 8 -21 41l46 152q10 39 51 18l377 -186q20 -10 14 -35
l-19 -76q-6 -28 -43 -18z" />
    <glyph glyph-name="ygrave" unicode="&#x1ef3;" horiz-adv-x="1210" 
d="M1202 866q14 0 21.5 -11t-0.5 -21l-797 -1199q-18 -33 -37 -32h-330q-14 0 -20 13t0 24l328 475l-250 723q-10 29 24 28h295q27 0 31 -30l129 -367l240 365q20 33 34 32h332zM850 938l-381 219q-20 10 -8 35l88 166q4 10 18.5 13t24.5 -5l336 -311q14 -18 0 -43l-37 -66
q-12 -26 -41 -8z" />
    <glyph glyph-name="endash" unicode="&#x2013;" horiz-adv-x="1179" 
d="M109 313q-13 -1 -23 9t-8 22l33 197q4 31 32 30h932q11 0 21 -9t8 -21l-33 -197q-4 -31 -31 -31h-931z" />
    <glyph glyph-name="emdash" unicode="&#x2014;" horiz-adv-x="1748" 
d="M109 313q-13 -1 -23 9t-8 22l33 197q4 31 32 30h1499q12 0 22 -9t9 -21l-33 -197q-4 -31 -30 -31h-1501z" />
    <glyph glyph-name="quoteleft" unicode="&#x2018;" horiz-adv-x="538" 
d="M459 827h-260q-35 0 -29 31q14 68 39 250q19 127 121 231t245 174q20 12 31 -12q8 -23 -10 -33q-219 -125 -250 -323l152 -55q33 -12 28 -35l-30 -197q-4 -31 -37 -31z" />
    <glyph glyph-name="quoteright" unicode="&#x2019;" horiz-adv-x="534" 
d="M297 1434h260q35 0 29 -31q-14 -68 -39 -250q-19 -127 -121 -231t-246 -174q-20 -12 -29 12t9 33q219 125 250 323l-152 55q-33 12 -29 35l31 197q2 31 37 31z" />
    <glyph glyph-name="quotesinglbase" unicode="&#x201a;" horiz-adv-x="538" 
d="M117 279h260q35 0 29 -31q-14 -68 -39 -250q-19 -127 -121 -231t-246 -175q-20 -12 -30 12t10 34q219 125 249 323l-151 55q-33 12 -29 35l31 197q2 31 37 31z" />
    <glyph glyph-name="quotedblleft" unicode="&#x201c;" horiz-adv-x="1105" 
d="M1028 827h-260q-35 0 -29 31q14 68 39 250q20 127 122 231t245 174q20 12 31 -12q8 -23 -11 -33q-219 -125 -250 -323l152 -55q33 -12 29 -35l-31 -197q-4 -31 -37 -31zM461 827h-260q-35 0 -29 31q14 68 39 250q19 127 121 231t246 174q20 13 29 -11t-9 -34
q-219 -125 -250 -323l152 -55q33 -12 28 -35l-30 -197q-2 -31 -37 -31z" />
    <glyph glyph-name="quotedblright" unicode="&#x201d;" horiz-adv-x="1103" 
d="M864 1434h260q35 0 29 -31q-14 -68 -39 -250q-20 -127 -122 -231t-244 -174q-20 -12 -31 12q-8 23 10 33q219 125 250 323l-152 55q-33 12 -28 35l30 197q4 31 37 31zM297 1434h260q35 0 29 -31q-14 -68 -39 -250q-19 -127 -121 -231t-246 -174q-20 -12 -29 12t9 33
q219 125 250 323l-152 55q-33 12 -29 35l31 197q2 31 37 31z" />
    <glyph glyph-name="quotedblbase" unicode="&#x201e;" horiz-adv-x="1105" 
d="M684 279h260q35 0 29 -31q-14 -68 -39 -250q-20 -127 -122 -231t-245 -175q-20 -12 -29 12t9 34q219 125 250 323l-152 55q-33 12 -29 35l31 197q4 31 37 31zM117 279h260q35 0 29 -31q-14 -68 -39 -250q-19 -127 -121 -231t-246 -175q-20 -12 -30 12t10 34
q219 125 249 323l-151 55q-33 12 -29 35l31 197q2 31 37 31z" />
    <glyph glyph-name="dagger" unicode="&#x2020;" horiz-adv-x="1042" 
d="M1024 1114q33 0 27 -29l-31 -198q-6 -31 -37 -31h-250l-131 -825q-4 -31 -33 -31h-229q-12 0 -21 9q-8 9 -6 22l131 825h-249q-35 0 -29 31l31 196q6 31 39 31h249l45 289q4 31 35 31h230q29 0 24 -31l-45 -289h250z" />
    <glyph glyph-name="daggerdbl" unicode="&#x2021;" horiz-adv-x="1042" 
d="M983 856h-250l-45 -278h250q35 0 29 -31l-31 -197q-6 -31 -39 -31h-250l-45 -288q-4 -31 -33 -31h-229q-12 0 -21 9q-8 9 -6 22l45 288h-252q-31 0 -24 29l29 199q6 31 39 31h249l45 278h-249q-35 0 -29 31l31 196q6 31 39 31h249l45 289q4 31 35 31h230q29 0 24 -31
l-45 -289h250q33 0 27 -29l-31 -198q-6 -31 -37 -31z" />
    <glyph glyph-name="bullet" unicode="&#x2022;" horiz-adv-x="798" 
d="M417 371q-128 0 -207 99q-78 100 -60 228t110 206t221 79q129 0 212 -99q83 -100 62 -228t-115 -206t-223 -79z" />
    <glyph glyph-name="ellipsis" unicode="&#x2026;" horiz-adv-x="1748" 
d="M1247 0q-35 0 -28 31l45 288q6 29 36 29h285q35 0 29 -29l-45 -288q-6 -31 -37 -31h-285zM666 0q-35 0 -29 31l45 288q6 29 37 29h285q35 0 28 -29l-45 -288q-6 -31 -37 -31h-284zM82 0q-35 0 -29 31l45 288q6 29 37 29h285q35 0 29 -29l-46 -288q-6 -31 -36 -31h-285z
" />
    <glyph glyph-name="perthousand" unicode="&#x2030;" horiz-adv-x="3020" 
d="M2536 258q58 0 90 54q33 54 51 161q18 78 8 125t-64 47q-115 0 -153 -217q-16 -98 -3 -134t71 -36zM1704 258q58 0 90 54t51 161q40 172 -55 172q-115 0 -154 -217q-16 -98 -2 -134q12 -36 70 -36zM2510 -16q-190 0 -268 114t-39 366q40 251 142 353q102 103 292 103
q189 0 267 -117t38 -365t-140 -351q-102 -103 -292 -103zM1680 -16q-190 0 -270 114q-79 114 -39 366q40 251 142 353q102 103 292 103t268 -117q77 -117 37 -365t-140 -351t-290 -103zM502 791q58 0 90 54t51 161q18 78 8 124t-63 48q-115 0 -154 -217q-16 -98 -3 -135
q13 -35 71 -35zM629 0q-12 0 -20 8q-7 8 -1 21l793 1386q4 6 7 9q3 4 4 6q2 4 60 4h166q12 0 22 -10t1 -19l-782 -1374q-18 -31 -50 -31h-200zM603 1452q189 0 267 -117t38 -365t-140 -350q-100 -104 -292 -104q-190 0 -268 115t-39 366q40 251 142 353t292 102z" />
    <glyph glyph-name="guilsinglleft" unicode="&#x2039;" horiz-adv-x="755" 
d="M590 -16h-187q-25 0 -43 32l-239 349q-29 43 -27 59l2 16q2 16 27 41l375 373q25 29 53 29h176q12 1 18 -9t-2 -20l-346 -420l213 -420q6 -12 -1 -21t-19 -9z" />
    <glyph glyph-name="guilsinglright" unicode="&#x203a;" horiz-adv-x="755" 
d="M352 883q25 0 43 -33l240 -348q29 -43 27 -60q-6 -33 -29 -57l-375 -373q-25 -29 -53 -28h-176q-12 0 -19 9q-6 9 2 19l346 420l-213 420q-6 12 1 21t20 10h186z" />
    <glyph glyph-name="fraction" unicode="&#x2044;" horiz-adv-x="471" 
d="M-225 0q-12 0 -20 8q-7 8 -1 21l793 1386q4 6 7 9q3 4 4 6q2 4 60 4h166q12 0 22 -10t1 -19l-782 -1374q-18 -31 -50 -31h-200z" />
    <glyph glyph-name="uni2070" unicode="&#x2070;" horiz-adv-x="903" 
d="M526 944q58 0 90 54t52 161q18 78 8 125t-64 47q-115 0 -153 -217q-16 -98 -3 -134q12 -36 70 -36zM502 670q-190 0 -270 114q-78 114 -38 366q40 251 142 353q102 103 292 103t268 -117t37 -365t-141 -351t-290 -103z" />
    <glyph glyph-name="uni2074" unicode="&#x2074;" horiz-adv-x="897" 
d="M451 1077h116l33 199zM893 1077q29 0 25 -26l-31 -185q-4 -27 -27 -26h-65l-21 -135q-4 -29 -29 -29h-213q-29 0 -24 26l20 138h-354q-31 0 -27 26l21 135q2 18 25 50l393 503q18 23 37 23h260q31 0 26 -27l-75 -473h59z" />
    <glyph glyph-name="uni2075" unicode="&#x2075;" horiz-adv-x="864" 
d="M492 911q50 0 84 26q32 26 34 71q6 61 -42 62t-89 -42q-12 -10 -43 -4l-209 47q-29 6 -22 31l147 457q10 29 29 28h493q29 0 25 -26l-27 -187q-4 -29 -28 -28h-322l-22 -60q180 45 290 -49t80 -276q-20 -123 -105 -207t-261 -84t-259 93t-61 185q8 29 29 29h209
q8 0 15 -11t5 -26q0 -29 50 -29z" />
    <glyph glyph-name="uni2076" unicode="&#x2076;" horiz-adv-x="843" 
d="M522 928q27 0 46 22q18 22 22 52q4 32 -12 48t-43 15q-27 0 -45 -26t-21 -56q-2 -55 53 -55zM600 1298q125 0 200 -97q76 -97 54 -232t-124 -218t-238 -83q-134 0 -210 74t-88 183q-13 108 1 228q31 188 144 318q114 130 290 131q135 0 194 -72t60 -156q0 -27 -6 -35
t-23 -8h-186q-18 0 -25 29q-8 18 -44 18q-37 0 -59 -26t-38 -76q45 22 98 22z" />
    <glyph glyph-name="uni2077" unicode="&#x2077;" horiz-adv-x="851" 
d="M256 1339q-31 0 -27 29l31 182q4 29 29 29h635q12 0 18 -9t0 -22l-477 -846q-10 -25 -35 -24h-248q-12 0 -18 8t0 21l362 632h-270z" />
    <glyph glyph-name="uni2078" unicode="&#x2078;" horiz-adv-x="843" 
d="M588 972q-4 32 -62 66q-109 -35 -108 -88q0 -39 89 -39q88 -1 81 61zM559 1362q-56 0 -61 -53q6 -46 43 -60q37 13 61 33t23 41q-10 39 -66 39zM595 1604q153 0 227 -86t55 -213q-25 -123 -84 -197q67 -62 49 -184t-110 -188t-260 -66q-169 0 -252 81t-58 207
q18 106 106 185q-42 84 -22 200q20 117 108 189t241 72z" />
    <glyph glyph-name="uni2079" unicode="&#x2079;" horiz-adv-x="845" 
d="M553 1219q57 -1 62 69t-58 70q-29 0 -51 -16t-25 -46q-3 -31 21 -54t51 -23zM461 670q-153 0 -219 68t-68 155q0 43 29 43h186q17 0 29 -29q6 -4 41 -4q35 1 55 15t42 46t24 33q-29 -25 -88 -24q-150 0 -225 99q-75 100 -48 244t133 216t240 72q184 0 252 -136t28 -360
q-76 -438 -411 -438z" />
    <glyph glyph-name="Euro" unicode="&#x20ac;" horiz-adv-x="1257" 
d="M825 653q29 0 25 -30l-23 -146q-4 -31 -34 -31h-230q10 -61 48 -86q37 -24 109 -24t142 31t104 59t48 -2l141 -264q10 -20 -16 -43q-76 -57 -197 -95t-246 -38q-231 0 -362 118t-154 342l-69 2q-13 0 -21 10t-6 21l22 146q2 12 14 21t23 9h45l11 64q0 6 8 63h-45
q-27 0 -23 31l23 145q4 31 35 31h69q160 463 666 463q193 0 377 -121q27 -18 0 -45l-205 -235q-23 -27 -45 -13q-74 58 -202 58t-193 -105l215 -2q12 0 20 -9t6 -22l-22 -145q-3 -12 -15 -21t-24 -10h-246l-8 -65l-10 -62h245z" />
    <glyph glyph-name="uni2117" unicode="&#x2117;" horiz-adv-x="1628" 
d="M954 756q29 0 29 34t-10 58t-25 24h-127v-116h133zM1004 1069q96 -1 156 -77t61 -184q0 -108 -71 -179q-71 -70 -167 -70h-162v-172q0 -18 -18 -18h-199q-23 0 -22 18v662q0 20 20 20h402zM859 188q224 0 364 152q139 152 139 376t-139 377t-363 153t-363 -154
q-139 -152 -139 -377t138 -376t363 -151zM860 -16q-303 0 -518 214t-215 518t215 519t518 215t517 -215t214 -519t-214 -518t-517 -214z" />
    <glyph glyph-name="trademark" unicode="&#x2122;" horiz-adv-x="1361" 
d="M1405 1434q12 0 10 -13l-82 -526q-2 -12 -14 -12h-176q-16 0 -13 12l27 168l-125 -168q-10 -12 -20 -12h-17q-10 0 -14 12l-78 170l-26 -170q-4 -12 -17 -12h-174q-14 0 -10 12l82 526q4 12 12 13h188q12 0 17 -13l78 -219l141 219q12 12 23 13h188zM692 1434q12 0 8 -13
l-22 -143q0 -12 -12 -12h-113l-57 -371q-4 -12 -15 -12h-176q-14 0 -10 12l57 371h-106q-10 0 -10 10l22 145q4 12 14 13h420z" />
    <glyph glyph-name="uni2153" unicode="&#x2153;" horiz-adv-x="2138" 
d="M1752 918q165 0 245 -76t55 -224q-14 -80 -48 -116t-87 -58q37 -14 70 -67t17 -150t-102 -171q-85 -74 -249 -72q-102 0 -174 30t-104 78q-60 88 -46 172q4 29 29 29h192q19 0 25 -12t6 -17q29 -39 76 -39q86 0 98 45q0 10 2 24t-24 29q-27 13 -80 13h-25q-31 0 -26 29
l26 165q4 29 27 29h12q112 1 127 63q6 26 -10 40t-43 14q-68 0 -87 -34t-36 -34h-211q-23 0 -23 23q2 91 102 189t266 98zM729 772q31 0 27 -29l-29 -182q-4 -29 -27 -29h-573q-29 0 -25 27l27 184q6 29 29 29h157l62 391l-135 -20q-31 -5 -27 20l29 174q2 23 32 37l138 53
q8 6 32 7h209q29 0 25 -27l-98 -635h147zM598 0q-12 0 -19 8t-1 21l792 1386q4 6 7 9q3 2 4 6t59 4h168q12 0 21 -10t1 -19l-782 -1374q-18 -31 -49 -31h-201z" />
    <glyph glyph-name="uni2154" unicode="&#x2154;" horiz-adv-x="2234" 
d="M1849 918q165 0 245 -76t54 -224q-14 -80 -48 -116t-87 -58q37 -14 70 -67t17 -150t-102 -171q-85 -74 -249 -72q-102 0 -174 30q-121 51 -146 165q-24 114 25 114h193q18 0 24 -12t6 -17q29 -39 76 -39q86 0 98 45q0 10 2 24t-24 29q-27 13 -80 13h-25q-31 0 -26 29
l26 165q4 29 27 29h12q113 1 127 63q6 26 -10 40t-43 14q-68 0 -87 -34t-36 -34h-211q-23 0 -22 23q3 91 103 189t265 98zM694 0q-12 0 -19 8t-1 21l792 1386q4 6 8 9q4 4 4 6q2 4 60 4h166q12 0 21 -10t1 -19l-782 -1374q-18 -31 -49 -31h-201zM598 1450q166 0 242 -76
t53 -212t-154 -242l-178 -146h240q29 0 24 -29l-28 -184q-4 -29 -29 -29h-606q-29 0 -25 27l25 170q2 18 22 39l236 190q190 156 198 226q2 14 -11 20t-36 6q-66 0 -98 -45q-12 -29 -31 -28h-196q-27 -1 -27 31q0 74 74 167q39 49 119 82t186 33z" />
    <glyph glyph-name="oneeighth" unicode="&#x215b;" horiz-adv-x="2156" 
d="M1622 264q0 -39 88 -39q88 -1 83 61q-3 32 -62 66q-109 -35 -109 -88zM1774 676q-66 0 -72 -53q6 -46 43 -60q37 13 61 33t23 41q-10 39 -55 39zM1800 918q152 0 226 -86t55 -214q-25 -122 -84 -196q67 -62 49 -184t-110 -188t-260 -66q-169 0 -252 81t-58 207
q18 106 107 185q-41 84 -23 207q20 110 108 182q90 72 242 72zM729 772q31 0 27 -29l-29 -182q-4 -29 -27 -29h-573q-29 0 -25 27l27 184q6 29 29 29h157l62 391l-135 -20q-31 -5 -27 20l29 174q2 23 32 37l138 53q8 6 32 7h209q29 0 25 -27l-98 -635h147zM623 0
q-12 0 -20 8q-7 8 -1 21l793 1386q4 6 7 9q3 4 4 6q2 4 60 4h166q12 0 22 -10t1 -19l-783 -1374q-18 -31 -49 -31h-200z" />
    <glyph glyph-name="threeeighths" unicode="&#x215c;" horiz-adv-x="2177" 
d="M1642 264q0 -39 78 -39q100 -1 94 61q-4 32 -63 66q-109 -35 -109 -88zM1794 676q-66 0 -72 -53q6 -46 43 -60q37 13 62 33t22 41q-10 39 -55 39zM1820 918q152 0 227 -86t54 -214q-25 -122 -84 -196q67 -62 49 -184t-109 -188t-260 -66t-252 81t-62 197t110 195
q-41 84 -23 207q20 110 108 182q90 72 242 72zM639 0q-12 0 -19 8t-2 21l793 1386q4 6 7 9q3 2 4 6t59 4h168q12 0 21 -10t1 -19l-782 -1374q-18 -31 -49 -31h-201zM585 1450q165 0 245 -76t55 -223q-14 -80 -48 -117t-87 -57q38 -13 70 -67t16 -151t-102 -170t-249 -73
q-102 0 -174 31q-71 31 -103 78q-59 88 -46 172q4 29 28 28h193q21 0 29 -21q2 -5 2 -7q29 -39 75 -39q86 0 99 45q0 10 2 24q2 13 -25 27t-80 14h-24q-31 0 -27 29l27 166q4 29 26 29h13q113 0 127 62q5 26 -11 40t-43 14q-68 0 -87 -34t-35 -33h-211q-23 0 -23 22
q2 92 102 190q101 97 266 97z" />
    <glyph glyph-name="fiveeighths" unicode="&#x215d;" horiz-adv-x="2185" 
d="M1822 286q-4 32 -63 66q-109 -35 -108 -88q0 -39 89 -39q89 -1 82 61zM1792 676q-56 0 -61 -53q6 -46 43 -60q38 13 62 33t22 41q-10 39 -66 39zM1828 918q154 0 228 -86t53 -214q-25 -122 -84 -196q68 -62 50 -184q-17 -122 -109 -188t-261 -66t-252 81t-58 207
q18 106 106 185q-41 84 -21 200q20 117 107 189q88 72 241 72zM479 516q-176 0 -259 93t-60 186q8 29 28 28h209q7 0 15 -11q8 -12 7 -26t8 -21t50 -7t74 26t35 70q6 61 -42 62t-89 -42q-12 -10 -43 -4l-209 48q-29 6 -23 30l148 457q10 29 28 29h494q29 0 24 -27l-26 -186
q-4 -29 -29 -29h-321l-23 -59q180 45 291 -49t80 -277q-20 -123 -106 -207t-261 -84zM639 0q-12 0 -19 8t-2 21l793 1386q4 6 7 9q3 2 4 6t59 4h168q12 0 21 -10t1 -19l-782 -1374q-18 -31 -49 -31h-201z" />
    <glyph glyph-name="seveneighths" unicode="&#x215e;" horiz-adv-x="1968" 
d="M1511 225q99 -1 93 61q-4 32 -62 66q-109 -35 -108 -88q0 -39 77 -39zM1585 676q-66 0 -72 -53q6 -46 43 -60q37 13 62 33t22 41q-10 39 -55 39zM1611 918q153 0 227 -86t54 -214q-25 -122 -84 -196q68 -62 50 -184t-110 -188q-91 -66 -260 -66t-252 81t-58 207
q18 106 106 185q-42 84 -22 200q20 117 108 189t241 72zM233 1194q-31 0 -26 29l31 182q4 29 28 29h635q13 0 19 -10t0 -21l-478 -846q-10 -25 -34 -25h-248q-12 0 -18 8t-1 21l363 633h-271zM424 0q-12 0 -20 8q-7 8 -1 21l793 1386q4 6 7 9q3 2 4 6t59 4h168q12 0 21 -10
t1 -19l-782 -1374q-18 -31 -49 -31h-201z" />
    <glyph glyph-name="arrowleft" unicode="&#x2190;" horiz-adv-x="1605" 
d="M1509 819q29 0 29 -31v-315q0 -31 -29 -31h-802l208 -225q25 -23 3 -45l-142 -141q-22 -23 -45 2l-618 571q-9 10 -9 26t9 23l618 574q23 23 45 2l142 -142q20 -23 -3 -45l-210 -223h804z" />
    <glyph glyph-name="arrowup" unicode="&#x2191;" horiz-adv-x="1366" 
d="M926 29q0 -29 -31 -29h-315q-31 0 -31 29v805l-223 -211q-23 -25 -45 -2l-142 141q-20 20 2 45l574 618q8 9 23 9t26 -9l571 -618q25 -25 2 -45l-141 -141q-23 -23 -45 2l-225 208v-802z" />
    <glyph glyph-name="arrowright" unicode="&#x2192;" horiz-adv-x="1605" 
d="M158 442q-29 0 -29 31v315q0 31 29 31h805l-211 223q-23 23 -2 45l141 142q23 20 45 -2l618 -574q8 -8 8 -23t-8 -26l-618 -571q-23 -25 -45 -2l-141 141q-23 23 2 45l209 225h-803z" />
    <glyph glyph-name="arrowdown" unicode="&#x2193;" horiz-adv-x="1366" 
d="M530 1405q0 29 31 29h316q31 0 30 -29v-805l223 211q25 25 46 2l141 -141q23 -20 -2 -45l-574 -619q-8 -8 -23 -8t-26 8l-571 619q-23 25 -2 45l141 141q23 23 45 -2l225 -209v803z" />
    <glyph glyph-name="arrowboth" unicode="&#x2194;" horiz-adv-x="2056" 
d="M2015 636q0 -15 -8 -26l-618 -571q-25 -23 -46 -2l-141 141q-23 23 2 45l209 226h-704l209 -226q25 -23 2 -45l-142 -141q-20 -20 -45 2l-618 571q-9 10 -9 26t9 23l618 574q25 25 45 2l142 -141q23 -20 -2 -45l-211 -224h708l-211 224q-25 25 -2 45l141 141q20 23 46 -2
l618 -574q8 -8 8 -23z" />
    <glyph glyph-name="arrowupdn" unicode="&#x2195;" horiz-adv-x="1464" 
d="M777 1671q15 0 26 -8l571 -619q23 -25 2 -45l-141 -141q-23 -23 -45 2l-225 209v-704l225 208q22 25 45 2l141 -141q20 -20 -2 -45l-571 -618q-9 -9 -25 -9t-24 9l-574 618q-25 25 -2 45l141 141q20 23 46 -2l223 -211v709l-223 -211q-25 -25 -46 -2l-141 141
q-23 20 2 45l574 619q8 8 23 8z" />
    <glyph glyph-name="uni2196" unicode="&#x2196;" horiz-adv-x="1429" 
d="M1085 848q0 -29 -32 -29l-308 -10l570 -569q20 -18 -2 -41l-223 -224q-20 -20 -41 -2l-570 568l-10 -305q0 -35 -31 -35h-200q-31 0 -31 35l-33 839q2 15 12 25t23 10l844 -31q33 0 32 -30v-201z" />
    <glyph glyph-name="uni2197" unicode="&#x2197;" horiz-adv-x="1259" 
d="M1124 201h-200q-31 0 -31 35l-10 305l-570 -568q-18 -18 -41 2l-223 224q-20 23 -2 41l569 569l-307 10q-33 0 -33 29v201q0 31 33 30l844 31q26 0 35 -35l-33 -839q0 -35 -31 -35z" />
    <glyph glyph-name="uni2198" unicode="&#x2198;" horiz-adv-x="1429" 
d="M393 135v201q0 31 35 31l305 10l-567 569q-18 20 2 41l223 223q23 23 41 2l569 -569l11 307q0 33 28 33h201q31 0 31 -33l31 -844q-1 -12 -11 -22t-24 -12l-840 32q-35 0 -35 31z" />
    <glyph glyph-name="uni2199" unicode="&#x2199;" horiz-adv-x="1259" 
d="M188 983h201q29 0 29 -33l10 -307l569 569q18 20 41 -2l224 -223q20 -20 2 -41l-568 -569l305 -10q35 0 35 -31v-201q0 -31 -35 -31l-839 -32q-14 2 -25 12q-10 10 -10 22l31 844q0 33 30 33z" />
    <glyph glyph-name="partialdiff" unicode="&#x2202;" horiz-adv-x="1110" 
d="M508 262q53 0 102 45t64 146q25 145 -76 145q-57 0 -106.5 -47t-63.5 -143q-22 -146 80 -146zM510 -16q-213 0 -338 139t-93 324.5t185.5 310.5t341.5 125q11 0 29 9t27 11q-12 66 -86 149t-177 146q-31 14 -12 43l129 195q14 23 51 8q103 -22 240 -161
q78 -79 141.5 -179t95.5 -250.5t7 -316.5q-41 -272 -184.5 -412.5t-356.5 -140.5z" />
    <glyph glyph-name="emptyset" unicode="&#x2205;" horiz-adv-x="1673" 
d="M805 342q166 0 280.5 111.5t141.5 283.5q6 39 6 78l-528 -457q49 -16 100 -16zM682 977q-145 -142 -152 -361l531 457q-49 16 -98 17q-165 0 -281 -113zM784 -16q-221 0 -383 114l-104 -90q-25 -23 -51 8l-150 177q-23 31 4 51l99 86q-92 190 -58 407q47 299 289 506
t551 207q213 0 383 -115l109 95q27 23 45 0l159 -187q23 -25 2 -43l-114 -100q92 -186 55 -408q-47 -297 -286.5 -502.5t-549.5 -205.5z" />
    <glyph glyph-name="product" unicode="&#x220f;" horiz-adv-x="1517" 
d="M1548 1434q35 0 29 -31l-43 -270q-6 -31 -39 -31h-70l-168 -1069q-6 -33 -34 -33h-316q-33 0 -26 33l168 1069h-371l-168 -1069q-6 -33 -35 -33h-315q-33 0 -27 33l168 1069h-70q-33 0 -26 31l43 270q6 31 37 31h1263z" />
    <glyph glyph-name="summation" unicode="&#x2211;" horiz-adv-x="1228" 
d="M1077 260q33 0 27 -31l-31 -198q-6 -31 -37 -31h-977q-35 0 -28 31l28 196q2 10 23 31l524 459l-381 457q-12 14 -8 30l31 199q6 31 37 31h977q35 0 28 -31l-30 -197q-6 -33 -39 -32h-562l314 -369q10 -14 8 -23l-18 -129q0 -4 -17 -24l-428 -369h559z" />
    <glyph glyph-name="minus" unicode="&#x2212;" horiz-adv-x="1181" 
d="M150 569q-12 -1 -22 9t-9 22l33 197q4 31 32 30h932q12 0 22 -9t7 -21l-33 -197q-4 -31 -31 -31h-931z" />
    <glyph glyph-name="radical" unicode="&#x221a;" horiz-adv-x="1409" 
d="M1235 1434h254q18 0 24 -14t-4 -31l-807 -1360q-12 -29 -36 -29h-88q-20 0 -31 29l-211 602l-129 -64q-35 -18 -41 11l-66 174q-6 29 23 43q76 37 208 103q133 66 163 79q30 14 43 -19l149 -395l500 840q14 31 49 31z" />
    <glyph glyph-name="infinity" unicode="&#x221e;" horiz-adv-x="1742" 
d="M1226 541q32 0 58 7t54 37q30 30 38 77q12 90 -73 90q-47 0 -114 -32t-122 -95q27 -43 77 -63t82 -21zM516 541q39 1 109 33t120 92q-57 86 -176 86t-133 -107q-6 -57 18 -81t62 -23zM1325 1036q166 0 277 -116q112 -116 80 -284q-32 -167 -162 -275t-281 -107
q-109 0 -205 58t-147 143q-82 -89 -192 -145t-212 -56q-163 0 -271 124t-82 291t157 267t286 100q111 0 209 -53t146 -127q78 82 186 131t211 49z" />
    <glyph glyph-name="integral" unicode="&#x222b;" horiz-adv-x="1263" 
d="M1030 1669q156 -1 234 -69t57 -201l-12 -86q-6 -35 -37 -35h-228q-31 0 -24 33l6 39q10 59 -35 59h-14q-18 0 -34 -15q-17 -15 -21 -40l-232 -1454q-37 -252 -371 -252h-14q-155 0 -233 68t-58 202l13 86q6 33 36 33h228q31 0 24 -31l-6 -39q-10 -61 35 -61h14
q17 0 33 16t21 41l231 1454q41 252 371 252h16z" />
    <glyph glyph-name="approxequal" unicode="&#x2248;" horiz-adv-x="1120" 
d="M733 342q-104 0 -185 34t-137 34t-132 -40t-98 -35t-29 27l-43 80q-10 25 -7 41q6 37 110 109t210 72q108 0 188 -34t128 -34t118 40t96 37t37 -26l47 -90q12 -27 -4 -49q-143 -166 -299 -166zM801 772q-103 0 -185 34t-138 34t-132 -40t-98 -35t-29 28l-43 79
q-10 25 -6 41q6 37 110 109t210 72q108 0 188 -34t128 -34t118 40t96 37t37 -26l47 -90q12 -27 -4 -49q-143 -166 -299 -166z" />
    <glyph glyph-name="notequal" unicode="&#x2260;" horiz-adv-x="1181" 
d="M1149 1036q12 0 21 -9t8 -21l-33 -197q-4 -31 -31 -31h-270l-84 -116h330q12 0 21 -10t7 -21l-33 -197q-4 -31 -30 -31h-480l-153 -213q-18 -27 -47 -8l-162 99q-29 14 -14 38l59 84h-135q-13 -1 -23 9t-8 22l33 197q4 31 33 31h286l84 116h-346q-12 0 -22 9t-8 22
l32 197q4 31 33 30h496l149 209q18 23 47 10l166 -102q27 -16 8 -43l-53 -74h119z" />
    <glyph glyph-name="lessequal" unicode="&#x2264;" horiz-adv-x="1175" 
d="M59 -18q-10 0 -20 9t-8 21l32 197q4 31 31 31h918q12 0 21 -10t7 -19l-32 -199q-4 -31 -29 -30h-920zM578 700l485 -219q27 -14 10 -41l-96 -170q-16 -31 -47 -18l-783 344q-18 8 -14 37q15 94 21 131t28 45l893 340q31 12 39 -19l47 -180q0 -31 -24 -41z" />
    <glyph glyph-name="greaterequal" unicode="&#x2265;" horiz-adv-x="1177" 
d="M61 -18q-12 0 -21 9t-7 21l33 197q4 31 30 31h918q12 0 21 -10t7 -19l-32 -199q-4 -31 -29 -30h-920zM688 707l-485 219q-27 14 -10 41l96 170q16 31 47 18l782 -344q18 -8 15 -37q-15 -94 -21 -131t-29 -45l-893 -340q-31 -12 -38 18l-48 181q0 31 25 41z" />
    <glyph glyph-name="lozenge" unicode="&#x25ca;" horiz-adv-x="1214" 
d="M705 1036h-3q-2 0 -2 -2l-204 -317l104 -316q0 -4 2 -4q2 2 2 4l207 316l-106 315v4zM625 0h-170q-39 0 -52 31l-256 626q-12 36 -9 59t28 58l455 627q25 33 61 33h168q41 0 53 -33l254 -627q13 -33 9 -58q-3 -25 -27 -59l-453 -626q-23 -31 -61 -31z" />
    <glyph glyph-name="heart" unicode="&#x2665;" horiz-adv-x="1923" 
d="M1406 1155q-70 0 -138 -33q-70 -33 -130 -98t-78 -102t-25 -37t-11 4t-23 52q-18 48 -42 92t-81 83q-58 39 -140 39t-132 -37q-52 -37 -76 -88t-22 -138t48 -168t160 -203t206 -179q106 53 276 181t246 210q127 141 117 301q-2 33 -10 57q-7 24 -41 44t-104 20zM739 1450
q274 0 353 -209q143 209 417 209q227 0 324 -141t51 -354q-66 -290 -398 -574q-194 -166 -560 -387q-20 -10 -36 -10t-32 10q-304 225 -444 395q-247 301 -210 572q28 215 165 348q150 141 370 141z" />
    <glyph glyph-name="AE.ss01" horiz-adv-x="2353" 
d="M727 473h324l84 528zM2374 1434q12 0 22 -9.5t8 -21.5l-47 -295q-4 -33 -33 -33h-776l-28 -180h362q12 0 21.5 -10.5t7.5 -22.5l-49 -291q-4 -33 -31 -32h-369l-30 -181h772q12 0 21 -9t7 -21l-45 -297q-4 -31 -33 -31h-1144q-12 0 -21.5 9t-7.5 22l14 86h-546l-60 -86
q-25 -31 -49 -31h-332q-20 0 -30.5 18.5t2.5 36.5l1005 1356q14 23 41 23h1348z" />
    <glyph glyph-name="B.ss01" horiz-adv-x="1452" 
d="M858 356q106 0 119 107q6 37 -11.5 62.5t-62.5 25.5h-344l-31 -195h330zM940 1077h-295l-31 -194h265q47 0 84.5 27.5t44 67.5t-12 69.5t-55.5 29.5zM936 0h-830q-12 0 -21 9t-7 22l217 1372q4 31 29 31h763q156 0 249.5 -131.5t68.5 -304.5t-154 -283
q66 -55 98.5 -142.5t16.5 -183.5q-25 -164 -144.5 -276.5t-285.5 -112.5z" />
    <glyph glyph-name="C.ss01" horiz-adv-x="1374" 
d="M653 -16q-272 0 -421.5 200.5t-95.5 548.5t249 532.5t465 184.5q217 0 352 -120t158 -357q2 -27 -25 -33l-293 -51q-18 -4 -32.5 9t-16.5 38q-6 72 -51 115t-113 43q-236 0 -301 -400q-53 -358 146 -358q98 0 150.5 47t88.5 133q10 29 39 25l305 -54q18 -4 27.5 -21
t1.5 -38q-199 -444 -633 -444z" />
    <glyph glyph-name="Cacute.ss01" horiz-adv-x="1374" 
d="M653 -16q-272 0 -421.5 200.5t-95.5 548.5t249 532.5t465 184.5q217 0 352 -120t158 -357q2 -27 -25 -33l-293 -51q-18 -4 -32.5 9t-16.5 38q-6 72 -51 115t-113 43q-236 0 -301 -400q-53 -358 146 -358q98 0 150.5 47t88.5 133q10 29 39 25l305 -54q18 -4 27.5 -21
t1.5 -38q-199 -444 -633 -444zM690 1563q-37 -10 -43 18l-18 76q-6 25 14 35l377 186q41 20 51 -18l45 -152q8 -33 -20 -41z" />
    <glyph glyph-name="Ccaron.ss01" horiz-adv-x="1374" 
d="M653 -16q-272 0 -421.5 200.5t-95.5 548.5t249 532.5t465 184.5q217 0 352 -120t158 -357q2 -27 -25 -33l-293 -51q-18 -4 -32.5 9t-16.5 38q-6 72 -51 115t-113 43q-236 0 -301 -400q-53 -358 146 -358q98 0 150.5 47t88.5 133q10 29 39 25l305 -54q18 -4 27.5 -21
t1.5 -38q-199 -444 -633 -444zM883 1559h-23q-16 0 -47 34l-151 170q-23 27 -21 56l8 61q4 33 51 4l187 -143l243 149q20 12 32 2t7 -30l-10 -50q-6 -37 -22 -49l-217 -188q-18 -16 -37 -16z" />
    <glyph glyph-name="Ccedilla.ss01" horiz-adv-x="1374" 
d="M829 1094q-236 0 -301 -400q-53 -358 146 -358q98 0 150.5 47t88.5 133q10 29 39 25l305 -54q18 -4 27.5 -21t1.5 -38q-184 -414 -575 -442l-37 -54q92 -2 128 -56t20.5 -130t-71 -120t-143.5 -44t-136 32t-58 60q0 14 4 21l53 53q16 14 39 -7.5t57 -21.5q78 0 88 76
q6 39 -16.5 42t-38.5 -20t-49 -14l-84 27q-20 6 -10 27l86 137q-225 41 -341 236.5t-64 523t247 512t465 184.5q217 0 352 -119.5t158 -357.5q2 -27 -25 -33l-293 -51q-18 -4 -32.5 9t-16.5 38q-6 72 -51 115t-113 43z" />
    <glyph glyph-name="Cdotaccent.ss01" horiz-adv-x="1374" 
d="M653 -16q-272 0 -421.5 200.5t-95.5 548.5t249 532.5t465 184.5q217 0 352 -120t158 -357q2 -27 -25 -33l-293 -51q-18 -4 -32.5 9t-16.5 38q-6 72 -51 115t-113 43q-236 0 -301 -400q-53 -358 146 -358q98 0 150.5 47t88.5 133q10 29 39 25l305 -54q18 -4 27.5 -21
t1.5 -38q-199 -444 -633 -444zM874 1567q-56 0 -96.5 48t-30 104t50.5 88t97 32t96 -48t29 -105.5t-50 -88t-96 -30.5z" />
    <glyph glyph-name="D.ss01" horiz-adv-x="1523" 
d="M948 1075h-303l-117 -717h285q84 0 139.5 47.5t67.5 129.5l59 385q12 82 -17.5 118.5t-113.5 36.5zM1042 1434q227 0 353.5 -130t89.5 -364l-76 -471q-37 -233 -191.5 -351t-381.5 -118h-730q-12 0 -21 9t-7 22l215 1372q4 31 33 31h716z" />
    <glyph glyph-name="Eth.ss01" horiz-adv-x="1523" 
d="M948 1075h-303l-35 -213h95q33 0 26 -31l-37 -233q-6 -31 -30 -31h-101l-35 -209h285q84 0 139.5 47.5t67.5 129.5l59 385q12 82 -17.5 118.5t-113.5 36.5zM1042 1434q227 0 353.5 -130t89.5 -364l-76 -471q-37 -233 -191.5 -351t-381.5 -118h-730q-12 0 -21 9t-7 22
l84 536h-88q-33 0 -25 31l35 233q6 31 29 31h96l84 541q4 31 33 31h716z" />
    <glyph glyph-name="Dcaron.ss01" horiz-adv-x="1523" 
d="M948 1075h-303l-117 -717h285q84 0 139.5 47.5t67.5 129.5l59 385q12 82 -17.5 118.5t-113.5 36.5zM1042 1434q227 0 353.5 -130t89.5 -364l-76 -471q-37 -233 -191.5 -351t-381.5 -118h-730q-12 0 -21 9t-7 22l215 1372q4 31 33 31h716zM924 1559h-23q-16 0 -47 34
l-152 170q-23 27 -20 56l8 61q4 33 51 4l187 -143l243 149q20 12 31.5 2t7.5 -30l-10 -50q-6 -37 -22 -49l-217 -188q-18 -16 -37 -16z" />
    <glyph glyph-name="Dcroat.ss01" horiz-adv-x="1523" 
d="M948 1075h-303l-35 -213h95q33 0 26 -31l-37 -233q-6 -31 -30 -31h-101l-35 -209h285q84 0 139.5 47.5t67.5 129.5l59 385q12 82 -17.5 118.5t-113.5 36.5zM1042 1434q227 0 353.5 -130t89.5 -364l-76 -471q-37 -233 -191.5 -351t-381.5 -118h-730q-12 0 -21 9t-7 22
l84 536h-88q-33 0 -25 31l35 233q6 31 29 31h96l84 541q4 31 33 31h716z" />
    <glyph glyph-name="E.ss01" horiz-adv-x="1449" 
d="M1300 358q12 0 21.5 -9t7.5 -21l-45 -297q-4 -31 -33 -31h-1145q-12 0 -21 9t-7 22l217 1372q4 31 29 31h1146q12 0 22.5 -9.5t8.5 -21.5l-47 -295q-4 -33 -33 -33h-776l-29 -180h363q12 0 21.5 -10.5t7.5 -22.5l-50 -291q-4 -33 -30 -32h-369l-31 -181h772z" />
    <glyph glyph-name="Eacute.ss01" horiz-adv-x="1449" 
d="M1300 358q12 0 21.5 -9t7.5 -21l-45 -297q-4 -31 -33 -31h-1145q-12 0 -21 9t-7 22l217 1372q4 31 29 31h1146q12 0 22.5 -9.5t8.5 -21.5l-47 -295q-4 -33 -33 -33h-776l-29 -180h363q12 0 21.5 -10.5t7.5 -22.5l-50 -291q-4 -33 -30 -32h-369l-31 -181h772zM752 1563
q-37 -10 -43 18l-19 76q-6 25 15 35l376 186q41 20 52 -18l45 -152q8 -33 -21 -41z" />
    <glyph glyph-name="Ecaron.ss01" horiz-adv-x="1449" 
d="M1300 358q12 0 21.5 -9t7.5 -21l-45 -297q-4 -31 -33 -31h-1145q-12 0 -21 9t-7 22l217 1372q4 31 29 31h1146q12 0 22.5 -9.5t8.5 -21.5l-47 -295q-4 -33 -33 -33h-776l-29 -180h363q12 0 21.5 -10.5t7.5 -22.5l-50 -291q-4 -33 -30 -32h-369l-31 -181h772zM944 1559
h-22q-16 0 -48 34l-151 170q-23 27 -21 56l9 61q4 33 51 4l186 -143l244 149q20 12 31.5 2t7.5 -30l-10 -50q-6 -37 -23 -49l-217 -188q-18 -16 -37 -16z" />
    <glyph glyph-name="Ecircumflex.ss01" horiz-adv-x="1449" 
d="M1300 358q12 0 21.5 -9t7.5 -21l-45 -297q-4 -31 -33 -31h-1145q-12 0 -21 9t-7 22l217 1372q4 31 29 31h1146q12 0 22.5 -9.5t8.5 -21.5l-47 -295q-4 -33 -33 -33h-776l-29 -180h363q12 0 21.5 -10.5t7.5 -22.5l-50 -291q-4 -33 -30 -32h-369l-31 -181h772zM954 1898h21
q12 0 47 -34l176 -154q12 -12 8 -39l-14 -92q-6 -31 -39 -8l-207 129l-258 -139q-10 -4 -18 2t-6 18l16 92q4 29 27 45l208 164q25 16 39 16z" />
    <glyph glyph-name="Edieresis.ss01" horiz-adv-x="1449" 
d="M1300 358q12 0 21.5 -9t7.5 -21l-45 -297q-4 -31 -33 -31h-1145q-12 0 -21 9t-7 22l217 1372q4 31 29 31h1146q12 0 22.5 -9.5t8.5 -21.5l-47 -295q-4 -33 -33 -33h-776l-29 -180h363q12 0 21.5 -10.5t7.5 -22.5l-50 -291q-4 -33 -30 -32h-369l-31 -181h772zM1110 1595
q-55 0 -87 41t-24 85t38 69t78 25t79 -41t20 -93q-16 -86 -104 -86zM799 1595q-55 0 -87 41t-24 85t39 69t79 25t77.5 -41t19.5 -93q-16 -86 -104 -86z" />
    <glyph glyph-name="Edotaccent.ss01" horiz-adv-x="1449" 
d="M1300 358q12 0 21.5 -9t7.5 -21l-45 -297q-4 -31 -33 -31h-1145q-12 0 -21 9t-7 22l217 1372q4 31 29 31h1146q12 0 22.5 -9.5t8.5 -21.5l-47 -295q-4 -33 -33 -33h-776l-29 -180h363q12 0 21.5 -10.5t7.5 -22.5l-50 -291q-4 -33 -30 -32h-369l-31 -181h772zM935 1567
q-56 0 -96 48t-30 104t50 88t97 32t96.5 -48t29 -105.5t-50.5 -88t-96 -30.5z" />
    <glyph glyph-name="Egrave.ss01" horiz-adv-x="1449" 
d="M1300 358q12 0 21.5 -9t7.5 -21l-45 -297q-4 -31 -33 -31h-1145q-12 0 -21 9t-7 22l217 1372q4 31 29 31h1146q12 0 22.5 -9.5t8.5 -21.5l-47 -295q-4 -33 -33 -33h-776l-29 -180h363q12 0 21.5 -10.5t7.5 -22.5l-50 -291q-4 -33 -30 -32h-369l-31 -181h772zM1147 1565
l-406 104q-29 8 -20 41l45 152q10 39 51 18l377 -186q20 -10 14 -35l-18 -76q-6 -28 -43 -18z" />
    <glyph glyph-name="Emacron.ss01" horiz-adv-x="1449" 
d="M1300 358q12 0 21.5 -9t7.5 -21l-45 -297q-4 -31 -33 -31h-1145q-12 0 -21 9t-7 22l217 1372q4 31 29 31h1146q12 0 22.5 -9.5t8.5 -21.5l-47 -295q-4 -33 -33 -33h-776l-29 -180h363q12 0 21.5 -10.5t7.5 -22.5l-50 -291q-4 -33 -30 -32h-369l-31 -181h772zM733 1599
q-12 0 -20 9.5t-6 21.5l24 133q0 12 9.5 21.5t19.5 9.5h414q12 0 21 -9t7 -20l-20 -135q-4 -31 -31 -31h-418z" />
    <glyph glyph-name="Eogonek.ss01" horiz-adv-x="1449" 
d="M1470 1434q12 0 22.5 -9.5t8.5 -21.5l-47 -295q-4 -33 -33 -33h-776l-29 -180h363q12 0 21.5 -10.5t7.5 -22.5l-50 -291q-4 -33 -30 -32h-369l-31 -181h772q12 0 21.5 -9t7.5 -21l-45 -297q-4 -31 -33 -31h-69q-43 -43 -65.5 -66.5t-47.5 -69.5t-32 -95t30 -50
q53 0 98 39q23 18 39 -2l35 -39q14 -16 2 -39q-25 -29 -38 -43t-63 -39.5t-123 -25.5t-129 51q-58 51 -44 135q24 151 176 244h-914q-12 0 -21 9t-7 22l217 1372q4 31 29 31h1146z" />
    <glyph glyph-name="F.ss01" horiz-adv-x="1425" 
d="M1473 1434q12 0 21 -9.5t7 -21.5l-47 -295q-4 -33 -31 -33h-778l-37 -223h383q12 0 21.5 -9t7.5 -22l-45 -293q-4 -31 -31 -30h-393l-72 -467q-4 -31 -30 -31h-343q-12 0 -21 9t-7 22l215 1372q4 31 33 31h1147z" />
    <glyph glyph-name="G.ss01" horiz-adv-x="1374" 
d="M1276 776q12 0 21.5 -9t7.5 -22l-113 -712q-4 -33 -33 -33h-155q-31 0 -39 31l-13 80q-115 -127 -313 -127q-260 0 -408.5 202.5t-94.5 547.5t256 530.5t474 185.5q227 0 350 -131t123 -334q0 -25 -32 -33l-293 -51q-16 -2 -31.5 8.5t-15.5 26.5q2 63 -31 110.5t-90 47.5
q-252 0 -318 -400q-55 -358 162 -358q68 0 128.5 28.5t90.5 69.5h-108q-14 0 -22.5 9.5t-6.5 21.5l41 278q4 33 31 33h432z" />
    <glyph glyph-name="Gbreve.ss01" horiz-adv-x="1374" 
d="M1276 776q12 0 21.5 -9t7.5 -22l-113 -712q-4 -33 -33 -33h-155q-31 0 -39 31l-13 80q-115 -127 -313 -127q-260 0 -408.5 202.5t-94.5 547.5t256 530.5t474 185.5q227 0 350 -131t123 -334q0 -25 -32 -33l-293 -51q-16 -2 -31.5 8.5t-15.5 26.5q2 63 -31 110.5t-90 47.5
q-252 0 -318 -400q-55 -358 162 -358q68 0 128.5 28.5t90.5 69.5h-108q-14 0 -22.5 9.5t-6.5 21.5l41 278q4 33 31 33h432zM894.5 1567q-111.5 0 -185.5 66.5t-97 152.5q-8 23 15 33l106 43q25 8 39 -17q53 -82 135 -82q111 0 172 88q14 18 35 7l103 -64q18 -10 8 -35
q-37 -74 -128 -133t-202.5 -59z" />
    <glyph glyph-name="Gcommaaccent.ss01" horiz-adv-x="1374" 
d="M541 -53h157q31 0 29 -31l-27 -160q-10 -72 -68.5 -132t-135.5 -87q-23 -6 -25 14.5t21 30.5q51 23 86.5 63t42.5 87l-105 39q-35 12 -31 36l19 109q6 31 37 31zM1276 776q12 0 21.5 -9t7.5 -22l-113 -712q-4 -33 -33 -33h-155q-31 0 -39 31l-13 80q-115 -127 -313 -127
q-260 0 -408.5 202.5t-94.5 547.5t256 530.5t474 185.5q227 0 350 -131t123 -334q0 -25 -32 -33l-293 -51q-16 -2 -31.5 8.5t-15.5 26.5q2 63 -31 110.5t-90 47.5q-252 0 -318 -400q-55 -358 162 -358q68 0 128.5 28.5t90.5 69.5h-108q-14 0 -22.5 9.5t-6.5 21.5l41 278
q4 33 31 33h432z" />
    <glyph glyph-name="Gdotaccent.ss01" horiz-adv-x="1374" 
d="M1276 776q12 0 21.5 -9t7.5 -22l-113 -712q-4 -33 -33 -33h-155q-31 0 -39 31l-13 80q-115 -127 -313 -127q-260 0 -408.5 202.5t-94.5 547.5t256 530.5t474 185.5q227 0 350 -131t123 -334q0 -25 -32 -33l-293 -51q-16 -2 -31.5 8.5t-15.5 26.5q2 63 -31 110.5t-90 47.5
q-252 0 -318 -400q-55 -358 162 -358q68 0 128.5 28.5t90.5 69.5h-108q-14 0 -22.5 9.5t-6.5 21.5l41 278q4 33 31 33h432zM886 1567q-56 0 -96 48t-30 104t50 88t97 32t96 -48t29 -105.5t-50 -88t-96 -30.5z" />
    <glyph glyph-name="I.ss01" horiz-adv-x="892" 
d="M872 1075h-122l-115 -717h117q33 0 28 -32l-47 -295q-4 -31 -31 -31h-639q-14 0 -23 9t-7 22l47 295q4 33 31 32h122l115 717h-115q-12 0 -22 9.5t-8 23.5l47 295q4 31 31 31h639q14 0 23 -9.5t7 -21.5l-47 -295q-4 -33 -31 -33z" />
    <glyph glyph-name="Iacute.ss01" horiz-adv-x="892" 
d="M872 1075h-122l-115 -717h117q33 0 28 -32l-47 -295q-4 -31 -31 -31h-639q-14 0 -23 9t-7 22l47 295q4 33 31 32h122l115 717h-115q-12 0 -22 9.5t-8 23.5l47 295q4 31 31 31h639q14 0 23 -9.5t7 -21.5l-47 -295q-4 -33 -31 -33zM455 1563q-37 -10 -43 18l-19 76
q-6 25 15 35l376 186q41 20 52 -18l45 -152q8 -33 -21 -41z" />
    <glyph glyph-name="Icircumflex.ss01" horiz-adv-x="892" 
d="M872 1075h-122l-115 -717h117q33 0 28 -32l-47 -295q-4 -31 -31 -31h-639q-14 0 -23 9t-7 22l47 295q4 33 31 32h122l115 717h-115q-12 0 -22 9.5t-8 23.5l47 295q4 31 31 31h639q14 0 23 -9.5t7 -21.5l-47 -295q-4 -33 -31 -33zM657 1898h21q12 0 47 -34l176 -154
q12 -12 8 -39l-14 -92q-6 -31 -39 -8l-207 129l-258 -139q-10 -4 -18 2t-6 18l16 92q4 29 27 45l208 164q25 16 39 16z" />
    <glyph glyph-name="Idieresis.ss01" horiz-adv-x="892" 
d="M872 1075h-122l-115 -717h117q33 0 28 -32l-47 -295q-4 -31 -31 -31h-639q-14 0 -23 9t-7 22l47 295q4 33 31 32h122l115 717h-115q-12 0 -22 9.5t-8 23.5l47 295q4 31 31 31h639q14 0 23 -9.5t7 -21.5l-47 -295q-4 -33 -31 -33zM813 1595q-55 0 -87 41t-24 85t38 69
t78 25t79 -41t21 -93q-17 -86 -105 -86zM502 1595q-55 0 -87 41t-24 85t39 69t79 25t77.5 -41t19.5 -93q-16 -86 -104 -86z" />
    <glyph glyph-name="Idotaccent.ss01" horiz-adv-x="892" 
d="M872 1075h-122l-115 -717h117q33 0 28 -32l-47 -295q-4 -31 -31 -31h-639q-14 0 -23 9t-7 22l47 295q4 33 31 32h122l115 717h-115q-12 0 -22 9.5t-8 23.5l47 295q4 31 31 31h639q14 0 23 -9.5t7 -21.5l-47 -295q-4 -33 -31 -33zM638 1567q-56 0 -96 48t-30 104t50 88
t97 32t96.5 -48t29 -105.5t-50.5 -88t-96 -30.5z" />
    <glyph glyph-name="Igrave.ss01" horiz-adv-x="892" 
d="M872 1075h-122l-115 -717h117q33 0 28 -32l-47 -295q-4 -31 -31 -31h-639q-14 0 -23 9t-7 22l47 295q4 33 31 32h122l115 717h-115q-12 0 -22 9.5t-8 23.5l47 295q4 31 31 31h639q14 0 23 -9.5t7 -21.5l-47 -295q-4 -33 -31 -33zM850 1565l-406 104q-29 8 -20 41l45 152
q10 39 51 18l377 -186q20 -10 14 -35l-18 -76q-6 -28 -43 -18z" />
    <glyph glyph-name="Imacron.ss01" horiz-adv-x="892" 
d="M872 1075h-122l-115 -717h117q33 0 28 -32l-47 -295q-4 -31 -31 -31h-639q-14 0 -23 9t-7 22l47 295q4 33 31 32h122l115 717h-115q-12 0 -22 9.5t-8 23.5l47 295q4 31 31 31h639q14 0 23 -9.5t7 -21.5l-47 -295q-4 -33 -31 -33zM436 1599q-12 0 -20 9.5t-6 21.5l24 133
q0 12 9.5 21.5t19.5 9.5h414q12 0 21 -9t7 -20l-20 -135q-4 -31 -31 -31h-418z" />
    <glyph glyph-name="Iogonek.ss01" horiz-adv-x="892" 
d="M920 1434q14 0 23 -9.5t7 -21.5l-47 -295q-4 -33 -31 -33h-122l-115 -717h117q33 0 28 -32l-47 -295q-4 -31 -31 -31h-106q-43 -43 -65.5 -66.5t-47 -69.5t-31.5 -95t29 -50q53 0 99 39q23 18 38 -2l35 -39q14 -16 2 -39q-25 -29 -38 -43t-63 -39.5t-123 -25.5t-129 51
t-42 152q12 68 61.5 128t112.5 99h-371q-14 0 -23 9t-7 22l47 295q4 33 31 32h122l115 717h-115q-12 0 -22 9.5t-8 23.5l47 295q4 31 31 31h639z" />
    <glyph glyph-name="M.ss01" horiz-adv-x="1767" 
d="M1413 1434h338q12 0 21.5 -9.5t7.5 -21.5l-217 -1370q-4 -33 -31 -33h-340q-12 0 -22.5 9t-8.5 22l119 721l-342 -447q-16 -23 -39 -22h-39q-37 0 -47 22l-215 449l-119 -721q-4 -33 -33 -33h-337q-12 0 -21.5 9t-7.5 22l213 1372q4 31 33 31h313q39 0 51 -29l262 -547
l416 553q16 23 45 23z" />
    <glyph glyph-name="N.ss01" horiz-adv-x="1542" 
d="M1526 1434q12 0 21 -9.5t7 -21.5l-217 -1370q-4 -33 -30 -33h-283q-29 0 -45 31l-387 694l-113 -692q-4 -33 -33 -33h-340q-12 0 -21 9t-7 22l215 1372q4 31 33 31h301q25 0 41 -31l376 -668l109 668q4 31 33 31h340z" />
    <glyph glyph-name="Nacute.ss01" horiz-adv-x="1542" 
d="M1526 1434q12 0 21 -9.5t7 -21.5l-217 -1370q-4 -33 -30 -33h-283q-29 0 -45 31l-387 694l-113 -692q-4 -33 -33 -33h-340q-12 0 -21 9t-7 22l215 1372q4 31 33 31h301q25 0 41 -31l376 -668l109 668q4 31 33 31h340zM752 1563q-37 -10 -43 18l-19 76q-6 25 15 35
l376 186q41 20 52 -18l45 -152q8 -33 -21 -41z" />
    <glyph glyph-name="Ncaron.ss01" horiz-adv-x="1542" 
d="M1526 1434q12 0 21 -9.5t7 -21.5l-217 -1370q-4 -33 -30 -33h-283q-29 0 -45 31l-387 694l-113 -692q-4 -33 -33 -33h-340q-12 0 -21 9t-7 22l215 1372q4 31 33 31h301q25 0 41 -31l376 -668l109 668q4 31 33 31h340zM944 1559h-22q-16 0 -48 34l-151 170q-23 27 -21 56
l9 61q4 33 51 4l186 -143l244 149q20 12 31.5 2t7.5 -30l-10 -50q-6 -37 -23 -49l-217 -188q-18 -16 -37 -16z" />
    <glyph glyph-name="Ncommaaccent.ss01" horiz-adv-x="1542" 
d="M645 -53h158q32 0 28 -31l-26 -160q-10 -72 -68.5 -132t-136.5 -87q-23 -6 -25 14.5t21 30.5q51 23 87 63t42 87l-104 39q-35 12 -31 36l18 109q6 31 37 31zM1526 1434q12 0 21 -9.5t7 -21.5l-217 -1370q-4 -33 -30 -33h-283q-29 0 -45 31l-387 694l-113 -692
q-4 -33 -33 -33h-340q-12 0 -21 9t-7 22l215 1372q4 31 33 31h301q25 0 41 -31l376 -668l109 668q4 31 33 31h340z" />
    <glyph glyph-name="Eng.ss01" horiz-adv-x="1542" 
d="M1526 1434q12 0 21 -10t7 -21l-233 -1477q-12 -82 -56 -152t-85 -109q-41 -38 -117 -97q-23 -20 -53 10l-129 156q-25 33 -2 51q7 3 27 23t34 33t35 39t28 60t-32 105l-379 680l-113 -694q-4 -31 -33 -31h-340q-12 0 -21 9t-7 22l215 1372q4 31 33 31h299q27 0 41 -27
l378 -672l109 668q4 31 33 31h340z" />
    <glyph glyph-name="Ntilde.ss01" horiz-adv-x="1542" 
d="M1526 1434q12 0 21 -9.5t7 -21.5l-217 -1370q-4 -33 -30 -33h-283q-29 0 -45 31l-387 694l-113 -692q-4 -33 -33 -33h-340q-12 0 -21 9t-7 22l215 1372q4 31 33 31h301q25 0 41 -31l376 -668l109 668q4 31 33 31h340zM1056.5 1591q-65.5 0 -119.5 31t-119.5 31
t-106.5 -37q-18 -16 -45 -4l-45 20q-41 18 24 100q17 22 64 47t121.5 25t139 -30.5t87.5 -30.5q61 0 106 41q14 12 33 6l55 -25q28 -11 13 -43q-33 -59 -87.5 -95t-120 -36z" />
    <glyph glyph-name="O.ss01" horiz-adv-x="1458" 
d="M696 336q260 0 324 403q25 170 -10 262.5t-164 92.5t-209 -107.5t-107 -286t9 -271.5t157 -93zM670 -16q-295 0 -442.5 198.5t-92.5 548.5t253 534.5t492.5 184.5t441 -198.5t90.5 -549t-251.5 -534.5t-490.5 -184z" />
    <glyph glyph-name="Oacute.ss01" horiz-adv-x="1458" 
d="M696 336q260 0 324 403q25 170 -10 262.5t-164 92.5t-209 -107.5t-107 -286t9 -271.5t157 -93zM670 -16q-295 0 -442.5 198.5t-92.5 548.5t253 534.5t492.5 184.5t441 -198.5t90.5 -549t-251.5 -534.5t-490.5 -184zM717 1563q-37 -10 -43 18l-19 76q-6 25 15 35l377 186
q41 20 51 -18l45 -152q8 -33 -21 -41z" />
    <glyph glyph-name="Ocircumflex.ss01" horiz-adv-x="1458" 
d="M696 336q260 0 324 403q25 170 -10 262.5t-164 92.5t-209 -107.5t-107 -286t9 -271.5t157 -93zM670 -16q-295 0 -442.5 198.5t-92.5 548.5t253 534.5t492.5 184.5t441 -198.5t90.5 -549t-251.5 -534.5t-490.5 -184zM920 1898h20q12 0 47 -34l176 -154q12 -12 8 -39
l-14 -92q-6 -31 -39 -8l-207 129l-258 -139q-10 -4 -18 2t-6 18l16 92q4 29 27 45l209 164q25 16 39 16z" />
    <glyph glyph-name="Odieresis.ss01" horiz-adv-x="1458" 
d="M696 336q260 0 324 403q25 170 -10 262.5t-164 92.5t-209 -107.5t-107 -286t9 -271.5t157 -93zM670 -16q-295 0 -442.5 198.5t-92.5 548.5t253 534.5t492.5 184.5t441 -198.5t90.5 -549t-251.5 -534.5t-490.5 -184zM1075 1595q-55 0 -87 41t-23.5 85t38 69t77.5 25
t79 -41t21 -93q-17 -86 -105 -86zM764 1595q-55 0 -87 41t-24 85t39 69t79 25t78 -41t19 -93q-16 -86 -104 -86z" />
    <glyph glyph-name="Ograve.ss01" horiz-adv-x="1458" 
d="M696 336q260 0 324 403q25 170 -10 262.5t-164 92.5t-209 -107.5t-107 -286t9 -271.5t157 -93zM670 -16q-295 0 -442.5 198.5t-92.5 548.5t253 534.5t492.5 184.5t441 -198.5t90.5 -549t-251.5 -534.5t-490.5 -184zM1112 1565l-405 104q-29 8 -21 41l45 152q10 39 51 18
l377 -186q20 -10 15 -35l-19 -76q-6 -28 -43 -18z" />
    <glyph glyph-name="Ohungarumlaut.ss01" horiz-adv-x="1458" 
d="M696 336q260 0 324 403q25 170 -10 262.5t-164 92.5t-209 -107.5t-107 -286t9 -271.5t157 -93zM670 -16q-295 0 -442.5 198.5t-92.5 548.5t253 534.5t492.5 184.5t441 -198.5t90.5 -549t-251.5 -534.5t-490.5 -184zM1151 1573q-27 -10 -43 8l-41 47q-18 18 10 41l230 176
q23 14 39 -6l102 -125q12 -16 -6 -26zM641 1575q-29 -6 -41 8l-43 47q-18 18 10 41l230 176q23 16 39 -6l104 -125q12 -16 -6 -26z" />
    <glyph glyph-name="Omacron.ss01" horiz-adv-x="1458" 
d="M696 336q260 0 324 403q25 170 -10 262.5t-164 92.5t-209 -107.5t-107 -286t9 -271.5t157 -93zM670 -16q-295 0 -442.5 198.5t-92.5 548.5t253 534.5t492.5 184.5t441 -198.5t90.5 -549t-251.5 -534.5t-490.5 -184zM698 1599q-12 0 -20 9.5t-6 21.5l24 133q0 12 9.5 21.5
t19.5 9.5h414q12 0 21 -9t7 -20l-20 -135q-4 -31 -31 -31h-418z" />
    <glyph glyph-name="Oslash.ss01" horiz-adv-x="1458" 
d="M696 336q261 0 324 403q12 92 10 158l-375 -557q25 -4 41 -4zM854 1094q-137 0 -217 -108t-109 -292q-12 -84 -10 -143l365 541q-10 2 -29 2zM676 -16q-131 0 -234 39l-14 -23q-12 -18 -43 -18h-172q-20 0 -35.5 21.5t-5.5 33.5l78 117q-174 203 -113 585
q53 342 251 526.5t486 184.5q121 0 226 -35l8 12q14 20 41 21h186q16 0 28.5 -17.5t4.5 -31.5l-76 -113q182 -203 119 -592q-55 -342 -250.5 -526t-484.5 -184z" />
    <glyph glyph-name="Otilde.ss01" horiz-adv-x="1458" 
d="M696 336q260 0 324 403q25 170 -10 262.5t-164 92.5t-209 -107.5t-107 -286t9 -271.5t157 -93zM670 -16q-295 0 -442.5 198.5t-92.5 548.5t253 534.5t492.5 184.5t441 -198.5t90.5 -549t-251.5 -534.5t-490.5 -184zM1021.5 1591q-65.5 0 -119.5 31t-119.5 31t-106.5 -37
q-18 -16 -45 -4l-45 20q-41 18 24 100q17 22 64 47t121.5 25t139 -30.5t87.5 -30.5q61 0 106 41q14 12 33 6l56 -25q27 -11 12 -43q-33 -59 -87.5 -95t-120 -36z" />
    <glyph glyph-name="OE.ss01" horiz-adv-x="2148" 
d="M694 336q72 0 137 35l113 706q-39 16 -96 17q-257 -3 -320 -400q-51 -358 166 -358zM2171 1434q12 0 22.5 -9.5t8.5 -21.5l-48 -295q-4 -33 -32 -33h-776l-29 -180h362q12 0 21.5 -10.5t7.5 -22.5l-49 -291q-4 -33 -31 -32h-368l-31 -181h772q12 0 21.5 -9t7.5 -21
l-45 -297q-4 -31 -33 -31h-1114q-82 -16 -162 -16q-301 0 -449.5 196.5t-91.5 549.5t255 536.5t478 183.5q88 0 164 -16h1139z" />
    <glyph glyph-name="P.ss01" horiz-adv-x="1404" 
d="M903 844q85 0 109 137q8 47 -2.5 71.5t-55.5 24.5h-309l-37 -233h295zM956 489h-405l-72 -456q-4 -33 -33 -33h-340q-14 0 -22 9t-6 22l215 1372q4 31 33 31h778q166 0 250 -142.5t50 -359.5t-158 -330t-290 -113z" />
    <glyph glyph-name="Q.ss01" horiz-adv-x="1482" 
d="M681 336q108 0 187.5 116.5t104.5 277.5t-9 262.5t-142 101.5t-187.5 -116t-104.5 -277t9 -263t142 -102zM857 1450q265 0 413.5 -201.5t95.5 -554.5q-35 -238 -152 -403l119 -150q20 -29 0 -49l-221 -190q-25 -20 -45 0l-135 137q-121 -55 -279 -55q-272 0 -422.5 201.5
t-95.5 545.5t256 531.5t466 187.5z" />
    <glyph glyph-name="R.ss01" horiz-adv-x="1513" 
d="M999 836q31 0 57.5 34.5t39.5 81.5q29 123 -64 123h-387l-41 -239h395zM446 0h-340q-14 0 -22 9t-6 22l215 1372q4 31 33 31h860q156 0 248 -146.5t59 -357.5q-41 -268 -244 -406q106 -229 97 -491q0 -14 -9.5 -23.5t-21.5 -9.5h-336q-37 0 -31 43q14 80 -11.5 201
t-105.5 243h-278l-74 -454q-4 -33 -33 -33z" />
    <glyph glyph-name="Racute.ss01" horiz-adv-x="1513" 
d="M999 836q31 0 57.5 34.5t39.5 81.5q29 123 -64 123h-387l-41 -239h395zM446 0h-340q-14 0 -22 9t-6 22l215 1372q4 31 33 31h860q156 0 248 -146.5t59 -357.5q-41 -268 -244 -406q106 -229 97 -491q0 -14 -9.5 -23.5t-21.5 -9.5h-336q-37 0 -31 43q14 80 -11.5 201
t-105.5 243h-278l-74 -454q-4 -33 -33 -33zM719 1563q-37 -10 -43 18l-19 76q-6 25 15 35l377 186q41 20 51 -18l45 -152q8 -33 -21 -41z" />
    <glyph glyph-name="Rcaron.ss01" horiz-adv-x="1513" 
d="M999 836q31 0 57.5 34.5t39.5 81.5q29 123 -64 123h-387l-41 -239h395zM446 0h-340q-14 0 -22 9t-6 22l215 1372q4 31 33 31h860q156 0 248 -146.5t59 -357.5q-41 -268 -244 -406q106 -229 97 -491q0 -14 -9.5 -23.5t-21.5 -9.5h-336q-37 0 -31 43q14 80 -11.5 201
t-105.5 243h-278l-74 -454q-4 -33 -33 -33zM911 1559h-22q-16 0 -47 34l-152 170q-23 27 -20 56l8 61q4 33 51 4l186 -143l244 149q20 12 31.5 2t7.5 -30l-10 -50q-6 -37 -23 -49l-217 -188q-18 -16 -37 -16z" />
    <glyph glyph-name="Rcommaaccent.ss01" horiz-adv-x="1513" 
d="M625 -53h157q33 0 29 -31l-27 -160q-10 -72 -68.5 -132t-135.5 -87q-23 -6 -25 14.5t20 30.5q51 23 87 63t43 87l-105 39q-35 12 -31 36l19 109q6 31 37 31zM999 836q31 0 57.5 34.5t39.5 81.5q29 123 -64 123h-387l-41 -239h395zM446 0h-340q-14 0 -22 9t-6 22l215 1372
q4 31 33 31h860q156 0 248 -146.5t59 -357.5q-41 -268 -244 -406q106 -229 97 -491q0 -14 -9.5 -23.5t-21.5 -9.5h-336q-37 0 -31 43q14 80 -11.5 201t-105.5 243h-278l-74 -454q-4 -33 -33 -33z" />
    <glyph glyph-name="U.ss01" horiz-adv-x="1466" 
d="M1450 1434q12 0 21.5 -8.5t7.5 -22.5l-150 -944q-74 -459 -524 -459h-260q-233 0 -331.5 134t-63.5 347l145 922q4 31 31 31h340q12 0 22 -9.5t8 -21.5l-141 -879q-14 -86 8.5 -126t106.5 -40h84q158 0 188 189l135 856q4 31 33 31h340z" />
    <glyph glyph-name="Uacute.ss01" horiz-adv-x="1466" 
d="M1450 1434q12 0 21.5 -8.5t7.5 -22.5l-150 -944q-74 -459 -524 -459h-260q-233 0 -331.5 134t-63.5 347l145 922q4 31 31 31h340q12 0 22 -9.5t8 -21.5l-141 -879q-14 -86 8.5 -126t106.5 -40h84q158 0 188 189l135 856q4 31 33 31h340zM729 1563q-37 -10 -43 18l-18 76
q-6 25 14 35l377 186q41 20 51 -18l45 -152q8 -33 -20 -41z" />
    <glyph glyph-name="Ucircumflex.ss01" horiz-adv-x="1466" 
d="M1450 1434q12 0 21.5 -8.5t7.5 -22.5l-150 -944q-74 -459 -524 -459h-260q-233 0 -331.5 134t-63.5 347l145 922q4 31 31 31h340q12 0 22 -9.5t8 -21.5l-141 -879q-14 -86 8.5 -126t106.5 -40h84q158 0 188 189l135 856q4 31 33 31h340zM932 1898h20q12 0 47 -34
l177 -154q12 -12 8 -39l-15 -92q-6 -31 -39 -8l-206 129l-258 -139q-10 -4 -18.5 2t-6.5 18l16 92q4 29 27 45l209 164q25 16 39 16z" />
    <glyph glyph-name="Udieresis.ss01" horiz-adv-x="1466" 
d="M1450 1434q12 0 21.5 -8.5t7.5 -22.5l-150 -944q-74 -459 -524 -459h-260q-233 0 -331.5 134t-63.5 347l145 922q4 31 31 31h340q12 0 22 -9.5t8 -21.5l-141 -879q-14 -86 8.5 -126t106.5 -40h84q158 0 188 189l135 856q4 31 33 31h340zM1087 1595q-55 0 -86.5 41
t-23.5 85t37.5 69t77.5 25t79 -41t21 -93q-17 -86 -105 -86zM776 1595q-55 0 -87 41q-31 41 -23 85t38.5 69t78.5 25t78 -41t20 -93q-17 -86 -105 -86z" />
    <glyph glyph-name="Ugrave.ss01" horiz-adv-x="1466" 
d="M1450 1434q12 0 21.5 -8.5t7.5 -22.5l-150 -944q-74 -459 -524 -459h-260q-233 0 -331.5 134t-63.5 347l145 922q4 31 31 31h340q12 0 22 -9.5t8 -21.5l-141 -879q-14 -86 8.5 -126t106.5 -40h84q158 0 188 189l135 856q4 31 33 31h340zM1124 1565l-405 104q-29 8 -21 41
l45 152q10 39 52 18l376 -186q20 -10 15 -35l-19 -76q-6 -28 -43 -18z" />
    <glyph glyph-name="Uhungarumlaut.ss01" horiz-adv-x="1466" 
d="M1450 1434q12 0 21.5 -8.5t7.5 -22.5l-150 -944q-74 -459 -524 -459h-260q-233 0 -331.5 134t-63.5 347l145 922q4 31 31 31h340q12 0 22 -9.5t8 -21.5l-141 -879q-14 -86 8.5 -126t106.5 -40h84q158 0 188 189l135 856q4 31 33 31h340zM1163 1573q-27 -10 -43 8l-41 47
q-18 18 11 41l229 176q23 14 39 -6l102 -125q12 -16 -6 -26zM653 1575q-29 -6 -41 8l-43 47q-18 18 11 41l229 176q23 16 39 -6l104 -125q12 -16 -6 -26z" />
    <glyph glyph-name="Umacron.ss01" horiz-adv-x="1466" 
d="M1450 1434q12 0 21.5 -8.5t7.5 -22.5l-150 -944q-74 -459 -524 -459h-260q-233 0 -331.5 134t-63.5 347l145 922q4 31 31 31h340q12 0 22 -9.5t8 -21.5l-141 -879q-14 -86 8.5 -126t106.5 -40h84q158 0 188 189l135 856q4 31 33 31h340zM711 1599q-12 0 -20.5 9.5
t-6.5 21.5l25 133q0 12 9 21.5t19 9.5h414q12 0 21.5 -9t7.5 -20l-21 -135q-4 -31 -31 -31h-417z" />
    <glyph glyph-name="Uogonek.ss01" horiz-adv-x="1466" 
d="M1450 1434q12 0 21.5 -8.5t7.5 -22.5l-150 -944q-63 -385 -393 -449q-51 -49 -70.5 -70.5t-48.5 -70.5t-36 -99t30 -51q53 0 98 39q23 18 39 -2l35 -39q14 -16 2 -39q-25 -29 -38 -43t-63 -39.5t-123 -25.5t-129 51q-58 51 -44 135q24 151 176 244h-219
q-233 0 -331.5 134t-63.5 347l145 922q4 31 31 31h340q12 0 22 -9.5t8 -21.5l-141 -879q-14 -86 8.5 -126t106.5 -40h84q158 0 188 189l135 856q4 31 33 31h340z" />
    <glyph glyph-name="Uring.ss01" horiz-adv-x="1466" 
d="M1450 1434q12 0 21.5 -8.5t7.5 -22.5l-150 -944q-74 -459 -524 -459h-260q-233 0 -331.5 134t-63.5 347l145 922q4 31 31 31h340q12 0 22 -9.5t8 -21.5l-141 -879q-14 -86 8.5 -126t106.5 -40h84q158 0 188 189l135 856q4 31 33 31h340zM905 1696q39 0 59.5 24.5t24.5 57
t-11 57.5t-54 25q-68 0 -84 -74q-6 -35 10 -62.5t55 -27.5zM888 1534q-99 0 -165 73.5t-46.5 184t90.5 170t173.5 59.5t166.5 -73.5t45 -184t-92 -170t-172 -59.5z" />
    <glyph glyph-name="W.ss01" horiz-adv-x="2160" 
d="M2228 1434q14 0 24.5 -15.5t4.5 -27.5l-741 -1362q-12 -29 -37 -29h-138q-29 0 -36 31l-187 612l-338 -618q-14 -25 -39 -25h-139q-31 0 -37 33l-354 1372q-6 29 22 29h324q27 0 33 -33l174 -649l334 659q10 23 30 23h193q27 0 33 -23l123 -659l387 663q10 18 30 19h334z
" />
    <glyph glyph-name="Wacute.ss01" horiz-adv-x="2160" 
d="M2228 1434q14 0 24.5 -15.5t4.5 -27.5l-741 -1362q-12 -29 -37 -29h-138q-29 0 -36 31l-187 612l-338 -618q-14 -25 -39 -25h-139q-31 0 -37 33l-354 1372q-6 29 22 29h324q27 0 33 -33l174 -649l334 659q10 23 30 23h193q27 0 33 -23l123 -659l387 663q10 18 30 19h334z
M1077 1563q-37 -10 -43 18l-18 76q-6 25 14 35l377 186q41 20 51 -18l45 -152q8 -33 -20 -41z" />
    <glyph glyph-name="Wcircumflex.ss01" horiz-adv-x="2160" 
d="M2228 1434q14 0 24.5 -15.5t4.5 -27.5l-741 -1362q-12 -29 -37 -29h-138q-29 0 -36 31l-187 612l-338 -618q-14 -25 -39 -25h-139q-31 0 -37 33l-354 1372q-6 29 22 29h324q27 0 33 -33l174 -649l334 659q10 23 30 23h193q27 0 33 -23l123 -659l387 663q10 18 30 19h334z
M1280 1898h20q12 0 48 -34l176 -154q12 -12 8 -39l-14 -92q-6 -31 -39 -8l-207 129l-258 -139q-10 -4 -18.5 2t-6.5 18l17 92q4 29 26 45l209 164q25 16 39 16z" />
    <glyph glyph-name="Wdieresis.ss01" horiz-adv-x="2160" 
d="M2228 1434q14 0 24.5 -15.5t4.5 -27.5l-741 -1362q-12 -29 -37 -29h-138q-29 0 -36 31l-187 612l-338 -618q-14 -25 -39 -25h-139q-31 0 -37 33l-354 1372q-6 29 22 29h324q27 0 33 -33l174 -649l334 659q10 23 30 23h193q27 0 33 -23l123 -659l387 663q10 18 30 19h334z
M1436 1595q-55 0 -87 41t-24 85t38 69t78 25t78.5 -41t20.5 -93q-16 -86 -104 -86zM1124 1595q-55 0 -86.5 41t-23.5 85t38.5 69t78.5 25t78 -41t20 -93q-17 -86 -105 -86z" />
    <glyph glyph-name="Wgrave.ss01" horiz-adv-x="2160" 
d="M2228 1434q14 0 24.5 -15.5t4.5 -27.5l-741 -1362q-12 -29 -37 -29h-138q-29 0 -36 31l-187 612l-338 -618q-14 -25 -39 -25h-139q-31 0 -37 33l-354 1372q-6 29 22 29h324q27 0 33 -33l174 -649l334 659q10 23 30 23h193q27 0 33 -23l123 -659l387 663q10 18 30 19h334z
M1473 1565l-406 104q-29 8 -20 41l45 152q10 39 51 18l377 -186q20 -10 14 -35l-18 -76q-6 -28 -43 -18z" />
    <glyph glyph-name="A.ss04" horiz-adv-x="1343" 
d="M84 279h1120q12 0 21.5 -9.5t7.5 -21.5l-33 -217q-4 -31 -31 -31h-1124q-12 0 -21.5 9t-7.5 22l37 215q4 33 31 33zM641 719h176l-45 158l-8 26l-14 -26zM938 1434q25 0 33 -33l289 -987q6 -29 -25 -29h-332q-18 0 -31 31l-24 55h-332l-33 -55q-18 -31 -37 -31h-352
q-12 0 -17 8t3 21l608 989q23 31 39 31h211z" />
    <glyph glyph-name="B.ss04" horiz-adv-x="1198" 
d="M145 279h895q12 0 22.5 -9.5t8.5 -21.5l-33 -217q-4 -31 -30 -31h-902q-12 0 -22 9t-8 22l39 215q4 33 30 33zM672 641q86 0 100 78q4 31 -15.5 45t-47.5 14h-115l-23 -137h101zM733 1174h-76l-22 -136h55q92 0 107 80q8 56 -64 56zM764 381h-596q-12 0 -21.5 9t-9.5 24
l160 989q4 31 31 31h561q154 0 231.5 -79t52 -237t-179.5 -213q102 -38 126 -95q34 -80 16 -157q-16 -121 -108.5 -196.5t-262.5 -75.5z" />
    <glyph glyph-name="C.ss04" horiz-adv-x="1277" 
d="M170 279h893q12 0 21.5 -9.5t7.5 -21.5l-31 -217q-4 -31 -33 -31h-897q-12 0 -21.5 9t-9.5 22l37 215q2 12 11.5 22.5t21.5 10.5zM662 365q-230 0 -374 147q-68 70 -98 178.5t-8 239.5q41 248 220.5 384t410.5 136q176 0 306 -71.5t171 -151.5q10 -20 -2 -31l-223 -180
q-23 -20 -43 6q-84 111 -193.5 111t-185.5 -67t-90 -183q-29 -199 166 -199q129 0 246 121q25 25 55 0l166 -187q25 -27 0 -55q-63 -76 -201.5 -137t-322.5 -61z" />
    <glyph glyph-name="D.ss04" horiz-adv-x="1296" 
d="M145 279h951q14 0 23 -9.5t7 -21.5l-32 -217q-4 -31 -31 -31h-957q-12 0 -21 9t-7 22l37 215q4 33 30 33zM657 700q102 0 161 44t80 177.5t-15.5 164t-139.5 30.5h-114l-66 -416h94zM637 381h-463q-12 0 -23.5 15.5t-9.5 27.5l158 989q2 20 25 21h469q224 0 331.5 -71
t133.5 -169q42 -155 18 -296.5t-69.5 -235t-101.5 -146.5q-143 -135 -468 -135z" />
    <glyph glyph-name="E.ss04" horiz-adv-x="1091" 
d="M145 279h785q12 0 21.5 -9.5t6.5 -21.5l-32 -217q-4 -31 -31 -31h-789q-12 0 -22 9t-8 22l39 215q4 33 30 33zM997 700q12 0 21.5 -9t7.5 -21l-39 -256q-4 -33 -31 -33h-788q-12 0 -22.5 9t-8.5 24l160 989q4 31 31 31h784q14 0 23.5 -9.5t7.5 -21.5l-39 -256
q-4 -31 -33 -31h-442l-11 -67h244q12 0 21.5 -9.5t7.5 -21.5l-35 -217q-4 -33 -31 -33h-250l-10 -68h432z" />
    <glyph glyph-name="F.ss04" horiz-adv-x="1099" 
d="M147 279h791q12 0 21.5 -9.5t7.5 -21.5l-31 -217q-4 -31 -33 -31h-794q-12 0 -21.5 9t-7.5 22l37 215q4 33 30 33zM1122 1434q12 0 22.5 -9.5t8.5 -21.5l-41 -256q-4 -31 -31 -31h-452l-15 -100h283q12 0 21.5 -10.5t7.5 -22.5l-41 -254q-2 -12 -11.5 -22.5t-21.5 -10.5
h-289l-45 -282q-4 -33 -31 -33h-319q-12 0 -22.5 9t-8.5 24l160 989q4 31 31 31h794z" />
    <glyph glyph-name="G.ss04" horiz-adv-x="1310" 
d="M145 279h983q12 0 22.5 -9.5t8.5 -21.5l-33 -217q-4 -31 -32 -31h-988q-12 0 -21 9t-7 22l37 215q4 33 30 33zM1247 1004q12 0 22.5 -9.5t8.5 -21.5l-80 -479q-4 -35 -37 -48q-207 -82 -444 -82t-402 124q-84 62 -120.5 176t-12.5 264q41 260 223.5 391t411.5 131
q182 0 284.5 -46t172.5 -122q20 -25 -2 -47l-189 -166q-31 -29 -65.5 5t-75.5 46.5t-121 12.5q-227 0 -268 -240q-18 -121 32 -165t139 -44t157 23l2 22h-68q-14 0 -22.5 9.5t-6.5 21.5l37 213q4 31 33 31h391z" />
    <glyph glyph-name="H.ss04" horiz-adv-x="1351" 
d="M147 279h1004q14 0 23.5 -9.5t7.5 -21.5l-33 -217q-4 -31 -31 -31h-1009q-12 0 -21.5 9t-7.5 22l37 215q4 33 30 33zM1335 1434q14 0 23.5 -9.5t7.5 -21.5l-156 -989q-4 -33 -32 -33h-318q-14 0 -23.5 9t-7.5 24l54 336h-314l-51 -336q-4 -33 -31 -33h-319q-12 0 -22.5 9
t-8.5 24l160 989q4 31 31 31h317q12 0 21.5 -9.5t7.5 -21.5l-53 -336h313l53 336q4 31 33 31h315z" />
    <glyph glyph-name="I.ss04" horiz-adv-x="661" 
d="M147 279h314q12 0 21.5 -9.5t6.5 -21.5l-30 -217q-4 -31 -33 -31h-317q-12 0 -21.5 9t-7.5 22l37 215q4 33 30 33zM168 381q-12 0 -21.5 9t-9.5 24l160 989q4 31 31 31h317q12 0 21.5 -9.5t7.5 -21.5l-156 -989q-4 -33 -31 -33h-319z" />
    <glyph glyph-name="J.ss04" horiz-adv-x="1081" 
d="M100 279h781q12 0 21 -9.5t7 -21.5l-30 -217q-4 -31 -33 -31h-785q-12 0 -21 9t-7 22l37 215q4 33 30 33zM1065 1434q12 0 21.5 -8.5t7.5 -22.5l-95 -602q-33 -223 -147.5 -329.5t-345.5 -106.5q-293 0 -387 280q-6 18 12 29l242 112q25 10 37 -10q27 -70 86 -69
q106 0 131 131l90 565q4 31 31 31h317z" />
    <glyph glyph-name="K.ss04" horiz-adv-x="1339" 
d="M145 279h1055q12 0 21.5 -9.5t7.5 -21.5l-31 -217q-4 -31 -33 -31h-1059q-12 0 -21 9t-7 22l37 215q4 33 30 33zM485 381h-311q-12 0 -24.5 15.5t-12.5 27.5l158 979q4 31 31 31h317q12 0 21.5 -9.5t7.5 -21.5l-66 -387l377 395q18 23 57 23h338q20 0 30.5 -18.5
t-3.5 -31.5l-508 -477l334 -493q10 -14 6 -23.5t-16 -9.5h-336q-35 0 -56 27l-251 366l-62 -360q-4 -33 -31 -33z" />
    <glyph glyph-name="L.ss04" horiz-adv-x="1079" 
d="M147 279h791q12 0 21.5 -9.5t7.5 -21.5l-33 -217q-4 -31 -31 -31h-794q-12 0 -21.5 9t-7.5 22l37 215q4 33 30 33zM1006 700q12 0 21 -9t7 -23l-39 -254q-4 -33 -30 -33h-797q-12 0 -22.5 9t-8.5 22l160 991q4 31 31 31h317q12 0 21.5 -8.5t7.5 -22.5l-111 -703h443z" />
    <glyph glyph-name="M.ss04" horiz-adv-x="1570" 
d="M147 279h1223q14 0 23.5 -9.5t7.5 -21.5l-33 -217q-4 -31 -31 -31h-1228q-12 0 -21.5 9t-7.5 22l37 215q4 33 30 33zM1554 1434q12 0 22.5 -9.5t8.5 -21.5l-155 -989q-2 -12 -11.5 -22.5t-21.5 -10.5h-318q-14 0 -23 10t-7 23l65 395l-260 -406q-14 -23 -43 -22h-41
q-31 0 -39 33l-147 395l-66 -395q-4 -33 -31 -33h-319q-12 0 -21.5 10t-7.5 23l158 989q4 31 31 31h305q33 0 49 -43l192 -471l326 493q12 20 39 21h315z" />
    <glyph glyph-name="N.ss04" horiz-adv-x="1337" 
d="M145 279h992q12 0 22 -9.5t8 -21.5l-32 -217q-4 -31 -31 -31h-998q-12 0 -21 9t-7 22l37 215q4 33 30 33zM1321 1434q14 0 23.5 -9.5t7.5 -21.5l-156 -989q-4 -33 -33 -33h-260q-27 0 -41 25l-274 425l-70 -417q-4 -33 -31 -33h-319q-12 0 -21.5 10t-7.5 23l158 989
q4 31 31 31h276q27 0 41 -27l256 -426l72 422q4 31 33 31h315z" />
    <glyph glyph-name="O.ss04" horiz-adv-x="1421" 
d="M150 279h1067q12 0 22 -9.5t8 -21.5l-33 -217q-4 -31 -32 -31h-1071q-14 0 -23.5 9t-7.5 22l37 215q4 33 33 33zM731 684q111 0 189.5 58.5t99.5 187.5q31 203 -180 203q-111 0 -189 -60.5t-98 -189.5q-33 -199 178 -199zM715 365q-117 0 -219.5 32.5t-183.5 97
t-117.5 177t-14.5 254t90 245t163 163.5q186 116 426 116q239 0 401 -132q80 -66 116.5 -178t15.5 -253t-89 -244.5t-164.5 -162t-201.5 -87t-222 -28.5z" />
    <glyph glyph-name="P.ss04" horiz-adv-x="1140" 
d="M147 279h818q12 0 21 -9.5t7 -21.5l-32 -217q-4 -31 -31 -31h-821q-12 0 -21.5 9t-7.5 22l37 215q4 33 30 33zM682 954q41 0 68.5 33t33.5 68t-6 52t-55 17h-92l-27 -170h78zM743 647h-188l-37 -233q-4 -33 -31 -33h-319q-14 0 -22.5 10t-6.5 23l158 989q4 31 31 31h538
q168 0 246 -103.5t46 -303t-143.5 -290t-271.5 -90.5z" />
    <glyph glyph-name="Q.ss04" horiz-adv-x="1421" 
d="M1217 279q12 0 22 -9.5t8 -21.5l-33 -217q-4 -31 -32 -31h-1071q-14 0 -23.5 9t-7.5 22l37 215q4 33 33 33h1067zM731 684q111 0 189.5 58.5t99.5 187.5q31 203 -180 203q-111 0 -189 -60.5t-98 -189.5q-33 -199 178 -199zM857 1450q116 0 219.5 -33t184 -98.5
t116.5 -178t11.5 -266t-112.5 -268.5l49 -57q16 -18 2 -33l-188 -166q-20 -18 -39 0l-66 76q-143 -61 -289.5 -61t-249 32.5t-183.5 97t-117.5 177t-14.5 254t90 245t163 163t201.5 88t222.5 28.5z" />
    <glyph glyph-name="R.ss04" horiz-adv-x="1245" 
d="M147 279h963q12 0 21.5 -9.5t7.5 -21.5l-33 -217q-4 -31 -31 -31h-966q-12 0 -21.5 9t-7.5 22l37 215q4 33 30 33zM752 983q92 0 108 94q4 37 -18 42t-58 5h-153l-23 -141h144zM1145 381h-309q-23 0 -35 22l-174 271h-68l-41 -260q-4 -33 -31 -33h-319q-14 0 -23.5 10
t-7.5 23l160 989q4 31 31 31h569q168 0 264 -110t68 -300q-4 -31 -12.5 -59.5t-14.5 -51t-20.5 -45t-20.5 -36t-24.5 -32t-24.5 -25.5t-28.5 -23.5t-26.5 -19.5t-28.5 -18.5t-27.5 -17.5l158 -278q8 -14 3 -25.5t-17 -11.5z" />
    <glyph glyph-name="S.ss04" horiz-adv-x="1202" 
d="M125 279h899q12 0 21.5 -9.5t7.5 -21.5l-31 -217q-4 -31 -33 -31h-903q-12 0 -21.5 9t-7.5 22l37 215q4 33 31 33zM637 362q-336 0 -485 211q-12 23 4 39l196 164q16 14 33 0q127 -106 240 -106q55 0 100 16t47 45q2 23 -27.5 29t-85.5 6q-223 25 -350 110t-98 249
t163 244.5t323.5 80.5t317.5 -58.5t167 -131.5q14 -27 -6 -41l-201 -160q-18 -12 -37 6q-74 78 -229 78q-68 0 -98.5 -8.5t-28.5 -31.5t29.5 -30.5t115.5 -17.5q274 -46 358 -132q83 -86 60 -227q-31 -156 -160 -245t-348 -89z" />
    <glyph glyph-name="T.ss04" horiz-adv-x="1130" 
d="M86 279h905q12 0 21.5 -9.5t7.5 -21.5l-33 -217q-4 -31 -31 -31h-909q-12 0 -21.5 9t-7.5 22l37 215q4 33 31 33zM1176 1434q12 0 21 -9.5t9 -21.5l-41 -256q0 -12 -9 -21.5t-21 -9.5h-271l-110 -702q-4 -33 -31 -33h-320q-14 0 -23 9t-7 24l112 702h-262
q-12 0 -22.5 9.5t-7.5 21.5l43 256q0 12 9 21.5t21 9.5h910z" />
    <glyph glyph-name="U.ss04" horiz-adv-x="1306" 
d="M139 279h975q12 0 22.5 -9.5t8.5 -21.5l-33 -217q-4 -31 -33 -31h-979q-12 0 -21 9t-7 22l37 215q4 33 30 33zM1313 1434q14 0 23.5 -8.5t6.5 -22.5l-88 -535q-57 -376 -337 -468q-108 -36 -259 -35q-561 0 -473 526l84 512q4 31 31 31h317q12 0 22.5 -9.5t8.5 -21.5
l-82 -494q-20 -127 2.5 -176t109.5 -49t138 60.5t72 187.5l76 471q4 31 32 31h316z" />
    <glyph glyph-name="V.ss04" horiz-adv-x="1345" 
d="M72 279h1147q12 0 21 -9.5t7 -21.5l-30 -217q-4 -31 -33 -31h-1151q-12 0 -21.5 9t-7.5 22l37 215q4 33 31 33zM1407 1434q14 0 21.5 -15.5t-1.5 -27.5l-602 -977q-16 -33 -39 -33h-227q-25 0 -33 33l-301 989q-10 31 23 31h284q35 0 43 -31l160 -533l334 543
q12 20 43 21h295z" />
    <glyph glyph-name="W.ss04" horiz-adv-x="1765" 
d="M72 279h1566q12 0 21.5 -9.5t7.5 -21.5l-33 -217q-4 -31 -30 -31h-1571q-12 0 -21.5 9t-7.5 22l37 215q4 33 31 33zM1829 1434q16 0 22.5 -9.5t-0.5 -19.5l-516 -999q-10 -25 -32 -25h-232q-20 0 -27 22l-100 408l-227 -408q-12 -23 -29 -22h-229q-25 0 -33 33l-203 991
q-2 12 6.5 20.5t22.5 8.5h293q27 0 30 -33l91 -483l266 493q10 23 39 23h116q25 0 33 -33l131 -481l248 491q10 23 35 23h295z" />
    <glyph glyph-name="X.ss04" horiz-adv-x="1298" 
d="M92 279h1059q12 0 22.5 -9.5t8.5 -21.5l-33 -217q-4 -31 -33 -31h-1063q-12 0 -21 9t-7 22l36 215q4 33 31 33zM1174 381h-328q-27 0 -41 31l-115 204l-170 -215q-18 -20 -53 -20h-361q-14 0 -20 16.5t4 28.5l424 487l-235 482q-18 39 18 39h328q35 0 45 -25l100 -211
l168 213q16 23 45 23h358q14 0 21.5 -17.5t-0.5 -27.5l-418 -476l252 -491q6 -12 -1 -26.5t-21 -14.5z" />
    <glyph glyph-name="Y.ss04" horiz-adv-x="1208" 
d="M72 279h1009q12 0 21.5 -9.5t7.5 -21.5l-31 -217q-4 -31 -32 -31h-1014q-12 0 -21.5 9t-7.5 22l37 215q4 33 31 33zM1266 1434q18 0 26 -15.5t-4 -36.5l-436 -618l-57 -350q-4 -33 -33 -33h-320q-12 0 -21 10t-7 23l59 358l-248 627q-6 14 1 24.5t24 10.5h315
q35 0 47 -37l101 -256l182 266q16 27 53 27h318z" />
    <glyph glyph-name="Z.ss04" horiz-adv-x="1140" 
d="M80 279h924q12 0 22 -9.5t8 -21.5l-33 -217q-4 -31 -32 -31h-926q-14 0 -23.5 9t-7.5 22l37 215q4 33 31 33zM293 1116q-12 0 -22.5 9.5t-8.5 21.5l43 254q4 33 31 33h854q16 0 24.5 -18.5t-2.5 -31.5l-538 -684h403q10 0 18.5 -9t6.5 -23l-39 -254q-4 -33 -33 -33h-934
q-16 0 -22 13.5t4 25.5l543 696h-328z" />
    <glyph glyph-name="B.ss05" horiz-adv-x="1265" 
d="M145 279h942q12 0 21.5 -9.5t7.5 -21.5l-33 -217q-4 -31 -30 -31h-947q-12 0 -21 9t-7 22l37 215q4 33 30 33zM739 641q86 0 97 78q6 59 -60 59h-182l-23 -137h168zM799 1174h-142l-22 -136h121q94 0 108 80q9 56 -65 56zM829 381h-661q-12 0 -22.5 9t-8.5 24l160 989
q4 31 31 31h626q154 0 233 -79t54 -227q-12 -82 -51 -132t-107 -91q100 -47 113 -99q23 -92 6 -153q-16 -121 -108.5 -196.5t-264.5 -75.5z" />
    <glyph glyph-name="C.ss05" horiz-adv-x="1153" 
d="M133 279h842q12 0 22.5 -9.5t8.5 -21.5l-33 -217q-4 -31 -33 -31h-846q-12 0 -22.5 9t-8.5 22l37 215q2 12 11.5 22.5t21.5 10.5zM598 365q-240 0 -360.5 139t-70.5 431t204 403q154 112 347 112t305 -91t126 -274q4 -31 -21 -34l-260 -43q-35 -10 -41 18
q-12 59 -38.5 83t-71.5 24q-150 0 -180 -250q-6 -55 -5.5 -99.5t25.5 -72t79 -27.5t88 27.5t64 89.5q6 18 35 12l260 -53q27 -8 17 -39q-109 -356 -502 -356z" />
    <glyph glyph-name="D.ss05" horiz-adv-x="1304" 
d="M147 279h957q12 0 21.5 -9.5t7.5 -21.5l-31 -217q-4 -31 -33 -31h-960q-12 0 -21.5 9t-7.5 22l37 215q4 33 30 33zM846 1116h-217l-66 -416h197q111 0 141 177l12 81q14 82 1 120t-68 38zM926 1434q440 0 362 -494l-14 -90q-39 -242 -158 -355.5t-338 -113.5h-610
q-12 0 -22.5 9t-8.5 24l160 989q4 31 31 31h598z" />
    <glyph glyph-name="E.ss05" horiz-adv-x="1204" 
d="M147 279h893q14 0 23.5 -9.5t7.5 -21.5l-33 -217q-4 -31 -30 -31h-899q-12 0 -21.5 9t-7.5 22l37 215q4 33 30 33zM1110 700q12 0 21.5 -9t7.5 -21l-39 -256q-4 -33 -31 -33h-901q-12 0 -22.5 9t-8.5 24l160 989q4 31 31 31h897q14 0 23 -9.5t7 -21.5l-38 -256
q-4 -31 -33 -31h-555l-11 -67h267q12 0 21 -9.5t7 -21.5l-34 -217q-4 -33 -31 -33h-273l-14 -68h549z" />
    <glyph glyph-name="F.ss05" horiz-adv-x="1247" 
d="M147 279h938q12 0 21.5 -9.5t7.5 -21.5l-31 -217q-4 -31 -32 -31h-942q-12 0 -21.5 9t-7.5 22l37 215q4 33 30 33zM1270 1434q12 0 22.5 -9.5t7.5 -21.5l-40 -256q-4 -31 -31 -31h-600l-15 -100h295q14 0 23.5 -9.5t7.5 -23.5l-43 -254q-4 -33 -31 -33h-305l-43 -282
q-4 -33 -31 -33h-319q-12 0 -22.5 9t-8.5 24l160 989q4 31 31 31h942z" />
    <glyph glyph-name="G.ss05" horiz-adv-x="1210" 
d="M133 279h897q12 0 22.5 -9.5t8.5 -21.5l-33 -217q-4 -31 -33 -31h-901q-12 0 -22.5 9t-8.5 22l37 215q2 12 11.5 22.5t21.5 10.5zM1151 1012q12 0 21.5 -9.5t7.5 -21.5l-90 -567q-2 -12 -11.5 -22.5t-21.5 -10.5h-164q-25 0 -29 25l-10 57q-102 -98 -266 -98
q-206 0 -335 118.5t-87 446.5q82 520 565 520q223 0 337 -97.5t114 -244.5q0 -25 -21 -29l-266 -47q-33 -4 -37 23q-14 51 -39 64t-59 14q-187 0 -223 -238q-18 -119 5 -165t113 -46t144 70h-60q-14 0 -22 9t-6 21l32 197q4 31 31 31h377z" />
    <glyph glyph-name="I.ss05" horiz-adv-x="829" 
d="M125 279h526q12 0 21.5 -10.5t7.5 -22.5l-33 -215q-4 -31 -33 -31h-526q-12 0 -21.5 9t-7.5 22l35 215q4 33 31 33zM791 1116h-78l-66 -416h70q12 0 22.5 -10t8.5 -22l-43 -254q-4 -33 -31 -33h-527q-12 0 -22 10t-8 23l43 260q4 27 30 26h78l66 416h-70q-12 0 -22.5 9.5
t-8.5 21.5l43 254q4 33 31 33h527q12 0 21 -9.5t7 -21.5l-41 -256q-3 -31 -30 -31z" />
    <glyph glyph-name="M.ss05" horiz-adv-x="1492" 
d="M147 279h1145q12 0 21.5 -9.5t7.5 -21.5l-33 -217q-4 -31 -31 -31h-1148q-12 0 -21.5 9t-7.5 22l37 215q4 33 30 33zM1176 1434h299q12 0 22 -9.5t8 -21.5l-155 -989q-4 -33 -33 -33h-318q-12 0 -22 10t-8 23l73 432l-204 -297q-20 -25 -41 -25h-43q-27 0 -39 33
l-123 289l-74 -432q-4 -33 -31 -33h-319q-12 0 -21.5 10t-7.5 23l160 999q2 20 12 21h312q33 0 55 -39l170 -363l282 379q16 23 46 23z" />
    <glyph glyph-name="N.ss05" horiz-adv-x="1345" 
d="M147 279h998q12 0 21.5 -9.5t7.5 -21.5l-33 -217q-4 -31 -31 -31h-1001q-12 0 -21.5 9t-7.5 22l37 215q4 33 30 33zM1327 1434q14 0 23.5 -9.5t7.5 -21.5l-156 -989q-4 -33 -31 -33h-260q-31 0 -45 31l-278 419l-70 -417q-4 -33 -31 -33h-319q-12 0 -21.5 10t-7.5 23
l158 989q4 31 31 31h274q31 0 43 -29l264 -408l70 406q4 31 33 31h315z" />
    <glyph glyph-name="O.ss05" horiz-adv-x="1253" 
d="M141 279h922q12 0 21.5 -9.5t7.5 -21.5l-33 -217q-4 -31 -31 -31h-926q-12 0 -21 9t-7 22l37 215q4 33 30 33zM647 684q84 0 142.5 60.5t78.5 185.5q35 203 -114 203q-80 0 -138.5 -61.5t-78.5 -188.5q-33 -199 110 -199zM639 365q-262 0 -392 135t-81 430
q84 520 600 520q256 0 388 -135t85 -432q-84 -518 -600 -518z" />
    <glyph glyph-name="P.ss05" horiz-adv-x="1216" 
d="M147 279h893q12 0 21.5 -9.5t7.5 -21.5l-33 -217q-4 -31 -30 -31h-897q-12 0 -21.5 9t-7.5 22l37 215q4 33 30 33zM762 954q39 0 67.5 30t34.5 69q10 72 -63 71h-170l-27 -170h158zM823 647h-268l-37 -233q-4 -33 -31 -33h-319q-14 0 -22.5 10t-6.5 23l158 989
q4 31 31 31h616q168 0 246 -103.5t46 -303t-143.5 -290t-269.5 -90.5z" />
    <glyph glyph-name="Q.ss05" horiz-adv-x="1253" 
d="M1063 279q12 0 21.5 -9.5t7.5 -21.5l-33 -217q-4 -31 -31 -31h-926q-12 0 -21 9t-7 22l37 215q4 33 30 33h922zM647 684q84 0 142.5 60.5t78.5 185.5q35 203 -114 203q-80 0 -138.5 -61.5t-78.5 -188.5q-33 -199 110 -199zM766 1450q256 0 388 -135t85 -432
q-29 -182 -113 -301l45 -52q20 -23 -6 -45l-176 -155q-25 -23 -49 6l-57 65q-104 -37 -244 -36q-262 0 -392 135t-81 430q84 520 600 520z" />
    <glyph glyph-name="R.ss05" horiz-adv-x="1267" 
d="M145 279h965q12 0 21.5 -9.5t7.5 -21.5l-31 -217q-4 -31 -33 -31h-969q-12 0 -21 9t-7 22l37 215q0 12 9 22.5t21 10.5zM782 975q98 0 113 92q4 31 -9.5 44t-54.5 13h-200l-23 -149h174zM487 381h-319q-14 0 -23.5 10t-7.5 23l160 989q4 31 35 31h600q397 0 334 -394
q-33 -207 -207 -297q102 -111 102 -333q0 -10 -9 -19.5t-22 -9.5h-303q-12 0 -22 10t-10 23q0 150 -88 256h-146l-43 -256q-4 -33 -31 -33z" />
    <glyph glyph-name="U.ss05" horiz-adv-x="1286" 
d="M184 279h856q14 0 23.5 -9.5t7.5 -21.5l-33 -217q-4 -31 -30 -31h-863q-12 0 -21 9t-7 22l37 215q4 33 30 33zM1270 1434q12 0 22.5 -9.5t7.5 -21.5l-102 -651q-35 -217 -151.5 -303.5t-352.5 -86.5h-104q-233 0 -330.5 100.5t-64.5 311.5l100 629q4 31 31 31h317
q12 0 21.5 -8.5t7.5 -22.5l-92 -592q-12 -78 0 -103.5t49 -25.5h86q37 0 69.5 37t46.5 117l91 567q4 31 30 31h318z" />
    <glyph glyph-name="W.ss05" horiz-adv-x="1832" 
d="M84 279h1604q12 0 21 -9.5t7 -21.5l-33 -217q-4 -31 -30 -31h-1608q-12 0 -21.5 9t-7.5 22l37 215q0 12 9.5 22.5t21.5 10.5zM1882 1434q16 0 23.5 -13.5t-0.5 -29.5l-551 -977q-16 -33 -43 -33h-209q-25 0 -33 33l-96 346l-203 -350q-20 -29 -43 -29h-205q-25 0 -33 33
l-251 991q-6 29 28 29h293q23 0 31 -33l123 -457l233 459q12 31 37 31h168q10 0 20.5 -11.5t10.5 -21.5l90 -457l266 457q25 33 41 33h303z" />
    <glyph glyph-name="i.loclTRK" horiz-adv-x="571" 
d="M66 0q-14 0 -23.5 9t-7.5 22l125 805q4 31 30 30h320q12 0 21.5 -9t7.5 -21l-127 -805q-4 -31 -31 -31h-315zM393.5 1028q-70.5 0 -119.5 60.5t-32 134.5q10 61 59 100t119 39t118 -59.5t34.5 -129t-61 -107.5t-118 -38z" />
    <glyph glyph-name="ae.ss01" horiz-adv-x="1536" 
d="M446.5 193q36.5 0 69.5 24.5t41 69.5q14 76 -63 75q-53 0 -83 -34.5t-33 -65.5t14.5 -50t54 -19zM1139 543q16 109 -68 108q-49 0 -84 -30.5t-39 -77.5h191zM1018 248h39q80 0 123 23t65 -9l92 -170q16 -31 -6 -45q-37 -23 -123 -43t-176 -20q-186 0 -311 98
q-131 -98 -345.5 -98t-289 87t-56.5 213q37 253 371 253q115 0 191 -23l8 49q4 39 -17.5 49.5t-102.5 10.5t-195 -25q-23 -6 -37.5 9.5t-14.5 29.5v164q4 35 29 43q94 39 296 39t269 -78q129 78 287 78q217 0 302 -148.5t48 -404.5q-4 -25 -34 -25h-500q13 -33 24 -39t16 -9
t14 -5t13 -3t21 -1z" />
    <glyph glyph-name="b.ss01" horiz-adv-x="1083" 
d="M515.5 262q58.5 0 104.5 56.5t60 136.5q23 150 -94 149q-61 0 -89 -41t-44 -131t-6 -130t68.5 -40zM670 883q209 0 298 -137.5t58 -324.5t-146.5 -312t-314.5 -125q-80 0 -125 21.5t-88 66.5l-26 -41q-14 -31 -47 -31h-213q-12 0 -22.5 9t-8.5 22l217 1388q4 31 31 31
h317q14 0 23.5 -9t7.5 -22l-88 -553q47 17 127 17z" />
    <glyph glyph-name="c.ss01" horiz-adv-x="1005" 
d="M451.5 -16q-191.5 0 -308 135t-84 331.5t177 314.5t315.5 118t270.5 -94.5t111.5 -227.5q2 -31 -19 -33l-227 -34q-29 0 -31 18q-6 92 -90 92q-131 0 -161 -201q-25 -141 86 -141q90 0 131 82q14 23 30 21l234 -41q23 -6 20 -39q-14 -88 -139 -194.5t-316.5 -106.5z" />
    <glyph glyph-name="cacute.ss01" horiz-adv-x="1005" 
d="M451.5 -16q-191.5 0 -308 135t-84 331.5t177 314.5t315.5 118t270.5 -94.5t111.5 -227.5q2 -31 -19 -33l-227 -34q-29 0 -31 18q-6 92 -90 92q-131 0 -161 -201q-25 -141 86 -141q90 0 131 82q14 23 30 21l234 -41q23 -6 20 -39q-14 -88 -139 -194.5t-316.5 -106.5z
M475 938q-29 -18 -41 8l-37 66q-16 25 0 43l336 311q10 8 24.5 5t18.5 -13l88 -166q12 -25 -8 -35z" />
    <glyph glyph-name="ccaron.ss01" horiz-adv-x="1005" 
d="M451.5 -16q-191.5 0 -308 135t-84 331.5t177 314.5t315.5 118t270.5 -94.5t111.5 -227.5q2 -31 -19 -33l-227 -34q-29 0 -31 18q-6 92 -90 92q-131 0 -161 -201q-25 -141 86 -141q90 0 131 82q14 23 30 21l234 -41q23 -6 20 -39q-14 -88 -139 -194.5t-316.5 -106.5z
M580 991q-16 0 -48 35l-151 170q-23 27 -21 55l9 62q4 33 51 4l186 -143l244 149q20 12 31.5 2t7.5 -31l-10 -49q-6 -37 -23 -49l-217 -188q-18 -16 -37 -17h-22z" />
    <glyph glyph-name="ccedilla.ss01" horiz-adv-x="1005" 
d="M567 604q-131 0 -161 -201q-25 -141 86 -141q90 0 131 82q14 23 30 21l234 -41q23 -6 20 -39q-12 -78 -119.5 -178.5t-267.5 -118.5l-39 -56q92 -2 128 -56t21 -130t-70.5 -120t-143.5 -44t-136.5 32t-58.5 60q0 14 4 21l54 53q16 14 38.5 -7.5t57.5 -21.5q78 0 88 76
q6 39 -16.5 42t-39.5 -19t-49 -15l-84 27q-20 6 -10 27l86 139q-156 37 -237.5 163t-51 307t175 299t315.5 118t270.5 -94.5t111.5 -227.5q2 -31 -19 -33l-227 -34q-29 0 -31 18q-6 92 -90 92z" />
    <glyph glyph-name="cdotaccent.ss01" horiz-adv-x="1005" 
d="M451.5 -16q-191.5 0 -308 135t-84 331.5t177 314.5t315.5 118t270.5 -94.5t111.5 -227.5q2 -31 -19 -33l-227 -34q-29 0 -31 18q-6 92 -90 92q-131 0 -161 -201q-25 -141 86 -141q90 0 131 82q14 23 30 21l234 -41q23 -6 20 -39q-14 -88 -139 -194.5t-316.5 -106.5z
M593 999q-56 0 -96 48.5t-30 104.5t50 88t97 32t96.5 -48t29 -105.5t-50.5 -88.5t-96 -31z" />
    </font>
</defs>
</svg>
