<?xml version="1.0" standalone="no"?>
<!DOCTYPE svg PUBLIC "-//W3C//DTD SVG 1.1//EN" "http://www.w3.org/Graphics/SVG/1.1/DTD/svg11.dtd" >
<svg xmlns="http://www.w3.org/2000/svg">
<metadata>
Created by FontPrep 20130207 at Tue Apr  4 15:34:26 2017
 By Tina Muller
Copyright 2016 by Paulo Goode. All rights reserved.
</metadata>
<defs>
<font id="f8903037c4efd0bd144a157b5653d1d8" horiz-adv-x='1024' >
  <font-face 
    font-family="WoodfordBournePRO-Black"
    font-weight="800"
    font-stretch="normal"
    units-per-em="2048"
    panose-1="0 0 9 0 0 0 0 0 0 0"
    ascent="1638"
    descent="-410"
    x-height="866"
    cap-height="1434"
    bbox="-1331 -590 5309.45 2001"
    underline-thickness="102"
    underline-position="-102"
    unicode-range="U+0020-FB02"
  />
<missing-glyph horiz-adv-x="2123" 
d="M1229 631l233 -236q25 -23 2 -45l-123 -123q-20 -25 -45 0l-235 236l-236 -236q-25 -25 -45 0l-123 123q-23 23 2 45l236 236l-236 233q-25 25 -2 45l123 123q20 25 45 0l236 -235l235 235q25 25 45 0l123 -123q23 -20 -2 -45zM1485 1348q-33 0 -33 30v260q0 31 33 31
h506q12 0 21 -9t9 -22v-1955q0 -11 -9 -21t-21 -10h-506q-33 0 -33 31v260q0 31 33 30h184v1375h-184zM721 1348h-184v-1375h184q33 0 33 -30v-260q0 -31 -33 -31h-506q-12 0 -21 9t-10 22v1955q0 12 10 22t21 9h506q33 0 33 -31v-260q0 -30 -33 -30z" />
    <glyph glyph-name="fi" unicode="fi" horiz-adv-x="1236" 
d="M164 866v123q0 461 426 461q242 0 414 -113q29 -18 10 -43l-123 -166q-14 -23 -39 -10q-96 68 -180 68t-126 -54t-42 -151v-115h602q29 0 29 -30v-807q0 -29 -31 -29h-279q-31 0 -30 29v571h-291v-569q0 -31 -31 -31h-278q-31 0 -31 31v569h-74q-29 0 -29 31v205
q0 31 29 30h74z" />
    <glyph glyph-name="fl" unicode="fl" horiz-adv-x="1236" 
d="M1104 1450q12 0 21 -9t10 -24v-1386q0 -31 -31 -31h-281q-29 0 -28 31v936q0 199 -150 198q-69 0 -105 -60t-36 -144v-95h108q12 0 22 -9t9 -21v-205q0 -11 -9 -21t-22 -10h-108v-569q0 -31 -31 -31h-278q-31 0 -31 31v569h-74q-29 0 -29 31v205q0 31 29 30h74v90
q0 461 426 461q115 0 205 -55v55q0 33 28 33h281z" />
    <glyph glyph-name="f_f" unicode="ff" horiz-adv-x="1546" 
d="M795 866v17q0 256 -146 256q-73 -1 -109 -53t-36 -130v-90h291zM1135 866h170q12 0 21 -9t9 -21v-203q0 -11 -9 -21t-21 -10h-170v-571q0 -31 -31 -31h-279q-31 0 -30 31v571h-291v-571q0 -31 -31 -31h-278q-31 0 -31 31v571h-74q-29 0 -29 31v203q0 31 29 30h74v99
q0 225 127 325t325 101q143 0 287 -56q106 115 311 115q86 0 186 -22t105 -57q1 -7 -4 -23l-123 -166q-11 -15 -28 -15q-65 18 -80 19q-74 0 -105 -50t-30 -155v-115z" />
    <glyph glyph-name="f_f_i" unicode="ffi" horiz-adv-x="1867" 
d="M795 866v17q0 256 -146 256q-73 -1 -109 -53t-36 -130v-90h291zM1737 866q29 0 28 -30v-807q0 -29 -30 -29h-279q-31 0 -31 29v571h-290v-569q0 -31 -31 -31h-279q-31 0 -30 31v569h-291v-569q0 -31 -31 -31h-278q-31 0 -31 31v569h-74q-29 0 -29 31v205q0 31 29 30h74
v99q0 225 127 325t325 101q143 0 287 -56q106 115 333 115t398 -113q29 -18 11 -43l-123 -166q-14 -23 -39 -10q-95 68 -179 68t-126 -54t-43 -151v-115h602z" />
    <glyph glyph-name="f_f_l" unicode="ffl" horiz-adv-x="1867" 
d="M795 866v17q0 256 -146 256q-73 -1 -109 -53t-36 -130v-90h291zM1735 1450q12 0 21 -9t9 -24v-1386q0 -31 -30 -31h-281q-29 0 -29 31v936q0 199 -149 198q-68 0 -105 -60t-36 -144v-95h108q11 0 21 -9t10 -21v-205q0 -11 -9 -21t-22 -10h-108v-569q0 -31 -31 -31h-279
q-31 0 -30 31v569h-291v-569q0 -31 -31 -31h-278q-31 0 -31 31v569h-74q-29 0 -29 31v205q0 31 29 30h74v99q0 225 127 325t306 100t329 -65q106 92 295 92q115 0 204 -55v55q0 33 29 33h281z" />
    <glyph glyph-name=".notdef" horiz-adv-x="2123" 
d="M1229 631l233 -236q25 -23 2 -45l-123 -123q-20 -25 -45 0l-235 236l-236 -236q-25 -25 -45 0l-123 123q-23 23 2 45l236 236l-236 233q-25 25 -2 45l123 123q20 25 45 0l236 -235l235 235q25 25 45 0l123 -123q23 -20 -2 -45zM1485 1348q-33 0 -33 30v260q0 31 33 31
h506q12 0 21 -9t9 -22v-1955q0 -11 -9 -21t-21 -10h-506q-33 0 -33 31v260q0 31 33 30h184v1375h-184zM721 1348h-184v-1375h184q33 0 33 -30v-260q0 -31 -33 -31h-506q-12 0 -21 9t-10 22v1955q0 12 10 22t21 9h506q33 0 33 -31v-260q0 -30 -33 -30z" />
    <glyph glyph-name=".null" 
 />
    <glyph glyph-name="nonmarkingreturn" horiz-adv-x="681" 
 />
    <glyph glyph-name="space" unicode=" " horiz-adv-x="450" 
 />
    <glyph glyph-name="exclam" unicode="!" horiz-adv-x="671" 
d="M336 -16q-72 0 -123 51t-51 123t51 123t123 51t123 -51t51 -124t-51 -123t-123 -50zM246 449q-29 0 -33 30l-70 940q-4 31 29 31h328q33 0 28 -31l-69 -940q-4 -31 -33 -30h-180z" />
    <glyph glyph-name="quotedbl" unicode="&#x22;" horiz-adv-x="817" 
d="M547 928q-31 0 -33 30l-57 506q-2 31 26 31h228q27 0 24 -31l-57 -506q-2 -31 -33 -30h-98zM172 928q-29 0 -33 30l-57 506q-4 31 27 31h227q29 0 24 -31l-57 -506q-4 -31 -33 -30h-98z" />
    <glyph glyph-name="numbersign" unicode="#" horiz-adv-x="1519" 
d="M831 616l62 269h-205l-63 -269h206zM1384 1153q10 0 22 -8t11 -23v-207q0 -14 -11 -22t-22 -8h-180l-63 -269h119q10 0 21 -8t11 -22v-207q0 -15 -11 -23t-21 -8h-183l-73 -317q-6 -31 -43 -31h-232q-39 0 -31 45l70 303h-207l-74 -317q-6 -31 -43 -31h-231q-39 0 -31 45
l70 303h-117q-33 0 -33 31v207q0 31 33 30h180l62 269h-119q-33 0 -33 30v207q0 31 33 31h182l62 266q6 31 41 31h245q31 0 23 -37l-61 -260h206l62 266q6 31 41 31h246q31 0 22 -37l-61 -260h118z" />
    <glyph glyph-name="dollar" unicode="$" horiz-adv-x="1349" 
d="M1247 430q0 -135 -97 -261t-298 -169v-127q0 -29 -31 -29h-299q-31 0 -30 29v123q-229 39 -373 182q-20 20 0 41l192 193q16 16 39 2q113 -92 326 -92q74 0 142.5 28.5t68.5 75.5t-44 71.5t-190 51.5q-311 57 -431 169.5t-120 288.5t166 316q92 78 224 109v122
q0 35 30 35h299q31 0 31 -35v-120q209 -39 375 -174q10 -8 10 -21.5t-8 -24.5l-195 -194q-20 -16 -39 -4q-129 96 -330.5 96t-201.5 -92q0 -49 54 -79t194 -54q305 -53 420.5 -163t115.5 -294z" />
    <glyph glyph-name="percent" unicode="%" horiz-adv-x="2117" 
d="M1678 231q68 1 90 57t22 164t-24 164t-89 56q-115 0 -114 -221q0 -104 24 -162t91 -58zM1677 -16q-182 0 -271 108t-89 359q0 249 89 359t271 110q183 0 271 -110t88 -360t-88 -358q-89 -108 -271 -108zM443 764q67 0 89 56t23 164q0 108 -24 164t-89 56
q-115 0 -114 -221q0 -103 24 -161t91 -58zM639 0q-20 0 -30 14q-9 14 -1 31l682 1358q14 31 41 31h178q15 0 23 -10t0 -27l-684 -1366q-16 -31 -43 -31h-166zM442 516q-182 0 -271 109t-89 359t89 358q89 110 271 110t270 -110t89 -360q-1 -250 -89 -358t-270 -108z" />
    <glyph glyph-name="ampersand" unicode="&#x26;" horiz-adv-x="1368" 
d="M526 279q86 0 170 114q-98 94 -198 207q-96 -92 -96 -206t124 -115zM578 1200q-31 0 -51 -25q-19 -26 -19 -70t65 -138q72 82 72 151q0 34 -18 58t-49 24zM82 397q0 199 262 396q-125 174 -125 294q-1 171 103 267t261 96t253 -89t96 -243q0 -186 -199 -346
q72 -80 148 -151q100 94 196 153q23 16 43 -4l142 -176q16 -23 -5 -41q-72 -47 -157 -137q147 -130 217 -189q23 -23 2 -41l-168 -174q-25 -25 -45 -4q-141 127 -195 178q-174 -202 -381 -202q-208 0 -328 120t-120 293z" />
    <glyph glyph-name="quotesingle" unicode="'" horiz-adv-x="442" 
d="M172 928q-29 0 -33 30l-57 506q-4 31 27 31h227q29 0 24 -31l-57 -506q-4 -31 -33 -30h-98z" />
    <glyph glyph-name="parenleft" unicode="(" horiz-adv-x="806" 
d="M504 -213q-23 -12 -41 6q-127 137 -223 399q-190 519 -8 1016q89 244 221 396q20 25 49 10l180 -96q33 -14 16 -43q-86 -135 -143 -349t-53 -417q-4 -424 200 -768q12 -25 -14 -37z" />
    <glyph glyph-name="parenright" unicode=")" horiz-adv-x="806" 
d="M303 -213l-184 117q-27 12 -15 37q205 344 201 768q4 205 -53 417t-143 349q-16 29 16 43l180 96q29 14 49 -10q131 -152 220 -396q183 -502 -7 -1015q-96 -262 -223 -400q-18 -18 -41 -6z" />
    <glyph glyph-name="asterisk" unicode="*" horiz-adv-x="792" 
d="M309 1450h115q31 0 29 -27l-29 -170l2 -2l152 78q29 12 36 -18l33 -109q8 -29 -16 -35l-172 -24v-2l121 -127q18 -20 -9 -39l-94 -66q-25 -16 -39 9l-69 147h-4l-70 -147q-12 -27 -39 -9l-94 66q-27 18 -8 39l122 125l-2 2l-174 26q-25 6 -16 35l35 109q8 27 35 18
l153 -78l2 2l-28 168q-2 13 7 21t21 8z" />
    <glyph glyph-name="plus" unicode="+" horiz-adv-x="1101" 
d="M967 817q33 0 32 -31v-174q0 -31 -32 -30h-283v-299q0 -33 -31 -33h-204q-31 0 -31 33v299h-283q-33 0 -33 30v174q0 31 33 31h283v301q0 33 31 33h204q31 0 31 -33v-301h283z" />
    <glyph glyph-name="comma" unicode="," horiz-adv-x="559" 
d="M436 289v-285q0 -135 -96 -247t-242 -173q-18 -8 -31 22t9 42q127 63 180 142t53 185l-159 56q-33 12 -33 43v215q0 31 33 30h253q33 1 33 -30z" />
    <glyph glyph-name="hyphen" unicode="-" horiz-adv-x="806" 
d="M135 328q-33 0 -33 30v174q0 31 33 31h537q33 0 33 -31v-174q0 -31 -33 -30h-537z" />
    <glyph glyph-name="period" unicode="." horiz-adv-x="565" 
d="M156 0q-33 0 -33 31v258q0 31 33 30h254q33 0 32 -30v-258q0 -31 -32 -31h-254z" />
    <glyph glyph-name="slash" unicode="/" horiz-adv-x="966" 
d="M262 0h-166q-20 0 -29 14t-1 31l593 1358q12 31 41 31h181q16 0 22 -12t0 -25l-598 -1366q-14 -31 -43 -31z" />
    <glyph glyph-name="zero" unicode="0" horiz-adv-x="1331" 
d="M666 1130q-138 0 -178 -91t-40 -323t39 -324q40 -91 166 -91t178 63t52 352q0 288 -54 351t-163 63zM667 -16q-288 0 -426 171t-139 562q0 391 138 562t427 171q288 0 425 -171t137 -562t-137 -562t-425 -171z" />
    <glyph glyph-name="one" unicode="1" horiz-adv-x="1138" 
d="M389 295v764l-225 -45q-12 -2 -22 7q-9 9 -9 21v230q0 14 31 31l242 122q16 8 34 9h281q29 0 29 -31v-1108h256q12 0 21 -9t9 -22v-235q0 -29 -30 -29h-873q-31 0 -31 29v235q0 12 10 22t21 9h256z" />
    <glyph glyph-name="two" unicode="2" horiz-adv-x="1249" 
d="M1116 322q12 0 22 -10t9 -21v-262q0 -29 -31 -29h-962q-31 0 -31 29v213q0 14 12 26l373 400q248 260 248 348q0 115 -146 114q-166 0 -166 -139q0 -25 -28 -24h-283q-31 0 -31 32q0 164 102 296q54 71 163 113t260 42h2q258 0 377 -123t118 -309q0 -126 -53 -215
t-84 -119l-340 -362h469z" />
    <glyph glyph-name="three" unicode="3" horiz-adv-x="1249" 
d="M633 1450q262 0 378 -118t115 -304q0 -236 -170 -305q190 -76 191 -317q0 -186 -124 -304t-398 -118q-139 0 -245 39q-182 67 -250 232q-28 69 -28 140q0 35 31 35h281q31 0 30 -31q4 -96 181 -96q92 0 135 33t43 106t-42 92t-188 19h-47q-31 0 -30 29v262q0 29 30 28h47
q182 0 201 51q8 22 8 83q0 124 -166 124t-172 -102q0 -25 -28 -24h-283q-31 0 -31 34q0 151 112 273q58 63 166 101t253 38z" />
    <glyph glyph-name="four" unicode="4" horiz-adv-x="1343" 
d="M752 590v432l-267 -432h267zM672 1434h411q29 0 29 -31v-813h98q31 0 31 -29v-262q0 -29 -31 -29h-98v-239q0 -31 -29 -31h-301q-12 0 -21 9t-9 22v239h-639q-31 0 -31 29v209q0 12 8 24l551 883q8 19 31 19z" />
    <glyph glyph-name="five" unicode="5" horiz-adv-x="1249" 
d="M1147 473q0 -233 -138 -361q-137 -128 -369 -128t-385 105t-153 306q0 35 31 35h283q29 0 28 -24q4 -102 181 -103q80 0 129 47t49 133q0 141 -111 181t-266 -60q-18 -10 -39 -6l-260 53q-25 6 -23 31l115 723q4 29 31 29h786q31 0 31 -29v-262q0 -29 -31 -29l-549 -2
l-28 -190q133 48 257 36q267 -27 374 -230q57 -110 57 -255z" />
    <glyph glyph-name="six" unicode="6" horiz-adv-x="1249" 
d="M647 303q78 0 123 52t45 134q0 83 -45 137t-123 54t-123 -54t-45 -136t45 -135q45 -52 123 -52zM682 965q211 -1 338 -139t127 -348t-150 -352t-350 -142q-256 0 -400 187q-145 187 -145 519t150 546t410 214q196 0 314 -117t118 -248q0 -33 -23 -32h-260q-25 0 -33 24
q-25 53 -125 53q-203 0 -211 -241q93 76 240 76z" />
    <glyph glyph-name="seven" unicode="7" horiz-adv-x="1208" 
d="M131 1112q-29 0 -29 29v260q0 33 29 33h985q16 0 26 -14t1 -31l-654 -1360q-18 -29 -49 -29h-307q-16 0 -25 14t-2 29l515 1069h-490z" />
    <glyph glyph-name="eight" unicode="8" horiz-adv-x="1249" 
d="M623 301q74 0 127 30t53 89t-47 106t-129 74q-84 -25 -132 -73q-49 -48 -49 -107t52 -89t125 -30zM764 1001q0 55 -36 92t-102 37q-64 0 -105 -35q-40 -36 -40 -82t38 -89t110 -66q135 47 135 143zM1147 397q0 -184 -134 -299q-134 -114 -388 -114t-388 114t-135 299
q0 213 185 318q-150 125 -150 308t126 305q125 122 359 122t360 -122t126 -306t-145 -305q184 -104 184 -320z" />
    <glyph glyph-name="nine" unicode="9" horiz-adv-x="1249" 
d="M630 770q70 0 114 51t44 135t-46 137q-46 54 -118 54t-126 -50t-54 -138q0 -89 58 -139t128 -50zM1147 707q1 -369 -147 -546t-386 -177t-361 116q-122 116 -122 246q0 35 23 35h286q20 0 33 -25q29 -53 123 -53t143 45t58 156q-59 -35 -174 -35q-246 0 -383 139
q-138 138 -138 360t150 352t379 130q516 0 516 -743z" />
    <glyph glyph-name="colon" unicode=":" horiz-adv-x="647" 
d="M197 0q-33 0 -33 31v258q0 31 33 30h254q33 0 32 -30v-258q0 -31 -32 -31h-254zM197 514q-33 0 -33 31v258q0 31 33 31h254q33 0 32 -31v-258q0 -31 -32 -31h-254z" />
    <glyph glyph-name="semicolon" unicode=";" horiz-adv-x="641" 
d="M477 289v-285q0 -135 -96 -247t-242 -173q-17 -8 -31 22t9 42q127 63 180 142t53 185l-160 56q-33 12 -32 43v215q0 31 32 30h254q33 1 33 -30zM190 514q-33 0 -32 31v258q0 31 32 31h254q33 0 33 -31v-258q0 -31 -33 -31h-254z" />
    <glyph glyph-name="less" unicode="&#x3c;" horiz-adv-x="1171" 
d="M102 766q0 27 21 35l835 338q31 12 43 -17l66 -159q8 -29 -18 -41l-539 -220l539 -217q27 -12 18 -41l-66 -159q-12 -29 -43 -17l-835 338q-20 8 -21 35v125z" />
    <glyph glyph-name="equal" unicode="=" horiz-adv-x="1171" 
d="M135 399q-33 0 -33 31v174q0 31 33 31h901q33 0 33 -31v-174q0 -31 -33 -31h-901zM135 768q-33 0 -33 31v174q0 31 33 31h901q33 0 33 -31v-174q0 -31 -33 -31h-901z" />
    <glyph glyph-name="greater" unicode="&#x3e;" horiz-adv-x="1171" 
d="M1069 766v-125q0 -27 -20 -35l-836 -338q-31 -12 -43 17l-66 159q-8 29 19 41l539 217l-539 220q-27 12 -19 41l66 159q12 29 43 17l836 -338q20 -8 20 -35z" />
    <glyph glyph-name="question" unicode="?" horiz-adv-x="1187" 
d="M512 -16q-72 0 -123 50t-51 123t51 124t123 51t123 -51t51 -123t-51 -123t-123 -51zM623 1450q216 0 341 -94q142 -112 142 -318q0 -133 -62 -208t-203 -158q-140 -83 -158 -140q-9 -28 -9 -64t-27 -36h-268q-29 0 -29 29q0 133 38 213t132 145q23 15 102 61
q80 46 110 78t30 74q0 43 -35 71t-109 27q-176 0 -192 -182q-2 -25 -29 -24h-284q-20 0 -26 10q-5 10 -5 37q0 203 132 341q133 138 409 138z" />
    <glyph glyph-name="at" unicode="@" horiz-adv-x="2195" 
d="M1092 236q137 0 137 194t-137 195q-72 -1 -111 -55t-39 -139t39 -140t111 -55zM1583 1333q510 0 510 -467v-567q0 -152 -102 -242t-314 -90q-254 0 -360 152q-100 -135 -296 -135t-297 128t-101 324t105 322q105 125 302 125q143 0 232 -76l18 27q25 33 49 32h195
q29 0 28 -32v-510q0 -47 29 -73t69 -26t72 32t31 112v497q0 82 -45 146t-125 63h-627q-226 0 -380 -177t-154 -470q0 -219 106 -385q10 -11 3 -27t-25 -16h-281q-39 0 -69 43q-74 163 -74 395t113 442t315 332t446 121h627z" />
    <glyph glyph-name="A" unicode="A" horiz-adv-x="1550" 
d="M629 498h293l-148 331zM846 1450q20 0 33 -31l608 -1388q4 -12 -3 -21.5t-20 -9.5h-309q-16 0 -31 31l-63 147h-572l-63 -147q-12 -31 -31 -31h-313q-12 0 -17.5 9t-1.5 22l607 1388q12 31 30 31h146z" />
    <glyph glyph-name="B" unicode="B" horiz-adv-x="1282" 
d="M504 319h219q53 0 85 33t32 92.5t-32 91t-85 31.5h-219v-248zM680 1114h-176v-248h176q55 0 88 33t33 90.5t-33 91t-88 33.5zM1200 408q0 -168 -108.5 -287t-266.5 -121h-651q-12 0 -21.5 9t-9.5 22v1372q0 12 9.5 21.5t21.5 9.5h610q158 -2 266.5 -121t108.5 -293
t-131 -291q78 -55 125 -140t47 -181z" />
    <glyph glyph-name="C" unicode="C" horiz-adv-x="1474" 
d="M815 -16q-303 0 -518 215t-215 518t215 518t518 215q164 0 309.5 -66.5t243.5 -185.5q18 -23 2 -43l-199 -199q-25 -25 -45 5q-51 76 -133 120.5t-178 44.5q-162 0 -267.5 -118.5t-105.5 -291.5t105.5 -291t267.5 -118q207 0 338 170q20 25 45 2l184 -182q20 -20 0 -45
q-104 -125 -251.5 -196.5t-315.5 -71.5z" />
    <glyph glyph-name="D" unicode="D" horiz-adv-x="1441" 
d="M723 322q276 0 276 395t-276 395h-219v-790h219zM1360 721q0 -348 -176 -532.5t-451 -188.5h-559q-12 0 -21.5 9t-9.5 22v1372q0 12 9.5 21.5t21.5 9.5h567q276 -6 447.5 -185.5t171.5 -527.5z" />
    <glyph glyph-name="E" unicode="E" horiz-adv-x="1243" 
d="M1110 322q12 0 21.5 -9.5t9.5 -21.5v-260q0 -12 -9.5 -21.5t-21.5 -9.5h-936q-12 0 -21.5 9t-9.5 22v1372q0 12 9.5 21.5t21.5 9.5h938q29 0 29 -31v-260q0 -31 -29 -31h-608v-235h401q31 0 31 -29v-262q0 -29 -31 -29h-401v-235h606z" />
    <glyph glyph-name="F" unicode="F" horiz-adv-x="1222" 
d="M1110 1434q12 0 21.5 -9.5t9.5 -21.5v-260q0 -12 -9.5 -21.5t-21.5 -9.5h-606v-278h422q31 0 30 -29v-262q0 -29 -30 -29h-422v-483q0 -31 -29 -31h-301q-12 0 -21.5 9t-9.5 22v1372q0 12 9.5 21.5t21.5 9.5h936z" />
    <glyph glyph-name="G" unicode="G" horiz-adv-x="1501" 
d="M1341 821q29 0 29 -28v-643q0 -51 -210 -108.5t-355 -57.5q-295 0 -509 206.5t-214 525.5t222 526.5t517 207.5q156 0 301.5 -65.5t247.5 -188.5q18 -23 -2 -43l-197 -197q-8 -8 -21 -9t-22 11q-121 172 -315 172q-160 0 -265.5 -122.5t-105.5 -293.5t96.5 -291t243 -120
t228.5 45v166h-142q-31 0 -30 29v250q0 29 30 28h473z" />
    <glyph glyph-name="H" unicode="H" horiz-adv-x="1515" 
d="M1343 1434q29 0 29 -31v-1372q0 -31 -29 -31h-301q-31 0 -30 31v516h-508v-516q0 -31 -29 -31h-301q-12 0 -21.5 9t-9.5 22v1372q0 12 9.5 21.5t21.5 9.5h301q29 0 29 -31v-537h508v537q0 31 30 31h301z" />
    <glyph glyph-name="I" unicode="I" horiz-adv-x="647" 
d="M174 0q-12 0 -21.5 9t-9.5 22v1372q0 12 9.5 21.5t21.5 9.5h301q29 0 29 -31v-1372q0 -31 -29 -31h-301z" />
    <glyph glyph-name="J" unicode="J" horiz-adv-x="1114" 
d="M940 1434q12 0 21.5 -9.5t9.5 -23.5v-932q-4 -213 -131 -349t-336 -136q-141 0 -261 76.5t-180 220.5q-10 27 15 36l217 115q31 12 41 -16q37 -94 131 -97q16 -1 45 9q98 32 98 147v926q0 33 29 33h301z" />
    <glyph glyph-name="K" unicode="K" horiz-adv-x="1437" 
d="M504 31q0 -31 -29 -31h-301q-12 0 -21.5 9t-9.5 22v1372q0 12 9.5 21.5t21.5 9.5h301q29 0 29 -31v-586l469 586q23 31 59 31h314q20 0 27 -17.5t-3 -32.5l-534 -667l532 -668q12 -12 6 -30.5t-28 -18.5h-330q-35 0 -60 31l-452 565v-565z" />
    <glyph glyph-name="L" unicode="L" horiz-adv-x="1198" 
d="M1087 322q29 0 29 -31v-260q0 -31 -29 -31h-913q-12 0 -21.5 9t-9.5 22v1370q0 14 9.5 23.5t21.5 9.5h301q29 0 29 -33v-1079h583z" />
    <glyph glyph-name="M" unicode="M" horiz-adv-x="1873" 
d="M1411 1434h289q31 0 31 -31v-1374q0 -29 -31 -29h-297q-33 0 -33 29v682l-364 -680q-23 -31 -50 -31h-36q-29 0 -50 31l-366 680v-682q0 -29 -33 -29h-297q-31 0 -31 29v1374q0 31 31 31h291q31 0 45 -31l426 -815l428 815q16 31 47 31z" />
    <glyph glyph-name="N" unicode="N" horiz-adv-x="1564" 
d="M1391 1434q12 0 21 -9.5t9 -21.5v-1374q0 -29 -30 -29h-254q-31 0 -52 29l-581 766v-766q0 -29 -29 -29h-301q-31 0 -31 29v1374q0 12 9.5 21.5t21.5 9.5h270q31 0 50 -31l567 -741v741q0 31 29 31h301z" />
    <glyph glyph-name="O" unicode="O" horiz-adv-x="1628" 
d="M815 305q162 0 266.5 119t104.5 291t-105.5 291.5t-266.5 119.5t-266.5 -119.5t-105.5 -291.5t105.5 -291t267.5 -119zM815 -16q-303 0 -518 214t-215 518t215 519t518 215t517 -215t214 -519t-214 -518t-517 -214z" />
    <glyph glyph-name="P" unicode="P" horiz-adv-x="1312" 
d="M741 735q61 0 95 52.5t34 138.5q0 188 -118 188h-248v-379h237zM1231 929.5q0 -236.5 -113.5 -375t-275.5 -138.5h-338v-387q0 -29 -29 -29h-301q-31 0 -31 29v1374q0 31 31 31h682q170 0 272.5 -134t102.5 -370.5z" />
    <glyph glyph-name="Q" unicode="Q" horiz-adv-x="1646" 
d="M442 715q0 -172 105.5 -291t267.5 -119t266.5 119t104.5 291t-105.5 291.5t-266.5 119.5t-266.5 -119.5t-105.5 -291.5zM815 -16q-303 0 -518 214t-215 518t215 519t518 215t517 -215t214 -520q0 -240 -141 -430l151 -152q18 -18 0 -41l-186 -186q-20 -20 -41 0l-166 166
q-166 -88 -348 -88z" />
    <glyph glyph-name="R" unicode="R" horiz-adv-x="1378" 
d="M504 1112v-346h289q131 0 131 173t-131 173h-289zM1272 0h-303q-27 0 -43 31l-221 413h-201v-413q0 -31 -29 -31h-301q-31 0 -31 31v1372q0 31 31 31h735q160 -4 267.5 -141.5t107.5 -332t-65.5 -316.5t-167.5 -157l243 -452q6 -12 -2 -23.5t-20 -11.5z" />
    <glyph glyph-name="S" unicode="S" horiz-adv-x="1349" 
d="M657 -16q-344 0 -538 194q-20 20 0 41l192 193q16 16 39 2q53 -49 141.5 -81t174.5 -32t153.5 39t67.5 90t-54.5 82t-179.5 55q-287 59 -419 157.5t-132 254.5q0 207 161 339t415 132q311 0 549 -190q10 -8 10 -21.5t-8 -24.5l-195 -194q-20 -16 -39 -4
q-160 115 -325 114q-92 0 -149.5 -31.5t-57.5 -81.5t58.5 -83t189.5 -60q291 -57 413.5 -154t122.5 -269q0 -215 -159 -341t-431 -126z" />
    <glyph glyph-name="T" unicode="T" horiz-adv-x="1308" 
d="M1198 1434q12 0 20.5 -10.5t8.5 -22.5v-258q0 -31 -29 -31h-362v-1081q0 -12 -9.5 -21.5t-21.5 -9.5h-301q-29 0 -29 31v1081h-362q-12 0 -21.5 9t-9.5 22v258q0 12 9 22.5t22 10.5h1085z" />
    <glyph glyph-name="U" unicode="U" horiz-adv-x="1433" 
d="M1303 1434q29 0 28 -33v-795q-1 -236 -125 -416q-66 -94 -191.5 -150t-297.5 -56t-298 56q-125 56 -191 150q-126 181 -126 416v795q0 14 9.5 23.5t21.5 9.5h301q29 0 29 -33v-748q0 -348 254 -348t254 348v748q0 14 9 23.5t21 9.5h302z" />
    <glyph glyph-name="V" unicode="V" horiz-adv-x="1548" 
d="M1462 1434q12 0 20.5 -9.5t2.5 -21.5l-608 -1372q-16 -31 -33 -31h-139q-16 0 -33 31l-609 1372q-4 12 3.5 21.5t19.5 9.5h309q20 0 33 -31l346 -791l344 791q16 31 33 31h311z" />
    <glyph glyph-name="W" unicode="W" horiz-adv-x="2103" 
d="M2017 1434q12 0 19.5 -9.5t5.5 -21.5l-469 -1383q-6 -20 -27 -20h-155q-18 0 -27 18l-311 744l-310 -742q-8 -20 -28 -20h-154q-20 0 -29 20l-469 1383q-4 12 4.5 21.5t20.5 9.5h297q25 0 29 -31l248 -733l292 733q12 31 31 31h133q20 0 33 -31l293 -733l246 733
q12 31 30 31h297z" />
    <glyph glyph-name="X" unicode="X" horiz-adv-x="1478" 
d="M1393 0h-332q-27 0 -49 31l-273 411l-272 -413q-20 -29 -51 -29h-330q-14 0 -21.5 9t1.5 22l473 717l-433 655q-8 12 0.5 21.5t20.5 9.5h338q23 0 41 -31l233 -352l234 352q18 31 43 31h336q16 0 22 -9.5t-2 -21.5l-432 -658l473 -714q8 -12 0 -21.5t-20 -9.5z" />
    <glyph glyph-name="Y" unicode="Y" horiz-adv-x="1380" 
d="M1300 1434q12 0 20.5 -9.5t2.5 -21.5l-455 -797v-577q0 -29 -30 -29h-299q-31 0 -31 29v577l-451 797q-6 12 2.5 21.5t20.5 9.5h317q37 0 52 -31l239 -445l244 445q14 31 49 31h319z" />
    <glyph glyph-name="Z" unicode="Z" horiz-adv-x="1314" 
d="M164 1112q-29 0 -29 29v260q0 33 29 33h1026q16 0 21.5 -14.5t-3.5 -30.5l-579 -1067h532q10 0 19.5 -9.5t9.5 -21.5v-260q0 -31 -29 -31h-1048q-16 0 -25.5 14.5t-1.5 28.5l582 1069h-504z" />
    <glyph glyph-name="bracketleft" unicode="[" horiz-adv-x="815" 
d="M680 1348h-184v-1375h184q33 0 33 -30v-260q0 -31 -33 -31h-506q-12 0 -21 9t-10 22v1955q-1 12 9 22t22 9h506q33 0 33 -31v-260q0 -30 -33 -30z" />
    <glyph glyph-name="backslash" unicode="\" horiz-adv-x="966" 
d="M705 0q-29 0 -43 31l-599 1366q-6 14 0 25t23 12h180q29 0 41 -31l594 -1358q8 -17 -1 -31t-30 -14h-165z" />
    <glyph glyph-name="bracketright" unicode="]" horiz-adv-x="815" 
d="M135 1348q-33 0 -33 30v260q0 31 33 31h506q11 0 21 -9t10 -22v-1955q0 -11 -9 -21t-22 -10h-506q-33 0 -33 31v260q0 31 33 30h184v1375h-184z" />
    <glyph glyph-name="asciicircum" unicode="^" horiz-adv-x="878" 
d="M741 1145h-108q-23 0 -43 31l-150 219l-151 -219q-23 -31 -43 -31h-109q-20 0 -31 14q-10 14 0 31l232 418q18 31 39 30h125q20 0 39 -30l231 -418q10 -16 0 -30t-31 -15z" />
    <glyph glyph-name="underscore" unicode="_" horiz-adv-x="1228" 
d="M135 -272q-33 0 -33 30v99q0 31 33 30h959q33 0 32 -30v-99q0 -31 -32 -30h-959z" />
    <glyph glyph-name="grave" unicode="`" horiz-adv-x="643" 
d="M457 1296l-340 226q-25 18 -6 45l88 133q25 29 47 4l280 -309q20 -23 9 -43l-33 -49q-18 -23 -45 -7z" />
    <glyph glyph-name="a" unicode="a" horiz-adv-x="1101" 
d="M668 432q0 199 -138 199q-72 0 -110.5 -56.5t-38.5 -141.5t38.5 -141t111.5 -56t105 49t32 147zM971 866q29 0 28 -32v-803q0 -12 -9 -21.5t-19 -9.5h-201q-39 0 -57 39l-17 35q-94 -90 -221 -90q-211 0 -312.5 127t-101.5 324.5t106.5 322.5t307.5 125q127 0 225 -76
l19 27q25 33 49 32h203z" />
    <glyph glyph-name="b" unicode="b" horiz-adv-x="1093" 
d="M553 236q160 0 160 198t-158 197q-129 1 -129 -197t127 -198zM610 883q209 0 315.5 -126t106.5 -322t-104.5 -323.5t-317.5 -127.5q-141 0 -233 86l-15 -31q-18 -39 -57 -39h-172q-12 0 -21.5 9t-9.5 22v1386q0 14 9.5 23.5t21.5 9.5h279q31 0 30 -33v-573q74 39 168 39z
" />
    <glyph glyph-name="c" unicode="c" horiz-adv-x="978" 
d="M524 -16q-213 0 -338 127t-125 321.5t126 322.5t341 128q98 0 191.5 -38t152.5 -110q12 -20 -2 -39l-131 -137q-23 -18 -41 2q-63 70 -147 70t-127 -56.5t-43 -143.5t43 -141t123 -54q111 0 166 81q16 27 43 5l133 -129q18 -18 4 -39q-57 -78 -158.5 -124t-210.5 -46z
" />
    <glyph glyph-name="d" unicode="d" horiz-adv-x="1093" 
d="M534 236q76 0 105 51t29 145t-29 146.5t-105 52.5t-114.5 -57.5t-38.5 -141.5t38.5 -140t114.5 -56zM963 1450q29 0 28 -33v-1386q0 -31 -28 -31h-175q-39 0 -57 39l-14 31q-96 -86 -242 -86q-211 0 -312.5 127t-101.5 324.5t106.5 322.5t307.5 125q100 0 176 -41v575
q0 14 9.5 23.5t21.5 9.5h281z" />
    <glyph glyph-name="e" unicode="e" horiz-adv-x="1032" 
d="M516 672q-57 0 -88 -37t-39 -90h256q-6 51 -39 89t-90 38zM538 883q217 0 325 -141.5t108 -391.5q0 -12 -9.5 -21.5t-21.5 -9.5h-547q39 -104 187 -104q111 0 194 47q27 12 39 -8l74 -139q16 -27 -2 -39q-131 -92 -339 -92t-346.5 126t-138.5 324.5t130 323.5t347 125z
" />
    <glyph glyph-name="f" unicode="f" horiz-adv-x="915" 
d="M504 981v-115h170q12 0 21.5 -9t9.5 -21v-203q0 -12 -9.5 -21.5t-21.5 -9.5h-170v-571q0 -31 -31 -31h-278q-31 0 -31 31v571h-74q-29 0 -29 31v203q0 31 29 30h74v123q0 262 122.5 361.5t297.5 99.5q86 0 184 -22t106 -56q2 -12 -2 -18l-2 -6l-122 -166q-11 -15 -29 -15
q-54 18 -80 19q-74 0 -104.5 -50.5t-30.5 -154.5z" />
    <glyph glyph-name="g" unicode="g" horiz-adv-x="1114" 
d="M545 236q84 0 115.5 41.5t31.5 154.5q0 199 -155 199q-76 0 -116 -56.5t-40 -141.5t40 -141t124 -56zM983 866q29 0 29 -32v-834q0 -211 -139.5 -335t-382 -124t-381.5 170q-16 18 4 39l133 129q25 20 41 -2q68 -84 194 -84q88 0 149.5 49t61.5 140v71q-92 -70 -231 -69
q-199 0 -299.5 128t-100.5 324.5t105.5 321.5t298.5 125q135 0 235 -74l19 25q25 33 49 32h215z" />
    <glyph glyph-name="h" unicode="h" horiz-adv-x="1140" 
d="M657 883q170 0 275.5 -114t105.5 -327v-411q0 -31 -28 -31h-281q-31 0 -31 31v456q0 61 -32 103t-92 41.5t-96 -41.5t-36 -98v-461q0 -31 -28 -31h-281q-31 0 -31 31v1386q0 33 31 33h281q29 0 28 -33v-602q102 68 215 68z" />
    <glyph glyph-name="i" unicode="i" horiz-adv-x="581" 
d="M152 0q-31 0 -31 29v802q0 35 31 35h278q31 0 31 -35v-802q0 -29 -31 -29h-278zM291 1012q-78 0 -133 55q-56 55 -56 132t56 132t133 55q78 0 133 -55t55 -132t-55 -132t-133 -55z" />
    <glyph glyph-name="j" unicode="j" horiz-adv-x="624" 
d="M504 -31q0 -203 -110 -315t-302 -113q-192 0 -294 76q-101 76 -126 174q-6 27 15 35l219 84q31 12 41 -12q23 -51 49 -78t70 -27q98 0 98 152v891q0 31 29 30h280q11 0 21 -9t10 -21v-867zM334 1012q-78 0 -133 54t-55 133t54 134q56 55 134 55t133 -54q55 -56 55 -135
t-55 -133t-133 -54z" />
    <glyph glyph-name="k" unicode="k" horiz-adv-x="1163" 
d="M1071 0h-293q-31 0 -55 29l-281 364v-362q0 -31 -30 -31h-281q-29 0 -29 31v1386q0 33 29 33h281q12 0 21 -9t9 -24v-915l263 334q25 31 45 30h292q16 0 26.5 -15t-3.5 -34l-293 -362l324 -408q10 -12 2 -29.5t-27 -17.5z" />
    <glyph glyph-name="l" unicode="l" horiz-adv-x="544" 
d="M131 0q-29 0 -29 31v1386q0 33 29 33h281q12 0 21 -9t9 -24v-1386q0 -31 -30 -31h-281z" />
    <glyph glyph-name="m" unicode="m" horiz-adv-x="1716" 
d="M1223 883q197 0 294 -104.5t97 -336.5v-411q0 -12 -9.5 -21.5t-21.5 -9.5h-280q-29 0 -29 31v450q0 63 -35 106.5t-90 43.5t-87 -42t-32 -104v-454q0 -31 -31 -31h-280q-29 0 -29 31v450q0 63 -31.5 106.5t-87 43.5t-91.5 -40t-38 -99v-461q0 -31 -28 -31h-281
q-31 0 -31 31v800q0 14 9.5 24.5t21.5 10.5h250q27 0 37 -35l20 -59q110 111 262 111t246 -117q51 51 125 84t150 33z" />
    <glyph glyph-name="n" unicode="n" horiz-adv-x="1171" 
d="M680 883q203 0 296 -105.5t93 -279.5v-467q0 -14 -11 -22.5t-22 -8.5h-276q-31 0 -31 31v454q0 59 -39 102.5t-99 43.5t-104.5 -43t-44.5 -103v-454q0 -31 -30 -31h-281q-29 0 -29 31v800q0 35 29 35h260q20 0 31 -35l20 -61q39 49 105.5 81t132.5 32z" />
    <glyph glyph-name="o" unicode="o" horiz-adv-x="1038" 
d="M519 236q62 0 105.5 49t43.5 147t-43 148.5t-104.5 50.5t-105.5 -50.5t-44 -148.5t43 -147t105 -49zM520 -16q-203 0 -336 131t-133 319t133 318.5t336 130.5t335 -130t132 -319.5t-132 -319.5t-335 -130z" />
    <glyph glyph-name="p" unicode="p" horiz-adv-x="1093" 
d="M567 236q66 0 106 56t40 139t-41 141.5t-105 58.5q-141 1 -141 -197t141 -198zM618 883q201 0 307.5 -131t106.5 -324t-107.5 -318.5t-306.5 -125.5q-102 0 -176 43v-439q0 -12 -9 -21t-21 -9h-281q-29 0 -29 30v1243q0 35 29 35h172q16 0 59 -43l25 -24q90 84 231 84z
" />
    <glyph glyph-name="q" unicode="q" horiz-adv-x="1093" 
d="M526 236q142 0 142 198t-142 197q-68 0 -106.5 -55.5t-38.5 -139.5t38.5 -142t106.5 -58zM963 866q29 0 28 -35v-1243q0 -31 -28 -30h-281q-12 0 -21.5 9t-9.5 21v439q-74 -43 -176 -43q-209 0 -311.5 127t-102.5 323t100.5 322.5t313.5 126.5q131 0 232 -84l24 24
q43 43 60 43h172z" />
    <glyph glyph-name="r" unicode="r" horiz-adv-x="823" 
d="M549 635q-106 0 -107 -164v-440q0 -31 -30 -31h-279q-31 0 -31 31v800q0 35 31 35h172q39 0 57 -39l29 -53q94 109 232 109q159 0 159 -56l-108 -209q-14 -23 -39 -10q-45 27 -86 27z" />
    <glyph glyph-name="s" unicode="s" horiz-adv-x="888" 
d="M418 -16q-246 0 -348 102q-16 16 -4 39l79 145q16 27 41 13q39 -27 114 -49q76 -22 142 -21.5t66 45.5q0 33 -105 57q-180 41 -249.5 101.5t-69.5 183.5t103.5 203t278.5 80t316 -80q25 -14 13 -39l-86 -156q-16 -29 -41 -12q-84 57 -174 57t-91 -45q0 -35 105 -59
q195 -51 257 -106.5t62 -180.5t-109.5 -201.5t-299.5 -76.5z" />
    <glyph glyph-name="t" unicode="t" horiz-adv-x="817" 
d="M455 -16q-276 0 -291 321v297h-74q-29 0 -29 33v196q0 35 29 35h74v215q0 31 31 31h278q31 0 31 -31v-215h170q31 0 31 -35v-196q0 -33 -31 -33h-170v-262q0 -51 18.5 -72.5t60.5 -21.5t87 24q25 12 39 -14l65 -174q12 -29 -14 -41q-125 -57 -305 -57z" />
    <glyph glyph-name="u" unicode="u" horiz-adv-x="1140" 
d="M1008 866q31 0 30 -35v-802q0 -29 -30 -29h-220q-29 0 -45 29l-47 71q-31 -49 -97.5 -82.5t-133.5 -33.5q-178 0 -270.5 99t-92.5 279v469q0 35 29 35h281q31 0 30 -35v-454q0 -61 34 -102.5t91.5 -41.5t93 40t37.5 100v458q0 35 31 35h279z" />
    <glyph glyph-name="v" unicode="v" horiz-adv-x="1071" 
d="M999 866q16 0 25.5 -14t1.5 -31l-401 -792q-12 -29 -33 -29h-111q-18 0 -35 29l-403 794q-6 12 2 27.5t27 15.5h274q18 0 33 -30l156 -340l157 340q12 31 31 30h276z" />
    <glyph glyph-name="w" unicode="w" horiz-adv-x="1460" 
d="M1370 866q18 0 25.5 -15t1.5 -28l-295 -803q-8 -20 -29 -20h-178q-18 0 -29 20l-137 414l-137 -416q-8 -18 -27 -18h-180q-20 0 -29 18l-293 805q-6 12 1.5 27.5t25.5 15.5h277q25 0 30 -20l103 -371l129 371q8 20 26 20h150q20 0 26 -20l130 -371l102 369q6 23 31 22
h276z" />
    <glyph glyph-name="x" unicode="x" horiz-adv-x="997" 
d="M354 0h-254q-16 0 -25 14.5t1 32.5l250 379l-258 393q-10 18 -1 32.5t25 14.5h254q31 0 49 -30l105 -160l102 160q18 31 49 30h254q16 0 25.5 -15t-0.5 -32l-258 -393l252 -381q8 -12 1 -28.5t-28 -16.5h-254q-31 0 -49 29l-94 145l-94 -145q-18 -29 -52 -29z" />
    <glyph glyph-name="y" unicode="y" horiz-adv-x="1140" 
d="M1069 866q14 0 25.5 -13t3.5 -30l-606 -1198q-8 -16 -27 -16h-260q-16 0 -25.5 13t-1.5 30l232 461l-367 710q-6 12 1 27.5t26 15.5h270q23 0 35 -30l196 -404l211 416q8 18 29 18h258z" />
    <glyph glyph-name="z" unicode="z" horiz-adv-x="905" 
d="M129 614q-31 0 -31 29v193q0 12 9.5 21t21.5 9h664q18 0 26 -12t0 -31l-289 -571h240q12 0 21.5 -9.5t9.5 -21.5v-192q0 -29 -31 -29h-659q-14 0 -24.5 13.5t-2.5 29.5l289 571h-244z" />
    <glyph glyph-name="braceleft" unicode="{" horiz-adv-x="989" 
d="M702 874q0 -92 -43 -145t-180 -67q145 -16 184 -73t39 -143v-370q0 -45 27 -71t53 -30l27 -2h45q33 0 33 -30v-260q0 -31 -33 -31h-154q-350 0 -350 424v356q0 29 -22 46q-23 17 -45 20l-25 2h-82q-33 0 -33 30v261q0 31 33 30h82q35 -1 64 19t28 49v356q0 231 93 327
t257 97h154q33 0 33 -31v-260q0 -31 -33 -30h-45q-68 0 -95 -53q-11 -22 -12 -50v-371z" />
    <glyph glyph-name="bar" unicode="|" horiz-adv-x="491" 
d="M174 -238q-31 0 -31 29v1843q0 35 31 35h143q31 0 31 -35v-1843q0 -29 -31 -29h-143z" />
    <glyph glyph-name="braceright" unicode="}" horiz-adv-x="989" 
d="M287 874v371q0 45 -27 71t-53 27l-27 5h-45q-33 0 -33 30v260q0 31 33 31h154q164 0 257 -96t93 -328v-356q0 -29 23 -46t47 -20l22 -2h82q33 0 33 -30v-261q0 -31 -33 -30h-82q-34 0 -63 -20t-29 -48v-356q0 -424 -350 -424h-154q-33 0 -33 31v260q0 31 33 30h45
q68 0 95 53q11 22 12 50v370q0 145 104 188q47 19 119 28q-137 14 -180 67t-43 145z" />
    <glyph glyph-name="asciitilde" unicode="~" horiz-adv-x="1118" 
d="M735 563q-96 0 -188 36t-153 36t-121 -22q-61 -22 -83 -40t-32 -2l-47 74q-12 14 -9 25q8 47 98 121t199 75h2q93 0 185 -36t149 -35q131 0 195 63q18 18 28 4l50 -78q12 -14 6 -28q-20 -55 -95 -123t-182 -70h-2z" />
    <glyph glyph-name="exclamdown" unicode="&#xa1;" horiz-adv-x="671" 
d="M246 418h180q29 0 33 -31l69 -940q4 -31 -28 -31h-328q-33 0 -29 31l70 940q4 31 33 31zM336 883q72 0 123 -50t51 -123t-51 -124t-123 -51t-123 51t-51 123t51 123t123 51z" />
    <glyph glyph-name="cent" unicode="&#xa2;" horiz-adv-x="999" 
d="M702 -127q0 -29 -30 -29h-279q-31 0 -31 29v147q-125 51 -202.5 163t-77.5 249t78 250t202 164v141q0 35 31 35h279q31 0 30 -35v-129q117 -35 191 -123q12 -20 -2 -39l-131 -137q-23 -18 -41 2q-57 63 -144.5 63.5t-130.5 -54t-43 -140.5t43 -141.5t123 -55.5
q111 0 166 84q16 27 43 5l133 -129q18 -18 4 -39q-72 -98 -211 -146v-135z" />
    <glyph glyph-name="sterling" unicode="&#xa3;" horiz-adv-x="1218" 
d="M1106 319q12 0 21 -9t10 -21v-258q1 -11 -9 -21t-22 -10h-967q-12 0 -21 9t-9 22v205q0 27 30 30h2q39 8 69 68t30 112v111h-107q-12 0 -21 9t-10 22v258q0 12 10 21t21 10h107v86q0 489 458 489q203 0 296 -87t128 -222q8 -29 -16 -37l-254 -66q-31 -8 -37 15
q-23 78 -119 78t-96 -172v-84h234q12 1 21 -9t9 -22v-258q0 -12 -9 -22t-21 -9h-234v-113q0 -82 -27 -125h533z" />
    <glyph glyph-name="currency" unicode="&#xa4;" horiz-adv-x="1093" 
d="M403 713q0 -57 42 -101q41 -44 101 -43q60 0 102 43q42 42 42 100t-42 101t-101 43t-101 -43t-43 -100zM547 334q-88 0 -162 37l-68 -76q-14 -18 -41 -2l-165 133q-20 20 0 43l84 102q-27 74 -27 144t27 139l-84 100q-20 23 0 43l165 133q27 16 41 -2l66 -73
q74 37 163 37t163 -37l65 75q18 18 43 3l164 -134q23 -20 0 -43l-82 -102q27 -70 27 -142t-27 -141l82 -102q20 -23 0 -43l-166 -133q-27 -16 -41 2l-65 76q-74 -37 -162 -37z" />
    <glyph glyph-name="yen" unicode="&#xa5;" horiz-adv-x="1380" 
d="M1300 1434q12 0 20.5 -9.5t2.5 -21.5l-344 -604h37q12 0 21.5 -9.5t9.5 -21.5v-131q0 -12 -9.5 -21.5t-21.5 -9.5h-148v-125h148q12 0 21.5 -9t9.5 -21v-132q0 -12 -9.5 -21t-21.5 -9h-148v-260q0 -29 -30 -29h-299q-31 0 -31 29v260h-148q-12 0 -21 9t-9 21v132
q0 12 9 21t21 9h148v125h-148q-12 0 -21 9.5t-9 21.5v131q0 12 9 21.5t21 9.5h39l-342 604q-6 12 2.5 21.5t20.5 9.5h317q37 0 52 -31l239 -445l244 445q14 31 49 31h319z" />
    <glyph glyph-name="brokenbar" unicode="&#xa6;" horiz-adv-x="491" 
d="M174 -238q-31 0 -31 29v709q0 35 31 35h143q31 0 31 -35v-709q0 -29 -31 -29h-143zM174 897q-31 0 -31 29v708q0 35 31 35h143q31 0 31 -35v-708q0 -29 -31 -29h-143z" />
    <glyph glyph-name="section" unicode="&#xa7;" horiz-adv-x="1122" 
d="M393 610q0 -42 40 -66t153 -42l86 -19q55 41 55 119q1 38 -29 58t-134 39t-122 26q-49 -37 -49 -115zM559 1450q268 0 469 -158q18 -18 2 -39l-162 -170q-16 -16 -34 -2q-102 78 -264 78t-160 -67q0 -43 38 -68t152 -43q256 -45 358 -137t102 -236t-114 -250
q98 -90 98 -231t-124 -260t-367 -119q-299 0 -461 164q-18 10 0 33l158 170q12 16 35 2q88 -78 259 -78t171 82q0 39 -31 58t-147 40q-475 86 -476 369q0 143 123 254q-108 92 -108 223t113 251q57 58 153 96t217 38z" />
    <glyph glyph-name="dieresis" unicode="&#xa8;" horiz-adv-x="708" 
d="M504 1352q-43 0 -73 28t-30 73q0 44 30 73q30 28 73 28t73 -28q29 -28 29 -73q0 -44 -29 -73q-30 -28 -73 -28zM205 1352q-43 0 -73 28t-30 73q0 44 30 73q30 28 73 28t73 -28t30 -73q0 -44 -30 -73q-30 -28 -73 -28z" />
    <glyph glyph-name="copyright" unicode="&#xa9;" horiz-adv-x="1669" 
d="M834 340q-152 0 -238 99t-86 277t86 280q86 101 238 102q246 0 311 -230q4 -14 -5 -27t-24 -18l-143 -24q-33 -8 -43 28q-8 37 -35 60t-61 22q-100 1 -100 -193t100 -194q36 0 62 23t33 57t42 33l149 -29q31 -8 25 -43q-65 -223 -311 -223zM836 172q229 0 374 157
q146 157 146 387t-146 388t-374 158t-374 -158t-146 -388t145 -387q146 -157 375 -157zM836 -16q-303 0 -519 214q-215 214 -215 518t215 519t519 215t517 -215q214 -215 214 -519t-214 -518t-517 -214z" />
    <glyph glyph-name="ordfeminine" unicode="&#xaa;" horiz-adv-x="899" 
d="M248 457q0 12 9 21t22 9h376q11 0 21 -9t10 -21v-191q0 -12 -9 -21t-22 -9h-376q-12 0 -22 9q-9 9 -9 21v191zM454 827q50 0 78 30t29 70q-1 41 -27 65t-79 24t-80 -29t-27 -63t28 -65q28 -32 78 -32zM797 709q0 -27 -25 -27h-127q-33 0 -43 35l-14 41q-27 -45 -90 -69
t-131 -23q-121 0 -193 70t-72 173t77 167t220 65q88 0 152 -25v33q0 84 -121 84q-82 0 -180 -25q-23 -4 -29 19l-24 139q-6 25 20 33q117 35 233 35q216 0 280 -87t67 -235v-403z" />
    <glyph glyph-name="guillemotleft" unicode="&#xab;" horiz-adv-x="1241" 
d="M1114 -16h-143q-31 0 -49 20l-308 371q-29 33 -28 51v14q0 18 28 52l308 370q18 20 49 21h143q18 -1 22 -15t-6 -30l-266 -404l266 -405q10 -16 7 -31q-4 -14 -23 -14zM631 -16h-144q-31 0 -49 20l-307 371q-29 33 -29 51v14q0 18 29 52l307 370q18 20 49 21h144
q18 -1 22 -15t-6 -30l-266 -404l266 -405q10 -17 6 -31t-22 -14z" />
    <glyph glyph-name="logicalnot" unicode="&#xac;" horiz-adv-x="1187" 
d="M811 594h-676q-33 0 -33 31v174q0 31 33 30h918q33 0 32 -30v-480q0 -33 -30 -32h-213q-31 0 -31 32v275z" />
    <glyph glyph-name="uni00AD" unicode="&#xad;" horiz-adv-x="765" 
d="M115 328q-33 0 -33 30v174q0 31 33 31h536q33 0 33 -31v-174q0 -31 -33 -30h-536z" />
    <glyph glyph-name="registered" unicode="&#xae;" horiz-adv-x="1669" 
d="M748 905v-135h133q59 0 59 68t-61 67h-131zM748 590v-223q0 -14 -17 -15h-188q-14 0 -15 15v702q0 16 15 16h399q98 0 158 -61t59 -168q0 -154 -102 -215q49 -55 77 -138t25 -136q0 -14 -16 -15h-189q-16 0 -16 15q0 121 -86 223h-104zM836 172q229 0 374 157
q146 157 146 387t-146 388t-374 158t-374 -158t-146 -388t145 -387q146 -157 375 -157zM836 1450q303 0 517 -215t214 -519t-214 -518t-517 -214t-519 214q-215 214 -215 518t215 519q216 215 519 215z" />
    <glyph glyph-name="macron" unicode="&#xaf;" horiz-adv-x="671" 
d="M135 1354q-33 0 -33 30v119q0 31 33 31h402q33 0 32 -31v-119q0 -31 -32 -30h-402z" />
    <glyph glyph-name="degree" unicode="&#xb0;" horiz-adv-x="747" 
d="M375 1130q55 0 89 37t34 93t-35 93q-35 38 -89 38t-89 -38t-35 -93q0 -54 35 -92t90 -38zM375 969q-121 0 -207 85t-86 206q0 120 86 206t207 86t206 -86t85 -206t-85 -206q-85 -85 -206 -85z" />
    <glyph glyph-name="plusminus" unicode="&#xb1;" horiz-adv-x="1101" 
d="M967 178q33 0 32 -31v-133q0 -31 -32 -30h-832q-33 0 -33 30v133q0 31 33 31h832zM967 817q33 0 32 -31v-174q0 -31 -32 -30h-283v-267q0 -33 -31 -32h-204q-31 0 -31 32v267h-283q-33 0 -33 30v174q0 31 33 31h283v268q0 33 31 33h204q31 0 31 -33v-268h283z" />
    <glyph glyph-name="uni00B2" unicode="&#xb2;" horiz-adv-x="868" 
d="M123 1296q-21 0 -21 37q0 84 70 176q70 93 250 93t255 -78t75 -205q0 -59 -18 -107t-36 -72t-49 -55l-180 -182h276q20 0 21 -18v-183q0 -18 -21 -18h-608q-20 0 -20 18v148q0 10 8 18l237 238q147 147 148 221q0 57 -86 57t-90 -73q0 -14 -19 -15h-192z" />
    <glyph glyph-name="uni00B3" unicode="&#xb3;" horiz-adv-x="870" 
d="M436 1604q317 0 318 -271q0 -150 -107 -192q121 -51 121 -199q0 -116 -77 -194t-251 -78t-256 87t-82 191q0 23 19 23h196q17 0 19 -23t30 -41t68 -18t70 16q28 16 28 51t-24 52q-25 16 -107 16h-28q-20 0 -21 18v185q0 18 21 18h28q55 0 83 13q28 14 31 26t3 39t-23 44
q-24 17 -61 17q-94 0 -98 -65q0 -16 -19 -16h-196q-18 0 -19 22q0 123 94 201t240 78z" />
    <glyph glyph-name="acute" unicode="&#xb4;" horiz-adv-x="643" 
d="M186 1296q-27 -16 -45 7l-32 49q-12 20 8 43l280 309q23 25 47 -4l88 -133q18 -27 -6 -45z" />
    <glyph glyph-name="uni00B5" unicode="&#xb5;" horiz-adv-x="1148" 
d="M1063 0h-275q-29 0 -45 29l-47 71q-109 -117 -231 -116h-23v-396q0 -31 -30 -30h-281q-29 0 -29 30v1246q0 33 29 32h281q12 0 21 -9t9 -23v-457q0 -61 34 -103t91 -41q57 0 93 40t38 100v458q0 35 31 35h279q31 0 30 -35v-641q0 -63 45 -153q6 -13 0 -25t-20 -12z" />
    <glyph glyph-name="paragraph" unicode="&#xb6;" horiz-adv-x="1294" 
d="M1163 1434q29 0 29 -31v-1610q0 -31 -29 -31h-202q-11 0 -21 10t-10 21v1405h-160v-1405q0 -31 -29 -31h-202q-11 0 -21 10t-10 21v791q-176 0 -301 125t-125 301t125 300t301 124h655z" />
    <glyph glyph-name="periodcentered" unicode="&#xb7;" horiz-adv-x="569" 
d="M156 514q-33 0 -33 31v258q0 31 33 31h254q33 0 32 -31v-258q0 -31 -32 -31h-254z" />
    <glyph glyph-name="cedilla" unicode="&#xb8;" horiz-adv-x="587" 
d="M485 -240q0 -182 -221 -182q-51 0 -100 27t-60 51q-4 12 2 18l62 62q12 10 25 -2q29 -29 69 -29q61 0 62 57q0 30 -20 46t-40 0q-19 -16 -43 -17l-90 29q-14 4 -10 20l76 176h159l-41 -96q70 4 120 -37t50 -123z" />
    <glyph glyph-name="uni00B9" unicode="&#xb9;" horiz-adv-x="765" 
d="M664 895q20 0 20 -18v-181q0 -18 -20 -18h-564q-18 0 -18 18v181q0 18 18 18h162v434l-141 -31q-20 -4 -21 19v160q0 10 21 20l149 74q16 8 29 8h186q18 0 19 -20v-664h160z" />
    <glyph glyph-name="ordmasculine" unicode="&#xba;" horiz-adv-x="884" 
d="M225 457q0 12 9 21t22 9h377q12 0 21 -9t10 -21v-191q0 -12 -10 -21t-21 -9h-377q-12 0 -22 9q-9 9 -9 21v191zM442 899q96 0 97 152q0 65 -24 107t-73 42q-48 0 -72 -42t-24 -107q0 -152 96 -152zM442 666q-147 0 -243 100q-97 100 -97 284t96 283q96 101 244 101
t244 -100t96 -284q0 -183 -96 -284q-97 -100 -244 -100z" />
    <glyph glyph-name="guillemotright" unicode="&#xbb;" horiz-adv-x="1241" 
d="M754 883q31 0 49 -21l307 -370q29 -33 29 -52v-14q0 -18 -29 -51l-307 -371q-18 -20 -49 -20h-144q-18 0 -22 14t6 31l266 405l-266 404q-10 16 -6 30t22 15h144zM270 883q31 0 49 -21l308 -370q29 -33 28 -52v-14q0 -18 -28 -51l-308 -371q-18 -20 -49 -20h-143
q-18 0 -23 14q-4 14 7 31l266 405l-266 404q-10 16 -7 30q4 14 23 15h143z" />
    <glyph glyph-name="onequarter" unicode="&#xbc;" horiz-adv-x="1966" 
d="M1548 387v238l-149 -238h149zM1864 387q20 0 20 -18v-183q0 -16 -20 -16h-74v-152q0 -18 -18 -18h-205q-18 0 -19 18v152h-372q-18 0 -19 16v123q0 14 12 33l340 549q6 10 19 10h244q18 0 18 -18v-496h74zM596 0q-20 0 -30 14q-9 14 -1 31l682 1358q14 31 41 31h178
q16 0 24 -10t-1 -27l-684 -1366q-14 -31 -43 -31h-166zM664 750q20 0 20 -19v-180q0 -18 -20 -19h-564q-18 0 -18 19v180q0 18 18 19h162v434l-141 -31q-20 -4 -21 18v160q0 10 21 21l149 73q16 8 29 9h186q18 0 19 -21v-663h160z" />
    <glyph glyph-name="onehalf" unicode="&#xbd;" horiz-adv-x="2074" 
d="M1958 635q0 -59 -18 -107t-35 -72q-18 -24 -50 -55l-180 -182h277q20 0 20 -18v-183q0 -18 -20 -18h-609q-20 0 -20 18v148q0 10 8 18l238 238q147 147 147 221q0 57 -86 57t-90 -73q0 -14 -18 -15h-193q-12 0 -16 5t-4 37t15 76q64 188 318 188q166 0 241 -78t75 -205z
M596 0q-20 0 -30 14q-9 14 -1 31l682 1358q14 31 41 31h178q16 0 24 -10t-1 -27l-684 -1366q-14 -31 -43 -31h-166zM664 750q20 0 20 -19v-180q0 -18 -20 -19h-564q-18 0 -18 19v180q0 18 18 19h162v434l-141 -31q-20 -4 -21 18v160q0 10 21 21l149 73q16 8 29 9h186
q18 0 19 -21v-663h160z" />
    <glyph glyph-name="threequarters" unicode="&#xbe;" horiz-adv-x="2037" 
d="M1620 387v238l-150 -238h150zM1935 387q20 0 21 -18v-183q0 -16 -21 -16h-73v-152q0 -18 -19 -18h-205q-18 0 -18 18v152h-373q-18 0 -18 16v123q0 14 12 33l340 549q6 10 18 10h244q18 0 19 -18v-496h73zM639 0q-20 0 -30 14q-9 14 -1 31l682 1358q14 31 41 31h178
q15 0 23 -10t0 -27l-684 -1366q-16 -31 -43 -31h-166zM436 1450q317 0 318 -270q0 -150 -107 -193q121 -51 121 -199q0 -116 -77 -194t-251 -78t-256 87t-82 192q0 23 19 22h196q17 -1 19 -23t30 -40t68 -18t70 16q28 16 28 51t-24 51q-25 16 -107 16h-28q-20 0 -21 19v184
q0 18 21 19h28q55 0 83 13t31 25t3 39t-23 44q-24 17 -61 18q-94 0 -98 -66q0 -16 -19 -16h-196q-18 0 -19 22q0 123 94 201t240 78z" />
    <glyph glyph-name="questiondown" unicode="&#xbf;" horiz-adv-x="1064" 
d="M565 -590q-216 0 -341 94q-142 112 -142 318q0 133 62 208t203 158t158 140q9 28 9 64t27 36h268q29 0 29 -29q0 -133 -38 -213t-132 -145q-23 -14 -102 -60q-80 -46 -110 -78t-30 -75t35 -71t108 -27q176 0 193 182q2 25 29 25h284q19 -1 25 -11t6 -37q0 -203 -132 -341
t-409 -138zM676 877q72 -1 123 -51t51 -123t-51 -123t-123 -52q-72 0 -123 52t-51 122q0 72 51 124t123 51z" />
    <glyph glyph-name="Agrave" unicode="&#xc0;" horiz-adv-x="1550" 
d="M629 498h293l-148 331zM846 1450q20 0 33 -31l608 -1388q4 -12 -3 -21.5t-20 -9.5h-309q-16 0 -31 31l-63 147h-572l-63 -147q-12 -31 -31 -31h-313q-12 0 -17.5 9t-1.5 22l607 1388q12 31 30 31h146zM944 1571l-387 115q-27 12 -14 43l55 126q12 35 43 15l352 -191
q25 -16 15 -41l-21 -53q-10 -24 -43 -14z" />
    <glyph glyph-name="Aacute" unicode="&#xc1;" horiz-adv-x="1550" 
d="M629 498h293l-148 331zM846 1450q20 0 33 -31l608 -1388q4 -12 -3 -21.5t-20 -9.5h-309q-16 0 -31 31l-63 147h-572l-63 -147q-12 -31 -31 -31h-313q-12 0 -17.5 9t-1.5 22l607 1388q12 31 30 31h146zM604 1569q-33 -10 -43 14l-20 53q-10 25 14 41l352 191q31 20 43 -15
l56 -127q12 -31 -15 -43z" />
    <glyph glyph-name="Acircumflex" unicode="&#xc2;" horiz-adv-x="1550" 
d="M629 498h293l-148 331zM846 1450q20 0 33 -31l608 -1388q4 -12 -3 -21.5t-20 -9.5h-309q-16 0 -31 31l-63 147h-572l-63 -147q-12 -31 -31 -31h-313q-12 0 -17.5 9t-1.5 22l607 1388q12 31 30 31h146zM516 1587v70q0 20 21 41l180 170q25 25 51 24h8q27 0 51 -24
l183 -170q20 -20 20 -41v-70q0 -37 -39 -14l-219 137l-217 -137q-39 -23 -39 14z" />
    <glyph glyph-name="Atilde" unicode="&#xc3;" horiz-adv-x="1550" 
d="M629 498h293l-148 331zM846 1450q20 0 33 -31l608 -1388q4 -12 -3 -21.5t-20 -9.5h-309q-16 0 -31 31l-63 147h-572l-63 -147q-12 -31 -31 -31h-313q-12 0 -17.5 9t-1.5 22l607 1388q12 31 30 31h146zM901 1595q-64 0 -127 34t-131 34t-98 -51q-8 -12 -29 -4l-51 24
q-16 6 -8 25q55 150 200 147q78 0 149 -33.5t110.5 -33.5t89.5 51q10 10 28 4l49 -20q16 -6 9 -25q-25 -68 -76 -110t-115 -42z" />
    <glyph glyph-name="Adieresis" unicode="&#xc4;" horiz-adv-x="1550" 
d="M629 498h293l-148 331zM846 1450q20 0 33 -31l608 -1388q4 -12 -3 -21.5t-20 -9.5h-309q-16 0 -31 31l-63 147h-572l-63 -147q-12 -31 -31 -31h-313q-12 0 -17.5 9t-1.5 22l607 1388q12 31 30 31h146zM924 1606q-43 0 -73 28.5t-30 72.5t30 72.5t73 28.5t72.5 -28.5
t29.5 -72.5t-29.5 -72.5t-72.5 -28.5zM625 1606q-43 0 -73 28.5t-30 72.5t30 72.5t73 28.5t72.5 -28.5t29.5 -72.5t-29.5 -72.5t-72.5 -28.5z" />
    <glyph glyph-name="Aring" unicode="&#xc5;" horiz-adv-x="1550" 
d="M629 498h293l-148 331zM846 1450q20 0 33 -31l608 -1388q4 -12 -3 -21.5t-20 -9.5h-309q-16 0 -31 31l-63 147h-572l-63 -147q-12 -31 -31 -31h-313q-12 0 -17.5 9t-1.5 22l607 1388q12 31 30 31h146zM772 1694q33 0 51.5 23.5t18.5 55.5t-18.5 55t-51.5 23t-49 -23.5
t-16 -55t16 -55t49 -23.5zM773 1546q-95 0 -159.5 62.5t-64.5 165t64.5 165t159.5 62.5t160.5 -62.5t65.5 -165t-65.5 -165t-160.5 -62.5z" />
    <glyph glyph-name="AE" unicode="&#xc6;" horiz-adv-x="2088" 
d="M989 467v463l-289 -463h289zM1958 1112h-608v-235h401q31 0 31 -29v-262q0 -29 -31 -29h-401v-235h606q12 0 21.5 -9.5t9.5 -21.5v-260q0 -12 -9.5 -21.5t-21.5 -9.5h-936q-12 0 -21.5 9t-9.5 22v116h-487l-72 -116q-20 -31 -37 -31h-307q-12 0 -20.5 9t0.5 22l811 1372
q18 31 34 31h1047q29 0 29 -31v-260q0 -31 -29 -31z" />
    <glyph glyph-name="Ccedilla" unicode="&#xc7;" horiz-adv-x="1474" 
d="M1008 -231q0 -182 -222 -183q-51 0 -100 27t-56 45t-1 25l61 61q10 10 25 -2q29 -29 69 -29q61 0 62 58q0 31 -19.5 46t-40.5 -2t-41 -16l-92 29q-14 4 -10 20l62 144q-266 41 -444.5 245.5t-178.5 493.5t215 504t518 215q164 0 309.5 -66.5t243.5 -185.5q18 -23 2 -43
l-199 -199q-25 -25 -45 5q-51 76 -133 120.5t-178 44.5q-162 0 -267.5 -118.5t-105.5 -291.5t105.5 -291t267.5 -118q207 0 338 170q20 25 45 2l184 -182q20 -20 0 -45q-94 -117 -229 -187.5t-291 -78.5l-24 -58q70 4 120 -37t50 -122z" />
    <glyph glyph-name="Egrave" unicode="&#xc8;" horiz-adv-x="1243" 
d="M1110 322q12 0 21.5 -9.5t9.5 -21.5v-260q0 -12 -9.5 -21.5t-21.5 -9.5h-936q-12 0 -21.5 9t-9.5 22v1372q0 12 9.5 21.5t21.5 9.5h938q29 0 29 -31v-260q0 -31 -29 -31h-608v-235h401q31 0 31 -29v-262q0 -29 -31 -29h-401v-235h606zM793 1571l-387 115q-27 12 -15 43
l55 126q12 35 43 15l353 -191q25 -16 14 -41l-20 -53q-10 -24 -43 -14z" />
    <glyph glyph-name="Eacute" unicode="&#xc9;" horiz-adv-x="1243" 
d="M1110 322q12 0 21.5 -9.5t9.5 -21.5v-260q0 -12 -9.5 -21.5t-21.5 -9.5h-936q-12 0 -21.5 9t-9.5 22v1372q0 12 9.5 21.5t21.5 9.5h938q29 0 29 -31v-260q0 -31 -29 -31h-608v-235h401q31 0 31 -29v-262q0 -29 -31 -29h-401v-235h606zM453 1569q-33 -10 -43 14l-21 53
q-10 25 14 41l353 191q31 20 43 -15l55 -127q12 -31 -14 -43z" />
    <glyph glyph-name="Ecircumflex" unicode="&#xca;" horiz-adv-x="1243" 
d="M1110 322q12 0 21.5 -9.5t9.5 -21.5v-260q0 -12 -9.5 -21.5t-21.5 -9.5h-936q-12 0 -21.5 9t-9.5 22v1372q0 12 9.5 21.5t21.5 9.5h938q29 0 29 -31v-260q0 -31 -29 -31h-608v-235h401q31 0 31 -29v-262q0 -29 -31 -29h-401v-235h606zM365 1657q0 20 20 41l180 170
q25 25 51 24h9q27 0 51 -24l182 -170q20 -20 21 -41v-70q0 -37 -39 -14l-219 137l-218 -137q-39 -23 -38 14v70z" />
    <glyph glyph-name="Edieresis" unicode="&#xcb;" horiz-adv-x="1243" 
d="M1110 322q12 0 21.5 -9.5t9.5 -21.5v-260q0 -12 -9.5 -21.5t-21.5 -9.5h-936q-12 0 -21.5 9t-9.5 22v1372q0 12 9.5 21.5t21.5 9.5h938q29 0 29 -31v-260q0 -31 -29 -31h-608v-235h401q31 0 31 -29v-262q0 -29 -31 -29h-401v-235h606zM772 1606q-43 0 -72.5 28.5
t-29.5 72.5t29.5 72.5t72.5 28.5t72.5 -28.5t29.5 -72.5t-29.5 -72.5t-72.5 -28.5zM473 1606q-43 0 -72.5 28.5t-29.5 72.5t29.5 72.5t72.5 28.5t72.5 -28.5t29.5 -72.5t-29.5 -72.5t-72.5 -28.5z" />
    <glyph glyph-name="Igrave" unicode="&#xcc;" horiz-adv-x="647" 
d="M174 0q-12 0 -21.5 9t-9.5 22v1372q0 12 9.5 21.5t21.5 9.5h301q29 0 29 -31v-1372q0 -31 -29 -31h-301zM494 1571l-388 115q-27 12 -14 43l55 126q12 35 43 15l353 -191q25 -16 14 -41l-20 -53q-10 -24 -43 -14z" />
    <glyph glyph-name="Iacute" unicode="&#xcd;" horiz-adv-x="647" 
d="M174 0q-12 0 -21.5 9t-9.5 22v1372q0 12 9.5 21.5t21.5 9.5h301q29 0 29 -31v-1372q0 -31 -29 -31h-301zM154 1569q-33 -10 -43 14l-21 53q-10 25 14 41l353 191q31 20 43 -15l55 -127q12 -31 -14 -43z" />
    <glyph glyph-name="Icircumflex" unicode="&#xce;" horiz-adv-x="647" 
d="M174 0q-12 0 -21.5 9t-9.5 22v1372q0 12 9.5 21.5t21.5 9.5h301q29 0 29 -31v-1372q0 -31 -29 -31h-301zM66 1657q0 20 20 41l180 170q25 25 51 24h9q27 0 51 -24l182 -170q20 -20 21 -41v-70q0 -37 -39 -14l-219 137l-218 -137q-39 -23 -38 14v70z" />
    <glyph glyph-name="Idieresis" unicode="&#xcf;" horiz-adv-x="647" 
d="M174 0q-12 0 -21.5 9t-9.5 22v1372q0 12 9.5 21.5t21.5 9.5h301q29 0 29 -31v-1372q0 -31 -29 -31h-301zM473 1606q-43 0 -72.5 28.5t-29.5 72.5t29.5 72.5t72.5 28.5t72.5 -28.5t29.5 -72.5t-29.5 -72.5t-72.5 -28.5zM174 1606q-43 0 -72.5 28.5t-29.5 72.5t29.5 72.5
t72.5 28.5t72.5 -28.5t29.5 -72.5t-29.5 -72.5t-72.5 -28.5z" />
    <glyph glyph-name="Eth" unicode="&#xd0;" horiz-adv-x="1441" 
d="M723 322q276 0 276 395t-276 395h-219v-264h170q33 0 33 -31v-205q0 -31 -33 -30h-170v-260h219zM1360 721q0 -348 -176 -532.5t-451 -188.5h-559q-12 0 -21.5 9t-9.5 22v551h-39q-33 0 -32 30v205q0 31 32 31h39v555q0 12 9.5 21.5t21.5 9.5h567q276 -6 447.5 -185.5
t171.5 -527.5z" />
    <glyph glyph-name="Ntilde" unicode="&#xd1;" horiz-adv-x="1564" 
d="M1391 1434q12 0 21 -9.5t9 -21.5v-1374q0 -29 -30 -29h-254q-31 0 -52 29l-581 766v-766q0 -29 -29 -29h-301q-31 0 -31 29v1374q0 12 9.5 21.5t21.5 9.5h270q31 0 50 -31l567 -741v741q0 31 29 31h301zM878.5 1595q-63.5 0 -127 34t-131 34t-98.5 -51q-8 -12 -28 -4
l-52 24q-16 6 -8 25q55 150 201 147q78 0 148.5 -33.5t110.5 -33.5t89 51q10 10 29 4l49 -20q16 -6 8 -25q-25 -68 -76 -110t-114.5 -42z" />
    <glyph glyph-name="Ograve" unicode="&#xd2;" horiz-adv-x="1628" 
d="M815 305q162 0 266.5 119t104.5 291t-105.5 291.5t-266.5 119.5t-266.5 -119.5t-105.5 -291.5t105.5 -291t267.5 -119zM815 -16q-303 0 -518 214t-215 518t215 519t518 215t517 -215t214 -519t-214 -518t-517 -214zM985 1571l-387 115q-27 12 -14 43l55 126q12 35 43 15
l352 -191q25 -16 15 -41l-21 -53q-10 -24 -43 -14z" />
    <glyph glyph-name="Oacute" unicode="&#xd3;" horiz-adv-x="1628" 
d="M815 305q162 0 266.5 119t104.5 291t-105.5 291.5t-266.5 119.5t-266.5 -119.5t-105.5 -291.5t105.5 -291t267.5 -119zM815 -16q-303 0 -518 214t-215 518t215 519t518 215t517 -215t214 -519t-214 -518t-517 -214zM645 1569q-33 -10 -43 14l-20 53q-10 25 14 41l352 191
q31 20 43 -15l56 -127q12 -31 -15 -43z" />
    <glyph glyph-name="Ocircumflex" unicode="&#xd4;" horiz-adv-x="1628" 
d="M815 305q162 0 266.5 119t104.5 291t-105.5 291.5t-266.5 119.5t-266.5 -119.5t-105.5 -291.5t105.5 -291t267.5 -119zM815 -16q-303 0 -518 214t-215 518t215 519t518 215t517 -215t214 -519t-214 -518t-517 -214zM557 1587v70q0 20 21 41l180 170q25 25 51 24h8
q27 0 51 -24l183 -170q20 -20 20 -41v-70q0 -37 -39 -14l-219 137l-217 -137q-39 -23 -39 14z" />
    <glyph glyph-name="Otilde" unicode="&#xd5;" horiz-adv-x="1628" 
d="M815 305q162 0 266.5 119t104.5 291t-105.5 291.5t-266.5 119.5t-266.5 -119.5t-105.5 -291.5t105.5 -291t267.5 -119zM815 -16q-303 0 -518 214t-215 518t215 519t518 215t517 -215t214 -519t-214 -518t-517 -214zM942 1595q-64 0 -127 34t-131 34t-98 -51
q-8 -12 -29 -4l-51 24q-16 6 -8 25q55 150 200 147q78 0 149 -33.5t110.5 -33.5t89.5 51q10 10 28 4l49 -20q16 -6 9 -25q-25 -68 -76 -110t-115 -42z" />
    <glyph glyph-name="Odieresis" unicode="&#xd6;" horiz-adv-x="1628" 
d="M815 305q162 0 266.5 119t104.5 291t-105.5 291.5t-266.5 119.5t-266.5 -119.5t-105.5 -291.5t105.5 -291t267.5 -119zM815 -16q-303 0 -518 214t-215 518t215 519t518 215t517 -215t214 -519t-214 -518t-517 -214zM965 1606q-43 0 -73 28.5t-30 72.5t30 72.5t73 28.5
t72.5 -28.5t29.5 -72.5t-29.5 -72.5t-72.5 -28.5zM666 1606q-43 0 -73 28.5t-30 72.5t30 72.5t73 28.5t72.5 -28.5t29.5 -72.5t-29.5 -72.5t-72.5 -28.5z" />
    <glyph glyph-name="multiply" unicode="&#xd7;" horiz-adv-x="1032" 
d="M684 616l234 -235q25 -25 2 -45l-123 -123q-20 -25 -45 0l-236 236l-235 -236q-25 -25 -45 0l-123 123q-23 20 2 45l235 235l-235 234q-25 23 -2 45l123 123q20 25 45 0l235 -236l236 236q25 25 45 0l123 -123q23 -23 -2 -45z" />
    <glyph glyph-name="Oslash" unicode="&#xd8;" horiz-adv-x="1628" 
d="M815 305q162 0 266.5 119t104.5 288t-99 287l-352 -686q33 -8 80 -8zM442 711q0 -176 111 -293l358 696q-47 12 -96 12q-162 0 -267.5 -119.5t-105.5 -295.5zM1546 715q0 -303 -214 -517t-517 -214q-123 0 -229 36l-4 -6q-16 -31 -43 -30h-154q-20 0 -29.5 14t-1.5 31
l43 84q-145 102 -230 259.5t-85 342.5q0 305 215 520t518 215q129 0 246 -43l6 12q14 31 41 31h168q16 0 23.5 -10t-1.5 -27l-53 -104q139 -102 220 -258t81 -336z" />
    <glyph glyph-name="Ugrave" unicode="&#xd9;" horiz-adv-x="1433" 
d="M1303 1434q29 0 28 -33v-795q-1 -236 -125 -416q-66 -94 -191.5 -150t-297.5 -56t-298 56q-125 56 -191 150q-126 181 -126 416v795q0 14 9.5 23.5t21.5 9.5h301q29 0 29 -33v-748q0 -348 254 -348t254 348v748q0 14 9 23.5t21 9.5h302zM887 1571l-387 115q-27 12 -15 43
l56 126q12 35 43 15l352 -191q25 -16 14 -41l-20 -53q-10 -24 -43 -14z" />
    <glyph glyph-name="Uacute" unicode="&#xda;" horiz-adv-x="1433" 
d="M1303 1434q29 0 28 -33v-795q-1 -236 -125 -416q-66 -94 -191.5 -150t-297.5 -56t-298 56q-125 56 -191 150q-126 181 -126 416v795q0 14 9.5 23.5t21.5 9.5h301q29 0 29 -33v-748q0 -348 254 -348t254 348v748q0 14 9 23.5t21 9.5h302zM547 1569q-33 -10 -43 14l-21 53
q-10 25 15 41l352 191q31 20 43 -15l55 -127q12 -31 -14 -43z" />
    <glyph glyph-name="Ucircumflex" unicode="&#xdb;" horiz-adv-x="1433" 
d="M1303 1434q29 0 28 -33v-795q-1 -236 -125 -416q-66 -94 -191.5 -150t-297.5 -56t-298 56q-125 56 -191 150q-126 181 -126 416v795q0 14 9.5 23.5t21.5 9.5h301q29 0 29 -33v-748q0 -348 254 -348t254 348v748q0 14 9 23.5t21 9.5h302zM459 1587v70q0 20 20 41l180 170
q25 25 52 24h8q27 0 51 -24l182 -170q20 -20 21 -41v-70q0 -37 -39 -14l-219 137l-217 -137q-39 -23 -39 14z" />
    <glyph glyph-name="Udieresis" unicode="&#xdc;" horiz-adv-x="1433" 
d="M1303 1434q29 0 28 -33v-795q-1 -236 -125 -416q-66 -94 -191.5 -150t-297.5 -56t-298 56q-125 56 -191 150q-126 181 -126 416v795q0 14 9.5 23.5t21.5 9.5h301q29 0 29 -33v-748q0 -348 254 -348t254 348v748q0 14 9 23.5t21 9.5h302zM866 1606q-43 0 -72.5 28.5
t-29.5 72.5t29.5 72.5t72.5 28.5t73 -28.5t30 -72.5t-30 -72.5t-73 -28.5zM567 1606q-43 0 -72.5 28.5t-29.5 72.5t29.5 72.5t72.5 28.5t73 -28.5t30 -72.5t-30 -72.5t-73 -28.5z" />
    <glyph glyph-name="Yacute" unicode="&#xdd;" horiz-adv-x="1380" 
d="M1300 1434q12 0 20.5 -9.5t2.5 -21.5l-455 -797v-577q0 -29 -30 -29h-299q-31 0 -31 29v577l-451 797q-6 12 2.5 21.5t20.5 9.5h317q37 0 52 -31l239 -445l244 445q14 31 49 31h319zM520 1569q-33 -10 -43 14l-20 53q-10 25 14 41l352 191q31 20 43 -15l56 -127
q12 -31 -15 -43z" />
    <glyph glyph-name="Thorn" unicode="&#xde;" horiz-adv-x="1366" 
d="M809 614q55 0 85 39t30 84t-29 84t-90 39h-301v-246h305zM1284 736q0 -202 -114 -322t-275 -121h-391v-264q0 -29 -29 -29h-301q-31 0 -31 29v1374q0 31 31 31h301q29 0 29 -31v-221h405q159 -2 267 -123t108 -323z" />
    <glyph glyph-name="germandbls" unicode="&#xdf;" horiz-adv-x="1179" 
d="M930 748q0 -18 26 -56t58 -82q32 -43 58 -121q26 -77 26 -173t-35 -168t-94 -106q-106 -59 -239 -58q-132 0 -210 53q-20 16 -14 41l45 166q8 31 49 11q41 -19 79 -19t58 19q21 19 21 93t-48 155t-96 147t-49 126q0 58 91 163t92 157q0 90 -136 90q-94 0 -132 -60
t-38 -208v-887q0 -31 -30 -31h-279q-31 0 -31 31v895q8 300 114 412t391 112q284 0 382 -72t98 -221q1 -109 -39 -198t-79 -141t-39 -70z" />
    <glyph glyph-name="agrave" unicode="&#xe0;" horiz-adv-x="1101" 
d="M668 432q0 199 -138 199q-72 0 -110.5 -56.5t-38.5 -141.5t38.5 -141t111.5 -56t105 49t32 147zM971 866q29 0 28 -32v-803q0 -12 -9 -21.5t-19 -9.5h-201q-39 0 -57 39l-17 35q-94 -90 -221 -90q-211 0 -312.5 127t-101.5 324.5t106.5 322.5t307.5 125q127 0 225 -76
l19 27q25 33 49 32h203zM715 983l-340 225q-25 18 -6 45l88 133q25 29 47 5l280 -310q20 -23 9 -43l-33 -49q-18 -22 -45 -6z" />
    <glyph glyph-name="aacute" unicode="&#xe1;" horiz-adv-x="1101" 
d="M668 432q0 199 -138 199q-72 0 -110.5 -56.5t-38.5 -141.5t38.5 -141t111.5 -56t105 49t32 147zM971 866q29 0 28 -32v-803q0 -12 -9 -21.5t-19 -9.5h-201q-39 0 -57 39l-17 35q-94 -90 -221 -90q-211 0 -312.5 127t-101.5 324.5t106.5 322.5t307.5 125q127 0 225 -76
l19 27q25 33 49 32h203zM438 983q-27 -16 -45 6l-33 49q-12 20 9 43l280 310q23 25 47 -5l88 -133q18 -27 -6 -45z" />
    <glyph glyph-name="acircumflex" unicode="&#xe2;" horiz-adv-x="1101" 
d="M668 432q0 199 -138 199q-72 0 -110.5 -56.5t-38.5 -141.5t38.5 -141t111.5 -56t105 49t32 147zM971 866q29 0 28 -32v-803q0 -12 -9 -21.5t-19 -9.5h-201q-39 0 -57 39l-17 35q-94 -90 -221 -90q-211 0 -312.5 127t-101.5 324.5t106.5 322.5t307.5 125q127 0 225 -76
l19 27q25 33 49 32h203zM309 1020v70q0 20 21 40l180 170q25 25 51 25h8q27 0 52 -25l182 -170q20 -20 20 -40v-70q0 -37 -39 -14l-219 137l-217 -137q-39 -23 -39 14z" />
    <glyph glyph-name="atilde" unicode="&#xe3;" horiz-adv-x="1101" 
d="M668 432q0 199 -138 199q-72 0 -110.5 -56.5t-38.5 -141.5t38.5 -141t111.5 -56t105 49t32 147zM971 866q29 0 28 -32v-803q0 -12 -9 -21.5t-19 -9.5h-201q-39 0 -57 39l-17 35q-94 -90 -221 -90q-211 0 -312.5 127t-101.5 324.5t106.5 322.5t307.5 125q127 0 225 -76
l19 27q25 33 49 32h203zM694 1028q-64 0 -127 34t-130.5 34t-98.5 -52q-8 -12 -29 -4l-51 25q-16 6 -8 25q55 150 201 147q78 0 148.5 -34t110 -34t89.5 52q10 10 28 4l50 -21q16 -6 8 -24q-25 -68 -76 -110t-115 -42z" />
    <glyph glyph-name="adieresis" unicode="&#xe4;" horiz-adv-x="1101" 
d="M668 432q0 199 -138 199q-72 0 -110.5 -56.5t-38.5 -141.5t38.5 -141t111.5 -56t105 49t32 147zM971 866q29 0 28 -32v-803q0 -12 -9 -21.5t-19 -9.5h-201q-39 0 -57 39l-17 35q-94 -90 -221 -90q-211 0 -312.5 127t-101.5 324.5t106.5 322.5t307.5 125q127 0 225 -76
l19 27q25 33 49 32h203zM717 1038q-43 0 -73 29t-30 73t30 72.5t73 28.5t72.5 -28.5t29.5 -72.5t-29.5 -73t-72.5 -29zM418 1038q-43 0 -73 29t-30 73t30 72.5t73 28.5t72.5 -28.5t29.5 -72.5t-29.5 -73t-72.5 -29z" />
    <glyph glyph-name="aring" unicode="&#xe5;" horiz-adv-x="1101" 
d="M668 432q0 199 -138 199q-72 0 -110.5 -56.5t-38.5 -141.5t38.5 -141t111.5 -56t105 49t32 147zM971 866q29 0 28 -32v-803q0 -12 -9 -21.5t-19 -9.5h-201q-39 0 -57 39l-17 35q-94 -90 -221 -90q-211 0 -312.5 127t-101.5 324.5t106.5 322.5t307.5 125q127 0 225 -76
l19 27q25 33 49 32h203zM565 1126q33 0 51.5 24t18.5 55.5t-18.5 55t-51.5 23.5t-49 -23.5t-16 -55.5t16 -55.5t49 -23.5zM566 979q-95 0 -159.5 62.5t-64.5 165t64.5 165t159.5 62.5t161 -62.5t66 -165t-66 -165t-161 -62.5z" />
    <glyph glyph-name="ae" unicode="&#xe6;" horiz-adv-x="1570" 
d="M487 174q47 0 78 29.5t31 72.5q0 102 -113 103q-43 0 -72.5 -30t-29.5 -72t29.5 -72.5t76.5 -30.5zM1054.5 672q-57.5 0 -88 -37t-38.5 -90h256q-6 51 -39 89t-90.5 38zM1071 883q223 0 330.5 -141.5t107.5 -391.5q0 -12 -9 -21.5t-21 -9.5h-547q39 -104 186 -104
q111 0 195 47q27 12 39 -8l73 -139q16 -27 -2 -39q-131 -92 -332 -92t-337 110q-113 -111 -375 -110q-164 0 -241 80.5t-77 203.5t90.5 198t254.5 75q106 0 180 -29v39q0 96 -133 96q-104 0 -220 -29q-31 -6 -34 23l-29 164q-6 29 25 37q123 41 311 41t287 -76
q116 76 278 76z" />
    <glyph glyph-name="ccedilla" unicode="&#xe7;" horiz-adv-x="978" 
d="M711 -231q0 -182 -222 -183q-51 0 -100 27t-56 45t-1 25l61 61q12 10 25 -2q29 -29 69 -29q61 0 62 58q0 31 -20.5 46t-40.5 -2t-42 -16l-90 29q-14 4 -10 20l64 146q-164 35 -256.5 154.5t-92.5 299t126 307.5t341 128q98 0 191.5 -38t152.5 -110q12 -20 -2 -39
l-131 -137q-23 -18 -41 2q-63 70 -147 70t-127 -56.5t-43 -143.5t43 -141t123 -54q111 0 166 81q16 27 43 5l133 -129q18 -18 4 -39q-51 -72 -140 -116t-188 -52l-24 -58q70 4 120 -37t50 -122z" />
    <glyph glyph-name="egrave" unicode="&#xe8;" horiz-adv-x="1032" 
d="M516 672q-57 0 -88 -37t-39 -90h256q-6 51 -39 89t-90 38zM538 883q217 0 325 -141.5t108 -391.5q0 -12 -9.5 -21.5t-21.5 -9.5h-547q39 -104 187 -104q111 0 194 47q27 12 39 -8l74 -139q16 -27 -2 -39q-131 -92 -339 -92t-346.5 126t-138.5 324.5t130 323.5t347 125z
M674 983l-340 225q-25 18 -6 45l88 133q25 29 47 5l280 -310q20 -23 9 -43l-33 -49q-18 -22 -45 -6z" />
    <glyph glyph-name="eacute" unicode="&#xe9;" horiz-adv-x="1032" 
d="M516 672q-57 0 -88 -37t-39 -90h256q-6 51 -39 89t-90 38zM538 883q217 0 325 -141.5t108 -391.5q0 -12 -9.5 -21.5t-21.5 -9.5h-547q39 -104 187 -104q111 0 194 47q27 12 39 -8l74 -139q16 -27 -2 -39q-131 -92 -339 -92t-346.5 126t-138.5 324.5t130 323.5t347 125z
M397 983q-27 -16 -45 6l-33 49q-12 20 9 43l280 310q23 25 47 -5l88 -133q18 -27 -6 -45z" />
    <glyph glyph-name="ecircumflex" unicode="&#xea;" horiz-adv-x="1032" 
d="M516 672q-57 0 -88 -37t-39 -90h256q-6 51 -39 89t-90 38zM538 883q217 0 325 -141.5t108 -391.5q0 -12 -9.5 -21.5t-21.5 -9.5h-547q39 -104 187 -104q111 0 194 47q27 12 39 -8l74 -139q16 -27 -2 -39q-131 -92 -339 -92t-346.5 126t-138.5 324.5t130 323.5t347 125z
M268 1020v70q0 20 21 40l180 170q25 25 51 25h8q27 0 52 -25l182 -170q20 -20 20 -40v-70q0 -37 -39 -14l-219 137l-217 -137q-39 -23 -39 14z" />
    <glyph glyph-name="edieresis" unicode="&#xeb;" horiz-adv-x="1032" 
d="M516 672q-57 0 -88 -37t-39 -90h256q-6 51 -39 89t-90 38zM538 883q217 0 325 -141.5t108 -391.5q0 -12 -9.5 -21.5t-21.5 -9.5h-547q39 -104 187 -104q111 0 194 47q27 12 39 -8l74 -139q16 -27 -2 -39q-131 -92 -339 -92t-346.5 126t-138.5 324.5t130 323.5t347 125z
M676 1038q-43 0 -73 29t-30 73t30 72.5t73 28.5t72.5 -28.5t29.5 -72.5t-29.5 -73t-72.5 -29zM377 1038q-43 0 -73 29t-30 73t30 72.5t73 28.5t72.5 -28.5t29.5 -72.5t-29.5 -73t-72.5 -29z" />
    <glyph glyph-name="igrave" unicode="&#xec;" horiz-adv-x="544" 
d="M133 0q-31 0 -31 29v802q0 35 31 35h279q31 0 30 -35v-802q0 -29 -30 -29h-279zM420 987l-340 225q-25 18 -6 45l88 134q25 29 47 4l280 -310q20 -23 9 -43l-33 -49q-18 -22 -45 -6z" />
    <glyph glyph-name="iacute" unicode="&#xed;" horiz-adv-x="544" 
d="M133 0q-31 0 -31 29v802q0 35 31 35h279q31 0 30 -35v-802q0 -29 -30 -29h-279zM143 987q-27 -16 -45 6l-32 49q-12 20 8 43l280 310q23 25 47 -4l88 -134q18 -27 -6 -45z" />
    <glyph glyph-name="icircumflex" unicode="&#xee;" horiz-adv-x="544" 
d="M133 0q-31 0 -31 29v802q0 35 31 35h279q31 0 30 -35v-802q0 -29 -30 -29h-279zM14 1024v70q0 20 21 41l180 170q25 25 51 24h8q27 0 52 -24l182 -170q20 -20 20 -41v-70q0 -37 -39 -14l-219 137l-217 -137q-39 -23 -39 14z" />
    <glyph glyph-name="idieresis" unicode="&#xef;" horiz-adv-x="544" 
d="M133 0q-31 0 -31 29v802q0 35 31 35h279q31 0 30 -35v-802q0 -29 -30 -29h-279zM422 1042q-43 0 -73 29t-30 73t30 72.5t73 28.5t72.5 -28.5t29.5 -72.5t-29.5 -73t-72.5 -29zM123 1042q-43 0 -73 29t-30 73t30 72.5t73 28.5t72.5 -28.5t29.5 -72.5t-29.5 -73t-72.5 -29z
" />
    <glyph glyph-name="eth" unicode="&#xf0;" horiz-adv-x="1105" 
d="M550.5 236q63.5 0 105.5 48t42 146t-42 146.5t-105.5 48.5t-106.5 -48.5t-43 -146.5t43 -146t106.5 -48zM1024 543q0 -268 -123 -413.5t-334 -145.5t-348 130t-137 317t137 319.5t332 132.5q37 0 74 -6q-27 86 -109 174l-78 -84q-25 -25 -45 -4l-76 69q-25 20 0 45l72 78
q-57 37 -93 54t-22 42l91 179q14 33 55 10q88 -45 151 -88l76 84q23 23 45 4l76 -70q23 -23 0 -45l-66 -72q322 -285 322 -710z" />
    <glyph glyph-name="ntilde" unicode="&#xf1;" horiz-adv-x="1171" 
d="M680 883q203 0 296 -105.5t93 -279.5v-467q0 -14 -11 -22.5t-22 -8.5h-276q-31 0 -31 31v454q0 59 -39 102.5t-99 43.5t-104.5 -43t-44.5 -103v-454q0 -31 -30 -31h-281q-29 0 -29 31v800q0 35 29 35h260q20 0 31 -35l20 -61q39 49 105.5 81t132.5 32zM712.5 1028
q-63.5 0 -127 34t-131 34t-98.5 -52q-8 -12 -28 -4l-52 25q-16 6 -8 25q55 150 201 147q78 0 148.5 -34t110.5 -34t89 52q10 10 29 4l49 -21q16 -6 8 -24q-25 -68 -76 -110t-114.5 -42z" />
    <glyph glyph-name="ograve" unicode="&#xf2;" horiz-adv-x="1038" 
d="M519 236q62 0 105.5 49t43.5 147t-43 148.5t-104.5 50.5t-105.5 -50.5t-44 -148.5t43 -147t105 -49zM520 -16q-203 0 -336 131t-133 319t133 318.5t336 130.5t335 -130t132 -319.5t-132 -319.5t-335 -130zM668 983l-340 225q-25 18 -6 45l88 133q25 29 47 5l280 -310
q20 -23 8 -43l-32 -49q-18 -22 -45 -6z" />
    <glyph glyph-name="oacute" unicode="&#xf3;" horiz-adv-x="1038" 
d="M519 236q62 0 105.5 49t43.5 147t-43 148.5t-104.5 50.5t-105.5 -50.5t-44 -148.5t43 -147t105 -49zM520 -16q-203 0 -336 131t-133 319t133 318.5t336 130.5t335 -130t132 -319.5t-132 -319.5t-335 -130zM391 983q-27 -16 -45 6l-33 49q-12 20 9 43l280 310q23 25 47 -5
l88 -133q18 -27 -6 -45z" />
    <glyph glyph-name="ocircumflex" unicode="&#xf4;" horiz-adv-x="1038" 
d="M519 236q62 0 105.5 49t43.5 147t-43 148.5t-104.5 50.5t-105.5 -50.5t-44 -148.5t43 -147t105 -49zM520 -16q-203 0 -336 131t-133 319t133 318.5t336 130.5t335 -130t132 -319.5t-132 -319.5t-335 -130zM262 1020v70q0 20 21 40l180 170q25 25 51 25h8q27 0 51 -25
l183 -170q20 -20 20 -40v-70q0 -37 -39 -14l-219 137l-217 -137q-39 -23 -39 14z" />
    <glyph glyph-name="otilde" unicode="&#xf5;" horiz-adv-x="1038" 
d="M519 236q62 0 105.5 49t43.5 147t-43 148.5t-104.5 50.5t-105.5 -50.5t-44 -148.5t43 -147t105 -49zM520 -16q-203 0 -336 131t-133 319t133 318.5t336 130.5t335 -130t132 -319.5t-132 -319.5t-335 -130zM647 1028q-64 0 -127 34t-131 34t-98 -52q-8 -12 -29 -4l-51 25
q-16 6 -8 25q55 150 200 147q78 0 149 -34t110.5 -34t89.5 52q10 10 28 4l49 -21q16 -6 9 -24q-25 -68 -76 -110t-115 -42z" />
    <glyph glyph-name="odieresis" unicode="&#xf6;" horiz-adv-x="1038" 
d="M519 236q62 0 105.5 49t43.5 147t-43 148.5t-104.5 50.5t-105.5 -50.5t-44 -148.5t43 -147t105 -49zM520 -16q-203 0 -336 131t-133 319t133 318.5t336 130.5t335 -130t132 -319.5t-132 -319.5t-335 -130zM670 1038q-43 0 -73 29t-30 73t30 72.5t73 28.5t72.5 -28.5
t29.5 -72.5t-29.5 -73t-72.5 -29zM371 1038q-43 0 -73 29t-30 73t30 72.5t73 28.5t72.5 -28.5t29.5 -72.5t-29.5 -73t-72.5 -29z" />
    <glyph glyph-name="divide" unicode="&#xf7;" horiz-adv-x="1171" 
d="M586 422q66 0 112 -46t45 -112q0 -66 -46 -112q-45 -46 -111 -48q-66 0 -112 48t-46 112q0 66 46 112t112 46zM135 584q-33 0 -33 30v174q0 31 33 31h901q33 0 33 -31v-174q0 -31 -33 -30h-901zM586 1298q66 0 112 -46t45 -112q0 -66 -46 -112q-45 -47 -111 -47t-112 47
t-46 113q0 65 46 111t112 46z" />
    <glyph glyph-name="oslash" unicode="&#xf8;" horiz-adv-x="1038" 
d="M520 236q61 0 104.5 49t43.5 131t-21 129l-158 -305q21 -4 31 -4zM371 449.5q0 -80.5 18 -123.5l156 303q-8 2 -25 2q-61 0 -105 -50.5t-44 -131zM987 432q0 -188 -132 -318t-335 -130q-78 0 -149 22q-16 -23 -39 -22h-64q-20 0 -29.5 14t-0.5 31l16 30
q-94 59 -148.5 158.5t-54.5 214.5q0 190 133 320.5t336 130.5q82 0 146 -21q12 20 34 21h78q16 0 23.5 -11.5t-0.5 -25.5l-19 -37q96 -61 150.5 -159.5t54.5 -217.5z" />
    <glyph glyph-name="ugrave" unicode="&#xf9;" horiz-adv-x="1140" 
d="M1008 866q31 0 30 -35v-802q0 -29 -30 -29h-220q-29 0 -45 29l-47 71q-31 -49 -97.5 -82.5t-133.5 -33.5q-178 0 -270.5 99t-92.5 279v469q0 35 29 35h281q31 0 30 -35v-454q0 -61 34 -102.5t91.5 -41.5t93 40t37.5 100v458q0 35 31 35h279zM719 983l-340 225
q-25 18 -6 45l88 133q25 29 47 5l280 -310q20 -23 9 -43l-33 -49q-18 -22 -45 -6z" />
    <glyph glyph-name="uacute" unicode="&#xfa;" horiz-adv-x="1140" 
d="M1008 866q31 0 30 -35v-802q0 -29 -30 -29h-220q-29 0 -45 29l-47 71q-31 -49 -97.5 -82.5t-133.5 -33.5q-178 0 -270.5 99t-92.5 279v469q0 35 29 35h281q31 0 30 -35v-454q0 -61 34 -102.5t91.5 -41.5t93 40t37.5 100v458q0 35 31 35h279zM442 983q-27 -16 -45 6
l-32 49q-12 20 8 43l280 310q23 25 47 -5l88 -133q18 -27 -6 -45z" />
    <glyph glyph-name="ucircumflex" unicode="&#xfb;" horiz-adv-x="1140" 
d="M1008 866q31 0 30 -35v-802q0 -29 -30 -29h-220q-29 0 -45 29l-47 71q-31 -49 -97.5 -82.5t-133.5 -33.5q-178 0 -270.5 99t-92.5 279v469q0 35 29 35h281q31 0 30 -35v-454q0 -61 34 -102.5t91.5 -41.5t93 40t37.5 100v458q0 35 31 35h279zM313 1020v70q0 20 21 40
l180 170q25 25 51 25h8q27 0 52 -25l182 -170q20 -20 20 -40v-70q0 -37 -39 -14l-219 137l-217 -137q-39 -23 -39 14z" />
    <glyph glyph-name="udieresis" unicode="&#xfc;" horiz-adv-x="1140" 
d="M1008 866q31 0 30 -35v-802q0 -29 -30 -29h-220q-29 0 -45 29l-47 71q-31 -49 -97.5 -82.5t-133.5 -33.5q-178 0 -270.5 99t-92.5 279v469q0 35 29 35h281q31 0 30 -35v-454q0 -61 34 -102.5t91.5 -41.5t93 40t37.5 100v458q0 35 31 35h279zM721 1038q-43 0 -73 29
t-30 73t30 72.5t73 28.5t72.5 -28.5t29.5 -72.5t-29.5 -73t-72.5 -29zM422 1038q-43 0 -73 29t-30 73t30 72.5t73 28.5t72.5 -28.5t29.5 -72.5t-29.5 -73t-72.5 -29z" />
    <glyph glyph-name="yacute" unicode="&#xfd;" horiz-adv-x="1140" 
d="M1069 866q14 0 25.5 -13t3.5 -30l-606 -1198q-8 -16 -27 -16h-260q-16 0 -25.5 13t-1.5 30l232 461l-367 710q-6 12 1 27.5t26 15.5h270q23 0 35 -30l196 -404l211 416q8 18 29 18h258zM446 983q-27 -16 -45 6l-32 49q-12 20 8 43l280 310q23 25 48 -5l88 -133
q18 -27 -7 -45z" />
    <glyph glyph-name="thorn" unicode="&#xfe;" horiz-adv-x="1093" 
d="M567 236q66 0 106 56t40 139t-40 138t-106 56q-141 -1 -141 -195t141 -194zM618 883q202 0 308 -131t106 -324q0 -192 -108 -318t-306 -126q-102 0 -176 43v-392q0 -12 -9 -21t-21 -9h-281q-29 0 -29 30v1592q0 35 29 35h279q33 0 32 -35v-387q80 43 176 43z" />
    <glyph glyph-name="ydieresis" unicode="&#xff;" horiz-adv-x="1140" 
d="M1069 866q14 0 25.5 -13t3.5 -30l-606 -1198q-8 -16 -27 -16h-260q-16 0 -25.5 13t-1.5 30l232 461l-367 710q-6 12 1 27.5t26 15.5h270q23 0 35 -30l196 -404l211 416q8 18 29 18h258zM725 1038q-43 0 -72.5 29t-29.5 73t29.5 72.5t72.5 28.5t72.5 -28.5t29.5 -72.5
t-29.5 -73t-72.5 -29zM426 1038q-43 0 -72.5 29t-29.5 73t29.5 72.5t72.5 28.5t72.5 -28.5t29.5 -72.5t-29.5 -73t-72.5 -29z" />
    <glyph glyph-name="Amacron" unicode="&#x100;" horiz-adv-x="1550" 
d="M629 498h293l-148 331zM846 1450q20 0 33 -31l608 -1388q4 -12 -3 -21.5t-20 -9.5h-309q-16 0 -31 31l-63 147h-572l-63 -147q-12 -31 -31 -31h-313q-12 0 -17.5 9t-1.5 22l607 1388q12 31 30 31h146zM573 1608q-33 0 -32 30v119q0 31 32 31h402q33 0 33 -31v-119
q0 -31 -33 -30h-402z" />
    <glyph glyph-name="amacron" unicode="&#x101;" horiz-adv-x="1101" 
d="M668 432q0 199 -138 199q-72 0 -110.5 -56.5t-38.5 -141.5t38.5 -141t111.5 -56t105 49t32 147zM971 866q29 0 28 -32v-803q0 -12 -9 -21.5t-19 -9.5h-201q-39 0 -57 39l-17 35q-94 -90 -221 -90q-211 0 -312.5 127t-101.5 324.5t106.5 322.5t307.5 125q127 0 225 -76
l19 27q25 33 49 32h203zM367 1040q-33 0 -33 31v119q0 31 33 31h401q33 0 33 -31v-119q0 -31 -33 -31h-401z" />
    <glyph glyph-name="Abreve" unicode="&#x102;" horiz-adv-x="1550" 
d="M629 498h293l-148 331zM846 1450q20 0 33 -31l608 -1388q4 -12 -3 -21.5t-20 -9.5h-309q-16 0 -31 31l-63 147h-572l-63 -147q-12 -31 -31 -31h-313q-12 0 -17.5 9t-1.5 22l607 1388q12 31 30 31h146zM774 1573q-223 0 -309 213q-6 14 10 20l131 58q16 6 23 -9
q33 -55 62.5 -79.5t82.5 -24.5t83 24.5t63 79.5q6 14 22 9l131 -58q16 -6 10 -20q-86 -213 -309 -213z" />
    <glyph glyph-name="abreve" unicode="&#x103;" horiz-adv-x="1101" 
d="M668 432q0 199 -138 199q-72 0 -110.5 -56.5t-38.5 -141.5t38.5 -141t111.5 -56t105 49t32 147zM971 866q29 0 28 -32v-803q0 -12 -9 -21.5t-19 -9.5h-201q-39 0 -57 39l-17 35q-94 -90 -221 -90q-211 0 -312.5 127t-101.5 324.5t106.5 322.5t307.5 125q127 0 225 -76
l19 27q25 33 49 32h203zM567.5 1006q-223.5 0 -309.5 213q-6 14 10 20l131 57q14 6 23 -8q33 -55 62.5 -79.5t83 -24.5t83 24.5t62.5 79.5q8 14 22 8l131 -57q16 -6 11 -20q-86 -213 -309.5 -213z" />
    <glyph glyph-name="Aogonek" unicode="&#x104;" horiz-adv-x="1550" 
d="M629 498h293l-148 331zM1288 -426q-84 0 -141 44t-57 134q0 133 131 248h-66q-16 0 -31 31l-63 147h-572l-63 -147q-12 -31 -31 -31h-313q-12 0 -17.5 9t-1.5 22l607 1388q12 31 30 31h146q20 0 33 -31l608 -1388q4 -12 -3 -21.5t-20 -9.5h-98q-98 -111 -98 -211
q0 -76 61 -76q51 0 101 41q18 14 30 0l23 -24q10 -10 4 -23q-16 -45 -65.5 -89t-133.5 -44z" />
    <glyph glyph-name="aogonek" unicode="&#x105;" horiz-adv-x="1101" 
d="M668 432q0 199 -138 199q-72 0 -110.5 -56.5t-38.5 -141.5t38.5 -141t111.5 -56t105 49t32 147zM799 -426q-84 0 -141.5 44t-57.5 134q0 139 141 256q-20 10 -28 31l-17 35q-94 -90 -221 -90q-211 0 -312.5 127t-101.5 324.5t106.5 322.5t307.5 125q127 0 225 -76l19 27
q25 33 49 32h203q29 0 28 -32v-803q0 -12 -9 -21.5t-19 -9.5h-94q-98 -111 -99 -211q0 -76 62 -76q51 0 100 41q18 14 31 0l22 -24q10 -10 4 -23q-16 -45 -65 -89t-133 -44z" />
    <glyph glyph-name="Cacute" unicode="&#x106;" horiz-adv-x="1474" 
d="M815 -16q-303 0 -518 215t-215 518t215 518t518 215q164 0 309.5 -66.5t243.5 -185.5q18 -23 2 -43l-199 -199q-25 -25 -45 5q-51 76 -133 120.5t-178 44.5q-162 0 -267.5 -118.5t-105.5 -291.5t105.5 -291t267.5 -118q207 0 338 170q20 25 45 2l184 -182q20 -20 0 -45
q-104 -125 -251.5 -196.5t-315.5 -71.5zM645 1569q-33 -10 -43 14l-20 53q-10 25 14 41l352 191q31 20 43 -15l56 -127q12 -31 -15 -43z" />
    <glyph glyph-name="cacute" unicode="&#x107;" horiz-adv-x="978" 
d="M524 -16q-213 0 -338 127t-125 321.5t126 322.5t341 128q98 0 191.5 -38t152.5 -110q12 -20 -2 -39l-131 -137q-23 -18 -41 2q-63 70 -147 70t-127 -56.5t-43 -143.5t43 -141t123 -54q111 0 166 81q16 27 43 5l133 -129q18 -18 4 -39q-57 -78 -158.5 -124t-210.5 -46z
M401 983q-27 -16 -45 6l-32 49q-12 20 8 43l280 310q23 25 47 -5l89 -133q18 -27 -7 -45z" />
    <glyph glyph-name="Cdotaccent" unicode="&#x10a;" horiz-adv-x="1474" 
d="M815 -16q-303 0 -518 215t-215 518t215 518t518 215q164 0 309.5 -66.5t243.5 -185.5q18 -23 2 -43l-199 -199q-25 -25 -45 5q-51 76 -133 120.5t-178 44.5q-162 0 -267.5 -118.5t-105.5 -291.5t105.5 -291t267.5 -118q207 0 338 170q20 25 45 2l184 -182q20 -20 0 -45
q-104 -125 -251.5 -196.5t-315.5 -71.5zM815 1579q-53 0 -90 37t-37 89t37 89t90 37t90 -37t37 -89t-37 -89t-90 -37z" />
    <glyph glyph-name="cdotaccent" unicode="&#x10b;" horiz-adv-x="978" 
d="M524 -16q-213 0 -338 127t-125 321.5t126 322.5t341 128q98 0 191.5 -38t152.5 -110q12 -20 -2 -39l-131 -137q-23 -18 -41 2q-63 70 -147 70t-127 -56.5t-43 -143.5t43 -141t123 -54q111 0 166 81q16 27 43 5l133 -129q18 -18 4 -39q-57 -78 -158.5 -124t-210.5 -46z
M530.5 1012q-53.5 0 -90.5 36q-37 38 -37 90t37 89t90.5 37t90 -37t36.5 -89t-36.5 -89t-90 -37z" />
    <glyph glyph-name="Ccaron" unicode="&#x10c;" horiz-adv-x="1474" 
d="M815 -16q-303 0 -518 215t-215 518t215 518t518 215q164 0 309.5 -66.5t243.5 -185.5q18 -23 2 -43l-199 -199q-25 -25 -45 5q-51 76 -133 120.5t-178 44.5q-162 0 -267.5 -118.5t-105.5 -291.5t105.5 -291t267.5 -118q207 0 338 170q20 25 45 2l184 -182q20 -20 0 -45
q-104 -125 -251.5 -196.5t-315.5 -71.5zM1071 1870v-70q0 -20 -20 -41l-183 -170q-25 -25 -51 -24h-8q-27 0 -51 24l-180 170q-20 20 -21 41v70q0 37 39 14l217 -137l219 137q39 23 39 -14z" />
    <glyph glyph-name="ccaron" unicode="&#x10d;" horiz-adv-x="978" 
d="M524 -16q-213 0 -338 127t-125 321.5t126 322.5t341 128q98 0 191.5 -38t152.5 -110q12 -20 -2 -39l-131 -137q-23 -18 -41 2q-63 70 -147 70t-127 -56.5t-43 -143.5t43 -141t123 -54q111 0 166 81q16 27 43 5l133 -129q18 -18 4 -39q-57 -78 -158.5 -124t-210.5 -46z
M786 1233q0 -20 -20 -41l-182 -170q-25 -25 -52 -25h-8q-27 0 -51 25l-180 170q-20 20 -21 41v70q0 37 39 14l217 -137l220 137q39 23 38 -14v-70z" />
    <glyph glyph-name="Dcaron" unicode="&#x10e;" horiz-adv-x="1441" 
d="M723 322q276 0 276 395t-276 395h-219v-790h219zM1360 721q0 -348 -176 -532.5t-451 -188.5h-559q-12 0 -21.5 9t-9.5 22v1372q0 12 9.5 21.5t21.5 9.5h567q276 -6 447.5 -185.5t171.5 -527.5zM987 1870v-70q0 -20 -20 -41l-183 -170q-25 -25 -51 -24h-8q-27 0 -51 24
l-180 170q-20 20 -21 41v70q0 37 39 14l217 -137l219 137q39 23 39 -14z" />
    <glyph glyph-name="dcaron" unicode="&#x10f;" horiz-adv-x="1572" 
d="M534 236q76 0 105 51t29 145t-29 146.5t-105 52.5t-114.5 -57.5t-38.5 -141.5t38.5 -140t114.5 -56zM1485 1403v-232q0 -119 -80 -218t-203 -167q-23 -12 -32 15t12 39q104 66 142 132t38 165l-150 51q-33 12 -32 35v180q0 31 32 31h240q33 0 33 -31zM963 1450
q29 0 28 -33v-1386q0 -31 -28 -31h-175q-39 0 -57 39l-14 31q-96 -86 -242 -86q-211 0 -312.5 127t-101.5 324.5t106.5 322.5t307.5 125q100 0 176 -41v575q0 14 9.5 23.5t21.5 9.5h281z" />
    <glyph glyph-name="Dcroat" unicode="&#x110;" horiz-adv-x="1441" 
d="M723 322q276 0 276 395t-276 395h-219v-264h170q33 0 33 -31v-205q0 -31 -33 -30h-170v-260h219zM1360 721q0 -348 -176 -532.5t-451 -188.5h-559q-12 0 -21.5 9t-9.5 22v551h-39q-33 0 -32 30v205q0 31 32 31h39v555q0 12 9.5 21.5t21.5 9.5h567q276 -6 447.5 -185.5
t171.5 -527.5z" />
    <glyph glyph-name="dcroat" unicode="&#x111;" horiz-adv-x="1171" 
d="M534 236q76 0 105 51t29 145t-29 146.5t-105 52.5t-114.5 -57.5t-38.5 -141.5t38.5 -140t114.5 -56zM1118 1272q33 0 33 -31v-139q0 -31 -33 -31h-127v-1040q0 -31 -28 -31h-175q-39 0 -57 39l-14 31q-96 -86 -242 -86q-211 0 -312.5 127t-101.5 324.5t106.5 322.5
t307.5 125q100 0 176 -41v229h-102q-33 0 -33 31v139q0 31 33 31h102v145q0 14 9.5 23.5t21.5 9.5h281q29 0 28 -33v-145h127z" />
    <glyph glyph-name="Emacron" unicode="&#x112;" horiz-adv-x="1243" 
d="M1110 322q12 0 21.5 -9.5t9.5 -21.5v-260q0 -12 -9.5 -21.5t-21.5 -9.5h-936q-12 0 -21.5 9t-9.5 22v1372q0 12 9.5 21.5t21.5 9.5h938q29 0 29 -31v-260q0 -31 -29 -31h-608v-235h401q31 0 31 -29v-262q0 -29 -31 -29h-401v-235h606zM422 1608q-33 0 -33 30v119
q0 31 33 31h401q33 0 33 -31v-119q0 -31 -33 -30h-401z" />
    <glyph glyph-name="emacron" unicode="&#x113;" horiz-adv-x="1032" 
d="M516 672q-57 0 -88 -37t-39 -90h256q-6 51 -39 89t-90 38zM538 883q217 0 325 -141.5t108 -391.5q0 -12 -9.5 -21.5t-21.5 -9.5h-547q39 -104 187 -104q111 0 194 47q27 12 39 -8l74 -139q16 -27 -2 -39q-131 -92 -339 -92t-346.5 126t-138.5 324.5t130 323.5t347 125z
M326 1040q-33 0 -33 31v119q0 31 33 31h401q33 0 33 -31v-119q0 -31 -33 -31h-401z" />
    <glyph glyph-name="Edotaccent" unicode="&#x116;" horiz-adv-x="1243" 
d="M1110 322q12 0 21.5 -9.5t9.5 -21.5v-260q0 -12 -9.5 -21.5t-21.5 -9.5h-936q-12 0 -21.5 9t-9.5 22v1372q0 12 9.5 21.5t21.5 9.5h938q29 0 29 -31v-260q0 -31 -29 -31h-608v-235h401q31 0 31 -29v-262q0 -29 -31 -29h-401v-235h606zM622.5 1579q-53.5 0 -90 37
t-36.5 89t36.5 89t90 37t90.5 -37t37 -89t-37 -89t-90.5 -37z" />
    <glyph glyph-name="edotaccent" unicode="&#x117;" horiz-adv-x="1032" 
d="M516 672q-57 0 -88 -37t-39 -90h256q-6 51 -39 89t-90 38zM538 883q217 0 325 -141.5t108 -391.5q0 -12 -9.5 -21.5t-21.5 -9.5h-547q39 -104 187 -104q111 0 194 47q27 12 39 -8l74 -139q16 -27 -2 -39q-131 -92 -339 -92t-346.5 126t-138.5 324.5t130 323.5t347 125z
M526.5 1012q-53.5 0 -90.5 36.5t-37 89t37 89.5t90.5 37t90 -37t36.5 -89t-36.5 -89t-90 -37z" />
    <glyph glyph-name="Eogonek" unicode="&#x118;" horiz-adv-x="1243" 
d="M1112 1112h-608v-235h401q31 0 31 -29v-262q0 -29 -31 -29h-401v-235h606q12 0 21.5 -9.5t9.5 -21.5v-260q0 -12 -9.5 -21.5t-21.5 -9.5h-94q-98 -111 -98 -211q0 -76 61 -76q51 0 100 41q18 14 31 0l23 -24q10 -10 4 -23q-16 -45 -65.5 -89t-133.5 -44t-141.5 44
t-57.5 134q0 133 131 248h-696q-12 0 -21.5 9t-9.5 22v1372q0 12 9.5 21.5t21.5 9.5h938q29 0 29 -31v-260q0 -31 -29 -31z" />
    <glyph glyph-name="eogonek" unicode="&#x119;" horiz-adv-x="1032" 
d="M516 672q-57 0 -88 -37t-39 -90h256q-6 51 -39 89t-90 38zM538 883q217 0 325 -141.5t108 -391.5q0 -12 -9.5 -21.5t-21.5 -9.5h-547q39 -104 187 -104q111 0 194 47q27 12 39 -8l74 -139q16 -27 -2 -39q-53 -37 -125 -60q-113 -127 -113 -227q0 -76 62 -76q51 0 100 41
q18 14 31 0l22 -24q10 -10 4 -23q-16 -45 -65 -89t-133 -44t-141.5 44t-57.5 134q0 125 115 232h-35q-211 0 -349.5 126t-138.5 324.5t130 323.5t347 125z" />
    <glyph glyph-name="Ecaron" unicode="&#x11a;" horiz-adv-x="1243" 
d="M1110 322q12 0 21.5 -9.5t9.5 -21.5v-260q0 -12 -9.5 -21.5t-21.5 -9.5h-936q-12 0 -21.5 9t-9.5 22v1372q0 12 9.5 21.5t21.5 9.5h938q29 0 29 -31v-260q0 -31 -29 -31h-608v-235h401q31 0 31 -29v-262q0 -29 -31 -29h-401v-235h606zM879 1870v-70q0 -20 -21 -41
l-182 -170q-25 -25 -51 -24h-9q-27 0 -51 24l-180 170q-20 20 -20 41v70q0 37 38 14l218 -137l219 137q39 23 39 -14z" />
    <glyph glyph-name="ecaron" unicode="&#x11b;" horiz-adv-x="1032" 
d="M516 672q-57 0 -88 -37t-39 -90h256q-6 51 -39 89t-90 38zM538 883q217 0 325 -141.5t108 -391.5q0 -12 -9.5 -21.5t-21.5 -9.5h-547q39 -104 187 -104q111 0 194 47q27 12 39 -8l74 -139q16 -27 -2 -39q-131 -92 -339 -92t-346.5 126t-138.5 324.5t130 323.5t347 125z
M782 1303v-70q0 -20 -20 -41l-182 -170q-25 -25 -52 -25h-8q-27 0 -51 25l-180 170q-20 20 -21 41v70q0 37 39 14l217 -137l219 137q39 23 39 -14z" />
    <glyph glyph-name="Gbreve" unicode="&#x11e;" horiz-adv-x="1501" 
d="M1341 821q29 0 29 -28v-643q0 -51 -210 -108.5t-355 -57.5q-295 0 -509 206.5t-214 525.5t222 526.5t517 207.5q156 0 301.5 -65.5t247.5 -188.5q18 -23 -2 -43l-197 -197q-8 -8 -21 -9t-22 11q-121 172 -315 172q-160 0 -265.5 -122.5t-105.5 -293.5t96.5 -291t243 -120
t228.5 45v166h-142q-31 0 -30 29v250q0 29 30 28h473zM821 1573q-223 0 -309 213q-6 14 10 20l131 58q14 6 23 -9q33 -55 62.5 -79.5t82.5 -24.5t83 24.5t63 79.5q8 14 22 9l131 -58q16 -6 10 -20q-86 -213 -309 -213z" />
    <glyph glyph-name="gbreve" unicode="&#x11f;" horiz-adv-x="1114" 
d="M545 236q84 0 115.5 41.5t31.5 154.5q0 199 -155 199q-76 0 -116 -56.5t-40 -141.5t40 -141t124 -56zM983 866q29 0 29 -32v-834q0 -211 -139.5 -335t-382 -124t-381.5 170q-16 18 4 39l133 129q25 20 41 -2q68 -84 194 -84q88 0 149.5 49t61.5 140v71q-92 -70 -231 -69
q-199 0 -299.5 128t-100.5 324.5t105.5 321.5t298.5 125q135 0 235 -74l19 25q25 33 49 32h215zM537 1022q-223 0 -310 213q-6 14 11 20l131 58q16 6 22 -8q33 -55 62.5 -80t83 -25t83 24.5t62.5 80.5q6 14 23 8l131 -58q16 -6 10 -20q-86 -213 -309 -213z" />
    <glyph glyph-name="Gdotaccent" unicode="&#x120;" horiz-adv-x="1501" 
d="M1341 821q29 0 29 -28v-643q0 -51 -210 -108.5t-355 -57.5q-295 0 -509 206.5t-214 525.5t222 526.5t517 207.5q156 0 301.5 -65.5t247.5 -188.5q18 -23 -2 -43l-197 -197q-8 -8 -21 -9t-22 11q-121 172 -315 172q-160 0 -265.5 -122.5t-105.5 -293.5t96.5 -291t243 -120
t228.5 45v166h-142q-31 0 -30 29v250q0 29 30 28h473zM821 1579q-53 0 -90 37t-37 89t37 89t90 37t90 -37t37 -89t-37 -89t-90 -37z" />
    <glyph glyph-name="gdotaccent" unicode="&#x121;" horiz-adv-x="1114" 
d="M545 236q84 0 115.5 41.5t31.5 154.5q0 199 -155 199q-76 0 -116 -56.5t-40 -141.5t40 -141t124 -56zM983 866q29 0 29 -32v-834q0 -211 -139.5 -335t-382 -124t-381.5 170q-16 18 4 39l133 129q25 20 41 -2q68 -84 194 -84q88 0 149.5 49t61.5 140v71q-92 -70 -231 -69
q-199 0 -299.5 128t-100.5 324.5t105.5 321.5t298.5 125q135 0 235 -74l19 25q25 33 49 32h215zM536.5 1028q-53.5 0 -90 37t-36.5 89t36.5 89t90 37t90.5 -37t37 -89t-37 -89t-90.5 -37z" />
    <glyph glyph-name="Gcommaaccent" unicode="&#x122;" horiz-adv-x="1501" 
d="M928 -96v-172q0 -70 -58.5 -119t-121.5 -68q-23 -6 -28 14.5t17 28.5q117 41 117 133l-104 35q-33 10 -33 35v113q0 31 33 30h145q33 1 33 -30zM1341 821q29 0 29 -28v-643q0 -51 -210 -108.5t-355 -57.5q-295 0 -509 206.5t-214 525.5t222 526.5t517 207.5
q156 0 301.5 -65.5t247.5 -188.5q18 -23 -2 -43l-197 -197q-8 -8 -21 -9t-22 11q-121 172 -315 172q-160 0 -265.5 -122.5t-105.5 -293.5t96.5 -291t243 -120t228.5 45v166h-142q-31 0 -30 29v250q0 29 30 28h473z" />
    <glyph glyph-name="gcommaaccent" unicode="&#x123;" horiz-adv-x="1114" 
d="M545 236q84 0 115.5 41.5t31.5 154.5q0 199 -155 199q-76 0 -116 -56.5t-40 -141.5t40 -141t124 -56zM983 866q29 0 29 -32v-834q0 -211 -139.5 -335t-382 -124t-381.5 170q-16 18 4 39l133 129q25 20 41 -2q68 -84 194 -84q88 0 149.5 49t61.5 140v71q-92 -70 -231 -69
q-199 0 -299.5 128t-100.5 324.5t105.5 321.5t298.5 125q135 0 235 -74l19 25q25 33 49 32h215zM432 1018v172q0 70 58.5 119t121.5 67q23 6 28 -14t-17 -29q-117 -41 -117 -133l104 -35q33 -10 33 -35v-112q0 -31 -33 -31h-145q-33 0 -33 31z" />
    <glyph glyph-name="Hbar" unicode="&#x126;" horiz-adv-x="1515" 
d="M504 627h508v178h-508v-178zM1343 1434q29 0 29 -31v-1372q0 -31 -29 -31h-301q-31 0 -30 31v317h-508v-317q0 -31 -29 -31h-301q-12 0 -21.5 9t-9.5 22v1372q0 12 9.5 21.5t21.5 9.5h301q29 0 29 -31v-320h508v320q0 31 30 31h301z" />
    <glyph glyph-name="hbar" unicode="&#x127;" horiz-adv-x="1183" 
d="M700 883q170 0 275.5 -114t105.5 -327v-411q0 -31 -28 -31h-281q-31 0 -31 31v456q0 61 -32.5 102.5t-92.5 41.5t-95.5 -41t-35.5 -98v-461q0 -31 -28 -31h-281q-31 0 -31 31v1040h-92q-33 0 -33 31v139q0 31 33 31h92v145q0 33 31 33h281q29 0 28 -33v-145h138
q33 0 32 -31v-139q0 -31 -32 -31h-138v-256q100 68 215 68z" />
    <glyph glyph-name="Imacron" unicode="&#x12a;" horiz-adv-x="647" 
d="M174 0q-12 0 -21.5 9t-9.5 22v1372q0 12 9.5 21.5t21.5 9.5h301q29 0 29 -31v-1372q0 -31 -29 -31h-301zM123 1608q-33 0 -33 30v119q0 31 33 31h401q33 0 33 -31v-119q0 -31 -33 -30h-401z" />
    <glyph glyph-name="imacron" unicode="&#x12b;" horiz-adv-x="544" 
d="M133 0q-31 0 -31 29v802q0 35 31 35h279q31 0 30 -35v-802q0 -29 -30 -29h-279zM72 1044q-33 0 -33 31v119q0 31 33 31h401q33 0 33 -31v-119q0 -31 -33 -31h-401z" />
    <glyph glyph-name="Iogonek" unicode="&#x12e;" horiz-adv-x="647" 
d="M303 -426q-84 0 -141.5 44t-57.5 134q0 133 132 248h-62q-12 0 -21.5 9t-9.5 22v1372q0 12 9.5 21.5t21.5 9.5h301q29 0 29 -31v-1372q0 -31 -29 -31h-94q-98 -111 -98 -211q0 -76 61 -76q51 0 100 41q18 14 31 0l23 -24q10 -10 4 -23q-16 -45 -65.5 -89t-133.5 -44z" />
    <glyph glyph-name="iogonek" unicode="&#x12f;" horiz-adv-x="544" 
d="M242 -426q-84 0 -141.5 44t-57.5 134q0 133 131 248h-41q-31 0 -31 29v802q0 35 31 35h279q31 0 30 -35v-802q0 -29 -30 -29h-93q-98 -111 -98 -211q0 -76 62 -76q51 0 100 41q18 14 31 0l22 -24q10 -10 4 -23q-16 -45 -65 -89t-133 -44zM273 1044q-62 0 -107 44.5
t-45 108t45 107.5t107 44t107.5 -44t45.5 -107.5t-45.5 -108t-107.5 -44.5z" />
    <glyph glyph-name="Idotaccent" unicode="&#x130;" horiz-adv-x="647" 
d="M174 0q-12 0 -21.5 9t-9.5 22v1372q0 12 9.5 21.5t21.5 9.5h301q29 0 29 -31v-1372q0 -31 -29 -31h-301zM323.5 1579q-53.5 0 -90 37t-36.5 89t36.5 89t90 37t90.5 -37t37 -89t-37 -89t-90.5 -37z" />
    <glyph glyph-name="dotlessi" unicode="&#x131;" horiz-adv-x="544" 
d="M133 0q-31 0 -31 29v802q0 35 31 35h279q31 0 30 -35v-802q0 -29 -30 -29h-279z" />
    <glyph glyph-name="Kcommaaccent" unicode="&#x136;" horiz-adv-x="1437" 
d="M831 -96v-172q0 -70 -58 -119t-122 -68q-23 -6 -27.5 14.5t17.5 28.5q117 41 117 133l-105 35q-33 10 -32 35v113q0 31 32 30h146q32 1 32 -30zM504 31q0 -31 -29 -31h-301q-12 0 -21.5 9t-9.5 22v1372q0 12 9.5 21.5t21.5 9.5h301q29 0 29 -31v-586l469 586q23 31 59 31
h314q20 0 27 -17.5t-3 -32.5l-534 -667l532 -668q12 -12 6 -30.5t-28 -18.5h-330q-35 0 -60 31l-452 565v-565z" />
    <glyph glyph-name="kcommaaccent" unicode="&#x137;" horiz-adv-x="1163" 
d="M698 -96v-172q0 -70 -58 -119t-122 -68q-23 -6 -28 14.5t18 28.5q117 41 117 133l-105 35q-33 10 -33 35v113q0 31 33 30h146q32 1 32 -30zM1071 0h-293q-31 0 -55 29l-281 364v-362q0 -31 -30 -31h-281q-29 0 -29 31v1386q0 33 29 33h281q12 0 21 -9t9 -24v-915l263 334
q25 31 45 30h292q16 0 26.5 -15t-3.5 -34l-293 -362l324 -408q10 -12 2 -29.5t-27 -17.5z" />
    <glyph glyph-name="Lacute" unicode="&#x139;" horiz-adv-x="1198" 
d="M1087 322q29 0 29 -31v-260q0 -31 -29 -31h-913q-12 0 -21.5 9t-9.5 22v1370q0 14 9.5 23.5t21.5 9.5h301q29 0 29 -33v-1079h583zM451 1569q-33 -10 -43 14l-21 53q-10 25 14 41l353 191q31 20 43 -15l55 -127q12 -31 -14 -43z" />
    <glyph glyph-name="lacute" unicode="&#x13a;" horiz-adv-x="544" 
d="M131 0q-29 0 -29 31v1386q0 33 29 33h281q12 0 21 -9t9 -24v-1386q0 -31 -30 -31h-281zM96 1569q-33 -10 -43 14l-20 53q-10 25 14 41l352 191q31 20 43 -15l56 -127q12 -31 -15 -43z" />
    <glyph glyph-name="Lcommaaccent" unicode="&#x13b;" horiz-adv-x="1198" 
d="M723 -96v-172q0 -70 -58.5 -119t-121.5 -68q-23 -5 -28 15t17 28q117 41 117 133l-104 35q-33 10 -33 35v113q0 31 33 30h145q33 1 33 -30zM1087 322q29 0 29 -31v-260q0 -31 -29 -31h-913q-12 0 -21.5 9t-9.5 22v1370q0 14 9.5 23.5t21.5 9.5h301q29 0 29 -33v-1079h583
z" />
    <glyph glyph-name="lcommaaccent" unicode="&#x13c;" horiz-adv-x="544" 
d="M385 -96v-172q0 -70 -58.5 -119t-121.5 -68q-23 -5 -28 15t18 28q117 41 116 133l-104 35q-33 10 -33 35v113q0 31 33 30h145q33 1 33 -30zM131 0q-29 0 -29 31v1386q0 33 29 33h281q12 0 21 -9t9 -24v-1386q0 -31 -30 -31h-281z" />
    <glyph glyph-name="Lcaron" unicode="&#x13d;" horiz-adv-x="1198" 
d="M1087 322q29 0 29 -31v-260q0 -31 -29 -31h-913q-12 0 -21.5 9t-9.5 22v1370q0 14 9.5 23.5t21.5 9.5h301q29 0 29 -33v-1079h583zM877 1870v-70q0 -20 -21 -41l-182 -170q-25 -25 -51 -24h-9q-27 0 -51 24l-180 170q-20 20 -21 41v70q0 37 39 14l217 -137l220 137
q39 23 39 -14z" />
    <glyph glyph-name="lcaron" unicode="&#x13e;" horiz-adv-x="544" 
d="M131 0q-29 0 -29 31v1386q0 33 29 33h281q12 0 21 -9t9 -24v-1386q0 -31 -30 -31h-281zM522 1870v-70q0 -20 -20 -41l-183 -170q-25 -25 -51 -24h-8q-27 0 -51 24l-180 170q-20 20 -21 41v70q0 37 39 14l217 -137l219 137q39 23 39 -14z" />
    <glyph glyph-name="Ldot" unicode="&#x13f;" horiz-adv-x="1218" 
d="M772 514q-33 0 -33 31v258q0 31 33 31h254q33 0 33 -31v-258q0 -31 -33 -31h-254zM1087 322q29 0 29 -31v-260q0 -31 -29 -31h-913q-12 0 -21.5 9t-9.5 22v1370q0 14 9.5 23.5t21.5 9.5h301q29 0 29 -33v-1079h583z" />
    <glyph glyph-name="ldot" unicode="&#x140;" horiz-adv-x="925" 
d="M578 514q-33 0 -33 31v258q0 31 33 31h253q33 0 33 -31v-258q0 -31 -33 -31h-253zM131 0q-29 0 -29 31v1386q0 33 29 33h281q12 0 21 -9t9 -24v-1386q0 -31 -30 -31h-281z" />
    <glyph glyph-name="Lslash" unicode="&#x141;" horiz-adv-x="1384" 
d="M1255 322q29 0 29 -31v-260q0 -31 -29 -31h-913q-12 0 -21.5 9t-9.5 22v436l-84 -70q-23 -18 -43 2l-118 138q-16 23 4 43l241 202v619q0 14 9.5 23.5t21.5 9.5h301q29 0 29 -33v-320l92 78q23 16 41 -6l117 -135q23 -23 -4 -43l-246 -205v-448h583z" />
    <glyph glyph-name="lslash" unicode="&#x142;" horiz-adv-x="870" 
d="M614 31q0 -31 -30 -31h-281q-29 0 -29 31v413l-104 -88q-25 -20 -43 2l-100 121q-18 20 4 43l243 203v692q0 33 29 33h281q12 0 21 -9t9 -24v-407l111 92q20 16 41 -6l98 -119q20 -23 -4 -43l-246 -205v-698z" />
    <glyph glyph-name="Nacute" unicode="&#x143;" horiz-adv-x="1564" 
d="M1391 1434q12 0 21 -9.5t9 -21.5v-1374q0 -29 -30 -29h-254q-31 0 -52 29l-581 766v-766q0 -29 -29 -29h-301q-31 0 -31 29v1374q0 12 9.5 21.5t21.5 9.5h270q31 0 50 -31l567 -741v741q0 31 29 31h301zM582 1569q-33 -10 -43 14l-21 53q-10 25 14 41l353 191
q31 20 43 -15l55 -127q12 -31 -14 -43z" />
    <glyph glyph-name="nacute" unicode="&#x144;" horiz-adv-x="1171" 
d="M680 883q203 0 296 -105.5t93 -279.5v-467q0 -14 -11 -22.5t-22 -8.5h-276q-31 0 -31 31v454q0 59 -39 102.5t-99 43.5t-104.5 -43t-44.5 -103v-454q0 -31 -30 -31h-281q-29 0 -29 31v800q0 35 29 35h260q20 0 31 -35l20 -61q39 49 105.5 81t132.5 32zM457 983
q-27 -16 -45 6l-33 49q-12 20 8 43l281 310q23 25 47 -5l88 -133q18 -27 -6 -45z" />
    <glyph glyph-name="Ncommaaccent" unicode="&#x145;" horiz-adv-x="1564" 
d="M854 -96v-172q0 -70 -58.5 -119t-121.5 -68q-23 -5 -28 15t18 28q117 41 116 133l-104 35q-33 10 -33 35v113q0 31 33 30h145q33 1 33 -30zM1391 1434q12 0 21 -9.5t9 -21.5v-1374q0 -29 -30 -29h-254q-31 0 -52 29l-581 766v-766q0 -29 -29 -29h-301q-31 0 -31 29v1374
q0 12 9.5 21.5t21.5 9.5h270q31 0 50 -31l567 -741v741q0 31 29 31h301z" />
    <glyph glyph-name="ncommaaccent" unicode="&#x146;" horiz-adv-x="1171" 
d="M688 -96v-172q0 -70 -58.5 -119t-121.5 -68q-23 -5 -28 15t18 28q117 41 116 133l-104 35q-33 10 -33 35v113q0 31 33 30h145q33 1 33 -30zM680 883q203 0 296 -105.5t93 -279.5v-467q0 -14 -11 -22.5t-22 -8.5h-276q-31 0 -31 31v454q0 59 -39 102.5t-99 43.5
t-104.5 -43t-44.5 -103v-454q0 -31 -30 -31h-281q-29 0 -29 31v800q0 35 29 35h260q20 0 31 -35l20 -61q39 49 105.5 81t132.5 32z" />
    <glyph glyph-name="Ncaron" unicode="&#x147;" horiz-adv-x="1564" 
d="M1391 1434q12 0 21 -9.5t9 -21.5v-1374q0 -29 -30 -29h-254q-31 0 -52 29l-581 766v-766q0 -29 -29 -29h-301q-31 0 -31 29v1374q0 12 9.5 21.5t21.5 9.5h270q31 0 50 -31l567 -741v741q0 31 29 31h301zM1008 1870v-70q0 -20 -21 -41l-182 -170q-25 -25 -51 -24h-9
q-27 0 -51 24l-180 170q-20 20 -20 41v70q0 37 38 14l218 -137l219 137q39 23 39 -14z" />
    <glyph glyph-name="ncaron" unicode="&#x148;" horiz-adv-x="1171" 
d="M680 883q203 0 296 -105.5t93 -279.5v-467q0 -14 -11 -22.5t-22 -8.5h-276q-31 0 -31 31v454q0 59 -39 102.5t-99 43.5t-104.5 -43t-44.5 -103v-454q0 -31 -30 -31h-281q-29 0 -29 31v800q0 35 29 35h260q20 0 31 -35l20 -61q39 49 105.5 81t132.5 32zM842 1303v-70
q0 -20 -21 -41l-182 -170q-25 -25 -51 -25h-8q-27 0 -52 25l-180 170q-20 20 -20 41v70q0 37 39 14l217 -137l219 137q39 23 39 -14z" />
    <glyph glyph-name="Eng" unicode="&#x14a;" horiz-adv-x="1564" 
d="M1391 1434q12 0 21 -10t9 -21v-1466q0 -190 -211 -351q-18 -16 -34 0l-140 144q-14 20 -4 32t34 40t44 55t22 67q1 41 -55 117l-573 754v-766q0 -29 -29 -29h-301q-31 0 -31 29v1374q-1 12 9 21t22 10h270q31 0 50 -31l567 -741v741q0 31 29 31h301z" />
    <glyph glyph-name="eng" unicode="&#x14b;" horiz-adv-x="1171" 
d="M680 883q203 0 296 -105.5t93 -279.5v-516q0 -178 -199 -351q-18 -16 -34 0l-140 144q-14 20 0 39q33 37 33 157v514q0 57 -39 101.5t-99 44.5t-104.5 -44t-44.5 -102v-454q0 -31 -30 -31h-281q-29 0 -29 31v800q0 35 29 35h260q20 0 31 -35l20 -61q39 49 105.5 81
t132.5 32z" />
    <glyph glyph-name="Omacron" unicode="&#x14c;" horiz-adv-x="1628" 
d="M815 305q162 0 266.5 119t104.5 291t-105.5 291.5t-266.5 119.5t-266.5 -119.5t-105.5 -291.5t105.5 -291t267.5 -119zM815 -16q-303 0 -518 214t-215 518t215 519t518 215t517 -215t214 -519t-214 -518t-517 -214zM614 1608q-33 0 -32 30v119q0 31 32 31h402
q33 0 33 -31v-119q0 -31 -33 -30h-402z" />
    <glyph glyph-name="omacron" unicode="&#x14d;" horiz-adv-x="1038" 
d="M519 236q62 0 105.5 49t43.5 147t-43 148.5t-104.5 50.5t-105.5 -50.5t-44 -148.5t43 -147t105 -49zM520 -16q-203 0 -336 131t-133 319t133 318.5t336 130.5t335 -130t132 -319.5t-132 -319.5t-335 -130zM319 1040q-33 0 -32 31v119q0 31 32 31h402q33 0 33 -31v-119
q0 -31 -33 -31h-402z" />
    <glyph glyph-name="Ohungarumlaut" unicode="&#x150;" horiz-adv-x="1628" 
d="M815 305q162 0 266.5 119t104.5 291t-105.5 291.5t-266.5 119.5t-266.5 -119.5t-105.5 -291.5t105.5 -291t267.5 -119zM815 -16q-303 0 -518 214t-215 518t215 519t518 215t517 -215t214 -519t-214 -518t-517 -214zM954 1577q-20 -10 -43 12l-26 29q-14 16 14 41l207 186
q18 16 39 -4l94 -98q25 -29 -10 -45zM563 1577q-20 -10 -43 12l-28 29q-12 16 16 41l207 186q20 16 39 -4l94 -98q23 -29 -12 -43z" />
    <glyph glyph-name="ohungarumlaut" unicode="&#x151;" horiz-adv-x="1038" 
d="M519 236q62 0 105.5 49t43.5 147t-43 148.5t-104.5 50.5t-105.5 -50.5t-44 -148.5t43 -147t105 -49zM520 -16q-203 0 -336 131t-133 319t133 318.5t336 130.5t335 -130t132 -319.5t-132 -319.5t-335 -130zM598 1012l-33 20q-16 10 2 43l148 236q16 20 39 8l118 -70
q31 -20 2 -45l-231 -192q-18 -14 -45 0zM256 1012l-35 20q-14 10 4 43l148 236q18 23 39 8l118 -70q30 -22 0 -45l-229 -192q-18 -14 -45 0z" />
    <glyph glyph-name="OE" unicode="&#x152;" horiz-adv-x="2048" 
d="M815 305q74 0 133 25v772q-59 25 -135 24q-156 -2 -263.5 -116.5t-107.5 -295.5t107.5 -295t265.5 -114zM1917 1112h-608v-235h401q31 0 31 -29v-262q0 -29 -31 -29h-401v-235h606q12 0 21.5 -9.5t9.5 -21.5v-260q0 -12 -9.5 -21.5t-21.5 -9.5h-942q-98 -16 -156 -16
q-129 0 -258 49t-236.5 138t-174 232.5t-66.5 313.5t66.5 313.5t174 232.5t235.5 138t232.5 49t182.5 -16h944q29 0 29 -31v-260q0 -31 -29 -31z" />
    <glyph glyph-name="oe" unicode="&#x153;" horiz-adv-x="1640" 
d="M519 236q62 0 105.5 49t43.5 147t-43 148.5t-104.5 50.5t-105.5 -50.5t-44 -148.5t43 -147t105 -49zM1124.5 672q-57.5 0 -88.5 -37t-39 -90h256q-6 51 -38.5 89t-90 38zM1157.5 883q206.5 0 314 -141.5t107.5 -391.5q0 -12 -9 -21.5t-22 -9.5h-547q39 -104 187 -104
q111 0 194 47q27 12 39 -8l74 -139q16 -27 -2 -39q-131 -92 -331 -92t-333 106q-129 -106 -320.5 -106t-324.5 131t-133 319t133 318.5t322.5 130.5t318.5 -103q126 103 332.5 103z" />
    <glyph glyph-name="Racute" unicode="&#x154;" horiz-adv-x="1378" 
d="M504 1112v-346h289q131 0 131 173t-131 173h-289zM1272 0h-303q-27 0 -43 31l-221 413h-201v-413q0 -31 -29 -31h-301q-31 0 -31 31v1372q0 31 31 31h735q160 -4 267.5 -141.5t107.5 -332t-65.5 -316.5t-167.5 -157l243 -452q6 -12 -2 -23.5t-20 -11.5zM549 1569
q-33 -10 -43 14l-21 53q-10 25 15 41l352 191q31 20 43 -15l55 -127q12 -31 -14 -43z" />
    <glyph glyph-name="racute" unicode="&#x155;" horiz-adv-x="823" 
d="M549 635q-106 0 -107 -164v-440q0 -31 -30 -31h-279q-31 0 -31 31v800q0 35 31 35h172q39 0 57 -39l29 -53q94 109 232 109q159 0 159 -56l-108 -209q-14 -23 -39 -10q-45 27 -86 27zM307 983q-27 -16 -45 6l-33 49q-12 20 9 43l280 310q23 25 47 -5l88 -133
q18 -27 -6 -45z" />
    <glyph glyph-name="Rcommaaccent" unicode="&#x156;" horiz-adv-x="1378" 
d="M821 -96v-172q0 -70 -58 -119t-122 -68q-23 -6 -28 14.5t18 28.5q117 41 117 133l-105 35q-33 10 -33 35v113q0 31 33 30h145q33 1 33 -30zM504 1112v-346h289q131 0 131 173t-131 173h-289zM1272 0h-303q-27 0 -43 31l-221 413h-201v-413q0 -31 -29 -31h-301
q-31 0 -31 31v1372q0 31 31 31h735q160 -4 267.5 -141.5t107.5 -332t-65.5 -316.5t-167.5 -157l243 -452q6 -12 -2 -23.5t-20 -11.5z" />
    <glyph glyph-name="rcommaaccent" unicode="&#x157;" horiz-adv-x="823" 
d="M539 -96v-172q0 -70 -58.5 -119t-122.5 -68q-23 -6 -27.5 14.5t17.5 28.5q117 41 117 133l-105 35q-33 10 -32 35v113q0 31 32 30h146q33 1 33 -30zM549 635q-106 0 -107 -164v-440q0 -31 -30 -31h-279q-31 0 -31 31v800q0 35 31 35h172q39 0 57 -39l29 -53
q94 109 232 109q159 0 159 -56l-108 -209q-14 -23 -39 -10q-45 27 -86 27z" />
    <glyph glyph-name="Rcaron" unicode="&#x158;" horiz-adv-x="1378" 
d="M504 1112v-346h289q131 0 131 173t-131 173h-289zM1272 0h-303q-27 0 -43 31l-221 413h-201v-413q0 -31 -29 -31h-301q-31 0 -31 31v1372q0 31 31 31h735q160 -4 267.5 -141.5t107.5 -332t-65.5 -316.5t-167.5 -157l243 -452q6 -12 -2 -23.5t-20 -11.5zM975 1870v-70
q0 -20 -21 -41l-182 -170q-25 -25 -51 -24h-8q-27 0 -51 24l-181 170q-20 20 -20 41v70q0 37 39 14l217 -137l219 137q39 23 39 -14z" />
    <glyph glyph-name="rcaron" unicode="&#x159;" horiz-adv-x="823" 
d="M549 635q-106 0 -107 -164v-440q0 -31 -30 -31h-279q-31 0 -31 31v800q0 35 31 35h172q39 0 57 -39l29 -53q94 109 232 109q159 0 159 -56l-108 -209q-14 -23 -39 -10q-45 27 -86 27zM692 1303v-70q0 -20 -20 -41l-183 -170q-25 -25 -51 -25h-8q-27 0 -51 25l-180 170
q-20 20 -21 41v70q0 37 39 14l217 -137l219 137q39 23 39 -14z" />
    <glyph glyph-name="Sacute" unicode="&#x15a;" horiz-adv-x="1349" 
d="M657 -16q-344 0 -538 194q-20 20 0 41l192 193q16 16 39 2q53 -49 141.5 -81t174.5 -32t153.5 39t67.5 90t-54.5 82t-179.5 55q-287 59 -419 157.5t-132 254.5q0 207 161 339t415 132q311 0 549 -190q10 -8 10 -21.5t-8 -24.5l-195 -194q-20 -16 -39 -4
q-160 115 -325 114q-92 0 -149.5 -31.5t-57.5 -81.5t58.5 -83t189.5 -60q291 -57 413.5 -154t122.5 -269q0 -215 -159 -341t-431 -126zM506 1569q-33 -10 -43 14l-21 53q-10 25 15 41l352 191q31 20 43 -15l55 -127q12 -31 -14 -43z" />
    <glyph glyph-name="sacute" unicode="&#x15b;" horiz-adv-x="888" 
d="M418 -16q-246 0 -348 102q-16 16 -4 39l79 145q16 27 41 13q39 -27 114 -49q76 -22 142 -21.5t66 45.5q0 33 -105 57q-180 41 -249.5 101.5t-69.5 183.5t103.5 203t278.5 80t316 -80q25 -14 13 -39l-86 -156q-16 -29 -41 -12q-84 57 -174 57t-91 -45q0 -35 105 -59
q195 -51 257 -106.5t62 -180.5t-109.5 -201.5t-299.5 -76.5zM328 983q-27 -16 -45 6l-33 49q-12 20 8 43l281 310q23 25 47 -5l88 -133q18 -27 -6 -45z" />
    <glyph glyph-name="Scedilla" unicode="&#x15e;" horiz-adv-x="1349" 
d="M1247 436.5q0 -186.5 -140 -310.5t-384 -140l-25 -58q70 4 120 -37t50 -122q0 -182 -221 -183q-51 0 -100 27q-80 44 -58 70l62 61q10 10 24 -2q29 -29 70 -29q61 0 62 58q0 31 -19.5 46t-40.5 -1.5t-41 -16.5l-92 29q-14 4 -10 20l59 140q-279 25 -444 190q-20 20 0 41
l192 193q16 16 39 2q53 -49 141.5 -81t175 -32t153.5 39t67 90t-54.5 82t-179.5 55q-287 59 -419 157.5t-132 254.5q0 207 161 339t415 132q311 0 549 -190q10 -8 10 -21.5t-8 -24.5l-195 -194q-20 -16 -39 -4q-160 115 -325 114q-92 0 -149.5 -31.5t-57.5 -81.5t58.5 -83
t189.5 -60q291 -57 413.5 -154t122.5 -283.5z" />
    <glyph glyph-name="scedilla" unicode="&#x15f;" horiz-adv-x="888" 
d="M827 266q0 -121 -95 -196.5t-263 -83.5l-25 -58q70 4 120 -37t50 -122q0 -182 -221 -183q-51 0 -100 27t-60 51q-4 12 3 19l61 61q10 10 25 -2q29 -29 69 -29q61 0 62 58q0 31 -19.5 46t-40.5 -1.5t-41 -16.5l-92 29q-14 4 -10 20l61 142q-164 18 -241 96q-16 16 -4 39
l79 145q16 27 41 13q39 -27 114 -48.5t141.5 -21.5t66.5 45q0 33 -105 57q-180 41 -249.5 101.5t-69.5 183.5t103.5 203t278.5 80t316 -80q25 -14 13 -39l-86 -156q-16 -29 -41 -12q-84 57 -174 57t-91 -45q0 -35 105 -59q195 -51 257 -106.5t62 -176.5z" />
    <glyph glyph-name="Scaron" unicode="&#x160;" horiz-adv-x="1349" 
d="M657 -16q-344 0 -538 194q-20 20 0 41l192 193q16 16 39 2q53 -49 141.5 -81t175 -32t153.5 39t67 90t-54.5 82t-179.5 55q-287 59 -419 157.5t-132 254.5q0 207 161 339t415 132q311 0 549 -190q10 -8 10 -21.5t-8 -24.5l-195 -194q-20 -16 -39 -4q-160 115 -325 114
q-92 0 -149.5 -31.5t-57.5 -81.5t58.5 -83t189.5 -60q291 -57 413.5 -154t122.5 -269q0 -215 -159 -341t-431 -126zM932 1870v-70q0 -20 -21 -41l-182 -170q-25 -25 -51 -24h-8q-27 0 -52 24l-180 170q-20 20 -20 41v70q0 37 39 14l217 -137l219 137q39 23 39 -14z" />
    <glyph glyph-name="scaron" unicode="&#x161;" horiz-adv-x="888" 
d="M418 -16q-246 0 -348 102q-16 16 -4 39l79 145q16 27 41 13q39 -27 114 -48.5t141.5 -21.5t66.5 45q0 33 -105 57q-180 41 -249.5 101.5t-69.5 183.5t103.5 203t278.5 80t316 -80q25 -14 13 -39l-86 -156q-16 -29 -41 -12q-84 57 -174 57t-91 -45q0 -35 105 -59
q195 -51 257 -106.5t62 -180.5t-109.5 -201.5t-299.5 -76.5zM713 1303v-70q0 -20 -21 -41l-182 -170q-25 -25 -51 -25h-8q-27 0 -52 25l-180 170q-20 20 -20 41v70q0 37 39 14l217 -137l219 137q39 23 39 -14z" />
    <glyph glyph-name="uni0162" unicode="&#x162;" horiz-adv-x="1308" 
d="M1198 1434q12 0 20.5 -10.5t8.5 -22.5v-258q0 -31 -29 -31h-362v-1081q0 -12 -9.5 -21.5t-21.5 -9.5h-96l-31 -72q70 4 120 -37t50 -122q0 -182 -221 -183q-51 0 -100.5 27t-56.5 45t-1 25l61 61q10 10 25 -2q29 -29 70 -29q61 0 61 58q0 31 -19.5 46t-39.5 -1
q-20 -17 -41 -17l-92 29q-14 4 -11 20l66 152h-45q-29 0 -29 31v1081h-362q-12 0 -21.5 9t-9.5 22v258q0 12 9 22.5t22 10.5h1085z" />
    <glyph glyph-name="uni0163" unicode="&#x163;" horiz-adv-x="817" 
d="M643 -231q0 -182 -221 -183q-51 0 -100.5 27t-56.5 45t-1 25l62 61q10 10 24 -2q29 -29 70 -29q61 0 61 58q0 31 -19.5 46t-39.5 -1q-20 -17 -41 -17l-92 29q-14 4 -10 20l65 152q-170 57 -180 305v297h-74q-29 0 -29 33v196q0 35 29 35h74v215q0 31 31 31h278
q31 0 31 -31v-215h170q31 0 31 -35v-196q0 -33 -31 -33h-170v-262q0 -51 18.5 -72.5t60.5 -21.5t87 24q25 12 39 -14l65 -174q12 -29 -14 -41q-111 -49 -262 -57l-25 -56q70 4 120 -37t50 -122z" />
    <glyph glyph-name="Tcaron" unicode="&#x164;" horiz-adv-x="1308" 
d="M1198 1434q12 0 20.5 -10.5t8.5 -22.5v-258q0 -31 -29 -31h-362v-1081q0 -12 -9.5 -21.5t-21.5 -9.5h-301q-29 0 -29 31v1081h-362q-12 0 -21.5 9t-9.5 22v258q0 12 9 22.5t22 10.5h1085zM911 1870v-70q0 -20 -20 -41l-182 -170q-25 -25 -52 -24h-8q-27 0 -51 24
l-180 170q-20 20 -21 41v70q0 37 39 14l217 -137l219 137q39 23 39 -14z" />
    <glyph glyph-name="tcaron" unicode="&#x165;" horiz-adv-x="1021" 
d="M455 -16q-276 0 -291 321v297h-74q-29 0 -29 33v196q0 35 29 35h74v215q0 31 31 31h278q31 0 31 -31v-215h170q31 0 31 -35v-196q0 -33 -31 -33h-170v-262q0 -51 18.5 -72.5t60.5 -21.5t87 24q25 12 39 -14l65 -174q12 -29 -14 -41q-125 -57 -305 -57zM975 1528v-232
q0 -119 -80 -218t-203 -167q-23 -12 -32 15t12 39q104 66 142 132t38 165l-150 51q-33 12 -32 35v180q0 31 32 31h240q33 0 33 -31z" />
    <glyph glyph-name="Tbar" unicode="&#x166;" horiz-adv-x="1308" 
d="M1198 1434q12 0 20.5 -10.5t8.5 -22.5v-258q0 -31 -29 -31h-362v-264h104q33 0 33 -31v-205q0 -31 -33 -30h-104v-551q0 -12 -9.5 -21.5t-21.5 -9.5h-301q-29 0 -29 31v551h-104q-33 0 -33 30v205q0 31 33 31h104v264h-362q-12 0 -21.5 9t-9.5 22v258q0 12 9 22.5
t22 10.5h1085z" />
    <glyph glyph-name="tbar" unicode="&#x167;" horiz-adv-x="837" 
d="M475 -16q-276 0 -291 321v297h-73q-29 0 -29 33v196q0 35 29 35h73v101h-73q-29 0 -29 32v197q0 35 29 35h73v172q0 31 31 31h279q31 0 30 -31v-172h170q31 0 31 -35v-197q0 -33 -31 -32h-170v-101h170q31 0 31 -35v-196q0 -33 -31 -33h-170v-262q0 -51 18 -73
q18 -21 61 -21q42 0 87 24q25 12 39 -14l66 -174q12 -29 -15 -41q-125 -57 -305 -57z" />
    <glyph glyph-name="Umacron" unicode="&#x16a;" horiz-adv-x="1433" 
d="M1303 1434q29 0 28 -33v-795q-1 -236 -125 -416q-66 -94 -191.5 -150t-297.5 -56t-298 56q-125 56 -191 150q-126 181 -126 416v795q0 14 9.5 23.5t21.5 9.5h301q29 0 29 -33v-748q0 -348 254 -348t254 348v748q0 14 9 23.5t21 9.5h302zM516 1608q-33 0 -33 30v119
q0 31 33 31h402q33 0 32 -31v-119q0 -31 -32 -30h-402z" />
    <glyph glyph-name="umacron" unicode="&#x16b;" horiz-adv-x="1140" 
d="M1008 866q31 0 30 -35v-802q0 -29 -30 -29h-220q-29 0 -45 29l-47 71q-31 -49 -97.5 -82.5t-133.5 -33.5q-178 0 -270.5 99t-92.5 279v469q0 35 29 35h281q31 0 30 -35v-454q0 -61 34 -102.5t91.5 -41.5t93 40t37.5 100v458q0 35 31 35h279zM371 1040q-33 0 -33 31v119
q0 31 33 31h401q33 0 33 -31v-119q0 -31 -33 -31h-401z" />
    <glyph glyph-name="ubreve" unicode="&#x16d;" horiz-adv-x="1140" 
d="M1008 866q31 0 30 -35v-802q0 -29 -30 -29h-220q-29 0 -45 29l-47 71q-31 -49 -97.5 -82.5t-133.5 -33.5q-178 0 -270.5 99t-92.5 279v469q0 35 29 35h281q31 0 30 -35v-454q0 -61 34 -102.5t91.5 -41.5t93 40t37.5 100v458q0 35 31 35h279zM571.5 1006
q-223.5 0 -309.5 213q-6 14 10 20l131 57q14 6 23 -8q33 -55 62.5 -79.5t83 -24.5t83 24.5t62.5 79.5q8 14 22 8l131 -57q16 -6 11 -20q-86 -213 -309.5 -213z" />
    <glyph glyph-name="Uring" unicode="&#x16e;" horiz-adv-x="1433" 
d="M1303 1434q29 0 28 -33v-795q-1 -236 -125 -416q-66 -94 -191.5 -150t-297.5 -56t-298 56q-125 56 -191 150q-126 181 -126 416v795q0 14 9.5 23.5t21.5 9.5h301q29 0 29 -33v-748q0 -348 254 -348t254 348v748q0 14 9 23.5t21 9.5h302zM715 1694q33 0 51 23.5t18 55.5
t-18 55t-51 23t-49.5 -23.5t-16.5 -55t16.5 -55t49.5 -23.5zM716 1546q-95 0 -159.5 62.5t-64.5 165t64.5 165t159.5 62.5t160.5 -62.5t65.5 -165t-65.5 -165t-160.5 -62.5z" />
    <glyph glyph-name="uring" unicode="&#x16f;" horiz-adv-x="1140" 
d="M1008 866q31 0 30 -35v-802q0 -29 -30 -29h-220q-29 0 -45 29l-47 71q-31 -49 -97.5 -82.5t-133.5 -33.5q-178 0 -270.5 99t-92.5 279v469q0 35 29 35h281q31 0 30 -35v-454q0 -61 34 -102.5t91.5 -41.5t93 40t37.5 100v458q0 35 31 35h279zM569.5 1126q32.5 0 51 24
t18.5 55.5t-18.5 55t-51 23.5t-49 -23.5t-16.5 -55.5t16.5 -55.5t49 -23.5zM570 979q-95 0 -159.5 62.5t-64.5 165t64.5 165t159.5 62.5t161 -62.5t66 -165t-66 -165t-161 -62.5z" />
    <glyph glyph-name="Uhungarumlaut" unicode="&#x170;" horiz-adv-x="1433" 
d="M1303 1434q29 0 28 -33v-795q-1 -236 -125 -416q-66 -94 -191.5 -150t-297.5 -56t-298 56q-125 56 -191 150q-126 181 -126 416v795q0 14 9.5 23.5t21.5 9.5h301q29 0 29 -33v-748q0 -348 254 -348t254 348v748q0 14 9 23.5t21 9.5h302zM856 1577q-20 -10 -43 12l-27 29
q-14 16 15 41l207 186q18 16 39 -4l94 -98q25 -29 -11 -45zM465 1577q-20 -10 -43 12l-29 29q-12 16 17 41l206 186q20 16 39 -4l95 -98q23 -29 -13 -43z" />
    <glyph glyph-name="uhungarumlaut" unicode="&#x171;" horiz-adv-x="1140" 
d="M1008 866q31 0 30 -35v-802q0 -29 -30 -29h-220q-29 0 -45 29l-47 71q-31 -49 -97.5 -82.5t-133.5 -33.5q-178 0 -270.5 99t-92.5 279v469q0 35 29 35h281q31 0 30 -35v-454q0 -61 34 -102.5t91.5 -41.5t93 40t37.5 100v458q0 35 31 35h279zM649 1012l-33 20q-16 10 2 43
l148 236q16 20 39 8l119 -70q31 -20 2 -45l-232 -192q-18 -14 -45 0zM307 1012l-35 20q-14 10 4 43l148 236q18 23 39 8l119 -70q29 -21 0 -45l-230 -192q-18 -14 -45 0z" />
    <glyph glyph-name="Uogonek" unicode="&#x172;" horiz-adv-x="1433" 
d="M1303 1434q29 0 28 -33v-795q0 -187 -81 -347q-42 -83 -120.5 -147.5t-185.5 -97.5q-111 -123 -110 -225q0 -76 61 -76q51 0 100 41q18 14 31 0l23 -24q10 -10 4 -23q-16 -45 -65.5 -89t-133.5 -44t-141.5 44t-57.5 134q0 123 115 234q-16 -2 -53 -2q-172 0 -298 56
q-125 56 -191 150q-126 181 -126 416v795q0 14 9.5 23.5t21.5 9.5h301q29 0 29 -33v-748q0 -348 254 -348t254 348v748q0 14 9 23.5t21 9.5h302z" />
    <glyph glyph-name="uogonek" unicode="&#x173;" horiz-adv-x="1140" 
d="M838 -426q-84 0 -141.5 44t-57.5 134q0 133 133 250q-18 6 -29 27l-47 71q-31 -49 -97.5 -82.5t-133.5 -33.5q-178 0 -270.5 99t-92.5 279v469q0 35 29 35h281q31 0 30 -35v-454q0 -61 34 -102.5t91.5 -41.5t93 40t37.5 100v458q0 35 31 35h279q31 0 30 -35v-802
q0 -29 -30 -29h-93q-98 -111 -98 -211q0 -76 62 -76q51 0 100 41q18 14 31 0l22 -24q10 -10 4 -23q-16 -45 -65 -89t-133 -44z" />
    <glyph glyph-name="Wcircumflex" unicode="&#x174;" horiz-adv-x="2103" 
d="M2017 1434q12 0 19.5 -9.5t5.5 -21.5l-469 -1383q-6 -20 -27 -20h-155q-18 0 -27 18l-311 744l-310 -742q-8 -20 -28 -20h-154q-20 0 -29 20l-469 1383q-4 12 4.5 21.5t20.5 9.5h297q25 0 29 -31l248 -733l292 733q12 31 31 31h133q20 0 33 -31l293 -733l246 733
q12 31 30 31h297zM797 1587v70q0 20 20 41l180 170q25 25 52 24h8q27 0 51 -24l182 -170q20 -20 21 -41v-70q0 -37 -39 -14l-219 137l-217 -137q-39 -23 -39 14z" />
    <glyph glyph-name="wcircumflex" unicode="&#x175;" horiz-adv-x="1460" 
d="M1370 866q18 0 25.5 -15t1.5 -28l-295 -803q-8 -20 -29 -20h-178q-18 0 -29 20l-137 414l-137 -416q-8 -18 -27 -18h-180q-20 0 -29 18l-293 805q-6 12 1.5 27.5t25.5 15.5h277q25 0 30 -20l103 -371l129 371q8 20 26 20h150q20 0 26 -20l130 -371l102 369q6 23 31 22
h276zM471 1020v70q0 20 21 40l180 170q25 25 51 25h8q27 0 51 -25l183 -170q20 -20 20 -40v-70q0 -37 -39 -14l-219 137l-217 -137q-39 -23 -39 14z" />
    <glyph glyph-name="Ycircumflex" unicode="&#x176;" horiz-adv-x="1380" 
d="M1300 1434q12 0 20.5 -9.5t2.5 -21.5l-455 -797v-577q0 -29 -30 -29h-299q-31 0 -31 29v577l-451 797q-6 12 2.5 21.5t20.5 9.5h317q37 0 52 -31l239 -445l244 445q14 31 49 31h319zM432 1587v70q0 20 21 41l180 170q25 25 51 24h8q27 0 51 -24l183 -170q20 -20 20 -41
v-70q0 -37 -39 -14l-219 137l-217 -137q-39 -23 -39 14z" />
    <glyph glyph-name="ycircumflex" unicode="&#x177;" horiz-adv-x="1140" 
d="M1069 866q14 0 25.5 -13t3.5 -30l-606 -1198q-8 -16 -27 -16h-260q-16 0 -25.5 13t-1.5 30l232 461l-367 710q-6 12 1 27.5t26 15.5h270q23 0 35 -30l196 -404l211 416q8 18 29 18h258zM317 1020v70q0 20 21 40l180 170q25 25 51 25h9q27 0 51 -25l182 -170
q20 -20 20 -40v-70q1 -37 -38 -14l-220 137l-217 -137q-39 -23 -39 14z" />
    <glyph glyph-name="Ydieresis" unicode="&#x178;" horiz-adv-x="1380" 
d="M1300 1434q12 0 20.5 -9.5t2.5 -21.5l-455 -797v-577q0 -29 -30 -29h-299q-31 0 -31 29v577l-451 797q-6 12 2.5 21.5t20.5 9.5h317q37 0 52 -31l239 -445l244 445q14 31 49 31h319zM840 1606q-43 0 -73 28.5t-30 72.5t30 72.5t73 28.5t72.5 -28.5t29.5 -72.5
t-29.5 -72.5t-72.5 -28.5zM541 1606q-43 0 -73 28.5t-30 72.5t30 72.5t73 28.5t72.5 -28.5t29.5 -72.5t-29.5 -72.5t-72.5 -28.5z" />
    <glyph glyph-name="Zacute" unicode="&#x179;" horiz-adv-x="1314" 
d="M164 1112q-29 0 -29 29v260q0 33 29 33h1026q16 0 21.5 -14.5t-3.5 -30.5l-579 -1067h532q10 0 19.5 -9.5t9.5 -21.5v-260q0 -31 -29 -31h-1048q-16 0 -25.5 14.5t-1.5 28.5l582 1069h-504zM479 1569q-33 -10 -43 14l-20 53q-10 25 14 41l352 191q31 20 43 -15l56 -127
q12 -31 -15 -43z" />
    <glyph glyph-name="zacute" unicode="&#x17a;" horiz-adv-x="905" 
d="M129 614q-31 0 -31 29v193q0 12 9.5 21t21.5 9h664q18 0 26 -12t0 -31l-289 -571h240q12 0 21.5 -9.5t9.5 -21.5v-192q0 -29 -31 -29h-659q-14 0 -24.5 13.5t-2.5 29.5l289 571h-244zM330 983q-27 -16 -45 6l-33 49q-12 20 8 43l281 310q23 25 47 -5l88 -133
q18 -27 -6 -45z" />
    <glyph glyph-name="Zdotaccent" unicode="&#x17b;" horiz-adv-x="1314" 
d="M164 1112q-29 0 -29 29v260q0 33 29 33h1026q16 0 21.5 -14.5t-3.5 -30.5l-579 -1067h532q10 0 19.5 -9.5t9.5 -21.5v-260q0 -31 -29 -31h-1048q-16 0 -25.5 14.5t-1.5 28.5l582 1069h-504zM649 1579q-53 0 -90 37t-37 89t37 89t90 37t90 -37t37 -89t-37 -89t-90 -37z
" />
    <glyph glyph-name="zdotaccent" unicode="&#x17c;" horiz-adv-x="905" 
d="M129 614q-31 0 -31 29v193q0 12 9.5 21t21.5 9h664q18 0 26 -12t0 -31l-289 -571h240q12 0 21.5 -9.5t9.5 -21.5v-192q0 -29 -31 -29h-659q-14 0 -24.5 13.5t-2.5 29.5l289 571h-244zM459 1012q-53 0 -90 36.5t-37 89t37 89.5t90 37t90 -37t37 -89t-37 -89t-90 -37z" />
    <glyph glyph-name="Zcaron" unicode="&#x17d;" horiz-adv-x="1314" 
d="M164 1112q-29 0 -29 29v260q0 33 29 33h1026q16 0 21.5 -14.5t-3.5 -30.5l-579 -1067h532q10 0 19.5 -9.5t9.5 -21.5v-260q0 -31 -29 -31h-1048q-16 0 -25.5 14.5t-1.5 28.5l582 1069h-504zM905 1870v-70q0 -20 -20 -41l-183 -170q-25 -25 -51 -24h-8q-27 0 -51 24
l-180 170q-20 20 -21 41v70q0 37 39 14l217 -137l219 137q39 23 39 -14z" />
    <glyph glyph-name="zcaron" unicode="&#x17e;" horiz-adv-x="905" 
d="M129 614q-31 0 -31 29v193q0 12 9.5 21t21.5 9h664q18 0 26 -12t0 -31l-289 -571h240q12 0 21.5 -9.5t9.5 -21.5v-192q0 -29 -31 -29h-659q-14 0 -24.5 13.5t-2.5 29.5l289 571h-244zM715 1303v-70q0 -20 -21 -41l-182 -170q-25 -25 -51 -25h-8q-27 0 -52 25l-180 170
q-20 20 -20 41v70q0 37 39 14l217 -137l219 137q39 23 39 -14z" />
    <glyph glyph-name="florin" unicode="&#x192;" horiz-adv-x="948" 
d="M537 981v-104h170q12 0 21 -9.5t9 -21.5v-258q0 -12 -9 -21.5t-21 -9.5h-170v-620q0 -76 -42 -148t-85 -110.5t-111 -90.5q-20 -14 -39 0l-154 146q-16 16 0 39q78 94 78 153v631h-73q-29 0 -29 31v258q0 31 29 31h73v112q0 248 122 354.5t301.5 106.5t285.5 -59
q10 -6 13 -17.5t-1 -17.5l-2 -8l-123 -166q-11 -15 -28 -15q-64 18 -88 19q-127 0 -127 -205z" />
    <glyph glyph-name="Scommaaccent" unicode="&#x218;" horiz-adv-x="1349" 
d="M778 -96v-172q0 -70 -58 -119t-122 -68q-23 -5 -28 15t18 28q117 41 117 133l-105 35q-33 10 -33 35v113q0 31 33 30h145q33 1 33 -30zM657 -16q-344 0 -538 194q-20 20 0 41l192 193q16 16 39 2q53 -49 141.5 -81t174.5 -32t153.5 39t67.5 90t-54.5 82t-179.5 55
q-287 59 -419 157.5t-132 254.5q0 207 161 339t415 132q311 0 549 -190q10 -8 10 -21.5t-8 -24.5l-195 -194q-20 -16 -39 -4q-160 115 -325 114q-92 0 -149.5 -31.5t-57.5 -81.5t58.5 -83t189.5 -60q291 -57 413.5 -154t122.5 -269q0 -215 -159 -341t-431 -126z" />
    <glyph glyph-name="scommaaccent" unicode="&#x219;" horiz-adv-x="888" 
d="M524 -96v-172q0 -70 -58 -119t-122 -68q-23 -5 -28 15t18 28q117 41 117 133l-105 35q-33 10 -33 35v113q0 31 33 30h146q32 1 32 -30zM418 -16q-246 0 -348 102q-16 16 -4 39l79 145q16 27 41 13q39 -27 114 -49q76 -22 142 -21.5t66 45.5q0 33 -105 57
q-180 41 -249.5 101.5t-69.5 183.5t103.5 203t278.5 80t316 -80q25 -14 13 -39l-86 -156q-16 -29 -41 -12q-84 57 -174 57t-91 -45q0 -35 105 -59q195 -51 257 -106.5t62 -180.5t-109.5 -201.5t-299.5 -76.5z" />
    <glyph glyph-name="uni021A" unicode="&#x21a;" horiz-adv-x="1308" 
d="M758 -96v-172q0 -70 -58.5 -119t-121.5 -68q-23 -5 -28 15t17 28q117 41 117 133l-104 35q-33 10 -33 35v113q0 31 33 30h145q33 1 33 -30zM1198 1434q12 0 20.5 -10.5t8.5 -22.5v-258q0 -31 -29 -31h-362v-1081q0 -12 -9.5 -21.5t-21.5 -9.5h-301q-29 0 -29 31v1081
h-362q-12 0 -21.5 9t-9.5 22v258q0 12 9 22.5t22 10.5h1085z" />
    <glyph glyph-name="uni021B" unicode="&#x21b;" horiz-adv-x="817" 
d="M553 -96v-172q0 -70 -58.5 -119t-121.5 -68q-23 -6 -28 14.5t17 28.5q117 41 117 133l-104 35q-33 10 -33 35v113q0 31 33 30h145q33 1 33 -30zM455 -16q-276 0 -291 321v297h-74q-29 0 -29 33v196q0 35 29 35h74v215q0 31 31 31h278q31 0 31 -31v-215h170q31 0 31 -35
v-196q0 -33 -31 -33h-170v-262q0 -51 18.5 -72.5t60.5 -21.5t87 24q25 12 39 -14l65 -174q12 -29 -14 -41q-125 -57 -305 -57z" />
    <glyph glyph-name="circumflex" unicode="&#x2c6;" horiz-adv-x="718" 
d="M102 1333v70q0 20 21 41l180 170q25 25 51 24h8q27 0 52 -24l182 -170q20 -20 20 -41v-70q1 -37 -38 -14l-220 137l-217 -137q-39 -23 -39 14z" />
    <glyph glyph-name="caron" unicode="&#x2c7;" horiz-adv-x="718" 
d="M616 1546q0 -20 -20 -41l-182 -170q-25 -25 -52 -24h-8q-27 0 -51 24l-180 170q-20 20 -21 41v70q0 37 39 14l217 -137l220 137q39 23 38 -14v-70z" />
    <glyph glyph-name="breve" unicode="&#x2d8;" horiz-adv-x="827" 
d="M414 1319q-223 0 -310 213q-6 14 11 20l131 58q16 6 22 -8q33 -55 63 -80t83 -25t83 25t62 80q6 14 23 8l131 -58q16 -6 10 -20q-86 -213 -309 -213z" />
    <glyph glyph-name="dotaccent" unicode="&#x2d9;" horiz-adv-x="458" 
d="M229 1325q-53 0 -90 37t-37 89t37 89t90 37t90 -37t37 -89t-37 -89t-90 -37z" />
    <glyph glyph-name="ring" unicode="&#x2da;" horiz-adv-x="655" 
d="M260 1520q0 -80 66 -80q33 0 51 24t18 55t-18 55t-51 24t-50 -24q-16 -24 -16 -54zM553 1520q1 -102 -65 -165t-161 -63t-160 62t-65 166q0 102 65 164t160 62t161 -62t65 -164z" />
    <glyph glyph-name="ogonek" unicode="&#x2db;" horiz-adv-x="604" 
d="M301 -446q-84 0 -141 44t-58 134q0 147 156 268h139q-117 -125 -116 -231q0 -76 61 -76q51 0 100 41q18 14 31 0l23 -25q10 -10 4 -22q-16 -45 -66 -89t-133 -44z" />
    <glyph glyph-name="tilde" unicode="&#x2dc;" horiz-adv-x="843" 
d="M549 1341q-64 0 -127 34t-131 34t-98 -51q-8 -12 -29 -4l-51 24q-16 6 -9 25q55 150 201 147q78 0 149 -34q70 -34 110 -33q40 0 89 51q10 10 29 4l49 -20q16 -6 8 -25q-25 -68 -75 -110t-115 -42z" />
    <glyph glyph-name="hungarumlaut" unicode="&#x2dd;" horiz-adv-x="878" 
d="M487 1325l-32 21q-16 10 2 43l147 235q16 20 39 8l119 -69q31 -20 2 -45l-232 -193q-18 -14 -45 0zM145 1325l-34 21q-14 10 4 43l147 235q18 23 39 8l119 -69q29 -21 0 -45l-230 -193q-18 -14 -45 0z" />
    <glyph glyph-name="gravecomb" unicode="&#x300;" 
d="M-186 1296l-340 226q-25 18 -6 45l88 133q25 29 47 4l280 -309q20 -23 8 -43l-32 -49q-18 -23 -45 -7z" />
    <glyph glyph-name="acutecomb" unicode="&#x301;" 
d="M-457 1296q-27 -16 -45 7l-33 49q-12 20 9 43l280 309q23 25 47 -4l88 -133q18 -27 -6 -45z" />
    <glyph glyph-name="uni0302" unicode="&#x302;" 
d="M-616 1403q0 20 20 41l180 170q25 25 51 24h9q27 0 51 -24l182 -170q20 -20 21 -41v-70q0 -37 -39 -14l-219 137l-218 -137q-39 -23 -38 14v70z" />
    <glyph glyph-name="tildecomb" unicode="&#x303;" 
d="M-295 1341q-64 0 -127 34t-131 34t-98 -51q-8 -12 -29 -4l-51 24q-16 6 -8 25q55 150 200 147q78 0 149 -33.5t110.5 -33.5t89.5 51q10 10 28 4l49 -20q16 -6 9 -25q-25 -68 -76 -110t-115 -42z" />
    <glyph glyph-name="uni0304" unicode="&#x304;" 
d="M-537 1354q-33 0 -32 30v119q0 31 32 31h402q33 0 33 -31v-119q0 -31 -33 -30h-402z" />
    <glyph glyph-name="uni0306" unicode="&#x306;" 
d="M-413.5 1319q-223.5 0 -309.5 213q-6 14 10 20l131 58q16 6 23 -8q33 -55 62.5 -80t83 -25t83 24.5t62.5 80.5q6 14 22 8l131 -58q16 -6 11 -20q-86 -213 -309.5 -213z" />
    <glyph glyph-name="uni0307" unicode="&#x307;" 
d="M-229.5 1325q-53.5 0 -90 37t-36.5 89t36.5 89t90 37t90.5 -37t37 -89t-37 -89t-90.5 -37z" />
    <glyph glyph-name="uni0308" unicode="&#x308;" 
d="M-205 1352q-43 0 -72.5 28.5t-29.5 72.5t29.5 72.5t72.5 28.5t73 -28.5t30 -72.5t-30 -72.5t-73 -28.5zM-504 1352q-43 0 -72.5 28.5t-29.5 72.5t29.5 72.5t72.5 28.5t73 -28.5t30 -72.5t-30 -72.5t-73 -28.5z" />
    <glyph glyph-name="uni030A" unicode="&#x30a;" 
d="M-329.5 1440q32.5 0 51 23.5t18.5 55.5t-18.5 55t-51 23t-49 -23.5t-16.5 -55t16.5 -55t49 -23.5zM-329 1292q-95 0 -159.5 62.5t-64.5 165t64.5 165t159.5 62.5t161 -62.5t66 -165t-66 -165t-161 -62.5z" />
    <glyph glyph-name="uni030B" unicode="&#x30b;" 
d="M-391 1325l-33 21q-16 10 2 43l148 235q16 20 38 8l119 -69q31 -20 2 -45l-231 -193q-18 -14 -45 0zM-733 1325l-35 21q-14 10 4 43l148 235q18 23 38 8l119 -69q30 -22 0 -45l-229 -193q-18 -14 -45 0z" />
    <glyph glyph-name="uni030C" unicode="&#x30c;" 
d="M-102 1616v-70q0 -20 -21 -41l-182 -170q-25 -25 -51 -24h-9q-27 0 -51 24l-180 170q-20 20 -20 41v70q0 37 38 14l218 -137l219 137q39 23 39 -14z" />
    <glyph glyph-name="uni0312" unicode="&#x312;" 
d="M-346 1315v172q0 70 58.5 119t121.5 67q23 6 28 -14t-18 -29q-117 -41 -116 -133l104 -35q33 -10 33 -35v-112q0 -31 -33 -31h-145q-33 0 -33 31z" />
    <glyph glyph-name="uni0326" unicode="&#x326;" 
d="M-102 -96v-172q0 -70 -58.5 -119t-122.5 -68q-23 -5 -27 15t17 28q117 41 117 133l-105 35q-33 10 -32 35v113q0 31 32 30h146q33 1 33 -30z" />
    <glyph glyph-name="uni0327" unicode="&#x327;" 
d="M-102 -240q0 -182 -222 -182q-51 0 -100 26.5t-56 45t-1 24.5l61 62q10 10 25 -2q29 -29 69 -29q61 0 62 57q0 31 -19.5 46.5t-39.5 -0.5q-20 -17 -42 -17l-92 29q-14 4 -10 20l76 176h160l-41 -96q70 4 120 -37t50 -123z" />
    <glyph glyph-name="uni0328" unicode="&#x328;" 
d="M-303 -446q-84 0 -141.5 44t-57.5 134q0 147 156 268h139q-117 -125 -117 -231q0 -76 62 -76q51 0 100 41q18 14 31 0l22 -25q10 -10 5 -22q-16 -45 -65.5 -89t-133.5 -44z" />
    <glyph glyph-name="uni0335" unicode="&#x335;" 
d="M-705 295q-33 0 -32 31v204q0 31 32 31h570q33 0 33 -31v-204q0 -31 -33 -31h-570z" />
    <glyph glyph-name="uni0336" unicode="&#x336;" 
d="M-1298 295q-33 0 -33 31v204q0 31 33 31h1163q33 0 33 -31v-204q0 -31 -33 -31h-1163z" />
    <glyph glyph-name="uni0337" unicode="&#x337;" 
d="M-575 0h-166q-20 0 -30 14q-9 14 -1 31l465 1063q12 31 41 31h180q16 1 22 -11t1 -26l-469 -1071q-16 -31 -43 -31z" />
    <glyph glyph-name="uni0338" unicode="&#x338;" 
d="M-705 0h-165q-20 0 -30 14q-9 14 -1 31l594 1358q12 31 41 31h180q16 0 22 -12t1 -25l-599 -1366q-14 -31 -43 -31z" />
    <glyph glyph-name="uni0394" unicode="&#x394;" horiz-adv-x="1599" 
d="M799 1038l-250 -719h502zM1477 0h-1356q-14 0 -24 13q-9 13 -3 30l504 1372q8 18 27 19h346q23 0 28 -19l506 -1374q6 -13 -3 -27t-25 -14z" />
    <glyph glyph-name="Pi" unicode="&#x3a0;" horiz-adv-x="1347" 
d="M1171 1434q33 0 33 -31v-1370q0 -33 -30 -33h-279q-31 0 -31 33v1102h-381v-1102q0 -33 -30 -33h-279q-31 0 -31 33v1370q0 31 33 31h995z" />
    <glyph glyph-name="uni03A9" unicode="&#x3a9;" horiz-adv-x="1568" 
d="M1446 319q31 0 31 -28v-262q0 -29 -31 -29h-582q-64 0 28 164q93 164 158 322t64 309q0 332 -330 331q-332 0 -331 -331q0 -119 39 -246t87 -214t95 -175q85 -160 31 -160h-582q-31 0 -31 29v262q0 29 31 28h117q-147 291 -148 476q0 295 193 475t499 180t498 -177
t193 -478q0 -78 -43 -213t-105 -263h119z" />
    <glyph glyph-name="uni03BC" unicode="&#x3bc;" horiz-adv-x="1148" 
d="M1063 0h-275q-29 0 -45 29l-47 71q-109 -117 -231 -116h-23v-396q0 -31 -30 -30h-281q-29 0 -29 30v1246q0 33 29 32h281q12 0 21 -9t9 -23v-457q0 -61 34 -103t91 -41q57 0 93 40t38 100v458q0 35 31 35h279q31 0 30 -35v-641q0 -63 45 -153q6 -13 0 -25t-20 -12z" />
    <glyph glyph-name="pi" unicode="&#x3c0;" horiz-adv-x="1492" 
d="M1366 866q35 0 35 -30v-238q0 -31 -35 -31h-139v-331q0 -102 65 -199q8 -13 1 -25t-21 -12h-275q-27 0 -45 29q-2 4 -6 10q-53 86 -59 170v358h-217v-536q0 -31 -31 -31h-281q-29 0 -28 31v536q-102 0 -201 -65q-12 -8 -25 -1q-12 7 -12 21v234q0 27 29 45q4 2 10 6
q86 53 170 59h1065z" />
    <glyph glyph-name="Wgrave" unicode="&#x1e80;" horiz-adv-x="2103" 
d="M2017 1434q12 0 19.5 -9.5t5.5 -21.5l-469 -1383q-6 -20 -27 -20h-155q-18 0 -27 18l-311 744l-310 -742q-8 -20 -28 -20h-154q-20 0 -29 20l-469 1383q-4 12 4.5 21.5t20.5 9.5h297q25 0 29 -31l248 -733l292 733q12 31 31 31h133q20 0 33 -31l293 -733l246 733
q12 31 30 31h297zM1225 1571l-387 115q-27 12 -15 43l56 126q12 35 43 15l352 -191q25 -16 14 -41l-20 -53q-10 -24 -43 -14z" />
    <glyph glyph-name="wgrave" unicode="&#x1e81;" horiz-adv-x="1460" 
d="M1370 866q18 0 25.5 -15t1.5 -28l-295 -803q-8 -20 -29 -20h-178q-18 0 -29 20l-137 414l-137 -416q-8 -18 -27 -18h-180q-20 0 -29 18l-293 805q-6 12 1.5 27.5t25.5 15.5h277q25 0 30 -20l103 -371l129 371q8 20 26 20h150q20 0 26 -20l130 -371l102 369q6 23 31 22
h276zM877 983l-340 225q-25 18 -7 45l88 133q25 29 48 5l280 -310q20 -23 8 -43l-32 -49q-18 -22 -45 -6z" />
    <glyph glyph-name="Wacute" unicode="&#x1e82;" horiz-adv-x="2103" 
d="M2017 1434q12 0 19.5 -9.5t5.5 -21.5l-469 -1383q-6 -20 -27 -20h-155q-18 0 -27 18l-311 744l-310 -742q-8 -20 -28 -20h-154q-20 0 -29 20l-469 1383q-4 12 4.5 21.5t20.5 9.5h297q25 0 29 -31l248 -733l292 733q12 31 31 31h133q20 0 33 -31l293 -733l246 733
q12 31 30 31h297zM885 1569q-33 -10 -43 14l-21 53q-10 25 15 41l352 191q31 20 43 -15l55 -127q12 -31 -14 -43z" />
    <glyph glyph-name="wacute" unicode="&#x1e83;" horiz-adv-x="1460" 
d="M1370 866q18 0 25.5 -15t1.5 -28l-295 -803q-8 -20 -29 -20h-178q-18 0 -29 20l-137 414l-137 -416q-8 -18 -27 -18h-180q-20 0 -29 18l-293 805q-6 12 1.5 27.5t25.5 15.5h277q25 0 30 -20l103 -371l129 371q8 20 26 20h150q20 0 26 -20l130 -371l102 369q6 23 31 22
h276zM600 983q-27 -16 -45 6l-33 49q-12 20 8 43l281 310q23 25 47 -5l88 -133q18 -27 -6 -45z" />
    <glyph glyph-name="Wdieresis" unicode="&#x1e84;" horiz-adv-x="2103" 
d="M2017 1434q12 0 19.5 -9.5t5.5 -21.5l-469 -1383q-6 -20 -27 -20h-155q-18 0 -27 18l-311 744l-310 -742q-8 -20 -28 -20h-154q-20 0 -29 20l-469 1383q-4 12 4.5 21.5t20.5 9.5h297q25 0 29 -31l248 -733l292 733q12 31 31 31h133q20 0 33 -31l293 -733l246 733
q12 31 30 31h297zM1204 1606q-43 0 -72.5 28.5t-29.5 72.5t29.5 72.5t72.5 28.5t73 -28.5t30 -72.5t-30 -72.5t-73 -28.5zM905 1606q-43 0 -72.5 28.5t-29.5 72.5t29.5 72.5t72.5 28.5t73 -28.5t30 -72.5t-30 -72.5t-73 -28.5z" />
    <glyph glyph-name="wdieresis" unicode="&#x1e85;" horiz-adv-x="1460" 
d="M1370 866q18 0 25.5 -15t1.5 -28l-295 -803q-8 -20 -29 -20h-178q-18 0 -29 20l-137 414l-137 -416q-8 -18 -27 -18h-180q-20 0 -29 18l-293 805q-6 12 1.5 27.5t25.5 15.5h277q25 0 30 -20l103 -371l129 371q8 20 26 20h150q20 0 26 -20l130 -371l102 369q6 23 31 22
h276zM879 1038q-43 0 -73 29t-30 73t30 72.5t73 28.5t72.5 -28.5t29.5 -72.5t-29.5 -73t-72.5 -29zM580 1038q-43 0 -73 29t-30 73t30 72.5t73 28.5t72.5 -28.5t29.5 -72.5t-29.5 -73t-72.5 -29z" />
    <glyph glyph-name="Ygrave" unicode="&#x1ef2;" horiz-adv-x="1380" 
d="M1300 1434q12 0 20.5 -9.5t2.5 -21.5l-455 -797v-577q0 -29 -30 -29h-299q-31 0 -31 29v577l-451 797q-6 12 2.5 21.5t20.5 9.5h317q37 0 52 -31l239 -445l244 445q14 31 49 31h319zM860 1571l-387 115q-27 12 -14 43l55 126q12 35 43 15l352 -191q25 -16 15 -41l-21 -53
q-10 -24 -43 -14z" />
    <glyph glyph-name="ygrave" unicode="&#x1ef3;" horiz-adv-x="1140" 
d="M1069 866q14 0 25.5 -13t3.5 -30l-606 -1198q-8 -16 -27 -16h-260q-16 0 -25.5 13t-1.5 30l232 461l-367 710q-6 12 1 27.5t26 15.5h270q23 0 35 -30l196 -404l211 416q8 18 29 18h258zM723 983l-340 225q-25 18 -6 45l88 133q25 29 47 5l281 -310q20 -23 8 -43l-33 -49
q-18 -22 -45 -6z" />
    <glyph glyph-name="endash" unicode="&#x2013;" horiz-adv-x="1171" 
d="M135 328q-33 0 -33 30v174q0 31 33 31h901q33 0 33 -31v-174q0 -31 -33 -30h-901z" />
    <glyph glyph-name="emdash" unicode="&#x2014;" horiz-adv-x="1736" 
d="M135 328q-33 0 -33 30v174q0 31 33 31h1467q33 0 32 -31v-174q0 -31 -32 -30h-1467z" />
    <glyph glyph-name="quoteleft" unicode="&#x2018;" horiz-adv-x="514" 
d="M102 897v231q0 118 80 218t203 167q23 11 32 -15t-11 -38q-104 -66 -143 -132q-38 -67 -38 -165l150 -51q33 -12 33 -35v-180q0 -31 -33 -31h-240q-33 0 -33 31z" />
    <glyph glyph-name="quoteright" unicode="&#x2019;" horiz-adv-x="514" 
d="M412 1403v-232q0 -119 -80 -218t-203 -167q-23 -12 -32 15t12 39q104 66 142 132t38 165l-150 51q-33 12 -33 35v180q0 31 33 31h240q33 0 33 -31z" />
    <glyph glyph-name="quotesinglbase" unicode="&#x201a;" horiz-adv-x="514" 
d="M412 229v-231q0 -119 -80 -218t-203 -167q-23 -11 -32 15t12 38q104 66 142 132t38 165l-150 51q-33 12 -33 35v180q0 31 33 31h240q33 0 33 -31z" />
    <glyph glyph-name="quotedblleft" unicode="&#x201c;" horiz-adv-x="1067" 
d="M655 897v231q0 118 80 218t203 167q23 11 32 -15t-12 -38q-104 -66 -142 -132t-38 -165l150 -51q33 -12 33 -35v-180q0 -31 -33 -31h-240q-33 0 -33 31zM102 897v231q0 118 80 218t203 167q23 11 32 -15t-11 -38q-104 -66 -143 -132q-38 -67 -38 -165l150 -51
q33 -12 33 -35v-180q0 -31 -33 -31h-240q-33 0 -33 31z" />
    <glyph glyph-name="quotedblright" unicode="&#x201d;" horiz-adv-x="1067" 
d="M965 1403v-232q0 -119 -80 -218t-203 -167q-23 -12 -32 15t12 39q104 66 142 132t38 165l-150 51q-33 12 -33 35v180q0 31 33 31h240q33 0 33 -31zM412 1403v-232q0 -119 -80 -218t-203 -167q-23 -12 -32 15t12 39q104 66 142 132t38 165l-150 51q-33 12 -33 35v180
q0 31 33 31h240q33 0 33 -31z" />
    <glyph glyph-name="quotedblbase" unicode="&#x201e;" horiz-adv-x="1067" 
d="M965 229v-231q0 -119 -80 -218t-203 -167q-23 -11 -32 15t12 38q104 66 142 132t38 165l-150 51q-33 12 -33 35v180q0 31 33 31h240q33 0 33 -31zM412 229v-231q0 -119 -80 -218t-203 -167q-23 -11 -32 15t12 38q104 66 142 132t38 165l-150 51q-33 12 -33 35v180
q0 31 33 31h240q33 0 33 -31z" />
    <glyph glyph-name="dagger" unicode="&#x2020;" horiz-adv-x="1024" 
d="M889 1102q33 0 33 -31v-174q0 -31 -33 -31h-246v-835q0 -31 -29 -31h-202q-12 0 -22 9q-9 9 -9 22v835h-246q-33 0 -33 31v174q0 31 33 31h246v301q0 12 9 21t22 10h202q29 0 29 -31v-301h246z" />
    <glyph glyph-name="daggerdbl" unicode="&#x2021;" horiz-adv-x="1024" 
d="M889 866h-246v-299h246q33 0 33 -30v-175q0 -31 -33 -30h-246v-301q0 -31 -29 -31h-202q-12 0 -22 9q-9 9 -9 22v301h-246q-33 0 -33 30v175q0 31 33 30h246v299h-246q-33 0 -33 31v174q0 31 33 31h246v301q0 12 9 21t22 10h202q29 0 29 -31v-301h246q33 0 33 -31v-174
q0 -31 -33 -31z" />
    <glyph glyph-name="bullet" unicode="&#x2022;" horiz-adv-x="774" 
d="M387 391q-119 0 -202 83t-83 202t83 202t202 83t202 -83t83 -202t-83 -202t-202 -83z" />
    <glyph glyph-name="ellipsis" unicode="&#x2026;" horiz-adv-x="1708" 
d="M1294 0q-33 0 -32 31v258q0 31 32 30h254q33 0 33 -30v-258q0 -31 -33 -31h-254zM725 0q-33 0 -33 31v258q0 31 33 30h254q33 0 33 -30v-258q0 -31 -33 -31h-254zM156 0q-33 0 -33 31v258q0 31 33 30h254q33 0 32 -30v-258q0 -31 -32 -31h-254z" />
    <glyph glyph-name="perthousand" unicode="&#x2030;" horiz-adv-x="2928" 
d="M2489 231q67 1 89 57t23 164q0 108 -24 164t-89 56q-115 0 -114 -221q0 -104 24 -162t91 -58zM1678 231q68 1 90 57t22 164t-24 164t-89 56q-115 0 -114 -221q0 -104 24 -162t91 -58zM2488 -16q-182 0 -271 108t-89 359q0 249 89 359t271 110t270 -110t89 -360
q0 -250 -88 -358q-89 -108 -271 -108zM1677 -16q-182 0 -271 108t-89 359q0 249 89 359t271 110q183 0 271 -110t88 -360t-88 -358q-89 -108 -271 -108zM443 764q67 0 89 56t23 164q0 108 -24 164t-89 56q-115 0 -114 -221q0 -103 24 -161t91 -58zM639 0q-20 0 -30 14
q-9 14 -1 31l682 1358q14 31 41 31h178q15 0 23 -10t0 -27l-684 -1366q-16 -31 -43 -31h-166zM442 516q-182 0 -271 109t-89 359t89 358q89 110 271 110t270 -110t89 -360q-1 -250 -89 -358t-270 -108z" />
    <glyph glyph-name="guilsinglleft" unicode="&#x2039;" horiz-adv-x="757" 
d="M631 -16h-144q-31 0 -49 20l-307 371q-29 33 -29 51v14q0 18 29 52l307 370q18 20 49 21h144q18 -1 22 -15t-6 -30l-266 -404l266 -405q10 -17 6 -31t-22 -14z" />
    <glyph glyph-name="guilsinglright" unicode="&#x203a;" horiz-adv-x="757" 
d="M270 883q31 0 49 -21l308 -370q29 -33 28 -52v-14q0 -18 -28 -51l-308 -371q-18 -20 -49 -20h-143q-18 0 -23 14q-4 14 7 31l266 405l-266 404q-10 16 -7 30q4 14 23 15h143z" />
    <glyph glyph-name="fraction" unicode="&#x2044;" horiz-adv-x="440" 
d="M-211 0q-20 0 -30 14q-9 14 -1 31l682 1358q14 31 41 31h178q15 0 23 -10t0 -27l-684 -1366q-14 -31 -43 -31h-166z" />
    <glyph glyph-name="uni2070" unicode="&#x2070;" horiz-adv-x="882" 
d="M443 918q67 0 89 56t23 164q0 108 -24 164t-89 56q-115 0 -114 -221q0 -103 24 -161t91 -58zM442 670q-182 0 -271 108t-89 359q0 249 89 359t271 110t270 -110t89 -360q0 -250 -88 -358q-89 -108 -271 -108z" />
    <glyph glyph-name="uni2074" unicode="&#x2074;" horiz-adv-x="890" 
d="M473 1063v237l-149 -237h149zM788 1063q20 0 21 -19v-182q0 -16 -21 -16h-73v-152q0 -18 -19 -18h-204q-18 0 -19 18v152h-373q-18 0 -18 16v123q0 14 12 33l340 549q6 10 19 10h243q18 0 19 -18v-496h73z" />
    <glyph glyph-name="uni2075" unicode="&#x2075;" horiz-adv-x="847" 
d="M766 981q0 -129 -77 -220t-248 -91t-253 87t-82 187q0 25 19 25h197q16 0 17 -23t27 -40t64 -17q94 0 94 94q0 57 -38 81t-83 12t-65 -40q-6 -8 -25 -4l-196 43q-16 4 -15 19l78 475q4 18 21 18h481q20 0 20 -18v-183q0 -18 -20 -18h-315l-17 -98q168 51 292 -31
t124 -258z" />
    <glyph glyph-name="uni2076" unicode="&#x2076;" horiz-adv-x="829" 
d="M350 990q0 -36 24 -62t55 -25q33 0 55 26q22 25 22 61t-23 63t-55 27t-54 -28q-24 -26 -24 -62zM459 1292q129 0 209 -88t80 -222t-96 -224t-232 -90q-170 0 -254 134t-84 332t96 333q96 134 266 135q133 0 201 -78t68 -166q0 -23 -15 -23h-182q-16 0 -20 17
q-14 47 -62 47t-64 -31q-15 -31 -20 -104q48 28 109 28z" />
    <glyph glyph-name="uni2077" unicode="&#x2077;" horiz-adv-x="835" 
d="M100 1362q-18 0 -18 16v181q0 20 18 20h635q9 0 15 -9t2 -20l-412 -854q-10 -18 -31 -18h-209q-10 0 -15 9t-1 18l315 657h-299z" />
    <glyph glyph-name="uni2078" unicode="&#x2078;" horiz-adv-x="831" 
d="M512 950q0 60 -92 101q-102 -35 -103 -97q-1 -66 97 -66q98 2 98 62zM414 1384q-74 0 -74 -59t74 -84q74 25 73 82q1 61 -73 61zM750 936q0 -118 -86 -193q-86 -73 -248 -73t-248 74t-86 191q0 118 88 193q-66 86 -66 203t80 195t230 78t230 -78t79 -196q0 -118 -61 -200
q88 -76 88 -194z" />
    <glyph glyph-name="uni2079" unicode="&#x2079;" horiz-adv-x="829" 
d="M415 1202q31 0 53 27t22 63t-22 63q-22 25 -56 25t-60 -24t-24 -65t28 -65t59 -24zM748 1130q0 -236 -94 -348t-246 -112t-230 83t-78 169q0 23 15 22h172q12 0 20 -16q19 -33 75 -33t79 20t33 72q-45 -8 -80 -8q-156 0 -244 89t-88 229q0 139 95 223t241 84
q330 -1 330 -474z" />
    <glyph glyph-name="Euro" unicode="&#x20ac;" horiz-adv-x="1255" 
d="M764 1450q234 0 395 -107q27 -18 8 -43l-151 -219q-18 -25 -43 -10q-94 59 -203 59q-182 0 -233 -155h235q12 0 22 -9t9 -22v-129q0 -12 -9 -21t-22 -10h-258v-135h258q12 0 22 -9t9 -22v-129q0 -12 -9 -21t-22 -9h-237q43 -158 235 -158q53 0 122 26q68 26 98 51t48 -1
l150 -221q16 -23 -8 -43q-66 -55 -176 -93t-234 -36q-240 0 -390 122t-196 353h-71q-12 0 -22 9q-9 9 -9 21v129q0 12 9 22t22 9h49v135h-49q-11 0 -21 10t-10 21v129q0 12 9 22t22 9h71q46 231 196 353t384 122z" />
    <glyph glyph-name="uni2117" unicode="&#x2117;" horiz-adv-x="1669" 
d="M922 743q53 0 53 70q1 35 -15 64t-42 28h-136v-162h140zM969 1085q97 -1 161 -75t64 -191t-74 -187t-170 -69h-168v-192q0 -18 -18 -19h-180q-20 0 -21 19v694q0 20 21 20h385zM836 172q229 0 374 157q146 157 146 387t-146 388t-374 158t-374 -158t-146 -388t145 -387
q146 -157 375 -157zM836 -16q-303 0 -519 214q-215 214 -215 518t215 519t519 215t517 -215q214 -215 214 -519t-214 -518t-517 -214z" />
    <glyph glyph-name="trademark" unicode="&#x2122;" horiz-adv-x="1345" 
d="M1231 1434q12 0 12 -13v-526q0 -12 -12 -12h-160q-14 0 -14 12v197l-107 -197q-8 -12 -18 -12h-17q-10 0 -16 12l-113 199v-199q0 -12 -14 -12h-158q-12 0 -12 12v526q0 12 10 13h170q12 0 19 -13l123 -245l116 245q6 12 19 13h172zM530 1434q10 0 11 -13v-131
q0 -12 -11 -12h-116v-383q0 -12 -13 -12h-159q-12 0 -13 12v383h-114q-12 0 -13 12v131q0 12 13 13h415z" />
    <glyph glyph-name="uni2153" unicode="&#x2153;" horiz-adv-x="2097" 
d="M1661 203q99 0 99 67q0 35 -25 52q-25 16 -107 16h-29q-20 0 -20 18v185q0 18 20 18h29q55 0 83 13q28 14 31 26t3 39t-24 44t-60 17q-94 0 -98 -65q0 -16 -19 -17h-196q-18 0 -19 23q0 123 93 201q94 78 241 78q317 0 317 -271q0 -150 -106 -192q121 -51 121 -199
q0 -115 -77 -194q-77 -78 -251 -78t-256 87t-82 191q0 23 19 23h196q18 0 20 -23t28 -41q28 -18 69 -18zM616 0q-20 0 -29 14t-1 31l682 1358q14 31 41 31h178q16 0 23 -10t-1 -27l-684 -1366q-14 -31 -43 -31h-166zM664 750q20 0 20 -19v-180q0 -18 -20 -19h-564
q-18 0 -18 19v180q0 18 18 19h162v434l-141 -31q-20 -4 -21 18v160q0 10 21 21l149 73q16 8 29 9h186q18 0 19 -21v-663h160z" />
    <glyph glyph-name="uni2154" unicode="&#x2154;" horiz-adv-x="2179" 
d="M1743 203q98 0 98 67q0 35 -24 52q-25 16 -107 16h-29q-20 0 -20 18v185q0 18 20 18h29q55 0 83 13q28 14 31 26t3 39t-24 44t-60 17q-94 0 -98 -65q0 -16 -19 -17h-196q-18 0 -19 23q0 123 93 201q94 78 241 78q317 0 317 -271q0 -150 -106 -192q121 -51 121 -199
q0 -115 -77 -194q-77 -78 -251 -78t-256 87t-82 191q0 23 19 23h196q18 0 20 -23t28 -41q28 -18 69 -18zM698 0q-20 0 -29 14t-1 31l682 1358q14 31 41 31h178q16 0 23 -10t-1 -27l-684 -1366q-14 -31 -43 -31h-166zM436 1450q166 0 241 -78t75 -205q0 -110 -54 -179
q-18 -24 -49 -54l-180 -182h276q20 0 21 -19v-182q0 -18 -21 -19h-608q-20 0 -20 19v147q0 10 8 19l237 237q147 147 148 222q0 57 -86 57t-90 -74q0 -14 -19 -14h-192q-12 0 -17 5q-4 4 -4 36t16 76q66 188 318 188z" />
    <glyph glyph-name="oneeighth" unicode="&#x215b;" horiz-adv-x="2060" 
d="M1700 264q0 60 -92 101q-102 -35 -103 -97q-1 -66 97 -66q98 2 98 62zM1602 698q-74 0 -74 -59t74 -84q74 25 73 82q1 61 -73 61zM1937 250q0 -118 -86 -193q-85 -73 -247 -73t-248 74t-86 191q0 118 88 193q-66 86 -66 203t80 195t230 78t230 -78t78 -196
q0 -118 -61 -200q88 -76 88 -194zM596 0q-20 0 -30 14q-9 14 -1 31l682 1358q14 31 41 31h178q16 0 24 -10t-1 -27l-684 -1366q-14 -31 -43 -31h-166zM664 750q20 0 20 -19v-180q0 -18 -20 -19h-564q-18 0 -18 19v180q0 18 18 19h162v434l-141 -31q-20 -4 -21 18v160
q0 10 21 21l149 73q16 8 29 9h186q18 0 19 -21v-663h160z" />
    <glyph glyph-name="threeeighths" unicode="&#x215c;" horiz-adv-x="2129" 
d="M1575 266q0 -64 97 -64t97 62q0 60 -92 101q-102 -35 -102 -99zM1745 639q0 59 -74 59t-74 -59t74 -84q74 25 74 84zM2007 250q0 -118 -86 -193q-86 -73 -248 -73t-248 74t-86 191q0 118 88 193q-65 86 -65 203t80 195t230 78t229 -78t79 -196t-61 -200q88 -76 88 -194z
M639 0q-20 0 -30 14q-9 14 -1 31l682 1358q14 31 41 31h178q15 0 23 -10t0 -27l-684 -1366q-16 -31 -43 -31h-166zM436 1450q317 0 318 -270q0 -150 -107 -193q121 -51 121 -199q0 -116 -77 -194t-251 -78t-256 87t-82 192q0 23 19 22h196q17 -1 19 -23t30 -40t68 -18t70 16
q28 16 28 51t-24 51q-25 16 -107 16h-28q-20 0 -21 19v184q0 18 21 19h28q55 0 83 13t31 25t3 39t-23 44q-24 17 -61 18q-94 0 -98 -66q0 -16 -19 -16h-196q-18 0 -19 22q0 123 94 201t240 78z" />
    <glyph glyph-name="fiveeighths" unicode="&#x215d;" horiz-adv-x="2131" 
d="M1577 266q0 -64 97 -64t98 60q-1 62 -93 103q-102 -35 -102 -99zM1747 639q0 59 -74 59t-74 -59t74 -84q74 25 74 84zM2009 250q0 -118 -86 -193q-86 -73 -248 -73t-248 74t-86 191q0 118 89 193q-66 86 -66 203t80 195t230 78t229 -78t79 -196t-61 -200q88 -76 88 -194z
M616 0q-20 0 -29 14t-1 31l682 1358q14 31 41 31h178q16 0 23 -10t-1 -27l-684 -1366q-14 -31 -43 -31h-166zM766 827q0 -129 -77 -220t-248 -91t-253 87t-82 188q0 25 19 24h197q16 -1 17 -23t27 -39t64 -18q94 0 94 94q0 57 -38 81t-83 13t-65 -40q-6 -8 -25 -4l-196 43
q-16 4 -15 18l78 475q4 18 21 19h481q20 0 20 -19v-182q0 -18 -20 -19h-315l-17 -98q168 51 292 -31t124 -258z" />
    <glyph glyph-name="seveneighths" unicode="&#x215e;" horiz-adv-x="1925" 
d="M1473 365q-102 -35 -103 -97q0 -66 97 -66t98 60q0 62 -92 103zM1540 639q0 59 -74 59t-73 -59q-1 -59 73 -84q74 25 74 84zM1802 250q0 -118 -86 -193q-86 -73 -248 -73t-248 74t-85 191q0 118 88 193q-66 86 -66 203t80 195q79 78 229 78t230 -78t80 -196t-62 -200
q88 -76 88 -194zM399 0q-20 0 -29 14t-1 31l682 1358q14 31 41 31h178q16 0 23 -10t-1 -27l-684 -1366q-14 -31 -43 -31h-166zM100 1217q-18 0 -18 16v180q0 20 18 21h635q9 0 15 -10t2 -19l-412 -854q-10 -18 -31 -19h-209q-10 0 -15 10t-1 17l315 658h-299z" />
    <glyph glyph-name="arrowleft" unicode="&#x2190;" horiz-adv-x="1679" 
d="M123 658q0 15 8 24l592 551q23 25 45 2l125 -125q20 -20 -2 -45l-219 -236h856q29 0 28 -30v-279q0 -31 -28 -31h-856l219 -235q23 -25 2 -45l-125 -125q-22 -23 -45 2l-592 549q-8 8 -8 23z" />
    <glyph glyph-name="arrowup" unicode="&#x2191;" horiz-adv-x="1417" 
d="M879 29q0 -29 -31 -29h-279q-31 0 -30 29v856l-236 -219q-25 -23 -45 -2l-125 124q-23 23 2 46l551 591q8 9 24 9t23 -9l549 -591q25 -23 2 -46l-125 -124q-20 -20 -45 2l-235 219v-856z" />
    <glyph glyph-name="arrowright" unicode="&#x2192;" horiz-adv-x="1679" 
d="M152 489q-29 0 -29 31v279q0 31 29 30h856l-220 236q-23 25 -2 45l125 125q23 23 45 -2l592 -551q8 -8 8 -24t-8 -23l-592 -549q-23 -25 -45 -2l-125 125q-20 20 2 45l220 235h-856z" />
    <glyph glyph-name="arrowdown" unicode="&#x2193;" horiz-adv-x="1417" 
d="M539 1405q0 29 30 29h279q31 0 31 -29v-856l235 219q25 23 45 2l125 -125q23 -23 -2 -45l-551 -592q-8 -8 -23 -8t-24 8l-549 592q-25 23 -2 45l125 125q20 20 45 -2l236 -219v856z" />
    <glyph glyph-name="arrowboth" unicode="&#x2194;" horiz-adv-x="2154" 
d="M123 664q0 16 8 24l592 551q23 23 45 2l125 -125q20 -23 -2 -45l-219 -235h811l-219 235q-23 23 -2 45l124 125q23 20 46 -2l591 -551q9 -8 9 -23t-9 -24l-591 -549q-23 -23 -46 -2l-124 125q-20 23 2 45l219 236h-811l219 -236q23 -23 2 -45l-125 -125q-23 -20 -45 2
l-592 549q-8 7 -8 23z" />
    <glyph glyph-name="arrowupdn" unicode="&#x2195;" horiz-adv-x="1417" 
d="M710 1671q16 0 23 -8l549 -592q25 -23 2 -45l-125 -125q-20 -20 -45 2l-235 219v-811l235 219q25 22 45 2l125 -124q23 -23 -2 -46l-549 -591q-8 -9 -23 -9t-24 9l-551 591q-25 23 -2 46l125 124q20 20 45 -2l236 -219v811l-236 -219q-25 -23 -45 -2l-125 125
q-23 23 2 45l551 592q8 8 24 8z" />
    <glyph glyph-name="uni2196" unicode="&#x2196;" horiz-adv-x="1378" 
d="M997 895q0 -31 -32 -31l-322 -12l604 -604q20 -20 -2 -43l-196 -197q-23 -23 -41 0l-607 604l-10 -321q0 -33 -31 -33h-176q-30 0 -30 33l-31 807q0 12 10 22t23 10l809 -28q33 0 32 -31v-176z" />
    <glyph glyph-name="uni2197" unicode="&#x2197;" horiz-adv-x="1378" 
d="M1194 258h-176q-31 0 -31 33l-10 321l-606 -604q-18 -23 -41 0l-197 197q-23 23 -2 43l604 604l-321 12q-33 0 -33 31v176q0 31 33 31l809 28q12 0 22 -10t10 -22l-30 -807q0 -33 -31 -33z" />
    <glyph glyph-name="uni2198" unicode="&#x2198;" horiz-adv-x="1378" 
d="M383 156v176q0 31 33 30l321 11l-604 606q-23 18 0 41l197 197q23 23 43 2l604 -605l12 322q0 33 31 33h176q31 0 31 -33l28 -809q0 -13 -10 -23t-22 -10l-807 31q-33 0 -33 31z" />
    <glyph glyph-name="uni2199" unicode="&#x2199;" horiz-adv-x="1378" 
d="M182 969h176q31 0 31 -33l12 -322l605 605q20 20 43 -2l196 -197q23 -23 0 -41l-604 -606l322 -11q33 0 32 -30v-176q1 -31 -32 -31l-807 -31q-12 0 -23 10q-10 10 -10 23l29 809q0 33 30 33z" />
    <glyph glyph-name="partialdiff" unicode="&#x2202;" horiz-adv-x="1105" 
d="M550.5 236q63.5 0 105.5 48t42 146t-42 146.5t-105.5 48.5t-106.5 -48.5t-43 -146.5t43 -146t106.5 -48zM1024 543q0 -268 -123 -413.5t-334 -145.5t-348 130t-137 317t137 319.5t332 132.5q37 0 74 -6q-31 94 -120 184t-214 151q-31 14 -17 39l91 179q14 33 55 10
q604 -309 604 -897z" />
    <glyph glyph-name="emptyset" unicode="&#x2205;" horiz-adv-x="1669" 
d="M836 305q162 0 266 119t104 291q0 88 -26 155l-521 -520q81 -45 177 -45zM463 715q0 -74 22 -146l516 516q-76 41 -165 41q-162 0 -267.5 -119.5t-105.5 -291.5zM1567 715q0 -303 -214 -517t-517 -214q-229 0 -414 129l-105 -105q-23 -20 -43 0l-155 156q-20 20 2 41
l104 104q-123 184 -123 406q0 305 215 520t519 215q225 0 405 -125l98 98q25 23 43 4l156 -155q23 -23 -2 -45l-96 -97q127 -188 127 -415z" />
    <glyph glyph-name="product" unicode="&#x220f;" horiz-adv-x="1470" 
d="M1335 1434q33 0 33 -31v-238q0 -31 -33 -30h-69v-1102q0 -33 -31 -33h-279q-31 0 -30 33v1102h-381v-1102q0 -33 -31 -33h-278q-31 0 -31 33v1102h-70q-33 0 -33 30v238q0 31 33 31h1200z" />
    <glyph glyph-name="summation" unicode="&#x2211;" horiz-adv-x="1226" 
d="M1124 1229q0 -31 -32 -31h-584l369 -397q12 -16 12 -27v-115q0 -10 -12 -26l-367 -397h582q33 0 32 -31v-174q0 -31 -32 -31h-957q-33 0 -33 31v174q0 14 15 28l444 484l-444 481q-14 14 -15 31v174q0 31 33 31h957q33 0 32 -31v-174z" />
    <glyph glyph-name="minus" unicode="&#x2212;" horiz-adv-x="1171" 
d="M135 582q-33 0 -33 30v174q0 31 33 31h901q33 0 33 -31v-174q0 -31 -33 -30h-901z" />
    <glyph glyph-name="radical" unicode="&#x221a;" horiz-adv-x="1406" 
d="M1092 1434h223q16 0 25 -14t1 -31l-579 -1360q-12 -29 -33 -29h-80q-18 0 -35 29l-309 608l-115 -62q-31 -16 -43 11l-81 153q-14 27 14 43q72 41 309 164q35 18 51 -14l226 -424l381 895q12 31 45 31z" />
    <glyph glyph-name="infinity" unicode="&#x221e;" horiz-adv-x="1748" 
d="M1238 526q48 0 87 33t39 103q0 121 -133 120q-41 0 -106 -34t-103 -95q40 -61 104 -94t112 -33zM511 526q48 0 113 33t103 94q-39 61 -103 95t-106 34q-133 0 -133 -120q0 -70 39 -103t87 -33zM1253 1040q162 0 278 -105t116 -271t-118 -281t-274 -115q-113 0 -216 60
t-165 145q-61 -86 -164 -145t-216 -60q-156 0 -274 115t-118 281t116 271t278 105q111 0 216 -53t162 -133q56 80 162 133t217 53z" />
    <glyph glyph-name="integral" unicode="&#x222b;" horiz-adv-x="1204" 
d="M797 1669q145 0 225 -62t80 -186v-82q0 -33 -31 -32h-201q-31 0 -30 32v37q0 57 -43 58h-19q-17 0 -31 -16t-14 -42v-1493q0 -236 -305 -235h-20q-145 0 -226 62q-80 62 -80 186v81q0 33 31 33h201q31 0 31 -33v-36q0 -57 43 -58h18q17 1 31 17t14 41v1493q0 236 305 235
h21z" />
    <glyph glyph-name="approxequal" unicode="&#x2248;" horiz-adv-x="1118" 
d="M735 362q-96 0 -188 36t-153 36t-121 -22q-61 -22 -83 -39q-22 -18 -32 -2l-47 73q-12 14 -9 25q8 47 98 121t199 76h2q93 0 185 -36t149 -36q131 0 195 63q18 18 28 5l50 -78q12 -14 6 -29q-20 -55 -95 -123t-182 -70h-2zM735 768q-96 0 -188 36t-153 36t-121 -22
q-61 -22 -83 -40t-32 -2l-47 74q-12 14 -9 24q8 47 98 121t199 76h2q93 0 185 -36t149 -36q131 0 195 64q18 18 28 4l50 -78q12 -14 6 -28q-20 -55 -95 -123t-182 -70h-2z" />
    <glyph glyph-name="notequal" unicode="&#x2260;" horiz-adv-x="1171" 
d="M1036 784h-278l-76 -133h354q33 0 33 -30v-175q0 -31 -33 -30h-485l-117 -209q-14 -31 -41 -14l-149 83q-27 14 -13 46l54 94h-150q-33 0 -33 30v175q0 31 33 30h281l76 133h-357q-33 0 -33 31v174q0 31 33 31h488l116 209q18 29 41 14l150 -84q29 -16 12 -45l-53 -94
h147q33 0 33 -31v-174q0 -31 -33 -31z" />
    <glyph glyph-name="lessequal" unicode="&#x2264;" horiz-adv-x="1173" 
d="M1038 -16h-903q-33 0 -33 30v174q0 31 33 31h903q33 0 33 -31v-174q0 -30 -33 -30zM102 766q0 27 21 35l835 338q31 12 43 -17l66 -159q8 -29 -18 -41l-539 -220l539 -217q27 -12 18 -41l-66 -159q-12 -29 -43 -17l-835 338q-20 8 -21 35v125z" />
    <glyph glyph-name="greaterequal" unicode="&#x2265;" horiz-adv-x="1173" 
d="M135 -16q-33 0 -33 30v174q0 31 33 31h903q33 0 33 -31v-174q0 -31 -33 -30h-903zM1071 766v-125q0 -27 -20 -35l-836 -338q-31 -12 -43 17l-66 159q-8 29 19 41l539 217l-539 220q-27 12 -19 41l66 159q12 29 43 17l836 -338q20 -8 20 -35z" />
    <glyph glyph-name="lozenge" unicode="&#x25ca;" horiz-adv-x="1212" 
d="M606 358q4 4 4 9l178 350l-178 350q0 4 -4 8q-4 -4 -4 -8l-178 -350l178 -350q0 -5 4 -9zM1110 723v-14q0 -16 -18 -52l-355 -626q-18 -31 -55 -31h-152q-37 0 -55 31l-354 626q-18 35 -19 52v14q0 20 19 51l354 627q18 33 55 33h152q37 0 55 -33l355 -627q18 -31 18 -51
z" />
    <glyph glyph-name="heart" unicode="&#x2665;" horiz-adv-x="1931" 
d="M1317 1184q-207 0 -330 -248q-4 -8 -7 -13t-13 -5t-15 8q-63 125 -121 176q-90 82 -191 82q-100 0 -150 -38t-72 -96t2 -148q22 -89 86 -180t204 -219t257 -196q113 63 256 197t211 227q123 172 73 328q-41 125 -190 125zM580 1450q279 0 387 -209q115 209 387 209
q325 0 429 -287q31 -81 23 -201t-74 -268t-233 -312q-166 -165 -500 -388q-16 -10 -33 -10t-32 10q-342 227 -507 393q-284 286 -301 574q-12 209 110 349t344 140z" />
    <glyph glyph-name="AE.ss01" horiz-adv-x="2240" 
d="M989 467v463l-289 -463h289zM2109 1112h-759v-235h368q31 0 31 -29v-262q0 -29 -31 -29h-368v-235h757q12 0 21.5 -9.5t9.5 -21.5v-260q0 -12 -9 -21.5t-22 -9.5h-1087q-12 0 -21.5 9t-9.5 22v116h-487l-72 -116q-20 -31 -37 -31h-307q-12 0 -20.5 9t0.5 22l811 1372
q18 31 34 31h1198q29 0 29 -31v-260q0 -31 -29 -31z" />
    <glyph glyph-name="B.ss01" horiz-adv-x="1415" 
d="M504 319h352q53 0 85 33t32 92.5t-32 91t-85 31.5h-352v-248zM813 1114h-309v-248h309q55 0 88 33t33 90.5t-33 91t-88 33.5zM1333 408q0 -168 -108.5 -287t-266.5 -121h-784q-12 0 -21.5 9t-9.5 22v1372q0 12 9.5 21.5t21.5 9.5h744q158 -2 266 -121t108 -293t-131 -291
q78 -55 125 -140t47 -181z" />
    <glyph glyph-name="C.ss01" horiz-adv-x="1353" 
d="M700 -16q-262 0 -435 193.5t-173 539.5t173 539.5t435 193.5q203 0 351.5 -114.5t210.5 -334.5q4 -12 -3.5 -23t-21.5 -13l-276 -50q-27 -4 -35 23q-20 84 -81 138t-145 54q-115 0 -181 -110t-66 -308t65.5 -304.5t181.5 -106.5q86 0 145.5 54.5t80.5 140.5q8 27 35 22
l276 -49q14 -2 21.5 -13.5t3.5 -23.5q-61 -219 -210 -333.5t-352 -114.5z" />
    <glyph glyph-name="Cacute.ss01" horiz-adv-x="1353" 
d="M700 -16q-262 0 -435 193.5t-173 539.5t173 539.5t435 193.5q203 0 351.5 -114.5t210.5 -334.5q4 -12 -3.5 -23t-21.5 -13l-276 -50q-27 -4 -35 23q-20 84 -81 138t-145 54q-115 0 -181 -110t-66 -308t65.5 -304.5t181.5 -106.5q86 0 145.5 54.5t80.5 140.5q8 27 35 22
l276 -49q14 -2 21.5 -13.5t3.5 -23.5q-61 -219 -210 -333.5t-352 -114.5zM530 1569q-33 -10 -43 14l-20 53q-10 25 14 41l353 191q31 20 43 -15l55 -127q12 -31 -14 -43z" />
    <glyph glyph-name="Ccaron.ss01" horiz-adv-x="1353" 
d="M700 -16q-262 0 -435 193.5t-173 539.5t173 539.5t435 193.5q203 0 351.5 -114.5t210.5 -334.5q4 -12 -3.5 -23t-21.5 -13l-276 -50q-27 -4 -35 23q-20 84 -81 138t-145 54q-115 0 -181 -109.5t-66 -308t65.5 -305t181.5 -106.5q86 0 145.5 54.5t80.5 140.5q8 27 35 22
l276 -49q14 -2 21.5 -13.5t3.5 -23.5q-61 -219 -210 -333.5t-352 -114.5zM956 1800q0 -20 -20 -41l-182 -170q-25 -25 -52 -24h-8q-27 0 -51 24l-180 170q-20 20 -21 41v70q0 37 39 14l217 -137l220 137q39 23 38 -14v-70z" />
    <glyph glyph-name="Ccedilla.ss01" horiz-adv-x="1353" 
d="M893 -231q0 -182 -221 -183q-51 0 -100.5 27t-56.5 45t-1 25l61 61q10 10 25 -2q29 -29 70 -29q61 0 61 58q0 31 -19.5 46t-39.5 -1q-20 -17 -41 -17l-92 29q-14 4 -11 20l62 146q-221 39 -359.5 227.5t-138.5 515t173 520t435 193.5q203 0 351.5 -114.5t210.5 -334.5
q4 -12 -3.5 -23t-21.5 -13l-276 -50q-27 -4 -35 23q-20 84 -81 138t-145 54q-115 0 -181 -109.5t-66 -308t65.5 -305t181.5 -106.5q86 0 145.5 54.5t80.5 140.5q8 27 35 22l276 -49q14 -2 21.5 -13.5t3.5 -23.5q-59 -205 -193.5 -319.5t-320.5 -126.5l-25 -58q70 4 120 -37
t50 -122z" />
    <glyph glyph-name="Cdotaccent.ss01" horiz-adv-x="1353" 
d="M700 -16q-262 0 -435 193.5t-173 539.5t173 539.5t435 193.5q203 0 351.5 -114.5t210.5 -334.5q4 -12 -3.5 -23t-21.5 -13l-276 -50q-27 -4 -35 23q-20 84 -81 138t-145 54q-115 0 -181 -110t-66 -308t65.5 -304.5t181.5 -106.5q86 0 145.5 54.5t80.5 140.5q8 27 35 22
l276 -49q14 -2 21.5 -13.5t3.5 -23.5q-61 -219 -210 -333.5t-352 -114.5zM700.5 1579q-53.5 0 -90.5 37t-37 89t37 89t90.5 37t90 -37t36.5 -89t-36.5 -89t-90 -37z" />
    <glyph glyph-name="D.ss01" horiz-adv-x="1482" 
d="M999 926q0 186 -184 186h-311v-790h311q184 0 184 186v418zM866 1434q221 0 357.5 -121t136.5 -352v-488q0 -231 -136.5 -352t-357.5 -121h-692q-12 0 -21.5 9t-9.5 22v1372q0 12 9.5 21.5t21.5 9.5h692z" />
    <glyph glyph-name="Eth.ss01" horiz-adv-x="1482" 
d="M999 508v418q0 186 -184 186h-311v-264h170q33 0 33 -31v-205q0 -31 -33 -30h-170v-260h311q184 0 184 186zM866 1434q221 0 357.5 -121t136.5 -352v-488q0 -231 -136.5 -352t-357.5 -121h-692q-12 0 -21.5 9t-9.5 22v551h-39q-33 0 -32 30v205q0 31 32 31h39v555
q0 12 9.5 21.5t21.5 9.5h692z" />
    <glyph glyph-name="Dcaron.ss01" horiz-adv-x="1482" 
d="M999 926q0 186 -184 186h-311v-790h311q184 0 184 186v418zM866 1434q221 0 357.5 -121t136.5 -352v-488q0 -231 -136.5 -352t-357.5 -121h-692q-12 0 -21.5 9t-9.5 22v1372q0 12 9.5 21.5t21.5 9.5h692zM1008 1870v-70q0 -20 -21 -41l-182 -170q-25 -25 -51 -24h-9
q-27 0 -51 24l-180 170q-20 20 -20 41v70q0 37 38 14l218 -137l219 137q39 23 39 -14z" />
    <glyph glyph-name="Dcroat.ss01" horiz-adv-x="1482" 
d="M999 508v418q0 186 -184 186h-311v-264h170q33 0 33 -31v-205q0 -31 -33 -30h-170v-260h311q184 0 184 186zM866 1434q221 0 357.5 -121t136.5 -352v-488q0 -231 -136.5 -352t-357.5 -121h-692q-12 0 -21.5 9t-9.5 22v551h-39q-33 0 -32 30v205q0 31 32 31h39v555
q0 12 9.5 21.5t21.5 9.5h692z" />
    <glyph glyph-name="E.ss01" horiz-adv-x="1394" 
d="M1262 322q12 0 21 -9.5t9 -21.5v-260q0 -12 -9 -21.5t-21 -9.5h-1088q-12 0 -21.5 9t-9.5 22v1372q0 12 9.5 21.5t21.5 9.5h1090q29 0 28 -31v-260q0 -31 -28 -31h-760v-235h368q31 0 31 -29v-262q0 -29 -31 -29h-368v-235h758z" />
    <glyph glyph-name="Eacute.ss01" horiz-adv-x="1394" 
d="M1262 322q12 0 21 -9.5t9 -21.5v-260q0 -12 -9 -21.5t-21 -9.5h-1088q-12 0 -21.5 9t-9.5 22v1372q0 12 9.5 21.5t21.5 9.5h1090q29 0 28 -31v-260q0 -31 -28 -31h-760v-235h368q31 0 31 -29v-262q0 -29 -31 -29h-368v-235h758zM528 1569q-33 -10 -43 14l-20 53
q-10 25 14 41l352 191q31 20 43 -15l56 -127q12 -31 -15 -43z" />
    <glyph glyph-name="Ecaron.ss01" horiz-adv-x="1394" 
d="M1262 322q12 0 21 -9.5t9 -21.5v-260q0 -12 -9 -21.5t-21 -9.5h-1088q-12 0 -21.5 9t-9.5 22v1372q0 12 9.5 21.5t21.5 9.5h1090q29 0 28 -31v-260q0 -31 -28 -31h-760v-235h368q31 0 31 -29v-262q0 -29 -31 -29h-368v-235h758zM954 1870v-70q0 -20 -20 -41l-182 -170
q-25 -25 -52 -24h-8q-27 0 -51 24l-180 170q-20 20 -21 41v70q0 37 39 14l217 -137l219 137q39 23 39 -14z" />
    <glyph glyph-name="Ecircumflex.ss01" horiz-adv-x="1394" 
d="M1262 322q12 0 21 -9.5t9 -21.5v-260q0 -12 -9 -21.5t-21 -9.5h-1088q-12 0 -21.5 9t-9.5 22v1372q0 12 9.5 21.5t21.5 9.5h1090q29 0 28 -31v-260q0 -31 -28 -31h-760v-235h368q31 0 31 -29v-262q0 -29 -31 -29h-368v-235h758zM440 1587v70q0 20 21 41l180 170
q25 25 51 24h8q27 0 52 -24l182 -170q20 -20 20 -41v-70q0 -37 -39 -14l-219 137l-217 -137q-39 -23 -39 14z" />
    <glyph glyph-name="Edieresis.ss01" horiz-adv-x="1394" 
d="M1262 322q12 0 21 -9.5t9 -21.5v-260q0 -12 -9 -21.5t-21 -9.5h-1088q-12 0 -21.5 9t-9.5 22v1372q0 12 9.5 21.5t21.5 9.5h1090q29 0 28 -31v-260q0 -31 -28 -31h-760v-235h368q31 0 31 -29v-262q0 -29 -31 -29h-368v-235h758zM848 1606q-43 0 -73 28.5t-30 72.5
t30 72.5t73 28.5t72.5 -28.5t29.5 -72.5t-29.5 -72.5t-72.5 -28.5zM549 1606q-43 0 -73 28.5t-30 72.5t30 72.5t73 28.5t72.5 -28.5t29.5 -72.5t-29.5 -72.5t-72.5 -28.5z" />
    <glyph glyph-name="Edotaccent.ss01" horiz-adv-x="1394" 
d="M1262 322q12 0 21 -9.5t9 -21.5v-260q0 -12 -9 -21.5t-21 -9.5h-1088q-12 0 -21.5 9t-9.5 22v1372q0 12 9.5 21.5t21.5 9.5h1090q29 0 28 -31v-260q0 -31 -28 -31h-760v-235h368q31 0 31 -29v-262q0 -29 -31 -29h-368v-235h758zM698.5 1579q-53.5 0 -90.5 37t-37 89
t37 89t90.5 37t90 -37t36.5 -89t-36.5 -89t-90 -37z" />
    <glyph glyph-name="Egrave.ss01" horiz-adv-x="1394" 
d="M1262 322q12 0 21 -9.5t9 -21.5v-260q0 -12 -9 -21.5t-21 -9.5h-1088q-12 0 -21.5 9t-9.5 22v1372q0 12 9.5 21.5t21.5 9.5h1090q29 0 28 -31v-260q0 -31 -28 -31h-760v-235h368q31 0 31 -29v-262q0 -29 -31 -29h-368v-235h758zM868 1571l-387 115q-27 12 -14 43l55 126
q12 35 43 15l353 -191q25 -16 14 -41l-21 -53q-10 -24 -43 -14z" />
    <glyph glyph-name="Emacron.ss01" horiz-adv-x="1394" 
d="M1262 322q12 0 21 -9.5t9 -21.5v-260q0 -12 -9 -21.5t-21 -9.5h-1088q-12 0 -21.5 9t-9.5 22v1372q0 12 9.5 21.5t21.5 9.5h1090q29 0 28 -31v-260q0 -31 -28 -31h-760v-235h368q31 0 31 -29v-262q0 -29 -31 -29h-368v-235h758zM498 1608q-33 0 -33 30v119q0 31 33 31
h401q33 0 33 -31v-119q0 -31 -33 -30h-401z" />
    <glyph glyph-name="Eogonek.ss01" horiz-adv-x="1394" 
d="M1092 -426q-84 0 -141.5 44t-57.5 134q0 133 131 248h-850q-12 0 -21.5 9t-9.5 22v1372q0 12 9.5 21.5t21.5 9.5h1090q29 0 28 -31v-260q0 -31 -28 -31h-760v-235h368q31 0 31 -29v-262q0 -29 -31 -29h-368v-235h758q12 0 21 -9.5t9 -21.5v-260q0 -12 -9 -21.5t-21 -9.5
h-93q-98 -111 -98 -211q0 -76 62 -76q51 0 100 41q18 14 31 0l22 -24q10 -10 4 -23q-16 -45 -65 -89t-133 -44z" />
    <glyph glyph-name="F.ss01" horiz-adv-x="1374" 
d="M1262 1434q12 0 21 -9.5t9 -21.5v-260q0 -12 -9 -21.5t-21 -9.5h-758v-278h389q31 0 31 -29v-262q0 -29 -31 -29h-389v-483q0 -31 -29 -31h-301q-12 0 -21.5 9t-9.5 22v1372q0 12 9.5 21.5t21.5 9.5h1088z" />
    <glyph glyph-name="G.ss01" horiz-adv-x="1361" 
d="M1210 748q29 0 29 -29v-690q0 -29 -29 -29h-151q-25 0 -29 29l-22 104q-104 -150 -320 -149q-252 0 -424 195.5t-172 540.5t174 537.5t449 192.5q215 0 358.5 -138t165.5 -311q4 -31 -25 -36l-274 -50q-33 -6 -37 25q-10 72 -60 131t-126 59q-264 0 -264 -414t264 -415
q78 0 136 38t79 101h-139q-31 0 -31 29v250q0 29 31 29h417z" />
    <glyph glyph-name="Gbreve.ss01" horiz-adv-x="1361" 
d="M1210 748q29 0 29 -29v-690q0 -29 -29 -29h-151q-25 0 -29 29l-22 104q-104 -150 -320 -149q-252 0 -424 195.5t-172 540.5t174 537.5t449 192.5q215 0 358.5 -138t165.5 -311q4 -31 -25 -36l-274 -50q-33 -6 -37 25q-10 72 -60 131t-126 59q-264 0 -264 -414.5
t264 -414.5q78 0 136 38t79 101h-139q-31 0 -31 29v250q0 29 31 29h417zM715 1573q-223 0 -309 213q-6 14 10 20l131 58q14 6 22 -9q33 -55 63 -79.5t83 -24.5t82.5 24.5t62.5 79.5q8 14 23 9l131 -58q16 -6 10 -20q-86 -213 -309 -213z" />
    <glyph glyph-name="Gcommaaccent.ss01" horiz-adv-x="1361" 
d="M791 -96v-172q0 -70 -58.5 -119t-122.5 -68q-24 -5 -28 15t18 28q117 41 117 133l-105 35q-33 10 -32 35v113q0 31 32 30h146q33 1 33 -30zM1210 748q29 0 29 -29v-690q0 -29 -29 -29h-151q-25 0 -29 29l-22 104q-104 -150 -320 -149q-252 0 -424 195.5t-172 540.5
t174 537.5t449 192.5q215 0 358.5 -138t165.5 -311q4 -31 -25 -36l-274 -50q-33 -6 -37 25q-10 72 -60 131t-126 59q-264 0 -264 -414t264 -415q78 0 136 38t79 101h-139q-31 0 -31 29v250q0 29 31 29h417z" />
    <glyph glyph-name="Gdotaccent.ss01" horiz-adv-x="1361" 
d="M1210 748q29 0 29 -29v-690q0 -29 -29 -29h-151q-25 0 -29 29l-22 104q-104 -150 -320 -149q-252 0 -424 195.5t-172 540.5t174 537.5t449 192.5q215 0 358.5 -138t165.5 -311q4 -31 -25 -36l-274 -50q-33 -6 -37 25q-10 72 -60 131t-126 59q-264 0 -264 -414t264 -415
q78 0 136 38t79 101h-139q-31 0 -31 29v250q0 29 31 29h417zM715 1579q-53 0 -90 37t-37 89t37 89t90 37t90 -37t37 -89t-37 -89t-90 -37z" />
    <glyph glyph-name="I.ss01" horiz-adv-x="851" 
d="M717 1112h-111v-790h111q33 0 33 -31v-260q0 -31 -33 -31h-582q-33 0 -33 31v260q0 31 33 31h111v790h-111q-33 0 -33 31v260q0 31 33 31h582q33 0 33 -31v-260q0 -31 -33 -31z" />
    <glyph glyph-name="Iacute.ss01" horiz-adv-x="851" 
d="M717 1112h-111v-790h111q33 0 33 -31v-260q0 -31 -33 -31h-582q-33 0 -33 31v260q0 31 33 31h111v790h-111q-33 0 -33 31v260q0 31 33 31h582q33 0 33 -31v-260q0 -31 -33 -31zM256 1569q-33 -10 -43 14l-20 53q-10 25 14 41l352 191q31 20 43 -15l55 -127
q12 -31 -14 -43z" />
    <glyph glyph-name="Icircumflex.ss01" horiz-adv-x="851" 
d="M717 1112h-111v-790h111q33 0 33 -31v-260q0 -31 -33 -31h-582q-33 0 -33 31v260q0 31 33 31h111v790h-111q-33 0 -33 31v260q0 31 33 31h582q33 0 33 -31v-260q0 -31 -33 -31zM168 1587v70q0 20 20 41l181 170q25 25 51 24h8q27 0 51 -24l183 -170q20 -20 20 -41v-70
q0 -37 -39 -14l-219 137l-217 -137q-39 -23 -39 14z" />
    <glyph glyph-name="Idieresis.ss01" horiz-adv-x="851" 
d="M717 1112h-111v-790h111q33 0 33 -31v-260q0 -31 -33 -31h-582q-33 0 -33 31v260q0 31 33 31h111v790h-111q-33 0 -33 31v260q0 31 33 31h582q33 0 33 -31v-260q0 -31 -33 -31zM575 1606q-43 0 -72.5 28.5t-29.5 72.5t29.5 72.5t72.5 28.5t73 -28.5t30 -72.5t-30 -72.5
t-73 -28.5zM276 1606q-43 0 -72.5 28.5t-29.5 72.5t29.5 72.5t72.5 28.5t73 -28.5t30 -72.5t-30 -72.5t-73 -28.5z" />
    <glyph glyph-name="Idotaccent.ss01" horiz-adv-x="851" 
d="M717 1112h-111v-790h111q33 0 33 -31v-260q0 -31 -33 -31h-582q-33 0 -33 31v260q0 31 33 31h111v790h-111q-33 0 -33 31v260q0 31 33 31h582q33 0 33 -31v-260q0 -31 -33 -31zM426 1579q-53 0 -90 37t-37 89t37 89t90 37t90 -37t37 -89t-37 -89t-90 -37z" />
    <glyph glyph-name="Igrave.ss01" horiz-adv-x="851" 
d="M717 1112h-111v-790h111q33 0 33 -31v-260q0 -31 -33 -31h-582q-33 0 -33 31v260q0 31 33 31h111v790h-111q-33 0 -33 31v260q0 31 33 31h582q33 0 33 -31v-260q0 -31 -33 -31zM596 1571l-387 115q-27 12 -14 43l55 126q12 35 43 15l352 -191q25 -16 14 -41l-20 -53
q-10 -24 -43 -14z" />
    <glyph glyph-name="Imacron.ss01" horiz-adv-x="851" 
d="M717 1112h-111v-790h111q33 0 33 -31v-260q0 -31 -33 -31h-582q-33 0 -33 31v260q0 31 33 31h111v790h-111q-33 0 -33 31v260q0 31 33 31h582q33 0 33 -31v-260q0 -31 -33 -31zM225 1608q-33 0 -32 30v119q0 31 32 31h402q33 0 32 -31v-119q0 -31 -32 -30h-402z" />
    <glyph glyph-name="Iogonek.ss01" horiz-adv-x="851" 
d="M549 -426q-84 0 -141.5 44t-57.5 134q0 133 131 248h-346q-33 0 -33 31v260q0 31 33 31h111v790h-111q-33 0 -33 31v260q0 31 33 31h582q33 0 33 -31v-260q0 -31 -33 -31h-111v-790h111q33 0 33 -31v-260q0 -31 -33 -31h-90q-98 -111 -99 -211q0 -76 62 -76q51 0 100 41
q18 14 31 0l22 -24q10 -10 5 -23q-16 -45 -65.5 -89t-133.5 -44z" />
    <glyph glyph-name="M.ss01" horiz-adv-x="1726" 
d="M1262 1434h292q29 0 29 -31v-1374q0 -29 -29 -29h-301q-31 0 -30 29v784l-293 -483q-18 -31 -47 -31h-37q-29 0 -47 31l-295 487v-788q0 -29 -31 -29h-301q-29 0 -29 29v1374q0 31 29 31h293q27 0 45 -31l354 -547l353 547q18 31 45 31z" />
    <glyph glyph-name="N.ss01" horiz-adv-x="1503" 
d="M1329 1434q12 0 21.5 -9.5t9.5 -21.5v-1374q0 -29 -31 -29h-254q-31 0 -51 29l-520 766v-766q0 -29 -29 -29h-301q-31 0 -31 29v1374q0 12 9.5 21.5t21.5 9.5h270q31 0 50 -31l505 -741v741q0 31 29 31h301z" />
    <glyph glyph-name="Nacute.ss01" horiz-adv-x="1503" 
d="M1329 1434q12 0 21.5 -9.5t9.5 -21.5v-1374q0 -29 -31 -29h-254q-31 0 -51 29l-520 766v-766q0 -29 -29 -29h-301q-31 0 -31 29v1374q0 12 9.5 21.5t21.5 9.5h270q31 0 50 -31l505 -741v741q0 31 29 31h301zM582 1569q-33 -10 -43 14l-21 53q-10 25 14 41l353 191
q31 20 43 -15l55 -127q12 -31 -14 -43z" />
    <glyph glyph-name="Ncaron.ss01" horiz-adv-x="1503" 
d="M1329 1434q12 0 21.5 -9.5t9.5 -21.5v-1374q0 -29 -31 -29h-254q-31 0 -51 29l-520 766v-766q0 -29 -29 -29h-301q-31 0 -31 29v1374q0 12 9.5 21.5t21.5 9.5h270q31 0 50 -31l505 -741v741q0 31 29 31h301zM1008 1870v-70q0 -20 -21 -41l-182 -170q-25 -25 -51 -24h-9
q-27 0 -51 24l-180 170q-20 20 -20 41v70q0 37 38 14l218 -137l219 137q39 23 39 -14z" />
    <glyph glyph-name="Ncommaaccent.ss01" horiz-adv-x="1503" 
d="M854 -96v-172q0 -70 -58.5 -119t-121.5 -68q-23 -5 -28 15t18 28q117 41 116 133l-104 35q-33 10 -33 35v113q0 31 33 30h145q33 1 33 -30zM1329 1434q12 0 21.5 -9.5t9.5 -21.5v-1374q0 -29 -31 -29h-254q-31 0 -51 29l-520 766v-766q0 -29 -29 -29h-301q-31 0 -31 29
v1374q0 12 9.5 21.5t21.5 9.5h270q31 0 50 -31l505 -741v741q0 31 29 31h301z" />
    <glyph glyph-name="Eng.ss01" horiz-adv-x="1503" 
d="M1329 1434q11 0 21 -10t10 -21v-1466q0 -190 -211 -351q-18 -16 -35 0l-139 144q-14 20 -4 32t34 40q66 76 66 118q0 41 -55 121l-512 754v-766q0 -29 -29 -29h-301q-31 0 -31 29v1374q-1 12 9 21t22 10h270q31 0 50 -31l505 -741v741q0 31 29 31h301z" />
    <glyph glyph-name="Ntilde.ss01" horiz-adv-x="1503" 
d="M1329 1434q12 0 21.5 -9.5t9.5 -21.5v-1374q0 -29 -31 -29h-254q-31 0 -51 29l-520 766v-766q0 -29 -29 -29h-301q-31 0 -31 29v1374q0 12 9.5 21.5t21.5 9.5h270q31 0 50 -31l505 -741v741q0 31 29 31h301zM878.5 1595q-63.5 0 -127 34t-131 34t-98.5 -51q-8 -12 -28 -4
l-52 24q-16 6 -8 25q55 150 201 147q78 0 148.5 -33.5t110.5 -33.5t89 51q10 10 29 4l49 -20q16 -6 8 -25q-25 -68 -76 -110t-114.5 -42z" />
    <glyph glyph-name="O.ss01" horiz-adv-x="1439" 
d="M453 715.5q0 -414.5 267 -414.5t267 415t-266 414q-268 0 -268 -414.5zM721 -16q-289 0 -459 191.5t-170 541.5t170 541.5t459 191.5t458 -191.5t169 -541.5t-169 -541.5t-458 -191.5z" />
    <glyph glyph-name="Oacute.ss01" horiz-adv-x="1439" 
d="M453 715.5q0 -414.5 267 -414.5t267 415t-266 414q-268 0 -268 -414.5zM721 -16q-289 0 -459 191.5t-170 541.5t170 541.5t459 191.5t458 -191.5t169 -541.5t-169 -541.5t-458 -191.5zM551 1569q-33 -10 -43 14l-21 53q-10 25 15 41l352 191q31 20 43 -15l55 -127
q12 -31 -14 -43z" />
    <glyph glyph-name="Ocircumflex.ss01" horiz-adv-x="1439" 
d="M453 715.5q0 -414.5 267 -414.5t267 415t-266 414q-268 0 -268 -414.5zM721 -16q-289 0 -459 191.5t-170 541.5t170 541.5t459 191.5t458 -191.5t169 -541.5t-169 -541.5t-458 -191.5zM463 1587v70q0 20 20 41l181 170q25 25 51 24h8q27 0 51 -24l182 -170q20 -20 21 -41
v-70q0 -37 -39 -14l-219 137l-217 -137q-39 -23 -39 14z" />
    <glyph glyph-name="Odieresis.ss01" horiz-adv-x="1439" 
d="M453 715.5q0 -414.5 267 -414.5t267 415t-266 414q-268 0 -268 -414.5zM721 -16q-289 0 -459 191.5t-170 541.5t170 541.5t459 191.5t458 -191.5t169 -541.5t-169 -541.5t-458 -191.5zM870 1606q-43 0 -72.5 28.5t-29.5 72.5t29.5 72.5t72.5 28.5t73 -28.5t30 -72.5
t-30 -72.5t-73 -28.5zM571 1606q-43 0 -72.5 28.5t-29.5 72.5t29.5 72.5t72.5 28.5t73 -28.5t30 -72.5t-30 -72.5t-73 -28.5z" />
    <glyph glyph-name="Ograve.ss01" horiz-adv-x="1439" 
d="M453 715.5q0 -414.5 267 -414.5t267 415t-266 414q-268 0 -268 -414.5zM721 -16q-289 0 -459 191.5t-170 541.5t170 541.5t459 191.5t458 -191.5t169 -541.5t-169 -541.5t-458 -191.5zM891 1571l-387 115q-27 12 -15 43l56 126q12 35 43 15l352 -191q25 -16 14 -41
l-20 -53q-10 -24 -43 -14z" />
    <glyph glyph-name="Ohungarumlaut.ss01" horiz-adv-x="1439" 
d="M453 715.5q0 -414.5 267 -414.5t267 415t-266 414q-268 0 -268 -414.5zM721 -16q-289 0 -459 191.5t-170 541.5t170 541.5t459 191.5t458 -191.5t169 -541.5t-169 -541.5t-458 -191.5zM860 1577q-20 -10 -43 12l-26 29q-14 16 14 41l207 186q18 16 39 -4l94 -98
q25 -29 -10 -45zM469 1577q-20 -10 -43 12l-29 29q-12 16 17 41l207 186q20 16 38 -4l95 -98q23 -29 -13 -43z" />
    <glyph glyph-name="Omacron.ss01" horiz-adv-x="1439" 
d="M453 715.5q0 -414.5 267 -414.5t267 415t-266 414q-268 0 -268 -414.5zM721 -16q-289 0 -459 191.5t-170 541.5t170 541.5t459 191.5t458 -191.5t169 -541.5t-169 -541.5t-458 -191.5zM520 1608q-33 0 -33 30v119q0 31 33 31h402q33 0 32 -31v-119q0 -31 -32 -30h-402z
" />
    <glyph glyph-name="Oslash.ss01" horiz-adv-x="1439" 
d="M721 301q266 0 266 416q0 137 -29 225l-323 -629q41 -12 86 -12zM453 717q0 -141 32 -238l326 637q-47 14 -90 14q-268 1 -268 -413zM1008 1448h168q16 0 23 -11.5t-1 -25.5l-57 -113q207 -195 207 -563t-169 -559.5t-458 -191.5q-131 0 -234 39l-6 -11q-14 -31 -43 -30
h-153q-20 0 -29.5 14t-1.5 31l53 102q-215 195 -215 588q0 350 170 541.5t459 191.5q129 0 242 -41q19 39 45 39z" />
    <glyph glyph-name="Otilde.ss01" horiz-adv-x="1439" 
d="M453 715.5q0 -414.5 267 -414.5t267 415t-266 414q-268 0 -268 -414.5zM721 -16q-289 0 -459 191.5t-170 541.5t170 541.5t459 191.5t458 -191.5t169 -541.5t-169 -541.5t-458 -191.5zM847.5 1595q-63.5 0 -127 34t-131 34t-97.5 -51q-8 -12 -29 -4l-51 24q-16 6 -9 25
q55 150 201 147q78 0 148.5 -33.5t110.5 -33.5t89 51q10 10 29 4l49 -20q16 -6 8 -25q-25 -68 -76 -110t-114.5 -42z" />
    <glyph glyph-name="OE.ss01" horiz-adv-x="2105" 
d="M721 301q78 0 133 37v758q-55 35 -135 34q-266 -2 -266 -415.5t268 -413.5zM1974 1112h-760v-235h369q31 0 31 -29v-262q0 -29 -31 -29h-369v-235h758q12 0 21.5 -9.5t9.5 -21.5v-260q0 -12 -9 -21.5t-22 -9.5h-1093q-98 -16 -156 -16q-289 0 -460 191.5t-171 541.5
t170 541.5t457 191.5q82 0 160 -16h1095q29 0 29 -31v-260q0 -31 -29 -31z" />
    <glyph glyph-name="P.ss01" horiz-adv-x="1345" 
d="M788 815q115 0 115 150t-119 149h-301v-299h305zM1264 953q0 -219 -111 -338t-279 -119h-391v-467q0 -29 -28 -29h-301q-31 0 -31 29v1374q0 31 31 31h735q166 0 270.5 -131t104.5 -350z" />
    <glyph glyph-name="Q.ss01" horiz-adv-x="1435" 
d="M700.5 301q120.5 0 184 119t63.5 296t-63.5 295.5t-184 118.5t-184 -118.5t-63.5 -295.5t63.5 -296t184 -119zM92 717q0 344 173 538.5t435.5 194.5t435.5 -194.5t173 -538.5q0 -250 -99 -430l154 -152q20 -20 0 -43l-184 -184q-20 -23 -43 0l-150 147q-131 -72 -287 -71
q-262 0 -435 194.5t-173 538.5z" />
    <glyph glyph-name="R.ss01" horiz-adv-x="1462" 
d="M504 1112v-299h381q115 0 114 148q0 63 -27.5 107t-90.5 44h-377zM504 492v-463q0 -29 -29 -29h-301q-31 0 -31 29v1374q0 31 31 31h811q158 -2 266.5 -135.5t108.5 -337.5q0 -289 -193 -412q74 -98 133.5 -267t59.5 -253q0 -29 -31 -29h-301q-31 0 -31 29q0 96 -53 228
t-151 235h-289z" />
    <glyph glyph-name="Racute.ss01" horiz-adv-x="1462" 
d="M504 1112v-299h381q115 0 114 148q0 63 -27.5 107t-90.5 44h-377zM504 492v-463q0 -29 -29 -29h-301q-31 0 -31 29v1374q0 31 31 31h811q158 -2 266.5 -135.5t108.5 -337.5q0 -289 -193 -412q74 -98 133.5 -267t59.5 -253q0 -29 -31 -29h-301q-31 0 -31 29q0 96 -53 228
t-151 235h-289zM582 1569q-33 -10 -43 14l-21 53q-10 25 14 41l353 191q31 20 43 -15l55 -127q12 -31 -14 -43z" />
    <glyph glyph-name="Rcaron.ss01" horiz-adv-x="1462" 
d="M504 1112v-299h381q115 0 114 148q0 63 -27.5 107t-90.5 44h-377zM504 492v-463q0 -29 -29 -29h-301q-31 0 -31 29v1374q0 31 31 31h811q158 -2 266.5 -135.5t108.5 -337.5q0 -289 -193 -412q74 -98 133.5 -267t59.5 -253q0 -29 -31 -29h-301q-31 0 -31 29q0 96 -53 228
t-151 235h-289zM1008 1870v-70q0 -20 -21 -41l-182 -170q-25 -25 -51 -24h-9q-27 0 -51 24l-180 170q-20 20 -20 41v70q0 37 38 14l218 -137l219 137q39 23 39 -14z" />
    <glyph glyph-name="Rcommaaccent.ss01" horiz-adv-x="1462" 
d="M854 -96v-172q0 -70 -58.5 -119t-121.5 -68q-23 -5 -28 15t18 28q117 41 116 133l-104 35q-33 10 -33 35v113q0 31 33 30h145q33 1 33 -30zM504 1112v-299h381q115 0 114 148q0 63 -27.5 107t-90.5 44h-377zM504 492v-463q0 -29 -29 -29h-301q-31 0 -31 29v1374
q0 31 31 31h811q158 -2 266.5 -135.5t108.5 -337.5q0 -289 -193 -412q74 -98 133.5 -267t59.5 -253q0 -29 -31 -29h-301q-31 0 -31 29q0 96 -53 228t-151 235h-289z" />
    <glyph glyph-name="U.ss01" horiz-adv-x="1431" 
d="M1260 1434q29 0 28 -33v-930q0 -221 -110.5 -346t-341.5 -125h-240q-231 0 -342 127t-111 344v930q0 14 9.5 23.5t21.5 9.5h299q12 0 21.5 -9.5t9.5 -23.5v-877q0 -203 166 -202h92q166 0 166 202v877q0 14 9 23.5t21 9.5h302z" />
    <glyph glyph-name="Uacute.ss01" horiz-adv-x="1431" 
d="M1260 1434q29 0 28 -33v-930q0 -221 -110.5 -346t-341.5 -125h-240q-231 0 -342 127t-111 344v930q0 14 9.5 23.5t21.5 9.5h299q12 0 21.5 -9.5t9.5 -23.5v-877q0 -203 166 -202h92q166 0 166 202v877q0 14 9 23.5t21 9.5h302zM547 1569q-33 -10 -43 14l-21 53
q-10 25 15 41l352 191q31 20 43 -15l55 -127q12 -31 -14 -43z" />
    <glyph glyph-name="Ucircumflex.ss01" horiz-adv-x="1431" 
d="M1260 1434q29 0 28 -33v-930q0 -221 -110.5 -346t-341.5 -125h-240q-231 0 -342 127t-111 344v930q0 14 9.5 23.5t21.5 9.5h299q12 0 21.5 -9.5t9.5 -23.5v-877q0 -203 166 -202h92q166 0 166 202v877q0 14 9 23.5t21 9.5h302zM459 1587v70q0 20 20 41l180 170
q25 25 52 24h8q27 0 51 -24l182 -170q20 -20 21 -41v-70q0 -37 -39 -14l-219 137l-217 -137q-39 -23 -39 14z" />
    <glyph glyph-name="Udieresis.ss01" horiz-adv-x="1431" 
d="M1260 1434q29 0 28 -33v-930q0 -221 -110.5 -346t-341.5 -125h-240q-231 0 -342 127t-111 344v930q0 14 9.5 23.5t21.5 9.5h299q12 0 21.5 -9.5t9.5 -23.5v-877q0 -203 166 -202h92q166 0 166 202v877q0 14 9 23.5t21 9.5h302zM866 1606q-43 0 -72.5 28.5t-29.5 72.5
t29.5 72.5t72.5 28.5t73 -28.5t30 -72.5t-30 -72.5t-73 -28.5zM567 1606q-43 0 -72.5 28.5t-29.5 72.5t29.5 72.5t72.5 28.5t73 -28.5t30 -72.5t-30 -72.5t-73 -28.5z" />
    <glyph glyph-name="Ugrave.ss01" horiz-adv-x="1431" 
d="M1260 1434q29 0 28 -33v-930q0 -221 -110.5 -346t-341.5 -125h-240q-231 0 -342 127t-111 344v930q0 14 9.5 23.5t21.5 9.5h299q12 0 21.5 -9.5t9.5 -23.5v-877q0 -203 166 -202h92q166 0 166 202v877q0 14 9 23.5t21 9.5h302zM887 1571l-387 115q-27 12 -15 43l56 126
q12 35 43 15l352 -191q25 -16 14 -41l-20 -53q-10 -24 -43 -14z" />
    <glyph glyph-name="Uhungarumlaut.ss01" horiz-adv-x="1431" 
d="M1260 1434q29 0 28 -33v-930q0 -221 -110.5 -346t-341.5 -125h-240q-231 0 -342 127t-111 344v930q0 14 9.5 23.5t21.5 9.5h299q12 0 21.5 -9.5t9.5 -23.5v-877q0 -203 166 -202h92q166 0 166 202v877q0 14 9 23.5t21 9.5h302zM856 1577q-20 -10 -43 12l-27 29
q-14 16 15 41l207 186q18 16 39 -4l94 -98q25 -29 -11 -45zM465 1577q-20 -10 -43 12l-29 29q-12 16 17 41l206 186q20 16 39 -4l95 -98q23 -29 -13 -43z" />
    <glyph glyph-name="Umacron.ss01" horiz-adv-x="1431" 
d="M1260 1434q29 0 28 -33v-930q0 -221 -110.5 -346t-341.5 -125h-240q-231 0 -342 127t-111 344v930q0 14 9.5 23.5t21.5 9.5h299q12 0 21.5 -9.5t9.5 -23.5v-877q0 -203 166 -202h92q166 0 166 202v877q0 14 9 23.5t21 9.5h302zM516 1608q-33 0 -33 30v119q0 31 33 31h402
q33 0 32 -31v-119q0 -31 -32 -30h-402z" />
    <glyph glyph-name="Uogonek.ss01" horiz-adv-x="1431" 
d="M1260 1434q29 0 28 -33v-930q0 -395 -323 -459q-109 -121 -109 -223q0 -76 62 -76q51 0 100 41q18 14 31 0l22 -24q10 -10 4 -23q-16 -45 -65 -89q-50 -44 -134 -44t-141 44t-57 134q0 133 131 248h-213q-231 0 -342 127t-111 344v930q0 14 9.5 23.5t21.5 9.5h299
q12 0 21.5 -9.5t9.5 -23.5v-877q0 -203 166 -202h92q166 0 166 202v877q0 14 9 23.5t21 9.5h302z" />
    <glyph glyph-name="Uring.ss01" horiz-adv-x="1431" 
d="M1260 1434q29 0 28 -33v-930q0 -221 -110.5 -346t-341.5 -125h-240q-231 0 -342 127t-111 344v930q0 14 9.5 23.5t21.5 9.5h299q12 0 21.5 -9.5t9.5 -23.5v-877q0 -203 166 -202h92q166 0 166 202v877q0 14 9 23.5t21 9.5h302zM715 1694q33 0 51 23.5t18 55.5t-18 55
t-51 23t-49.5 -23.5t-16.5 -55t16.5 -55t49.5 -23.5zM716 1546q-95 0 -159.5 62.5t-64.5 165t64.5 165t159.5 62.5t160.5 -62.5t65.5 -165t-65.5 -165t-160.5 -62.5z" />
    <glyph glyph-name="W.ss01" horiz-adv-x="2105" 
d="M2017 1434q12 0 20.5 -9.5t4.5 -21.5l-531 -1383q-6 -20 -26 -20h-135q-18 0 -27 18l-270 699l-269 -697q-8 -20 -28 -20h-133q-20 0 -29 20l-531 1383q-4 12 4.5 21.5t20.5 9.5h297q18 0 27 -21l288 -729l238 729q6 20 29 21h172q20 0 28 -21l238 -729l289 729
q8 20 28 21h295z" />
    <glyph glyph-name="Wacute.ss01" horiz-adv-x="2105" 
d="M2017 1434q12 0 20.5 -9.5t4.5 -21.5l-531 -1383q-6 -20 -26 -20h-135q-18 0 -27 18l-270 699l-269 -697q-8 -20 -28 -20h-133q-20 0 -29 20l-531 1383q-4 12 4.5 21.5t20.5 9.5h297q18 0 27 -21l288 -729l238 729q6 20 29 21h172q20 0 28 -21l238 -729l289 729
q8 20 28 21h295zM885 1569q-33 -10 -43 14l-21 53q-10 25 15 41l352 191q31 20 43 -15l55 -127q12 -31 -14 -43z" />
    <glyph glyph-name="Wcircumflex.ss01" horiz-adv-x="2105" 
d="M2017 1434q12 0 20.5 -9.5t4.5 -21.5l-531 -1383q-6 -20 -26 -20h-135q-18 0 -27 18l-270 699l-269 -697q-8 -20 -28 -20h-133q-20 0 -29 20l-531 1383q-4 12 4.5 21.5t20.5 9.5h297q18 0 27 -21l288 -729l238 729q6 20 29 21h172q20 0 28 -21l238 -729l289 729
q8 20 28 21h295zM797 1587v70q0 20 20 41l180 170q25 25 52 24h8q27 0 51 -24l182 -170q20 -20 21 -41v-70q0 -37 -39 -14l-219 137l-217 -137q-39 -23 -39 14z" />
    <glyph glyph-name="Wdieresis.ss01" horiz-adv-x="2105" 
d="M2017 1434q12 0 20.5 -9.5t4.5 -21.5l-531 -1383q-6 -20 -26 -20h-135q-18 0 -27 18l-270 699l-269 -697q-8 -20 -28 -20h-133q-20 0 -29 20l-531 1383q-4 12 4.5 21.5t20.5 9.5h297q18 0 27 -21l288 -729l238 729q6 20 29 21h172q20 0 28 -21l238 -729l289 729
q8 20 28 21h295zM1204 1606q-43 0 -72.5 28.5t-29.5 72.5t29.5 72.5t72.5 28.5t73 -28.5t30 -72.5t-30 -72.5t-73 -28.5zM905 1606q-43 0 -72.5 28.5t-29.5 72.5t29.5 72.5t72.5 28.5t73 -28.5t30 -72.5t-30 -72.5t-73 -28.5z" />
    <glyph glyph-name="Wgrave.ss01" horiz-adv-x="2105" 
d="M2017 1434q12 0 20.5 -9.5t4.5 -21.5l-531 -1383q-6 -20 -26 -20h-135q-18 0 -27 18l-270 699l-269 -697q-8 -20 -28 -20h-133q-20 0 -29 20l-531 1383q-4 12 4.5 21.5t20.5 9.5h297q18 0 27 -21l288 -729l238 729q6 20 29 21h172q20 0 28 -21l238 -729l289 729
q8 20 28 21h295zM1225 1571l-387 115q-27 12 -15 43l56 126q12 35 43 15l352 -191q25 -16 14 -41l-20 -53q-10 -24 -43 -14z" />
    <glyph glyph-name="A.ss04" horiz-adv-x="1292" 
d="M82 225q0 27 27 27h1075q27 0 26 -27v-198q0 -27 -26 -27h-1075q-27 0 -27 27v198zM541 707h211l-93 213l-12 32zM743 1434q18 0 31 -31l434 -1002q6 -12 -2 -21t-20 -9h-316q-18 0 -30 30l-33 80h-320l-36 -80q-16 -31 -33 -30h-312q-12 0 -20 9t-4 21l440 1002
q14 31 31 31h190z" />
    <glyph glyph-name="B.ss04" horiz-adv-x="1169" 
d="M143 225q0 27 27 27h870q27 0 27 -27v-198q0 -27 -27 -27h-870q-27 0 -27 27v198zM500 606h137q90 0 90 86q0 92 -90 92h-137v-178zM596 1198h-96v-178h96q92 0 92 89t-92 89zM1067 656q0 -121 -81 -203t-247 -82h-565q-12 0 -21.5 9t-9.5 21v1002q0 12 9.5 21.5
t21.5 9.5h543q145 0 228 -72t83 -213q0 -180 -139 -238q74 -10 126 -72t52 -183z" />
    <glyph glyph-name="C.ss04" horiz-adv-x="1234" 
d="M164 225q0 27 26 27h893q27 0 27 -27v-198q0 -27 -27 -27h-893q-27 0 -26 27v198zM659 354q-236 0 -396.5 147.5t-160.5 399.5t162 400.5t400 148.5q160 0 274.5 -60.5t169.5 -142.5q16 -27 2 -43l-156 -157q-23 -23 -45 4q-90 113 -231 112q-236 0 -236 -261t236 -261
q147 0 237 129q18 27 46 2l161 -156q18 -18 0 -45q-66 -90 -187.5 -153.5t-275.5 -63.5z" />
    <glyph glyph-name="D.ss04" horiz-adv-x="1263" 
d="M143 225q0 27 27 27h924q27 0 26 -27v-198q0 -27 -26 -27h-924q-27 0 -27 27v198zM602 657q113 0 166 46.5t53 198t-54 198.5t-165 47h-119v-490h119zM1161 886q0 -146 -43 -256t-125 -164t-171 -74.5t-210 -20.5h-438q-12 0 -21.5 9t-9.5 21v1002q0 12 9.5 21.5
t21.5 9.5h447q307 0 433 -150q107 -127 107 -398z" />
    <glyph glyph-name="E.ss04" horiz-adv-x="1058" 
d="M143 225q0 27 27 27h760q27 0 26 -27v-198q0 -27 -26 -27h-760q-27 0 -27 27v198zM926 657q12 0 21 -9t9 -21v-226q0 -12 -9 -21t-21 -9h-752q-12 0 -21.5 9t-9.5 21v1002q0 12 9.5 21.5t21.5 9.5h754q29 0 28 -31v-225q0 -31 -28 -31h-445v-117h256q31 0 31 -29v-196
q0 -29 -31 -29h-256v-119h443z" />
    <glyph glyph-name="F.ss04" horiz-adv-x="1060" 
d="M143 225q0 27 27 27h762q27 0 26 -27v-198q0 -27 -26 -27h-762q-27 0 -27 27v198zM928 1434q12 0 21 -9.5t9 -21.5v-225q0 -12 -9 -21.5t-21 -9.5h-445v-152h287q31 0 31 -28v-230q0 -29 -31 -28h-287v-308q0 -31 -28 -30h-281q-12 0 -21.5 9t-9.5 21v1002q0 12 9.5 21.5
t21.5 9.5h754z" />
    <glyph glyph-name="G.ss04" horiz-adv-x="1292" 
d="M143 225q0 27 27 27h973q27 0 26 -27v-198q0 -27 -26 -27h-973q-27 0 -27 27v198zM1141 983q29 0 28 -29v-454q0 -14 -12 -23q-55 -45 -188 -84t-263.5 -39t-231.5 30t-187 91.5t-135.5 170t-49.5 272t84 292.5q156 240 469.5 240t470.5 -162q20 -20 -2 -43l-157 -166
q-18 -18 -43 2q-96 82 -240 82q-242 0 -242 -261t246 -261q109 0 162 31v61h-90q-31 0 -31 29v192q0 29 31 29h381z" />
    <glyph glyph-name="H.ss04" horiz-adv-x="1318" 
d="M143 225q0 27 27 27h979q27 0 27 -27v-198q0 -27 -27 -27h-979q-27 0 -27 27v198zM1147 1434q29 0 29 -31v-1002q0 -31 -29 -30h-281q-31 0 -30 30v359h-353v-359q0 -31 -28 -30h-281q-12 0 -21.5 9t-9.5 21v1002q0 12 9.5 21.5t21.5 9.5h281q29 0 28 -31v-356h353v356
q0 31 30 31h281z" />
    <glyph glyph-name="I.ss04" horiz-adv-x="626" 
d="M143 225q0 27 27 27h287q27 0 26 -27v-198q0 -27 -26 -27h-287q-27 0 -27 27v198zM174 371q-12 0 -21.5 9t-9.5 21v1002q0 12 9.5 21.5t21.5 9.5h281q29 0 28 -31v-1002q0 -31 -28 -30h-281z" />
    <glyph glyph-name="J.ss04" horiz-adv-x="1050" 
d="M102 225q0 27 27 27h752q27 0 26 -27v-198q0 -27 -26 -27h-752q-27 0 -27 27v198zM877 1434q12 0 21 -9.5t9 -23.5v-613q0 -217 -98 -325.5t-324 -108.5q-297 0 -401 246q-10 27 14 37l203 106q27 10 41 -16q37 -66 115 -65q111 0 110 141v598q0 33 29 33h281z" />
    <glyph glyph-name="K.ss04" horiz-adv-x="1275" 
d="M143 225q0 27 27 27h1008q27 0 26 -27v-198q0 -27 -26 -27h-1008q-27 0 -27 27v198zM483 401q0 -31 -28 -30h-281q-12 0 -21.5 9t-9.5 21v1002q0 12 9.5 21.5t21.5 9.5h281q29 0 28 -31v-402l332 402q23 31 59 31h308q14 0 20 -9.5t-4 -21.5l-440 -502l422 -500
q10 -12 5 -21t-18 -9h-309q-35 0 -59 30l-316 379v-379z" />
    <glyph glyph-name="L.ss04" horiz-adv-x="1048" 
d="M143 225q0 27 27 27h770q27 0 27 -27v-198q0 -27 -27 -27h-770q-27 0 -27 27v198zM938 657q29 0 29 -30v-226q0 -31 -29 -30h-764q-12 0 -21.5 9t-9.5 21v1000q0 14 9.5 23.5t21.5 9.5h281q29 0 28 -33v-744h455z" />
    <glyph glyph-name="M.ss04" horiz-adv-x="1531" 
d="M143 225q0 27 27 27h1192q27 0 27 -27v-198q0 -27 -27 -27h-1192q-27 0 -27 27v198zM1098 1434h262q29 0 29 -31v-1004q0 -29 -29 -28h-281q-31 0 -30 28v461l-222 -459q-18 -31 -47 -30h-28q-31 0 -47 30l-222 459v-461q0 -29 -30 -28h-281q-29 0 -29 28v1004
q0 31 29 31h262q29 0 45 -31l287 -520l287 520q16 31 45 31z" />
    <glyph glyph-name="N.ss04" horiz-adv-x="1306" 
d="M143 225q0 27 27 27h967q27 0 26 -27v-198q0 -27 -26 -27h-967q-27 0 -27 27v198zM1133 1434q12 0 21 -9.5t9 -21.5v-1004q0 -29 -30 -28h-234q-31 0 -51 28l-365 490v-490q0 -29 -28 -28h-281q-31 0 -31 28v1004q0 12 9.5 21.5t21.5 9.5h250q31 0 49 -31l350 -490v490
q0 31 29 31h281z" />
    <glyph glyph-name="O.ss04" horiz-adv-x="1400" 
d="M143 225q0 27 27 27h1061q27 0 26 -27v-198q0 -27 -26 -27h-1061q-27 0 -27 27v198zM700.5 641q114.5 0 186 64.5t71.5 195.5t-71.5 196.5t-186 65.5t-186.5 -65.5t-72 -196.5t72 -195.5t186.5 -64.5zM700.5 354q-114.5 0 -219 32t-190.5 96.5t-137.5 172t-51.5 246.5
t51.5 247.5t137.5 172t190.5 96.5t219 33t219 -33t190.5 -96.5t137 -172t51 -247.5t-51 -246.5t-137 -172t-190.5 -96.5t-219 -32z" />
    <glyph glyph-name="P.ss04" horiz-adv-x="1105" 
d="M143 225q0 27 27 27h786q27 0 27 -27v-198q0 -27 -27 -27h-786q-27 0 -27 27v198zM586 934q98 0 98 110.5t-102 110.5h-99v-221h103zM1024 1044q0 -199 -100.5 -294t-253.5 -95h-187v-256q0 -29 -28 -28h-281q-31 0 -31 28v1004q0 31 31 31h510q340 -1 340 -390z" />
    <glyph glyph-name="Q.ss04" horiz-adv-x="1400" 
d="M1231 252q27 0 26 -27v-198q0 -27 -26 -27h-1061q-27 0 -27 27v198q0 27 27 27h1061zM442 901q0 -131 72 -195.5t186.5 -64.5t186 64.5t71.5 195.5t-71.5 196.5t-186 65.5t-186.5 -65.5t-72 -196.5zM728 354q-143 0 -247 32t-190 96.5t-137.5 172t-51.5 246.5t51.5 247.5
t137.5 172t190.5 96.5t219 33t219 -33t190.5 -96.5t137 -172t51.5 -265t-79.5 -281.5l65 -63q18 -18 0 -41l-151 -154q-20 -20 -41 0l-80 78q-141 -68 -284 -68z" />
    <glyph glyph-name="R.ss04" horiz-adv-x="1202" 
d="M143 225q0 27 27 27h934q27 0 26 -27v-198q0 -27 -26 -27h-934q-27 0 -27 27v198zM483 1155v-194h162q104 0 105 98q-2 55 -29 75.5t-82 20.5h-156zM1106 371h-291q-20 0 -43 30l-201 281h-88v-283q0 -29 -28 -28h-281q-31 0 -31 28v1004q0 31 31 31h541
q164 0 269.5 -101.5t105.5 -269.5t-63 -247q-32 -40 -55.5 -59.5t-66.5 -47.5l219 -308q8 -12 1 -21t-19 -9z" />
    <glyph glyph-name="S.ss04" horiz-adv-x="1148" 
d="M109 225q0 27 26 27h864q27 0 27 -27v-198q0 -27 -27 -27h-864q-27 0 -26 27v198zM578 352q-287 0 -467 180q-18 18 0 41l131 156q16 20 39 2q127 -102 276 -102t150 65q0 33 -35 48.5t-119 31.5q-85 16 -141 30q-151 39 -227 110.5t-76 214.5t117.5 232t326.5 89
q143 0 262 -41t172 -106q23 -25 2 -46l-143 -163q-18 -18 -39 -4q-84 84 -254 84q-57 0 -80.5 -12.5t-23.5 -42.5t27.5 -43t131.5 -38q242 -57 340.5 -123.5t98.5 -222t-124 -248t-345 -92.5z" />
    <glyph glyph-name="T.ss04" horiz-adv-x="1105" 
d="M82 225q0 27 27 27h888q27 0 27 -27v-198q0 -27 -27 -27h-888q-27 0 -27 27v198zM995 1434q12 0 20.5 -10.5t8.5 -22.5v-223q0 -31 -29 -31h-272v-746q0 -12 -9 -21t-22 -9h-280q-29 0 -29 30v746h-270q-12 0 -21.5 9t-9.5 22v223q0 12 9 22.5t22 10.5h882z" />
    <glyph glyph-name="U.ss04" horiz-adv-x="1282" 
d="M143 225q0 27 27 27h942q27 0 27 -27v-198q0 -27 -27 -27h-942q-27 0 -27 27v198zM1130 1434q29 0 29 -33v-533q0 -246 -117.5 -380t-400.5 -134t-400.5 134.5t-117.5 379.5v533q0 14 9 23.5t22 9.5h280q29 0 29 -33v-496q0 -139 41 -201.5t137 -62.5t137 62.5t41 201.5
v496q0 14 9.5 23.5t21.5 9.5h280z" />
    <glyph glyph-name="V.ss04" horiz-adv-x="1304" 
d="M72 225q0 27 26 27h1108q27 0 27 -27v-198q0 -27 -27 -27h-1108q-27 0 -26 27v198zM1210 1434q12 0 18.5 -9.5t2.5 -21.5l-447 -1012q-10 -20 -28 -20h-205q-18 0 -29 22l-448 1010q-4 12 3 21.5t19 9.5h277q20 0 33 -31l247 -576l248 576q16 31 33 31h276z" />
    <glyph glyph-name="W.ss04" horiz-adv-x="1712" 
d="M72 225q0 27 26 27h1516q27 0 26 -27v-198q0 -27 -26 -27h-1516q-27 0 -26 27v198zM1618 1434q12 0 18 -9.5t2 -21.5l-342 -1012q-6 -20 -26 -20h-189q-16 0 -26 18l-197 475l-196 -473q-8 -20 -29 -20h-184q-20 0 -29 20l-346 1012q-4 12 4 21.5t20 9.5h271q23 0 30 -31
l158 -539l213 539q12 31 31 31h114q18 0 31 -31l213 -539l154 539q8 31 30 31h275z" />
    <glyph glyph-name="X.ss04" horiz-adv-x="1245" 
d="M82 225q0 27 27 27h1028q27 0 26 -27v-198q0 -27 -26 -27h-1028q-27 0 -27 27v198zM1139 371h-318q-23 0 -43 28l-157 242l-154 -242q-20 -29 -45 -28h-318q-12 0 -18 9t0 21l340 508l-326 494q-8 12 -1 21.5t20 9.5h317q25 0 43 -31l142 -238l151 238q18 31 39 31h315
q12 0 20.5 -9.5t0.5 -21.5l-334 -494l346 -508q8 -12 0 -21t-20 -9z" />
    <glyph glyph-name="Y.ss04" horiz-adv-x="1204" 
d="M72 225q0 27 26 27h1008q27 0 27 -27v-198q0 -27 -27 -27h-1008q-27 0 -26 27v198zM1104 1434q12 0 21.5 -9.5t2.5 -21.5l-356 -629v-375q0 -29 -31 -28h-278q-31 0 -31 28v375l-356 629q-6 12 1 21.5t19 9.5h307q27 0 43 -31l156 -297l160 297q16 31 43 31h299z" />
    <glyph glyph-name="Z.ss04" horiz-adv-x="1112" 
d="M82 225q0 27 27 27h895q27 0 26 -27v-198q0 -27 -26 -27h-895q-27 0 -27 27v198zM164 1147q-29 0 -29 29v225q0 33 29 33h842q16 0 22 -14.5t-4 -30.5l-461 -732h414q10 0 19.5 -9t9.5 -21v-226q0 -31 -29 -30h-864q-16 0 -25.5 14t-1.5 29l442 733h-364z" />
    <glyph glyph-name="B.ss05" horiz-adv-x="1232" 
d="M143 225q0 27 27 27h915q27 0 27 -27v-198q0 -27 -27 -27h-915q-27 0 -27 27v198zM500 606h200q90 0 91 86q0 92 -91 92h-200v-178zM659 1198h-159v-178h159q92 0 93 88q-1 90 -93 90zM1130 656q0 -121 -80.5 -203t-246.5 -82h-629q-12 0 -21.5 9t-9.5 21v1002
q0 12 9.5 21.5t21.5 9.5h606q145 0 228.5 -72t83.5 -213q0 -94 -27 -144.5t-92 -93.5q76 -29 116.5 -81.5t40.5 -173.5z" />
    <glyph glyph-name="C.ss05" horiz-adv-x="1173" 
d="M143 225q0 27 27 27h836q27 0 26 -27v-198q0 -27 -26 -27h-836q-27 0 -27 27v198zM92 901q0 287 136.5 418t359.5 131q381 0 469 -352q8 -31 -25 -37l-235 -43q-31 -4 -35 22q-29 123 -154 123q-176 0 -176 -261t172 -261q68 0 114 38t58 91q4 29 35 23l236 -43
q33 -6 24 -37q-93 -359 -503 -359q-206 0 -341 130t-135 417z" />
    <glyph glyph-name="D.ss05" horiz-adv-x="1267" 
d="M143 225q0 27 27 27h928q27 0 26 -27v-198q0 -27 -26 -27h-928q-27 0 -27 27v198zM825 961q0 94 -26.5 140t-91.5 46h-224v-490h224q66 0 92 46.5t26 140.5v117zM750 1434q211 0 313 -116t102 -357v-117q0 -242 -102 -357.5t-313 -115.5h-576q-12 0 -21.5 9t-9.5 21v1002
q0 12 9.5 21.5t21.5 9.5h576z" />
    <glyph glyph-name="E.ss05" horiz-adv-x="1161" 
d="M143 225q0 27 27 27h862q27 0 27 -27v-198q0 -27 -27 -27h-862q-27 0 -27 27v198zM1028 657q12 0 21.5 -9t9.5 -21v-226q0 -12 -9.5 -21t-21.5 -9h-854q-12 0 -21.5 9t-9.5 21v1002q0 12 9.5 21.5t21.5 9.5h856q29 0 29 -31v-225q0 -31 -29 -31h-547v-117h275
q31 0 30 -29v-196q0 -29 -30 -29h-275v-119h545z" />
    <glyph glyph-name="F.ss05" horiz-adv-x="1200" 
d="M143 225q0 27 27 27h901q27 0 27 -27v-198q0 -27 -27 -27h-901q-27 0 -27 27v198zM1067 1434q12 0 21.5 -9.5t9.5 -21.5v-225q0 -12 -9.5 -21.5t-21.5 -9.5h-584v-152h299q31 0 31 -28v-230q0 -29 -31 -28h-299v-308q0 -31 -28 -30h-281q-12 0 -21.5 9t-9.5 21v1002
q0 12 9.5 21.5t21.5 9.5h893z" />
    <glyph glyph-name="G.ss05" horiz-adv-x="1193" 
d="M133 225q0 27 27 27h884q27 0 27 -27v-198q0 -27 -27 -27h-884q-27 0 -27 27v198zM1042 973q29 0 29 -29v-545q0 -29 -29 -28h-149q-20 0 -29 28l-16 72q-27 -37 -54 -59q-26 -22 -82 -40t-144 -18q-187 0 -331.5 119t-144.5 428q0 152 42 263.5t117 171.5
q144 114 345 114q420 0 461 -328q2 -31 -27 -37l-231 -43q-31 -4 -38 24t-18.5 46t-42 34.5t-79.5 16.5q-98 0 -143.5 -63.5t-45.5 -196.5q0 -262 178 -262q139 0 156 102h-86q-31 0 -31 29v172q0 29 31 29h362z" />
    <glyph glyph-name="I.ss05" horiz-adv-x="790" 
d="M123 225q0 27 27 27h491q27 0 27 -27v-198q0 -27 -27 -27h-491q-27 0 -27 27v198zM641 1147h-76v-490h76q27 0 27 -26v-234q0 -27 -27 -26h-491q-27 0 -27 26v234q0 27 27 26h75v490h-75q-27 0 -27 27v233q0 27 27 27h491q27 0 27 -27v-233q0 -27 -27 -27z" />
    <glyph glyph-name="M.ss05" horiz-adv-x="1454" 
d="M143 225q0 27 27 27h1114q27 0 27 -27v-198q0 -27 -27 -27h-1114q-27 0 -27 27v198zM1020 1434h262q29 0 29 -31v-1004q0 -29 -29 -28h-281q-31 0 -30 28v498l-183 -330q-18 -31 -47 -30h-28q-33 0 -47 30l-183 330v-498q0 -29 -30 -28h-281q-29 0 -29 28v1004
q0 31 29 31h262q27 0 45 -31l248 -375l248 375q18 31 45 31z" />
    <glyph glyph-name="N.ss05" horiz-adv-x="1306" 
d="M143 225q0 27 27 27h967q27 0 26 -27v-198q0 -27 -26 -27h-967q-27 0 -27 27v198zM1133 1434q12 0 21 -9.5t9 -21.5v-1004q0 -29 -30 -28h-234q-31 0 -51 28l-365 490v-490q0 -29 -28 -28h-281q-31 0 -31 28v1004q0 12 9.5 21.5t21.5 9.5h250q31 0 49 -31l350 -490v490
q0 31 29 31h281z" />
    <glyph glyph-name="O.ss05" horiz-adv-x="1236" 
d="M143 225q0 27 27 27h905q27 0 27 -27v-198q0 -27 -27 -27h-905q-27 0 -27 27v198zM618.5 641q88.5 0 137.5 65.5t49 194.5t-49 195.5t-137.5 66.5t-137.5 -66.5t-49 -195.5t49 -194.5t137.5 -65.5zM618.5 354q-241.5 0 -384 129t-142.5 418t142.5 419t384 130t384 -130
t142.5 -419t-142.5 -418t-384 -129z" />
    <glyph glyph-name="P.ss05" horiz-adv-x="1191" 
d="M143 225q0 27 27 27h862q27 0 27 -27v-198q0 -27 -27 -27h-862q-27 0 -27 27v198zM662 934q98 0 98 110.5t-103 110.5h-174v-221h179zM1100 1044q0 -199 -100.5 -294t-254.5 -95h-262v-256q0 -29 -28 -28h-281q-31 0 -31 28v1004q0 31 31 31h586q340 -1 340 -390z" />
    <glyph glyph-name="Q.ss05" horiz-adv-x="1236" 
d="M1075 252q27 0 27 -27v-198q0 -27 -27 -27h-905q-27 0 -27 27v198q0 27 27 27h905zM432 901q0 -129 49 -194.5t137.5 -65.5t137.5 65.5t49 194.5t-49 195.5t-137.5 66.5t-137.5 -66.5t-49 -195.5zM618 354q-242 0 -384 129t-142 418t142.5 419t384 130t384 -130
t142.5 -419q-1 -188 -64 -311l52 -51q18 -18 0 -41l-152 -154q-20 -20 -41 0l-59 59q-106 -49 -263 -49z" />
    <glyph glyph-name="R.ss05" horiz-adv-x="1204" 
d="M143 225q0 27 27 27h926q27 0 26 -27v-198q0 -27 -26 -27h-926q-27 0 -27 27v198zM483 1155v-194h201q98 0 98 102q0 51 -23.5 71.5t-74.5 20.5h-201zM483 682v-283q0 -29 -28 -28h-281q-31 0 -31 28v1004q0 31 31 31h574q375 0 374 -367q0 -203 -161 -305
q59 -57 102 -157.5t59 -205.5q2 -12 -8 -20t-22 -8h-279q-25 0 -31 28q-33 178 -137 283h-162z" />
    <glyph glyph-name="U.ss05" horiz-adv-x="1253" 
d="M184 225q0 27 27 27h831q27 0 27 -27v-198q0 -27 -27 -27h-831q-27 0 -27 27v198zM1081 1434q29 0 29 -33v-651q0 -211 -102.5 -303.5t-329.5 -92.5h-103q-225 0 -328.5 95.5t-103.5 300.5v651q0 14 9.5 23.5t21.5 9.5h279q12 0 21 -9.5t9 -23.5v-600q0 -160 97 -160h92
q98 0 98 160v600q0 14 9 23.5t22 9.5h280z" />
    <glyph glyph-name="W.ss05" horiz-adv-x="1757" 
d="M72 225q0 27 26 27h1561q27 0 27 -27v-198q0 -27 -27 -27h-1561q-27 0 -26 27v198zM1661 1434q12 0 19.5 -9.5t2.5 -21.5l-393 -1012q-6 -20 -28 -20h-187q-23 0 -31 18l-163 430l-164 -428q-8 -20 -31 -20h-182q-25 0 -33 20l-397 1012q-4 12 3 21.5t19 9.5h277
q18 0 30 -31l201 -518l172 528q6 20 29 21h151q23 0 29 -19l172 -530l201 528q6 20 31 21h272z" />
    <glyph glyph-name="i.loclTRK" horiz-adv-x="544" 
d="M133 0q-31 0 -31 29v802q0 35 31 35h279q31 0 30 -35v-802q0 -29 -30 -29h-279zM273 1044q-62 0 -107 44.5t-45 108t45 107.5t107 44t107.5 -44t45.5 -107.5t-45.5 -108t-107.5 -44.5z" />
    <glyph glyph-name="a.ss01" horiz-adv-x="1040" 
d="M487 174q47 0 77 29.5t30 72.5q0 102 -111 103q-43 0 -72.5 -30t-29.5 -72t29.5 -72.5t76.5 -30.5zM918 31q0 -12 -9.5 -21.5t-21.5 -9.5h-176q-47 0 -66 39l-29 61q-35 -51 -99 -83.5t-138 -32.5q-164 0 -241 80.5t-77 203.5t90.5 198t254.5 75q104 0 180 -31v41
q0 96 -133 96q-86 0 -220 -29q-31 -6 -34 23l-29 164q-6 29 25 37q123 41 319 41q396 0 404 -375v-477z" />
    <glyph glyph-name="aacute.ss01" horiz-adv-x="1040" 
d="M487 174q47 0 77 29.5t30 72.5q0 102 -111 103q-43 0 -72.5 -30t-29.5 -72t29.5 -72.5t76.5 -30.5zM918 31q0 -12 -9.5 -21.5t-21.5 -9.5h-176q-47 0 -66 39l-29 61q-35 -51 -99 -83.5t-138 -32.5q-164 0 -241 80.5t-77 203.5t90.5 198t254.5 75q104 0 180 -31v41
q0 96 -133 96q-86 0 -220 -29q-31 -6 -34 23l-29 164q-6 29 25 37q123 41 319 41q396 0 404 -375v-477zM385 983q-27 -16 -45 6l-33 49q-12 20 8 43l281 310q23 25 47 -5l88 -133q18 -27 -6 -45z" />
    <glyph glyph-name="abreve.ss01" horiz-adv-x="1040" 
d="M487 174q47 0 77 29.5t30 72.5q0 102 -111 103q-43 0 -72.5 -30t-29.5 -72t29.5 -72.5t76.5 -30.5zM918 31q0 -12 -9.5 -21.5t-21.5 -9.5h-176q-47 0 -66 39l-29 61q-35 -51 -99 -83.5t-138 -32.5q-164 0 -241 80.5t-77 203.5t90.5 198t254.5 75q104 0 180 -31v41
q0 96 -133 96q-86 0 -220 -29q-31 -6 -34 23l-29 164q-6 29 25 37q123 41 319 41q396 0 404 -375v-477zM514 1006q-223 0 -309 213q-6 14 10 20l131 57q16 6 23 -8q33 -55 62.5 -79.5t82.5 -24.5t83 24.5t62 79.5q8 14 23 8l131 -57q16 -6 10 -20q-86 -213 -309 -213z" />
    <glyph glyph-name="acircumflex.ss01" horiz-adv-x="1040" 
d="M487 174q47 0 77 29.5t30 72.5q0 102 -111 103q-43 0 -72.5 -30t-29.5 -72t29.5 -72.5t76.5 -30.5zM918 31q0 -12 -9.5 -21.5t-21.5 -9.5h-176q-47 0 -66 39l-29 61q-35 -51 -99 -83.5t-138 -32.5q-164 0 -241 80.5t-77 203.5t90.5 198t254.5 75q104 0 180 -31v41
q0 96 -133 96q-86 0 -220 -29q-31 -6 -34 23l-29 164q-6 29 25 37q123 41 319 41q396 0 404 -375v-477zM256 1020v70q0 20 20 40l181 170q25 25 51 25h8q27 0 51 -25l183 -170q20 -20 20 -40v-70q0 -37 -39 -14l-219 137l-217 -137q-39 -23 -39 14z" />
    <glyph glyph-name="adieresis.ss01" horiz-adv-x="1040" 
d="M487 174q47 0 77 29.5t30 72.5q0 102 -111 103q-43 0 -72.5 -30t-29.5 -72t29.5 -72.5t76.5 -30.5zM918 31q0 -12 -9.5 -21.5t-21.5 -9.5h-176q-47 0 -66 39l-29 61q-35 -51 -99 -83.5t-138 -32.5q-164 0 -241 80.5t-77 203.5t90.5 198t254.5 75q104 0 180 -31v41
q0 96 -133 96q-86 0 -220 -29q-31 -6 -34 23l-29 164q-6 29 25 37q123 41 319 41q396 0 404 -375v-477zM664 1038q-43 0 -73 29t-30 73t30 72.5t73 28.5t72.5 -28.5t29.5 -72.5t-29.5 -73t-72.5 -29zM365 1038q-43 0 -73 29t-30 73t30 72.5t73 28.5t72.5 -28.5t29.5 -72.5
t-29.5 -73t-72.5 -29z" />
    <glyph glyph-name="agrave.ss01" horiz-adv-x="1040" 
d="M487 174q47 0 77 29.5t30 72.5q0 102 -111 103q-43 0 -72.5 -30t-29.5 -72t29.5 -72.5t76.5 -30.5zM918 31q0 -12 -9.5 -21.5t-21.5 -9.5h-176q-47 0 -66 39l-29 61q-35 -51 -99 -83.5t-138 -32.5q-164 0 -241 80.5t-77 203.5t90.5 198t254.5 75q104 0 180 -31v41
q0 96 -133 96q-86 0 -220 -29q-31 -6 -34 23l-29 164q-6 29 25 37q123 41 319 41q396 0 404 -375v-477zM662 983l-340 225q-25 18 -7 45l88 133q25 29 48 5l280 -310q20 -23 8 -43l-32 -49q-18 -22 -45 -6z" />
    <glyph glyph-name="amacron.ss01" horiz-adv-x="1040" 
d="M487 174q47 0 77 29.5t30 72.5q0 102 -111 103q-43 0 -72.5 -30t-29.5 -72t29.5 -72.5t76.5 -30.5zM918 31q0 -12 -9.5 -21.5t-21.5 -9.5h-176q-47 0 -66 39l-29 61q-35 -51 -99 -83.5t-138 -32.5q-164 0 -241 80.5t-77 203.5t90.5 198t254.5 75q104 0 180 -31v41
q0 96 -133 96q-86 0 -220 -29q-31 -6 -34 23l-29 164q-6 29 25 37q123 41 319 41q396 0 404 -375v-477zM313 1040q-33 0 -32 31v119q0 31 32 31h402q33 0 33 -31v-119q0 -31 -33 -31h-402z" />
    <glyph glyph-name="aogonek.ss01" horiz-adv-x="1040" 
d="M487 174q47 0 77 29.5t30 72.5q0 102 -111 103q-43 0 -72.5 -30t-29.5 -72t29.5 -72.5t76.5 -30.5zM887 0h-94q-98 -111 -99 -211q0 -76 62 -76q51 0 100 41q18 14 31 0l22 -24q10 -10 4 -23q-16 -45 -65 -89t-133 -44t-141.5 44t-57.5 134q0 141 150 264q-14 10 -21 23
l-29 61q-35 -51 -99 -83.5t-138 -32.5q-164 0 -241 80.5t-77 203.5t90.5 198t254.5 75q104 0 180 -31v41q0 96 -133 96q-86 0 -220 -29q-31 -6 -34 23l-29 164q-6 29 25 37q123 41 319 41q395 0 404 -375v-477q0 -12 -9.5 -21.5t-21.5 -9.5z" />
    <glyph glyph-name="aring.ss01" horiz-adv-x="1040" 
d="M487 174q47 0 77 29.5t30 72.5q0 102 -111 103q-43 0 -72.5 -30t-29.5 -72t29.5 -72.5t76.5 -30.5zM918 31q0 -12 -9.5 -21.5t-21.5 -9.5h-176q-47 0 -66 39l-29 61q-35 -51 -99 -83.5t-138 -32.5q-164 0 -241 80.5t-77 203.5t90.5 198t254.5 75q104 0 180 -31v41
q0 96 -133 96q-86 0 -220 -29q-31 -6 -34 23l-29 164q-6 29 25 37q123 41 319 41q396 0 404 -375v-477zM512 1126q33 0 51.5 24t18.5 55.5t-18.5 55t-51.5 23.5t-49.5 -23.5t-16.5 -55.5t16.5 -55.5t49.5 -23.5zM513 979q-95 0 -159.5 62.5t-64.5 165t64.5 165t159.5 62.5
t160.5 -62.5t65.5 -165t-65.5 -165t-160.5 -62.5z" />
    <glyph glyph-name="atilde.ss01" horiz-adv-x="1040" 
d="M487 174q47 0 77 29.5t30 72.5q0 102 -111 103q-43 0 -72.5 -30t-29.5 -72t29.5 -72.5t76.5 -30.5zM918 31q0 -12 -9.5 -21.5t-21.5 -9.5h-176q-47 0 -66 39l-29 61q-35 -51 -99 -83.5t-138 -32.5q-164 0 -241 80.5t-77 203.5t90.5 198t254.5 75q104 0 180 -31v41
q0 96 -133 96q-86 0 -220 -29q-31 -6 -34 23l-29 164q-6 29 25 37q123 41 319 41q396 0 404 -375v-477zM641 1028q-64 0 -127 34t-131 34t-98 -52q-8 -12 -29 -4l-51 25q-16 6 -8 25q55 150 200 147q78 0 148.5 -34t110.5 -34t89 52q10 10 29 4l49 -21q16 -6 8 -24
q-25 -68 -75.5 -110t-114.5 -42z" />
    <glyph glyph-name="ae.ss01" horiz-adv-x="1525" 
d="M487 174q47 0 78 29.5t31 72.5q0 102 -113 103q-43 0 -72.5 -30t-29.5 -72t29.5 -72.5t76.5 -30.5zM928 545h211q0 127 -105.5 127t-105.5 -127zM1036 883q428 0 428 -533q0 -12 -9 -21.5t-21 -9.5h-502q33 -96 142 -96t171 37q31 16 43 -6l92 -137q18 -27 0 -43
q-123 -90 -309 -90t-317 110q-113 -111 -375 -110q-164 0 -241 80.5t-77 203.5t90.5 198t254.5 75q106 0 180 -29v39q0 96 -133 96q-104 0 -220 -29q-31 -6 -34 23l-29 164q-6 29 25 37q123 41 311 41t287 -76q110 76 243 76z" />
    <glyph glyph-name="b.ss01" horiz-adv-x="1060" 
d="M539 236q70 0 105.5 54t35.5 142t-35 143.5t-103.5 55.5t-92 -48t-23.5 -150.5t21.5 -149.5t91.5 -47zM594 883q197 0 301 -127t104 -322t-102 -322.5t-303 -127.5q-125 0 -217 86l-15 -31q-18 -39 -57 -39h-172q-12 0 -21.5 9t-9.5 22v1386q0 14 9.5 23.5t21.5 9.5h279
q31 0 30 -33v-573q74 39 152 39z" />
    <glyph glyph-name="c.ss01" horiz-adv-x="983" 
d="M504 -16q-190 0 -316.5 127t-126.5 323.5t127 322.5t314 126q147 0 253.5 -83t143.5 -222q4 -10 -3 -21.5t-17 -13.5l-205 -33q-29 -6 -37 18q0 2 -7 22q-29 82 -112 81q-137 0 -137 -198t127 -197q45 0 82 22.5t47 71.5q4 27 33 22l207 -33q33 -4 24 -36
q-25 -141 -137.5 -220t-259.5 -79z" />
    <glyph glyph-name="cacute.ss01" horiz-adv-x="983" 
d="M504 -16q-190 0 -316.5 127t-126.5 323.5t127 322.5t314 126q147 0 253.5 -83t143.5 -222q4 -10 -3 -21.5t-17 -13.5l-205 -33q-29 -6 -37 18q0 2 -7 22q-29 82 -112 81q-137 0 -137 -198t127 -197q45 0 82 22.5t47 71.5q4 27 33 22l207 -33q33 -4 24 -36
q-25 -141 -137.5 -220t-259.5 -79zM385 983q-27 -16 -45 6l-33 49q-12 20 8 43l281 310q23 25 47 -5l88 -133q18 -27 -6 -45z" />
    <glyph glyph-name="ccaron.ss01" horiz-adv-x="983" 
d="M504 -16q-190 0 -316.5 127t-126.5 323.5t127 322.5t314 126q147 0 253.5 -83t143.5 -222q4 -10 -3 -21.5t-17 -13.5l-205 -33q-29 -6 -37 18q0 2 -7 22q-29 82 -112 81q-137 0 -137 -198t127 -197q45 0 82 22.5t47 71.5q4 27 33 22l207 -33q33 -4 24 -36
q-25 -141 -137.5 -220t-259.5 -79zM770 1303v-70q0 -20 -20 -41l-183 -170q-25 -25 -51 -25h-8q-27 0 -51 25l-181 170q-20 20 -20 41v70q0 37 39 14l217 -137l219 137q39 23 39 -14z" />
    <glyph glyph-name="ccedilla.ss01" horiz-adv-x="983" 
d="M694 -231q0 -182 -221 -183q-51 0 -100 27q-80 44 -58 70l62 61q12 10 32.5 -10.5t61.5 -20.5q61 0 61 58q0 31 -20 46t-39.5 -1.5t-42.5 -16.5l-90 29q-14 4 -10 20l63 148q-147 35 -239.5 154.5t-92.5 300t127 306.5t314 126q147 0 253.5 -83t143.5 -222
q4 -10 -3 -21.5t-17 -13.5l-205 -33q-29 -6 -37 18q0 2 -7 22q-29 82 -112 81q-137 0 -137 -198t127 -197q45 0 82 22.5t47 71.5q4 27 33 22l207 -33q33 -4 24 -36q-25 -129 -122 -208t-230 -89l-25 -58q70 4 120 -37t50 -122z" />
    <glyph glyph-name="cdotaccent.ss01" horiz-adv-x="983" 
d="M504 -16q-190 0 -316.5 127t-126.5 323.5t127 322.5t314 126q147 0 253.5 -83t143.5 -222q4 -10 -3 -21.5t-17 -13.5l-205 -33q-29 -6 -37 18q0 2 -7 22q-29 82 -112 81q-137 0 -137 -198t127 -197q45 0 82 22.5t47 71.5q4 27 33 22l207 -33q33 -4 24 -36
q-25 -141 -137.5 -220t-259.5 -79zM514 1012q-53 0 -90 36.5t-37 89t37 89.5t90 37t90 -37t37 -89t-37 -89t-90 -37z" />
    <glyph glyph-name="d.ss01" horiz-adv-x="1060" 
d="M519.5 236q64.5 0 90 47t25.5 149.5t-25.5 150.5t-90 48t-101.5 -58.5t-37 -140.5t37 -139t101.5 -57zM930 1450q29 0 28 -33v-1386q0 -31 -28 -31h-174q-39 0 -58 39l-14 31q-96 -86 -225 -86q-199 0 -298.5 128t-99.5 324.5t103.5 321.5t294.5 125q84 0 159 -41v575
q0 14 9.5 23.5t21.5 9.5h281z" />
    <glyph glyph-name="dcaron.ss01" horiz-adv-x="1511" 
d="M519.5 236q64.5 0 90 47t25.5 149.5t-25.5 150.5t-90 48t-101.5 -58.5t-37 -140.5t37 -139t101.5 -57zM1423 1403v-232q0 -119 -79.5 -218t-202.5 -167q-23 -12 -32 15t11 39q104 66 142 132t38 165l-149 51q-33 12 -33 35v180q0 31 33 31h240q32 0 32 -31zM930 1450
q29 0 28 -33v-1386q0 -31 -28 -31h-174q-39 0 -58 39l-14 31q-96 -86 -225 -86q-199 0 -298.5 128t-99.5 324.5t103.5 321.5t294.5 125q84 0 159 -41v575q0 14 9.5 23.5t21.5 9.5h281z" />
    <glyph glyph-name="dcroat.ss01" horiz-adv-x="1148" 
d="M519.5 236q64.5 0 90 47t25.5 149.5t-25.5 150.5t-90 48t-101.5 -58.5t-37 -140.5t37 -139t101.5 -57zM1075 1272q33 0 33 -31v-139q0 -31 -33 -31h-117v-1040q0 -31 -28 -31h-174q-39 0 -58 39l-14 31q-96 -86 -225 -86q-199 0 -298.5 128t-99.5 324.5t103.5 321.5
t294.5 125q84 0 159 -41v229h-112q-33 0 -33 31v139q0 31 33 31h112v145q0 14 9.5 23.5t21.5 9.5h281q29 0 28 -33v-145h117z" />
    <glyph glyph-name="e.ss01" horiz-adv-x="987" 
d="M600 545q0 127 -105 127t-106 -127h211zM535.5 223q109.5 0 171.5 37q31 16 43 -6l92 -137q18 -27 0 -43q-123 -90 -317 -90t-329 126t-135 321.5t129 323.5t308 128q428 0 428 -533q0 -12 -9.5 -21.5t-21.5 -9.5h-502q33 -96 142.5 -96z" />
    <glyph glyph-name="eacute.ss01" horiz-adv-x="987" 
d="M600 545q0 127 -105 127t-106 -127h211zM535.5 223q109.5 0 171.5 37q31 16 43 -6l92 -137q18 -27 0 -43q-123 -90 -317 -90t-329 126t-135 321.5t129 323.5t308 128q428 0 428 -533q0 -12 -9.5 -21.5t-21.5 -9.5h-502q33 -96 142.5 -96zM401 983q-27 -16 -45 6l-32 49
q-12 20 8 43l280 310q23 25 47 -5l89 -133q18 -27 -7 -45z" />
    <glyph glyph-name="ecaron.ss01" horiz-adv-x="987" 
d="M600 545q0 127 -105 127t-106 -127h211zM535.5 223q109.5 0 171.5 37q31 16 43 -6l92 -137q18 -27 0 -43q-123 -90 -317 -90t-329 126t-135 321.5t129 323.5t308 128q428 0 428 -533q0 -12 -9.5 -21.5t-21.5 -9.5h-502q33 -96 142.5 -96zM786 1233q0 -20 -20 -41
l-182 -170q-25 -25 -52 -25h-8q-27 0 -51 25l-180 170q-20 20 -21 41v70q0 37 39 14l217 -137l220 137q39 23 38 -14v-70z" />
    <glyph glyph-name="ecircumflex.ss01" horiz-adv-x="987" 
d="M600 545q0 127 -105 127t-106 -127h211zM535.5 223q109.5 0 171.5 37q31 16 43 -6l92 -137q18 -27 0 -43q-123 -90 -317 -90t-329 126t-135 321.5t129 323.5t308 128q428 0 428 -533q0 -12 -9.5 -21.5t-21.5 -9.5h-502q33 -96 142.5 -96zM272 1020v70q0 20 21 40l180 170
q25 25 51 25h8q27 0 52 -25l182 -170q20 -20 20 -40v-70q1 -37 -38 -14l-220 137l-217 -137q-39 -23 -39 14z" />
    <glyph glyph-name="edieresis.ss01" horiz-adv-x="987" 
d="M600 545q0 127 -105 127t-106 -127h211zM535.5 223q109.5 0 171.5 37q31 16 43 -6l92 -137q18 -27 0 -43q-123 -90 -317 -90t-329 126t-135 321.5t129 323.5t308 128q428 0 428 -533q0 -12 -9.5 -21.5t-21.5 -9.5h-502q33 -96 142.5 -96zM680 1038q-43 0 -72.5 29
t-29.5 73t29.5 72.5t72.5 28.5t72.5 -28.5t29.5 -72.5t-29.5 -73t-72.5 -29zM381 1038q-43 0 -72.5 29t-29.5 73t29.5 72.5t72.5 28.5t72.5 -28.5t29.5 -72.5t-29.5 -73t-72.5 -29z" />
    <glyph glyph-name="edotaccent.ss01" horiz-adv-x="987" 
d="M600 545q0 127 -105 127t-106 -127h211zM535.5 223q109.5 0 171.5 37q31 16 43 -6l92 -137q18 -27 0 -43q-123 -90 -317 -90t-329 126t-135 321.5t129 323.5t308 128q428 0 428 -533q0 -12 -9.5 -21.5t-21.5 -9.5h-502q33 -96 142.5 -96zM530.5 1012q-53.5 0 -90.5 36.5
t-37 89t37 89.5t90.5 37t90 -37t36.5 -89t-36.5 -89t-90 -37z" />
    <glyph glyph-name="egrave.ss01" horiz-adv-x="987" 
d="M600 545q0 127 -105 127t-106 -127h211zM535.5 223q109.5 0 171.5 37q31 16 43 -6l92 -137q18 -27 0 -43q-123 -90 -317 -90t-329 126t-135 321.5t129 323.5t308 128q428 0 428 -533q0 -12 -9.5 -21.5t-21.5 -9.5h-502q33 -96 142.5 -96zM678 983l-340 225q-25 18 -6 45
l88 133q25 29 47 5l281 -310q20 -23 8 -43l-33 -49q-18 -22 -45 -6z" />
    <glyph glyph-name="emacron.ss01" horiz-adv-x="987" 
d="M600 545q0 127 -105 127t-106 -127h211zM535.5 223q109.5 0 171.5 37q31 16 43 -6l92 -137q18 -27 0 -43q-123 -90 -317 -90t-329 126t-135 321.5t129 323.5t308 128q428 0 428 -533q0 -12 -9.5 -21.5t-21.5 -9.5h-502q33 -96 142.5 -96zM330 1040q-33 0 -33 31v119
q0 31 33 31h401q33 0 33 -31v-119q0 -31 -33 -31h-401z" />
    <glyph glyph-name="eogonek.ss01" horiz-adv-x="987" 
d="M389 545h211q0 127 -106 127t-105 -127zM498 883q428 0 428 -533q0 -12 -9.5 -21.5t-21.5 -9.5h-502q33 -96 143 -96t171 37q31 16 43 -6l92 -137q18 -27 0 -43q-111 -82 -262 -88q-86 -102 -86 -188t61 -85q51 0 100 41q18 14 31 0l23 -24q10 -10 4 -23
q-16 -45 -65.5 -89t-133.5 -44t-141.5 44t-57.5 134q0 127 121 240q-166 29 -270.5 149.5t-104.5 302.5t129.5 310.5t307.5 128.5z" />
    <glyph glyph-name="g.ss01" horiz-adv-x="1017" 
d="M500 631q-49 0 -81 -24.5t-32 -72t32 -72t81 -24.5t81.5 24.5t32.5 72t-32.5 72t-81.5 24.5zM500 883q125 0 221 -52h205q31 0 30 -30v-123q0 -16 -28 -29l-35 -12q20 -53 20 -98q0 -145 -115.5 -249t-295.5 -104q-55 0 -105 13q-29 -12 -16 -43q10 -31 51 -31h240
q137 0 210.5 -76t73.5 -215q0 -293 -364 -293h-195q-172 0 -237.5 60.5t-65.5 179.5q0 23 5 30t26 7h233q16 0 21 -25q2 -23 35 -22h178q70 0 70 65q0 59 -52 60h-252q-260 0 -297 208q-29 162 86 263q-59 88 -59 178q0 141 115 239.5t297 98.5z" />
    <glyph glyph-name="gbreve.ss01" horiz-adv-x="1017" 
d="M500 631q-49 0 -81 -24.5t-32 -72t32 -72t81 -24.5t81.5 24.5t32.5 72t-32.5 72t-81.5 24.5zM500 883q125 0 221 -52h205q31 0 30 -30v-123q0 -16 -28 -29l-35 -12q20 -53 20 -98q0 -145 -115.5 -249t-295.5 -104q-55 0 -105 13q-29 -12 -16 -43q10 -31 51 -31h240
q137 0 210.5 -76t73.5 -215q0 -293 -364 -293h-195q-172 0 -237.5 60.5t-65.5 179.5q0 23 5 30t26 7h233q16 0 21 -25q2 -23 35 -22h178q70 0 70 65q0 59 -52 60h-252q-260 0 -297 208q-29 162 86 263q-59 88 -59 178q0 141 115 239.5t297 98.5zM498 1006q-223 0 -310 213
q-6 14 11 20l131 57q14 6 22 -8q33 -55 62.5 -79.5t83 -24.5t83 24.5t62.5 79.5q8 14 23 8l131 -57q16 -6 10 -20q-86 -213 -309 -213z" />
    <glyph glyph-name="gcommaaccent.ss01" horiz-adv-x="1017" 
d="M500 631q-49 0 -81 -24.5t-32 -72t32 -72t81 -24.5t81.5 24.5t32.5 72t-32.5 72t-81.5 24.5zM500 883q125 0 221 -52h205q31 0 30 -30v-123q0 -16 -28 -29l-35 -12q20 -53 20 -98q0 -145 -115.5 -249t-295.5 -104q-55 0 -105 13q-29 -12 -16 -43q10 -31 51 -31h240
q137 0 210.5 -76t73.5 -215q0 -293 -364 -293h-195q-172 0 -237.5 60.5t-65.5 179.5q0 23 5 30t26 7h233q16 0 21 -25q2 -23 35 -22h178q70 0 70 65q0 59 -52 60h-252q-260 0 -297 208q-29 162 86 263q-59 88 -59 178q0 141 115 239.5t297 98.5zM393 1001v173
q0 70 58.5 118.5t121.5 67.5q23 6 28 -14t-17 -29q-117 -41 -117 -133l104 -35q33 -10 33 -35v-113q0 -31 -33 -30h-145q-33 -1 -33 30z" />
    <glyph glyph-name="gdotaccent.ss01" horiz-adv-x="1017" 
d="M500 631q-49 0 -81 -24.5t-32 -72t32 -72t81 -24.5t81.5 24.5t32.5 72t-32.5 72t-81.5 24.5zM500 883q125 0 221 -52h205q31 0 30 -30v-123q0 -16 -28 -29l-35 -12q20 -53 20 -98q0 -145 -115.5 -249t-295.5 -104q-55 0 -105 13q-29 -12 -16 -43q10 -31 51 -31h240
q137 0 210.5 -76t73.5 -215q0 -293 -364 -293h-195q-172 0 -237.5 60.5t-65.5 179.5q0 23 5 30t26 7h233q16 0 21 -25q2 -23 35 -22h178q70 0 70 65q0 59 -52 60h-252q-260 0 -297 208q-29 162 86 263q-59 88 -59 178q0 141 115 239.5t297 98.5zM497.5 1012
q-53.5 0 -89.5 36q-36 38 -36.5 90t36 89t90 37t90.5 -37t37 -89t-37 -89t-90.5 -37z" />
    <glyph glyph-name="o.ss01" horiz-adv-x="1009" 
d="M381 430q0 -194 124 -194t124 194.5t-123 194.5q-68 0 -96.5 -48.5t-28.5 -146.5zM504.5 -16q-191.5 0 -317.5 129t-126 318t126 320.5t317.5 131.5t317.5 -131t126 -320.5t-126 -318.5t-317.5 -129z" />
    </font>
</defs>
</svg>
